<?xml version="1.0" encoding="UTF-8" standalone="no" ?>
<!DOCTYPE svg PUBLIC "-//W3C//DTD SVG 1.1//EN" "http://www.w3.org/Graphics/SVG/1.1/DTD/svg11.dtd">
<svg xmlns="http://www.w3.org/2000/svg" xmlns:xlink="http://www.w3.org/1999/xlink" version="1.1" width="1080" height="1080" viewBox="0 0 1080 1080" xml:space="preserve">
<g transform="matrix(1 0 0 1 540 540)" id="15f7a8b7-8545-456c-962b-e045569dda54"  >
</g>
<g transform="matrix(1 0 0 1 540 540)" id="7fb6ee55-822e-4533-99a9-6629f929f11b"  >
<rect style="stroke: none; stroke-width: 1; stroke-dasharray: none; stroke-linecap: butt; stroke-dashoffset: 0; stroke-linejoin: miter; stroke-miterlimit: 4; fill: rgb(255,255,255); fill-rule: nonzero; opacity: 1; visibility: hidden;" vector-effect="non-scaling-stroke"  x="-540" y="-540" rx="0" ry="0" width="1080" height="1080" />
</g>
<g transform="matrix(9.78 0 0 9.78 565.13 170.73)"  >
<path style="stroke: none; stroke-width: 1; stroke-dasharray: none; stroke-linecap: butt; stroke-dashoffset: 0; stroke-linejoin: miter; stroke-miterlimit: 4; fill: rgb(0,0,0); fill-rule: nonzero; opacity: 1;" vector-effect="non-scaling-stroke"  transform=" translate(-50.12, -11.41)" d="M 59.035 11.41 C 59.035 16.3319 55.046699999999994 20.3241 50.12479999999999 20.3241 C 45.20289999999999 20.3241 41.21459999999999 16.3319 41.21459999999999 11.410000000000002 C 41.21459999999999 6.488100000000003 45.20289999999999 2.4998000000000022 50.12479999999999 2.4998000000000022 C 55.046699999999994 2.4998000000000022 59.035 6.488100000000003 59.035 11.410000000000002" stroke-linecap="round" />
</g>
<g transform="matrix(9.78 0 0 9.78 563.93 647.19)"  >
<path style="stroke: none; stroke-width: 1; stroke-dasharray: none; stroke-linecap: butt; stroke-dashoffset: 0; stroke-linejoin: miter; stroke-miterlimit: 4; fill: rgb(0,0,0); fill-rule: nonzero; opacity: 1;" vector-effect="non-scaling-stroke"  transform=" translate(-50, -60.14)" d="M 68.434 56.336 C 68.06681 56.45709 67.57462 56.58209 67.08239999999999 56.58209 C 65.23859999999999 56.58209 63.402699999999996 55.35159 62.78939999999999 53.38289 L 59.41049999999999 42.851890000000004 C 59.31284399999999 42.5433 58.85580999999999 42.633140000000004 58.875339999999994 42.953450000000004 L 59.711279999999995 55.47345 L 65.35968 91.48545 C 65.72686999999999 94.42685 63.773779999999995 97.13385 60.82058 97.50105 L 60.0823 97.50105 C 57.375299999999996 97.50105 55.160399999999996 95.65725 54.7932 92.95025000000001 L 50.2776 64.64125000000001 C 50.234631 64.32875000000001 49.78151 64.32875000000001 49.73463 64.64125000000001 L 45.20733 92.95025000000001 C 44.84014 95.53225 42.50033 97.50105 39.93003 97.50105 L 39.19175 97.50105 C 36.23865 97.00886000000001 34.26985 94.42685 34.64095 91.48545 L 40.30114999999999 55.47345 L 41.13708999999999 42.953450000000004 C 41.160526999999995 42.62923000000001 40.70349999999999 42.543290000000006 40.601929999999996 42.851890000000004 L 37.223029999999994 53.38289 C 36.60974999999999 55.351690000000005 34.88712999999999 56.58209 32.91833 56.58209 C 32.547239999999995 56.58209 32.058949999999996 56.461 31.566729999999996 56.336 C 29.117529999999995 55.47662 27.887029999999996 52.890699999999995 28.625329999999998 50.5548 L 35.012029999999996 30.6488 C 36.48862999999999 25.973000000000003 40.918229999999994 22.785500000000003 45.82402999999999 22.785500000000003 L 54.30062999999999 22.785500000000003 C 59.22252999999999 22.785500000000003 63.65222999999999 25.973000000000003 65.11263 30.6488 L 71.38602999999999 50.5548 C 72.12431 53.0118 70.77274999999999 55.5978 68.43292999999998 56.336 z" stroke-linecap="round" />
</g>
</svg>
