<?xml version="1.0" encoding="UTF-8" standalone="no" ?>
<!DOCTYPE svg PUBLIC "-//W3C//DTD SVG 1.1//EN" "http://www.w3.org/Graphics/SVG/1.1/DTD/svg11.dtd">
<svg xmlns="http://www.w3.org/2000/svg" xmlns:xlink="http://www.w3.org/1999/xlink" version="1.1" width="1080" height="1080" viewBox="0 0 1080 1080" xml:space="preserve">
<desc>Created with Fabric.js 5.2.4</desc>
<defs>
</defs>
<g transform="matrix(1 0 0 1 540 540)" id="80f0d99c-44b2-45fe-b77c-1c55208792c9"  >
<rect style="stroke: none; stroke-width: 1; stroke-dasharray: none; stroke-linecap: butt; stroke-dashoffset: 0; stroke-linejoin: miter; stroke-miterlimit: 4; fill: rgb(255,255,255); fill-rule: nonzero; opacity: 1; visibility: hidden;" vector-effect="non-scaling-stroke"  x="-540" y="-540" rx="0" ry="0" width="1080" height="1080" />
</g>
<g transform="matrix(1 0 0 1 540 540)" id="6c7dc9f3-b576-4984-94b6-3926c95fbb6b"  >
</g>
<g transform="matrix(1.32 0 0 1.32 539.98 539.98)"  >
<g style="" vector-effect="non-scaling-stroke"   >
		<g transform="matrix(1.33 0 0 1.33 119.52 -44.99)"  >
<path style="stroke: none; stroke-width: 1; stroke-dasharray: none; stroke-linecap: butt; stroke-dashoffset: 0; stroke-linejoin: miter; stroke-miterlimit: 4; fill: rgb(0,0,0); fill-rule: nonzero; opacity: 1;" vector-effect="non-scaling-stroke"  transform=" translate(-439.64, -246.26)" d="M 439.64 219.36 C 424.812 219.36 412.745 231.42600000000002 412.745 246.25500000000002 C 412.745 261.08400000000006 424.811 273.15000000000003 439.64 273.15000000000003 C 454.469 273.15000000000003 466.53499999999997 261.08400000000006 466.53499999999997 246.25500000000002 C 466.531094 231.42700000000002 454.465 219.36 439.64 219.36 z M 439.64 255.21900000000002 C 434.7025 255.21900000000002 430.67519999999996 251.1956 430.67519999999996 246.25420000000003 C 430.67519999999996 241.31670000000003 434.69859999999994 237.28940000000003 439.64 237.28940000000003 C 444.5775 237.28940000000003 448.6048 241.31280000000004 448.6048 246.25420000000003 C 448.60089400000004 251.19170000000003 444.5775 255.21900000000002 439.64 255.21900000000002 z" stroke-linecap="round" />
</g>
		<g transform="matrix(1.33 0 0 1.33 251 -9.14)"  >
<path style="stroke: none; stroke-width: 1; stroke-dasharray: none; stroke-linecap: butt; stroke-dashoffset: 0; stroke-linejoin: miter; stroke-miterlimit: 4; fill: rgb(0,0,0); fill-rule: nonzero; opacity: 1;" vector-effect="non-scaling-stroke"  transform=" translate(-538.25, -273.14)" d="M 538.25 237.29 C 518.477 237.29 502.395 253.37199999999999 502.395 273.145 C 502.395 292.918 518.477 309 538.25 309 C 558.023 309 574.105 292.918 574.105 273.145 C 574.108906 253.37199999999999 558.027 237.29 538.25 237.29 z M 538.25 291.075 C 528.3633 291.075 520.32 283.03589999999997 520.32 273.145 C 520.32 263.25829999999996 528.3591 255.21499999999997 538.25 255.21499999999997 C 548.1367 255.21499999999997 556.18 263.2541 556.18 273.145 C 556.18 283.03589999999997 548.137 291.075 538.25 291.075 z" stroke-linecap="round" />
</g>
		<g transform="matrix(1.33 0 0 1.33 -179.29 -21.09)"  >
<path style="stroke: none; stroke-width: 1; stroke-dasharray: none; stroke-linecap: butt; stroke-dashoffset: 0; stroke-linejoin: miter; stroke-miterlimit: 4; fill: rgb(0,0,0); fill-rule: nonzero; opacity: 1;" vector-effect="non-scaling-stroke"  transform=" translate(-215.53, -264.18)" d="M 251.39 237.29 L 233.45999999999998 237.29 C 233.45999999999998 257.063 217.378 273.145 197.605 273.145 L 179.67499999999998 273.145 L 179.67499999999998 291.075 L 197.605 291.075 C 227.265 291.075 251.39 266.942 251.39 237.29 z" stroke-linecap="round" />
</g>
		<g transform="matrix(1.33 0 0 1.33 -11.95 -21.09)"  >
<path style="stroke: none; stroke-width: 1; stroke-dasharray: none; stroke-linecap: butt; stroke-dashoffset: 0; stroke-linejoin: miter; stroke-miterlimit: 4; fill: rgb(0,0,0); fill-rule: nonzero; opacity: 1;" vector-effect="non-scaling-stroke"  transform=" translate(-341.03, -264.18)" d="M 358.96 291.07 L 376.89 291.07 L 376.89 273.14 L 358.96 273.14 C 339.18699999999995 273.14 323.10499999999996 257.058 323.10499999999996 237.285 L 305.17499999999995 237.285 C 305.17499999999995 266.937 329.29599999999994 291.07 358.9599999999999 291.07 z" stroke-linecap="round" />
</g>
		<g transform="matrix(1.33 0 0 1.33 -95.61 110.39)"  >
<path style="stroke: none; stroke-width: 1; stroke-dasharray: none; stroke-linecap: butt; stroke-dashoffset: 0; stroke-linejoin: miter; stroke-miterlimit: 4; fill: rgb(0,0,0); fill-rule: nonzero; opacity: 1;" vector-effect="non-scaling-stroke"  transform=" translate(-278.29, -362.79)" d="M 323.11 375.18 C 323.11 371.5589 322.25062 367.9261 320.63730000000004 364.684 L 309.19930000000005 341.797 C 304.6095 332.62510000000003 295.39430000000004 326.934 285.14830000000006 326.934 L 271.44930000000005 326.934 C 261.20330000000007 326.934 251.98830000000004 332.6254 247.39830000000006 341.797 L 235.96030000000007 364.684 C 234.32750000000007 367.9184 233.46810000000008 371.5473 233.46810000000008 375.18 C 233.46810000000008 388.125 243.99110000000007 398.649 256.9371000000001 398.649 L 299.6441000000001 398.649 C 312.58510000000007 398.64509400000003 323.10910000000007 388.114 323.10910000000007 375.18 z M 299.641 380.7191 L 256.934 380.7191 C 253.8754 380.7191 251.39490000000004 378.23470000000003 251.39490000000004 375.18 C 251.39490000000004 374.32844 251.59021000000004 373.4691 251.97693000000004 372.70730000000003 L 263.41493 349.82030000000003 C 264.93833 346.7617 268.01263 344.86330000000004 271.43053000000003 344.86330000000004 L 285.12953000000005 344.86330000000004 C 288.54363000000006 344.86330000000004 291.61783 346.76560000000006 293.14513000000005 349.82030000000003 L 304.58313000000004 372.70730000000003 C 304.98547 373.46511000000004 305.18469000000005 374.3167 305.18469000000005 375.18 C 305.18469000000005 378.2269 302.70029000000005 380.7191 299.64169000000004 380.7191 z" stroke-linecap="round" />
</g>
		<g transform="matrix(1.33 0 0 1.33 0 0)"  >
<path style="stroke: none; stroke-width: 1; stroke-dasharray: none; stroke-linecap: butt; stroke-dashoffset: 0; stroke-linejoin: miter; stroke-miterlimit: 4; fill: rgb(0,0,0); fill-rule: nonzero; opacity: 1;" vector-effect="non-scaling-stroke"  transform=" translate(-350, -280)" d="M 479.28 371.51 L 461.34999999999997 497.01 L 435.87699999999995 452.432 L 370.6619999999999 452.432 C 368.1346999999999 450.65860000000004 365.5057999999999 448.9984 362.81819999999993 447.4554 C 402.1621999999999 434.5024 430.6771999999999 397.4514 430.6771999999999 353.8224 L 430.6771999999999 322.2054 C 451.0251999999999 336.4394 475.7321999999999 344.8574 502.3921999999999 344.8574 C 571.5951999999999 344.8574 627.8921999999999 288.56039999999996 627.8921999999999 219.35739999999998 C 627.8921999999999 136.11539999999997 513.8121999999998 12.307399999999973 508.9621999999999 7.067399999999992 L 502.3918999999999 -0.002900000000007452 L 495.82159999999993 7.071299999999993 C 494.2629999999999 8.754899999999992 481.3605999999999 22.766299999999994 464.60659999999996 43.708299999999994 C 457.22769999999997 30.181299999999993 447.9976 17.817299999999996 437.01259999999996 6.829299999999996 L 430.6767 0.5011999999999963 L 424.3408 6.837099999999996 C 402.9068 28.271099999999997 374.41880000000003 40.067099999999996 344.1108 40.067099999999996 L 208.77079999999998 40.067099999999996 C 133.40779999999998 40.067099999999996 72.10079999999999 101.3761 72.10079999999999 176.7371 C 72.10079999999999 187.88909999999998 73.47189999999999 199.0421 76.1789 209.8851 L 86.1281 249.6861 C 77.5343 257.86580000000004 72.1011 269.3311 72.1011 282.1041 C 72.1011 306.8191 92.2061 326.9241 116.9211 326.9241 L 125.88589999999999 326.9241 L 125.88589999999999 353.8191 C 125.88589999999999 397.4481 154.40189999999998 434.4991 193.7529 447.4521 C 163.97590000000002 464.4401 143.81490000000002 496.4321 143.81490000000002 533.1041 L 143.81490000000002 559.9991 L 412.74490000000003 559.9991 L 412.74490000000003 533.1041 C 412.74490000000003 509.28810000000004 404.25660000000005 487.4131 390.1469 470.3541 L 425.47490000000005 470.3541 L 471.71290000000005 551.2761 L 489.64290000000005 425.77610000000004 L 515.1199 470.3541 L 627.8899 470.3541 L 627.8899 452.4241 L 525.5099 452.42800700000004 z M 502.393 326.932 C 443.077 326.932 394.823 278.678 394.823 219.36200000000002 C 394.823 209.56510000000003 396.85819999999995 198.95200000000003 400.1199 187.979 C 401.2761 188.78759000000002 402.44019999999995 189.64700000000002 403.68629999999996 190.6157 C 409.95189999999997 195.4399 417.75229999999993 201.4437 432.4523 201.4437 C 447.14329999999995 201.4437 454.9443 195.4476 461.21029999999996 190.6157 C 466.56969999999995 186.4907 470.43299999999994 183.5141 479.03029999999995 183.5141 C 487.6276 183.5141 491.50729999999993 186.4985 496.87029999999993 190.6157 C 503.13589999999994 195.4399 510.94429999999994 201.4437 525.6473 201.4437 C 540.3583 201.4437 548.1553 195.4476 554.4322999999999 190.6237 C 559.8033999999999 186.4987 563.6745 183.51430000000002 572.2873 183.51430000000002 C 580.9005999999999 183.51430000000002 584.7832999999999 186.4987 590.1423 190.6237 C 594.5095 193.98700000000002 599.8337 197.901 607.6582999999999 199.9753 C 609.0215999999999 206.6394 609.963 213.1823 609.963 219.3583 C 609.963 278.6673 561.709 326.92830000000004 502.393 326.92830000000004 z M 502.393 26.612000000000023 C 521.756 48.663000000000025 578.471 116.40900000000002 600.741 176.13200000000003 C 594.5183 171.35470000000004 586.749 165.56200000000004 572.28 165.56200000000004 C 557.569 165.56200000000004 549.7719999999999 171.55810000000005 543.495 176.38200000000003 C 538.1239 180.50700000000003 534.2528 183.49140000000003 525.64 183.49140000000003 C 517.0345 183.49140000000003 513.163 180.50700000000003 507.8 176.38980000000004 C 501.5344 171.56560000000005 493.726 165.56180000000003 479.034 165.56180000000003 C 464.342 165.56180000000003 456.542 171.55790000000005 450.276 176.38980000000004 C 444.9166 180.51480000000004 441.05330000000004 183.49140000000003 432.456 183.49140000000003 C 423.85830000000004 183.49140000000003 419.987 180.50700000000003 414.62800000000004 176.38980000000004 C 412.1358 174.47180000000003 409.42100000000005 172.44450000000003 406.20220000000006 170.64370000000002 C 429.77220000000005 112.30770000000003 483.62020000000007 47.99370000000002 502.3932000000001 26.603700000000032 z M 93.58299999999997 205.54200000000003 C 91.22359999999998 196.12010000000004 90.03219999999997 186.42900000000003 90.03219999999997 176.73700000000002 C 90.03219999999997 111.26400000000002 143.29819999999998 57.99700000000003 208.77219999999997 57.99700000000003 L 344.1122 57.99700000000003 C 376.1162 57.99700000000003 406.37019999999995 46.630000000000024 430.2682 25.81300000000003 C 439.233 35.90700000000003 446.5732 47.192000000000036 452.3932 59.39500000000003 C 426.05719999999997 94.08600000000004 395.2992 140.82900000000004 382.72119999999995 183.49500000000003 L 251.39119999999994 183.49500000000003 C 211.84819999999993 183.49500000000003 179.67619999999994 151.32300000000004 179.67619999999994 111.78000000000003 L 161.74619999999993 111.78000000000003 C 161.74619999999993 129.95200000000003 167.21499999999992 146.84600000000003 176.54719999999992 160.99500000000003 C 146.86319999999992 171.42100000000002 125.88719999999992 199.85400000000004 125.88719999999992 232.23300000000003 L 125.88719999999992 237.27990000000003 L 116.92629999999993 237.27990000000003 C 111.73489999999993 237.27990000000003 106.83229999999993 238.33850000000004 102.18829999999993 239.96740000000003 z M 116.92699999999996 309.002 C 102.09899999999996 309.002 90.03199999999997 296.93600000000004 90.03199999999997 282.107 C 90.03199999999997 267.278 102.09799999999997 255.21200000000002 116.92699999999996 255.21200000000002 L 125.89179999999996 255.21200000000002 L 125.89179999999996 308.997 z M 224.49699999999996 434.502 C 180.01699999999997 434.502 143.81699999999995 398.303 143.81699999999995 353.822 L 143.81699999999995 232.24200000000002 C 143.81699999999995 205.187 163.09799999999996 181.92600000000002 189.20399999999995 176.20700000000002 C 205.34099999999995 191.78500000000003 227.23899999999995 201.42200000000003 251.38799999999995 201.42200000000003 L 378.5179999999999 201.42200000000003 C 377.4867999999999 207.55480000000003 376.88519999999994 213.55900000000003 376.88519999999994 219.35200000000003 C 376.88519999999994 253.45400000000004 390.6001999999999 284.379 412.74019999999996 307.01200000000006 L 412.74019999999996 353.81300000000005 C 412.74019999999996 398.29300000000006 376.54119999999995 434.49300000000005 332.06019999999995 434.49300000000005 L 224.49019999999996 434.4969070000001 z M 303.52399999999994 452.432 C 299.81309999999996 462.838 289.95399999999995 470.362 278.2819999999999 470.362 C 266.6099999999999 470.362 256.7509999999999 462.84250000000003 253.03999999999994 452.432 z M 394.81699999999995 542.073 L 358.96199999999993 542.073 L 358.96199999999993 506.21799999999996 L 341.0319999999999 506.21799999999996 L 341.0319999999999 542.073 L 215.53199999999993 542.073 L 215.53199999999993 506.21799999999996 L 197.60199999999992 506.21799999999996 L 197.60199999999992 542.073 L 161.74699999999993 542.073 L 161.74699999999993 533.1082 C 161.74699999999993 491.3072 193.71199999999993 456.83820000000003 234.48499999999993 452.8352 C 238.80529999999993 473.0582 256.7899999999999 488.28819999999996 278.28599999999994 488.28819999999996 C 299.7819999999999 488.28819999999996 317.76599999999996 473.05819999999994 322.08699999999993 452.8352 C 362.85299999999995 456.8313 394.81699999999995 491.3002 394.81699999999995 533.1082 z" stroke-linecap="round" />
</g>
		<g transform="matrix(1.33 0 0 1.33 358.57 194.05)"  >
<path style="stroke: none; stroke-width: 1; stroke-dasharray: none; stroke-linecap: butt; stroke-dashoffset: 0; stroke-linejoin: miter; stroke-miterlimit: 4; fill: rgb(0,0,0); fill-rule: nonzero; opacity: 1;" vector-effect="non-scaling-stroke"  transform=" translate(-618.92, -425.53)" d="M 609.96 416.57 L 627.89 416.57 L 627.89 434.5 L 609.96 434.5 z" stroke-linecap="round" />
</g>
		<g transform="matrix(1.33 0 0 1.33 310.77 194.05)"  >
<path style="stroke: none; stroke-width: 1; stroke-dasharray: none; stroke-linecap: butt; stroke-dashoffset: 0; stroke-linejoin: miter; stroke-miterlimit: 4; fill: rgb(0,0,0); fill-rule: nonzero; opacity: 1;" vector-effect="non-scaling-stroke"  transform=" translate(-583.08, -425.53)" d="M 574.11 416.57 L 592.04 416.57 L 592.04 434.5 L 574.11 434.5 z" stroke-linecap="round" />
</g>
		<g transform="matrix(1.33 0 0 1.33 262.96 194.05)"  >
<path style="stroke: none; stroke-width: 1; stroke-dasharray: none; stroke-linecap: butt; stroke-dashoffset: 0; stroke-linejoin: miter; stroke-miterlimit: 4; fill: rgb(0,0,0); fill-rule: nonzero; opacity: 1;" vector-effect="non-scaling-stroke"  transform=" translate(-547.21, -425.53)" d="M 538.25 416.57 L 556.18 416.57 L 556.18 434.5 L 538.25 434.5 z" stroke-linecap="round" />
</g>
</g>
</g>
</svg>