<?xml version="1.0" encoding="utf-8"?>
<svg version="1.1" x="0px" y="0px" viewBox="0 0 100 125" style="enable-background:new 0 0 100 100;" xmlns="http://www.w3.org/2000/svg">
  <path d="M 89.325 106.002 C 89.672 106.347 90.128 106.521 90.582 106.521 C 91.046 106.521 91.508 106.34 91.859 105.981 C 92.553 105.267 92.544 104.124 91.838 103.424 C 85.088 96.725 85.726 92.165 86.693 85.264 C 87.101 82.351 87.562 79.049 87.522 75.151 C 87.4 62.97 76.765 58.009 75.525 57.472 C 74.856 57.08 66.961 52.104 66.961 35.432 L 66.961 8.635 C 66.961 7.637 66.159 6.827 65.169 6.827 L 56.316 6.827 C 55.327 6.827 54.524 7.637 54.524 8.635 L 54.524 33.625 L 41.785 33.625 L 41.785 8.635 C 41.785 7.637 40.981 6.827 39.993 6.827 L 31.137 6.827 C 30.147 6.827 29.345 7.637 29.345 8.635 L 29.345 35.434 C 29.345 52.159 21.4 57.114 20.789 57.472 C 19.575 57.998 8.907 62.954 8.787 75.152 C 8.749 79.052 9.211 82.353 9.617 85.266 C 10.584 92.166 11.22 96.726 4.471 103.425 C 3.763 104.125 3.755 105.271 4.448 105.982 C 4.799 106.341 5.262 106.522 5.726 106.522 C 6.18 106.522 6.635 106.349 6.982 106.004 C 15.019 98.026 14.16 91.879 13.165 84.759 C 12.776 81.973 12.332 78.815 12.371 75.189 C 12.44 68.18 16.883 64.079 19.797 62.14 L 19.797 109.629 C 19.797 110.434 20.324 111.142 21.091 111.364 C 30.07 113.983 39.112 115.291 48.154 115.291 C 57.195 115.291 66.238 113.983 75.216 111.364 C 75.984 111.14 76.51 110.434 76.51 109.629 L 76.51 62.139 C 79.425 64.076 83.868 68.177 83.938 75.188 C 83.973 78.812 83.533 81.969 83.142 84.756 C 82.15 91.877 81.288 98.025 89.325 106.002 Z M 58.109 10.444 L 63.379 10.444 L 63.379 33.625 L 58.109 33.625 L 58.109 10.444 Z M 32.93 10.444 L 38.202 10.444 L 38.202 33.625 L 32.93 33.625 L 32.93 10.444 Z M 72.928 108.259 C 56.483 112.811 39.83 112.811 23.383 108.259 L 23.383 60.063 C 25.878 58.224 32.404 52.022 32.901 37.239 L 39.995 37.239 L 56.32 37.239 L 63.411 37.239 C 63.908 52.022 70.435 58.224 72.929 60.063 L 72.929 108.259 L 72.928 108.259 Z" style=""/>
</svg>