<?xml version="1.0" encoding="utf-8"?>
<!-- Generator: Adobe Illustrator 16.0.0, SVG Export Plug-In . SVG Version: 6.00 Build 0)  -->
<!DOCTYPE svg PUBLIC "-//W3C//DTD SVG 1.1//EN" "http://www.w3.org/Graphics/SVG/1.1/DTD/svg11.dtd">
<svg version="1.1" id="Layer_1" xmlns="http://www.w3.org/2000/svg" xmlns:xlink="http://www.w3.org/1999/xlink" x="0px" y="0px"
	 width="841.89px" height="595.28px" viewBox="0 0 841.89 595.28" enable-background="new 0 0 841.89 595.28" xml:space="preserve">
<path d="M205.212,350.605C205.211,350.605,205.211,350.605,205.212,350.605L205.212,350.605c-0.005-0.008-0.01-0.016-0.014-0.023
	v0.002l0.081,0.082C205.258,350.645,205.233,350.625,205.212,350.605z M650.969,322.927c-2.699,8.95-6.033,17.665-11.441,25.419
	c-0.357,0.512-0.727,1.018-1.35,1.895c0-0.848-0.116-1.307,0.02-1.676c1.488-4.049,0.91-7.957-0.994-11.663
	c-4.957-9.646-6.189-19.868-5.004-30.507c0.043-0.396,0.024-0.803,0-1.205c-0.009-0.145-0.119-0.283-0.187-0.425
	c-1.21-0.161-1.915-0.221-2.348,0c-0.433,0.224-0.594,0.729-0.715,1.695c-0.036,0.277-0.065,0.591-0.102,0.947
	c-1.315,13.937-2.559,27.899-6.28,41.464c-8.055,29.371-20.973,56.38-39.508,80.621c-1.219,1.598-2.787,2.936-3.936,4.572
	c-0.627,0.893-0.914,2.16-0.918,3.262c-0.002,0.293,1.645,0.514,2.472,0.898c2.508,1.162,5.101,2.199,7.437,3.646
	c2.108,1.303,3.85,3.186,5.887,4.621c1.693,1.191,1.809,2.271,0.338,3.574c-3.377-2.346-6.762-4.694-10.146-7.042
	c-0.214,0.229-0.43,0.457-0.644,0.685c1.784,1.842,3.452,3.822,5.384,5.496c3.902,3.387,3.96,3.318,0.221,6.749
	c-4.16,3.817-8.309,7.644-12.482,11.446c-0.695,0.635-1.486,1.162-2.078,1.619c-3.805-3.603-5.742-7.838-6.506-12.946
	c-0.563-3.764,0.365-6.576,2.625-9.294c1.182-1.422,2.402-2.835,3.378-4.395c0.373-0.597,0.114-1.592,0.144-2.406
	c-0.798,0.135-1.849-0.008-2.345,0.452c-1.706,1.585-3.187,3.413-4.811,5.089c-18.229,18.789-38.562,34.643-62.813,45.041
	c-1.303,0.558-2.514,1.328-3.826,2.028c3.265,6.838,6.404,13.421,9.724,20.368c-7.169,2.715-14.431,5.461-21.528,8.15
	c-2.686-6.298-5.273-12.364-7.936-18.608c5.533-2.661,12.105-3.034,16.951-7.253c-0.955-2.01-2.349-1.092-3.426-0.736
	c-5.561,1.834-11.029,3.964-16.631,5.65c-16.576,4.992-33.54,7.678-50.848,8.221c-2.205,0.07-4.39,0.644-6.594,0.76
	c-0.937,0.049-1.899-0.682-2.856-0.704c-23.482-0.573-46.014-5.77-67.98-13.804c-1.392-0.511-3.037-1.617-4.124,0.857
	c4.904,3.698,11.174,4.121,16.532,6.691c-2.433,6.242-4.804,12.326-7.35,18.861c-6.826-2.637-14.103-5.447-21.714-8.389
	c2.653-5.4,5.109-10.408,7.575-15.408c0.176-0.355,0.434-0.675,0.648-1.014c1.875-3.001,1.759-3.25-1.386-4.719
	c-21.798-10.186-42.109-22.588-59.123-39.865c-3.561-3.617-6.993-7.361-10.576-10.957c-0.628-0.633-1.7-0.83-2.566-1.226
	c0.143,1.079-0.05,2.388,0.492,3.202c1.421,2.139,3.227,4.018,4.762,6.086c3.383,4.549,2.505,12.6-1.72,16.474
	c-1.185,1.084-2.35,2.19-3.75,3.503c-5.545-5.037-11.231-10.205-17.126-15.562c2.936-3.207,5.836-6.374,8.738-9.542l-0.53-0.604
	c-3.535,2.52-7.068,5.038-10.692,7.62c-0.441-0.671-0.958-1.464-1.562-2.386c4.332-3.184,8.54-6.383,12.883-9.389
	c0.982-0.682,2.414-0.82,3.669-0.98c2.587-0.334,3.282-1.799,1.621-3.988c-1.604-2.117-3.406-4.082-5.083-6.146
	c-19.266-23.728-31.759-50.861-39.902-80.104c-3.215-11.547-4.939-23.412-6.111-35.348c-0.188-1.917-0.436-3.854-0.943-5.703
	c-0.234-0.854-1.165-1.514-1.78-2.262c-0.333,0.135-0.664,0.27-0.995,0.404c0,5.147,0.012,10.295-0.002,15.439
	c-0.017,5.758-1.661,11.092-4.151,16.228c-1.904,3.925-2.956,8.034-1.686,12.372c0.076,0.254,0.247,0.479,0.463,0.693
	c0.016,0.016,0.028,0.03,0.042,0.044c0.029,0.027,0.061,0.054,0.091,0.081c0.385,0.345,0.869,0.66,1.251,1.006
	c0.133,0.215,0.237,0.411,0.313,0.598c0.224,0.531,0.204,0.945-0.098,1.272c-0.03,0.03-0.063,0.061-0.098,0.091
	c-0.014,0.013-0.024,0.024-0.038,0.035c-0.253,0.203-0.634,0.369-1.153,0.506c-2.459,0.648-4.85,1.559-7.493,2.429
	c1.272,1.714,2.812,2.783,5.153,2.149c4.371-1.185,8.079-3.505,11.315-6.633c0.862-0.832,1.743-1.645,2.758-2.604
	c2.507,7.755,4.95,15.311,7.439,23.016c-6.034,2.928-12.293,5.968-18.715,9.083c-3.075-8.183-6.296-16.759-9.568-25.468
	c2.511-1.219,5.349-2.596,8.488-4.122c-0.538-0.893-0.975-1.605-1.397-2.327c-5.495-9.379-10.895-18.864-12.842-29.707
	c-3.168-17.64-3.287-35.057,4.723-51.768c2.458-5.131,4.219-10.592,6.359-15.88c0.678-1.678,1.553-3.278,2.664-4.867
	c-2.288,6.145,0.5,11.295,2.845,16.529c2.58,5.755,3.481,11.855,3.607,18.096c0.081,4.033-0.015,8.072,0.184,12.098
	c0.044,0.898,0.991,1.75,1.52,2.623c0.494-0.785,1.348-1.535,1.42-2.357c0.376-4.172,0.536-8.363,0.798-12.545
	c1.056-16.801,5.086-32.946,10.425-48.857c8.925-26.595,22.676-50.363,41.074-71.49c0.26-0.299,0.485-0.627,0.84-1.093
	c-5.936-4.694-11.838-9.36-17.876-14.134c0.644-0.743,1.146-1.326,1.928-2.231c4.614,3.499,9.123,6.971,13.701,10.351
	c1.194,0.882,2.561,2.153,4.222,0.221c-5.456-4.457-10.815-8.834-16.286-13.302c5.593-4.827,11.373-9.811,17.142-14.787
	c1.239,1.136,2.448,2.172,3.566,3.296c0.552,0.556,1.207,1.216,1.357,1.925c0.735,3.45,1.457,6.916,1.865,10.416
	c0.118,1.019-0.649,2.277-1.303,3.221c-1.281,1.85-2.872,3.487-4.136,5.348c-0.87,1.278-1.849,2.785,0.369,4.542
	c9.835-11.373,21.516-20.708,33.506-29.666c12.005-8.967,25.493-15.425,39.415-21.982c-6.246-5.891-7.235-13.726-11.684-20.149
	c8.051-2.849,15.712-5.561,23.874-8.446c-0.425,4.855,1.304,8.211,3.643,11.552c1.575,2.252,2.224,5.154,3.418,8.088
	c-5.411,1.925-11.369,4.046-17.489,6.223c1.342,2.433,2.958,1.995,4.61,1.498c6.3-1.896,12.569-3.908,18.913-5.646
	c15.525-4.261,31.394-6.164,47.459-6.624c1.251-0.037,2.494-0.357,3.753-0.549c0.22-1.788-0.422-2.453-1.98-2.374
	c-8.85,0.439-17.707,0.807-26.553,1.333c-1.774,0.104-3.115,0.146-4.385-1.487c-4.459-5.72-10.834-7.439-17.686-7.979
	c-0.753-0.06-1.517-0.007-2.587-0.007c9.525-7.746,39.997-15.64,53.546-13.807c-0.841,1.04-1.387,1.954-2.15,2.62
	c-5.91,5.182-4.406,12.451,2.214,17.366c0.503,0.375,1.587,0.333,2.245,0.08c3.758-1.459,7.115-7.425,6.072-11.323
	c-0.51-1.91-1.907-3.599-2.994-5.332c-0.607-0.969-1.398-1.828-2.184-2.835c8.091-3.107,38.818,5.021,51.18,12.994
	c-3.42,0.729-7.483,1.412-11.439,2.487c-3.038,0.829-5.457,2.812-7.002,5.602c-0.942,1.704-2.211,1.932-3.98,1.788
	c-7.951-0.64-15.91-1.161-23.869-1.703c-0.962-0.066-1.98-0.172-2.887,0.065c-0.794,0.207-1.469,0.869-2.197,1.33
	c0.693,0.545,1.334,1.45,2.096,1.571c2.301,0.369,4.646,0.512,6.98,0.6c20.402,0.751,40.059,5.374,59.461,11.358
	c1.722,0.532,3.522,0.812,5.287,1.208l0.504-1.134c-1.008-0.723-1.921-1.699-3.044-2.125c-4.039-1.54-8.151-2.89-12.233-4.321
	c-0.735-0.258-1.455-0.555-1.992-0.76c1.505-3.179,2.629-6.461,4.495-9.247c2.047-3.057,2.042-6.328,2.081-10.489
	c8.141,2.762,15.869,5.385,23.92,8.115c-4.551,6.687-5.078,14.783-11.007,20.519c0.949,0.642,1.891,1.486,2.988,1.989
	c11.418,5.21,22.728,10.612,33.14,17.708c10.678,7.279,20.674,15.396,29.918,24.421c1.958,1.912,3.631,4.111,5.552,6.065
	c0.522,0.533,1.466,0.658,2.216,0.972c0.116-0.957,0.636-2.123,0.269-2.828c-0.96-1.831-2.205-3.542-3.521-5.149
	c-1.97-2.405-3.46-4.802-1.735-7.991c0.295-0.546,0.368-1.225,0.484-1.853c0.748-4.072,1.537-8.116,6.213-10.186
	c5.594,4.734,11.581,9.802,17.594,14.893c-5.668,4.308-10.966,8.303-16.21,12.366c-0.438,0.34-0.528,1.132-0.779,1.714
	c0.786,0.138,1.798,0.657,2.315,0.347c1.853-1.109,3.528-2.51,5.286-3.783c3.497-2.532,7.005-5.05,10.58-7.626
	c0.655,0.777,1.112,1.321,1.89,2.239c-6.162,4.6-12.234,9.133-18.344,13.696c10.579,12.642,19.924,26.003,27.427,40.566
	c10.438,20.262,17.774,41.632,21.398,64.146c1.429,8.877,1.772,17.93,2.606,26.903c0.037,0.4-0.102,0.911,0.097,1.186
	c0.595,0.83,1.319,1.565,1.993,2.338c0.431-0.86,1.187-1.701,1.24-2.585c0.393-6.587,0.146-13.255,1.112-19.749
	c0.708-4.761,2.876-9.319,4.536-13.914c1.313-3.631,2.949-7.165,2.032-11.304c0.474,0.769,1.091,1.485,1.396,2.318
	c3.925,10.616,8.397,21.078,11.542,31.925C656.861,295.351,655.074,309.301,650.969,322.927z M203.94,362.819
	c3.556,2.591,2.97,6.492,3.461,10.167c2.466-2.766,5.016-4.867,8.219-4.525c-0.582-3.342-1.169-6.726-1.708-9.817
	C211.104,360.744,208.523,363.793,203.94,362.819z M210.47,298.953c-0.936-1.027-2.193-2.241-3.256-3.605
	c-2.866-3.676-7.902-5.151-11.304-3.124c-0.581,0.346-1.359,1.558-1.26,1.668c1.891,2.112,0.04,3.481-1.072,5.037
	c1.349,1.18,2.032,2.281,0.47,3.821c-0.372,0.365-0.075,2.029,0.453,2.584c3.446,3.631,9.231,2.572,12.569-2.123
	C208.125,301.725,209.343,300.354,210.47,298.953z M574.967,132.059c2.594,4.93,0.716,9.987,0.452,14.854
	c1.462-1.549,2.699-3.247,4.305-4.459c1.654-1.248,3.665-2.02,5.507-2.996c-3.321-0.528-5.58,1.613-8.139,3.754
	c0.24-2.084,0.446-3.856,0.657-5.675c0.724-0.064,1.333-0.12,1.944-0.175C576.499,136.928,576.93,133.593,574.967,132.059z
	 M576.287,167.263c3.371,4.307,7,8.434,10.083,12.938c22.747,33.243,35.244,69.927,36.759,110.27
	c0.059,1.564,0.586,3.138,1.087,4.644c0.155,0.464,0.94,0.721,1.438,1.071c0.271-0.52,0.735-1.023,0.773-1.56
	c0.025-0.38,0.041-0.763,0.05-1.146c0.024-1.146-0.014-2.298-0.014-3.447c-0.081-10.073-1.849-22.751-4.604-35.263
	c-0.265-1.191-0.535-2.38-0.816-3.565c-0.418-1.78-0.857-3.55-1.313-5.303c-0.91-3.508-1.887-6.945-2.917-10.253
	c-8.093-26.012-20.597-49.587-37.839-70.663c-0.992-1.211-2.06-2.717-3.688-1.12C573.816,165.307,575.498,166.255,576.287,167.263z
	 M497.654,96.925c0.057-4.938,1.164-8.897,5.773-11.619c-5.535,1.031-9.836,0.615-11.998-5.533
	c-0.133,4.877,1.064,9.446-4.152,12.62C492.18,91.478,495.236,93.108,497.654,96.925z M496.129,108.136
	c0.525,0.335,0.936,0.683,1.4,0.885c14.797,4.192,29.662,13.517,39.481,20.562c2.825,2.001,5.586,4.095,8.282,6.276
	c2.028,1.627,3.166,2.617,3.166,2.617l-0.004,0.001c5.527,4.701,10.781,9.786,15.766,15.244c1.077,1.181,2.281,2.281,3.58,3.205
	c0.461,0.326,1.372,0.016,2.08-0.002c-0.076-0.628,0.049-1.395-0.27-1.855c-0.818-1.186-1.797-2.271-2.777-3.334
	c-12.693-13.772-27.174-25.339-43.602-34.305c-7.287-3.978-15.054-7.086-22.638-10.513
	C498.979,106.188,497.325,106.203,496.129,108.136z M423.09,93.614c0.492,0.261,0.973,0.567,1.473,0.81
	c0.168,0.081,0.339,0.151,0.513,0.214c0.592,0.207,1.259,0.251,1.894,0.29c5.623,0.33,11.254,0.538,16.864,0.982
	c11.545,0.915,22.906,2.906,34.011,6.246c4.366,1.314,8.695,2.755,13.08,3.998c0.698,0.198,1.609-0.353,2.422-0.558
	c-0.52-0.626-0.934-1.407-1.582-1.835c-0.782-0.519-1.747-0.792-2.662-1.077c-18.521-5.756-37.302-10.167-57.789-10.87
	c-1.407,0-3.825-0.137-6.21,0.083c-0.089,0.007-0.178,0.029-0.267,0.067c-0.172,0.072-0.343,0.195-0.51,0.347
	c-0.418,0.375-0.818,0.929-1.236,1.301V93.614z M350.217,105.423c0.559,1.763,2.105,0.769,3.28,0.569
	c0.616-0.106,1.175-0.506,1.782-0.713c3.946-1.353,7.843-2.891,11.859-3.99c10.101-2.764,20.349-4.515,30.702-5.489
	c2.127-0.221,4.275-0.392,6.434-0.507c0.932-0.06,1.865-0.113,2.798-0.161l0.008-0.003l0.025,0.002
	c2.332-0.119,4.669-0.207,7.011-0.256c1.959-0.043,3.911-0.413,6.268-0.676c-1.586-2.34-2.127-2.639-5.211-2.591
	c-12.993,0.207-25.887,1.457-38.502,4.628c-8.157,2.05-16.198,4.57-24.249,7.017C351.502,103.533,350.07,104.955,350.217,105.423z
	 M355.305,91.822c-5.852-2.255-4.982-7.23-4.978-11.841c-2.506,4.979-3.637,5.572-10.675,5.315c3.77,3.283,4.93,6.996,3.421,11.988
	C346.312,92.618,349.931,90.45,355.305,91.822z M273.936,156.615c0.914-0.242,1.845-0.428,2.729-0.749
	c0.341-0.123,0.567-0.553,0.854-0.838c4.728-4.719,9.231-9.692,14.226-14.11c15.231-13.466,32.083-24.39,51.207-31.596
	c1.225-0.461,2.366-1.145,3.666-1.784c-2.143-1.95-2.981-2.062-5.926-0.827c-16.884,7.076-32.463,16.358-46.354,28.276
	c-6.885,5.909-13.259,12.421-19.765,18.763C273.985,154.319,274.13,155.643,273.936,156.615z M268.153,147.14
	c-0.986-5.466-1.158-10.58,0.763-15.59c-2.862,3.246-3.24,7.043-2.734,11.127c-5.274-3.716-5.598-3.853-7.405-3.146
	C264.143,141.959,264.143,141.959,268.153,147.14z M217.396,296.896c0.452,0.005,1.268-1.796,1.354-2.813
	c0.726-8.739,0.876-17.548,2.045-26.221c0.972-7.211,2.404-14.297,4.233-21.271h-0.001l0.003-0.006
	c3.086-11.765,7.311-23.2,12.411-34.342c7.507-16.397,16.986-31.582,29.104-45.025c1.333-1.479,1.904-2.816-0.458-4
	c-0.493,0.431-1.055,0.779-1.433,1.271c-4.618,5.987-9.502,11.794-13.755,18.034c-16.893,24.777-27.484,52.21-32.825,81.592
	c-1.776,9.769-1.853,19.847-2.657,29.787C215.301,295.341,215.709,296.868,217.396,296.896z M265.699,443.471
	c-2.786,4.319-6.237,7.256-11.552,8.791C259.486,453.355,265.045,448.962,265.699,443.471z M265.615,456.976
	c-1.67-0.819-3.36-1.648-5.051-2.479c-0.125,0.184-0.251,0.367-0.375,0.553c3.943,1.153,6.116,4.124,7.748,7.908v-13.645
	c-0.179-0.036-0.357-0.072-0.536-0.109C266.803,451.806,266.205,454.407,265.615,456.976z M267.216,428.364
	c-14.513-16.563-25.452-35.226-33.742-55.613c-8.712-21.42-13.761-43.58-15.175-66.616c-0.04-0.664-0.291-1.316-0.445-1.988
	c-2.379,0.283-2.861,1.669-2.716,3.475c0.257,3.21,0.468,6.428,0.823,9.629c1.692,15.295,5.201,30.175,10.1,44.76
	c8.492,25.283,21.059,48.262,38.331,68.618c1.026,1.21,2.361,3.325,4.023,1.981C270.188,431.18,268.244,429.535,267.216,428.364z
	 M344.412,489.602c0.094-0.336,0.188-0.673,0.282-1.008c-1.314-2.699-4.119-3.318-6.548-4.374
	c-18.634-8.089-35.085-19.524-50.244-32.89c-4.28-3.775-8.133-8.041-12.177-12.084c-1.052-1.053-2.086-2.128-3.73-0.699
	c0.266,0.533,0.431,1.094,0.773,1.508c1.642,1.985,3.256,4.002,5.016,5.882c13.112,14.005,28.369,25.228,45.16,34.379
	c5.637,3.073,11.501,5.736,17.326,8.453C341.508,489.348,343.024,489.342,344.412,489.602z M315.46,417.722
	c0.087,0.038,0.171,0.072,0.259,0.112c2.546,1.187,4.945,2.687,7.447,3.969c2.283,1.167,4.522,2.541,6.945,3.287
	c8.885,2.736,16.65-1.209,24.802-4.094c0.175-0.033,0.346-0.079,0.519-0.117c-0.429-3.991-0.637-8.027-0.591-12.109
	c0.046-4.1,1.733-7.299,5.434-9.424c-0.838-0.904-1.708-1.842-2.58-2.783c5.671-4.296,6.237-5.662,3.395-9.189
	c-1.048,1.741-2.053,3.344-2.99,4.984c-1.519,2.653-4.156,3.279-6.466,1.317c-2.843-2.411-4.953-4.963-3.768-9.333
	c0.737-2.717,0.137-5.796,0.137-9.481c-0.664,1.482-1.183,2.249-1.356,3.089c-1.901,9.15-7.501,15.692-14.632,21.264
	c-1.559,1.221-3.089,2.847-3.851,4.623c-1.382,3.216-3.744,5.242-6.602,6.854C318.57,412.377,316.585,414.615,315.46,417.722z
	 M321.859,404.676c1.893-1.397,3.78-3.023,5.065-4.95c0.98-1.466,1.01-3.566,1.463-5.386l-0.98-0.455
	c-2.961,3.121-3.603,9.186-10.027,7.807C317.88,406.002,319.076,406.734,321.859,404.676z M322.979,324.643l18.932-8.992
	c0.871-1.571,1.708-3.08,2.58-4.655c-1.42-0.971-0.547-2.063,0.351-3.214c0.599-0.766,1.504-1.602,1.541-2.437
	c0.098-2.296,0.898-3.694,2.81-5.224c1.361-1.091,1.265-3.919,2.001-5.904c0.308-0.828,1.198-1.421,1.631-2.224
	c0.892-1.663,1.904-3.324,2.412-5.117c0.85-2.999,1.107-6.176,2.067-9.133c0.74-2.276,0.266-3.893-1.239-5.515
	c-3.28-3.54-6.462-7.175-9.801-10.659c-3.191-3.328-6.529-6.512-9.45-9.41c-4.211,3.256-8.215,6.492-12.382,9.495
	c-1.431,1.03-2.213,1.64-1.585,3.682c0.803,2.607,1.248,5.444,1.204,8.171c-0.178,10.833-2.791,21.025-9.057,30.022
	c-3.929,5.643-5.943,11.803-5.825,18.873c-0.075,0.039-0.151,0.075,0,0c0.363,2.604,1.463,4.909,2.479,7.291l8.799-3.922h0.003
	L322.979,324.643L322.979,324.643z M309.955,306.303c3.245-8.098,6.378-16.243,9.347-24.447c0.729-2.017,0.643-4.332,0.931-6.508
	c-0.324-0.057-0.651-0.116-0.975-0.174c-1.176,2.974-2.435,5.917-3.511,8.923c-3.396,9.501-6.761,19.016-10.036,28.559
	c-0.46,1.342-0.553,2.891-0.46,4.32c0.229,3.58,0.626,7.15,1.031,10.715c0.139,1.188,0.506,2.352,0.768,3.527
	c0.242-0.033,0.486-0.064,0.729-0.098c0.211-2.564,0.862-5.186,0.549-7.682C307.587,317.559,307.714,311.897,309.955,306.303z
	 M318.104,256.122c-0.27-0.041-0.541-0.084-0.811-0.125l-2.717,20.755C319.126,270.401,317.625,263.107,318.104,256.122z
	 M317.18,246.961c-3.471,0.628-4.466,2.922-4.676,5.699c0.214,0.139,0.428,0.277,0.642,0.416L317.18,246.961z M363.36,157.653
	c1.338,2.499,2.61,4.877,3.883,7.257C366.516,162.191,368.663,157.891,363.36,157.653z M368.819,151.109
	c-3.379,0.048-6.64,2.874-6.447,4.944C364.54,154.389,366.68,152.749,368.819,151.109z M372.958,148.424
	c-2.402-4.069-9.458-4.681-11.998-1.206C364.798,147.604,368.913,148.018,372.958,148.424z M370.124,131.312
	c2.422,0.04,4.732,3.221,7.496-0.148c-2.582-0.373-4.965-0.718-7.35-1.065C370.221,130.502,370.172,130.906,370.124,131.312z
	 M372.958,125.941c-2.737,0.781-5.474,1.56-8.162,2.328C366.217,129.892,370.817,128.961,372.958,125.941z M370.205,177.905
	c0.032,0.102,0.063,0.203,0.095,0.303c0.948-0.238,1.963-0.334,2.832-0.743c2.914-1.377,5.834-2.755,8.641-4.33
	c4.151-2.331,5.928-8.024,3.946-12.323c-0.216-0.467-0.82-0.757-1.904-1.706c0,2.15-0.005,3.491,0.001,4.833
	c0.016,3.463-1.065,6.278-4.26,8.125C376.375,173.902,373.317,175.951,370.205,177.905z M391.071,126.389
	c0.309-0.131,0.62-0.26,0.93-0.39l-0.193-0.73l-6.874,1.67c0.058,0.452,0.117,0.902,0.174,1.353
	c4.641,0.269,9.282,0.536,13.924,0.806c0.037-0.393,0.073-0.786,0.111-1.179C396.449,127.406,393.752,126.896,391.071,126.389z
	 M405.825,126.312c-1.256,0.745-2.446,1.603-3.667,2.411c0.021,0.142,0.041,0.284,0.062,0.426c0.858-0.269,1.801-0.388,2.562-0.827
	c3.413-1.966,6.393-4.556,11.031-3.422c2.419,0.59,3.451-1.831,2.497-3.554c-1.852,0.184-3.422,0.451-4.98,0.397
	c-0.274-0.009-0.865-1.873-0.693-1.991c1.188-0.827,2.541-1.416,4.006-2.166c0.009,0.022-0.115-0.634-0.376-0.695
	c-1.42-0.331-2.998-0.984-4.287-0.642c-2.31,0.61-3.668,2.52-3.542,4.979C408.553,123.536,407.783,125.151,405.825,126.312z
	 M480.496,194.401c0.072-2.033,0.15-4.028-0.314-6.031c-0.004-0.053-0.008-0.107-0.018-0.159c-0.975-5.539-1.699-11.14-3.066-16.578
	c-0.543-2.164-1.303-4.28-2.143-6.372c-2.036-1.16-4.066-2.321-6.149-3.405c-0.351-0.181-0.684-0.386-1.011-0.594
	c-1.916,3.314-4.005,6.544-6.189,9.728c-0.416,0.608-1.043,1.503-0.861,2.015c0.803,2.26-0.674,3.354-1.92,4.753
	c-3.775,4.233-8.025,7.72-13.676,9.046c-1.111,0.262-2.125,0.547-2.822,1.057c-0.703,0.134-1.391,0.321-2.079,0.497
	c-1.026-0.056-2.052-0.115-3.075-0.193c3.224,1.066,6.344,2.804,9.342,5.357c0.539,0.458,1.234,0.733,1.584,0.935
	c5.092-2.867,10.42-3.311,15.777-2.892c5.791,0.456,10.236,3.383,13.779,7.702c0,0,0.117,1.354,3.922,1.043
	C481.306,198.634,480.977,196.525,480.496,194.401z M458.113,217.622c4.127,2.815,13.948,4.649,16.798,3.185
	C469.656,218.009,463.998,218.363,458.113,217.622z M459.057,200.655c-5.877-2.76-14.511-1.689-15.977,1.885
	C451.246,203.035,455.432,202.563,459.057,200.655z M486.746,219.058c-4.541-0.669-9.083-1.336-13.623-2.003
	c-0.031,0.238-0.064,0.479-0.094,0.717C477.442,219.419,481.84,221.179,486.746,219.058z M417.014,237.491
	c1.255,2.52,2.358,4.729,3.487,6.995C422.449,242.028,421.262,239.527,417.014,237.491z M420.971,236.781
	c0.151-3.929-1.183-5.554-4.229-5.829C418.218,232.986,419.595,234.884,420.971,236.781z M425.109,221.43
	c0.436-2.915,0.348-5.905,0.645-8.846c0.4-3.991,0.283-8.076,3.582-11.285c1.828-1.778,0.813-4.468-1.767-5.085
	c-2.479-0.593-5.049-0.793-7.944-1.217c1.054,4.709-3.076,6.177-4.722,9.017c2.171,1.062,4.552,1.718,6.211,3.189
	c1.489,1.322,3.264,3.687,3.04,5.336c-0.9,6.63-2.357,13.257-9.623,16.681C419.536,230.015,424.367,226.401,425.109,221.43z
	 M410.719,463.432c4.618-0.563,18.328-7.875,23.332-12.689C426.287,454.963,418.523,459.188,410.719,463.432z M462.072,452.753
	c0.111-0.302,0.224-0.601,0.336-0.901c-5.423-2.51-10.729-5.328-16.304-7.432c-4.591-1.729-9.759-0.549-12.943,2.291
	C444.649,441.334,452.965,448.84,462.072,452.753z M429.664,434.479c5.73-4.797,11.885-5.543,18.678-2.828
	c3.164,1.266,6.377,2.418,9.564,3.617c0.066-0.14,0.133-0.281,0.199-0.424c-3.656-1.979-7.257-4.069-10.982-5.908
	c-4.646-2.287-9.206-1.719-13.548,0.967c-1.435,0.887-2.835,1.834-4.243,2.764c-4.357,2.883-8.511,6.149-13.104,8.582
	c-12.644,6.695-25.149,7.389-37.01-2.021c-0.268-0.216-0.625-0.313-0.94-0.466l-0.425,0.775c3.948,2.237,7.782,4.707,11.865,6.66
	c9.614,4.6,18.913,3.582,27.612-2.428C421.563,440.846,425.723,437.779,429.664,434.479z M376.813,432.205
	c3.547,2.15,7.474,3.729,11.348,5.269c3.905,1.552,8.054,2.776,12.245,1.661c3.601-0.958,7.289-2.148,10.462-4.039
	c5.727-3.416,11.145-7.365,16.604-11.213c2.302-1.623,4.606-2.717,6.93-3.244c-2.817-0.408-5.152-0.398-6.549-0.328
	c-3.74,1.943-7.395,3.842-11.048,5.739l0.352,0.692c3.456-1.739,6.911-3.482,10.368-5.223c-6.764,6.631-14.288,12.066-23.231,15.106
	c-2.429,0.827-5.24,0.802-7.863,0.728c-4.584-0.129-8.398-2.507-12.177-4.83c-2.33-1.434-4.663-2.863-6.986-4.31
	c-5.601-3.477-11.044-3.048-16.589,0.31c-4.873,2.946-9.714,6.107-14.946,8.264c-9.619,3.96-19.528,5.453-29.434,0.488
	c-1.207-0.604-2.559-1.046-3.891-1.248c-2.519-0.383-5.071-0.535-7.611-0.784c5.056,1.952,10.045,3.538,14.993,5.247
	c5.048,1.744,10.146,2.34,15.433,1.295c8.072-1.596,15.519-4.692,22.375-9.207C363.946,428.393,370.202,428.198,376.813,432.205z
	 M339.001,447.289c5.376,1.25,14.671-4.896,21.14-10.639C353.484,440.001,346.036,443.748,339.001,447.289z M320.644,431.803
	c3.852,1.354,7.875,2.32,11.848,1.437c5.061-1.124,10.164-2.484,14.898-4.55c2.915-1.27,5.693-2.855,8.447-4.492
	c-0.073-0.53-0.141-1.062-0.207-1.594c-1.67,1.041-3.345,2.079-5.036,3.088c-7.479,4.467-15.457,7.384-24.306,6.172
	c-4.269-0.583-8.404-2.103-12.638-3.024c-2.379-0.521-4.837-0.718-7.163,0.477C311.478,428.709,316.075,430.194,320.644,431.803z
	 M366.479,371.658c-2.566,5.434-5.134,10.87-7.828,16.573c4.55-3.034,6.719-7.36,8.273-11.92c1.386-4.065,3.125-7.81,5.84-11.163
	c1.5-1.855,2.645-4.007,3.862-6.076c1.15-1.958,2.185-3.983,3.461-6.329c-9.586,10.272-18.832,20.183-28.076,30.089
	c0.333,0.32,0.666,0.643,0.999,0.963l12.724-12.514C365.982,371.404,366.229,371.532,366.479,371.658z M333.462,387.837
	c7.488-2.868,19.737-22.962,18.999-30.599c-3.667,3.416-6.122,7.398-7.703,11.982c-1.86,5.395-3.799,10.773-7.623,15.17
	C336.04,385.652,334.694,386.692,333.462,387.837z M340.364,369.557c-2.088,3.379-3.927,6.356-5.906,9.559
	C338.888,377.627,341.39,373.8,340.364,369.557z M360.227,360.519c-0.514,3.879-1.027,7.754-1.615,12.201
	C361.335,370.6,361.431,369.893,360.227,360.519z M349.349,308.715c1.71-0.682,3.392-1.082,5.057-1.024
	c1.546,0.056,3.073,0.599,4.61,0.927c0.041-0.24,0.082-0.483,0.124-0.723c-0.751-0.49-1.459-0.914-2.13-1.27
	c-4.697-2.489-7.575-1.645-10.533,2.756c0.001,0,0.001,0,0.001,0v0.002c0.537,0.684,1.074,1.369,1.619,2.065
	c-0.462,0.372-0.808,0.558-1.025,0.84c-0.475,0.617-0.935,1.241-1.396,1.871l8.407-3.334
	C352.516,310.09,350.94,309.377,349.349,308.715z M368.036,305.289l0.97-0.385c-3.934-2.479-8.157-4.065-12.767-4.732
	c-3.349-0.486-4.346,0.021-5.76,3.761C356.894,300.241,362.34,303.758,368.036,305.289z M358.269,287.422
	c-0.151,2.563-1.314,4.02-3.23,5.38c-1.169,0.827-2.046,2.068-3.055,3.123c6.842-2.195,9.023-5.277,11.653-15.792
	C360.031,281.282,358.527,283.058,358.269,287.422z M359.181,248.555c-0.694-3.179-1.702-6.063-5.642-6.225
	C355.521,244.515,357.351,246.533,359.181,248.555z M372.438,267.645c0.301-0.156,0.603-0.312,0.905-0.468l-8.23-15.495
	c-0.273,0.144-0.548,0.289-0.82,0.432C365.776,257.919,366.868,263.927,372.438,267.645z M374.144,231.039
	c-7.06,0.863-13.85,2.974-21.169,0.229C356.493,235.609,369.867,235.272,374.144,231.039z M385.478,205.042
	c-1.771-0.429-3.706-0.221-5.46-0.69c-6.213-1.662-12.361-3.568-18.575-5.222c-1.631-0.433-3.417-0.28-5.13-0.399
	c-0.052,0.418-0.102,0.833-0.153,1.248c0.82,0.348,1.617,0.761,2.46,1.034c5.237,1.686,10.53,3.214,15.718,5.044
	c5.083,1.789,10.001,4.075,13.018,8.855c1.972,3.125,3.002,7.684-1.953,10.509c-2.366,1.348-4.678,2.794-7.165,4.286
	c4.51,1.853,11.202-1.137,12.248-5.359c1.506-6.081,0.089-11.895-2.144-17.515C387.999,205.973,386.542,205.3,385.478,205.042z
	 M389.439,198.296c0.258-0.102,0.517-0.205,0.774-0.308c0.486-3.188-4.378-15.112-7.393-16.467
	C385.028,187.113,387.233,192.704,389.439,198.296z M350.15,225.601c1.971,3.566,7.225,5.652,10.933,4.094
	C357.348,228.296,353.643,226.909,350.15,225.601z M376.518,286.595c0.459,0.61,0.915,1.223,1.36,1.841
	c2.394,3.316,4.519,6.77,5.819,10.64l1.667-0.659c0.003-0.153,0.017-0.309,0.017-0.459c0-6.811-4.83-11.552-8.997-16.593
	c-0.725-0.875-1.43-1.761-2.084-2.667C373.576,281.787,374.768,284.279,376.518,286.595z M391.156,230.397
	c-1.053,0.256-1.915,0.467-2.769,0.675c2.39,5.737-2.916,8.56-4.649,13.12C389.017,240.739,391.548,236.505,391.156,230.397z
	 M386.462,262.988l0.646,0.44c1.849-1.517,3.68-3.053,5.546-4.545c3.048-2.438,2.514-5.647,2.042-8.901
	c-0.479-3.307-3.032-3.774-6.042-4.399c3.983,4.638,4.32,5.774,2.445,9.769c-0.771,1.643-1.964,3.086-2.928,4.642
	C387.567,260.97,387.03,261.989,386.462,262.988z M387.298,278.521c1.796,0,2.927,0.15,4.001-0.033
	c1.917-0.327,4.167-1.508,3.544-3.373c-1.071-3.204-3.137-6.085-4.896-9.037c-0.202-0.339-1.115-0.257-2.231-0.473
	c1.085,2.055,1.937,3.643,2.769,5.241C392.5,274.709,391.956,276.303,387.298,278.521z M393.521,295.18l1.823-0.721
	c-0.201-0.622-0.406-1.259-0.619-1.923C393.996,293.469,393.603,294.332,393.521,295.18z M398.473,184.636
	c1.601,3.187,3.085,6.145,4.57,9.1c0.205-0.11,0.413-0.222,0.62-0.332c-4.499-11.135-8.997-22.269-13.763-34.064
	c-0.189,1.369-0.639,2.444-0.408,3.346c0.66,2.574,1.514,5.107,2.44,7.601c3.086,8.296,5.008,16.612,1.099,25.219
	c-0.304,0.668-0.147,1.545-0.204,2.326c0.357,0.08,0.715,0.16,1.072,0.238C395.368,193.751,396.84,189.433,398.473,184.636z
	 M378.375,138.78c4.056,0.445,11.338-4.049,11.451-7.282C385.94,133.968,382.236,136.324,378.375,138.78z M385.688,130.88
	c-3.363-0.757-6.456,1.431-6.744,4.444C381.342,133.745,383.515,132.311,385.688,130.88z M385.429,142.711
	c2.082-0.282,4.374-0.592,6.77-0.917C389.173,139.422,386.9,139.885,385.429,142.711z M391.286,147.321l-0.692,8.867
	C392.712,153.361,393.601,150.464,391.286,147.321z M395.306,155.579c-0.173,0.162-0.347,0.324-0.52,0.487
	c1.087,1.157,1.989,2.619,3.297,3.411c2.792,1.69,6.029,1,8.852-1.361c0.685-0.572,1.307-2.052,2.563-0.659
	c2.792,3.455,3.588,3.78,5.087,1.883c-1.52-0.825-3.013-1.639-4.509-2.451c-1.188-2.182-2.373-1.996-3.985-0.276
	c-2.196,2.347-4.911,2.697-7.725,1.191C397.265,157.214,396.321,156.329,395.306,155.579z M408.5,147.361h-11.662
	C400.833,149.871,404.299,149.4,408.5,147.361z M422.397,143.394L422.397,143.394c0.304,0.253,0.624,0.656,0.929,0.912
	c0.182,0.153,0.359,0.252,0.521,0.235c2.006-0.229,3.621,0.147,4.832,1.243c0.092-0.317,0.178-0.637,0.264-0.954
	c-1.12-1.76-2.679-2.462-4.949-2.393c-0.136,0.003-0.271,0.046-0.404,0.109C423.189,142.74,422.795,143.143,422.397,143.394
	L422.397,143.394z M421.761,154.52c1.194,0.567,1.873,0.891,2.552,1.213c0.172,0.081,0.344,0.158,0.518,0.234
	c0.209-0.442,0.414-0.886,0.613-1.331C424.648,154.856,423.281,154.52,421.761,154.52z M419.738,174.475
	c-1.986,1.065-3.836,2.314-5.074,4.437c-0.105,0.18-0.487,0.2-0.807,0.319c-0.415-0.368-0.794-0.768-1.234-1.086
	c-1.959-1.417-5.899-1.58-7.307-0.326c-1.448,1.289-1.827,4.481-0.768,6.49c2.109,4.007,7.373,6.041,11.708,4.649
	c4.965-1.591,9.817-2.397,14.499-2.056c-0.662-0.574-1.434-1.115-2.338-1.634C423.979,182.721,420.814,179.1,419.738,174.475z
	 M432.089,183.756c0.152-0.175,0.306-0.352,0.456-0.528l-9.039-6.716C424.414,180.409,427.451,182.734,432.089,183.756z
	 M407.633,271.102c3.08-1.2,5.14-5.5,4.631-9.533c-0.247-1.948-0.674-4.05-4.292-4.232
	C409.919,262.158,409.857,266.606,407.633,271.102z M410.995,283.851c2.408-2.568,2.678-8.209,0.353-13.229
	c-0.686,1.265-1.776,2.391-1.537,2.982c1.295,3.201,0.48,6.092-0.864,9.042C409.688,283.081,410.357,283.477,410.995,283.851z
	 M408.18,295.485c0.174,0.11,0.354,0.216,0.544,0.311c0.228-0.253,0.4-0.5,0.533-0.743L408.18,295.485z M411.971,306.941
	c2.383-4.844,3.509-9.579,3.435-14.359l-2.445,0.981C412.64,297.908,412.312,302.328,411.971,306.941z M414.737,286.765
	c-0.095-0.451-0.202-0.9-0.32-1.353c-0.283-0.009-0.567-0.02-0.851-0.03c-0.046,0.633-0.094,1.268-0.14,1.902L414.737,286.765z
	 M415.933,250.023c0.281-3.079-1.119-5.784-4.057-8.392c-0.283,1.499-0.944,2.746-0.567,3.384c1.913,3.255,1.966,6.529,0.278,10.196
	C414.818,254.486,415.738,252.173,415.933,250.023z M405.572,191.378c0.878,2.551,2.409,2.924,11.823,2.794
	C413.529,193.26,409.662,192.345,405.572,191.378z M410.23,169.824c-2.27-0.343-4.087-0.618-5.904-0.894
	c-0.025,0.449-0.05,0.898-0.074,1.344c1.883,0,3.934,0.484,5.614-0.101c3.202-1.118,4.181,0.604,5.012,2.998
	c0.268,0.766,0.562,1.523,1.053,2.846c0.796-5.699,0.57-6.306-8.407-10.511C408.373,166.86,409.182,168.152,410.23,169.824z
	 M420.092,160.117c-1.51-3.224-4.971-4.76-7.704-3.553C414.919,157.733,417.211,158.789,420.092,160.117z M403.514,171.895
	c0.012,0.325,0.023,0.649,0.036,0.974c0.93,0.251,2.009,0.939,2.763,0.68c2.833-0.975,4.223,0.795,6.063,3.14
	c-0.701-4.073-3.613-4.331-5.9-5.192C405.653,171.188,404.51,171.736,403.514,171.895z M421.661,160.583
	c-0.271,0.26-0.543,0.52-0.813,0.782c0.21,0.332,0.419,0.664,0.628,0.994c0.24-0.497,0.497-0.983,0.758-1.459
	C422.043,160.795,421.852,160.688,421.661,160.583z M421.761,153.136c-1.705-1.449-3.086-2.619-4.466-3.791
	c-0.16,0.192-0.318,0.383-0.477,0.575c0.515,0.399,1.032,0.798,1.573,1.216c-1.938,0.279-3.693,0.53-5.448,0.781
	c0.041,0.103,0.082,0.206,0.123,0.308C415.696,152.5,418.327,152.776,421.761,153.136z M417.172,146.612
	c-2.485-0.288-4.894-0.564-7.72-0.89C412.515,148.556,414.973,148.762,417.172,146.612z M395.353,200.658
	c1.967,1.051,3.623,1.945,5.296,2.811c0.306,0.16,0.709,0.349,1.007,0.276c3.937-0.976,7.232-3.058,10.88-6.023
	C405.893,197.307,400.257,197.647,395.353,200.658z M399.821,225.766c3.31,0.887,5.994,3.626,9.64,3.513
	c0.072-0.308,0.147-0.617,0.218-0.923c-3.201-1.113-6.403-2.223-9.604-3.334C399.99,225.27,399.905,225.517,399.821,225.766z
	 M401.607,234.237c3.125,2.378,5.755,4.381,7.851,5.976C409.614,237.699,406.863,234.843,401.607,234.237z M406.843,298.504
	c0.353,0.707,1.134,1.201,1.748,1.775c0.45-0.483,0.901-0.967,1.578-1.693c-0.82-0.688-1.39-1.529-1.95-1.524
	C407.723,297.068,406.729,298.272,406.843,298.504z M405.676,318.891c-3.285,12.027-6.401,24.107-10.014,36.037
	c-4.398,14.523-11.458,27.553-22.98,37.82c-0.724,0.645-1.348,1.574-1.646,2.492c-0.874,2.684-0.829,5.791-4.016,7.339
	c3.535-0.852,6.962-1.072,9.503-4.114c6.901-8.256,11.942-17.568,16.17-27.355c7.313-16.929,12.548-34.506,15.902-52.646
	c0.328-0.057,0.659-0.114,0.989-0.173c0.157,1.392,0.506,2.793,0.437,4.175c-0.496,9.815-1.393,19.62-1.565,29.438
	c-0.393,22.214-0.437,44.432-0.643,66.649c-0.016,1.573-0.082,3.166-0.334,4.716c-0.041,0.252-0.085,0.503-0.127,0.755
	c1.135-0.263,2.259-0.589,3.369-0.97c0.358-3.596,0.474-7.24,0.531-10.85c0.445-27.311,0.709-54.623,1.125-81.933
	c0.056-3.676,0.622-7.343,0.952-11.013c0.178-0.01,0.354-0.021,0.531-0.031c0.628,2.6,1.256,5.199,1.884,7.801
	c0.224-0.045,0.445-0.087,0.67-0.132c-0.299-5.648-0.598-11.3-0.907-17.139c-2.872,0.861-1.686,4.142-3.13,5.827
	c-1.741-1.227-1.659-4.641-5.119-3.944C406.729,314.094,406.321,316.524,405.676,318.891z M413.168,384.188
	c-0.65,7.87,1.594,10.06,9.301,8.915C419.179,389.949,416.348,387.239,413.168,384.188z M434.472,396.049
	c-3.747-4.859-7.921-9.181-13.964-11.135C423.928,390.191,428.822,393.596,434.472,396.049z M370.848,373.814
	c-0.884,2.566-1.792,5.199-2.704,7.85C371.958,380.57,373.163,377.056,370.848,373.814z M430.875,359.195
	c6.635,7.609,13.467,15.09,14.57,25.867C448.858,377.638,439.927,361.85,430.875,359.195z M440.004,359.786
	c-0.305-4.162-7.352-10.122-11.269-9.62C432.332,353.238,436.395,356.703,440.004,359.786z M435.158,343.186
	c-1.21-0.414-2.422-0.842-3.658-1.168c-1.221-0.324-2.598-0.998-3.684-0.703c-4.036,1.094-7.981,2.525-11.96,3.828
	c0.099,0.236,0.197,0.471,0.295,0.706c2.092-0.315,4.25-0.405,6.263-0.996c4.182-1.228,8.25-2.169,12.438,0.048
	c0.716,0.38,2.686,0.026,2.721-0.202C437.891,342.653,436.111,343.511,435.158,343.186z M436.517,340.149
	c-1.317-2.964-2.983-3.306-5.144-1.584C433.184,339.125,434.852,339.637,436.517,340.149z M435.438,334.845
	c-2.565-4.143-2.878-4.29-5.112-2.47C432.251,333.305,433.845,334.074,435.438,334.845z M432.734,327.8c0-0.002,0-0.002,0-0.002
	c-1.246-1.677-2.531-1.731-3.879-0.723c-0.6,0.446-1.209,1.106-1.837,1.928c-0.145,0.192-0.292,0.393-0.442,0.603
	c-0.508,0.717-1.024,1.531-1.551,2.417C427.594,330.617,430.164,329.209,432.734,327.8L432.734,327.8z M430.262,323.624
	c-4.246-1.905-7.077-1.169-8.556,2.153C424.561,325.059,427.066,324.427,430.262,323.624z M427.256,320.01
	c-2.179-2.467-3.764-2.537-7.515-0.146c-0.668,0.426-0.881,1.565-1.303,2.377c0.25,0.141,0.502,0.282,0.752,0.424
	c1.219-0.587,2.395-1.301,3.668-1.719C424.213,320.5,425.659,320.336,427.256,320.01z M426.829,318.85
	c-0.33-3.19-1.547-5.365-3.542-5.291c-1.833,0.07-3.601,1.891-5.397,2.939c0.07,0.274,0.143,0.549,0.213,0.823
	C421.118,315.821,424.012,315.246,426.829,318.85z M425.086,311.564c-2.363-3.482-3.991-3.789-6.291-0.704
	C420.979,311.104,422.957,311.326,425.086,311.564z M422.566,306.354c-1.602-1.003-3.144-2.512-5.185,0.333l5.083,0.428
	C422.498,306.86,422.533,306.608,422.566,306.354z M416.436,339.508c6.305,0.176,11.072-2.432,16.076-5.023
	C429.361,333.55,424.611,335.04,416.436,339.508z M430.13,214.256c1.688,2.032,4.13,0.965,6.372,0.75
	c-2.019-0.525-4.039-1.049-6.061-1.575C430.339,213.707,430.234,213.98,430.13,214.256z M459.137,174.82
	c-0.841-0.66-1.238-1.241-1.688-1.285c-11.173-1.108-22.352-2.171-33.535-3.191c-0.952-0.088-1.939,0.158-2.909,0.253
	c0.028,0.129,0.055,0.26,0.083,0.391C433.537,172.242,445.988,173.497,459.137,174.82z M439.654,105.689
	c-1.901,18.794-3.813,37.674-5.725,56.554C437.449,154.415,441.684,107.887,439.654,105.689z M447.13,119.886
	c0.099-2.122,0.249-4.244,0.253-6.365c0.002-0.543-0.461-1.089-0.709-1.631c-0.286,0.457-0.789,0.895-0.826,1.372
	c-1.377,17.429-2.71,34.86-4.043,52.291c-0.023,0.292,0.02,0.59,0.456,0.92c0.569-5.868,1.114-11.736,1.725-17.6
	c0.149-1.441,0.516-2.86,0.781-4.292c-0.068,5.17-0.185,10.338-0.181,15.505c0.001,2.206,0.252,4.411,0.818,6.604
	c1.669-18.397,3.338-36.796,5.008-55.194c-0.229-0.123-0.454-0.246-0.68-0.367c-0.477,0.731-1.19,1.405-1.385,2.207
	C447.824,115.492,447.521,117.7,447.13,119.886z M456.162,167.963c0.529,2.68,0.621,2.749,3.096,3.899
	c-0.368-2.404-0.589-4.388-0.984-6.34c-3.59-17.738-3.244-35.394,1.064-52.97c0.055-0.225,0.201-0.455,0.173-0.663
	c-0.093-0.659-0.248-1.309-0.38-1.961c-0.385,0.474-0.938,0.892-1.125,1.435c-2.779,8.094-3.318,16.551-3.872,24.992
	C453.436,146.972,454.094,157.519,456.162,167.963z M452.13,180.127c-4.236,1.513-8.472,3.028-12.706,4.542l0.366,1.082
	c4.522-0.785,8.828-2.142,12.612-4.871C452.309,180.63,452.22,180.379,452.13,180.127z M473.428,121.853
	c-4.302-1.352-8.635-2.599-13.212-3.942c-3.284,15.371-3.274,30.386-0.297,46.027c1.286-1.701,2.422-3.405,3.461-5.119
	c-0.339-0.392-0.739-0.821-1.21-1.307c-0.602-0.622-1.027-1.866-0.863-2.691c0.607-3.096,2.055-6.123,2.141-9.206
	c0.126-4.515,4.221-6.835,5.061-10.804c1.467-0.39,2.78-1.303,4.152-2.013c0.523-3.132,0.908-6.293,1.23-9.464
	C473.941,122.842,473.719,121.945,473.428,121.853z M463.344,107.362c-5.736-3.938-26.961-6.792-31.711-4.122
	C442.778,102.487,453.062,104.777,463.344,107.362z M431.773,123.552c-2.527,1.561-3.977,4.557-5.3,7.357
	c-0.204,0.426,0.092,1.254,0.407,1.731c1.167,1.77,2.375,3.521,3.594,5.285c0.142-0.822,0.271-1.647,0.389-2.476
	c-0.27-0.681-0.555-1.354-0.883-2.004c-1.354-2.688-1.305-4.615,0.58-6.227c0.367-0.315,0.742-0.58,1.125-0.801
	C431.729,125.466,431.756,124.508,431.773,123.552z M428.301,120.422c-0.277-0.16-0.554-0.32-0.829-0.48
	c-1.388,2.484-2.774,4.969-4.259,7.629C425.778,127.436,428.369,123.544,428.301,120.422z M414.844,133.842
	c3.812,0.579,6.928,1.052,10.042,1.527c0.04-0.33,0.082-0.658,0.123-0.986C422.059,132.136,418.845,132.615,414.844,133.842z
	 M421.785,129.825c-0.079-0.23-0.16-0.458-0.239-0.689c-3.239,0.92-6.478,1.839-9.716,2.758c0.13,0.395,0.26,0.791,0.391,1.187
	C415.408,131.995,418.597,130.91,421.785,129.825z M402.157,131.543c0.012,0.265,0.023,0.528,0.034,0.79h7.087
	c-0.021-0.413-0.041-0.828-0.059-1.244C406.864,131.24,404.512,131.392,402.157,131.543z M391.093,137.05
	c4.47,0.9,8.648,1.742,12.828,2.584c2.322,2.073,4.597,1.958,7.214,0.31c2.578-1.623,5.415-2.328,8.639-1.623
	c1.795,0.392,4.342,1.146,5.199-1.692c-2.415,0-4.848,0.356-7.121-0.091c-2.684-0.531-4.859,0.029-7.061,1.417
	c-1.827,1.15-3.789,1.816-5.867,0.489c2.629-0.225,4.631-1.483,5.919-4.329c-1.329,0.319-2.657,0.639-3.98,0.956
	c0.31,0.717,0.486,1.124,0.823,1.909C401.943,136.091,396.593,135.806,391.093,137.05z M386.03,123.574
	c-2.42-1.872-4.995-0.456-6.82,0h-1.501c0.401,0.196,0.913,0.147,1.501,0H386.03z M373.771,182.603
	c1.072,4.734,5.712,10.187,9.011,10.372C379.468,189.16,376.619,185.882,373.771,182.603z M353.812,192.647
	c4.836,1.304,9.767,2.166,14.621,3.353c4.871,1.191,9.666,2.704,14.542,4.09C381.282,196.415,361.699,191.08,353.812,192.647z
	 M333.594,195.252c-5.41,3.675-8.285,9.434-7.479,13.309c0.981-1.726,1.888-3.521,2.984-5.192c1.161-1.769,2.46-3.452,3.771-5.117
	c4.673-5.933,8.313-6.551,14.687-2.578c1.516,0.946,3.202,1.764,1.494,4.185c2.307-1.836,4.29-3.416,6.417-5.11
	C346.215,188.252,339.224,191.429,333.594,195.252z M338.08,243.547c-0.814,1.856-1.103,3.942-1.633,5.921
	c0.293,0.108,0.587,0.213,0.881,0.32c0.215-0.141,0.457-0.255,0.639-0.428c0.337-0.318,0.676-0.646,0.953-1.014
	c4.695-6.267,7.051-13.289,7.027-21.149c-0.006-2.009-0.577-3.164-2.822-3.344C343.485,230.979,340.837,237.262,338.08,243.547z
	 M346.014,213.437c-4.268,2.307-8.583,4.638-12.905,6.974C338.61,221.75,346.983,217.058,346.014,213.437z M322.412,235.085
	c-0.768,3.731-1.804,7.408-2.783,11.354c6.47-4.051,5.642-11.989,9.576-18.121C324.907,229.207,323.193,231.279,322.412,235.085z
	 M335.381,326.979c-1.338,1.759-2.172,3.908-3.235,5.885c-0.695,1.293-1.403,2.575-2.107,3.865c0.302,0.152,0.602,0.306,0.903,0.459
	c0.634-0.984,1.293-1.953,1.893-2.957c4.155-6.937,6.641-7.893,14.604-6.104c5.02,1.127,10.077,2.266,15.182,2.796
	c9.679,1.003,18.367-2.219,26.522-7.162c1.256-0.759,2.565-1.43,3.848-2.144c0.154,0.194,0.306,0.388,0.459,0.584
	c-1.15,1.531-2.187,3.166-3.471,4.576c-9.004,9.882-19.114,18.28-31.642,23.424c-0.849,0.35-1.485,1.225-2.22,1.854
	c0.248,0.299,0.494,0.598,0.74,0.896c19.488-5.692,33.892-17.842,44.159-35.516c-3.757,10.49-8.051,20.588-12.29,30.711
	c-1.23,2.941-2.301,5.95-3.445,8.928c0.284,0.11,0.569,0.219,0.853,0.33c9.688-13.844,15.163-29.482,19.965-45.516
	c-2.664-0.928-3.81,0.064-4.804,1.594c-0.886,1.358-1.826,2.658-3.762,1.243c-0.923-0.679-2.073-1.042-3.12-1.55
	c2.872,3.424,3.262,4.479,2.211,5.955c-1.302-0.604-2.58-1.722-3.693-1.576c-1.287,0.169-2.428,1.447-3.35,2.057
	c-5.511-3.087-10.202-7.361-16.047-10.212l-1.746,0.701c1.975,1.448,3.82,2.797,5.664,4.147l-0.316,0.531l-3.603-0.501
	c-0.096,0.281-0.193,0.564-0.291,0.849c4.243,1.782,8.485,3.565,12.727,5.351c-0.083,0.229-0.164,0.46-0.247,0.69
	c-8.907,0.108-16.7-3.182-24.4-6.863l-2.545,1.023c7.542,3.113,14.244,8.462,23.212,8.682c-12.773,7.443-25.143,4.139-38.161-0.184
	c6.423-2.832,12.307,0.961,18.578,0.228c-4.063-2.701-9.657-4.087-14.785-4.248l-7.91,3.178
	C338.111,324.372,336.51,325.495,335.381,326.979z M315.614,398.726c-4.229,2.853-5.294,7.483-8.077,10.769
	C310.845,406.62,315.363,404.641,315.614,398.726z M299.135,428.184c7.276-5.83,14.881-6.471,22.852-1.5
	C313.059,420.455,305.404,420.993,299.135,428.184z M302.331,407.492c-0.542,0.484-1.456,0.904-1.55,1.462
	c-0.183,1.097,0.091,2.265,0.176,3.406c0.237,0.061,0.475,0.122,0.711,0.185c0.604-1.057,1.388-2.057,1.723-3.191
	C303.531,408.878,302.712,408.121,302.331,407.492z M302.741,401.666c-7.511,4.025-9.149,10.694-8.069,16.285
	C297.152,412.949,299.944,407.309,302.741,401.666z M293.355,446.708c-0.736,0.511-1.465,1.028-2.19,1.554
	c1.95,1.516,3.977,2.959,6.115,4.295c-0.376-1.43-0.88-2.846-1.843-3.8C294.748,448.068,294.051,447.389,293.355,446.708z
	 M344.896,502.23L344.896,502.23L344.896,502.23c0.831,0.596,1.665,1.192,2.5,1.792c1.238,0.89,2.484,1.782,3.752,2.692
	c-0.408,1.479-0.932,3.387-1.47,5.336c-1.779-0.789-3.656-1.626-5.503-2.447c0.242-2.48,0.481-4.924,0.72-7.37l-0.003-0.003
	C344.894,502.23,344.896,502.23,344.896,502.23L344.896,502.23L344.896,502.23c-0.274-1.164-0.547-2.328-0.82-3.49
	c-0.753,4.139,1.079,8.775-3.434,11.971c4.917-0.511,8.366,1.153,10.033,5.855c-0.496-4.455,0.407-8.328,3.562-11.035
	c-1.268-0.19-2.707-0.172-3.96-0.646c-0.233-0.088-0.463-0.184-0.691-0.279c-1.304-0.557-2.552-1.254-3.813-1.921
	C345.48,502.531,345.188,502.379,344.896,502.23z M346.369,483.509c-2.865-3.527-6.781-5.544-11.584-6.706
	C338.88,479.172,342.681,481.375,346.369,483.509z M347.473,467.756c4.216-1.426,8.253-3.502,12.17-5.653
	c4.319-2.372,8.528-2.636,12.87-0.413c3.647,1.867,7.267,3.797,10.85,5.784c13.133,7.288,26.536,8.907,40.272,1.813
	c3.492-1.804,6.819-3.94,10.132-6.067c3.842-2.465,7.94-3.168,12.216-1.74c6.082,2.032,12.053,4.398,18.117,6.489
	c8.36,2.879,15.924,1.266,22.766-4.295c-0.145-0.099-0.236-0.202-0.271-0.184c-0.918,0.477-1.851,0.93-2.741,1.457
	c-6.877,4.056-13.988,4.596-21.203,1.121c-3.83-1.846-7.524-3.986-11.195-6.139c-6.293-3.689-12.286-3.517-18.242,0.825
	c-5.629,4.104-11.918,6.949-18.515,9.15c-10.22,3.415-19.86,2.845-28.941-3.556c-4.192-2.955-8.666-5.551-13.183-7.996
	c-4.92-2.664-9.618-1.922-13.813,1.828c-0.781,0.699-1.615,1.336-2.42,2.006c-6.879,5.721-15.647,6.479-23.346,1.98
	c-1.458-0.852-2.811-1.886-4.265-2.745c-3.703-2.188-7.441-4.317-11.979-4.264c6.531,1.604,11.925,5.397,17.5,8.856
	C338.379,468.578,342.974,469.277,347.473,467.756z M550.584,430.505c-1.426,0.665-2.795,1.432-4.156,2.21
	c-5.228,2.989-10.32,6.242-15.701,8.912c-8.689,4.311-17.479,4.273-26.107-0.465c-1.76-0.965-3.533-1.945-5.396-2.66
	c-4.321-1.652-8.582-0.598-11.4,2.98c6.506-2.033,12.109-0.53,17.784,1.678c3.537,1.377,7.383,2.516,11.134,2.67
	C527.674,446.27,542.43,439.389,550.584,430.505z M547.275,439.188c-4.852,3.257-9.704,6.512-14.555,9.767
	c0.146,0.219,0.295,0.439,0.443,0.659c4.852-3.258,9.702-6.514,14.553-9.771C547.57,439.623,547.422,439.405,547.275,439.188z
	 M500.923,461.745c-0.825,0.685-1.614,1.419-2.483,2.044c-5.08,3.672-9.994,7.62-15.326,10.883
	c-5.36,3.279-11.341,3.679-17.125,0.934c-4.627-2.193-9.096-4.74-13.545-7.289c-6.674-3.824-11.253-3.345-17.34,1.235
	c-4.998,3.759-10.141,7.466-15.654,10.372c-11.518,6.072-23.42,6.857-35.468,1.089c-5.348-2.56-10.747-5.086-16.32-7.071
	c-5.237-1.866-11.017,0.024-14.535,4.197c8.175-3.86,15.571-1.992,23,1.434c6.11,2.814,12.326,5.512,18.722,7.553
	c3.559,1.133,7.6,1.225,11.389,1.047c5.144-0.238,9.781-2.5,14.094-5.228c5.032-3.179,10.03-6.429,14.91-9.837
	c6.229-4.35,12.475-4.717,19.252-1.204c4.55,2.36,9.294,4.487,14.169,6.024c2.939,0.925,6.411,1.141,9.446,0.59
	c8.188-1.489,14.909-6.186,21.487-11.006c5.465-4.008,11.391-6.626,18.246-4.551c5.707,1.728,10.737,0.652,15.648-2.339
	c10.469-6.376,19.762-14.171,28.103-23.119c0.784-0.839,1.405-1.829,2.185-2.858c-1.98-1.057-3.094,0.027-4.164,0.918
	c-5.068,4.229-10.064,8.547-15.159,12.744c-5.218,4.302-10.404,8.658-16.802,11.219c-3.888,1.558-7.611,1.881-11.652,0.121
	c-7.641-3.327-19.379-0.086-24.965,6.668c3.306-1.732,6.452-3.387,9.6-5.037C500.732,461.433,500.828,461.592,500.923,461.745z
	 M501.33,472.469c-3.357,3.021-6.715,6.042-10.072,9.063l0.491,0.541c3.341-3.039,6.683-6.076,10.024-9.111
	C501.625,472.797,501.479,472.633,501.33,472.469z M364.406,484.771c-4.123-0.718-8.296-0.711-12.239,1.027
	c14.733-0.571,28.024,4.873,41.444,9.793C384.451,490.405,374.783,486.578,364.406,484.771z M391.885,478.369
	c-5.164-2.208-10.836-4.631-16.508-7.055C380.692,474.658,385.998,478.006,391.885,478.369z M420.17,504.124
	c-0.721-1.923-2.427-1.382-3.838-1.497c-7.448-0.612-15.054-0.457-22.315-1.961c-10.656-2.21-21.063-5.623-31.585-8.479
	c-4.77-1.296-9.505-2.968-15.264-1.888c0.802,0.429,1.044,0.609,1.317,0.696c8.295,2.683,16.532,5.569,24.905,7.981
	c14.036,4.046,28.416,6.085,43.019,6.404C417.653,505.41,418.916,504.564,420.17,504.124z M422.278,496.07
	c3.204-1.678,6.462-3.261,9.569-5.1c6.76-4.002,13.649-4.239,20.777-1.154c2.838,1.229,5.719,2.367,8.578,3.546l0.239-0.53
	c-4.989-2.305-9.921-4.752-14.992-6.86c-3.261-1.354-6.681-0.972-9.823,0.657c-3.14,1.629-6.223,3.375-9.265,5.184
	c-4.157,2.469-8.322,4.883-13.175,5.744c-1.651,0.292-3.297,0.622-4.944,0.937C413.892,499.17,418.208,498.199,422.278,496.07z
	 M495.304,490.036c-0.057-0.339-0.112-0.676-0.169-1.014c-0.764-0.042-1.584-0.283-2.28-0.088c-2.467,0.692-4.922,1.45-7.327,2.331
	c-11.191,4.092-22.486,7.809-34.42,9.018c-8.334,0.844-16.688,1.451-25.024,2.264c-1.048,0.103-2.04,0.797-3.058,1.217
	c1.117,0.585,2.212,1.219,3.367,1.724c0.407,0.178,0.96,0.075,1.438,0.026c9.195-0.959,18.453-1.531,27.569-2.993
	c12.534-2.013,24.816-5.207,36.445-10.5C493.049,491.473,494.152,490.703,495.304,490.036z M507.449,475.284
	c-5.164,2.524-8.969,5.796-11.711,10.308C499.506,482.277,503.273,478.962,507.449,475.284z M498.481,497.403
	c-0.979,5.264-4.228,7.708-9.375,7.825c2.968,5.994,3.097,6.574,2.401,11.247c2.291-4.369,5.548-6.636,11.201-6.087
	C496.492,507.095,498.904,501.945,498.481,497.403z M569.682,438.059c-2.755-0.441-3.213-0.098-5.015,1.697
	c-6.386,6.367-12.528,13.037-19.374,18.877c-12.381,10.564-26.572,18.351-41.301,25.168c-1.669,0.773-3.312,1.645-4.834,2.672
	c-0.504,0.342-0.59,1.309-0.869,1.987c0.725,0.19,1.496,0.642,2.161,0.515c1.163-0.218,2.278-0.748,3.384-1.22
	c24.787-10.611,45.812-26.38,63.637-46.515C568.278,440.328,568.877,439.232,569.682,438.059z M573.105,426.407
	c11.529-14.843,21.375-30.695,28.603-48.098c0.399-0.962,0.682-1.97,1.1-3.188c-0.021-0.047-0.042-0.105-0.063-0.17
	c1.524-2.189,2.099-5.028,2.73-7.644c0.217-0.889,0.485-1.749,0.787-2.593c3.517-10.233,9.248-28.073,9.25-28.074
	c0.286-1.545,0.561-3.127,0.819-4.725c3.171-20.297,2.702-44.677,2.695-45.016c-0.652-11.874-3.886-31.232-6.887-40.642
	c-0.008-0.051-0.009-0.098-0.021-0.15c-0.1-0.401-0.219-0.795-0.347-1.191c-0.552-3.075-1.36-6.082-2.597-8.975
	c0.006-0.003,0.014-0.006,0.021-0.008c-1.135-3.575-2.102-7.212-3.431-10.71c-6.478-17.092-15.603-32.743-26.178-47.586
	c-1.351-1.897-2.769-3.769-4.353-5.466c-0.172-0.187-0.476-0.337-0.818-0.437c-0.139-0.146-0.285-0.291-0.426-0.436
	c-1.273-1.678-2.623-3.284-3.988-4.922c-1.466-1.76-3.604-3.025-5.121-4.764c0.107-0.152,0.216-0.303,0.324-0.455
	c-5.953-6.811-12.541-12.955-19.488-18.687c-47.021-41.41-116.563-44.644-116.563-44.644l-0.434-0.244
	c-1.064-0.077-2.09-0.153-3.189-0.232c3.374,5.826-0.348,10.884-4.567,15.468c-4.422-5.399-5.479-9.409-4.045-15.308
	c-0.176-0.046-0.348-0.081-0.518-0.111c-1.467,0.078-3.357,0.189-5.364,0.327c-1.12,0.279-2.378,0.279-3.5,0.268
	c-2.074,0.179-4.076,0.387-5.684,0.624c-23.003,3.577-68.994,14.074-104.593,43.463c-5.109,4.799-10.305,9.357-14.799,14.569
	c-3.276,2.853-6.104,6.173-9.262,9.172c-1.606,1.527-3.034,3.159-4.373,4.858c-0.289,0.328-0.566,0.665-0.831,1.017
	c-2.706,2.527-5.957,6.679-9.375,11.735c-0.014,0.021-21.223,31.845-29.442,65.994c0.003,0.018,0.003,0.035,0.003,0.054
	c-3.523,13.121-5.704,26.254-6.321,39.932c-1.198,9.835-1.555,19.514,0.577,29.17c1.254,10.378,3.95,23.559,6.518,31.495
	c0.008,0.058,0.008,0.11,0.023,0.169c1.468,6.473,3.825,12.825,6.051,19.074c1.696,4.752,3.669,9.799,6.894,13.741
	c4.701,10.261,10.381,19.952,17.512,28.822c1.697,2.849,3.399,5.694,5.274,8.428c2.34,3.409,5.246,6.339,8.026,9.377
	c1.916-5.072,4.276-9.954,7.507-14.487c4.477-6.275,10.214-11.025,17.133-14.221c8.217-3.796,10.981-11.007,12.309-19.031
	c2.173-13.133,5.172-25.846,13.805-36.568c2.089-2.596,4.118-5.441,3.217-9.513c-0.303-1.367,1.759-3.411,3.005-4.927
	c1.011-1.232,1.854-2.045,1.358-4.008c-0.072-0.287-0.125-0.555-0.169-0.814l-9.016,3.619h-0.001c-2.61,1.2-5.215,2.397-7.801,3.586
	l-2.285,1.103c0.07,0.225,0.151,0.45,0.196,0.659c1.191,5.496,0.161,6.896-4.457,7.229c-1.017,1.74-1.451,3.463-2.534,4.119
	c-2.245,1.361-4.819,2.193-7.288,3.166c-1.476,0.578-3.083,0.861-4.505,1.543c-2.88,1.379-4.026-0.439-5.125-2.518
	c-0.248-0.473-0.528-0.928-0.865-1.514c-0.117,0.053,0.065-0.304-0.052-0.254c-0.052-0.165-0.094-0.322-0.14-0.484l-7.555,3.643
	c-0.436,0.293-0.811,0.545-1.104,0.74c-0.217,0.027-0.431,0.064-0.643,0.102l-8.066,3.893c-0.125,0.073-0.252,0.146-0.377,0.216
	c-1.281-1.29-2.604-2.624-3.995-4.025c0.272-0.122,0.544-0.245,0.815-0.366l-0.316-0.371l16.416-7.839
	c0.162-0.102,0.368-0.278,0.517-0.247c0.01,0.002,0.021,0.002,0.031,0.004l3.252-1.449c-0.07-3.074,0.919-5.38,2.851-8.021
	c1.505-2.06,3.01-4.068,4.224-6.236c1.083-1.934,1.875-4.222,2.087-6.421c1.021-10.607,1.79-21.244,2.677-31.865
	c0.595-7.113,1.277-14.219,1.843-21.333c0.366-4.591,0.364-9.226,0.989-13.779c0.268-1.959,1.294-4.192,2.702-5.539
	c3.288-3.143,4.13-7.035,4.716-11.21c1.084-7.721,3.83-14.667,10.025-19.803c0.984-0.815,2.276-1.258,3.898-2.127
	c-0.08-0.782-0.375-2.232-0.347-3.677c0.18-9.308,8.388-19.446,17.496-21.168c2.701-0.513,5.619,0.211,8.439,0.211
	c1.789,0.001,3.818,0.204,5.321-0.535c4.542-2.239,8.887-4.88,13.287-7.403c0.442-0.255,0.735-0.767,1.629-1.737
	c-1.374,0-2.167,0.166-2.852-0.035c-1.3-0.382-2.875-0.676-3.693-1.584c-0.603-0.667-0.482-2.353-0.143-3.413
	c0.486-1.516,1.021-2.736-0.634-3.9c-0.352-0.247-0.135-1.264-0.239-1.917c-0.116-0.731-0.218-2.05-0.465-2.083
	c-2.103-0.287-1.833-1.948-1.414-2.959c1.135-2.713-0.002-3.303-2.398-3.183c-0.321,0.017-0.658-0.239-1.028-0.384
	c1.339-2.643,2.704-5.131,3.84-7.72c0.343-0.784,0.451-2.214-0.015-2.715c-1.71-1.847-1.081-3.568-0.144-5.337
	c1.327-2.507,2.616-5.045,4.157-7.417c0.517-0.796,1.718-1.213,2.677-1.64c1.023-0.454,2.13-0.713,3.2-1.055
	c-0.11-0.336-0.219-0.67-0.329-1.006c-1.819,0.575-3.625,1.197-5.462,1.704c-0.83,0.228-1.721,0.227-2.583,0.327
	c-0.032-1.276-0.306-2.61-0.022-3.813c0.241-1.022,1.015-1.988,1.744-2.812c1.832-2.069,3.762-4.053,5.681-6.043
	c0.157-0.163,0.553-0.223,0.793-0.158c4.129,1.093,7.201-1.927,10.813-2.658c2.357-0.476,5.009,0.507,7.529,0.848
	c0.068,0.008,0.118,0.191,0.182,0.194c3.697,0.25,6.327,3.834,10.28,3.299c0.363-0.049,0.749-0.038,1.109,0.019
	c4.66,0.744,5.229,0.434,6.177-4.432c1.162-5.952,7.271-8.374,12.775-5.527c0.639,0.33,1.046,1.104,1.638,1.757
	c1.985-2.329,4.55-3.605,8.507-2.17c-1.563,1.238-2.713,2.149-3.863,3.061c-2.846,2.011-4.197,5.889-2.662,9.22
	c1.179-3.175,2.184-5.875,3.186-8.575c2.158-0.635,4.311-1.298,6.475-1.92c-0.02-0.051-0.049-0.108-0.096-0.177
	c0.364-1.803,0.18-3.829-0.455-5.531c0.172-0.001,0.34-0.004,0.514-0.008c-0.832-1.074-1.343-1.791-1.908-2.459
	c-1.502-1.774-1.726-3.917-1.006-5.893c0.279-0.768,1.973-1.401,3.044-1.439c11.288-0.407,22.321,0.992,32.929,5.078
	c2.96,1.139,3.281,2.492,1.041,4.823c-0.623,0.649-1.484,1.078-2.246,1.591c-0.526,0.354-1.07,0.682-2.166,1.378
	c3.326,0.943,6.04,1.738,8.768,2.479c6.982,1.898,7.321,1.771,11.674-3.965c0.002-0.002,0.006-0.005,0.01-0.006
	c4.267,1.931,8.28,3.748,12.279,5.56c-2.573,1.583-3.143,4.261-3.313,7.198c-2.417-0.04-2.638-2.186-3.751-3.421
	c-0.85-0.941-2.219-2.296-3.096-2.126c-1.376,0.265-3.081,1.407-3.659,2.64c-0.989,2.11-1.312,4.563-1.741,6.903
	c-0.219,1.203-0.397,2.411-0.57,3.621c0.338,0.113,0.67,0.209,0.99,0.268c0.914,1.011,2.001,1.877,2.564,3.156
	c0.652,1.481,1.1,3.019,1.242,4.635c0.249,2.757,0.899,5.108,2.033,7.604c-0.232,1.792-0.547,3.673-0.5,5.547
	c0,0.102,0.021,0.211,0.057,0.326c-0.014,0.025-0.027,0.052-0.041,0.079c4.518,6.975,9.003,13.884,13.6,20.698
	c0.456,0.672,0.922,1.34,1.389,2.005c0.732,1.356,1.436,2.725,2.054,4.141c1.917,4.386,3.046,9.098,4.398,13.693
	c-0.033-0.053-0.065-0.107-0.099-0.161c0.43,1.678,0.857,3.357,1.287,5.034h0.002l3.312,12.169c0,0,2.899,11.954-7.146,12.135
	c-0.437,0.279-0.897,0.525-1.396,0.727c-2.605,0.626-5.1,1.268-7.621,1.727c-1.904,0.344-3.875,0.306-5.813,0.482
	c-7.943,0.731-15.865,1.494-23.625-1.396c-1.25-0.465-2.938-0.38-4.244,0.024c-10.535,3.26-20.703,2.665-30.215-2.407
	c-1.918,2.11-3.755,4.172-5.639,6.19c-1.439,1.542-1.854,3.066-1.186,5.266c1.412,4.655,1.271,9.298-1.577,13.55
	c-0.243,0.358-0.423,0.85-0.411,1.274c0.198,7.563-1.614,14.756-3.571,21.996c-1.005,3.716-1.682,7.929-0.944,11.602
	c0.208,1.034,0.418,2.063,0.623,3.092l21.431-8.501l2.359-1.209c0.292-0.155,0.585-0.308,0.877-0.462
	c0.475-0.253,0.775-0.838,1.214-1.338c1.489,0.283,2.218-0.259,2.446-1.971c0.185-1.404,0.498-1.923,1.611-2.524
	c0.208,0.742,0.406,1.45,0.581,2.06c1.023-0.193,1.959-0.368,2.892-0.543c1.22-0.698,2.617-1.583,2.253-3.556
	c-0.087-0.474,0.499-1.071,0.823-1.703c-1.908-0.395-3.496-1.386-4.482-3.121c-0.371-0.65-0.464-1.459-0.678-2.198
	c-0.012-0.043,0.004-0.134,0.031-0.146c1.814-0.815,0.314-2.506,0.957-3.608c0.318-0.547,0.77-1.014,1.396-1.821
	c-0.151,1.323-0.254,2.212-0.364,3.172c3.028-0.382,3.725-0.112,4.252,1.513c0.355,1.099,0.142,2.137-0.816,2.743
	c-0.362,0.232-1.111-0.145-1.685-0.244c-0.007-0.156-0.016-0.312-0.021-0.467c0.325-0.264,0.647-0.527,1.191-0.967
	c-0.509-0.451-0.934-0.908-1.446-1.219c-0.124-0.075-0.746,0.292-0.785,0.519c-0.119,0.67-0.278,1.464-0.029,2.039
	c0.498,1.146,1.251,1.4,4.013,1.891c0.037-0.137,0.038-0.315,0.123-0.434c1.642-2.274,0.991-4.578,0.569-7.119
	c-0.495-2.997,1.709-5.13,4.116-6.598c1.698-1.039,3.585-1.861,5.746-1.645c0.548,0.057,1.151-0.447,1.821-0.733
	c0,0.342,0,0.774,0.004,1.561c1.348-0.455,2.613-0.885,3.879-1.313c0.09,0.068,0.18,0.134,0.27,0.204
	c-0.789,0.825-1.578,1.647-2.181,2.278c1.772,0.574,3.751,1.211,5.726,1.849c-0.025,0.18-0.055,0.36-0.082,0.539
	c-1.145,0.092-2.291,0.184-3.57,0.287c0.188,0.353,0.314,0.59,0.635,1.191c-2.984-1.571-5.586-3.412-9.291-2.577
	c1.278,0.665,2.239,1.162,3.199,1.66c-0.007,0.126-0.016,0.251-0.021,0.379c-1.442,0.057-2.879,0.116-4.326,0.175
	c0.388,0.4,0.857,0.888,1.415,1.466c-0.896,0.312-2.17,0.423-2.294,0.862c-0.324,1.141-0.144,2.424-0.171,4.011
	c2.335-0.993,4.312-2.276,6.44-2.623c2.154-0.35,4.457,0.227,7.023,0.42c1.063-0.772,2.438-1.771,3.781-2.749
	c0.488-0.099,1.089-0.064,1.492-0.329c2.711-1.78,5.381-3.624,8.425-5.691c-0.591,1.608-1.06,2.884-1.64,4.464
	c5.141-2.75,10.527-4.04,16.23-3.629c-3.75,3.98-8.105,7.199-13.564,9.145c1.213,0.3,2.427,0.601,3.641,0.903
	c-0.061,0.253-0.121,0.507-0.182,0.76c-1.807,0.403-3.611,0.81-5.421,1.206c-1.313,0.285-2.646,0.5-3.935,0.872
	c-0.41,0.12-0.707,0.643-1.049,0.987c-0.09,0.091-0.143,0.285-0.229,0.296c-1.644,0.224-3.285,0.428-4.874,0.628
	c-2.117,4.359-5.443,7.244-10.17,9.122c0.972,0.981,1.87,1.888,2.827,2.851c0.72-0.703,1.323-1.291,2.155-2.102
	c0.085,1.139,0.146,1.971,0.201,2.72c1.032-1.11,2.094-2.252,3.154-3.396c0.145,0.107,0.289,0.216,0.435,0.323
	c-0.437,1.202-0.872,2.403-1.369,3.772c3.074-2.056,3.774-5.221,4.423-8.415c0.119,0.041,0.238,0.082,0.359,0.123
	c-0.027,0.243-0.051,0.486-0.113,1.083c1.281-1.231,2.377-2.286,3.476-3.341c0.081,0.058,0.164,0.118,0.245,0.176
	c-0.92,2.029-1.844,4.056-2.66,5.862c0.658-0.005,1.733-0.013,3.168-0.025c-1.468,0.838-2.552,1.459-3.744,2.14
	c0.513,0.61,0.885,1.055,1.404,1.672c-0.69-0.13-1.129-0.213-1.543-0.292c-2.218,3.614-7.637,5.381-11.236,3.897
	c-0.969-0.398-1.945-1.158-2.541-2.014c-1.533-2.203-3.561-2.983-5.534-1.843c-1.161,0.668-1.581,1.742-1.101,2.904
	c0.268,0.643,1.021,1.237,1.693,1.493c0.324,0.123,0.967-0.585,1.463-0.917c-0.443-0.337-0.868-0.71-1.344-0.996
	c-0.163-0.096-0.457,0.021-0.691,0.041c-0.09-0.141-0.182-0.284-0.272-0.426c0.485-0.36,0.942-0.977,1.46-1.028
	c1.157-0.114,1.97,0.555,2.271,1.711c0.396,1.526-0.177,2.512-1.966,3.312c0.473,0.368,0.895,0.695,1.294,1.006
	c-1.214,0.379-1.214,0.379-3.475-1.694c-0.161,0.225-0.317,0.441-0.474,0.66c-2.436-1.96-2.674-4.251-0.836-8.595
	c-1.161,0.649-2.093,0.684-3.127-0.208c-0.351-0.3-1.52,0.062-2.131,0.426c-0.846,0.502-1.518,1.295-2.406,2.091l1.001,2.353
	c-1.11-0.249-1.823-0.393-2.528-0.568c-0.529-0.138-1.221-0.618-1.547-0.432c-2.531,1.446-5.383,2.166-7.915,3.615
	c-1.253,0.716-2.521,1.402-3.795,2.077l-0.001,0.001l-0.223,0.115c-0.944,0.5-1.889,0.992-2.837,1.486
	c0-0.003-0.001-0.006-0.003-0.007l-1.734,0.904l0,0l-12.424,6.468c0.068,1.323,0.047,2.65-0.108,3.99
	c-0.306,2.664,0.626,4,2.651,5.396c1.427,0.983,2.742,2.491,3.46,4.063c1.543,3.375,3.447,6.683,3.51,10.59
	c0.009,0.447,0.68,0.855,0.937,1.339c0.297,0.55,0.7,1.184,0.656,1.752c-0.129,1.776,0.883,2.481,2.219,3.413
	c3.723,2.6,3.829,7.414,6.188,10.891c0.043,0.064-0.01,0.184,0.003,0.274c0.191,1.259,0.369,2.517,0.585,3.772
	c0.15,0.887,0.369,1.759,0.525,2.645c0.156,0.879,0.094,1.844,0.438,2.634c2.342,5.4,5.594,10.559,6.992,16.185
	c2.818,11.334,4.688,22.908,6.946,34.477c0.167,2.277,0.188,4.58,0.094,6.857c-0.081,0.563-0.114,1.15-0.097,1.766
	c-0.059,0.886-0.125,1.765-0.211,2.631c-0.005,0.061-0.012,0.126-0.02,0.189c-0.041,0.123-0.084,0.244-0.124,0.365
	c-0.355,7.918,1.088,17.511,1.825,21.773c0.232,0.129,0.466,0.258,0.7,0.389c7.944,4.474,15.792,4.703,23.704-0.213
	c4.092-2.547,8.338-4.859,12.606-7.109c4.333-2.276,8.765-2.711,13.446-0.652c5.163,2.269,10.482,4.188,15.824,6.293
	c0.352,0.167,0.717,0.311,1.114,0.408c1.781,0.436,3.74,0.836,5.563,1.041c1.729,0.193,3.253-0.146,4.967-0.227
	c0.452-0.02,0.896-0.023,1.338-0.021c1.525,0.151,3.033,0.302,4.559,0.453c-0.131,0.361-0.143,0.546-0.242,0.637
	c-0.238,0.215-0.5,0.414-0.779,0.57c-5.386,2.988-11.031,4.067-16.928,1.811c-4.193-1.608-8.259-3.55-12.41-5.27
	c-5.449-2.26-10.553-1.533-15.248,2.004c-3.412,2.568-6.721,5.275-10.197,7.748c-9.16,6.517-18.951,7.867-29.469,3.508
	c-3.473-1.439-7.029-2.816-10.682-3.635c-3.785-0.85-7.486-0.164-10.773,3.17c0.863-0.124,1.256-0.119,1.604-0.24
	c3.26-1.109,6.592-1.666,9.969-0.779c3.478,0.914,7.032,1.732,10.322,3.138c10.768,4.591,20.683,3.274,30.047-3.589
	c2.463-1.803,5.078-3.416,7.712-4.963c4.833-2.836,9.962-4.697,15.646-3.225c3.096,0.801,6.08,2.042,9.107,3.107
	c5.594,1.975,11.285,2.906,16.923,0.463c5.003-2.167,9.896-4.605,14.737-7.12c0.44-0.229,0.837-0.478,1.196-0.743
	c1.95-0.693,3.905-2.32,5.251-3.291c3.73-2.691,7.382-5.512,11.19-8.095c3.459-2.348,5.997-5.679,8.88-8.64
	c0.875-0.898,1.645-1.877,2.295-2.93c0.993-0.745,1.857-1.707,2.729-2.627c2.051-2.172,4.533-3.817,6.489-6.109
	c3.987-4.676,6.825-10.223,11.306-14.436c-0.141,0.283-0.275,0.571-0.397,0.865c-6.729,16.473-15.729,31.566-27.118,45.242
	c-0.551,0.662-1.02,1.457-1.273,2.271c-0.156,0.5-0.021,1.402,0.329,1.666c0.39,0.299,1.341,0.32,1.75,0.031
	C571.605,428.112,572.424,427.285,573.105,426.407z M464.479,264.286c-1.924,0.87-3.889,1.316-4.641,3.436
	c-0.078,0.221-0.895,0.327-1.324,0.25c-1.195-0.211-2.583,0.441-3.208,1.695c0.743-0.051,1.442-0.097,2.11-0.143
	c-0.654,0.487-1.322,0.987-2.01,1.503c1.02,1.028,3.618,0.957,4.326-0.075c0.765-1.116,1.458-2.04,2.982-1.108
	c0.258,0.156,0.798-0.052,1.171-0.193c0.857-0.324,1.692-0.708,2.622-1.106c-0.031,0.564-0.051,0.923-0.076,1.341
	c0.771-0.436,1.394-1.061,2.064-1.122c2.301-0.207,2.637-0.52,2.266-2.046c0.99-1.068,1.731-1.911,2.526-2.704
	c0.223-0.223,0.636-0.242,0.901-0.438c0.779-0.577,1.527-1.195,2.215-1.737c-0.904-0.324-1.555-0.557-2.208-0.792l0.095,0.213
	c-1.842,0.19-3.686,0.382-5.157,0.537c-0.874-0.21-1.634-0.66-2.051-0.442c-1.175,0.612-2.21,1.496-3.272,2.254
	C463.851,263.648,464.089,263.892,464.479,264.286z M477.43,261.061c0.205,0.503,1.104,0.719,1.699,1.06
	c0.291-0.616,0.581-1.233,1.037-2.202c-0.982-0.334-1.873-0.872-2.107-0.665C477.62,259.643,477.238,260.591,477.43,261.061z
	 M300.099,334.586c-0.075,0.114-0.137,0.229-0.205,0.346l0.262-0.117C300.137,334.739,300.118,334.662,300.099,334.586z
	 M580.525,455.816c-0.041-0.073-0.08-0.145-0.117-0.219c-0.998,0.375-1.994,0.75-2.654,0.996c-0.688-2.389-1.343-4.668-2.01-6.986
	c-0.428,4.326-0.836,8.437-1.22,12.326c0.688-0.99,1.408-2.355,2.439-3.42C577.989,457.459,579.324,456.705,580.525,455.816z
	 M575.178,441.756c1.748,7.143,7.602,11.786,12.916,10.459C582.494,450.482,578.475,447.125,575.178,441.756z M626.416,305.3
	c-0.313-0.763-0.861-1.433-1.31-2.142c-0.634,0.613-1.347,1.172-1.866,1.87c-0.247,0.332-0.154,0.935-0.174,1.416
	c-0.559,12.563-2.502,24.933-5.057,37.234c-2.875,13.847-8.258,26.813-13.871,39.665c-7.605,17.412-17.499,33.455-29.934,47.888
	c-0.499,0.578-0.453,1.628-0.659,2.46c0.938-0.119,2.2,0.11,2.751-0.414c1.805-1.705,3.456-3.604,4.978-5.574
	c14.524-18.79,25.459-39.511,33.433-61.865c6.801-19.061,10.411-38.725,11.745-59.195
	C626.452,306.416,626.611,305.786,626.416,305.3z M649.498,303.447c-1.104-1.336-3.314-2.627-0.322-4.097
	c-0.349-1.599-2.967-2.39-1.274-4.267c1.604-1.78,0.454-2.479-0.96-3.217c-3.794-1.976-8.514-0.746-11.697,2.939
	c-1.076,1.246-2.361,2.313-3.686,3.59c0.791,0.902,1.884,2.096,2.92,3.34c1.078,1.289,1.93,2.826,3.184,3.898
	C641.607,309.004,647.082,307.941,649.498,303.447z M259.755,433.885c-13.638-16.354-25.126-34.354-33.488-54.273
	c-5.596,2.845-10.868,5.521-16.194,8.23c8.229,21.1,19.748,40.091,33.81,57.609C249.27,441.523,254.463,437.741,259.755,433.885z
	 M260.665,159.808c-5.067-4.153-9.825-8.054-14.682-12.035c-14.438,17.765-26.631,36.653-35.527,57.569
	c5.537,2.79,10.959,5.518,16.563,8.337C235.491,194.013,247.239,176.378,260.665,159.808z M583.287,434.204
	c5.17,3.772,10.094,7.363,15.143,11.049c14.334-17.126,25.425-36.407,34.017-57.159c-5.518-2.606-11.088-5.236-16.854-7.963
	C607.078,399.596,596.206,417.654,583.287,434.204z M582.982,160.13c6.034,8.805,12.262,17.208,17.734,26.075
	c5.468,8.861,10.18,18.189,15.205,27.281c4.855-2.32,10.123-4.834,15.387-7.363c0.207-0.1,0.362-0.306,0.598-0.511
	c-8.348-20.756-20.489-39.202-34.205-56.839C592.625,152.689,587.732,156.463,582.982,160.13z M513.086,80.235
	c0.732-2.052,1.338-3.739,2.005-5.611c-19.858-9.16-40.522-14.611-61.786-17.811c-21.32-3.209-42.703-3.037-64.066-0.098
	c-21.353,2.938-41.789,8.988-61.593,17.733c0.622,2,1.161,3.734,1.867,6.005C390.846,53.199,451.912,54.578,513.086,80.235z
	 M330.453,515.398c-1.888,5.085-1.385,6.425,3.189,8.334c24.536,10.25,50.099,15.818,76.678,16.571
	c13.949,0.396,27.862-0.054,41.752-1.754c20.086-2.458,39.384-7.798,58.188-15.099c4-1.551,4.856-4.467,2.824-7.977
	C452.158,540.5,391.418,541.871,330.453,515.398z M517.808,86.493c-2.505,6.081-4.904,11.907-7.301,17.722
	c0.497,0.302,0.686,0.442,0.895,0.542c15.89,7.598,30.811,16.702,44.163,28.27c0.449,0.389,1.799,0.304,2.347-0.09
	c2.606-1.883,5.077-3.951,7.601-5.947c2.1-1.664,4.205-3.322,6.426-5.077C555.768,106.946,537.424,96.076,517.808,86.493z
	 M571.853,472.26c-4.896-4.289-9.705-8.503-14.694-12.877c-14.185,12.943-29.814,23.982-47.321,32.133
	c2.542,5.588,4.987,10.967,7.392,16.254C537.523,499.018,555.475,486.889,571.853,472.26z M325.271,508.15
	c2.466-5.586,4.877-11.042,7.138-16.166c-8.366-4.779-16.885-9.168-24.885-14.354c-8.007-5.189-15.499-11.178-23.094-16.728
	c-4.649,3.681-9.491,7.513-14.436,11.427C286.392,487.462,304.738,499.37,325.271,508.15z M271.497,121.627
	c5.251,4.196,10.333,8.256,15.541,12.417c13.439-12.229,28.573-22.181,45.151-30.038c-2.816-5.873-5.518-11.511-8.317-17.352
	C304.609,95.622,287.414,107.595,271.497,121.627z M662.834,271.459c-2.08-15.416-4.961-30.613-10.779-45.106
	c-2.4-5.983-5.109-11.84-7.707-17.821c-2.088,1.128-3.639,1.961-5.183,2.809c-0.128,0.072-0.197,0.251-0.056,0.063
	c26.336,57.023,27.439,113.909,0.994,171.161c1.58,0.719,3.242,1.476,5.074,2.313c0.65-0.869,1.419-1.705,1.963-2.666
	c1.068-1.887,2.118-3.797,2.982-5.781c8.483-19.473,12.482-40.01,13.988-61.057C665.159,300.717,664.803,286.071,662.834,271.459z
	 M202.038,382.518c-26.304-57.246-24.867-114.189,1.203-171.155c-1.593-0.854-3.25-1.742-5.037-2.698
	c-0.774,1.455-1.595,2.671-2.099,4.006c-3.207,8.475-6.656,16.875-9.436,25.49c-5.131,15.897-8.184,32.256-8.966,48.95
	c-0.953,20.293,0.699,40.413,5.293,60.231c2.686,11.595,5.881,23.046,11.84,33.493c2.439,4.272,2.61,4.272,6.963,1.981
	C201.865,382.783,201.901,382.693,202.038,382.518z M425.906,530.932c8.701-0.328,17.41-0.926,25.79-3.487
	c7.981-2.439,15.861-5.22,23.782-7.854c0.447-0.148,0.877-0.362,1.314-0.546c-4.661-0.054-8.923-1.093-12.785-3.485
	c-2.75-1.7-5.438-3.568-4.452-7.148c-11.379,0.976-22.662,1.945-34.02,2.921c5.204,6.532,4.788,9.874-2.618,17.941
	C423.998,529.899,424.972,530.968,425.906,530.932z M384.996,508.467c-3.249,8.233-10.929,8.704-17.885,10.453
	c0.411,0.135,0.906,0.32,1.413,0.468c6.688,1.94,13.457,3.641,20.045,5.874c8.952,3.033,17.996,5.375,27.473,5.911
	c2.045,0.114,3.592-0.231,4.429-2.399c-2.867-1.982-5.301-4.438-6.039-8.019c-0.763-3.712,0.78-6.849,3.009-9.393
	C406.438,510.38,395.567,509.41,384.996,508.467z M245.672,143.151c21.843-25.027,46.571-45.885,76.943-59.587
	c-0.848-1.97-1.569-3.646-2.4-5.578c-30.927,14.712-57.02,35.277-79.351,61.433c0.804,0.609,1.316,0.989,1.819,1.38
	C243.63,141.538,244.568,142.281,245.672,143.151z M598.896,144.391c1.439-1.204,2.719-2.273,4.428-3.705
	c-22.485-26.923-49.396-47.365-80.852-62.47c-0.921,1.918-1.727,3.598-2.615,5.449C551.051,97.799,576.98,118.487,598.896,144.391z
	 M519.455,510.863c0.599,1.859,1.123,3.52,1.67,5.174c0.099,0.301,0.287,0.572,0.442,0.875
	c30.104-14.076,55.988-33.707,78.128-58.721c-1.535-1.326-2.852-2.462-4.344-3.75C573.682,478.25,549.037,497.861,519.455,510.863z
	 M246.882,454.578c-1.661,1.334-2.97,2.386-4.623,3.715c22.188,25.594,48.49,45.311,79.497,59.107
	c0.655-2.07,1.208-3.814,1.875-5.924C293.094,498.907,268.439,478.777,246.882,454.578z M637.452,380.538
	c-5.935-2.763-11.868-5.491-17.755-8.322c-0.494-0.238-1.048-1.3-0.9-1.771c2.211-7.18,4.533-14.326,6.844-21.478
	c0.12-0.37,0.363-0.705,0.693-1.334c0.979,1.076,1.881,2.063,2.78,3.055c2.997,3.299,6.575,5.598,10.987,6.53
	c2.232,0.473,4.166,0.241,5.637-2.265c-2.939-0.877-5.755-1.715-8.61-2.565c0.043-1.659,0.624-2.196,2.111-1.53
	c2.683,1.202,5.386,2.356,8.257,3.605C644.028,363.467,640.696,372.117,637.452,380.538z M634.932,366.936
	c0.807-1.615,2.343-2.869,3.622-4.354c-4.513,1.91-7.221-1.473-10.544-3.673c0.189,3.771-0.188,7.194-3.201,10.197
	c4.044-0.899,6.151,1.978,8.561,3.716C633.885,370.753,634.065,368.674,634.932,366.936z M205.694,213.333
	c6.24,3.178,12.288,6.256,18.094,9.212c-2.746,7.852-5.446,15.575-8.204,23.463c-4.968-5.501-11.619-7.357-19.314-8.205
	C199.543,229.303,202.626,221.296,205.694,213.333z M208.195,221.262c-0.981,4.68-0.61,9.619-5.385,12.429
	c4.432-2.321,7.382-0.1,10.007,3.284c1.3-4.009,1.171-8.274,4.815-11.239C213.69,225.844,210.464,224.788,208.195,221.262z
	 M635.916,213.375c3.251,7.731,6.562,15.609,10.047,23.9c-7.331,1.572-14.701,2.763-19.508,9.198
	c-2.748-8.035-5.416-15.83-8.109-23.704C623.852,219.826,629.86,216.614,635.916,213.375z M633.074,220.95
	c-2.234,3.079-5.002,4.85-8.138,4.916c1.404,3.548,2.79,7.046,4.103,10.361c4.457-3.878,4.457-3.878,9.906-3.031
	C633.591,230.785,634.893,225.193,633.074,220.95z M207.471,204.015c8.867-21.67,21.432-40.887,36.311-58.92
	c-1.172-1.265-2.299-2.481-3.697-3.991c-15.954,18.173-28.195,38.219-37.75,60.121c0.874,0.509,1.687,1.009,2.524,1.465
	C205.68,203.136,206.524,203.538,207.471,204.015z M635.745,389.027c-8.979,21.439-20.108,41.439-35.315,59.115
	c1.361,1.251,2.713,2.49,4.179,3.837c8.037-7.835,26.527-35.243,35.825-60.333c-0.722-0.43-1.453-0.888-2.206-1.311
	C637.475,389.916,636.703,389.529,635.745,389.027z M206.752,389.421c-1.867,0.933-3.429,1.713-5.065,2.529
	c8.612,22.146,20.326,42.173,36.092,60.222c1.284-1.533,2.319-2.772,3.563-4.261C226.994,430.291,214.908,411.025,206.752,389.421z
	 M621.295,176.421c5.303,8.951,9.735,18.415,14.587,27.726c1.219-0.67,2.823-1.555,4.597-2.531
	c-8.484-19.686-19.275-37.87-32.684-54.641c-1.621,1.428-2.869,2.524-3.811,3.355C609.872,159.128,616.02,167.515,621.295,176.421z
	 M336.439,100.257c-2.484-5.545-4.916-11.116-7.414-16.781c-0.705,0.412-1.373,0.804-2.294,1.344
	c2.78,6.059,5.507,11.996,8.252,17.98C336.532,102.313,337.069,101.662,336.439,100.257z M506.205,100.751
	c-0.201,0.553,0.404,1.399,0.635,2.108c0.294-0.033,0.589-0.064,0.885-0.097c2.429-5.981,4.859-11.962,7.326-18.039
	c-0.739-0.463-1.335-0.832-2.222-1.386C510.553,89.264,508.313,94.982,506.205,100.751z M207.486,210.452
	c5.415,2.729,10.675,5.405,15.974,8.004c0.377,0.184,1.038-0.204,1.566-0.326c-0.278-0.622-0.383-1.562-0.859-1.819
	c-5.114-2.754-10.289-5.398-15.578-8.145C208.159,209.056,207.86,209.676,207.486,210.452z M635.214,383.117
	c-5.911-2.791-11.739-5.542-17.542-8.281c-1.174,1.799-0.033,2.508,1.162,3.087c4.611,2.229,9.258,4.383,13.855,6.641
	C634.063,385.238,634.77,384.921,635.214,383.117z M330.421,510.732c2.313-5.254,4.645-10.498,6.895-15.777
	c0.173-0.407-0.249-1.068-0.392-1.611c-0.553,0.246-1.418,0.349-1.608,0.761c-2.205,4.794-4.352,9.616-6.372,14.488
	c-0.236,0.565,0.378,1.481,0.598,2.235C329.834,510.796,330.128,510.763,330.421,510.732z M224.441,375.336
	c-0.479-0.098-1.071-0.428-1.42-0.26c-5.31,2.593-10.588,5.254-15.947,7.932c0.495,1.764,1.16,2.184,2.542,1.396
	c1.808-1.03,3.73-1.852,5.577-2.814c2.844-1.479,5.692-2.954,8.471-4.55C224.102,376.787,224.19,375.918,224.441,375.336z
	 M513.381,507.827c-1.672-3.984-3.398-7.953-5.322-11.817c-0.525-1.055-0.514-3.552-2.398-2.713
	c-1.971,0.879-0.071,2.566,0.39,3.664c1.972,4.692,4.185,9.281,6.308,13.908c0.406-0.073,0.812-0.147,1.216-0.221
	C513.522,509.701,513.727,508.648,513.381,507.827z M616.639,217.886c0.719,0.254,1.646,0.932,2.117,0.695
	c4.738-2.362,9.418-4.841,14.053-7.399c0.54-0.296,0.713-1.264,1.053-1.92c-0.286-0.192-0.571-0.381-0.857-0.572
	c-5.398,2.785-10.795,5.57-16.192,8.356C616.754,217.325,616.697,217.606,616.639,217.886z M566.405,461.736c0-2.946,0-5.92,0-8.893
	c-0.231-0.059-0.461-0.115-0.691-0.176c-1.544,1.428-3.082,2.855-5.032,4.666c1.738,0.301,2.938,0.508,4.104,0.71
	C565.179,461.488,565.179,461.488,566.405,461.736z M514.522,513.488c0.694,2.106,1.337,4.054,2.035,6.168
	c3.183-1.373,3.235-2.911,0.481-7.57C516.233,512.533,515.425,512.986,514.522,513.488z M596.59,451.977
	c0.969,1.034,1.816,1.99,2.717,2.893c1.923,1.924,2.896,1.6,3.734-1.31c-1.506-1.216-3.044-2.457-4.613-3.724
	C597.746,450.627,597.182,451.286,596.59,451.977z M278.068,141.983c0.194-1.078,0.327-2.171,0.603-3.226
	c0.181-0.687,0.446-1.434,0.907-1.935c0.378-0.41,1.105-0.5,1.912-0.826c-1.873-1.317-3.527-2.479-5.428-3.815
	c0.438,3.351,0.843,6.451,1.25,9.555C277.563,141.816,277.815,141.901,278.068,141.983z M243.322,449.815
	c-1.563,1.26-2.973,2.397-4.608,3.715c0.885,0.958,1.651,1.788,2.433,2.636c1.614-1.415,3.013-2.64,4.313-3.777
	C244.642,451.403,243.993,450.621,243.322,449.815z M637.658,209.099c1.586-0.355,3.236-0.978,4.49-1.973
	c0.453-0.358-0.147-2.043-0.305-3.463c-2.254,1.15-3.991,2.034-6.104,3.112C636.5,207.733,637.25,209.189,637.658,209.099z
	 M325.646,512.399c-0.316,1.158-0.574,2.146-0.855,3.127c-0.894,3.104-0.898,3.103,2.223,3.81c0.289-0.984,0.541-1.984,0.875-2.957
	C328.873,513.501,328.886,513.506,325.646,512.399z M206.206,206.437c-1.685-1.036-3.227-1.983-5.088-3.125
	c-0.553,1.117-1.033,2.085-1.586,3.202c1.824,0.932,3.463,1.77,5.229,2.673C205.307,208.149,205.729,207.344,206.206,206.437z
	 M638.684,384.52c-0.564,0.855-1.032,1.563-1.56,2.363c0.622,0.438,1.114,0.826,1.644,1.148c1.076,0.658,2.176,1.281,3.467,2.039
	c0.599-1.046,1.125-1.963,1.711-2.982c-1.034-0.562-1.848-1.043-2.697-1.456C640.422,385.229,639.561,384.896,638.684,384.52z
	 M602.059,148.824c0.863-0.688,1.531-1.251,2.229-1.774c2.462-1.839,2.476-2.14-0.036-4.332c-1.378,1.124-2.786,2.274-4.456,3.638
	C600.645,147.282,601.322,148.021,602.059,148.824z M517.826,82.198c3.27-5.874,2.362-5.573-1.023-6.498
	C515.485,81.7,515.485,81.7,517.826,82.198z M325.333,75.613c-3.167,0.999-3.25,2.198-0.456,6.579
	C327.53,81.357,327.687,79.112,325.333,75.613z M199.014,387.075c0.419,0.833,0.842,1.675,1.418,2.819
	c1.756-0.98,3.275-1.828,4.784-2.674C203.694,383.936,203.35,383.936,199.014,387.075z M195.307,242.142
	c3.268,0.966,6.536,1.931,10.07,2.972c0.769-2.314-0.503-3.211-2.046-2.869c-2.356,0.519-4.177-0.391-6.153-1.222
	c-0.507-0.214-1.226,0.071-1.847,0.128C195.321,241.482,195.315,241.812,195.307,242.142z M281.113,457.099
	c-1.616-1.298-3.063-2.46-4.353-3.493c-0.367,2.848-0.724,5.63-1.083,8.412c0.17,0.08,0.341,0.159,0.511,0.24
	c0.55-1.324,1.1-2.646,1.668-4.017C278.745,457.93,279.784,457.564,281.113,457.099z M481.891,82.009
	c1.281-1.043,0.883-5.597-0.414-7.072c-0.658,2.841,0.115,6.348-3.916,7.435C479.256,82.604,480.953,82.774,481.891,82.009z
	 M205.945,245.513c2.576,1.615,4.927,3.088,7.338,4.6C213.405,246.393,210.509,244.5,205.945,245.513z M636.469,244.518
	c-1.043-0.029-2.273-0.421-3.087-0.002c-1.304,0.672-2.374,1.833-3.461,2.875c-0.636,0.608-1.112,1.382-1.659,2.082
	c0.131,0.133,0.266,0.264,0.398,0.396c2.578-1.506,5.156-3.009,7.732-4.515C636.418,245.077,636.442,244.797,636.469,244.518z
	 M638.066,244.424c2.949-1.164,6.529-1.07,8.719-4.073c-3.433,0.847-6.658,1.644-10.201,2.519
	C637.13,243.46,637.825,244.518,638.066,244.424z M360.556,74.989c-0.295,0.083-0.591,0.167-0.885,0.25
	c0.096,1.452,0.061,2.928,0.319,4.352c0.621,3.42,1.067,3.63,4.964,2.298C361.107,80.888,361.463,77.568,360.556,74.989z
	 M364.995,92.167c0.292,0.37,1.77-0.194,2.7-0.326c0.138-0.33,0.274-0.658,0.411-0.987c-4.024,0.253-2.829-4.022-5.318-5.826
	C362.318,88.258,363.541,90.322,364.995,92.167z M364.899,511.313c-1.701,0.169-3.767,0.273-4.389,1.278
	c-1.057,1.7-1.224,3.968,0.861,6.04C360.789,515.272,361.771,512.793,364.899,511.313z M474.38,91.065
	c0.108,0.275,0.216,0.55,0.323,0.825c0.883,0.118,1.881,0.549,2.62,0.277c1.3-0.482,2.654-4.499,2.153-5.816
	c-0.124-0.328-0.576-0.837-0.719-0.79c-0.389,0.13-1.022,0.574-0.982,0.787C478.245,88.912,477.171,90.483,474.38,91.065z
	 M205.198,350.582L205.198,350.582L205.198,350.582c0.003,0.005,0.082,0.084,0.082,0.084c0.008-0.035,0.017-0.07,0.023-0.106
	C205.267,350.566,205.232,350.574,205.198,350.582z M208.53,349.876c0.437-0.112,0.868-0.24,1.286-0.399
	c1.803-0.682,3.045-2.045,3.932-4.451c-3.085,1.711-5.638,3.102-8.15,4.559c-0.214,0.126-0.22,0.609-0.295,0.974c0,0,0,0,0,0.002
	l0,0C206.374,350.319,207.471,350.146,208.53,349.876z M481.713,518.14c0.355-0.072,0.711-0.148,1.066-0.225
	c-0.329-1.933-0.362-3.993-1.134-5.733c-0.316-0.714-2.212-0.73-3.391-1.064c-0.238,0.277-0.476,0.559-0.715,0.837
	C482.307,512.053,479.975,516.28,481.713,518.14z M636.247,349.906c-2.432-1.67-4.727-3.248-7.021-4.824
	C630.166,348.379,633.205,350.221,636.247,349.906z M563.055,137.55c0.758-0.297,1.531-0.598,2.545-0.997
	c0.242-0.096,0.492-0.193,0.764-0.298c0.076-0.816,0.215-2.315,0.379-4.084c-1.895,1.521-3.41,2.733-5.122,4.104
	c0.521,0.456,0.967,0.844,1.413,1.232l-0.082,0.084c0.043,0.004,0.085,0.013,0.127,0.018
	C563.072,137.589,563.063,137.57,563.055,137.55L563.055,137.55C563.055,137.55,563.055,137.55,563.055,137.55z M564.309,140.499
	c0.229,0.539,0.469,1.105,0.729,1.716c0.789-1.347,1.108-2.319,0.955-3.022c-0.006-0.031-0.02-0.06-0.029-0.089
	c-0.019-0.066-0.037-0.135-0.063-0.194c-0.018-0.036-0.041-0.065-0.061-0.099c-0.029-0.051-0.056-0.106-0.092-0.156
	c-0.043-0.057-0.099-0.111-0.153-0.163c-0.02-0.02-0.034-0.042-0.054-0.06c-0.477-0.419-1.297-0.671-2.463-0.823l0,0v0.001
	C563.473,138.532,563.867,139.463,564.309,140.499z M364.304,503.158c-1.71,3.298-1.565,4.883,0.633,6.223
	C364.716,507.213,364.526,505.338,364.304,503.158z M477.848,503.323c0,2.159,0,4.005,0,6.181
	C479.609,508.07,479.581,505.85,477.848,503.323z M349.247,84.291c-1.912,0.886-3.774,1.746-5.576,2.58
	c0.461,2.16,0.872,4.091,1.304,6.116c1.992-1.001,3.952-1.988,5.89-2.964C350.308,88.051,349.798,86.24,349.247,84.291z
	 M492.945,84.649c-0.594,2.024-1.215,4.144-1.789,6.095c1.957,0.929,3.885,1.845,5.722,2.716c0.628-2.147,1.272-4.349,1.866-6.38
	C496.847,86.284,494.876,85.458,492.945,84.649z M491.344,506.074c0.623,2.086,1.244,4.169,1.859,6.234
	c1.59-1.059,4.016-1.844,4.797-3.438c0.732-1.49-0.277-3.834-0.494-5.59C495.322,504.27,493.393,505.146,491.344,506.074z
	 M214.421,366.935c-0.543-2.03-1.069-4-1.596-5.976c-5.499,3.4-5.499,3.4-4.454,9.259
	C210.383,369.127,212.377,368.043,214.421,366.935z M629.801,361.35c-0.057-0.044-0.154-0.035-0.264-0.055
	c-0.761,2.125-1.527,4.266-2.258,6.299c1.878,0.986,3.813,2.002,5.742,3.016c0.409-1.941,1.534-4.105,1.01-5.743
	C633.563,363.395,631.284,362.496,629.801,361.35z M214.855,226.909c-1.945-0.964-4.026-1.991-5.994-2.963
	c-0.527,2.461-1.057,4.931-1.554,7.252c1.648,1.112,3.347,2.258,4.969,3.354C213.133,232.007,214.021,229.382,214.855,226.909z
	 M626.389,226.996c1.057,2.27,2.178,4.689,3.301,7.107c1.516-0.965,3.057-1.946,4.658-2.966c-0.504-2.727-0.988-5.337-1.423-7.695
	C630.632,224.688,628.446,225.876,626.389,226.996z"/>
</svg>
