<?xml version="1.0" encoding="utf-8"?>
<!-- Generator: Adobe Illustrator 16.0.0, SVG Export Plug-In . SVG Version: 6.00 Build 0)  -->
<!DOCTYPE svg PUBLIC "-//W3C//DTD SVG 1.1//EN" "http://www.w3.org/Graphics/SVG/1.1/DTD/svg11.dtd">
<svg version="1.1" id="Layer_1" xmlns="http://www.w3.org/2000/svg" xmlns:xlink="http://www.w3.org/1999/xlink" x="0px" y="0px"
	 width="841.89px" height="595.28px" viewBox="0 0 841.89 595.28" enable-background="new 0 0 841.89 595.28" xml:space="preserve">
<path fill-rule="evenodd" clip-rule="evenodd" d="M304.896,213.659c0.218-1.737,0.437-3.48,0.705-5.59
	c3.557,2.546,6.744,0.949,9.915-0.48c13.271-5.962,23.478-15.633,32.388-26.86c0.953-1.206,1.852-2.454,2.881-3.588
	c2.317-2.554,3.955-2.414,5.646,0.557c4.476,7.852,10.128,14.711,17.168,20.382c8.131,6.55,17.34,10.613,27.818,11.312
	c7.5,0.502,14.306-2.011,20.955-5.274c4.334-2.136,8.035-4.668,9.832-9.361c0.185-0.489,0.592-0.898,0.939-1.304
	c0.148-0.174,0.414-0.255,1.16-0.676c-0.672,4.611-1.279,8.804-1.889,12.992c2.712-7.473,7.053-13.819,12.471-19.475
	c7.422-7.747,19.59-6.604,23.947,3.04c3.205,7.091,8.021,8.753,14.667,7.646c3.595-0.602,7.161-1.697,10.555-3.035
	c1.74-0.692,3.332-2.203,4.535-3.708c2.806-3.509,2.062-6.865-1.602-9.394c-1.089-0.748-1.879-1.934-2.804-2.922
	c1.086-0.997,2.013-2.364,3.29-2.929c6.212-2.77,12.823-2.725,19.405-2.104c6.152,0.568,11.895,2.607,17.413,5.43
	c2.61,1.338,5.479,2.278,8.335,2.993c2.112,0.526,4.391,0.401,7.158,0.608c0,0.42,0.127,1.323-0.018,2.185
	c-1.482,8.759-5.646,16.436-9.783,24.115c-9.627,17.885-23.271,32.257-39.275,44.488c-8.592,6.563-18.523,8.449-29.144,7.478
	c-5.923-0.54-11.86-0.914-18.513-1.416c5.626,4.05,10.404,8.304,15.899,11.21c5.555,2.937,11.819,4.532,17.726,7.316
	c-1.232,0.426-2.469,0.853-4.359,1.507c2.396,3.163,4.32,6.363,6.889,8.91c2.576,2.561,5.797,4.465,8.804,6.71
	c-0.521,0.568-1.052,1.149-1.647,1.8c5.502,6.636,12.189,11.478,20.168,14.61c-0.055,0.258-0.107,0.513-0.158,0.77
	c-2.32,0.427-4.639,0.855-7.573,1.396c5.167,9.842,11.324,18.338,21.632,23.574c-1.529,0.178-3.059,0.355-4.974,0.575
	c0.402,1.1,0.684,2.174,1.169,3.146c3.832,7.664,9.705,13.616,16.1,19.124c1.914,1.647,3.76,3.407,5.822,4.85
	c2.941,2.054,3.238,4.787,3.073,8.074c-0.347,6.825-0.863,13.713-0.321,20.495c1.021,12.769,12.682,26.461,28.193,26.16
	c9.862-0.192,18.603-2.241,25.214-10.018c5.634-6.621,9.711-19.278,1.704-29.098c-3.071-3.765-6.137-7.571-9.557-11.013
	c-3.987-4.006-8.889-4.479-13.988-2.218c-7.128,3.16-12.1,11.583-11.493,19.268c0.614,7.794,6.435,15.135,13.94,16.736
	c2.551,0.541,5.523-0.006,8.109-0.738c2.467-0.7,3.517-3.226,2.672-5.456c-0.367-0.968-1.396-1.818-2.332-2.372
	c-0.36-0.214-1.299,0.535-1.97,0.854c-0.835,0.394-1.669,0.797-2.505,1.194c-0.125-1.294-0.799-2.89-0.279-3.83
	c1.838-3.341,7.232-3.159,9.658,0.136c3.946,5.35,1.612,13.309-4.713,16.076c-7.959,3.482-18.342,0.775-24.357-6.623
	c-9.025-11.097-10.425-23.639-4.484-36.23c5.963-12.635,17.133-18.13,30.939-17.781c14.506,0.368,26.918,11.766,29.391,26.714
	c2.398,14.502-2.576,26.935-11.15,38.272c-1.992,2.635-4.102,5.179-5.828,8.188c1.377-0.966,2.753-1.932,4.129-2.899
	c0.19,0.192,0.382,0.385,0.572,0.579c-1.926,2.4-3.545,5.155-5.834,7.137c-9.485,8.229-20.676,10.988-33,9.437
	c-11.873-1.49-20.954-7.639-28.126-16.987c-4.303-5.606-5.772-12.149-6.362-18.935c-0.694-7.997-0.964-16.036-1.733-24.028
	c-0.214-2.214-1.001-4.864-2.479-6.383c-5.018-5.145-10.463-9.871-15.342-15.245c1.504,1.944,2.93,3.957,4.531,5.815
	c6.735,7.816,10.119,16.764,10.269,27.178c0.166,11.546,1.106,23.081,1.366,34.636c0.113,4.996-0.629,10.014-1.021,15.567
	c1.943,0.251,4.298,0.661,6.667,0.841c6.789,0.504,13.438,1.597,19.5,4.877c9.336,5.057,13.67,13.441,15.426,23.948
	c1.787-1.518,3.521-2.845,5.095-4.346c21.261-20.307,38.06-43.712,49.05-71.091c4.371-10.89,6.455-22.159,4.026-33.852
	c-1.1-5.289-2.736-10.465-4.694-15.527c-0.291,8.755-0.581,17.503-0.873,26.254c-0.132,0.068-0.262,0.136-0.393,0.203
	c-0.349-0.806-0.721-1.605-1.041-2.424c-3.714-9.511-9.119-17.928-16.035-25.444c-5.689-6.187-13.045-8.362-20.98-9.372
	c-0.606-0.077-1.215-0.14-1.844-0.466c6.427-2.525,12.97-4.712,19.954-2.902c7.212,1.865,11.218,7.367,14.341,13.774
	c0.35-7.868-1.227-15.156-5.809-21.576c-1.726-2.414-3.864-4.525-5.717-6.852c-0.423-0.531-0.447-1.374-0.654-2.078
	c0.738-0.017,1.58-0.284,2.194-0.017c4.75,2.077,8.514,5.48,11.552,9.56c3.112,4.172,5.84,8.627,9.266,12.998
	c-0.748-4.124-1.076-8.379-2.34-12.34c-1.908-5.975-4.473-11.736-6.748-17.596c-0.434-1.122-0.814-2.264-1.221-3.396
	c0.262-0.166,0.523-0.337,0.787-0.504c1.483,1.626,3.08,3.162,4.43,4.894c4.852,6.219,7.484,13.479,9.705,20.938
	c1.217,4.095,2.644,8.125,4.256,12.154c3.854-9.234,5.043-18.832,4.806-28.671c-0.241-10.008-4.111-18.928-8.644-27.657
	c11.84,7.412,11.875,19.466,12.706,31.228c2.294-6.275,1.115-35.528-2.239-52.896c-2.134,4.436-4.729,7.736-9.881,8.61
	c3.084,2.135,2.177,4.382,0.803,6.167c-2.594,3.37-5.529,6.477-8.23,9.593c-0.874,1.938-1.397,4.24-2.73,5.9
	c-11.524,14.328-25.832,24.749-43.754,29.479c-13.6,3.591-27.222,2.881-40.422-2.072c-13.875-5.209-21.654-15.866-25.436-29.793
	c-0.49-1.818-0.648-3.729-0.971-5.648c3.184,1.365,5.756,2.941,8.545,3.574c6.414,1.449,12.066-0.55,17.025-4.755
	c0.612-0.515,1.48-0.73,2.23-1.085c0.393,0.959,1.059,1.904,1.102,2.876c0.041,0.92-0.496,1.898-0.916,2.789
	c-3.285,6.946-7.527,13.136-14.064,17.464c-0.443,0.294-0.955,0.486-1.436,0.723c0.273,0.355,0.546,0.709,0.816,1.061
	c1.666-1.022,3.438-1.909,4.977-3.095c4.086-3.152,6.76-7.448,9.172-11.915c0.641-1.188,1.199-2.421,1.828-3.619
	c0.807-1.53,1.668-3.297,3.771-2.742c2.093,0.556,1.663,2.5,1.591,4.097c-0.064,1.532-0.224,3.063-0.299,4.598
	c-0.046,0.944-0.008,1.892,0.374,2.832c0.53-2.126,0.792-4.373,1.69-6.328c0.545-1.185,2.064-2.636,3.162-2.646
	c1.031-0.017,2.438,1.519,3.047,2.701c0.908,1.752,1.257,3.794,1.981,6.159c0.312-3.15,0.271-5.814,0.944-8.276
	c0.359-1.307,1.808-2.588,3.092-3.214c0.432-0.208,2.118,1.487,2.788,2.582c1.102,1.809,1.844,3.839,2.892,6.115
	c-0.277-3.571-0.63-6.688-0.722-9.809c-0.052-1.821,0.272-3.709,2.6-4.105c2.265-0.381,3.247,1.072,3.901,2.914
	c0.896,2.51,1.797,5.021,2.908,8.125c-0.291-4.637-0.694-8.572-0.705-12.505c-0.007-1.631,0.561-3.399,1.338-4.856
	c1.305-2.443,3.38-2.339,4.648,0.138c0.82,1.589,1.243,3.387,2.103,4.946c1.724,3.143,3.546,6.24,5.501,9.244
	c0.593,0.907,1.759,1.442,2.938,1.846c-3.271-4.212-6.265-8.456-7.485-13.64c-0.655-2.789-1.112-5.643-1.409-8.492
	c-0.133-1.302,0.026-2.819,0.611-3.95c0.647-1.253,1.934-2.177,2.941-3.245c0.955,0.96,2.203,1.771,2.812,2.921
	c1.476,2.771,2.505,5.779,3.983,8.55c1.834,3.433,4.229,6.422,8.115,7.826c-6.053-5.629-9.344-12.87-11.592-20.545
	c-0.76-2.594-0.219-5.636,0.117-8.429c0.1-0.836,1.479-2.045,2.343-2.104c0.86-0.071,2.149,0.892,2.659,1.749
	c1.377,2.311,2.319,4.88,3.647,7.225c2.87,5.062,6.747,9.01,12.557,10.67c-8.134-5.236-12.448-13.306-16.109-21.797
	c-0.765-1.781-1.248-3.828-1.231-5.753c0.013-1.396,0.683-3.383,1.729-4.046c1.766-1.111,3.025,0.582,4.133,1.986
	c2.676,3.385,5.21,6.932,8.226,9.997c3.254,3.309,7.238,5.646,11.823,6.198c-3.238-2.311-6.863-4.415-9.9-7.166
	c-6.137-5.559-10.951-12.158-13.609-20.125c-0.28-0.835-0.381-1.773-0.325-2.655c0.146-2.302,2.147-3.226,4.031-1.836
	c0.859,0.632,1.604,1.459,2.284,2.294c8.109,9.948,18.336,12.983,30.681,9.735c6.406-1.684,12.23-4.259,16.903-9.094
	c0.492-0.51,1.106-0.896,1.663-1.351c3.319,4.217-1.872,16.414-10.071,23.743c0.811,1.355,1.63,2.727,2.521,4.224
	c1.618-3.414,3.206-6.766,4.796-10.116c0.285,0.038,0.577,0.066,0.863,0.104c3.454,12.896,5.282,26.083,6.239,39.405
	c0.959,13.362-0.477,26.589-2.167,39.855c1.882-4.913,4.138-9.723,5.567-14.764c2.448-8.64,8.533-11.922,16.777-12.582
	c2.377-0.19,4.752-0.422,7.579-0.676c-4.239,3.201-8.09,5.941-11.749,8.912c-5.188,4.215-9.088,9.393-11.75,15.609
	c-3.781,8.835-7.887,17.531-11.84,26.297c-0.362,0.805-0.603,1.665-0.711,2.765c8.693-9.016,20.068-11.33,31.793-13.306
	c-5.509,2.963-10.941,5.678-16.164,8.751c-5.41,3.188-10.059,7.356-13.831,12.402c-3.771,5.049-5.425,11.023-7.407,17.348
	c7.243-7.814,15.637-12.592,26.283-14.883c-4.836,3.182-9.1,5.844-13.214,8.722c-10.13,7.085-16.649,16.668-21.337,28.169
	c-12.439,30.515-32.226,55.892-56.53,77.927c-5.244,4.754-10.264,9.625-13.765,16.133c-4.828,8.975-13.672,11.112-23.588,11.405
	c4.57-3.625,4.666-4.647,1.948-9.486c-0.851-1.514-1.388-3.317-1.612-5.044c-0.224-1.721,0.754-2.858,2.803-2.776
	c0.129,0.395,0.298,0.719,0.333,1.054c0.407,3.919,2.788,5.652,6.673,4.648c3.66-0.953,6.325-3.238,7.273-6.928
	c0.916-3.579-0.188-6.772-2.947-9.325c-3.72-3.437-10.002-3.96-14.039-1.142c-2.687,1.875-3.887,4.375-3.18,7.93
	c1.348-0.519,2.568-1.048,3.83-1.449c2.68-0.855,5.574,1.444,5.074,4.112c-0.086,0.46-1.295,1.197-1.67,1.039
	c-4.369-1.798-6.746-0.703-8.037,3.999c-0.928,3.369-1.697,6.771-2.659,10.648c-0.823-0.933-1.813-1.572-2.082-2.441
	c-2.015-6.44-4.098-13.02-2.951-19.815c2.092-12.411,13.007-18.396,24.778-13.868c2.504,0.963,4.834,2.374,7.139,3.522
	c-0.348-3.688-4.676-9.172-9.608-11.918c-6.202-3.452-12.972-3.951-19.896-4.087c-4.828-0.095-8.187,2.258-11.305,5.423
	c-2.407,2.441-4.768,4.936-7.271,7.274c-1.153,1.076-2.602,1.84-4.197,2.936c2.039,1.712,4.021,3.673,6.287,5.224
	c10.381,7.076,13.405,17.251,12.887,29.175c-0.365,8.452-4.207,15.279-9.619,22.224c0.438-2.22,0.805-3.865,1.084-5.527
	c0.295-1.776,0.611-3.558,0.738-5.35c0.373-5.299,1.028-10.617,0.889-15.908c-0.229-8.771-8.884-16.78-17.301-16.373
	c-2.044,0.097-4.215,0.37-6.066,1.165c-11.982,5.163-24.155,10.093-34.793,17.757c-4.454,3.21-7.92,7.804-11.725,11.873
	c-0.859,0.924-1.26,2.267-1.65,3.005c4.514-1.592,9.053-3.416,13.73-4.742c2.191-0.62,4.661-0.433,6.995-0.338
	c4.479,0.182,8.991,0.909,13.161-1.813c0.081,0.226,0.16,0.455,0.243,0.679c-3.604,2.814-7.026,5.917-10.888,8.324
	c-2.071,1.29-4.869,1.783-7.381,1.935c-5.5,0.328-11.012,0.387-16.123,2.773c-3.626,1.696-4.53,3.331-4.258,7.655
	c25.043-3.761,49.296-9.774,71.582-22.558c0.526,5.98,0.07,7.111-4.668,9.298c-18.459,8.525-37.623,14.847-57.75,18.063
	c-3.093,0.497-6.189,0.969-9.309,1.45c4.094,15.304,31.861,27.225,46.236,12.091c-4.898,6.101-10.752,11.031-18.927,11.285
	c-5.513,0.173-11.148-0.527-16.585-1.581c-12.037-2.331-17.444-13.896-18.586-23.16c-1.992-16.157,5.63-28.717,14.23-41.038
	c5.35-7.67,12.968-12.948,19.891-19.011c12.678-11.101,21.241-24.992,26.211-41.164c4.273-13.912,6.67-28.039,5.883-42.602
	c-0.221-4.091-0.945-8.154-1.944-12.177c-0.24,4.512-0.333,9.039-0.745,13.536c-2.18,23.703-9.169,45.286-24.695,64.16
	c-11.416,13.873-25.34,24.246-39.781,34.315c-6.451,4.494-12.618,9.303-17.68,15.44c-4.645,5.63-7.277,12.06-7.735,19.218
	c-0.537,8.368-0.726,16.766-0.701,25.156c0.027,8.338,3.303,15.222,10.335,20.066c0.496,0.342,0.908,0.803,1.221,1.374
	c-7.744-2.021-14.005-5.997-16.897-13.839c-1.58-4.281-2.52-8.793-3.856-13.172c-0.574-1.875-1.179-3.826-2.236-5.441
	c-0.605-0.922-2.202-1.758-3.257-1.652c-1.093,0.107-2.779,1.27-2.951,2.197c-0.395,2.12-0.415,4.484,0.119,6.563
	c1.254,4.881,4.5,8.566,8.164,11.861c0.778,0.695,1.796,1.125,2.261,2.153c-6.641-1.905-12.032-5.444-16.072-10.856
	c-5.244-7.018-7.48-15.221-9.451-23.595c-2.528-10.736-4.413-21.509-4.668-32.57c-0.416-17.886,3.729-34.771,10.398-51.221
	c3.575-8.819,6.918-17.771,8.119-27.304c1.809-14.357,0.781-28.46-6.893-41.027c-4.025-6.596-3.22-11.69,1.403-17.031
	c7.782-8.991,11.672-19.945,15.575-30.893c0.506-1.413,0.735-2.934,0.648-4.58c-1.709,3.955-3.523,7.874-5.108,11.88
	c-4.493,11.376-11.452,21.4-17.417,31.967c-0.707,1.251-1.434,2.52-1.901,3.87c-3.944,11.363-11.276,20.152-20.6,27.487
	c-1.322,1.037-2.349,2.444-3.903,4.104c7.422-1.479,11.227-6.644,15.298-12.432c0.084,1.2,0.252,1.917,0.165,2.604
	c-0.719,5.787-3.759,10.043-8.768,12.893c-7.395,4.206-15.306,5.097-23.512,3.2c-3.212-0.738-5.816-2.59-7.716-5.788
	c2.152,0.415,3.958,0.759,5.765,1.104c0.122-0.234,0.248-0.469,0.372-0.7c-1.031-0.671-2.054-1.354-3.094-2.007
	c-1.359-0.857-2.975-1.453-4.053-2.574c-3.112-3.24-6.127-6.585-8.965-10.063c-5.834-7.151-7.379-15.54-5.136-24.197
	c2.088-8.05,2.144-16.095,1.601-24.163c-0.838-12.451-3.78-24.511-8.302-36.151c-1.064-2.744-2.727-5.247-3.928-7.947
	c-1.176-2.641-4.009-5.143-0.897-8.406c0.335-0.347-0.553-2.137-1.167-3.057c-1.067-1.611-2.364-3.063-3.673-4.718
	c2.473-0.541,4.905,1.919,7.253-0.75c-3.581-0.59-6.583-1.086-10.242-1.693c1.572-0.76,2.692-1.175,3.651-1.819
	c0.513-0.345,0.747-1.1,1.107-1.675c-0.592-0.297-1.264-0.955-1.761-0.844c-2.601,0.598-3.819-1.024-4.893-2.854
	c-1.349-2.291-2.597-4.646-3.886-6.964c0.23-0.154,0.459-0.308,0.691-0.464c2.191,2.916,4.382,5.826,6.572,8.738
	c0.215-0.157,0.431-0.312,0.645-0.469c-1.601-4.8-3.817-9.303-8.159-12.275c-2.089-1.432-2.247-3.081-1.698-5.086
	c0.579-2.124,2.099-3.116,4.287-2.878c4.988,0.558,8.625,3.398,11.684,7.12c4.716,5.734,5.703,12.703,6.309,19.753
	c1.189,13.835,3.119,27.55,6.381,41.061c1.831,7.585,3.649,15.179,5.475,22.766c0.249-0.027,0.498-0.055,0.749-0.088
	c0-1.657,0.147-3.336-0.041-4.978c-0.194-1.683-0.73-3.324-1.095-4.992c-0.385-1.754-0.828-3.503-1.103-5.274
	c-1.643-10.581-3.112-21.185-4.898-31.741c-1.62-9.564-3.05-19.21-5.537-28.563c-2.248-8.452-8.379-14.146-16.482-17.488
	c-6.137-2.53-6.489-3.31-3.555-9.312c-5.582-2.153-9.682-6.075-12.144-11.368c-3.632-7.824-7.144-15.741-8.544-24.358
	c-0.288-1.769-0.335-3.589-0.333-5.389c0.004-3.617,2.11-5.269,5.655-4.378c5.141,1.296,8.913,4.547,11.024,9.233
	c1.754,3.899,2.69,8.161,3.953,12.27c0.313,1.012,0.49,2.06,0.73,3.096c0.297,0.009,0.593,0.025,0.891,0.036
	c0.288-3.182,0.576-6.357,0.921-10.16c2.873,4.743,5.383,8.893,7.895,13.036C304.375,213.877,304.634,213.772,304.896,213.659z
	 M477.406,369.525c-0.516,7.083-0.809,14.299-1.611,21.463c-1.57,14.027-6.527,26.836-14.628,38.406
	c-6.386,9.121-14.618,16.456-23.153,23.437c-11.402,9.323-20.762,20.173-26.936,33.684c-4.392,9.606-7.212,21.693-6.41,29.219
	c0.181-0.323,0.405-0.618,0.518-0.953c4.771-13.938,11.401-26.895,21.455-37.733c6.492-6.999,13.66-13.387,20.676-19.887
	c8.455-7.837,16.178-16.28,21.516-26.571c5.934-11.432,9.607-23.631,10.684-36.487C480.214,385.716,479.076,377.408,477.406,369.525
	z M394.078,476.399c5.187-8.234,9.702-15.9,14.704-23.234c7.968-11.681,17.966-21.636,27.842-31.67
	c6.104-6.201,11.576-12.851,15.565-20.64c9.592-18.741,14.867-38.354,12.217-59.598c-0.088-0.702-0.341-1.39-0.34-1.386
	c-0.918,7.402-1.4,15.446-2.986,23.27c-3.796,18.692-11.965,35.109-26.328,48.166c-6.668,6.063-13.048,12.457-19.333,18.924
	c-8.49,8.728-14.833,18.736-17.466,30.845C396.888,465.972,395.506,470.792,394.078,476.399z M414.113,321.464
	c5.606-3.313,9.295-7.746,12.395-12.809c6.842-11.181,9.831-23.288,9.053-36.362c-0.385-6.444,0.5-12.647,2.701-18.82
	c1.442-4.054,1.971-8.559,2.182-12.894c0.234-4.821-1.43-8.683-4.03-11.161c3.306,9.888,2.131,18.906-1.439,27.931
	c-1.763,4.459-2.464,9.347-3.591,14.048c-0.628,2.626-0.736,5.448-1.785,7.875c-3.426,7.954-7.826,10.954-15.728,9.014
	c-1.531-0.376-3.157-0.372-5.088-0.585c6.577,4.676,16.297,4.82,21.078-3.061c0.623-1.028,1.59-1.84,2.397-2.749
	c0.344,0.236,0.685,0.477,1.028,0.715C430.125,296.911,424.564,310.063,414.113,321.464z M452.036,246.689
	c1.702-1.779,3.462-3.132,4.595-4.892c5.42-8.419,13.124-13.969,21.921-18.363c8.749-4.369,16.208-10.478,22.394-18.051
	c2.678-3.284,4.771-7.077,7.659-10.135c2.59-2.749,2.898-6.055,3.933-9.226c-1.053,1.585-1.774,3.357-2.836,4.894
	c-8.797,12.729-19.574,23.301-33.549,30.3c-6.137,3.073-12.301,6.096-17.047,11.234c-4.223,4.571-8.365,9.221-12.465,13.905
	c-0.669,0.77-0.928,1.893-1.541,3.198c5.226,0.016,9.859,0.738,14.203-1.434c2.946-1.476,3.217-2.979,0.939-5.764
	C458.143,244.738,456.113,247.324,452.036,246.689z M520.951,392.625c4.057,23.53-3.516,44.875-12.379,65.979
	C525.779,439.023,529.348,413.481,520.951,392.625z M351.819,377.316c0.205,0.276,0.411,0.557,0.618,0.835
	c5.833,0.261,10.182-2.532,13.96-6.761c3.146-3.521,4.243-11.381,1.92-15.486c-1.813-3.211-4.667-3.445-6.903-0.548
	c-2.349,3.037-3.049,6.568-2.382,10.212c0.718,3.932,0.017,6.816-3.912,8.621C353.816,374.791,352.907,376.248,351.819,377.316z
	 M469.409,243.685c1.222-0.497,2.464-0.955,3.66-1.5c6.078-2.781,12.312-4.934,19.024-5.67c10.998-1.206,20.93-5.396,28.59-13.283
	c7.066-7.276,13.098-15.56,19.518-23.45c0.939-1.152,1.509-2.611,2.246-3.927c-3.064,3.071-5.762,6.332-8.656,9.414
	c-4.752,5.051-9.281,10.402-14.537,14.886c-10.162,8.655-21.91,14.258-35.202,16.532
	C478.627,237.61,473.537,239.656,469.409,243.685z M384.357,260.093c0.251-0.058,0.5-0.114,0.75-0.171
	c0.241-1.871,0.462-3.748,0.727-5.611c0.997-7.073,2.982-13.759,9.645-17.532c4.823-2.734,9.888-5.197,15.109-7.034
	c7.127-2.507,14.314-2.988,20.617,3.409c-1.892-4.802-6.604-7.727-12.284-7.884c-8.211-0.221-15.654,2.507-22.406,6.799
	c-9.305,5.908-13.142,14.874-12.824,25.729C383.714,258.569,384.125,259.328,384.357,260.093z M336.349,380.91
	c0.243-0.207,0.486-0.409,0.727-0.612c-1.554-2.115-2.979-4.34-4.699-6.312c-1.553-1.778-2.379-3.622-2.572-6.026
	c-0.476-5.901-2.471-11.316-6.116-16.619c-1.639,6.05-3.321,11.686-0.323,17.184C326.351,373.997,331.222,377.649,336.349,380.91z
	 M494.463,390.477c4.611-10.811,1.65-32.735-4.238-45.228C491.656,360.52,493.111,376.063,494.463,390.477z M405.892,272.646
	c0.09,0.27,0.179,0.544,0.272,0.815c6.119-0.077,12.073-0.575,16.202-6.063c3.994-5.308,6.762-11.203,8.244-17.658
	c0.305-1.323-0.086-2.81-0.158-4.225c-0.301-0.048-0.603-0.099-0.902-0.145c-0.625,0.922-1.463,1.767-1.832,2.778
	c-0.888,2.436-1.664,4.923-2.291,7.434c-1.98,7.941-6.232,13.586-14.72,15.275C409.047,271.193,407.493,272.036,405.892,272.646z
	 M378.602,276.763c-7.976,19.322-15.824,38.34-23.673,57.362c0.257,0.109,0.513,0.222,0.769,0.331
	c1.625-3.726,3.25-7.453,4.876-11.178c4.889-11.193,9.94-22.313,14.579-33.609C376.799,285.66,377.438,281.242,378.602,276.763z
	 M411.151,247.313c5.737-5.833,12.093-6.454,19.251-3.989c-1.643-4.018-3.594-5.297-7.307-5.27
	C418.381,238.096,413.089,241.945,411.151,247.313z M406.824,255.469c0.057,0.443,0.114,0.885,0.17,1.328
	c1.256,0.524,2.469,1.318,3.776,1.528c7.256,1.157,11.842-5.601,12.84-11.164c0.112-0.614-0.719-1.404-1.11-2.115
	c-0.264-0.027-0.528-0.057-0.79-0.084C420.817,254.021,415.741,257.369,406.824,255.469z M409.896,249.193
	c-0.264,1.585-0.569,2.727-0.552,3.865c0.004,0.245,1.193,0.688,1.826,0.663c3.572-0.123,7.083-3.598,7.364-7.219
	C415.203,245.821,414.527,251.972,409.896,249.193z M403.858,286.011c1.094-2.561,2.203-5.148,3.19-7.461
	C404.54,278.645,403.5,280.703,403.858,286.011z M293.775,481.243c0.718,0.415,2.067,0.854,2.051,1.235
	c-0.079,1.825-0.115,3.853-0.92,5.422c-2.825,5.505-2.942,5.457,1.122,10.204c-9.125-0.391-17.017-2.81-21.724-11.023
	c-2.688-4.695-6.036-8.473-10.188-11.995c-21.87-18.569-39.917-40.4-53.797-65.532c-4.731-8.57-9.027-17.431-12.784-26.472
	c-2.923-7.03-7.321-12.66-13.216-17.089c-5.237-3.935-10.937-7.257-16.444-10.833c-0.816-0.527-1.686-0.977-3.039-1.754
	c11.148,2.656,18.561,5.713,28.794,15.419c-5.082-19.592-19.733-29.406-35.708-37.978c0.104-0.257,0.207-0.506,0.31-0.763
	c5.165,1.917,10.563,3.371,15.429,5.863c5.004,2.563,9.487,6.138,14.391,9.401c-1.067-2.362-2.083-4.723-3.19-7.039
	c-3.564-7.452-7.162-14.891-10.747-22.339c-4.873-10.116-11.286-18.824-21.85-23.886c6.472,0.09,12.877,0.458,18.321,4.442
	c1.362,0.999,2.392,2.728,3.068,4.333c2.191,5.216,4.147,10.534,6.199,15.809c0.215,0.554,0.466,1.091,0.925,2.155
	c-0.61-5.32-1.51-10.043-1.618-14.782c-0.236-10.368-0.575-20.779,0.082-31.11c0.608-9.589,2.338-19.115,3.828-28.622
	c0.473-3.011,1.366-5.85,0.629-9c-0.419-1.787-0.753-4.047,1.651-5.434c-2.813-3.871-3.187-8.429-3.327-12.973
	c-0.048-1.528,0.792-3.086,1.583-4.572c-2.26-4.499-3.053-9.708-1.969-14.572c0.734-3.286-0.002-6.051-0.141-9.069
	c-0.14-3.045,0.121-6.125,0.518-9.149c0.114-0.874,1.296-1.602,2.389-2.857c-0.06-0.901-0.205-2.681-0.289-4.461
	c-0.1-2.171,1.048-3.312,3.461-3.537c-2.523-3.982-1.873-8.115-1.151-12.194c0.782-4.432,2.089-4.974,5.916-2.519
	c-1.965-7.917-0.679-15.026,4.231-21.66c0.854,0.698,1.435,1.169,2.346,1.906c-0.527-7.755,2.872-13.878,6.405-19.964
	c1.009-1.739,2.274-2.79,3.695-2.372c2.875-4.915,5.544-9.66,8.424-14.273c0.567-0.905,1.936-1.313,2.969-1.97
	c4.319-4.567,8.723-9.288,13.23-13.904c0.557-0.57,1.687-0.568,2.535-0.876c0.605-0.219,1.24-0.44,1.759-0.807
	c3.146-2.218,6.042-4.919,9.446-6.612c4.644-2.308,9.639-3.94,14.547-5.684c1.66-0.588,3.782-1.147,3.708,2.113
	c9.455-4.446,19.071-5.27,29.717-2.392c-1.343,1.209-2.07,1.863-2.799,2.516c20.978-2.225,38.342,4.897,53.474,19.667
	c-35.214-0.377-52.319,19.702-60.217,50.438c0.375,0.301,0.75,0.598,1.125,0.897c0.564-1.14,1.402-2.225,1.649-3.423
	c1.987-9.668,6.335-18.181,12.64-25.662c10.674-12.654,24.325-19.452,40.928-20.121c6.49-0.26,11.853,1.91,15.53,7.505
	c1.633,2.481,3.332,4.93,4.791,7.513c0.458,0.813,0.63,2.254,0.198,2.95c-0.341,0.552-1.823,0.61-2.771,0.544
	c-13.469-0.971-25.78,2.13-36.418,10.642c-4.361,3.485-8.351,7.437-12.51,11.185c0.326,0.332,0.65,0.658,0.975,0.991
	c2.421-2.158,4.771-4.4,7.273-6.46c12.158-9.986,26.04-15.098,41.863-14.867c2.397,0.035,3.82,0.878,4.465,3.022
	c1.161,3.863,2.632,7.73,1.202,11.851c-0.46,1.326-1.119,2.478-2.925,2.107c-7.638-1.558-14.964,0.345-22.005,2.771
	c-17.516,6.037-31.252,17.294-42.093,32.151c-2.155,2.953-3.699,6.342-5.76,9.948c-0.966-1.426-1.708-2.579-2.517-3.691
	c-3.389-4.644-6.495-9.537-10.279-13.839c-4.678-5.322-10.244-5.824-16.609-2.542c-5.463,2.81-9.382,7.325-13.107,11.944
	c-3.717,4.602-6.937,9.61-10.349,14.458c-0.231,0.328-0.185,0.838-0.352,1.219c-0.887,2.067-1.312,4.668-2.835,6.035
	c-1.797,1.618-2.373,3.334-2.768,5.433c-1.164,6.165-4.23,10.444-10.828,11.848c-6.504,1.392-12.836,3.746-19.652,2.895
	c-1.914-0.242-3.81-0.625-5.713-0.936c-0.104,0.299-0.207,0.6-0.311,0.895c1.387,0.516,2.738,1.348,4.167,1.501
	c5.782,0.638,11.492,0.403,17.029-1.777c2.33-0.913,4.812-1.455,7.251-2.065c2.431-0.604,3.979,0.918,2.718,3.022
	c-1.609,2.693-3.611,5.516-6.153,7.215c-5.813,3.896-12.563,5.192-19.539,5.207c-1.135,0.005-2.27,0-3.526,0.598
	c0.864,0.272,1.711,0.672,2.595,0.803c7.175,1.044,13.715-1.114,20.086-4.078c0.408-0.187,0.778-0.522,1.202-0.604
	c1.305-0.259,2.625-0.424,3.939-0.629c0.011,1.52,0.589,3.381-0.081,4.49c-1.461,2.406-3.265,4.806-5.457,6.537
	c-4.567,3.605-9.879,5.861-15.653,6.909c-0.527,0.096-1.019,0.383-1.528,0.581c0.058,0.322,0.117,0.646,0.175,0.966
	c1.92-0.255,4.008-0.111,5.731-0.839c4.358-1.835,8.542-4.086,12.821-6.116c0.916-0.433,2.332-1.191,2.811-0.843
	c0.763,0.564,1.18,1.906,1.308,2.961c0.359,3.028-1.661,5.061-3.479,7.02c-6.591,7.105-11.516,9.528-23.089,11.636
	c2.509,1.21,4.666,1.248,8.613,0.079c5.399-1.598,9.87-4.674,13.909-8.537c1.176-1.125,2.323-3.489,4.375-2.141
	c2.219,1.456,1.592,3.942,0.588,5.895c-2.642,5.143-6.579,9.251-11.231,12.609c-2.666,1.928-5.591,3.496-8.668,5.388
	c5.667-0.94,9.905-3.893,13.764-7.484c1.851-1.725,3.518-3.64,5.375-5.355c1.853-1.716,3.534-1.347,3.834,1.121
	c0.23,1.881-0.238,4.133-1.134,5.826c-3.353,6.342-8.39,11.222-14.271,15.262c-0.735,0.502-1.435,1.056-2.257,1.662
	c2.576-0.115,5.597-1.514,8.323-4.298c2.897-2.962,5.465-6.244,8.345-9.224c0.934-0.963,2.725-2.258,3.558-1.936
	c1.921,0.742,2.19,3.011,1.304,4.66c-1.983,3.697-3.974,7.5-6.646,10.688c-2.916,3.475-6.604,6.312-9.969,9.44
	c4.861-1.816,8.52-5.271,11.785-9.213c1.437-1.729,2.58-3.728,4.14-5.324c0.781-0.799,2.206-0.966,3.34-1.419
	c0.511,1.314,1.822,3.001,1.409,3.89c-2.412,5.185-5.208,10.193-7.915,15.239c-0.476,0.885-1.149,1.658-1.731,2.482
	c0.24,0.193,0.481,0.387,0.723,0.579c1.171-1.453,2.469-2.82,3.488-4.372c1.968-3.006,3.755-6.135,5.668-9.184
	c0.76-1.218,1.754-2.903,3.303-1.678c1.033,0.813,1.96,2.759,1.738,3.984c-0.709,3.953-1.973,7.806-2.496,11.896
	c1.029-2.483,2.066-4.961,3.078-7.448c0.566-1.396,1.158-2.785,3.048-2.375c1.918,0.418,2.583,1.851,2.501,3.644
	c-0.073,1.574-0.308,3.138-0.546,5.439c0.847-2.021,1.18-3.493,2.01-4.586c0.658-0.863,2.043-1.865,2.89-1.704
	c0.857,0.169,1.789,1.6,2.081,2.645c0.505,1.798,0.536,3.728,1.041,5.64c0.162-1.129,0.318-2.258,0.492-3.387
	c0.271-1.756,0.769-3.846,2.762-3.691c1.07,0.082,2.428,1.909,2.897,3.218c1.659,4.632,3.753,8.957,7.054,12.645
	c0.296,0.331,0.43,0.81,0.64,1.219c0.217-0.186,0.435-0.363,0.654-0.543c-1.068-1.769-2.319-3.453-3.167-5.322
	c-1.324-2.929-2.524-5.936-3.448-9.013c-0.256-0.84,0.655-2.033,1.033-3.064c0.807,0.552,1.892,0.933,2.374,1.697
	c2.454,3.872,5.617,6.942,9.69,9.15c-3.647-4.428-9.052-7.919-8.243-15.102c4.296,2.561,8.06,4.8,11.825,7.039
	c0.166-0.254,0.332-0.513,0.499-0.77c-3.053-2.296-6.801-3.926-8.123-7.888c0.198-0.257,0.395-0.514,0.594-0.77
	c1.655,1.321,3.31,2.645,5.012,4.004c-1.129-1.896-2.562-3.577-3.128-5.515c-0.375-1.288,0.119-3.169,0.88-4.365
	c1.024-1.622,2.433-1.988,4.059-0.044c2.468,2.947,5.888,4.012,9.697,3.48c2,15.735-1.558,26.136-13.417,34.819
	c-7.062,5.176-15.102,7.569-23.604,8.433c-12.663,1.29-24.348-1.591-34.755-9.123c-0.364-0.268-0.769-0.482-1.109-0.773
	c-2.262-1.927-3.741-4.8-6.87-5.688c-0.156-0.044-0.269-0.236-0.401-0.355c-2.46-2.264-2.621-5.92-5.9-8.051
	c-2.674-1.743-4.229-5.517-5.716-8.658c-0.949-2.003-0.399-4.727-1.385-6.69c-0.971-1.941-3.056-3.313-4.591-4.983
	c-0.343-0.372-0.53-0.964-0.615-1.482c-0.407-2.502-1.047-4.718-3.224-6.503c-1.141-0.931-1.408-2.936-2.2-4.758
	c-1.754,18.663-2.704,37.03-0.942,56.238c0.739-5.021,0.842-9.437,2.117-13.478c1.684-5.341,4.196-10.432,6.563-15.534
	c0.535-1.154,1.938-1.902,2.941-2.841c0.277,0.169,0.555,0.338,0.834,0.508c-0.342,1.107-0.625,2.236-1.033,3.317
	c-2.138,5.698-4.817,11.253-6.347,17.108c-2.496,9.556-0.526,24.674,3.65,32.144c0.716-2.604,1.279-4.851,1.949-7.066
	c2.607-8.623,6.425-16.445,14.401-21.469c1.264-0.793,2.56-1.88,4.186,0.011c-6.557,8.357-12.405,17.068-11.463,28.472
	c2.588-4.313,4.715-8.933,7.832-12.746c2.901-3.553,6.782-6.336,10.403-9.243c0.887-0.711,2.44-0.59,3.866-0.454
	c-5.047,6.029-9.27,12.239-11.282,19.684c-0.55,2.032-0.601,4.2-0.608,6.41c2.873-4.972,5.724-9.788,10.97-12.616
	c5.486-2.96,10.94-2.218,16.709-0.136c-19.543,7.916-28.639,24.027-34.283,43.377c-2.065-9.554-0.128-18.525,0.669-27.515
	c-0.252-0.053-0.504-0.108-0.757-0.161c-1.393,5.676-2.948,11.315-4.143,17.029c-1.98,9.478,1.198,18.173,4.64,26.718
	c6.924,17.211,16.992,32.596,28.65,46.854c8.834,10.802,18.528,20.904,27.836,31.313c0.258-0.145,0.516-0.297,0.772-0.445
	c0.227-1.486,0.324-3.009,0.698-4.451c3.326-12.846,11.577-20.758,24.48-23.44c15.166-3.15,28.93,1.012,41.641,9.175
	c8.859,5.69,17.082,12.144,22.19,21.981c0.056-8.851-9.678-23.76-20.336-30.773c-10.638-7.006-21.545-13.518-35.163-12.367
	c-0.03-0.249-0.056-0.498-0.086-0.749c1.785-0.656,3.522-1.52,5.359-1.934c10.825-2.423,20.69,0.412,30.025,5.772
	c11.736,6.746,20.315,16.288,25.391,28.9c0.302,0.753,0.643,1.486,0.98,2.221c0.07,0.156,0.202,0.282,0.761,0.349
	c-0.342-1.432-0.612-2.891-1.039-4.294c-3.021-9.892-8.854-18.083-15.816-25.497c-7.576-8.071-15.664-15.637-26.499-19.069
	c-3.68-1.163-7.794-1.355-11.692-1.257c-1.924,0.05-4.083,1.438-5.656,2.784c-3.905,3.345-7.603,6.943-11.265,10.563
	c-12.644,12.48-35.65,16.473-52.291,3.686c-3.543-2.722-6.438-6.297-9.6-9.506c-0.326-0.336-0.439-0.875-0.911-1.857
	c1.697,1.404,2.901,2.403,4.105,3.4c0.131-0.117,0.264-0.233,0.394-0.351c-1.815-2.352-3.625-4.704-5.448-7.052
	c-6.757-8.707-10.674-18.465-11.165-29.567c-0.79-17.932,9.405-30.813,23.797-34.215c18.548-4.388,42.335,7.461,40.732,34.853
	c-0.737,12.572-8.519,22.575-19.367,25.709c-4.028,1.164-7.998,1.126-11.944-0.278c-5.649-2.009-8.708-8.425-6.721-14.063
	c1.158-3.274,4.35-5.346,7.539-4.888c2.533,0.366,4.252,2.408,3.768,4.641c-0.135,0.619-0.612,1.438-1.127,1.622
	c-0.396,0.145-1.099-0.563-1.662-0.898c-0.846-0.498-2.103-1.618-2.456-1.38c-1.012,0.671-2.101,1.794-2.354,2.923
	c-0.708,3.154,1.84,5.795,5.57,6.146c9.06,0.853,17.895-6.64,18.803-16.047c0.768-7.954-2.226-14.321-8.623-18.989
	c-5.307-3.874-11.827-3.559-16.626,0.907c-5.424,5.049-10.786,10.354-13.101,17.602c-2.796,8.751-0.285,20.44,9.854,26.957
	c17.35,11.154,45.42,6.413,50.042-22.057c1.238-7.631-0.56-15.171-2.861-22.596c-2.706-8.734-4.813-17.654-7.13-26.504
	c-0.191-0.731-0.025-1.553-0.025-2.481c11.883,19.887,21.748,40.311,22.127,64.038c9.241-1.463,16.924,1.712,24.479,5.429
	c3.305,1.624,6.615,3.245,9.888,4.932c12.017,6.192,21.039,15.347,26.881,27.553c1.374,2.868,2.451,5.88,3.979,9.587
	c0.463-8.335-0.248-15.781-2.223-23.146c3.572,4.425,4.749,9.714,5.871,15.065c2.259,10.771-0.348,21.142-2.461,31.541
	c-2.308,11.366-5.133,22.643-6.916,34.085c-0.971,6.234-0.776,12.783-0.163,19.098c0.847,8.723,6.671,14.503,13.419,19.401
	c1.237,0.898,2.53,1.723,3.793,2.59c0.066,0.044,0.085,0.157,0.226,0.441c-4.846-1.085-9.093-3.134-12.828-6.103
	c-7.077-5.641-12.863-12.375-14.251-21.604c-0.868-5.766-0.517-11.71-0.851-17.563c-0.263-4.664-0.168-9.451-1.231-13.943
	c-2.449-10.344-16.238-17.832-26.358-14.777c-5.953,1.798-10.557,8.644-10.195,15.051c0.384,6.805,2.863,12.171,9.556,15.008
	c2.567,1.081,2.669,1.894,1.711,6.248c-4.086-2.019-7.952-4.348-12.11-5.882c-5.186-1.913-6.876-5.095-6.307-10.541
	c0.59-5.627,0.049-11.395,2.149-16.81c2.383-6.154,6.154-11.094,12.918-12.739c4.696-1.146,9.32-0.178,13.769,1.475
	c2.355,0.875,4.605,2.025,7.244,2.75c-2.89-2.937-5.656-6.01-8.696-8.779c-7.77-7.068-16.396-12.649-26.979-14.535
	c-11.365-2.021-24.516,1.292-30.649,11.724c-0.529,0.895-1,1.824-1.469,2.688c3.265-1.298,6.294-3.008,9.539-3.7
	c10.27-2.194,19.221,4.326,19.812,14.885c0.344,6.142-0.762,12.365-1.269,18.549c-0.055,0.667-0.469,1.305-0.718,1.961
	c-0.26,0.071-0.523,0.142-0.785,0.209c-1.232-3.171-2.484-6.341-3.689-9.528c-0.802-2.126-1.482-4.371-4.12-4.881
	c-1.179-0.229-2.529-0.366-2.131,1.619c-1.054-0.11-2.102-0.215-3.153-0.325c0.237-1.075,0.118-2.587,0.789-3.137
	c1.208-0.999,2.84-1.651,4.394-1.987c0.888-0.192,1.972,0.53,3.827,1.109c-0.872-2.374-1.236-4.335-2.237-5.887
	c-2.09-3.226-6.262-4.434-10.35-3.38c-3.644,0.94-7.093,4.609-7.549,8.029c-0.523,3.937,1.547,7.927,5.139,9.898
	C289.187,488.091,292.799,486.342,293.775,481.243z M298.223,86.492c-12.409,2.642-27.6,24.559-23.548,34.346
	C277.771,105.931,285.51,94.87,298.223,86.492z M242.435,164.569c-5.574-0.822-10.812-2.509-14.97-6.383
	c-4.094-3.811-7.983-7.85-11.708-11.535C214.818,154.842,231.298,166.509,242.435,164.569z M250.923,156.96
	c-5.612-1.309-10.976-3.067-15.118-7.193c-4.016-3.993-7.835-8.19-11.455-11.995C224.895,146.762,240.79,158.72,250.923,156.96z
	 M232.856,179.27c-11.966-0.443-23.022-3.099-32.004-12.869C205.285,176.312,220.637,182.259,232.856,179.27z M261.678,147.45
	c-8.5-6.711-13.277-15.727-15.983-26.403C243.262,129.135,253.341,145.625,261.678,147.45z M262.056,116.084
	c-0.224-0.019-0.448-0.044-0.672-0.066c-0.179,0.276-0.511,0.546-0.519,0.83c-0.257,9.068,0.978,17.796,6.113,25.568
	c0.421,0.636,1.241,1.008,1.874,1.505c0.202-0.152,0.403-0.307,0.606-0.455C263.905,135.166,262.676,125.705,262.056,116.084z
	 M205.992,152.678c0.422,6.65,14.351,19.049,23.946,17.299C219.55,166.938,211.946,161.088,205.992,152.678z M233.857,129.194
	c1.137,7.146,4.798,12.824,10.153,17.44c3.075,2.654,4.271,2.952,6.923,2.866c-2.884-2.569-6.632-5.239-9.508-8.648
	C238.461,137.336,236.346,133.109,233.857,129.194z M198.654,192.397c5.954,6.079,21.103,5.782,28.578-0.148
	C217.951,195.431,208.622,196.118,198.654,192.397z M200.1,181.447c3.81,3.735,11.776,5.786,18.389,5.105
	C212.683,184.945,206.595,183.252,200.1,181.447z M462.613,115.231c-3.791-16.155-12.213-29.413-24.666-40.047
	c-3.553-3.029-7.516-5.584-11.332-8.291c-3.009-2.133-3.258-4.583-0.084-6.246c5.717-2.996,11.643-5.603,17.528-8.276
	c2.411-1.092,4.767-0.559,6.903,0.907c13.17,9.037,22.209,20.936,25.432,36.841c0.439,2.169,0.825,4.35,1.236,6.525
	c0.36-0.043,0.721-0.079,1.083-0.119c-0.232-2.276-0.248-4.599-0.729-6.822c-2.486-11.478-5.867-22.652-12.627-32.442
	c-3.061-4.437-7.064-7.91-12.078-10.155c-0.934-0.417-1.586-1.473-2.367-2.233c0.824-0.614,1.563-1.438,2.482-1.806
	c8.095-3.232,16.115-6.644,24.864-7.925c3.882-0.567,6.853,0.191,9.22,3.438c6.641,9.112,11.088,19.192,12.65,30.33
	c0.899,6.396,0.88,12.924,1.258,19.394c0.055,0.947,0.007,1.902,0.007,2.848c0.296,0.042,0.589,0.084,0.886,0.125
	c0.363-1.829,0.938-3.646,1.054-5.491c0.826-12.959,0.106-25.771-3.878-38.247c-1.422-4.462-3.746-8.333-7.055-11.682
	c-0.906-0.916-2.005-3.176-1.688-3.491c1.085-1.087,2.707-2.051,4.216-2.212c5.106-0.554,10.251-0.931,15.376-0.928
	c1.333,0.002,3.381,1.35,3.871,2.571c1.93,4.808,3.639,9.741,4.923,14.758c1.87,7.299,2.26,14.775,1.435,22.291
	c-0.063,0.573,0.146,1.175,0.229,1.767c0.27,0.079,0.542,0.161,0.812,0.24c0.385-0.926,1.074-1.848,1.102-2.782
	c0.148-4.868,0.367-9.752,0.109-14.606c-0.379-7.188-0.992-14.361-3.51-21.241c-0.943-2.571-0.059-3.508,2.789-3.248
	c4.391,0.401,8.762,1.045,13.139,1.591c3.309,0.413,4.859,2.429,5.721,5.566c4.078,14.843,1.131,28.903-4.616,42.632
	c-3.708,8.867-9.052,16.768-14.963,24.31c-0.739,0.943-1.126,2.17-1.677,3.262c0.307,0.202,0.613,0.409,0.918,0.605
	c3.18-3.691,6.573-7.223,9.495-11.108c6.865-9.129,12.542-18.939,15.272-30.151c2.025-8.326,2.27-16.776,0.793-25.242
	c-0.566-3.246,0.808-4.873,3.929-4.091c5.305,1.329,10.517,3.022,15.8,4.452c7.008,1.893,8.887,7.246,9.172,13.573
	c0.459,10.25-2.697,19.705-6.768,28.896c-5.133,11.602-13.417,20.607-23.499,28.087c-0.349,0.256-0.665,0.557-1.448,1.223
	c5.326-1.271,9.201-3.875,12.846-7.029c11.504-9.945,18.686-22.329,20.802-37.403c0.733-5.241,0.521-10.622,0.708-15.938
	c0.122-3.515,1.217-4.538,4.282-2.945c5.007,2.599,9.989,5.405,14.444,8.827c1.617,1.244,2.265,4.472,2.373,6.837
	c0.688,14.819-4.731,27.749-13.651,39.133c-4.172,5.327-9.659,9.623-14.742,14.575c0.831-0.305,1.711-0.471,2.422-0.911
	c15.429-9.566,25.306-23.057,28.577-41.045c0.559-3.059,0.12-6.292,0.295-9.435c0.055-0.996,0.353-2.234,1.016-2.839
	c0.365-0.33,1.912,0.183,2.601,0.729c6.424,5.093,11.564,11.08,13.327,19.404c0.922,4.336,0.063,8.418-1.527,12.396
	c-3.855,9.647-10.137,17.583-17.541,24.72c-5.244,5.053-11.139,9.09-18.155,11.399c0.077,0.24,0.153,0.48,0.231,0.722
	c1.742-0.286,3.584-0.304,5.217-0.896c17.755-6.448,29.332-18.729,34.498-36.948c0.465-1.633,0.531-3.377,0.907-5.043
	c0.643-2.851,2.581-3.583,4.62-1.536c5.201,5.232,9.154,11.361,11.893,18.189c0.571,1.422,0.367,3.477-0.18,4.983
	c-6.41,17.6-18.223,29.952-36.021,36.207c-6.226,2.188-12.662,3.588-19.347,2.795c-1.031-0.123-2.094-0.552-2.996-1.087
	c-3.199-1.902-3.683-4.265-1.453-7.588c-3.224,1.362-5.703,0.237-8.204-1.491c-11.353-7.837-23.916-12.848-37.461-15.243
	c-15.083-2.662-29.574-0.044-43.65,5.552c-8.731,3.471-16.528,8.401-23.239,14.987c-1.509,1.481-2.748,3.231-4.178,4.793
	c-0.968,1.056-1.973,2.12-3.108,2.973c-1.456,1.1-2.911,0.953-3.868-0.742c-8.009-14.194-20.773-23.541-33.504-32.927
	c-7.178-5.296-14.376-10.569-21.489-15.944c-1.42-1.07-2.567-2.534-3.729-3.913c-2.351-2.787-2.452-4.702-0.546-7.814
	c0.328-0.537,0.701-1.052,1.084-1.551c4.516-5.872,5.951-5.653,11.77-1.246c7.233,5.48,14.811,10.575,22.604,15.23
	c11.066,6.608,20.509,14.671,26.603,26.224c0.374,0.708,0.485,1.56,0.72,2.341c0.44-0.414,0.883-0.817,1.324-1.231
	c-2.011-6.373-5.53-11.924-9.752-17.068c-6.48-7.888-15.256-12.838-23.557-18.426c-6.121-4.12-12.139-8.422-17.935-12.981
	c-3.099-2.436-3.001-4.422-0.163-7.246c2.224-2.211,4.764-4.116,7.245-6.056c2.518-1.963,5.29-1.898,7.779-0.11
	c14.982,10.74,29.335,22.083,36.677,39.875C460.833,112.372,461.8,113.769,462.613,115.231z M507.443,81.735
	c6.08-4.193-1.549-37.296-9.639-42.919C504.651,52.457,508.249,66.469,507.443,81.735z M463.883,51.543
	c2.841,4.321,6.121,8.598,8.61,13.296c2.474,4.67,4.154,9.762,6.357,15.087C478.027,68.572,470.405,54.461,463.883,51.543z
	 M522.836,35.131c1.305,6.875,2.61,13.753,3.914,20.629c0.302-0.063,0.603-0.124,0.904-0.185
	C527.514,48.46,526.653,41.492,522.836,35.131z M357.029,174.687c1.654,6.381,5.927,11.08,10.661,15.277
	c11.542,10.229,24.626,16.804,40.542,16.258c7.972-0.278,14.542-3.11,18.887-10.111c1.893-3.048,1.075-5.25-2.383-6.035
	c-2.975-0.672-5.988-1.27-9.017-1.596c-16.126-1.716-29.332-8.735-39.342-21.542c-3.155-4.033-6.107-8.23-9.064-12.413
	c-2.091-2.962-3.91-3.366-5.644-0.722c-3.02,4.607-5.649,9.443-5.395,15.286C356.516,170.959,356.561,172.879,357.029,174.687z
	 M447.41,146.102c-6.986-7.461-15.34-13.113-23.974-18.358c-10.919-6.642-21.291-13.897-29.631-23.727
	c-0.462-0.546-1.056-0.983-1.617-1.433c-1.499-1.2-3.149-1.043-3.89,0.568c-1.784,3.88-3.39,7.867-4.673,11.931
	c-0.351,1.121,0.379,2.91,1.159,3.995c2.625,3.656,5.137,7.498,8.333,10.607c11.105,10.795,24.041,18.848,38.473,24.491
	c5.768,2.254,11.71,4.163,16.082,8.995c0.739,0.822,2.597,1.667,3.27,1.293c1.482-0.817,2.538-2.408,3.504-3.414
	C453.002,155.016,451.199,150.145,447.41,146.102z M300.576,187.16c5.671-5.385,10.927-11.321,17.114-16.037
	c10.576-8.049,22.681-13.543,34.973-18.501c6.945-2.795,10.775-7.85,11.782-15.134c0.688-4.969-1.594-7.527-6.591-6.961
	c-4.361,0.489-8.754,1.229-12.959,2.456c-16.021,4.675-28.867,14.166-39.134,27.122c-3.446,4.345-6.378,9.161-9.037,14.04
	c-1.915,3.51-2.562,7.52-0.713,11.435c0.841,1.781,2.106,2.991,4.299,1.902C300.395,187.372,300.487,187.264,300.576,187.16z
	 M628.645,148.401c6.818-5.755,12.751-12.222,16.569-20.418c1.637-3.506,2.06-7.07,0.304-10.628
	c-0.477-0.966-1.393-2.239-2.234-2.339c-0.757-0.099-1.84,1.097-2.51,1.936c-0.766,0.972-1.204,2.201-1.842,3.284
	c-5.129,8.711-11.35,16.485-19.551,22.521c-8.912,6.558-18.983,10.139-29.896,11.456c-3.367,0.405-4.684,2.106-3.043,4.448
	c3.584,5.128,8.146,8.883,14.657,9.625c19.696,2.242,38.738-7.547,48.552-24.944c2.453-4.352,1.857-8.891,0.742-13.383
	c-0.539-2.159-2.161-2.358-3.468-0.573c-1.063,1.442-1.974,3.013-2.912,4.55c-4.378,7.153-10.149,12.837-17.883,16.475
	C626.969,149.741,627.826,149.091,628.645,148.401z M299.322,192.828c0.96,3.499,2.304,7.001,4.135,10.122
	c2.941,5.009,5.631,5.621,10.818,2.908c10.45-5.459,20.191-11.87,27.788-21.129c6.215-7.58,11.487-15.699,14.425-25.111
	c0.409-1.313,0.076-3.321-0.733-4.373c-0.492-0.646-2.737-0.502-3.878,0.002c-5.008,2.225-9.965,4.585-14.822,7.125
	c-10.393,5.433-20.484,11.359-29.45,19.019c-2.306,1.965-4.687,3.852-7.03,5.77c-0.089,0.104-0.181,0.212-0.269,0.322
	C299.934,189.28,298.89,191.254,299.322,192.828z M445.477,168.395c-2.058-4.173-5.079-7.45-9.395-9.295
	c-3.289-1.412-6.672-2.617-10.059-3.789c-13.717-4.744-25.722-12.096-35.028-23.378c-3.143-3.809-5.721-8.084-8.684-12.052
	c-1.515-2.028-3.066-2.038-4.253,0.103c-2.65,4.764-4.183,9.539-1.111,14.993c4.309,7.652,9.8,14.29,16.237,20.104
	c5.394,4.871,10.965,9.633,18.118,11.962c9.713,3.159,20.175,3.667,29.432,8.515c2.291,1.208,5.727-1.541,5.764-4.539
	C446.257,170.387,445.947,169.354,445.477,168.395z M368.228,153.075c3.977,6.372,8.543,12.288,14.369,17.113
	c7.56,6.25,15.82,11.486,25.458,13.596c7.803,1.706,15.847,2.323,23.791,3.35c2.714,0.351,6.247-2.584,7-5.722
	c0.733-3.042-1.417-4.351-3.643-5.141c-3.959-1.396-7.98-2.753-12.084-3.577c-16.238-3.248-30.088-10.256-39.55-24.397
	c-3.049-4.558-5.918-9.236-8.896-13.842c-1.546-2.393-3.533-2.61-4.45-0.265c-1.691,4.318-2.95,8.807-4.439,13.37
	C366.646,149.545,367.213,151.447,368.228,153.075z M559.402,264.584c2.359,0,4.788,0.357,7.067-0.065
	c7.108-1.338,10.954-6.938,10.772-15.199c-0.193-8.778-5.656-16.135-14.177-19.087c-10.178-3.534-17.667-1.776-23.739,5.941
	c-3.053,3.885-5.596,8.159-8.497,12.165c-0.587,0.815-1.755,1.199-2.655,1.785c-0.516-0.977-1.459-1.957-1.451-2.927
	c0.015-1.834,0.505-3.688,0.938-5.498c0.22-0.918,0.739-1.765,1.124-2.646c-1.424,0.691-2.621,1.558-3.099,2.72
	c-1.492,3.616-3.14,7.258-3.946,11.055c-1.761,8.278,6.887,16.218,15.094,14.104c2.188-0.566,3.621-1.727,3.938-4.412
	c0.457-3.896,1.181-7.85,2.474-11.536c2.312-6.584,8.702-10.103,14.725-8.307c5.035,1.501,7.584,5.572,9.172,10.251
	c2.275,6.696-0.733,10.796-7.713,10.695C559.422,263.941,559.411,264.264,559.402,264.584z M318.39,69.018
	c6.904,3.112,13.219,1.651,19.954-1.328c20.343-9.005,41.741-13.995,64.007-14.875c9.378-0.373,18.771-0.333,28.157-0.538
	c1.127-0.024,2.294-0.297,3.361-0.684c2.182-0.794,4.354-1.649,6.438-2.669c0.904-0.445,1.579-1.361,2.357-2.062
	c-0.916-0.709-1.77-1.91-2.764-2.042c-4.288-0.563-8.609-0.997-12.932-1.138c-13.723-0.456-27.378,0.111-41.033,1.946
	c-18.305,2.465-35.955,7.089-52.927,14.295c-5.838,2.481-11.533,5.299-17.815,8.201C316.727,68.545,317.608,68.668,318.39,69.018z
	 M661.856,166.741c-0.275-1.152-0.919-2.607-1.839-3.079c-0.578-0.304-2.16,0.756-2.949,1.544c-2.538,2.538-4.611,5.624-7.407,7.802
	c-8.718,6.784-18.415,11.18-29.786,11.075c-6.133-0.06-11.925-1.465-17.605-3.618c-2.412-0.913-3.928,0.268-3.338,2.81
	c0.323,1.388,1.294,2.768,2.314,3.821c10.59,10.885,29.175,14.614,42.756,7.779c9.711-4.888,18.159-11.432,17.922-24.206
	C661.924,169.434,662.162,168.03,661.856,166.741z M656.196,145.784c-0.2-0.938-1.338-2.17-2.202-2.313
	c-0.709-0.115-1.848,1.054-2.445,1.896c-1.033,1.459-1.65,3.206-2.688,4.666c-11.18,15.624-30.988,22.31-49.16,19.665
	c-2.036-0.297-4.22-0.569-4.781,1.563c-0.288,1.087,1.135,3.136,2.324,4.026c7.559,5.656,16.379,7.35,25.531,6.875
	c9.852-0.512,18.52-4.584,25.85-11.019c4.522-3.964,9.541-8.034,9.154-15.254C657.28,152.513,656.913,149.114,656.196,145.784z
	 M637.543,214.134c8.461-1.243,14.873-6.006,20.57-12.014c4.584-4.835,5.135-10.899,5.304-17.079
	c0.013-0.548-0.607-1.453-1.103-1.587c-0.63-0.18-1.511,0.126-2.136,0.479c-0.505,0.287-0.776,0.971-1.183,1.447
	c-6.976,8.291-15.714,13.341-26.59,14.479c-9.393,0.979-18.037-1.188-26.134-5.958c-0.917-0.535-2.265-0.343-3.415-0.482
	c-0.117,1.265-0.377,2.542-0.295,3.796c0.049,0.751,0.525,1.547,0.994,2.185c7.225,9.823,16.752,15.259,29.146,15.229
	C634.315,214.467,635.939,214.364,637.543,214.134z M656.117,221.802c1.93-1.833,3.263-4.503,4.277-7.026
	c0.957-2.374,1.313-5.046,1.572-7.621c0.125-1.252-0.568-2.586-0.891-3.885c-1.074,0.604-2.379,0.989-3.188,1.853
	c-12.578,13.358-33.94,16.956-49.654,2.729c-0.885-0.801-2.313-0.997-3.486-1.477c-0.333,1.235-1.012,2.488-0.932,3.692
	c0.266,4.072,2.762,7.146,5.186,10.148c5.698,7.05,12.608,12,21.107,12.203C640.831,232.096,649.168,228.401,656.117,221.802z
	 M264.161,264.874c-5.588-3.814-5.647-9.595-3.016-15.105c2.172-4.545,7.058-7.189,11.448-6.528
	c5.541,0.832,8.475,3.675,9.273,9.595c0.405,3.015,0.437,6.136,0.171,9.165c-0.304,3.514,1.334,6.074,3.438,8.42
	c2,2.232,5.515,2.831,8.534,1.518c-0.662-4.923-1.353-9.985-2.02-15.049c-1.543-11.68-7.615-19.812-18.856-23.7
	c-10.009-3.464-18.992,0.968-21.577,10.56c-1.538,5.707-0.842,11.244,1.951,16.471c2.592,4.848,6.184,6.652,12.206,5.962
	C264.98,265.563,264.602,265.173,264.161,264.874z M437.588,511.875c3.951-5.516,5.795-10.129,5.344-12.675
	c-5.648,2.746-12.015,8.433-17.906,15.4c-3.474,4.107-6.063,8.464-6.438,13.939c-0.387,5.627-0.443,11.228,2.661,16.245
	c4.573,7.392,17.853,13.546,26.952,12.413c-0.72-0.328-1.188-0.513-1.634-0.747c-4.757-2.522-9.689-4.768-14.213-7.654
	c-4.18-2.668-7.154-6.564-8.287-11.588c-0.966-4.271,0.055-5.582,4.313-5.625c2.169-0.016,4.338,0.008,6.503-0.074
	c1.304-0.05,2.597-0.265,3.971-0.413c0-2.868,0-5.366,0-8.023c-3.347,0.171-6.563,0.335-10.209,0.524
	C431.837,519.428,434.824,515.733,437.588,511.875z M479.871,513.586c1.524-0.072,3.105,0.086,4.564-0.268
	c3.656-0.881,7.315-1.816,10.859-3.063c3.373-1.181,6.646-2.673,9.877-4.212c6.884-3.282,11.883-8.571,15.719-15.078
	c1.416-2.404,1.279-4.649-0.473-6.728c-1.731-2.057-3.629-0.731-5.398,0.007c-7.575,3.158-12.986,8.865-17.951,15.149
	c-1.823,2.308-3.758,4.651-6.063,6.435c-3.435,2.652-7.24,4.827-10.889,7.204C480.035,513.219,479.954,513.398,479.871,513.586z
	 M325.46,481.19c-0.468,0.616-0.721,0.803-0.764,1.035c-0.1,0.526-0.088,1.074-0.143,1.613c-0.897,8.707,2.323,16.06,7.585,22.69
	c0.602,0.759,1.696,1.288,2.666,1.567c2.754,0.805,5.548,1.477,8.35,2.095c2.194,0.491,4.422,0.82,6.633,1.225
	c0.218-0.344,0.435-0.684,0.651-1.021c-2.063-2.396-3.977-4.938-6.221-7.144c-3.093-3.041-6.436-5.823-9.245-8.335
	c0.337,1.086,0.932,3.011,1.529,4.934C331.035,494.771,327.539,488.553,325.46,481.19z M373.417,81.123
	c7.519-1.338,14.917,0.366,22.245,3.182c-7.781-13.517-35.158-12.215-44.306,2.352C359.058,84.682,366.152,82.417,373.417,81.123z
	 M340.123,78.603c0.985-0.262,2.063-0.346,2.937-0.819c4.585-2.47,9.229-4.854,13.639-7.616c5.227-3.271,10.673-5.567,16.93-5.561
	c4.635,0.009,9.271,0.002,13.908,0.002c-1.063-1.05-2.236-1.602-3.465-1.974c-7.849-2.387-15.624-1.309-23.495,0.188
	c-4.978,0.945-8.903,3.094-12.016,7.007c-2.473,3.103-5.058,6.119-7.593,9.178C340.686,78.872,340.404,78.738,340.123,78.603z
	 M525.752,274.729c2.889,0.909,6.195,0.74,9.299,0.63c1.713-0.06,3.501-0.808,5.068-1.61c1.822-0.935,2.392-2.849,1.65-4.62
	c-0.213-0.51-2.271-0.577-3.373-0.338c-7.126,1.573-12.84-0.608-16.896-6.632c-0.643-0.957-1.236-1.946-1.906-3.001
	C516.363,266.513,518.564,272.458,525.752,274.729z M472.658,501.642c5.257-0.558,10.559-0.849,15.749-1.765
	c3.521-0.62,6.772-2.207,9.237-5.15c3.007-3.586,6.253-6.974,9.405-10.438c0.614-0.673,1.272-1.311,1.914-1.961
	c-1.77,0.082-3.222,0.54-4.476,1.317c-5.877,3.644-11.717,7.346-17.535,11.082c-4.399,2.828-8.838,5.527-14.212,6.075
	C472.714,501.084,472.686,501.363,472.658,501.642z M534.662,283.201c2.963-1.214,5.965-2.431,8.681-4.093
	c0.828-0.502,0.775-2.45,1.124-3.744c-1.117-0.031-2.417-0.451-3.322-0.031c-6.546,3.054-12.952,3.424-19.337-0.391
	c-0.479-0.282-1.468-0.478-1.704-0.229c-0.402,0.427-0.641,1.299-0.501,1.877c0.22,0.922,0.657,1.88,1.264,2.599
	c2.681,3.187,6.329,4.269,10.424,4.51C532.357,283.555,533.611,283.63,534.662,283.201z M373.309,68.028
	c-9.995-2.145-17.119,2.837-23.614,9.393C359.124,78.35,366.518,74.082,373.309,68.028z M368.336,523.55
	c0.093,0.667,0.882,1.624,1.509,1.765c3.262,0.733,6.571,1.243,10.117,1.875c-0.458-2.628-0.736-4.85-1.286-7.001
	c-0.174-0.678-0.983-1.51-1.661-1.695c-2.821-0.776-5.702-1.334-9.185-2.111C368,519.133,368.025,521.361,368.336,523.55z
	 M349.864,521.763c0.625-5.931,0.622-5.919-4.529-7.026c-4.423-0.955-8.836-1.95-13.26-2.929c-0.404,1.05-0.688,1.781-1.079,2.799
	C337.295,516.996,343.526,519.362,349.864,521.763z"/>
</svg>
