<?xml version="1.0" encoding="UTF-8" standalone="no" ?>
<!DOCTYPE svg PUBLIC "-//W3C//DTD SVG 1.1//EN" "http://www.w3.org/Graphics/SVG/1.1/DTD/svg11.dtd">
<svg xmlns="http://www.w3.org/2000/svg" xmlns:xlink="http://www.w3.org/1999/xlink" version="1.1" width="1080" height="1080" viewBox="0 0 1080 1080" xml:space="preserve">
<desc>Created with Fabric.js 5.2.4</desc>
<defs>
</defs>
<g transform="matrix(1 0 0 1 540 540)" id="d2f12396-ed68-4963-a5cb-388fe7bb49f6"  >
<rect style="stroke: none; stroke-width: 1; stroke-dasharray: none; stroke-linecap: butt; stroke-dashoffset: 0; stroke-linejoin: miter; stroke-miterlimit: 4; fill: rgb(255,255,255); fill-rule: nonzero; opacity: 1; visibility: hidden;" vector-effect="non-scaling-stroke"  x="-540" y="-540" rx="0" ry="0" width="1080" height="1080" />
</g>
<g transform="matrix(1 0 0 1 540 540)" id="8851e132-4a25-49d5-9e6c-19f3554d39ad"  >
</g>
<g transform="matrix(1 0 0 1 540 540)"  >
<rect style="stroke: none; stroke-width: 1; stroke-dasharray: none; stroke-linecap: butt; stroke-dashoffset: 0; stroke-linejoin: miter; stroke-miterlimit: 4; fill: rgb(255,255,255); fill-rule: nonzero; opacity: 1; visibility: hidden;" vector-effect="non-scaling-stroke"  x="-540" y="-540" rx="0" ry="0" width="1080" height="1080" />
</g>
<g transform="matrix(2.18 0 0 2.18 540.66 539.3)"  >
<path style="stroke: rgb(0,0,0); stroke-width: 0; stroke-dasharray: none; stroke-linecap: butt; stroke-dashoffset: 0; stroke-linejoin: miter; stroke-miterlimit: 4; fill: rgb(0,0,0); fill-rule: nonzero; opacity: 1;" vector-effect="non-scaling-stroke"  transform=" translate(-350, -280)" d="M 146.48 70 L 146.48 133.797 C 146.48 133.90637999999998 146.534687 133.99622 146.5425 134.10559 C 146.550312 134.203246 146.503437 134.297 146.515156 134.39465 L 189.046156 490.59465 C 189.346936 493.13375 191.499256 495.03995 194.05005599999998 495.03995 L 505.95005599999996 495.03995 L 505.95396199999993 495.03995 C 506.14927199999994 495.03995 506.3484919999999 495.02823099999995 506.55162199999995 495.000887 C 506.73912199999995 494.97745 506.8836519999999 494.87197699999996 507.063342 494.83291699999995 C 507.43443199999996 494.74697899999995 507.789902 494.64541699999995 508.125842 494.48135699999995 C 508.37193199999996 494.36026699999996 508.59068199999996 494.2196369999999 508.80943199999996 494.0633869999999 C 509.09849199999996 493.8602669999999 509.35631199999995 493.64150699999993 509.59849199999996 493.3836969999999 C 509.78599199999996 493.1805769999999 509.95005199999997 492.9735369999999 510.102402 492.7430769999999 C 510.289902 492.4579169999999 510.438342 492.16104699999994 510.56724199999996 491.8368269999999 C 510.67662199999995 491.5633869999999 510.766462 491.2977669999999 510.82505199999997 491.00479699999994 C 510.85630199999997 490.86026699999996 510.93833199999995 490.7391769999999 510.953962 490.59073699999993 L 553.484962 134.39073699999994 C 553.496681 134.29308099999994 553.453712 134.19932699999995 553.457618 134.10167699999994 C 553.4654310000001 133.99230699999993 553.520118 133.90245699999994 553.520118 133.79308699999993 L 553.520118 70.00008699999992 C 553.520118 67.21488699999992 551.266218 64.95708699999992 548.4810180000001 64.95708699999992 L 151.52101800000008 64.95708699999992 C 148.73981800000007 64.95708699999992 146.4819180000001 67.21488699999992 146.4819180000001 70.00008699999992 z M 157.195 138.84 L 225.019 138.84 L 237.882 246.56 L 177.98000000000002 312.896 z M 409.065 289.15999999999997 L 398.409 199.91799999999995 L 453.561 138.84399999999994 L 458.93989999999997 138.84399999999994 L 468.96689999999995 222.82099999999994 z M 470.557 236.10899999999998 L 481.213 325.351 L 421.307 391.687 L 410.651 302.445 z M 396.82300000000004 186.63199999999998 L 391.11600000000004 138.84299999999996 L 439.975 138.84299999999996 z M 400.10030000000006 299.092 L 340.1983000000001 365.428 L 329.54230000000007 276.186 L 389.44430000000006 209.84999999999997 z M 327.9553000000001 262.90099999999995 L 317.2993000000001 173.65899999999993 L 348.7333000000001 138.84999999999994 L 380.9673000000001 138.84999999999994 L 387.8579000000001 196.56499999999994 z M 315.71330000000006 160.37099999999995 L 313.1430000000001 138.84799999999996 L 335.1470000000001 138.84799999999996 z M 318.9906000000001 272.83099999999996 L 259.0886000000001 339.17099999999994 L 248.4326000000001 249.92899999999992 L 308.3346000000001 183.5889999999999 z M 246.8456000000001 236.63999999999996 L 235.16960000000012 138.85099999999994 L 302.99360000000013 138.85099999999994 L 306.7475000000001 170.29999999999995 z M 190.2206000000001 415.43999999999994 L 179.5646000000001 326.1979999999999 L 239.46660000000008 259.85799999999995 L 250.1226000000001 349.09999999999997 z M 198.5214000000001 484.97099999999995 L 191.80660000000012 428.72499999999997 L 251.7086000000001 362.385 L 262.3646000000001 451.627 L 232.2556000000001 484.971 z M 245.8414000000001 484.97099999999995 L 263.9504000000001 464.91599999999994 L 266.3449000000001 484.97099999999995 z M 260.67340000000013 352.46099999999996 L 320.57940000000013 286.12499999999994 L 331.23540000000014 375.36699999999996 L 271.32940000000013 441.703 z M 337.0834000000001 484.97099999999995 L 276.4974000000001 484.97099999999995 L 272.9154000000001 454.99099999999993 L 332.8174000000001 388.65099999999995 L 343.4734000000001 477.893 z M 341.7826000000001 378.72099999999995 L 401.6846000000001 312.381 L 412.3406000000001 401.623 L 352.4386000000001 467.959 z M 354.4706000000001 484.97099999999995 L 354.0252900000001 481.25219999999996 L 413.9272900000001 414.9122 L 422.29059000000007 484.97119999999995 z M 432.4436000000001 484.97099999999995 L 422.89280000000014 404.98699999999997 L 482.7948000000001 338.64699999999993 L 500.26780000000014 484.9669999999999 z M 505.94760000000014 447.50999999999993 L 491.7636000000001 328.7199999999999 L 524.4546000000001 292.51699999999994 z M 526.0606000000001 279.0799999999999 C 524.4629000000001 278.8612499999999 522.7989000000001 279.3182799999999 521.6348000000002 280.5994999999999 L 490.17780000000016 315.43949999999995 L 479.52180000000016 226.19749999999993 L 540.4278000000002 158.74449999999993 z M 542.2946000000002 143.09999999999994 C 541.3258500000002 143.32655999999994 540.3962000000001 143.74452999999994 539.6774000000001 144.53359999999995 L 477.93540000000013 212.91259999999994 L 469.09160000000014 138.86159999999995 L 542.8026000000001 138.86159999999995 z M 156.55460000000016 75.06499999999994 L 543.4346000000002 75.06499999999994 L 543.4346000000002 128.77999999999994 L 156.55460000000016 128.77999999999994 z" stroke-linecap="round" />
</g>
</svg>