<svg xmlns="http://www.w3.org/2000/svg" version="1.1" viewBox="-5.0 -10.0 110.0 135.0">
 <g>
  <path d="m36.469 62.098c-4.5312 0-8.4453-0.14844-11.168-0.38281-8.2305-0.71094-12.938-2.5039-14.402-5.4766-0.44922-0.91406-0.50391-1.7617-0.41406-2.4375-0.95312-0.70312-1.7148-1.6953-2.0938-3.0742-1.418-5.1758 11.387-9.8906 17.117-11.723 15.734-8.1562 51.391 3.1055 54.141 5.3438 2.7344 2.2266 3.3359 6.2539 3.3633 6.4219 0.015625 0.125 0.019531 0.25391 0.007812 0.37891-0.87891 8.6055-28.551 10.949-46.547 10.949zm-22.586-6.9492c0.64844 0.84375 3.0469 2.707 11.684 3.4531 18.84 1.6211 53.027-1.582 54.312-7.5898-0.13672-0.69141-0.69922-3.0156-2.207-4.2422-2.8594-2.0391-36.848-12.336-50.828-4.9375-0.082031 0.042969-0.16797 0.078125-0.25781 0.10938-8.6016 2.7344-15.535 6.6602-15.18 7.957 0.22656 0.82031 0.78516 1.3516 1.4727 1.6953 0.078125 0.027344 0.15625 0.0625 0.23047 0.10547 1.7539 0.73828 4.1562 0.39062 4.1914 0.38281 0.85156-0.125 1.6484 0.45312 1.7812 1.3047 0.13281 0.85156-0.44922 1.6484-1.2969 1.7812-1.082 0.17578-2.4922 0.22266-3.8984-0.015625z"/>
  <path d="m62.859 66.336c-0.81641 0-1.543-0.28906-2.0078-0.53125-4.4492-0.027344-6.2461-3.8477-6.5742-5.9375-0.13281-0.85156 0.44922-1.6523 1.3008-1.7852 0.84766-0.125 1.6445 0.44531 1.7852 1.293 0.0625 0.36328 0.70312 3.4375 3.8086 3.3008 0.34375-0.015625 0.68359 0.074219 0.96875 0.26953 0.21484 0.14063 0.54297 0.30469 0.72656 0.26563 0-0.019532 0.0625-0.12109 0.125-0.34766 0.98828-3.3984 4.0742-2.8672 5.2305-2.6719 0.007813 0 0.015625 0.003906 0.027344 0.003906 0.097656-0.63672 0.125-1.6953 0.054688-2.5977-0.066407-0.85938 0.57812-1.6094 1.4375-1.6797 0.84375-0.066407 1.6094 0.57422 1.6797 1.4375 0.11719 1.5 0.15234 4.1875-0.93359 5.3594-0.70312 0.75781-1.8047 0.71875-2.7891 0.55469-1.5039-0.25391-1.5273-0.14453-1.7031 0.46094-0.44922 1.5469-1.3711 2.168-2.0664 2.4219-0.36328 0.12891-0.72656 0.17969-1.0703 0.17969z"/>
  <path d="m25.434 61.723c-0.50391 0-0.99609-0.24219-1.3008-0.69141-0.48047-0.71484-0.28906-1.6875 0.42578-2.168 0.066406-0.046875 6.6992-4.5664 7.4453-10.023 0.67188-4.9609-5.4336-7.3711-5.4961-7.3945-0.80469-0.30859-1.207-1.2148-0.89844-2.0195 0.30859-0.80469 1.2148-1.1992 2.0195-0.89844 0.34766 0.13281 8.4766 3.3477 7.4727 10.734-0.93359 6.8633-8.4805 11.984-8.8008 12.199-0.26562 0.17969-0.57031 0.26562-0.86719 0.26562z"/>
  <path d="m37.977 55.734c-2.8008 0-5.4688-0.52344-6.418-0.73047-0.84375-0.18359-1.375-1.0156-1.1914-1.8594 0.18359-0.84375 1.0156-1.3828 1.8594-1.1914 4.1094 0.89453 10.109 1.0547 10.695-0.97656 0.10938-0.38672 0.25-1.0625-0.058594-1.2734-0.75-0.50391-3.1992-0.1875-5.0586 1.2695-0.67969 0.53516-1.6602 0.41406-2.1953-0.26172-0.53516-0.67969-0.41406-1.6602 0.26172-2.1953 2.4023-1.8867 6.4219-2.9609 8.7305-1.4062 0.67578 0.45312 2.1562 1.8242 1.3203 4.7305-0.89453 3.1094-4.5156 3.8945-7.9453 3.8945z"/>
  <path d="m81.461 52.555c-0.11328 0-0.23047-0.011719-0.34375-0.039063-0.21875-0.050781-21.777-4.8398-32.074-0.98047-0.80859 0.30078-1.7109-0.10547-2.0117-0.91406-0.30469-0.80859 0.10547-1.707 0.91406-2.0117 11.172-4.1836 32.938 0.65234 33.859 0.85938 0.84375 0.19141 1.3711 1.0273 1.1797 1.8672-0.16406 0.72656-0.80859 1.2188-1.5234 1.2188z"/>
  <path d="m42.953 69.812c-1.6016 0-3.2656-0.62891-4.7266-1.8203-3.207-2.6133-5.8008-6.5273-5.9102-6.6953-0.47266-0.71875-0.27344-1.6875 0.44531-2.1641 0.72266-0.47266 1.6875-0.27344 2.1641 0.44531 0.023438 0.035156 2.4492 3.6875 5.2734 5.9883 1.1289 0.92188 2.375 1.293 3.4102 1.0391 0.75-0.1875 1.3281-0.68359 1.6328-1.3984 0.082031-0.1875 0.12891-0.33203 0.15625-0.43359-0.17188-0.0625-0.39453-0.13281-0.56641-0.18359-0.36328-0.10938-0.75-0.23047-1.125-0.38672-1.1016-0.45312-1.5938-1.207-1.8164-1.7578-0.49609-1.2422-0.023437-2.4219 0.078125-2.6445 0.35156-0.78906 1.2695-1.1445 2.0625-0.78906 0.77734 0.34766 1.1328 1.2539 0.80078 2.0352-0.027343 0.078125-0.046875 0.20312-0.039062 0.25 0.38281 0.13672 0.67188 0.22266 0.94531 0.30469 0.90625 0.27344 2.0352 0.61719 2.5742 1.7656 0.51562 1.1016 0.13672 2.2734-0.19531 3.0547-0.68359 1.6211-2.0547 2.793-3.7578 3.2148-0.46094 0.11328-0.93359 0.17188-1.4141 0.17188z"/>
  <path d="m85.848 62.898c-0.33984 0-0.71094-0.042969-1.125-0.14844-6.1016-1.5586-6.7305-8.5195-6.7539-8.8125-0.070312-0.85938 0.57422-1.6133 1.4336-1.6836 0.87891-0.058594 1.6133 0.57422 1.6836 1.4336 0.015624 0.19922 0.48437 5.0312 4.4141 6.0352 0.3125 0.078125 0.4375 0.046875 0.44141 0.046875 0.625-0.62109 0.11328-4.707-1.0664-8.2383-0.16406-0.48438-0.078125-1.0195 0.23047-1.4297 2.5859-3.4688 4.0391-7.1992 3.3672-7.707-0.91406-0.69141-5.207 1.4297-8.8242 4.3789-0.66797 0.54687-1.6523 0.44531-2.1992-0.22266-0.54297-0.66797-0.44531-1.6523 0.22266-2.1992 2.0977-1.7109 9.207-7.0781 12.684-4.4492 3.4023 2.5664-0.38281 8.7461-2.2695 11.414 0.80469 2.6211 2.2188 8.3359 0.11328 10.602-0.37891 0.40625-1.1289 0.98438-2.3477 0.98438z"/>
  <path d="m72.316 44.648c-0.17578 0-0.35156-0.027344-0.52734-0.089844-0.8125-0.29297-1.2344-1.1875-0.94531-1.9961 0.36719-1.0273 1.1172-2.9102 2.1406-4.3867-3.6875-1.4336-7.6562-2.418-8.9219-1.8008-2.7109 1.332-4.7031 4.0352-4.7227 4.0586-0.50781 0.69922-1.4844 0.84766-2.1836 0.34375-0.69922-0.50781-0.85156-1.4805-0.34766-2.1797 0.097656-0.13672 2.4531-3.3516 5.875-5.0312 3.5977-1.7656 12.066 1.9023 13.727 2.6523 0.58984 0.26953 0.95703 0.875 0.91406 1.5195-0.042969 0.64844-0.47656 1.2031-1.0977 1.3945-0.52344 0.28125-1.7109 2.4219-2.4453 4.4727-0.23047 0.63672-0.82812 1.0352-1.4727 1.0352z"/>
  <path d="m51.785 40.039c-0.33984 0-0.68359-0.11328-0.97266-0.33984-0.67578-0.53906-0.78516-1.5195-0.25-2.1953l2.0312-2.5508c-0.23047-0.14844-0.44531-0.3125-0.63281-0.50391-1.0234 0.12891-2.2422-0.058594-3.3711-1-2.0352 0.44141-3.9844 1.0391-4.4023 1.3594-0.39453 0.48047-0.95703 0.59766-1.5586 0.42578-0.55078-0.15625-5.4727-1.3867-6.8711 3.2695-0.24609 0.82812-1.1172 1.293-1.9453 1.0469-0.82812-0.25-1.2969-1.1211-1.0469-1.9453 1.7031-5.6719 6.8945-6.1719 9.9727-5.5586 1.1602-0.66016 3.1875-1.2734 6.0508-1.832 0.55469-0.10938 1.125 0.09375 1.4922 0.52344 0.83203 0.98828 1.6641 0.52734 1.7539 0.46875 0.57031-0.34766 1.3086-0.29297 1.8203 0.14062 0.32031 0.27344 0.51172 0.64844 0.55078 1.0469 0.26953 0.13672 0.69922 0.29297 1.0586 0.37891 0.52344 0.12109 0.94531 0.50391 1.1211 1.0117 0.17578 0.50781 0.082031 1.0664-0.25 1.4844l-3.332 4.1797c-0.30859 0.38672-0.76562 0.58984-1.2227 0.58984z"/>
  <path d="m21.422 48.727c0 1.8477-2.7734 1.8477-2.7734 0 0-1.8477 2.7734-1.8477 2.7734 0"/>
 </g>
</svg>