<svg xmlns="http://www.w3.org/2000/svg" version="1.1" viewBox="-5.0 -10.0 110.0 135.0">
 <g>
  <path d="m86.977 18.191c0.078126 0.046875 0.17188 0.085938 0.27344 0.12891 0.74219 0.3125 1.4766 0.66797 2.168 1.0742 0.32422 0.19141 0.63672 0.41016 0.93359 0.64062 0.14453 0.11719 0.29297 0.23438 0.42969 0.36328 0.10156 0.089843 0.29688 0.36328 0.4375 0.375 0.24219 0.027343 0.46484-1.0586 0.51953-1.2695 0.37109-1.5117 0.89453-4.8281-0.99609-5.6406-0.26953-0.11719-0.45703-0.10938-0.72656 0.003907-0.24609 0.10547-0.47266 0.25-0.6875 0.41406-0.92969 0.71484-1.6406 1.75-2.1953 2.7695-0.11328 0.20703-0.22656 0.42188-0.31641 0.63672-0.11328 0.26953-0.023437 0.40234 0.14844 0.5z"/>
  <path d="m29.383 72.188c0.27734-0.54297 0.54688-1.0898 0.78906-1.6484 0.61328-1.4023 1.1641-2.832 1.6523-4.2812 0.23047-0.69141 0.44922-1.3789 0.65234-2.0781 0.10938-0.36719 0.20703-0.73047 0.30859-1.1016 0.22656-0.83984 0.41406-1.293-0.62891-1.2891-0.51562 0-1.0352-0.007812-1.5547-0.03125-0.87891-0.039062-1.7578-0.11719-2.6289-0.25-0.92969-0.14453-1.8516-0.35547-2.75-0.62891-0.33984-0.10547-0.6875-0.26953-1.0312-0.11719-0.37891 0.16406-0.60156 0.67578-0.83984 0.99219-1.043 1.375-2.3086 2.5547-3.6445 3.6406-0.32422 0.26562-0.65625 0.52344-0.98828 0.77734-0.3125 0.24219-0.51953 0.48438-0.45312 0.90234 0.070313 0.44141 0.27344 0.89062 0.39453 1.3203 0.12891 0.46094 0.24219 0.93359 0.34375 1.4023 0.19922 0.94141 0.34375 1.8906 0.4375 2.8477 0.097656 0.95703 0.19141 1.875 0.089844 2.8047-0.10547 0.92969-0.37891 1.8438-0.32812 2.7656 0.042969 0.78516 0.25391 1.5742 0.57422 2.293 0.61328 1.375 1.582 2.332 3.0195 2.793 1.4375 0.46094 2.9023 0.49609 4.3555 0.49609 0.83594 0 1.6758-0.027344 2.5117-0.039063 0.21875 0 1.4531 0.14844 1.4648-0.14844 0.011719-0.30078-0.69922-0.69141-0.89453-0.82422-0.17188-0.12109-0.98438-0.48047-0.99219-0.71484 0.46094-0.20703 1.2539 0.33594 1.5898 0.60938 0.29297 0.23437 0.5 0.54297 0.78125 0.78906s0.57031 0.28516 0.92188 0.27734c0.18359 0 0.69531 0.023437 0.73828-0.23047 0.035156-0.19141-0.25-0.41406-0.37109-0.51953-0.21484-0.19531-0.44141-0.375-0.67969-0.54688-0.16406-0.12109-0.58594-0.32031-0.60547-0.53125 0.34766-0.050781 0.83594 0.20312 1.1328 0.36719 0.49219 0.26172 0.79297 0.75 1.2617 1.043 0.38672 0.24219 0.44531-0.089844 0.40625-0.42578-0.074219-0.55469-0.30469-1.1055-0.55469-1.5977-0.48047-0.9375-1.1836-1.9297-2.25-2.2109-0.94141-0.25-1.9336-0.058594-2.8906-0.20703-1.8633-0.29297-1.3633-2.3984-0.85547-3.6094 0.44141-1.0547 0.98828-2.0664 1.5117-3.0859z"/>
  <path d="m12.574 86.777c0.023437-0.023438 0.019531-0.054688-0.007813-0.10938-0.17188-0.35156-0.49219-0.62891-0.79297-0.86328-0.12109-0.09375-0.24219-0.1875-0.34766-0.30078-0.03125-0.03125-0.13281-0.13672-0.10156-0.18359 0.027343-0.042968 0.1875-0.019531 0.23047-0.015624 0.39844 0.027343 0.71484 0.28906 0.98828 0.55859 0.26953 0.26953 0.52344 0.57812 0.84766 0.79297s0.70312 0.23047 1.0742 0.18359c0.14844-0.019532 0.33594-0.058594 0.36719-0.23438 0.027344-0.14062-0.058593-0.28516-0.125-0.40234-0.19141-0.32812-0.45312-0.60547-0.65625-0.92969-0.03125-0.050782-0.24219-0.39453-0.16016-0.45703 0.042969-0.035156 0.16797 0.035156 0.20312 0.050782 0.089844 0.039062 0.16406 0.089843 0.24219 0.14453 0.31641 0.24219 0.54687 0.58203 0.78125 0.90234 0.10156 0.13672 0.19531 0.27734 0.30469 0.41016 0.097656 0.11719 0.23828 0.26562 0.39844 0.28516 0.23828 0.027344 0.30859-0.32031 0.33203-0.49219 0.054687-0.40625-0.042969-0.81641-0.16406-1.2031-0.125-0.38672-0.28516-0.73828-0.49219-1.0781-0.37109-0.60938-0.87891-1.1328-1.4805-1.5195-0.33594-0.21094-0.69922-0.38281-1.0742-0.5-0.39844-0.12891-0.8125-0.17969-1.2266-0.21875-0.65234-0.0625-1.3672-0.14062-1.8477-0.64453-0.5-0.53125-0.72266-1.2969-0.78125-2.0117-0.12891-1.6055 0.48828-3.1719 1.375-4.4844 0.42969-0.64062 0.91797-1.2383 1.4141-1.8281 0.55078-0.66016 1.1172-1.3047 1.6953-1.9453 2.3281-2.5742 4.8438-4.9727 7.0547-7.6445 0.27734-0.33594 0.55078-0.67578 0.83594-1.0039 0.26562-0.30859 0.54687-0.61719 0.75391-0.97266 0.17188-0.29297 0.39453-0.75 0.14453-1.0586-0.10547-0.12891-0.25-0.22656-0.38281-0.32422-0.17578-0.12891-0.35547-0.25-0.52734-0.38281-1.2773-0.96484-2.2617-2.2734-2.9688-3.6992-0.35938-0.71875-0.65625-1.4805-0.85156-2.2617-0.10156-0.39453-0.17188-0.78906-0.21094-1.1914-0.019531-0.19922-0.03125-0.40234-0.03125-0.60156 0-0.089844 0-0.17969 0.003906-0.26953 0-0.0625-0.015625-0.17578 0.019531-0.23047 0.042969 0.046875 0.054688 0.13281 0.074219 0.1875 0.019531 0.070312 0.042969 0.13672 0.066406 0.20312 0.058594 0.1875 0.10938 0.37891 0.16016 0.56641 0.09375 0.34375 0.19922 0.68359 0.33203 1.0078 0.26172 0.65625 0.58594 1.2891 0.96875 1.8828 0.69922 1.0859 1.6016 2.0352 2.6406 2.8008 2.2773 1.6797 5.0977 2.4609 7.8633 2.8672 1.4844 0.21484 2.9844 0.32422 4.4805 0.375 0.36719 0.011718 0.73438 0.023437 1.1016 0.027344 0.36719 0.003906 0.74219-0.003907 1.1172 0.011718 0.25391 0.011719 0.55078 0.082032 0.79297-0.027344 0.28516-0.125 0.27344-0.42969 0.23828-0.69141-0.19531-1.4883-0.27344-3-0.16406-4.4961 0.10938-1.5 0.375-2.875 0.77344-4.2656 0.40234-1.3906 0.93359-2.7148 1.5742-3.9922 0.32031-0.64062 0.66797-1.2656 1.0352-1.875 0.37109-0.61328 0.70312-1.2266 1.1094-1.7969 0.097656-0.13672 0.19922-0.26953 0.30859-0.39453 0.050782-0.058594 0.10156-0.11328 0.15234-0.16406 0.039063-0.042969 0.09375-0.125 0.15234-0.13672 0.007812 0.085938-0.058594 0.1875-0.09375 0.26172-0.042969 0.097657-0.085938 0.19531-0.13281 0.29297-0.10938 0.22656-0.22656 0.44531-0.34766 0.66797-0.23438 0.42578-0.46875 0.84766-0.67578 1.2852-0.41406 0.88672-0.76953 1.8008-1.0742 2.7266-0.60547 1.8359-1.0039 3.7344-1.2188 5.6523-0.44922 3.9883-0.13281 8.0352 0.625 11.965 0.75391 3.9297 1.918 7.6641 3.2969 11.359 0.67188 1.7969 1.3711 3.5859 2.293 5.2734 0.42578 0.78125 0.88672 1.5625 1.4609 2.2422 0.57422 0.68359 1.2969 1.2539 2.1523 1.5781 0.90234 0.34375 1.875 0.52344 2.8242 0.66016 0.94922 0.13672 1.9141 0.20703 2.875 0.24219 0.49219 0.015625 0.99219 0.023437 1.4844 0.019531 0.24219 0 0.48438 0 0.72656 0.007813 0.16016 0.007812 0.32813 0.027343 0.48828 0.003906 0.14062-0.019532 0.27344-0.085938 0.30469-0.23047 0.046875-0.21484-0.125-0.44141-0.25391-0.59766-0.28125-0.33984-0.63281-0.64844-1.0195-0.85547-0.19141-0.10547-0.39844-0.1875-0.60156-0.27344-0.10156-0.042968-0.19531-0.082031-0.29688-0.12891-0.070312-0.03125-0.19922-0.066406-0.24609-0.12891 0.066407-0.046875 0.23828-0.019531 0.3125-0.015625 0.14453 0.007813 0.29297 0.035156 0.43359 0.070313 0.29297 0.070312 0.57422 0.18359 0.83984 0.32422s0.50391 0.28125 0.72656 0.45703c0.20313 0.16016 0.38672 0.34766 0.57031 0.53125 0.36719 0.36719 0.76562 0.71875 1.3008 0.78906 0.22266 0.027344 0.53125 0.035156 0.71875-0.11328 0.21484-0.16797 0.050782-0.45703-0.066406-0.63672-0.17969-0.26953-0.41406-0.50391-0.64844-0.72656-0.12109-0.11719-0.24609-0.23047-0.37109-0.34375-0.125-0.11328-0.26953-0.22266-0.375-0.34766 0.0625-0.070312 0.33594 0.027344 0.41406 0.054688 0.19141 0.070312 0.375 0.17578 0.53906 0.29688 0.32031 0.23438 0.60156 0.52344 0.87891 0.80859 0.27734 0.28516 0.54297 0.63672 0.89844 0.82031 0.30859 0.15625 0.64844 0.050781 0.70703-0.30859 0.0625-0.38672-0.16016-0.8125-0.33203-1.1445-0.19922-0.39062-0.4375-0.76172-0.67969-1.1289-0.42188-0.63672-0.93359-1.2031-1.5547-1.6484-0.65234-0.46875-1.3984-0.80078-2.1602-1.043-0.41406-0.13281-0.83203-0.23437-1.2539-0.32812-0.39844-0.089844-0.80469-0.16797-1.1758-0.34766-0.37109-0.17578-0.62109-0.42969-0.82031-0.76562-0.20703-0.35547-0.37109-0.74219-0.52344-1.125-0.32422-0.80469-0.5625-1.6445-0.73438-2.4961-0.34766-1.707-0.42578-3.4648-0.34375-5.1992 0.082031-1.7344 0.30859-3.582 0.64844-5.3398 0.33984-1.7617 0.79297-3.4062 1.4766-5.0156 0.33984-0.80078 0.73438-1.5742 1.1914-2.3125 0.45312-0.73828 0.94531-1.418 1.4258-2.1211 0.95312-1.3867 1.8594-2.8086 2.4609-4.3906 0.31641-0.81641 0.5625-1.6602 0.76953-2.5117 0.20703-0.85156 0.39453-1.7539 0.5-2.6484 0.027344-0.20703 0.050781-0.42188 0.089844-0.62891 0.015625-0.085938 0.03125-0.16797 0.050781-0.25781 0.015625-0.074219 0.019531-0.1875 0.070313-0.24609 0.039062 0.03125 0.042968 0.10156 0.050781 0.14453 0.015625 0.074219 0.035156 0.14844 0.050781 0.22266 0.035156 0.17578 0.058594 0.35938 0.074219 0.53516 0.027343 0.33984 0.03125 0.67969 0.027343 1.0117-0.003906 0.71875-0.019531 1.4375-0.089843 2.1523-0.13672 1.3711-0.42969 2.7305-0.89062 4.0352-0.10938 0.30469-0.21484 0.61328-0.36719 0.90234-0.074218 0.14453-0.15234 0.28125-0.21094 0.42969-0.027344 0.066407-0.13281 0.30859-0.039063 0.36328 0.10156 0.058594 0.29688-0.035156 0.38672-0.078124 0.15625-0.074219 0.30469-0.17188 0.45312-0.25781 0.29297-0.16797 0.58594-0.33594 0.875-0.50781 1.1367-0.6875 2.207-1.4805 3.2266-2.3281 0.59766-0.49609 1.1875-1.0039 1.7344-1.5586 0.26953-0.27344 0.53125-0.55078 0.80078-0.82031 0.13281-0.12891 0.26172-0.25391 0.39844-0.375 0.0625-0.054687 0.12891-0.10938 0.1875-0.16016 0.054688-0.046875 0.12891-0.14062 0.19922-0.14844 0.019531 0.054687-0.050781 0.16016-0.074219 0.21094-0.035156 0.078125-0.078125 0.14844-0.125 0.22266-0.12109 0.19141-0.26172 0.36719-0.40234 0.54297-0.27734 0.34766-0.53516 0.71094-0.80469 1.0625-0.53906 0.70312-1.1094 1.3789-1.707 2.0352-1.1562 1.2773-2.4219 2.4844-3.8672 3.4336-0.16016 0.10938-0.33203 0.20312-0.5 0.29297-0.15234 0.082031-0.31641 0.16016-0.44531 0.27734-0.12109 0.10938-0.21875 0.25391-0.16797 0.42188 0.054687 0.1875 0.23047 0.33594 0.36719 0.46875 0.61328 0.62891 1.2031 1.2812 1.7617 1.9492 1.0898 1.3047 2.0977 2.6914 2.9336 4.1758 0.83594 1.4883 1.4961 3.1133 2.0312 4.75 0.53516 1.6367 1 3.4297 1.375 5.1758 0.19141 0.88672 0.36719 1.7734 0.53125 2.668 0.16406 0.89453 0.31641 1.7461 0.54688 2.5977 0.21484 0.79688 0.49609 1.5859 0.9375 2.293 0.41016 0.65625 0.95703 1.1953 1.6211 1.582 1.418 0.82812 3.1211 0.99219 4.7266 1.0391 0.90625 0.03125 1.8164 0.039063 2.7227 0.050782 0.21094 0 0.42188 0 0.63281-0.007813 0.125-0.003906 0.33594 0.023437 0.42578-0.082031 0.097656-0.10938-0.027344-0.27344-0.089844-0.36719-0.11328-0.16406-0.24609-0.3125-0.39844-0.44531-0.15625-0.14453-0.33203-0.27344-0.5-0.40234-0.074219-0.054688-0.14453-0.11328-0.21484-0.16797-0.042969-0.035156-0.14453-0.089843-0.16016-0.14453 0.074219-0.027344 0.21094 0.03125 0.28516 0.050781 0.13281 0.035157 0.25781 0.078125 0.38281 0.13281 0.24219 0.10547 0.46875 0.23828 0.6875 0.39062 0.21484 0.14844 0.41016 0.30469 0.60156 0.46875 0.17578 0.14844 0.35547 0.30078 0.5625 0.40625 0.23047 0.11719 0.48438 0.14844 0.73828 0.16406 0.18359 0.011719 0.38672 0.03125 0.56641-0.003906 0.19922-0.042969 0.32422-0.19141 0.25781-0.40234-0.066406-0.21875-0.25781-0.39844-0.42578-0.54688-0.21484-0.19531-0.44922-0.37109-0.6875-0.53516-0.12109-0.085938-0.23828-0.16797-0.36328-0.25391-0.125-0.085938-0.29297-0.17578-0.39453-0.29297 0.019532-0.070313 0.27344-0.039063 0.32422-0.03125 0.14062 0.019531 0.27734 0.066406 0.41016 0.11719 0.27734 0.10938 0.54297 0.25781 0.80078 0.41406 0.25781 0.15234 0.49609 0.32422 0.71875 0.51172 0.22266 0.1875 0.38672 0.42578 0.61328 0.59766 0.17578 0.13672 0.45312 0.21875 0.57422-0.027344 0.12109-0.24609 0.066406-0.56641 0.011719-0.82031-0.12109-0.55859-0.38281-1.0664-0.71875-1.5234-0.33984-0.45312-0.76563-0.87891-1.293-1.1523-0.52734-0.27344-1.1211-0.44141-1.6914-0.64453-1.0703-0.37891-2.0195-0.99609-2.7422-1.875-1.5352-1.8633-1.8594-4.3945-1.8047-6.7305 0.03125-1.2969 0.17578-2.5898 0.35156-3.875 0.17188-1.2891 0.37109-2.582 0.5625-3.8672 0.38672-2.5664 0.76172-5.1367 0.90625-7.7305s0.027344-5.1914-0.30078-7.7617c-0.082031-0.62891-0.19531-1.2539-0.29688-1.875-0.046875-0.28125-0.10547-0.59375-0.046875-0.875 0.046875-0.23047 0.16406-0.4375 0.32422-0.61719 0.16797-0.19531 0.37891-0.35156 0.58594-0.50781 0.25-0.1875 0.50391-0.36719 0.76172-0.53906 0.50781-0.33984 1.0312-0.65234 1.5742-0.93359 2.1992-1.1562 4.6367-1.8906 7.1016-2.1875 1.2695-0.15234 2.5508-0.18359 3.8242-0.082031 0.62109 0.050781 1.2617 0.10938 1.8672 0.25391 0.29688 0.070313 0.59375 0.17188 0.90234 0.16797 0.29297-0.007813 0.57031-0.10938 0.83594-0.21094 1.1055-0.43359 2.1133-1.0586 2.8984-1.9609 0.375-0.42969 0.68359-0.91406 0.92969-1.4297 0.13672-0.28125 0.25391-0.56641 0.39844-0.84375 0.13672-0.26172 0.29688-0.50391 0.42578-0.77344 0.80078-1.707-0.94141-3.1016-2.5625-2.6523-0.54297 0.14844-1.0586 0.46875-1.3945 0.92969-0.33594 0.45703-0.51172 1.0938-0.41797 1.6797 0.097656 0.58594 0.41016 1.0938 0.82812 1.4766 0.22656 0.20312 0.49609 0.35156 0.76172 0.49219 0.12109 0.066406 0.24219 0.13672 0.35938 0.20703 0.050781 0.03125 0.082031 0.046874 0.042969 0.097656-0.039063 0.046875-0.125 0.066406-0.17578 0.082031-0.31641 0.09375-0.65234 0.089844-0.97656 0.13281-0.32422 0.042968-0.65625 0.10156-0.98828 0.14453-0.67578 0.09375-1.375 0.14453-2.0469 0s-1.2891-0.48828-1.8477-0.89453c-0.29688-0.21484-0.57422-0.44922-0.85156-0.68359-0.14453-0.12109-0.29297-0.22656-0.42969-0.35156-0.089844-0.082031-0.26953-0.21094-0.27734-0.33984 0.058594-0.054688 0.27734 0.0625 0.33594 0.085937 0.15625 0.066406 0.3125 0.14453 0.46875 0.21875 0.13281 0.0625 0.26562 0.125 0.40625 0.17578 0.11328 0.042969 0.30469 0.11328 0.40234 0.003906 0.125-0.13281-0.042969-0.39062-0.10156-0.51172-0.14844-0.3125-0.27734-0.63281-0.39062-0.96094-0.21094-0.62891-0.30859-1.3164-0.046876-1.9453 0.13281-0.31641 0.33984-0.59375 0.53516-0.86719 0.19531-0.27344 0.375-0.54688 0.51562-0.84766 0.29297-0.62109 0.46094-1.3047 0.53125-1.9844 0.039062-0.36328 0.054687-0.73047 0.027344-1.0938-0.011719-0.16016-0.039063-0.32031-0.046876-0.48047-0.003906-0.074218-0.042968-0.37891 0.042969-0.42969 0.0625-0.035157 0.16406 0.082031 0.19922 0.11719 0.097656 0.097656 0.17188 0.21094 0.24219 0.32812 0.17578 0.29297 0.37109 0.56641 0.58984 0.83203 0.43359 0.53516 0.92578 1.0273 1.4375 1.4922 0.58203 0.52344 1.2031 1 1.8516 1.4375 0.32422 0.22266 0.65234 0.4375 0.96875 0.66797 0.15234 0.11328 0.30469 0.21875 0.46094 0.32422 0.078125 0.050781 0.15625 0.097656 0.23828 0.14453 0.050782 0.027343 0.14453 0.097656 0.19922 0.078125 0-0.074219-0.10938-0.16406-0.15234-0.21484-0.070313-0.078125-0.14453-0.14453-0.22656-0.20703-0.16406-0.14062-0.34766-0.26172-0.51562-0.39844-0.35938-0.28125-0.69922-0.58594-1.0273-0.89062-0.55078-0.50781-1.1367-1.0625-1.3711-1.7969-0.28125-0.87891-0.011718-1.8281-0.097656-2.7227-0.085937-0.89844-0.42969-1.6719-0.88672-2.3945-0.89063-1.4023-2.1641-2.5195-3.4961-3.5-1.3984-1.0273-2.9336-1.8594-4.5312-2.5234-0.85156-0.35547-1.7227-0.66406-2.6016-0.9375-0.87891-0.27344-1.7656-0.49219-2.6562-0.71094-0.44141-0.10938-0.87109-0.27734-1.3203-0.34766-0.3125-0.050781-0.67969-0.023437-0.73828 0.35938-0.066407 0.41797 0.19922 0.82422 0.23828 1.2344 0.007812 0.085938 0.007812 0.17578-0.011719 0.25781-0.011719 0.046875-0.046875 0.17578-0.10547 0.1875-0.0625 0.011719-0.11328-0.125-0.13672-0.16797-0.046874-0.089844-0.082031-0.18359-0.11719-0.27734-0.078125-0.21875-0.14453-0.4375-0.23047-0.65625-0.089844-0.21484-0.18359-0.4375-0.28125-0.66016-0.17188-0.39453-0.35938-0.77734-0.55859-1.1562-0.39844-0.73828-0.85937-1.4609-1.4648-2.0547-0.58203-0.56641-1.3516-1.0469-2.1992-1.0117-0.76562 0.03125-1.4375 0.56641-1.875 1.1602-0.83984 1.1367-1.0508 2.6875-0.94531 4.0664 0.11328 1.4492 0.65625 2.9609 1.7969 3.9141 0.15234 0.13281 0.32031 0.24219 0.48438 0.35938 0.085937 0.0625 0.17187 0.125 0.25391 0.1875 0.058594 0.046875 0.17188 0.10938 0.20312 0.17969-0.039063 0.042968-0.19141 0-0.23828-0.015626-0.12109-0.03125-0.23047-0.078124-0.34375-0.13281-0.23828-0.11328-0.47266-0.23047-0.69922-0.36719-0.42969-0.26172-0.85156-0.60937-1.1602-1.0078-0.30859-0.40234-0.44141-0.91406-0.83203-1.2305-0.20703-0.16797-0.4375-0.13672-0.67578-0.046875-0.23438 0.089844-0.46094 0.19922-0.67969 0.32812-0.44922 0.26562-0.88281 0.57031-1.3086 0.875-0.42969 0.30469-0.85156 0.63672-1.2461 0.99219-0.77734 0.69922-1.4844 1.4727-2.1211 2.2969-0.36719 0.46875-0.73047 0.96094-1.0234 1.4805-0.14844 0.26953-0.28516 0.55078-0.43359 0.81641-0.066406 0.11328-0.13281 0.22266-0.20312 0.33203-0.046875 0.070312-0.15625 0.26953-0.24219 0.28906-0.027344-0.082031 0.023437-0.21094 0.039062-0.28906 0.019531-0.089844 0.039062-0.17969 0.0625-0.26953 0.054688-0.19531 0.12109-0.39453 0.19141-0.58203 0.14844-0.39453 0.33203-0.77344 0.51562-1.1523 0.36328-0.73438 0.75781-1.4531 1.2305-2.1289 0.90234-1.3008 2.0352-2.4414 3.3555-3.3203 0.32031-0.21094 0.65234-0.41016 0.99609-0.58984 0.28516-0.14844 0.62891-0.22656 0.89063-0.42188 0.13672-0.10156 0.24609-0.24219 0.21875-0.42578-0.027344-0.17969-0.15625-0.28906-0.31641-0.34375-0.36719-0.13281-0.79297-0.027344-1.1719-0.035156-0.86719-0.011719-1.7422-0.17969-2.5898-0.36328-0.84766-0.17969-1.6992-0.40234-2.5469-0.60547-1.6836-0.41016-3.3828-0.69531-5.1133-0.78906-1.7305-0.097656-3.5391-0.035156-5.2852 0.21875s-3.4375 0.70312-5.1289 1.1719c-0.82422 0.22656-1.6445 0.46484-2.4727 0.67578-0.82813 0.20703-1.7188 0.37891-2.5898 0.51172-1.7695 0.26953-3.5547 0.40625-5.3359 0.55078-1.7852 0.14453-3.5312 0.26563-5.293 0.40234-3.543 0.26953-7.0898 0.59766-10.582 1.2695-1.6914 0.32422-3.3633 0.75781-4.9805 1.3633-1.6133 0.60547-3.1211 1.3555-4.5508 2.2734-2.8047 1.8047-5.1797 4.2266-7.0312 6.9883-1.8555 2.7578-3.2617 6.0234-4.043 9.3438-0.40234 1.7148-0.65234 3.4609-0.74219 5.2188-0.09375 1.7578 0 3.5352 0.15625 5.2969 0.31641 3.5469 0.875 7.0664 1.1406 10.621 0.13281 1.7539 0.18359 3.5078 0.11719 5.2656-0.070312 1.7578-0.25 3.5273-0.65625 5.2461-0.19922 0.85156-0.47656 1.6758-0.77734 2.5-0.28125 0.76562-0.58203 1.5625-0.59766 2.3906s0.25391 1.7109 0.51172 2.5234c0.25781 0.8125 0.51562 1.6523 0.83203 2.4609 0.57031 1.4727 1.3789 2.9688 2.7891 3.7812s3.1992 1 4.832 1.0625c0.88672 0.035156 1.7734 0 2.6602 0.003906 0.19922 0 0.40625 0.011719 0.60547-0.015625 0.097657-0.011718 0.19531-0.03125 0.28516-0.070312 0.027343-0.011719 0.046874-0.023438 0.058593-0.035156zm81.727-59.68c0.31641-0.039062 0.23047 0.78516 0.17578 0.91797-0.023437 0.058594-0.10547 0.24609-0.17578 0.25781-0.089843 0.015624-0.19141-0.15234-0.21875-0.21875-0.089843-0.21094-0.054687-0.46094 0.035157-0.66797 0.019531-0.046875 0.042968-0.09375 0.070312-0.14062 0.019531-0.035156 0.070312-0.14844 0.11328-0.15234zm-6.8984 0.94531c0.082031-0.35547 0.38281-0.67578 0.77734-0.70703 0.92187-0.070313 1.25 1.2539 0.40625 1.6172-0.29297 0.12891-0.65234 0.074219-0.90625-0.11719-0.27344-0.19922-0.34375-0.51172-0.27734-0.79688zm-18.824 2.8594c0 0.32422-0.054687 0.65234-0.082031 0.97266-0.03125 0.35156-0.054688 0.70312-0.070313 1.0547-0.03125 0.6875-0.027343 1.375 0.09375 2.0547 0.10156 0.57031 0.19922 1.125 0.39453 1.6719 0.19141 0.54688 0.4375 1.0547 0.74219 1.543 1.1758 1.8789 3.1523 3.2812 5.3711 3.5703 0.62891 0.082031 1.2461 0.0625 1.8711-0.023437 0.32422-0.042969 0.64453-0.085938 0.96484-0.14453 0.28125-0.054687 0.59766-0.15625 0.88281-0.12109-0.39062 0.28906-0.92578 0.44922-1.3789 0.625-0.42969 0.16406-0.86328 0.33594-1.3086 0.46875-0.71094 0.21484-1.4414 0.35547-2.1797 0.375-1.2422 0.035156-2.4727-0.29297-3.4922-1.0117-2.0508-1.4531-2.8867-4.0938-2.8633-6.5078 0.007812-0.77344 0.10156-1.5508 0.27344-2.3047 0.089844-0.37891 0.19141-0.75391 0.32031-1.1211 0.066406-0.18359 0.13672-0.37109 0.20703-0.55078 0.039062-0.09375 0.078125-0.17969 0.11719-0.27344 0.03125-0.074219 0.074219-0.21875 0.13672-0.26563zm-33.387 5.3281c1.1406-3.7773 3.0117-7.5 5.7617-10.383l0.050781-0.054687c5.0898-5.6133 12.844-7.2969 20.07-5.6562-2.6328-0.14453-5.2891 0.050781-7.8555 0.68359-8.3555 1.8945-14.387 7.8398-17.941 15.449-0.035156 0.054688-0.078125 0.14453-0.11719 0.17578-0.03125 0.023438-0.015625-0.066406 0.027344-0.21484z"/>
 </g>
</svg>