<svg xmlns="http://www.w3.org/2000/svg" version="1.1" viewBox="-5.0 -10.0 110.0 135.0">
 <g>
  <path d="m67.652 83.914c-0.007813 0.003907-0.015625 0.003907-0.019532 0.007813-0.5 0.28516-1.6406 2.2773-1.7852 2.8867 1.3438 0.60156 2.8789 0.71484 4.3242 0.51953 0.58594-0.097656 1.1523-0.26172 1.6719-0.55078 0.11328-0.76172 0.042969-1.6328 0.003906-2.4023-1.3984 0.37109-2.8867 0.12109-4.1914-0.46094z"/>
  <path d="m16.641 56.355c0.69922 0.1875 1.418 0.30078 2.1445 0.29688 0.41406-0.03125 0.8125-0.10547 1.2148-0.19531-0.76953-0.039062-1.5391-0.050781-2.3086-0.089843-0.34766-0.027344-0.69922-0.015626-1.0508-0.011719z"/>
  <path d="m87.559 87.242c-1.1875 0.27734-2.7266 0.046874-3.7617-0.59766-0.5 0.48438-1.3711 2.3867-1.4961 3.1094 1.3828 0.83203 3.0547 0.79688 4.5859 0.50391 0.53906-0.13281 1.082-0.28125 1.5469-0.59766 0.027344-0.87891-0.125-1.7422-0.28125-2.6055-0.19141 0.070312-0.39062 0.14062-0.59375 0.1875z"/>
  <path d="m32.641 86.496-0.085937 0.019531c-0.73438 0.8125-1.4688 1.9336-1.832 2.9688 1.3281 0.73438 2.9062 0.73047 4.375 0.58203 0.58594-0.097656 1.1445-0.23047 1.6875-0.47656 0.097656-0.92578 0.16406-1.8516 0.20312-2.7812-1.4883 0.42969-2.9062 0.19922-4.3477-0.3125z"/>
  <path d="m49.602 89.449c-1.3242 0.41016-2.9727 0.082031-4.1758-0.54688-0.48828 0.43359-1.2031 2.5391-1.3164 3.2422l0.12891 0.082031c1.3984 0.86719 3.5039 0.73047 5.0312 0.35938 0.44531-0.10938 0.84766-0.29297 1.2578-0.49609-0.074219-0.94922-0.22266-1.8828-0.4375-2.8125-0.16016 0.0625-0.32422 0.11719-0.48828 0.16797z"/>
  <path d="m12.258 37.426c-0.007812 0.007813-0.023437 0.011719-0.027343 0.023438-0.058594 0.10156 0.015625 0.28125 0.058593 0.37891 0.085938 0.19922 0.15234 0.32031 0.35547 0.40625 0.074219-0.097656 0.15625-0.21484 0.12891-0.34375-0.046876-0.22656-0.33203-0.35156-0.51563-0.46484z"/>
  <path d="m38.164 73.914c-0.35547-0.45312-0.78516-0.85547-1.1602-1.2969-0.23438-0.27734-0.41016-0.59375-0.64844-0.87109-0.125 0.089844-0.25 0.15234-0.40625 0.13672-0.71094-0.074218-1.8359-1.5938-2.2852-2.1445-0.082031 0.011719-0.042968 0-0.12891 0.046875-0.082031 0.050782-0.11328 0.046875-0.20703 0.039063-0.40234-0.027344-0.67188-0.41797-0.91797-0.69141-0.019531 0.39453 0.25781 1.0234 0.38672 1.4141 0.82422 2.5156 2.0703 4.9492 1.9805 7.6602-0.058594 1.75-0.69141 3.3281-1.1875 4.9805-0.23828 0.78906-0.42188 1.5938-0.60156 2.3984 1.2812 0.37891 2.4531 0.62891 3.7695 0.24219 0.23047-0.10156 0.44922-0.20312 0.64844-0.35938 0.48047-0.375 0.68359-0.85156 0.75781-1.4414 0.14063-1.1172-0.23437-2.7266-0.3125-3.9062-0.13672-2.0625 0.023438-4.1602 0.3125-6.2031z"/>
  <path d="m77.512 56.574c0.24609-0.77344 0.92578-2 0.61719-2.8008-0.13672-0.35547-0.37891-0.61719-0.72266-0.78125-0.58594-0.050782-1.0078 0.16016-1.5 0.44141-1.0664 0.61328-2.0156 1.5312-3.0039 2.2695-1.625 1.2148-3.293 2.1836-5.1094 3.082 0.62109 1.7812 1.4062 3.4805 2.2773 5.1523 0.37109 0.71484 0.90625 1.4102 1.1719 2.168 0.21094 0.59375 0.29687 1.2539 0.37109 1.875 0.44531 3.6875-0.5 7.5195-1.9336 10.898-0.44922 1.0625-1.0625 2.0469-1.5547 3.0898-0.13672 0.30859-0.23047 0.62109-0.32812 0.94141 1.0312 0.48047 2.6719 0.89062 3.7812 0.48438 0.6875-0.25391 1.2773-0.84766 1.5195-1.5391 0.23828-0.67969 0.082032-1.4805 0.089844-2.1953 0.007812-0.44141 0.042969-0.88672 0.09375-1.3242 0.30469-2.6094 1.5156-5.0547 2.6211-7.4023 0.56641-1.207 1.9727-4.1602 2.1055-5.3984 0.0625-0.5625-0.32812-1.4883-0.47656-2.0547-0.45703-1.7305-0.71484-3.543-0.41797-5.3281 0.089844-0.53516 0.22656-1.0625 0.39062-1.5781z"/>
  <path d="m35.07 27.137c-0.67187 0.22266-1.332 0.24609-1.957 0.62109-0.64844 0.39453-1.1641 1.0039-1.332 1.7578-0.16406 0.72656-0.011719 1.4844 0.39062 2.1055 0.49609 0.76172 1.2305 1.1445 2.0977 1.3359 0.18359 0.027344 0.37109 0.054688 0.55859 0.054688 1.7891-0.007813 3.4609-1.0742 4.6719-2.3125 1.582-1.6172 2.5312-3.8359 2.4922-6.1094-0.046876-2.6523-1.5625-4.8945-3.418-6.668-0.070313 0.097656 0.13672 0.53906 0.17969 0.65625 0.50391 1.4062 0.74609 2.8906 0.36328 4.3594-0.51953 2-2.0938 3.5586-4.0469 4.1992z"/>
  <path d="m35.398 34.004c0.63672 0.70703 1.4883 1.0508 2.4219 1.1406 1.9141 0.042969 3.375-0.66406 4.9219-1.7422-0.75781-0.77734-1.5938-1.332-2.5039-1.9102-0.23438 0.046874-1.1211 0.91406-1.3789 1.1016-1.0234 0.73828-2.2031 1.2656-3.457 1.4141z"/>
  <path d="m13.484 40.398 0.089844-0.019532c0.12109-0.10156 0.19922-0.19141 0.26562-0.33594 0.007812-0.019531 0.015625-0.039063 0.027344-0.058594 0.089843-0.19531 0.085937-0.38672 0.09375-0.59766-0.20703 0.28125-0.64453 0.51562-0.71484 0.66016l0.09375 0.21875c0.039062 0.066406 0.082031 0.085937 0.14453 0.12891z"/>
  <path d="m26.152 39.184c-0.34375-0.14062-0.45312-0.43359-0.57812-0.75391-0.003907 0.011718-0.011719 0.023437-0.015625 0.035156-0.10938 0.26953-0.25391 0.78516-0.11719 1.0547 0.058594 0.11719 0.14453 0.19531 0.26953 0.23438 0.30469 0.10156 0.71094-0.03125 0.99219-0.15625 0.14453-0.12109 0.27734-0.25781 0.41797-0.38672-0.30859 0.046874-0.66797 0.089843-0.96484-0.03125z"/>
  <path d="m26.984 36.801c-0.11328 0.089844-0.20703 0.21094-0.21094 0.36328-0.003907 0.19141 0.089843 0.28906 0.21875 0.41016 0.17969 0.007812 0.33984 0.023437 0.48828-0.097657 0.09375-0.078124 0.15625-0.17969 0.16016-0.30469 0.007813-0.22266-0.089844-0.37109-0.23828-0.52344-0.15234 0.027343-0.29297 0.054687-0.41797 0.15625z"/>
  <path d="m89.184 57.094c0.33203-3.6445 1.7695-7.0859 2.7969-10.566 0.81641-2.7773 1.2695-5.5703 1.3789-8.4609 0.12891-3.5078-0.29688-7.5156-1.6914-10.766-0.40234-0.93359-0.88281-1.832-1.5312-2.6211-3.5078-4.2812-10.164-4.4883-15.184-5.5312-3.2383-0.67188-6.4023-1.6406-9.4727-2.8633 0.90234 2.1953 1.1406 3.3594 1.3633 5.707-1.0508-2.5977-1.8828-5.4023-3.7305-7.5781-3.1641-3.7227-14.66-6.8398-19.578-7.2383-1.3047-0.12891-2.7422 0.0625-4.0312 0.28516-7.0742 1.2188-13.328 5.3789-17.977 10.734-1.2422 1.4336-2.3398 2.9844-3.4336 4.5312 0.25391-0.0625 0.5-0.10156 0.75781-0.13672 0.10156 0.10547 0.19531 0.22656 0.28906 0.33984 0.86328-0.69922 2.0977-1.2812 3.2148-1.418 0.16016-0.019531 0.36328-0.023438 0.48438 0.10156 0.14844 0.14844 0.089844 0.39062 0.074218 0.58203 0.82813-0.13281 3.6992-0.46875 4.3203-0.078124 0.066406 0.085937 0.089844 0.14062 0.10156 0.24609 0.007812 0.085938 0.019531 0.15234 0.046874 0.23438l0.24609 0.039063c0.97266 0.16016 2.6992 0.51172 3.3164 1.3711 0.015626 0.17188-0.13672 0.31641-0.23047 0.45703 0.32422 0.22266 0.76172 0.30469 1.1211 0.48047 0.74219 0.35938 1.4023 0.85938 2.0391 1.375 0.28906-0.042968 0.58203-0.10156 0.86328-0.17969 1.2734-0.35156 2.2773-1.1992 2.9258-2.3359 0.96875-1.6992 0.68359-3.8008-0.070312-5.5234-0.22656-0.51953-0.60938-1.0469-0.74219-1.5938-0.042968-0.17578-0.066406-0.41406 0.054688-0.56641 0.078125-0.097656 0.20703-0.14062 0.32812-0.14844 0.49219-0.039062 0.92969 0.30078 1.2891 0.59375 2.2383 1.8008 4.125 4.3242 4.4258 7.2578 0.26172 2.5508-0.54297 4.9258-2.1367 6.8984 0.85156 0.42969 2.4844 1.5078 2.9336 2.3633 0.097656 0.18359 0.13672 0.37109 0.058594 0.57422-0.25 0.65625-1.7383 1.4375-2.3672 1.7148-1.4336 0.63281-3.168 0.99609-4.6797 0.39844-0.80078-0.31641-1.5625-0.92969-1.9102-1.7266-0.20703-0.007813-0.40625-0.027344-0.60938-0.0625-1.1328-0.18359-2.1875-0.77734-2.8555-1.7227-0.57812-0.81641-0.78125-1.8086-0.60937-2.793 0.23047-1.3242 0.97656-1.9844 2.0195-2.7227-0.44531-0.33203-0.91016-0.62891-1.3984-0.89062-0.64844-0.34766-1.9375-0.8125-2.4102-1.332 0.003906-0.011719 0.003906-0.027344 0.007813-0.039063 0.0625-0.20312 0.42187-0.35938 0.59375-0.46094-0.89063-0.39063-1.793-0.55469-2.7539-0.66016-0.23047-0.027343-0.83203-0.019531-1-0.16406 0.007813-0.15234 0.11719-0.28516 0.19922-0.41016-0.67969 0.007813-1.3594 0.027344-2.0352 0.089844-0.33594 0.03125-1.793 0.28516-2.0078 0.16797-0.13672-0.19531-0.078125-0.40234-0.039062-0.62109-0.92969 0.24609-1.7734 0.64453-2.5195 1.2578-0.26172 0.21484-0.60547 0.66797-0.91016 0.77734-0.0625-0.015626-0.097656-0.007813-0.13672-0.0625-0.14062-0.18359-0.089843-0.52734-0.082031-0.75-1.8906 0.64062-3.7344 2.0664-4.7773 3.7812-0.46094 0.75781-0.47656 1.6953-0.73828 2.5312-0.25 0.78906-0.64062 1.5156-0.99609 2.2617-0.65625 1.3633-0.27734 2.9766 0.074219 4.3828 0.26953 0.023437 0.54688 0.089843 0.79688 0.19141 0.80078 0.32422 1.3711 0.94531 1.6953 1.7383 0.22266 0.55078 0.41016 1.2734 0.15234 1.8398-0.17969 0.39062-0.48828 0.60547-0.88281 0.74609 0.27344 0.82812 0.54297 1.6445 0.66016 2.5117 0.27344 2.0391-0.28516 4.4297-1.1875 6.2578 2.5586-0.32031 5.3359-0.85156 7.8438 0.050781 0.47266 0.17188 1.0977 0.50391 1.2969 0.98828 0.09375 0.22656 0.050781 0.48828-0.035156 0.70703-0.17188 0.43359-1.8008 2.3555-2.2109 2.5156-0.19531 0.074218-0.42969 0.015625-0.61328-0.070313-0.31641-0.14844-0.625-0.42969-0.74219-0.76953-0.074219-0.21484-0.054688-0.44141 0.042969-0.64453 0.40234-0.80859 1.7344-1.3359 2.5312-1.6094-2.2344-0.74219-6.1719-0.71875-8.4492-0.050782 0.66016 0.43359 1.957 1.0547 2.2461 1.832 0.074219 0.19922 0.058594 0.40625-0.039062 0.59375-0.19141 0.35938-0.58984 0.55859-0.96484 0.66797l-0.058594 0.015626c0 0.039062 0 0.0625 0.011719 0.10156 0.12109 0.37109 0.46484 1.0469 0.83203 1.207 0.5625 0.24609 3.7617 0.12891 4.6445 0.17188 0.76953 0.039063 1.4023 0.44141 2.0898 0.47656 0.33203 0.015625 0.66406-0.046875 0.97266-0.16797 1.4531-0.56641 1.5273-2.2734 2.0625-3.5039 0.82031-1.8867 2.6211-2.5273 4.3867-3.2305 0.75781-0.30078 1.4648-0.69531 2.0898-1.2188 2.1289-1.7891 3.4492-4.8945 3.9492-7.5977 0.0625-0.33203 0.30078-2.5625 0.33203-2.6367 0.39062 4.4844-0.79688 9.832-5.1758 12.027-1.3984 0.70312-2.9492 0.94141-4.0625 2.1484-0.90234 0.98047-0.92969 2.3867-1.5938 3.5195-0.48828 0.82422-1.0547 1.2695-1.9883 1.5117 0.64453 1.6094 1.7969 3.7617 2.9883 5.0117 0.37891-0.65625 0.77734-1.2773 1.2266-1.8867-0.019532 0.30469-0.042969 0.60938-0.039063 0.91016 0.019531 1.7461 1.0156 3.3906 2.2305 4.5859 0.22266-0.4375 0.40234-0.88672 0.64453-1.3125 0.34375 0.37891 0.64844 0.82031 0.96094 1.2266 0.83203 1.0703 1.6602 2.1758 2.5898 3.168 0.25781-0.89453 0.41797-1.8555 0.53516-2.7773 0.30469 2.3086 0.47266 3.0977 2.1172 4.7734 0.14844-0.67578 0.23438-1.3711 0.34375-2.0508 0.51172 2.0195 1.6602 3.5781 3.125 5.0273 1.3164-1.625 2.1797-3.3359 2.5781-5.3906 0.38672 0.53516 0.61328 1.1602 0.82031 1.7812 0.78516-0.94531 1.3516-2.0938 1.8359-3.2148-0.30469-1.0742-0.82812-2.1523-1.332-3.1484-0.32031-0.63281-0.68359-1.2656-0.90234-1.9453-0.94141-2.9297-0.375-7.1055 1.0312-9.8242-0.70312 3.5156-0.83594 6.6875 0.36328 10.121 0.28125 0.80469 0.64453 1.5898 0.98047 2.3711 1.1094 2.6523 1.668 4.9297 1.3906 7.8242-0.09375 0.96094-0.32812 2.082-0.17578 3.043 0.074218 0.47266 0.39453 0.79297 0.63672 1.1875 0.78125 1.2695 0.83984 2.875 0.72266 4.3203-0.10156 1.2461-0.37109 2.5039-0.70703 3.7109-0.3125 1.125-0.74609 2.3047-0.81641 3.4727 1.0547 0.53906 2.3438 0.93359 3.5312 0.625 1.0547-0.27734 1.5352-1.0938 1.6016-2.1289 0.0625-0.98828-0.16797-2.0039-0.30078-2.9805-0.15234-1.1367-0.17187-2.2461-0.046874-3.3828 0.097656-0.86328 0.25391-1.7344 0.57031-2.5469 0.38672-0.99609 0.91406-1.9219 1.1172-2.9844 0.32812-1.6875-0.089844-3.3984 0.39062-5.0781 0.30469-1.0703 0.90234-2.0195 1.4023-3.0039 0.48438-0.95313 0.88672-1.9375 1.2188-2.9531 0.31641-0.96484 0.59766-1.9453 0.79297-2.9453 0.22266-1.1328 0.40234-2.7305 0.84375-3.7773 0.23047-0.54688 0.60547-0.99219 0.90625-1.4961 2.4336-4.1016 2.1719-10.16 1.3828-14.707-0.24609-1.418-0.59766-2.8125-0.94531-4.207 0.67188 1.1094 1.0742 2.543 1.4023 3.7969 1.1133 4.2656 1.5859 9.0234 0.14844 13.27-0.24609 0.72266-0.56641 1.4297-0.96484 2.082-0.29687 0.48437-0.64062 0.94922-0.88672 1.4648-0.50781 1.0742-0.66016 2.4414-0.85547 3.6055 1.0977-0.074219 2.2461-0.28516 3.332-0.48438 3.957-0.72656 7.8477-2.2148 11.156-4.5234 1.1797-0.82422 2.25-1.7852 3.4297-2.6055 0.33594-0.23438 0.69531-0.46094 1.0703-0.63281 0.85156-0.38672 1.2812-0.48047 1.8516-1.3086 0.95703-1.3867 1.6797-2.9805 2.2695-4.5547 1.957-5.207 2.2891-10.57 1.2734-16.02 1.457 3.3242 1.4648 7.8047 1.0586 11.348-0.33203 2.9062-1.1055 6.375-2.9258 8.7305-0.46484 0.60156-1.0078 1.1055-1.6016 1.5742 0.0625 0.027343 0.125 0.058593 0.1875 0.089843 1.3008 0.67578 1.6602 3.8945 1.9844 5.2578 0.20703 0.86328 0.44922 1.7031 0.76172 2.5352 0.43359 1.1484 0.96094 2.2109 1.6484 3.2344 0.92969 1.3828 1.8906 2.25 2.3672 3.9297 0.75781 2.6719 0.97266 6.293 0.92578 9.0664-0.023438 1.5117-0.19141 3-0.49609 4.4805-0.19922 0.96875-0.44922 1.9453-0.74219 2.8906-0.14844 0.47656-0.37891 0.95703-0.48438 1.4414-0.035156 0.15234-0.046875 0.31641 0.011719 0.46484 0.09375 0.24609 0.34375 0.39453 0.57031 0.5 0.83984 0.39063 2.168 0.56641 3.0469 0.22266 0.57812-0.22266 1-0.71484 1.2305-1.2812 0.51953-1.2656-0.066406-2.9453-0.25391-4.2539-0.12891-0.92187-0.20703-1.8594-0.15625-2.7891 0.14453-2.6445 1.0391-5.7773 1.625-8.4141 0.25391-1.1445 0.60938-2.4141 0.58594-3.5898-0.019532-0.90234-0.42578-1.8125-0.71484-2.6602-0.74609-2.1875-0.98828-3.7969-0.77734-6.1055zm-73.109-17.637c-0.59375-1.5703-0.98047-3.0508-2.4844-3.9844-0.44531-0.27734-0.94922-0.46094-1.3828-0.74609 0.42969-0.27734 0.72656-0.35156 1.2344-0.32031 0.86328 0.25391 1.4492 0.77344 1.8789 1.5547 0.73828 1.3398 1.1055 3.0781 1.0508 4.5977-0.09375-0.37109-0.1875-0.73828-0.29688-1.1016zm6.5469-0.45703c-0.046875 0.20312-0.097656 0.40625-0.13672 0.61328-0.12891-1.4727 0.55469-3.4141 1.4961-4.5469 0.57031-0.68359 1.3242-1.2148 2.2305-1.3047 0.17578-0.015625 0.34766-0.011719 0.52344 0 0.27734 0.050781 0.64062 0.10938 0.85938 0.29688l-0.003906 0.070312c-0.45312 0.23438-1.0508 0.32031-1.5352 0.52734-1.875 0.79688-2.7656 2.5117-3.4336 4.3398zm6.0703-2.8086-0.24219 0.10156c-0.070313 0.29297 0.074219 0.76562 0.10156 1.082 0.085938 1.043-0.44141 2.2305-1.3398 2.8008-0.50391 0.32031-1.1406 0.42969-1.7227 0.28516-0.054687-0.015626-0.10938-0.03125-0.16406-0.046876-0.33594-0.17969-0.56641-0.38672-0.68359-0.76172-0.21484-0.6875 0.13281-1.6367 0.47266-2.2383 0.41797-0.74219 1.0078-1.2461 1.8359-1.4766 0.37891-0.10547 0.79688-0.14062 1.1875-0.09375 0.1875 0.019531 0.375 0.023438 0.53906 0.11719 0.042969 0.11719 0.058594 0.11719 0.011719 0.23437z"/>
  <path d="m12.262 27.953c-0.53516-0.074219-1.0703-0.17969-1.5859-0.34375-1.5977-0.51172-2.9805-1.6133-3.7461-3.1172-1.0195-2-0.61719-4.3164 0.058593-6.3516-0.15234 0.11328-0.28125 0.30859-0.40234 0.45703-0.71875 0.88672-1.3242 1.8203-1.7617 2.8789-0.86328 2.0742-1.0352 4.4492-0.15625 6.5469 1.0195 2.4375 3.1055 4.0195 5.4883 5.0117 0.11719 0.035156 0.18359 0.085938 0.29688 0.03125 0.23438-0.92578 0.66797-1.7031 1.043-2.5742 0.35547-0.82422 0.59375-1.6602 0.76562-2.5391z"/>
 </g>
</svg>