<svg xmlns="http://www.w3.org/2000/svg" version="1.1" viewBox="-5.0 -10.0 110.0 135.0">
 <g>
  <path d="m50 66.668c-10.543 0-21.684 8.6602-20.832 16.668 0.80469 7.5703 12.109 12.5 20.832 12.5s20.031-4.9297 20.832-12.5c0.85156-8.0039-10.293-16.668-20.832-16.668zm-6.25 17.707c-1.7266 0-3.125-1.3984-3.125-3.125s1.3984-3.125 3.125-3.125 3.125 1.3984 3.125 3.125-1.3984 3.125-3.125 3.125zm12.5 0c-1.7266 0-3.125-1.3984-3.125-3.125s1.3984-3.125 3.125-3.125 3.125 1.3984 3.125 3.125-1.3984 3.125-3.125 3.125z"/>
  <path d="m66.668 37.5c-2.3008 0-4.168 1.8672-4.168 4.168s1.8672 4.168 4.168 4.168 4.168-1.8672 4.168-4.168-1.8672-4.168-4.168-4.168zm1.043 4.168c-0.57422 0-1.043-0.46484-1.043-1.043 0-0.57422 0.46484-1.043 1.043-1.043 0.57422 0 1.043 0.46484 1.043 1.043 0 0.57422-0.46484 1.043-1.043 1.043z"/>
  <path d="m33.332 37.5c-2.3008 0-4.168 1.8672-4.168 4.168s1.8672 4.168 4.168 4.168 4.168-1.8672 4.168-4.168-1.8672-4.168-4.168-4.168zm1.043 4.168c-0.57422 0-1.043-0.46484-1.043-1.043 0-0.57422 0.46484-1.043 1.043-1.043 0.57422 0 1.043 0.46484 1.043 1.043 0 0.57422-0.46484 1.043-1.043 1.043z"/>
  <path d="m23.469 21.836c-0.082031-0.18359-0.13281-0.37891-0.21875-0.5625-2.8008-6.0312-6.6797-11.398-11.5-15.988-0.46484 0.29297-0.89062 0.64844-1.1992 1.125-6.4102 9.8438-7.6875 21.652-3.0078 31.09 2.2305 4.5273 5.4219 7.6367 8.2305 9.7344 3.8711-7.0273 6.332-14.574 7.1562-22.449 0.10156-1.0156 0.30469-1.9922 0.53906-2.9492z"/>
  <path d="m28.797 12.324c-4.8438-4.668-10.434-6.7227-13.836-7.5859-0.30859-0.078125-0.62109-0.082031-0.92969-0.089843 4.2266 4.207 7.7031 9.0156 10.371 14.34 1.0312-2.5469 2.5195-4.8008 4.3945-6.6641z"/>
  <path d="m75.609 18.961c2.6641-5.3125 6.1367-10.113 10.359-14.312-0.30859 0.007812-0.62109 0.011718-0.92969 0.089843-3.3984 0.86328-8.9805 2.9141-13.82 7.5742 1.875 1.8633 3.3672 4.1172 4.3945 6.6523z"/>
  <path d="m92.457 37.5c4.6797-9.4375 3.3984-21.246-3.0078-31.09-0.3125-0.47656-0.73828-0.83203-1.1992-1.125-4.8203 4.5898-8.7031 9.957-11.5 15.988-0.082031 0.17187-0.12891 0.35547-0.20703 0.53125 0.23047 0.93359 0.42969 1.8789 0.53125 2.8594 0.81641 7.9609 3.2734 15.496 7.1602 22.566 2.8086-2.0977 5.9961-5.207 8.2227-9.7305z"/>
  <path d="m27.215 84.172c-3.8633 1.5859-7.707 1.8008-10.879 1.4102-4.582-0.54297-8-1.332-8-0.16797 0 1.168 3.082 4.332 7.457 5.707 3.582 1.125 8.168 1.75 13.375 0.54297 0.68359-0.16406 1.2461-0.42578 1.8789-0.625-2.0039-1.9062-3.3906-4.207-3.8359-6.8672z"/>
  <path d="m83.668 85.582c-3.1719 0.39062-7.0156 0.17188-10.879-1.4102-0.44141 2.6602-1.832 4.9609-3.8359 6.8672 0.63281 0.20313 1.1992 0.46094 1.8789 0.625 5.207 1.207 9.793 0.58203 13.375-0.54297 4.375-1.375 7.457-4.543 7.457-5.707 0-1.168-3.418-0.375-8 0.16797z"/>
  <path d="m83.332 50c-3.125-5.293-7.168-13.832-8.332-25v-0.125c-0.83203-8.082-6.75-14.793-14.793-15.875-3.125-0.41797-6.543-0.66797-10.207-0.66797-2.75 0-6.168 0.16797-10.082 0.66797-8.043 1.043-14.082 7.75-14.918 15.875v0.125c-1.168 11.168-5.207 19.707-8.332 25-7.375 11.25-7.125 24.875 0 33.332 0.0625 0.074219 0.13281 0.125 0.19922 0.19922 3.7617 0.40625 7.1875-0.13672 10.266-1.5664 0.14453-2.9961 1.4844-6.1016 4.0156-8.918 4.625-5.1445 12.027-8.4688 18.855-8.4688s14.23 3.3242 18.855 8.4688c2.5312 2.8125 3.8711 5.9219 4.0156 8.918 3.0859 1.4336 6.5234 1.9922 10.266 1.5625 0.066406-0.074219 0.13281-0.125 0.19922-0.19922 7.125-8.457 7.375-22.082 0-33.332zm-56.25-8.332c0-3.4453 2.8047-6.25 6.25-6.25 3.4453 0 6.25 2.8047 6.25 6.25 0 3.4453-2.8047 6.25-6.25 6.25-3.4453 0-6.25-2.8047-6.25-6.25zm15.34 11.328-3.957 9.8906c-0.16406 0.40625-0.55469 0.65625-0.96484 0.65625-0.12891 0-0.26172-0.023438-0.38672-0.074219-0.53516-0.21484-0.79297-0.82031-0.57812-1.3555l3.957-9.8906c2.5039-6.2617 1.0391-13.387-3.7266-18.152-0.40625-0.40625-0.40625-1.0664 0-1.4727s1.0664-0.40625 1.4727 0c5.3594 5.3555 7 13.363 4.1875 20.398zm12.566 7.418c-0.20703 0.26172-0.51172 0.39844-0.82031 0.39844-0.22656 0-0.44922-0.074219-0.64062-0.21875-2.0117-1.5703-5.043-1.5703-7.0508 0-0.45703 0.34766-1.1094 0.26953-1.4648-0.17969-0.35547-0.45703-0.27344-1.1094 0.17969-1.4648 2.7383-2.1328 6.875-2.1328 9.6133 0 0.45312 0.35547 0.53516 1.0078 0.17969 1.4648zm0-4.168c-0.20703 0.26172-0.51172 0.39844-0.82031 0.39844-0.22656 0-0.44922-0.074219-0.64062-0.21875-2.0117-1.5703-5.043-1.5703-7.0508 0-0.45703 0.34766-1.1094 0.26953-1.4648-0.17969-0.35547-0.45703-0.27344-1.1094 0.17969-1.4648 2.7383-2.1367 6.875-2.1367 9.6133 0 0.45312 0.35547 0.53516 1.0078 0.17969 1.4648zm7.8984 7.2227c-0.125 0.046875-0.25781 0.074219-0.38672 0.074219-0.41406 0-0.80469-0.25-0.96484-0.65625l-3.957-9.8906c-2.8125-7.0352-1.1719-15.043 4.1875-20.398 0.40625-0.40625 1.0664-0.40625 1.4727 0s0.40625 1.0664 0 1.4727c-4.7656 4.7656-6.2305 11.891-3.7266 18.152l3.957 9.8906c0.21484 0.53125-0.042969 1.1406-0.57812 1.3555zm3.7812-15.551c-3.4453 0-6.25-2.8047-6.25-6.25 0-3.4453 2.8047-6.25 6.25-6.25 3.4453 0 6.25 2.8047 6.25 6.25 0 3.4453-2.8047 6.25-6.25 6.25z"/>
 </g>
</svg>