<svg xmlns="http://www.w3.org/2000/svg" xmlns:xlink="http://www.w3.org/1999/xlink" version="1.1" x="0px" y="0px" viewBox="0 0 100 125" style="enable-background:new 0 0 100 100;" xml:space="preserve"><g><path d="M36.88,50.75c-0.73-0.56-1.63-0.9-2.68-1.02c-0.11,1.2,0.39,2.4,1.38,3.27c0.95,0.84,2.17,1.17,3.33,0.92   C38.54,52.73,37.93,51.56,36.88,50.75z"/><path d="M60.72,53c0.99-0.86,1.48-2.06,1.38-3.26c-1.05,0.12-1.95,0.46-2.68,1.02c-1.05,0.8-1.66,1.98-2.03,3.17   C58.55,54.16,59.77,53.83,60.72,53z"/><path d="M43.99,85.57c1.1,1.14,2.58,1.76,4.16,1.76s3.06-0.63,4.16-1.76l1.67-1.73c-3.17-0.02-4.99-1.42-5.83-2.33   c-0.84,0.91-2.65,2.31-5.83,2.33L43.99,85.57z"/><path d="M18.89,45.35c-0.07,0.11-8.21,13.25-0.01,24.96c0.25,0.35,0.24,0.83-0.02,1.17c-0.1,0.14-1.91,2.63-1.9,6.2   c0,0.55,0.65,0.84,1.04,0.46c1.16-1.15,2.81-2.04,5.03-2.04c0.4,0,0.77,0.24,0.92,0.62c0.16,0.37,0.07,0.8-0.22,1.09   c-0.14,0.14-2.65,2.74-2.3,6.42c0.06,0.59,0.83,0.77,1.14,0.26c1.08-1.75,2.58-3.46,4.24-3.42c0.53,0.01,0.94,0.46,0.94,0.99   c0,2.4,0.29,5.05,0.79,6.87c0.14,0.52,0.84,0.61,1.11,0.15c1.43-2.4,3.91-5.77,7.02-6.81c-2.01-1.94-8.07-8.63-4.61-15.55   c2.99-5.98,6.06-8.18,7.37-8.89c0.01-0.45-0.02-1.15-0.12-1.95c-0.39,0.08-0.78,0.14-1.16,0.14c-1.4,0-2.78-0.52-3.9-1.5   c-1.43-1.25-2.17-2.99-2.07-4.76c-1.15,0.13-2.44,0.45-3.86,0.96c-0.52,0.19-1.09-0.08-1.28-0.6c-0.19-0.52,0.08-1.09,0.6-1.28   c4.51-1.64,8.03-1.52,10.46,0.35c3.84,2.96,3.33,9.12,3.3,9.38c-0.04,0.4-0.3,0.73-0.68,0.86c-0.02,0.01-3.43,1.3-6.88,8.2   c-0.79,1.58-0.94,3.18-0.71,4.71c0.62,1.38,2.04,2.23,4.25,2.52c0.55,0.07,0.93,0.57,0.86,1.12c-0.07,0.5-0.5,0.87-0.99,0.87   c-0.04,0-0.09,0-0.13-0.01c-1-0.13-1.88-0.38-2.66-0.71c0.31,0.58,0.65,1.12,0.99,1.62c0.07,0.02,0.14,0.02,0.2,0.05   c1.24,0.59,2.73,0.88,4.35,0.87c0,0,0,0,0.01,0c0.55,0,1,0.44,1,0.99c0,0.55-0.44,1-0.99,1.01c-0.03,0-0.06,0-0.09,0   c-0.78,0-1.53-0.08-2.24-0.19c0.33,0.34,0.59,0.59,0.74,0.72c5.55,1.78,7.88-0.54,8.43-1.24v-2.14c-7.37-2.92-7.42-10.82-7.42-10.9   c0-0.55,0.45-1,1-1c0,0,0,0,0,0c0.55,0,1,0.45,1,1c0,0.21,0.05,3.45,2.23,6.18c1.79-1.33,5.32-2.6,9.11-0.23   c2.02-2.68,2.07-5.76,2.07-5.95c0-0.55,0.45-1,1-1h0c0.55,0,1,0.44,1,1c0,0.06-0.04,4.42-3.06,7.86c-0.01,0.01-0.01,0.03-0.02,0.05   c-0.02,0.02-0.04,0.03-0.06,0.05c-1.04,1.16-2.43,2.21-4.29,2.95v2.14c0.55,0.71,2.87,3.02,8.43,1.24   c0.15-0.14,0.41-0.38,0.73-0.72c-0.79,0.13-1.55,0.19-2.24,0.19c-0.48,0-0.92-0.02-1.32-0.06c-0.55-0.05-0.96-0.53-0.91-1.08   c0.05-0.55,0.52-0.97,1.08-0.91c1.43,0.12,3.54,0.08,5.44-0.82c0.07-0.03,0.14-0.03,0.2-0.05c0.35-0.51,0.69-1.05,1-1.63   c-1.05,0.46-2.3,0.74-3.73,0.82c-0.02,0-0.04,0-0.05,0c-0.53,0-0.97-0.41-1-0.95c-0.03-0.55,0.4-1.02,0.95-1.05   c1.88-0.1,4.28-0.64,5.16-2.62c0.23-1.52,0.07-3.11-0.72-4.69c-3.45-6.89-6.85-8.19-6.89-8.2c-0.37-0.13-0.63-0.47-0.67-0.85   c-0.02-0.26-0.54-6.42,3.3-9.38c2.43-1.87,5.95-1.99,10.46-0.35c0.52,0.19,0.79,0.76,0.6,1.28c-0.19,0.52-0.76,0.79-1.28,0.6   c-1.42-0.52-2.71-0.84-3.86-0.96c0.1,1.78-0.64,3.52-2.07,4.76c-1.12,0.99-2.5,1.5-3.9,1.5c-0.39,0-0.78-0.06-1.16-0.14   c-0.1,0.79-0.12,1.49-0.12,1.95c1.31,0.71,4.38,2.91,7.37,8.89c3.47,6.93-2.6,13.61-4.61,15.55c3.12,1.04,5.6,4.42,7.02,6.81   c0.27,0.46,0.97,0.37,1.11-0.15c0.49-1.82,0.79-4.47,0.79-6.88c0-0.53,0.41-0.98,0.94-0.99c1.66-0.04,3.16,1.67,4.24,3.42   c0.31,0.5,1.09,0.32,1.14-0.26c0.35-3.68-2.17-6.28-2.3-6.42c-0.28-0.29-0.37-0.72-0.21-1.09c0.16-0.37,0.52-0.62,0.92-0.62   c2.22,0,3.87,0.89,5.03,2.04c0.39,0.39,1.04,0.09,1.04-0.46c0-3.57-1.8-6.06-1.9-6.2c-0.26-0.35-0.26-0.82-0.02-1.17   c8.2-11.71,0.06-24.85-0.02-24.98l-7.44-11.16c-0.11-0.16-0.17-0.34-0.17-0.53c0-1.45,0.37-2.88,0.73-3.91   c-2.54,0.26-4.16,1.08-4.17,1.09c-0.31,0.16-0.69,0.15-0.99-0.03c-0.3-0.18-0.48-0.51-0.48-0.86c0.03-3.22,1.25-6.12,2.51-8.25   c-3.08,2.47-5.55,6.2-5.58,6.25c-0.3,0.46-0.92,0.59-1.38,0.29c-0.46-0.3-0.59-0.92-0.29-1.38c0.21-0.32,5.13-7.76,10.42-9.08   c0.43-0.11,0.88,0.08,1.11,0.47s0.17,0.87-0.14,1.19c-0.04,0.04-3.8,4.02-4.52,9.01c1.16-0.37,2.9-0.77,5.04-0.77   c0.35,0,0.67,0.18,0.85,0.47s0.2,0.66,0.04,0.97c-0.01,0.02-1.04,2.12-1.13,4.23l3.68,5.51c0.58,0.87,1.95,0.56,2.08-0.48   c1.28-10.8-1.9-21.85-4.13-25.87c-0.49-0.88-1.68-1.05-2.39-0.33c-2.83,2.9-8.38,9.96-11.86,14.6c-0.17,0.23-0.44,0.38-0.73,0.4   c-0.3,0.03-0.57-0.08-0.78-0.29c-2.13-2.13-16.89-2.13-19.03,0c-0.21,0.21-0.47,0.32-0.78,0.29c-0.29-0.02-0.55-0.17-0.73-0.4   c-3.48-4.65-9.05-11.72-11.88-14.61c-0.7-0.72-1.89-0.56-2.38,0.32c-2.26,3.97-5.46,14.93-4.13,25.91   c0.13,1.04,1.49,1.35,2.08,0.48l3.68-5.52c-0.09-2.11-1.12-4.21-1.13-4.23c-0.15-0.31-0.14-0.68,0.04-0.97s0.5-0.47,0.85-0.47   c2.14,0,3.88,0.4,5.04,0.77c-0.72-4.99-4.47-8.97-4.52-9.01c-0.31-0.32-0.37-0.81-0.14-1.19s0.68-0.58,1.11-0.47   c5.29,1.32,10.21,8.76,10.42,9.08c0.3,0.46,0.17,1.08-0.29,1.38c-0.46,0.3-1.08,0.17-1.38-0.29c-0.03-0.05-2.5-3.78-5.58-6.25   c1.25,2.13,2.48,5.03,2.51,8.25c0,0.35-0.18,0.68-0.48,0.86c-0.3,0.18-0.68,0.2-0.99,0.03c-0.02-0.01-1.63-0.83-4.17-1.09   c0.36,1.03,0.73,2.46,0.73,3.91c0,0.19-0.06,0.38-0.17,0.53L18.89,45.35z"/><path d="M45.12,74.51c0.82,0.65,1.81,1.21,3.03,1.62c1.32-0.45,2.37-1.07,3.22-1.79C48.52,72.75,46.17,73.81,45.12,74.51z"/></g></svg>