<?xml version="1.0" encoding="UTF-8" standalone="no" ?>
<!DOCTYPE svg PUBLIC "-//W3C//DTD SVG 1.1//EN" "http://www.w3.org/Graphics/SVG/1.1/DTD/svg11.dtd">
<svg xmlns="http://www.w3.org/2000/svg" xmlns:xlink="http://www.w3.org/1999/xlink" version="1.1" width="512" height="512" viewBox="0 0 512 512" xml:space="preserve">
<rect x="0" y="0" width="100%" height="100%" fill="transparent"></rect>
<g transform="matrix(1 0 0 1 256 256)" id="b674288c-3fa2-4124-91a3-3fdddd5cf93b"  >
<rect style="stroke: none; stroke-width: 1; stroke-dasharray: none; stroke-linecap: butt; stroke-dashoffset: 0; stroke-linejoin: miter; stroke-miterlimit: 4; fill: rgb(255,255,255); fill-rule: nonzero; opacity: 1; visibility: hidden;" vector-effect="non-scaling-stroke"  x="-256" y="-256" rx="0" ry="0" width="512" height="512" />
</g>
<g transform="matrix(Infinity NaN NaN Infinity 0 0)" id="774509be-d2fb-41b8-993f-926a6653e838"  >
</g>
<g transform="matrix(4.73 0 0 4.73 256 256)"  >
<path style="stroke: none; stroke-width: 1; stroke-dasharray: none; stroke-linecap: butt; stroke-dashoffset: 0; stroke-linejoin: miter; stroke-miterlimit: 4; fill: rgb(0,0,0); fill-rule: evenodd; opacity: 0.99;" vector-effect="non-scaling-stroke"  transform=" translate(-50, -50)" d="M 61 16 C 61 22.0751 56.0751 27 50 27 C 43.9249 27 39 22.0751 39 16 C 39 9.92487 43.9249 5 50 5 C 56.0751 5 61 9.92487 61 16 Z M 61.6667 38.6825 C 69.8306 38.2311 77.5868 37.2987 84.0658 35.8851 C 86.7638 35.2964 88.4737 32.6321 87.8851 29.9342 C 87.2964 27.2362 84.6321 25.5263 81.9342 26.1149 C 64.3031 29.9617 35.6969 29.9617 18.0658 26.1149 C 15.3679 25.5263 12.7036 27.2362 12.1149 29.9342 C 11.5263 32.6321 13.2362 35.2964 15.9342 35.8851 C 22.5893 37.3371 30.592 38.2815 39 38.7182 L 39 38.7379 L 39 38.8013 L 39 38.8648 L 39 38.9283 L 39 38.9919 L 39 39.0555 L 39 39.1191 L 39 39.1827 L 39 39.2464 L 39 39.3101 L 39 39.3739 L 39 39.4377 L 39 39.5015 L 39 39.5653 L 39 39.6292 L 39 39.6931 L 39 39.757 L 39 39.8209 L 39 39.8849 L 39 39.9489 L 39 40.0129 L 39 40.077 L 39 40.141 L 39 40.2051 L 39 40.2692 L 39 40.3333 L 39 40.3975 L 39 40.4617 L 39 40.5258 L 39 40.59 L 39 40.6543 L 39 40.7185 L 39 40.7827 L 39 40.847 L 39 40.9113 L 39 40.9756 L 39 41.0399 L 39 41.1042 L 39 41.1685 L 39 41.2328 L 39 41.2972 L 39 41.3615 L 39 41.4259 L 39 41.4902 L 39 41.5546 L 39 41.619 L 39 41.6834 L 39 41.7478 L 39 41.8122 L 39 41.8765 L 39 41.9409 L 39 42.0053 L 39 42.0697 L 39 42.1341 L 39 42.1985 L 39 42.2629 L 39 42.3273 L 39 42.3917 L 39 42.4561 L 39 42.5205 L 39 42.5848 L 39 42.6492 L 39 42.7136 L 39 42.7779 L 39 42.8423 L 39 42.9066 L 39 42.9709 L 39 43.0352 L 39 43.0995 L 39 43.1638 L 39 43.2281 L 39 43.2924 L 39 43.3566 L 39 43.4209 L 39 43.4851 L 39 43.5493 L 39 43.6135 L 39 43.6777 L 39 43.7418 L 39 43.806 L 39 43.8701 L 39 43.9342 L 39 43.9982 L 39 44.0623 L 39 44.1263 L 39 44.1903 L 39 44.2543 L 39 44.3183 L 39 44.3822 L 39 44.4461 L 39 44.51 L 39 44.5738 L 39 44.6377 L 39 44.7015 L 39 44.7652 L 39 44.8289 L 39 44.8926 L 39 44.9563 L 39 45.0199 L 39 45.0835 L 39 45.1471 L 39 45.2106 L 39 45.2741 L 39 45.3376 L 39 45.401 L 39 45.4644 L 39 45.5278 L 39 45.5911 L 39 45.6543 L 39 45.7176 L 39 45.7807 L 39 45.8439 L 39 45.907 L 39 45.97 L 39 46.0331 L 39 46.096 L 39 46.1589 L 39 46.2218 L 39 46.2846 L 39 46.3474 L 39 46.4101 L 39 46.4728 L 39 46.5354 L 39 46.598 L 39 46.6606 L 39 46.723 L 39 46.7854 L 39 46.8478 L 39 46.9101 L 39 46.9724 L 39 47.0346 L 39 47.0967 L 39 47.1588 L 39 47.2208 L 39 47.2828 L 39 47.3447 L 39 47.4066 L 39 47.4684 L 39 47.5301 L 39 47.5917 L 39 47.6533 L 39 47.7149 L 39 47.7763 L 39 47.8378 L 39 47.8991 L 39 47.9604 L 39 48.0216 L 39 48.0827 L 39 48.1438 L 39 48.2048 L 39 48.2657 L 39 48.3266 L 39 48.3873 L 39 48.448 L 39 48.5087 L 39 48.5692 L 39 48.6297 L 39 48.6901 L 39 48.7505 L 39 48.8107 L 39 48.8709 L 39 48.931 L 39 48.991 L 39 49.051 L 39 49.1108 L 39 49.1706 L 39 49.2303 L 39 49.2899 L 39 49.3495 L 39 49.4089 L 39 49.4683 L 39 49.5276 L 39 49.5868 L 39 49.6459 L 39 49.7049 L 39 49.7638 L 39 49.8226 L 39 49.8814 L 39 49.94 L 39 49.9986 L 39 50.0571 L 39 50.1154 L 39 50.1737 L 39 50.2319 L 39 50.29 L 39 50.348 L 39 50.4059 L 39 50.4637 L 39 50.5214 L 39 50.579 L 39 50.6365 L 39 50.6939 L 39 50.7512 L 39 50.8085 L 39 50.8656 L 39 50.9226 L 39 50.9794 L 39 51.0362 L 39 51.0929 L 39 51.1495 L 39 51.206 L 39 51.2623 L 39 51.3186 L 39 51.3747 L 39 51.4308 L 39 51.4867 L 39 51.5425 L 39 51.5982 L 39 51.6538 L 39 51.7093 L 39 51.7646 L 39 51.8199 L 39 51.875 L 39 51.93 L 39 51.9849 L 39 52.0397 L 39 52.0944 L 39 52.1489 L 39 52.2034 L 39 52.2577 L 39 52.3118 L 39 52.3659 L 39 52.4198 L 39 52.4736 L 39 52.5273 L 39 52.5809 L 39 52.6343 L 39 52.6876 L 39 52.7408 L 39 52.7939 L 39 52.8468 L 39 52.8996 L 39 52.9523 L 39 53.0048 L 39 53.0572 L 39 53.1095 L 39 53.1616 L 39 53.2136 L 39 53.2655 L 39 53.3173 L 39 53.3689 L 39 53.4203 L 39 53.4716 L 39 53.5228 L 39 53.5739 L 39 53.6248 L 39 53.6756 L 39 53.7262 L 39 53.7767 L 39 53.827 L 39 53.8772 L 39 53.9273 L 39 53.9772 L 39 54.027 L 39 54.0766 L 39 54.1261 L 39 54.1754 L 39 54.2246 L 39 54.2736 L 39 54.3225 L 39 54.3712 L 39 54.4198 L 39 54.4682 L 39 54.5165 L 39 54.5646 L 39 54.6126 L 39 54.6604 L 39 54.7081 L 39 54.7556 L 39 54.8029 L 39 54.8501 L 39 54.8971 L 39 54.944 L 39 54.9907 L 39 55.0373 L 39 55.0836 L 39 55.1299 L 39 55.1759 L 39 55.2218 L 39 55.2676 L 39 55.3131 L 39 55.3585 L 39 55.4038 L 39 55.4488 L 39 55.4937 L 39 55.5385 L 39 55.583 L 39 55.6274 L 39 55.6717 L 39 55.7157 L 39 55.7596 L 39 55.8033 L 39 55.8468 L 39 55.8902 L 39 55.9334 L 39 55.9764 L 39 56.0192 L 39 56.0619 L 39 56.1044 L 39 56.1467 L 39 56.1888 L 39 56.2307 L 39 56.2725 L 39 56.314 L 39 56.3554 L 39 56.3967 L 39 56.4377 L 39 56.4785 L 39 56.5192 L 39 56.5596 L 39 56.5999 L 39 56.64 L 39 56.6799 L 39 56.7197 L 39 56.7592 L 39 56.7985 L 39 56.8377 L 39 56.8766 L 39 56.9154 L 39 56.954 L 39 56.9923 L 39 57.0305 L 39 57.0685 L 39 57.1063 L 39 57.1439 L 39 57.1813 L 39 57.2185 L 39 57.2555 L 39 57.2923 L 39 57.3289 L 39 57.3653 L 39 57.4015 L 39 57.4375 L 39 57.4733 L 39 57.5089 L 39 57.5442 L 39 57.5794 L 39 57.6144 L 39 57.6492 L 39 57.6837 L 39 57.7181 L 39 57.7522 L 39 57.7861 L 39 57.8198 L 39 57.8533 L 39 57.8866 L 39 57.9197 L 39 57.9526 L 39 57.9852 L 39 58.0177 L 39 58.0499 L 39 58.0819 L 39 58.1137 L 39 58.1452 L 39 58.1766 L 39 58.2077 L 39 58.2386 L 39 58.2693 L 39 58.2998 L 39 58.33 L 39 58.3601 L 39 58.3899 L 39 58.4194 L 39 58.4488 L 39 58.4779 L 39 58.5068 L 39 58.5355 L 39 58.5639 L 39 58.5922 L 39 58.6201 L 39 58.6479 L 39 58.6754 L 39 58.7027 L 39 58.7298 L 39 58.7566 L 39 58.7832 L 39 58.8095 L 39 58.8357 L 39 58.8615 L 39 58.8872 L 39 58.9126 L 39 58.9378 L 39 58.9627 L 39 58.9874 L 39 59.0119 L 39 59.0361 L 39 59.0601 L 39 59.0838 L 39 59.1073 L 39 59.1305 L 39 59.1535 L 39 59.1763 L 39 59.1988 L 39 59.221 L 39 59.243 L 39 59.2648 L 39 59.2863 L 39 59.3076 L 39 59.3286 L 39 59.3493 L 39 59.3699 L 39 59.3901 L 39 59.4101 L 39 59.4299 L 39 59.4494 L 39 59.4686 L 39 59.4876 L 39 59.5063 L 39 59.5248 L 39 59.543 L 39 59.5592 L 32.132 88.8589 C 31.5017 91.5474 33.1703 94.2378 35.8589 94.868 C 38.5474 95.4983 41.2378 93.8297 41.868 91.1411 L 47.9635 65.1374 L 52.7032 65.1374 L 58.7986 91.1411 C 59.4288 93.8297 62.1192 95.4983 64.8078 94.868 C 67.4963 94.2378 69.1649 91.5474 68.5347 88.8589 L 61.6667 59.5592 L 61.6667 59.543 L 61.6667 59.5248 L 61.6667 59.5063 L 61.6667 59.4876 L 61.6667 59.4686 L 61.6667 59.4494 L 61.6667 59.4299 L 61.6667 59.4101 L 61.6667 59.3901 L 61.6667 59.3699 L 61.6667 59.3493 L 61.6667 59.3286 L 61.6667 59.3076 L 61.6667 59.2863 L 61.6667 59.2648 L 61.6667 59.243 L 61.6667 59.221 L 61.6667 59.1988 L 61.6667 59.1763 L 61.6667 59.1535 L 61.6667 59.1305 L 61.6667 59.1073 L 61.6667 59.0838 L 61.6667 59.0601 L 61.6667 59.0361 L 61.6667 59.0119 L 61.6667 58.9874 L 61.6667 58.9627 L 61.6667 58.9378 L 61.6667 58.9126 L 61.6667 58.8872 L 61.6667 58.8615 L 61.6667 58.8357 L 61.6667 58.8095 L 61.6667 58.7832 L 61.6667 58.7566 L 61.6667 58.7298 L 61.6667 58.7027 L 61.6667 58.6754 L 61.6667 58.6479 L 61.6667 58.6201 L 61.6667 58.5922 L 61.6667 58.5639 L 61.6667 58.5355 L 61.6667 58.5068 L 61.6667 58.4779 L 61.6667 58.4488 L 61.6667 58.4194 L 61.6667 58.3899 L 61.6667 58.3601 L 61.6667 58.33 L 61.6667 58.2998 L 61.6667 58.2693 L 61.6667 58.2386 L 61.6667 58.2077 L 61.6667 58.1766 L 61.6667 58.1452 L 61.6667 58.1137 L 61.6667 58.0819 L 61.6667 58.0499 L 61.6667 58.0177 L 61.6667 57.9852 L 61.6667 57.9526 L 61.6667 57.9197 L 61.6667 57.8866 L 61.6667 57.8533 L 61.6667 57.8198 L 61.6667 57.7861 L 61.6667 57.7522 L 61.6667 57.7181 L 61.6667 57.6837 L 61.6667 57.6492 L 61.6667 57.6144 L 61.6667 57.5794 L 61.6667 57.5442 L 61.6667 57.5089 L 61.6667 57.4733 L 61.6667 57.4375 L 61.6667 57.4015 L 61.6667 57.3653 L 61.6667 57.3289 L 61.6667 57.2923 L 61.6667 57.2555 L 61.6667 57.2185 L 61.6667 57.1813 L 61.6667 57.1439 L 61.6667 57.1063 L 61.6667 57.0685 L 61.6667 57.0305 L 61.6667 56.9923 L 61.6667 56.954 L 61.6667 56.9154 L 61.6667 56.8766 L 61.6667 56.8377 L 61.6667 56.7985 L 61.6667 56.7592 L 61.6667 56.7197 L 61.6667 56.6799 L 61.6667 56.64 L 61.6667 56.5999 L 61.6667 56.5596 L 61.6667 56.5192 L 61.6667 56.4785 L 61.6667 56.4377 L 61.6667 56.3967 L 61.6667 56.3554 L 61.6667 56.314 L 61.6667 56.2725 L 61.6667 56.2307 L 61.6667 56.1888 L 61.6667 56.1467 L 61.6667 56.1044 L 61.6667 56.0619 L 61.6667 56.0192 L 61.6667 55.9764 L 61.6667 55.9334 L 61.6667 55.8902 L 61.6667 55.8468 L 61.6667 55.8033 L 61.6667 55.7596 L 61.6667 55.7157 L 61.6667 55.6717 L 61.6667 55.6274 L 61.6667 55.583 L 61.6667 55.5385 L 61.6667 55.4937 L 61.6667 55.4488 L 61.6667 55.4038 L 61.6667 55.3585 L 61.6667 55.3131 L 61.6667 55.2676 L 61.6667 55.2218 L 61.6667 55.1759 L 61.6667 55.1299 L 61.6667 55.0836 L 61.6667 55.0373 L 61.6667 54.9907 L 61.6667 54.944 L 61.6667 54.8971 L 61.6667 54.8501 L 61.6667 54.8029 L 61.6667 54.7556 L 61.6667 54.7081 L 61.6667 54.6604 L 61.6667 54.6126 L 61.6667 54.5646 L 61.6667 54.5165 L 61.6667 54.4682 L 61.6667 54.4198 L 61.6667 54.3712 L 61.6667 54.3225 L 61.6667 54.2736 L 61.6667 54.2246 L 61.6667 54.1754 L 61.6667 54.1261 L 61.6667 54.0766 L 61.6667 54.027 L 61.6667 53.9772 L 61.6667 53.9273 L 61.6667 53.8772 L 61.6667 53.827 L 61.6667 53.7767 L 61.6667 53.7262 L 61.6667 53.6756 L 61.6667 53.6248 L 61.6667 53.5739 L 61.6667 53.5228 L 61.6667 53.4716 L 61.6667 53.4203 L 61.6667 53.3689 L 61.6667 53.3173 L 61.6667 53.2655 L 61.6667 53.2136 L 61.6667 53.1616 L 61.6667 53.1095 L 61.6667 53.0572 L 61.6667 53.0048 L 61.6667 52.9523 L 61.6667 52.8996 L 61.6667 52.8468 L 61.6667 52.7939 L 61.6667 52.7408 L 61.6667 52.6876 L 61.6667 52.6343 L 61.6667 52.5809 L 61.6667 52.5273 L 61.6667 52.4736 L 61.6667 52.4198 L 61.6667 52.3659 L 61.6667 52.3118 L 61.6667 52.2577 L 61.6667 52.2034 L 61.6667 52.1489 L 61.6667 52.0944 L 61.6667 52.0397 L 61.6667 51.9849 L 61.6667 51.93 L 61.6667 51.875 L 61.6667 51.8199 L 61.6667 51.7646 L 61.6667 51.7093 L 61.6667 51.6538 L 61.6667 51.5982 L 61.6667 51.5425 L 61.6667 51.4867 L 61.6667 51.4308 L 61.6667 51.3747 L 61.6667 51.3186 L 61.6667 51.2623 L 61.6667 51.206 L 61.6667 51.1495 L 61.6667 51.0929 L 61.6667 51.0362 L 61.6667 50.9794 L 61.6667 50.9226 L 61.6667 50.8656 L 61.6667 50.8085 L 61.6667 50.7512 L 61.6667 50.6939 L 61.6667 50.6365 L 61.6667 50.579 L 61.6667 50.5214 L 61.6667 50.4637 L 61.6667 50.4059 L 61.6667 50.348 L 61.6667 50.29 L 61.6667 50.2319 L 61.6667 50.1737 L 61.6667 50.1154 L 61.6667 50.0571 L 61.6667 49.9986 L 61.6667 49.94 L 61.6667 49.8814 L 61.6667 49.8226 L 61.6667 49.7638 L 61.6667 49.7049 L 61.6667 49.6459 L 61.6667 49.5868 L 61.6667 49.5276 L 61.6667 49.4683 L 61.6667 49.4089 L 61.6667 49.3495 L 61.6667 49.2899 L 61.6667 49.2303 L 61.6667 49.1706 L 61.6667 49.1108 L 61.6667 49.051 L 61.6667 48.991 L 61.6667 48.931 L 61.6667 48.8709 L 61.6667 48.8107 L 61.6667 48.7505 L 61.6667 48.6901 L 61.6667 48.6297 L 61.6667 48.5692 L 61.6667 48.5087 L 61.6667 48.448 L 61.6667 48.3873 L 61.6667 48.3266 L 61.6667 48.2657 L 61.6667 48.2048 L 61.6667 48.1438 L 61.6667 48.0827 L 61.6667 48.0216 L 61.6667 47.9604 L 61.6667 47.8991 L 61.6667 47.8378 L 61.6667 47.7763 L 61.6667 47.7149 L 61.6667 47.6533 L 61.6667 47.5917 L 61.6667 47.5301 L 61.6667 47.4684 L 61.6667 47.4066 L 61.6667 47.3447 L 61.6667 47.2828 L 61.6667 47.2208 L 61.6667 47.1588 L 61.6667 47.0967 L 61.6667 47.0346 L 61.6667 46.9724 L 61.6667 46.9101 L 61.6667 46.8478 L 61.6667 46.7854 L 61.6667 46.723 L 61.6667 46.6606 L 61.6667 46.598 L 61.6667 46.5354 L 61.6667 46.4728 L 61.6667 46.4101 L 61.6667 46.3474 L 61.6667 46.2846 L 61.6667 46.2218 L 61.6667 46.1589 L 61.6667 46.096 L 61.6667 46.0331 L 61.6667 45.97 L 61.6667 45.907 L 61.6667 45.8439 L 61.6667 45.7807 L 61.6667 45.7176 L 61.6667 45.6543 L 61.6667 45.5911 L 61.6667 45.5278 L 61.6667 45.4644 L 61.6667 45.401 L 61.6667 45.3376 L 61.6667 45.2741 L 61.6667 45.2106 L 61.6667 45.1471 L 61.6667 45.0835 L 61.6667 45.0199 L 61.6667 44.9563 L 61.6667 44.8926 L 61.6667 44.8289 L 61.6667 44.7652 L 61.6667 44.7015 L 61.6667 44.6377 L 61.6667 44.5738 L 61.6667 44.51 L 61.6667 44.4461 L 61.6667 44.3822 L 61.6667 44.3183 L 61.6667 44.2543 L 61.6667 44.1903 L 61.6667 44.1263 L 61.6667 44.0623 L 61.6667 43.9982 L 61.6667 43.9342 L 61.6667 43.8701 L 61.6667 43.806 L 61.6667 43.7418 L 61.6667 43.6777 L 61.6667 43.6135 L 61.6667 43.5493 L 61.6667 43.4851 L 61.6667 43.4209 L 61.6667 43.3566 L 61.6667 43.2924 L 61.6667 43.2281 L 61.6667 43.1638 L 61.6667 43.0995 L 61.6667 43.0352 L 61.6667 42.9709 L 61.6667 42.9066 L 61.6667 42.8423 L 61.6667 42.7779 L 61.6667 42.7136 L 61.6667 42.6492 L 61.6667 42.5848 L 61.6667 42.5205 L 61.6667 42.4561 L 61.6667 42.3917 L 61.6667 42.3273 L 61.6667 42.2629 L 61.6667 42.1985 L 61.6667 42.1341 L 61.6667 42.0697 L 61.6667 42.0053 L 61.6667 41.9409 L 61.6667 41.8765 L 61.6667 41.8122 L 61.6667 41.7478 L 61.6667 41.6834 L 61.6667 41.619 L 61.6667 41.5546 L 61.6667 41.4902 L 61.6667 41.4259 L 61.6667 41.3615 L 61.6667 41.2972 L 61.6667 41.2328 L 61.6667 41.1685 L 61.6667 41.1042 L 61.6667 41.0399 L 61.6667 40.9756 L 61.6667 40.9113 L 61.6667 40.847 L 61.6667 40.7827 L 61.6667 40.7185 L 61.6667 40.6543 L 61.6667 40.59 L 61.6667 40.5258 L 61.6667 40.4617 L 61.6667 40.3975 L 61.6667 40.3333 L 61.6667 40.2692 L 61.6667 40.2051 L 61.6667 40.141 L 61.6667 40.077 L 61.6667 40.0129 L 61.6667 39.9489 L 61.6667 39.8849 L 61.6667 39.8209 L 61.6667 39.757 L 61.6667 39.6931 L 61.6667 39.6292 L 61.6667 39.5653 L 61.6667 39.5015 L 61.6667 39.4377 L 61.6667 39.3739 L 61.6667 39.3101 L 61.6667 39.2464 L 61.6667 39.1827 L 61.6667 39.1191 L 61.6667 39.0555 L 61.6667 38.9919 L 61.6667 38.9283 L 61.6667 38.8648 L 61.6667 38.8013 L 61.6667 38.7379 L 61.6667 38.6825 Z" stroke-linecap="round" />
</g>
</svg>
