<?xml version="1.0" encoding="UTF-8" standalone="no" ?>
<!DOCTYPE svg PUBLIC "-//W3C//DTD SVG 1.1//EN" "http://www.w3.org/Graphics/SVG/1.1/DTD/svg11.dtd">
<svg xmlns="http://www.w3.org/2000/svg" xmlns:xlink="http://www.w3.org/1999/xlink" version="1.1" width="1080" height="1080" viewBox="0 0 1080 1080" xml:space="preserve">
<g transform="matrix(1 0 0 1 540 540)" id="717b6094-fe35-4572-bdfc-0e77ca6271ac"  >
<rect style="stroke: none; stroke-width: 1; stroke-dasharray: none; stroke-linecap: butt; stroke-dashoffset: 0; stroke-linejoin: miter; stroke-miterlimit: 4; fill: rgb(255,255,255); fill-rule: nonzero; opacity: 1; visibility: hidden;" vector-effect="non-scaling-stroke"  x="-540" y="-540" rx="0" ry="0" width="1080" height="1080" />
</g>
<g transform="matrix(1 0 0 1 540 540)" id="7cb8a3ad-e697-40e1-a2e3-f73fc8099620"  >
</g>
<g transform="matrix(1.89 0 0 1.83 841.44 182.62)"  >
<path style="stroke: none; stroke-width: 1; stroke-dasharray: none; stroke-linecap: butt; stroke-dashoffset: 0; stroke-linejoin: miter; stroke-miterlimit: 4; fill: rgb(0,0,0); fill-rule: nonzero; opacity: 1;" vector-effect="non-scaling-stroke"  transform=" translate(-414.5, -65.75)" d="M 414.61 121.903 C 407.258 121.818 405.987 116.365 403.064 110.578 L 397.678 100.15 C 393.017 90.9754 393.619 88.8108 384.098 84.6806 L 374.768 80.6556 C 368.885 78.1072 359.235 75.1321 358.308 67.6335 C 357.358 59.9427 363.592 57.3397 369.348 54.7337 L 382.952 48.4219 C 390.644 44.7621 391.609 44.3775 395.438 36.4017 L 402.038 22.185 C 404.733 16.5187 407.147 10.3386 414.223 9.60225 C 420.334 9.78121 422.527 13.3476 425.26 18.5381 L 433.716 36.0068 C 437.341 43.1781 437.654 43.7262 444.651 47.1774 L 453.78 51.6597 C 459.626 54.3748 470.083 56.5896 470.741 64.5 C 471.589 74.6819 462.836 76.7385 455.144 80.16 L 439.72 87.1053 C 436.986 88.326 436.868 89.7796 435.53 92.4311 L 428.506 106.546 C 425.227 113.261 423.218 121.219 414.61 121.903 Z" stroke-linecap="round" />
</g>
<g transform="matrix(1.89 0 0 1.83 557.18 181.46)"  >
<path style="stroke: none; stroke-width: 1; stroke-dasharray: none; stroke-linecap: butt; stroke-dashoffset: 0; stroke-linejoin: miter; stroke-miterlimit: 4; fill: rgb(0,0,0); fill-rule: nonzero; opacity: 1;" vector-effect="non-scaling-stroke"  transform=" translate(-264.1, -65.12)" d="M 266.826 95.8342 C 264.678 96.0756 262.746 96.2401 260.598 95.8552 L 260.25 95.7897 C 256.256 95.0765 246.982 81.8534 241.384 77.9196 C 238.406 75.8275 234.827 73.7987 233.605 70.16 C 228.748 55.6954 241.652 54.8787 247.846 48.6357 C 252.458 43.9872 254.342 36.502 261.103 34.3178 C 274.261 32.726 274.451 42.8136 281.897 49.5471 C 285.926 53.191 292.892 54.6088 294.633 60.4149 C 298.954 74.8218 288.658 75.4628 281.416 81.7731 C 275.825 86.6448 275.399 93.3635 266.826 95.8342 Z" stroke-linecap="round" />
</g>
<g transform="matrix(1.89 0 0 1.83 214.47 280.48)"  >
<path style="stroke: none; stroke-width: 1; stroke-dasharray: none; stroke-linecap: butt; stroke-dashoffset: 0; stroke-linejoin: miter; stroke-miterlimit: 4; fill: rgb(0,0,0); fill-rule: nonzero; opacity: 1;" vector-effect="non-scaling-stroke"  transform=" translate(-82.76, -119.38)" d="M 84.8144 166.947 C 76.0738 167.454 73.0064 161.532 69.5943 154.779 L 64.3779 144.121 C 58.4077 131.631 48.6917 132.987 38.0946 125.769 C 31.4991 121.276 32.3441 112.192 39.1343 108.152 C 49.0442 102.255 59.2852 103.417 65.2923 92.1378 L 69.8695 82.6497 C 72.412 77.0463 73.9804 73.0103 80.7154 71.8221 C 88.4533 71.186 91.4101 76.8548 94.2765 82.8675 L 98.821 92.4001 C 101.68 97.8634 104.11 99.193 109.714 101.525 L 119.434 105.589 C 124.173 107.547 130.403 109.566 131.665 115.25 C 133.64 124.14 124.899 127.228 118.391 130.089 L 108.758 134.636 C 103.755 137.206 103.473 138.511 101.064 143.537 L 96.296 153.5 C 93.7557 158.86 91.3449 165.618 84.8144 166.947 Z" stroke-linecap="round" />
</g>
<g transform="matrix(1.89 0 0 1.83 541.85 660.14)"  >
<path style="stroke: none; stroke-width: 1; stroke-dasharray: none; stroke-linecap: butt; stroke-dashoffset: 0; stroke-linejoin: miter; stroke-miterlimit: 4; fill: rgb(0,0,0); fill-rule: nonzero; opacity: 1;" vector-effect="non-scaling-stroke"  transform=" translate(-255.98, -327.41)" d="M 474.776 166.316 C 477.71 171.834 478.209 176.648 478.455 182.705 C 495.341 183.576 509.753 194.943 509.971 212.362 L 509.985 467.981 C 509.981 471.615 510.212 475.445 509.34 479 C 502.829 505.561 477.374 502.431 456.69 502.413 L 316.941 502.339 C 301.135 501.851 308.467 490.065 300.042 487.288 C 292.023 484.645 279.007 495.986 271.902 499.425 C 265.625 502.463 251.184 503.88 244.286 501.413 C 238.11 499.205 232.802 495.412 227.362 491.824 C 201.806 474.969 211.702 501.911 197.144 502.398 L 29.9216 502.375 C 28.1603 502.349 26.0219 502.463 24.3845 501.774 L 23.8575 501.576 C 12.2769 497.915 3.03802 486.584 2.18654 474.348 C 1.81997 469.08 1.99656 463.715 1.99418 458.436 L 1.99862 214.266 C 2.00564 195.499 14.3766 183.161 33.5188 182.717 L 33.5027 180.25 C 33.7978 167.723 39.9895 154.507 53.3763 152.321 L 55.0942 152.262 C 61.6525 152.118 64.5568 156.208 64.6419 162.434 C 58.6682 169.885 48.8289 165.538 48.6411 183.875 L 48.5471 413.897 C 48.5511 424.562 49.3782 436.402 62.7405 438.364 C 65.5385 438.774 68.4268 438.711 71.2475 438.717 L 247.649 438.746 L 247.673 200.995 C 247.673 197.619 247.809 194.148 247.417 190.792 C 246.143 179.881 236.562 171.118 226.123 168.997 C 223.687 168.502 220.801 168.757 218.314 168.758 L 130.771 168.824 C 127.869 168.832 124.752 169.054 121.875 168.735 C 113.588 167.816 111.626 153.239 123.449 152.397 C 130.492 151.895 137.821 152.282 144.893 152.28 L 213.176 152.283 C 218.185 152.286 223.717 151.841 228.656 152.694 L 229.41 152.826 C 240.345 154.71 249.695 161.432 255.98 170.397 C 268.02 152.839 282.736 152.272 301.277 152.268 L 449.314 152.263 C 460.433 152.267 468.597 156.556 474.776 166.316 Z M 292.563 168.774 C 270.604 169.685 264.27 180.846 264.253 201.236 L 264.199 438.7 L 434.966 438.717 C 456.179 438.757 462.395 435.619 462.422 413.262 L 462.446 183.421 C 462.433 176.133 460.965 171.447 452.625 169.238 L 452.278 169.142 C 450.395 168.65 448.276 168.776 446.342 168.774 L 292.563 168.774 Z" stroke-linecap="round" />
</g>
<g transform="matrix(1.89 0 0 1.83 379.86 449.97)"  >
<path style="stroke: none; stroke-width: 1; stroke-dasharray: none; stroke-linecap: butt; stroke-dashoffset: 0; stroke-linejoin: miter; stroke-miterlimit: 4; fill: rgb(0,0,0); fill-rule: nonzero; opacity: 1;" vector-effect="non-scaling-stroke"  transform=" translate(-170.27, -212.25)" d="M 198.25 223.041 L 125.397 223.045 C 122.762 223.039 119.822 223.273 117.224 222.895 C 110.232 221.878 103.504 212.046 110.539 204.789 C 114.733 200.462 120.623 201.388 126.11 201.377 L 142.281 201.357 L 213.284 201.373 C 218.832 201.378 225.54 200.508 229.875 204.749 C 235.273 210.03 233.423 220.467 225.945 222.603 C 222.639 223.547 218.289 223.073 214.863 223.07 L 198.25 223.041 Z" stroke-linecap="round" />
</g>
<g transform="matrix(1.89 0 0 1.83 704.17 450.14)"  >
<path style="stroke: none; stroke-width: 1; stroke-dasharray: none; stroke-linecap: butt; stroke-dashoffset: 0; stroke-linejoin: miter; stroke-miterlimit: 4; fill: rgb(0,0,0); fill-rule: nonzero; opacity: 1;" vector-effect="non-scaling-stroke"  transform=" translate(-341.87, -212.34)" d="M 360.875 223.043 L 315.681 223.031 C 305.445 223.03 274.054 227.282 280.079 208.331 C 281.786 202.963 287.183 201.52 292.137 201.415 L 323.691 201.357 L 387.345 201.305 C 389.732 201.303 392.381 201.066 394.723 201.46 C 408.549 203.787 406.26 220.18 396.279 222.703 C 394.612 223.124 392.677 223.065 390.967 223.067 L 360.875 223.043 Z" stroke-linecap="round" />
</g>
<g transform="matrix(1.89 0 0 1.83 865.14 449.89)"  >
<path style="stroke: none; stroke-width: 1; stroke-dasharray: none; stroke-linecap: butt; stroke-dashoffset: 0; stroke-linejoin: miter; stroke-miterlimit: 4; fill: rgb(0,0,0); fill-rule: nonzero; opacity: 1;" vector-effect="non-scaling-stroke"  transform=" translate(-427.05, -212.2)" d="M 426.601 223.038 C 422.768 222.4 418.714 223.735 415.083 221.778 L 412.996 220.54 C 407.146 216.086 405.845 210.366 410.952 204.894 C 414.859 200.708 422.097 201.492 427.378 201.357 L 434.547 201.413 C 446.78 201.774 450.46 214.962 440.895 221.625 C 438.879 223.03 436.081 222.951 433.689 222.983 L 426.601 223.038 Z" stroke-linecap="round" />
</g>
<g transform="matrix(1.89 0 0 1.83 217.54 449.7)"  >
<path style="stroke: none; stroke-width: 1; stroke-dasharray: none; stroke-linecap: butt; stroke-dashoffset: 0; stroke-linejoin: miter; stroke-miterlimit: 4; fill: rgb(0,0,0); fill-rule: nonzero; opacity: 1;" vector-effect="non-scaling-stroke"  transform=" translate(-84.38, -212.1)" d="M 94.0624 222.743 L 81.87 223.013 C 77.718 223 73.029 223.427 69.5 220.75 C 61.2295 214.477 64.4997 202.824 76.0759 201.597 C 79.264 200.656 96.8751 201.429 98.0192 202.22 L 99.5851 203.354 C 107.903 209.452 103.07 221.604 94.0624 222.743 Z" stroke-linecap="round" />
</g>
<g transform="matrix(1.89 0 0 1.83 339.33 515.6)"  >
<path style="stroke: none; stroke-width: 1; stroke-dasharray: none; stroke-linecap: butt; stroke-dashoffset: 0; stroke-linejoin: miter; stroke-miterlimit: 4; fill: rgb(0,0,0); fill-rule: nonzero; opacity: 1;" vector-effect="non-scaling-stroke"  transform=" translate(-148.82, -248.21)" d="M 223.424 256.442 L 89.713 256.452 C 84.1019 256.452 78.3528 256.742 72.765 256.372 C 63.3349 255.748 60.9024 241.194 74.9589 239.85 L 218.497 239.878 C 224.074 239.887 232.315 239.548 232.582 247.403 C 232.806 253.999 229.342 256.171 223.424 256.442 Z" stroke-linecap="round" />
</g>
<g transform="matrix(1.89 0 0 1.83 743.76 515.64)"  >
<path style="stroke: none; stroke-width: 1; stroke-dasharray: none; stroke-linecap: butt; stroke-dashoffset: 0; stroke-linejoin: miter; stroke-miterlimit: 4; fill: rgb(0,0,0); fill-rule: nonzero; opacity: 1;" vector-effect="non-scaling-stroke"  transform=" translate(-362.82, -248.23)" d="M 435.731 256.509 L 304.648 256.458 C 299.233 256.462 293.485 256.865 288.118 256.367 C 278.591 255.483 274.109 240.794 290.843 239.856 L 437.972 239.839 C 438.853 239.867 439.628 239.959 440.433 240.345 L 440.75 240.505 C 448.687 244.412 448.161 256.035 435.731 256.509 Z" stroke-linecap="round" />
</g>
<g transform="matrix(1.89 0 0 1.83 743.82 580.86)"  >
<path style="stroke: none; stroke-width: 1; stroke-dasharray: none; stroke-linecap: butt; stroke-dashoffset: 0; stroke-linejoin: miter; stroke-miterlimit: 4; fill: rgb(0,0,0); fill-rule: nonzero; opacity: 1;" vector-effect="non-scaling-stroke"  transform=" translate(-362.85, -283.96)" d="M 370.81 294.954 L 289.964 294.866 C 289.001 294.82 288.078 294.685 287.18 294.32 L 285.105 293.362 C 276.057 288.155 278.71 276.068 288.952 273.659 L 289.375 273.562 C 292.26 272.872 295.355 273.051 298.307 273.045 L 354.803 273.011 L 425.967 273.013 C 429.353 273.016 432.823 272.864 436.199 273.125 C 444.095 273.733 448.557 282.695 444.7 289.476 C 441.332 295.397 432.867 294.933 427.033 294.941 L 370.81 294.954 Z" stroke-linecap="round" />
</g>
<g transform="matrix(1.89 0 0 1.83 346.23 580.92)"  >
<path style="stroke: none; stroke-width: 1; stroke-dasharray: none; stroke-linecap: butt; stroke-dashoffset: 0; stroke-linejoin: miter; stroke-miterlimit: 4; fill: rgb(0,0,0); fill-rule: nonzero; opacity: 1;" vector-effect="non-scaling-stroke"  transform=" translate(-152.48, -283.99)" d="M 141.022 294.95 L 125.871 294.944 C 122.988 294.939 119.214 295.347 116.472 294.455 C 106.966 291.363 103.599 274.801 120.547 273.22 C 125.576 272.751 130.858 273.052 135.924 273.049 L 163.92 273.019 L 178.785 273.006 C 181.554 273.007 184.705 272.721 187.375 273.512 C 200.163 277.3 198.805 292.465 186.478 294.7 C 184.711 295.021 182.724 294.916 180.927 294.919 L 141.022 294.95 Z" stroke-linecap="round" />
</g>
<g transform="matrix(1.89 0 0 1.83 468.58 580.74)"  >
<path style="stroke: none; stroke-width: 1; stroke-dasharray: none; stroke-linecap: butt; stroke-dashoffset: 0; stroke-linejoin: miter; stroke-miterlimit: 4; fill: rgb(0,0,0); fill-rule: nonzero; opacity: 1;" vector-effect="non-scaling-stroke"  transform=" translate(-217.22, -283.9)" d="M 221.559 294.694 C 216.826 294.652 211.688 295.559 207.457 292.804 C 198.409 286.914 200.961 275.266 212.768 273.329 C 217.232 272.724 223.866 272.709 227.625 275.35 C 235.957 281.204 233.092 292.853 221.559 294.694 Z" stroke-linecap="round" />
</g>
<g transform="matrix(1.89 0 0 1.83 217.2 581.07)"  >
<path style="stroke: none; stroke-width: 1; stroke-dasharray: none; stroke-linecap: butt; stroke-dashoffset: 0; stroke-linejoin: miter; stroke-miterlimit: 4; fill: rgb(0,0,0); fill-rule: nonzero; opacity: 1;" vector-effect="non-scaling-stroke"  transform=" translate(-84.2, -284.08)" d="M 93.0543 294.474 C 87.5658 295.291 73.6731 295.844 69.625 292.916 C 61.2884 286.886 63.646 274.96 76.113 273.596 C 80.99 273.079 93.2593 272.288 97.6802 274.57 L 98 274.739 C 107.333 279.564 104.819 293.014 93.0543 294.474 Z" stroke-linecap="round" />
</g>
<g transform="matrix(1.89 0 0 1.83 614.51 651.4)"  >
<path style="stroke: none; stroke-width: 1; stroke-dasharray: none; stroke-linecap: butt; stroke-dashoffset: 0; stroke-linejoin: miter; stroke-miterlimit: 4; fill: rgb(0,0,0); fill-rule: nonzero; opacity: 1;" vector-effect="non-scaling-stroke"  transform=" translate(-294.43, -322.62)" d="M 299.119 332.806 L 298.654 332.885 C 293.924 333.639 287.138 333.382 283.125 330.377 C 275.328 324.54 278.654 313.274 290.177 312.102 C 291.234 311.92 292.528 312.015 293.616 312.013 C 312.91 311.97 315.621 328.454 299.119 332.806 Z" stroke-linecap="round" />
</g>
<g transform="matrix(1.89 0 0 1.83 339.6 652.56)"  >
<path style="stroke: none; stroke-width: 1; stroke-dasharray: none; stroke-linecap: butt; stroke-dashoffset: 0; stroke-linejoin: miter; stroke-miterlimit: 4; fill: rgb(0,0,0); fill-rule: nonzero; opacity: 1;" vector-effect="non-scaling-stroke"  transform=" translate(-148.97, -323.25)" d="M 222.667 334.223 L 91.2222 334.246 C 85.9378 334.239 80.383 334.577 75.125 334.084 C 63.2197 332.967 59.1229 314.295 76.3452 312.345 C 83.9918 311.914 91.8938 312.321 99.5632 312.323 L 212.159 312.362 C 216.577 312.373 221.072 312.113 225.375 313.243 C 235.769 315.97 236.582 332.562 222.667 334.223 Z" stroke-linecap="round" />
</g>
<g transform="matrix(1.89 0 0 1.83 782.43 652.41)"  >
<path style="stroke: none; stroke-width: 1; stroke-dasharray: none; stroke-linecap: butt; stroke-dashoffset: 0; stroke-linejoin: miter; stroke-miterlimit: 4; fill: rgb(0,0,0); fill-rule: nonzero; opacity: 1;" vector-effect="non-scaling-stroke"  transform=" translate(-383.28, -323.17)" d="M 440.105 333.648 C 427.185 333.801 423.155 333.594 410.89 330.99 C 403.425 329.405 397.69 334.022 390.617 334.307 L 331.609 334.209 C 328.797 334.194 325.645 334.354 322.956 333.464 L 322.5 333.309 C 309.641 329.056 311.315 313.733 324.912 312.347 L 378.381 312.308 C 383.33 312.309 413.031 311.074 415.978 313.798 L 416.875 314.589 L 417.939 313.375 C 420.106 311.354 437.578 312.225 441.023 312.473 C 456.408 313.582 457.433 332.212 440.105 333.648 Z" stroke-linecap="round" />
</g>
<g transform="matrix(1.89 0 0 1.83 339.35 718.33)"  >
<path style="stroke: none; stroke-width: 1; stroke-dasharray: none; stroke-linecap: butt; stroke-dashoffset: 0; stroke-linejoin: miter; stroke-miterlimit: 4; fill: rgb(0,0,0); fill-rule: nonzero; opacity: 1;" vector-effect="non-scaling-stroke"  transform=" translate(-148.83, -359.29)" d="M 224.813 367.758 L 73.8704 367.554 C 62.3563 366.907 61.6706 352.648 73.5123 350.825 L 209.259 350.988 C 214.283 350.99 219.578 350.657 224.578 351.122 C 235.64 352.151 235.204 366.932 224.813 367.758 Z" stroke-linecap="round" />
</g>
<g transform="matrix(1.89 0 0 1.83 612.17 718.63)"  >
<path style="stroke: none; stroke-width: 1; stroke-dasharray: none; stroke-linecap: butt; stroke-dashoffset: 0; stroke-linejoin: miter; stroke-miterlimit: 4; fill: rgb(0,0,0); fill-rule: nonzero; opacity: 1;" vector-effect="non-scaling-stroke"  transform=" translate(-293.19, -359.45)" d="M 297.641 367.7 C 293.561 368.596 287.197 368.393 283.634 366.036 C 276.073 361.035 279.451 352.267 289.125 350.829 C 295.207 350.103 310.829 352.724 305.96 361.459 C 304.135 364.733 301.144 366.674 297.641 367.7 Z" stroke-linecap="round" />
</g>
<g transform="matrix(1.89 0 0 1.83 778.19 718.29)"  >
<path style="stroke: none; stroke-width: 1; stroke-dasharray: none; stroke-linecap: butt; stroke-dashoffset: 0; stroke-linejoin: miter; stroke-miterlimit: 4; fill: rgb(0,0,0); fill-rule: nonzero; opacity: 1;" vector-effect="non-scaling-stroke"  transform=" translate(-381.04, -359.27)" d="M 438.782 367.734 L 328.238 367.642 C 326.503 367.63 323.991 367.855 322.383 367.146 L 322.125 367.028 C 312.676 363.037 314.476 353.022 323.973 350.802 L 437.121 351.008 C 438.21 351.044 439.278 351.145 440.29 351.579 L 440.625 351.73 C 449.253 355.497 447.264 366.084 438.782 367.734 Z" stroke-linecap="round" />
</g>
<g transform="matrix(1.89 0 0 1.83 304.72 783.83)"  >
<path style="stroke: none; stroke-width: 1; stroke-dasharray: none; stroke-linecap: butt; stroke-dashoffset: 0; stroke-linejoin: miter; stroke-miterlimit: 4; fill: rgb(0,0,0); fill-rule: nonzero; opacity: 1;" vector-effect="non-scaling-stroke"  transform=" translate(-130.51, -395.18)" d="M 136.875 406.186 L 81.6466 406.181 C 77.7054 406.165 73.8985 406.675 70.4561 404.492 C 62.0551 399.163 63.354 386.742 73.3169 384.828 C 79.3827 383.662 86.2369 384.25 92.4131 384.245 L 124.203 384.221 L 178.233 384.195 C 180.864 384.196 183.726 384.008 186.314 384.542 C 200.972 387.566 197.352 404.072 187.377 406.068 C 185.805 406.383 183.92 406.201 182.308 406.201 L 136.875 406.186 Z" stroke-linecap="round" />
</g>
<g transform="matrix(1.89 0 0 1.83 468.51 783.42)"  >
<path style="stroke: none; stroke-width: 1; stroke-dasharray: none; stroke-linecap: butt; stroke-dashoffset: 0; stroke-linejoin: miter; stroke-miterlimit: 4; fill: rgb(0,0,0); fill-rule: nonzero; opacity: 1;" vector-effect="non-scaling-stroke"  transform=" translate(-217.18, -394.96)" d="M 220.812 405.725 C 217.66 404.653 212.401 407.565 207.266 403.705 C 198.169 396.867 202.095 385.82 214.381 384.343 C 221.402 383.521 230.481 384.83 231.871 393.175 C 233.182 401.042 227.925 404.784 220.812 405.725 Z" stroke-linecap="round" />
</g>
<g transform="matrix(1.89 0 0 1.83 737.63 783.97)"  >
<path style="stroke: none; stroke-width: 1; stroke-dasharray: none; stroke-linecap: butt; stroke-dashoffset: 0; stroke-linejoin: miter; stroke-miterlimit: 4; fill: rgb(0,0,0); fill-rule: nonzero; opacity: 1;" vector-effect="non-scaling-stroke"  transform=" translate(-359.57, -395.26)" d="M 373.875 406.187 L 341.652 406.189 C 336.252 406.185 330.474 406.588 325.125 406.047 C 314.335 404.956 305.764 384.391 333.001 384.26 L 345.186 384.228 L 379.67 384.221 C 387.098 384.225 402.312 383.041 404.208 393.328 C 405.277 399.13 399.957 405.217 394.367 406.02 C 392.056 406.352 389.555 406.183 387.215 406.187 L 373.875 406.187 Z" stroke-linecap="round" />
</g>
<g transform="matrix(1.89 0 0 1.83 866.75 784.13)"  >
<path style="stroke: none; stroke-width: 1; stroke-dasharray: none; stroke-linecap: butt; stroke-dashoffset: 0; stroke-linejoin: miter; stroke-miterlimit: 4; fill: rgb(0,0,0); fill-rule: nonzero; opacity: 1;" vector-effect="non-scaling-stroke"  transform=" translate(-427.9, -395.34)" d="M 433.552 406.06 C 428.555 406.043 422.885 406.792 417.995 405.886 L 417.625 405.811 C 408.426 404.028 402.702 385.868 422.727 384.354 L 436.125 384.599 C 449.29 385.961 449.405 401.753 439.919 405.363 C 438.023 406.084 435.572 405.984 433.552 406.06 Z" stroke-linecap="round" />
</g>
<g transform="matrix(1.89 0 0 1.83 614.79 784.02)"  >
<path style="stroke: none; stroke-width: 1; stroke-dasharray: none; stroke-linecap: butt; stroke-dashoffset: 0; stroke-linejoin: miter; stroke-miterlimit: 4; fill: rgb(0,0,0); fill-rule: nonzero; opacity: 1;" vector-effect="non-scaling-stroke"  transform=" translate(-294.58, -395.28)" d="M 299.706 405.506 C 295.052 406.301 287.528 406.345 283.694 403.375 C 276.062 397.465 278.595 386.049 290.069 384.843 C 313.449 382.176 315.303 402.214 299.706 405.506 Z" stroke-linecap="round" />
</g>
</svg>
