<?xml version="1.0" encoding="utf-8"?>
<svg viewBox="0 0 100 125" x="0px" y="0px" enable-background="new 0 0 100 100&quot; x=&quot;0px" xmlns="http://www.w3.org/2000/svg">
  <path fill="#000000" fill-rule="evenodd" d="M 21.706 20.627 C 17.663 16.843 17.688 10.774 21.784 7.02 C 25.908 3.242 32.593 3.242 36.708 7.012 L 74.495 41.056 C 79.847 45.877 79.845 53.708 74.495 58.528 L 36.717 92.564 C 32.593 96.343 25.908 96.343 21.784 92.564 C 17.688 88.81 17.663 82.739 21.706 78.957 L 45.468 49.791 L 21.706 20.627 Z M 60.925 49.791 C 60.925 54.352 63.628 58.463 67.851 60.638 L 72.381 56.558 C 76.528 52.821 76.529 46.765 72.381 43.027 L 67.851 38.946 C 63.628 41.121 60.925 45.232 60.925 49.791 Z M 45.545 18.85 L 33.334 30.038 C 33.296 30.073 33.259 30.106 33.218 30.136 L 37.845 35.817 L 51.001 23.765 L 45.545 18.85 Z M 33.219 69.447 C 33.257 69.476 33.296 69.51 33.334 69.544 L 45.545 80.734 L 50.999 75.82 L 37.845 63.768 L 33.219 69.447 Z M 43.394 82.671 L 31.398 71.681 L 24.061 80.687 L 23.917 80.838 C 20.973 83.535 20.973 87.911 23.917 90.61 C 26.863 93.307 31.638 93.307 34.594 90.601 L 43.394 82.671 Z M 31.398 27.904 L 43.394 16.913 L 34.584 8.975 C 31.638 6.276 26.863 6.276 23.917 8.975 C 20.973 11.672 20.973 16.047 23.917 18.747 L 24.061 18.897 L 31.398 27.904 Z M 39.669 38.055 L 48.558 48.965 C 48.958 49.455 48.958 50.129 48.558 50.62 L 39.669 61.53 L 53.151 73.883 L 65.628 62.641 C 60.897 59.897 57.908 55.091 57.908 49.791 C 57.908 44.492 60.897 39.687 65.628 36.943 L 53.151 25.702 L 39.669 38.055 Z" style=""/>
</svg>