<svg xmlns="http://www.w3.org/2000/svg" viewBox="0 0 100 125" x="0px" y="0px"><defs><style>.cls-1{fill-rule:evenodd;stroke-width:0px;}</style></defs><path class="cls-1" d="m29.02,54.24l-.04-.13c-2.16.7-4.01,1.05-5.57,1.13-.29.02-.57.02-.83.02-1.6-.01-2.82-.33-3.69-.84-.76-.45-1.24-1.04-1.45-1.69-.09-.28-.13-.58-.13-.88.04-3.88,3.93-4.46,7.46-4.98,2.84-.42,5.51-.82,6.8-2.42,4.55-2.64-.82-8.2.66-12.34-2.06,1.01-2.76,5.78-2.59,7.61-.75-1.08-1.04-4.13-.87-5.22-3.64,4.41-1.07,6.15.37,8.39-.92.81-2.78,1.08-4.76,1.38-4.59.68-9.64,1.43-9.7,7.55,0,.58.08,1.15.25,1.7.4,1.25,1.27,2.36,2.62,3.15.79.46,1.75.82,2.89,1.02.55.1,1.14.16,1.77.18-6.09,5.73-1.17,14.36-7,21.19-3.85,4.51.34,5.66-2.98,10.78-2.03,3.12-2.1,3.66-1.06,7.66h8.86c0-1.1-.32-2.12-.87-2.94-.42-.64-.98-1.16-1.63-1.51-1.38-8.18,1.95-9.2,13.31-17.3.19-.14.38-.27.58-.41,1.93.56,4.73,1.69,7.69,2.73,3.53,1.24,7.27,2.35,10,2.21-.12-.43-.23-.86-.34-1.29-.42-1.75-.7-3.55-.83-5.36-.11-1.57-.11-3.14,0-4.69.27,1.73.52,3.18.8,4.53.38,1.81.81,3.44,1.47,5.32.37,1.06.8,2.2,1.34,3.5,0,0,0,0,0,0,1.36,3.01,1.91,5.6.46,11.57-.25.25-1.61,1.45-1.61,3.65h9.88c0-2.14-1.31-3.35-1.44-3.48-1.11-4.45-1.15-7.14-.41-9.28.22-.63.5-1.21.85-1.77.56-1.22,1.16-2.6,1.68-3.99.78-2.07,1.42-4.18,1.62-5.91.14,2.04,0,3.99-.45,5.87-.1.45-.22.89-.36,1.33,3.78-.14,7.49-1.63,10.26-3.67.49-.48.94-.98,1.34-1.5.47-.62.88-1.28,1.23-1.97-.25.96-.57,1.85-.96,2.68-.25.54-.53,1.04-.84,1.52,2.11,6.02,2.86,12.11,1.44,16.64-.74,1.02-1.18,2.29-1.18,3.54h9.88c0-1.28-.5-2.59-1.31-3.62-8.36-21.65,20.86-30.98.47-62.48-1.06-1.5-1.9-3.16-2.5-4.98.52.01.97,0,1.36-.05,3.34-.39,2.22-2.8,5.82-4.48-2.56-1.08-4.92-1.19-7.08-.33,0,0-.01,0-.02,0,0,0,.01,0,.01,0,8.35-4.76,9.47-15.07.27-19.06,3.54,5.52,1.83,10.43-2.67,13.34-1.06.69-2.28,1.26-3.63,1.71-.09.03-.17.06-.26.08h0c-.95.32-1.93.79-2.95,1.4-1.35-.18-2.52-.21-3.51-.09-1.8.23-3.01.97-3.65,2.21-.41.72-.85,1.41-1.32,2.05-1.1,1.48-2.37,2.66-3.8,3.16-4.56.94-4.1,7.82-.3,8.24,1.61.08,4.89.99,6.96,1.86.69.21,1.32.56,1.89,1.01,3.24,2.56,4.74,8.49,6.51,12.26-2.04-3.42-3.4-9.46-8.36-11.25-.57-.21-1.2-.36-1.87-.44-13.51,7.9-8.94,11.33-26.23,14.56-3.1.42-5.66.97-7.77,1.63h0Zm4.06,43.26h0c-2.57-4.01-2.7-4.54-1.86-7.66,1.37-5.12-3.26-6.27-1.12-10.78.24-.5.41-1.01.54-1.53.34-.24.69-.49,1.05-.74,1.05.34,2.38.83,3.82,1.36.85.31,1.74.64,2.65.97-2.99,3.59-3.68,8.4-1.16,13.47,1.98.24,3.65,2.35,3.82,4.92h-7.73ZM62.16,20.54c-.49.85-1.01,1.66-1.58,2.36-6.6-1.81-9.58-8.02-5.25-14.54-.46,6.11,3.7,9.05,8.75,10.15-.84.49-1.48,1.17-1.92,2.03h0Zm11.59,1.24c.75,3.76-1.98,2.64-4.77,3.49l4.77-3.49Z"/></svg>