<?xml version="1.0" encoding="utf-8"?>
<!-- Generator: Adobe Illustrator 16.0.0, SVG Export Plug-In . SVG Version: 6.00 Build 0)  -->
<!DOCTYPE svg PUBLIC "-//W3C//DTD SVG 1.1//EN" "http://www.w3.org/Graphics/SVG/1.1/DTD/svg11.dtd">
<svg version="1.1" id="Layer_1" xmlns="http://www.w3.org/2000/svg" xmlns:xlink="http://www.w3.org/1999/xlink" x="0px" y="0px"
	 width="841.89px" height="595.28px" viewBox="0 0 841.89 595.28" enable-background="new 0 0 841.89 595.28" xml:space="preserve">
<path d="M530.406,153.391c-8.628,5.324-18.273,6.012-28.362,5.125c-0.823-0.07-1.648-0.146-2.458-0.295
	c-0.805-0.147-1.593-0.386-2.623-0.642c2.999-3.294,3.194-7.275,3.284-11.298c0.004-0.126,0.017-0.25,0.021-0.372
	c1.497,0.568,3.052,1.011,4.474,1.766c0.561,0.298,1.116,0.6,1.675,0.885c1.53,1.979,4.101,2.995,7.624,2.957
	c2.211,0.667,4.414,1.355,6.721,1.64C523.942,153.544,527.199,153.422,530.406,153.391z M337.499,429.846
	c-1.968,0.901-4.085,1.488-6.828,2.473c1.535,3.141,2.496,6.203,4.313,8.624c6.488,8.636,8.148,18.513,7.586,28.849
	c-0.306,5.592,3.706,9.687,3.528,15.062l0.718-0.126c0.539-3.311,1.078-6.626,1.615-9.944l0.533-0.008
	c0.242,3.129,0.485,6.255,0.753,9.71c3.152-0.979,5.901-1.831,8.726-2.711c-0.445-1.691-0.809-3.077-1.173-4.457
	c0.117-0.036,0.234-0.071,0.352-0.108c0.796,1.189,1.593,2.379,2.449,3.664c1.041-0.462,2.012-0.893,3.126-1.384
	c-1.07-1.809-2.034-3.438-3.075-5.197c-0.048-0.033-0.09-0.072-0.117-0.131c-0.038-0.099-0.088-0.188-0.13-0.285
	c-0.081-0.134-0.158-0.265-0.238-0.403c0.02,0.005,0.04,0.009,0.061,0.013c-0.903-1.852-2.188-3.495-2.933-5.433
	c-0.009-0.017-0.004-0.032-0.011-0.049c-0.224-0.361-0.431-0.748-0.602-1.181c-2.105-5.438-4.492-10.776-6.282-16.311
	c-1.802-5.577-0.456-8.629,4.631-11.658c5.977-3.56,11.988-7.082,18.139-10.32c6.449-3.394,11.125-8.536,14.201-14.851
	c2.694-5.529,4.32-11.582,6.395-17.412c1.576-4.424,1.316-5.333-2.241-8.54c-3.836,1.385-7.618,2.727-11.374,4.127
	c-4.056,1.51-6.361,4.641-7.752,9.353c-0.136-5.519,2.454-9.179,7.302-11.002c3.634-1.367,7.303-2.642,11.166-4.036
	c-1.798-3.91-3.381-7.351-4.942-10.754c-5.766,3.021-11.473,2.646-17.251,0.207c-1.128-0.477-2.621-1.035-3.633-0.676
	c-6.649,2.365-12.915,5.52-16.289,12.154c-2.218,4.367-3.83,9.04-5.824,13.846c1.426,0.468,2.645,0.763,3.77,1.267
	c0.865,0.389,1.998,0.857,2.344,1.602c1.745,3.767,2.941,7.701,2.064,11.931C349.053,423.058,343.776,426.954,337.499,429.846z
	 M660.471,311.444c-1.648,36.097-8.903,70.889-25.424,103.344c-8.464,16.626-18.787,32.041-30.839,46.289
	c-19.91,23.545-43.81,42.148-70.937,56.59c-22.299,11.865-46.104,19.437-71.023,23.547c-19.269,3.182-38.65,4.274-58.132,3.165
	c-20.748-1.186-41.042-4.926-60.697-11.807c-0.261-0.093-0.51-0.209-0.757-0.344c-41.174-11.637-72.734-42.627-72.734-42.627
	l0.009,0.003c-59.675-51.466-89.429-117.247-86.234-198.088c3.086-78.176,43.116-139.479,89.002-175.224l-0.011,0.004
	c0,0,25.476-22,63.758-35.983v0.001c1.631-0.64,3.262-1.267,4.904-1.868c11.182-4.102,22.627-7.018,34.248-9.167l0,0
	c0,0,80.434-20.997,137.046,17.749c1.923,1.005,3.838,2.015,5.768,2.99c0.634,0.319,1.196,0.781,2.28,1.499l17.674,12.806
	l-0.001,0.01c19.544,11.57,37.349,25.382,53.047,41.941c23.056,24.31,39.261,52.645,49.855,84.357
	c7.947,23.786,11.215,48.181,11.18,73.204c-0.04,24.646-3.487,48.71-10.609,72.258c-9.108,30.113-24.346,56.856-44.79,80.692
	c-11.641,13.568-24.829,25.422-39.552,35.548c-3.258,2.245-5.751,1.71-8.467-1.38c-6.248,3.454-11.945,2.369-17.449-1.841
	c-1.924-1.464-4.334-2.279-6.385-3.606c-2.222-1.438-4.281-3.117-6.565-4.813c-0.728,0.286-2.137,0.832-3.548,1.38
	c-0.061-0.216-0.123-0.438-0.186-0.652c-0.163,0.454-0.28,0.931-0.5,1.358c-0.194,0.379-0.498,0.701-1.119,1.541
	c1.288,0.228,2.227,0.654,3.051,0.491c2.881-0.574,9.629,1.961,11.521,4.108c1.336,1.521,3.029,2.821,4.774,3.862
	c2.463,1.473,5.074,2.725,7.721,3.841c0.754,0.317,1.892-0.017,2.766-0.303c2.143-0.707,4.188-1.798,6.367-2.274
	c1.422-0.313,3.019,0.18,4.534,0.309l0.18,1.07c-3.1,2.034-6.154,4.14-9.305,6.096c-23.455,14.535-48.775,24.428-75.784,29.86
	c-20.388,4.094-41.013,5.722-61.813,4.416c-14.911-0.939-29.743-2.492-44.251-6.23c-4.144-1.072-8.2-2.475-12.269-3.814
	c-1.359-0.448-2.632-1.167-4.802-2.157c4.08-2.954,7.63-5.542,11.196-8.104c1.639-1.177,3.317-2.297,5.234-3.629
	c1.01,1.957,2.313,4.48,3.656,7.091c-1.277,0.603-2.308,1.092-3.629,1.723c2.067,1.361,4.064,2.672,6.169,4.058
	c0.051-0.854,0.088-1.461,0.123-2.049c6.586-0.948,6.586-0.948,6.213-4.408c-8.182,0.771-7.894-6.799-11.273-11.302
	c-0.561,0.313-1.741,0.559-1.992,1.182c-1.066,2.648-3.515,3.273-5.68,4.409c-3.568,1.864-7.125,3.702-8.939,7.705
	c-0.757,1.675-2.315,2.511-4.331,2.178c-4.432-0.742-9.096-0.475-13.599-3.189c4.881-1.052,9.309-2.007,13.772-2.965
	c-1.324-3.191-2.38-5.724-3.377-8.129c-2.159-0.504-4.559-1.066-7.115-1.671c-1.474-1.772-3.15-3.805-5.041-6.083
	c4.136-2.659,8.358-5.45,12.648-8.122c7.538-4.69,15.118-9.305,23.739-11.842c3.326-0.98,9.024,1.364,10.839,4.352
	c1.114,1.836,2.513,3.498,3.771,5.225c3.422-2.622,7.105-5.448,10.799-8.27c0.289-0.222,0.617-0.496,0.953-0.533
	c3.427-0.397,6.857-0.897,10.302-1.035c1.05-0.042,2.144,0.945,3.519,1.604c0.69-0.625,0.826-3.449,3.435-1.919
	c0.031,0.024,0.262-0.224,0.346-0.372c2.194-3.81,6.062-5.034,9.823-6.577c-1.305,0.167-2.605,0.335-4.385,0.563
	c-0.224-2.185-0.547-4.229-0.631-6.282c-0.361-8.895-0.581-17.794-1.033-26.681c-0.09-1.749-0.986-3.457-1.523-5.184
	c-0.508-1.623-1.03-3.24-1.582-4.979c-0.205,0.512-0.429,1.06-0.841,2.084c-2.074-5.685-5.546-10.319-3.46-16.826
	c1.932-6.009,0.943-11.983-3.229-17.385c-3.841-4.972-7.096-10.417-10.396-15.781c-3.879-6.296-5.148-13.216-4.247-20.551
	c0.119-0.981,0.117-1.982,0.173-2.973c-0.323-0.032-0.642-0.062-0.964-0.091c-0.317,4.026-0.999,8.069-0.831,12.075
	c0.119,2.797-0.985,3.783-3.28,4.348c-7.586,1.867-13.812-1.237-19.604-5.552c-1.809-1.347-3.201-3.257-4.954-4.748
	c0.909,4.066,4.322,5.981,7.025,8.143c-3.323,1.834-6.714,3.519-9.911,5.513c-4.311,2.683-6.457,6.984-8.499,11.495
	c-2.241,4.948-4.811,9.812-7.813,14.331c-3.46,5.201-6.169,10.54-6.851,16.819c-0.42,3.837-0.244,4.858,1.853,8.816
	c-0.839-0.603-1.675-1.204-2.62-1.888c-7.722,5.821-10.745,14.856-15.463,23.208c0.029,0.015,0.061,0.029,0.092,0.05
	c-0.321,0.41-0.572,0.899-0.784,1.387c-0.015-0.009-0.026-0.018-0.039-0.025c-0.04,0.123-0.075,0.253-0.113,0.38
	c-0.066,0.161-0.134,0.322-0.196,0.475c-0.033,0.071-0.023,0.137,0,0.185c-3.988,13.262-3.604,26.701-1.054,40.411
	c-5.188-0.061-2.885-4.411-4.84-6.583c0.145,2.401,0.266,4.413,0.383,6.4c-6.775,1.282-6.856-0.196-7.632-6.455
	c-0.517-0.123-1.2-0.098-1.315-0.343c-1.362-2.859-1.237-5.755-0.382-8.784c2.823-9.994,5.515-20.026,8.242-30.046
	c0.064-0.239-0.052-0.525-0.675-1.175c-1.211,1.776-2.423,3.554-3.581,5.253c-0.678-2.394-0.104-4.492,2.236-6.094
	c1.48-1.014,1.858-2.21,0.594-3.867c-1.258-1.64-2.181-3.535-3.618-5.197c0.355,1.536,0.717,3.068,1.074,4.607
	c-2.456-5.65-2.661-11.029-1.078-16.194c-7.558-7.689-17.65-22.71-24.338-33.197c-0.023,0.017-0.052,0.029-0.077,0.048
	c-0.232-0.297-0.454-0.604-0.65-0.926c-0.349-0.566-0.648-1.125-1.028-1.614c-1.85-2.872-3.577-5.786-5.208-8.737
	c-0.09-0.148-0.136-0.227-0.136-0.227l0.021,0.023c-7.978-14.5-13.358-29.976-16.479-46.307l-0.008,0.007
	c-1.229-3.887-1.896-8.078-2.258-11.77c-0.013-0.04-0.021-0.081-0.034-0.122c-0.202-0.767-0.219-1.556-0.251-2.345
	c-0.004-0.546-0.01-1.093-0.015-1.642c-0.184-3.729-0.07-6.299-0.066-6.377c-0.104-9.123-0.218-18.191,0.082-27.244
	c0.25-7.559,1.619-15.095,2.782-22.595c0.351-2.248,0.096-3.458-2.179-3.966c-0.259-0.056-0.429-0.512-0.982-1.218
	c3.961,0.76,4.689-1.553,5.368-4.326c4.321-17.64,11.596-34.058,21.363-49.302c16.15-25.196,37.516-44.504,63.972-57.945v-0.001
	c25.714-13.541,45.962-17.061,45.962-17.061l0,0c11.069-2.423,22.28-3.835,33.7-3.619c0.049,0.002,0.093,0.096,0.628,0.684
	c-2.582,0.573-4.8,1.385-7.056,1.514c-9.052,0.521-18.003,1.644-26.825,3.565c-19.141,5.379-32.461,10.807-40.016,14.264
	c-0.126,0.067-0.249,0.131-0.372,0.186c-0.401,0.183-0.806,0.363-1.209,0.549c-0.035,0.016-0.077,0.036-0.116,0.055
	c-0.166,0.076-0.337,0.159-0.505,0.24c-0.252,0.12-0.501,0.237-0.731,0.35c-21.716,10.778-40.364,25.356-55.418,44.458
	c-14.676,18.628-25.148,39.33-31.222,62.257c-1.235,4.677-1.287,4.664,3.393,6.771c-5.031,1.714-5.226,1.686-5.602,4.145
	c-1.05,6.87-2.382,13.742-2.749,20.661c-0.471,8.874-0.203,17.791-0.065,26.689c0,0,1.072,12.26,2.17,19.529
	c3.487,21.22,10.985,40.73,22.686,58.817c11.289,17.491,20.812,29.534,24.189,33.673c0.711-1.762,1.633-3.501,2.74-5.218
	c-7.304-8.143-13.991-18.294-18.584-25.882c-0.669-0.938-1.323-1.886-2.036-2.785l0,0c-0.364-0.459-0.736-0.908-1.14-1.338
	c-0.022-0.024-0.05-0.041-0.073-0.063c-0.161-0.315-0.321-0.633-0.493-0.942c-0.085-0.157-0.194-0.276-0.313-0.364
	c-11.715-18.709-19.044-38.96-22.512-60.621c-0.939-5.358-1.219-15.463-1.219-15.463l0.008,0.027
	c-1.052-18.824,0.588-37.349,4.781-55.748c5.61-24.623,17.426-46.079,33.656-65.12c14.916-17.503,33.011-30.93,53.916-40.443
	l0.031-0.03c24.762-11.269,40.459-13.728,40.459-13.728v0.003c6.277-1.309,12.631-2.172,19.095-2.399
	c0.061,0.257,0.121,0.51,0.178,0.762c-1.832,0.672-3.619,1.624-5.513,1.965c-5.049,0.91-10.112,1.77-15.255,2.629
	c-17.545,3.11-38.745,13.33-43.829,15.867c-70.554,35.951-91.788,107.624-84.285,165.649l0.367,6.02
	c3.157,21.912,10.864,41.803,22.441,60.51l21.582,29.972c2.388-2.122,4.769-4.256,7.169-6.363c2.071-1.816,2.933-4.085,2.924-6.828
	c-0.021-5.958,0.166-11.917,0.069-17.873c-0.046-2.916-0.403-5.845-0.845-8.736c-0.896-5.874-1.875-11.735-2.969-17.572
	c-0.068-0.35-0.098-0.678-0.108-0.993c-3.121-29.873,24.168-42.646,24.168-42.646c6.629-3.514,13.559-6.543,19.095-11.82
	c1.395-1.329,2.905-2.559,4.166-4.004c7.202-8.254,16.001-14.536,25.224-20.232c11.032-6.812,14.061-11.396,11.847-27.242
	c5.837-2.01,12.251-3.694,14.258-10.704c1.304-4.548,1.056-9.2-0.304-12.843c0,2.256,0.414,5.394-0.083,8.383
	c-1.248,7.514-5.269,11.311-12.783,12.702c-1.521,0.28-3.071,0.388-4.6,0.619c-3.391,0.514-6.499,0.867-9.11,4.064
	c-1.787,2.188-5.456,3.102-8.466,3.945c-2.459,0.688-4.033-0.922-4.756-4.275c6.783,1.519,9.279-3.492,11.686-8.45
	c-1.18,1.169-2.529,2.218-3.511,3.54c-1.582,2.129-3.521,3.358-6.181,3.554c-3.896,0.289-4.607-0.57-3.418-4.309
	c-4.138-3.677-4.536-6.708-1.57-11.356c0.638-0.995,1.142-2.083,1.591-3.182c3.355-8.195,6.65-16.416,10.028-24.6
	c2.531-6.135,2.859-12.442,1.497-18.85c-0.387-1.818-0.234-3.113,1.331-4.304c4.116-3.142,6.396-7.334,7.104-12.492
	c0.513-3.742,1.206-3.987,5.011-4.326c4.959-0.44,9.33,1.176,14.55,3.64c-1.842,0.972-3.081,1.927-4.474,2.308
	c-4.609,1.258-8.362,3.759-11.086,7.598c-1.102,1.551-1.363,3.671-2.329,5.343c-1.199,2.082-2.671,4.018-4.153,5.918
	c-0.642,0.823-1.611,1.389-2.431,2.074c0.184,0.216,0.367,0.435,0.55,0.653l5.748-5.086c0.113,0.082,0.227,0.163,0.343,0.24
	c-1.043,1.492-2.084,2.985-3.158,4.523c3.321-1.62,4.766-4.214,4.86-7.843c0.037-1.357,0.658-2.869,1.448-4.004
	c3.301-4.731,7.862-7.503,13.622-8.276c2.788,4.535,6.263,7.904,11.823,8.539c0.887,0.098,2.011,1.211,2.392,2.12
	c1.689,3.996,4.426,6.065,8.885,5.973c2.456-0.05,4.913,0.53,7.375,0.586c3.262,0.077,6.196-1.145,7.406-4.238
	c2.789-7.14,8.841-8.399,15.28-8.946c2.57-0.218,5.196,0.234,7.857,0.893c-0.556,0.249-1.087,0.566-1.664,0.73
	c-7.1,2.007-12.49,6.361-16.776,12.22c-3.838,5.244-8.341,9.293-15.143,10.484c-4.294,0.755-7.919,0.206-11.379-2.36
	c-1.4-1.039-3.01-1.798-5.396-3.192c-0.196,4.01-0.357,7.296-0.519,10.584c0.26,0.046,0.519,0.09,0.778,0.136
	c0.351-2.651,0.7-5.299,1.1-8.321c2.141,1.598,4.091,3.012,5.993,4.487c3.213,2.492,6.898,2.994,10.678,2.13
	c2.191-0.5,3.855-0.068,5.181,1.494c4.965,5.854,9.972,11.683,14.721,17.715c3.401,4.317,6.865,8.34,12.574,9.844
	c-2.225-0.291-4.448-0.579-7.219-0.939c1.312,4.13,2.637,8.303,3.962,12.474c-0.178,0.104-0.354,0.208-0.531,0.309
	c-2.471-4.413-4.943-8.828-7.413-13.243c-0.18,0.081-0.359,0.162-0.535,0.245c2.083,4.207,3.864,8.597,6.318,12.576
	c5.092,8.251,10.621,16.229,15.818,24.417c7.525,11.851,9.482,24.569,5.504,38.112c-1.756,5.982-3.029,11.895-1.985,18.322
	c0.898,5.553-0.399,10.941-5.072,14.94c-0.563,0.483-0.752,1.608-0.8,2.457c-0.37,6.51-1.293,12.835-3.617,19.044
	c-2.095,5.604-3.248,11.564-4.906,17.713c-2.322-5.697-3.964-11.224-3.51-17.059c0.178-2.266,1.246-4.553,2.291-6.646
	c4.361-8.74,8.761-17.48,10.941-27.072c0.78-3.448,1.356-7.115,1.061-10.599c-0.672-7.932,1.185-15.435,2.696-23.062
	c0.691-3.491,0.504-7.157,0.64-9.425c-1.369,6.086-3.215,13.306-4.545,20.618c-0.667,3.658-0.649,7.497-0.502,11.234
	c0.302,7.768-1.189,15.062-4.63,22.031c-2.95,5.977-5.684,12.056-8.535,18.08c-2.388,5.045-1.108,10.12,0.222,15.029
	c1.549,5.713,3.552,11.315,5.544,16.895c1.687,4.725,1.934,9.468-0.445,13.829c-2.685,4.923-2.063,10.007-1.961,15.179
	c0.154,7.912,2.295,15.258,5.178,22.579c1.512,3.828,1.633,8.207,2.356,12.343c0.184,1.078,0.265,2.172,0.444,3.679
	c-2.636,0.715-5.381,1.457-8.493,2.296c-0.387-2.688-0.706-4.905-1.024-7.123c-0.104,0.002-0.211,0.007-0.315,0.013
	c0,1.351,0.213,2.749-0.067,4.045c-0.229,1.05-0.863,2.603-1.643,2.831c-2.025,0.594-2.471-1.288-2.52-2.699
	c-0.152-4.151-0.48-8.211,0.176-12.486c0.891-5.788,0.377-11.861-0.079-17.77c-0.403-5.255-1.769-10.429-2.295-15.681
	c-0.272-2.759,0.343-5.603,0.565-8.528c-1.272,1.469-2.418,2.793-3.567,4.116c-0.223-0.145-0.446-0.289-0.669-0.436
	c1.025-3.591,2.973-7.042,1.868-11.528c-1.189,3.092-2.896,4.63-6.11,4.04c7.271-5.2,5.835-12.538,4.079-19.081
	c-1.694-6.319-5.235-12.142-7.959-18.169c4.064-7.053,8.855-14.321,12.566-22.099c3.851-8.064,3.415-16.874,1.901-25.583
	c-0.07,1.334-0.275,2.675-0.189,3.999c0.807,12-2.818,22.611-9.354,32.602c-9.087,13.891-21.912,23.041-36.215,30.512
	c-0.335-0.149-0.671-0.301-1.004-0.449c0.441-2.405,0.72-4.854,1.372-7.193c0.831-2.971,1.901-5.878,2.989-8.77
	c0.94-2.485-0.227-4.358-1.37-6.303c-1.03,5.441-2.044,10.811-3.177,16.806c-3.187-4.317-5.833-7.804-8.372-11.362
	c-3.671-5.145-4.493-10.075-3.236-18.46c-1.748,2.198-2.617,6.538-1.228,10.745c1.267,3.829,2.868,7.78,5.271,10.96
	c4.384,5.799,6.833,11.887,6.646,19.242c-0.123,4.742,0.355,9.563,1.166,14.241c0.498,2.897,1.961,5.676,3.286,8.365
	c1.414,2.864,1.805,5.428,0.535,8.603c-1.353,3.385-1.762,7.149-2.707,11.291c-0.725-1.48-1.217-2.492-1.708-3.502
	c-0.207,0.042-0.413,0.08-0.62,0.119c0.428,1.708,0.667,3.487,1.321,5.105c2.763,6.844,5.949,13.533,8.378,20.486
	c1.518,4.345,1.978,9.058,2.814,13.626c0.075,0.396-0.494,1.188-0.935,1.351c-1.252,0.464-2.593,0.698-3.964,1.036
	c-0.644-1.45-1.221-2.746-2.093-4.709v6.175c2.318-0.589,4.464-1.114,6.6-1.677c2.881-0.756,5.67-0.869,7.896,1.499
	c0.553,0.59,0.661,1.6,0.949,2.356c1.026,0.096,2.461,0.44,3.851,0.31c4.263-0.394,8.732-0.306,12.689-1.665
	c3.825-1.309,7.273-2.559,10.998-0.71c0.841-1.378,1.537-2.525,2.235-3.671c-1.616,1.02-3.23,2.015-4.951,0.18
	c2.613-3.038,4.637-3.77,6.498-2.333c2.945-1.294,6.05-3.901,8.809-3.575c4.637,0.55,9.397,2.364,12.566,6.425
	c3.044,3.9,5.945,7.906,8.98,11.811c1.221,1.568,2.641,2.979,4.358,4.904c-1.613,0.759-3.268,1.536-5.807,2.727
	c1.962,0.737,3.211,1.613,4.452,1.591c3.579-0.057,3.575-0.201,5.74,2.465c2.304-0.597,4.574-1.182,6.851-1.771
	c-0.015-0.056-0.013-0.268-0.115-0.391c-1.91-2.274-3.464-5.419-7.23-2.293c-0.717,0.592-2.239,0.215-3.96,0.315
	c2.438-4.604,6.805-6.524,9.337-10.415c-2.461,1.445-5.065,2.693-7.334,4.393c-1.601,1.193-2.659,1.018-3.675-0.372
	c-3.343-4.574-6.64-9.18-9.898-13.812c-0.96-1.365-1.737-2.858-2.478-4.098c-2.563-0.899-5.19-1.821-8.619-3.029
	c1.376-1.033,2.202-2.032,3.241-2.373c3.895-1.283,7.864-2.328,11.792-3.508c1.988-0.594,3.913-1.586,5.937-1.826
	c2.069-0.247,4.275-0.032,6.337,0.395c5.276,1.085,10.492,2.475,15.771,3.552c1.16,0.234,2.485-0.332,3.733-0.524
	c7.089-1.114,14.192-2.166,21.264-3.377c1.773-0.303,3.431-1.248,5.201-1.645c0.987-0.22,2.774-0.28,3.032,0.205
	c1.555,2.92,4.505,1.714,6.687,2.636c0.795,0.339,1.896,0.984,2.043,1.662c0.993,4.607,1.846,5.454,6.953,6.169
	c0.129-0.216,0.259-0.429,0.389-0.645c-0.854-0.442-1.739-0.846-2.559-1.35c-0.552-0.343-1.355-0.788-1.424-1.273
	c-0.075-0.552,0.512-1.213,0.861-1.802c0.646-1.083,1.327-2.143,2.049-3.291c-2.272-1.039-2.983,3.017-4.811,0.596
	c-0.416-0.549-0.061-1.679-0.061-2.815c-0.339-0.075-0.918-0.192-1.492-0.33c-2.319-0.561-4.781-0.801-6.912-1.771
	c-2.696-1.233-5.09-1.651-7.789-0.132c-1.571,0.884-3.435,1.229-5.081,2.003c-7.596,3.558-14.199,1.128-20.521-3.306
	c-1.844,1.294-3.604,2.74-5.561,3.84c-1.846,1.033-3.527,3.155-6.022,1.693c7.095-4.868,14.4-9.467,21.224-14.691
	c6.832-5.23,13.179-11.088,19.979-16.87c0.226,0.156,0.779,0.537,1.354,0.937c0.035-0.163,0.142-0.387,0.088-0.431
	c-1.464-1.315-0.403-2.207,0.495-3.159c18.064-19.158,29.697-42.083,37.627-66.819c5.101-15.919,7.954-32.483,9.269-49.229
	c0.234-3.009,0.916-5.988,1.072-8.999c0.101-2.001,0.143-4.269-0.673-6.005c-2.899-6.191-3.497-12.869-4.014-19.428
	c-0.574-7.3-1.919-14.255-4.923-20.909c-1.978-4.386-3.926-8.788-5.905-13.176c-2.885-6.381-5.78-12.756-8.577-18.919
	c-0.791-0.453-1.805-0.711-2.294-1.365c-3.106-4.139-6.194-8.296-9.098-12.578c-4.049-5.976-7.987-12.027-11.863-18.118
	c-3.541-5.572-6.813-11.318-10.43-16.836c-2.548-3.89-5.251-7.678-8.071-11.649c-4.283-6.057-18.86-22.926-18.86-22.926
	l-0.006-0.006c-1.624-1.664-3.207-3.358-4.706-5.124c-0.827-0.716-1.794-1.514-2.876-2.386c-0.011,0.047-0.025,0.093-0.04,0.14
	c-0.061-0.106-0.121-0.213-0.184-0.321c-15.798-12.703-55.481-40.172-55.481-40.172v-0.001c-4.761-1.933-9.51-3.862-14.266-5.761
	c-4.894-1.955-9.854-3.744-14.702-5.807c-1.514-0.645-2.749-1.942-3.937-3.447c-33.711-1.505-66.207,4.593-97.178,19.066
	c-0.025-0.049-0.049-0.095-0.075-0.144c-8.423,3.829-20.913,10.127-34.926,19.253c-41.471,28.266-71.336,65.83-88.756,113.381
	c-18.335,50.041-19.631,100.76-4.074,151.634c15.55,50.863,45.253,91.897,88.417,123.154c-0.013,0.014-0.025,0.031-0.042,0.044
	c0.632,0.552,1.286,1.107,1.976,1.663c1.51-2.092,3.111-4.13,4.846-6.032c2.828-3.104,5.548-2.666,7.158,1.147
	c0.871,2.063,2.504,2.143,4.247,2.255c2.643,0.178,5.384-0.058,7.913,0.569c7.122,1.767,13.185,5.617,18.78,10.234l-0.11,0.854
	c-3.581-0.168-7.189-0.095-10.729-0.573c-3.229-0.433-5.282,0.896-5.705,4.591c4.422-1.072,8.753-2.724,13.158-2.951
	c2.234-0.111,4.771-1.148,6.701-0.278c1.851,0.83,3.088,3.037,4.919,4.987c-4.85,1.341-9.01,2.532-13.198,3.619
	c-0.546,0.14-1.357-0.053-1.815-0.399c-2.55-1.923-5.686-1.611-8.519-2.419c-1.039-0.295-1.902-0.324-2.667,0.055
	c7.063,3.726,13.968,7.009,19.366,9.466c3.497,0.708,6.844,2.493,10.212,3.876c13.613,5.57,27.832,8.783,42.315,10.98
	c16.392,2.498,32.904,3.119,49.402,2.089c47.742-2.977,91.278-17.788,129.557-46.992c13.16-10.042,25.496-20.97,36.3-33.544
	c25.948-30.199,43.5-64.526,51.392-103.725c3.315-16.483,5.639-33.053,5.824-49.843c0.438-40.061-8.429-78.012-27.197-113.436
	c-22.259-42.009-54.856-73.763-96.841-95.96c-0.544-0.285-1.041-0.654-1.801-1.143c0.872-1.105,1.644-2.078,2.708-3.424
	c5.731,3.28,11.556,6.329,17.09,9.83c22.858,14.447,42.541,32.515,59.363,53.602c21.854,27.396,36.119,58.525,44.081,92.572
	C659.351,269.158,661.438,290.199,660.471,311.444z M463.67,286.081c5.677-10.295,2.187-20.735,0.552-31.141
	C463.521,265.312,468.03,275.763,463.67,286.081z M455.845,317.201c0.794-1.916,2.116-3.92,2.415-6.064
	c0.811-5.831,1.189-11.723,1.739-17.59c-0.095-0.064-0.19-0.13-0.284-0.193c-0.632,2.404-1.489,4.781-1.845,7.229
	C457.067,306.084,456.51,311.623,455.845,317.201z M435.68,309.033c1.834-4.25,2.256-8.582,1.029-13.383
	C436.351,300.354,436.015,304.693,435.68,309.033z M424.58,197.607c1.827,4.083,6.195,6.09,10.295,5.749
	C431.972,201.734,428.547,199.82,424.58,197.607z M374.274,239.561c-1.624,3.444-2.241,3.685-7.587,2.725
	c2.398,2.583,4.696,3.107,6.625,1.73C374.83,242.93,375.198,241.223,374.274,239.561z M403.568,211.603
	c-1.73,3.101-3.385,3.62-8.146,2.546c-3.479-0.785-4.582,0.286-4.074,4.275c0.946-2.781,2.868-2.453,4.952-2.099
	C400.723,217.071,403.585,215.146,403.568,211.603z M409.028,202.777c-0.367,2.683-2.188,3.377-4.469,3.698
	c-2.601,0.367-5.191,0.86-7.745,1.477c-1.025,0.247-1.938,0.958-2.9,1.456c1.858,0.637,3.557,0.955,5.07,0.564
	c2.517-0.654,4.875-1.899,7.379-2.641C408.744,206.629,409.382,205.111,409.028,202.777z M424.716,365.44
	c0.008-0.015,0.008-0.027,0.012-0.036c0.018,0.036,0.034,0.073,0.051,0.109c0.006-0.126,0.011-0.247,0.017-0.372
	c1.497-5.429,1.919-10.938,1.818-16.486c-0.374-0.026-0.752-0.05-1.126-0.072c-0.232,5.522-0.462,11.039-0.692,16.559
	c-0.025,0.087-0.042,0.175-0.067,0.263c-0.535-1.141-1.069-2.28-1.605-3.422c-0.156,0.042-0.315,0.08-0.474,0.117v8.989
	c0.413-0.625,0.581-0.885,0.803-1.224c0.173,0.617,0.301,1.081,0.629,2.267c0.092-1.526,0.136-2.295,0.229-3.832
	c0.399,1.193,0.555,1.655,0.709,2.115c0.108-0.033,0.214-0.07,0.318-0.104C425.132,368.688,424.925,367.064,424.716,365.44z
	 M418.442,275.323c0.706,5.546,8.964,18.168,12.197,18.689C426.562,287.765,422.262,281.179,418.442,275.323z M408.966,256.512
	c4.227,5.488,8.45,10.976,12.604,16.368c-1.607-7.16-8.366-10.892-11.74-16.992C409.537,256.096,409.252,256.304,408.966,256.512z
	 M408.354,343.49c0.426,1.442,0.224,3.144,0.017,4.688c-0.462,3.473-1.107,6.922-1.677,10.38c0.141,0.013,0.284,0.029,0.427,0.046
	c0.935-3.581,1.871-7.166,2.903-11.123c0.674,1.699,1.162,2.938,1.654,4.176c0.277-0.041,0.556-0.087,0.834-0.127
	c-3.42-11.09-7.189-22.157-2.921-33.866c-1.102,1.777-2.053,3.573-2.414,5.481C405.889,330,406.369,336.775,408.354,343.49z
	 M306.217,421.624c-2.157,7.703-2.08,13.095,0,15.749V421.624z M327.251,376.257c-1.349,3.965-2.925,8.589-4.515,13.245
	C325.522,385.216,327.903,380.845,327.251,376.257z M383.136,356.75c-2.701-0.192-5.019-0.355-7.333-0.521l-0.059,0.389
	c1.923,0.394,3.842,0.79,6.09,1.252v2.672c0.146,0.019,0.292,0.038,0.44,0.057C382.551,359.357,382.826,358.115,383.136,356.75z
	 M384.032,353.044c-3.614-1.951-7.337-3.962-10.755-5.81C374.285,350.644,379.607,353.667,384.032,353.044z M395.386,346.175
	c-2.09-2.646-4.135-5.364-5.874-8.247c-4.607-7.639-5.366-16.151-5.092-25.576c-0.601,0.985-0.822,1.191-0.852,1.426
	c-1.289,10.084,0.5,19.562,6.5,27.838c3.921,5.412,7.295,10.901,7.905,17.742C398.904,354.582,398.514,350.146,395.386,346.175z
	 M400.724,265.908c-0.611,9.164-4.646,16.452-11.762,22.175C395.267,287.48,401.919,275.26,400.724,265.908z M409.968,387.902
	c-0.128,0-0.26-0.002-0.386-0.002c-0.179,1.313-0.354,2.625-0.598,4.43c-0.608-0.817-0.825-1.116-1.139-1.536v5.766
	c0.347-0.82,0.518-1.22,0.777-1.838c0.55,1.008,0.972,1.778,1.345,2.462V387.902z M457.59,520.449
	c-1.13,0.738-2.308,1.125-2.849,1.936c-1.309,1.978-3.077,2.381-5.218,2.252c-0.899-0.049-1.833,0.017-2.718,0.202
	c-6.257,1.334-7.438,0.803-10.655-4.877c-0.779,0.391-1.558,0.782-2.101,1.056c1.25,2.4,2.517,4.825,3.662,7.02
	c0.293-0.637,0.768-1.668,1.501-3.254c0.887,1.111,2.062,2.021,1.908,2.482c-0.688,2.056,0.766,2.327,1.979,2.829
	c1.379,0.572,2.788,1.066,4.908,1.871c-1.29-1.198-1.986-1.842-2.945-2.734c3.957-0.759,7.443-3.044,11.136-0.656
	C456.602,526.211,457.047,523.62,457.59,520.449z M482.344,489.37c-3.667-2.622-0.929-5.941-1.07-9.117
	c-0.966,1.207-1.591,2.45-1.972,3.766c-1.417,4.875-4.513,8.464-8.526,11.38c-1.292,0.935-2.549,1.907-3.914-0.017
	c-0.24-0.339-1.156-0.349-1.729-0.271c-3.347,0.466-4.409,3.475-6.228,5.657c-0.625,0.748-1.358,1.463-2.178,1.981
	c-2.86,1.811-5.86,1.453-8.87,0.381c-0.183-0.097-0.368-0.188-0.55-0.284c0.182,0.096,0.367,0.188,0.55,0.284
	c0.618,0.497,1.231,0.997,1.81,1.461c-1.991,1.254-3.58,2.74-5.435,3.242c-1.202,0.328-2.789-0.784-4.407-1.317
	c1.612-2.726,3.469-4.168,6.106-3.972c-1.321-0.259-2.716-0.629-3.563-0.112c-4.291,2.64-8.999,3.403-13.808,4.062
	c-2.251,0.308-4.199,1.114-4.935,3.631c-1.178,4.039-3.899,6.171-8.145,6.351c-0.801,0.029-1.592,0.322-2.393,0.445
	c-2.182,0.333-5.307,2.749-5.916,4.211c4.022-1.252,8.404-2.655,12.821-3.94c0.799-0.234,1.805-0.151,2.609,0.104
	c1.697,0.547,3.284,1.472,5.002,1.904c0.88,0.222,1.942-0.286,2.921-0.467l-0.111-1.087c-0.779-0.071-1.718,0.103-2.3-0.271
	c-0.986-0.636-2.174-1.478-2.502-2.483c-0.541-1.641,4.012-6.847,5.872-6.755c3.268,0.165,6.602,0.306,9.757,1.064
	c2.935,0.711,5.682,2.214,8.145,3.22c3.248-1.849,6.359-3.619,9.153-5.208c-0.106-1.102-0.173-1.796-0.238-2.493
	c0.611,0.07,1.222,0.191,1.834,0.196c0.761,0.013,1.521-0.088,2.282-0.108c0.839-0.021,1.682-0.005,2.752-0.005
	c-0.515-0.746-1.134-1.647-1.798-2.613c1.144-2.3,2.901-3.468,5.631-3.505c1.57-0.016,3.477-0.302,4.629-1.22
	C476.622,495.077,479.272,492.277,482.344,489.37z M503.592,496.723c-5.298-0.548-10.003,3.252-10.712,7.837
	C496.478,501.926,500.035,499.327,503.592,496.723z M517.576,487.631c0.669,1.57,1.253,2.943,1.895,4.457
	c0.748-1.514,1.384-2.802,2.051-4.154C520.233,487.834,518.9,487.73,517.576,487.631z M563.176,463.444
	c-1.72,0.138-2.771,0.224-3.827,0.312v-1.502c-1.022,0.859-1.75,1.717-2.672,2.201c-5.559,2.91-4.904,8.971-7.007,13.624
	c-0.019,0.034,0.039,0.103,0.088,0.174c-0.003,0.002-0.005,0.009-0.007,0.015c-0.006,0.044-0.011,0.088-0.017,0.132
	c-0.366,0.497-0.735,0.99-1.104,1.483c-0.113-0.105-0.23-0.206-0.345-0.309c0.07-0.525,0.142-1.05,0.242-1.809
	c-0.87,0.084-1.626,0.157-2.333,0.224c-0.163,3.529-0.313,6.784-0.447,9.693h3.024c0.308-2.973,0.636-6.125,0.962-9.283
	c0.021-0.027,0.044-0.055,0.066-0.086c-0.012-0.019-0.026-0.038-0.043-0.061c1.342-2.172,2.645-4.367,4.04-6.506
	c0.833-1.279,1.623-2.684,2.76-3.644C558.443,466.511,560.591,465.231,563.176,463.444z M568.358,416.41
	c-0.071-0.709-1.177-1.309-1.831-1.954c-0.6,0.704-1.52,1.342-1.681,2.134c-0.108,0.521,0.882,1.267,1.685,2.3
	C567.376,417.815,568.424,417.055,568.358,416.41z M579.156,450.443c-3.429-1.386-5.428-5.5-9.427-3.911
	c-0.671,1.488-1.223,2.707-1.762,3.911H579.156z M581.623,397.361c-0.103-0.668-0.969-1.218-1.514-1.818
	c-0.39,0.502-1.066,0.987-1.103,1.514c-0.046,0.64,0.448,1.316,0.901,2.46C580.77,398.495,581.7,397.851,581.623,397.361z
	 M604.378,279.251c-0.523-0.17-1.05-0.336-1.575-0.508c-0.351,1.103-0.702,2.208-1.055,3.312c0.556,0.064,1.515,0.333,1.597,0.162
	C603.809,281.287,604.056,280.25,604.378,279.251z M591.396,364.88c10.856-1.488,10.856-1.488,14.004,0.387
	c-1.131,1.48-2.266,2.969-3.403,4.461c0.196,0.148,0.392,0.301,0.584,0.447c0.522-0.629,1.051-1.252,1.56-1.892
	c2.408-3.015,3.978-3.293,7.23-1.235c3.792,2.396,4.837,6.132,5,10.784c3.226-2.913,3.449-6.191,2.538-9.563
	c-1.712-6.326-6.608-8.849-12.558-9.748C601.913,357.85,593.662,360.463,591.396,364.88z M591.582,430.525
	c-1.125-0.584-1.838-1.27-2.367-1.148c-0.679,0.153-1.206,0.96-1.796,1.486c0.584,0.643,1.173,1.29,1.759,1.935
	C589.849,432.164,590.521,431.528,591.582,430.525z M627.013,406.056c-0.186-0.144-0.367-0.288-0.554-0.435
	c-2.326,1.405-4.657,2.8-6.979,4.215c-4.654,2.836-9.462,3.152-14.346,0.709c-4.517-2.258-7.667-5.499-7.042-11.751
	c-0.722,1.089-1.27,1.553-1.339,2.078c-0.576,4.247-0.006,8.115,3.211,11.397c8.35,8.514,21.631,3.864,26.566-4.477
	C626.825,407.294,626.858,406.64,627.013,406.056z M630.696,384.476c-0.777,1.349-1.503,2.104-1.572,2.912
	c-0.044,0.513,0.889,1.108,1.382,1.662c0.648-0.647,1.618-1.21,1.825-1.976C632.472,386.552,631.543,385.741,630.696,384.476z
	 M631.979,303.072c1.873,1.911,3.85,3.247,4.892,5.107c5.464,9.711-0.165,22.777-10.93,25.793c-1.237,0.347-2.469,0.713-4.331,1.252
	c9.01,2.619,16.134-0.658,19.926-5.744c4.552-6.105,4.384-12.698,1.125-19.129C640.591,306.266,637.045,303.526,631.979,303.072z
	 M609.34,221.81c0.049,0.518,1.146,1.442,1.47,1.325c0.698-0.254,1.647-1.047,1.66-1.636c0.009-0.596-0.986-1.211-1.967-2.289
	C609.919,220.422,609.275,221.149,609.34,221.81z M606.737,231.298c-4.683,3.774-6.596,8.825-5.366,14.879
	c1.418,6.994,6.063,10.535,12.733,11.826c1.555,0.301,3.175,0.26,4.764,0.383c-5.528-3-8.006-5.545-9.248-10.204
	c-1.289-4.843,0.897-10.686,4.865-12.982c4.302-2.494,8.071-1.75,12.039,2.22c1.994-1.189,3.936-2.343,6.413-3.817
	c-3.011-1.755-5.636-3.589-8.5-4.898C618.058,225.79,612.024,227.04,606.737,231.298z M588.806,176.617
	c2.27,2.428,5.033,2.195,7.703,1.989c5.109-0.394,9.235-4.215,9.622-8.941c0.097-1.144-0.491-2.344-0.765-3.52
	C602.341,174.149,596.989,177.434,588.806,176.617z M586.817,217.547c-0.995-0.903-1.829-2.012-2.141-1.88
	c-0.876,0.37-1.906,1.144-2.149,1.97c-0.146,0.509,1.041,1.406,1.627,2.129C584.919,219.129,585.68,218.494,586.817,217.547z
	 M579.032,177.207c1.946,2.658,5.637,3.907,7.946,2.641c-5.283-3.5-9.226-7.398-7.314-14.459
	C575.458,169.95,576.691,174.01,579.032,177.207z M563.176,157.627c-7.187-3.93-8.352-7.213-5.786-17.094
	c-2.912,3.82-4.992,7.706-3.189,12.253C555.736,156.657,559.4,157.504,563.176,157.627z M545.242,131.323
	c0.288-0.047,0.574-0.088,0.861-0.128c0.004-0.001,6.827-5.593,12.01,2.161c0.286-0.307,0.568-0.604,0.857-0.915
	c0.014,0.042,0.03,0.083,0.046,0.121l0.635-0.37c-0.413-3.279-2.531-5.823-5.489-6.666c-2.657-0.755-6.77,0.542-8.33,2.872
	C545.319,129.16,545.422,130.336,545.242,131.323z M522.215,392.504c0.02-0.021,0.044-0.044,0.065-0.065
	c0.009-0.011,0.021-0.019,0.027-0.029L522.215,392.504z M557.52,354.505c4.227,0.715,8.477,1.432,12.729,2.147
	c0.005,0.259,0.007,0.512,0.007,0.771c-4.068,0.447-8.133,0.897-12.354,1.361c2.573,3.263,4.971,6.303,7.373,9.347
	c-0.168,0.184-0.337,0.367-0.502,0.55c-3.257-2.254-6.51-4.507-9.644-6.677c0.319,3.29,0.652,6.717,0.986,10.146
	c-0.257,0.08-0.514,0.163-0.769,0.249c-1.235-3.086-2.472-6.176-3.895-9.733c-1.054,2.741-1.982,5.133-2.896,7.53
	c-3.953,10.368-10.453,19.218-16.578,28.325c-2.799,4.163-4.784,8.877-7.139,13.342c0.244,0.165,0.489,0.328,0.733,0.493
	c4.072-2.203,8.145-4.406,12.215-6.607c0.192,0.161,0.383,0.321,0.573,0.48c-3.328,3.656-6.654,7.313-9.979,10.961
	c5.338,0.974,10.921,1.992,16.503,3.008c-0.017,0.29-0.031,0.581-0.046,0.869c-5.45,0.663-10.898,1.323-16.452,1.995
	c2.872,3.221,5.715,6.405,8.558,9.589c-0.121,0.186-0.242,0.365-0.365,0.552c-3.59-1.772-7.179-3.543-10.952-5.406
	c0.751,4.497,1.526,9.088,2.298,13.676c-0.24,0.097-0.485,0.195-0.726,0.295c-2.143-4.139-4.285-8.276-6.242-12.063
	c-1.902,4.437-3.924,9.155-5.949,13.877c-0.344-0.103-0.682-0.205-1.024-0.31c0.689-4.86,1.377-9.721,2.08-14.654
	c-3.638,2.509-7.288,5.026-10.941,7.541c-0.23-0.228-0.465-0.46-0.696-0.692c3.179-3.965,6.354-7.929,9.463-11.809
	c-5.554-0.694-11.16-1.398-16.766-2.099c-0.035-0.243-0.07-0.487-0.106-0.73c5.256-0.997,10.511-1.996,15.823-3.004
	c-3.713-3.299-7.461-6.624-11.207-9.95c0.173-0.274,0.353-0.546,0.524-0.817c4.25,1.825,8.502,3.649,12.979,5.571
	c-1.492-3.803-2.909-7.413-4.474-11.401c2.408-1.508,4.961-2.914,7.29-4.625c1.601-1.175,2.899-2.759,4.327-4.164
	c1.375-1.36,2.962-2.569,4.066-4.122c4.617-6.484,9.083-13.076,13.876-20.021c-1.035,0.113-1.605,0.178-2.774,0.305
	c2.749-3.607,5.199-6.827,7.7-10.109c-4.006-0.506-7.959-1.005-11.914-1.501c-0.035-0.24-0.071-0.48-0.106-0.723
	c3.924-0.674,7.85-1.347,11.854-2.032c-2.291-2.68-4.605-5.394-6.926-8.104c0.185-0.236,0.373-0.477,0.561-0.715
	c2.908,1.862,5.818,3.723,8.663,5.543c-0.81-3.662-1.651-7.485-2.492-11.305c0.209-0.079,0.421-0.161,0.636-0.242
	c1.86,3.52,3.723,7.03,5.759,10.872c2.016-5.383,3.929-10.488,5.844-15.589c0.222,0.055,0.445,0.109,0.667,0.165
	c-0.782,5.191-1.563,10.384-2.38,15.79c2.751-1.673,5.306-3.234,7.864-4.792c0.197,0.222,0.392,0.441,0.588,0.659
	C561.68,349.187,559.596,351.85,557.52,354.505z M520.44,397.755c-2.7,1.3-5.278,2.548-8.069,3.891
	c1.94,2.627,3.759,5.092,5.531,7.49C518.752,405.316,519.573,401.646,520.44,397.755z M547.407,362.008
	c-2.487,2.696-4.977,4.518-6.631,8.044c-4.45,9.486-10.665,18.032-17.693,25.901c-0.482,0.545-0.824,1.413-0.843,2.141
	c-0.088,3.317-0.041,6.635-0.041,10.626c6.151-9.066,11.97-17.341,17.459-25.83C543.672,376.681,547.244,370.186,547.407,362.008z
	 M191.121,313.263c6.7,0,13.404,0,20.218,0c-2.813,5.386-5.369,10.293-7.928,15.201c0.343,0.245,0.688,0.495,1.031,0.74
	c4.164-3.769,8.33-7.538,12.321-11.155c1.124,7.726,2.27,15.625,3.417,23.528c0.178-0.027,0.354-0.056,0.529-0.083
	c1.164-7.923,2.325-15.84,3.454-23.545c4.452,3.738,8.844,7.427,13.238,11.11c0.282-0.266,0.563-0.53,0.845-0.798
	c-2.653-4.623-5.31-9.249-7.923-13.807c6.226-0.447,12.444-0.898,18.661-1.349c0.063-0.421,0.126-0.839,0.187-1.26
	c-5.943-1.624-11.889-3.251-18.197-4.978c6.286-2.584,11.964-4.921,17.642-7.258c-0.106-0.306-0.216-0.613-0.322-0.919
	c-5.918,0.534-11.836,1.071-17.784,1.608c2.436-4.447,4.744-8.66,7.052-12.87c-0.333-0.257-0.667-0.513-1.001-0.772
	c-4.192,3.661-8.39,7.321-12.6,10.995c-1.175-7.386-2.311-14.542-3.449-21.696c-0.13,0.038-0.258,0.068-0.389,0.104
	c-1.18,7.421-2.36,14.839-3.522,22.139c-4.367-4.14-8.563-8.117-12.761-12.091c-0.306,0.22-0.61,0.438-0.916,0.658
	c2.256,4.496,4.512,8.987,6.768,13.479c-6.291-0.549-12.493-1.089-18.695-1.628c-0.086,0.385-0.17,0.765-0.26,1.149
	c6.169,2.262,12.332,4.527,18.867,6.926c-6.387,1.832-12.537,3.598-18.689,5.364C190.981,312.46,191.049,312.858,191.121,313.263z
	 M487.668,209.16c6.165,2.262,12.332,4.527,18.867,6.926c-6.387,1.832-12.541,3.598-18.693,5.365c0.071,0.4,0.142,0.801,0.209,1.204
	c6.7,0,13.402,0,20.219,0c-2.81,5.387-5.37,10.293-7.929,15.2c0.343,0.247,0.688,0.495,1.03,0.743
	c4.167-3.771,8.331-7.542,12.323-11.156c1.119,7.724,2.269,15.627,3.416,23.527c0.176-0.028,0.352-0.056,0.529-0.082
	c1.162-7.923,2.324-15.844,3.455-23.546c4.453,3.738,8.845,7.424,13.237,11.114c0.282-0.268,0.564-0.534,0.847-0.801
	c-2.657-4.625-5.308-9.25-7.923-13.803c6.225-0.453,12.444-0.903,18.663-1.352c0.061-0.42,0.121-0.84,0.185-1.261
	c-5.943-1.625-11.893-3.249-18.198-4.976c6.286-2.585,11.962-4.921,17.644-7.259c-0.108-0.305-0.215-0.611-0.323-0.919
	c-5.919,0.536-11.839,1.071-17.788,1.609c2.439-4.451,4.747-8.662,7.054-12.872c-0.333-0.257-0.667-0.512-1-0.771
	c-4.195,3.662-8.391,7.32-12.6,10.994c-1.174-7.387-2.312-14.541-3.448-21.696c-0.134,0.035-0.262,0.072-0.39,0.106
	c-1.181,7.416-2.36,14.835-3.521,22.135c-4.369-4.136-8.568-8.113-12.767-12.089c-0.303,0.22-0.609,0.439-0.913,0.661
	c2.256,4.491,4.514,8.984,6.769,13.477c-6.292-0.548-12.494-1.086-18.696-1.627C487.84,208.395,487.754,208.775,487.668,209.16z
	 M298.186,429.967c-5.174-0.792-10.215-1.567-15.177-2.324c3.198-3.96,6.407-7.936,9.618-11.912c-0.238-0.25-0.475-0.499-0.715-0.75
	c-4.178,2.815-8.358,5.634-12.516,8.438c-0.661-6.19-1.313-12.313-1.964-18.44c-0.131-0.005-0.261-0.017-0.391-0.021
	c-1.107,5.481-2.214,10.963-3.315,16.425c-3.475-3.651-6.781-7.119-10.087-10.588c-0.177,0.123-0.351,0.245-0.522,0.372
	c1.75,4.001,3.496,7.996,5.448,12.466c-5.001-2.666-9.37-4.996-13.739-7.325c-0.189,0.24-0.371,0.483-0.556,0.728
	c3.911,3.817,7.814,7.643,11.399,11.141c-4.919,0.823-10.274,1.71-15.626,2.603c0.035,0.268,0.07,0.533,0.103,0.803
	c5.563,0.712,11.125,1.421,16.671,2.13c-3.325,3.827-6.585,7.582-9.848,11.337c0.171,0.207,0.339,0.416,0.51,0.62
	c4.256-2.483,8.511-4.971,12.811-7.487c0.37,6.043,0.742,12.078,1.112,18.116c0.175,0.008,0.349,0.014,0.522,0.017
	c1.244-5.471,2.491-10.938,3.838-16.872c2.093,4.038,3.895,7.521,5.694,10.997c0.218-0.083,0.436-0.163,0.654-0.246
	c-0.545-4.112-1.087-8.23-1.587-12.031c4.587,2.582,9.295,5.239,14.009,7.894c0.13-0.191,0.26-0.382,0.391-0.572
	c-3.846-4.028-7.69-8.057-11.647-12.2c2.596-0.275,5.224-0.466,7.826-0.854C297.495,431.475,297.493,431.437,298.186,429.967z
	 M300.631,120.371c5.561,0.712,11.124,1.423,16.668,2.131c-3.324,3.826-6.583,7.583-9.847,11.337
	c0.169,0.208,0.341,0.416,0.51,0.621c4.257-2.488,8.515-4.974,12.813-7.488c0.37,6.042,0.74,12.08,1.112,18.117
	c0.172,0.007,0.348,0.01,0.522,0.016c1.24-5.469,2.486-10.937,3.837-16.871c2.092,4.038,3.892,7.518,5.692,10.996
	c0.219-0.08,0.438-0.162,0.656-0.241c-0.544-4.116-1.087-8.233-1.589-12.038c4.588,2.588,9.299,5.242,14.01,7.898
	c0.13-0.191,0.26-0.38,0.39-0.574c-3.845-4.026-7.689-8.055-11.646-12.199c2.595-0.278,5.225-0.466,7.823-0.855
	c6.396-0.953,6.392-0.989,7.086-2.46c-5.176-0.792-10.214-1.564-15.179-2.326c3.196-3.958,6.409-7.933,9.622-11.907
	c-0.24-0.25-0.479-0.503-0.719-0.753c-4.177,2.817-8.357,5.636-12.514,8.438c-0.66-6.189-1.313-12.314-1.963-18.439
	c-0.132-0.007-0.262-0.015-0.391-0.022c-1.106,5.482-2.214,10.962-3.315,16.421c-3.479-3.649-6.782-7.118-10.089-10.588
	c-0.174,0.126-0.348,0.25-0.521,0.375c1.747,3.998,3.493,7.998,5.445,12.467c-4.996-2.667-9.369-4.997-13.74-7.329
	c-0.183,0.245-0.368,0.485-0.554,0.729c3.91,3.82,7.817,7.642,11.401,11.145c-4.919,0.818-10.273,1.709-15.627,2.602
	C300.563,119.837,300.594,120.106,300.631,120.371z M249.584,373.737c-2.879,2.663-5.758,5.324-8.525,7.883
	c-0.775-4.442-1.597-9.164-2.414-13.883c-0.214-0.004-0.427-0.008-0.642-0.012c-0.634,4.789-1.273,9.582-1.924,14.486
	c-3.088-3.242-5.991-6.296-8.895-9.347c-0.234,0.163-0.473,0.331-0.707,0.496c1.79,3.684,3.585,7.368,5.415,11.13
	c-3.949-1.491-7.871-2.971-11.789-4.449c-0.112,0.203-0.224,0.408-0.336,0.61c3.702,2.892,7.404,5.778,11.008,8.594
	c-4.442,0.868-8.995,1.765-13.552,2.655c0.021,0.259,0.043,0.515,0.064,0.771c4.448,0.502,8.895,1.004,13.35,1.509
	c-2.896,3.192-5.734,6.322-8.571,9.451c0.157,0.183,0.313,0.366,0.471,0.55c3.508-1.929,7.016-3.856,10.645-5.849
	c-0.99,3.915-1.928,7.624-2.866,11.334c0.271,0.107,0.544,0.216,0.819,0.32c1.863-3.096,3.726-6.192,5.712-9.493
	c0.823,5.548,1.576,10.674,2.335,15.798c0.209-0.029,0.42-0.057,0.631-0.083c0.628-5.183,1.257-10.36,1.878-15.486
	c2.614,2.979,5.115,5.832,7.621,8.68c0.214-0.159,0.431-0.32,0.646-0.481c-1.578-3.512-3.152-7.018-4.714-10.487
	c3.735,1.813,7.471,3.627,11.202,5.441c0.08-0.136,0.157-0.271,0.238-0.408c-2.979-3.186-5.951-6.373-8.825-9.446
	c3.951-0.561,8.104-1.147,12.256-1.735c0.004-0.242,0.005-0.487,0.009-0.729c-4.273-0.775-8.544-1.547-12.771-2.313
	c2.905-2.65,5.872-5.359,8.842-8.066c-0.112-0.151-0.225-0.304-0.334-0.452c-3.251,1.144-6.506,2.291-10.191,3.585
	c1.629-3.844,3.002-7.084,4.374-10.318C249.891,373.908,249.738,373.821,249.584,373.737z M522.215,392.502
	c0,0.002,0.093-0.093,0.093-0.093c-0.084-0.042-0.172-0.079-0.257-0.119C522.104,392.361,522.159,392.431,522.215,392.502z
	 M525.055,371.818c-0.063-0.145-0.128-0.288-0.194-0.435c-5.158,0.585-10.323,1.168-15.717,1.771
	c-1.229-5.057-2.427-9.986-3.694-15.2c-1.397,5.197-2.731,10.155-4.057,15.093c-5.542-0.675-10.729-1.308-15.915-1.939
	c-0.075,0.178-0.153,0.354-0.229,0.527c4.229,2.755,8.456,5.51,12.7,8.271c-3.077,3.59-6.059,7.056-9.035,10.525
	c0.111,0.13,0.226,0.258,0.335,0.392c3.906-1.48,7.81-2.961,12.114-4.595c1.604,5.629,3.193,11.204,4.785,16.779
	c0.129-0.012,0.263-0.015,0.391-0.021c0.913-5.326,1.827-10.651,2.845-16.571c4.457,2.069,8.565,3.972,12.667,5.874
	c-3.141-4.072-6.282-8.152-9.526-12.36C516.596,377.293,520.825,374.555,525.055,371.818z M260.148,226.535
	c-4.833-0.815-9.666-1.632-14.563-2.459c2.196-3.264,4.388-6.525,6.58-9.785c-0.184-0.174-0.367-0.346-0.55-0.522
	c-3.094,2.118-6.188,4.235-9.382,6.417c-0.801-4.712-1.553-9.13-2.306-13.554c-0.15-0.007-0.299-0.018-0.447-0.029
	c-0.728,4.65-1.455,9.304-2.151,13.757c-3.605-2.461-7.011-4.788-10.414-7.111c-0.161,0.189-0.318,0.378-0.478,0.568
	c2.472,3.4,4.942,6.801,7.382,10.151c-4.85,0.711-9.424,1.384-13.995,2.055c0.01,0.248,0.021,0.497,0.031,0.74
	c4.668,0.895,9.338,1.788,14.026,2.687c-2.778,3.875-5.449,7.607-8.125,11.335c0.178,0.147,0.353,0.296,0.526,0.444
	c3.487-2.491,6.976-4.979,10.527-7.517c0.732,5.28,1.445,10.418,2.16,15.555c0.217,0,0.433-0.002,0.649-0.002
	c0.914-5.202,1.827-10.405,2.725-15.515c3.282,2.542,6.363,4.929,9.446,7.313c0.161-0.19,0.322-0.382,0.481-0.57
	c-2.294-3.663-4.589-7.321-6.872-10.962c5.065-0.794,9.922-1.558,14.778-2.318C260.172,226.986,260.157,226.761,260.148,226.535z
	 M405.485,104.601c-4.833-0.817-9.664-1.633-14.563-2.46c2.195-3.264,4.388-6.524,6.579-9.783c-0.183-0.176-0.366-0.348-0.55-0.522
	c-3.094,2.115-6.184,4.23-9.376,6.417c-0.807-4.711-1.558-9.133-2.311-13.554c-0.148-0.01-0.299-0.019-0.449-0.03
	c-0.726,4.652-1.453,9.305-2.151,13.758c-3.602-2.462-7.005-4.787-10.41-7.113c-0.161,0.189-0.321,0.378-0.48,0.568
	c2.473,3.4,4.948,6.801,7.384,10.151c-4.851,0.712-9.422,1.384-13.994,2.054c0.009,0.249,0.021,0.495,0.029,0.742
	c4.67,0.894,9.338,1.789,14.025,2.686c-2.774,3.875-5.448,7.604-8.12,11.334c0.172,0.148,0.348,0.296,0.522,0.444
	c3.485-2.49,6.975-4.979,10.524-7.516c0.733,5.278,1.448,10.417,2.163,15.556c0.218-0.001,0.433-0.001,0.65-0.001
	c0.913-5.205,1.825-10.408,2.724-15.516c3.282,2.543,6.365,4.927,9.447,7.313c0.161-0.19,0.321-0.381,0.482-0.571
	c-2.297-3.661-4.591-7.321-6.873-10.96c5.064-0.795,9.923-1.56,14.781-2.322C405.508,105.051,405.496,104.826,405.485,104.601z
	 M281.503,265.355c1.228,4.922,2.398,9.612,3.571,14.306c0.154-0.002,0.312-0.004,0.466-0.006c1.125-4.723,2.253-9.446,3.409-14.302
	c4.512,1.147,8.862,2.255,13.425,3.415c-3.424-3.676-6.655-7.147-10.003-10.745c2.908-2.818,5.996-5.818,9.082-8.813
	c-0.155-0.17-0.314-0.342-0.471-0.51c-3.962,1.211-7.917,2.427-12.075,3.702c-1.139-5.131-2.201-9.923-3.432-15.452
	c-1.288,5.535-2.426,10.444-3.65,15.702c-4.369-1.328-8.433-2.559-12.495-3.792c-0.134,0.186-0.268,0.372-0.399,0.562
	c3.306,3.029,6.614,6.057,10.29,9.425c-3.577,3.377-6.832,6.449-10.62,10.027C273.365,267.574,277.368,266.483,281.503,265.355z
	 M298.066,108.773c-33.432,21.314-59.876,49.198-78.793,84c-17.166,31.591-25.803,65.556-27.861,101.267
	c0.368,0.113,0.738,0.225,1.107,0.336c0.271-0.867,0.661-1.713,0.789-2.599c1.683-11.681,2.853-23.458,5.079-35.03
	c5.624-29.196,16.78-56.226,33.352-80.943c15.948-23.792,35.785-43.827,59.01-60.557
	C293.381,113.354,295.637,110.944,298.066,108.773z M542.015,169.627c-2.774,2.307-5.547,4.61-8.406,6.985
	c-0.928-4.496-1.802-8.74-2.674-12.985c-0.09,0.022-0.182,0.045-0.271,0.062c-0.41,4.146-0.819,8.292-1.229,12.456
	c-2.711-2.356-5.291-4.604-7.875-6.849c-0.171,0.172-0.343,0.345-0.514,0.52c1.852,2.864,3.704,5.729,5.648,8.74
	c-4.959,0-9.537,0-13.979,0c-3.361-4.357-3.211-9.339-3.277-14.309c-0.023-1.952,0.913-2.525,2.599-2.684
	c1.699-0.161,3.389-0.457,5.079-0.692c-0.01-0.132-0.024-0.266-0.033-0.396c-3.907,0-7.812,0-11.713,0
	c-0.64,6.748,4.068,19.941,7.476,20.75c0.134-0.487,0.27-0.975,0.403-1.465c4.43,0.781,8.788,1.548,13.087,2.308
	c-2.219,3.228-4.386,6.383-6.557,9.535c0.237,0.161,0.473,0.323,0.705,0.48c2.705-2.212,5.408-4.424,8.036-6.579
	c-0.537,3.956-1.061,7.813-1.583,11.67c0.257,0.048,0.515,0.098,0.771,0.146c1.351-3.622,2.701-7.244,4.118-11.034
	c1.03,3.634,1.992,7.016,2.95,10.395c0.242-0.038,0.488-0.08,0.731-0.117c-0.201-3.569-0.403-7.137-0.617-10.929
	c2.994,2.393,5.712,4.567,8.436,6.745c0.19-0.166,0.383-0.331,0.577-0.495c-2.23-3.217-4.455-6.431-6.623-9.561
	c4.442-0.532,8.793-1.051,13.145-1.571c0.001-0.271,0.005-0.542,0.009-0.814c-4.358-0.421-8.715-0.838-13.099-1.258
	c1.697-2.847,3.433-5.758,5.165-8.668C542.338,169.887,542.175,169.757,542.015,169.627z M196.115,350.046
	c5.692,31.119,18.741,59.238,35.941,85.492c13.532,20.654,30.483,38.23,50.269,53.046c2.05,1.536,3.907,3.321,5.942,5.062
	c0.352-0.595,0.876-1.482,1.355-2.292c-10.391-7.333-20.194-15.014-28.997-23.896c-15.71-15.86-28.724-33.682-39.187-53.424
	c-10.584-19.966-19.055-40.687-23.171-62.988c-1.873-10.149-3.233-20.393-4.866-30.588c-0.108-0.693-0.568-1.326-0.865-1.985
	c-0.26,0.134-0.519,0.267-0.776,0.399c0,0.906-0.114,1.824,0.018,2.707C193.188,331.076,194.389,340.609,196.115,350.046z
	 M285.507,175.259c-3.573-0.346-7.151-0.693-10.954-1.062c1.693-2.978,3.238-5.701,4.787-8.422
	c-0.155-0.117-0.312-0.236-0.467-0.351c-2.45,2.105-4.902,4.212-7.463,6.412c-0.695-3.99-1.39-7.969-2.082-11.948
	c-0.211,0.018-0.42,0.03-0.631,0.047c-0.404,3.905-0.812,7.811-1.211,11.68c-2.462-1.967-4.768-3.815-7.074-5.662
	c-0.182,0.156-0.365,0.312-0.545,0.468c1.595,2.571,3.188,5.144,4.822,7.78c-3.644,0.505-7.221,0.995-10.797,1.489
	c0.01,0.216,0.019,0.434,0.027,0.647c3.523,0.529,7.047,1.061,10.72,1.609c-1.733,2.77-3.427,5.479-5.118,8.187
	c0.172,0.152,0.348,0.304,0.523,0.458c2.464-1.945,4.929-3.89,7.699-6.077c0,2.143-0.063,4.032,0.021,5.914
	c0.081,1.771,0.317,3.534,0.489,5.3c0.236,0,0.477,0,0.713,0c0.759-3.479,1.518-6.954,2.32-10.64
	c1.703,2.426,3.234,4.617,4.771,6.808c0.24-0.115,0.48-0.235,0.721-0.351c-0.554-1.982-1.107-3.962-1.655-5.928
	c1.702,0.764,3.284,1.474,4.866,2.184c0.107-0.2,0.222-0.398,0.333-0.6c-1.834-1.716-3.675-3.437-5.601-5.239
	c3.75-0.72,7.281-1.398,10.818-2.077C285.529,175.675,285.519,175.466,285.507,175.259z M555.271,253.627
	c1.692-2.979,3.237-5.698,4.785-8.419c-0.157-0.12-0.313-0.236-0.467-0.354c-2.452,2.108-4.902,4.212-7.463,6.416
	c-0.692-3.991-1.389-7.969-2.082-11.951c-0.209,0.016-0.42,0.032-0.63,0.047c-0.405,3.907-0.811,7.811-1.214,11.681
	c-2.457-1.97-4.767-3.816-7.072-5.663c-0.182,0.155-0.363,0.311-0.544,0.467c1.594,2.572,3.188,5.146,4.821,7.78
	c-3.644,0.505-7.219,0.995-10.795,1.488c0.008,0.216,0.015,0.435,0.024,0.651c3.522,0.529,7.049,1.057,10.723,1.607
	c-1.733,2.772-3.427,5.478-5.122,8.185c0.174,0.152,0.352,0.307,0.526,0.459c2.461-1.944,4.924-3.886,7.699-6.077
	c0,2.146-0.066,4.035,0.018,5.915c0.083,1.772,0.321,3.534,0.491,5.299c0.236,0,0.477,0,0.715,0
	c0.757-3.476,1.516-6.955,2.32-10.639c1.703,2.426,3.233,4.618,4.766,6.809c0.243-0.116,0.481-0.234,0.726-0.351
	c-0.556-1.982-1.109-3.962-1.661-5.928c1.707,0.765,3.29,1.474,4.87,2.184c0.109-0.2,0.224-0.402,0.333-0.601
	c-1.838-1.716-3.671-3.434-5.601-5.238c3.75-0.721,7.283-1.402,10.818-2.08c-0.013-0.208-0.021-0.417-0.031-0.625
	C562.649,254.342,559.075,253.997,555.271,253.627z M417.292,130.125c8.705,4.428,8.734,4.451,9.407,7.371
	c-0.482-0.426-0.817-0.7-1.127-1.001c-4.797-4.66-10.036-7.772-14.95-0.823c-0.553,0.788-1.438,1.348-2.133,1.98
	c4.434,2.276,8.812,4.527,13.3,6.831c4.576-3.419,9.583-7.168,14.754-11.036c-0.681-1.044-1.118-2.118-1.894-2.82
	c-1.595-1.449-3.37-2.702-5.073-4.034c3.953,0.735,6.215,3.474,7.95,7.272c2.997-1.942,5.698-3.694,8.334-5.405
	c-0.53-1.366-0.919-2.359-1.306-3.353c0.721,0.885,1.441,1.771,2.226,2.729c1.539-0.511,3.148-1.067,4.771-1.583
	c1.681-0.538,3.374-1.033,4.988-1.526c-0.554-1.31-0.995-2.351-1.433-3.389c-0.497-0.288-0.97-0.637-1.5-0.825
	c-2.928-1.039-5.835-2.672-8.824-2.847c-2.666-0.153-5.425,1.323-8.377,2.147c0.949,0.672,1.578,1.117,2.206,1.56
	c-1.474,0.357-2.934,0.787-4.252-0.477c-0.178-0.167-0.762-0.114-1.024,0.048c-2.091,1.29-4.148,2.632-6.37,4.055
	c0.838,0.657,1.248,0.979,1.66,1.3C423.725,124.24,421.692,129.642,417.292,130.125z M477.951,155.406
	c5.269,0.07,6.111-0.476,7.492-5.637c0.441-1.639,0.613-3.44,0.445-5.121c-0.089-0.872-1.16-2.322-1.833-2.347
	c-5.124-0.197-10.264-0.109-15.883-0.109c3.374,4.151,4.011,8.428,2.72,13.211C473.426,155.403,475.689,155.377,477.951,155.406z
	 M420.27,76.558c0.689-2.434-0.938-2.055-2.105-2.077c-11.931-0.225-23.8,0.344-35.622,2.163
	c-15.122,2.328-29.855,5.99-44.006,11.858c-1.063,0.44-2.063,1.026-3.091,1.545c0.137,0.432,0.274,0.863,0.412,1.295
	c13.494-4.838,27.068-9.342,41.216-11.755C391.375,77.145,405.786,76.277,420.27,76.558z M441.881,166.786
	c2.592-1.569,5.385-3.253,8.763-5.298c-2.715-4.392-5.302-8.582-8.096-13.1c-4.11,2.721-7.714,5.103-11.181,7.397
	C435.072,159.666,438.441,163.185,441.881,166.786z M470.273,153.997c-0.111-2.863-0.313-5.782-1.039-8.537
	c-0.303-1.154-1.994-2.763-3.046-2.754c-4.012,0.026-8.023,0.627-11.604,0.972c1.75,4.818,3.381,9.304,5.042,13.87
	c2.712-0.5,5.776-0.957,8.774-1.686C469.167,155.677,470.298,154.616,470.273,153.997z M455.146,121.363
	c-0.015-0.008-0.027-0.015-0.04-0.023c-0.002-0.003-0.002-0.005-0.004-0.007c-2.289-1.52-4.574-3.036-6.836-4.537
	c15.79-2.539,27.914,4.918,39.401,15.64c-5.214-2.33-9.75-4.941-14.633-6.377c-4.906-1.445-10.16-1.721-15.261-2.508
	c-0.036,0.259-0.075,0.519-0.113,0.781C456.823,123.341,455.987,122.353,455.146,121.363z M455.178,121.381
	c0.004,0.002,0.004,0.003,0.007,0.004c0,0-0.099-0.09-0.097-0.09C455.086,121.295,455.17,121.372,455.178,121.381z M440.72,167.611
	c-3.417-3.849-6.664-7.511-10.253-11.558c-3.09,3.295-5.885,6.281-8.525,9.103c3.521,2.776,7.221,5.693,10.958,8.641
	C435.371,171.84,437.798,169.923,440.72,167.611z M497.74,145.144c-3.438-0.957-6.922-1.747-9.739-2.432
	c-1.102,4.686-2.063,8.773-3.092,13.152c2.242,0.272,4.947,0.536,7.634,0.932c3.916,0.578,4.827,0.159,5.729-3.703
	c0.468-2.005,0.407-4.151,0.416-6.237C498.689,146.267,498.195,145.272,497.74,145.144z M415.476,152.632
	c1.865-2.514,3.519-4.736,5.313-7.153c-4.088-3.192-8.219-5.694-13.317-6.107c-0.543-0.044-1.318,0.158-1.646,0.541
	c-1.919,2.236-3.736,4.559-5.586,6.854c0.092,0.267,0.186,0.535,0.278,0.801C406.217,147.153,411.2,148.816,415.476,152.632z
	 M443.576,148.3c2.74,4.288,5.328,8.33,8.019,12.542c1.614-0.703,3.556-1.446,5.379-2.412c0.529-0.278,1.136-1.312,1.001-1.802
	c-0.876-3.138-1.762-6.3-3.019-9.296c-0.889-2.115-2.768-2.766-5.019-1.768C447.872,146.483,445.787,147.354,443.576,148.3z
	 M445.127,188.083c2.594-3.67,5.789-6.259,10.366-6.906c3.167-0.444,6.32-0.985,9.673-1.51c-0.365-0.246-0.556-0.414-0.777-0.514
	c-7.571-3.418-18.653-0.29-24.483,6.79c-1.888,2.292-4.024,4.383-5.938,6.447C438.859,193.731,441.855,192.714,445.127,188.083z
	 M398.882,149.377c-0.975,1.804-1.693,3.746-2.858,6.447c6.75-1.377,11.703,1.216,16.764,3.851c0.652-1.411,1.089-2.602,1.721-3.675
	c1.012-1.713,0.445-2.862-1.068-3.835c-3.836-2.471-7.994-3.893-12.587-3.761C400.167,148.423,399.17,148.841,398.882,149.377z
	 M427.563,178.718c1.437-0.851,2.573-2.203,4.114-3.607c-3.644-3.331-7.036-6.434-10.68-9.766c-2.363,2.75-4.133,4.811-5.559,6.466
	c3.12,2.199,6.147,4.429,9.292,6.478C425.487,178.78,426.912,179.103,427.563,178.718z M408.335,158.847
	c-1.451-0.711-2.992-1.307-4.558-1.698c-6.809-1.71-7.956-1.06-10.153,5.48c-0.044,0.129,0.039,0.303,0.063,0.458
	c8.878-0.362,8.878-0.362,16.816,2.892C412.772,161.065,412.792,161.024,408.335,158.847z M418.327,183.322
	c3.865,1.718,5.011,1.023,7.822-2.447c-1.114-0.887-2.151-1.906-3.359-2.638c-2.774-1.678-5.579-3.327-8.479-4.774
	c-2.078-1.036-2.862,1.005-3.826,2.178c-0.349,0.424-0.367,1.743-0.027,2.011C412.99,179.675,415.434,182.03,418.327,183.322z
	 M395.863,164.244c-2.835,0.123-4.125,1.506-4.142,3.796c5.174,0.885,10.018,1.57,14.784,2.603c1.578,0.341,2.232,0.281,2.896-1.272
	c0.716-1.684-0.059-2.277-1.325-2.933C404.223,164.443,400.115,164.058,395.863,164.244z M480.63,140.101
	c-0.776-0.448-1.519-0.967-2.335-1.331c-8.276-3.671-16.877-6.34-25.768-8.001c-2.281-0.424-4.66-0.321-6.993-0.463
	c-0.008,0.247-0.017,0.493-0.022,0.741c11.662,3.272,23.321,6.545,34.981,9.82C480.538,140.612,480.584,140.357,480.63,140.101z
	 M566.636,247.073c1.944-0.432,3.378-0.746,4.94-1.09c0.42,1.558,0.844,3.121,1.36,5.027c0.755-2.094,1.356-3.768,1.99-5.514
	c1.449,0.271,2.63,0.492,3.937,0.737c-0.901-1.25-1.683-2.333-2.465-3.424c0.874-0.953,1.607-1.751,2.339-2.548
	c-3.986,0.615-5.473-1.534-5.945-5.44c-1.762,6.72-0.64,5.506-5.031,5.2C570.735,243.007,570.735,243.007,566.636,247.073z
	 M566.517,380.324c-0.909-0.545-1.164-2.19-2.088-4.155c-0.126,4.472-1.79,6.671-6.315,5.211c0.1,0.278,0.198,0.559,0.295,0.837
	c1.153,0.708,2.306,1.412,3.466,2.123c-0.598,0.778-1.136,1.482-1.893,2.474c1.138-0.201,1.902-0.333,2.732-0.479
	c0.523,1.108,1.024,2.156,1.759,3.711c0.654-3.646,2.564-4.676,6.152-3.039c-1.263-1.763-2.037-2.839-2.877-4.008
	c1.074-0.896,1.961-1.629,3.063-2.544C569.095,380.454,567.499,380.908,566.517,380.324z M585.159,320.086
	c-0.911-0.543-1.164-2.188-2.084-4.154c-0.13,4.473-1.796,6.675-6.321,5.211c0.099,0.281,0.198,0.56,0.297,0.837
	c1.151,0.712,2.306,1.414,3.464,2.124c-0.596,0.78-1.135,1.484-1.894,2.475c1.139-0.201,1.902-0.334,2.734-0.482
	c0.524,1.111,1.023,2.161,1.76,3.713c0.654-3.643,2.564-4.677,6.15-3.04c-1.263-1.759-2.036-2.841-2.877-4.012
	c1.074-0.891,1.963-1.628,3.063-2.536C587.739,320.221,586.143,320.672,585.159,320.086z M436.354,136.712
	c0.052,0.29,0.101,0.58,0.15,0.872c8.427,1.607,16.854,3.212,25.282,4.821c0.079-0.48,0.159-0.962,0.238-1.445
	c-7.49-1.75-14.973-3.557-22.493-5.174C438.584,135.583,437.417,136.378,436.354,136.712z M583.563,260.064
	c-0.196-1.546-0.354-2.755-0.617-4.826c-1.438,3.157-2.493,5.727-6.643,3.263c1.369,1.683,2.084,2.567,2.891,3.558
	c-1.083,0.815-2.018,1.514-2.949,2.215c3.936-2.208,3.758,1.415,4.81,4.289c0.596-4.345,2.603-4.689,5.855-2.483
	c-0.995-1.647-1.497-2.479-2.027-3.355c1.093-0.803,2.007-1.474,3.217-2.36C586.271,260.244,584.882,260.149,583.563,260.064z
	 M550.209,221.598c4.641-1.147,4.587,2.625,5.017,5.358c2.068-2.269,4.186-4.591,6.33-6.939c-2.874-0.115-3.853-2.012-3.426-4.471
	C555.406,217.625,552.726,219.671,550.209,221.598z M575.497,356.811c-1.778,5.08-1.778,5.08-4.712,5.77
	c3.778,0.418,4.094,3.015,4.508,5.637c2.255-3.665,2.573-3.795,5.958-2.277c-0.458-1.256-0.845-2.313-1.257-3.442
	c1.093-0.771,2.101-1.482,3.108-2.195C579.978,360.408,576.771,361.255,575.497,356.811z M244.471,250.139
	c-0.366,2.761,0.044,5.823-4.353,5.827c3.88,0.878,2.563,3.928,3.008,6.203c2.005-0.563,1.917-4.441,4.374-3.006
	c0.721-1.11,1.342-2.066,2.155-3.329C246.269,255.527,245.407,252.89,244.471,250.139z M518.894,448.514
	c2.419-0.959,2.993-4.472,1.091-8.306C519.627,442.932,519.27,445.652,518.894,448.514z"/>
</svg>
