<?xml version="1.0" encoding="UTF-8" standalone="no" ?>
<!DOCTYPE svg PUBLIC "-//W3C//DTD SVG 1.1//EN" "http://www.w3.org/Graphics/SVG/1.1/DTD/svg11.dtd">
<svg xmlns="http://www.w3.org/2000/svg" xmlns:xlink="http://www.w3.org/1999/xlink" version="1.1" width="1080" height="1080" viewBox="0 0 1080 1080" xml:space="preserve">
<desc>Created with Fabric.js 5.2.4</desc>
<defs>
</defs>
<g transform="matrix(1 0 0 1 540 540)" id="6d67da33-253c-4335-bf2c-5d9918487e93"  >
<rect style="stroke: none; stroke-width: 1; stroke-dasharray: none; stroke-linecap: butt; stroke-dashoffset: 0; stroke-linejoin: miter; stroke-miterlimit: 4; fill: rgb(255,255,255); fill-rule: nonzero; opacity: 1; visibility: hidden;" vector-effect="non-scaling-stroke"  x="-540" y="-540" rx="0" ry="0" width="1080" height="1080" />
</g>
<g transform="matrix(1 0 0 1 540 540)" id="277f574c-9e5f-4ced-a2f7-1907aec34daf"  >
</g>
<g transform="matrix(10.16 0 0 10.16 537.42 536.31)" id="443e4e33-6524-43ab-b759-0b595d0d2128"  >
<path style="stroke: rgb(0,0,0); stroke-width: 0; stroke-dasharray: none; stroke-linecap: butt; stroke-dashoffset: 0; stroke-linejoin: miter; stroke-miterlimit: 4; fill: rgb(0,0,0); fill-rule: nonzero; opacity: 1;" vector-effect="non-scaling-stroke"  transform=" translate(-50, -1002.36)" d="M 63.273923 957.36216 C 58.203273 957.36216 54.078903000000004 961.48616 54.078903000000004 966.55686 C 54.080903000000006 971.65916 58.204623000000005 975.75156 63.273923 975.75156 C 68.376213 975.75156 72.511503 971.65916 72.511503 966.55686 C 72.511503 961.48616 68.376213 957.36216 63.273923 957.36216 z M 43.582303 973.37586 C 42.357043000000004 973.36586 41.131413 973.4308599999999 39.908003 973.56736 C 36.148723000000004 973.98596 32.454233 975.12726 29.195833 977.04826 C 25.937433 978.9692600000001 23.125223 981.68066 21.228523 984.95326 C 19.331823 988.22586 18.373383 992.06156 18.670343 995.83236 C 18.967313 999.60316 20.545823 1003.2876 23.188353 1005.994 C 25.237553 1008.0927 27.914473 1009.5879 30.793553 1010.1489 C 33.672623 1010.71 36.741953 1010.3203 39.351912999999996 1008.9817 C 41.683023 1007.7862 43.639343 1005.8224 44.688992999999996 1003.4221 C 45.513493 1001.5367 45.766813 999.45936 46.023422999999994 997.41766 C 46.366803 994.68526 46.746413 991.90626 47.913622999999994 989.4119599999999 C 49.81836299999999 985.3416599999999 53.810683 982.3725599999999 58.21837299999999 981.4963599999999 C 61.25562299999999 980.8925599999999 64.47452299999999 981.2380599999999 67.314583 982.4723599999999 C 67.832653 982.6974599999999 68.337433 982.9528599999999 68.826863 983.2345599999999 L 68.164973 986.8513599999999 C 67.454153 986.0444599999998 66.786033 985.6409599999998 66.073503 985.3284599999998 C 63.827453000000006 984.3523599999999 61.227233000000005 984.0732599999999 58.825233000000004 984.5507599999999 C 55.384043000000005 985.2347599999998 52.176193000000005 987.6480599999999 50.732963000000005 990.7321599999999 C 50.497763000000006 991.2347599999999 50.299103 991.7735599999999 50.12641300000001 992.34206 L 48.231953000000004 1001.3983999999999 L 47.777713000000006 1003.5692999999999 L 47.49830300000001 1004.9060999999999 C 47.074763000000004 1006.9314999999999 47.35730300000001 1008.4618999999999 48.487953000000005 1010.2143 L 54.76359300000001 1019.9411 L 56.22541300000001 1022.2071 L 56.53948300000001 1022.6942 L 60.04351300000001 1028.1246 L 70.890673 1044.9373 C 72.41517300000001 1047.3773 75.641653 1048.0978 78.05928300000001 1046.538 C 80.476893 1044.9782 81.150186 1041.7416 79.55545300000001 1039.3469 L 60.289183000000016 1009.4852 L 60.89847300000002 1006.5727999999999 L 63.44235300000002 994.4115599999999 L 66.85791300000002 999.8502599999999 C 68.80366300000003 1002.9467999999999 73.53954300000002 1002.0368 74.19861300000002 998.4394599999999 L 76.35059300000002 986.67656 C 77.00839300000001 987.62756 78.06514300000002 988.54536 78.77103300000002 988.88606 C 79.99601300000002 989.47716 79.47142300000002 987.99946 80.06258300000002 986.7744600000001 C 80.65370300000002 985.5494600000001 82.13672700000002 985.04096 80.91176300000002 984.4497600000001 C 80.02041300000002 984.01966 78.05928300000002 983.7218600000001 76.82884300000002 984.0630600000001 L 76.97386300000002 983.27016 C 77.47474300000002 980.73596 75.48420300000002 978.39606 72.90249300000002 978.4842600000001 C 71.41328300000002 978.5352600000001 70.11618300000002 979.40196 69.46808300000002 980.6748600000001 C 66.15421300000003 979.0298600000001 62.73437300000002 977.5985600000001 59.23538300000002 976.39646 C 54.19057300000002 974.66326 48.89174300000002 973.39926 43.582303000000024 973.3758600000001 z M 45.995443 1012.0927 L 42.878453 1026.9945 L 32.683753 1038.7683 C 30.769683000000004 1040.9159 30.982983000000004 1044.2143999999998 33.157753 1046.0974999999999 C 35.332503 1047.9805 38.627573 1047.7197999999999 40.479283 1045.5183 L 51.573323 1032.7060999999999 C 52.162373 1032.0258 52.563043 1031.2032 52.735663 1030.32 L 53.902863 1024.3481 L 45.995443 1012.0926999999999 z" stroke-linecap="round" />
</g>
</svg>