<?xml version="1.0" encoding="UTF-8" standalone="no" ?>
<!DOCTYPE svg PUBLIC "-//W3C//DTD SVG 1.1//EN" "http://www.w3.org/Graphics/SVG/1.1/DTD/svg11.dtd">
<svg xmlns="http://www.w3.org/2000/svg" xmlns:xlink="http://www.w3.org/1999/xlink" version="1.1" width="1080" height="1080" viewBox="0 0 1080 1080" xml:space="preserve">
<g transform="matrix(1 0 0 1 540 540)" id="c564361e-272c-45a5-82a7-9e62bc4cc3fe"  >
<rect style="stroke: none; stroke-width: 1; stroke-dasharray: none; stroke-linecap: butt; stroke-dashoffset: 0; stroke-linejoin: miter; stroke-miterlimit: 4; fill: rgb(255,255,255); fill-rule: nonzero; opacity: 1; visibility: hidden;" vector-effect="non-scaling-stroke"  x="-540" y="-540" rx="0" ry="0" width="1080" height="1080" />
</g>
<g transform="matrix(1 0 0 1 540 540)" id="c944f6f4-03ca-4dd8-8407-127a4a3c641e"  >
</g>
<g transform="matrix(47.67 0 0 47.67 272 274.72)"  >
<path style="stroke: none; stroke-width: 1; stroke-dasharray: none; stroke-linecap: butt; stroke-dashoffset: 0; stroke-linejoin: miter; stroke-miterlimit: 4; fill: rgb(0,0,0); fill-rule: nonzero; opacity: 1;" vector-effect="non-scaling-stroke"  transform=" translate(-6.5, -6.5)" d="M 3 2 C 2.44772 2 2 2.44772 2 3 L 2 10 C 2 10.5523 2.44772 11 3 11 L 10 11 C 10.5523 11 11 10.5523 11 10 L 11 3 C 11 2.44772 10.5523 2 10 2 L 3 2 Z" stroke-linecap="round" />
</g>
<g transform="matrix(47.67 0 0 47.67 796.36 274.72)"  >
<path style="stroke: none; stroke-width: 1; stroke-dasharray: none; stroke-linecap: butt; stroke-dashoffset: 0; stroke-linejoin: miter; stroke-miterlimit: 4; fill: rgb(0,0,0); fill-rule: nonzero; opacity: 1;" vector-effect="non-scaling-stroke"  transform=" translate(-17.5, -6.5)" d="M 17.5 2 C 15.0147 2 13 4.01472 13 6.5 L 13 10 C 13 10.5523 13.4477 11 14 11 L 17.5 11 C 19.9853 11 22 8.98528 22 6.5 C 22 4.01472 19.9853 2 17.5 2 Z" stroke-linecap="round" />
</g>
<g transform="matrix(47.67 0 0 47.67 272 799.08)"  >
<path style="stroke: none; stroke-width: 1; stroke-dasharray: none; stroke-linecap: butt; stroke-dashoffset: 0; stroke-linejoin: miter; stroke-miterlimit: 4; fill: rgb(0,0,0); fill-rule: nonzero; opacity: 1;" vector-effect="non-scaling-stroke"  transform=" translate(-6.5, -17.5)" d="M 3 13 C 2.44772 13 2 13.4477 2 14 L 2 21 C 2 21.5523 2.44772 22 3 22 L 10 22 C 10.5523 22 11 21.5523 11 21 L 11 14 C 11 13.4477 10.5523 13 10 13 L 3 13 Z" stroke-linecap="round" />
</g>
<g transform="matrix(47.67 0 0 47.67 796.36 799.08)"  >
<path style="stroke: none; stroke-width: 1; stroke-dasharray: none; stroke-linecap: butt; stroke-dashoffset: 0; stroke-linejoin: miter; stroke-miterlimit: 4; fill: rgb(0,0,0); fill-rule: nonzero; opacity: 1;" vector-effect="non-scaling-stroke"  transform=" translate(-17.5, -17.5)" d="M 14 13 C 13.4477 13 13 13.4477 13 14 L 13 21 C 13 21.5523 13.4477 22 14 22 L 21 22 C 21.5523 22 22 21.5523 22 21 L 22 14 C 22 13.4477 21.5523 13 21 13 L 14 13 Z" stroke-linecap="round" />
</g>
</svg>
