<svg xmlns="http://www.w3.org/2000/svg" version="1.1" viewBox="-5.0 -10.0 110.0 135.0">
 <g>
  <path d="m73.617 37.762c4.1445 0.82812 7.8828 2.2383 11.105 4.1875 0.84375 0.51172 1.7031 1.1328 2.5273 1.8359-0.33203-1.9023-0.92188-3.8516-1.9414-4.9688-2.832-2.6016-41.227-10.168-45.98-9.7461-1.9805 0.17969-3.0234 2.4258-3.5273 4.1055 9.2969 0.085938 21.566 1.3398 37.812 4.5859z"/>
  <path d="m53.055 49.961c-0.17578 0.82031-0.39844 2.0234-0.66016 3.8555-0.16797 1.1758 0.92578 2.125 1.5898 2.5859 1.7227 1.1953 3.668 1.3789 4.3477 1.2031 0.47656-1.7656-0.51172-4.9297-1.582-7.1953-1.1719-0.32812-2.4062-0.47266-3.6953-0.45312z"/>
  <path d="m18.09 48.75c10.195 5.6328 20.137 4.3164 20.023-7.5547 4.7656-5.4844 3.582 6.9531-1.3008 11.777 5.0898 3.3359 12.363-1.1797 17.871-1.9219 6.9531 1.957 15.75-1.2695 21.469 3.0312 7.6758-12.402-25.824-4.7305-29.219-4.5664-6.418-2.8398 4.5273-3.2773 5.8125-5.1484 1.625-2.0977-4.1328-1.4414-5.6797-0.85156-8.6016-3.3203 12.359-6.9258 8.9219 1.668 7.168-2.0977 18.723-2.4102 23.82 2.4883 7.8359-19.875 5.4453 21.539-26.129 18.16 2.0781 1.7852 2.5742 4.5273 1.6836 7.0508 11.438-3.8359 26.336-5.125 29.383-11.766 0.11719 0.54687-24.055 13.516-19.617 5.2734 34.102-7.668 30.609-23.445 8.8516-29.234-47.008-9.3867-57.617-0.96094-59.695 1.6562 11.547 10.078-9.7031 2.1797 3.8047 9.9414zm5.9648-7.9648c-2.4102 0.035156-2.4102-3.75 0-3.7148 2.4102-0.035156 2.4102 3.75 0 3.7148z"/>
  <path d="m71.078 52.891c-0.92188-0.10938-3.543-0.52734-5.8359-0.42188-2.5195 0.11328-5.0586 0.3125-8.2109 0.30078 0 0.1875 0.019531 0.81641 0.03125 0.97266 0.89844 0.16406 2.3555 0.35937 3.5 0.51953 4.7539 0.65234 9.3281 1.293 12.277 2.9492 0.98438-0.74219 1.9531-1.5234 2.9062-2.3555-1.6133-0.97266-3.3555-1.8125-4.668-1.9648z"/>
  <path d="m22.848 61.277c-0.19531 0-0.39453-0.039063-0.58594-0.11719-6.9961-2.8438-7.3945-13.082-7.4062-13.516-0.027344-0.86328 0.64844-1.582 1.5117-1.6094 0.84375-0.035156 1.582 0.64844 1.6133 1.5117 0.003906 0.085937 0.35156 8.6445 5.4609 10.723 0.80078 0.32422 1.1836 1.2344 0.85938 2.0352-0.24609 0.60547-0.83203 0.97656-1.4492 0.97656z"/>
  <path d="m34.867 63.473c-0.125 0-0.25-0.015625-0.375-0.046875-0.83594-0.20703-1.3516-1.0547-1.1445-1.8906 0.58594-2.3828-4.3438-8.2852-6-9.0938-1.1172-0.54297-1.7461-1.5703-2.0938-2.6602-0.50781 0.21484-1.1094 0.15625-1.5742-0.20703-0.67969-0.53125-0.80078-1.5156-0.26953-2.1953l1.7969-2.293c0.42578-0.54297 1.1602-0.74219 1.8047-0.49219 0.64453 0.25391 1.043 0.89844 0.98438 1.5898-0.11328 1.375 0.17969 3.1797 0.72266 3.4453 2.3594 1.1484 8.7422 8.2695 7.6641 12.648-0.17578 0.71094-0.8125 1.1875-1.5156 1.1875z"/>
 </g>
</svg>