<?xml version="1.0" encoding="UTF-8"?>
<svg width="1200pt" height="1200pt" version="1.1" viewBox="0 0 1200 1200" xmlns="http://www.w3.org/2000/svg">
 <path d="m600 60c-297.6 0-540 242.4-540 540s242.4 540 540 540 540-242.4 540-540-242.4-540-540-540zm0 1032c-271.2 0-492-220.8-492-492s220.8-492 492-492 492 220.8 492 492-220.8 492-492 492zm412.8-475.2-72 72c-4.8008 4.8008-10.801 7.1992-16.801 7.1992s-12-2.3984-16.801-7.1992c-9.6016-9.6016-9.6016-24 0-33.602l31.199-31.199h-280.8l110.4 110.4v-14.398c0-13.199 10.801-24 24-24s24 10.801 24 24v72 4.8008c0 1.1992 0 1.1992-1.1992 2.3984 0 1.1992 0 1.1992-1.1992 2.3984 0 1.1992-1.1992 1.1992-1.1992 2.3984 0 0 0 1.1992-1.1992 1.1992-1.1992 2.3984-3.6016 4.8008-7.1992 7.1992 0 0-1.1992 1.1992-1.1992 1.1992-1.1992 0-1.1992 1.1992-2.3984 1.1992s-1.1992 0-2.3984 1.1992c-1.1992 0-1.1992 0-2.3984 1.1992h-4.8008-72c-13.199 0-24-10.801-24-24 0-13.199 10.801-24 24-24h14.398l-109.21-111.59v279.6l31.199-31.199c9.6016-9.6016 24-9.6016 33.602 0 9.6016 9.6016 9.6016 24 0 33.602l-76.801 76.801c-1.1992 0-1.1992 1.1992-2.3984 1.1992-1.1992 0-1.1992 0-2.3984 1.1992-1.1992 0-1.1992 0-2.3984 1.1992h-4.8008-4.8008c-1.1992 0-1.1992 0-2.3984-1.1992-1.1992 0-1.1992 0-2.3984-1.1992-1.1992 0-1.1992-1.1992-2.3984-1.1992-1.1992 0-1.1992-1.1992-2.3984-1.1992-1.1992-1.1992-2.3984-2.3984-3.6016-3.6016l-72-72c-9.6016-9.6016-9.6016-24 0-33.602 9.6016-9.6016 24-9.6016 33.602 0l31.199 31.199-0.007813-279.6-109.2 110.4h14.398c13.199 0 24 10.801 24 24s-10.801 24-24 24h-72-4.8008c-1.1992 0-1.1992 0-2.3984-1.1992-1.1992 0-1.1992 0-2.3984-1.1992-1.1992 0-1.1992-1.1992-2.3984-1.1992-1.1992 0-1.1992-1.1992-2.3984-1.1992-2.3984-1.1992-4.8008-3.6016-7.1992-7.1992l-1.1992-1.1992c0-1.1992-1.1992-1.1992-1.1992-2.3984s0-1.1992-1.1992-2.3984c0-1.1992 0-1.1992-1.1992-2.3984v-4.8008-72c0-13.199 10.801-24 24-24s24 10.801 24 24v14.398l110.4-110.4-278.41-0.007813 31.199 31.199c9.6016 9.6016 9.6016 24 0 33.602-4.8008 6-10.801 8.3984-16.801 8.3984s-12-2.3984-16.801-7.1992l-72-72c-1.1992-1.1992-2.3984-2.3984-3.6016-3.6016 0 0-1.1992-1.1992-1.1992-2.3984s-1.1992-1.1992-1.1992-2.3984c0-1.1992 0-1.1992-1.1992-2.3984 0-1.1992 0-1.1992-1.1992-2.3984-1.1992-3.6016-1.1992-6 0-9.6016 0-1.1992 0-1.1992 1.1992-2.3984 0-1.1992 0-1.1992 1.1992-2.3984 0-1.1992 1.1992-1.1992 1.1992-2.3984 0-1.1992 1.1992-1.1992 1.1992-2.3984 1.1992-1.1992 2.3984-2.3984 3.6016-3.6016l72-72c9.6016-9.6016 24-9.6016 33.602 0 9.6016 9.6016 9.6016 24 0 33.602l-31.199 33.59h279.6l-109.2-110.4v14.398c0 13.199-10.801 24-24 24s-24-10.801-24-24v-72-4.8008c0-1.1992 0-1.1992 1.1992-2.3984 0-1.1992 0-1.1992 1.1992-2.3984 0-1.1992 1.1992-1.1992 1.1992-2.3984 0-1.1992 1.1992-1.1992 1.1992-2.3984 1.1992-2.3984 3.6016-4.8008 7.1992-7.1992 1.1992 0 1.1992-1.1992 2.3984-1.1992s1.1992-1.1992 2.3984-1.1992 1.1992 0 2.3984-1.1992h2.3984 4.8008 72c13.199 0 24 10.801 24 24 0 13.199-10.801 24-24 24h-14.398l110.4 110.4 0.007813-279.61-31.199 31.199c-9.6016 9.6016-24 9.6016-33.602 0-9.6016-9.6016-9.6016-24 0-33.602l75.602-75.602c1.1992 0 1.1992-1.1992 2.3984-1.1992 1.1992 0 1.1992-1.1992 2.3984-1.1992 1.1992 0 1.1992 0 2.3984-1.1992h2.3984 4.8008 4.8008c1.1992 0 1.1992 0 2.3984 1.1992 1.1992 0 1.1992 0 2.3984 1.1992 1.1992 0 1.1992 1.1992 2.3984 1.1992 0 0 1.1992 0 1.1992 1.1992 1.1992 1.1992 2.3984 2.3984 3.6016 3.6016l72 72c9.6016 9.6016 9.6016 24 0 33.602-8.3906 3.6016-14.391 6-20.391 6s-12-2.3984-16.801-7.1992l-31.199-31.199v279.6l110.4-110.4-14.398-0.003907c-13.199 0-24-10.801-24-24s10.801-24 24-24h72 4.8008c1.1992 0 1.1992 0 2.3984 1.1992 1.1992 0 1.1992 0 2.3984 1.1992 1.1992 0 1.1992 1.1992 2.3984 1.1992 0 0 1.1992 0 1.1992 1.1992 2.3984 1.1992 4.8008 3.6016 7.1992 7.1992 0 0 1.1992 1.1992 1.1992 2.3984 0 1.1992 1.1992 1.1992 1.1992 2.3984s0 1.1992 1.1992 2.3984c0 1.1992 0 1.1992 1.1992 2.3984v4.8008 72c0 13.199-10.801 24-24 24-13.199 0-24-10.801-24-24v-14.398l-111.59 109.21h279.6l-31.199-31.199c-9.6016-9.6016-9.6016-24 0-33.602 9.6016-9.6016 24-9.6016 33.602 0l72 72c10.793 9.6016 10.793 24 1.1953 33.602z"/>
</svg>
