<svg xmlns="http://www.w3.org/2000/svg" version="1.1" viewBox="-5.0 -10.0 110.0 135.0">
 <path d="m40.613 82.324c-1.0703 0.019531-2.457-0.058594-4.043-0.29688 1.2383 1.9219 3.7227 4.3711 8.3359 4.4023-2.3828-1.4414-3.7539-3.2773-4.293-4.1055z"/>
 <path d="m33.242 10.102c0.74609 0.48828 1.418 1.0312 2.0312 1.6289 1.3906 0.42578 4.082 0.16406 5.5703-1.2656 1.0273-0.98438 1.2812-2.3359 0.75781-4.0117-0.45703-1.4492-1.125-2.3281-2-2.6172-1.457-0.48047-3.1484 0.73047-3.1641 0.74219-0.23047 0.16406-0.53516 0.19531-0.78906 0.078125-0.25781-0.11719-0.43359-0.36328-0.45703-0.64844-0.015625-0.13672-0.34375-3.4453-3.3945-3.9492-3.1289-0.51562-4.8906 2.3359-4.9648 2.457-0.12109 0.19922-0.32422 0.33594-0.55469 0.37109-0.23047 0.035156-0.46484-0.03125-0.64062-0.18359-3.0586-2.6875-6.5586-0.082031-6.7109 0.03125-0.011719 0.007813-0.027343 0.019531-0.039062 0.027344-4.0234 2.6953-3.9609 7.9922-3.668 10.504 2.8281-2.4297 10.594-8 18.023-3.1641z"/>
 <path d="m14.488 15.688c-4.0547 0.97656-6.4414 3.9375-7.5586 5.7383 4.1328-0.72266 8.6211-0.019531 10.707 0.40234-0.77734-3.7539-2.5117-5.582-3.1484-6.1406z"/>
 <path d="m17.734 29.855c0.31641-2.1914 0.36328-4.0898 0.23047-5.7188-4.2109 2.4883-6.3359 4.8828-6.168 6.9648 0.17578 2.168 2.875 3.832 4.5273 4.5781 0.59375-1.7891 1.1055-3.6953 1.4102-5.8242z"/>
 <path d="m77.887 43.184c9.2461-0.62109 14.383-5.8711 15.082-9.4023 0.35156-1.793-0.25781-3.6641-1.4258-4.3555-1.2227-0.73047-2.6484 0.085938-3.625 0.89844-1.4805 1.2305-3.6367 2.6602-6.4062 4.2539 0 0.003906 0 0.003906-0.003907 0.003906-0.56641 0.84375-1.1992 1.7148-1.9219 2.6133-0.26953 0.33594-0.76563 0.39063-1.1016 0.12109-0.33594-0.26953-0.39062-0.76562-0.12109-1.1016 0.72656-0.90234 1.3672-1.7773 1.9219-2.6172 0.019532-0.035156 0.042969-0.066406 0.066406-0.097656 3.8477-5.8398 3.8086-10.09 2.4102-12.102-0.98438-1.418-2.7148-1.8828-4.625-1.2422-2.4492 0.81641-3.1289 3.0117-4.0703 6.0547-1.0781 3.4805-2.4219 7.8086-7.1914 11.293-8.8438 6.4688-13.941 3.8398-20.707-0.90234-3.1523-2.2109-4.4883-6.6172-5.9102-11.277-1.3828-4.543-2.8008-9.2148-5.9414-12.336-0.007812-0.003906-0.015625-0.011719-0.019531-0.019531-0.57812-0.57031-1.207-1.0859-1.9102-1.5469-6.9336-4.5156-14.395 1.4453-16.527 3.3867 1.5312 1.5 4.7891 5.8984 3.4297 15.273-0.37109 2.5742-1.0156 4.8125-1.7461 6.8945 0 0.003907-0.003907 0.007813-0.003907 0.011719 0 0.003907-0.003906 0.007813-0.003906 0.011719-0.38672 1.1055-0.79688 2.1641-1.1992 3.2188-2.2539 5.8555-4.3789 11.383-1.4727 21.891 4.4648 16.109 20.777 18.918 26.145 18.629 0.30469-0.015625 0.59766 0.14844 0.73828 0.42188 0.078125 0.15234 1.0898 2.0117 3.3438 3.5664v11.676c-4.0273 0.42188-6.0898 1.9297-7.1328 3.2188-0.070312 0.085937-0.054687 0.17578-0.023437 0.23438 0.023437 0.054687 0.085937 0.14453 0.22266 0.14453h6.3672c-0.070313-0.48438 0.0625-0.97656 0.37891-1.3711 0.41797-0.52344 0.92578-1.0039 1.5039-1.4375v-0.89062l0.003906-10.785c0.48047 0.24609 1 0.47266 1.5664 0.66406h0.003907c0.070312 0.007812 0.13672 0.03125 0.19922 0.0625h0.003906c1.418 0.45312 3.1055 0.69531 5.0742 0.57031v9.5898c-2.2812 0.23828-4.1719 0.85156-5.6211 1.8398h-0.003907c-0.59766 0.41406-1.0977 0.87109-1.5078 1.3789-0.019531 0.023437-0.078125 0.097656-0.035156 0.21484 0.011718 0.03125 0.054687 0.12891 0.16406 0.15625h0.007813c0.011719 0.003906 0.019531 0.003906 0.023437 0.003906 0.011719 0.003906 0.023438 0.003906 0.039063 0.003906h7.7461c0.28125 0 0.51172-0.22656 0.51172-0.51172v-12.805c0.36328-0.050782 0.73438-0.11328 1.1133-0.19141 5.2773-1.0664 8.8633-3.6406 10.68-7.6719-3.125 1.7539-5.5742 2.5195-5.6406 2.5391-0.074219 0.023437-0.15234 0.035156-0.22656 0.035156-0.33594 0-0.64844-0.21875-0.75-0.55859-0.125-0.41406 0.10938-0.85156 0.52344-0.97656 0.16797-0.054687 16.797-5.2734 17.855-19.953-0.9375-0.12891-1.543-0.25-1.5742-0.25781-0.42188-0.089844-0.69922-0.50391-0.61328-0.92578 0.089843-0.42969 0.50781-0.69922 0.92969-0.61328 0.007813 0.003906 0.89453 0.18359 2.168 0.32422 2.5898 0.28125 8.6953 0.5625 9.3164-2.9648 0.38281-2.1719 0.007813-3.7734-1.0898-4.668-2.5117 0.88672-5.4414 1.0625-7.3711 1.0625-1.1875 0-1.9961-0.066406-2.082-0.074219-0.43359-0.035156-0.75-0.41406-0.71484-0.84766 0.039062-0.43359 0.42578-0.75391 0.84766-0.71484 0.054687 0.003907 5.3672 0.44141 9.1328-1.0273 0.027343-0.011719 0.050781-0.019531 0.078124-0.027344 1.7656-0.69922 2.8672-1.7109 3.2812-3 0.74219-2.3438 0.22266-3.9727-1.5469-4.8477-2.6406 1.75-6.2422 3.1133-10.902 3.4297h-0.054688c-0.40625 0-0.75391-0.31641-0.78125-0.73438-0.035156-0.42969 0.29297-0.80469 0.72656-0.83594zm-53.832-23.551c-0.97656 0-1.7734-0.79687-1.7734-1.7773 0-0.97656 0.79688-1.7734 1.7734-1.7734 0.98047 0 1.7773 0.79688 1.7773 1.7734 0 0.98047-0.79688 1.7773-1.7773 1.7773zm45.762 35.438c-3.8242 12-16.855 12.609-19.461 12.609-0.27734 0-0.4375-0.007813-0.45703-0.007813-5.7344-0.53906-9.9883-2.6523-12.68-6.2773-4.5547-6.1328-2.9688-14.297-2.8984-14.645 0.085938-0.42188 0.49609-0.69922 0.92188-0.61719 0.42187 0.085938 0.70312 0.50391 0.61719 0.92578-0.015625 0.078125-1.5117 7.8438 2.625 13.406 2.418 3.25 6.2969 5.1484 11.535 5.6367 0.53125 0.027344 13.27 0.5625 17.75-10.016-2.8516 0.75-9.1172 1.5469-16.258-2.918-0.36719-0.23047-0.48047-0.71484-0.25-1.082 0.23047-0.36328 0.71875-0.48047 1.082-0.24609 8.8086 5.5117 16.332 2.3086 16.406 2.2773 0.28125-0.125 0.61328-0.074219 0.84375 0.13281 0.22656 0.20703 0.32031 0.52344 0.22266 0.82031z"/>
</svg>