<?xml version="1.0" encoding="utf-8"?>
<svg version="1.1" x="0px" y="0px" viewBox="0 0 48 60" style="enable-background:new 0 0 48 48;" xmlns="http://www.w3.org/2000/svg">
  <path d="M 45.689 25.049 L 39.172 18.204 C 37.017 15.94 35.121 15.148 31.988 12.898 C 30.6 11.593 29.919 11.037 28.917 11.12 C 22.586 21.215 21.784 10.368 18.625 11.403 C 17.746 11.69 18.079 10.882 16.106 12.773 C 13.566 14.956 10.983 15.941 8.828 18.205 L 2.31 25.049 C 2.056 25.316 1.947 25.71 2.023 26.087 C 2.1 26.466 2.35 26.772 2.683 26.894 L 5.209 27.823 L 6.051 30.608 C 6.151 30.936 6.385 31.196 6.683 31.305 L 9.209 32.234 L 10.051 35.02 C 10.184 35.458 10.551 35.759 10.97 35.773 C 11.384 35.799 11.772 35.51 11.928 35.08 L 12.911 32.369 L 11.009 47.755 C 10.959 48.16 11.116 48.561 11.418 48.799 C 11.72 49.037 12.115 49.072 12.447 48.89 L 16 46.931 L 19.553 48.889 C 19.834 49.045 20.166 49.045 20.448 48.889 L 24 46.931 L 27.553 48.889 C 27.834 49.045 28.166 49.045 28.448 48.889 L 32 46.931 L 35.553 48.889 C 35.886 49.07 36.281 49.037 36.582 48.798 C 36.884 48.56 37.041 48.157 36.991 47.754 L 35.089 32.368 L 36.072 35.079 C 36.228 35.509 36.606 35.793 37.03 35.772 C 37.449 35.758 37.817 35.457 37.949 35.019 L 38.791 32.233 L 41.317 31.304 C 41.615 31.194 41.85 30.935 41.949 30.606 L 42.791 27.821 L 45.317 26.893 C 45.65 26.771 45.9 26.464 45.977 26.086 C 46.052 25.709 45.943 25.316 45.689 25.049 Z M 41.683 25.904 C 41.385 26.014 41.15 26.271 41.051 26.6 L 40.209 29.386 L 37.683 30.315 C 37.385 30.425 37.15 30.683 37.051 31.011 L 36.914 31.464 L 33.928 23.232 C 33.74 22.715 33.235 22.43 32.744 22.575 C 32.256 22.717 31.94 23.239 32.009 23.791 L 34.753 45.984 L 32.447 44.712 C 32.166 44.556 31.834 44.556 31.552 44.712 L 28 46.67 L 24.447 44.712 C 24.166 44.556 23.834 44.556 23.552 44.712 L 20 46.67 L 16.447 44.712 C 16.166 44.556 15.834 44.556 15.552 44.712 L 13.246 45.984 L 15.99 23.791 C 16.058 23.239 15.743 22.717 15.255 22.575 C 14.768 22.435 14.259 22.714 14.071 23.232 L 11.085 31.464 L 10.948 31.011 C 10.848 30.683 10.614 30.424 10.316 30.315 L 7.79 29.386 L 6.948 26.6 C 6.848 26.271 6.614 26.012 6.316 25.904 L 4.894 25.381 L 10.207 19.801 C 18.94 13.177 17.656 13.364 18.561 13.168 C 20.665 14.023 20.985 17.407 24.678 18.003 C 28.817 16.22 25.883 17.142 28.471 15.845 C 28.715 15.722 29.472 13.999 29.592 14.263 C 29.712 14.525 29.693 14.099 30.458 14.479 C 33.418 15.953 35.626 17.524 37.794 19.801 L 43.107 25.381 L 41.683 25.904 Z" style=""/>
</svg>