<svg xmlns="http://www.w3.org/2000/svg" version="1.1" viewBox="-5.0 -10.0 110.0 135.0">
 <path d="m91.102 15.289c1.7305-0.875 3.1328-2.3867 3.7461-4.2422 0.25-0.75781 0.64844-2.6172 0.28516-3.3477-0.078124-0.15234-0.17578-0.25-0.33984-0.30469-0.058594-0.019531-0.078125-0.023437-0.13281-0.03125-0.42578 0.35547-0.64844 0.94141-0.90234 1.4258-1.2031 2.293-2.1016 3.2266-4.5 4.1797 0.45703 0.50391 0.92188 1.0078 1.3203 1.5625 0.17578 0.25 0.35938 0.5 0.52344 0.76172z"/>
 <path d="m22.742 62.262c0.31641 0.24219 0.67187 0.49609 0.92187 0.80469 0.48047 0.59375 0.57031 1.5859 1.2656 2 0.22266 0.13281 0.52344 0.1875 0.76953 0.10547 0.23828-0.078125 0.38672-0.26953 0.48438-0.48828 0.13281-0.27734 0.19531-0.57812 0.30859-0.86719 0.023437 0.003906 0.039062 0.011719 0.0625 0.019532 1.1484 0.33984 1.7227 1.6484 2.3555 1.8281 0.14062 0.039063 0.26172 0 0.38672-0.070312 0.60938-0.33984 1.3125-1.7031 1.957-2.3164 0.32031-0.25 0.62109-0.4375 0.99219-0.58984 1.4961-0.60938 4.9141-1.2461 6.5508-1.3203-1.7109-0.61719-3.4336-1.1992-5.0859-1.9648-2.7812-1.2891-6.5703-4.0781-9.6797-3.832-1.3477 0.22266-2.2188 0.72266-3.0195 1.8398-0.34766 0.49219-0.64844 1.0391-0.84766 1.6094 0.51563 1.8008 1.1289 2.1367 2.5742 3.2383z"/>
 <path d="m63.344 87.652c0.16016 0.066406 0.40234 0.050781 0.57422 0.050781-0.085938 0.97266-0.31641 3.0859 0.34766 3.8438 0.42188 0.48438 1.2852 0.58984 1.8906 0.64844 1.0508 0.11328 3.7109 0.26563 4.5391-0.39453 0.13281-0.10547 0.20313-0.22266 0.22266-0.39062 0.11328-0.92578-2.4453-3.6406-2.9688-4.6367-0.75781-1.4492-1.3945-6.8047-1.3672-8.5703 0.03125-2.0117 0.88672-3.6328 1.2383-5.5508 0.35156-1.8906 0.30469-3.8633 0.59375-5.7734 0.09375-0.63672 0.23047-1.2734 0.4375-1.8906 0.039063-0.11328 0.25781-0.58594 0.24219-0.67969-0.003906-0.03125-0.03125-0.054688-0.046875-0.078125-1.832 1.0312-3.7969 1.6289-5.9141 1.6641l-0.64844 4.25c-0.1875 1.1875-0.35547 2.4141-0.67578 3.5703 0.27734 0.6875 0.55078 1.375 0.74609 2.0938 0.86719 3.2344 0.67578 6.7383 0.51172 10.047-0.023437 0.42188-0.18359 1.5977 0.27734 1.7969z"/>
 <path d="m14.531 67.359c0.48438 1.5391 1.1562 3.0156 1.7617 4.5078 1.6875 4.1445 3.4336 8.3672 3.9727 12.848 0.039063 0.3125 0.074219 0.63281 0.085937 0.94922 0.023438 0.53125-0.10547 1.2852 0.44531 1.5898 0.16406 0.089844 0.32422 0.11328 0.50391 0.14844 0.015625 0.003906 0.03125 0.003906 0.046875 0.011718 0.16016 0.91016 0.32422 2.8828 1.0625 3.4258 0.60156 0.44531 1.8359 0.54688 2.5781 0.55469 1.0586 0.058594 2.668 0.18359 3.543-0.55078 0.14844-0.125 0.25391-0.28516 0.25781-0.48438 0.03125-1.1211-2.7773-3.3359-3.4023-4.4297-0.4375-0.76172-0.67188-1.7695-0.92969-2.6055-1.1836-3.8477-2.0859-7.793-2.3047-11.824-0.042969-0.78125-0.11328-1.5938-0.03125-2.375 0.17578-1.7578 0.99219-3.3906 1.3672-5.1016-0.75781-1.6836-2.9531-1.75-3.7383-4.3477-1.6562 2.6055-3.1758 5.3594-5.2227 7.6875z"/>
 <path d="m99.598 32.84c-0.41406-0.43359-0.97656-0.70703-1.3555-1.1758-0.83984-1.0352-1.5859-2.7188-2.2344-3.9141-0.62109-1.1484-1.3906-2.3242-1.8477-3.5508-0.50391-1.3555-0.60156-2.8086-1.0039-4.1914-0.62109-2.1289-2.6016-5.0859-4.207-6.6172-0.41406-0.39453-0.84766-0.68359-1.3203-1.0039 0.10156-0.19531 0.19531-0.39453 0.28516-0.59375 0.089844-0.19922 0.17578-0.40234 0.25-0.60938 0.078126-0.20312 0.14844-0.41406 0.21875-0.62109 0.066407-0.21094 0.125-0.42188 0.17969-0.63281 0.054688-0.21484 0.10547-0.42969 0.14453-0.64453 0.039063-0.21484 0.078125-0.42969 0.10547-0.64844 0.03125-0.21875 0.050781-0.4375 0.070312-0.65625 0.015626-0.21875 0.027344-0.44141 0.03125-0.65625 0.003907-0.375 0.011719-0.80469-0.10937-1.1602-0.066407-0.20312-0.19531-0.4375-0.40234-0.52344-0.097656-0.039063-0.20703-0.035156-0.3125-0.039063-0.375 0.42578-0.49609 1.0898-0.6875 1.6172-0.65625 1.8203-1.9453 3.4961-3.5898 4.5352-1.5664 0.09375-3.5547 0.33203-4.6602 1.6016-0.066406 0.074219-0.10547 0.14062-0.13672 0.23438 0.039063 0.078125 0.085937 0.14453 0.13672 0.21484-0.34375-0.027344-1.4922-0.74609-1.8906-0.92969-1.7109-0.78516-5.7383-2.0195-7.3359-0.66406-0.29297 0.25-0.48438 0.60156-0.50391 0.99219-0.039063 1.0195 1.7031 3.5273 2.4375 4.2891 1.2539 1.3047 2.9922 1.5742 4.7344 1.6016 0.67578 0.007812 1.3555-0.035156 2.0352-0.085938-1.8789 0.55078-4.2891 0.76953-6.0586-0.20312-0.19531-0.10938-0.38672-0.23047-0.57422-0.35547-2.0547 1.7891-5.6211 4.4922-8.418 4.2969-1.2695-0.089844-2.4727-0.36719-3.7578-0.26953-1.8398 0.13672-3.4531 0.875-5.2227 1.293-2.5 0.58984-5.2422 0.47656-7.7969 0.375-4.6055-0.22266-9.1992-0.59766-13.777-1.1211-3.7695-0.4375-7.5195-0.97656-11.293-1.375-0.77344-0.082032-1.5547-0.14063-2.3203-0.27344-1.8047-0.30859-3.0898-0.67578-5-0.58984-2.7891 0.125-5.8477 1.0234-7.9805 2.8672-2.957 2.5586-3.8242 6.2734-4.0781 10.016-0.23047 3.375 0.078126 6.7031 0.25 10.07 0.10547 1.9766 0.11719 3.9531 0.03125 5.9297-0.035156 0.85938-0.11719 3.4141-0.32812 4.1055-0.12891 0.42969-0.57813 0.78906-0.81641 1.168-0.33203 0.52734-0.58203 1.1523-0.78516 1.7383-1.1953 3.4023-1.0117 9.4609 1.5078 12.312 0.14844 0.17187 0.32031 0.32422 0.50391 0.45703 0.12891-1.8555 0.91016-3.3477 1.5469-5.0469 0.40234-1.0664 0.67969-2.25 0.73828-3.3906 0.097656-1.8984-0.20703-3.7617-0.71094-5.5859-0.12891-0.46094-0.46875-0.98047-0.50781-1.4492-0.078125-0.95703 0.15625-2.0352 0.24219-2.9922 0.14062-1.5898 0.24609-3.1797 0.32031-4.7695 0.24609-5.5898-1.0742-15.719 3.4805-19.73 0.60938-0.53906 1.3125-0.90234 2.0391-1.2617-0.98828 1.1484-1.7734 2.3828-2.457 3.7305-1.7305 3.4102-2.1289 6.3477-1.8477 10.133 0.18359 2.4414 0.57812 4.8438 1.0039 7.25 0.57422 3.2344 1.4609 7.4648 1.3867 10.719-0.003907 0.30469-0.023438 0.60156-0.046875 0.90234-0.023438 0.30078-0.058594 0.60156-0.10156 0.90234s-0.09375 0.59375-0.16016 0.89453c-0.0625 0.29688-0.13281 0.58984-0.21484 0.87891-0.36719 1.332-0.9375 2.6289-1.5742 3.8516-0.35547 0.67969-0.80469 1.3516-1.0469 2.0781 0.26953 1.2773 0.5 2.5625 0.69531 3.8594 0.19531 1.293 0.35156 2.5898 0.47266 3.8906s0.20312 2.6055 0.25 3.9102c0.046875 1.3047 0.058594 2.6133 0.027344 3.918-0.023438 1.2148-0.12109 2.4375-0.24219 3.6484-0.066406 0.64063-0.27344 1.3945-0.20312 2.0234 0.03125 0.27734 0.13281 0.51953 0.36328 0.67969 0.19922 0.14062 0.45703 0.1875 0.69141 0.24219-0.003906 0.85547-0.20312 3.1445 0.39453 3.7578 0.53906 0.55469 1.625 0.76562 2.3555 0.94531 1.1406 0.22266 3.0039 0.46484 4.0312-0.24609 0.20703-0.14453 0.375-0.36719 0.40234-0.62109 0.078125-0.70312-1.7695-3.4062-2.207-4.0508-0.29688-0.4375-0.80469-1.0195-0.9375-1.5234-0.19141-0.73047-0.1875-1.6211-0.23828-2.375-0.28125-4.1641-0.070312-11.234 1.7695-15.043 0.55078-1.1406 1.3125-2.1719 2.0391-3.207 0.85156-1.2227 1.6914-2.4453 2.4648-3.7188 1.1836-1.957 2.875-5.2031 4.5469-6.6641 0.97266-0.84766 2.3477-1.1914 3.6211-1.0938 2.9062 0.22266 6.0391 2.4922 8.6484 3.7383 0.51172 0.25 1.0352 0.48438 1.5664 0.71094 0.52734 0.22266 1.0625 0.42969 1.6016 0.62109 0.53906 0.19141 1.0859 0.36719 1.6328 0.53125 0.55078 0.16016 1.1016 0.30469 1.6602 0.4375 2.2422 0.51172 4.3906 0.62109 6.6836 0.53906 1.2461-0.046875 2.5898-0.22266 3.8242-0.023437 0.55859 0.089843 1.0039 0.28125 1.3711 0.72266 1.1992 1.4336 1.7383 5.7227 1.9102 7.6016 0.09375 1.0547 0.066406 2.0977 0.29688 3.1406 0.34375 1.5391 1.293 2.9258 1.4023 4.5039 0.066406 0.94922-0.023438 1.9297-0.066407 2.8789-0.085937 1.9219-0.22266 3.8398-0.40625 5.7578-0.058593 0.58203-0.50781 2.7148-0.19922 3.082 0.19531 0.23047 0.55469 0.23047 0.83203 0.25781-0.1875 0.95703-0.36719 3.1367 0.19922 3.9688 0.39844 0.59375 1.293 0.76562 1.9531 0.875 1.0547 0.17578 3.3359 0.39453 4.207-0.25781 0.21875-0.16406 0.375-0.41016 0.39844-0.68359 0.10156-1.1875-2.0156-3.6016-2.5586-4.668-0.14062-0.27734-0.21875-0.58594-0.27344-0.89062-0.51172-2.8672-0.45703-6.7852-0.10547-9.6914 0.125-1.0312 0.55859-1.7969 0.89453-2.7539 0.23828-0.67969 0.41016-1.4258 0.58203-2.1289 0.28906-1.1758 0.45703-2.3867 0.65625-3.582 0.48828-2.9336 0.9375-5.832 1.9375-8.6523 0.14453-0.40625 0.29297-1.0117 0.52734-1.3672-0.089844 0.69141-0.375 1.3438-0.51172 2.0273-0.23828 1.1797-0.35547 2.3594-0.55859 3.543 3.6172-0.17187 6.5586-1.6875 8.9805-4.3516 3.0195-3.3242 4.2617-7.0664 5.7656-11.219 1.5742-4.3438 3.2539-9.2148 5.832-13.062-2.4648-0.62891-4.0234-1.1797-5.375-3.4688-0.22266-0.375-0.41797-0.76953-0.58594-1.1758 0.33594 0.43359 0.55859 0.96094 0.89453 1.4102 1.3164 1.7422 3.1094 2.2656 5.1953 2.5273 1.3398 0.17578 2.6875 0.26562 4.0391 0.26953 0.99219 0.011719 2.0859-0.085938 3.0664 0.085938 0.79297 0.13672 1.2305 0.6875 1.8281 1.1641 0.85938 0.67969 2.0195 1.0586 3.1133 0.85547 0.35156-0.066407 0.67578-0.24609 1.0195-0.34766 0.64062-0.19531 1.2461-0.23437 1.8008-0.66797 0.82812-0.65625 0.78906-1.5273 0.99219-2.4492 0.058593-0.27734 0.1875-0.55859 0.20703-0.83984 0.03125-0.40234-0.12109-0.71875-0.39453-1.0039zm-13.098-8.7773c-0.39453-0.085938-0.77734-0.34766-0.99219-0.69531-0.125-0.20313-0.20312-0.45703-0.14453-0.69141 0.078125-0.31641 0.29688-0.52734 0.5625-0.69531 0.19141 0.046875 0.45703 0.14844 0.57422 0.32031 0.039062 0.058594 0.066406 0.11719 0.042969 0.1875-0.0625 0.21484-0.35547 0.32812-0.53906 0.42188 0.015625 0.074219 0.03125 0.14453 0.058594 0.21484 0.14453 0.375 0.51562 0.64844 0.875 0.80859 0.078125 0.035156 0.14062 0.058594 0.21484 0.11328 0.011718 0.011719 0.027344 0.023437 0.039062 0.03125-0.23047 0.023437-0.46875 0.027344-0.69531-0.023437zm2.7969-1.7344c-0.26562-0.33984-0.53125-0.64062-0.86719-0.90625-0.9375-0.75-2.4844-1.4336-3.707-1.3008 0.37891-0.37109 0.70312-0.57812 1.2188-0.70312 0.44922-0.015625 0.76172-0.023438 1.1758 0.1875 1.0898 0.55859 2.3828 2.4531 2.7539 3.6172-0.18359-0.30469-0.375-0.60156-0.57812-0.89453zm9.7266 11.195c-0.32031 0.058593-0.95703-0.14063-1.3398-0.14844-0.51172-0.007812-0.85547 0.16406-1.2109 0.52344l-0.050781 0.050781c-0.070313 0.10938-0.14062 0.22266-0.19531 0.33984-0.21094 0.48438-0.011718 0.90234 0.15625 1.3594-0.14844-0.16797-0.28516-0.34766-0.375-0.55859-0.16016-0.38672-0.19141-0.80859-0.023437-1.1953 0.19141-0.44531 0.5625-0.66797 0.98438-0.84766 0.44141-0.042969 0.87109-0.003906 1.3086 0.078125 0.26562 0.050781 0.61719 0.097656 0.77734 0.33203l-0.023438 0.066407z"/>
</svg>