<?xml version="1.0" encoding="UTF-8" standalone="no" ?>
<!DOCTYPE svg PUBLIC "-//W3C//DTD SVG 1.1//EN" "http://www.w3.org/Graphics/SVG/1.1/DTD/svg11.dtd">
<svg xmlns="http://www.w3.org/2000/svg" xmlns:xlink="http://www.w3.org/1999/xlink" version="1.1" width="1080" height="1080" viewBox="0 0 1080 1080" xml:space="preserve">
<desc>Created with Fabric.js 5.2.4</desc>
<defs>
</defs>
<rect x="0" y="0" width="100%" height="100%" fill="transparent"></rect>
<g transform="matrix(1 0 0 1 540 540)" id="55232e87-0591-4e20-b587-c821ab564e56"  >
<rect style="stroke: none; stroke-width: 1; stroke-dasharray: none; stroke-linecap: butt; stroke-dashoffset: 0; stroke-linejoin: miter; stroke-miterlimit: 4; fill: rgb(255,255,255); fill-rule: nonzero; opacity: 1; visibility: hidden;" vector-effect="non-scaling-stroke"  x="-540" y="-540" rx="0" ry="0" width="1080" height="1080" />
</g>
<g transform="matrix(1 0 0 1 540 540)" id="7c1afed6-6a2a-48d4-810b-c2090497293c"  >
</g>
<g transform="matrix(1.61 0 0 1.61 542.53 542.91)"  >
<g style="" vector-effect="non-scaling-stroke"   >
		<g transform="matrix(1.33 0 0 1.33 0 0)"  >
<path style="stroke: none; stroke-width: 1; stroke-dasharray: none; stroke-linecap: butt; stroke-dashoffset: 0; stroke-linejoin: miter; stroke-miterlimit: 4; fill: rgb(0,0,0); fill-rule: nonzero; opacity: 1;" vector-effect="non-scaling-stroke"  transform=" translate(-349.97, -279.92)" d="M 546.95 311.92 L 511.446 270.47900000000004 C 509.68820000000005 268.45950000000005 508.7155 265.87350000000004 508.6999 263.19780000000003 L 508.6999 229.59980000000002 C 508.735056 193.81480000000002 498.05490000000003 158.83780000000002 478.0399 129.1798 C 458.02389999999997 99.5198 429.5829 76.5318 396.3879 63.175799999999995 C 363.1889 49.82079999999999 326.7549 46.706799999999994 291.7679 54.2422 C 256.7879 61.773399999999995 224.8619 79.6092 200.1079 105.44919999999999 C 175.3499 131.28519999999997 158.89690000000002 163.94119999999998 152.8619 199.21519999999998 C 146.83069999999998 234.4852 151.4947 270.75419999999997 166.2599 303.35519999999997 C 174.27159999999998 319.28119999999996 184.4279 334.03119999999996 196.44389999999999 347.2032 C 200.9244 352.8048 205.57279999999997 358.4022 210.0529 364.00419999999997 L 210.048994 364.00419999999997 C 226.579994 384.8162 239.025994 408.5662 246.728994 434.00419999999997 C 252.533694 455.1522 255.748494 476.93019999999996 256.307094 498.8522 C 256.545374 504.8639 261.490694 509.61019999999996 267.506094 509.6062 L 379.896094 509.6062 C 382.868794 509.6062 385.716394 508.4265 387.817994 506.325 C 389.919594 504.22339999999997 391.099194 501.37579999999997 391.099194 498.4031 L 391.099194 476.00509999999997 C 391.099194 467.0949 394.63829400000003 458.5481 400.93899400000004 452.2471 C 407.239794 445.9463 415.78699400000005 442.4033 424.696994 442.4033 L 475.098994 442.4033 C 484.009194 442.4033 492.555994 438.8642 498.856994 432.5635 C 505.15779399999997 426.2627 508.696794 417.71549999999996 508.696794 408.8055 L 508.696794 341.6065 C 508.696794 335.419 513.712394 330.4035 519.895794 330.4035 L 538.434794 330.4035 C 542.805894 330.4035 546.778594 327.8605 548.606794 323.8918 C 550.434894 319.9191 549.7864940000001 315.2473 546.946594 311.9268 z M 380.57000000000005 256.982 C 371.71060000000006 263.8023 366.60100000000006 274.41600000000005 366.797 285.59900000000005 L 366.797 330.40000000000003 L 366.797 330.39609400000006 C 366.797 336.33749400000005 364.43760000000003 342.0370940000001 360.2345 346.23609400000004 C 356.0353 350.43919400000004 350.33610000000004 352.79859400000004 344.39450000000005 352.79859400000004 L 310.79650000000004 352.79859400000004 C 304.85510000000005 352.79859400000004 299.1555 350.43919400000004 294.95650000000006 346.23609400000004 C 290.75730000000004 342.036894 288.39400000000006 336.33769400000006 288.39400000000006 330.39609400000006 L 288.39400000000006 285.59909400000004 C 288.5854100000001 274.388094 283.45650000000006 263.751094 274.56200000000007 256.927094 C 254.12800000000007 241.931094 241.00000000000006 218.986094 238.42900000000006 193.771094 C 235.85870000000006 168.560094 244.08520000000007 143.435094 261.07400000000007 124.62609400000001 C 278.06280000000004 105.81709400000003 302.2220000000001 95.08309400000002 327.5660000000001 95.08309400000002 C 352.9140000000001 95.08309400000002 377.0700000000001 105.81709400000001 394.0580000000001 124.62609400000002 C 411.0460000000001 143.43509400000005 419.2770000000001 168.56009400000002 416.70600000000013 193.771094 C 414.13570000000016 218.986094 401.0070000000001 241.931094 380.56900000000013 256.927094 z" stroke-linecap="round" />
</g>
		<g transform="matrix(1.33 0 0 1.33 -29.82 44.91)"  >
<path style="stroke: none; stroke-width: 1; stroke-dasharray: none; stroke-linecap: butt; stroke-dashoffset: 0; stroke-linejoin: miter; stroke-miterlimit: 4; fill: rgb(0,0,0); fill-rule: nonzero; opacity: 1;" vector-effect="non-scaling-stroke"  transform=" translate(-327.6, -313.6)" d="M 310.8 296.8 L 344.402 296.8 L 344.402 330.402 L 310.8 330.402 z" stroke-linecap="round" />
</g>
		<g transform="matrix(1.33 0 0 1.33 -29.86 -111.98)"  >
<path style="stroke: none; stroke-width: 1; stroke-dasharray: none; stroke-linecap: butt; stroke-dashoffset: 0; stroke-linejoin: miter; stroke-miterlimit: 4; fill: rgb(0,0,0); fill-rule: nonzero; opacity: 1;" vector-effect="non-scaling-stroke"  transform=" translate(-327.57, -195.93)" d="M 372.4 134.73 C 358.142 121.80399999999999 338.99 115.67499999999998 319.873 117.93299999999999 C 305.096 119.6869 291.311 126.2768 280.666 136.679 C 270.021 147.081 263.111 160.71 261.018 175.445 C 259.29139999999995 187.46099999999998 260.87737999999996 199.718 265.60389999999995 210.898 C 270.3305 222.078 278.02189999999996 231.757 287.84189999999995 238.89 C 299.36189999999993 247.5384 307.1818999999999 260.222 309.73689999999993 274.394 L 345.46689999999995 274.394 C 347.98639999999995 260.222 355.79089999999997 247.535 367.3068999999999 238.89000000000001 C 384.65489999999994 226.347 394.89289999999994 206.20600000000002 394.8028999999999 184.79600000000002 C 394.7950879999999 165.68300000000002 386.6505999999999 147.47600000000003 372.4008999999999 134.73000000000002 z" stroke-linecap="round" />
</g>
</g>
</g>
</svg>