<svg xmlns="http://www.w3.org/2000/svg" version="1.1" viewBox="-5.0 -10.0 110.0 135.0">
 <path d="m82.5 59.699c3.8984-1.6992 6.5-4.3008 7.1016-5.3008l0.89844-1.5-1.6992 0.30078c-3.1992 0.5-5.1016 0.39844-6.8984 0.10156 1.1016-0.89844 4.1016-3.1992 4.1016-3.1992s-5.5-0.5-7.8984-0.69922c1.1992-0.80078 4.8984-3.1992 4.8984-3.1992-4-0.19922-10.398-1-12.398-2.5-12.801-7.1992-23.5-9.8008-29.699-7.3008-0.39844-0.69922-1.1992-2.1992-1.6992-3.8008-1.1992-3.3984-4.8008-6.8984-8.1016-7.8008-2.3008-0.60156-4.6992-0.60156-6.8008 0.10156-2.3008-1-9.5-1.6016-15.199 1.6992 2.3008 0 8.6016 0.19922 13.102 3.1992 0.39844 0.30078 0.5 0.80078 0.19922 1.1992s-0.80078 0.5-1.1992 0.19922c-4.1055-2.8008-10.207-2.8984-12.207-2.8984 1.8984 1.1016 3.8008 2 5.6016 2.8008 2.5 1.1016 6.6016 3.8008 6.6016 3.8008 1.3008 1.1016 2.3984 2 2.8984 3.1992 1.1016 2.6016 1.3984 4.3008 1.8984 6.8008l1.1992 10.098 0.19922 1.8984s1.8008-1.8984 2.1016-2c0.10156 0.5 0.19922 4.6992 0.19922 4.6992s1.8008-1.6992 1.8984-1.8008c0.10156 0.5 0.69922 3.6016 0.69922 3.6016s1.6992-1.3008 1.8984-1.3008c0.19922 0.30078 0.80078 2.3008 0.80078 2.3008l6.3008 1c1.6016 0.19922 4.8984 0.89844 5.8984 1.6992 1 0.80078 4 4.8984 4.5 7.1992-0.19922 0.80078-2.6016 4.5-3.8984 6.3984-0.5 0.80078-0.89844 1.3984-1.1992 1.8984-1.3008-0.60156-3.3008-1.3984-5.3008-1.3008l2.1992 1.3984c0.30078 0.19922 0.69922 0.30078 1 0.5-2-0.10156-4.6992-0.10156-6 0.5l2.1992 0.60156c1 0 2.3984 0.10156 3.5 0.10156-2.8984 0.5-5.3984 1.3008-5.8984 1.6992 1.3984 0.19922 3.8984 0.19922 3.8984 0.19922s2.6992-0.80078 6-0.69922c2.3008 0 3.3984 0.80078 3.3984 0.80078l2.8008-0.19922c-0.10156 0-1.6016-1.3008-4-1.8984 0.19922-0.30078 0.5-0.80078 0.89844-1.3008 1.1016 0.10156 2.1992 0.10156 2.1992 0.10156s2.6992-0.80078 6-0.69922c2.3008 0 3.3984 0.80078 3.3984 0.80078l2.8008-0.19922c-0.10156 0-1.3984-1.1992-3.6016-1.8008 0.30078-0.39844 0.80078-1 1.1992-1.5 1.3008-1.6016 3-3.6016 3.8008-5.1992v-0.20312c0.5-1.8008-0.30078-4.3984-1.3008-6.5 0.89844-0.10156 2-0.30078 3.1992-0.60156 11.5 0.30078 20.801 6 20.801 6l8.5-5.1016c0.011719 0.007812-7.5898-4.4922-15.789-6.3945zm-54.398-30.699c-0.19922 0.60156-0.89844 0.89844-1.5 0.69922-0.60156-0.19922-1-0.89844-0.80078-1.5 0.19922-0.60156 0.89844-0.89844 1.5-0.69922 0.59766 0.19922 1 0.89844 0.80078 1.5zm23.699 50.898c0.10156-0.10156 0.5-0.69922 0.60156-0.89844 0.89844 0 1.8984 0.10156 2.8984 0.10156-1.3008 0.19922-2.5 0.5-3.5 0.79688zm1.5-2c0.19922-0.30078 0.39844-0.60156 0.60156-0.89844 0 0 1.5 0.80078 1.8008 1-0.80469-0.10156-1.6016-0.19922-2.4023-0.10156zm6.0977-2.3984c-0.69922 0.89844-1.1992 1.5-1.5 1.8984-0.89844-0.39844-2.1016-0.89844-3.5-1.1992 0.80078-1.1992 1.6016-2.3984 2-3.3008 0.30078-0.60156 0.39844-1.3008 0.39844-2 0-1.3984-0.39844-3.1016-0.69922-4.3984 0 0-0.10156-0.30078-0.10156-0.60156 0.5 0 1.1016 0.10156 1.5 0.10156 2.1992 2 4.3984 4.8984 4.6016 6-0.29688 0.60156-1.8984 2.5-2.6992 3.5zm20.102-14.801c-27.199 2.8984-37.801-2-42-6.6016-3.5-4-2.6992-8-2.6992-8.1992 0.10156-0.39844 0.5-0.69922 1-0.60156 0.39844 0.10156 0.69922 0.5 0.60156 1 0 0.10156-0.69922 3.3984 2.3008 6.6992 3.8984 4.3008 14.102 8.8008 40.5 6 0.5 0 0.89844 0.30078 0.89844 0.69922 0.19922 0.60547-0.20312 1.0039-0.60156 1.0039z"/>
</svg>