<?xml version="1.0" encoding="UTF-8" standalone="no" ?>
<!DOCTYPE svg PUBLIC "-//W3C//DTD SVG 1.1//EN" "http://www.w3.org/Graphics/SVG/1.1/DTD/svg11.dtd">
<svg xmlns="http://www.w3.org/2000/svg" xmlns:xlink="http://www.w3.org/1999/xlink" version="1.1" width="1080" height="1080" viewBox="0 0 1080 1080" xml:space="preserve">
<desc>Created with Fabric.js 5.2.4</desc>
<defs>
</defs>
<g transform="matrix(1 0 0 1 540 540)" id="6f14ef1d-41c9-4016-af96-9931dbeec698"  >
<rect style="stroke: none; stroke-width: 1; stroke-dasharray: none; stroke-linecap: butt; stroke-dashoffset: 0; stroke-linejoin: miter; stroke-miterlimit: 4; fill: rgb(255,255,255); fill-rule: nonzero; opacity: 1; visibility: hidden;" vector-effect="non-scaling-stroke"  x="-540" y="-540" rx="0" ry="0" width="1080" height="1080" />
</g>
<g transform="matrix(1 0 0 1 540 540)" id="45f0e00a-8648-4853-ad96-bfa13554811d"  >
</g>
<g transform="matrix(1.77 0 0 1.77 539.05 541.03)" id="cb50fc31-7b4c-4f5b-a841-6d9a09401d05"  >
<path style="stroke: rgb(0,0,0); stroke-width: 0; stroke-dasharray: none; stroke-linecap: butt; stroke-dashoffset: 0; stroke-linejoin: miter; stroke-miterlimit: 4; fill: rgb(0,0,0); fill-rule: nonzero; opacity: 1;" vector-effect="non-scaling-stroke"  transform=" translate(-350, -280.19)" d="M 550.38 40.25 C 529.435 20.289 499.435 13.02 471.673 21.18 C 443.915 29.336199999999998 422.618 51.684 415.806 79.805 C 408.9935 107.92200000000001 417.6966 137.53900000000002 438.642 157.5 L 469.353 186.898 L 169.84300000000002 494.198 L 113.75700000000002 526.3109999999999 C 110.52260000000003 528.2875999999999 108.92890000000001 532.1157 109.80780000000001 535.8032 C 110.68280000000001 539.4867999999999 113.83120000000001 542.1899 117.60860000000001 542.4984999999999 L 191.5466 542.4984999999999 C 193.8239 542.4438119999999 195.988 541.5024099999999 197.58180000000002 539.8734999999999 L 536.3818 191.7134999999999 C 539.5498 188.3462999999999 539.5498 183.0962999999999 536.3818 179.7294999999999 L 476.6198 122.50249999999988 C 470.9206 117.17049999999989 467.6081 109.76849999999989 467.4284 101.96749999999989 C 467.24871 94.16669999999989 470.2136 86.61949999999989 475.65500000000003 81.02649999999988 C 481.10810000000004 75.51479999999988 488.49100000000004 72.33119999999988 496.245 72.15149999999988 C 503.995 71.97180999999989 511.51800000000003 74.80769999999988 517.218 80.06559999999989 L 520.718 83.4796999999999 C 522.1202999999999 84.7687999999999 523.9015999999999 85.56559999999989 525.7960999999999 85.75309999999989 L 581.6200999999999 91.2647999999999 C 585.1083999999998 91.2882369999999 588.2802999999999 89.2374999999999 589.6864999999999 86.04209999999989 C 591.0926999999999 82.85069999999989 590.4677499999999 79.12409999999988 588.0926999999999 76.56549999999989 z M 530.255 68.949 L 528.8566 67.6365 C 520.0871 58.656 508.05159999999995 53.6205 495.50159999999994 53.683499999999995 C 482.95059999999995 53.745999999999995 470.96259999999995 58.9023 462.2865999999999 67.96849999999999 C 453.6107999999999 77.0388 448.9895999999999 89.23849999999999 449.4775999999999 101.78049999999999 C 449.9697899999999 114.31949999999999 455.5322999999999 126.12449999999998 464.89159999999987 134.48749999999998 L 499.89159999999987 167.82349999999997 L 518.4425999999999 185.93649999999997 L 187.95259999999985 524.9965 L 149.45259999999985 524.9965 L 179.20259999999985 508.0195 C 179.88618999999986 507.65622 180.50729999999984 507.18356 181.04239999999984 506.6211 L 487.2923999999998 191.6211 C 488.8548999999998 190 489.7337999999998 187.8359 489.74159999999983 185.58200000000002 C 489.66347499999983 183.3359 488.72209999999984 181.20700000000002 487.11659999999983 179.63280000000003 L 450.19059999999985 144.63280000000003 C 438.05759999999987 132.74180000000004 431.1555999999998 116.50780000000003 431.0065999999998 99.51980000000003 C 430.8581599999998 82.53180000000003 437.47139999999985 66.17980000000003 449.3935999999998 54.07480000000003 C 461.3157999999998 41.969800000000035 477.56559999999985 35.10580000000003 494.55359999999985 34.996800000000036 C 510.84659999999985 34.977269000000035 526.5185999999999 41.246800000000036 538.3035999999998 52.496800000000036 L 558.4285999999998 71.74680000000004 z" stroke-linecap="round" />
</g>
</svg>