<svg xmlns="http://www.w3.org/2000/svg" xmlns:xlink="http://www.w3.org/1999/xlink" version="1.1" x="0px" y="0px" viewBox="0 0 100 125" enable-background="new 0 0 100 100" xml:space="preserve"><path fill="#000000" d="M93.539,17.078c-1.33-1.599-6.029-2.744-7.596-3.111c1.317-1.428,2.033-2.467,1.938-2.561  c-0.092-0.093-1.128,0.618-2.549,1.931c-0.373-1.593-1.517-6.25-3.105-7.572c-2.651-2.206-21.131-4.455-18.459,27.319l0.006-0.003  L26.317,66.935c-0.805,0.127-1.578,0.498-2.196,1.117l-7.241,7.239c-0.774,0.774-1.162,1.793-1.166,2.814  c-0.388,1.165-0.226,2.474,0.48,3.517L7.067,90.75h0.001c-0.129,0.134-0.25,0.288-0.361,0.467l-1.131,1.84  c-0.591,0.959-0.289,1.262,0.671,0.672l1.839-1.132c0.179-0.11,0.333-0.231,0.467-0.359l0,0l9.127-9.128  c1.044,0.705,2.353,0.867,3.519,0.48c1.02-0.003,2.038-0.393,2.812-1.167l7.241-7.241c0.618-0.617,0.989-1.39,1.117-2.195  l33.849-37.452C97.996,38.209,95.744,19.729,93.539,17.078z"/>
</svg>
