<svg xmlns="http://www.w3.org/2000/svg" xmlns:xlink="http://www.w3.org/1999/xlink" version="1.1" x="0px" y="0px" viewBox="0 0 66 82.5" enable-background="new 0 0 66 66" xml:space="preserve"><g><path d="M55.7,40.8c3,5.7,1.6,15.9-1.5,18.7c-1.5,1.5-0.9,2.5,0.1,2.7l0.8,0.1c0.5,0.1,0.9-0.2,1.2-0.6l0.5-0.9   c0.1-0.1,0.1-0.3,0.1-0.4c0.1-0.6,0.5-1.1,1-1.6c0.2-0.2,0.4-0.5,0.4-0.8c0.3-3.8,0.9-7.8,1.7-11.7C59,43.7,57.5,41.7,55.7,40.8z"/><path d="M27.9,37.1c-0.1-0.1-0.2-0.3-0.4-0.3c-0.8-0.1-1.6-0.3-2.3-0.6c1,8.5,1.4,18.9-2.8,22.3l-0.7,0.5c-0.7,0.5-0.4,1.6,0.4,1.8   l1.4,0.3c0.4,0.1,0.8-0.1,1-0.4c0.2-0.3,0.4-0.5,0.5-0.9c0.2-1.4,0.7-2.3,1.5-2.9c0.3-0.2,0.4-0.5,0.4-0.8   c0.2-4.2,0.5-8.1,1.1-11.2c0.3-1.4,0.1-2,0.4-5.8C28.4,39,28.1,37.5,27.9,37.1z"/><circle cx="10.4" cy="7.9" r="0.5"/><path d="M63.9,43.2c0-0.7-0.3-1.4-0.8-1.9c-3.1-3-6.6-5-5-8.5c0,0.1,5-11.5-5.1-14.4c-3.4-1-6.9-0.7-10.3-0.1   c-0.5,0.1-14.1,2-14.4,2.1c-0.4,0.1-0.8,0.2-1.1,0.4c-3.6,1.2-7.8,3.4-10.9-8.3c-0.2-0.6-0.1-1.2,0.2-1.7c0.8-1.6,1.4-4.1,1.7-7.6   c0-0.2-0.3-0.3-0.4-0.1C16.9,4.6,15.9,6,15,6.9c-0.3,0.3-0.7,0.1-0.8-0.3c-0.1-1-0.4-1.8-0.7-2.6c-0.1-0.2-0.3-0.1-0.4,0.1   c-0.1,0.8-0.2,1.4-0.4,1.8C12.6,6,12.4,6.1,12.2,6c-1.2-0.5-2.4,0-3.9,0.4c-1.7,0.4-3.5,0.3-5.3,0C1.4,6.2,0.9,7.1,1,8.1   c0,0,0,0,0,0C2,8.9,3.2,9.2,4.4,9.4c0.1,0,0.2,0.1,0.1,0.2c0,0.1-0.1,0.2-0.2,0.2C3.3,9.6,2.3,9.5,1.3,9c0.3,0.7,0.7,1.2,1.4,1.6   C5.8,12.7,9,13,9.4,15.5c0.1,0.6,0.4,1.2,0.7,1.8c0.9,1.4,1.8,3.6,2.3,5.4c1.9,7.5,6.9,8.6,8.7,9.2c0,0,0.1,0,0.1,0   c0.8,0.3,1.4,0.8,1.9,1.5l0,0c1.1,1.4,2.5,2.3,4.4,2.5c0.6,0.1,1.2,0.5,1.3,1.1c1.9,5.9,5.4,19.1,1.3,23.8c-0.6,0.7-1.2,1.2-0.5,2   c0.2,0.2,0.4,0.3,0.7,0.3l1.4,0.1c0.4,0,0.8-0.2,0.9-0.5c0.2-0.3,0.4-0.6,0.3-0.9c-0.1-1.4,0.3-2.4,1.1-3.1   c0.2-0.2,0.3-0.5,0.3-0.8c-0.8-6.9-0.9-12.8-0.9-12.8c-0.4-2.5-0.6-5.3-0.8-8.2c0-0.5,0.4-1,1-0.9c12.7,1.3,14-1.8,15-2.1   c-0.7-1.7-1-3.6-0.6-5.3c0-0.1,0.1-0.2,0.2-0.1c0.1,0,0.2,0.1,0.1,0.2l0,0c-0.3,1.4-0.1,3.5,1,5.5c0,0,1.2,2,3.4,3.9   c1,0.9,2.1,1.6,3.2,2.2c6.2,3.3,7.8,16.5,5.1,20.4c-0.1,0.1-0.4,0.8-0.4,0.9c-0.4,0.8,0.3,1.8,1.2,1.7c0,0,0,0,0,0l0.8-0.1   c0.5,0,0.9-0.4,1-0.8c0.1-0.4,0.4-1.1,0.3-1.4c0-0.6,0.2-1.2,0.6-1.8C65,58.7,65,58.3,65,58C64.3,53.2,64,48.3,63.9,43.2z M2.8,7.4   c0,0-0.9,0-1,0c-0.1,0-0.2,0-0.3-0.1c-0.1-0.1,0-0.2,0.1-0.3C1.8,6.9,2.5,7.1,2.8,7.4C2.9,7.4,2.9,7.4,2.8,7.4z M10.5,8.6   c-0.3-0.1-0.6-0.3-0.9-0.4C9.4,8,9.2,7.9,9,7.8c0.2-0.1,0.4-0.2,0.6-0.3c0.3-0.2,0.7-0.4,1.1-0.3c0.2,0.1,0.4,0.2,0.5,0.4   c0.1,0.2,0.2,0.4,0.3,0.6C11.3,8.5,10.9,8.7,10.5,8.6z"/></g></svg>