<?xml version="1.0" encoding="UTF-8" standalone="no" ?>
<!DOCTYPE svg PUBLIC "-//W3C//DTD SVG 1.1//EN" "http://www.w3.org/Graphics/SVG/1.1/DTD/svg11.dtd">
<svg xmlns="http://www.w3.org/2000/svg" xmlns:xlink="http://www.w3.org/1999/xlink" version="1.1" width="1080" height="1080" viewBox="0 0 1080 1080" xml:space="preserve">
<desc>Created with Fabric.js 5.2.4</desc>
<defs>
</defs>
<g transform="matrix(1 0 0 1 540 540)" id="3bf7bbf7-dd78-4696-b112-fbeca52d520d"  >
<rect style="stroke: none; stroke-width: 1; stroke-dasharray: none; stroke-linecap: butt; stroke-dashoffset: 0; stroke-linejoin: miter; stroke-miterlimit: 4; fill: rgb(255,255,255); fill-rule: nonzero; opacity: 1; visibility: hidden;" vector-effect="non-scaling-stroke"  x="-540" y="-540" rx="0" ry="0" width="1080" height="1080" />
</g>
<g transform="matrix(1 0 0 1 540 540)" id="8803c5b7-341b-435f-a58a-0a9dc918dcb7"  >
</g>
<g transform="matrix(10.76 0 0 10.76 540 540)"  >
<path style="stroke: none; stroke-width: 1; stroke-dasharray: none; stroke-linecap: butt; stroke-dashoffset: 0; stroke-linejoin: miter; stroke-miterlimit: 4; fill: rgb(0,0,0); fill-rule: evenodd; opacity: 1;" vector-effect="non-scaling-stroke"  transform=" translate(-50, -50)" d="M 57.766 7.2695 L 42.235 7.2695 C 41.48109 7.2695 40.8678 7.88278 40.8639 8.6367 L 40.8639 17.0703 C 40.875619 17.95311 40.30921 18.7383 39.4733 19.0156 C 38.1256 19.47263 36.8131 20.0156 35.5358 20.6445 C 34.750640000000004 21.04294 33.793600000000005 20.88669 33.1764 20.25778 L 27.2116 14.29298 C 26.67644 13.76173 25.813200000000002 13.76173 25.278000000000002 14.29298 L 14.294000000000002 25.276980000000002 C 13.762750000000002 25.812140000000003 13.762750000000002 26.67538 14.294000000000002 27.21058 L 20.2588 33.175380000000004 C 20.887710000000002 33.792570000000005 21.043960000000002 34.74958 20.64552 35.534780000000005 C 20.01661 36.81208 19.47362 38.12458 19.01662 39.472280000000005 C 18.73928 40.308220000000006 17.95412 40.87458 17.07132 40.862880000000004 L 8.63772 40.862880000000004 C 7.8838099999999995 40.866787 7.270519999999999 41.480070000000005 7.270519999999999 42.23398 L 7.270519999999999 57.76498 C 7.270519999999999 58.51889 7.883799999999999 59.13218 8.63772 59.13608 L 17.07132 59.13608 C 17.95413 59.128267 18.74322 59.69077 19.01662 60.52668 C 19.47365 61.87438 20.01662 63.19078 20.64552 64.46418 C 21.043960000000002 65.24934 20.887710000000002 66.20638 20.2588 66.82357999999999 L 14.294 72.78837999999999 C 13.76275 73.32354 13.76275 74.18677999999998 14.294 74.72197999999999 L 25.278 85.70597999999998 C 25.81316 86.23722999999998 26.676399999999997 86.23722999999998 27.211599999999997 85.70597999999998 L 33.1764 79.74117999999999 C 33.79359 79.11226999999998 34.7506 78.95601999999998 35.5358 79.35445999999999 C 36.809200000000004 79.98337 38.1256 80.52635999999998 39.4733 80.98335999999999 C 40.30924 81.26069999999999 40.8756 82.04585999999999 40.8639 82.92866 L 40.8639 91.36225999999999 C 40.867807 92.11617 41.48109 92.72945999999999 42.235 92.72945999999999 L 57.766 92.72945999999999 C 58.519909999999996 92.72945999999999 59.133199999999995 92.11617999999999 59.1371 91.36225999999999 L 59.1371 82.92866 C 59.125381 82.04584999999999 59.69179 81.26065999999999 60.527699999999996 80.98335999999999 C 61.8754 80.52632999999999 63.1879 79.98335999999999 64.4652 79.35445999999999 C 65.25036 78.95602 66.20739999999999 79.11227 66.82459999999999 79.74117999999999 L 72.78939999999999 85.70597999999998 C 73.32455999999999 86.23722999999998 74.18779999999998 86.23722999999998 74.72299999999998 85.70597999999998 L 85.70699999999998 74.72197999999999 C 86.23824999999998 74.18681999999998 86.23824999999998 73.32357999999999 85.70699999999998 72.78837999999999 L 79.74219999999998 66.82357999999999 C 79.11328999999998 66.20639 78.95703999999998 65.24937999999999 79.35547999999999 64.46418 C 79.98438999999999 63.19078 80.52737999999998 61.87438 80.98437999999999 60.52668 C 81.26171999999998 59.69074 82.04687999999999 59.12438 82.92967999999999 59.13608 L 91.36327999999999 59.13608 C 92.11719 59.132173 92.73047999999999 58.51889 92.73047999999999 57.76498 L 92.73047999999999 42.23398 C 92.73047999999999 41.480070000000005 92.11719999999998 40.866780000000006 91.36327999999999 40.862880000000004 L 82.92967999999999 40.862880000000004 C 82.04686999999998 40.870693 81.25778 40.30819 80.98437999999999 39.472280000000005 C 80.52734999999998 38.12458 79.98437999999999 36.80818000000001 79.35547999999999 35.534780000000005 C 78.95703999999999 34.74962000000001 79.11328999999999 33.79258000000001 79.74219999999998 33.175380000000004 L 85.70699999999998 27.210580000000004 C 86.23824999999998 26.675420000000003 86.23824999999998 25.812180000000005 85.70699999999998 25.276980000000005 L 74.72299999999998 14.292980000000005 C 74.18783999999998 13.761730000000005 73.32459999999999 13.761730000000005 72.78939999999999 14.292980000000005 L 66.82459999999999 20.257780000000004 C 66.20741 20.886690000000005 65.25039999999998 21.042940000000005 64.4652 20.644500000000004 C 63.19179999999999 20.015590000000003 61.8754 19.472600000000003 60.527699999999996 19.015600000000003 C 59.691759999999995 18.738260000000004 59.1254 17.953100000000003 59.1371 17.070300000000003 L 59.1371 8.636700000000003 C 59.133193 7.882790000000003 58.519909999999996 7.2695000000000025 57.766 7.2695000000000025 z M 65.5043 34.4965 C 69.6176 38.6059 71.9262 44.184 71.9262 50.000499999999995 C 71.9262 55.81699999999999 69.6176 61.39149999999999 65.5043 65.5045 C 61.391 69.61779999999999 55.8168 71.92639999999999 50.0003 71.92639999999999 C 44.183800000000005 71.92639999999999 38.609300000000005 69.61779999999999 34.496300000000005 65.5045 C 30.383000000000006 61.39119999999999 28.074400000000004 55.81699999999999 28.074400000000004 50.000499999999995 C 28.074400000000004 44.184 30.383000000000003 38.60549999999999 34.496300000000005 34.4965 C 38.605700000000006 30.3832 44.183800000000005 28.074599999999997 50.0003 28.074599999999997 C 55.8168 28.074599999999997 61.395300000000006 30.383199999999995 65.5043 34.4965 z M 50.0003 25.676199999999998 C 56.4495 25.676199999999998 62.6373 28.238699999999998 67.19930000000001 32.801199999999994 C 71.7613 37.363699999999994 74.32430000000001 43.5472 74.32430000000001 50.00019999999999 C 74.32430000000001 56.44939999999999 71.76180000000001 62.63719999999999 67.19930000000001 67.19919999999999 C 62.64070000000001 71.76169999999999 56.453300000000006 74.32419999999999 50.00030000000001 74.32419999999999 C 43.55110000000001 74.32419999999999 37.36330000000001 71.76169999999999 32.80130000000001 67.19919999999999 C 28.242700000000013 62.63669999999999 25.680200000000013 56.44919999999999 25.680200000000013 50.00019999999999 C 25.680200000000013 43.551199999999994 28.238800000000012 37.36319999999999 32.80130000000001 32.801199999999994 C 37.36380000000001 28.239199999999997 43.55130000000001 25.676199999999994 50.00030000000001 25.676199999999994 z M 55.0003 35.5473 L 52.3401 45.7463 L 59.4221 47.6018 C 59.81663 47.707269999999994 60.12913 48.00024 60.25413 48.386959999999995 C 60.37913 48.77367999999999 60.301005 49.199459999999995 60.0471 49.515859999999996 L 47.0701 65.53586 C 46.70681999999999 65.96164 46.09744 66.07492 45.6053 65.81711 C 45.10921 65.55539 44.85921 64.99289 44.99983 64.44991 L 47.660030000000006 54.250910000000005 L 40.578030000000005 52.39931000000001 C 40.1835 52.29775000000001 39.867090000000005 52.000870000000006 39.742090000000005 51.61415000000001 C 39.617090000000005 51.22743000000001 39.69521400000001 50.80165000000001 39.953030000000005 50.48525000000001 L 52.93003 34.46525000000001 C 53.293310000000005 34.03947000000001 53.90269 33.92619000000001 54.39483 34.18400000000001 C 54.89092 34.44572000000001 55.14092 35.00822000000001 55.000299999999996 35.55120000000001 z" stroke-linecap="round" />
</g>
</svg>