<svg xmlns="http://www.w3.org/2000/svg" xmlns:xlink="http://www.w3.org/1999/xlink" version="1.1" x="0px" y="0px" viewBox="0 0 96 120" style="enable-background:new 0 0 96 96;" xml:space="preserve"><path d="M33.969,40.044c4.456,0,8.08-3.625,8.08-8.08s-3.625-8.08-8.08-8.08s-8.08,3.625-8.08,8.08S29.513,40.044,33.969,40.044z   M33.969,26.221c3.166,0,5.742,2.576,5.742,5.742s-2.576,5.742-5.742,5.742s-5.742-2.576-5.742-5.742S30.803,26.221,33.969,26.221z   M28.202,40.851c-3.18,0-5.768,2.587-5.768,5.768c0,3.18,2.587,5.767,5.768,5.767s5.768-2.587,5.768-5.767  C33.97,43.439,31.382,40.851,28.202,40.851z M28.202,50.048c-1.891,0-3.43-1.538-3.43-3.43c0-1.891,1.539-3.43,3.43-3.43  s3.43,1.539,3.43,3.43C31.632,48.51,30.093,50.048,28.202,50.048z M48.646,42.623c-2.506,0-4.544,2.038-4.544,4.544  c0,2.506,2.039,4.544,4.544,4.544c2.506,0,4.544-2.039,4.544-4.544C53.19,44.662,51.152,42.623,48.646,42.623z M48.646,49.374  c-1.217,0-2.206-0.99-2.206-2.207c0-1.216,0.99-2.206,2.206-2.206s2.206,0.99,2.206,2.206  C50.852,48.384,49.863,49.374,48.646,49.374z M38.529,47.296c-2.506,0-4.544,2.039-4.544,4.544c0,2.506,2.039,4.544,4.544,4.544  c2.506,0,4.544-2.039,4.544-4.544C43.073,49.335,41.034,47.296,38.529,47.296z M38.529,54.047c-1.217,0-2.207-0.99-2.207-2.206  s0.99-2.206,2.207-2.206c1.217,0,2.206,0.99,2.206,2.206S39.745,54.047,38.529,54.047z M48.476,39.387  c2.506,0,4.544-2.039,4.544-4.544c0-2.506-2.039-4.544-4.544-4.544c-2.506,0-4.544,2.038-4.544,4.544  C43.931,37.348,45.97,39.387,48.476,39.387z M48.476,32.636c1.217,0,2.206,0.99,2.206,2.206c0,1.217-0.99,2.207-2.206,2.207  s-2.206-0.99-2.206-2.207C46.269,33.626,47.259,32.636,48.476,32.636z M62.419,64.276c1.675-1.675,3.156-4.106,1.818-5.444  c-1.074-1.075-2.852-0.332-4.379,0.869l-4.896-7.521c1.987-2.726,3.314-5.902,3.834-9.238l8.773-1.854  c0.23,1.928,0.962,3.711,2.481,3.711c1.893,0,2.565-2.766,2.565-5.135c0-2.369-0.672-5.135-2.565-5.135  c-1.519,0-2.251,1.783-2.481,3.711l-8.773-1.854c-0.52-3.336-1.847-6.512-3.833-9.238l4.897-7.521  c1.01,0.795,2.129,1.389,3.083,1.389c0.488,0,0.932-0.155,1.296-0.519c1.338-1.338-0.143-3.77-1.818-5.445c0,0,0,0,0,0  c-1.675-1.675-4.106-3.157-5.445-1.818c-1.074,1.075-0.331,2.853,0.87,4.379l-7.521,4.896c-2.726-1.987-5.902-3.314-9.238-3.833  l-1.854-8.773c1.929-0.23,3.711-0.962,3.711-2.482c0-1.893-2.767-2.564-5.136-2.564c-2.369,0-5.135,0.672-5.135,2.564  c0,1.52,1.783,2.252,3.711,2.482l-1.854,8.773c-3.336,0.52-6.512,1.847-9.238,3.833l-7.522-4.897  c0.405-0.517,0.74-1.037,0.975-1.526c0.775-1.616,0.267-2.48-0.104-2.851c-1.338-1.339-3.77,0.143-5.445,1.818c0,0,0,0,0,0  c-1.675,1.675-3.156,4.106-1.818,5.445c0.364,0.364,0.808,0.519,1.296,0.519c0.954,0,2.073-0.595,3.083-1.389l4.897,7.521  c-1.987,2.726-3.313,5.902-3.833,9.238L8.046,38.24c-0.23-1.929-0.962-3.711-2.481-3.711C3.672,34.529,3,37.295,3,39.664  c0,2.369,0.672,5.135,2.564,5.135c1.519,0,2.251-1.783,2.481-3.711l8.773,1.854c0.52,3.336,1.847,6.512,3.833,9.238l-4.897,7.522  c-0.517-0.405-1.037-0.74-1.527-0.975c-1.616-0.775-2.48-0.268-2.851,0.104c-0.371,0.371-0.879,1.235-0.104,2.851  c0.399,0.832,1.081,1.753,1.921,2.593c0,0,0,0,0,0c1.22,1.22,2.841,2.337,4.149,2.337c0.488,0,0.932-0.156,1.296-0.519  c0.371-0.371,0.879-1.235,0.104-2.851c-0.235-0.49-0.57-1.01-0.975-1.527l7.522-4.897c2.726,1.987,5.902,3.314,9.238,3.833  l1.854,8.773c-1.929,0.23-3.711,0.962-3.711,2.481c0,1.893,2.766,2.564,5.135,2.564c2.369,0,5.135-0.672,5.135-2.564  c0-1.519-1.783-2.251-3.711-2.481l1.854-8.773c3.336-0.52,6.512-1.847,9.238-3.833l7.521,4.896c-1.201,1.526-1.944,3.304-0.87,4.379  c0.364,0.364,0.808,0.519,1.296,0.519C59.578,66.613,61.199,65.496,62.419,64.276C62.419,64.276,62.419,64.276,62.419,64.276z   M41.582,58.189c0.004-0.272-0.085-0.539-0.259-0.754c-0.222-0.274-0.556-0.433-0.908-0.433h-5.216  c-0.352,0-0.686,0.159-0.908,0.433c-0.174,0.215-0.263,0.482-0.259,0.754c-7.357-1.506-13.243-7.391-14.749-14.749  c0.006,0,0.012,0.001,0.018,0.001c0.266,0,0.526-0.091,0.736-0.261c0.274-0.222,0.433-0.556,0.433-0.908v-5.216  c0-0.352-0.159-0.686-0.433-0.908c-0.215-0.174-0.482-0.263-0.754-0.259c1.506-7.358,7.392-13.243,14.749-14.75  c-0.004,0.272,0.085,0.539,0.259,0.754c0.222,0.274,0.556,0.433,0.908,0.433h5.216c0.352,0,0.686-0.159,0.908-0.433  c0.174-0.215,0.263-0.482,0.259-0.754c7.357,1.506,13.243,7.392,14.75,14.75c-0.272-0.004-0.539,0.085-0.754,0.259  c-0.274,0.222-0.433,0.556-0.433,0.908v5.216c0,0.352,0.159,0.686,0.433,0.908c0.21,0.17,0.471,0.261,0.736,0.261  c0.006,0,0.012-0.001,0.018-0.001C54.825,50.798,48.939,56.683,41.582,58.189z M38.973,59.34l-1.166,5.518l-1.166-5.518H38.973z   M36.641,19.988l1.166-5.518l1.166,5.518H36.641z M70.049,37.637c0.124,0.486,0.227,1.163,0.227,2.027s-0.103,1.541-0.227,2.027  c-0.124-0.486-0.227-1.163-0.227-2.027S69.926,38.123,70.049,37.637z M57.482,40.831v-2.333l5.518,1.166L57.482,40.831z   M60.766,16.705L60.766,16.705c0.611,0.611,1.017,1.163,1.273,1.593c-0.431-0.256-0.982-0.662-1.593-1.273  c-0.611-0.611-1.017-1.162-1.273-1.593C59.603,15.688,60.155,16.094,60.766,16.705z M55.622,21.849l-2.214,3.401  c-0.19-0.205-0.383-0.408-0.581-0.606c-0.198-0.198-0.401-0.391-0.606-0.581L55.622,21.849z M37.807,7.195  c0.862,0,1.538,0.103,2.023,0.227c-0.486,0.124-1.162,0.227-2.023,0.227c-0.861,0-1.538-0.103-2.023-0.227  C36.269,7.298,36.945,7.195,37.807,7.195z M14.848,16.705c0.611-0.611,1.163-1.017,1.594-1.273c-0.256,0.43-0.662,0.982-1.272,1.593  c0,0-0.001,0.001-0.001,0.001c0,0-0.001,0.001-0.001,0.001c-0.611,0.61-1.162,1.016-1.593,1.272  C13.831,17.868,14.237,17.316,14.848,16.705L14.848,16.705z M19.992,21.849l3.401,2.214c-0.205,0.19-0.408,0.383-0.606,0.581  c-0.198,0.198-0.391,0.401-0.581,0.606L19.992,21.849z M5.564,41.691c-0.124-0.486-0.227-1.163-0.227-2.027  c0-0.864,0.103-1.541,0.227-2.027c0.124,0.486,0.227,1.163,0.227,2.027C5.791,40.528,5.688,41.205,5.564,41.691z M18.131,38.498  v2.333l-5.518-1.166L18.131,38.498z M14.848,62.623L14.848,62.623c-0.611-0.611-1.017-1.163-1.273-1.593  c0.431,0.256,0.982,0.662,1.593,1.273c0.611,0.611,1.017,1.163,1.273,1.594C16.01,63.64,15.459,63.234,14.848,62.623z   M19.992,57.479l2.214-3.401c0.19,0.205,0.383,0.408,0.581,0.606c0.198,0.198,0.401,0.391,0.606,0.581L19.992,57.479z   M37.807,72.133c-0.864,0-1.541-0.103-2.027-0.227c0.486-0.124,1.163-0.227,2.027-0.227s1.541,0.103,2.027,0.227  C39.348,72.03,38.671,72.133,37.807,72.133z M52.221,55.265c0.205-0.19,0.408-0.383,0.606-0.581  c0.198-0.198,0.391-0.401,0.581-0.606l2.214,3.401L52.221,55.265z M60.766,62.623c-0.611,0.611-1.163,1.017-1.594,1.273  c0.256-0.431,0.662-0.983,1.273-1.594c0.611-0.611,1.163-1.017,1.593-1.273C61.783,61.461,61.377,62.012,60.766,62.623z   M32.445,76.489c-0.646,0-1.169,0.523-1.169,1.169v0.545h-2.436c-0.181-1.086-0.609-2.089-1.225-2.95l1.725-1.725l0.386,0.386  c0.228,0.228,0.527,0.342,0.826,0.342c0.299,0,0.598-0.114,0.827-0.342c0.456-0.456,0.456-1.197,0-1.653l-2.425-2.424  c-0.456-0.456-1.197-0.456-1.653,0c-0.456,0.456-0.456,1.197,0,1.653l0.386,0.386l-1.725,1.725c-0.861-0.616-1.863-1.044-2.95-1.225  V69.94h0.545c0.646,0,1.169-0.523,1.169-1.169c0-0.646-0.523-1.169-1.169-1.169H20.13c-0.646,0-1.169,0.523-1.169,1.169  c0,0.646,0.523,1.169,1.169,1.169h0.545v2.436c-1.086,0.181-2.089,0.609-2.95,1.225l-1.725-1.725l0.386-0.386  c0.457-0.457,0.457-1.197,0-1.653s-1.197-0.457-1.653,0l-2.425,2.424c-0.457,0.457-0.457,1.197,0,1.653  c0.228,0.228,0.527,0.342,0.827,0.342c0.299,0,0.598-0.114,0.826-0.342l0.386-0.386l1.725,1.725  c-0.616,0.861-1.044,1.863-1.225,2.95h-2.436v-0.546c0-0.646-0.523-1.169-1.169-1.169s-1.169,0.523-1.169,1.169v3.429  c0,0.646,0.523,1.169,1.169,1.169s1.169-0.523,1.169-1.169v-0.545h2.436c0.181,1.086,0.609,2.089,1.225,2.949l-1.725,1.725  l-0.386-0.386c-0.456-0.456-1.197-0.456-1.653,0c-0.456,0.456-0.456,1.197,0,1.653l1.212,1.212c0,0,0,0,0,0.001c0,0,0,0,0.001,0  l1.212,1.212c0.228,0.228,0.527,0.342,0.826,0.342c0.299,0,0.598-0.114,0.827-0.342c0.456-0.456,0.456-1.197,0-1.653l-0.386-0.386  l1.725-1.725c0.861,0.616,1.863,1.044,2.949,1.225v2.436H20.13c-0.646,0-1.169,0.523-1.169,1.169s0.523,1.169,1.169,1.169h3.429  c0.646,0,1.169-0.523,1.169-1.169s-0.523-1.169-1.169-1.169h-0.545v-2.436c1.086-0.181,2.089-0.609,2.949-1.225l1.725,1.725  l-0.386,0.386c-0.457,0.456-0.457,1.197,0,1.653c0.228,0.228,0.527,0.342,0.826,0.342c0.299,0,0.598-0.114,0.826-0.342l1.21-1.21  c0.001-0.001,0.001-0.001,0.002-0.002c0.001-0.001,0.001-0.001,0.002-0.002l1.21-1.21c0.457-0.456,0.457-1.197,0-1.653  c-0.456-0.457-1.197-0.457-1.653,0l-0.386,0.386l-1.725-1.725c0.616-0.861,1.044-1.863,1.225-2.949h2.436v0.545  c0,0.646,0.523,1.169,1.169,1.169c0.646,0,1.169-0.523,1.169-1.169v-3.429C33.614,77.013,33.091,76.489,32.445,76.489z   M21.844,84.129c-2.623,0-4.757-2.134-4.757-4.757c0-2.623,2.134-4.757,4.757-4.757s4.757,2.134,4.757,4.757  C26.601,81.995,24.467,84.129,21.844,84.129z M68.158,24.644c0.646,0,1.169-0.523,1.169-1.169V22.93h2.436  c0.181,1.086,0.609,2.089,1.225,2.949l-1.725,1.725l-0.386-0.386c-0.456-0.456-1.197-0.456-1.653,0  c-0.456,0.456-0.456,1.197,0,1.653l2.425,2.424c0.228,0.228,0.527,0.342,0.826,0.342s0.598-0.114,0.827-0.342  c0.456-0.456,0.456-1.197,0-1.653l-0.386-0.386l1.725-1.725c0.861,0.616,1.863,1.044,2.949,1.225v2.436h-0.545  c-0.646,0-1.169,0.523-1.169,1.169c0,0.646,0.523,1.169,1.169,1.169h3.429c0.646,0,1.169-0.523,1.169-1.169  c0-0.646-0.523-1.169-1.169-1.169h-0.545v-2.436c1.086-0.181,2.089-0.609,2.95-1.225l1.725,1.725l-0.386,0.386  c-0.457,0.456-0.457,1.197,0,1.653c0.228,0.228,0.527,0.342,0.826,0.342s0.598-0.114,0.826-0.342l2.424-2.424  c0.457-0.456,0.457-1.197,0-1.653c-0.456-0.457-1.197-0.457-1.653,0l-0.386,0.386l-1.725-1.725c0.616-0.861,1.044-1.863,1.225-2.949  h2.436v0.545c0,0.646,0.523,1.169,1.169,1.169s1.169-0.523,1.169-1.169v-3.429c0-0.646-0.523-1.169-1.169-1.169  s-1.169,0.523-1.169,1.169v0.545h-2.436c-0.181-1.086-0.609-2.089-1.225-2.95l1.725-1.725l0.386,0.386  c0.228,0.228,0.527,0.342,0.826,0.342s0.598-0.114,0.826-0.342c0.457-0.456,0.457-1.197,0-1.653l-1.211-1.211  c0,0-0.001-0.001-0.001-0.001c0,0-0.001-0.001-0.001-0.001l-1.211-1.211c-0.456-0.457-1.197-0.457-1.653,0  c-0.457,0.456-0.457,1.197,0,1.653l0.386,0.386l-1.725,1.725c-0.861-0.616-1.863-1.044-2.949-1.225v-2.436h0.545  c0.646,0,1.169-0.523,1.169-1.169S81.119,9.99,80.473,9.99h-3.429c-0.646,0-1.169,0.523-1.169,1.169s0.523,1.169,1.169,1.169h0.545  v2.436c-1.086,0.181-2.089,0.609-2.95,1.225l-1.725-1.725l0.386-0.386c0.457-0.457,0.457-1.197,0-1.653  c-0.456-0.456-1.197-0.457-1.653,0l-2.425,2.424c-0.457,0.457-0.457,1.197,0,1.653c0.228,0.228,0.527,0.342,0.827,0.342  c0.299,0,0.598-0.114,0.826-0.342l0.386-0.386l1.725,1.725c-0.616,0.861-1.044,1.864-1.225,2.95h-2.436v-0.545  c0-0.646-0.523-1.169-1.169-1.169c-0.646,0-1.169,0.523-1.169,1.169v3.429C66.989,24.12,67.512,24.644,68.158,24.644z   M78.759,17.004c2.623,0,4.757,2.134,4.757,4.757c0,2.623-2.134,4.757-4.757,4.757c-2.623,0-4.757-2.134-4.757-4.757  C74.002,19.138,76.136,17.004,78.759,17.004z M88.377,63.813c-2.986-2.986-6.956-4.63-11.178-4.63s-8.193,1.644-11.178,4.63  c-2.986,2.986-4.63,6.956-4.63,11.179s1.644,8.193,4.63,11.178c2.986,2.986,6.956,4.63,11.178,4.63s8.193-1.644,11.178-4.63  C94.541,80.006,94.541,69.976,88.377,63.813z M86.724,84.517c-2.544,2.544-5.927,3.946-9.526,3.946  c-3.598,0-6.981-1.401-9.525-3.946c-2.544-2.544-3.946-5.927-3.946-9.525c0-3.598,1.401-6.981,3.946-9.525c0,0,0,0,0,0  c2.544-2.544,5.927-3.946,9.525-3.946c3.598,0,6.981,1.401,9.526,3.946C91.976,70.718,91.976,79.264,86.724,84.517z M84.981,68.862  l-6.129,6.129l6.129,6.129c0.457,0.456,0.457,1.197,0,1.653c-0.228,0.228-0.527,0.342-0.826,0.342s-0.598-0.114-0.826-0.342  l-6.129-6.129l-6.129,6.129c-0.228,0.228-0.527,0.342-0.826,0.342c-0.299,0-0.598-0.114-0.826-0.342  c-0.457-0.456-0.457-1.197,0-1.653l6.129-6.129l-6.129-6.129c-0.457-0.456-0.457-1.197,0-1.653c0.456-0.457,1.197-0.457,1.653,0  l6.129,6.129l6.129-6.129c0.456-0.457,1.197-0.457,1.653,0C85.437,67.666,85.437,68.406,84.981,68.862z"/>
</svg>
