<svg xmlns="http://www.w3.org/2000/svg" version="1.1" viewBox="-5.0 -10.0 110.0 135.0">
 <path d="m80.93 79.133c0.125-0.84766 0.29687-1.7266 0.24609-2.5859-0.046875-0.78125-0.30859-1.4688-0.72656-2.125-0.75781-1.1875-1.6719-2.2891-2.4688-3.4492-1.707-2.4805-3.2305-5.3086-4.2383-8.1523-0.089844-0.25-0.3125-1.1328-0.54688-1.1953-1.1523 0.61328-2.2773 1.1758-3.4805 1.6797 0.54688 1.7305 1.2031 3.418 1.9727 5.0625 1.3047 2.7852 2.9102 5.4844 3.3047 8.5938 0.32031 2.5273 0.042968 5.1914-0.18359 7.7148-0.11328 1.2539-0.19531 3.9453-0.75391 4.9609-0.27344 0.5-0.69531 0.9375-1.0273 1.4023-0.48047 0.67578-1.293 2.1797-1.043 3.0312 0.0625 0.21484 0.25391 0.33203 0.44531 0.42188 0.88672 0.40625 2.0039 0.48437 2.9648 0.46875 0.71484-0.054688 2.8242-0.34375 3.2891-0.92188 0.10156-0.12891 0.10547-0.21875 0.082031-0.375-0.20703-1.3281-0.69141-2.1562-0.65234-3.5977 0.64062-0.40625 1.0781-0.69531 1.2539-1.4766 0.30859-1.3438 0.4375-2.7656 0.66797-4.1289 0.30078-1.7734 0.63672-3.543 0.89844-5.3242z"/>
 <path d="m98.996 68.871c0.20703-3.4805-0.74609-5.9609-3.4102-8.2305-0.625-2.3047-0.71484-4.7734-0.95703-7.1406-0.63281-6.1094-1.8047-13.695-7.6367-17.062-0.76953-0.44531-1.7383-0.71875-2.457-1.168-0.41797-0.26172-0.76172-0.70312-1.168-1-1.543-1.1367-3.4023-1.793-5.2734-2.1211-3.5469-0.625-7.0273 0.37109-10.457 1.1328-5.2539 1.168-12.824 2.5898-18.148 2.0234-1.668-0.17578-3.3438-0.61328-4.9375-1.125-0.72266-0.23047-3.1367-0.92578-3.6445-1.3086-0.46875-0.35156-1.25-1.6406-1.6562-2.1797-0.69922-0.93359-1.4297-1.8828-2.207-2.7539 0.36328-0.019531 0.73047-0.054688 1.0938-0.027344-1.2422-1.2188-2.6602-2.3047-3.9688-3.457 0.42188-0.0625 0.83984-0.12891 1.2578-0.22266-1.2695-1.0391-2.7695-1.9141-4.1367-2.832 0.41016-0.19922 0.82422-0.41406 1.2461-0.58984-1.5039-0.76953-3.0312-1.4883-4.5859-2.1602l0.96875-0.57813c-1.6133-0.68359-3.3398-1.2383-5.0352-1.6836 0.38281-0.90625 0.73438-1.8281 1.0625-2.7539 0.32813-0.92969 0.625-1.8672 0.89063-2.8164 0.26953-0.94531 0.50781-1.8984 0.71875-2.8633 0.20703-0.96094 0.39062-1.9297 0.54297-2.9023 0.18359-1.1406 0.375-2.3242 0.33984-3.4805-0.16016-0.28906-0.32031-0.58984-0.66016-0.69531-0.20312-0.066406-0.40625-0.042969-0.61328-0.019531-2.5469 1.1133-6.0039 7.7188-7.2109 10.176-0.54688 1.1133-1.0195 2.2578-1.5586 3.375-1.6367-4.0664-4.0703-7.9258-7.3516-10.875-0.57031-0.51172-1.2578-1.1758-1.9805-1.4609-0.25781-0.10156-0.54297-0.13672-0.79688-0.019531-0.22656 0.10547-0.38281 0.30078-0.45703 0.53516-0.17969 0.53906-0.03125 1.2422 0.042968 1.7969 0.38672 2.8984 1.3047 5.8438 2.6953 8.4219 0.83984 1.5547 1.8867 2.9219 3.0664 4.2305-1.9531 1.1602-3.4336 2.3438-4.6602 4.2969-1.2812 2.0391-1.6602 4.0273-2.3047 6.2852-0.30469 1.0508-0.66406 2.0781-1.0859 3.0898-0.66016 1.5664-1.4453 3.0781-2.25 4.5742-0.80469 1.4922-1.8047 2.9922-2.2188 4.6484-0.32031 1.2695 0.20703 3.0117 0.87109 4.1016 0.20703 0.34375 0.52344 0.72266 0.93359 0.82812 0.41016 0.10547 0.82031-0.054687 1.1602-0.27344 0.60156-0.38672 1.1562-0.92188 1.5938-1.4844 0.21875-0.28125 0.43359-0.63672 0.69922-0.87109 0.14844-0.125 0.34766-0.23438 0.54688-0.19531 0.18359 0.035156 0.36328 0.19531 0.4375 0.36328 0.10547 0.23047 0.03125 0.48047-0.078126 0.69531-0.59766 1.1719-2.1133 2.2617-3.207 2.9453 0.51953 0.58594 1.1172 0.95703 1.9219 1.0195 1.2422 0.089844 3.1055-0.45312 4.043-1.3008 0.6875-0.625 0.65234-1.2656 1.0117-2.0352 0.21484-0.46484 0.58203-0.86328 0.94531-1.2188 1.2539-1.2227 2.8867-2.0742 4.375-2.9805 1.582-0.96094 3.1406-1.957 4.6836-2.9805 2.9219 2.9102 5.6992 6.6836 7.2773 10.508 1.4336 3.4766 1.6016 7.3906 2.2734 11.051 0.28906 1.6367 0.66016 3.2539 1.1133 4.8516 0.32813 1.1484 0.76953 2.3086 1.0117 3.4766 0.21875 1.0547 0.31641 2.1367 0.43359 3.207 0.36719 3.3633 0.47656 6.7422 0.48438 10.125 0 1.6133-0.015625 3.2188-0.054688 4.832-0.042968 2.0117-0.070312 4.125-0.49219 6.0977-1.2188 1.0195-2.082 2.6016-2.207 4.1992-0.019532 0.23047-0.042969 0.48047 0.12109 0.66797 0.38281 0.42578 1.5195 0.44531 2.0586 0.45703 1.0195 0.019531 3.5469-0.14844 4.293-0.87891 0.12109-0.11719 0.16406-0.21875 0.16016-0.39062-0.023437-0.94141-0.27734-1.8516-0.27734-2.8125l0.058594-0.054688c0.72266-0.66016 0.89453-1.6367 0.93359-2.5742 0.10156-2.3281 0.14844-4.6484 0.28906-6.9766 0.10156-1.6797 0.33203-3.4102 0.31641-5.0898-0.007813-1.1562-0.18359-2.3359-0.30078-3.4844-0.25-2.5078-0.49219-5.1328-1.0781-7.5898-0.43359-1.8203-1.1602-3.4805-2.1367-5.0703-0.33984-0.55469-1.7539-2.2227-1.8477-2.6133-0.054688-0.24219 0-0.48047 0.17969-0.65234 0.10547-0.10156 0.23047-0.16016 0.38281-0.15625 0.50781 0.019531 0.93359 0.67188 1.2148 1.0352 1.4336 1.8633 2.5664 3.9258 3.25 6.1797 0.71094 2.3398 0.96094 4.8555 1.2461 7.2773 0.51953 4.2617 0.87109 8.5352 1.0547 12.824 0.10547 2.2188 0.32813 4.5586 0.046876 6.7656-0.082032 0.64844-0.23047 1.2812-0.39844 1.9102-1.3281 0.89844-2.0664 2.4297-2.3555 3.9727-0.054687 0.29297-0.10938 0.67188 0.0625 0.9375 0.25 0.38672 1.0781 0.48047 1.5039 0.53125 1.3125 0.14844 3.707 0.078125 4.8086-0.75391 0.15234-0.11328 0.27344-0.25 0.30469-0.44531 0.078125-0.51953-0.1875-1.2734-0.27344-1.793-0.082031-0.49609-0.125-0.99219-0.13672-1.4961 0.66797-0.40234 1.1562-0.80859 1.3633-1.6016 0.25391-0.96875 0.03125-2.9336 0.003906-4.0273-0.019531-1.043-0.03125-2.082-0.03125-3.125-0.011719-5.2422 0.078125-10.605 1.0781-15.766 0.39453-1.9492 0.89844-3.875 1.5078-5.7656 0.16797-0.53125 0.66016-2.7148 1.1133-2.9766 0.11328-0.066407 0.28125-0.054688 0.41016-0.058594 0.19531 0.074219 0.41406 0.13672 0.50781 0.34766 0.1875 0.41406-0.69141 2.8711-0.86719 3.418 6.8633 0.625 14.086-0.16016 20.461-2.8672 1.1406-0.48047 2.2539-1.0195 3.3477-1.6094 0.60156-0.32031 1.1875-0.69141 1.8008-0.98047 1.2461 3.6875 2.707 7.0156 4.8477 10.285 1.0078 1.543 2.4727 3.043 3.1836 4.7305 0.29688 0.70703 0.46875 1.4688 0.57031 2.2266 0.32031 2.4102 0.88672 14.484-0.027344 16.281-0.31641 0.625-0.85938 1.1172-1.2695 1.6797-0.48828 0.66406-1.5781 2.5898-1.2695 3.4062 0.10156 0.27344 0.375 0.42188 0.63672 0.51953 1.6562 0.63672 4.3711 0.33984 5.9492-0.41016 0.27344-0.12891 0.48047-0.25781 0.62891-0.52344 0.050781-1.0039-0.625-2.0664-0.54297-3.4023 0.51562-0.22266 1.0625-0.54297 1.2578-1.1055 0.22656-0.64844 0.097656-2.1758 0.125-2.9414 0.042969-1.1094 0.097656-2.2188 0.16797-3.3281 0.17969-2.8633 0.41016-5.7188 0.69531-8.5703 0.15234-1.457 0.48047-3.1094 0.51172-4.5391 0.015625-0.76953-0.10938-1.4961-0.47656-2.1758-0.25781-0.48047-0.59375-0.91406-0.81641-1.4102-1.5586-3.4688-1.7812-7.5312-0.92188-11.211 0.42969-1.8398 1.0273-3.6133 1.3867-5.4727 0.089844-0.45703 0.16797-0.91797 0.23438-1.3789 0.066406-0.46094 0.12109-0.92578 0.16016-1.3867 0.042969-0.46484 0.074219-0.92969 0.089844-1.3984 0.019531-0.46484 0.027343-0.93359 0.019531-1.3984-0.007812-0.46875-0.023438-0.93359-0.054688-1.3984s-0.070312-0.92969-0.125-1.3945c-0.054687-0.46484-0.11719-0.92578-0.19531-1.3867-0.078125-0.45703-0.16406-0.91797-0.26562-1.375 2.8438 3.7852 2.9688 8.0312 3.6914 12.504 0.32031 1.9922 0.75781 3.957 1.1016 5.9453-1.3633 2.0234-1.4219 5.3164-0.95703 7.6523 0.5625 2.832 2.3398 5.0898 4.7148 6.6758 0.91406 0.60937 1.8867 1.1016 2.8984 1.5195-0.36719-0.77734-0.71875-1.5312-0.90234-2.375-0.41016-1.8867-0.21484-3.6758-0.10156-5.5664zm-84.969-42.18c-0.003906 0.054688-0.007813 0.10938-0.019532 0.16406-0.007812 0.054687-0.019531 0.10938-0.035156 0.16016-0.015625 0.054687-0.03125 0.10547-0.050781 0.15625s-0.042969 0.10156-0.066406 0.14844c-0.24219 0.49219-0.66797 0.77734-1.1719 0.94531-0.35156 0.054687-0.66797 0.054687-1.0039-0.078125-0.054688-0.019531-0.10547-0.042969-0.16016-0.070312-0.054687-0.027344-0.10156-0.054688-0.14844-0.085938-0.050782-0.03125-0.09375-0.066406-0.14062-0.10156-0.042969-0.035157-0.089844-0.074219-0.12891-0.11328-0.042968-0.042968-0.078124-0.082031-0.11719-0.12891-0.035156-0.042969-0.070313-0.089844-0.10156-0.13672s-0.0625-0.097656-0.089843-0.14844c-0.027344-0.050782-0.050781-0.10156-0.070313-0.16016-0.019531-0.054688-0.042968-0.11328-0.054687-0.17188-0.015625-0.058593-0.03125-0.11328-0.039063-0.17187-0.007812-0.058594-0.019531-0.11719-0.019531-0.17578-0.003906-0.058594-0.007813-0.12109 0-0.17969 0-0.058594 0.007813-0.12109 0.015625-0.17969 0.007812-0.058593 0.019531-0.11719 0.035156-0.17578s0.03125-0.11328 0.054688-0.17188c0.019531-0.054687 0.042968-0.11328 0.070312-0.16406 0.25-0.52734 0.66406-0.78125 1.1914-0.96875 0.36719-0.023437 0.68359-0.011718 1.0273 0.13672 0.054688 0.023438 0.10938 0.050781 0.16016 0.078125 0.054688 0.03125 0.10156 0.0625 0.15234 0.097656 0.050782 0.035157 0.097656 0.070313 0.14062 0.11328 0.042969 0.042968 0.089844 0.082031 0.12891 0.125 0.042968 0.042968 0.078124 0.089844 0.11328 0.13672 0.035156 0.046876 0.070312 0.097657 0.10156 0.14844s0.058594 0.10156 0.085938 0.16016c0.027343 0.054688 0.046875 0.10938 0.066406 0.16406 0.019531 0.054687 0.03125 0.10547 0.042969 0.16016 0.011718 0.054687 0.023437 0.10938 0.03125 0.16016 0.007812 0.054688 0.011718 0.10938 0.011718 0.16406 0 0.054687 0 0.10938-0.003906 0.16406zm22.332 3.9609c-0.066406 0.23828-0.26953 0.33984-0.46875 0.45312-0.19531 0-0.37891 0.011719-0.55078-0.10156-0.11719-0.078125-1.7617-2.25-2.0117-2.5547-2.8633-3.457-6.7305-7.0078-10.621-9.2891 0.15234-0.39844 0.33984-0.77344 0.53516-1.1523 0.71484 0.38672 1.3984 0.875 2.0664 1.3398 4.0273 2.7891 7.9336 6.543 10.793 10.531 0.16016 0.22266 0.33203 0.48047 0.25781 0.77344z"/>
</svg>