<svg xmlns="http://www.w3.org/2000/svg" version="1.1" viewBox="-5.0 -10.0 110.0 135.0">
 <g>
  <path d="m86.934 42.555c-0.011719-0.21484-0.023438-0.42969-0.050782-0.65625v-0.003907c-0.31641-2.6328-1.8086-5.8477-7.0977-6.2539-0.19922 0-5.543-0.039063-8.457 6.7812-0.70703 1.6602-1.957 3.25-3.707 4.7344-0.007813 0.007812-0.015625 0.015625-0.023438 0.023438-1.7109 1.4453-3.8828 2.7812-6.4727 3.9766 1.7383 1.8008 4.1523 3.6562 5.332 3.9062 0.29297 0.0625 0.48047 0.35156 0.41797 0.64453-0.054688 0.25391-0.27734 0.42969-0.53125 0.42969-0.035156 0-0.070312-0.003907-0.11328-0.011719-1.5898-0.33594-4.4961-2.6719-6.3555-4.7383-0.003906-0.003907-0.007812-0.007813-0.011719-0.007813-0.03125-0.035156-0.0625-0.070312-0.09375-0.10938-0.003906-0.003906-0.007812-0.007812-0.007812-0.011719-0.64453-0.72266-1.1445-1.4023-1.418-1.9531-0.97266-1.9727-7.1875-8.9453-7.2461-9.0156-0.19922-0.20703-21.258-22.148-26.641-27.637-4.6523-4.75-6.6562-10.758-7.1953-12.656-1.3242 0.5625-4.6992 2.3984-5.2031 6.6758-0.066406 0.55859 0.070312 1.2109 0.35938 1.9336v0.003906l0.003906 0.003906c0.035156 0.058594 0.066406 0.12109 0.078125 0.1875v0.003907c2.1758 4.9688 11.488 12.969 15.453 16.035 0.23438 0.18359 0.27734 0.52344 0.097656 0.75781-0.18359 0.23828-0.52344 0.28125-0.76172 0.097656-0.57812-0.44922-11.965-9.3242-15.375-15.691-1.5977 2.6914-1.7422 5.5234-0.42969 8.4297l0.003906 0.003906c4.2148 9.3242 21.824 16.582 22.004 16.656 0.27344 0.11328 0.41016 0.42969 0.29687 0.70312-0.085937 0.21484-0.28906 0.33984-0.50391 0.33984-0.070312 0-0.13672-0.015625-0.20703-0.039063-0.70703-0.29297-16.863-6.9492-22.016-16.102-0.99609 2.9727-0.8125 5.7969 0.55078 8.4062 4.9844 9.5664 24.031 13.617 24.223 13.656 0.29687 0.0625 0.48437 0.34766 0.42187 0.64062-0.054687 0.25781-0.27734 0.43359-0.53125 0.43359-0.035156 0-0.074218-0.003906-0.10937-0.011718-0.72266-0.14844-15.957-3.3906-22.891-11.246 0.34375 4.1328 1.7852 7.5547 4.293 10.188 0.003907 0.003906 0.003907 0.003906 0.007813 0.007812 7.4883 7.8555 22.16 6.3281 22.305 6.3125 0.30078-0.035156 0.56641 0.17969 0.60156 0.47656 0.03125 0.30078-0.17969 0.56641-0.47656 0.60156-0.17578 0.019531-1.4766 0.15625-3.4258 0.15625-4.5664 0-12.707-0.74609-18.371-5.4727 1.8047 5.7852 5.1562 9.3867 9.9844 10.723 7.8086 2.1602 16.859-2.3828 16.949-2.4297 0.26562-0.13672 0.59375-0.027344 0.73047 0.23828 0.13281 0.26562 0.027343 0.59375-0.23828 0.72656-0.30859 0.16016-6.25 3.1406-12.828 3.1406-1.1719 0-2.3672-0.09375-3.5508-0.32031 1.9492 2.7109 4.2734 4.3828 6.9219 4.9844h0.003906c0.027344 0.003907 0.058594 0.011719 0.082032 0.019531 0.19531 0.042969 0.39062 0.078126 0.58594 0.11328 6.1992 0.96484 12.125-4.0039 12.188-4.0547 0.22656-0.19141 0.57031-0.16797 0.76172 0.066406 0.19531 0.22656 0.16797 0.56641-0.0625 0.76172-0.23047 0.19922-5.2891 4.4375-11.223 4.4375-0.4375 0-0.88281-0.023437-1.3242-0.074219 5.082 7.5273 16.02 6.3672 16.137 6.3516 0.29688-0.03125 0.5625 0.17578 0.60156 0.47656 0.03125 0.29687-0.17578 0.5625-0.47656 0.60156-0.027344 0.003906-0.70703 0.074219-1.8047 0.074219-1.5977 0-4.0742-0.15625-6.6953-0.91406-3.2695 3.4961-9.8398 7.6484-22.766 8.1406l-4.5273 0.52734c-0.64844 0.074219-1.2305 0.40234-1.6367 0.91797-0.40625 0.51953-0.57812 1.1641-0.49219 1.8125 0.17188 1.3008 1.3633 2.2383 2.7148 2.0898l1.5781-0.19531 7.8047-1.5312c0.29688-0.058594 0.57812 0.13281 0.63672 0.42578 0.058594 0.29688-0.13281 0.58203-0.42578 0.63672l-7.75 1.5195c-0.027343 0.011719-0.066406 0.019532-0.097656 0.023438l-0.023437 0.003906-0.57422 0.11328c-0.78516 0.15625-1.4492 0.61328-1.8711 1.293-0.42188 0.68359-0.53906 1.4805-0.32422 2.25 0.21875 0.79688 0.77344 1.4648 1.5195 1.8203 0.74609 0.35547 1.6094 0.36719 2.3672 0.035157l2.7461-1.207 2.1719-1.5508c0.24219-0.17188 0.58203-0.11719 0.75391 0.125 0.17188 0.24219 0.12109 0.58203-0.125 0.75391l-2.1719 1.5547c-0.023437 0.019531-0.042968 0.035156-0.070312 0.050781l-2.8008 2c-1.1719 0.83984-1.4727 2.4375-0.69141 3.6445 0.43359 0.66797 1.1328 1.1094 1.9258 1.2031 0.78906 0.097656 1.5742-0.16016 2.1562-0.69922l1.3555-1.2695 0.023438-0.019532 2.25-2.4688c0.20312-0.22266 0.54297-0.23828 0.76562-0.035156 0.21875 0.20312 0.23438 0.54688 0.03125 0.76562l-2.3086 2.5273-0.42969 0.47266c-0.84375 0.92578-0.78125 2.3711 0.14062 3.2188 0.92188 0.84375 2.3633 0.79297 3.2148-0.125l2.5586-2.7461c0.035156-0.058593 0.074219-0.11719 0.11719-0.16797l2.4297-3.2695c0.17578-0.24219 0.51562-0.29297 0.75391-0.11719 0.24219 0.17969 0.29297 0.51953 0.11719 0.75781l-2.4297 3.2695c-0.03125 0.042968-0.066406 0.089843-0.09375 0.13672-0.011719 0.023438-0.023437 0.042969-0.042969 0.066406-0.36328 0.60156-0.48828 1.3242-0.33984 2.0156 0.16797 0.77344 0.66406 1.4336 1.3594 1.8164 0.64844 0.35547 1.3945 0.4375 2.0977 0.22266 0.70703-0.21094 1.2891-0.68359 1.6406-1.332l0.375-0.70312 0.015625-0.027344 3.0977-6.7188c0.12109-0.26953 0.44531-0.39062 0.71875-0.26562 0.26953 0.12109 0.39062 0.44531 0.26562 0.71875l-2.8398 6.1562 0.64844 0.16797c1.8047 0.46484 3.6797-0.42969 4.4492-2.1289l6.2461-13.75c-0.6875 0.027343-1.3828 0.039062-2.0938 0.039062-2.2109 0-4.5273-0.12109-6.9531-0.36328-0.29687-0.027344-0.51562-0.29688-0.48437-0.59375 0.027343-0.30078 0.29687-0.51172 0.59375-0.48438 3.4648 0.34766 6.7109 0.44141 9.7227 0.28125 0.023437-0.003906 0.050781-0.003906 0.074218-0.003906 8.3516-0.44141 14.949-2.8164 19.672-7.0938 7.2695-6.5742 8.0547-15.965 8.0547-19.691 0-4.7773 2.7148-8.125 7.6602-9.4609 0.59766-0.11719 2.2617-0.45312 2.7031-0.5zm-6.5664 0.27734c-1.0273 0-1.8594-0.83594-1.8594-1.8594 0-1.0273 0.83594-1.8594 1.8594-1.8594 1.0273 0 1.8594 0.83594 1.8594 1.8594 0 1.0273-0.83594 1.8594-1.8594 1.8594z"/>
  <path d="m51.895 39.555c0.26953 0.30859 6.3867 7.168 7.4258 9.2695 0.21484 0.42969 0.57813 0.94141 1.0352 1.4844 2.5469-1.1484 4.6875-2.4336 6.3672-3.8242 0.85156-11.188-6.5703-25.375-6.6484-25.52-0.03125-0.070313-2.2461-4.7422-3.9727-8.1133-1.418-2.7617-1.3789-7.3633-1.2852-9.3438-2.9141 1.5352-4.7109 3.6836-5.3594 6.3945-0.21094 0.86719-0.29297 1.7656-0.27344 2.6719v0.03125c0.12891 6.9297 6.0039 14.402 6.0742 14.484 0.1875 0.23438 0.14844 0.57812-0.085937 0.76172-0.23438 0.1875-0.57422 0.14844-0.75781-0.085937-0.26953-0.33984-5.6445-7.168-6.2617-14.102-2.6641 2.2695-3.6172 4.9648-2.832 8.0312 0.003907 0.011719 0.007813 0.019532 0.007813 0.027344 0.003906 0.007813 0.003906 0.019532 0.007813 0.023438 1.8008 6.8477 11.453 13.324 11.551 13.391 0.25 0.16797 0.31641 0.50391 0.15234 0.75-0.10547 0.15625-0.27734 0.24219-0.45312 0.24219-0.10547 0-0.20703-0.027344-0.30078-0.089844-0.39844-0.26172-9.4766-6.3594-11.789-13.312-2 1.4922-2.9102 3.6094-2.707 6.3008 5.4219 5.6562 10.004 10.422 10.105 10.527z"/>
 </g>
</svg>