<?xml version="1.0" encoding="UTF-8"?>
<svg width="1200pt" height="1200pt" version="1.1" viewBox="0 0 1200 1200" xmlns="http://www.w3.org/2000/svg">
 <path d="m820.33 355.09c-44.699 0-81.039-36.355-81.039-81.039 0-10.352-8.3828-18.75-18.75-18.75-10.367 0-18.75 8.3984-18.75 18.75 0 44.68-36.336 81.039-81.039 81.039-10.367 0-18.75 8.3984-18.75 18.75 0 10.352 8.3828 18.75 18.75 18.75 44.699 0 81.039 36.355 81.039 81.039 0 10.352 8.3828 18.75 18.75 18.75 10.367 0 18.75-8.3984 18.75-18.75 0-44.68 36.336-81.039 81.039-81.039 10.367 0 18.75-8.3984 18.75-18.75 0-10.352-8.3828-18.75-18.75-18.75zm-99.789 54.617c-9.2422-14.383-21.488-26.625-35.867-35.867 14.383-9.2422 26.625-21.488 35.867-35.867 9.2422 14.383 21.488 26.625 35.867 35.867-14.383 9.2422-26.625 21.488-35.867 35.867z"/>
 <path d="m828.02 509.08c-7.9883-3.5625-17.457-1.1641-22.707 5.8672-30.656 40.969-77.512 64.461-128.51 64.461-88.445 0-160.39-71.945-160.39-160.39 0-51.02 23.492-97.875 64.461-128.53 7.0117-5.2695 9.4688-14.699 5.8516-22.688-3.6016-8.0234-12.207-12.508-20.867-10.688-106.82 21.898-184.35 117.05-184.35 226.27 0 127.31 103.57 230.89 230.91 230.89 109.2 0 204.36-77.531 226.26-184.35 1.7617-8.5859-2.6797-17.27-10.668-20.867zm-215.59 167.7c-106.65 0-193.41-86.758-193.41-193.39 0-65.117 32.887-124.26 84.113-159.56-15.77 28.668-24.227 61.18-24.227 95.211 0 109.11 88.762 197.89 197.89 197.89 34.012 0 66.523-8.457 95.195-24.207-35.305 51.188-94.445 84.074-159.56 84.074z"/>
 <path d="m1009.1 1030.1c58.574 0 106.22-47.645 106.22-106.22s-47.645-106.22-106.22-106.22-106.22 47.664-106.22 106.22c0 58.555 47.645 106.22 106.22 106.22zm0-174.94c37.895 0 68.719 30.824 68.719 68.719s-30.844 68.719-68.719 68.719-68.719-30.824-68.719-68.719 30.844-68.719 68.719-68.719z"/>
 <path d="m783.45 1090c0 40.18 32.68 72.883 72.883 72.883 40.199 0 72.863-32.699 72.863-72.883 0-40.18-32.68-72.863-72.863-72.863-40.18 0-72.883 32.68-72.883 72.863zm108.23 0c0 19.52-15.863 35.383-35.363 35.383s-35.383-15.863-35.383-35.383 15.883-35.363 35.383-35.363 35.363 15.863 35.363 35.363z"/>
 <path d="m974.89 331.01c-2.9258-0.48828-5.9062-0.9375-8.9453-1.3125-13.445-142.11-122.25-260.29-264.38-284.3-127.27-21.523-255.36 36.582-323.38 145.2-4.1797-1.0508-8.1953-1.8945-12.133-2.5508-101.77-17.211-198.24 51.562-215.42 153.15-2.8867 17.195-3.3359 34.688-1.293 52.164-57.039 25.312-98.023 77.57-108.52 139.73-17.137 101.61 51.562 198.24 153.19 215.4 9.0391 1.5195 18.375 2.3438 27.883 2.4922 34.707 79.707 107.89 137.4 193.95 151.93 14.477 2.4375 28.988 3.6562 43.387 3.6562 57.508 0 113.36-19.199 159.19-55.219 23.961 16.668 51.469 27.938 80.383 32.812 86.867 14.68 173.49-30.602 211.76-108.68 55.668 6.7891 111.07-7.2383 157.07-39.957 48.898-34.762 81.336-86.492 91.332-145.65 20.625-122.12-61.969-238.26-184.07-258.88zm147.09 252.64c-8.3047 49.273-35.344 92.383-76.07 121.33-40.762 28.969-90.355 40.332-141.26 31.688-0.11328-0.019531-1.8359-0.375-1.9297-0.39453-8.8125-1.6133-17.586 3.1484-20.887 11.512-27.863 70.18-102.23 111.92-176.79 99.414-27.656-4.668-53.68-16.52-75.32-34.273-7.1641-5.8672-17.418-5.6641-24.336 0.44922-50.344 44.57-117.21 63.73-183.3 52.574-77.344-13.07-142.54-66.918-170.12-140.55-2.7578-7.3516-9.7695-12.168-17.57-12.168-0.33594 0-0.67578 0-1.0312 0.019531-11.344 0.61719-22.555 0.019531-33.148-1.7422-81.227-13.727-136.16-90.957-122.44-172.18 9.0938-53.852 46.855-98.438 98.531-116.34 8.8672-3.0742 14.102-12.207 12.242-21.395-3.6172-18.148-3.957-36.375-0.95703-54.168 13.707-81.227 91.012-136.18 172.2-122.42 6.4688 1.0859 13.238 2.8125 21.32 5.4375 8.457 2.7578 17.738-0.86328 22.125-8.6445 58.012-103.11 175.45-159.19 292.09-139.46 130.22 21.992 228.75 133.59 234.26 265.35 0.39453 9.6562 8.082 17.418 17.719 17.945 7.4453 0.39453 14.438 1.1641 21.301 2.3242 101.76 17.195 170.55 113.93 153.36 215.66z"/>
</svg>
