<?xml version="1.0" encoding="UTF-8" standalone="no" ?>
<!DOCTYPE svg PUBLIC "-//W3C//DTD SVG 1.1//EN" "http://www.w3.org/Graphics/SVG/1.1/DTD/svg11.dtd">
<svg xmlns="http://www.w3.org/2000/svg" xmlns:xlink="http://www.w3.org/1999/xlink" version="1.1" width="1080" height="1080" viewBox="0 0 1080 1080" xml:space="preserve">
<desc>Created with Fabric.js 5.2.4</desc>
<defs>
</defs>
<g transform="matrix(1 0 0 1 540 540)" id="4878fe80-91e8-41f5-8d30-f0d6328acced"  >
<rect style="stroke: none; stroke-width: 1; stroke-dasharray: none; stroke-linecap: butt; stroke-dashoffset: 0; stroke-linejoin: miter; stroke-miterlimit: 4; fill: rgb(255,255,255); fill-rule: nonzero; opacity: 1; visibility: hidden;" vector-effect="non-scaling-stroke"  x="-540" y="-540" rx="0" ry="0" width="1080" height="1080" />
</g>
<g transform="matrix(1 0 0 1 540 540)" id="46c30932-2b06-466c-98d5-0a3a952e6ac5"  >
</g>
<g transform="matrix(1 0 0 1 540 540)"  >
<rect style="stroke: none; stroke-width: 1; stroke-dasharray: none; stroke-linecap: butt; stroke-dashoffset: 0; stroke-linejoin: miter; stroke-miterlimit: 4; fill: rgb(255,255,255); fill-rule: nonzero; opacity: 1; visibility: hidden;" vector-effect="non-scaling-stroke"  x="-540" y="-540" rx="0" ry="0" width="1080" height="1080" />
</g>
<g transform="matrix(1.72 0 0 1.72 221.33 654.61)"  >
<path style="stroke: none; stroke-width: 1; stroke-dasharray: none; stroke-linecap: butt; stroke-dashoffset: 0; stroke-linejoin: miter; stroke-miterlimit: 4; fill: rgb(0,0,0); fill-rule: nonzero; opacity: 1;" vector-effect="non-scaling-stroke"  transform=" translate(-164.12, -347.7)" d="M 206.87 404.93 C 213.87 345.059 178.046 246.07 142.304 254.39000000000001 C 117.929 260.0736 116.034 311.214 126.574 356.43 C 136.5388 399.09000000000003 158.691 441.5 181.586 441.5 C 198.46900000000002 441.417968 204.895 421.656 206.871 404.938 z M 182.987 428.895 C 172.28 431.36379999999997 150.292 403.942 138.6 353.543 C 126.823 303.145 134.4828 268.801 145.1078 266.332 C 152.6 264.5195 162.4828 277.531 166.7678 284.039 C 186.2878 314.098 198.8028 367.875 194.60379999999998 403.36899999999997 C 192.86939999999998 417.861 188.42019999999997 427.662 182.9868 428.89599999999996 z" stroke-linecap="round" />
</g>
<g transform="matrix(1.72 0 0 1.72 542.89 589.85)"  >
<path style="stroke: none; stroke-width: 1; stroke-dasharray: none; stroke-linecap: butt; stroke-dashoffset: 0; stroke-linejoin: miter; stroke-miterlimit: 4; fill: rgb(0,0,0); fill-rule: nonzero; opacity: 1;" vector-effect="non-scaling-stroke"  transform=" translate(-350.07, -310.24)" d="M 617.32 245.91 C 616.65984 242.7811 613.777 240.8866 610.7302000000001 241.1327 C 604.8825 211.4847 594.2612 183.9807 576.3082 159.8517 C 583.0621000000001 157.215 580.5074000000001 147.4177 573.7535 147.99269999999999 C 571.5308 148.15676 569.3082 148.40285999999998 567.0816 148.57082 C 519.8116 94.54782 451.29159999999996 87.54782 405.6716 115.38282 C 404.92941 115.79298 404.4372 116.3711 403.9411 117.03121999999999 C 378.6601 106.07821999999999 348.1871 102.28921999999999 315.0001 106.07821999999999 C 282.1411 109.86731999999999 257.1051 117.69121999999999 225.7301 133.99622 C 224.1637 134.82044 223.1754 136.13682 222.6832 137.62122 C 195.7532 141.90242 172.7772 158.78521999999998 168.6602 186.29322 C 168.49614 187.44552 168.742231 188.43382 169.15239 189.42211999999998 C 159.59769 195.76191999999998 149.80039 202.51611999999997 139.83639 209.84411999999998 C 137.28169 210.00817999999998 134.81298999999999 210.33630999999997 132.34419 210.91441999999998 C 90.42618999999999 220.71522 71.56719 288.40641999999997 89.43818999999999 364.99442 C 97.83658999999999 400.81842 113.07518999999999 432.93542 132.42619 455.33442 C 147.90618999999998 473.20542 164.70719 483.33442 181.01619 485.06442000000004 C 213.54719 493.79492000000005 253.73519 499.47442000000007 286.01619 498.40442 C 285.19196999999997 507.29892 292.19199 515.36942 300.50819 518.66242 C 308.82459 521.87332 318.05119 521.29912 326.94219000000004 520.22882 C 384.34019000000006 513.39292 439.68219000000005 489.67382000000003 484.23219000000006 452.78382000000005 C 519.0681900000001 461.01822000000004 556.78719 444.79552000000007 580.1731900000001 417.61982000000006 C 594.5011900000001 400.98282000000006 603.9741900000001 380.88982000000004 609.6531900000001 359.56082000000004 C 610.1453800000002 359.31473000000005 610.7234900000001 359.15066 611.3015900000001 358.81863000000004 C 615.1726900000001 356.84203 616.0788900000001 351.32643 612.2078400000001 348.44363000000004 C 614.1844400000001 338.56083000000007 615.5828400000001 328.43163000000004 616.1609400000001 318.46663000000007 C 615.2546900000001 327.93543000000005 613.5242400000001 337.40763000000004 611.1375400000001 346.71263000000005 C 617.23134 317.80663000000004 617.23134 282.80663000000004 613.03204 253.15763000000004 C 615.9187400000001 252.32951000000003 617.97734 249.20063000000005 617.3172400000001 245.90763000000004 z M 252.00000000000006 158.699 C 268.22300000000007 164.38260000000002 281.97700000000003 174.01500000000001 294.3280000000001 186.20700000000002 C 259.57400000000007 192.87890000000002 225.56200000000007 207.86700000000002 188.7480000000001 232.48800000000003 C 178.6190000000001 222.52320000000003 167.9940000000001 215.76900000000003 157.5370000000001 212.39400000000003 C 191.96300000000008 187.93300000000005 223.67000000000007 169.89800000000002 251.9980000000001 158.69900000000004 z M 434.6600000000001 441.409 C 437.87090000000006 444.702 438.69520000000006 450.2215 436.5545000000001 454.339 C 434.82400000000007 457.714 428.5662000000001 464.468 422.71850000000006 469.905 C 399.41350000000006 481.84599999999995 371.49550000000005 491.647 347.1165000000001 495.928 C 365.06950000000006 478.385 377.2575000000001 455.576 383.6825000000001 426.752 C 398.50650000000013 442.068 424.6945000000001 431.1153 434.6595000000001 441.408 z M 315.5800000000001 500.952 C 310.8847000000001 501.44419 305.3690000000001 500.12778 302.4860000000001 496.2567 C 302.6500600000001 495.84654 302.6500600000001 495.18640000000005 302.7320900000001 494.69030000000004 C 310.8843900000001 495.43249000000003 318.8730900000001 495.92470000000003 326.4510900000001 496.0067 C 325.9589000000001 496.33483 325.4628100000001 496.66686000000004 325.0526900000001 496.91295 C 325.6308100000001 496.58483 326.2870900000001 496.33483 326.8651900000001 496.0067 L 327.6073800000001 496.0067 C 324.0643800000001 498.31140000000005 320.8534800000001 499.87780000000004 317.64258000000007 500.53790000000004 C 320.1972800000001 499.54962000000006 322.66598000000005 498.31520000000006 325.05278000000004 496.91290000000004 C 322.00198000000006 498.56520000000006 318.79108 499.8817 315.58008000000007 500.95200000000006 z M 244.83800000000008 369.352 C 285.27200000000005 377.66839999999996 326.2830000000001 376.6801 367.04800000000006 366.38719999999995 C 367.7081600000001 389.52819999999997 365.56750000000005 412.66819999999996 360.45820000000003 435.23519999999996 C 323.1532 438.61019999999996 291.93820000000005 435.48128999999994 241.78820000000002 423.87219999999996 C 245.24910000000003 407.81319999999994 246.31940000000003 389.2822 244.83900000000003 369.3522 z M 376.7680000000001 281.07099999999997 C 399.2480000000001 287.82489999999996 423.2130000000001 276.87179999999995 444.0490000000001 272.1765 C 451.70920000000007 270.44599999999997 477.5690000000001 266.0007 490.2480000000001 281.1531 C 499.80270000000013 292.5161 497.0019000000001 310.5511 489.5878400000001 321.75509999999997 C 467.92784000000006 354.2861 416.2948400000001 354.2861 389.1178400000001 380.22409999999996 C 390.1061200000001 341.84909999999996 385.2467400000001 309.56809999999996 376.76584000000014 281.0721 z M 353.45900000000006 225.56699999999998 C 338.1430000000001 198.14499999999998 316.23600000000005 170.22699999999998 289.96700000000004 153.426 C 324.389 146.50799999999998 360.70900000000006 147.16819999999998 394.557 155.81269999999998 C 409.21700000000004 159.51969999999997 417.452 165.03539999999998 419.67400000000004 172.53169999999997 C 422.31070000000005 181.34419999999997 415.3928 191.22669999999997 407.24 196.49669999999998 C 401.3103 200.3678 394.474 202.75449999999998 387.228 205.39119999999997 C 382.8647 206.95759999999996 378.4155 208.52009999999996 374.216 210.41459999999998 C 368.2004 213.04739999999998 359.63800000000003 217.90679999999998 353.458 225.56659999999997 z M 304.37700000000007 197.07099999999997 C 320.27200000000005 215.68399999999997 333.2830000000001 237.75499999999997 343.24800000000005 260.481 C 303.307 267.8091 263.03700000000003 273.657 223.91800000000006 285.68 C 216.50780000000006 268.879 207.44900000000007 253.89100000000002 197.15200000000007 241.621 C 234.70700000000008 216.836 269.1290000000001 202.508 304.37200000000007 197.07 z M 348.0250000000001 272.176 C 358.0720000000001 298.364 364.3300000000001 325.953 366.3880000000001 353.871 C 327.5170000000001 364.082 286.5050000000001 365.316 247.1380000000001 357.164 C 245.9036000000001 356.91791 244.8333000000001 357.164 243.7630000000001 357.57416 C 241.0442000000001 335.66816 235.85680000000008 315.82016 228.7750000000001 297.12916 C 267.2320000000001 285.52016000000003 306.7630000000001 279.83616 348.0250000000001 272.17616000000004 z M 238.66500000000008 435.89599999999996 C 282.3130000000001 446.025 315.3370000000001 451.12999999999994 357.3350000000001 447.83699999999993 C 353.7100000000001 460.76699999999994 348.7686000000001 473.11799999999994 340.3700000000001 483.57899999999995 C 305.12400000000014 485.30949999999996 252.2530000000001 476.1688 221.12000000000012 468.67299999999994 C 228.61220000000012 460.35269999999997 234.54200000000012 449.15299999999996 238.6590000000001 435.89599999999996 z M 599.7850000000001 249.28599999999994 C 605.1366 281.2389999999999 605.1366 322.91099999999994 596.4100000000001 354.36599999999993 C 587.0233000000001 388.29599999999994 568.0820000000001 410.85799999999995 547.6560000000001 422.2249999999999 C 523.773 435.5649999999999 503.6790000000001 439.27199999999993 486.1360000000001 433.6699999999999 C 491.15940000000006 426.9160999999999 495.93680000000006 419.4239999999999 500.38200000000006 411.5179999999999 C 501.45230000000004 411.8461199999999 502.4406000000001 411.92815999999993 503.67500000000007 411.5179999999999 C 574.9090000000001 391.17799999999994 583.8860000000001 326.6119999999999 569.5580000000001 254.13799999999992 L 569.3119100000001 254.22003099999992 C 569.1478500000002 253.8919109999999 569.0658200000001 253.55987099999993 568.9017500000001 253.23175099999992 L 569.3939400000002 253.0676909999999 C 556.6279400000002 188.2556909999999 503.01894000000016 118.6676909999999 439.8539400000002 137.11769099999992 C 439.2758200000002 137.28175099999993 438.70164000000017 137.60988099999992 438.2055400000002 137.94191099999992 C 431.2094400000002 132.5083109999999 424.12754000000024 127.73091099999992 416.7995400000002 123.53191099999992 C 482.1865400000002 88.69591099999992 579.7795400000002 131.60221099999993 599.7895400000002 249.28191099999992 z M 519.0780000000001 271.52399999999994 L 552.6800000000001 264.9341999999999 C 562.8910000000001 306.27419999999995 557.8675000000001 336.33219999999994 546.5862000000001 359.7231999999999 C 538.3518 359.7231999999999 532.4222000000001 359.1450799999999 521.1412 358.4887999999999 C 526.8209 334.7697999999999 528.0553 309.3207999999999 519.0787 271.52379999999994 z M 457.56200000000007 146.59399999999994 C 470.73800000000006 149.39479999999995 482.1050000000001 154.25419999999994 492.9720000000001 162.15999999999994 C 485.0658000000001 164.38269999999994 477.2420000000001 166.69119999999995 469.6670000000001 169.32409999999993 C 463.4092000000001 161.58189999999993 456.5730000000001 154.25409999999994 449.3270000000001 147.58209999999994 C 452.1239000000001 147.00397999999993 454.8426000000001 146.75787999999994 457.5614000000001 146.59381999999994 z M 504.50000000000006 171.95699999999994 C 524.3480000000001 191.30899999999994 541.066 225.81599999999995 549.383 252.99199999999993 L 515.9490000000001 259.58179999999993 C 507.8787000000001 231.66379999999992 494.7850000000001 204.48779999999994 477.40600000000006 179.86279999999994 C 486.21850000000006 176.89799999999994 495.27700000000004 174.26119999999995 504.50000000000006 171.95659999999992 z M 517.844 370.5969999999999 C 527.9730000000001 371.25715999999994 532.254 371.5852799999999 539.75 371.9133999999999 C 535.6328 378.0891999999999 530.8555 383.7723999999999 525.504 388.8783999999999 C 520.2345 392.1713999999999 514.2230000000001 394.9721999999999 507.63300000000004 397.27679999999987 C 511.58610000000004 388.71429999999987 515.0432000000001 379.7377999999999 517.844 370.59679999999986 z M 316.40400000000005 118.34699999999992 C 341.11100000000005 115.54619999999993 377.26300000000003 115.79229999999993 408.802 133.17099999999994 C 470.978 167.34699999999992 511.082 248.63099999999991 513.312 318.7109999999999 C 514.7925 366.39499999999987 485.394 427.3309999999999 449.82 453.5209999999999 C 451.0544 446.1928999999999 448.91375 438.2049999999999 443.6442 432.8489999999999 C 429.31620000000004 418.02499999999986 404.2812 428.4856999999999 393.41020000000003 419.01299999999986 C 387.7266 414.0715999999999 387.8086 404.7669999999999 390.7735 398.5049999999999 C 405.43350000000004 367.2119999999999 472.79650000000004 369.5169999999999 499.9735 328.66899999999987 C 510.1845 313.3529999999999 513.3955 289.46999999999986 499.80944 273.32899999999984 C 483.09044 253.39899999999983 453.44644 257.5169999999998 441.42244 260.23499999999984 C 414.82044 266.24669999999986 392.50444 278.1879999999998 371.50444 265.17639999999983 C 368.12944 255.95369999999983 364.42244 246.89539999999982 360.14144 238.16439999999983 C 364.25864 229.35189999999983 374.46943999999996 223.91839999999982 379.24644 221.77739999999983 C 390.28144000000003 216.83599999999984 402.80144 214.11719999999983 413.91844000000003 206.95339999999982 C 425.53144000000003 199.46119999999982 435.98844 184.38739999999981 431.46144000000004 169.0703999999998 C 427.83644000000004 157.0473999999998 416.80144 148.8123999999998 397.53144000000003 143.95339999999982 C 357.17944000000006 133.6603999999998 313.53144000000003 134.0705999999998 273.18144000000007 144.6955899999998 C 264.6150400000001 140.98858999999982 255.72444000000007 138.60178999999982 246.99344000000008 137.4494899999998 C 270.04444000000007 126.90648999999979 290.7984400000001 121.2224899999998 316.40744000000007 118.34048999999979 z M 206.79400000000004 155.32399999999993 C 214.78230000000005 153.51149999999993 223.18100000000004 153.18339999999992 231.58300000000003 154.08959999999993 C 216.10300000000004 161.25369999999992 199.71200000000002 170.23059999999992 182.58300000000003 180.85559999999992 C 186.94630000000004 167.76159999999993 196.91100000000003 160.0195999999999 206.79400000000004 155.32459999999992 z M 141.65300000000002 447.34399999999994 C 123.53600000000002 426.42599999999993 109.20800000000003 396.2029999999999 101.30100000000002 362.27399999999994 C 85.57100000000001 294.74299999999994 100.97288000000002 230.92399999999995 134.985 223.01399999999995 C 154.33700000000002 218.48279999999994 173.36 232.81479999999996 186.454 247.96699999999996 C 204.571 268.88499999999993 218.899 299.10799999999995 226.806 333.0369999999999 C 242.536 400.5679999999999 227.13412000000002 464.38699999999994 193.122 472.2969999999999 C 177.145 476.08609999999993 158.864 467.1914999999999 141.65300000000002 447.34399999999994 z" stroke-linecap="round" />
</g>
<g transform="matrix(1.72 0 0 1.72 369.02 188.3)"  >
<path style="stroke: none; stroke-width: 1; stroke-dasharray: none; stroke-linecap: butt; stroke-dashoffset: 0; stroke-linejoin: miter; stroke-miterlimit: 4; fill: rgb(0,0,0); fill-rule: nonzero; opacity: 1;" vector-effect="non-scaling-stroke"  transform=" translate(-249.53, -78.03)" d="M 237.26 61.684 C 234.5412 63.742599999999996 233.96699999999998 67.6137 236.0256 70.33239999999999 L 253.1546 93.14439999999999 C 254.38899999999998 94.79279999999999 256.2015 95.61319999999999 258.096 95.61319999999999 C 259.4124 95.61319999999999 260.65070000000003 95.20303999999999 261.803 94.3788 C 264.5218 92.3202 265.096 88.4491 263.0374 85.7304 L 245.9084 62.918400000000005 C 243.8498 60.199600000000004 239.9787 59.625400000000006 237.26 61.684000000000005 z" stroke-linecap="round" />
</g>
<g transform="matrix(1.72 0 0 1.72 429.27 162.76)"  >
<path style="stroke: none; stroke-width: 1; stroke-dasharray: none; stroke-linecap: butt; stroke-dashoffset: 0; stroke-linejoin: miter; stroke-miterlimit: 4; fill: rgb(0,0,0); fill-rule: nonzero; opacity: 1;" vector-effect="non-scaling-stroke"  transform=" translate(-284.38, -63.25)" d="M 283.05 86.223 C 283.54219 86.305032 283.95625 86.38706 284.4484 86.38706 C 287.2492 86.38706 289.8 84.41046 290.4601 81.60976000000001 C 293.1789 69.50476 292.5187 55.91476000000001 288.6476 44.30476000000001 C 287.5812 41.09386000000001 284.1203 39.36336000000001 280.82730000000004 40.43366000000001 C 277.61640000000006 41.50396000000001 275.88590000000005 45.04696000000001 276.9562 48.25786000000001 C 280.1671 57.72666000000001 280.6632 68.92986 278.43670000000003 78.89486000000001 C 277.69842000000006 82.18786000000001 279.757 85.48076 283.05 86.22296000000001 z" stroke-linecap="round" />
</g>
<g transform="matrix(1.72 0 0 1.72 487.22 161.59)"  >
<path style="stroke: none; stroke-width: 1; stroke-dasharray: none; stroke-linecap: butt; stroke-dashoffset: 0; stroke-linejoin: miter; stroke-miterlimit: 4; fill: rgb(0,0,0); fill-rule: nonzero; opacity: 1;" vector-effect="non-scaling-stroke"  transform=" translate(-317.88, -62.58)" d="M 316.81 43.398 L 307.0912 78.48 C 306.18495 81.77300000000001 308.07948 85.1519 311.3724 86.05810000000001 C 311.95052000000004 86.22216000000002 312.4427 86.30419 313.0208 86.30419 C 315.7396 86.30419 318.2083 84.49169 318.95050000000003 81.77299000000001 L 328.6693 46.690990000000006 C 329.57555 43.39799000000001 327.68102000000005 40.019090000000006 324.3881 39.11289000000001 C 321.1733 38.128510000000006 317.7162 40.10508000000001 316.81 43.39809000000001 z" stroke-linecap="round" />
</g>
</svg>