<svg xmlns="http://www.w3.org/2000/svg" version="1.1" viewBox="-5.0 -10.0 110.0 135.0">
 <g>
  <path d="m24.855 83.973c0.74219-0.53906 1.5117-1.043 2.3164-1.4844 1.9922-1.0664 4.0508-2.0039 6.1016-2.9531 1.0234-0.48047 2.0547-0.94141 3.1094-1.3438-0.003906-0.085937 0-0.17578 0.007813-0.26562-0.23047 0.035157-0.46094 0.066407-0.6875 0.09375-1.168 0.14453-2.3398 0.13281-3.5156 0.12109-0.46484-0.003906-0.92578-0.007813-1.3906-0.003906-0.54297-0.011719-1.0898 0.015625-1.6328 0.039062-0.44141 0.019531-0.88281 0.042969-1.3242 0.042969 0.054687 0.082031 0.09375 0.17188 0.11719 0.26953 0.19141 0.74219-0.14453 1.5-0.55859 2.1055-0.85547 1.125-1.7305 2.2266-2.5391 3.3789z"/>
  <path d="m33.836 83.039c1.1602-1.1094 2.3203-2.2227 3.5781-3.2227-0.15625-0.074218-0.29687-0.16406-0.42578-0.27344-1.4492 0.67578-2.9609 1.2188-4.4141 1.8867-1.0469 0.47656-2.0898 0.96484-3.1211 1.4766-0.83203 0.41016-1.6523 0.83594-2.4766 1.2617 1.7227-0.41016 3.8516-0.49609 4.7539 0.33984 0.125 0.10547 0.24219 0.24609 0.33203 0.39844 0.55859-0.73047 1.4844-1.5391 1.7773-1.8633z"/>
  <path d="m36.902 87.559c0.74219-0.54297 1.5117-1.0469 2.3164-1.4844 1.9922-1.0664 4.0508-2.0039 6.1016-2.9531 1.0234-0.48047 2.0547-0.94141 3.1094-1.3438-0.003907-0.085938 0-0.17578 0.007812-0.26562-0.23047 0.035156-0.46094 0.066406-0.6875 0.09375-1.168 0.14453-2.3438 0.13281-3.5156 0.12109-0.46484-0.003906-0.92578-0.007812-1.3867-0.003906-0.54297-0.011718-1.0898 0.015625-1.6328 0.039063-0.44141 0.023437-0.88281 0.042969-1.3242 0.042969 0.054687 0.078124 0.09375 0.17187 0.11719 0.26953 0.19531 0.74219-0.14453 1.5-0.55859 2.1055-0.85547 1.125-1.7305 2.2266-2.5391 3.3789z"/>
  <path d="m45.883 86.625c1.1602-1.1094 2.3242-2.2227 3.5781-3.2227-0.15234-0.074219-0.29688-0.16406-0.42578-0.27344-1.4492 0.67578-2.9609 1.2188-4.4141 1.8867-1.0469 0.47656-2.0898 0.96484-3.1211 1.4766-0.82812 0.41016-1.6523 0.83594-2.4727 1.2617 1.7188-0.41016 3.8477-0.49219 4.7461 0.33984 0.125 0.10547 0.24219 0.24609 0.33203 0.39844 0.55859-0.73047 1.4844-1.5391 1.7773-1.8633z"/>
  <path d="m58.449 57.254v0.003906c0.003906 0.011719 0.007812 0.019532 0.011719 0.03125-0.003907-0.011718-0.007813-0.023437-0.011719-0.03125z"/>
  <path d="m73.754 64.191c2.0898-2.0898 3.7617-3.2578 5.1367-4.5938l0.20312-0.20312c0.023438-0.023437 0.042969-0.046875 0.066406-0.066406 0.042969-0.042969 0.082032-0.085937 0.12109-0.125 0.007812-0.007813 0.011719-0.015625 0.019531-0.023437 0.039063-0.042969 0.082031-0.085938 0.12109-0.12891 0.027344-0.027343 0.050781-0.054687 0.078125-0.085937 1.1797-1.3047 2.125-2.8906 2.9297-5.6211-0.85938 0.17188-1.7266 0.30469-2.5977 0.30469-0.42969 0-0.85547-0.03125-1.2852-0.10938 1.1953-0.24219 2.6055-0.45312 4.0391-0.75391 0.17187-0.035156 0.34766-0.074218 0.51953-0.11328 1.6484-0.36719 3.3008-0.86719 4.6719-1.6797 1.082-0.67969 2.3086-1.5273 2.6562-2.8242v-0.007813c0.003906-0.027344 0.007812-0.050781 0.011718-0.074218 0.003907-0.027344 0.003907-0.050782 0.003907-0.074219v-0.035157c0-0.011718 0-0.023437-0.003907-0.035156 0-0.011718-0.003906-0.023437-0.003906-0.035156-0.003906-0.023438-0.011718-0.046875-0.019531-0.066406-0.003906-0.007813-0.007813-0.015625-0.011719-0.023438-0.003906-0.007812-0.007812-0.019531-0.011718-0.027344-0.003907-0.007812-0.007813-0.015624-0.011719-0.023437-0.003907-0.007813-0.007813-0.011719-0.011719-0.019531-0.011719-0.019532-0.027344-0.035156-0.042969-0.050782-0.003906-0.003906-0.011719-0.011718-0.015625-0.015624-0.003906-0.003907-0.011718-0.011719-0.015625-0.015626-0.27734-0.21875-0.85938-0.14844-1.2109-0.11328-0.43359 0.046875-0.84766 0.085938-1.2812 0.11719-0.25 0.011719-0.52734 0.054687-0.76953 0.042969 0.10938-0.027344 0.21094-0.074219 0.31641-0.10938 0.90625-0.27344 1.8477-0.69922 2.8086-0.5625 0.28516 0.046876 0.48828 0.1875 0.61719 0.38281 0.71875-0.375 1.4141-0.79688 2.0625-1.2969 0.69531-0.58203 2.0156-1.7617 2.0352-2.7031-0.007812-0.015625-0.019531-0.03125-0.03125-0.042969-0.003906-0.003906-0.011718-0.007812-0.015625-0.011718l-0.019531-0.011719c-0.007812-0.003907-0.011719-0.003907-0.019531-0.007813l-0.046875-0.011718c-0.007813 0-0.015625-0.003907-0.027344-0.003907-0.007812 0-0.019531 0-0.027344-0.003906-0.21484-0.011719-0.57812 0.097656-0.92188 0.21484-0.042969 0.015625-0.089843 0.03125-0.13281 0.046875l-0.12891 0.046875c-0.019531 0.007812-0.042968 0.015625-0.0625 0.023437-0.082031 0.027344-0.15625 0.058594-0.23047 0.082032-0.14062 0.050781-0.25391 0.085937-0.31641 0.09375-0.15625 0.046874-0.31641 0.097656-0.48047 0.14844-0.003907 0-0.007813 0.003906-0.007813 0.003906-0.050781 0.015625-0.10156 0.03125-0.15625 0.046875 0.003906 0 0.003906-0.003906 0.007813-0.003906-1.8516 0.57031-4.1016 1.2148-5.6797 0.98438 2.1289-0.55859 4.2773-1.0508 6.3711-1.7422 0.58984-0.14453 1.1953-0.50391 1.8086-0.45703 0.58203-0.32422 1.1367-0.6875 1.6328-1.1289 1.1289-1.1367 0.046875-1.3086-0.99609-1.0273-0.80859 0.19922-1.6094 0.4375-2.4141 0.66016h-0.003906c-0.80469 0.22266-1.6133 0.43359-2.4414 0.57813-0.089843 0.023437-0.19141 0.042968-0.27734 0.078124-0.019531-0.003906 0.039062-0.035156 0.042969-0.035156 0.82031-0.47656 1.707-0.82422 2.6094-1.1172 0.066407-0.17578 0.10938-0.35156 0.078126-0.53125-0.26953-0.44531-1.0312-0.23047-1.457-0.15625 0.003906 0 0.003906 0 0.007813-0.003907-0.003907 0-0.007813 0-0.011719 0.003907-0.79688 0.19531-1.5859 0.44922-2.375 0.67578-0.082031 0.023438-0.16406 0.046875-0.25 0.070312-0.054688 0.015626-0.10547 0.03125-0.16016 0.042969-0.003906 0-0.007813 0.003907-0.015625 0.003907-1.0703 0.28906-2.1523 0.50391-3.2773 0.4375 1.1094-0.32813 2.2344-0.65625 3.3516-0.99219 0.046874-0.085938 0.089843-0.17188 0.125-0.26172 0.95312-2.4531-0.51563-2.4453-2.3867-1.6992-0.80469 0.3125-1.5898 0.66016-2.3711 1.0195-0.023437 0.17188-0.058594 0.34766-0.10547 0.53125-0.99609 3.0586-2.918 5.7109-4.9141 8.1914-0.47266 0.55078-0.95703 1.1172-1.4727 1.6523-0.12109 0.15234-0.24609 0.29688-0.375 0.42969 0.16406 0.91406-1.5469 2.7539-1.957 3.2773-2.6992 2.9531-6.3086 4.9414-10.078 6.1797-0.49219 0.16016-0.99219 0.32422-1.4961 0.47656-0.3125 0.097656-0.62891 0.1875-0.94531 0.27344-1.0977 0.29688-2.2148 0.51172-3.3438 0.52344 0.83203-0.30469 1.6758-0.56641 2.5234-0.82031 0.26172-0.078126 0.52344-0.15625 0.78516-0.23438 0.85547-0.25391 1.7109-0.50781 2.5547-0.79297 1.9961-0.69141 3.957-1.5469 5.7266-2.7031 1.7539-1.1758 3.4297-2.5234 4.6914-4.2344 0.28906-0.44922 0.71875-0.89453 0.92188-1.4023-0.73828 0.54688-1.6445 0.88672-2.8281 1.0703 0.88281-0.42969 1.7539-0.91016 2.5391-1.5 0.078124-0.074218 0.15234-0.15234 0.23047-0.22656 0.085938-0.085938 0.17188-0.17578 0.26172-0.26172l0.03125-0.03125c1.6016-1.6289 3.0469-3.4102 4.2969-5.3242l0.003906-0.003906c0-0.003906 0.003906-0.003906 0.003906-0.003906v-0.003906l0.003907-0.003906c0.48047-0.77344 1.9844-3.1055 2.3672-4.7891 0.003906-0.011719 0.007813-0.027344 0.007813-0.039063 0.007812-0.027343 0.011719-0.058593 0.019531-0.085937 0.011719-0.058594 0.023438-0.11719 0.03125-0.17578 0.003906-0.027344 0.007812-0.058594 0.011719-0.085938 0.074219-0.59375-0.035157-1.0742-0.44922-1.3125-0.57031-0.15234-1.1641 0.035156-1.7266 0.14453-0.94922 0.23437-1.8828 0.53125-2.8281 0.78125 0.30469 0.32422 0.46484 0.76953 0.36719 1.2773-0.29688 1.3281-1.3945 2.4023-2.7695 3.2109 0.35547 0.19531 0.58984 0.53516 0.60938 1.0742-0.13281 0.72656-0.69141 1.375-1.4727 1.9336 0.81641 0.86328-0.63281 2.3633-1.4453 2.9062-0.40625 0.29297-0.83984 0.53516-1.293 0.75 0.39844 0.40625 0.48438 0.92578 0.35156 1.4297 0 0.003906-0.003907 0.011719-0.003907 0.015625-0.011718 0.042968-0.023437 0.085937-0.039062 0.12891-0.007812 0.019531-0.015625 0.042969-0.023438 0.0625-0.023437 0.0625-0.050781 0.125-0.082031 0.1875-0.019531 0.042969-0.042969 0.082031-0.066406 0.12109-0.023437 0.042968-0.046875 0.082031-0.074219 0.12109-0.003906 0.007812-0.011718 0.019531-0.019531 0.027343-0.19531 0.28516-0.46094 0.53906-0.77344 0.73438-0.89453 0.57422-1.9766 1.0078-3.1211 1.3164 0.12891 0.36719 0.027344 0.81641-0.45312 1.2969-0.69531 0.625-1.5781 0.99219-2.4453 1.3125-1.6055 0.57031-3.3086 0.78906-5.0078 0.78906-0.34766 0-0.69531-0.007812-1.043-0.027344 1.8086-0.52734 3.7695-0.56641 5.5664-1.1445 1.1836-0.36328 3.0898-1.2383 2.9531-2.1172-1.4766 0.35937-3.0234 0.52344-4.3672 0.53125 1.4336-0.48828 2.9766-0.72656 4.4609-1.1055 0.77734-0.19922 1.543-0.4375 2.2656-0.77344 0.17188-0.074219 0.36328-0.16797 0.55469-0.28125 0.078125-0.046875 0.15234-0.09375 0.23047-0.14453 0.77734-0.52344 1.4492-1.332 0.75-2.1406-0.042969-0.035156-0.089844-0.074219-0.13281-0.10547-0.40234 0.16797-0.8125 0.3125-1.2227 0.45312-1.4688 0.49219-2.9922 0.86719-4.5469 0.86719-0.070313 0-0.13672 0-0.20703-0.003907 1.7734-0.58984 3.6523-0.96875 5.4062-1.6484 0.10156-0.039063 0.20703-0.082031 0.30859-0.12109 0.050782-0.019531 0.10156-0.042969 0.15234-0.0625 0.050781-0.023437 0.10156-0.042969 0.15234-0.066406 0.25391-0.10938 0.50391-0.23047 0.75-0.35938 0.61719-0.28125 2.7812-1.9141 2.0391-2.6523-1.957 1.2031-4.8945 1.9258-6.3789 2.0469 1.4531-0.625 2.9688-1.1641 4.4609-1.6719 0.33594-0.12891 0.78125-0.32812 1.2344-0.57812 0.03125-0.019531 0.066407-0.039062 0.10156-0.054687 0.042969-0.023438 0.089844-0.050782 0.13281-0.078125 0.066406-0.039063 0.13672-0.082031 0.20312-0.125 0.019532-0.011719 0.039063-0.027344 0.0625-0.039063 0.054688-0.035156 0.10547-0.070312 0.15625-0.10156 0.72266-0.48438 1.3438-1.0859 1.4258-1.7227-0.003906-0.33984-0.29688-0.53125-0.71875-0.63281-1.7148 0.87109-3.7227 1.3789-5.1523 1.5117 1-0.39844 1.9805-0.83984 2.9961-1.1914 0.38672-0.13672 0.77344-0.27734 1.1523-0.43359 0.039062-0.015625 0.082031-0.035156 0.12109-0.050782 0.039063-0.015624 0.082031-0.035156 0.12109-0.050781 0.082031-0.035156 0.16016-0.070312 0.23828-0.10547 0.11719-0.054687 0.23438-0.10937 0.35156-0.16797 0.039062-0.019532 0.078125-0.039063 0.11719-0.058594 0.65234-0.33594 1.2617-0.74609 1.793-1.2773 0.60547-0.61328 1.3711-1.4531 1.0898-2.3828-0.14844-0.38672-0.57422-0.57031-1.0938-0.65625-0.12109-0.019532-0.25-0.035156-0.37891-0.046875-0.28906 0.027343-0.57422 0.0625-0.86328 0.0625-0.98438 0.039062-1.957 0.17188-2.9297 0.3125 0 0.003906-0.003906 0.003906-0.003906 0.007812-0.011719 0.023438-0.027344 0.046875-0.039063 0.066407-0.011719 0.023437-0.027344 0.042968-0.042969 0.066406-0.023437 0.03125-0.042968 0.0625-0.066406 0.09375-0.007812 0.011718-0.015625 0.019531-0.023438 0.027344-0.015624 0.019531-0.03125 0.035156-0.042968 0.054687-0.015625 0.019531-0.03125 0.035156-0.046875 0.054687-0.007813 0.007813-0.011719 0.015626-0.019531 0.023438-0.023438 0.023438-0.046876 0.046875-0.070313 0.070312-0.37109 0.35547-0.85938 0.66406-1.418 0.92969 0.16797 0.046875 0.32422 0.12891 0.46094 0.26562 0.57422 0.83594-0.28125 1.9336-0.85156 2.5508-0.56641 0.5625-1.2031 1.0117-1.8867 1.3672 0.37109 0.21875 0.52344 0.60156 0.16016 1.2461-1.0156 1.3945-2.7422 2.332-4.4102 2.8789 0.39063 0.074218 0.77734 0.1875 0.98438 0.53516 0.48437 1.4375-2.5781 2.6172-3.6211 3.0156-0.41797 0.16406-0.84766 0.28516-1.2852 0.37109 0.085937 0.023437 0.16797 0.046875 0.25391 0.070312 0.49219 0.16016 1.1641 0.17969 1.4219 0.70312 0.26172 0.76562-0.53906 1.3867-1.0977 1.7695-1.082 0.66797-2.3359 0.91406-3.5977 0.99609 0.16016 0.058594 0.31641 0.12109 0.47656 0.18359 1.1094 0.5625 0.30859 1.5664-0.48047 1.9609-1.1133 0.59766-2.4062 0.82422-3.6641 0.82813-1.6953-0.0625-3.4336-0.21875-5.043-0.73047 1.0938 0.003906 2.1875 0.007812 3.2812 0.10156 1.1953 0.11328 2.4141 0.20312 3.5938-0.082031 0.66016-0.15234 2.25-0.60938 2.3359-1.3828-0.058594-0.16406-0.28906-0.24609-0.41797-0.30469-0.51953-0.1875-1.0469-0.35156-1.5664-0.53516h-0.24609c-1.1992-0.03125-2.4375-0.21094-3.5391-0.67578 0.80859 0.035157 1.625 0.09375 2.4453 0.13281 0 0-0.003907 0-0.003907-0.003906 0.48828 0.023437 0.97266 0.039062 1.4609 0.039062h0.003906c1.2617 0 2.5117-0.11328 3.7227-0.49219 0.64453-0.24219 1.8047-0.80859 1.8789-1.5703-0.03125-0.11328-0.15625-0.15625-0.25391-0.20312-0.30469-0.10938-0.625-0.17188-0.9375-0.26172-0.45312-0.11719-0.90625-0.24219-1.3594-0.37891-0.20703 0.011719-0.41406 0.015625-0.61719 0.015625-0.30859 0-0.61328-0.011718-0.91406-0.03125-0.79688-0.0625-1.5898-0.22266-2.332-0.51953 1.3047 0.09375 2.6055 0.039063 3.9141 0.011719 1.4062 0.027344 5.2695-1.2969 5.75-2.6836h0.003906c0.015625-0.35938-1.0898-0.46484-1.7383-0.5625-0.85547 0.1875-1.7305 0.35156-2.6055 0.35156-0.28516 0-0.56641-0.015624-0.84766-0.054687 0.76953-0.11328 1.5234-0.35938 2.2852-0.55469 0.082031-0.023438 0.16406-0.042969 0.24219-0.0625 0.082031-0.019532 0.16406-0.039063 0.24609-0.058594 0.058594-0.011719 0.11719-0.023438 0.17969-0.035156 0.023438-0.003907 0.050782-0.007813 0.074219-0.015626 0.082031-0.015624 0.16797-0.035156 0.25-0.054687 0.042969-0.007813 0.082031-0.019531 0.125-0.027344 0.027344-0.007812 0.054688-0.011719 0.085938-0.019531 1.0938-0.25781 2.1523-0.64062 3.1172-1.2266 0.60547-0.39063 2.1914-1.3633 2.1289-2.1484-0.003906-0.011719-0.011718-0.023438-0.019531-0.035156-0.125-0.125-0.28516-0.17578-0.45703-0.19531-1.8711 0.79297-4.0234 1.0039-6.0195 1.0469 0.82031-0.25391 1.6484-0.48438 2.4922-0.66406 0.61328-0.11719 1.2305-0.22656 1.8359-0.375 0.13672-0.03125 0.27344-0.066406 0.40625-0.10547 0.003906 0 0.003906 0 0.007812-0.003906 0.24219-0.066407 0.47656-0.14062 0.71094-0.22656 0.035156-0.011718 0.066406-0.023437 0.10156-0.035156 0.03125-0.011719 0.066406-0.023438 0.10156-0.039062 0.097656-0.039063 0.19922-0.082032 0.29688-0.125 0.22266-0.097657 0.44141-0.20703 0.65625-0.33203 0.66797-0.38672 1.3047-0.83984 1.8086-1.4258 0.3125-0.41797 0.82031-1.0508 0.60547-1.5938-0.24609-0.21875-0.625-0.125-0.92578-0.12109-0.17578 0.015625-0.35547 0.027344-0.53516 0.039063-1.6484 0.50781-3.5391 0.73828-4.9258 0.73828-0.12109 0-0.24219-0.003906-0.35547-0.003906-0.16797-0.011719-0.35938-0.015625-0.51172-0.046875 1.0859-0.19531 2.1523-0.48438 3.2422-0.66016 0.33203-0.054688 0.79687-0.14063 1.3164-0.25391 0.13672-0.03125 0.28125-0.066406 0.42578-0.10156 0.003906 0 0.007813-0.003907 0.011719-0.003907 0.10547-0.027343 0.21094-0.054687 0.31641-0.082031 0.035156-0.011719 0.074219-0.019531 0.10938-0.03125 1.0156-0.28125 2.0742-0.6875 2.6875-1.2617 0.011719-0.011718 0.023437-0.019531 0.03125-0.03125 0.011719-0.011718 0.023437-0.019531 0.03125-0.03125 0.015625-0.015624 0.03125-0.03125 0.042969-0.046874 0.003906-0.003907 0.011718-0.011719 0.015625-0.015626 0.011719-0.011718 0.019531-0.023437 0.03125-0.035156 0.007812-0.011718 0.019531-0.019531 0.027343-0.03125 0.007813-0.011718 0.019532-0.023437 0.027344-0.03125 0.003906-0.003906 0.003906-0.003906 0.003906-0.007812 0.007813-0.007813 0.015626-0.019532 0.023438-0.027344 0.027344-0.035156 0.050781-0.070312 0.074219-0.10547 0.011719-0.015625 0.019531-0.03125 0.03125-0.046875 0.035156-0.054687 0.0625-0.11328 0.089843-0.17578 0.007813-0.015625 0.015626-0.035156 0.019532-0.050781 0.003906-0.003906 0.003906-0.007813 0.003906-0.015625 0.003906-0.015625 0.011719-0.027344 0.015625-0.042969 0.027344-0.085938 0.046875-0.17578 0.054687-0.26953-0.57031-0.058594-1.1875 0.070312-1.7734 0.074219-1.6758 0.097656-3.3516 0.14062-5.0234 0.28906-0.79688 0.058594-1.6172 0.17969-2.4297 0.22656 0.61328 0.17578 1.2227 0.35547 1.8359 0.49219-1.3633 0.10547-2.7148-0.1875-4.0234-0.52734-2.5586-0.67969-5.168-1.2344-7.8164-1.3828-3.4883-0.16406-7.0078 0.046875-10.457 0.58594-1.3672 0.23047-2.7188 0.54688-4.0508 0.92578-1.1445 0.28516-2.2852 0.75391-3.4648 0.85938-0.082032 0.007812-0.16406 0.011718-0.24609 0.015624-0.078125 0.003907-0.15625 0.007813-0.23047 0.007813-0.089844 0-0.18359-0.003906-0.27344-0.007813-0.62891-0.03125-1.6406-0.46484-1.4961-1.2109 0.15625 0.66797 0.86328 0.82031 1.6719 0.76562-1.1445-2.7461-0.82422-6.2852-0.74609-9.1016 0.10156-2.1641 0.15625-4.2695-0.10156-6.4102-0.58203-4.7969-2.3203-9.9609-6.9453-12.223-4.1211-2.0938-9.3594-1.0977-11.945 2.8711-0.73828 1.1562-1.1406 2.5-1.6055 3.8047 0.53906 0.26172 0.20703 1.3281 0.92969 1.4453 0.089844 0.007812 0.17578-0.019531 0.25391-0.058594 0.35156-0.24609 0.78906-0.72656 1.2461-0.44141 0.76953 0.85156-0.89062 2.3047 1.0352 4.4922 0.023438 0.03125 0.042969 0.0625 0.070313 0.09375 0.023437 0.027344 0.046875 0.058594 0.074219 0.085938 0.035156 0.035156 0.066406 0.070312 0.10156 0.10547l0.082032 0.082032c0.03125 0.03125 0.066406 0.058594 0.10156 0.085937 0.83203 0.79297 1.8242 1.3828 2.8945 1.7773h0.003907c0.32422 0.12109 0.65234 0.22266 0.98828 0.30859h-0.003907c0.54688 0.14062 1.1055 0.23828 1.6641 0.28906 0.042969 0.003907 0.085937 0.007813 0.125 0.011719 0.046875 0.003906 0.09375 0.007812 0.14453 0.011719 0.035156 0.003906 0.074219 0.003906 0.10938 0.007812 0.042969 0.003907 0.085938 0.003907 0.12891 0.007813 0.47266 0.023437 0.94531 0.019531 1.4102-0.011719 0.60938-0.039063 1.2305-0.12891 1.8242-0.22266-0.91797 0.5-1.9688 0.73047-3.0508 0.74219 1.1406 3.3672 1.0703 7.207-0.17188 10.492-1.207 3.3203-3.5977 6.0156-5.1484 9.1602-2.9102 5.9336-2.1289 13.418 3.1914 17.711 0.29688 0.25391 0.60938 0.48437 0.93359 0.69141-0.60938-0.86328-1.0664-1.8359-1.3125-2.9414-0.20312-0.92578-0.26172-1.9102-0.16406-2.8398 0.11328 0.58594 0.25781 1.1641 0.40234 1.7422 0.46094 2.0469 0.99219 3.3945 2.3594 4.7656h0.003906c0.050781 0.050782 0.10156 0.10156 0.15625 0.15234 0.027344 0.023438 0.054688 0.050781 0.082031 0.074219 0.03125 0.027343 0.0625 0.058593 0.09375 0.085937 0.050782 0.046875 0.10547 0.09375 0.16016 0.14453 0.058593 0.050781 0.11719 0.10156 0.17578 0.15234 0.054688 0.046875 0.11328 0.09375 0.16797 0.13672 0.054687 0.046875 0.11328 0.089844 0.17188 0.13672 0.11328 0.089843 0.23047 0.17578 0.34766 0.26172h-0.003906c3.3672 2.4531 7.8438 3.5195 12.109 4.168 0.1875 0.027344 0.375 0.054688 0.55859 0.082032 0.78125 0.11328 1.5508 0.21094 2.3086 0.30469 0.17578 0.023437 0.35156 0.042969 0.52734 0.066406 0.125 0.015625 0.25391 0.03125 0.37891 0.046875 0.53516 0.054688 1.0742 0.10938 1.6133 0.15234 0.18359 0.015625 0.36719 0.03125 0.55078 0.046875 0.61328 0.046875 1.2227 0.085937 1.8359 0.11719 0.11719 0.003907 0.23438 0.011719 0.34766 0.015626 0.11719 0.003906 0.23438 0.011718 0.34766 0.015624 1.2539 0.050782 2.5117 0.0625 3.7617 0.027344-0.30078-0.91016-0.3125-1.9297-0.023438-2.7695 0.035156 0.90234 0.17969 1.8906 0.55469 2.7539 0.050781 0.11328 0.10156 0.22266 0.16016 0.33203 0.015625 0.027344 0.03125 0.058594 0.046875 0.085938 0.027343 0.046875 0.050781 0.09375 0.078125 0.13672 0.015625 0.023437 0.027344 0.042969 0.042968 0.066406 0.015626 0.023437 0.027344 0.042969 0.042969 0.066406 0.015625 0.023438 0.03125 0.042969 0.042969 0.066407 0.046875 0.066406 0.089844 0.12891 0.14062 0.19141 0.25391 0.32422 0.5625 0.60156 0.9375 0.82031 0.30859 0.16016 0.62891 0.29297 0.96484 0.40234 0.078125 0.023438 0.15625 0.046875 0.23438 0.070312 0.003906 0 0.003906 0 0.007812 0.003907 0.042969 0.011719 0.082032 0.023437 0.12109 0.03125 0.042969 0.011719 0.082031 0.019531 0.125 0.03125 0.69141 0.16016 1.418 0.21484 2.1406 0.16797 0.10156-0.007813 0.20312-0.015626 0.30078-0.023438h0.015625c0.09375-0.011719 0.19141-0.023438 0.28516-0.035156 0.85937-0.12109 1.6953-0.38281 2.4297-0.77344 0.80859-0.49219 1.3477-1.2188 1.7383-2.043 0.027344-0.058594 0.054688-0.11719 0.082032-0.17578 0.011718-0.027344 0.027343-0.058594 0.039062-0.085937 0.40234-0.92969 0.64844-1.9609 0.90234-2.9023 0.03125-0.13281 0.046875-0.28516 0.085937-0.40625 0.097657 0.82422 0.015625 1.6641-0.16797 2.4727-0.035156 0.14062-0.074218 0.27734-0.11719 0.41406 1.0898-0.29688 2.1758-0.59375 3.2812-0.84375 3.0508-0.64453 6.125-1.4727 8.7617-3.1758 2.3789-1.5938 4.3477-3.8555 5.5078-6.4727-1.4531 1.3047-2.9531 2.5938-4.6797 3.4844zm-48.973-46.32c-0.44922 0.10938-0.89844 0.20703-1.3516 0.28906-0.066407 0.011719-0.13281 0.023438-0.19922 0.035156-0.066407 0.011719-0.13672 0.023438-0.20312 0.035157-0.28125 0.046875-0.56641 0.082031-0.85156 0.11328-0.39453 0.035156-0.79688 0.10547-1.1758 0.22266-0.027344 0.007813-0.050781 0.015625-0.078125 0.027344-0.027344 0.007812-0.054687 0.019531-0.082031 0.027344-0.027344 0.007812-0.050782 0.019531-0.074219 0.027344-0.027344 0.011718-0.050781 0.019531-0.078125 0.03125-0.23047 0.09375-0.44922 0.21094-0.65234 0.35156 0.14453-0.20312 0.30469-0.375 0.48438-0.51953-0.79688-0.83594-1.2734-2.0586-0.86328-3.1719 0.38281-0.95703 1.6133-1.5117 2.5625-1.0547 0.89453 0.42578 1.293 1.4531 1.3555 2.3906 0.03125 0.375 0.003906 0.74609-0.0625 1.1133 0.4375 0.011719 0.87109 0.046876 1.2734 0.074219 0.003906 0 0.003906 0.003907 0 0.003907zm23.75 35.312c-1.1055 0.77344-2.4492 1.0195-3.7812 1.0195-0.35547 0-0.71484-0.019531-1.0664-0.046875-1.8164-0.15234-4.5664-1.0156-5.7383-2.4023 0.71484 0.44922 1.5391 0.66797 2.3125 0.99219 1.5977 0.65625 3.3203 1.0352 5.0547 0.92578 1.1445-0.066406 2.3594-0.375 3.2227-1.168 0.62109-0.71094 0.62891-1.3281 0.26953-1.8203-0.16016 0.007812-0.32422 0.007812-0.48438 0.007812-0.25 0-0.5-0.007812-0.75-0.015625-0.054687 0-0.11328-0.003906-0.17187-0.007812h-0.007813c-0.058594-0.003907-0.11719-0.003907-0.17578-0.007813-0.12109-0.003906-0.23828-0.007812-0.35547-0.011718-1.3555-0.082032-2.7305-0.26172-3.9805-0.82422-0.046875-0.023438-0.125-0.050781-0.14453-0.085938 0.046875 0.015625 0.09375 0.023438 0.14062 0.035157 1.3359 0.125 2.6875 0.28516 4.0352 0.35937 0.015625 0 0.03125 0 0.042969 0.003907 0.066406 0.003906 0.12891 0.007812 0.19531 0.007812 0.49219 0.023438 0.98047 0.03125 1.4688 0.023438 1.0117-0.082031 2.2891-0.078125 2.957-0.96875 0.19141-0.30078 0.22656-0.69531-0.003907-0.98828-0.26953-0.33203-0.62891-0.55469-1.0156-0.72266-0.25781 0.019531-0.51172 0.035157-0.76563 0.058594-0.53516 0.027344-1.0742 0.054687-1.6094 0.054687-0.56641 0-1.1328-0.03125-1.6953-0.12891-0.48828-0.085937-1.043-0.20312-1.4805-0.35547 0.30859-0.019532 0.82031-0.015626 1.4453-0.015626 0.83203 0 1.8672 0.003907 2.9102-0.042968 0.44141-0.019532 0.88672-0.046875 1.3164-0.085938h0.003907c1.8594-0.16406 3.457-0.54297 3.582-1.4141-0.03125-0.19531-0.18359-0.36719-0.41016-0.52734-0.52344 0.054688-1.0508 0.078125-1.5781 0.078125-0.49219 0-0.98047-0.019531-1.4688-0.058594 0.85547-0.3125 2.8398-0.47656 4.0781-0.69141 0.44922-0.085937 0.89453-0.19531 1.3281-0.34375 0.34766-0.14453 0.78516-0.23828 1.0156-0.55078-0.46094-0.69531-2.707-0.89453-3.5508-1.0508-1.6875-0.21094-3.3281-0.26172-5.0195-0.26172-0.78906 0-1.5742-0.0625-2.3516-0.1875-0.21875-0.046875-0.52344-0.070313-0.68359-0.18359 0.49609 0.015625 0.98438-0.027344 1.4766-0.070312 0.44141-0.039063 0.87891-0.078126 1.3203-0.074219 2.25-0.007813 4.5195 0.058593 6.7344 0.49219 0.75391 0.16406 1.5586 0.27344 2.207 0.71875 0.97656 0.75-0.11328 1.3828-0.86719 1.6133-0.63672 0.22266-1.2891 0.37891-1.9531 0.48047 0.52344 0.62109 0.074219 1.4219-0.65234 1.8203-0.75 0.39844-1.582 0.55859-2.4258 0.64844 0.16406 0.11719 0.3125 0.25391 0.44922 0.40625 0.64453 0.69922 0.26172 1.7891-0.49609 2.2305-0.625 0.35547-1.3203 0.51953-2.0312 0.59375 0.38281 0.83984 0.019532 1.9258-0.86328 2.5391z"/>
  <path d="m40.41 72.367c-0.72266-0.082032-1.4414-0.17578-2.1562-0.28125 0.10547 0.19531 0.23047 0.38281 0.37891 0.55469 0.33594 0.36328 0.72266 0.62891 1.1328 0.81641 0.15625 0.070313 0.32031 0.12891 0.48438 0.17578 0.60547 0.17188 1.25 0.19531 1.8906 0.097657h0.003906c0.050781-0.007813 0.097657-0.015625 0.14844-0.023438h0.003906c0.046875-0.007812 0.097656-0.019531 0.14453-0.027343 0.039063-0.007813 0.078125-0.015626 0.11719-0.027344 0.027344-0.007813 0.054687-0.011719 0.082031-0.019532 0.027344-0.007812 0.054687-0.011718 0.078125-0.019531 0.007812-0.003906 0.015625-0.003906 0.023438-0.007812 0.66016-0.17969 1.3008-0.48047 1.8594-0.86719-1.4023-0.082031-2.8008-0.20703-4.1953-0.36719h-0.003906z"/>
  <path d="m14.777 20.484c-0.77344 0.035156-1.1016-0.76562-1.2109-1.4102 0-0.007813-0.003906-0.011719-0.003906-0.019531v-0.003907c-0.066406 0.054688-0.13281 0.11719-0.19141 0.17578-0.03125 0.03125-0.0625 0.0625-0.089844 0.09375-0.38672 0.41797-0.66406 0.92188-0.96875 1.4102-0.10156 0.16016-0.20312 0.31641-0.3125 0.46875-0.93359 1.375-2.0625 2.625-3.3867 3.6406-1.625 1.293-3.5859 2.2266-5.0117 3.75-0.28516 0.30859-0.5 0.76953-0.46875 1.1758 0.17578 0.42188 0.57031 0.69531 1.0625 0.875 0.48828 0.085937 1 0.039063 1.4922 0.027344 4.3477-0.40234 8.0703-3.5156 11.23-6.293-1.4453-1.6875-1.1953-2.4688-1.0234-4.4727-0.39453 0.14453-0.64844 0.58594-1.1055 0.58203zm-1.7148 2.6328c-0.066406 0.097656-0.14844 0.18359-0.23438 0.26172-0.019531 0.019532-0.039063 0.035156-0.058594 0.050782-0.078125 0.12109-0.18359 0.24219-0.30859 0.32031-0.058594 0.035156-0.12109 0.0625-0.1875 0.0625-0.027344 0-0.054688-0.003906-0.082032-0.015625-0.13281-0.046875-0.16797-0.19531-0.15234-0.32031 0.027344-0.21094 0.14844-0.40625 0.27734-0.56641 0.10938-0.13672 0.24609-0.25391 0.40234-0.33594 0.082031-0.042969 0.1875-0.070313 0.27734-0.046875 0.125 0.03125 0.19531 0.14062 0.19141 0.26562-0.003906 0.11719-0.066406 0.22656-0.12891 0.32031z"/>
  <path d="m16.492 27.668c1.0469-0.47656 2.1289-0.92578 3.2461-1.2578-0.94141-0.43359-1.7969-1.0039-2.4766-1.6602-2.7266 2.4297-6.2227 5.3281-9.9883 6.1953 0.074218-0.003906 0.14844-0.007812 0.21484-0.007812 3.5586-0.22656 5.9297-1.7617 9.0078-3.2656z"/>
  <path d="m51.062 83.562c0.011719-0.007812 0.019531-0.015625 0.03125-0.023438 0.023438-0.019531 0.046875-0.039062 0.070312-0.058593 0.027344-0.023438 0.058594-0.046875 0.089844-0.070313 0.03125-0.023437 0.0625-0.046875 0.089844-0.074218 0.050781-0.042969 0.10156-0.082032 0.15234-0.12109 0.007812-0.007813 0.015625-0.011719 0.023437-0.019532h0.003907c0.011718-0.007812 0.023437-0.015624 0.03125-0.027343 0.066406-0.050781 0.12891-0.10156 0.19531-0.15234l0.019531-0.019531c0.45703-0.46484 0.97656-0.82422 1.3086-1.3945 0.53516-0.81641 0.39844-1.8125 0.60547-2.7266 0.26172-1.0781 0.72266-2.0977 1.1562-3.1172 0.070312-0.16016 0.14453-0.32031 0.21875-0.48437-0.10938 0.003906-0.22266 0.003906-0.33594 0.003906-0.10547 0-0.21094 0-0.31641-0.003906-0.46484-0.023438-0.9375-0.078126-1.4023-0.17969-0.31641 1.0469-0.70703 2.0742-1.0391 3.1133-0.082032 0.27734-0.1875 0.55469-0.28516 0.83984-0.003907 0.015625-0.011719 0.03125-0.015626 0.046875-0.011718 0.039062-0.027343 0.078125-0.039062 0.11719-0.015625 0.046874-0.03125 0.097656-0.046875 0.14453-0.039063 0.015625-0.074219 0.03125-0.11328 0.050781-0.019532 0.007812-0.042969 0.015625-0.0625 0.027344-0.13672 0.054687-0.27734 0.10547-0.42578 0.15625-2.0156 0.67188-5.0195 0.84766-6.4258 1.043-1.4375 0.15625-2.8711 0.37109-4.2891 0.65234 1.3086-0.078125 2.6172-0.074218 3.9258-0.070312 0.66016 0 1.3242 0.003906 1.9844-0.003906 0.76562-0.011719 1.5273 0.011718 2.2891 0.0625 0.078124-0.39063 0.26953-0.76563 0.57422-0.97656-0.20312 0.30469-0.28906 0.67969-0.27344 1.0586v0.011719c0.007812 0.14062 0.027343 0.27734 0.058593 0.41406 0.011719 0.054688 0.027344 0.10938 0.042969 0.16406-0.050781 0.03125-0.097656 0.058594-0.14844 0.085938-0.050782 0.03125-0.097656 0.058594-0.14844 0.085938-0.035156 0.019531-0.070312 0.042968-0.10547 0.0625-1.4531 0.82812-3.0391 1.4258-4.543 2.1602-2.4609 1.1719-4.9922 2.2695-7.1484 3.9648 2.8945-1.4102 5.7188-2.9766 8.6953-4.2188 1.0742-0.45703 2.1562-0.90625 3.2656-1.2656 0.09375-0.03125 0.18359-0.058593 0.27734-0.089843 0.082032-0.027344 0.16406-0.050781 0.24219-0.074219 0.0625 0.066406 0.125 0.125 0.19531 0.17969 0.015626 0.011718 0.03125 0.023437 0.046876 0.035156 0.003906 0.003906 0.007812 0.003906 0.007812 0.007812 0.11328 0.082032 0.23438 0.15234 0.36719 0.21094 0.089843 0.039062 0.18359 0.074218 0.27734 0.10156-0.050781 0.0625-0.10547 0.12109-0.15625 0.18359-0.050781 0.058594-0.10547 0.12109-0.16016 0.17969-1.7656 1.9648-4.0312 3.5078-5.582 5.6602 0 0.007812-0.003906 0.015625-0.003906 0.023437 1.168-0.60156 2.1406-1.5391 3.125-2.3828 1.2266-1.082 2.418-2.2344 3.6836-3.2773z"/>
  <path d="m33.426 80.488c1.0742-0.45703 2.1562-0.90625 3.2656-1.2656 0.17188-0.054687 0.34766-0.10938 0.51953-0.16406 0.015624 0.015625 0.03125 0.03125 0.046874 0.046875 0.011719 0.011719 0.023438 0.023437 0.035157 0.035156 0.015625 0.015625 0.035156 0.03125 0.050781 0.046875 0.023438 0.019531 0.046875 0.039062 0.070312 0.054688 0.023438 0.019531 0.046876 0.035156 0.074219 0.054687 0.10547 0.074219 0.21875 0.13672 0.33984 0.19141 0.023437 0.011719 0.042969 0.019531 0.066406 0.027344 0.046875 0.019531 0.089844 0.035156 0.13672 0.050781 0.003906 0 0.003906 0.003906 0.007812 0.003906 0.019532 0.007813 0.042969 0.011719 0.0625 0.019532-0.050781 0.0625-0.10547 0.12109-0.15625 0.18359-0.050781 0.058593-0.10547 0.12109-0.16016 0.17969-1.7656 1.9648-4.0273 3.5078-5.582 5.6602 0 0.007813-0.003906 0.015625-0.003906 0.023438 1.168-0.60156 2.1367-1.5391 3.125-2.3828 1.2266-1.082 2.418-2.2344 3.6836-3.2773h-0.003906c0.035156-0.027343 0.066406-0.054687 0.10156-0.082031 0.042969-0.035156 0.082031-0.066406 0.125-0.10156 0.019531-0.015625 0.035156-0.03125 0.054687-0.046875 0.058594-0.046875 0.11719-0.097656 0.17969-0.14453h0.003906c0.03125-0.027343 0.066406-0.050781 0.097656-0.078124 0.050782-0.042969 0.10547-0.082032 0.15625-0.12109 0.45703-0.46094 0.97656-0.82422 1.3047-1.3906 0.53516-0.81641 0.39844-1.8164 0.60156-2.7266 0.082032-0.33984 0.1875-0.67578 0.30078-1.0039-0.19922 0.023438-0.40234 0.03125-0.60547 0.03125-0.45703-0.019531-0.87109-0.085938-1.25-0.19531-0.054688 0.16797-0.11328 0.33594-0.16797 0.50391-0.074219 0.25391-0.17188 0.50781-0.25781 0.76562-0.042969 0.125-0.085938 0.25-0.125 0.37891-0.046876 0.019531-0.09375 0.042969-0.14453 0.058594-1.9883 0.8125-5.3672 1.0039-6.8867 1.2109-1.4375 0.15625-2.8711 0.37109-4.2852 0.65234 1.3047-0.078125 2.6133-0.074219 3.918-0.070312 0.66406 0 1.3281 0.003906 1.9883-0.003907 0.76562-0.015625 1.5273 0.011719 2.2891 0.0625 0.078125-0.39453 0.26953-0.76562 0.57422-0.97656-0.19141 0.29297-0.27734 0.64453-0.27734 1v0.019531c0 0.023438 0 0.042969 0.003906 0.066406 0 0.023438 0.003906 0.046875 0.003906 0.070313 0.011719 0.16797 0.046875 0.33203 0.09375 0.49219-0.066406 0.039063-0.13281 0.078125-0.19922 0.11719-0.066406 0.039062-0.13281 0.078125-0.20312 0.11719-1.4531 0.82422-3.0391 1.4258-4.5391 2.1562-2.4609 1.1719-4.9922 2.2695-7.1484 3.9648 2.8945-1.4102 5.7188-2.9766 8.6953-4.2188z"/>
  <path d="m22.156 17.727c-0.52734 0.12109-1.0977-0.375-1.3008-1.125 0.054687 0.003907 0.10938 0 0.16406-0.015624 0.32031-0.074219 0.52344-0.39453 0.44922-0.71484-0.0625-0.27344-0.30078-0.45703-0.57031-0.46484 0.12109-0.29297 0.33203-0.5 0.59766-0.5625 0.55078-0.12891 1.1445 0.41406 1.3242 1.2109 0.18359 0.79687-0.11328 1.543-0.66406 1.668z"/>
 </g>
</svg>