<?xml version="1.0" encoding="UTF-8" standalone="no" ?>
<!DOCTYPE svg PUBLIC "-//W3C//DTD SVG 1.1//EN" "http://www.w3.org/Graphics/SVG/1.1/DTD/svg11.dtd">
<svg xmlns="http://www.w3.org/2000/svg" xmlns:xlink="http://www.w3.org/1999/xlink" version="1.1" width="1080" height="1080" viewBox="0 0 1080 1080" xml:space="preserve">
<desc>Created with Fabric.js 5.2.4</desc>
<defs>
</defs>
<g transform="matrix(1 0 0 1 540 540)" id="a7b93256-0cd6-4fb3-afdd-f6b28f4afdce"  >
<rect style="stroke: none; stroke-width: 1; stroke-dasharray: none; stroke-linecap: butt; stroke-dashoffset: 0; stroke-linejoin: miter; stroke-miterlimit: 4; fill: rgb(255,255,255); fill-rule: nonzero; opacity: 1; visibility: hidden;" vector-effect="non-scaling-stroke"  x="-540" y="-540" rx="0" ry="0" width="1080" height="1080" />
</g>
<g transform="matrix(1 0 0 1 540 540)" id="640ec07b-2e18-4348-8126-a793bc7eb1f5"  >
</g>
<g transform="matrix(1 0 0 1 540 540)"  >
<rect style="stroke: none; stroke-width: 1; stroke-dasharray: none; stroke-linecap: butt; stroke-dashoffset: 0; stroke-linejoin: miter; stroke-miterlimit: 4; fill: rgb(255,255,255); fill-rule: nonzero; opacity: 1; visibility: hidden;" vector-effect="non-scaling-stroke"  x="-540" y="-540" rx="0" ry="0" width="1080" height="1080" />
</g>
<g transform="matrix(1.62 0 0 1.62 541.24 538.78)"  >
<path style="stroke: none; stroke-width: 1; stroke-dasharray: none; stroke-linecap: butt; stroke-dashoffset: 0; stroke-linejoin: miter; stroke-miterlimit: 4; fill: rgb(0,0,0); fill-rule: nonzero; opacity: 1;" vector-effect="non-scaling-stroke"  transform=" translate(-350, -280)" d="M 627.2 21.367 C 622.8289000000001 17.7772 617.173 16.488100000000003 611.6690000000001 17.8201 L 608.1885000000001 18.66776 L 605.9112000000001 9.30836 C 605.1494800000002 6.148160000000001 603.2003000000001 3.4763600000000006 600.4268000000001 1.7849600000000008 C 597.6534 0.09356000000000075 594.3916 -0.4181399999999993 591.2237000000001 0.34746000000000077 L 582.2393000000001 2.5388600000000006 C 579.0831000000001 3.3005800000000005 576.4112000000001 5.24586 574.7198000000001 8.01936 C 573.0284 10.796660000000001 572.5206000000001 14.06626 573.2901 17.222459999999998 L 575.5713000000001 26.597459999999998 L 560.8053000000001 30.19126 L 558.5241000000001 20.80846 C 556.9343000000001 14.296759999999999 550.3483000000001 10.28546 543.8441000000001 11.87096 L 534.8558000000002 14.05456 C 528.3402000000002 15.62486 524.3208000000002 22.20686 525.8949000000001 28.73856 L 528.1761000000001 38.12916 L 519.4925000000002 40.24246 C 512.9183000000002 41.83626 507.9025000000002 46.67996 506.07450000000017 53.19146 C 504.66040000000015 58.23446 505.4026200000002 63.406459999999996 508.01980000000015 67.70746 C 477.71480000000014 89.68446 432.39480000000015 106.16445999999999 388.49980000000016 122.12546 C 347.53480000000013 137.02046 308.84380000000016 151.08646 287.2998000000002 168.29346 C 240.15480000000017 205.94946000000002 193.4048000000002 270.99346 169.91980000000018 315.49346 C 160.8104000000002 332.75146 152.21680000000018 355.37646 143.1188000000002 379.32946000000004 C 127.6498000000002 420.05646 110.11880000000019 466.22046000000006 87.68880000000019 488.9194600000001 C 87.65364400000018 488.9546170000001 87.58333000000019 489.03274000000005 87.54818000000019 489.07180000000005 L 87.36459000000019 489.25930000000005 C 87.36459000000019 489.25930000000005 87.36459000000019 489.263206 87.36068400000019 489.263206 L 72.9386840000002 503.67320600000005 C 68.65348400000019 507.96230600000007 66.2941840000002 513.661506 66.2941840000002 519.728206 C 66.2941840000002 525.794906 68.6535840000002 531.494206 72.9425840000002 535.783206 L 90.5285840000002 553.369206 C 94.95438400000019 557.795006 100.7665840000002 560.005906 106.5795840000002 560.005906 C 112.3925840000002 560.005906 118.2085840000002 557.791106 122.63458400000019 553.369206 L 137.37658400000018 538.627206 C 137.38049000000018 538.6233 137.38049000000018 538.6233 137.38439600000018 538.619393 C 160.09139600000017 516.181393 206.27139600000018 498.64239299999997 247.01439600000018 483.17039299999993 C 270.9523960000002 474.0805929999999 293.5613960000002 465.4903929999999 310.8113960000002 456.3893929999999 C 355.30739600000015 432.9093929999999 420.3513960000002 386.1593929999999 458.01139600000016 339.00939299999993 C 475.21839600000015 317.4663929999999 489.28139600000014 278.78239299999996 504.1713960000002 237.82939299999992 C 520.7493960000002 192.22439299999994 537.8943960000001 145.07139299999994 561.1793960000002 114.82939299999992 L 579.0073960000002 97.00139299999992 C 592.6163960000002 83.39239299999993 606.7613960000002 73.07939299999992 621.0423960000002 66.34939299999992 C 628.1790960000002 63.00169299999992 632.8313960000002 55.95839299999992 633.1753960000002 47.966392999999925 L 633.6949260000002 35.91939299999993 C 633.9371160000003 30.267092999999928 631.5699260000002 24.96639299999993 627.2027260000002 21.37639299999993 z M 151.54000000000002 382.52700000000004 C 160.53610000000003 358.83900000000006 169.032 336.4680000000001 177.88400000000001 319.69900000000007 C 200.94600000000003 276.00000000000006 246.779 212.18900000000008 292.92400000000004 175.33900000000006 C 313.31500000000005 159.05000000000007 351.33000000000004 145.23000000000005 391.58000000000004 130.59700000000007 C 423.52900000000005 118.98000000000006 456.22800000000007 107.09300000000006 483.72800000000007 92.89400000000006 L 120.80800000000005 455.8040000000001 C 132.04600000000005 433.8430000000001 141.89400000000006 407.93700000000007 151.54200000000006 382.5270000000001 z M 104.99700000000001 500.50700000000006 L 96.92280000000001 492.43280000000004 L 514.4528 74.90280000000007 L 522.527 82.97700000000007 z M 119.43100000000001 514.941 L 111.36460000000001 506.87460000000004 L 528.8946 89.34460000000007 L 536.9571 97.40710000000007 z M 495.701 234.74100000000004 C 481.072 274.98300000000006 467.25600000000003 312.99500000000006 450.971 333.38200000000006 C 414.119 379.51900000000006 350.301 425.3550000000001 306.611 448.4220000000001 C 289.849 457.26580000000007 267.49 465.7580000000001 243.822 474.7460000000001 C 218.4 484.4022000000001 192.478 494.2500000000001 170.51 505.4960000000001 L 533.41 142.59600000000012 C 519.207 170.1000000000001 507.316 202.79900000000012 495.703 234.7480000000001 z M 133.87100000000004 529.3810000000001 L 125.79290000000003 521.3029000000001 L 543.3229 103.77290000000016 L 551.3971 111.84710000000017 z M 536.921 36.00100000000009 L 534.6398 26.62210000000009 C 534.22964 24.92680000000009 535.27261 23.219800000000088 536.964 22.80960000000009 L 545.964 20.62600000000009 C 547.6476 20.21584000000009 549.3546 21.25881000000009 549.7648 22.94630000000009 L 552.046 32.32520000000009 z M 584.3190000000001 24.47000000000009 L 582.0378000000001 15.091100000000091 C 581.8385800000001 14.270790000000092 581.9674880000001 13.427000000000092 582.40889 12.708300000000092 C 582.84639 11.989550000000092 583.53389 11.489500000000092 584.3580900000001 11.290300000000093 L 593.3424900000001 9.098900000000093 C 594.1628000000001 8.895780000000093 595.0104900000001 9.032494000000092 595.7330900000001 9.473900000000093 C 596.4518400000001 9.911400000000093 596.9557900000001 10.602800000000093 597.1549900000001 11.427000000000092 L 599.4322900000001 20.794200000000092 z" stroke-linecap="round" />
</g>
<g transform="matrix(1.62 0 0 1.62 493.39 416.15)"  >
<path style="stroke: none; stroke-width: 1; stroke-dasharray: none; stroke-linecap: butt; stroke-dashoffset: 0; stroke-linejoin: miter; stroke-miterlimit: 4; fill: rgb(0,0,0); fill-rule: nonzero; opacity: 1;" vector-effect="non-scaling-stroke"  transform=" translate(-320.51, -204.4)" d="M 327.92 184.09 C 323.84970000000004 180.0275 318.10360000000003 178.4767 312.541 179.9259 C 306.9824 181.37900000000002 302.73629999999997 185.54700000000003 301.178 191.0739 L 296.1116 209.0309 C 294.5178 214.6911 296.04519400000004 220.5509 300.20140000000004 224.7069 C 303.27560000000005 227.78109999999998 307.27560000000005 229.41389999999998 311.43940000000003 229.41389999999998 C 312.9082 229.41389999999998 314.3964 229.21077999999997 315.87300000000005 228.79280999999997 L 333.84200000000004 223.72641 C 339.3772 222.16780999999997 343.54120000000006 217.91391 344.994 212.35141 C 346.44320000000005 206.79280999999997 344.88072000000005 201.04640999999998 340.8143 196.99240999999998 z" stroke-linecap="round" />
</g>
<g transform="matrix(1.62 0 0 1.62 335.47 595.89)"  >
<path style="stroke: none; stroke-width: 1; stroke-dasharray: none; stroke-linecap: butt; stroke-dashoffset: 0; stroke-linejoin: miter; stroke-miterlimit: 4; fill: rgb(0,0,0); fill-rule: nonzero; opacity: 1;" vector-effect="non-scaling-stroke"  transform=" translate(-223.16, -315.22)" d="M 239.75 278.79 L 208.73 309.798 C 200.7261 317.8136 195.45999999999998 334.657 201.4605 350.087 C 202.15581 351.8682 203.855 352.9581 205.6597 352.9581 C 206.20266999999998 352.9581 206.75349999999997 352.86044400000003 207.2925 352.64951 C 209.60889999999998 351.74717000000004 210.7573 349.13781 209.85889999999998 346.82141 C 205.46829999999997 335.53241 209.16358999999997 322.11441 215.105 316.16541 L 246.12099999999998 285.16141 C 247.87879999999998 283.40361 247.87879999999998 280.55201 246.12099999999998 278.79420999999996 C 244.36319999999998 277.03641 241.5116 277.03641 239.74989999999997 278.79030299999994 z" stroke-linecap="round" />
</g>
<g transform="matrix(1.62 0 0 1.62 657.85 580.6)"  >
<path style="stroke: none; stroke-width: 1; stroke-dasharray: none; stroke-linecap: butt; stroke-dashoffset: 0; stroke-linejoin: miter; stroke-miterlimit: 4; fill: rgb(0,0,0); fill-rule: nonzero; opacity: 1;" vector-effect="non-scaling-stroke"  transform=" translate(-421.89, -305.79)" d="M 412.83 330.81 C 414.29879999999997 330.81 415.787 330.60688 417.2597 330.18891 L 435.2287 325.12251000000003 C 440.75600000000003 323.56391 444.924 319.31391 446.3767 313.75551 C 447.82980000000003 308.19301 446.27514 302.44351 442.2087 298.37251000000003 L 429.3107 285.48551000000003 C 425.2521 281.41911000000005 419.506 279.85271000000006 413.9477 281.30581 C 408.3852 282.75501 404.1313 286.92301000000003 402.5727 292.45781 L 397.4946 310.42681 C 395.8969 316.08301 397.428194 321.94281 401.5844 326.09881 C 404.6625 329.17301000000003 408.6664 330.80971 412.8304 330.80971 z" stroke-linecap="round" />
</g>
<g transform="matrix(1.62 0 0 1.62 478.12 738.52)"  >
<path style="stroke: none; stroke-width: 1; stroke-dasharray: none; stroke-linecap: butt; stroke-dashoffset: 0; stroke-linejoin: miter; stroke-miterlimit: 4; fill: rgb(0,0,0); fill-rule: nonzero; opacity: 1;" vector-effect="non-scaling-stroke"  transform=" translate(-311.08, -403.15)" d="M 276.21 424.84 C 280.8467 426.6447 285.60839999999996 427.4298 290.222 427.4298 C 300.964 427.4298 310.894 423.1681 316.503 417.5704 L 347.507 386.5544 C 349.2648 384.7966 349.2648 381.9411 347.507 380.18719999999996 C 345.74920000000003 378.4294 342.8976 378.4294 341.1398 380.18719999999996 L 310.1398 411.2032 C 304.1867 417.14459999999997 290.77279999999996 420.8438 279.47979999999995 416.4532 C 277.16339999999997 415.55086 274.554 416.69928999999996 273.65169999999995 419.0157 C 272.74544999999995 421.3282 273.89388999999994 423.9376 276.21029999999996 424.8399 z" stroke-linecap="round" />
</g>
</svg>