<svg xmlns="http://www.w3.org/2000/svg" xmlns:xlink="http://www.w3.org/1999/xlink" version="1.1" x="0px" y="0px" viewBox="0 0 1000 1250" style="enable-background:new 0 0 1000 1000;" xml:space="preserve"><path d="M887.4835815,309.5647278c15.4507446-8.6161194,30.3331299-18.2709656,44.317749-29.1140747  c14.2156372-11.0223083,27.8521729-23.22229,39.6539917-36.8257904  c9.5567017-11.015564,24.0292969-28.1565094,22.3584595-43.8634338  c-30.9519043,28.9884033-63.4711304,54.1257782-99.9592896,73.8115692  c19.4684448-20.1536407,40.8485107-38.3233795,58.3093262-60.3685455  c14.6467285-18.4923401,31.2077026-42.8444824,31.3499146-67.3608093  c-38.1519165,51.8816681-85.0971069,92.9162903-136.7404175,129.006485  c2.324646-5.9586792,8.9231567-11.0180359,13.2404785-15.5611877c5.0654907-5.3304291,10.1378784-10.6546326,15.0768433-16.1031342  c9.0512085-9.9849854,17.6473389-20.3939514,25.3095093-31.4900513c7.8030396-11.3001251,14.6293945-23.293808,19.9182129-35.979599  c4.677002-11.2183228,10.0210571-24.2126617,8.0136719-36.5967102  c-22.612854,38.8455353-53.0269775,72.9679718-83.8690186,105.4689331  c-15.6334229,16.4741821-31.8311157,32.4110413-48.5582886,47.7734985  c-8.5888062,7.8881531-17.3156128,15.6260681-26.1757812,23.208313  c-7.5988159,6.5028992-15.0496826,9.3045044-24.1578979,13.0614014  c13.9485474-21.2354126,39.5279541-54.8320007,27.7356567-81.7794647  c-27.6583862,43.9867096-69.2702026,71.6869965-111.5245361,100.3185577  c-46.1165771,31.2486877-89.6844482,64.8288269-132.928894,99.9032288  c-5.6065063-0.6496582-12.0467529-6.9468384-16.5371094-10.1246948  c-5.8365784-4.1304932-11.5024414-8.4998169-16.9877625-13.0861816  c-10.9407349-9.1477051-21.1247864-19.1996765-30.472229-29.9682922  c-9.0441589-10.4193115-16.8256531-21.5186768-27.9740295-29.8993835  c-11.7861938-8.8601685-25.6845398-15.1783752-38.5321655-22.3319702  c-46.3208923-25.7914734-96.4901428-51.4237976-122.6308289-100.0204315  c-11.592865,29.3333588,9.0354309,58.0881195,20.8335876,83.6177826  c-76.1152039-54.7937317-150.3587646-111.3382111-207.7383575-187.2638702  c0,28.5726166,21.1557541,58.9443359,38.1207199,80.3625336c19.0685349,24.0738983,42.1558304,44.6885071,65.0375443,65.0348816  c-0.9047241,1.176239-107.8427277-65.5345001-165.0858002-141.0569611  c12.2333393,50.3688965,45.2535629,87.0746918,81.1984329,122.0113678  C70.96698,243.8149414,37.8903694,217.9574127,6.0534339,187.5167084  c4.1778779,30.6306305,30.0201778,58.7673187,51.747406,79.0995941  c11.5231895,10.7832947,24.0433464,20.4727783,37.211895,29.1607666  c6.8671265,4.5307007,30.9690247,18.1126404,37.8664627,23.413147  c-40.5023651-14.954895-78.2567825-33.1340332-114.7852402-56.1832886  c1.9336987,14.507843,15.9168224,27.6391602,26.2242451,36.9002991  c12.3288651,11.0774841,26.3507271,20.3096619,40.8878441,28.2131958  c32.0408173,17.4201355,67.112648,27.8600464,101.6341782,39.0859375  c-44.9973907-5.6498413-88.4096451-17.1151123-130.8503723-35.1937561  c2.8460464,15.7444763,20.3230476,28.417572,32.7030067,36.6455688  c14.2937622,9.4998169,30.1301422,16.3735962,46.5839462,21.1565552  c36.0769043,10.4870911,74.7391663,12.414032,111.8896332,16.8757629  c-42.6227112-0.3616333-85.0393677-3.3837585-127.9497833-7.7572632  c1.9654617,10.572113,16.0758667,18.4229736,24.7032013,22.9101257  c11.4440308,5.9520569,24.0527344,9.3588257,36.7132568,11.5369873c29.9463959,5.1521606,61.0098114,3.1333618,91.2622681,3.1333618  c-32.843277,3.9039612-65.8112946,3.6590881-98.7538757,6.8673401c1.0660248,8.6673584,13.5478516,13.2960815,20.5287018,15.8243408  c10.2049103,3.6960754,21.1927338,5.2300415,31.9765015,5.9593506c25.2299957,1.7061462,50.571579-1.9250183,75.7325287-3.3880615  c-12.4726868,6.1263123-29.7660217,5.8937073-43.3460083,7.984314c-7.562851,1.1642761-15.1154938,2.410675-22.6123199,3.9493713  c-4.4026947,0.9036865-13.1512299,1.2200012-15.3605957,6.0295105c6.7858734,11.8760986,32.7900391,10.3574829,44.0334015,9.6702576  c16.7799072-1.0256653,33.4998474-4.2345886,50.1132507-6.7059021c-4.1696167,3.5749512-11.3725586,4.1758728-16.5333557,5.401123  c-6.6285095,1.5737305-13.2782898,3.0635681-19.8742065,4.771698c-8.2003174,2.1236267-25.3078156,3.7540894-27.9748383,13.658783  c26.3326874,11.8894653,51.9518585,0.1111755,77.677597-2.1178589c-9.9280396,5.197937-22.5817261,6.7257996-33.3109741,9.7355347  c-6.6730042,1.8718872-23.4197998,4.0658569-25.893219,12.0621948c1.3695984,11.4370728,19.7489929,12.9491577,28.1123962,10.9375  c13.8146057-3.322876,27.4386292-8.4613037,41.0107117-12.6795654c-4.1876831,5.9716797-16.73349,8.2098999-23.1389465,11.1095581  c-5.9997559,2.7160034-15.2690735,6.2711182-18.1581116,12.7860107c-2.1582031,4.8668823-0.1725159,11.2797852,4.4958801,13.9423828  c6.4619446,3.6856079,13.8312988-1.1640015,20.3013306,1.3290405c-2.7949524,6.1427612-9.3170471,13.4953003-0.7908325,18.6967163  c5.8599548,3.5747681,16.0956116-0.0093994,22.4270325-0.9503174c-2.1113586,4.6538696-4.7006836,10.9749756,0.5870972,14.2911377  c7.0099792,4.3961182,15.7142334-1.7978516,22.894165,0.3865356c-1.9740601,5.7047729-3.4634094,11.8371582,3.546814,13.7722168  c8.1287537,2.2439575,18.578949-4.9182129,25.8951416-1.4978027  c-64.3858643,45.0962524-131.1888428,83.217041-208.9068756,97.5878296  c1.3424988,13.5808105,23.6379089,19.0144043,34.6718445,16.4356689C245,719,281,700,295,692  c-14,14-47.3000336,26.0467529-61.0485535,32.8734741c-13.2622986,6.5853271-27.1332245,12.6286011-38.802948,21.9019775  c11.4015961,10.6286011,23.7711334,8.2625122,37.4431305,5.560791  c-9.6959991,10.1390991-21.1081848,16.8449097-27.0719452,29.130127  c14.6818848,4.1123657,33.0323334-5.9313965,45.5636444-12.7554932c7.2046967-3.9234619,31.126236-19.6766968,39.1024323-25.0338745  c-16.4631042,17.0964966-34.0927429,32.1422729-46.3633728,52.12854  c33.0507812-6.6835938,55.5232849-29.5961914,78.8912964-51.211853  c-12.9541626,19.2616577-29.9780579,35.4437256-39.6726379,56.907959  c27.3536377-9.4591675,45.7496338-29.6987305,63.2780762-51.2640991  c-6.2495422,13.9621582-11.6885986,27.8806152-12.8397827,45.1107178  c34.629303-27.4574585,61.5863953-60.4984741,95.2128296-87.7180786  c6.5006714,37.5414429,18.6399841,70.8552246,43.9161987,98.864624c3.9490662-5.6173096,7.3062439-10.3928223,10.8202515-15.3912964  c8.2352295,5.5755005,15.9172363,11.9222412,23.1251526,18.7666626  c5.6992188,5.4118652,12.4802246,11.0419312,13.8527832,19.2087402c1.2067261,7.1797485-3.4873047,19.3170776,5.2477417,23.3532715  c4.9307251,2.2782593,14.3985596-0.277771,12.5151978-6.9477539c-4.394165-1.4271851-6.7005005-4.0605469-6.510376-7.947937  c0.1017456-2.0789795,1.5363159-3.8522949,3.4979858-4.5480347c0.0281372-0.0100098,0.0563354-0.0198364,0.0844727-0.0296631  c2.8457031-0.9916382,6.3324585,1.4998779,7.9608154,4.0355835c3.1548462,4.9127808,4.5690308,10.3811646,1.9580688,16.8798218  c2.770813,4.8019409,9.8685913,9.6280518,16.2368774,7.6899414c6.1394653-1.8684692,7.9404907-9.6431274,9.2992554-14.6906738  c4.9216309,12.4578857,7.3115845,13.0770264,21.1850586,5.9586182c0.8936768,2.4019165,1.7797241,4.7833252,2.6523438,7.1287842  c20.1063843-5.4354858,15.0748291-31.2059937,3.0307007-41.7861938  c-7.6741943-6.741272-13.8223877-13.1022339-19.1445923-21.9251099c-4.9764404-8.2496948-9.1053467-17.0296021-14.8571167-24.796875  c14.8527832-35.1669922,21.5681763-70.7409668,18.8495483-107.3724976  c15.9474487-13.6477051,31.4702148-27.7796021,47.137207-41.7478638  c13.6969604-12.211792,27.2496948-27.0675049,44.8013916-33.6613159c17.7175293-6.656189,40.5964966-6.0007324,59.2446289-4.8909302  c4.4747925,0.2663574,9.7692261,0.277771,12.699707,4.2049561c3.1234741,4.1859131,1.8215942,10.5913086,3.2775879,15.2823486  c20.7896118-7.2703857,23.2371826-32.5453491,5.5497437-57.4954224  c6.041748-23.3456421-19.9478149-42.3014832-36.9932861-53.1569519  c-10.1471558-6.4623108-21.0015869-11.7250671-32.0842896-16.3699036  c-9.4775391-3.9720764-23.3079834-6.2799377-31.1506958-13.0612488c16.0428467,1.5560303,31.6259766,4.6946716,47.855896,3.9005432  c13.491333-0.6600952,29.2538452-2.4057922,38.8640747-13.0109558c-20.147644-6.4781799-40.1722412-8.2372131-60.6589966-12.4659424  c9.8504639-3.6972046,24.4723511,0.0205383,34.8660889-0.0197144c12.381958-0.0479736,24.758606-0.8065491,37.0204468-2.5567627  c11.0429077-1.5762024,22.041626-3.8706665,32.5699463-7.6103821c6.7578125-2.4004211,21.0675659-6.0020142,22.5648193-14.489624  c-27.9242554-2.7682495-55.6426392-0.5393982-85.1299438-1.4936829c15.7127686-3.8617249,32.6604004-3.4134521,48.7080688-4.8778381  c17.5039673-1.597229,34.8568726-4.1300964,51.6869507-9.3338013c27.5338135-8.5132751,64.0020752-24.3421326,77.5007324-51.7614441  c-39.6882935,15.3200073-79.0513306,24.3117981-119.3990479,29.1832886  c36.3265991-11.9683228,72.9960327-19.7792358,107.2700806-37.4850769  c16.8989868-8.7299805,33.032959-18.9963379,47.9909668-30.7526245c6.984436-5.4894104,13.7039795-11.3625183,19.6044922-18.020874  c4.3131714-4.8670959,12.9030762-13.4237671,11.5352173-20.6858215  c-40.7588501,26.2356262-83.2318726,47.7702942-128.9606934,62.5509033  c6.8913574-5.3418274,15.7984619-8.1104736,23.6243286-11.8135376  C870.9016113,318.4214478,879.2765503,314.1413879,887.4835815,309.5647278z M561.1203613,849.0371704  c-0.3275757,2.0879517-2.2950439,3.5996094-4.3795776,3.2515259c-0.9983521-0.166748-2.0790405-0.5766602-3.3705444-1.2625732  c1.8620605-13.8930664-9.3259277-21.2294312-18.6918945-29.0380859  c-13.3867798-11.1610107-25.6156311-24.0543823-36.9167175-37.2954102  c17.0201111,8.7163696,31.1243591,22.8568726,46.8653259,33.6015625  C557.3026123,826.9465942,563.4923706,833.9165649,561.1203613,849.0371704z M578.3317871,848.9695435  c0.0652466-5.3346558-1.6488037-10.3804932-4.8800049-14.6380615c-3.7284546-4.9129639-11.4433594-7.9648438-16.5068359-11.2225952  C569.2971802,819.979187,595.4039307,839.3580322,578.3317871,848.9695435z M596.8574829,844.4317017  c-2.390564-10.6247559-9.2966309-17.7964478-19.6558228-23.5073242  C595.2637939,822.5180664,600.8418579,836.5959473,596.8574829,844.4317017z M569.7147827,808.1729126  c-14.6260376,5.7877197-27.5297241-1.5412598-39.0928955-10.3047485c-5.5038452-4.1713257-9.928833-9.362915-15.2018433-13.7647705  c-5.1456604-4.2955933-11.0723572-7.555603-15.5853271-12.6040039  c3.7167664-33.7827148-0.5814209-81.1003418,28.2521362-105.3135376  c-13.5263672,32.0425415-12.7104492,66.1625977-16.0622559,99.6848755c3.5534058-0.7263794,5.5455322-1.2576294,8.9307251-2.2236328  c3.8286133,5.8817749,7.8161621,12.0079346,12.1824341,18.7159424c4.1782837-4.4207764,7.8756104-8.3325195,12.1661987-12.8719482  C554.8591919,781.5788574,562.0859375,794.5499268,569.7147827,808.1729126z M736.6660767,550.1032715  c-1.1959229,2.4991455-4.1912842,3.5556641-6.6904297,2.3598633c-0.7588501-0.3631592-1.3823242-0.8937988-1.852478-1.5244751  c1.8026733-0.0678711,3.5082397-1.1056519,4.3409424-2.8460083c0.8327026-1.7402954,0.5709229-3.7195435-0.5073242-5.1658325  c0.7861328-0.0296021,1.5905151,0.1229248,2.3493652,0.4860229  C736.8052979,544.6087646,737.8618774,547.604126,736.6660767,550.1032715z M667.9306641,488.3368835  c15.3627319,4.8613892,30.4719238,11.0489197,44.3518677,19.2854919  c9.9786987,5.9214478,27.8016968,16.9376831,29.6553955,29.4580078  c-30.1820068-10.2606201-60.7162476-16.9939575-93.0814209-22.5366821  c6.3530884,5.7182617,11.6576538,10.4927979,17.7976074,16.0192871  c-15.4344482,3.4127808-29.8894043,6.6089478-44.3442993,9.8050537c0.0230713,0.3775635,13.1331787,3.3798218,19.6652832,4.503479  c-29.0505981,6.9246216-58.453125,9.3272095-88.2424927,8.5946045c14.9367676-5.062561,30.1204224-9.0634155,45.937561-13.8740845  c-17.5992432-5.2194214-35.1985474-10.4387817-52.7977905-15.6582031  c0.0855713-0.4764404,22.6842651-1.4293213,33.8447876-1.4293213c0.5794067-4.0838623-27.8790894-15.2587891-32.3180542-17.7419739  c-11.3215942-6.3333435-22.2667847-13.3422852-32.7802124-20.9414368  c-21.4777222-15.524231-41.140686-33.4417114-59.132843-52.8770447  c-17.9396973-19.3788452-32.6755066-45.0435791-56.8682556-57.0053406  c-25.4067993-12.5620117-51.0299683-25.1807556-72.493866-44.0525513c4.5350342-0.890625,10.4584351,3.7330627,14.6017456,5.7212219  c5.8071899,2.7866211,11.6113281,5.5797119,17.4164429,8.3707581c12.1377258,5.8354797,24.2783508,11.6653137,36.4536438,17.4223022  c10.618927,5.0210876,21.0838623,9.6650391,30.3029785,17.0819702c9.1648865,7.37323,16.7178345,16.3678284,24.6138611,25.0211487  c16.4644775,18.0434875,33.8624573,35.3763733,53.5594177,49.9096375  c16.3432617,12.0587158,41.3543091,27.5409851,62.6924438,25.2510071c0.2835693-2.6980591-2.5031128-4.3920898-1.6486816-7.2966919  C599.8305664,472.8355408,634.7386475,477.8335876,667.9306641,488.3368835z"/></svg>