<?xml version="1.0" encoding="UTF-8" standalone="no" ?>
<!DOCTYPE svg PUBLIC "-//W3C//DTD SVG 1.1//EN" "http://www.w3.org/Graphics/SVG/1.1/DTD/svg11.dtd">
<svg xmlns="http://www.w3.org/2000/svg" xmlns:xlink="http://www.w3.org/1999/xlink" version="1.1" width="1080" height="1080" viewBox="0 0 1080 1080" xml:space="preserve">
<desc>Created with Fabric.js 5.2.4</desc>
<defs>
</defs>
<g transform="matrix(1 0 0 1 540 540)" id="a7814129-ecf3-424d-97d2-cb6a0466749a"  >
<rect style="stroke: none; stroke-width: 1; stroke-dasharray: none; stroke-linecap: butt; stroke-dashoffset: 0; stroke-linejoin: miter; stroke-miterlimit: 4; fill: rgb(255,255,255); fill-rule: nonzero; opacity: 1; visibility: hidden;" vector-effect="non-scaling-stroke"  x="-540" y="-540" rx="0" ry="0" width="1080" height="1080" />
</g>
<g transform="matrix(1 0 0 1 540 540)" id="60cb4472-7d6a-41db-b5fe-db237e9994e2"  >
</g>
<g transform="matrix(1.62 0 0 1.62 539.53 540.54)"  >
<g style="" vector-effect="non-scaling-stroke"   >
		<g transform="matrix(1.33 0 0 1.33 0 0)"  >
<path style="stroke: none; stroke-width: 1; stroke-dasharray: none; stroke-linecap: butt; stroke-dashoffset: 0; stroke-linejoin: miter; stroke-miterlimit: 4; fill: rgb(0,0,0); fill-rule: nonzero; opacity: 1;" vector-effect="non-scaling-stroke"  transform=" translate(-349.97, -280)" d="M 546.89 311.92 L 511.38599999999997 270.47900000000004 C 509.6516 268.46340000000004 508.69849999999997 265.88520000000005 508.69849999999997 263.19780000000003 L 508.69849999999997 229.59580000000003 C 508.69849999999997 130.75580000000002 428.3395 50.39580000000004 329.4985 50.39580000000004 C 230.71349999999998 50.39580000000004 150.2985 130.75480000000005 150.2985 229.59580000000003 C 150.2985 254.85380000000004 155.8415 280.3888 166.2595 303.3498 C 173.6501 319.5878 184.7395 332.9158 196.4435 346.9748 C 200.924 352.3498 205.5724 357.9518 210.0525 363.71680000000003 C 227.4665 386.34180000000003 239.78650000000002 409.9748 246.73250000000002 433.99780000000004 C 252.22080000000003 453.20480000000003 255.2442 473.75980000000004 256.30670000000003 498.84580000000005 C 256.52936000000005 504.8380000000001 261.45900000000006 509.5998000000001 267.4517 509.5998000000001 L 379.9017 509.5998000000001 C 386.0619 509.5998000000001 391.1007 504.56070000000005 391.1007 498.40080000000006 L 391.1007 476.00280000000004 C 391.1007 457.4678 406.16270000000003 442.40080000000006 424.7027 442.40080000000006 L 475.1007 442.40080000000006 C 493.63570000000004 442.40080000000006 508.7027 427.33880000000005 508.7027 408.7988000000001 L 508.698794 341.5998000000001 C 508.698794 335.38500000000005 513.737894 330.40080000000006 519.897794 330.40080000000006 L 538.432794 330.40080000000006 C 545.042194 330.40080000000006 547.8975939999999 325.41640000000007 548.569794 323.8500000000001 C 549.300264 322.3344000000001 551.261194 316.9594000000001 546.890094 311.9200000000001 z M 409.58 291.197 L 334.541 350.38800000000003 C 332.4668 351.9583 330.0566 352.7982 327.5957 352.7982 C 325.1309 352.7982 322.666 351.95836 320.65040000000005 350.392 L 245.77940000000007 291.31 C 211.22840000000008 263.087 197.39640000000006 225.67700000000002 208.59540000000007 191.01 C 217.94700000000006 162.17 242.47440000000006 141.72899999999998 269.69340000000005 140.108 C 291.02940000000007 138.8775 312.3104000000001 146.8853 327.59540000000004 161.78 C 341.81840000000005 147.948 360.91540000000003 139.995 380.96240000000006 139.995 C 382.4741000000001 139.995 383.98580000000004 140.049688 385.44290000000007 140.10828 C 412.65790000000004 141.73328 437.24390000000005 162.17028000000002 446.59490000000005 191.01028000000002 C 457.79390000000006 225.67428 443.9621000000001 263.08428000000004 409.57890000000003 291.19028000000003 z" stroke-linecap="round" />
</g>
		<g transform="matrix(1.33 0 0 1.33 -29.85 -46.85)"  >
<path style="stroke: none; stroke-width: 1; stroke-dasharray: none; stroke-linecap: butt; stroke-dashoffset: 0; stroke-linejoin: miter; stroke-miterlimit: 4; fill: rgb(0,0,0); fill-rule: nonzero; opacity: 1;" vector-effect="non-scaling-stroke"  transform=" translate(-327.59, -244.86)" d="M 384.16 162.46 C 383.0975 162.401407 382.03110000000004 162.401407 380.96860000000004 162.401407 C 363.4956 162.401407 346.9766 170.967807 336.73060000000004 185.417407 C 334.60170000000005 188.327607 331.24230000000006 190.120507 327.60170000000005 190.120507 C 323.96110000000004 190.120507 320.547 188.327507 318.47280000000006 185.417407 C 308.2268000000001 170.96840699999998 291.7028000000001 162.401407 274.23480000000006 162.401407 C 273.17230000000006 162.401407 272.05120000000005 162.401407 270.98870000000005 162.456094 C 253.23470000000006 163.518594 236.32470000000006 178.081094 229.88370000000006 197.90509400000002 C 221.53990000000007 223.83509400000003 232.40320000000006 251.499094 259.7857000000001 273.843094 L 327.60170000000005 327.323094 L 395.53170000000006 273.72909400000003 C 422.74670000000003 251.49909400000004 433.66870000000006 223.83409400000002 425.26570000000004 197.90509400000002 C 418.879 178.081094 401.9687 163.522094 384.1607 162.46009400000003 z" stroke-linecap="round" />
</g>
</g>
</g>
</svg>