<?xml version="1.0" encoding="UTF-8" standalone="no" ?>
<!DOCTYPE svg PUBLIC "-//W3C//DTD SVG 1.1//EN" "http://www.w3.org/Graphics/SVG/1.1/DTD/svg11.dtd">
<svg xmlns="http://www.w3.org/2000/svg" xmlns:xlink="http://www.w3.org/1999/xlink" version="1.1" width="1080" height="1080" viewBox="0 0 1080 1080" xml:space="preserve">
<g transform="matrix(1 0 0 1 540 540)" id="40c866f5-86ec-4720-aa45-3817f8e89325"  >
</g>
<g transform="matrix(1 0 0 1 540 540)" id="56c14887-3eac-47f5-9b71-1d1b3da759a0"  >
<rect style="stroke: none; stroke-width: 1; stroke-dasharray: none; stroke-linecap: butt; stroke-dashoffset: 0; stroke-linejoin: miter; stroke-miterlimit: 4; fill: rgb(255,255,255); fill-rule: nonzero; opacity: 1; visibility: hidden;" vector-effect="non-scaling-stroke"  x="-540" y="-540" rx="0" ry="0" width="1080" height="1080" />
</g>
<g transform="matrix(10.29 0 0 10.29 286.71 462.54)"  >
<path style="stroke: none; stroke-width: 1; stroke-dasharray: none; stroke-linecap: butt; stroke-dashoffset: 0; stroke-linejoin: miter; stroke-miterlimit: 4; fill: rgb(0,0,0); fill-rule: nonzero; opacity: 1;" vector-effect="non-scaling-stroke"  transform=" translate(-25, -42.71)" d="M 19.793 37.5 L 30.211 37.5 L 30.211 47.918 L 19.793 47.918 z" stroke-linecap="round" />
</g>
<g transform="matrix(10.29 0 0 10.29 479.56 462.54)"  >
<path style="stroke: none; stroke-width: 1; stroke-dasharray: none; stroke-linecap: butt; stroke-dashoffset: 0; stroke-linejoin: miter; stroke-miterlimit: 4; fill: rgb(0,0,0); fill-rule: nonzero; opacity: 1;" vector-effect="non-scaling-stroke"  transform=" translate(-43.75, -42.71)" d="M 38.543 37.5 L 48.961 37.5 L 48.961 47.918 L 38.543 47.918 z" stroke-linecap="round" />
</g>
<g transform="matrix(10.29 0 0 10.29 672.41 462.54)"  >
<path style="stroke: none; stroke-width: 1; stroke-dasharray: none; stroke-linecap: butt; stroke-dashoffset: 0; stroke-linejoin: miter; stroke-miterlimit: 4; fill: rgb(0,0,0); fill-rule: nonzero; opacity: 1;" vector-effect="non-scaling-stroke"  transform=" translate(-62.5, -42.71)" d="M 57.293 37.5 L 67.711 37.5 L 67.711 47.918 L 57.293 47.918 z" stroke-linecap="round" />
</g>
<g transform="matrix(10.29 0 0 10.29 286.71 633.9)"  >
<path style="stroke: none; stroke-width: 1; stroke-dasharray: none; stroke-linecap: butt; stroke-dashoffset: 0; stroke-linejoin: miter; stroke-miterlimit: 4; fill: rgb(0,0,0); fill-rule: nonzero; opacity: 1;" vector-effect="non-scaling-stroke"  transform=" translate(-25, -59.38)" d="M 19.793 54.168 L 30.211 54.168 L 30.211 64.586 L 19.793 64.586 z" stroke-linecap="round" />
</g>
<g transform="matrix(10.29 0 0 10.29 479.56 633.9)"  >
<path style="stroke: none; stroke-width: 1; stroke-dasharray: none; stroke-linecap: butt; stroke-dashoffset: 0; stroke-linejoin: miter; stroke-miterlimit: 4; fill: rgb(0,0,0); fill-rule: nonzero; opacity: 1;" vector-effect="non-scaling-stroke"  transform=" translate(-43.75, -59.38)" d="M 38.543 54.168 L 48.961 54.168 L 48.961 64.586 L 38.543 64.586 z" stroke-linecap="round" />
</g>
<g transform="matrix(10.29 0 0 10.29 543.85 537.64)"  >
<path style="stroke: none; stroke-width: 1; stroke-dasharray: none; stroke-linecap: butt; stroke-dashoffset: 0; stroke-linejoin: miter; stroke-miterlimit: 4; fill: rgb(0,0,0); fill-rule: nonzero; opacity: 1;" vector-effect="non-scaling-stroke"  transform=" translate(-50, -50.01)" d="M 81.25 57.344 L 81.25 18.75 C 81.246094 15.3008 78.4492 12.5039 75 12.5 L 72.6211 12.5 C 71.68751 8.8242 68.375 6.25 64.582 6.25 C 60.78899999999999 6.25 57.480399999999996 8.8242 56.54679999999999 12.5 L 51.78899999999999 12.5 C 50.85149999999999 8.8242 47.54289999999999 6.25 43.74989999999999 6.25 C 39.95689999999999 6.25 36.64829999999999 8.8242 35.71079999999999 12.5 L 30.952999999999992 12.5 C 30.019409999999993 8.8242 26.710799999999992 6.25 22.917799999999993 6.25 C 19.124799999999993 6.25 15.812299999999993 8.8242 14.878699999999993 12.5 L 12.499799999999993 12.5 C 9.050599999999994 12.503906 6.253699999999993 15.3008 6.249799999999993 18.75 L 6.249799999999993 68.75 C 6.253705999999993 72.1992 9.050599999999994 74.9961 12.499799999999993 75 L 56.24979999999999 75 C 56.24589399999999 79.6055 57.93729999999999 84.0547 60.99979999999999 87.496 C 64.0662 90.9335 68.2889 93.1249 72.8668 93.64829999999999 C 77.441 94.17563999999999 82.0543 92.99596 85.8158 90.33579999999999 C 89.5775 87.6796 92.2338 83.73029999999999 93.2689 79.2418 C 94.3041 74.7496 93.65171000000001 70.0387 91.43690000000001 65.9998 C 89.2181 61.960699999999996 85.5931 58.878699999999995 81.2489 57.343599999999995 z M 64.582 10.418 C 66.06639999999999 10.421906 67.4336 11.214879999999999 68.17179999999999 12.5 L 60.99599999999999 12.5 C 61.73427999999999 11.2148 63.10149999999999 10.4219 64.58189999999999 10.418 z M 43.74999999999999 10.418 C 45.23049999999999 10.421906 46.597699999999996 11.214879999999999 47.335899999999995 12.5 L 40.163999999999994 12.5 C 40.90228 11.2148 42.269499999999994 10.4219 43.7499 10.418 z M 22.917999999999992 10.418 C 24.39849999999999 10.421906 25.765699999999992 11.214879999999999 26.50389999999999 12.5 L 19.328099999999992 12.5 C 20.06637999999999 11.2148 21.43359999999999 10.4219 22.917899999999992 10.418 z M 12.499999999999993 16.668 L 26.50399999999999 16.668 C 25.76571999999999 17.9532 24.39849999999999 18.7461 22.918099999999992 18.75 C 21.76579999999999 18.75 20.832199999999993 19.68359 20.832199999999993 20.832 C 20.832199999999993 21.9843 21.765789999999992 22.9179 22.918099999999992 22.9179 C 26.707199999999993 22.906181 30.007899999999992 20.3359 30.95329999999999 16.6679 L 47.336299999999994 16.6679 C 46.59801999999999 17.9531 45.230799999999995 18.746 43.75039999999999 18.7499 C 42.598099999999995 18.7499 41.66839999999999 19.68349 41.66839999999999 20.8319 C 41.66839999999999 21.9842 42.59808999999999 22.9178 43.75039999999999 22.9178 C 47.53949999999999 22.906081 50.844199999999994 20.3358 51.78949999999999 16.6678 L 68.17249999999999 16.6678 C 67.43421999999998 17.953 66.06699999999998 18.7459 64.58269999999999 18.7498 C 63.434299999999986 18.7498 62.50069999999999 19.68339 62.50069999999999 20.8318 C 62.50069999999999 21.9841 63.43428999999999 22.9177 64.58269999999999 22.9177 C 68.3718 22.905981 71.67649999999999 20.3357 72.6218 16.6677 L 75.0007 16.6677 C 76.14909999999999 16.6677 77.08269999999999 17.60129 77.08269999999999 18.7497 L 77.08269999999999 24.9997 L 10.418699999999987 24.9997 L 10.418699999999987 18.7497 C 10.418699999999987 17.601300000000002 11.352289999999988 16.6677 12.500699999999988 16.6677 z M 12.499999999999993 70.832 C 11.351599999999992 70.832 10.417999999999992 69.89841 10.417999999999992 68.75 L 10.417999999999992 29.164 L 77.082 29.167907000000003 L 77.082 56.37490700000001 C 72.50389999999999 55.84365700000001 67.89059999999999 57.02724700000001 64.133 59.699107000000005 C 60.37519999999999 62.367107000000004 57.738499999999995 66.335807 56.73459999999999 70.83210700000001 z M 75 89.582 C 71.1328 89.582 67.4219 88.04679999999999 64.688 85.3125 C 61.95410000000001 82.57820000000001 60.4185 78.8672 60.4185 75.0005 C 60.4185 71.13380000000001 61.953700000000005 67.4224 64.688 64.6885 C 67.4223 61.95460000000001 71.1333 60.419000000000004 75 60.419000000000004 C 78.8667 60.419000000000004 82.5781 61.95420000000001 85.312 64.6885 C 88.04589999999999 67.4228 89.58149999999999 71.13380000000001 89.58149999999999 75.0005 C 89.57759399999999 78.8677 88.04239999999999 82.5747 85.3081 85.3095 C 82.5738 88.04429999999999 78.8667 89.579 74.9991 89.5829 z" stroke-linecap="round" />
</g>
<g transform="matrix(10.29 0 0 10.29 822.27 773.14)"  >
<path style="stroke: none; stroke-width: 1; stroke-dasharray: none; stroke-linecap: butt; stroke-dashoffset: 0; stroke-linejoin: miter; stroke-miterlimit: 4; fill: rgb(0,0,0); fill-rule: nonzero; opacity: 1;" vector-effect="non-scaling-stroke"  transform=" translate(-77.08, -72.91)" d="M 77.082 74.137 L 77.082 66.6682 C 77.082 65.5159 76.15231 64.5823 75 64.5823 C 73.84769 64.5823 72.918 65.51589 72.918 66.6682 L 72.918 75.0002 C 72.918 75.55098000000001 73.13675 76.0822 73.52738000000001 76.47290000000001 L 77.69538000000001 80.64090000000002 C 78.50788000000001 81.44168000000002 79.81648000000001 81.43387000000001 80.62508000000001 80.62527500000002 C 81.43368000000001 79.81668000000002 81.44149000000002 78.50807500000002 80.64070500000001 77.69557500000002 z" stroke-linecap="round" />
</g>
</svg>
