<svg xmlns="http://www.w3.org/2000/svg" xmlns:svg="http://www.w3.org/2000/svg" viewBox="0 0 270.93332 338.66665" version="1.1" xml:space="preserve" x="0px" y="0px"><g transform="translate(-2832.6187,-1780.4094)"><path style="" d="m 2952.3753,2033.7377 c -0.3396,-0.8851 -0.146,-3.0635 0.4039,-4.5439 0.4356,-1.173 1.0018,-1.9584 2.4195,-3.3565 l 1.8507,-1.8253 -1.6919,0.1468 c -0.9306,0.081 -3.6565,0.4071 -6.0576,0.7252 -4.9952,0.6617 -6.2081,0.6043 -7.6705,-0.3635 l -1.0463,-0.6924 -1.4424,0.5396 c -0.8074,0.3022 -1.9267,1.0097 -2.5426,1.6075 -1.0112,0.9813 -2.3707,3.3462 -2.3768,4.1347 -0.01,0.6353 -0.4824,0.3239 -0.7705,-0.5025 -0.4883,-1.4008 -0.3577,-3.8879 0.2727,-5.19 0.767,-1.5845 2.8208,-3.5754 4.5167,-4.3783 1.1698,-0.5539 1.9511,-0.6922 4.7097,-0.8335 5.4018,-0.2767 5.1942,-0.2032 6.078,-2.1523 1.0315,-2.275 1.9561,-3.4174 3.2872,-4.0618 1.3248,-0.6414 2.5141,-0.6846 4.2726,-0.1554 0.7076,0.213 1.3261,0.3476 1.3746,0.2991 0.048,-0.048 1.1384,-2.5741 2.4221,-5.6127 1.2837,-3.0385 3.3821,-7.9058 4.663,-10.8162 1.315,-2.9878 2.3226,-5.6373 2.3142,-6.0855 -0.032,-1.7087 -3.1012,-7.7996 -8.3992,-16.6687 -1.4778,-2.4739 -4.6902,-8.0698 -7.1387,-12.4354 -2.4485,-4.3656 -7.1213,-12.6843 -10.384,-18.4859 -7.2685,-12.9248 -8.4544,-15.2645 -9.9462,-19.6237 -3.8248,-11.1768 -5.4705,-23.6177 -4.7055,-35.5737 0.8359,-13.0634 3.4029,-21.2977 10.0007,-32.0797 2.5631,-4.1886 2.9774,-5.4311 2.979,-8.9339 0,-3.8542 -1.1756,-6.9977 -3.5549,-9.4922 -0.8069,-0.846 -1.8631,-1.7514 -2.347,-2.012 -0.8556,-0.4607 -0.9215,-0.4582 -2.3901,0.091 -1.0554,0.395 -2.1155,0.5651 -3.5203,0.5651 h -2.0102 l 0.1926,3.6352 c 0.1925,3.6313 0.1921,3.6347 -0.3397,3.1533 -0.8411,-0.7611 -2.3774,-3.9041 -2.8143,-5.7575 -1.1829,-5.0182 0.084,-9.5425 3.7858,-13.5224 1.2994,-1.3969 1.5743,-1.8636 1.7137,-2.9093 1.154,-8.6608 11.1113,-16.5454 23.3302,-18.474 2.6542,-0.419 8.071,-0.3484 10.8479,0.1414 4.9253,0.8686 9.8649,2.9416 14.4198,6.0515 3.1029,2.1185 8.0368,7.1965 10.2917,10.5923 2.7296,4.1107 4.1125,7.0264 7.0387,14.8405 3.0098,8.0375 2.9641,7.94 5.8856,12.5324 3.9071,6.1415 5.836,10.9285 7.6298,18.9344 1.463,6.5299 1.6648,7.0938 6.2187,17.3778 5.5962,12.6378 9.9664,22.7674 10.6034,24.5773 0.536,1.5231 4.0447,13.8729 8.156,28.7073 4.7037,16.9716 7.9338,28.0666 13.0014,44.6576 l 2.6495,8.6743 4.3746,8.9205 c 10.1505,20.6983 11.4667,23.8171 11.093,26.2857 -0.5417,3.5778 -3.5975,5.3521 -6.7525,3.9207 -1.7059,-0.7739 -6.9252,-5.4997 -20.2662,-18.35 -3.6404,-3.5065 -6.8551,-6.5743 -7.1437,-6.8173 -0.2887,-0.243 -1.9096,-0.7518 -3.6021,-1.1307 -5.4735,-1.2252 -11.6653,-3.4472 -16.4513,-5.9037 -2.3348,-1.1984 -2.5163,-1.2468 -4.5485,-1.2146 -1.3967,0.022 -2.6376,0.2198 -3.6482,0.5811 -2.708,0.9682 -2.887,1.1893 -4.6987,5.8001 -3.4382,8.7505 -6.3375,16.5634 -6.3375,17.078 0,0.7545 1.989,2.5502 3.8511,3.4769 1.2799,0.637 2.0411,0.8135 4.0864,0.9474 2.8026,0.1835 3.9388,0.5732 5.3927,1.8497 1.6077,1.4116 2.1387,2.69 2.1397,5.1514 8e-4,1.5953 -0.1248,2.3447 -0.5094,3.0427 l -0.5103,0.926 -0.2767,-0.7937 c -1.0047,-2.8819 -2.8741,-4.9514 -4.7987,-5.3125 -0.8466,-0.1588 -1.0212,-0.077 -1.9246,0.9015 -0.5464,0.592 -1.3229,1.2015 -1.7255,1.3546 -0.4026,0.153 -2.045,0.2783 -3.6498,0.2783 -3.6288,0 -6.7381,-0.6096 -12.3086,-2.4133 -4.5402,-1.47 -4.173,-1.4439 -9.0808,-0.6453 -1.506,0.245 -4.2106,0.4108 -6.7469,0.4134 -3.9736,0 -4.322,0.046 -5.6777,0.6768 -1.9368,0.9015 -3.5383,2.2554 -4.9649,4.1969 -0.6497,0.8844 -1.2149,1.6428 -1.256,1.6855 -0.041,0.043 -0.1488,-0.1159 -0.2396,-0.3524 z m 41.5561,-7.6747 c 0.05,-0.1521 -0.7816,-0.5333 -1.8482,-0.8471 -4.7071,-1.3848 -6.9646,-4.4401 -6.0283,-8.1587 0.1703,-0.6759 1.6736,-4.9015 3.3408,-9.3901 1.6672,-4.4886 3.0313,-8.4451 3.0313,-8.7923 0,-0.7272 -0.8738,-1.6345 -1.3852,-1.4383 -0.3318,0.1274 -1.6117,3.4175 -5.9306,15.2453 -1.0829,2.9657 -2.2016,5.8482 -2.4859,6.4056 -0.8337,1.6342 -0.694,2.6651 0.5083,3.7514 1.5097,1.3638 3.3216,2.3449 5.5747,3.0185 2.0752,0.6204 5.0478,0.7375 5.2231,0.2057 z m -25.3169,-5.4239 c -2.1971,-1.7389 -2.6304,-2.1959 -3.169,-3.3418 -0.7704,-1.6388 -0.6217,-3.2534 0.5315,-5.7744 2.5022,-5.47 4.6498,-10.343 5.5701,-12.6391 0.9713,-2.4233 1.3031,-4.2303 0.8303,-4.5225 -0.2819,-0.1742 -1.1854,0.5921 -1.8289,1.5512 -1.0214,1.5224 -8.4126,18.8498 -8.7046,20.4066 -0.1964,1.0468 0.3481,2.1291 1.6433,3.2663 1.3701,1.203 2.3591,1.5739 4.2013,1.5757 h 1.5875 l -0.6615,-0.5236 z m 9.2221,-2.4124 c 0.45,-0.4603 1.0165,-1.4426 1.2589,-2.1828 0.3375,-1.0306 5.6799,-15.9163 7.2914,-20.316 0.8674,-2.3681 -3.2921,-4.2752 -6.1307,-2.8108 l -1.1906,0.6142 -4.4199,9.9218 c -2.4309,5.4571 -4.5416,10.3339 -4.6904,10.8374 -0.21,0.7107 -0.184,1.0474 0.1162,1.5056 0.4523,0.6903 5.4536,3.2675 6.3408,3.2675 0.3334,0 0.9743,-0.3766 1.4243,-0.8369 z m -24.7092,-0.4028 c 0.5143,-0.2452 0.935,-0.5429 0.935,-0.6614 0,-0.1186 -0.01,-0.3049 -0.012,-0.414 -0.02,-0.3332 -1.4135,-0.044 -1.906,0.3962 -0.4988,0.4454 -0.6241,1.1251 -0.2074,1.1251 0.1406,0 0.6764,-0.2006 1.1906,-0.4459 z m 99.022,-3.1844 c -2.5969,-3.1706 -8.8038,-10.0688 -15.7655,-17.5215 -10.9372,-11.7085 -12.698,-13.7021 -22.0967,-25.018 -6.121,-7.3697 -9.6553,-10.8385 -11.3313,-11.1217 -2.1477,-0.3628 -6.7415,-4.0848 -10.8691,-8.8062 -1.359,-1.5544 -4.1161,-4.9098 -6.127,-7.4565 -4.0947,-5.1854 -4.3807,-5.5202 -4.3807,-5.1265 0,0.456 4.6261,7.3653 7.1391,10.6623 4.6865,6.1489 8.4689,9.6444 13.9113,12.8566 l 3.0204,1.7826 2.8238,3.737 c 13.7178,18.1539 30.9422,36.8429 42.3689,45.9715 1.4095,1.126 2.6107,1.9993 2.6693,1.9407 0.059,-0.059 -0.5545,-0.9137 -1.3625,-1.9003 z m -32.4793,-19.8049 c -1.9625,-2.0013 -5.6047,-4.9282 -9.1395,-7.3446 -3.0134,-2.0599 -8.9166,-5.3164 -9.3527,-5.1595 -0.1348,0.049 0.4058,0.9479 1.2014,1.9987 1.297,1.7131 1.9644,2.2564 6.4634,5.2617 4.2647,2.8488 11.1626,6.7029 12.018,6.7149 0.1405,0 -0.3952,-0.6601 -1.1906,-1.4712 z m 23.0173,-6.3571 c 1.2046,-0.482 2.1308,-1.7554 2.1201,-2.915 l -0.01,-0.7625 -0.4456,0.7186 c -1.2708,2.0492 -4.7985,1.5283 -8.4746,-1.2513 -1.9491,-1.4739 -6.9086,-6.4656 -10.9382,-11.0093 -3.68,-4.1495 -4.3597,-4.779 -5.4613,-5.0585 -0.7588,-0.1925 -0.7486,-0.107 0.1285,1.0739 6.8465,9.2177 14.4209,16.9632 18.4585,18.8754 1.7983,0.8517 3.084,0.9432 4.6197,0.3287 z m -29.0084,-2.0272 c -0.2652,-0.3292 -3.3551,-4.169 -6.8664,-8.5328 -3.5114,-4.3638 -8.7892,-10.9107 -11.7286,-14.5487 -19.522,-24.1619 -24.4055,-30.4766 -28.0324,-36.2479 -2.6335,-4.1907 -7.8627,-14.6775 -10.0734,-20.2016 -3.3028,-8.2532 -6.1498,-17.6593 -6.902,-22.8038 -0.4838,-3.3084 -0.1968,-9.7231 0.5381,-12.028 1.8949,-5.9429 6.0597,-10.5855 11.9888,-13.364 3.5591,-1.6679 6.2381,-2.2181 10.7739,-2.2128 4.4455,0.01 7.2273,0.53 11.1875,2.1109 5.2606,2.0999 10.8967,5.9704 14.978,10.2858 0.7752,0.8196 1.445,1.4538 1.4884,1.4091 0.043,-0.045 -0.3348,-1.4503 -0.8406,-3.1238 -1.0017,-3.3143 -2.487,-6.6363 -4.4226,-9.8915 -0.6823,-1.1475 -1.2006,-2.1263 -1.1519,-2.1751 0.1741,-0.1741 2.5822,1.9791 3.7715,3.3724 1.4121,1.6542 3.1666,4.5861 4.3751,7.3112 0.4693,1.0583 0.8909,1.8866 0.9368,1.8407 0.1732,-0.1731 -0.7283,-3.5088 -1.8794,-6.9542 -2.1786,-6.5207 -4.6645,-11.0198 -7.6387,-13.8246 -1.3694,-1.2914 -2.0346,-1.6717 -5.4576,-3.1201 -0.7336,-0.3104 -2.2559,-1.5193 -3.9691,-3.1518 -2.9428,-2.8043 -5.1402,-4.2567 -9.5778,-6.3304 -2.1638,-1.0111 -3.3877,-1.923 -3.3869,-2.5235 1e-4,-0.077 2.5897,-0.1241 5.7547,-0.1053 4.4479,0.026 6.0521,0.1295 7.0651,0.4534 0.7208,0.2304 1.344,0.3855 1.3849,0.3446 0.041,-0.041 -0.5224,-0.744 -1.2519,-1.5624 -2.3731,-2.6626 -6.0574,-4.6868 -9.2581,-5.0867 -2.349,-0.2935 -4.467,0.2581 -9.1031,2.3709 -6.8906,3.1404 -8.2791,3.3988 -13.5095,2.5142 -1.9053,-0.3223 -5.4459,-0.6655 -7.9375,-0.7696 -3.7304,-0.1558 -4.7366,-0.2862 -5.8968,-0.7646 -2.2909,-0.9446 -4.0543,-0.701 -4.5603,0.63 -0.3423,0.9001 0.102,1.9683 0.8187,1.9683 0.3086,0 1.2226,-0.1923 2.0311,-0.4274 1.0332,-0.3003 2.1521,-0.3947 3.7662,-0.3175 2.9661,0.1418 4.5037,0.8749 7.4595,3.5564 2.6585,2.4117 3.3834,2.805 6.5321,3.5442 3.2144,0.7547 4.3222,1.5832 5.6656,4.2374 0.9032,1.7843 1.3938,3.5301 1.9118,6.8032 0.2394,1.5123 -0.2741,1.497 -2.0995,-0.062 -1.5973,-1.3646 -3.1885,-2.1307 -4.9668,-2.3912 -1.4044,-0.2058 -1.2181,-0.4932 -1.8058,2.7844 -0.7459,4.1596 -2.5771,8.5807 -5.1509,12.4355 -1.4638,2.1925 -4.6309,5.757 -4.6309,5.2121 0,-0.1066 0.8864,-1.7188 1.9699,-3.5826 1.0835,-1.8639 2.3904,-4.3115 2.9042,-5.4391 0.8907,-1.9545 2.5342,-6.7148 2.5342,-7.3401 0,-0.1625 -0.751,0.9402 -1.669,2.4505 -0.9179,1.5103 -2.3074,3.639 -3.0877,4.7304 -2.194,3.0687 -4.2897,5.8208 -4.4324,5.8208 -0.071,0 -0.081,-0.4131 -0.022,-0.9181 0.1,-0.8538 0.075,-0.8893 -0.3476,-0.5065 -0.2502,0.2264 -0.7778,0.8777 -1.1726,1.4473 -0.3948,0.5696 -0.8206,1.0357 -0.9463,1.0357 -0.5159,0 -0.2243,-3.4957 0.456,-5.4666 0.3766,-1.091 0.6244,-2.0438 0.5507,-2.1175 -0.2262,-0.2263 -2.5082,2.8549 -3.4614,4.6737 -1.2201,2.328 -2.6913,6.6507 -3.3186,9.7505 -0.524,2.5898 -1.2371,9.4851 -1.0048,9.7173 0.07,0.07 0.6959,-0.8871 1.3915,-2.1264 1.2989,-2.3145 4.1306,-5.7391 4.3072,-5.2092 0.055,0.1633 -0.5045,2.0545 -1.242,4.2027 -1.6946,4.9351 -2.3164,7.7478 -2.706,12.2401 -0.2645,3.0506 -0.2447,4.142 0.1361,7.4789 0.8008,7.018 2.5828,12.5608 6.4845,20.17 1.9759,3.8534 7.1103,12.1905 7.3561,11.9447 0.067,-0.067 -0.3104,-1.7513 -0.8388,-3.7427 -0.5284,-1.9914 -0.9242,-3.9966 -0.8796,-4.4561 0.071,-0.7351 0.1715,-0.5899 0.833,1.2082 0.5719,1.5543 4.3914,8.4795 5.0277,9.1158 0.1189,0.1189 1.5936,-5.3773 2.2752,-8.4792 l 0.4726,-2.1511 0.2058,1.3081 c 0.3772,2.3976 -0.4892,15.9361 -1.0562,16.503 -0.158,0.1581 -1.8025,-1.0597 -3.2932,-2.4389 -1.0658,-0.986 -1.1287,-1.0125 -0.6907,-0.2909 1.1055,1.8211 9.747,12.1995 9.8644,11.8471 0.049,-0.1469 0.1737,-1.6148 0.2772,-3.2621 l 0.1882,-2.9951 1.7198,2.8548 c 0.9459,1.5701 2.357,3.5592 3.1359,4.4202 1.3486,1.4909 4.4658,4.0973 4.6618,3.8979 0.051,-0.052 -0.1243,-1.5824 -0.3894,-3.4014 -0.265,-1.819 -0.4594,-3.3305 -0.4319,-3.3588 0.027,-0.028 1.1599,1.4821 2.5166,3.3566 1.3566,1.8744 2.7103,3.624 3.0081,3.8879 l 0.5415,0.4799 -0.1743,-3.5438 c -0.096,-1.9491 -0.2359,-4.0327 -0.3113,-4.6302 -0.1243,-0.9851 -0.066,-0.9138 0.6266,0.7657 2.2133,5.3672 4.1845,8.8 7.2208,12.5748 1.1674,1.4513 2.1587,2.6387 2.2029,2.6387 0.044,0 0.022,-1.1013 -0.048,-2.4474 l -0.1289,-2.4474 1.6565,1.5875 c 1.7194,1.6478 2.8962,2.8934 3.7047,3.9212 0.3932,0.4999 0.4326,0.8171 0.2371,1.911 -0.1288,0.7214 -0.3021,1.6986 -0.3849,2.1715 l -0.1506,0.8599 h -1.7132 -1.7132 l 0.5235,1.0261 c 0.2879,0.5644 1.0643,1.5021 1.7252,2.0839 1.1474,1.01 4.8298,3.1396 5.0493,2.9201 0.057,-0.057 -0.019,-1.5572 -0.171,-3.3327 -0.1516,-1.7754 -0.2371,-3.4159 -0.1902,-3.6455 0.094,-0.459 1.4403,1.2638 4.8698,6.2314 3.4041,4.931 8.7014,10.1281 13.0628,12.8159 2.1987,1.3549 2.6624,1.5016 1.9496,0.6167 z m -42.6611,-42.676 c -0.4677,-0.5326 -0.7916,-1.1216 -0.7197,-1.3089 0.072,-0.1873 0.2771,-0.8292 0.456,-1.4264 0.1789,-0.5972 0.4132,-1.0859 0.5206,-1.0859 0.4687,0 1.8642,1.9293 1.6955,2.344 -0.097,0.2388 -0.2997,0.7914 -0.4502,1.2279 -0.4317,1.2522 -0.5975,1.2797 -1.5022,0.2493 z m -7.3637,-1.5894 c -1.0546,-0.8001 -2.1033,-1.7382 -2.3304,-2.0847 -0.4912,-0.7496 -2.3644,-6.7058 -2.8754,-9.1429 -0.5651,-2.6952 -0.7339,-4.6335 -0.5232,-6.009 l 0.1941,-1.267 0.3499,2.047 c 0.6727,3.9363 2.3381,7.6653 4.2515,9.5198 l 0.8667,0.8401 0.034,-0.7795 c 0.019,-0.4287 0.1078,-2.0892 0.1984,-3.6899 l 0.1648,-2.9104 1.4463,3.4395 c 1.6879,4.0143 1.7727,5.0286 0.7568,9.0531 l -0.6156,2.4385 z m -13.5845,-19.7304 c -3.0923,-3.5557 -3.1208,-4.0617 -0.1818,-3.2359 0.4135,0.1162 0.4625,-0.222 0.5292,-3.6578 l 0.073,-3.7858 0.6329,1.5875 c 0.5298,1.3289 0.6529,2.1909 0.7557,5.2917 0.068,2.0373 0.017,4.1046 -0.1112,4.5941 l -0.234,0.8899 z m -9.2975,-12.872 c -2.2489,-2.311 -2.1465,-1.9931 -2.4481,-7.5971 l -0.1424,-2.6458 1.3581,2.639 1.3582,2.639 1.1208,-3.1682 c 0.6164,-1.7425 1.3841,-3.7634 1.7059,-4.491 0.6737,-1.5231 3.2128,-6.0241 3.3298,-5.9024 0.1001,0.1041 -4.0131,20.3188 -4.1654,20.4711 -0.062,0.063 -1.0152,-0.8125 -2.1169,-1.9446 z m 9.2206,-2.0232 c -0.7979,-1.0461 -0.8539,-1.6335 -0.2855,-2.9939 l 0.4073,-0.9749 0.6602,0.785 c 1.019,1.2116 1.1389,1.7108 0.712,2.9639 -0.2115,0.6206 -0.4783,1.1283 -0.5928,1.1283 -0.1146,0 -0.5201,-0.4087 -0.9012,-0.9084 z m -12.4529,-14.9441 c -0.4182,-0.6766 -0.4339,-3.4537 -0.029,-5.1818 0.4931,-2.1062 1.9091,-5.1132 3.0525,-6.4823 l 0.7734,-0.9261 -0.6632,1.8384 c -0.7496,2.0778 -1.2829,4.4968 -1.549,7.0252 -0.1619,1.5377 -0.9602,3.9687 -1.3033,3.9687 -0.072,0 -0.1989,-0.1089 -0.2812,-0.2421 z m 6.3644,-6.5264 c -0.088,-0.2302 -0.1606,-0.977 -0.1606,-1.6597 0,-1.2492 0.9909,-3.3154 2.4942,-5.2007 l 0.5882,-0.7377 -0.3616,2.3547 c -0.1989,1.295 -0.4209,2.7381 -0.4934,3.2067 -0.1269,0.8202 -1.2546,2.4552 -1.6934,2.4552 -0.1171,0 -0.2851,-0.1883 -0.3734,-0.4185 z m -2.956,-9.2527 c 0.2489,-1.7077 0.4674,-2.0169 3.4848,-4.9318 1.4021,-1.3544 3.3285,-3.5044 4.2809,-4.7777 0.9524,-1.2733 1.7588,-2.3151 1.7921,-2.3151 0.033,0 -0.052,0.506 -0.1897,1.1245 -0.3449,1.5502 -1.3733,3.7335 -2.3787,5.0498 -1.0824,1.4171 -4.8176,5.2632 -6.1501,6.3326 l -1.0301,0.8267 z m -3.8192,-5.14 c 0,-1.2701 0.033,-1.3255 1.2026,-2.0108 0.6614,-0.3876 1.2685,-0.6388 1.3492,-0.5582 0.2676,0.2676 -0.2096,2.2895 -0.6567,2.7826 -0.2419,0.2668 -0.7673,0.6218 -1.1675,0.7888 l -0.7276,0.3037 z m 54.715,-13.6097 c -1.2405,-0.9356 -2.3204,-1.8705 -2.3998,-2.0775 -0.079,-0.207 -0.066,-0.9937 0.03,-1.7482 l 0.1745,-1.3718 1.3964,0.6969 c 0.8039,0.4013 1.5458,0.9941 1.7486,1.3973 0.4508,0.8963 1.5511,4.559 1.4115,4.6986 -0.058,0.058 -1.1208,-0.6596 -2.3613,-1.5953 z m -23.9996,-5.7165 c -1.4254,-1.1267 -1.5221,-1.4112 -1.181,-3.4739 l 0.1599,-0.9666 1.2202,0.7169 c 1.432,0.8414 2.0923,1.8503 2.3258,3.5543 0.1631,1.1899 0.1452,1.2338 -0.5045,1.2338 -0.3871,0 -1.2466,-0.4529 -2.0204,-1.0645 z m 12.0148,-0.5603 c -5.4363,-0.6895 -6.6559,-2.2795 -6.5164,-8.4955 0.046,-2.0486 0.477,-1.9496 1.5806,0.3628 1.2529,2.6252 3.4879,4.9291 6.1001,6.2881 1.3026,0.6777 2.1317,1.2809 2.2189,1.6142 0.1596,0.6105 -0.196,0.6347 -3.3832,0.2304 z m 10.3188,-1.4545 c -4.8952,-1.9605 -6.0519,-2.4605 -6.9347,-2.9977 -0.8933,-0.5436 -1.7381,-1.9375 -2.0499,-3.3819 -0.1842,-0.8531 -0.1777,-0.8598 0.8276,-0.856 1.4558,0.01 2.2335,0.5027 2.6417,1.6881 0.5185,1.5064 0.7312,1.6665 2.6588,2.0022 0.9628,0.1677 2.0733,0.4717 2.4676,0.6756 1.103,0.5704 4.2078,4.1701 3.507,4.0661 -0.1142,-0.017 -1.5174,-0.5554 -3.1181,-1.1964 z m -24.2756,-7.9579 -2.3151,-1.706 v -1.5659 c 0,-0.9961 0.1098,-1.5659 0.3018,-1.5659 0.5976,0 2.6175,1.1647 2.9804,1.7185 0.4242,0.6474 1.5548,4.2937 1.4305,4.6133 -0.045,0.1166 -1.1242,-0.5557 -2.3976,-1.494 z m 7.4639,-3.8642 c -2.698,-1.3359 -5.2578,-2.7031 -5.6885,-3.0383 -0.8289,-0.6451 -2.304,-2.4558 -2.1369,-2.6229 0.1538,-0.1538 4.5594,1.7113 6.893,2.9182 1.9828,1.0253 5.145,3.6325 5.7287,4.7231 0.143,0.2672 0.2261,0.4775 0.1846,0.4673 -0.041,-0.01 -2.2829,-1.1116 -4.9809,-2.4474 z m -18.1926,-2.8388 c -0.3347,-0.1343 -1.1586,-0.6226 -1.831,-1.0852 -1.1995,-0.8253 -1.2104,-0.8456 -0.5821,-1.0829 1.646,-0.6216 6.5934,1.0459 6.5934,2.2222 0,0.299 -3.4103,0.2549 -4.1803,-0.054 z m 15.5574,-6.3893 c -0.6522,-0.2796 -0.6463,-0.2882 0.422,-0.6161 1.2157,-0.3731 5.1054,-0.1721 5.2065,0.269 0.1356,0.5917 -4.4045,0.8716 -5.6285,0.3471 z m 23.4929,150.9458 -0.077,-2.0357 -1.2475,-0.6411 c -1.7128,-0.8802 -2.5889,-0.6656 -2.5889,0.634 0,1.1143 0.3756,1.8902 1.2675,2.6183 0.7639,0.6237 2.2017,1.4603 2.5098,1.4603 0.1175,0 0.1789,-0.9161 0.1364,-2.0358 z m -20.8471,-0.1952 c 0,-1.8684 -0.038,-1.9936 -0.7684,-2.5135 -0.9451,-0.673 -3.1317,-0.7692 -3.37,-0.1483 -0.5819,1.5163 1.6436,4.6282 3.3099,4.6282 h 0.8285 z m 13.2232,-2.2968 c -0.9984,-4.8995 -3.4432,-11.472 -6.5339,-17.5649 l -1.0737,-2.1167 -0.7462,1.5214 c -0.7055,1.4381 -0.7991,1.5213 -1.7126,1.5213 -0.999,0 -2.615,-0.8821 -3.493,-1.9066 -0.4359,-0.5087 -0.5017,-0.5167 -0.9468,-0.1138 -0.5012,0.4535 -1.1013,0.5313 -2.0783,0.2693 -0.4088,-0.1096 -0.7116,-0.5425 -1.0119,-1.4469 -0.3431,-1.0329 -0.8606,-1.6867 -2.5918,-3.2743 -2.3261,-2.1332 -2.2065,-2.117 -3.143,-0.4267 -0.3663,0.6613 -0.6196,0.8136 -1.3534,0.8136 -1.2895,0 -2.2352,-0.8705 -3.1367,-2.8874 -0.6862,-1.535 -2.3843,-3.7272 -2.8872,-3.7272 -0.099,0 -0.247,0.2561 -0.3288,0.569 -0.1455,0.5564 -0.1647,0.5586 -0.8679,0.098 -1.4596,-0.9563 -2.5103,-1.5231 -2.62,-1.4133 -0.062,0.062 0.9131,1.6543 2.1671,3.5385 2.1585,3.2432 4.5786,5.931 7.2946,8.1012 1.0711,0.8558 1.0901,0.8434 1.3807,-0.9052 0.091,-0.5457 0.2956,-0.9922 0.4554,-0.9922 0.4043,0 3.9188,3.6675 3.9188,4.0895 0,0.1892 -0.2862,1.1027 -0.636,2.0299 l -0.636,1.6858 h -2.01 c -1.1056,0 -2.01,0.098 -2.0099,0.217 6e-4,0.4593 1.6322,2.5582 2.7086,3.484 1.055,0.9074 3.6717,2.5093 4.8036,2.9406 0.455,0.1734 0.4838,0.097 0.3174,-0.8442 -0.1006,-0.5692 -0.5468,-2.5602 -0.9914,-4.4244 -0.4446,-1.8643 -0.7505,-3.4476 -0.6796,-3.5184 0.1488,-0.1489 3.6804,3.6834 5.0467,5.4765 0.5089,0.6679 2.4288,3.7337 4.2664,6.813 1.8376,3.0793 3.3968,5.5987 3.4649,5.5987 0.4086,0 -1.2416,-4.957 -3.127,-9.3928 -0.8659,-2.0372 -2.3335,-5.5496 -3.2614,-7.8052 l -1.687,-4.101 1.7314,1.8357 c 0.9524,1.0096 2.5317,3.0337 3.5096,4.4979 1.6529,2.4746 2.8119,4.451 7.2096,12.2935 0.9304,1.6592 1.7269,2.8364 1.7701,2.616 0.043,-0.2204 -0.1734,-1.6374 -0.4814,-3.149 z m 51.873,-3.8111 c 0.7999,-0.4136 1.3716,-1.2938 1.6829,-2.5908 l 0.1784,-0.7433 -0.9964,0.6771 c -0.6378,0.4334 -1.359,0.6771 -2.0039,0.6771 -1.9427,0 -3.4171,-1.1219 -7.9978,-6.0859 -0.8731,-0.9462 -2.3208,-2.2353 -3.217,-2.8647 -2.4628,-1.7295 -5.4216,-5.3929 -11.4693,-14.2004 -3.7951,-5.5271 -5.5566,-7.8912 -5.7417,-7.706 -0.2224,0.2224 4.5615,8.2301 8.0022,13.3945 4.656,6.9886 7.8448,10.8348 10.241,12.3521 0.647,0.4096 1.911,1.6035 2.8088,2.653 3.5425,4.1409 6.3032,5.5799 8.5128,4.4373 z m -14.3229,-7.2728 c -0.8098,-0.9604 -1.4133,-1.4041 -2.1971,-1.6151 -1.9124,-0.5149 -3.1528,-1.3214 -5.4041,-3.5136 -2.891,-2.815 -5.1413,-5.7855 -10.6327,-14.0359 -2.4936,-3.7462 -4.598,-6.7471 -4.6765,-6.6685 -0.1983,0.1982 2.6506,5.5191 5.1943,9.7014 5.061,8.3212 10.4967,14.835 13.809,16.5479 0.9232,0.4774 2.5676,0.8373 4.0157,0.879 l 1.008,0.029 z m -7.8653,-0.1972 c -1.1006,-1.5408 -1.8594,-2.1342 -3.2455,-2.5377 -3.3513,-0.9755 -7.3559,-5.4714 -16.3117,-18.3126 -5.892,-8.4483 -6.5775,-8.8678 -1.9946,-1.2208 4.7666,7.9537 8.7311,13.4274 12.68,17.5071 2.7109,2.8008 4.499,4.014 7.0049,4.753 2.3453,0.6917 2.4858,0.6775 1.8669,-0.189 z m 17.1855,-6.7968 c 1.1297,-0.7677 1.8194,-2.0939 1.818,-3.4958 v -1.0183 l -0.4984,0.8172 c -0.8525,1.3982 -1.7961,1.9609 -3.2882,1.9609 -2.8188,0 -4.7907,-1.6836 -10.8465,-9.2604 -2.0353,-2.5466 -3.8231,-4.677 -3.9728,-4.7342 -0.344,-0.1314 0.6877,1.6481 3.2047,5.5279 3.7395,5.7642 6.8656,9.3028 9.1242,10.3281 1.589,0.7213 3.284,0.6736 4.46,-0.1254 z m -81.7063,-16.9164 c 0.2548,-0.6641 -1.0126,-2.8775 -5.5488,-9.6904 -2.4707,-3.7108 -4.9435,-7.498 -5.4949,-8.4161 -0.5515,-0.918 -1.0488,-1.6231 -1.105,-1.5668 -0.2424,0.2424 3.1504,9.2269 4.7987,12.7078 0.7893,1.6666 3.7461,5.0199 5.6795,6.441 1.3482,0.9909 1.4761,1.0311 1.6705,0.5245 z m 68.1133,-3.7539 c 0.5518,-0.5785 0.8579,-1.1638 0.8541,-1.6332 -0.01,-0.9332 -0.817,-2.7052 -1.5225,-3.3324 -0.5376,-0.478 -0.552,-0.4679 -1.0967,0.7636 l -0.552,1.2479 -2.4987,-0.1307 -2.4987,-0.1307 0.4962,0.9726 c 0.5937,1.1639 2.4,2.8567 3.2398,3.0362 0.3311,0.071 0.8401,0.1777 1.1311,0.2376 0.8963,0.1844 1.5519,-0.092 2.4474,-1.0309 z m -10.169,-2.2654 c 0.9953,-0.5127 1.7688,-1.3601 1.7625,-1.9313 0,-0.3021 -0.4042,-1.1888 -0.8909,-1.9706 l -0.885,-1.4214 -0.6002,1.068 c -0.686,1.2206 -1.592,1.5286 -3.6077,1.2263 l -1.2023,-0.1803 0.3974,0.7613 c 1.0981,2.1033 3.461,3.2541 5.0262,2.448 z m -9.5995,-1.0302 c 0.2769,-0.1482 0.8212,-0.8116 1.2096,-1.4743 l 0.7061,-1.2048 -0.8978,-1.7635 c -1.1085,-2.1774 -1.8207,-2.4865 -1.8207,-0.7901 0,0.6366 -0.1931,1.4268 -0.432,1.7679 -0.4135,0.5904 -0.548,0.6124 -3.15,0.5161 l -2.718,-0.1006 0.5226,0.734 c 0.6099,0.8565 1.9428,1.9184 2.8749,2.2904 0.8696,0.3471 3.0757,0.3619 3.7053,0.025 z m -10.0579,-0.9239 c 1.0282,-0.5317 1.3176,-1.1451 1.3176,-2.7929 0,-1.3281 -0.7681,-3.1575 -1.3257,-3.1575 -0.1234,0 -0.4132,0.6498 -0.644,1.444 -0.3862,1.3285 -0.4939,1.4579 -1.3464,1.6179 -0.5096,0.096 -1.7082,0.09 -2.6635,-0.012 -1.6331,-0.1749 -1.7212,-0.1569 -1.4733,0.3004 0.7122,1.3141 3.3586,2.9808 4.7541,2.9941 0.3346,0 0.9561,-0.174 1.3812,-0.3938 z m -8.2074,-3.5322 c 0,-0.2707 0.065,-1.0148 0.1437,-1.6536 0.1938,-1.5665 -0.1549,-2.0763 -0.9062,-1.325 -0.4559,0.4559 -0.8813,0.5604 -2.2802,0.5604 -1.9365,0 -2.1057,0.2224 -1.1307,1.4857 0.9406,1.2187 1.3115,1.4074 2.7843,1.4163 1.181,0.01 1.3891,-0.065 1.3891,-0.4838 z m 36.7244,-3.8804 c 0.6867,-1.4136 0.7188,-2.0416 0.1839,-3.5977 -0.3934,-1.1443 -1.9371,-2.7943 -2.2577,-2.4131 -0.091,0.1084 -0.3095,0.703 -0.4854,1.3215 l -0.3198,1.1245 h -2.1347 -2.1347 l 0.1713,0.6828 c 0.5607,2.2338 2.8427,4.073 5.0588,4.0772 1.3237,0 1.3419,-0.01 1.9183,-1.1952 z m -10.6404,-1.5797 c 0.9502,-0.7248 1.5613,-2.1779 1.3059,-3.1055 -0.3303,-1.1992 -1.2826,-3.0895 -1.6222,-3.2198 -0.2324,-0.089 -0.5434,0.4021 -0.9356,1.4776 l -0.5875,1.6113 -2.7396,-0.1771 -2.7395,-0.1771 0.5159,1.0012 c 1.0717,2.0795 3.4764,3.6475 5.1705,3.3714 0.4244,-0.069 1.1588,-0.4211 1.6321,-0.782 z m -10.5905,-0.4274 c 0.6802,-1.3153 0.7877,-3.4182 0.2471,-4.8338 -0.2567,-0.672 -0.5515,-1.2219 -0.6551,-1.2219 -0.1037,0 -0.4016,0.4728 -0.6622,1.0505 -0.7978,1.7692 -1.0942,1.91 -3.8167,1.8132 -2.9254,-0.104 -3.0171,0.085 -0.9927,2.0458 1.4519,1.4062 2.5637,1.8895 4.4684,1.9424 0.8477,0.024 1.0448,-0.088 1.4112,-0.7962 z m -10.5402,-1.6332 c 0.3232,-0.2923 0.7167,-0.9226 0.8744,-1.4006 0.2397,-0.7264 0.1981,-1.0431 -0.2533,-1.928 -0.5446,-1.0674 -1.5233,-1.9698 -1.8903,-1.7429 -0.1092,0.067 -0.2818,0.628 -0.3837,1.2457 -0.2756,1.6708 -0.4544,1.7846 -2.8036,1.7846 -1.1464,0 -2.0843,0.1085 -2.0843,0.2411 0,0.3363 1.5509,1.6065 2.3663,1.938 0.9849,0.4004 2.4488,0.6448 3.0577,0.5104 0.291,-0.064 0.7936,-0.3559 1.1168,-0.6483 z m -9.1866,-2.0412 c 0,-1.1642 -0.068,-2.1167 -0.1512,-2.1167 -0.083,0 -0.3298,0.1786 -0.5481,0.3969 -0.2705,0.2705 -0.9386,0.3969 -2.0978,0.3969 -0.9355,0 -1.7009,0.1014 -1.7009,0.2254 0,0.6238 1.3307,2.0921 2.3733,2.6188 1.9994,1.0101 2.1247,0.9203 2.1247,-1.5213 z m 33.2424,-4.9609 c 0.3483,-2.9383 0.1422,-6.4173 -0.38,-6.4156 -0.1025,3e-4 -0.5284,0.6552 -0.9464,1.4552 l -0.7601,1.4546 h -2.5142 -2.5141 l 0.17,0.8504 c 0.4718,2.359 3.1293,4.3057 6.0266,4.4147 0.6788,0.025 0.7149,-0.044 0.9182,-1.7593 z m 7.2495,-2.1167 -0.4293,-2.8443 -2.5027,0.096 c -1.3764,0.053 -2.5469,0.1367 -2.6009,0.1865 -0.1981,0.1824 1.2692,2.3872 2.1263,3.195 0.7471,0.7041 3.1831,2.1588 3.6821,2.1987 0.085,0.01 -0.039,-1.2676 -0.2755,-2.8319 z m -16.0173,0.3969 c 0.7053,-2.3431 0.8024,-4.5091 0.2669,-5.9483 -0.2582,-0.6939 -0.5642,-1.3661 -0.6801,-1.4938 -0.1158,-0.1277 -0.5921,0.5502 -1.0583,1.5064 -0.4662,0.9562 -1.0028,1.7981 -1.1923,1.8708 -0.1896,0.073 -0.8585,-0.2154 -1.4866,-0.6403 -1.0441,-0.7063 -1.1703,-0.7347 -1.4727,-0.3313 -0.7453,0.9944 -0.2368,2.774 1.167,4.0837 0.9397,0.8767 3.2565,2.3418 3.7032,2.3418 0.1842,0 0.523,-0.6251 0.7529,-1.389 z m -15.7333,0 c 0.6596,-0.3326 1.4529,-1.0179 1.7977,-1.5528 l 0.6172,-0.9575 1.2019,1.2849 c 1.1864,1.2684 2.33,1.816 3.7992,1.8192 0.6258,0 0.7145,-0.1494 1.1279,-1.9168 0.2467,-1.055 0.4471,-2.3471 0.4452,-2.8712 0,-0.9151 -0.8888,-2.6123 -1.4586,-2.7954 -0.1455,-0.047 -0.4431,0.4799 -0.6614,1.1703 l -0.3969,1.2552 -1.7457,0.077 -1.7457,0.077 -1.1072,-1.4663 c -0.6089,-0.8066 -1.2004,-1.4664 -1.3145,-1.4664 -0.1141,0 -0.6076,0.7725 -1.0967,1.7166 -1.05,2.0268 -1.2113,2.0863 -5.2723,1.9469 -1.4671,-0.05 -2.6643,-0.032 -2.6606,0.041 0,0.073 0.4196,0.6949 0.9241,1.3825 1.9188,2.6152 5.0044,3.5374 7.5464,2.2556 z m -52.1617,-6.6146 c -0.016,-2.8013 -0.1107,-5.8076 -0.2108,-6.6807 l -0.182,-1.5875 -0.3082,1.0583 c -0.5824,1.9998 -0.9216,5.0299 -0.7862,7.0242 0.1456,2.1434 0.9095,5.2789 1.2862,5.2789 0.1263,0 0.2168,-2.2919 0.201,-5.0932 z m 41.1641,4.2333 c 0.5622,-0.4896 0.7119,-0.9058 0.8433,-2.3441 0.1924,-2.1081 -0.1565,-2.5115 -1.0254,-1.1854 -0.7152,1.0916 -1.1976,1.2559 -3.0517,1.0392 -0.764,-0.089 -1.3891,-0.079 -1.3891,0.024 0,0.3963 0.6279,1.3791 1.4066,2.2018 0.9975,1.054 2.1965,1.1526 3.2163,0.2646 z m -6.6418,-1.3229 c 0.088,-0.3274 0.1612,-1.0177 0.1632,-1.5339 v -0.9386 l -1.7859,0.1094 c -0.9823,0.06 -1.8267,0.1462 -1.8764,0.1912 -0.05,0.045 0.069,0.5254 0.2646,1.0676 0.5522,1.5334 2.9008,2.3361 3.2309,1.1043 z m 36.1772,-5.5659 c 2.1341,-1.4361 1.8375,-4.2161 -0.6268,-5.8757 -0.738,-0.497 -1.4392,-0.8434 -1.5582,-0.7699 -0.119,0.074 -0.405,0.7825 -0.6355,1.5755 l -0.4191,1.4417 h -1.95 c -1.0725,0 -2.0095,0.096 -2.0824,0.2142 -0.2478,0.401 1.8161,2.4302 3.2762,3.2212 1.7516,0.949 2.7973,0.9995 3.9958,0.193 z m 10.5007,-2.0773 0.077,-2.0209 -1.1351,-0.9738 -1.1351,-0.9739 -0.473,1.0765 -0.473,1.0764 h -1.8681 -1.8681 l 0.5347,0.8599 c 1.0718,1.7238 3.8192,3.1697 5.735,3.0184 0.4719,-0.037 0.5375,-0.2604 0.6059,-2.0626 z m -31.8931,0.8351 c 1.5283,-1.2022 1.8659,-3.8908 0.7241,-5.7682 -0.75,-1.2333 -1.2189,-1.093 -1.4203,0.4251 -0.2832,2.1349 -0.4426,2.2301 -3.5529,2.1234 -1.4831,-0.051 -2.6964,0 -2.6962,0.12 5e-4,0.5249 1.4105,2.2076 2.4148,2.8821 1.3956,0.9372 3.4879,1.0378 4.5305,0.2176 z m -18.0092,-0.9667 c 0.256,-0.1499 0.824,-3.0165 0.6352,-3.2054 -0.086,-0.086 -0.4439,0.1136 -0.7951,0.4435 -0.5127,0.4817 -0.8765,0.5819 -1.8446,0.5082 -0.6633,-0.051 -1.2089,0 -1.2124,0.1066 -0.026,0.793 0.072,1.0445 0.6898,1.779 0.5973,0.7099 0.8135,0.8024 1.5213,0.6507 0.4538,-0.097 0.9064,-0.2244 1.0058,-0.2826 z m 7.6994,-0.2092 c 0.4165,-0.4165 0.8261,-3.5336 0.5565,-4.236 -0.1428,-0.3722 -0.2892,-0.3022 -0.9011,0.4308 -0.7122,0.853 -0.7783,0.8737 -2.6117,0.819 -1.2199,-0.036 -1.8811,0.046 -1.8811,0.2333 0,0.5074 1.0621,2.0299 1.8004,2.581 0.8356,0.6237 2.4915,0.7174 3.037,0.1719 z m 18.2798,-1.4201 c 0.071,-0.1154 0.2121,-1.2255 0.3128,-2.4669 l 0.1832,-2.2572 -1.1571,-1.35 c -0.6364,-0.7425 -1.2329,-1.3588 -1.3255,-1.3695 -0.093,-0.011 -0.2447,0.4896 -0.3381,1.1119 -0.162,1.0806 -0.2406,1.1627 -1.7498,1.8298 -0.9221,0.4075 -1.5802,0.8644 -1.5802,1.0969 0,0.5646 2.0076,2.2409 3.5719,2.9825 1.4051,0.6661 1.8735,0.7612 2.0828,0.4225 z m 5.8848,-2.9616 c 0.162,0 0.6085,-0.3175 0.9922,-0.7011 0.9842,-0.9843 0.9134,-1.9724 -0.2323,-3.2406 -1.1351,-1.2563 -1.9789,-1.5683 -1.9842,-0.7335 -0.01,1.5331 -0.236,1.7612 -1.7471,1.7612 -0.7833,0 -1.4243,0.1015 -1.4243,0.2255 0,0.124 0.2679,0.6179 0.5953,1.0976 0.7066,1.0352 2.2343,1.9239 2.9766,1.7316 0.291,-0.075 0.6617,-0.1387 0.8238,-0.1407 z m 12.0585,-1.4951 c 1.3037,-0.6551 1.8002,-1.8731 1.3875,-3.4033 -0.1499,-0.5555 -2.5991,-2.5135 -3.1442,-2.5135 -0.1742,0 -0.4865,0.5655 -0.6941,1.2568 l -0.3774,1.2567 -1.6578,0.1586 c -0.9119,0.087 -1.7285,0.2292 -1.8148,0.3155 -0.4186,0.4186 2.0102,2.8079 3.3939,3.3388 0.7032,0.2698 1.887,0.103 2.9069,-0.4096 z m -29.5588,-2.8164 c 0.8622,-0.4883 1.1157,-0.8252 1.4129,-1.8777 0.4571,-1.6181 0.2531,-2.7198 -0.7184,-3.8808 l -0.7647,-0.9138 -0.6567,1.4822 c -0.7433,1.6773 -1.0416,1.8304 -3.4987,1.7951 -2.4065,-0.034 -2.841,-0.2236 -3.4328,-1.4943 -0.2872,-0.6168 -0.5865,-1.1215 -0.6651,-1.1215 -0.079,0 -0.4372,0.4762 -0.7969,1.0583 l -0.6541,1.0583 h -2.0542 c -1.1298,0 -2.0542,0.065 -2.0542,0.1455 0,0.743 1.666,2.6654 2.8269,3.2618 1.2286,0.6312 1.9048,0.3816 2.7798,-1.026 0.7692,-1.2373 1.2725,-1.6596 1.2725,-1.0675 0,0.4687 1.6549,2.1476 2.6194,2.6574 1.3093,0.692 3.0815,0.6609 4.3843,-0.077 z m -15.8885,-0.7432 c 0.5327,-1.3315 0.3341,-3.101 -0.29,-2.5831 -0.2183,0.1812 -1.1128,0.3061 -2.086,0.2913 -0.9371,-0.014 -1.7038,0.026 -1.7038,0.09 0,0.063 0.2529,0.6535 0.5621,1.3111 0.6451,1.3725 1.3694,1.9735 2.3784,1.9735 0.5795,0 0.7839,-0.1942 1.1393,-1.0824 z m 22.3785,0.4263 c 0,-0.8472 -0.9431,-2.7473 -2.3372,-4.7089 -2.0002,-2.8145 -2.281,-3.0225 -2.0355,-1.5082 0.2943,1.8158 1.0598,3.3348 2.5437,5.0478 1.3719,1.5835 1.829,1.8758 1.829,1.1693 z m 7.8585,-3.0374 c 0.9407,-0.5735 1.6665,-1.7655 1.6665,-2.7365 0,-0.8469 -0.9935,-2.2797 -2.0959,-3.0226 -0.491,-0.3309 -0.9846,-0.6016 -1.097,-0.6016 -0.1123,0 -0.3965,0.5792 -0.6317,1.2872 -0.4258,1.2821 -0.4329,1.2878 -1.8072,1.4529 -0.7588,0.091 -1.7666,0.1668 -2.2395,0.168 -0.473,0 -0.8599,0.1324 -0.8599,0.2914 0,0.159 0.7628,1.052 1.6953,1.9844 1.6614,1.6614 1.7235,1.6953 3.1088,1.6943 0.9349,-5e-4 1.7004,-0.1759 2.2606,-0.5175 z m 8.8938,-1.6313 c 1.106,-0.5696 1.7685,-1.3714 1.7685,-2.1402 0,-1.1121 -0.909,-2.7066 -1.9066,-3.344 -0.8063,-0.5152 -0.8962,-0.5238 -1.2022,-0.1151 -0.1819,0.2431 -0.3307,0.6573 -0.3307,0.9205 0,1.0489 -0.9349,1.5369 -2.9444,1.5369 h -1.886 l 0.6517,0.8599 c 1.0455,1.3794 3.0117,2.5797 4.226,2.5797 0.5752,0 1.3058,-0.1339 1.6237,-0.2977 z m -26.2495,-4.3287 c 0.5246,-0.3421 1.193,-1.1055 1.4854,-1.6964 0.5141,-1.039 0.5464,-1.058 0.9833,-0.5753 0.2484,0.2746 1.063,0.7622 1.8103,1.0836 2.6517,1.1408 6.7982,0.3298 8.1495,-1.5938 0.8267,-1.1769 0.8299,-1.6876 0.018,-2.8966 -0.9334,-1.3898 -3.1704,-2.8886 -3.5106,-2.352 -0.1233,0.1946 -0.226,0.5073 -0.2283,0.695 -0.01,0.6224 -1.0558,2.4148 -1.575,2.6926 -0.7525,0.4028 -4.3838,0.3352 -5.4277,-0.101 -0.4929,-0.206 -1.0291,-0.6227 -1.1914,-0.9261 -0.1624,-0.3033 -0.3803,-0.5498 -0.4843,-0.5477 -0.1041,0 -0.507,0.5803 -0.8954,1.2848 -0.7983,1.4479 -1.2613,1.6136 -4.5228,1.6189 h -1.7895 l 0.4112,0.9922 c 1.1947,2.8826 4.2813,3.9402 6.7674,2.3189 z m -9.4855,-0.9441 c 2.1514,-0.5974 2.8006,-4.3837 1.0516,-6.1327 l -0.8189,-0.8189 -0.7453,1.5647 -0.7453,1.5647 -2.0505,0.077 c -1.1278,0.043 -2.0506,0.182 -2.0506,0.3101 0,0.5327 1.8203,2.5629 2.7905,3.1124 1.2077,0.6841 1.2479,0.6892 2.5685,0.3224 z m 30.1059,-2.6373 c 0.2852,-0.1526 0.7078,-0.5664 0.9392,-0.9196 0.5726,-0.8739 0.1216,-2.2156 -1.1075,-3.2948 -1.2225,-1.0733 -1.6157,-1.0238 -1.9578,0.2469 -0.3292,1.2222 -0.8748,1.592 -2.3495,1.592 -0.5831,0 -1.1275,0.1089 -1.2098,0.2421 -0.2221,0.3594 1.1623,1.89 2.0897,2.3104 0.8619,0.3908 2.7043,0.3 3.5957,-0.177 z m -24.3904,-6.439 c 0.3428,-0.3117 0.7372,-0.8619 0.8764,-1.2227 0.3923,-1.0172 0,-3.1096 -0.7437,-3.9249 -0.6141,-0.6769 -0.66,-0.6872 -0.965,-0.2159 -1.4838,2.2931 -1.2911,2.1492 -2.9119,2.1744 -0.8318,0.013 -1.5795,0.091 -1.6616,0.1728 -0.436,0.436 1.7388,3.3285 2.798,3.7214 0.6591,0.2445 1.946,-0.1035 2.6078,-0.7051 z m 8.5251,-0.1495 c 0.8995,-0.8996 1.0058,-1.964 0.3369,-3.3736 -0.4673,-0.9849 -1.4926,-1.821 -1.9139,-1.5607 -0.1413,0.087 -0.3939,0.5739 -0.5613,1.0812 l -0.3044,0.9223 h -1.8315 c -1.1025,0 -1.8316,0.1106 -1.8316,0.2777 0,0.579 0.8019,1.7914 1.7155,2.5935 0.7958,0.6987 1.1638,0.833 2.2828,0.833 1.1217,0 1.4572,-0.1231 2.1075,-0.7734 z m 9.0588,-0.039 c 1.4762,-0.41 2.0333,-1.0848 2.0333,-2.4631 0,-1.094 -0.081,-1.2199 -1.4438,-2.249 -0.7942,-0.5995 -1.5097,-1.0901 -1.5901,-1.0901 -0.08,0 -0.414,0.5655 -0.7413,1.2568 -0.587,1.2396 -0.615,1.2585 -2.048,1.389 -0.7991,0.073 -1.4291,0.2514 -1.4001,0.3969 0.1319,0.6614 1.5706,2.0862 2.5606,2.5357 1.2847,0.5834 1.3226,0.5866 2.6294,0.2238 z m -54.7092,-49.8768 c -0.097,-0.6485 -0.4577,-1.5043 -0.801,-1.9017 l -0.6242,-0.7227 -0.2783,0.7276 c -0.1531,0.4002 -0.3936,0.7276 -0.5345,0.7276 -0.3679,0 -1.0799,-1.0909 -1.0799,-1.6546 0,-0.6562 -0.7452,-0.8885 -1.2454,-0.3883 -0.4973,0.4972 -0.3201,1.3986 0.473,2.4068 0.6363,0.8091 4.0299,2.6299 4.1734,2.2394 0.052,-0.1403 0.014,-0.7856 -0.083,-1.4341 z m 18.3167,1.3318 c 0.539,-0.2253 1.2653,-0.6718 1.6139,-0.9922 0.8108,-0.7455 1.6093,-2.4719 1.6155,-3.4931 0.01,-0.9308 -0.7974,-2.3589 -1.5541,-2.7639 -0.5189,-0.2777 -0.5216,-0.2618 -0.1185,0.7031 0.614,1.4694 0.3603,3.3391 -0.587,4.328 -1.9692,2.0554 -5.1223,1.4972 -6.7657,-1.1976 l -0.4909,-0.805 v 0.8207 c 0,1.1657 0.9982,2.5199 2.3724,3.2142 1.3814,0.6979 2.5563,0.7536 3.9154,0.1858 z m -1.5792,-4.9351 c 0.5037,-0.5037 0.3699,-1.4679 -0.2655,-1.913 -0.496,-0.3474 -0.6639,-0.355 -1.1245,-0.051 -0.7747,0.5116 -0.8204,1.3548 -0.1008,1.8589 0.7212,0.505 1.0664,0.5293 1.4908,0.1049 z m -8.4137,-3.3904 c 6.9393,-3.2372 11.1593,-4.04 18.2099,-3.4644 5.3773,0.439 8.7555,1.2015 17.3765,3.9221 0.4797,0.1513 0.4931,0.1229 0.143,-0.3036 -1.1008,-1.3412 -5.43,-3.6863 -10.5346,-5.7063 -2.6788,-1.0601 -3.0267,-1.4465 -1.0854,-1.2058 1.5454,0.1917 4.0562,0.6338 4.7963,0.8446 0.2547,0.073 0.463,0.017 0.463,-0.1226 0,-0.4199 -4.2165,-2.3458 -6.439,-2.941 -5.0864,-1.3621 -10.0382,-1.325 -15.5214,0.1164 -2.9193,0.7674 -7.6477,3.0126 -10.0156,4.7558 -1.3605,1.0015 -1.5686,1.0918 -1.1923,0.5174 1.4528,-2.2172 7.0425,-5.4265 11.6048,-6.6627 2.5317,-0.686 2.9219,-0.7172 9.048,-0.7217 5.2712,0 6.2911,-0.063 5.7732,-0.3342 -2.0456,-1.0715 -7.433,-1.613 -11.4279,-1.1485 -5.1776,0.6019 -9.7837,2.1881 -14.0177,4.8272 -2.6433,1.6476 -5.9627,4.6237 -6.4387,5.7727 -0.6241,1.5068 0.5513,3.0496 2.6433,3.4694 1.6821,0.3375 3.2499,-0.045 6.6146,-1.6148 z m 0.4024,-3.442 c 0.2548,-0.2816 1.0722,-0.7385 1.8164,-1.0153 1.6575,-0.6166 4.2764,-1.0151 4.0278,-0.6129 -0.2303,0.3726 -4.0077,1.7915 -5.2849,1.9851 -0.9976,0.1512 -1.0112,0.1425 -0.5593,-0.3569 z m 9.3049,-3.0013 c -1.441,-0.4059 -2.2026,-0.9523 -1.3597,-0.9756 0.2837,-0.01 1.4644,-0.1136 2.6238,-0.235 3.3908,-0.3552 10.1068,0.4435 9.429,1.1213 -0.4566,0.4567 -9.1318,0.5291 -10.6931,0.089 z" fill="#000000" stroke-width="0.264583"/></g></svg>