<svg xmlns="http://www.w3.org/2000/svg" xmlns:xlink="http://www.w3.org/1999/xlink" version="1.1" x="0px" y="0px" viewBox="0 0 1000 1250" style="enable-background:new 0 0 1000 1000;" xml:space="preserve"><g><path d="M365.253479,639.9113159c30.7901611,38.128479,66.7573853,71.7848511,80.7747803,120.1188354   C444.3148193,720.5883789,399.1413574,653.3825073,365.253479,639.9113159z"/><path d="M267.2362061,571.3361206c-27.3757935,33.3847656-15.921814,86.1397095,25.5606079,120.1929321   C267.2832642,655.4430542,250.8786621,617.3794556,267.2362061,571.3361206z"/><path d="M482.1956177,456.3551636c25.9783325,21.0704956,47.6969604,45.331543,61.2859497,76.1693726   c-0.2993774-1.2373657-0.5404663-2.4923096-0.9069824-3.7094727   c-8.1418457-27.0493774-23.7821655-49.1743164-44.8362427-67.6224365   c-21.3009644-18.6647339-44.6286011-35.2826538-59.4224243-60.6257935   c-0.5270996,0.8084717-0.8458862,1.1074219-0.7877197,1.2370605c0.7459717,1.6610107,1.4959106,3.3239136,2.3398438,4.9365845   C450.2045288,426.4934692,465.0891113,442.4803467,482.1956177,456.3551636z"/><path d="M383.9470825,274.4450684c17.9176025-15.7866821,38.6264648-25.711792,61.8531494-30.6748657   C419.1403809,241.940918,399.581665,254.428772,383.9470825,274.4450684z"/><path d="M385.9597778,429.9371338c-7.4378052-24.2528076-7.1998291-48.1358643,3.3219604-73.5250854   C374.1676636,373.1943359,373.1260376,408.2293091,385.9597778,429.9371338z"/><path d="M489.3370972,329.8052979c-16.0786743-4.0263062-32.6464844-8.1750488-48.460083-12.1348877   C462.548584,331.4680176,482.0755615,338.2288818,489.3370972,329.8052979z"/><path d="M351.4171143,345.7051392c13.3664551-12.1447754,28.2607422-25.6776733,43.1887207-39.2412109   C373.6550903,313.7515259,360.0004272,328.586731,351.4171143,345.7051392z"/><path d="M867.7186279,530.8686523c19.9102783,47.2699585,17.3883057,93.8086548-5.2223511,139.9307861   c-0.8827515-12.3695068-1.7655029-24.7390747-2.6482544-37.1085815   c-7.5662842,52.6850586-28.7684326,94.7713013-81.5046387,116.4138794   c7.5018921-14.8085938,19.9090576-42.9217529,19.2758789-43.4828491   c-23.2877197,36.4451294-56.6298218,52.5519409-100.1815796,50.5213623   c9.6932373-6.6771851,26.7670898-20.1968384,26.4632568-20.8666382   c-30.0483398,14.1213379-60.3363647,15.0652466-90.9296265,2.1864624   c14.0822144,1.3189697,27.9616089,1.3201294,42.8357544-5.5675659c-10.0598755-1.0304565-18.4509888-1.43573-26.6765137-2.822876   c-19.6904907-3.3205566-36.8377075-12.500061-52.4412231-24.5585938c-1.9119263-1.4775391-2.8865356-5.7138672-2.4834595-8.3997803   c3.5554199-23.6914673,8.7017822-47.2020874,11.1040649-70.9957275   c4.1799927-41.3988647-3.2821655-81.4334717-18.0668335-120.1784058   c-1.2888184-3.3775024-2.6118164-6.7418823-3.3630371-10.3974609   c18.9037476,16.6920776,32.5130615,36.4759521,36.3152466,63.1043091   c2.7630005-16.6183472-5.703125-48.0605469-21.348999-71.0877686   c-13.8311157-20.3562012-29.9394531-39.1652222-45.8583374-59.7102661   c22.2826538,13.3502197,44.1873169,25.4553223,69.6712036,29.4532471   c-3.7822876-2.0935059-7.5988159-4.1280518-11.3398438-6.2929688c-7.5131836-4.3480835-15.1896973-8.4649048-22.3643188-13.3193359   c-0.9543457-0.6456909-1.7318726-1.5527954-2.4289551-2.5786743c-1.9717407-2.9018555-0.8027954-6.9140625,2.4393921-8.2545776   c1.0805664-0.4467773,2.1658325-0.7633667,3.2613525-0.8036499c20.9121094-0.7695923,41.5803223,0.1534424,61.5199585,7.944458   c23.4365845,9.1572266,47.4176636,16.1253662,73.0993042,13.8643188   c13.7905884-1.2141724,26.1096191-4.9970703,35.739563-16.0424805c4.4503784-5.1046143,11.0048828-8.3190308,16.1931763-12.8612061   c2.2932129-2.0077515,3.6936646-5.1095581,5.272644-7.8456421c7.4979248-12.9910278,6.3275757-14.8117676-5.9973755-23.1629028   c-29.4768066-19.9728394-58.5669556-40.5236206-87.5922241-61.1520996   c-12.4237061-8.8296509-18.4175415-20.9528198-20.6287231-36.5419922   c-5.2175903-36.7840576-22.8035278-67.8245239-49.8515625-93.067627   c-7.6896973-7.1765137-9.6244507-13.385498-6.0131226-23.2185059c3.5788574-9.7451782,5.0289917-20.2721558,7.600647-31.2590942   c-3.6791382,0.819397-6.1343994,1.366272-8.5188599,1.8972778c5.2418823-12.5960083,10.4458008-25.1010132,16.4662476-39.5679932   c-9.0265503,5.0990601-16.296814,9.2059326-24.5684204,13.8786011   c5.4914551-13.7255859,10.4796143-26.1931763,15.4677124-38.6607666   c-1.7994995,1.6728516-13.086792,11.9213867-13.3980713,11.7216187   c3.7612915-12.2658691,7.6557007-24.4933472,11.2238159-36.8153076c1.6086426-5.5549927,3.4245605-11.2807617,3.5401611-16.961792   c0.086731-4.2645874-0.9109497-10.1940308-4.1693726-12.4627075c-2.5830078-1.7984619-8.366272,0.597229-10.9729614,3.0292358   c-19.6625366,18.3447876-63.4883423,62.3272705-67.4846191,67.2202148   c1.2868652-14.8036499,2.8439331-27.6381836,3.385498-40.5154419c0.4517822-10.7418213,0.8915405-21.7233887-0.803894-32.2540894   c-2.0091553-12.4790039-11.2875977-17.1080322-21.4241943-9.8306885   c-12.9052124,9.2649536-25.036377,20.1859131-35.5087891,32.1386719   c-20.4776611,23.3723755-34.8726196,50.7818604-48.2210083,78.7271729   c-1.7253418,3.6122437-5.2832031,7.043335-8.8496704,8.9760742   c-42.4150391,22.9854126-84.9942017,45.6678467-127.5200806,68.4490967   c-1.1212769,0.600708-2.1264038,1.418396-3.1472778,2.1088257c27.2850342-6.5935669,82.4939575-18.1633301,82.8656616-17.3673706   c-52.6237183,38.2677612-102.975769,78.8103027-137.3082275,135.4962158   c17.8084106-17.4918213,36.0847168-34.0458374,62.6469727-38.4356689   c-6.8466797,24.8418579-19.4129028,46.9395752-32.2382812,68.4830933   c-12.987854,21.8165283-29.0231323,41.8189697-41.7555542,59.8319092   c8.555603-6.1218872,32.2827148-22.2231445,32.9736328-21.5284424c-3.2727661,4.4779663-5.9879761,9.541687-9.94104,13.3051758   c-21.7642822,20.7206421-43.9317627,41.0170898-65.7736206,61.6572266   c-16.4987183,15.5908813-32.93573,31.2602539-48.973999,47.3201294   c-8.8595581,8.871521-16.8414917,18.6194458-24.6813965,28.6317139   c30.3773193-32.1104126,68.6682129-51.5300903,108.6681519-68.3676147   c-10.6000977,8.3917847-21.4564819,16.4814453-31.757019,25.2262573   c-52.6424561,44.6915894-89.586792,99.6152344-104.6817017,167.4592896   C58.2962646,794.9978027,123.9399414,911.0273438,249.703125,952.6725464   c39.9421997,13.2263794,80.8804932,23.4450073,121.3718872,35.0087891c0.9484253,0.270752,2.0031738,0.1694946,3.2319946-0.2504272   c-33.7006836-13.52771-63.6758423-32.5185547-88.4641113-59.4448242c1.6980591,0.9926147,3.4575806,1.8951416,5.1030884,2.9646606   c54.8878174,35.675415,117.5576782,57.776062,183.012207,58.8331299   c36.1640625,0.5839844,72.3451538,0.104248,105.9355469,0.104248   c-40.2467651-3.5758057-80.3581543-15.5454102-115.1320801-42.5237427   c71.4727173,32.6048584,285.5120239,90.3111572,399.331543-87.6127319   C928.1486206,759.6196289,946.0664062,641.0566406,867.7186279,530.8686523z M794.0933228,879.6949463   c-71.2319336,54.9099731-168.8511963,69.6335449-258.7254028,10.1430664   c8.2366943,6.8521729,16.2265625,14.0323486,24.7775879,20.4667969   c9.0483398,6.8088989,18.3834839,13.3139648,28.050354,19.2015991c9.4256592,5.7406006,19.229248,10.9614868,29.2350464,15.6199341   c9.8948364,4.6068115,20.2498779,8.2252808,29.9472656,12.9415894   c-107.4252319-23.4521484-189.22229-81.0809937-239.7498779-180.5888062   c8.1743774,35.7819824,42.96875,99.5983276,42.3442993,100.1185303   c-12.8931274-12.8410034-26.4295044-25.1100464-38.5011597-38.6817627   c-12.4296265-13.9744263-24.0615234-28.7721558-34.8798828-44.0337524   c-10.6433105-15.0148315-19.8278198-31.0637817-30.6066284-46.5012207   c3.1400146,9.9645996,5.8552856,20.0893555,9.5377808,29.8492432c3.8071289,10.0899658,8.2424927,19.977356,12.9769897,29.6731567   c4.7366333,9.7001953,10.0013428,19.1578979,15.3695679,28.5299683   c5.3427124,9.3274536,11.1018677,18.4163208,16.2928467,27.9256592   c-38.4158325-32.0254517-70.3560791-70.0701294-101.2369995-109.2165527   c12.159668,41.0293579,36.1412964,75.2329712,60.0489502,109.6974487   c-36.852356-27.7383423-71.199585-57.8907471-97.2588501-98.1594849   c-6.0578003,11.968689-3.0990601,22.6137695-0.0783691,32.6959229   c3.0337524,10.1256714,10.6498413,30.2512207,10.0139771,30.6109619   c-8.4511719-14.7497559-17.7055054-29.1084595-25.1277466-44.3589478   c-7.4335938-15.2736206-13.0375366-31.4378052-20.2913818-47.03479c-2.3150635,20.8760986,2.269104,40.8570557,7.5344238,60.822876   c-16.4337769-26.8187256-29.3226929-55.1291504-36.840271-85.6819458   c-10.2943726-41.8377686-10.3417358-83.343811,7.5186157-123.2906494   c18.8556519-42.1729126,49.1115112-72.3101196,95.3598022-83.0811157   c35.8071899-8.3393555,68.5028687,1.3247681,98.8689575,20.2662964   c30.9915161,19.3319092,53.8551636,46.2601929,71.1665649,78.1480103c1.47052,2.7088623,2.9100952,5.4346924,4.7173462,7.9244385   c-14.72229-40.5549316-35.8049316-76.6710815-71.8856812-102.2675781   c-5.8117676-4.1229858-11.5938721-8.2905884-17.4752808-12.3121338   c-34.4031372-23.5233154-51.6685791-56.7838135-55.6031494-97.647522   c-0.1651001-1.7150879-0.3902588-3.4244995-0.8356934-7.2921753c-4.5806885,28.432251,5.3775635,79.5740967,4.4859619,79.8171387   c-4.409668-13.6731567-10.0221558-27.0897827-13.0031738-41.0675659   c-8.9466553-41.9511719-4.0436401-81.8555908,20.4260254-118.2459106   c4.4118652-6.5611572,8.071106-13.6273193,12.4616089-20.2042847c5.852356-8.7671509,11.4741821-17.8053589,18.3195801-25.7592163   c6.6654053-7.7445679,14.7485962-14.2689819,23.5721436-22.6188965   c-27.6705933,8.5217896-70.1889038,40.9113159-70.8446655,40.3548584   c8.1999512-10.9915771,15.1546631-23.2791138,24.9100952-32.6516724   c12.6300659-12.1342163,26.4262695-23.9552002,41.7494507-32.0877686   c11.3182373-6.006958,25.8517456-6.0603027,39.0053101-8.4797363c18.147522-3.3381348,36.5-5.7203369,54.4748535-9.791748   c16.5824585-3.7559204,21.8514404-10.9869385,22.6958618-27.8447266   c0.3689575-7.3652954-0.1769409-14.7738647-0.2227783-22.1633301c-0.0529175-8.5186157-0.0122681-17.0377197-0.0122681-22.8731079   c-4.4007568,5.6626587-18.2265625,20.9326172-18.8414307,20.4638062   c4.1090698-8.6947632,8.2181396-17.3896484,12.3272095-26.0844727c-0.6102905-0.3347168-8.0177002,3.5360107-9.5842896,4.6855469   c2.2020874-5.2734375,2.5897217-8.5037231,3.9387207-16.4072876c0.9289551-24.9194946,2.9868164-49.4900513,16.0456543-71.3789673   c2.2866211-3.8328857,4.7855835-7.7669678,8.031189-10.7286377c2.6552734-2.4229126,5.6162109-5.531311,9.9249268-5.1216431   c2.8652954,0.0386963,2.5924072,6.758606,2.3215332,10.0072632c-1.3364868,16.0327148-4.3031616,31.9971924-4.645874,48.029541   c-0.5335693,24.9579468,0.5864258,49.951355,0.9505005,71.6552734   c31.156311,13.9048462,56.6217041,30.1265869,78.1190796,51.9510498   c26.4428711,26.8450928,39.3862305,59.8555908,41.8600464,98.5858154   c-2.4816284-1.5233765-3.9978027-2.2527466-5.2833862-3.2728882   c-23.8076782-18.8901367-50.9735107-22.5239868-80.0961304-18.0491943   c-10.3776245,1.5946045-20.8833618,2.3551636-31.421814,4.7293701c7.7600708,1.1062622,15.5736084,1.9276123,23.270813,3.3695679   c29.1834717,5.4667969,54.4798584,18.9699097,74.5803833,40.4727173   c26.5136719,28.3634033,59.8249512,46.5004883,92.9705811,64.9850464   c8.6066895,4.7998657,18.609436,7.0962524,26.7681885,10.0997314c2.9663086,6.9395142,5.7969971,13.5617065,9.0227661,21.1082764   c-11.9260864,10.2739258-27.5523071,12.8764038-43.6480713,7.4365845   c-14.8550415-5.0204468-29.3969727-11.5005493-43.2131958-18.9415283   c-23.6362305-12.7295532-46.1190796-27.758728-73.0337524-33.1959839   c-1.2481689-0.2521973-2.5311279-0.3325195-3.8612061-0.5009155   c31.8320923,17.2504272,63.4928589,34.4081421,95.1536865,51.5657349   c-0.3823853,0.7619019-43.5116577-9.5741577-63.3225708-19.3813477   c-22.6564331-11.2158813-44.8566895-23.3808594-67.7387085-34.1012573   c-10.8536377-5.085022-22.8310547-7.7714233-35.6348877-11.9839478c3.8668213-0.4004517,9.2578125-1.7362671,9.4309692-2.1428223   c-16.2503662-6.1985474-32.5008545-12.3969727-48.7513428-18.59552c0.1687622-0.5006104,26.3411255-1.50177,39.258728-1.50177   c0.0554199-0.5913696-84.1401978-18.552124-84.4168701-17.6842651c0.7069092,0.5339355,1.3604736,1.4352417,2.12854,1.5465088   c11.2513428,1.6304932,15.2828979,9.0963135,18.3234253,19.3172607   c7.461853,25.0828857,23.614624,45.0595703,40.4718018,64.5075073   c18.3151855,21.130127,37.4529419,41.6951904,54.0964355,64.0935059   c29.1149902,39.1820068,39.4067993,84.5263062,38.5352783,132.7695312   c-0.0172119,0.9530029-0.1728516,1.9035645-0.088562,1.0236816c-4.600647-18.1790161-16.5582886-57.4194946-17.5343018-57.2713013   c10.812561,42.2025146,11.8283081,84.1420898-2.5476074,127.1907959   c-13.3409424-13.7993774-28.4486694-25.6624756-31.5759277-44.8947144   c-8.5773315-52.7476807-38.1386108-91.0601807-80.5031128-121.0646973   c-6.546814-4.6367798-13.3409424-8.9243164-20.4933472-12.7923584   c17.579834,17.666748,32.4852905,37.1917114,45.2867432,58.3890991   c16.3909912,27.1415405,26.5691528,56.7657471,34.4941406,87.1919556   c11.0906982,42.5806885,38.7047729,72.4934082,73.600647,96.6522827c6.8823242,4.7645874,15.8041382,6.5830688,23.479126,9.6382446   c-10.8945312,7.6107788-29.2770386,3.1104736-57.2798462-15.0291138   c16.8069458,22.8076782,36.8563232,39.1694336,61.6322021,49.5601196   c25.9492798,10.8828125,51.3862915,9.9968872,76.5703125-4.9693604   c-4.2312012,7.9424438-18.0986938,19.0899658-32.6921387,23.8231812   c-12.6432495,4.1008301-25.9671021,7.1914673-39.1776123,8.1520996   c-13.5061035,0.9822388-27.2402954-1.1706543-39.3210449-1.8623657   c31.1479492,18.1977539,95.6256714,29.0736084,159.9893188-10.6987915   c-8.0678711,19.9313965-20.7476196,33.7490845-36.6098633,44.125061   c-15.7474365,10.3006592-32.7337646,18.7071533-47.0801392,26.7665405   c75.5384521-16.5743408,130.4139404-64.1079102,170.7825317-131.1164551   c-10.8189697,39.3510132-31.6396484,73.088562-56.9064941,105.0251465   c9.0270996-8.3173828,18.3603516-16.3310547,26.9963379-25.036377c8.914978-8.9868164,17.583252-18.2955933,25.5623169-28.1116333   c7.8069458-9.6043091,15.194519-19.6641846,21.6889648-30.1888428   c6.6221313-10.7317505,12.4716187-22.029541,17.6653442-33.5285034   c5.1629639-11.4307861,9.0894775-23.420105,14.0761108-34.9143066   C881.9163818,773.4559326,853.1436768,834.1751709,794.0933228,879.6949463z"/></g></svg>