<?xml version="1.0" encoding="utf-8"?>
<!-- Generator: Adobe Illustrator 28.0.0, SVG Export Plug-In . SVG Version: 6.00 Build 0)  -->
<svg version="1.1" id="Freyja5" xmlns="http://www.w3.org/2000/svg" xmlns:xlink="http://www.w3.org/1999/xlink" x="0px" y="0px"
	 viewBox="0 0 1024 1024" style="enable-background:new 0 0 1024 1024;" xml:space="preserve">
<path d="M681.311,782.577c0.346-8.034-1.44-14.918-6.867-21.594c-12.332-15.17-14.179-32.661-7.606-50.854
	c2.759-7.637,6.146-15.14,10.092-22.234c7.744-13.92,8.752-28.625,7.252-44.05c-0.818-8.408-0.746-16.983-0.196-25.426
	c0.805-12.362,7.019-22.436,13.928-32.536c8.894-13.002,17.105-26.634,23.968-40.791c3.358-6.928,3.004-15.656,4.137-22.423
	c3.431,7.938,4.665,17.535,0.083,27.156c-2.35,4.935-5.34,9.607-8.405,14.151c-12.21,18.1-20.966,36.916-13.003,59.535
	c-5.508-6.471-7.083-15.575-6.12-33.224c-15.159,13.714-16.69,38.683-2.593,53.249c7.267,7.509,15.485,14.168,23.688,20.689
	c20.471,16.274,29.584,37.923,30.877,63.432c0.98,19.336-1.749,37.877-12.251,54.633c-1.748,2.789-3.877,5.34-6.427,7.763
	c12.263-18.45,16.695-38.754,15.548-61.585c-6.146,5.614-11.651,10.549-17.001,15.646c-0.682,0.649-0.793,2.15-0.77,3.248
	c0.405,19.856-9.355,34.435-23.808,46.779c-2.7,2.307-4.469,5.704-7.297,9.428c2.689,0.533,3.769,0.747,4.963,0.984
	c-0.15,0.13-0.275,0.27-0.428,0.367c-1.62,1.032-4.026,1.67-4.751,3.14c-16.659,33.765-55.32,38.408-80.407,26.904
	c-4.038-1.852-7.086-1.84-11.144-0.04c-40.409,17.933-82.513,29.74-126.558,34.393c-74.221,7.842-145.724-2.586-214.226-32.28
	c-14.921-6.468-29.162-14.495-43.796-21.642c-1.75-0.855-4.003-0.68-5.816-0.951c1.64-3.03,4.077-7.119,6.125-11.393
	c6.782-14.157,6.734-28.613,1.368-43.16c-6.244-16.928-14.897-32.392-28.552-44.527c-9.486-8.43-15.139-18.405-14.46-30.334
	c2.088,6.046,4.505,13.046,6.922,20.046c0.512-0.148,1.024-0.296,1.536-0.444c-3.711-8.784-8.109-17.478-4.666-26.537
	c1.048,6.557,2.199,13.763,3.35,20.968c0.559-0.041,1.118-0.082,1.677-0.122c-4.096-11.001-1.747-21.24,2.721-30.874
	c-0.787,7.133-1.614,14.632-2.441,22.13c0.498,0.097,0.995,0.195,1.493,0.292c-0.999-12.813,3.078-23.764,11.86-33.074
	c-7.116,12.008-10.255,24.504-5.15,38.11c-1.77-21.389,9.507-35.889,24.997-48.333c11.941-9.593,24.037-19.044,35.409-29.285
	c26.571-23.926,40.74-54.597,46.877-89.336c1.327-7.51,2.186-15.103,2.533-22.818c-2.776,8.913-5.551,17.825-8.327,26.738
	c-0.311-0.092-0.622-0.183-0.932-0.275c1.348-6.41,2.695-12.819,4.043-19.229c-4.473,13.633-6.528,28.013-14.978,40.217
	c6.57-16.188,11.33-32.806,12.385-50.34c-7.026,28.584-14.317,57.037-33.199,80.735c17.527-27.724,27.608-57.907,30.037-91.036
	c-8.198,14.437-18.738,26.573-30.822,37.386c-4.964,4.442-10.287,8.483-15.245,12.932c-11.267,10.11-22.409,20.359-33.48,30.441
	c-0.294-2.07-0.609-4.284-0.923-6.499c-0.538,0.016-1.077,0.032-1.615,0.048c-0.184,1.678-0.367,3.355-0.552,5.038
	c-6.691-7.208-6.385-20.021,0.674-28.167c-3.937,16.413-3.937,16.413-2.489,20.399c1.992-4.777,4.17-10.002,6.348-15.227
	c0.538,0.18,1.076,0.36,1.615,0.54c-2.271,5.969-4.753,11.924-1.81,18.837c0.731-1.005,1.425-1.517,1.442-2.049
	c0.339-10.943,8.231-16.615,15.82-22.287c9.73-7.271,20.163-13.657,29.5-21.383c6.945-5.747,12.628-13.018,18.873-19.611
	c-0.415-0.446-0.83-0.892-1.245-1.339c-0.965,0.708-1.93,1.415-3.723,2.729c0.935-2.049,1.497-3.281,2.06-4.513
	c-0.374-0.367-0.748-0.735-1.122-1.103c-2.995,2.44-6.031,4.831-8.977,7.328c-6.832,5.793-13.62,11.637-20.426,17.46
	c-0.316-0.302-0.631-0.604-0.947-0.906c0.392-0.487,0.71-1.064,1.185-1.446c11.539-9.285,18.092-22.459,26.608-34.1
	c0.238-0.325,0.255-0.811,0.52-1.716c-3.819,4.32-7.273,8.228-10.728,12.135c-0.323-0.197-0.645-0.395-0.968-0.592
	c1.719-4.276,3.438-8.552,5.157-12.828c-0.219-0.097-0.437-0.194-0.656-0.291c-1.973,2.736-3.946,5.472-6.395,8.867
	c2.366-7.229,4.475-13.671,6.584-20.113c-0.347-0.108-0.694-0.217-1.041-0.325c-1.838,4.54-3.676,9.079-5.514,13.619
	c-0.267-0.095-0.535-0.19-0.802-0.286c1.279-5.347,2.559-10.694,3.838-16.04c-0.303-0.092-0.607-0.185-0.91-0.277
	c-1.189,3.799-2.377,7.598-3.566,11.397c-0.245-0.057-0.489-0.114-0.734-0.171c0.364-4.027,0.729-8.054,1.161-12.835
	c-4.503,1.757-8.26,3.222-12.016,4.688c-0.069-0.196-0.138-0.392-0.207-0.588c4.121-2.363,8.242-4.727,12.362-7.09
	c-0.123-0.3-0.246-0.601-0.37-0.901c-1.533,0.485-3.065,0.97-4.598,1.456c-0.083-0.19-0.166-0.379-0.249-0.569
	c1.076-0.921,2.152-1.841,3.996-3.42c-1.97,0.406-3.084,0.635-4.557,0.939c2.54-3.668,4.865-7.024,7.189-10.38
	c-0.13-0.169-0.259-0.338-0.389-0.506c-1.304,0.927-2.607,1.853-3.911,2.78c-0.297-0.202-0.595-0.404-0.892-0.607
	c1.497-2.574,2.995-5.148,3.834-6.59c-8.514,6.633-18.369,13.595-27.354,21.54c-7.061,6.243-7.544,15.082-6.522,24.05
	c0.874,7.669,1.342,15.386,1.866,23.09c0.064,0.939-0.37,2.193-1.024,2.854c-4.094,4.139-8.316,8.151-12.495,12.205
	c-0.597-0.422-1.328-1.32-1.77-1.194c-9.241,2.617-18.453,2.164-27.911-0.402c0.349,1.31,0.593,2.227,0.837,3.145
	c-1.77-2.559-3.979-4.92-5.24-7.71c-8.835-19.554-6.017-37.379,12.412-48.12c5.713-3.33,11.996-5.701,18.081-8.366
	c9.133-4,18.649-7.255,27.424-11.914c25.699-13.644,39.297-34.92,38.472-64.077c-0.442,1.677-1.011,3.832-1.83,6.936
	c-0.331-2.09-0.515-3.248-0.921-5.807c-1.518,3.699-2.585,6.088-3.488,8.538c-7.049,19.126-19.54,33.55-37.701,42.759
	c-7.543,3.825-15.524,6.796-23.354,10.039c-17.024,7.05-33.555,14.684-41.596,33.12c2.516-9.887,8.528-17.342,16.844-22.504
	c7.873-4.886,16.401-8.74,24.732-12.864c11.002-5.446,22.294-10.344,33.052-16.227c4.699-2.57,8.38-7,12.524-10.585
	c-0.288-0.367-0.576-0.735-0.864-1.102c-10.784,9.761-24.285,13.128-37.89,16.462c20.994-6.438,38.291-17.342,47.586-38.157
	c-0.822,0.465-1.386,1.196-1.991,1.892c-9.35,10.754-19.118,20.69-33.651,24.657c-7.965,2.174-15.968,5.103-23.113,9.17
	c-10.341,5.887-20.733,12.184-29.636,19.981c-14.312,12.534-19.306,29.067-15.785,47.944c-1.848-2.263-3.443-4.806-5.589-6.738
	c-8.329-7.497-14.884-16.135-17.966-27.046c-2.856-10.11,0.866-19.48,9.669-25.002c0.821-0.515,1.591-1.112,2.386-1.672
	c-2.928-4.094-6.181-4.181-8.944,0.002c-2.001,3.029-3.41,6.45-5.066,9.705c-4.608,9.054-22.472,11.513-26.947,4.11
	c6.477-0.619,9.126-2.738,10.554-9.096c1.871-8.331-0.405-15.851-5.459-22.473c-3.562-4.667-8.088-5.859-12.755-4.028
	c-4.743,1.861-6.999,5.462-6.15,11.733c1.067,7.884,2.156,15.868,4.377,23.476c10.296,35.275,31.416,61.164,66.45,74.368
	c5.124,1.931,10.682,2.712,17.119,4.289c-1.718-3.092-2.707-4.873-3.696-6.654c-0.386-1.911-0.759-3.825-1.159-5.734
	c-1.074-5.121-2.159-10.24-3.24-15.359c1.853,3.359,2.489,6.949,3.463,10.445c3.241,11.626,8.799,21.565,20.446,26.753
	c0.942,0.419,2.276-0.042,3.427-0.093c-0.224-1.116-0.448-2.231-0.672-3.347c2.335-1.784,4.671-3.568,7.006-5.352
	c-1.134,2.193-2.197,4.428-3.415,6.574c-6.551,11.544-5.569,21.678,3.112,31.672c0.64,0.736,1.239,1.507,1.899,2.313
	c-6.367,7.654-13.275,13.485-25.04,10.306c6.078,0.021,11.473,0.531,14.947-4.566c-3.47-3.933-7.503-6.173-13.071-5.486
	c-11.931,1.472-15.509-1.638-15.978-13.387c-0.445-0.095-0.89-0.19-1.335-0.285c-0.78,3.656-1.561,7.312-2.427,11.368
	c-0.195-3.077-0.378-5.971-0.589-9.315c-13.823-1.793-27.047-6.561-39.343-13.575c-45.94-26.206-74.564-65.181-81.546-117.746
	c-5.538-41.695,7.643-79.345,32.733-112.639c22.881-30.363,52.494-51.362,89.876-60.019c21.419-4.96,42.834-4.521,62.488,6.774
	c7.047,4.05,12.872,10.226,18.47,14.792c0.611-9.058,1.312-19.45,1.912-28.35c-4.279,1.799-9.539,4.895-15.208,6.156
	c-6.119,1.362-12.133-0.592-17.018-4.967c3.766-0.487,7.531-0.974,11.126-1.439c-2.908-0.845-5.914-1.719-8.875-2.58
	c3.31-0.675,6.375-1.301,10.659-2.175c-3.56-1.312-5.742-2.116-8.527-3.143c2.459-0.219,4.117-0.366,5.776-0.513
	c0.011-0.328,0.022-0.655,0.033-0.983c-1.448-0.499-2.895-0.997-4.505-1.552c2.842-0.571,5.351-1.076,7.86-1.58
	c-1.454-0.845-2.782-0.788-4.103-0.855c-5.989-0.306-11.262-3.566-12.438-8.318c-1.341-5.419,1.818-9.092,5.79-12.189
	c0.787-0.614,1.562-1.27,2.426-1.757c14.8-8.337,24.96-21.165,34.444-34.825c4.045-5.826,8.764-11.403,14.054-16.106
	c15.483-13.763,34.157-17.564,54.364-16.439c10.627,0.592,21.308,0.567,31.953,0.326c7.425-0.168,18.152-11.898,18.437-19.433
	c0.018-0.487,0.028-1.082-0.219-1.454c-3.4-5.124-6.147-10.959-12.884-12.918c2.072,0.096,4.32,0.323,5.745,1.526
	c2.386,2.014,4.191,4.702,6.339,7.015c3.244,3.492,4.771,6.931,1.452,11.441c-4.362,5.928-6.024,14.55-15.749,14.766
	c-6.813,0.151-13.622,0.566-20.434,0.618c-11.144,0.087-22.436-1.191-33.402,0.191c-22.3,2.81-38.595,15.304-49.402,34.858
	c-3.935,7.119-7.163,14.625-10.976,21.815c-5.722,10.788-11.901,13.906-24.059,12.587c-0.896-0.097-1.797-0.159-2.695-0.238
	c-0.211,0.553-0.422,1.106-0.634,1.659c2.283,0.928,4.516,2.49,6.857,2.676c10.928,0.867,19.597-3.403,25.194-12.86
	c2.949-4.982,5.087-10.451,7.506-15.738c10.508-22.962,31.081-34.465,56.163-31.741c14.367,1.56,28.788,2.618,43.185,3.903
	c0.042-0.403,0.083-0.806,0.125-1.209c-2.397-0.835-4.794-1.67-7.191-2.505c6.592,0.162,12.964,0.871,19.355,1.255
	c6.144,0.368,12.353,0.904,18.446,0.367c3.109-0.274,5.711-1.111,7.886,1.724c0.003-0.002,0.103-0.111,0.103-0.111
	c-17.938-0.71-35.43,1.014-52.573,9.811c33.541,13.78,67.491,14.864,102.142,9.657c-15.328,2.585-30.639,5.746-45.981,5.896
	c-19.567,0.191-39.06-2.365-57.341-10.619c-4.922-2.222-10.365-3.292-15.568-4.891c-0.172,0.422-0.344,0.843-0.517,1.265
	c2.254,1.787,4.508,3.573,7.767,6.157c-2.354-0.58-3.467-0.855-5.815-1.434c24.148,23.139,51.236,33.197,83.392,27.476
	c11.436-2.035,21.001-7.931,29.687-15.396c-4.61,4.208-8.802,9.032-13.916,12.498c-10.877,7.371-22.471,13.48-35.874,16.121
	c1.948,0.245,3.892,0.525,5.844,0.724c1.983,0.202,3.985,0.543,5.96,0.445c13.06-0.642,25.413,2.007,37.358,7.269
	c8.157,3.594,16.761,5.366,25.897,4.217c-7.587,4.682-21.403,6.147-35.49,2.645c-11.68-2.904-23.074-6.955-34.449-10.453
	c7.649,8.349,29.153,17.303,48.392,20.879c-6.306-0.884-12.613-1.768-19.119-2.681c1.243,0.648,2.364,1.232,3.485,1.815
	c-0.125,0.43-0.251,0.861-0.376,1.291c-7.779-2.435-15.558-4.87-24.53-7.679c2.215,1.551,3.497,2.56,4.884,3.391
	c1.566,0.938,3.192,1.794,4.853,2.551c11.432,5.211,23.227,8.922,35.951,9.236c11.237,0.277,20.854-3.54,29.233-10.815
	c2.767-2.402,5.518-4.829,8.175-7.352c10.812-10.262,23.212-14.72,38.327-12.238c15.626,2.565,32.203,9.729,41.762,19.756
	c-11.525-6.117-23.752-9.355-36.298-9.517c5.833,2.816,12.38,5.146,18.005,8.869c10.698,7.081,16.426,18.049,20.935,29.712
	c1.254,3.242,1.259,7.302,5.72,8.592c0.695,0.201,0.891,2.127,1.329,3.285c-1.692-1.08-3.029-1.934-5.737-3.662
	c1.942,7.45-1.85,8.553-6.688,9.861c-18.186,4.92-30.715,23.57-28.604,41.783c2.225,19.2,17.75,33.779,37.189,34.758
	c15.424,0.777,28.355-4.439,36.95-17.545c8.415-12.832,8.973-26.557,1.731-40.256c-5.777-10.927-15.637-16.404-27.12-19.45
	c-2.615-0.694-5.335-0.997-7.941-2.535c2.266,0,4.531,0,7.893,0c-4.704-11.499-9.063-22.155-13.556-33.137
	c6.191,3.914,9.845,9.516,12.687,15.722c1.451,3.167,3.223,6.377,3.746,9.74c1.182,7.593,5.14,12.269,12.936,13.964
	c0.199-1.163,0.445-2.597,0.69-4.031c-1.093,7.891,6.943,9.044,9.534,14.104c0.573-0.251,1.146-0.502,1.72-0.754
	c-3.697-11.081-6.534-22.55-11.306-33.146c-6.154-13.664-2.291-25.096,5.409-37.765c0,1.931,0.194,2.658-0.029,3.221
	c-4.675,11.852-2.892,23.505,0.889,35.153c3.638,11.204,7.968,22.27,10.483,33.729c3.068,13.977,3.841,28.26,2.147,42.691
	c-0.761,6.482,1.136,13.234,0.919,19.833c-0.305,9.239-0.478,18.67-2.487,27.619c-2.733,12.171-0.823,23.046,7.979,31.234
	c9.069,8.435,19.609,15.329,29.741,22.567c7.17,5.122,14.72,9.715,22.124,14.509c22.593,14.63,26.115,36.255,18.856,58.604
	c-3.356,10.332-8.935,19.993-13.979,29.713c-5.686,10.956-12.307,21.702-12.571,34.353c-0.181,8.695,0.963,17.567,2.689,26.124
	c5.124,25.402,4.048,49.932-8.006,73.407c-3.262,6.353-6.23,12.869-9.078,19.422c-9.8,22.549-5.872,43.207,8.979,62.198
	c2.855,3.651,6.126,6.975,9.591,10.885c0.853-1.401,1.38-2.268,1.912-3.143c-0.908,2.954-1.336,6.19-2.824,8.83
	c-4.82,8.552-12.01,14.614-21.137,18.239c-13.807,5.483-26.275,2.56-37.113-6.98c-10.953-9.642-14.677-21.907-10.988-36.132
	c2.97-11.454,9.782-19.885,20.608-24.874c8.2-3.778,11.841-10.374,12.238-19.327c-2.373,3.321-5.006,4.045-7.373,1.824
	c-4.885,2.198-9.203,4.257-13.611,6.105c-15.637,6.553-27.493,16.882-32.689,33.482c-7.524,24.035,1.986,51.243,22.562,65.4
	c18.991,13.067,50.774,12.238,69.306-1.539c17.545-13.043,29.389-45.23,11.422-67.009c-0.876-1.062-1.442-2.381-2.152-3.581
	c2.188,1.478,3.656,3.416,5.132,5.347c4.664,6.1,8.266,6.001,11.448-1.147c2.16-4.853,2.87-10.351,4.008-14.71
	c5.147,14.553-6.589,27.859-6.59,43.602c1.174-1.106,1.715-1.478,2.079-1.979c15.59-21.504,23.315-44.246,12.214-70.523
	c-3.139-7.43-5.313-15.397-6.86-23.326c-1.04-5.328-0.198-11.024-0.198-17.222c-1.009,2.081-1.654,3.757-2.58,5.259
	c-3.65,5.921-7.241,11.888-11.145,17.64c-2.6,3.832-6.261,7.027-8.402,11.062c-2.109,3.973-2.901,8.646-4.536,13.857
	c0-5.086,0-9.408,0-13.731c-0.234-0.066-0.468-0.131-0.702-0.197c-1.23,2.735-2.459,5.469-4.015,8.93
	c-1.826-10.89,1.696-20.183,4.071-29.747c-3.45,8.111-6.566,16.326-8.767,24.78c-3.926,15.08-2.788,29.644,5.65,43.277
	c2.343,3.786,4.196,7.98,5.636,12.204c5.827,17.1,5.899,33.461-7.623,47.432c-26.504,27.385-72.851,16.141-84.901-20.619
	c-4.212-12.851-4.184-25.69,1.288-38.264c-6.912,29.398,1.735,51.611,29.687,65.364c-2.262-0.54-4.524-1.08-7.562-1.805
	c17.814,11.348,44.898,8.011,59.491-6.33c13.463-13.23,13.859-34.668,3.873-53.214c0.404,1.806,0.785,2.751,0.801,3.703
	C681.272,771.851,681.277,777.214,681.311,782.577z M491.429,711.225c4.923-2.262,9.935-4.351,14.746-6.83
	c5.678-2.925,11.182-6.187,16.762-9.303c1.792-1.205,3.751-2.223,5.349-3.647c7.138-6.362,14.174-12.84,21.246-19.276
	c2.456-2.613,5.206-5.011,7.316-7.878c7.498-10.189,14.597-20.675,22.183-30.797c12.736-16.993,27.702-20.598,46.94-11.684
	c13.045,6.044,19.207,19.221,15.481,33.102c-2.817,10.495-12.326,18.195-22.433,18.167c-9.393-0.026-18.63-7.756-21.05-17.616
	c-1.965-8.005,2.429-16.476,10.109-19.493c7.554-2.967,16.357,0.238,20.171,7.344c3.738,6.965,0.584,16.314-6.58,19.5
	c-6.818,3.033-15.013-0.808-17.4-8.59c-0.863-2.812-0.475-6.008-0.629-8.553c-3.288,4.476-3.493,8.734-0.309,13.679
	c3.205,4.978,9.932,7.662,15.698,6.264c7.995-1.939,12.916-8.568,12.549-16.905c-0.356-8.092-6.869-15.404-14.75-16.561
	c-9.255-1.359-17.296,2.21-21.402,9.498c-3.867,6.865-2.55,16.384,3.311,23.211c7.65,8.91,17.499,12.064,28.755,9.699
	c11.889-2.497,19.821-9.911,23.007-21.757c3.87-14.391-2.681-29.304-16.739-38.497c-15.665-10.244-32.368-9.287-48.086-1.583
	c-13.028,6.386-24.859,15.284-36.973,23.437c-8.483,5.709-17.45,9.314-27.73,10.144c-15.747,1.271-31.335,3.541-45.653,10.933
	c2.111-5.203,5.274-10.222,2.817-16.275l0.024,0.104c-0.308-1.411-0.617-2.821-0.818-3.741
	c12.297-5.192,24.207-10.236,36.129-15.251c18.198-7.654,34.164-18.504,47.859-32.784c6.682-6.968,13.542-13.808,20.771-20.197
	c14.642-12.941,31.889-17.713,51.049-14.096c9.926,1.874,19.586,5.12,29.441,7.432c3.106,0.729,6.451,0.436,9.687,0.611
	c0.03-0.477,0.06-0.953,0.089-1.43c-8.216-3.33-16.432-6.66-25.186-10.208c5.86-1.869,11.278-3.375,16.534-5.32
	c10.724-3.967,18.489-10.968,21.891-22.237c5.122-16.965,0.029-31.658-15.535-43.283c-14.408-10.761-31.023-18.463-44.332-32.839
	c4.167,25.401-6.274,42.907-25.298,56.359c-4.618,3.265-9.27,6.491-14.003,9.585c-21.828,14.271-44.74,26.3-70.138,32.907
	c-3.971,1.033-7.302,1.694-6.91,6.877c-0.386-1.53-0.772-3.06-1.203-4.768c-2.407,0.551-4.492,1.026-6.577,1.506
	c-23.86,5.493-47.355,12.173-69.393,23.055c-25.455,12.569-43.197,31.377-47.245,60.684c-0.361,2.616-0.048,5.326-0.048,9.24
	c-6.294-3.141-12.289-6.132-18.283-9.123c-8.829-17.83-2.609-32.317,9.883-45.6c8.467-9.003,18.772-15.059,30.469-18.198
	c26.281-7.052,52.72-13.522,79.123-20.112c6.981-1.742,14.068-3.059,22.268-4.821c-1.655-0.799-1.924-1.021-2.212-1.048
	c-0.49-0.046-1.006-0.038-1.486,0.064c-21.383,4.542-42.732,8.145-64.652,2.945c-6.399-1.518-13.256-1.105-19.904-1.577
	c-0.003-0.2-0.007-0.4-0.01-0.599c6.006,0,12.011,0,18.017,0c0.209-0.4,0.418-0.8,0.627-1.2c-2.457-1.258-4.914-2.516-7.372-3.773
	c0.605-0.646,1.21-1.292,1.815-1.939c6.887,7.741,15.834,9.911,25.69,10.016c14.968,0.159,29.281-3.471,43.697-6.808
	c3.587-0.83,4.217-2.405,3.866-5.379c0.883,2.653,1.766,5.306,2.649,7.959c-1.038-11.633-1.926-23.298-0.776-34.76
	c1.048-10.447,10.292-25.799,15.708-30.128c-2.545,4.904-5.229,10.078-7.914,15.251c0.239,0.114,0.479,0.228,0.718,0.342
	c4.894-5.875,9.788-11.751,14.682-17.626c0.392,0.284,0.784,0.569,1.176,0.853c-4.618,8.298-9.236,16.596-13.854,24.894
	c6.051-6.239,11.875-12.528,17.464-19.02c12.432-14.44,27.621-25.332,43.662-35.389c17.303-10.847,32.388-24.163,39.999-43.901
	c5.821-15.096,5.203-30.389,0.348-46.393c-2.29,3.247-4.091,5.816-5.909,8.373c-9.635,13.554-22.017,22.456-39.197,23.587
	c-1.282,0.084-3.25,2.059-3.512,3.421c-2.982,15.509-10.636,28.576-20.647,40.448c-3.861,4.579-7.872,9.03-12.09,13.855
	c13.003-6.707,25.687-12.884,38.017-19.698c16.225-8.967,29.264-20.986,33.953-39.824c1.431-5.746,2.039-11.697,3.198-18.585
	c1.778,17.66-2.844,32.412-12.562,45.859c-13.927,19.271-35.118,29.415-53.183,43.487c-0.265-0.313-0.53-0.626-0.794-0.939
	c7.509-6.422,15.019-12.843,22.528-19.265c-0.136-0.176-0.271-0.352-0.407-0.528c-3.529,1.97-7.058,3.94-10.588,5.91
	c-0.138-0.269-0.276-0.539-0.414-0.808c1.143-0.854,2.285-1.708,3.428-2.562c-17.31,6.649-34.006,14.219-45.693,29.487
	c3.454-4.399,6.578-9.115,10.424-13.14c12.389-12.962,23.573-26.695,30.214-43.606c0.601-1.531,1.048-3.123,1.567-4.686
	c-0.158-0.022-0.316-0.045-0.474-0.067c-4.875,7.417-9.751,14.835-14.626,22.252c-0.172-2.107,0.597-3.669,1.443-5.189
	c6.095-10.945,11.297-22.244,13.032-34.79c0.257-1.86-0.169-4.372-1.297-5.748c-2.273-2.771-5.247-4.968-7.598-7.099
	c-2.474,5.393-5.017,10.938-7.56,16.483c0.529-4.538,2.288-8.593,3.54-12.8c0.786-2.641,1.863-5.926,0.965-8.191
	c-2.095-5.282-5.305-10.122-8.314-15.597c-0.519,1.919-1.176,3.337-1.252,4.784c-0.866,16.388-8.787,29.176-19.71,40.844
	c-9.927,10.605-17.007,23.008-18.859,37.762c-0.465,3.708-0.07,7.524-0.07,11.291c0.482,0.02,0.964,0.04,1.446,0.06
	c2.995-14.471,9.996-26.652,19.047-35.607c-4.597,10.593-10.061,22.63-14.981,34.886c-1.348,3.358-1.066,7.37-1.532,11.081
	c0.292-0.012,0.585-0.025,0.877-0.037c3.786-6.428,7.572-12.856,11.358-19.284c0.247,0.155,0.493,0.31,0.74,0.465
	c-4.176,8.358-8.351,16.715-12.356,24.732c-6.062-16.64-11.093-33.913-2.987-51.995c7.58-7.819,15.599-15.271,22.572-23.599
	c4.029-4.812,7.635-10.718,9.15-16.708c1.913-7.563,1.502-15.714,2.094-23.611c4.237-18.938,10.602-37.514,10.318-57.329
	c0,6.288,0,12.577,0,20.141c6.037-10.509,4.818-20.578,4.938-30.764c2.035,6.028,4.069,12.055,6.102,18.078
	c7.264-3.68,7.285-3.686,5.151-11.151c-0.99-3.465-2.076-6.902-3.119-10.351c0.339-0.155,0.678-0.309,1.017-0.464
	c2.639,5.317,5.279,10.633,7.968,16.052c1.345-0.395,2.786-0.778,4.199-1.245c1.376-0.455,2.724-0.998,4.836-1.78
	c-5.287-18.753-10.785-36.782-30.439-45.602c-16.203-7.271-44.914-7.667-52.814-1.143c4.583,1.951,9.832,3.347,14.133,6.18
	c11.271,7.425,18.621,18.123,21.959,31.115c5.513,21.458,2.15,42.575-3.571,63.499c-6.156,22.516-18.32,42.296-28.525,62.971
	c-0.272-4.963-0.192-9.977-0.9-14.877c-1.067-7.391-3.004-14.661-3.992-22.059c-1.356-10.159-2.171-20.391-3.218-30.592
	c-0.119-0.046-0.238-0.093-0.357-0.139c-0.628,7.076-1.256,14.152-1.884,21.228c-0.198,0.022-0.395,0.044-0.593,0.066
	c-1.546-5.33-3.091-10.66-4.637-15.989c-0.374,0.079-0.749,0.158-1.123,0.237c2.483,11.401,4.966,22.802,7.449,34.203
	c-7.849-16.736-14.681-33.764-16.467-52.479c0.058,9.888,0.421,19.739,2.455,29.232c1.991,9.288,5.685,18.211,8.86,27.994
	c-10.09-15.946-16.043-32.904-21.98-50.115c-1.79,7.858-2.782,15.55-3.501,23.268c-1.52,16.314-6.07,31.237-17.924,43.366
	c-3.046,3.116-5.647,7.193-7.04,11.307c-6.15,18.162-13.491,35.753-22.644,52.617c-1.098,2.023-1.033,5.135-0.477,7.5
	c1.136,4.831,3.206,9.436,4.482,14.243c5.516,20.783-3.378,35.706-24.184,40.603c-7.842,1.846-15.648,3.92-21.727,9.451
	c-20.942,19.055-42.245,37.802-57.644,62.025c-2.25,3.539-4.697,6.953-7.052,10.424c9.118-19.539,19.426-38.463,23.649-59.909
	c-1.569,3.025-3.138,6.049-5.126,9.883c2.882-13.082,5.536-25.128,8.19-37.175c-0.394-0.09-0.788-0.18-1.182-0.27
	c-2.496,8.658-4.993,17.315-7.719,26.772c1.897-13.596,3.669-26.303,5.442-39.009c-0.567-0.094-1.134-0.188-1.701-0.283
	c-0.446,2.057-0.852,4.125-1.343,6.171c-8.654,36.021-21.11,70.411-44.04,100.108c-8.239,10.67-17.452,20.59-25.639,31.297
	c-5.558,7.269-10.103,15.314-15.1,23.011c0.314,0.183,0.628,0.366,0.942,0.549c8.553-10.176,17.105-20.351,25.658-30.527
	c-8.201,15.614-19.468,29.305-24.674,46.435c3.962-5.66,7.924-11.319,11.885-16.979c0.373,0.193,0.746,0.386,1.12,0.579
	c0,4.08,0,8.161,0,12.241c0.661-0.532,0.713-1.032,0.881-1.49c0.094-0.255,0.38-0.438,0.772-0.862
	c-0.671,13.527-3.568,25.306-18.879,29.613c0.416,0.423,0.833,0.847,1.249,1.27c5.05-1.996,10.101-3.993,15.151-5.989
	c-0.9,7.215-2.182,14.406-2.626,21.649c-1.097,17.895,5.801,31.494,21.715,40.652c9.918,5.708,11.58,17.002,4.843,26.303
	c-4.218,5.823-11.509,6.665-17.002,2.07c-1.503-1.257-3.347-3.178-4.903-3.06c-2.633,0.2-5.815,1.192-7.462,3.024
	c-0.85,0.945,0.406,5.332,1.965,6.528c2.307,1.77,5.979,3.315,8.631,2.779c7.054-1.425,14.29-3.178,20.672-6.364
	c7.073-3.531,9.643-11.554,7.856-19.372c-1.582-6.924-5.891-11.78-12.029-15.139c-12.118-6.63-19.686-16.679-20.36-30.541
	c-0.406-8.353,1.294-16.803,1.946-25.217c0.118-1.526-0.255-3.089-0.401-4.636c1.374-0.751,2.749-1.502,4.104-2.232
	c-3.255,10.181-4.528,20.595-4.665,32.393c8.733-9.835,10.382-24.321,4.552-32.275c1.667-1.058,3.312-2.151,5.003-3.167
	c9.089-5.461,18.488-10.667,17.432-23.633c-0.159-1.951-0.022-3.926-0.022-7.261c-3.013,4.53-5.192,7.861-7.429,11.152
	c-2.15,3.163-4.205,6.408-6.586,9.391c-2.373,2.972-5.098,5.663-7.668,8.477c-0.458-0.332-0.917-0.665-1.375-0.997
	c7.241-12.275,14.198-24.732,21.851-36.745c3.493-5.483,4.707-11.289,5.241-17.393c0.457-5.223,4.097-11.592,8.983-14.464
	c-9.361,12.471-11.163,25.945-5.424,40.448c0.323,0.817,0.648,1.971,0.32,2.656c-2.855,5.954-5.531,12.035-8.957,17.654
	c-1.678,2.752-2.235,4.774,0.014,6.998c6.259,6.187,12.573,12.321,18.999,18.333c0.749,0.7,2.333,0.507,3.53,0.729
	c-2.71,4.306-6.137,8.325-8.002,12.97c-6.77,16.86-4.624,33.54,2.064,49.975c2.565,6.302,5.285,12.591,7.171,19.107
	c2.667,9.216,2.512,18.516-2.492,27.067c-4.871,8.326-13.826,9.635-20.463,2.654c-2.815-2.961-4.174-7.307-5.979-10.627
	c-2.608,4.985-1.633,10.599,3.116,14.846c6.918,6.187,18.009,5.696,24.344-1.109c5.354-5.752,7.537-12.842,6.26-20.304
	c-1.56-9.119-4.048-18.116-6.661-27.012c-6.313-21.491-4.354-42.04,6.304-61.725c0.774-1.43,2.206-2.505,3.332-3.745
	c0.332,0.287,0.664,0.573,0.996,0.86c-0.665,1.427-1.33,2.853-1.699,3.647c3.961,7.017,7.637,13.529,11.383,20.166
	c1.503-9.629,4.597-18.344,11.876-25.137c-7.826,9.528-10.224,20.898-11.501,32.691c-0.275,2.538-1.105,5.016-1.68,7.517
	c1.499-9.841-5.992-24.31-14.262-27.32c4.789,9.17,9.527,18.242,14.264,27.314c0.173,1.596,0.444,3.188,0.501,4.787
	c0.219,6.15-0.417,12.445,0.676,18.429c5.951,32.596,25.222,55.191,54.474,69.381c14.566,7.066,30.196,9.226,46.147,4.534
	c27.999-8.235,37.567-42.71,17.452-62.643c-8.305-8.23-21.002-10.39-30.329-5.159c-5.782,3.242-8.387,8.637-7.282,13.721
	c3.552-2.236,7.087-5.391,11.222-6.877c9.348-3.36,21.863,1.222,28.064,9.482c9.539,12.706,6.251,30.577-7.693,40.933
	c-14.102,10.473-29.788,10.138-45.246,4.717c-27.915-9.789-46.12-30.004-57.501-56.81c-1.27-2.991-2.18-6.135-3.257-9.209
	c8.947,16.564,19.639,31.415,35.031,42.56c-14.205-17.001-20.877-36.772-22.292-58.568c-1.411-21.735,1.653-42.177,17.331-59.04
	c-0.424-0.249-0.849-0.498-1.273-0.746c-5.484,7.108-10.968,14.215-15.935,20.653c2.32-10.746,8.986-19.993,20.603-28.413
	c5.516-3.998,11.259-7.841,16.112-12.564c10.269-9.994,10.08-27.172,0.384-37.699c0.487,3.031,1.02,6.354,1.554,9.676
	c-0.28,0.051-0.56,0.101-0.839,0.152c-0.24-0.951-0.481-1.901-0.807-3.19c-0.454,0.973-0.714,1.532-1.067,2.287
	c-0.742-1.209-1.409-2.297-2.75-4.482c0.566,2.829,0.877,4.382,1.188,5.935c-4.697-7.527-8.648-15.431-16.615-20.291
	c1.176,4.339,3.527,8.048,5.036,12.073c1.615,4.309,2.956,8.859,3.451,13.409c0.45,4.126-0.399,8.393-0.675,12.597
	c-1.042-1.889-0.907-3.706-0.87-5.526c0.209-10.105-3.561-18.424-11.101-25.151c-2.351-2.098-4.379-2.545-5.979,0.482
	c-2.953,5.582-5.698,11.274-8.51,16.881c1.716-5.91,3.488-12.016,5.21-17.95c-0.281,0.118-0.945,0.396-2.837,1.187
	c3.394-4.473,6.078-8.009,9.237-12.172c-8.191,3.077-11.432,9.603-15.13,16.45c0.612-7.239,2.298-10.64,9.226-19.182
	c-12.015,3.03-15.861,8.832-13.881,20.945c-0.754-2.069-1.507-4.139-2.304-6.326c-11.203,2.888-22.072,6.544-29.589,16.078
	c-2.071,2.626-3.057,6.108-4.802,9.739c-1.124-1.923-2.931-4.226-3.9-6.839c-1.959-5.28,0.716-9.811,3.43-13.972
	c7.576-11.617,19.274-16.872,32.156-20.101c9.476-2.375,19.044-4.422,28.428-7.11c5.493-1.573,5.368-2.01,4.472-6.893
	c-9.495,1.587-18.97,3.172-28.445,4.756c-0.087-0.515-0.173-1.029-0.26-1.544c1.068-0.181,2.137-0.363,4.344-0.738
	c-3.983-0.333-6.714-0.561-9.446-0.789c6.686-0.852,13.355-0.962,19.967-1.633c4.068-0.413,8.106-1.495,12.033-2.687
	c1.188-0.361,1.96-2.093,2.922-3.197c-3.295,0.331-5.697,1.453-8.149,2.454c-3.856,1.574-7.639,2.39-11.068-1.076
	c-3.598-3.636-4.461-8.104-2.319-12.376c2.023-4.035,5.289-7.446,8.008-11.132c0.308,0.686,0.616,1.372,0.924,2.058
	c-4.756,3.857-8.866,8.003-8.059,14.93c0.714,6.133,5.193,9.123,10.865,6.882c4.832-1.908,9.32-4.343,11.551-9.474
	c-0.312,1.96-0.744,3.91-0.916,5.883c-0.716,8.219-0.276,16.189,5.436,22.892c4.536,7.238,11.91,8.367,19.466,8.821
	c3.85,0.231,5.531-1.523,6.794-5.747c2.605-8.711,6.71-16.972,9.911-24.724c-2.433,10.394-5.819,21.196-7.342,32.256
	c-2.086,15.151,8.078,36.693,28.712,37.658c1.094,0.051,2.174,0.395,4.372,0.816c-8.786,1.289-16.911-0.369-22.268-4.539
	c-11.346-8.833-14.757-21.168-14.644-35.119c-2.418,0.231-4.467,0.426-7.986,0.762c2.659,9.251,4.163,18.033,7.659,25.934
	c8.253,18.649,27.776,24.635,45.451,14.285c13.79-8.075,29.152-14.045,39.05-27.661c-3.296,4.048-5.845,9.267-10.024,11.929
	c-13.772,8.773-26.234,18.989-38.734,29.467c-13.578,11.382-30.505,18.722-41.006,34.081c4.572-14.737,11.832-27.961,20.308-40.603
	c-12.803,10.531-21.842,23.663-26.508,39.511c-3.331,11.314-6.142,22.802-8.649,34.329c-2.328,10.707-1.962,21.531,0.77,32.185
	c4.098,15.976,21.227,30.38,36.613,30.803c-21.764-9.239-28.693-26.944-27.892-48.834c0.429-11.724,4.516-22.467,10.613-32.381
	c12.974-21.099,31.215-36.669,53.8-46.021c12.864-5.327,27.162-7.331,40.93-10.294c17.332-3.73,34.49-7.849,49.088-18.527
	c5.444-3.982,10.181-8.93,15.24-13.438c-0.339-0.374-0.678-0.749-1.017-1.123c-3.766,2.638-7.45,5.404-11.312,7.894
	c-27.478,17.72-59.554,20.474-90.352,27.471c5.871-2.71,11.785-5.358,17.921-7.299c19.769-6.252,39.134-13.206,54.916-27.428
	c2.387-2.151,5.028-4.021,7.551-6.021c0.151,0.181,0.302,0.362,0.453,0.542c-3.192,3.357-6.384,6.714-10.538,11.083
	c13.156-3.405,20.413-13.472,30.785-18.747c6.677-3.396,11.365-10.602,17.151-15.874c13.303-12.119,28.136-19.974,46.985-15.996
	c-19.755-1.157-34.247,7.587-44.844,23.706c-2.378,3.617-5.029,7.073-7.165,10.825c-11.622,20.419-29.069,34.114-50.464,42.752
	c-13.225,5.34-26.912,9.571-40.498,13.972c-16.467,5.334-27.158,16.128-30.501,33.074c-1.387,7.029-1.454,14.665-0.393,21.767
	c3.204,21.444,20.618,47.636,53.086,43.363c14.88-1.958,25.869-10.741,29.398-24.616c4.047-15.906-1.34-32.624-13.125-40.733
	c-9.288-6.391-20.551-6.037-28.212,1.119c0.887-0.078,1.515-0.053,2.103-0.197c14.399-3.521,27.452,3.915,31.955,18.221
	c3.7,11.753-1.266,26.238-11.752,34.277c-11.097,8.508-26.557,9.85-36.975,3.211c-11.667-7.435-17.225-20.977-14.124-34.673
	c4.141-18.286,15.521-31.295,30.522-41.646c3.37-2.325,6.679-4.739,10.016-7.113L491.429,711.225z M362.117,220.449
	c5.336,1.693,10.671,3.386,16.007,5.079c0.091-0.251,0.181-0.501,0.272-0.752c-1.524-0.684-3.048-1.368-4.572-2.052
	c0.072-0.183,0.144-0.366,0.216-0.549c2.475,0.234,4.95,0.467,7.425,0.701c-17.717-6.33-32.792-16.626-47.29-28.146
	c3.491,4.546,6.982,9.092,10.474,13.639c-2.168-1.999-4.563-3.804-6.462-6.032c-5.71-6.698-11.315-13.491-16.772-20.396
	c-1.934-2.447-3.77-3.103-6.814-2.094c-17.906,5.934-29.725,18.221-36.982,35.22c-1.004,2.352-1.214,5.201-1.181,7.812
	c0.138,10.966,0.712,21.929,0.699,32.893c-0.006,4.889,1.571,8.701,5.03,11.929c4.467,4.169,8.927,8.346,13.389,12.52
	c-0.985-0.543-1.919-1.381-2.967-1.562c-1.604-0.277-3.607-0.662-4.841,0.046c-1.123,0.644-2.167,2.838-1.903,4.059
	c0.228,1.054,2.246,1.989,3.646,2.466c2.853,0.973,5.823,1.602,8.966,2.431c0-1.442,0-2.566,0-3.689
	c0.467,2.75,1.967,5.82,1.23,8.198c-4.237,13.684-9.467,26.958-18.371,38.475c-5.655,7.315-4.42,12.636,4.067,16.559
	c5.062,2.34,10.503,3.861,16.005,5.832c0.397,6.102,2.045,12.592-5.475,17.051c4.225,1.948,7.483,4.393,11.021,4.903
	c10.413,1.501,20.931,2.296,31.425,3.175c1.025,0.086,2.16-1.152,3.881-2.14c1.208,0.724,3.396,2.034,5.583,3.345
	c-6.534,1.57-12.918,1.937-19.237,2.782c-6.738,0.901-13.459,2.054-20.103,3.488c-3.709,0.8-5.518,5.7-3.019,7.594
	c4.062,3.079,8.342,5.504,13.749,2.498c3.702-2.058,7.702-3.579,11.569-5.34c0.092,0.2,0.184,0.401,0.276,0.601
	c-3.927,2.805-7.855,5.609-12.318,8.797c3.645,1.772,6.368,3.095,9.975,4.848c-6.18,0.916-9.273,3.804-10.148,8.81
	c-2.715,15.538,5.91,25.731,21.669,25.626c2.152-0.014,4.38-0.062,6.442-0.599c32.764-8.536,62.763-22.889,89.478-43.699
	c9.34-7.276,15.076-17.226,16.62-29.222c0.679-5.278,1.083-10.592,1.794-15.865c0.931-6.912,1.698-13.874,3.172-20.676
	c1.464-6.758,6.075-11.125,10.85-12.017c-2.257,2.177-4.942,4.767-7.627,7.356c0.3,0.473,0.601,0.946,0.901,1.419
	c1.807-0.506,3.762-0.727,5.393-1.572c4.42-2.291,9.03-4.416,12.967-7.396c6.609-5.002,12.871-10.485,19.029-16.043
	c2.029-1.831,3.709-4.513,0.336-7.023c-0.973,0.709-1.808,1.317-2.904,2.116c0.887-7.767-6.507-17.049-13.197-17.823
	c1.518,4.063,3.236,8.352,4.713,12.722c0.978,2.894,0.229,5.094-2.969,6.317c-3.417,1.307-6.688,2.994-10.022,4.515
	c-0.103-0.13-0.206-0.26-0.308-0.391c2.385-2.215,4.77-4.43,7.386-6.859c-9.424,0.654-11.216,8.957-15.199,14.842
	c-4.732-3.984-4.849-8.797-0.676-12.537c5.131-4.598,4.436-9.542-2.128-11.788c-7.297-2.497-14.837-4.283-21.551-6.176
	c1.224,10.022,3.104,20.303,3.57,30.648c0.482,10.708-2.559,20.767-9.767,30.487c0.163-1.665,0.083-2.194,0.273-2.595
	c7.568-15.984,6.948-32.37,1.593-48.64c-3.086-9.376-6.305-18.81-15.51-24.816c-11.659-7.607-21.851-17.019-29.073-29.102
	c-2.562-4.286-4.953-7.289-10.63-6.846c-3.351,0.262-6.981-0.799-10.222-1.986C369.199,224.442,365.721,222.274,362.117,220.449z
	 M204.341,306.506c0.247-0.475,0.494-0.95,0.741-1.425c-3.673-2.004-7.142-4.673-11.061-5.879
	c-9.056-2.789-18.197-1.593-26.944,1.617c-32.078,11.77-52.141,35.176-63.573,66.632c-3.861,10.624-6.162,21.64-6.322,33.447
	c14.911,0.224,24.773,7.937,31.135,20.281c6.402,12.423,6.629,25.091-0.312,37.802c3.156-2.884,6.077-5.823,8.186-9.26
	c3.833-6.247,3.493-13.353,3.307-20.378c-0.161-6.071-1.153-12.447,5.163-16.866c-1.719-0.002-3.192,0.003-4.137,0.71
	c-4.007,2.999-6.456,0.646-8.552-2.404c-1.106-1.609-2.314-3.55-2.396-5.389c-0.285-6.407-1.067-13.016,0.089-19.222
	c3.64-19.551,14.062-35.191,29.818-48.212c-1.248,5.232-2.627,9.66-3.325,14.193c-2.136,13.869,7.1,23.406,20.99,22.027
	c3.912-0.388,5.132-1.667,3.532-5.783c-4.648-11.957-6.268-24.436-5.182-37.235C176.968,313.83,187.999,304.416,204.341,306.506z
	 M615.06,441.532c-13.11,15.934-26.164,31.801-39.218,47.667c4.722-9.958,5.861-20.254,3.118-31.929
	c-1.796,5.842-2.853,11.04-4.942,15.784c-11.826,26.86-32.751,44.255-59.065,55.835c-6.333,2.787-6.822,3.742-3.786,10.134
	c28.978-7.363,67.151-25.912,88.707-43.106C617.572,481.802,623.309,461.415,615.06,441.532z M231.883,426.676
	c-1.641-1.12-3.077-1.906-4.284-2.956c-6-5.215-12.366-10.102-17.771-15.883c-4.512-4.826-3.507-12.078,1.364-16.583
	c4.395-4.064,9.546-6.238,15.54-4.065c6.672,2.418,10.184,7.641,11.858,14.332c1.174,4.69-0.225,8.138-4.559,10.392
	c-2.241,1.166-4.419,2.452-6.897,3.836c3.264,0.826,6.179,1.113,8.652,2.313c2.575,1.249,4.722,3.38,7.365,5.356
	c2.599-4.014,4.82-7.912,7.532-11.43c1.317-1.708,3.388-3.403,5.411-3.892c5.587-1.349,8.776-4.964,8.992-12.147
	c-6.242,1.365-12.279,2.685-18.674,4.084c-3.18-11.102-9.996-19.291-22.433-21.908c0.784-2.324,1.628-4.272,2.092-6.307
	c1.615-7.08,2.367-15.255-3.669-19.551c-8.24-5.865-10.855-13.605-13.67-22.422c-3.159-9.895-13.802-13.034-21.363-7.379
	c-6.223,4.654-7.84,11.331-7.415,18.855c3.562-6.527,7.738-12.027,16.188-10.459c4.89,0.907,7.88,5.408,8.564,11.922
	c-13.522,1.662-20.385,6.835-21.801,17.731c-0.645,4.962-0.394,10.467,1.097,15.208c6.526,20.756,19.167,37.354,35.955,51.055
	C224.151,430.199,227.538,429.688,231.883,426.676z M416.639,835.5c-13.57-0.142-26.037-3.475-36.685-12.206
	c-23.198-19.022-31.927-53.272-20.79-81.65c7.547-19.231,19.731-35.359,33.756-50.25c1.324-1.406,2.417-3.028,4.466-5.626
	c-2.049,0.641-2.584,0.671-2.939,0.94c-5.175,3.916-10.467,7.694-15.461,11.832c-27.718,22.968-38.358,52.272-30.243,87.312
	C356.099,817.607,385.904,838.831,416.639,835.5z M369.731,624.825c1.731-12.439,6.16-23.478,16.792-31.039
	c6.905-4.91,14.066-9.507,21.388-13.769c5.934-3.454,12.279-6.202,18.441-9.263c-13.675,3.572-27.406,7.003-39.41,14.802
	c-10.593,6.882-18.113,16.274-20.788,28.787c-1.654,7.737-1.12,15.396,4.984,22.34c-1.093-5.294-2.035-9.858-2.977-14.422
	c0.317-0.064,0.634-0.128,0.951-0.192C369.318,622.987,369.525,623.906,369.731,624.825z M191.086,553.652
	c-5.743,0.033-10.735,2.594-13.374,6.742c-3.356,5.276-1.273,10.066,4.682,11.823c5.584,1.648,9.481-1.347,13.759-3.886
	c3.688-2.189,7.686-4.254,6.043-9.406c-1.457-4.569-5.95-4.61-9.855-5.19C191.851,553.663,191.35,553.668,191.086,553.652z
	 M593.373,602.232c25.951-7.476,49.151-6.869,66.877,16.673C652.552,590.107,618.628,586.015,593.373,602.232z M463.192,744.089
	c-1.109,4.305-2.616,8.552-3.26,12.925c-2.909,19.75,10.59,34.948,30.393,34.237c4.994-0.179,9.287-2.366,13.673-7.071
	C479.175,794.879,457.106,771.253,463.192,744.089z M549.097,481.033c-15.407,8.219-25.174,21.386-32.257,36.887
	C532.106,509.633,542.123,496.703,549.097,481.033z M270.887,358.404c1.955-12.471,3.915-24.943-0.77-37.199
	c-5.233-13.692-10.68-27.302-15.635-39.928c-0.351,10.056,2.449,20.815,6.318,31.249C266.304,327.37,271.62,342.182,270.887,358.404
	z M536.934,508.769c13.895-8.466,28.096-28.485,30.081-41.074c-3.648,3.249-9.703,6.262-11.848,11.032
	C550.282,489.594,544.703,499.759,536.934,508.769z M268.892,192.381c19.777-20.351,33.913-21.263,56.902-17.732
	c2.627,0.404,5.284,0.636,7.934,0.867c2.453,0.215,4.915,0.322,7.373,0.477c0.04-0.556,0.079-1.113,0.119-1.669
	c-12.352-1.097-24.713-3.166-37.053-3.043C288.807,171.434,277.707,180.423,268.892,192.381z M288.03,292.646
	c-6.893-0.369-12.961-0.695-19.284-1.034C275.934,298.889,277.621,299.001,288.03,292.646z M522.416,347.059
	c3.235-14.855,3.419-29.773,0-44.252C522.416,317.237,522.416,332.092,522.416,347.059z M487.155,792.955
	c-4.481-0.982-9.534-1.395-13.978-3.259c-4.463-1.871-8.32-5.188-13.126-8.316C467.289,791.44,476.489,794.545,487.155,792.955z"/>
<path d="M737.266,500.565c-2.02-2.188-4.039-4.375-6.059-6.563c1.276,0.852,2.552,1.704,3.975,2.655
	c0.334-2.045,0.597-3.685,0.871-5.322c3.992-23.836-0.267-45.867-15.659-64.822c-8.05-9.914-17.34-18.826-26.113-28.149
	c-8.197-8.712-16.493-17.331-24.634-26.094c-1.202-1.294-2.449-3.12-2.545-4.765c-0.365-6.28,5.935-13.073,12.44-14.211
	c1.408-0.246,2.651-1.429,3.971-2.18c6.432,11.004,7.657,22.885,5.073,35.074c-0.8,3.772,0.179,5.481,3.509,7.279
	c4.06-12.215,5.198-24.511,1.659-36.445c-3.327-11.217-7.305-22.612-13.212-32.621c-15.68-26.564-26.446-55.087-36.361-84.056
	c-0.392-1.146-0.877-2.261-1.508-3.875c-2.127,8.364-1.33,19.706,2.378,36.054c-8.519-6.953-11.274-16.379-12.823-26.926
	c-2.029,13.761,3.217,30.268,16.656,52.668c-12.575-8.69-19.515-19.962-21.405-34.426c-1.998-15.298,1.773-29.666,6.522-43.991
	c5.171-15.596,9.8-31.371,14.857-47.006c1.213-3.749-0.242-5.261-3.859-6.147c-4.912,11.703-9.827,23.415-15.32,36.502
	c-0.605-3.73-0.985-6.069-1.365-8.409c-0.319-0.166-0.639-0.333-0.958-0.499c-5.975,11.924-11.949,23.849-18.563,37.049
	c0.709-5.234,1.229-9.074,1.784-13.173c-6.438,0.983-9.754,4.85-12.163,9.857c-0.922,1.916-1.998,3.757-3.005,5.632
	c0.772-2.949,1.544-5.898,2.434-9.299c-2.686,0.77-4.86,1.393-8.164,2.341c1.042,5.121,2.051,10.075,3.059,15.029
	c0.54,3.222,1.08,6.445,1.698,10.133c-2.707-4.874-5.169-9.309-7.954-14.324c-1.086,1.463-1.779,2.397-2.475,3.333
	c-0.202-0.177-0.466-0.342-0.643-0.573c-12.193-15.962-28.838-23.872-48.24-27.169c-15.371-2.612-29.514-0.172-43.297,7.32
	c-15.612,8.486-29.06,8.931-46.117,3.017c1.515-0.299,2.522-0.498,3.519-0.694c-4.524-2.54-8.977-5.04-13.429-7.54
	c0.117-0.433,0.235-0.865,0.352-1.298c13.605,7.499,27.628,9.297,42.593,3.74c-9.628-4.061-16.646-10.55-20.869-19.841
	c-1.827-4.02-4.978-0.963-7.427-1.59c2.607-0.755,5.179-1.705,7.835-2.197c1.776-0.329,4.097-0.695,5.445,0.138
	c7.408,4.576,14.591,9.516,22.078,14.482c0.974-1.449,1.625-2.418,1.942-2.889c1.77,2.868,3.562,5.772,5.354,8.676
	c0.486-0.182,0.973-0.363,1.459-0.545c0.453-2.754,0.906-5.509,1.356-8.244c0.506,1.135,1.042,2.339,1.385,3.109
	c5.029-2.926,9.919-5.397,14.387-8.479c4.199-2.897,8.429-6.017,11.785-9.801c4.508-5.083,5.727-11.54,4.264-16.187
	c-5.705,9.21-14.807,13.341-25.328,17.223c1.289-1.489,1.908-2.203,2.765-3.193c-4.819,0.327-10.012,1.729-10.771-5.554
	c-1.307,0.91-2.492,1.294-2.853,2.065c-1.296,2.767-2.314,5.664-3.981,9.891c0.247-3.128,0.382-4.829,0.514-6.503
	c-14.08-2.193-20.354-8.374-22.305-22.003c-0.988-6.901-0.21-13.584,3.067-19.896c4.28-8.245,11.164-12.735,20.918-13.602
	c-2.97-2.854-7.53-1.95-14.222,1.906c-12.995,7.487-20.525,27.748-16.335,43.956c-0.759-3.558-2.097-7.109-2.136-10.675
	c-0.052-4.788,0.898-9.587,1.453-14.7c-5.345,2.589-7.366,6.024-7.842,12.815c0.815-1.341,1.527-2.511,1.466-2.411
	c2.276,6.191,4.741,12.9,7.207,19.608c-0.476,0.643-0.971,1.856-1.424,1.84c-5.073-0.175-10.139-0.54-15.512-0.873
	c0-4.518-0.614-8.619,0.141-12.451c1.198-6.089,2.005-12.865,5.293-17.811c8.13-12.231,19.828-20.466,34.064-24.693
	c3.607-1.071,7.836-1.13,7.584-6.866c0.523,1.11,0.733,1.896,0.664,2.657c-0.398,4.415,0.223,7.923,5.883,8.02
	c0.713,0.012,1.848,1.621,1.997,2.609c0.265,1.763-0.074,3.616-0.164,5.416c-0.593-2.373-1.182-4.731-2.121-8.491
	c-2.657,1.604-5.712,2.409-6.685,4.291c-1.3,2.516-0.393,5.486,3.024,6.83c0.738,0.29,1.468,1.805,1.41,2.704
	c-0.208,3.218-0.756,6.413-1.162,9.516c-3.673,0-6.592,0-11.101,0c4.754,6.952,3.097,13.978,3.368,21.142
	c1.906-1.594,3.68-3.077,5.365-4.486c2.297,1.752,1.873,6.216,6.494,3.793c7.898-4.141,8.093-3.895,6.159-10.018
	c1.922-3.288,4.857-5.978,4.531-8.189c-0.944-6.41-6.847-1.936-10.784-3.785c0.489-4.393,0.992-8.907,1.494-13.42
	c0.685-0.167,1.454-0.625,2.044-0.457c7.915,2.256,13.208,7.527,14.429,15.502c1.287,8.41,1.229,17.026,1.73,25.09
	c7.968-4.867,11.52-12.654,9.688-22.414c-0.273-1.455-0.243-2.967-0.352-4.453c1.053,3.135,2.106,6.27,3.492,10.394
	c1.037-4.754,1.831-8.398,2.682-12.303c-2.189-0.517-3.933-0.958-5.7-1.27c-0.098-0.017-0.385,1.039-0.584,1.596
	c-0.864-1.112-2.008-2.103-2.549-3.355c-4.789-11.093-12.442-18.302-25.665-18.713c0.504-4.926,0.981-9.59,1.544-15.096
	c6.473,0.793,12.295,1.507,18.117,2.221c-4.296-0.234-8.607-0.317-12.883-0.747c-3.699-0.372-5.068,1.676-5.464,4.75
	c-0.247,1.916-0.046,3.889-0.046,5.177c5.527,2.067,10.937,3.152,15.217,5.959c4.146,2.719,8.401,3.357,12.924,4.342
	c8.285,1.806,16.182,2.366,23.506-2.908c0.518-0.373,1.327-0.341,2-0.497c-9.307-5.624-18.855-10.083-28.377-14.599
	c-0.963-0.456-1.767-1.247-2.645-1.882c10.745,2.919,21.14,6.599,30.719,12.493c5.075,3.123,7.213,2.906,11.219,0.841
	c-12.357-6.022-21.367-13.223-22.89-18.643c2.421,2.17,4.556,4.083,6.692,5.997c0.144-0.137,0.289-0.273,0.433-0.41
	c-1.812-2.941-3.624-5.882-5.436-8.823c0.163-0.093,0.327-0.185,0.49-0.278c2.647,2.951,5.294,5.902,7.941,8.853
	c4.366,2.605,8.732,5.211,13.098,7.816c7.467,2.627,15.012,2.678,22.614,0.697c-8.404,2.727-16.672,7.186-25.227,7.833
	c-22.488,1.702-31.41,21.317-30.455,38.962c0.807,14.912-4.256,26.665-16.292,35.438c-1.589,1.158-3.239,2.232-4.861,3.346
	c6.388-0.306,13.197-0.056,17.961-3.055c4.708-2.964,7.35-9.212,10.149-13.004c8.123,7.258,16.863,15.617,26.192,23.256
	c10.451,8.558,22.283,5.899,33.946,2.41c-3.05,0-6.101,0-9.151,0c-0.003-0.136-0.007-0.272-0.01-0.408
	c3.874-0.685,7.747-1.37,11.621-2.055c-4.807-1.031-9.625-0.881-13.938-2.285c-9.426-3.068-18.595-6.925-27.869-10.461
	c-17.204-6.56-23.206-21.898-15.225-38.894c-1.508,9.288-2.174,18.468,2.474,26.905c2.014-6.936,3.96-13.637,5.905-20.337
	c-0.322,6.035-2,11.712-3.069,17.5c-1.115,6.037,1.01,8.93,7.03,10.901c-1.301-18.475,2.71-35.871,17.294-47.714
	c14.49-11.767,31.851-14.782,49.032-6.687c1.5-3.018,2.842-5.718,4.183-8.418c-0.548,2.21-1.288,4.397-1.558,6.64
	c-0.127,1.056,0.549,3.1,1.044,3.159c1.175,0.14,2.652-0.376,3.652-1.11c1.276-0.937,2.203-2.35,3.281-3.558
	c-1.451,4.122-3.025,8.146-8.033,9.335c6.238,5.832,13.282,9.193,21.234,11.089c7.459,1.779,8.728,1.466,12.659-5.239
	c-3.154-0.409-6.515-0.844-9.877-1.28c2.26-1.015,4.535-0.5,6.363-1.183c1.389-0.519,3.425-3.126,3.094-3.837
	c-3.299-7.085-1.654-16.879-10.935-21.059c2.533,0.371,5.066,0.742,7.6,1.113c0.048-0.445,0.096-0.89,0.145-1.335
	c-13.782-3.512-27.833-4.295-42.08-3.165c6.581,0.419,13.162,0.838,19.742,1.257c-0.036,0.456-0.073,0.913-0.109,1.369
	c-1.617-0.154-3.236-0.294-4.851-0.467c-1.812-0.194-3.624-0.616-5.432-0.597c-24.81,0.271-45.461,9.774-62.149,28.073
	c-4.736,5.193-9.593,10.276-14.374,15.388c-0.887-2.468-1.636-4.552-2.385-6.635c1.312-5.264,2.58-9.88,8.642-12.64
	c7.179-3.268,13.234-8.915,20.201-12.762c8.984-4.962,18.207-9.592,27.658-13.582c12.143-5.127,24.806-3.389,37.376-1.391
	c5.224,0.831,10.905,2.354,15.039-2.311c6.044-6.818,11.617-14.054,17.391-21.112c-0.38-0.324-0.76-0.648-1.139-0.972
	c-1.19,0.834-2.358,1.702-3.574,2.496c-11.877,7.752-24.864,12.47-38.903,14.468c-10.501,1.494-20.974,3.193-31.444,4.894
	c-2.736,0.445-5.416,1.239-8.121,1.873c1.772-0.918,3.544-1.836,6.225-3.224c-14.198-1.499-26.016-6.302-35.35-16.35
	c1.117,0.565,2.234,1.13,3.368,1.703c-0.154-2.422-0.287-4.506-0.42-6.591c2.258,9.798,11.635,17.233,23.829,18.078
	c-1.221-6.761-2.48-13.42-3.618-20.1c-1.791-10.522-6.918-18.068-17.702-21.204c-6.406-1.863-10.66-6.615-13.821-12.29
	c-2.02-3.627-3.793-7.395-5.601-11.137c-6.957-14.396-17.583-24.815-32.619-30.671c-8.032-3.128-15.914-3.397-23.663,0.513
	c-6.376,3.217-12.507,6.929-18.928,10.048c-4.299,2.088-8.806,3.944-13.419,5.137c-5.082,1.315-10.391,1.753-15.547,2.565
	c0.627-0.506,1.441-1.162,2.595-2.091c-2.64,0.194-4.696,0.345-6.961,0.511c1.232-1.75,2.239-3.182,3.308-4.702
	c-9.605-2.252-19.051-2.001-27.618,3.059c-7.414,4.38-14.347,9.585-21.414,14.538c-7.065,4.953-13.567,10.937-21.139,14.892
	c-15.844,8.276-32.23,15.515-47.455,22.736c-0.07-0.62,0.176-2.822-0.601-4.568c-4.671-10.504-12.71-17.855-23.707-20.53
	c-31.939-7.769-59.541,1.177-81.396,25.116c-14.684,16.085-18.867,35.82-12.715,57.199c-0.995-0.854-1.991-1.708-2.972-2.55
	c-8.124,6.193-5.39,24.505,1.148,32.011c4.964,5.699,15.335,8.709,22.116,5.507c1.603-0.757,2.522-2.962,3.756-4.502
	c0.312,0.593,1.035,1.348,0.874,1.754c-2.49,6.301-5.095,12.557-7.523,18.457c-0.071-0.567-0.219-1.762-0.384-3.086
	c-7.889,4.786-15.477,9.663-25.237,8.035c-1.213-0.202-3.063,1.03-4.031,2.12c-7.859,8.845-17.96,10.935-29.081,9.743
	c-7.905-0.847-12.035-6.878-10.023-14.582c2.231-8.547,7.775-14.564,15.383-18.745c8.38-4.606,15.127-3.916,22.617,2.114
	c0.97,0.781,2.012,1.471,3.313,2.415c-2.008-8.587-10.486-16.25-17.131-15.036c-15.544,2.84-29.962,14.499-34.009,28.382
	c-3.246,11.137,2.232,21.331,13.546,23.662c5.412,1.115,11.54,1.525,16.787,0.141c13.933-3.676,27.564-8.496,41.311-12.873
	c3.78-1.203,7.382-2.582,6.142-7.011c0.78,3.735,1.701,8.148,2.735,13.099c2.646-1.414,4.332-2.315,6.018-3.216
	c-0.246-0.072-0.492-0.143-0.738-0.215c-4.196,5.893-8.392,11.786-12.587,17.679c-0.052-0.664-0.104-1.327-0.22-2.795
	c-37.331,13.915-74.73,26.928-108.628,48.883c4.579-5.634,8.758-11.665,13.845-16.794c5.359-5.403,11.3-10.348,17.515-14.746
	c6.022-4.262,12.716-7.576,18.754-11.096c-6.612-1.771-13.282-3.558-21.409-5.735c-11.489,7.943-23.255,18.577-31.987,31.911
	c-12.844,19.614-24.865,39.767-37.223,59.699c-0.958,1.545-1.812,3.155-3.379,4.488c1.013-2.795,2.029-5.59,3.038-8.386
	c13.085-36.281,29.065-71.097,51.761-102.528c21.879-30.3,47.05-57.453,76.793-80.212c3.324-2.543,5.585-5.299,5.926-9.73
	c0.301-3.909,1.446-7.754,2.416-12.619c-7.152,5.551-13.835,10.492-20.252,15.756C106.991,188.199,58.794,264.011,41.19,357.566
	c-18.175,96.59-3.077,188.041,47.747,272.878c1.347,2.248,3.629,3.937,5.474,5.886c1.34-2.386,2.847-4.695,3.976-7.176
	c1.35-2.966,1.444-5.686-0.517-8.878c-21.808-35.506-36.24-73.899-44.303-114.732c-0.35-1.773-0.684-3.549-0.323-5.609
	c0.751,1.672,1.501,3.344,2.253,5.015c10.313,22.896,20.158,46.033,35.398,66.309c9.117,12.13,20.401,21.909,32.737,30.554
	c1.015,0.711,2.733,0.956,3.984,0.708c7.269-1.441,14.495-3.095,21.909-4.714c-0.744-0.519-2.042-1.543-3.448-2.386
	c-7.56-4.534-15.306-8.78-22.691-13.581c-13.271-8.627-22.849-20.65-31.15-35.48c4.135,2.95,7.238,5.266,10.441,7.432
	c26.32,17.803,54.389,32.141,84.711,41.748c6.486,2.055,13.516,2.392,20.547,3.563c0.434-2.93,0.666-4.494,0.897-6.057
	c0.195,0,0.39,0,0.585,0c0.108,1.74,0.216,3.481,0.323,5.221c0.242,0.05,0.485,0.1,0.727,0.15c0.758-2.936,1.515-5.872,2.273-8.808
	c-0.22,12.954-0.805,26.103-8.894,36.761c-7.098,9.351-15.645,17.603-23.551,26.339c0.225-1.285,0.812-2.629,0.616-3.846
	c-1.278-7.916,1.998-14.102,7.664-18.991c5.014-4.328,10.456-8.202,15.956-11.91c3.374-2.275,5.048-4.926,4.523-9.844
	c-12.558,6.706-24.774,12.803-32.261,25.033c-4.437,7.248-4.491,14.94-1.629,23.04c1.435-0.85,2.524-1.495,3.613-2.14
	c-1.71,2.02-3.42,4.04-5.135,6.065c0.188-1.041,0.38-2.086,0.72-3.926c-2.004,0.528-3.488,1.155-5.01,1.273
	c-3.708,0.287-7.798,1.406-11.082,0.282c-9.358-3.2-15.695-10.028-18.232-19.648c-1.619-6.143-1.165-12.396,4.013-17.082
	c5.072-4.59,11.118-5.03,17.29-2.794c3.729,1.351,7.381,3.089,10.773,5.139c2.884,1.743,4.834,1.365,6.755-1.187
	c0.969-1.288,2.141-2.423,3.581-4.028c-5.402-2.221-10.286-4.831-15.495-6.211c-5.701-1.509-11.719-2.69-17.57-2.573
	c-10.903,0.217-18.718,8.935-19.002,19.838c-0.413,15.831,8.017,25.87,21.47,32.391c7.489,3.63,15.202,6.284,21.97-1.634
	c-4.095,8.103-9.614,15.813-11.985,24.393c-4.717,17.066,2.218,31.709,13.198,44.522c5.629,6.569,12.184,12.345,17.824,18.906
	c14.068,16.367,17.578,34.986,10.792,55.477c-0.77,2.326-2.075,4.475-3.855,6.436c0.819-2.208,1.639-4.416,2.484-6.694
	c-8.215-5.707-16.431-11.065-24.277-16.92C115.008,739.068,69.061,678.692,37.484,606.983
	C9.269,542.911-3.611,475.863,0.873,406.109C7.365,305.125,45.316,217.035,114.235,142.8
	c60.094-64.729,133.08-108.338,218.786-130.13c50.072-12.731,100.872-15.668,152.2-9.711c86.165,10,163.528,41.501,230.554,96.614
	c77.194,63.475,128.331,143.761,150.391,241.668c10.104,44.845,12.023,90.331,7.609,136.109
	c-6.738,69.883-29.674,134.084-67.067,193.328c-3.522,5.581-6.1,11.757-9.128,17.651c-1.346,2.62-2.724,5.224-4.087,7.835
	c4.612-15.744-0.157-29.9-7.614-43.653c3.501,4.637,9.886,6.846,10.427,13.635c0.415,5.205,1.257,10.376,2.023,16.474
	c0.55-2.642,1.159-4.506,1.297-6.403c0.811-11.094-0.657-21.852-4.626-32.304c-3.746-9.867-10.104-17.149-20.073-20.832
	c-2.929-1.082-6.219-1.188-9.344-1.741c-0.068,0.367-0.136,0.734-0.204,1.101c1.518,0.953,3.036,1.905,4.554,2.858
	c-0.956,0.424-1.573,0.26-2.166,0.031c-9.391-3.618-15.528,2.982-12.869,11.891c1.797,6.022,5.72,11.409,8.692,17.08
	c-4.385,0.818-6.192,3.892-6.922,7.909c-7.577-8.016-9.839-17.698-8.762-28.365c1.241-12.296,6.17-23.415,11.868-34.096
	c9.705-18.194,13.482-36.94,7.35-57.059c1.517,3.853,3.023,7.695,4.619,11.767c3.8-2.593,7.484-5.108,11.169-7.622
	c-1.363,3.182-3.186,5.75-4.999,8.326c-2.095,2.978-5.218,5.694-6.072,8.995c-2.35,9.083-3.747,18.411-5.547,27.778
	c9.151-7.906,17.872-16.567,24.406-26.977c6.439-10.258,12.2-20.978,17.699-31.78c5.549-10.903,10.41-22.156,15.572-33.256
	c0.43,1.523,0.314,2.917,0.046,4.282c-7.619,38.758-20.188,75.742-39.446,110.348c-0.573,1.03-0.641,2.902-0.082,3.898
	c1.852,3.299,4.099,6.376,6.614,10.172c36.11-62.862,52.243-130.209,51.112-201.867c-1.492-94.571-33.714-177.553-95.149-249.258
	c-20.79-24.265-44.009-45.886-70.937-63.968c-2.783,8.902-1.13,13.708,4.681,18.59c11.856,9.96,24.071,19.592,35.11,30.408
	c42.417,41.561,73.141,90.744,93.671,146.382c1.988,5.387,3.998,10.766,5.997,16.149c-1.509-1.133-2.273-2.58-3.133-3.968
	c-11.913-19.227-23.485-38.678-35.88-57.589c-9.102-13.887-21.169-25.126-33.593-33.526c-7.615,2.014-13.978,3.696-20.682,5.469
	c19.87,10.504,37.662,23.523,50.312,44.243c-19.931-13.326-40.276-23.389-61.479-31.607c-21.161-8.202-42.565-15.777-63.862-23.626
	c-0.635,0.519-1.27,1.039-1.905,1.558c2.851,13.003,5.701,26.005,8.564,39.064c24.4-6.495,41.152-4.362,55.798-0.229
	c48.373,13.648,82.154,44.662,103.624,89.357c14.658,30.513,19.813,62.665,12.558,96.189c-7.777,35.936-27.017,64.735-55.164,87.941
	c-1.428,1.178-2.351,2.969-3.509,4.475c-5.062-13.108-14.348-23.325-23.174-33.857c1.612-0.969,3.526-1.646,4.788-2.953
	c10.919-11.301,18.953-24.517,23.499-39.469c3.165-10.411,5.042-21.252,6.906-32.002c0.818-4.718-1.367-9.076-6.156-10.86
	c-4.578-1.706-8.859-0.368-12.246,3.248c-4.145,4.425-6.519,9.737-6.446,15.763c0.045,3.716,0.193,7.967,1.984,10.972
	c1.743,2.926,5.637,4.57,8.702,6.864c-8.892,5.712-18.078,2.768-27.619-1.397c0,10.616,0.017,20.871-0.009,31.125
	C737.454,493.682,737.335,497.123,737.266,500.565z M731.153,411.737c-0.261,0.311-0.521,0.623-0.782,0.934
	c6.153,4.126,6.218,10.218,6.201,16.503c-0.012,4.464,0.211,9.015,1.092,13.374c1.548,7.666,6.434,13.814,11.611,15.65
	c-14.389-19.517-1.427-56.16,30.125-57.601c0-1.599,0.151-3.237-0.022-4.84c-3.493-32.402-17.155-59.466-42.579-80.175
	c-10.443-8.507-22.081-14.905-35.606-16.964c-8.782-1.337-17.073-0.359-23.881,7.477c11.68-0.127,17.936,6.223,21.45,15.655
	c1.54,4.132,2.365,8.655,2.754,13.068c1.008,11.441-1.467,22.509-4.6,33.411c-1.129,3.927,0.173,5.436,4.025,5.873
	c12.028,1.365,20.742-5.774,20.623-17.9c-0.056-5.683-1.752-11.35-2.658-16.744c15.609,11.943,28.612,36.758,29.296,56.531
	c0.212,6.126-0.858,11.992-5.269,16.678c-1.882,1.999-3.803,3.702-6.683,0.894C735.075,412.415,732.883,412.314,731.153,411.737z
	 M631.529,163.807c-9.622-5.382-20.748-7.445-36.679-6.675c-27.529,1.33-37.9,23.272-37.725,41.827
	c0.038,4.004,1.804,5.746,6.127,5.098c0.449-2.141,0.832-4.238,1.332-6.307c2.699-11.158,7.235-20.914,19.681-23.977
	c9.639-2.372,16.976,3.4,17.238,13.246c0.037,1.398,0.159,2.794,0.28,4.838c5.068-2.534,5.429-6.793,5.587-10.761
	c0.333-8.328-3.459-14.259-12.187-17.311c13.382-1.51,21.364,6.774,19.463,20.231c-1.818,12.878-3.987,14.58-15.51,10.396
	c-3.705-1.345-6.176-0.752-8.646,2.187c-5.865,6.98-13.615,9.809-22.584,9.696c-0.647-0.008-1.296,0.167-1.944,0.257
	c-0.043,0.635-0.085,1.27-0.128,1.905c9.768,1.453,19.539,4.116,29.304,4.092c17.333-0.043,34.05-10.639,31.221-33.217
	C625.644,173.615,627.247,168.45,631.529,163.807z M648.027,193.649c-0.36,1.821-0.437,3.006-0.832,4.075
	c-1.851,5.009-0.362,7.842,4.866,9.666c9.872,3.444,19.444,7.748,29.303,11.235c11.952,4.227,24.157,7.381,37.063,6.553
	c14.008-0.899,22.276-12.864,17.43-26.011c-4.891-13.269-14.963-21.242-28.087-25.637c-10.314-3.453-20.754,2.842-23.172,14.276
	c1.661-1.334,3.013-2.477,4.424-3.542c4.56-3.442,9.592-5.572,15.359-4.137c11.017,2.741,18.519,9.724,22.05,20.379
	c2.807,8.468-1.86,14.762-10.785,15.704c-10.727,1.133-20.087-1.434-27.562-9.72c-1.106-1.226-3.216-1.857-4.962-2.134
	c-4.633-0.737-9.562-0.396-13.932-1.828C662.146,200.218,655.454,196.831,648.027,193.649z M651.658,176.031
	c-0.432,1.745-0.805,3.016-1.05,4.31c-0.226,1.196-0.315,2.419-0.458,3.576c18.523,4.305,29.234-2.006,32.788-18.972
	c2.786-13.299-6.694-25.511-21.58-28.181c0.982,3.104,1.509,6.637,3.17,9.516c1.787,3.098,4.97,5.363,6.962,8.375
	c6.137,9.28,0.892,20.022-10.355,21.321C658.038,176.334,654.864,176.031,651.658,176.031z M682.049,320.145
	c0.756,10.6,10.246,14.945,15.225,23.191C697.616,328.75,691.985,320.496,682.049,320.145z M476.488,152.435
	c-2.803,0.879-6.655,0.904-8.16,2.796c-3.531,4.44,0.043,18.116,4.755,21.679C474.152,169.225,475.237,161.428,476.488,152.435z"/>
<path d="M681.083,346.194c-2.766-0.58-4.178-4.845-8.226-2.34c-4.448,2.753-8.161,5.747-9.077,11.166
	c-0.247,1.464-0.204,2.977-0.294,4.467c-0.413,0.192-0.825,0.385-1.238,0.577c-4.356-9.218-8.711-18.437-13.631-28.849
	c0.185,24.023,5.142,45.075,21.084,62.515c-11.195-5.757-21.943-26.469-26.987-52.127c-0.423,17.04,4.805,30.894,13.43,43.692
	c1.574,2.336,3.138,4.678,4.706,7.018c-2.909-3.032-5.817-6.065-8.726-9.097c-0.413,0.399-0.826,0.799-1.24,1.198
	c5.547,5.875,11.093,11.749,16.64,17.624c4.57,4.906,8.977,9.978,13.742,14.687c12.97,12.817,21.029,28.883,29.832,44.469
	c-1.185-1.227-2.668-2.278-3.511-3.707c-13.04-22.109-28.606-42.069-48.575-58.444c-10.329-8.47-19.365-18.122-21.135-32.122
	c-1.06-8.389-0.796-16.938-1.567-25.375c-0.996-10.897-2.297-21.771-3.769-32.614c-0.383-2.823-1.888-5.495-3.297-7.44
	c10.889,8.63,21.998,17.002,32.589,25.984C668.645,333.251,674.693,339.923,681.083,346.194z"/>
<path d="M580.097,361.365c-13.705,0.002-24.72-7.113-27.596-17.825c-5.193-19.343,13.046-37.856,33.525-34.028
	c14.073,2.63,23.074,11.964,23.555,24.427C610.19,349.685,597.636,361.362,580.097,361.365z M577.489,338.936
	c0.656-3.46,1.041-5.49,1.253-6.608c2.248,1.35,3.757,2.257,5.266,3.163c0.74-1.448,1.479-2.896,2.219-4.344
	c-0.256-0.102-0.513-0.205-0.769-0.307c1.397-1.242,2.794-2.484,4.191-3.725c-1.392-1.014-3.004-1.833-4.116-3.093
	c-1.25-1.417-2.119-3.195-3.021-4.887c-0.612-1.148-0.994-2.418-1.461-3.587c-2.954,3.59-5.481,6.662-8.918,10.84
	c0-4.975,0-8.498,0-12.022c-0.461-0.065-0.921-0.13-1.382-0.195c-0.595,2.525-1.19,5.05-1.781,7.558
	c-5.696,0.653-7.369,2.12-8.626,7.891c2.275,0.193,4.503,0.381,5.729,0.485c0,2.084-0.661,4.346,0.186,5.432
	c0.847,1.086,3.202,0.997,5.062,1.465c0.269-2.888,0.443-4.753,0.616-6.617c0.54-0.073,1.079-0.146,1.619-0.218
	c0.44,2.558,0.88,5.117,1.3,7.558c-7.053,0-13.94,0-22.333,0c1.564,2.919,2.242,5.829,4.074,7.287
	c4.931,3.923,10.225,7.448,15.663,10.64c1.652,0.97,4.704,1.176,6.322,0.288c5.377-2.95,10.526-6.375,15.51-9.966
	c4.671-3.366,4.473-4.763-0.146-7.934c-1.444-0.991-2.707-2.248-4.053-3.383c0.042,0.42,0.084,0.841,0.126,1.261
	C586.22,336.831,582.421,337.747,577.489,338.936z M595.972,355.59c7.191-4.676,11.305-10.664,11.238-18.704
	c-0.065-7.765-2.319-14.87-9.403-20.197c0.385,6.933,1.226,13.181,0.936,19.376C598.452,342.294,597.034,348.469,595.972,355.59z"/>
<path d="M766.072,656.966c19.67,11.705,29.786,28.216,23.713,42.482c0.647-0.169,1.216-0.318,1.786-0.466
	c-1.024,1.461-2.098,2.889-3.058,4.391c-1.039,1.626-1.972,3.319-2.837,4.787c-3.033-12.673-10.562-23.586-19.632-33.672
	c-3.167-3.522-5.716-7.599-8.548-11.422c1.315,1.136,2.629,2.272,3.52,3.042c2.627-2.257,4.958-4.26,7.261-6.239
	C767.431,658.754,766.752,657.86,766.072,656.966z"/>
<path d="M741.927,533.297c6.243,9.978,5.324,24.418-2.719,34.47c-3.507,4.383-7.586,8.435-11.927,12.003
	c-18.259,15.004-19.8,36.308-12.968,54.725c0.381,1.027,0.737,2.064,0.681,3.208c-6.607-10.084-8.261-21.323-7.074-33.058
	c1.038-10.263,5.569-19.057,12.441-26.668c1.895-2.099,3.89-4.109,5.866-6.134C740.726,556.99,742.233,553.297,741.927,533.297z"/>
<path d="M753.014,550.643c4.063,10.576,3.574,20.857-2.424,30.455c-2.889,4.623-6.291,9.001-9.937,13.061
	c-8.329,9.273-14.795,19.244-13.907,33.743c-2.887-8.849-2.203-17.171,2.525-25.236c3.425-5.843,7.543-11.327,11.757-16.65
	C749.263,575.612,754.671,564.39,753.014,550.643z"/>
<path d="M514.514,223.875c8.271-2.796,18.397-2.18,28.531-0.115c6.436,1.311,13.133,2.124,19.125,4.59
	c5.227,2.151,9.8,6.088,14.338,9.648c2.978,2.336,4.937,6.209,8.135,7.974c6.292,3.474,6.609,9.922,8.972,15.331
	c3.646,8.346,6.984,16.827,10.385,25.278c0.412,1.023,0.411,2.213,0.828,4.65c-4.031-9.518-7.63-17.719-10.993-26.016
	c-9.155-22.587-26.79-34.589-49.886-38.908C533.808,224.41,523.286,224.543,514.514,223.875z"/>
<path d="M764.234,771.17c-8.492,18.637-21.774,32.144-41.489,38.758C741.027,801.779,753.714,787.635,764.234,771.17z"/>
<path d="M616.934,272.084c-3.058-14.071-1.356-27.518,2.571-40.969c2.869-9.825,4.914-19.891,7.768-29.857
	c-1.463,8.072-2.156,16.381-4.552,24.166c-4.6,14.947-7.869,29.872-5.326,45.577C617.436,271.252,617.168,271.555,616.934,272.084z"
	/>
<path d="M428.676,217.974c14.365,8.28,29.623,12.945,46.383,11.519C457.755,233.12,442.421,228.766,428.676,217.974z"/>
<path d="M447.476,198.554c-0.92-0.242-1.871-0.777-2.754-0.682c-12.695,1.367-25.36,3.681-38.074,3.971
	c-9.634,0.219-19.327-2.117-28.993-3.316c0.054-0.42,0.108-0.839,0.161-1.259c6.304,0.934,12.619,1.803,18.911,2.813
	c16.262,2.609,32.119-0.5,48.009-3.269c1.953-0.34,3.94-0.485,5.911-0.721C449.59,196.912,448.533,197.733,447.476,198.554z"/>
<path d="M282.548,526.396c-4.825,10.192-9.649,20.385-14.474,30.577c-0.444-0.206-0.888-0.413-1.332-0.619
	c4.569-10.314,9.138-20.628,13.707-30.941C281.149,525.74,281.849,526.068,282.548,526.396z"/>
<path d="M159.22,818.173c-0.985,1.276-1.614,2.092-2.244,2.908c-0.333-0.288-0.665-0.576-0.998-0.864
	c3.137-3.605,6.274-7.211,9.412-10.816c0.565,0.395,1.131,0.79,1.696,1.185c-4.597,3.026-7.501,6.962-5.219,12.241
	c2.818,6.52,8.833,5.934,15.128,5.261C168.018,832.382,161.975,829.011,159.22,818.173z"/>
<path d="M247.819,499.826c3.503-6.429,7.006-12.857,10.51-19.286c0.303,0.156,0.607,0.312,0.91,0.468
	c-3.408,6.477-6.816,12.954-10.225,19.431C248.616,500.235,248.218,500.031,247.819,499.826z"/>
<path d="M491.619,711.087c-2.615,1.329-5.376,2.435-7.821,4.026c-12.514,8.143-23.825,17.582-31.959,30.448
	c1.572-7.625,5.389-14.035,10.553-19.644c9.327-10.13,20.995-16.813,33.576-21.949c18.729-7.646,36.951-16.059,51.359-30.877
	c0.511-0.526,1.46-0.625,2.205-0.923c-7.072,6.436-14.108,12.914-21.246,19.276c-1.597,1.424-3.556,2.442-5.349,3.647
	c-7.005,3.308-14.066,6.505-20.993,9.969c-3.626,1.813-7.017,4.094-10.514,6.164L491.619,711.087z"/>
<path d="M550.151,117.335c-3.373-5.041-6.752-10.078-10.114-15.126c-0.699-1.05-1.338-2.14-2.004-3.212
	c0.353-0.439,0.707-0.878,1.06-1.317c1.334,1.018,3.005,1.794,3.941,3.097c3.273,4.554,5.971,9.554,9.506,13.879
	c3.143,3.847,7.107,7.023,10.709,10.495C558.883,122.546,554.517,119.94,550.151,117.335z"/>
<path d="M210.591,143.045c-5.356-16.155,4.205-41.07,18.858-49.144c17.432-9.605,39.901-9.349,54.417,1.133
	c-2.997-1.172-5.993-2.344-8.99-3.515c-0.374,0.348-0.749,0.697-1.123,1.045c3.613,3.855,7.226,7.709,10.84,11.564
	c-0.175,0.19-0.351,0.379-0.526,0.569c-2.534-2.28-5.068-4.56-7.602-6.841c-0.215,0.241-0.43,0.482-0.646,0.723
	c0.934,1.225,1.869,2.449,2.803,3.674c-8.972-8.095-19.334-10.817-30.796-9.228c20.537,3.474,34.093,12.71,30.288,36.719
	c-3.88,1.528-8.516,3.353-13.152,5.178c-5.118-13.363-14.162-20.595-23.878-19.308c3.412,2.18,7.204,4.194,10.486,6.84
	c2.271,1.831,4.156,4.346,5.659,6.884c4.066,6.866,3.694,8.426-2.331,13.513c-2.142,1.809-4.325,3.568-6.49,5.351
	c-0.457-1.435-0.478-3.338-1.439-4.231c-9.033-8.395-19.373-11.639-31.569-7.853c-3.798,1.179-5.665,3.053-4.945,7.073
	L210.591,143.045z"/>
<path d="M364.851,102.718c-7.869-1.307-15.737-2.615-21.786-3.62c3.649-0.152,3.649-0.152,8.114-9.609
	c-0.263,3.229-0.471,5.778-0.741,9.087c1.39-0.774,2.219-0.992,2.68-1.528c14.816-17.222,34.434-23.528,56.265-24.765
	c4.316-0.245,8.647-0.228,12.971-0.332l-0.103-0.123c1.534,0.381,3.052,1.001,4.604,1.105c10.861,0.731,21.729,1.356,32.588,2.551
	c-16.326,0.234-31.952,3.914-47.542,8.164c-15.914,4.338-28.233,14.462-40.232,24.112c-2.53-1.86-4.69-3.448-6.844-5.036
	c1.658-0.772,3.564-1.244,4.902-2.384c2.224-1.897,4.083-4.222,6.096-6.366c0.216,0.222,0.432,0.443,0.648,0.665
	c-1.546,2.414-3.092,4.829-4.638,7.243c0.226,0.351,0.452,0.702,0.678,1.053c17.853-15.739,39.82-21.483,62.161-26.321
	c-35.046-1.376-53.594,2.651-64.407,15.424c1.471-0.845,2.544-1.461,4.308-2.474C371.008,94.386,367.93,98.552,364.851,102.718z"/>
<path d="M422.354,71.952c8.972-4.216,17.945-8.432,27.953-13.135c-6.234,1.532-11.492,2.824-16.41,4.033
	c4.303-3.252,8.786-6.64,13.988-10.571c-1.578,0-2.28,0-2.983,0c0.552-1.599,1.104-3.198,1.779-5.156
	c-2.373,0.537-5.3,1.2-8.227,1.863c6.834-4.658,13.491-6.034,21.885-2.957c9.71,3.559,20.322,4.586,30.431,7.152
	c7.315,1.857,14.448,4.43,21.662,6.684c-0.135,0.443-0.27,0.885-0.405,1.328c-6.104-1.35-12.157-3.028-18.322-3.985
	c-14.792-2.297-28.695,1.727-42.481,6.474c-8.477,2.919-17.045,5.579-25.605,8.251c-1.011,0.315-2.23-0.038-3.36-0.091
	C422.25,71.829,422.354,71.952,422.354,71.952z"/>
<path d="M409.135,97.652c8.718-2.788,17.436-5.576,26.155-8.364c0.076,0.277,0.153,0.554,0.229,0.83
	c-8.67,3.863-17.341,7.727-26.011,11.59c0.149,0.353,0.297,0.705,0.446,1.058c6.461-2.061,12.923-4.122,19.384-6.183
	c0.043,0.206,0.087,0.413,0.13,0.619c-8.516,3.903-17.032,7.806-25.547,11.709c0.159,0.47,0.319,0.94,0.478,1.409
	c16.66-8.801,34.825-9.765,52.982-10.87c-17.488,1.602-33.974,6.145-48.527,16.561c2.705-0.878,5.409-1.757,8.114-2.635
	c0.06,0.159,0.119,0.318,0.179,0.477c-2.111,1.225-4.222,2.45-6.518,3.783c2.248,2.704,4.359,5.243,6.604,7.943
	c2.106-0.911,4.156-1.797,7.513-3.249c-1.29,1.723-1.749,2.335-2.099,2.804c5.505,3.464,10.973,6.904,16.441,10.344
	c-0.29,0.51-0.58,1.02-0.87,1.53c-5.721-5.574-12.63-8.408-20.285-9.71c-1.116-0.19-2.29-1.393-2.995-2.428
	c-6.054-8.882-14.753-13.565-24.917-16.022c-0.447-0.108-0.822-0.514-1.139-0.721c9.966-9.428,21.25-16.613,35.462-21.248
	c-5.938,3.904-10.89,7.159-15.842,10.415C408.711,97.413,408.923,97.532,409.135,97.652z"/>
<path d="M243.77,152.641c-3.999,5.882-7.831,11.893-12.17,17.513c-0.69,0.893-4.134,0.747-5.503-0.147
	c-9.665-6.312-14.958-15.317-15.505-26.962c0,0-0.136,0.145-0.136,0.145c0.631,0.987,1.262,1.973,1.849,2.891
	c11.158-3.996,21.013-3.06,29.376,5.604C242.176,152.198,243.064,152.331,243.77,152.641z"/>
<path d="M380.549,116.081c-1.973-0.527-3.946-1.053-5.83-1.557c10.253-4.366,28.764,1.866,32.866,12.607
	c4.564,11.949,7.182,24.641,10.648,37.01c-0.482,0.266-0.963,0.531-1.445,0.797c2.24,0.212,4.48,0.423,6.721,0.635
	c0.003,0.109,0.007,0.218,0.01,0.326c-2.542,0-5.084,0-7.927,0c-0.532-3.902-3.008-6.227-7.117-6.832
	c-2.455-0.362-4.937-0.61-7.355-1.144c-3.809-0.84-7.575-1.876-11.359-2.829c0.024-0.407,0.049-0.815,0.073-1.222
	c6.854-0.314,13.708-0.629,20.994-0.963c0-3.35,0-6.699,0-10.468c-4.632,0.721-8.668,1.349-12.695,1.97
	c3.736-1.236,7.462-2.465,11.351-3.748c-3.739-4.187-11.738-2.421-15.548,3.273c1.554,0.123,2.95,0.233,4.347,0.344
	c-1.987,0.568-3.974,1.135-6.079,1.736c0.892-6.945,4.868-9.657,17.706-11.512c-2.761-2.326-4.689-3.949-6.455-5.437
	c0.011-0.006,0.821-0.413,2.97-1.494c-3.487-1.979-6.254-3.55-9.022-5.121C391.784,120.329,386.167,118.205,380.549,116.081z
	 M411.151,158.667c-3.02-5.447-6.596-6.176-14.019-3.176C402.068,156.609,406.263,157.56,411.151,158.667z"/>
<path d="M294.503,147.343c1.203,0.323,2.406,0.645,4.352,1.167c-19.282,4.587-36.941,11.156-53.129,23.163
	c8.265-14.033,41.378-29.234,57.796-27.155c-3.001,0.578-6.005,1.157-9.009,1.736C294.51,146.617,294.507,146.98,294.503,147.343z"
	/>
<path d="M424.054,159.177c5.421,0.891,5.421,0.891,0.885-13.639c5.604,3.878,7.245,8.984,6.519,15.126
	c-4.036,0.188-7.966,0.371-12.144,0.566c3.46-4.042,0.155-21.092-4.492-24.674c12.887-2.033,23.407,5.37,26.176,17.452
	c0.696,3.036,0.407,5.367-0.185,8.096c-0.805,3.713-1.285,7.496-2.708,11.646c-0.323-1.395-1.018-2.825-0.892-4.178
	c0.259-2.792,1.062-5.528,1.452-8.313c1.742-12.442-6.598-22.16-19.643-22.72c0.872,3.545,1.735,7.035,2.587,10.529
	C422.425,152.418,423.23,155.771,424.054,159.177z"/>
<path d="M332.809,115.822c-6.961-4.413-13.87-2.324-16.458,5.515c-1.356,4.107-1.473,8.623-2.141,12.903
	c6.562,1.326,9.173-0.086,13.238-6.384c1.614,4.282-0.333,9.099-4.542,11.236c-5.464,2.774-10.821,0.264-15.712-7.924
	c2.256,1.388,3.878,2.387,6.511,4.008c-1.688-19.472,7.141-27.109,26.031-23.324c1.525,2.962,3.607,7.004,5.895,11.447
	c-1.477,1.383-3.14,2.94-4.803,4.497c3.95-4.26,1.683-8.56-0.764-12.072c-1.157-1.661-4.604-1.726-7.013-2.514
	C332.97,114.08,332.89,114.951,332.809,115.822z"/>
<path d="M229.752,211.595c2.861-5.215,5.722-10.43,8.442-15.388c-0.099,0.92-0.253,2.338-0.475,4.394
	c3.294-4.992,6.275-9.509,9.61-14.563c-0.167,1.51-0.284,2.564-0.369,3.341c4.941-4.452,10.036-9.043,15.848-14.279
	C253.569,189.588,243.439,202.029,229.752,211.595z"/>
<path d="M345.441,103.538c7.952,1.746,15.903,3.492,24.408,5.359c-1.148,3.509-2.036,6.222-2.925,8.94
	c-2.214-1.276-2.214-1.276,0.521-7.136c-5.967,2.653-10.783,4.794-15.933,7.083c-2.035-4.023-4.227-8.357-6.419-12.69
	C345.21,104.575,345.325,104.057,345.441,103.538z M352.148,116.947c1.78-3.393,3.061-5.833,4.83-9.203
	c-3.536-0.285-6.177-0.499-9.622-0.777C349.007,110.405,350.277,113.049,352.148,116.947z"/>
<path d="M406.557,178.16c-2.021-2.003-4.043-4.006-6.066-6.006c-0.002,0.002-0.103,0.11-0.106,0.113
	c7.694,0.402,15.387,0.877,23.088,1.18c6.409,0.252,11.006,3.013,13.809,9.849c-6.999-0.747-13.773,1.658-20.224-1.877
	c1.712,0.227,3.425,0.453,5.627,0.744c-0.424-2.714-0.746-4.772-1.144-7.316c-6.011,0-11.775,0-17.888,0
	C404.701,176.044,405.629,177.102,406.557,178.16z"/>
<path d="M218.106,176.182c-9.889-0.491-15.255-5.945-15.53-15.694c-0.051-1.804-0.378-3.601-0.577-5.401
	c0.614,0.692,1.501,1.283,1.8,2.091C206.677,164.953,211.596,171.159,218.106,176.182z"/>
<path d="M301.134,111.508c2.547-4.311,2.642-8.658-1.403-13.087c2.366,0.236,3.706,0.37,5.046,0.504
	c0.032-0.371,0.064-0.741,0.096-1.112c1.345,1.258,2.691,2.517,4.154,3.885C306.886,104.359,304.01,107.933,301.134,111.508z"/>
<path d="M353.648,127.116c-2.763,2.934-0.794,5.621,0.578,8.206c0.894,1.685,2.229,3.135,3.367,4.691
	c-1.658-0.628-3.316-1.256-4.974-1.885C346.808,132.721,347.043,130.204,353.648,127.116z"/>
<path d="M352.619,138.128c1.658,0.628,3.316,1.256,4.974,1.885c2.964,1.05,5.927,2.101,8.89,3.151
	C361.529,146.075,355.133,143.752,352.619,138.128z"/>
<path d="M447.044,141.063c6.74,1.512,7.875-6.682,13.396-7.575c-4.63,3.925-8.962,7.596-13.294,11.267
	c0.39,0.397,0.78,0.795,1.17,1.192C447.859,144.19,447.401,142.432,447.044,141.063z"/>
<path d="M372.355,237.537c-5.168-0.619-10.407-0.892-15.488-1.934c-8.713-1.786-16.194,0.03-22.318,6.537
	c-3.873,4.115-7.726,8.277-11.245,12.69c-4.501,5.645-4.023,7.336,2.378,11.095c5.167-9.152,13.686-10.509,23.073-9.775
	c7.259,0.568,14.517,1.157,20.692,1.65c1.518,1.326,2.585,2.259,3.488,3.048c-0.759,0.306-1.968,0.795-3.177,1.283
	c0.005,0.207,0.009,0.414,0.014,0.62c2.775,0,5.551,0,8.326,0c0.119,0.321,0.237,0.642,0.356,0.963
	c-2.778,2.147-5.557,4.294-8.541,6.601c0.964,0.467,1.784,0.865,3.043,1.475c-1.547,0.246-2.713,0.431-4.17,0.663
	c0.33,0.648,0.604,1.189,0.747,1.469c-6.028,3.263-11.953,6.897-18.235,9.74c-5.102,2.308-10.633,3.666-16.39,5.584
	c-0.124-0.837-0.247-1.669-0.435-2.942c-1.545,0.413-3.031,0.81-4.516,1.208c0.183-0.39,0.366-0.781,0.549-1.171
	c-2.023-0.881-4.004-1.879-6.076-2.624c-10.458-3.764-18.796-19.089-15.807-29.814c0.762-2.734,2.319-5.855,4.496-7.472
	c6.919-5.141,14.164-9.887,21.552-14.339c5.991-3.61,12.618-3.859,19.281-1.758c6.152,1.939,12.285,3.937,18.426,5.91
	C372.37,236.674,372.363,237.106,372.355,237.537z M359.964,260.33c-10.154-1.806-20.853-7.095-29.353,4.169
	c4.042,0,8.083,0,12.188,0c0.135-1.736,0.265-3.41,0.395-5.083c0.222-0.002,0.444-0.004,0.667-0.007
	c0.321,1.76,0.642,3.52,1.015,5.566c3.869-1.16,7.385-2.215,10.901-3.27c-0.036-0.168-0.072-0.336-0.109-0.503
	c-2.266-0.106-4.532-0.212-6.797-0.318c0.003-0.185,0.006-0.369,0.01-0.554C352.575,260.33,356.269,260.33,359.964,260.33z
	 M359.625,271.354c-2.533,0-4.529-0.184-6.474,0.055c-1.714,0.211-4.738,0.699-4.839,1.401c-0.934,6.516-6.841,5.63-10.79,7.643
	C341.986,283.184,354.883,278.059,359.625,271.354z M331.831,284.673c0.438-0.485,0.877-0.971,1.315-1.456
	c-1.068-2.855-2.135-5.71-3.203-8.565c-0.492-0.086-0.985-0.173-1.477-0.259c-0.37,1.797-1.488,3.887-0.928,5.32
	C328.289,281.632,330.339,283.043,331.831,284.673z"/>
<path d="M325.011,335.755c3.475,8.172-0.574,15.175-8.12,14.383c-1.069-0.112-2.337-0.5-3.076-1.213
	c-4.1-3.958-7.916-4.459-12.781-2.074c-1.644,0.806-3.928,0.862-5.752,0.474c-0.761-0.162-1.872-3.074-1.466-3.533
	c1.409-1.593,3.632-3.942,5.154-3.685c4.773,0.804,9.855,1.862,13.908,4.321c5.117,3.104,9.931,2.106,11.674-3.931
	C324.955,339.097,324.852,337.552,325.011,335.755z"/>
<path d="M326.683,376.163c-7.109-1.947-14.217-3.895-21.326-5.842c0.179-0.59,0.359-1.18,0.538-1.77
	c7.022,2.226,14.045,4.452,21.067,6.678C326.87,375.54,326.776,375.852,326.683,376.163z"/>
<path d="M512.377,477.224c-1.965,6.435-3.995,12.851-5.882,19.309c-3.378,11.557-2.806,23.197-0.571,34.86
	c0.308,1.605,0.443,3.244,0.658,4.867c-0.646-1.62-1.292-3.24-2.098-5.259c-15.622,5.192-31.282,10.118-48.134,8.49
	c14.851,1.728,26.355-5.328,37.138-14.414c-3.827,1.245-7.617,2.624-11.489,3.712c-13.736,3.858-25.774,1.199-35.218-9.932
	c-7.733-9.115-7.032-19.774,2.53-28.437c-1.078,1.931-1.316,2.89-1.929,3.371c-5.511,4.317-3.899,10.307-0.198,14.986
	c5.695,7.197,16.713,9.588,26.483,5.868c8.769-3.339,14.749-9.674,18.187-18.182c3.526-8.725,6.988-17.584,5.658-27.366
	c2.225,6.63,4.449,13.26,6.534,19.474c1.024-2.59,2.255-5.702,3.486-8.814c0.259,0.078,0.517,0.156,0.776,0.234
	c-1.218,4.201-2.436,8.401-3.654,12.602c0.168,0.056,0.335,0.112,0.503,0.168C507.563,487.582,509.97,482.403,512.377,477.224z
	 M445.852,511.436c0.919,1.35,1.729,2.793,2.775,4.037c15.102,17.962,40.529,11.198,51.84-0.92c1.045-1.12,1.616-2.929,1.859-4.503
	c0.583-3.779,1.353-7.642,1.104-11.408c-0.345-5.215-1.555-10.372-2.392-15.537c-3.841,7.63-6.809,15.086-11.086,21.696
	C481.216,518.304,459.21,523.804,445.852,511.436z"/>
<path d="M442.028,462.356c10.371-21.961,11.721-46.218,18.147-69.14C455.982,416.77,455.07,441.17,442.028,462.356z"/>
<path d="M347.423,593.225c4.115-1.924,8.092-4.275,12.381-5.663c5.111-1.654,9.331-4.023,11.756-8.982
	c-1.686,4.05-3.372,8.1-5.058,12.15c0-1.107,0-2.214,0-3.418C359.93,589.349,353.677,591.287,347.423,593.225z"/>
<path d="M422.938,557.28c9.45-1.15,18.901-2.299,28.351-3.449c0.058,0.495,0.115,0.989,0.173,1.484
	c-9.46,1.063-18.921,2.127-28.381,3.19C423.034,558.096,422.986,557.688,422.938,557.28z"/>
<path d="M490.564,426.59c0.508,9.539,1.016,19.077,1.524,28.616c-0.968-4.333-2.555-8.64-2.743-13.007
	C489.122,437.023,490.104,431.795,490.564,426.59z"/>
<path d="M331.502,658.571c3.249,7.875,1.623,15.541-0.996,23.165C330.838,674.015,331.17,666.293,331.502,658.571z"/>
<path d="M433.876,530.548c-4.68-6.857-3.243-13.759,0.191-20.638C432.596,516.755,430.668,523.599,433.876,530.548z"/>
<path d="M423.525,673.124c-9.078-3.266-12.404-10.792-12.995-19.369c-1.801-26.168,9.286-46.406,29.914-61.8
	c14.018-10.461,30.206-16.104,47.072-19.61c34.264-7.123,66.235-19.589,95.418-39.062c14.112-9.417,29.395-12.847,46.124-8.28
	c3.508,0.957,7.207,1.229,10.825,1.766c7.961,1.182,14.207-1.414,17.816-8.795c2.228-4.555,3.897-9.384,5.773-13.982
	c1.112,7.319-1.911,13.856-5.8,21.487c3.518-1.826,6.091-3.161,8.664-4.497c0.115,0.139,0.23,0.279,0.346,0.418
	c-1.31,1.125-2.522,2.396-3.947,3.348c-5.905,3.942-11.547,8.477-17.904,11.489c-7.57,3.586-15.614,7.573-23.735,8.324
	c-21.234,1.962-37.525,12.102-52.155,26.608c-7.784,7.718-16.753,14.228-24.781,21.718c-6.705,6.257-15.878,5.631-23.436,9.393
	c-2.859,1.423-6.113,2.054-9.296,3.082c9.234-5.359,18.231-10.581,27.229-15.804c-0.256-0.515-0.511-1.03-0.767-1.545
	c-10.923,7.144-22.291,13.169-35.53,14.547c7.346-3.101,14.693-6.201,22.039-9.302c-11.877,3.354-23.233,8.423-36.486,9.323
	c8.209-2.542,15.643-4.844,23.077-7.146c-0.06-0.11-0.12-0.22-0.18-0.331c-13.7,2.357-27.4,4.714-41.1,7.072
	c-0.03-0.151-0.059-0.303-0.089-0.454c8.207-2.683,16.413-5.366,24.62-8.048c-0.107-0.311-0.215-0.622-0.322-0.933
	c-11.56,2.661-23.05,5.696-34.701,7.868c-9.707,1.809-18.279,5.9-26.552,10.907c-16.462,9.964-20.878,25.753-20.852,43.613
	c0.002,1.12,0.56,2.24,0.958,3.733c14.837-12.163,29.484-24.17,44.131-36.177c0.246,0.302,0.492,0.603,0.738,0.904
	c-10.426,11.375-20.852,22.749-31.278,34.124c0.242,0.214,0.484,0.428,0.726,0.643c10.743-7.554,21.486-15.108,32.23-22.662
	c0.081,0.163,0.161,0.325,0.242,0.488c-11.736,10.684-23.429,21.417-35.254,32.004c-1.873,1.677-2.754,2.98-0.862,5.043
	L423.525,673.124z M459.274,598.115c0.102,0.389,0.203,0.779,0.305,1.168c5.628-1.392,11.257-2.784,16.885-4.176
	c-0.11-0.422-0.22-0.845-0.331-1.267C470.513,595.265,464.893,596.69,459.274,598.115z"/>
<path d="M654.101,493.809c0.423,12.423-8.363,22.707-19.153,23.335c-4.795,0.279-9.661-0.034-14.455-0.492
	c-13.945-1.333-26.083,3.241-37.728,10.431c-12.264,7.572-24.878,14.578-37.339,21.831c-0.29-0.489-0.581-0.977-0.871-1.466
	c2.848-1.57,5.804-2.972,8.524-4.739c11.998-7.798,24.003-15.59,35.862-23.596c12.27-8.284,25.386-12.899,40.445-11.08
	C640.426,509.366,649.654,506.659,654.101,493.809z"/>
<path d="M423.444,673.225c4.444,0.736,7.546-1.187,10.959-4.073c11.977-10.129,24.37-19.767,36.662-29.52
	c1.119-0.888,2.648-1.261,4.196-1.969c1.013,1.181,1.944,2.266,2.886,3.374c0.011,0.023-0.012-0.08,0.002-0.053
	c-3.27,2.763-6.484,5.59-9.853,8.216c-6.392,4.982-12.917,9.794-19.281,14.809c-1.359,1.071-2.271,2.709-2.763,4.767
	c9.679-7.676,19.359-15.353,29.038-23.029c0.454,0.44,0.907,0.88,1.361,1.32c-0.591,5.3-2.492,10.414-7.406,12.922
	c-10.451,5.334-21.074,10.498-32.077,14.494c-3.872,1.406-9.057-0.802-13.643-1.36C423.525,673.124,423.444,673.225,423.444,673.225
	z"/>
<path d="M410.553,672.742c-11.193-13.7-12.409-28.121-7.341-42.843c9.326-27.098,28.33-45.171,54.825-55.591
	c0.232-0.091,0.597,0.154,1.379,0.383c-18.986,8.671-35.491,19.858-44.685,39.016C405.838,632.235,402.183,651.362,410.553,672.742z
	"/>
<path d="M529.356,612.511c-10.85,4.031-21.699,8.061-32.549,12.092c-0.167-0.448-0.334-0.896-0.501-1.345
	c10.842-4.052,21.684-8.103,32.525-12.155C529.006,611.572,529.181,612.042,529.356,612.511z"/>
<path d="M468.394,677.209c15.955-7.455,30.918-14.447,45.214-21.127C509.003,663.501,492.335,671.603,468.394,677.209z"/>
<path d="M531.551,355.564c-2.667,7.255-4.483,14.983-8.186,21.664c-6.901,12.45-14.915,24.281-22.413,36.403
	c-0.657,1.062-0.922,2.368-1.368,3.56c-1.635,2.522-3.27,5.043-4.904,7.565c-0.17,0.001-0.34,0.001-0.51,0.002
	c1.249-3.897,2.028-8.032,3.856-11.636c2.696-5.314,5.723-10.569,9.342-15.286C517.358,384.816,525.368,370.73,531.551,355.564z"/>
<path d="M199.815,393.033c-4.81-7.331-8.644-14.393-9.216-22.757c-0.435-6.358,0.956-12.116,7.327-15.091
	c5.518-2.576,11.483-3.589,16.477,0.735c5.624,4.87,5.308,11.61,3.382,18.029c-0.645,2.151-2.879,4.455-4.972,5.424
	C206.816,382.151,202.136,385.925,199.815,393.033z"/>
<path d="M642.56,141.135c-0.339,3.253-0.326,6.645,3.383,7.783c1.967,0.604,4.358-0.176,6.558-0.332
	c0.688,0.447,1.376,0.893,2.064,1.34c-0.74,0.969-1.728,2.877-2.179,2.758c-3.403-0.901-7.188-1.548-9.887-3.567
	C639.986,147.237,640.324,143.805,642.56,141.135z"/>
</svg>
