<?xml version="1.0" encoding="UTF-8" standalone="no" ?>
<!DOCTYPE svg PUBLIC "-//W3C//DTD SVG 1.1//EN" "http://www.w3.org/Graphics/SVG/1.1/DTD/svg11.dtd">
<svg xmlns="http://www.w3.org/2000/svg" xmlns:xlink="http://www.w3.org/1999/xlink" version="1.1" width="1080" height="1080" viewBox="0 0 1080 1080" xml:space="preserve">
<g transform="matrix(1 0 0 1 540 540)" id="ad116c55-6fac-40b3-8b82-ee83bbd867ad"  >
<rect style="stroke: none; stroke-width: 1; stroke-dasharray: none; stroke-linecap: butt; stroke-dashoffset: 0; stroke-linejoin: miter; stroke-miterlimit: 4; fill: rgb(255,255,255); fill-rule: nonzero; opacity: 1; visibility: hidden;" vector-effect="non-scaling-stroke"  x="-540" y="-540" rx="0" ry="0" width="1080" height="1080" />
</g>
<g transform="matrix(1 0 0 1 540 540)" id="4f294e56-a317-45cf-9c2b-2dd3dfeac8ee"  >
</g>
<g transform="matrix(10.25 0 0 10.25 540.48 539.51)"  >
<path style="stroke: none; stroke-width: 1; stroke-dasharray: none; stroke-linecap: butt; stroke-dashoffset: 0; stroke-linejoin: miter; stroke-miterlimit: 4; fill: rgb(0,0,0); fill-rule: evenodd; opacity: 1;" vector-effect="non-scaling-stroke"  transform=" translate(-50, -50)" d="M 58.945 20.785 C 60.8239 21.35922 62.6247 22.1092 64.3317 23.0194 L 77.9177 14.8475 L 85.15599999999999 22.0858 L 76.988 35.6678 C 77.89816 37.3748 78.6482 39.1756 79.2224 41.0545 L 94.6014 44.8826 L 94.6014 55.120599999999996 L 79.2224 58.948699999999995 C 78.64818 60.8276 77.89819999999999 62.62839999999999 76.988 64.33539999999999 L 85.156 77.92139999999999 L 77.91770000000001 85.15969999999999 L 64.3357 76.99169999999998 C 62.6287 77.90185999999999 60.8279 78.65189999999998 58.949000000000005 79.22609999999997 L 55.120900000000006 94.60509999999998 L 44.88290000000001 94.60509999999998 L 41.05480000000001 79.22609999999997 C 39.175900000000006 78.65187999999998 37.37510000000001 77.90189999999997 35.66810000000001 76.99169999999998 L 22.08210000000001 85.15969999999999 L 14.843800000000012 77.92139999999999 L 23.01180000000001 64.33939999999998 C 22.10164000000001 62.63239999999998 21.351600000000012 60.83159999999998 20.77740000000001 58.952699999999986 L 5.402400000000011 55.116799999999984 L 5.402400000000011 44.878799999999984 L 20.781400000000012 41.050699999999985 C 21.355620000000012 39.17179999999998 22.105600000000013 37.37099999999999 23.015800000000013 35.66399999999999 L 14.847800000000014 22.07799999999999 L 22.086100000000012 14.83969999999999 L 35.672100000000015 23.00769999999999 C 37.379100000000015 22.10144999999999 39.17990000000002 21.34749999999999 41.05880000000001 20.77329999999999 L 44.88690000000001 5.394299999999989 L 55.12490000000001 5.394299999999989 z M 49.999700000000004 32.367000000000004 C 40.2614 32.367000000000004 32.36670000000001 40.261500000000005 32.36670000000001 50 C 32.36670000000001 59.738499999999995 40.26120000000001 67.633 49.999700000000004 67.633 C 59.7382 67.633 67.6327 59.738499999999995 67.6327 50 C 67.6327 40.261500000000005 59.7382 32.367000000000004 49.999700000000004 32.367000000000004 z" stroke-linecap="round" />
</g>
</svg>
