<svg xmlns="http://www.w3.org/2000/svg" version="1.1" viewBox="-5.0 -10.0 110.0 135.0">
 <g>
  <path d="m65.234 89.234-0.20703-0.15625c-0.57812 0.88672-1.3477 1.7148-1.8555 2.6367 0.089844 0.097656 0.17969 0.11328 0.30078 0.15625 0.042969-0.011719 0.097656-0.011719 0.13281-0.039063 0.13281-0.097656 1.4219-2.2148 1.625-2.5195l0.003906-0.082031z"/>
  <path d="m29.863 92.461c0.03125 0.078124 0.007813 0.058593 0.042969 0.085937l0.21484-0.019531c0.19531-0.36719 1.418-2.5039 1.3633-2.707-0.39062 0.41406-1.3906 2.1094-1.6211 2.6406z"/>
  <path d="m38.648 85.211c0.125-0.96484-0.30078-1.9766-0.55469-2.8906-0.16016-0.58203-0.30469-1.1719-0.42188-1.7656-0.29297-1.4883-0.52734-3.043-0.59766-4.5586-0.050781-1.0742 0.60156-1.9805 0.72656-3.0391 0.10156-0.85938-0.21875-1.6094-0.21094-2.4453 0.011718-1.0898 0.19531-2.2422 0.33594-3.3203 0.058594-0.46094 0.16797-0.94922 0.16406-1.4141-0.007813-0.69531-0.21094-1.3789-0.28906-2.0664-2.5391-0.54297-4.0156-1.1289-6.2852-2.3711 0.74219 1.9375 1.5508 3.875 1.8867 5.9297 0.15625 0.94531 0.31641 2.0195 0.24219 2.9766-0.027343 0.36328-0.23828 0.66406-0.28906 1.0195-0.21094 1.4805 0.21094 2.8281 1.0938 4.0156 0.10547 2.793 0.34375 6.7305-0.68359 9.3438-0.18359 0.46484-0.41406 0.90234-0.67188 1.3281-0.34375 0.5625-1.8789 2.5234-1.1836 3.1758 0.72266 0.67578 2.9375 0.60938 3.8984 0.55078 0.09375-0.007813 0.18359-0.015626 0.27734-0.023438l0.16016-0.625c0.12891-0.46484 0.30859-0.89453 0.60547-1.2812 0.6875-0.89453 1.6367-1.2695 1.7969-2.5273z"/>
  <path d="m40.48 92.465c-0.42969 1.1562-0.78516 2.3398-1.2734 3.4727 1.1172-0.027344 2.1719-0.10547 3.2461-0.44531 0.59375-0.21875 1.1484-0.48438 1.6992-0.80078-0.066406-0.65234-0.097656-1.3047-0.09375-1.9609-1.2148 0.011719-2.3867 0.003906-3.5781-0.26562z"/>
  <path d="m39.238 91.832c-0.62109 0.98438-1.1719 2.0234-1.7227 3.0469l0.56641-0.027344c0.11719-0.007812 0.15234 0.003907 0.23047-0.089843 0.14844-0.17969 0.25781-0.44141 0.36719-0.64844 0.33594-0.62891 0.64062-1.3008 1.0664-1.875l-0.51172-0.40625z"/>
  <path d="m32.324 90.227c-0.16016 0.43359-0.41016 0.84375-0.62891 1.25-0.36328 0.68359-0.73047 1.3672-1.1055 2.043 1.1484 0.15234 2.3164 0.023438 3.4375-0.26172 0.65234-0.18359 1.2539-0.41016 1.8359-0.75781-0.011719-0.66406 0.027344-1.332 0.03125-1.9961-1.1875 0.011719-2.4102 0.027344-3.5703-0.28125z"/>
  <path d="m21.605 8.3984 0.039062 0.042968-0.003906 0.054688c-0.28906-0.058594-0.40234-0.40625-0.71484-0.5-0.023437-0.007813-0.046875-0.015625-0.066406-0.019532-0.37109-0.10547-0.80469-0.097656-1.1914-0.09375-0.75781 0.55859-1.4844 1.2109-2.0391 1.9766 0.73828 0.12891 1.6172 0.33984 2.082 1.0039 0.011718 0.015625 0.019531 0.035157 0.03125 0.050781-0.023438 0.035157-0.007813 0.023438-0.054688 0.039063-0.019531-0.023437-0.035156-0.046875-0.058594-0.066406-0.58594-0.60547-1.3398-0.77344-2.1445-0.83203-0.71484 0.75781-1.3164 1.6328-1.7734 2.5703 0.88281-0.12891 1.6758-0.039062 2.4023 0.51562 0.14453 0.10938 0.29297 0.23438 0.41797 0.37109l-0.035156 0.027343c-0.78125-0.52734-1.6055-0.93359-2.5781-0.74219-0.09375 0.019531-0.18359 0.042969-0.27344 0.074219-0.49609 0.54688-0.85156 1.4453-1.0898 2.1406 0.58594 0.51953 1.3125 0.64844 2.0742 0.59766 0.64062-0.042969 1.2969-0.23438 1.8555-0.55469 0.13672-0.85938 0.28125-1.6914 0.58984-2.5117 0.91797-2.4609 3.0039-4.4883 5.0977-6l0.078125-0.058594c-0.1875-0.19531-0.37109-0.37891-0.57812-0.55078 0.25391 0.13281 0.44922 0.27344 0.64844 0.48047 0.60547-0.37109 1.2148-0.74219 1.8398-1.0742 0.25781-0.13672 0.875-0.32812 1.0391-0.54297l-0.125-0.003906c-2.6016 0.25-5.1797 1.082-7.1328 2.8945 0.75781 0.027344 1.1367 0.14844 1.6602 0.70703z"/>
  <path d="m19.574 6.4023c-0.1875-0.16797-0.39062-0.28906-0.60547-0.41406l0.023438-0.011719c0.26953 0.097657 0.47656 0.24219 0.70312 0.41406 0.28906-0.27734 1.4258-1.5312 1.625-1.6328 0.011719-0.023437 0.019532-0.042968 0.03125-0.066406 0.007813-0.015625 0.015626-0.03125 0.023438-0.046875l-0.019531 0.066407 0.058593-0.11719-0.046874-0.015625c-1.918 0.86328-3.9258 1.8398-5.3789 3.4023 0.44531-0.003907 0.98438-0.007813 1.332 0.32422 0.039063 0.035156 0.039063 0.039062 0.0625 0.078124l-0.054687 0.046876c-0.55469-0.19531-0.97266-0.41016-1.5508-0.12891-0.71484 0.35156-1.3203 1.2148-1.8047 1.8398 0.5625-0.074219 0.98438-0.0625 1.4531 0.29688 0.13281 0.097656 0.25781 0.20312 0.38672 0.30859 1.1016-1.6133 2.3125-2.7578 3.8047-4.3008-0.015626-0.011718-0.027344-0.027343-0.042969-0.039062z"/>
  <path d="m15.812 10.738s-0.003906 0.003907-0.003906 0.003907c0.007812 0.003906 0.015625 0.007812 0.023437 0.011718-0.007812-0.003906-0.015625-0.011718-0.019531-0.015625z"/>
  <path d="m14.449 11.918c0.18359 0.042969 0.34375 0.11719 0.50781 0.21094 0.27734-0.50391 0.5625-0.96094 0.85156-1.3828-0.69141-0.35547-1.1797-0.54297-1.9766-0.40234-0.19922 0.24219-0.375 0.48438-0.54297 0.75l-0.83203 1.3711c0.60547-0.35938 1.2617-0.71094 1.9922-0.54297z"/>
  <path d="m4.2344 31.148c0.070313 0.58984 0.29297 1.8789 0.78516 2.2539 0.078125 0.058594 0.125 0.035156 0.21484 0.035156 0.085937-0.47266 0.046875-0.94922-0.035156-1.418-0.25391-0.33203-0.58594-0.67969-0.96484-0.86719z"/>
  <path d="m13.355 13.922c0.20703-0.078125 0.58203 0 0.74219-0.14062 0.24609-0.21875 0.65625-1.2695 0.84375-1.6289-0.34766-0.078125-0.65625-0.11719-1.0156-0.078125-0.72266 0.17969-1.3867 0.5-1.793 1.1602-0.33203 0.53516-0.48828 1.1914-0.65234 1.793 0.21094-0.15234 0.42188-0.32031 0.64453-0.46484 0.39062-0.23047 0.80078-0.47656 1.2305-0.63672z"/>
  <path d="m95.613 34.566c-1.7344 1.5391-3.6836 2.4453-6.0391 2.2969-1.3672-0.085937-2.5664-0.63281-3.8594-1.0117-0.61328-0.17969-1.2383-0.28125-1.8711-0.36328 0.73828 0.80859 1.5195 1.6211 2.1367 2.5273 0.58984 0.98438 1.0039 1.9648 1.332 3.0664 1.8945 0.41406 3.2852 0.3125 4.9688-0.75391 1.7539-1.1133 2.8672-3.2852 3.2969-5.2656 0.035156-0.16016 0.078125-0.30859 0.054687-0.46875l-0.023437-0.023438z"/>
  <path d="m16.805 21.691c-0.40234-0.12109-0.8125-0.14062-1.2266-0.089844-0.57031 0.29688-0.88281 0.80078-1.0703 1.4023-0.054687 0.17969-0.074218 0.36719-0.085937 0.55078 0.71875 0.20312 1.3008 0.39062 2.0547 0.25 0.42188-0.19141 0.91016-0.60547 1.082-1.0508 0.066406-0.17969 0.082031-0.38281-0.003906-0.55859-0.14063-0.27344-0.46875-0.42578-0.75-0.50781zm0.17187 1.3594c-0.042968 0.19531-0.17578 0.33594-0.34766 0.42969-0.34375 0.19141-0.94141 0.24609-1.3125 0.125-0.074218-0.023438-0.085937-0.035157-0.14062-0.070313-0.019531-0.046875-0.042969-0.097656-0.050781-0.14844-0.0625 0.066406-0.054688 0.074219-0.14844 0.097656-0.1875 0.046875-0.34766 0.011719-0.50781-0.085937 0.097656-0.10547 0.16797-0.17578 0.32422-0.18359 0.14453-0.003906 0.23047 0.082031 0.33203 0.17188-0.089844-0.28906-0.17188-0.58594-0.26953-0.87109 0.46094 0.09375 0.92188 0.1875 1.3477-0.085937 0.12109-0.078126 0.23047-0.17188 0.34375-0.26172 0.070313 0.078125 0.16406 0.15625 0.21875 0.24609 0.12891 0.20703 0.27344 0.37891 0.21484 0.63672z"/>
  <path d="m66.066 89.668c-0.60156 0.97266-1.2617 1.9492-1.7773 2.9648 1.1719 0.26953 2.5 0.15625 3.6719-0.0625 0.47656-0.12109 0.96875-0.22656 1.4023-0.46094 0.125-0.63281 0.25-1.2656 0.39844-1.8945-1.2656 0.15625-2.5117-0.125-3.6992-0.55078z"/>
  <path d="m77.066 69.508c-2.5664-2.3125-4.6797-4.8633-6.3867-7.8711-0.085938-0.15234-0.28125-0.61328-0.44531-0.67188-1.1914 0.52734-2.3711 0.96875-3.6172 1.3477 0.91797 2.1133 2.2812 3.9141 3.4219 5.8984 0.62109 1.082 1.125 2.2617 1.2461 3.5156 0.23047 2.3789-0.76953 5.082-1.4766 7.3359-0.32031 1.0234-0.61719 2.082-1.0156 3.0781-0.26953 0.67188-0.61328 1.2812-1.043 1.8633-0.59375 0.80078-2.9336 3.0391-2.4648 4.0742 0.23828 0.52344 1 0.78516 1.5039 0.95703 0.23828 0.082032 0.48047 0.14844 0.72266 0.21094 0.76172 0.14844 1.4531 0.14844 2.2227 0.085937 0.19922-1.1094 0.66797-1.8398 1.5938-2.4883 0.91406-0.64062 1.5117-0.71094 1.7383-1.9609 0.16406-0.90625 0.042969-1.8281 0.10156-2.7383 0.10547-1.5859 0.54297-3.2461 1.0352-4.7578 0.34766-1.0664 0.78125-2.1367 1.2695-3.1484 0.89453-1.8555 1.5781-2.5742 1.5898-4.7266z"/>
  <path d="m77.027 91.812c-0.45312 0.50781-1.4453 2.1094-1.7891 2.7422l0.03125 0.0625 0.55078 0.003906c0.26953-0.5625 1.1992-2.2578 1.2578-2.7305l-0.050781-0.074219z"/>
  <path d="m78.039 92.141c-0.53906 1.1445-1.1133 2.2891-1.5703 3.4727 1.1719 0.054688 2.2812-0.042969 3.4258-0.31641 0.51562-0.15234 1.0039-0.3125 1.4805-0.5625 0.089844-0.73438 0.16797-1.4727 0.27344-2.2031-1.2852 0.09375-2.3711-0.015625-3.6055-0.38672z"/>
  <path d="m84.73 53.094c2.3203-4.25 3.1875-9.9375 0.64844-14.281-0.49219-0.84375-1.1641-1.5508-1.8086-2.2773-0.58203-0.65625-1.1562-1.3477-1.8125-1.9336-1.707-1.5273-3.9883-2.5781-6.1914-3.1484-5.6406-1.4648-12.453 0.16016-18.074 1.2305-2.3398 0.44531-4.668 0.89453-7.0547 0.95703-2.0312 0.054687-3.582-0.34766-5.5352-0.69141-3.1992-0.5625-6.3477-0.83594-9.5625-0.26562-4.2578-1.7734-8.0742-6.9023-10.074-10.906-1.4883 0.35938-3.0664 0.47266-4.5781 0.16406 1.1641-0.56641 2.4766-0.53516 3.7227-0.80859 2.5547-0.5625 4.6445-1.9062 6.2812-3.9414 0.48438-0.60547 1.0039-1.3477 1.2695-2.082 0.0625-0.17578 0.085937-0.30078 0.039062-0.48438-0.10938-0.12109-0.17188-0.16797-0.34375-0.17188-0.019531 0-0.035156 0-0.054688 0.003906-0.95703 0.32422-1.8359 0.78125-2.8164 1.0664-1.1914 0.34375-2.4297 0.48437-3.6172 0.83203-1.5352 0.44531-4.3125 1.875-5.0547 3.3555-0.1875 0.37891-0.23438 0.72656-0.25 1.1406-0.25-0.40234-0.34375-0.85937-0.23438-1.3281 0.22656-0.97266 1.3203-1.7031 2.0234-2.3516-0.43359-0.24219-0.85156-0.49609-1.2461-0.79688-0.37891-0.28906-0.73828-0.625-1.1445-0.87109-0.77734 0.73828-2.043 1.0273-3.0898 1-0.73047-0.019531-1.5273-0.19531-2.0508-0.74219-0.28516-0.30078-0.38281-0.55859-0.42969-0.96094-0.003906-0.023437-0.007812-0.042969-0.007812-0.066406-0.31641 0.12891-0.62109 0.25781-0.91406 0.43359-0.70703 0.43359-1.3281 0.98438-1.9922 1.4805-0.57422 0.43359-1.207 0.8125-1.7109 1.332-0.22656 0.23047-0.40625 0.48047-0.53516 0.78125-0.55859 1.3242 0.42969 3.0664-0.28516 4.9062-0.33984 0.875-0.90234 1.6875-1.4727 2.4258-0.90625 1.1758-2.4219 2.5703-2.5117 4.125 0.30469 0.28125 0.60938 0.56641 0.91797 0.84375 0.57422-0.48438 1.6562-1.5039 2.4258-1.5664 0.082031 0.070312 0.070312 0.035156 0.082031 0.12891 0.039062 0.32422-0.16016 0.72656-0.37109 0.96094-0.52734 0.58203-1.9102 0.75391-1.8867 1.6914 0.011718 0.38672 0.17187 0.80078 0.26172 1.1758 1.4805 0.11328 3.0625 0.027344 4.2617-0.98047 0.30078-0.25 1.0508-1.2695 1.207-1.3477 0.12891 0.015625 0.19141 0.023438 0.27734 0.13281 0.089844 0.11719 0.082031 0.27344 0.039062 0.40625-0.26953 0.82813-1.4102 1.6406-2.168 1.9961-1.0117 0.47656-2.0703 0.52344-3.1719 0.52344 0.37891 0.64844 0.875 1.1797 1.6211 1.3906 0.63672 0.17969 1.3672 0.12891 1.9453-0.20703 1.1055-0.64063 1.6836-1.7305 3.0039-2.2188 1.0898-0.40234 3.1367-0.80859 4.3047-0.91016 0.80078-0.070312 1.6016-0.042969 2.3945-0.19531 2.4766-0.48047 3.5352-2.6055 4.0898-4.875 0.125-0.51172 0.20312-1.0273 0.26953-1.5469 0.26953 1.8906 0.011719 3.7539-1.1602 5.3164-0.90625 1.207-2.1016 1.8164-3.582 2.0156-0.94922 0.125-1.9062 0.11719-2.8594 0.26172 0.44922 0.39062 0.89844 0.77344 1.2578 1.25 0.69141 0.91406 1.1484 2.0586 1.6562 3.0859 0.56641 1.1406 1.168 2.2617 1.8047 3.3633 0.87891 1.5234 1.8242 3.0273 2.8906 4.4258 0.56641 0.74219 1.4375 1.5781 1.8906 2.3516-0.027343 4.0859 1.1484 8.0898 4.0664 11.059 2.0312 2.0625 4.9805 3.4961 7.832 4-0.51953-1.2461-1.5938-1.5977-2.6211-2.332-1.293-0.92578-2.6406-2.4023-2.7305-4.0742-0.027344-0.48047 0.0625-0.92578 0.17578-1.3867 0.12891 1.7578 1.1602 3.2344 2.4688 4.3555 0.9375 0.80469 2.2891 1.2852 3.0352 2.2305 0.26172 0.33203 0.40625 0.70312 0.52344 1.1016 0.22266 0.77344 0.35547 1.5859 0.5 2.375l0.66406 3.7461 0.37891 2.1289c0.078125 0.41406 0.1875 0.84375 0.22656 1.2617 0.039062 0.41016-0.16016 0.79688-0.20703 1.1953-0.16797 1.4414 0.53906 2.7773 1.3477 3.8984 0.17578 3.2773 0.64844 6.6797-0.48047 9.8555-0.32422 0.91016-0.92578 1.6758-1.2617 2.5703-0.21484 0.56641-0.29297 1.1562 0.21094 1.5898 0.89453 0.76953 3.1016 0.69141 4.2344 0.61328 0.019531-0.41797 0.042968-0.81641 0.1875-1.2109 0.44531-1.2266 1.6758-1.957 1.7031-3.3906 0.019531-1.0039-0.63672-2.543-0.89453-3.5703-0.34766-1.3828-0.61719-2.8047-0.81641-4.2148-0.09375-0.65625-0.24219-1.4531-0.14453-2.1055 0.070312-0.46484 0.3125-0.90234 0.48047-1.3359 0.19141-0.49609 0.28125-1.0391 0.31641-1.5703 0.066406-1.0547-0.32812-1.6133-0.41797-2.5195-0.089844-0.91797 0.10938-1.9688 0.20312-2.8945 0.15625-1.5625 0.41016-3.0859 0.74609-4.6172 0.39844-1.8242 1.4609-4.7422 1.2148-6.4961-0.38672-2.75-2.6758-4.8086-3.7266-7.2852 0.73828 0.88281 1.543 1.7578 2.2109 2.6914 1.5156 2.0508 2.7773 3.7422 2.3789 6.4297-0.17188 1.1758-0.55078 2.3203-0.89062 3.457 2.7109 0.19531 5.8555 0.36328 8.5664 0.23047 4.2773-0.20703 10.883-1.4922 14.723-3.3672-0.83984-2.125-1.5352-4.4531-0.58594-6.6719 0.875-2.0469 2.8203-3.0117 4.207-4.625 0.67188-0.78516 1.0156-1.4727 1.4297-2.3945-0.16016 4.1875-4.8867 4.8867-5.1797 9.0078-0.11328 1.625 0.44531 3.2148 1.1523 4.6562 1.2266 2.4961 2.8086 4.6992 4.6992 6.7383 3.0508 3.2891 5.8125 4.3594 5.6211 9.5117-0.10156 2.7266-0.94531 7.7617-2.1484 10.211-0.21875 0.44141-0.44922 0.87891-0.73047 1.2852-0.37891 0.54688-1.9883 2.332-1.3047 3.0664 0.50391 0.53906 2.7969 0.80859 3.5156 0.80078 0.38281-0.003906 0.75391-0.035156 1.1289-0.11328 0.17578-0.60547 0.40234-1.1445 0.77734-1.6562 0.60156-0.8125 1.7617-1.5352 2.0312-2.5195 0.30078-1.0977-0.0625-2.457-0.12109-3.5859-0.042969-0.84375-0.023437-1.6953 0.046875-2.5391 0.17969-2.1523 0.67969-4.2734 1.332-6.3242 0.27734-0.87891 0.80859-1.9922 0.92969-2.875 0.11719-0.83984 0.011719-2.0469-0.41406-2.7891-0.46094-0.80469-1.3516-1.3398-1.9492-2.0508-2.125-2.5195-2.9297-6.2539-2.1133-9.4375 0.45703-1.7695 1.6641-3.1367 2.5273-4.7109zm-63.559-32.281c0.30469-0.67188 0.95312-1.2891 1.4688-1.8125 1.5234-1.543 2.8438-2.2812 4.9648-2.6836 0.95703-0.17969 1.8672-0.35938 2.7852-0.69922 0.027344 0 0.050781 0.015624 0.074219 0.027343-0.48047 0.60547-2.6562 0.97266-3.4688 1.2109-0.55078 0.16016-1.1016 0.34766-1.6055 0.62109-1.0664 0.57422-2.0586 1.5391-2.8906 2.418-0.39844 0.42188-0.78125 0.88281-1.2383 1.2422-0.015625 0.011719-0.03125 0.023437-0.046875 0.035156l-0.066406-0.015625-0.046876-0.097656c0.015626-0.085938 0.035157-0.16406 0.070313-0.24609zm-3.4023 2.5391c-0.35156 0.52344-0.88281 0.77734-1.4805 0.90625-0.50391 0.054688-1.7031-0.039062-2.1211-0.33594-0.13281-0.09375-0.21094-0.22266-0.24219-0.38281-0.089843-0.45703 0.21094-1.1172 0.45703-1.5039 0.32813-0.51953 0.72266-0.82812 1.3203-0.96094 0.52344-0.042969 1.0312 0.054687 1.4961 0.30078 0.35547 0.19141 0.72656 0.49219 0.83203 0.90234 0.09375 0.36719-0.054688 0.77344-0.25781 1.0742zm-0.16797-3.625c-0.875-0.5-2.0039-0.62891-2.9766-0.35547-0.65234 0.18359-1.0781 0.52734-1.4062 1.1094-0.44531 0.96484-0.54297 2.0352-0.97266 3 0.085937-1.1758 0.082031-2.6797 0.80469-3.6602 0.5-0.67578 1.1797-0.90625 1.9688-1.0234 0.26953-0.03125 0.5625-0.03125 0.83203 0 0.97656 0.11328 1.7305 0.59766 2.3281 1.3594-0.1875-0.15234-0.375-0.30469-0.58594-0.42578z"/>
 </g>
</svg>