<svg xmlns="http://www.w3.org/2000/svg" version="1.1" viewBox="-5.0 -10.0 110.0 135.0">
 <path d="m57.277 93.895c-0.39844-0.53906-0.53906-1.25-0.59766-1.9062-0.14844-1.6055 0.16406-3.2812 0.72656-4.7852 0.12891-0.34766 1.2188-2.5039 1.2109-2.6406-1.8008 0.41016-3.6523 0.60938-5.4844 0.82812 0.78516 1.7422 1.4375 3.3672 1.543 5.3086 0.023438 0.42188 0.023438 0.84375 0 1.2656-0.023437 0.42188-0.066406 0.83984-0.13672 1.2578-0.11328 0.71484-0.35156 1.4961-0.28906 2.2227 0.10547 1.2578 1.3281 2.3008 2.4492 2.7227 1.6875 0.63672 3.8906 0.20312 5.6406 0.007812 1.4102-0.14062 2.8438-0.30859 4.2617-0.33984l-0.058593-0.050782c-2.3242-1.9531-7.6484-1.7031-9.2656-3.8867z"/>
 <path d="m56.066 99.141c-0.125-0.078125-0.26562-0.14453-0.39844-0.20703-2.5273-1.0703-6.5117-1.3516-8.668-2.75-0.45312-0.29688-0.82422-0.67969-1.0195-1.1875-0.85547-2.1992 0.23438-6.1562 1.207-8.2539 0.21484-0.46094 0.44531-0.91406 0.69922-1.3555-2.2227-0.28125-4.3008-0.71484-6.4375-1.3984 1.1289 2.9727 2.3359 6.1133 2.2422 9.3477-0.015625 0.51562-0.058594 1.0469-0.15625 1.5547-0.14453 0.78906-0.53516 1.7148-0.32422 2.5117 0.25 0.9375 1.2383 1.6406 2.0781 2.0195 0.73828 0.32812 1.5273 0.50391 2.332 0.55469 2.1055 0.13281 4.3008-0.25391 6.4062-0.41016 0.58594-0.042968 1.793-0.007812 2.3008-0.14844-0.035156-0.14453-0.13281-0.19141-0.25391-0.26562z"/>
 <path d="m92.605 14.297c-0.57812-0.48828-1.3984-0.83203-2.0625-1.2031-1.832-1.0312-3.7461-2.043-5.3516-3.418-1.168-1-1.6016-2.1641-2.2422-3.5234-0.85547-1.8125-2.0742-3.4609-3.7812-4.5508-0.21484-0.13672-0.43359-0.26172-0.65625-0.375-0.11328-0.054687-0.22656-0.11328-0.33984-0.16406-0.11719-0.054688-0.22656-0.10547-0.34766-0.15625-0.11719-0.050781-0.23438-0.097656-0.34766-0.14453-0.11719-0.046875-0.23437-0.089844-0.35547-0.13281-0.11719-0.042968-0.23828-0.082031-0.35938-0.11719-0.12109-0.035157-0.24219-0.074219-0.36328-0.10547-0.12109-0.035156-0.24609-0.066406-0.36719-0.09375-0.125-0.027344-0.24609-0.054688-0.36719-0.082031-0.125-0.023438-0.24609-0.046875-0.37109-0.070313-0.125-0.023437-0.24609-0.039062-0.375-0.054687-0.125-0.015625-0.25-0.03125-0.375-0.046875s-0.25-0.023438-0.375-0.03125c-0.125-0.0078126-0.25-0.015625-0.375-0.019531-0.125-0.0039062-0.25391-0.0039062-0.375-0.0039062-0.125 0-0.25391 0-0.375 0.0039062-0.125 0.0039063-0.25391 0.011719-0.375 0.019531-3.0859 0.21484-5.9102 1.5039-7.9648 3.8477-3.918 4.4727-4.4336 12.332-4.0391 17.992 0.054688 0.79687 0.125 1.5898 0.21875 2.3828s0.20703 1.582 0.33594 2.3711c0.13281 0.78906 0.28125 1.5703 0.45312 2.3516 0.16797 0.78125 0.35938 1.5547 0.56641 2.3281 0.41797 1.5195 0.89844 3.0156 1.4453 4.4961 1.0742 2.957 4.4414 10.73 2.0938 13.469-0.44531 0.51953-1.0586 0.79688-1.7383 0.83984-0.53125 0.035156-1.0938-0.046875-1.5977-0.21875-0.80469-0.28125-1.5742-0.79688-2.3438-1.1719-0.73047-0.35938-1.4727-0.69531-2.2305-1.0039-0.75781-0.30859-1.5195-0.58984-2.293-0.84375-0.61719-0.20703-1.2383-0.39453-1.8672-0.56641-0.62891-0.17188-1.2578-0.32422-1.8906-0.46484-0.63672-0.13672-1.2734-0.25781-1.9141-0.35938-0.64062-0.10547-1.2852-0.1875-1.9297-0.25391-0.55859-0.054687-1.1172-0.10156-1.6797-0.13281s-1.1211-0.050782-1.6836-0.054688-1.125 0-1.6875 0.023438c-0.5625 0.019531-1.1211 0.054687-1.6836 0.10156-0.55859 0.046875-1.1172 0.10547-1.6758 0.17969-0.55859 0.074218-1.1133 0.15625-1.668 0.25391-0.55469 0.097656-1.1055 0.20703-1.6523 0.33203-0.54688 0.125-1.0938 0.26172-1.6367 0.40625-1.5938 0.44531-3.1562 0.97656-4.6875 1.6055-0.89844 0.36719-1.832 0.86328-2.7656 1.125-0.83203 0.23438-1.7578 0.24609-2.6133 0.24219-3.7891-0.003907-6.7578-1.3398-9.5469-3.8281l-0.10938-0.097656c-0.046874 2.2539 0.94922 3.7109 2.3789 5.3398-4.0898-0.089844-6.668-0.50391-10.422-2.1523 0.79688 2.9883 2.582 6.0977 4.1797 8.7422 5.6172 9.3164 12.141 16.84 21.641 22.34 1.5117 0.875 3.1094 1.6367 4.6992 2.3477 6.793 2.8438 11.742 3.668 19.066 2.5547 3.3125-0.50391 6.4375-1.332 9.5352-2.6016 6.3359-2.5938 13.281-7.582 16.016-14.086 2.0078-4.7773 1.1328-9.8281-0.77344-14.457-0.55469-1.3477-1.1797-2.7148-1.9102-3.9766-0.41797-0.71484-0.91797-1.3789-1.3711-2.0703-0.54688-0.83203-1.0547-1.6953-1.5703-2.5469-3.8359-6.3242-6.4258-12.703-7.1992-20.113-0.22656-2.1719-0.39062-5.3828 0.44531-7.3984 0.48828-1.168 1.3242-1.8672 2.4414-2.4023-1.3984-0.25391-2.707-0.88672-3.543-2.0703-0.6875-0.98047-0.96875-2.0703-1.0586-3.25 0.4375 1.6914 1 3.0625 2.5625 3.9922 1.9062 1.1289 5.625 1.3711 7.7969 1.1172 1.2383-0.14453 2.4453-0.45703 3.707-0.4375 1.4609 0.023438 3.0156 0.46094 4.4336 0.79688 1.2773 0.30078 2.5547 0.62109 3.8242 0.96094 0.75391 0.20703 1.5898 0.49609 2.3477 0.63281 0.16797 0.03125 0.35156 0.046875 0.51953 0 0.1875-0.046875 0.31641-0.16406 0.41016-0.33203 0.20703-0.36719 0.17969-0.83594 0.066407-1.2305-0.089844-0.30469-0.24609-0.59766-0.48828-0.80469zm-24.695 46.578c0.30469 3.1953-1.0234 5.7305-3.0039 8.1328-3.9609 4.8008-9.6914 7.3711-15.812 7.9414-8.2969 0.76953-17.008-1.7812-23.434-7.1211-3.8906-3.2344-7.1484-7.9922-7.625-13.129-2-0.89453-4.4883-2.4492-5.8203-4.1914 1.0703 0.16016 2.125 0.38672 3.207 0.5 3.8086 0.40234 7.4531-0.18359 11.07-1.3672l0.10547 0.011719c-0.5625 0.32422-1.2383 0.55859-1.8438 0.78906-3.0938 1.1602-6.7031 1.8633-9.9844 1.2461 1.9258 1.5586 5.4727 3.0859 7.8945 3.6719 4.3594 1.0547 7.8477-0.058594 11.535-2.3125-0.375 0.34375-0.77344 0.65625-1.1953 0.94531-2.4297 1.6914-5.4609 3.0117-8.4727 2.4727 1.2695 0.75391 2.4688 1.6836 3.7656 2.375 2.2188 1.1797 4.8711 1.0117 7.1406 0.066406 0.53125-0.22266 1.2344-0.71875 1.7109-0.86719l0.015624 0.023438c-0.375 0.27734-0.75 0.5625-1.1445 0.81641-2.0625 1.3203-4.332 1.7734-6.7266 1.2383 1.0078 0.98828 2 2.0664 3.1445 2.8984 2.3672 1.7188 4.3594 1.707 7.1172 1.2812-1.9648 0.73828-4.1328 0.97656-6.1133 0.20703 1.0469 1.1602 1.9609 2.3398 3.3594 3.1094 1.7148 0.94141 3.6641 0.98047 5.5234 0.46484 0.60547-0.16797 1.1953-0.40625 1.8008-0.58203-1.8398 1.0273-4.0898 1.918-6.2227 1.3828 1.8555 1.6406 4.0977 2.8945 6.4219 3.7422 1.7227 0.62891 3.6836 1.2305 5.5312 1.2578 2.1367 0.035156 5.2891-1.0664 7.2305-1.9648l0.13672-0.066406c3.9688-1.9453 8.1914-5.5977 9.6328-9.8867 0.72266-2.1445 0.41797-4.9414-0.30078-7.0508-0.22266-0.65625-0.52734-1.2695-0.83203-1.8906 1.168 1.2617 2.0352 4.168 2.1953 5.8555zm8.9219-55.227c-0.003906 0.035156-0.007812 0.070312-0.015625 0.10547-0.003906 0.035156-0.015625 0.066406-0.023437 0.10156-0.011719 0.035156-0.023438 0.066406-0.035157 0.097656-0.14844 0.36719-0.4375 0.54688-0.78516 0.69531-0.19531 0.035156-0.38672 0.042968-0.58594-0.011719-0.035157-0.011719-0.074219-0.023438-0.10938-0.035157-0.035156-0.015624-0.070313-0.03125-0.10547-0.046874-0.035156-0.015626-0.066406-0.035157-0.10156-0.058594-0.035156-0.023438-0.066406-0.046875-0.09375-0.066406-0.03125-0.023438-0.058593-0.050782-0.085937-0.078126-0.027344-0.027343-0.054687-0.054687-0.078125-0.085937s-0.046875-0.0625-0.066406-0.09375c-0.019532-0.035156-0.039063-0.066406-0.054688-0.10156-0.015625-0.03125-0.03125-0.066406-0.042968-0.09375-0.011719-0.035156-0.023438-0.066406-0.035157-0.10156-0.007812-0.035156-0.015625-0.066406-0.023437-0.10547-0.003906-0.035156-0.007813-0.070312-0.011719-0.10547v-0.10547c0-0.035156 0.003906-0.070313 0.007813-0.10547 0.003906-0.035156 0.011718-0.070313 0.019531-0.10547 0.007812-0.035156 0.015625-0.066406 0.03125-0.10156 0.13281-0.375 0.39453-0.54688 0.74219-0.70703 0.23047-0.03125 0.45703-0.050781 0.67969 0.015626 0.29688 0.089843 0.55078 0.30078 0.67969 0.58203 0.015625 0.03125 0.027344 0.066406 0.039063 0.097656 0.011718 0.035156 0.019531 0.066406 0.027344 0.10156 0.007812 0.035156 0.015624 0.066406 0.015624 0.10547 0.003907 0.035156 0.003907 0.070313 0.007813 0.10547 0 0.035156 0 0.070313-0.003906 0.10547zm6.0508 1.6484c-0.22266 0.054687-0.44531-0.074219-0.67187-0.10547-0.16406-0.023437-0.34766 0.011719-0.47656 0.125-0.57812 0.5 0.12109 2.5156 0.070313 3.4102-0.074219 1.2148-0.69531 2.2266-1.5898 3.0117-0.38672 0.24609-0.68359 0.20703-1.125 0.1875 1.4688-0.78906 2.4219-2.293 2.1914-4-0.11719-0.86328-0.60547-1.7461-0.28125-2.6211 0.14844-0.40234 0.39453-0.57813 0.77344-0.75781 0.20703-0.023437 0.40234-0.035156 0.60156 0.027344 0.22656 0.066406 0.41797 0.17969 0.51562 0.40625 0.046875 0.10938 0.046875 0.20312 0 0.3125z"/>
 <path d="m32.32 66.48c-1.7539-1.9531-3.5156-3.8672-5.6133-5.4648-2.3359-1.7734-4.9258-2.8633-7.6523-3.8906 0.074218 1.25 0.47656 2.5078 0.94922 3.6602 1.3203 3.2148 3.3516 5.8047 5.9492 8.0977 4.3203 3.8086 9.8945 5.9961 15.527 6.9062 1.457 0.23438 3.0078 0.45313 4.4844 0.36719 0.10547-0.003906 0.20703-0.015625 0.30469-0.023438-3.9219-0.90625-7.3828-2.9297-10.277-5.7109-1.2891-1.2383-2.4766-2.6055-3.668-3.9375z"/>
</svg>