<?xml version="1.0" encoding="utf-8"?>
<svg data-name="Layer 1" viewBox="0 0 512 640" x="0px" y="0px" xmlns="http://www.w3.org/2000/svg">
  <path d="M 466.26 283.198 C 461.288 280.65 455.673 279.68 450.148 280.417 C 456.376 266.705 451.115 250.445 438.086 243.135 C 432.903 240.203 426.94 239.008 421.047 239.717 C 427.605 217.782 408.276 196.878 386.256 202.089 C 377.989 204.045 370.961 209.529 366.984 217.129 L 364.697 221.567 C 354.088 204.631 329.454 205.401 319.897 222.969 L 316.671 228.903 L 301.956 218.358 L 297.827 196.234 C 293.247 171.788 282.314 149.024 266.154 130.292 L 235.715 94.991 C 227.159 85.19 212.597 83.73 202.314 91.642 C 192.62 98.942 189.656 112.33 195.339 123.129 L 197.694 127.649 L 123.083 74.548 C 112.873 67.247 98.796 69.427 91.203 79.485 L 89.591 81.617 C 81.854 91.729 83.509 106.253 93.319 114.31 L 113.592 131.08 L 56.03 103.59 C 44.36 98.038 30.435 102.155 23.544 113.198 C 15.931 125.424 19.675 141.602 31.857 149.124 L 83.393 180.925 L 47.865 169.104 C 36.241 165.268 23.666 171.159 19.016 182.616 L 18.09 184.935 C 13.275 196.966 18.916 210.684 30.737 215.692 L 88.813 240.11 L 74.371 238.951 C 56.485 237.547 43.806 256.293 51.55 272.694 C 54.427 278.788 59.741 283.341 66.149 285.203 C 92.918 293.003 158.165 311.766 186.1 317.549 C 195.512 319.601 205.197 320.044 214.754 318.858 L 212.73 337.065 C 211.023 352.165 214.117 367.421 221.558 380.617 L 242.586 418.131 C 245.753 423.736 245.878 430.592 242.918 436.314 L 210.65 498.977 C 208.097 503.376 211.201 508.925 216.237 508.964 C 218.831 508.984 221.193 507.448 222.256 505.049 L 254.525 442.467 C 259.544 432.754 259.338 421.118 253.976 411.594 L 232.924 374.092 C 226.864 363.339 224.344 350.909 225.732 338.607 L 228.271 315.775 C 233.046 314.167 237.6 311.947 241.821 309.17 L 271.677 325.637 C 274.841 327.384 278.804 326.208 280.539 323.007 L 331.331 229.355 C 336.276 220.598 348.72 220.55 353.731 229.269 C 355.927 233.091 356.073 237.778 354.12 241.732 L 338.592 271.436 C 336.232 275.945 339.575 281.351 344.608 281.167 C 346.944 281.082 349.057 279.74 350.153 277.647 L 365.636 248.025 L 365.693 247.909 L 378.534 223.352 C 384.321 212.079 399.978 211.384 406.716 222.101 C 409.842 227.074 410.115 233.361 407.429 238.592 L 399.424 254.539 C 399.299 254.77 399.173 255.002 399.058 255.234 L 371.547 309.83 C 369.253 314.375 372.676 319.732 377.706 319.473 C 380.04 319.35 382.134 317.977 383.199 315.868 L 410.985 260.762 C 415.086 253.3 424.368 250.6 431.751 254.724 C 438.836 258.707 441.645 267.588 438.165 275.004 L 412.46 329.474 C 410.259 334.067 413.791 339.354 418.817 338.988 C 421.149 338.818 423.216 337.401 424.238 335.269 L 440.349 301.857 C 443.977 294.322 452.975 291.238 460.372 294.996 C 467.324 298.576 470.387 306.977 467.404 314.281 L 429.166 407.885 C 419.496 431.658 401.286 450.827 378.214 461.52 L 370.209 465.275 C 364.195 468.076 359.291 472.854 356.293 478.834 L 319.577 552.437 C 317.949 555.704 319.238 559.691 322.458 561.349 C 323.373 561.811 324.384 562.054 325.408 562.056 C 327.876 562.058 330.138 560.65 331.251 558.417 L 367.923 484.825 C 369.573 481.518 372.282 478.875 375.606 477.328 L 383.668 473.585 C 409.746 461.49 430.33 439.828 441.275 412.961 L 479.514 319.357 C 485.055 305.645 479.29 289.917 466.26 283.198 Z M 272.203 310.792 L 244.428 295.471 C 241.984 294.15 238.989 294.506 236.915 296.363 C 236.252 296.966 220.038 311.07 188.717 304.581 C 161.275 298.878 96.383 280.243 69.797 272.49 C 65.342 271.157 62.319 266.964 62.422 262.257 C 62.582 256.339 67.586 251.759 73.41 252.198 L 128.583 256.439 C 133.613 256.81 137.153 251.523 134.955 246.922 C 134.26 245.466 133.063 244.315 131.59 243.691 L 35.756 203.407 C 30.589 201.194 28.123 195.194 30.211 189.918 L 31.126 187.6 C 33.194 182.601 38.695 180.044 43.783 181.712 L 133.26 211.485 C 138.043 213.078 142.734 208.825 141.703 203.83 C 141.333 202.037 140.246 200.477 138.702 199.525 L 38.661 137.801 C 30.604 132.535 31.192 120.407 39.719 115.967 C 43.066 114.227 47.01 114.111 50.45 115.655 L 156.186 166.148 C 160.731 168.346 165.917 164.732 165.523 159.646 C 165.382 157.831 164.51 156.155 163.116 155.011 L 101.609 104.065 C 97.302 100.536 96.571 94.166 99.962 89.73 L 101.586 87.598 C 104.914 83.19 111.083 82.234 115.559 85.43 L 211.13 153.458 L 219.9 170.309 C 211.37 182.675 208.008 195.979 209.907 209.897 C 214.4 242.764 246.931 266.962 248.315 267.982 C 252.395 270.979 258.147 268.376 258.668 263.296 C 258.909 260.939 257.892 258.629 256 257.239 C 255.702 257.019 226.555 235.22 222.839 208.031 C 221.273 196.524 224.6 185.421 232.718 175.026 C 234.324 172.96 234.579 170.132 233.371 167.806 L 206.911 116.929 C 202.835 108.881 208.884 99.38 217.799 99.827 C 220.889 99.981 223.791 101.382 225.857 103.718 L 256.308 139.018 C 270.9 155.985 280.769 176.586 284.895 198.702 L 289.469 223.456 C 289.784 225.146 290.736 226.645 292.122 227.64 L 310.211 240.608 L 272.203 310.792 Z" style=""/>
</svg>