<?xml version="1.0" encoding="utf-8"?>
<svg data-name="Layer 1" viewBox="0 0 512 640" x="0px" y="0px" xmlns="http://www.w3.org/2000/svg">
  <title>Grab</title>
  <path d="M 446.276 297.954 C 438.686 248.298 435.845 229.718 427.288 175.061 C 423.024 147.809 398.609 128.867 372.862 132.838 L 371.999 132.971 C 359.527 134.918 348.416 141.937 341.299 152.362 C 337.959 144.95 332.883 138.452 326.499 133.418 C 304.85 115.966 272.758 121.764 258.585 145.689 C 255.438 140.438 251.359 135.804 246.55 132.015 C 236.565 123.983 223.67 120.507 211.001 122.432 L 210.084 122.573 C 196.125 124.822 183.961 133.332 177.062 145.673 C 174.116 141.247 170.486 137.316 166.309 134.026 C 156.321 125.992 143.421 122.516 130.748 124.444 C 104.959 128.421 87.39 153.879 91.581 181.188 L 96.76 215.142 L 56.984 252.957 C 28.314 280.227 23.149 324.056 44.694 357.243 L 125.194 481.179 C 125.277 481.306 125.363 481.43 125.453 481.553 C 148.124 512.467 182.771 530.231 218.691 530.228 C 224.242 530.228 229.784 529.804 235.27 528.958 L 361.581 509.483 C 424.654 499.757 467.581 437.124 457.281 369.861 C 452.591 339.267 449.105 316.467 446.276 297.954 Z M 359.143 493.667 L 232.832 513.144 C 197.232 518.632 161.104 502.972 138.485 472.269 L 58.112 348.528 C 40.764 321.804 44.925 286.511 68.012 264.553 L 99.706 234.421 L 108.863 294.462 C 109.792 300.55 116.963 303.35 121.771 299.501 C 124.002 297.715 125.111 294.875 124.68 292.049 L 113.224 216.967 C 113.214 216.89 113.202 216.813 113.189 216.736 L 107.398 178.767 C 104.543 160.167 116.112 142.889 133.198 140.255 C 141.484 139.025 149.907 141.326 156.417 146.598 C 163.461 152.221 168.101 160.316 169.392 169.236 L 170.7 177.719 C 170.767 178.262 170.842 178.804 170.926 179.347 C 170.959 179.56 170.999 179.77 171.048 179.977 L 181.554 248.115 C 182.493 254.202 189.669 256.99 194.471 253.134 C 196.699 251.344 197.804 248.501 197.368 245.676 L 186.555 175.548 C 184.441 157.466 195.855 140.956 212.522 138.386 L 213.439 138.246 C 221.725 137.015 230.148 139.316 236.658 144.588 C 243.702 150.211 248.342 158.306 249.634 167.226 L 251.675 180.464 C 251.684 180.521 251.692 180.58 251.701 180.637 L 251.712 180.704 L 259.234 229.492 C 260.18 235.578 267.358 238.357 272.155 234.496 C 274.377 232.708 275.479 229.872 275.047 227.053 L 267.494 178.061 C 264.701 159.499 276.253 142.29 293.389 139.648 C 301.675 138.419 310.097 140.72 316.607 145.991 C 323.652 151.614 328.292 159.708 329.583 168.629 L 336.689 214.718 C 337.627 220.805 344.803 223.593 349.605 219.737 C 351.834 217.948 352.939 215.105 352.503 212.28 L 348.663 187.374 L 348.655 187.321 C 347.198 178.424 349.184 169.306 354.209 161.821 C 358.829 154.833 366.167 150.102 374.439 148.78 L 375.303 148.646 C 392.348 146.014 408.577 158.976 411.482 177.53 C 420.035 232.16 422.874 250.73 430.461 300.367 C 433.291 318.878 436.777 341.685 441.461 372.279 C 450.433 430.834 413.504 485.287 359.143 493.667 Z"/>
</svg>