<?xml version="1.0" encoding="UTF-8"?>
<svg width="1200pt" height="1200pt" version="1.1" viewBox="0 0 1200 1200" xmlns="http://www.w3.org/2000/svg">
 <path d="m818.57 347.36-7.5586 4.7266c-1.5352-2.8789-3.0859-5.7617-4.9922-8.543-15.047-21.719-37.945-33.504-57.816-31.754 0.21484-15.48-5.6523-32.652-17.785-47.242-17.699-21.277-42.949-30.758-63.07-25.766 0.88672-3.1914 1.3789-6.4922 1.4023-9.8867h-0.011719c0.19141-26.879-28.645-49.066-64.008-49.211h-0.43359c-35.184 0.070312-63.84 21.613-64.02 48.348-0.011719 1.4766 0.38281 2.8438 0.53906 4.2852-17.699 1.1055-36.852 11.629-50.352 29.762l-0.26563 0.35938c-11.699 15.898-16.477 34.078-14.855 49.895-17.566 0.40625-36.949 9.9727-51.203 27.203l-0.27734 0.33594c-2.4258 2.9766-4.5117 6.0859-6.4453 9.2383l-10.066-6.9102-407.35 593.54 97.164 66.672 407.34-593.53-7.2852-5.0039c0.67188-0.74219 1.4141-1.3555 2.0625-2.1367 13.285-16.066 19.105-35.113 17.566-51.625 18.109-0.57422 37.945-11.074 51.84-29.746 10.812-14.52 15.949-31.043 15.574-45.898 6.3359 1.6328 12.996 2.7461 20.027 2.7734 12.613 0.046875 24.324-2.7617 34.285-7.5-3.6016 17.688 1.9805 39.336 16.777 57.133l0.27734 0.33594c15.77 18.742 37.441 28.117 56.137 26.473-0.625 14.578 3.9727 30.863 14.004 45.348l0.25391 0.35938c0.97266 1.3789 2.1133 2.5195 3.1328 3.8164l-10.535 6.5742 381.45 610.5 99.934-62.414zm-383.12 14.121c1.5586-3.1211 3.3711-6.2031 5.7344-9.0859l0.27734-0.33594c13.043-15.77 33.121-20.281 45.086-10.32 11.965 9.9609 11.125 30.516-1.9336 46.297-1.3086 1.5859-2.7344 2.9766-4.1758 4.332zm117.9-54.047c-12.227 16.43-32.305 22.297-44.762 12.973-12.383-9.2773-12.504-29.93-0.43359-46.332l0.25391-0.34766c12.227-16.43 32.039-21.961 44.496-12.625 12.457 9.3359 12.672 29.906 0.44531 46.332zm52.25-50.219c-20.484-0.085938-37.129-12.742-37.02-28.309 0.12109-15.48 16.656-27.828 37.02-27.875h0.43359c20.484 0.085938 36.684 12.742 36.574 28.309-0.10937 15.562-16.527 27.957-37.008 27.875zm65.566 55.297-0.27734-0.33594c-13.094-15.758-13.789-36.312-1.7891-46.223 11.988-9.9102 32.039-5.2812 45.133 10.465 13.094 15.742 14.074 36.648 2.0898 46.559-11.965 9.8633-32.051 5.1211-45.156-10.465zm71.617 73.605-0.25391-0.35938c-11.652-16.836-10.559-37.379 2.2578-46.199 12.828-8.8203 32.387-2.4492 44.051 14.387 2.0156 2.9023 3.5156 5.9414 4.7891 9.0117l-46.199 28.848c-1.6328-1.7383-3.1953-3.6328-4.6445-5.6875z" fill="#010101"/>
</svg>
