<?xml version="1.0" encoding="UTF-8" standalone="no" ?>
<!DOCTYPE svg PUBLIC "-//W3C//DTD SVG 1.1//EN" "http://www.w3.org/Graphics/SVG/1.1/DTD/svg11.dtd">
<svg xmlns="http://www.w3.org/2000/svg" xmlns:xlink="http://www.w3.org/1999/xlink" version="1.1" width="1080" height="1080" viewBox="0 0 1080 1080" xml:space="preserve">
<desc>Created with Fabric.js 5.2.4</desc>
<defs>
</defs>
<g transform="matrix(1 0 0 1 540 540)" id="9f93773c-b33e-4a90-9dad-72eb24262f93"  >
<rect style="stroke: none; stroke-width: 1; stroke-dasharray: none; stroke-linecap: butt; stroke-dashoffset: 0; stroke-linejoin: miter; stroke-miterlimit: 4; fill: rgb(255,255,255); fill-rule: nonzero; opacity: 1; visibility: hidden;" vector-effect="non-scaling-stroke"  x="-540" y="-540" rx="0" ry="0" width="1080" height="1080" />
</g>
<g transform="matrix(1 0 0 1 540 540)" id="e680bf92-3c31-429a-852d-56e95ba88074"  >
</g>
<g transform="matrix(1 0 0 1 540 540)"  >
<rect style="stroke: none; stroke-width: 1; stroke-dasharray: none; stroke-linecap: butt; stroke-dashoffset: 0; stroke-linejoin: miter; stroke-miterlimit: 4; fill: rgb(255,255,255); fill-rule: nonzero; opacity: 1; visibility: hidden;" vector-effect="non-scaling-stroke"  x="-540" y="-540" rx="0" ry="0" width="1080" height="1080" />
</g>
<g transform="matrix(2.03 0 0 2.03 558.39 331.85)"  >
<path style="stroke: none; stroke-width: 1; stroke-dasharray: none; stroke-linecap: butt; stroke-dashoffset: 0; stroke-linejoin: miter; stroke-miterlimit: 4; fill: rgb(0,0,0); fill-rule: nonzero; opacity: 1;" vector-effect="non-scaling-stroke"  transform=" translate(-360.45, -176.23)" d="M 374.03 300.16 L 346.86999999999995 300.16 C 342.8973 300.15609400000005 339.08879999999994 298.57410000000004 336.28 295.76550000000003 C 333.47139999999996 292.9608 331.89329999999995 289.15220000000005 331.88939999999997 285.1795 L 331.88939999999997 156.9395 C 331.88939999999997 141.0915 323.991 126.28750000000001 310.82739999999995 117.46650000000001 C 297.66339999999997 108.6423 280.9684 106.96650000000001 266.31139999999994 112.9899 C 251.65539999999993 119.0133 240.96339999999992 131.9469 237.80739999999994 147.47390000000001 C 236.33469999999994 154.6887 232.06129999999993 161.0249 225.92039999999994 165.0909 C 219.78369999999995 169.1573 212.28339999999994 170.62210000000002 205.06539999999995 169.1612 L 203.52629999999996 168.8487 C 196.29969999999997 167.3839 189.95629999999997 163.1065 185.88529999999997 156.95770000000002 C 181.81499999999997 150.81320000000002 180.35799999999998 143.3017 181.83059999999998 136.0747 C 186.64309999999998 112.42970000000001 199.47859999999997 91.1727 218.16659999999996 75.9067 C 236.85459999999995 60.636700000000005 260.2406 52.2977 284.37359999999995 52.2937 C 300.75659999999993 52.250731 316.91659999999996 56.1023 331.51859999999994 63.5277 C 342.32759999999996 69.0316 352.11259999999993 76.3477 360.4445999999999 85.1687 C 368.7765999999999 76.3484 378.56159999999994 69.02770000000001 389.37859999999995 63.5277 C 403.9805999999999 56.1019 420.14059999999995 52.2507 436.5266 52.2937 C 460.6556 52.2937 484.0496 60.6296 502.7376 75.8987 C 521.4256 91.1687 534.2576 112.4257 539.0656 136.0747 C 540.5344 143.2974 539.0734130000001 150.8017 535.0070000000001 156.94570000000002 C 530.9367000000001 163.08630000000002 524.5970000000001 167.3597 517.378 168.8247 L 515.8389000000001 169.1372 C 508.62410000000006 170.5942 501.12790000000007 169.133294 494.99090000000007 165.07080000000002 C 488.8581000000001 161.0122 484.58090000000004 154.68380000000002 483.09990000000005 147.47680000000003 L 483.09990000000005 147.44945600000003 C 479.92800000000005 131.93745600000003 469.23690000000005 119.01945600000002 454.58790000000005 113.00845600000002 C 439.9399 106.99285600000002 423.25590000000005 108.67255600000003 410.09990000000005 117.48505600000003 C 396.94390000000004 126.29365600000003 389.03790000000004 141.07905600000004 389.01790000000005 156.91505600000002 L 389.01790000000005 285.15505600000006 C 389.0218070000001 289.13555600000007 387.44370000000004 292.94805600000007 384.63120000000004 295.7600560000001 C 381.81870000000004 298.57645600000006 378.00620000000004 300.15845600000006 374.02920000000006 300.15845600000006 z M 349.811 282.238 L 371.092 282.238 L 371.088094 156.938 C 371.099812 135.12599999999998 381.975094 114.75399999999999 400.096094 102.60999999999999 C 418.217094 90.46899999999998 441.19809399999997 88.15299999999999 461.373094 96.43809999999999 C 481.553094 104.71929999999999 496.27509399999997 122.51209999999999 500.639094 143.88309999999998 L 500.639094 143.92606899999998 C 501.732894 149.25026899999997 506.924294 152.68776899999997 512.2520939999999 151.61356899999998 L 513.798994 151.30106899999998 C 516.357594 150.78153899999998 518.607594 149.26586899999998 520.048994 147.086269 C 521.490394 144.906569 522.009894 142.246469 521.486494 139.683969 C 517.048994 117.792969 504.32649399999997 98.45696899999999 485.978494 85.71896899999999 C 467.630494 72.97696899999998 445.072494 67.80896899999999 423.009494 71.29696899999999 C 400.94349400000004 74.78526899999999 381.079494 86.651969 367.552494 104.43396899999999 C 365.85719400000005 106.65276899999999 363.224394 107.95736899999999 360.431394 107.95736899999999 C 357.638394 107.95736899999999 355.001694 106.65266899999999 353.306394 104.43396899999999 C 339.779394 86.667969 319.919394 74.80896899999999 297.861394 71.32496899999998 C 275.806394 67.84056899999999 253.25639400000003 73.00466899999998 234.912394 85.73496899999998 C 216.568394 98.46896899999997 203.842394 117.78596899999998 199.392394 139.66896899999998 C 198.868954 142.23146899999998 199.384582 144.89556899999997 200.829894 147.075169 C 202.27129399999998 149.25486899999999 204.525194 150.770469 207.087694 151.28996899999999 L 208.634594 151.60246899999999 L 208.630687 151.60246899999999 C 213.958787 152.680569 219.150687 149.24696899999998 220.243687 143.92666899999998 C 224.591387 122.53966899999998 239.309687 104.72766899999998 259.497687 96.43066899999997 C 279.681687 88.13376899999997 302.673687 90.44626899999997 320.802687 102.59866899999997 C 338.927687 114.74666899999997 349.806687 135.13366899999997 349.806687 156.95766899999998 z" stroke-linecap="round" />
</g>
<g transform="matrix(2.03 0 0 2.03 428.07 245.87)"  >
<path style="stroke: none; stroke-width: 1; stroke-dasharray: none; stroke-linecap: butt; stroke-dashoffset: 0; stroke-linejoin: miter; stroke-miterlimit: 4; fill: rgb(0,0,0); fill-rule: nonzero; opacity: 1;" vector-effect="non-scaling-stroke"  transform=" translate(-296.54, -134.07)" d="M 287.18 176.45 C 285.3128 176.45 283.4534 176.2625 281.6253 175.89140999999998 L 280.0901 175.58281999999997 C 272.8713 174.10231999999996 266.5351 169.82111999999998 262.4691 163.67681999999996 C 258.40310000000005 157.53251999999995 256.9418 150.02881999999997 258.40270000000004 142.80581999999995 C 262.04720000000003 124.98981999999995 270.2617 108.42681999999996 282.23870000000005 94.74681999999996 C 285.50040000000007 91.02021999999995 291.16060000000004 90.64131999999995 294.8867000000001 93.89915999999995 C 298.60940000000005 97.15695999999996 298.9883000000001 102.82105999999996 295.7304500000001 106.54415999999995 C 285.8046500000001 117.89215999999995 279.00045000000006 131.62215999999995 275.9844500000001 146.39615999999995 C 274.9102500000001 151.72815999999995 278.3555500000001 156.92315999999994 283.6836500000001 158.01315999999994 L 285.22275000000013 158.32565999999994 L 285.2266560000001 158.32956699999994 C 290.5430560000001 159.39986699999994 295.7226560000001 155.96236699999994 296.8006560000001 150.64596699999993 C 299.9295560000001 135.34096699999992 308.4336560000001 121.65796699999993 320.7696560000001 112.07196699999993 C 324.67195600000014 109.03286699999992 330.3008560000001 109.73216699999993 333.3436560000001 113.63836699999993 C 336.38275600000014 117.54066699999993 335.68345600000015 123.17356699999993 331.77725600000014 126.21236699999993 C 322.81635600000016 133.16936699999994 316.64025600000014 143.09936699999992 314.36325600000015 154.21236699999992 C 313.07415600000013 160.47796699999992 309.6679560000002 166.10736699999993 304.71875600000016 170.1573669999999 C 299.76955600000014 174.2042669999999 293.5737560000002 176.4268669999999 287.17975600000017 176.45036699999991 z" stroke-linecap="round" />
</g>
<g transform="matrix(2.03 0 0 2.03 688.68 245.8)"  >
<path style="stroke: none; stroke-width: 1; stroke-dasharray: none; stroke-linecap: butt; stroke-dashoffset: 0; stroke-linejoin: miter; stroke-miterlimit: 4; fill: rgb(0,0,0); fill-rule: nonzero; opacity: 1;" vector-effect="non-scaling-stroke"  transform=" translate(-424.34, -134.04)" d="M 433.71 176.45 C 427.30769999999995 176.434375 421.108 174.21169999999998 416.155 170.15699999999998 C 411.20199999999994 166.10229999999999 407.7956 160.4656 406.5105 154.19599999999997 C 404.22929999999997 143.08299999999997 398.0535 133.15299999999996 389.0925 126.19599999999997 C 387.2175 124.73509999999997 385.9987 122.59049999999996 385.70579999999995 120.23509999999997 C 385.41282999999993 117.87569999999998 386.06907999999993 115.49679999999998 387.53 113.62179999999998 C 390.5691 109.71559999999998 396.198 109.01629999999997 400.104 112.05539999999998 C 412.44 121.64519999999997 420.94399999999996 135.33239999999998 424.073 150.64139999999998 C 425.00658999999996 155.22729999999999 429.03 158.52419999999998 433.7097 158.54369999999997 C 434.36986 158.54369999999997 435.03 158.47338699999997 435.6745 158.34057999999996 L 437.2253 158.02807999999996 C 442.5573 156.93427999999997 445.9987 151.73507999999995 444.9245 146.40307999999996 C 441.9128 131.63307999999995 435.10810000000004 117.90307999999996 425.1825 106.55907999999997 C 423.5809 104.77387999999996 422.7645 102.42237999999996 422.913 100.03177999999997 C 423.05753 97.64117999999996 424.15520000000004 95.41067999999997 425.956 93.83257999999996 C 427.76070000000004 92.25837999999996 430.12010000000004 91.46927999999997 432.5068 91.64507999999996 C 434.8974 91.81695999999997 437.1162 92.94197999999996 438.6709 94.76227999999996 C 450.6399 108.43827999999996 458.8509 124.99227999999997 462.4869 142.80127999999996 C 463.94 150.02007999999995 462.47518099999996 157.52027999999996 458.4088 163.65627999999995 C 454.3463 169.79687999999996 448.01079999999996 174.07427999999996 440.7998 175.55427999999995 L 439.2607 175.86677999999995 C 437.4326 176.24568999999994 435.5732 176.44099999999995 433.7099 176.44880999999995 z" stroke-linecap="round" />
</g>
<g transform="matrix(2.03 0 0 2.03 519.19 777.97)"  >
<path style="stroke: none; stroke-width: 1; stroke-dasharray: none; stroke-linecap: butt; stroke-dashoffset: 0; stroke-linejoin: miter; stroke-miterlimit: 4; fill: rgb(0,0,0); fill-rule: nonzero; opacity: 1;" vector-effect="non-scaling-stroke"  transform=" translate(-341.23, -394.97)" d="M 469.91 507.7 L 197.34000000000003 507.7 C 189.13690000000003 507.7 181.55900000000003 503.3211 177.45700000000002 496.21999999999997 C 173.35540000000003 489.11449999999996 173.35540000000003 480.36499999999995 177.45700000000002 473.25899999999996 C 181.5586 466.15349999999995 189.13700000000003 461.77899999999994 197.34000000000003 461.77899999999994 L 470.15000000000003 461.77899999999994 C 473.36480000000006 461.77899999999994 476.05620000000005 459.31019999999995 476.14610000000005 456.2672999999999 L 476.150006 456.2672999999999 C 476.19297500000005 454.73209999999995 475.614846 453.2399999999999 474.540606 452.13839999999993 C 473.47030600000005 451.0328999999999 471.997606 450.4078999999999 470.45860600000003 450.40399999999994 L 212.53860600000002 450.40399999999994 C 184.05060600000002 450.40399999999994 160.65960600000003 427.47799999999995 160.38660600000003 399.2989999999999 L 160.38270000000003 399.2989999999999 C 160.26942000000003 385.5329999999999 165.65220000000002 372.2869999999999 175.34370000000004 362.5059999999999 C 185.03120000000004 352.72079999999994 198.22670000000005 347.2129999999999 211.99170000000004 347.1969999999999 L 331.83170000000007 347.1969999999999 C 334.9723000000001 347.19309299999986 337.5153000000001 344.6500999999999 337.51920000000007 341.5094999999999 L 337.51920000000007 291.1974999999999 C 337.51920000000007 286.24829999999986 341.5309000000001 282.2365999999999 346.48010000000005 282.2365999999999 L 374.48010000000005 282.2365999999999 C 376.85510000000005 282.2365999999999 379.13630000000006 283.1819099999999 380.81600000000003 284.8615999999999 C 382.49570000000006 286.5412999999999 383.44100000000003 288.8224999999999 383.44100000000003 291.1974999999999 L 383.44100000000003 341.4904999999999 C 383.429281 355.18149999999986 377.98400000000004 368.30649999999986 368.30400000000003 377.98649999999986 C 358.6243 387.6661999999999 345.495 393.10749999999985 331.80800000000005 393.11949999999985 L 212.29800000000006 393.11949999999985 C 209.08320000000006 393.11949999999985 206.39180000000005 395.59609999999986 206.30190000000005 398.63119999999986 L 206.30190000000005 398.6272939999999 C 206.25893100000005 400.1663939999999 206.84096000000005 401.6584939999999 207.91130000000004 402.76009399999987 C 208.98160000000004 403.8655939999999 210.45430000000005 404.4905939999999 211.98940000000005 404.49839399999985 L 470.4594000000001 404.49839399999985 C 484.2324000000001 404.5101129999999 497.42840000000007 410.01789399999984 507.11940000000004 419.80339399999986 C 516.8108000000001 429.58859399999983 522.1934 442.8383939999999 522.0684 456.6123939999999 C 521.79496 484.7803939999999 498.4084 507.7023939999999 469.9164 507.7023939999999 z M 197.34000000000003 479.7 C 194.55880000000002 479.7 192.30090000000004 481.9539 192.30090000000004 484.7391 C 192.30090000000004 487.5203 194.55870000000004 489.7782 197.34000000000003 489.7782 L 469.91 489.7782 C 488.60900000000004 489.7782 503.96500000000003 474.81320000000005 504.144 456.4232 L 504.144 456.42710700000003 C 504.21821900000003 447.43880700000005 500.7026 438.79010700000003 494.3784 432.404107 C 488.0542 426.018107 479.4404 422.419707 470.4524 422.404107 L 211.98239999999998 422.404107 C 205.59959999999998 422.40020100000004 199.4904 419.814307 195.0444 415.232207 C 190.5991 410.650207 188.1967 404.466207 188.3842 398.084207 C 188.7592 385.463207 199.4822 375.18620699999997 212.2902 375.18620699999997 L 331.8002 375.18620699999997 C 340.72990000000004 375.17839499999997 349.2962 371.62760699999995 355.61220000000003 365.31120699999997 C 361.9286 358.994807 365.47940000000006 350.428207 365.48720000000003 341.49920699999996 L 365.48720000000003 300.1592069999999 L 355.40920000000006 300.1592069999999 L 355.40920000000006 341.4912069999999 C 355.4052940000001 347.7568069999999 352.9209000000001 353.7612069999999 348.49120000000005 358.19020699999993 C 344.06540000000007 362.61990699999996 338.06120000000004 365.1121069999999 331.8002000000001 365.11990699999996 L 211.96020000000007 365.11990699999996 C 202.96800000000007 365.12771899999996 194.35520000000008 368.72540699999996 188.03020000000006 375.11600699999997 C 181.70600000000007 381.502707 178.19040000000007 390.151007 178.26850000000007 399.139007 C 178.44819000000007 417.534007 193.80350000000007 432.498007 212.50250000000008 432.498007 L 470.4525000000001 432.498007 C 476.8353000000001 432.498007 482.9485000000001 435.08390699999995 487.3935000000001 439.666007 C 491.83850000000007 444.248107 494.24120000000005 450.432007 494.0497000000001 456.81100699999996 C 493.6747000000001 469.440007 482.9517000000001 479.709007 470.1437000000001 479.709007 z" stroke-linecap="round" />
</g>
</svg>