<svg xmlns="http://www.w3.org/2000/svg" version="1.1" viewBox="-5.0 -10.0 110.0 135.0">
 <g>
  <path d="m38.211 27.242c-0.5 0-0.91406 0.40625-0.91406 0.90625 0 0.50781 0.41406 0.91406 0.91406 0.91406s0.90625-0.40625 0.90625-0.91406c0-0.5-0.40625-0.90625-0.90625-0.90625z"/>
  <path d="m57.836 28.68c0.50781 0 0.92969-0.41406 0.92969-0.92969s-0.42188-0.92969-0.92969-0.92969c-0.51563 0-0.9375 0.41406-0.9375 0.92969s0.42187 0.92969 0.9375 0.92969z"/>
  <path d="m52.855 82.754c-0.003907-0.003906-0.007813-0.007812-0.011719-0.011718-0.81641-0.80469-1.6016-1.5938-2.3164-2.4922-0.72266-0.91016-1.4297-1.832-2.125-2.7617-0.67188-0.89453-1.4375-1.7891-1.9844-2.7695-0.17578-0.3125-0.30859-0.64453-0.50781-0.9375 0.19922 1.1445 0.050782 2.3359-0.4375 3.4062-0.26172 0.57031-0.79688 1.5781-1.4531 1.75-0.29297 0.078125-0.57422-0.039062-0.76172-0.27344-0.039062-0.050781-0.058593-0.10547-0.082031-0.16016-0.17969 0.32031-0.39453 0.61719-0.65625 0.77734-0.24219 0.14844-0.5 0.10156-0.74609-0.007812-0.19922-0.089844-0.40625-0.29688-0.60938-0.42969-0.042968 0.13672-0.078124 0.31641-0.09375 0.36719-0.0625 0.19922-0.13281 0.39844-0.20703 0.59766-0.12109 0.33203-0.24609 0.69922-0.41797 1.0078 0.70703 0.84375 1.4688 1.6445 2.6953 1.3711 1.0625-0.23438 1.7578-1.1562 2.9062-0.6875s2.2617 0.89453 3.4883 1.125c1.0312 0.19141 2.2656 0.38672 3.3281 0.13281z"/>
  <path d="m25.82 17.992c0.48828 0.91797 1.1562 1.8945 2.1758 2.2695 0.86328 0.31641 1.9727 0.1875 2.4688-0.66797 0.10938-0.1875 0.17578-0.39453 0.23047-0.60547-0.03125-1.8828-2.0312-3.0938-1.8711-5.0547 0.019531-0.22656 0.23828-0.48047 0.49609-0.375 0.089844 0.035156 0.17969 0.074218 0.27344 0.10938-0.027344-0.44141-0.058594-0.88672-0.085938-1.3281-0.015624-0.28125 0.26172-0.41016 0.49609-0.375 0.17969 0.023437 0.34375 0.070312 0.51172 0.12109-0.17578-1.125-0.67969-2.1836-1.332-3.1133-0.66406-0.94531-1.5898-1.9336-2.7031-2.3359-0.5625 0.39062-1.0469 0.90625-1.375 1.4805-1.1328 1.9688-1.0859 4.4414-0.54688 6.582 0.28906 1.1445 0.71484 2.2578 1.2695 3.3008z"/>
  <path d="m60.195 11.559c0.16797 0.078125 0.42969 0.03125 0.60938 0.074218 0.17578 0.042969 0.35547 0.11719 0.49219 0.24219 0.29688 0.27344 0.33984 0.6875 0.25 1.0625-0.074219 0.31641-0.41797 0.74219-0.44531 1.1016 0.60547-0.14844 1.2227-0.20703 1.8516-0.16016 0.28516 0.023438 0.5 0.32031 0.33594 0.58594-0.77734 1.2734-0.60547 2.8203 0.17188 4.0508 0.32031 0.50781 0.82422 1.2539 1.5039 1.2109 0.77734-0.046874 1.332-0.87891 1.7031-1.4727 0.66797-1.0664 1.0742-2.2969 1.1562-3.5508 0.09375-1.4102-0.28906-2.7969-0.22266-4.207 0.0625-1.3281 0.23047-2.5625-0.27734-3.8398-0.41797-1.0508-1.332-2.3789-2.6172-2.2969-0.48438 0.03125-0.91016 0.23828-1.3008 0.52344-0.011719 0.011719-0.015625 0.023438-0.03125 0.035157-0.17188 0.13281-0.33594 0.27344-0.49219 0.41797-0.30078 0.29297-0.57812 0.61328-0.83984 0.91406-0.87109 1.1133-1.4492 2.4492-1.7852 3.832-0.078124 0.31641-0.43359 1.3086-0.066406 1.4766z"/>
  <path d="m87.934 85.055c-0.95312-0.97266-2.1289-1.7695-3.3281-2.4102-2.0391 0.75781-4.1914 1.168-6.3555 1.5039 0.003906 1.25 0.14453 2.5391 0.77734 3.6406 0.29297 0.50391 0.6875 0.98047 1.1953 1.2812 0.23438 0.14063 0.53125 0.25781 0.80859 0.19531 0.20703-0.046875 0.46875-0.25781 0.42578-0.49609v-0.011719c-0.67188-0.77734-1.168-1.707-1.4141-2.7148-0.12109-0.48828 0.63281-0.69531 0.75391-0.20703 0.29297 1.2031 0.96484 2.2734 1.9102 3.0781 0.45312 0.38672 0.98047 0.70703 1.5352 0.92188 0.26562 0.10156 0.60937 0.23437 0.89062 0.11719 0.23438-0.097656 0.30469-0.375 0.26563-0.60547-1.1328-0.89453-2.0273-2.0859-2.8828-3.2305-0.30078-0.40234 0.37891-0.79297 0.67578-0.39453 1.1797 1.5781 2.5117 3.3828 4.4805 4.0039 0.1875 0.058594 0.41797 0.12891 0.61328 0.066407 0.20312-0.0625 0.24609-0.26562 0.28516-0.45312 0.09375-0.48438 0.089844-0.9375-0.27734-1.3008-0.35547-0.34766-0.80469-0.61719-1.207-0.91016-0.44531-0.32031-0.89063-0.64453-1.3398-0.96484-0.40625-0.29297-0.015625-0.96875 0.39453-0.67578l1.5312 1.1016c0.40234 0.28906 0.85156 0.5625 1.1992 0.92188 0.027344-0.007813 0.054687-0.011719 0.082031-0.023438 0.003906-0.003906 0.10547-0.0625 0.14453-0.097656 0.22266-0.21484 0.16406-0.46094 0.039063-0.71094-0.30469-0.60547-0.72266-1.1445-1.1953-1.6289z"/>
  <path d="m92.332 67.004c-0.35547-2.2578-0.74609-4.5156-1.1484-6.7656-0.1875-1.0508-0.37891-2.1016-0.68359-3.125-0.3125-1.0352-0.8125-1.9648-1.2891-2.9336-0.93359-1.8828-1.7188-3.8828-2.3672-5.8789-0.33203-1.0234-0.58203-2.0625-0.84766-3.1016-0.26172-1.0312-0.66406-1.8828-1.2891-2.7383-0.58984-0.80859-0.92188-1.7656-1.5195-2.5586-0.59766-0.79688-1.5234-1.2773-2.3789-1.7422-0.27734-0.14844-0.24609-0.66406 0.09375-0.71484 0.09375-0.015624 0.17578-0.039062 0.25391-0.066406-1.3711-2.8203-3.1367-5.4375-5.2695-7.7383-1.0859-1.1719-2.2578-2.2617-3.5078-3.2578-1.1406-0.91016-2.3945-2.0156-3.8359-2.418 0.035156 0.95703-0.035157 1.9531 0.39844 2.8359 0.43359 0.875 1.1914 1.5352 1.9102 2.168 0.14844 0.13281 0.15625 0.42188 0 0.55078-0.1875 0.15625-0.38281 0.26172-0.58594 0.34375 0.28125 0.17578 0.57812 0.32031 0.89844 0.42578 0.39063 0.12891 0.94531 0.11328 1.2148 0.47266 0.23047 0.30469 0.18359 0.73438-0.035156 1.0352-0.10938 0.15234-0.25391 0.24219-0.41406 0.3125 0.34766 0.30469 0.69922 0.60938 1.0352 0.92969 0.23047 0.21875 0.089844 0.55469-0.17188 0.65234-0.27344 0.10547-0.55078 0.18359-0.83203 0.23438 0.75391 0.77734 1.4727 1.5977 2.0977 2.4805 0.28516 0.40234 0.39844 0.86328 0.082031 1.2891-0.17578 0.23438-0.40625 0.36719-0.66406 0.4375 0.3125 0.36719 0.59766 0.75391 0.83203 1.1758 2.043-0.019532 4.0898 0.078125 6.1367 0.32031 0.49219 0.058594 0.5 0.83984 0 0.78125-2.2695-0.27344-4.5352-0.35938-6.7969-0.30469 0.32812 0.44922 0.63281 0.91406 0.87891 1.4258 0.097656 0.20312 0.035156 0.53125-0.23438 0.57422-0.11719 0.019531-0.23047 0.019531-0.34766 0.027343 0.68359 1.1289 0.8125 2.4531 0.625 3.7578 3.8047 1.25 7.4492 2.9805 10.863 5.1602 0.42188 0.26953 0.03125 0.94531-0.39453 0.67578-1.6875-1.0781-3.4336-2.0664-5.2383-2.9375-1.75-0.84375-3.5469-1.5469-5.375-2.1406-0.10547 0.4375-0.23047 0.86719-0.39062 1.2812-0.27734 0.70703-0.625 1.3828-1.0117 2.0391 4.9531 2.7109 9.3242 6.4219 12.832 10.91 0.30469 0.39062-0.24219 0.94922-0.55078 0.55078-1.4297-1.832-3-3.5508-4.7109-5.125-2.4258-2.2266-5.1094-4.1133-7.9688-5.6602-0.50781 0.78125-1.0781 1.5234-1.6992 2.2305 0.51562 0.38281 1.0273 0.77344 1.5234 1.1797 3.7578 3.1016 6.7852 7.0156 8.8945 11.402 0.21875 0.45312-0.45703 0.84766-0.67578 0.39453-1.2344-2.5664-2.7734-4.9844-4.6211-7.1562-1.6719-1.9688-3.5781-3.7227-5.6523-5.25-1.1992 1.2891-2.5312 2.4648-3.8672 3.5234-1.6133 1.2812-3.3438 2.4297-5.25 3.2227-1.9492 0.8125-4.3047 1.3906-6.3164 0.46875-0.45703-0.21094-0.058594-0.88281 0.39453-0.67578 2.0664 0.94531 4.7031-0.011719 6.6055-0.96094 2.9258-1.4609 5.5312-3.668 7.7734-6.0469-1.0781-0.75391-2.1953-1.4531-3.3555-2.082-2.5547-1.3867-5.293-2.4844-8.125-3.1523-0.48828-0.11328-0.28125-0.86719 0.20703-0.75391 1.4531 0.33984 2.8789 0.80469 4.2695 1.3477 2.6641 1.0469 5.1992 2.4102 7.543 4.0547 0.59766-0.66797 1.1602-1.375 1.6641-2.125-3.9922-2.0625-8.3203-3.4688-12.789-4.2031-0.49609-0.082031-0.28516-0.83594 0.20703-0.75391 2.3203 0.38281 4.6094 0.93359 6.8438 1.6719 2.1289 0.70703 4.1875 1.5898 6.1562 2.6211 0.40234-0.67578 0.75-1.3828 1.0195-2.1211 0.125-0.34375 0.22656-0.70312 0.3125-1.0703-4.4609-1.3633-9.1133-2.0312-13.812-2.0547-0.50391-0.003907-0.50391-0.78516 0-0.78125 2.0312 0.011719 4.0625 0.125 6.0781 0.36719 2.6875 0.32812 5.3164 0.90234 7.875 1.6914 0.16797-1.2969-0.019531-2.6172-0.92969-3.6367-0.27734-0.30859 0-0.71094 0.37891-0.65234 0.089844 0.015625 0.17969 0.015625 0.27344 0.023438-0.25-0.4375-0.52344-0.85547-0.85156-1.2422-4.5586 0.19531-9.0742 1.0234-13.465 2.4141-0.48047 0.15234-0.68359-0.60156-0.20703-0.75391 4.6406-1.4727 9.4336-2.3125 14.262-2.457 0.035157-0.003906 0.070313-0.011719 0.10547-0.015625-0.28516-0.4375-0.60156-0.84766-0.98828-1.2148-0.24609-0.23438-0.054688-0.66797 0.27734-0.66797 0.44141 0.003906 1.0977-0.078126 0.70703-0.63281-0.25391-0.36328-0.54297-0.71094-0.82812-1.0508-0.53906-0.64453-1.1133-1.2578-1.7148-1.8438-0.25-0.24219-0.054687-0.65625 0.27734-0.66797 0.27344-0.007813 0.53516-0.042969 0.79297-0.10156-0.35938-0.33203-0.71875-0.66406-1.0938-0.98047-0.27344-0.23047-0.035157-0.65625 0.27734-0.66797 0.16406-0.007813 0.44141 0.023437 0.5625-0.11719 0.14063-0.16406 0.003907-0.13281-0.15234-0.18359-0.29688-0.10156-0.59766-0.15234-0.89453-0.27344-0.59766-0.24609-1.1289-0.60156-1.6016-1.043-0.30859-0.28906 0.023437-0.71484 0.37891-0.65234 0.18359 0.03125 0.36328 0.015625 0.53125-0.039063-0.56641-0.51172-1.1094-1.0547-1.5-1.7109-0.48438-0.8125-0.60547-1.7188-0.63281-2.6484-0.050781-1.7852-0.28125-3.5312-1.7461-4.6914-0.36328 0.24219-0.76953 0.39453-1.2266 0.375-1.2461-0.058594-2.125-1.5703-2.5156-2.6016-0.39844-1.0547-0.39063-2.2266 0.035156-3.2578-0.47266 0.019531-0.9375 0.09375-1.4023 0.24219-0.16797 0.054688-0.35156-0.039062-0.44141-0.17969-0.30469-0.47266-0.15625-0.98438 0.078125-1.4531 0.097656-0.19922 0.34375-0.54297 0.19531-0.76172-0.12109-0.17969-0.45312-0.125-0.65625-0.16016-1.2188-0.21484-0.80078-1.6211-0.59766-2.4609 0.097656-0.40625 0.22656-0.80469 0.36328-1.1992-0.058594 0.0625-0.11328 0.125-0.17188 0.1875-0.66406 0.70312-1.3477 1.3945-2.1172 1.9844-0.53516 0.41406-1.1445 0.80078-1.832 0.875-0.007812 0-0.011718 0.003906-0.019531 0.007812-0.015625 0.003906-0.027343 0-0.042969 0.003906-0.019531 0-0.039062 0.007813-0.0625 0.011719-0.007812 0-0.015624-0.003906-0.023437-0.003906-0.25 0.015625-0.46875-0.050781-0.65625-0.25391-0.26953-0.29297-0.20312-0.60156-0.32812-0.9375-0.20312-0.53516-0.75781-0.12891-1.125 0.019531-0.33984 0.14062-0.65625 0.19141-1.0195 0.097656-0.27344-0.070312-0.39062-0.45312-0.17188-0.65234 0.16797-0.15234-0.21484-0.1875-0.28125-0.17578-0.14062 0.023438-0.27734 0.11719-0.39062 0.19141-0.19531 0.12891-0.375 0.28125-0.56641 0.41406-0.39062 0.27344-0.8125 0.46875-1.2969 0.42188-0.22266-0.019531-0.48047-0.23828-0.375-0.49609 0.074218-0.18359 0.14844-0.36328 0.22266-0.54688-1.9609 0.73828-4.0156 1.3477-6.1211 0.92578-1.1445-0.23047-2.3086-0.75391-3.4922-0.47266-1.0938 0.26172-1.9766 1.0469-2.8008 1.7656-0.22266 0.19531-0.5625 0.12109-0.65234-0.17188-0.09375-0.30469-0.1875-0.60547-0.28125-0.91016-0.23047 0.25781-0.46094 0.51953-0.69531 0.77734-0.20703 0.23047-0.56641 0.089843-0.65234-0.17188-0.070312-0.21875-0.14062-0.43359-0.21094-0.65234-0.3125 0.21875-0.625 0.44531-0.94922 0.64844-0.066406 0.042968-0.12891 0.054687-0.1875 0.058593-0.007813 0-0.015625-0.003906-0.023437-0.003906-0.035157 0-0.070313-0.003906-0.10547-0.015625-0.027344-0.007812-0.054688-0.027344-0.082031-0.046875-0.007813-0.007813-0.019532-0.011719-0.027344-0.019531-0.015625-0.011719-0.03125-0.015625-0.042969-0.03125-0.70312-0.74219-1.0859-1.668-1.4648-2.6016-0.37109-0.91016-0.77344-1.9219-1.6211-2.4922-0.91797-0.62109-1.9609-0.61328-2.8906-0.23828 0.98047 0.53125 1.8008 1.3906 2.4414 2.2734 0.90234 1.2461 1.5352 2.7109 1.5977 4.2578 0.011719 0.30078-0.33984 0.48047-0.58594 0.33594-0.14844-0.085938-0.29688-0.15234-0.44922-0.20312 0.03125 0.47266 0.0625 0.94922 0.09375 1.4219 0.015625 0.23047-0.26562 0.47266-0.49609 0.375-0.09375-0.039062-0.18359-0.074219-0.27734-0.11328 0.13281 0.77734 0.61328 1.4492 1.0312 2.1211 0.078125 0.12891 0.14844 0.25781 0.21875 0.38672 0.015625-0.26172 0.03125-0.52344 0.046875-0.78516 0.03125-0.5 0.8125-0.50391 0.78125 0-0.082031 1.3359 0.082032 3.1172-0.89844 4.1797-0.72656 0.78906-1.9219 0.92578-2.9141 0.62109-0.58203 1.3477-1.1992 2.6758-1.8867 3.9727-0.51953 0.98047-1.1367 1.9023-1.9727 2.625 0.074219 0.058594 0.15234 0.10547 0.21484 0.17969 0.13672 0.15625 0.16016 0.40234 0 0.55078-0.51953 0.49219-1.0352 0.98047-1.5547 1.4727 0.23828 0.38672 0.17969 0.91016-0.039063 1.3438-0.27344 0.54687-1.1055 0.94531-1.3281 1.5234 0.074219 0.015625 0.14453 0.03125 0.21875 0.046875 0.19922 0.042969 0.33594 0.28906 0.27344 0.48047-0.40234 1.1836-0.80469 2.3672-1.2031 3.5508 6.6328 0.13672 13.242 1.3789 19.453 3.7188 0.46875 0.17578 0.26172 0.92969-0.20703 0.75391-2.1211-0.79688-4.2852-1.4766-6.4844-2.0234-4.2617-1.0547-8.6406-1.6055-13.023-1.6758-0.51562 1.5156-1.0273 3.0312-1.543 4.5469 6.2266-1.5898 12.793-1.8242 19.113-0.53125 0.49219 0.10156 0.28125 0.85156-0.20703 0.75391-2.5742-0.52734-5.1953-0.79688-7.8242-0.81641-3.8438-0.027343-7.6797 0.48438-11.383 1.4805-0.11719 0.33984-0.23047 0.67969-0.34766 1.0195 0.25781 0.42969 0.046874 1.0234-0.070313 1.5078-0.19922 0.83984-0.39844 1.6797-0.59375 2.5195 5.9531-3.1523 12.664-4.8242 19.402-4.9492 0.50391-0.007813 0.50391 0.77344 0 0.78125-2.2148 0.042968-4.4258 0.24219-6.6094 0.625-4.5664 0.79687-8.9922 2.3398-13.035 4.5742-0.054688 0.23438-0.11328 0.47266-0.16797 0.70703-0.11328 0.48437-0.27734 0.96484-0.125 1.4609 0.125 0.40625 0.29297 0.75781 0.35547 1.1875 0.0625 0.41797 0.085937 0.84375 0.125 1.2656 0.039062 0.42578 0.078124 0.85156 0.11719 1.2812 2.5508-2.6758 5.4492-5.0977 8.7109-6.8359 3.6016-1.9219 7.582-3.0078 11.637-3.3945 0.5-0.046875 0.49609 0.73438 0 0.78125-2.2383 0.21484-4.457 0.64844-6.5977 1.3359-5.3594 1.7109-9.8711 5.0781-13.656 9.1484 0.082031 0.89844 0.16016 1.7969 0.24219 2.6953 0.074219 0.82031 0.11719 1.668 0.37891 2.4531 0.21875 0.66016 0.54688 1.2773 0.64062 1.9727 0.097656 0.73438-0.003906 1.4727-0.09375 2.2031-0.085938 0.71484-0.17578 1.3711 0.074218 2.0352 0.40625-0.95312 0.83984-1.8984 1.293-2.8281 1.9219-3.9414 4.1992-7.8047 7.2969-10.938 3.3125-3.3516 7.3789-5.957 11.883-7.3828 0.48047-0.15234 0.68359 0.60156 0.20703 0.75391-2.4609 0.77734-4.7891 1.9219-6.9336 3.3633-3.6641 2.457-6.6172 5.6914-8.9375 9.4258-1.6953 2.7305-3.1992 5.625-4.4062 8.6211 0.42188 1.1406 0.66016 2.3398 1.0039 3.5117 0.82813 2.8398 2.6953 5.1914 4.8047 7.2031 1.0977 1.0469 2.3047 1.9609 3.2891 3.1211 0.97656 1.1523 1.8789 2.3711 2.8125 3.5586 0.089844 0.11328 0.10156 0.23437 0.074219 0.34766 0.003907 0.19531-0.12109 0.38672-0.375 0.37109-1.6719-0.10938-3.2734 0.50781-4.4258 1.6562 0.26562-0.11328 0.53125-0.21875 0.79297-0.32813 0.96094-0.39062 1.9727-0.69141 3.0117-0.45312 0.49219 0.10937 0.28125 0.86328-0.20703 0.75391-0.81641-0.18359-1.6367 0.078125-2.3945 0.375-0.72656 0.28516-1.457 0.58594-2.1367 0.97266-0.29688 0.16797-0.67578 0.35547-0.88281 0.63672-0.19922 0.26953 0.0625 0.46875 0.26953 0.63281 0.27734 0.21875 0.63281 0.44141 0.99609 0.53906 0.019531-0.875 1.082-1.5195 1.7852-1.8789 1.0469-0.53125 2.1992-0.80469 3.2383-1.3438 0.44531-0.23047 0.83984 0.44531 0.39453 0.67578-1.0898 0.5625-2.3047 0.83984-3.3867 1.4219-0.24219 0.12891-0.48047 0.27344-0.69922 0.44531-0.18359 0.14453-0.50391 0.37109-0.55859 0.61719-0.054687 0.24609 0.17188 0.57422 0.28906 0.78125 0.11328 0.19531 0.24609 0.39844 0.46484 0.48438 0.46094 0.1875 1.1523-0.082031 1.5977-0.23438 0.49609-0.17188 0.96484-0.41016 1.4023-0.69922 0.85156-0.55859 1.5547-1.3203 2.0508-2.2109 0.24609-0.4375 0.92188-0.042969 0.67578 0.39453-0.54688 0.97656-1.3242 1.8086-2.25 2.4336-0.11719 0.078126-0.23828 0.14453-0.35938 0.21875 0.61328 1.2812 2.9414 0.066407 3.6367-0.60547 0.85938-0.83203 1.25-2.0547 1.5312-3.1875 0.24219-0.96875 0.37109-1.9609 0.5625-2.9375 0.13281-0.68359 0.31641-1.3398 0.58594-1.9805 0.29297-0.69531 0.62891-1.3672 0.75781-2.1172 0.054687-0.3125 0.45312-0.34766 0.65234-0.17188 0.089844 0.078126 0.16016 0.16797 0.23438 0.25391 0.074218-0.44141 0.13281-0.88672 0.15234-1.3398 0.011719-0.24609 0.24219-0.45312 0.49609-0.375 0.12891 0.039063 0.21875 0.078125 0.32812 0.16016 0.089844 0.066407 0.17578 0.22656 0.26172 0.27734-0.027344 0.09375-0.023438 0.089844 0.019531-0.015625 0.046875-0.10547 0.09375-0.21094 0.13672-0.32031 0.058593-0.14063 0.10938-0.27734 0.16406-0.41797 0.11328-0.30859 0.21484-0.625 0.3125-0.94141 0.0625-0.20703 0.11328-0.42969 0.28906-0.57031 0.4375-0.35547 0.88672 0.17578 1.2383 0.39062 0.15625 0.09375 0.125 0.10547 0.25 0.03125 0.10156-0.0625 0.17969-0.26172 0.24609-0.36719 0.18359-0.29297 0.33984-0.59766 0.48047-0.91406 0.125-0.27344 0.53906-0.23438 0.67578 0 0.14062 0.24609 0.125 0.46875 0.20312 0.73047 0.066406 0.21484 0.0625 0.17578 0.21875 0.035156 0.11328-0.097656 0.21875-0.25781 0.30469-0.37891 0.32031-0.44531 0.55469-0.94531 0.70312-1.4688 0.31641-1.1133 0.22266-2.2773-0.21484-3.3438-0.10547-0.26172 0.15625-0.46875 0.375-0.49609 0.60938-0.070312 1.1992 0.75391 1.4766 1.1992 0.30078 0.48047 0.50781 0.99219 0.83984 1.457 0.36719 0.51172 0.73828 1.0234 1.1172 1.5312 1.3633 1.8438 2.7148 3.7734 4.3945 5.3477 1.1172 1.043 1.8008 2.3359 2.3672 3.7422 0.60938 1.5039-0.98828 2.6719-2.0742 3.4297-0.78906 0.55078-1.6367 1.0352-2.3203 1.7227-0.39453 0.39844-0.78125 0.89062-0.84375 1.4727-0.039063 0.34766 0.125 1.0195 0.61719 0.83594 0.16406-0.36719 0.41406-0.70703 0.67578-1 0.65234-0.72656 1.3789-1.3711 2.1562-1.957 0.16797-0.12891 0.4375-0.027344 0.53516 0.14062 0.11328 0.19531 0.027343 0.40625-0.14062 0.53516-0.72266 0.54297-1.3945 1.1602-2 1.8359-0.33984 0.37891-0.98438 1.2031-0.42578 1.6797 0.25391 0.21484 0.67188 0.27344 0.98828 0.32422 0.33594 0.054687 0.67578 0.042969 0.96094-0.16797 0.25391-0.1875 0.42969-0.46484 0.59375-0.73047 0.20312-0.32813 0.39453-0.66016 0.57422-1.0039 0.35938-0.69531 0.64453-1.418 0.83203-2.1758 0.12109-0.48828 0.875-0.28125 0.75391 0.20703-0.25781 1.043-0.69922 2.0352-1.2383 2.9648-0.13281 0.23047-0.27734 0.47266-0.4375 0.69922 0.15234 0.39453 0.56641 0.59766 0.99219 0.5625 0.53906-0.046875 0.99219-0.42578 1.2812-0.86328 0.67188-1.0117 0.89062-2.3438 0.70312-3.5352-0.03125-0.21094 0.050781-0.41797 0.27344-0.48047 0.1875-0.050782 0.44922 0.0625 0.48047 0.27344 0.17188 1.0977 0.074219 2.3242-0.375 3.3789 0.0625 0.42969 0.51562 0.64453 0.91406 0.57031 0.4375-0.082032 0.77344-0.42969 0.96094-0.8125 0.27734-0.56641 0.25781-1.2031 0.25-1.8164-0.007813-0.88281-0.16797-1.8711 0.085937-2.7266 0.32031-1.082 1.2422-1.8125 2.1914-2.3398 1.4023-0.77734 3.0312-1.0234 4.5547-1.4805 1.6055-0.48437 3.1641-1.0977 4.668-1.8359 0.26172-0.12891 0.58203 0.027344 0.58594 0.33594 0.003907 0.24219-0.027343 0.47656-0.074218 0.70313 0.87109-0.51953 1.7617-1.0078 2.6914-1.4219 0.28125-0.125 0.69531 0.085938 0.57422 0.44141-0.058594 0.16406-0.11328 0.33203-0.17188 0.49609 4.2656-0.66016 8.8086-1.0586 12.445-3.582 2.4727-1.7109 4.0508-4.6289 4.7305-7.5156 0.45312-1.9219 0.28906-3.7969-0.015625-5.7305zm-23.738-32.098c0.49219-0.074219 0.70312 0.67969 0.20703 0.75391-3.9883 0.58984-7.793 2.4922-10.562 5.4375-0.34375 0.36719-0.89844-0.1875-0.55078-0.55078 2.8516-3.0312 6.8008-5.0273 10.91-5.6367zm-13.363-5.0703c0.007812-0.03125 0.015625-0.054688 0.03125-0.078126 0.007812-0.015624 0.007812-0.039062 0.023437-0.054687 0.41406-0.53906 0.38281-1.1484 0.45312-1.7969 0.070313-0.61719 0.11719-1.2422 0.17969-1.8672 0.10938-1.0625 1.0391-1.5703 2.0469-1.4531 1.5703 0.17969 2.3359 1.7344 2.6328 3.125 0.16406 0.74219 0.32031 1.6094 0.23438 2.3672-0.085937 0.80469-0.65625 1.3438-1.4609 1.4219-0.39844 0.039062-0.79688-0.070312-1.1562-0.23438-0.35156-0.16406-0.63281-0.45312-0.98438-0.59375-0.29688-0.125-0.65625-0.085937-0.97656-0.125-0.30469-0.039063-0.57031-0.125-0.8125-0.29688-0.007812-0.007812-0.015625-0.007812-0.023437-0.007812-0.007813-0.007813-0.015625-0.023438-0.023438-0.023438-0.015625-0.015625-0.039062-0.023438-0.054687-0.039062-0.11719-0.10156-0.14062-0.21875-0.11719-0.32813 0-0.007812 0.007813-0.007812 0.007813-0.015624zm-0.88672-10.074c0.34766-0.36328 0.89844 0.1875 0.55078 0.55078-1.8203 1.9141-2.1992 4.9102-2.0664 7.4336 0.027344 0.50391-0.75391 0.5-0.78125 0-0.14453-2.7383 0.32812-5.918 2.293-7.9844zm-7.8438 22.965c0.5-0.042968 0.49609 0.73828 0 0.78125-0.57812 0.050782-0.95703 0.62109-1.0703 1.1445-0.12891 0.59766 0.046874 1.2422 0.36719 1.7539 0.60156 0.96094 1.7695 1.4531 2.875 1.457 0.91016 0.003907 1.9609-0.31641 2.4219-1.1641 0.38672-0.71094 0.62109-1.6641 0.1875-2.4062-0.12109-0.20703-0.32031-0.41797-0.48828-0.53906-0.089844-0.066406-0.1875-0.125-0.28516-0.17578-0.027343-0.015625-0.058593-0.03125-0.089843-0.042969-0.011719-0.003906-0.035157-0.015625-0.050781-0.019531-0.46875-0.16797-0.26563-0.92188 0.20703-0.75391 0.73438 0.26562 1.3398 0.86719 1.5898 1.6094 0.36719 1.082-0.054687 2.5625-0.875 3.3398-0.93359 0.88672-2.3672 1.0859-3.5898 0.82812-1.4141-0.30078-2.6953-1.3281-3.0156-2.7812-0.28516-1.2969 0.33203-2.9023 1.8125-3.0273zm-6.75-23.883c2.3438 1.9766 3.5625 5.1406 3.7422 8.1328 0.03125 0.50391-0.75 0.5-0.78125 0-0.16797-2.8008-1.3281-5.7344-3.5156-7.5781-0.38672-0.32422 0.17188-0.875 0.55078-0.55078zm-0.69922 12.281c-0.67188 0.34375-1.3359 0.78125-2.125 0.71094-1.3594-0.11719-1.8594-1.7188-1.8438-2.875 0-0.71875 0.27344-1.3828 0.60938-2.0078 0.28906-0.53906 0.59375-1.1953 1.1719-1.4844 1.25-0.63281 2.5547 0.29688 3.125 1.4062 0.15625 0.3125 0.27344 0.64062 0.35156 0.98438 0.078125 0.33594 0.10156 0.70312 0.25 1.0156 0.16406 0.36719 0.57812 0.80469 0.97656 0.90625 0.007813 0.007812 0.015625 0.007812 0.023438 0.015625 0.03125 0.007813 0.0625 0.023437 0.085937 0.039063 0.023438 0.015624 0.046875 0.03125 0.0625 0.046874 0.007813 0.007813 0.015625 0.015626 0.015625 0.023438 0.0625 0.070312 0.085938 0.15625 0.085938 0.24219 0 0.015624 0 0.03125-0.007813 0.054687 0 0.023437 0 0.046875-0.007812 0.070313-0.023438 0.078124-0.070313 0.15625-0.14844 0.20312 0 0.007813-0.007812 0.015626-0.015625 0.023438-0.023437 0.007812-0.054687 0.015625-0.078125 0.03125-0.03125 0.007812-0.054687 0.015625-0.085937 0.015625-0.015625 0-0.023438 0.007813-0.03125 0.007813-0.84375 0-1.6641 0.1875-2.4141 0.57031zm14.953 22.703c-0.39062 0.20312-0.67188 0.50781-1.1211 0.60156-0.39453 0.082031-0.82031 0.046874-1.2188 0.03125-0.83594-0.035157-1.5977-0.19141-2.3008-0.65625-0.40234-0.26563-0.77344-0.54297-1.2812-0.51172-0.49609 0.03125-0.96484 0.27344-1.4023 0.49219-1.582 0.78516-3.2383 1.2656-4.8906 0.39453-1.3984-0.73438-3.0547-2.7461-4.8125-1.9648-0.45703 0.20312-0.85156-0.47266-0.39453-0.67578 2.0352-0.90234 3.6602 0.78906 5.2617 1.7695 0.87891 0.53906 1.793 0.71484 2.8008 0.45703 0.92578-0.23438 1.7109-0.77344 2.6055-1.0859 0.88672-0.30469 1.625-0.14063 2.3828 0.36719 0.83203 0.55469 1.6914 0.66016 2.6758 0.64844 0.59766-0.003906 0.87109-0.32422 1.3672-0.57422 0.33203-0.16797 0.70703-0.23828 1.0742-0.24219 0.5-0.007812 0.97266 0.19141 1.4609 0.19531 0.41797 0.003906 0.67969-0.34766 0.91406-0.64453 1.0078-1.2734 2.3828-1.9805 4.0352-1.668 0.49609 0.09375 0.28516 0.84766-0.20703 0.75391-0.9375-0.17578-1.9375 0.097656-2.6484 0.73828-0.5625 0.50781-0.89063 1.3359-1.6797 1.5508-0.875 0.24219-1.7422-0.42578-2.6172 0.023437zm18.609 21.789c-0.023437 0.019531-0.046875 0.027343-0.066406 0.042968-0.023437 0.066406-0.046875 0.13672-0.074219 0.20312-0.37109 0.9375-0.91406 1.9609-1.8594 2.4297-0.14453 0.42578-0.3125 0.83984-0.57812 1.207-0.62891 0.875-1.4844 1.5156-2.3438 2.1445-0.046875 0.070313-0.089844 0.14453-0.14062 0.21094-0.57422 0.79297-1.2617 1.4766-2.0508 2.0547-0.17188 0.125-0.4375 0.027344-0.53516-0.14062-0.11328-0.19531-0.03125-0.41016 0.14062-0.53516 0.65625-0.48047 1.25-1.0664 1.7305-1.7188 0.25391-0.34375 0.48047-0.70312 0.67969-1.0781 0.14844-0.27734 0.31641-0.58984 0.41797-0.90234-0.023438-0.10156-0.015625-0.21094 0.035156-0.30078 0.082031-0.15625 0.21484-0.20312 0.37891-0.22266 0.12109-0.015625 0.28906 0.082031 0.33594 0.19531 0.11719 0.26172 0.027344 0.47656-0.074219 0.71875 0.29688-0.27344 0.57812-0.5625 0.80469-0.89453 0.30859-0.44922 0.45703-0.96484 0.62109-1.4805 0.17188-0.54297 0.34375-1.082 0.51562-1.625 0.15234-0.47656 0.90625-0.27344 0.75391 0.20703-0.078126 0.24609-0.15625 0.49219-0.23438 0.73828 0.30859-0.41406 0.53516-0.90625 0.70703-1.3711 0.27734-0.73828 0.44531-1.5 0.63281-2.2656 0.11719-0.48828 0.87109-0.28125 0.75391 0.20703-0.03125 0.12891-0.0625 0.26172-0.09375 0.39062 0.003907-0.003906 0.007813-0.007812 0.007813-0.015625 0.65625-1.1211 0.94531-2.4219 1.043-3.707 0.039062-0.5 0.82031-0.5 0.78125 0-0.15625 2.0195-0.75391 4.1016-2.2891 5.5039zm16.754-6.5078c-0.015626 0.25391-0.29297 0.46094-0.52344 0.375 0.003906 1.1562-0.16797 2.3086-0.51562 3.418-0.082031 0.26172-0.37891 0.33594-0.58203 0.21875-0.15234 0.6875-0.44922 1.375-0.69531 1.9688-0.34766 0.84766-0.70703 1.7344-1.1992 2.5078-0.19922 0.31641-0.73828 0.20312-0.72656-0.19531v-0.007813c-0.47266 1.0508-1.1562 1.9844-2.0938 2.7031-0.29297 0.22266-0.58203-0.12109-0.57422-0.40234-0.8125 1.4141-1.6484 3.0508-3.4297 2.875-0.49609-0.046874-0.5-0.83203 0-0.78125 1.1523 0.11328 1.6367-0.71484 2.168-1.5547 0.46484-0.73438 0.88281-1.5078 1.418-2.1914 0.24219-0.3125 0.76953 0.027343 0.65234 0.37891-0.046875 0.14453-0.039063 0.28516-0.023437 0.42969 0.78516-0.82812 1.3086-1.8828 1.6094-2.9844 0.10547-0.38281 0.64063-0.36328 0.75391 0 0.035156 0.11719 0.074219 0.23437 0.10938 0.34766 0.21094-0.44141 0.41016-0.89453 0.59375-1.3359 0.36328-0.88281 0.86719-1.9766 0.75-2.9531-0.042969-0.35156 0.44922-0.49219 0.66797-0.27734 0.039063 0.039062 0.0625 0.082031 0.09375 0.12109 0.24219-1.0977 0.3125-2.2148 0.19922-3.3438-0.03125-0.30469 0.375-0.48828 0.60547-0.32422 0.015625-1.4453-0.14062-2.8828-0.49219-4.293-0.12109-0.48828 0.63281-0.69531 0.75391-0.20703 0.44922 1.8008 0.61719 3.6523 0.48828 5.5078z"/>
 </g>
</svg>