<?xml version="1.0" encoding="UTF-8" standalone="no" ?>
<!DOCTYPE svg PUBLIC "-//W3C//DTD SVG 1.1//EN" "http://www.w3.org/Graphics/SVG/1.1/DTD/svg11.dtd">
<svg xmlns="http://www.w3.org/2000/svg" xmlns:xlink="http://www.w3.org/1999/xlink" version="1.1" width="1080" height="1080" viewBox="0 0 1080 1080" xml:space="preserve">
<g transform="matrix(1 0 0 1 540 540)" id="ff1f9a40-07f2-4aee-97ab-3cce54f0ba6a"  >
<rect style="stroke: none; stroke-width: 1; stroke-dasharray: none; stroke-linecap: butt; stroke-dashoffset: 0; stroke-linejoin: miter; stroke-miterlimit: 4; fill: rgb(255,255,255); fill-rule: nonzero; opacity: 1; visibility: hidden;" vector-effect="non-scaling-stroke"  x="-540" y="-540" rx="0" ry="0" width="1080" height="1080" />
</g>
<g transform="matrix(1 0 0 1 540 540)" id="402c69c8-5def-41b0-9530-e01bda13d8e9"  >
</g>
<g transform="matrix(9.18 0 0 9.18 557.2 540)"  >
<path style="stroke: none; stroke-width: 1; stroke-dasharray: none; stroke-linecap: butt; stroke-dashoffset: 0; stroke-linejoin: miter; stroke-miterlimit: 4; fill: rgb(0,0,0); fill-rule: nonzero; opacity: 1;" vector-effect="non-scaling-stroke"  transform=" translate(-50, -50)" d="M 71.094 85.938 C 70.7815 86.40675 70.62525 86.8755 70.7815 87.5005 L 74.844 100.0005 L 23.437999999999995 100.0005 L 27.656799999999997 86.5625 C 27.813049999999997 85.9375 27.656799999999997 85.4687 27.344299999999997 85 L 27.188049999999997 84.84375 C 21.563049999999997 78.43755 18.438049999999997 69.99975 18.438049999999997 61.09375 L 18.438049999999997 17.96875 C 18.438049999999997 15.31255 20.469249999999995 13.28125 23.125549999999997 13.28125 C 25.78185 13.28125 27.813049999999997 15.31245 27.813049999999997 17.96875 L 27.813049999999997 41.09375 C 27.813049999999997 42.03125 28.594299999999997 42.65625 29.375549999999997 42.65625 C 30.313049999999997 42.65625 30.938049999999997 41.875 30.938049999999997 41.09375 L 30.938049999999997 9.531749999999999 C 30.938049999999997 6.719249999999999 33.28185 4.375549999999999 36.094249999999995 4.375549999999999 C 38.90664999999999 4.375549999999999 41.250449999999994 6.719349999999999 41.250449999999994 9.531749999999999 L 41.250449999999994 41.719750000000005 C 41.250449999999994 42.657250000000005 42.031699999999994 43.282250000000005 42.812949999999994 43.282250000000005 C 43.750449999999994 43.282250000000005 44.375449999999994 42.501000000000005 44.375449999999994 41.719750000000005 L 44.375449999999994 4.844750000000005 C 44.375449999999994 2.1885500000000047 46.562949999999994 0.0009500000000048914 49.219249999999995 0.0009500000000048914 C 51.87555 0.0009500000000048914 54.06305 2.188450000000005 54.06305 4.844750000000005 L 54.06305 40.938750000000006 C 54.06305 41.876250000000006 54.8443 42.501250000000006 55.62555 42.501250000000006 C 56.56305 42.501250000000006 57.18805 41.720000000000006 57.18805 40.938750000000006 L 57.18805 9.063750000000006 C 57.18805 6.407550000000006 59.37555 4.219950000000006 62.03185 4.219950000000006 C 64.68815000000001 4.219950000000006 66.87565 6.407450000000006 66.87565 9.063750000000006 L 66.87565 58.28275000000001 C 57.18814999999999 59.37655000000001 51.25064999999999 65.78275000000001 51.094649999999994 75.93875 C 51.094649999999994 76.87625 51.719649999999994 77.50125 52.657149999999994 77.65755 C 53.594649999999994 77.65755 54.219649999999994 77.03255 54.219649999999994 76.09505 C 54.532149999999994 63.59505 64.37565 61.72005 68.59465 61.56405 C 69.53215 61.56405 70.15715 60.7828 70.15715 60.00155 L 70.15715 40.47055 C 70.15715 37.34555 72.65715 34.84555 75.93835 34.84555 C 79.21955 34.84555 81.56335 37.34555 81.56335 40.47055 L 81.56335 67.18955 C 79.53215 73.75205 75.93835 79.84555 71.09435 85.93955 z" stroke-linecap="round" />
</g>
</svg>
