<?xml version="1.0" encoding="UTF-8" standalone="no" ?>
<!DOCTYPE svg PUBLIC "-//W3C//DTD SVG 1.1//EN" "http://www.w3.org/Graphics/SVG/1.1/DTD/svg11.dtd">
<svg xmlns="http://www.w3.org/2000/svg" xmlns:xlink="http://www.w3.org/1999/xlink" version="1.1" width="1080" height="1080" viewBox="0 0 1080 1080" xml:space="preserve">
<g transform="matrix(1 0 0 1 540 540)" id="b65e2086-c606-43bc-9999-240077ff6458"  >
<rect style="stroke: none; stroke-width: 1; stroke-dasharray: none; stroke-linecap: butt; stroke-dashoffset: 0; stroke-linejoin: miter; stroke-miterlimit: 4; fill: rgb(255,255,255); fill-rule: nonzero; opacity: 1; visibility: hidden;" vector-effect="non-scaling-stroke"  x="-540" y="-540" rx="0" ry="0" width="1080" height="1080" />
</g>
<g transform="matrix(1 0 0 1 540 540)" id="f78ca56b-7285-4db0-a74f-b4537562a6da"  >
</g>
<g transform="matrix(35.09 0 0 35.09 796.18 416.96)"  >
<path style="stroke: none; stroke-width: 1; stroke-dasharray: none; stroke-linecap: butt; stroke-dashoffset: 0; stroke-linejoin: miter; stroke-miterlimit: 4; fill: rgb(0,0,0); fill-rule: nonzero; opacity: 1;" vector-effect="non-scaling-stroke"  transform=" translate(-22.05, -12.77)" d="M 23.21869 12.58966 C 22.960443751588322 12.585246048009775 22.71530515450175 12.47512474732824 22.540485540719136 12.284996605203578 C 22.36566592693652 12.094868463078917 22.276461098228577 11.841368697436911 22.293689999999998 11.58366 C 22.293705588441554 11.462429703015909 22.196464709544752 11.363604052424945 22.075249999999997 11.36166 L 22.071249999999996 11.36148 C 21.951369361557646 11.36181722697361 21.853181761563366 11.456825376911858 21.848899999999997 11.57663 C 21.857494055602103 11.838675957970956 21.760846571418792 12.093260233170104 21.580519175218864 12.283586195824608 C 21.400191779018936 12.47391215847911 21.15118818587896 12.584144186406663 20.889059999999997 12.58969 C 20.76672294369139 12.59051003432352 20.667981869632317 12.689915195346947 20.667981869632317 12.812255 C 20.667981869632317 12.934594804653052 20.76672294369139 13.033999965676479 20.889059999999997 13.03482 C 21.141361561979426 13.026409139321185 21.386220018431878 13.121046672783695 21.567283337595427 13.296952599938232 C 21.748346656758976 13.472858527092766 21.850018506495307 13.71488076038413 21.848899999999997 13.967319999999999 C 21.852996926719022 14.087089192551687 21.951411036307483 14.18198898673591 22.071249999999996 14.181729999999998 L 22.073809999999995 14.181729999999998 C 22.195013105284332 14.18002192981694 22.292655567232366 14.081810978665843 22.293659999999996 13.960599999999998 C 22.283621790824082 13.712263306822237 22.377822520458622 13.471031162969453 22.55349239844601 13.29521315254441 C 22.729162276433403 13.119395142119366 22.970314933955674 13.024991114337519 23.218659999999996 13.034819999999998 C 23.340997056308602 13.033999965676477 23.439738130367676 12.93459480465305 23.439738130367676 12.812254999999997 C 23.439738130367676 12.689915195346945 23.340997056308602 12.590510034323518 23.218659999999996 12.589689999999997 Z" stroke-linecap="round" />
</g>
<g transform="matrix(35.09 0 0 35.09 583.33 250.51)"  >
<path style="stroke: none; stroke-width: 1; stroke-dasharray: none; stroke-linecap: butt; stroke-dashoffset: 0; stroke-linejoin: miter; stroke-miterlimit: 4; fill: rgb(0,0,0); fill-rule: nonzero; opacity: 1;" vector-effect="non-scaling-stroke"  transform=" translate(-15.99, -8.03)" d="M 15.98859 9.21893 C 16.646096040061398 9.218946568333731 17.17912343077112 8.685946040313365 17.179139999244022 8.028440000251972 C 17.179156567716923 7.370933960190579 16.64615603980938 6.837906569368038 15.98864999974799 6.837890000755966 C 15.3311439596866 6.837873432143893 14.798116568751244 7.3708739599386135 14.7981 8.02838 C 14.798094476703854 8.685881465549455 15.331088535007199 9.218902386441734 15.98859 9.21893 Z" stroke-linecap="round" />
</g>
<g transform="matrix(35.09 0 0 35.09 473.97 126.73)"  >
<path style="stroke: none; stroke-width: 1; stroke-dasharray: none; stroke-linecap: butt; stroke-dashoffset: 0; stroke-linejoin: miter; stroke-miterlimit: 4; fill: rgb(0,0,0); fill-rule: nonzero; opacity: 1;" vector-effect="non-scaling-stroke"  transform=" translate(-12.87, -4.5)" d="M 12.87219 4.98627 C 13.068361465614474 4.986302358180335 13.245234616049695 4.868156419733239 13.320328608201736 4.686926904170646 C 13.395422600353777 4.505697388608052 13.353947808051565 4.297077121807549 13.215245074312987 4.1583515054930835 C 13.07654234057441 4.019625889178619 12.867928918379521 3.9781166830122543 12.68668701762332 4.0531807781487625 C 12.50544511686712 4.128244873285272 12.387270002668716 4.3050985317168085 12.38727 4.50127 C 12.387254086043692 4.629891014767949 12.438336061298967 4.753249784927488 12.52927735188126 4.844206078609771 C 12.620218642463556 4.935162372292053 12.7435689843569 4.986264696368844 12.87219 4.98627 Z" stroke-linecap="round" />
</g>
<g transform="matrix(35.09 0 0 35.09 820.83 596.48)"  >
<circle style="stroke: none; stroke-width: 1; stroke-dasharray: none; stroke-linecap: butt; stroke-dashoffset: 0; stroke-linejoin: miter; stroke-miterlimit: 4; fill: rgb(0,0,0); fill-rule: nonzero; opacity: 1;" vector-effect="non-scaling-stroke"  cx="0" cy="0" r="0.48492" />
</g>
<g transform="matrix(35.09 0 0 35.09 542.02 564.26)"  >
<path style="stroke: none; stroke-width: 1; stroke-dasharray: none; stroke-linecap: butt; stroke-dashoffset: 0; stroke-linejoin: miter; stroke-miterlimit: 4; fill: rgb(0,0,0); fill-rule: nonzero; opacity: 1;" vector-effect="non-scaling-stroke"  transform=" translate(-14.81, -16.97)" d="M 14.3266 16.96881 C 14.326567641819663 17.164981465614478 14.44471358026676 17.341854616049698 14.625943095829353 17.41694860820174 C 14.807172611391946 17.49204260035378 15.01579287819245 17.45056780805157 15.154518494506915 17.31186507431299 C 15.29324411082138 17.173162340574414 15.334753316987745 16.964548918379524 15.259689221851236 16.783307017623322 C 15.184625126714728 16.602065116867124 15.00777146828319 16.48389000266872 14.811599999999999 16.483890000000002 C 14.543773135165363 16.48388999635649 14.32664417762719 16.70098313880888 14.3266 16.96881 Z" stroke-linecap="round" />
</g>
<g transform="matrix(35.09 0 0 35.09 772.59 187.3)"  >
<path style="stroke: none; stroke-width: 1; stroke-dasharray: none; stroke-linecap: butt; stroke-dashoffset: 0; stroke-linejoin: miter; stroke-miterlimit: 4; fill: rgb(0,0,0); fill-rule: nonzero; opacity: 1;" vector-effect="non-scaling-stroke"  transform=" translate(-21.38, -6.23)" d="M 23.78888 5.84143 C 21.94519 5.84143 21.8786 3.92426 21.87708 3.70715 C 21.88046508033928 3.4532458990503963 21.67953805785703 3.24357595136088 21.42572 3.23615 L 21.417479999999998 3.2357799999999997 C 21.166497909504887 3.2396370279258964 20.96348404255751 3.4412506164550676 20.95789 3.6921999999999997 C 20.95038 3.9123499999999996 20.83063 5.84143 18.974239999999998 5.84143 C 18.71840141384266 5.8482958671703456 18.51457149162491 6.057669301765131 18.51457149162491 6.313599999999999 C 18.51457149162491 6.5695306982348685 18.71840141384266 6.778904132829654 18.974239999999998 6.785769999999999 C 19.501975726509343 6.777194126460479 20.010693778051067 6.9826811469824 20.384418779183683 7.355385005521239 C 20.758143780316296 7.728088864060078 20.96502191972342 8.236242784642055 20.95789 8.763999999999996 C 20.96309919241163 9.014864979442269 21.166574729086452 9.216259672272859 21.417479999999998 9.21889 L 21.422729999999998 9.21889 C 21.67649696886624 9.211973982019625 21.87827754404919 9.003638369333206 21.87708 8.74978 C 21.851817775212698 8.230678085950302 22.043334056661877 7.7244096978290315 22.405846572223407 7.351999100191808 C 22.768359087784937 6.979588502554583 23.269286024398802 6.77450712591185 23.788879999999995 6.785779999999999 C 24.044718586157344 6.778914132829663 24.248548508375105 6.569540698234874 24.248548508375105 6.313609999999999 C 24.248548508375105 6.057679301765123 24.044718586157344 5.848305867170335 23.78888 5.841439999999999 Z M 21.39655 7.12964 C 21.19906183052768 6.7994339860467905 20.931834536012598 6.516347109953021 20.61355 6.3001700000000005 C 20.93482317327272 6.066959314727154 21.20191667771134 5.767088013556087 21.39655 5.42108 C 21.58245560961419 5.766827030841902 21.842699273132006 6.067060104545151 22.15855 6.3001700000000005 C 21.84593901378988 6.516452598843346 21.58559795173908 6.799845119498564 21.39655 7.129639999999999 Z" stroke-linecap="round" />
</g>
<g transform="matrix(35.09 0 0 35.09 530.18 578.99)"  >
<path style="stroke: none; stroke-width: 1; stroke-dasharray: none; stroke-linecap: butt; stroke-dashoffset: 0; stroke-linejoin: miter; stroke-miterlimit: 4; fill: rgb(0,0,0); fill-rule: nonzero; opacity: 1;" vector-effect="non-scaling-stroke"  transform=" translate(-14.47, -17.39)" d="M 22.06445 22.6084 C 22.05340367065851 20.26828185386409 21.574967996943325 17.953950173233576 20.657230000000002 15.801269999999995 C 20.30123 14.629389999999999 19.445310000000003 12.45605 19.399900000000002 12.3418 C 19.112333737432053 11.639080579228697 18.362496875248148 11.24347167611107 17.620120000000004 11.4028 C 17.244334876504514 11.492431981222687 16.923891602055093 11.736622300538087 16.737790000000004 12.07517 C 16.41349600534928 13.035962869523779 16.454074061377057 14.082492291351699 16.851790000000005 15.015290000000004 C 16.229790000000005 14.60623 15.517500000000005 14.13388 15.184060000000004 13.89938 C 15.059133979995698 13.806247595130834 14.940263590116219 13.705256696021674 14.828170000000004 13.59702 C 15.298732032593604 13.099630573995235 15.427652026522411 12.369691824245631 15.155939724750006 11.741203723574257 C 14.884227422977602 11.112715622902883 14.264154760993296 10.70658653372025 13.579450000000003 10.70865 C 13.526840000000004 10.70865 13.477210000000003 10.719570000000001 13.425820000000003 10.724210000000001 C 13.379374043565544 9.70006194542118 13.232496293309415 8.682947257424525 12.9873 7.687499999999994 C 12.75448916693818 7.128388144526859 12.179179415220002 6.791412025605512 11.577639999999999 6.86182 C 11.325486212897633 6.8900068273026225 11.085290805313708 6.984453716527989 10.881469999999998 7.13556 C 10.815789838622539 6.471822409792516 10.524079431339759 5.850796163013376 10.055179999999996 5.376459999999998 C 9.743315321852302 5.1230516729145705 9.331660153422975 5.028390371389409 8.94043 5.12012 C 7.17865 5.489 7.37427 8.68213 7.40961 9.121 C 7.28759748283983 9.279342352086994 7.185149453775037 9.451837273599013 7.10449 9.63474 C 6.82813 10.263150000000001 6.03516 12.18356 5.92041 12.46188 C 5.76074 12.74802 5.4282200000000005 13.72653 6.94775 15.41061 L 6.80225 15.6113 C 6.191615789550251 16.44950517097224 6.1444380961707425 17.57253382128425 6.682620000000001 18.459 C 7.015081942191475 19.000906865636992 7.3956868155923585 19.511761473984606 7.819819999999998 19.985369999999996 C 9.28822260644877 21.650878847708714 10.956222946107705 23.12913667997546 12.786130000000004 24.386740000000003 C 14.470557146022571 25.43591405558033 15.575836024659216 27.204394217399148 15.78076 29.178239999999995 C 15.777233450230119 29.310894044018642 15.826630170755712 29.439500537238786 15.918052008750028 29.535685668550855 C 16.009473846744342 29.631870799862927 16.135407912755312 29.687730240560196 16.26807 29.690939999999998 L 16.28076 29.691429999999997 C 16.55212328104092 29.691304406973945 16.773932426445246 29.474907404717484 16.78076 29.203629999999997 C 16.590817265186352 26.896505755568402 15.328414331013105 24.81251038268646 13.37158 23.575699999999998 C 11.60007852074329 22.361929736915084 9.986451433518532 20.93249700717836 8.567869999999997 19.32033 C 8.183840824713494 18.8919002973449 7.839187948235621 18.429745884739066 7.538090000000004 17.93947 C 7.209575027354203 17.397345249763063 7.238837358842291 16.7109481918471 7.612300000000003 16.19875 L 9.233460000000003 13.9637 C 9.425119411580413 13.812702256663922 9.667852489584597 13.741883900803904 9.910640000000003 13.766129999999999 C 10.084470000000003 13.822289999999999 10.199710000000003 14.052749999999998 10.270020000000002 14.26076 C 10.216491621429967 15.129438670290794 9.901803992972608 15.961687986848325 9.367190000000003 16.64846 L 9.151370000000002 16.90578 L 9.305660000000001 17.20266 C 9.886455263962082 18.26350231530904 10.856762771611852 19.057136018546046 12.011720000000002 19.416 C 12.279774164754125 19.48287892178076 12.55129107821924 19.319794164754125 12.618170000000001 19.051740000000002 C 12.685048921780762 18.783685835245876 12.521964164754126 18.51216892178076 12.253910000000001 18.44529 C 11.469758054230162 18.200426832918154 10.796804260632339 17.687385901110776 10.353 16.99609 C 10.40152 16.924619999999997 10.462 16.818089999999998 10.51871 16.72394 L 11.08688 17.31543 C 11.27834607707134 17.514716429128942 11.595113570871057 17.52105607707134 11.7944 17.32959 C 11.993686429128942 17.13812392292866 12.00002607707134 16.821356429128944 11.80856 16.62207 L 10.97623 15.75549 C 11.07954965112295 15.46181600591529 11.154694880730085 15.158978252768133 11.20065 14.851070000000002 C 11.622219999999999 15.30859 12.09433 15.80475 12.418429999999999 16.09424 C 12.624556406327063 16.277578045429312 12.940179840495757 16.259510484556262 13.124038291886498 16.053848129859663 C 13.307896743277238 15.848185775163063 13.290626989204444 15.532517682783414 13.085429999999999 15.348139999999999 C 12.541429999999998 14.8623 11.479429999999999 13.6748 11.128429999999998 13.278319999999999 C 11.110539999999999 12.85132 11.071239999999998 11.70154 11.088329999999997 10.54852 C 11.09606444339222 10.522126368205035 11.101475069065103 10.495106700729146 11.104499999999998 10.46777 C 11.104259999999998 10.3244 11.101079999999998 10.19177 11.099619999999998 10.05298 C 11.10732844642282 9.450684197645257 11.160045300272351 8.84980699487776 11.257329999999996 8.255370000000003 C 11.286511409289512 8.042169801043425 11.459021693951465 7.877347835318088 11.673329999999998 7.8579099999999995 C 11.834221768183502 7.833074760184771 11.992130270929927 7.91770370181835 12.060539999999998 8.06543 C 12.276207244027525 9.077377953963282 12.408163282663836 10.105369443965648 12.455069999999997 11.138980000000002 C 11.867751294902964 11.648290733120197 11.697502584787184 12.489477905406272 12.04055164435281 13.18708669760963 C 12.383600703918436 13.884695489812987 13.153751372701798 14.263441353799998 13.915699999999998 14.10925 C 14.130649227217074 14.329554172665938 14.362229254978832 14.53299449733294 14.60839 14.717770000000002 C 15.161919999999999 15.10687 16.73577 16.13684 17.24944 16.47235 C 17.33670673413937 16.809503598351206 17.32554636600564 17.164601804088704 17.21728 17.49561 C 17.18358 17.58203 17.122059999999998 17.71387 17.04687 17.875 C 16.614956896411176 18.646454021612147 16.350578504249604 19.500317038808106 16.270989999999998 20.380860000000002 C 16.28726921716009 20.654518476401936 16.5164200311277 20.866674735941178 16.790519999999997 20.86186 C 17.066467618396075 20.851115066820345 17.28152118412787 20.618815858514306 17.270989999999998 20.34286 C 17.37692422884131 19.626040620411267 17.60832465355185 18.933491263470643 17.954579999999996 18.29697 C 18.041489999999996 18.10947 18.112289999999998 17.95566 18.150869999999998 17.85507 C 18.394715260885196 16.972709828454974 18.324997186978457 16.03309029220969 17.953599999999998 15.196380000000001 C 17.791009999999996 14.685150000000002 17.297349999999998 13.129480000000001 17.612779999999997 12.559660000000001 C 17.665963094218913 12.461521636524344 17.760448738588263 12.392492370051572 17.870109999999997 12.37166 C 18.244619999999998 12.27205 18.465809999999998 12.707600000000001 18.478509999999996 12.73104 C 18.487289999999998 12.75304 19.355509999999995 14.95858 19.720199999999995 16.14754 C 20.58639065454202 18.186078521521644 21.043140613667255 20.375090008807575 21.064439999999994 22.589920000000003 C 21.255713038974363 24.717529218072485 21.63198907450613 26.824428752589498 22.188999999999997 28.88672 C 22.258104670092386 29.153825786320876 22.53046395940507 29.31451344133168 22.79767854341235 29.245830673416517 C 23.064893127419626 29.177147905501357 23.22601069444968 28.905042715286072 23.15775 28.63772 C 22.627618019976314 26.66154712774473 22.26193673838764 24.64489162174621 22.064449999999994 22.608400000000003 Z M 9.14551 6.09961 C 9.241700558030088 6.0691542934548615 9.346766547089581 6.08935943603922 9.4248 6.15332 C 10.002799999999999 6.62219 10.08685 8.7757 10.10022 9.96674 C 10.09753 10.04468 10.0957 10.12299 10.093630000000001 10.20154 C 10.042756935439332 9.496635559655726 9.616300443772518 8.873719221779908 8.97754 8.57129 C 8.788574161892452 8.504260822151007 8.586408613786242 8.48298907634071 8.38763 8.50922 C 8.38245 7.4563 8.58807 6.21613 9.14551 6.09961 Z M 7.5502899999999995 14.58061 C 6.609859999999999 13.47611 6.789549999999999 12.96684 6.78369 12.96684 L 6.7832 12.96684 L 6.8315399999999995 12.8765 C 6.83203 12.87602 7.724119999999999 10.7105 8.02054 10.03813 C 8.15872 9.72413 8.38968 9.41801 8.62942 9.50932 C 8.94632 9.626990000000001 9.37112 10.39311 8.97562 11.68754 C 8.6387 12.63676 8.47903 13.17484 8.42142 13.37943 Z M 13.57947 13.097 C 13.208947016468056 13.096652105016389 12.908837024072772 12.796046766766457 12.909100190708156 12.425523713368081 C 12.909363357343537 12.055000659969703 13.209900060894782 11.754821935309874 13.58042316478456 11.755000373583265 C 13.950946268674342 11.755178811856656 14.25119370990207 12.055646864993845 14.251100000000001 12.426169999999999 C 14.250548428511593 12.796742812381055 13.950043206569967 13.096890092930018 13.57947 13.097 Z" stroke-linecap="round" />
</g>
</svg>
