<?xml version="1.0" encoding="UTF-8"?>
<svg width="1200pt" height="1200pt" version="1.1" viewBox="0 0 1200 1200" xmlns="http://www.w3.org/2000/svg">
 <g>
  <path d="m522.58 774.48h-38.711v-102.58c-3.6758-10.645 48.582-135.48 51.871-149.03 11.613 6 4.4531-357.29 6.1953-367.74h-0.003906c-0.042969-19.227-9.6055-37.184-25.531-47.957-15.926-10.773-36.152-12.965-54.016-5.8477-4.4141-15.414-15.008-28.316-29.27-35.648-14.258-7.332-30.914-8.4414-46.02-3.0625 0-20.746-11.066-39.914-29.031-50.285-17.969-10.371-40.102-10.371-58.066 0s-29.031 29.539-29.031 50.285c-17.617-6.2305-37.156-3.6055-52.5 7.0625-15.344 10.664-24.621 28.059-24.922 46.742v238.84c-12.98-9.2422-23.648-21.363-31.16-35.418-10.336-20.52-26.191-37.75-45.781-49.754-19.594-12-42.145-18.297-65.121-18.184-11.891-0.27344-23.484 3.7188-32.68 11.258-9.1992 7.5391-15.391 18.125-17.457 29.836-2.0625 11.711 0.13672 23.773 6.1992 34.004l71.227 114c11.727 18.746 17.965 40.406 18 62.516-0.054688 41.746 16.523 81.797 46.066 111.29l53.031 53.031v0.003906c10.988 10.973 17.121 25.891 17.031 41.418v65.227h-38.707v77.418h-38.711v348.39h425.8v-348.39h-38.707zm0 154.84h-251.61c-20.746 0-39.914 11.066-50.285 29.031-10.375 17.965-10.375 40.098 0 58.062 10.371 17.965 29.539 29.035 50.285 29.035h251.61v116.13h-348.39v-270.97h348.39zm0 77.418h-251.61c-6.9141 0-13.305-3.6875-16.762-9.6758-3.457-5.9922-3.457-13.367 0-19.355 3.457-5.9883 9.8477-9.6797 16.762-9.6797h251.61zm-309.68-154.84v-38.707h270.97v38.711zm10.453-210.58-53.031-53.609c-22.27-22.371-34.789-52.633-34.84-84.195 0.078125-29.492-8.1719-58.41-23.809-83.418l-71.223-113.61c-1.7266-3.2812-1.6562-7.2188 0.1875-10.434 1.8438-3.2188 5.2031-5.2695 8.9062-5.4375 16.059-0.28906 31.867 3.9961 45.574 12.359 13.711 8.3633 24.758 20.457 31.848 34.867 7.7109 15.23 18.445 28.73 31.547 39.676 57.258 39.887 97.402 99.863 112.45 168l38.711-7.7422h-0.003907c-11.348-55.488-38.191-106.63-77.418-147.48v-273.87c0-6.9141 3.6875-13.305 9.6758-16.762 5.9922-3.457 13.367-3.457 19.355 0 5.9883 3.457 9.6797 9.8477 9.6797 16.762v270.97h38.711l-0.003907-329.03c0-6.9141 3.6914-13.305 9.6797-16.762s13.367-3.457 19.355 0c5.9883 3.457 9.6758 9.8477 9.6758 16.762v329.03h38.711v-270.97c0-6.9141 3.6875-13.305 9.6758-16.762 5.9883-3.457 13.367-3.457 19.355 0 5.9883 3.457 9.6758 9.8477 9.6758 16.762v270.97h38.711v-232.26c0-6.9141 3.6914-13.305 9.6797-16.762 5.9883-3.457 13.363-3.457 19.352 0 5.9883 3.457 9.6797 9.8477 9.6797 16.762v333.87c0.035157 6.9414-1.2109 13.832-3.6797 20.324l-48.195 128.52h0.003907c-4.0977 10.891-6.1953 22.43-6.1953 34.062v102.58h-193.55c0-43.742 8.3203-101.42-28.258-133.74z"/>
  <path d="m1150.6 251.9c-23.395-0.46094-46.441 5.7305-66.453 17.863-20.012 12.129-36.168 29.695-46.578 50.652-7.4102 13.914-18.109 25.809-31.16 34.648v-238.65c-0.11719-18.785-9.3164-36.355-24.688-47.156-15.371-10.797-35.02-13.492-52.734-7.2305 0-20.742-11.066-39.914-29.031-50.285s-40.098-10.371-58.066 0c-17.965 10.371-29.031 29.543-29.031 50.285-15.082-5.3125-31.688-4.1719-45.898 3.1523-14.215 7.3281-24.777 20.191-29.199 35.559-17.977-7.2383-38.383-5.0234-54.395 5.8945-16.012 10.922-25.52 29.113-25.344 48.492 1.9336 12.195-5.418 373.16 6.1953 367.74 3.4844 12.969 55.547 137.8 51.871 149.03l-0.003906 102.58h-38.711v77.418h-38.707v348.39h425.8v-348.39h-38.711v-77.418h-38.707v-65.227c0.011719-15.395 6.1406-30.152 17.031-41.031l53.031-53.031c29.715-29.543 46.312-69.781 46.066-111.68 0.058594-22.23 6.2891-44.008 18-62.902l71.418-114c8.8438-15.23 8.9766-34.004 0.34375-49.355-8.6289-15.352-24.734-24.996-42.344-25.355zm-202.26 457.36v65.227h-193.55c-1.5469-26.902 5.0312-112.26-6.1953-135.48-3.8711-14.324-55.16-136.84-51.871-148.84v-335.03c0-6.9141 3.6914-13.305 9.6797-16.762 5.9883-3.457 13.363-3.457 19.352 0 5.9883 3.457 9.6797 9.8477 9.6797 16.762v232.26h38.711v-270.97c0-6.9141 3.6875-13.305 9.6758-16.762 5.9883-3.457 13.367-3.457 19.355 0 5.9883 3.457 9.6758 9.8477 9.6758 16.762v270.97h38.711v-329.03c0-6.9141 3.6875-13.305 9.6758-16.762 5.9883-3.457 13.367-3.457 19.355 0s9.6797 9.8477 9.6797 16.762v329.03h38.711l-0.003906-270.97c0-6.9141 3.6914-13.305 9.6797-16.762 5.9883-3.457 13.363-3.457 19.355 0 5.9883 3.457 9.6758 9.8477 9.6758 16.762v273.87c-39.09 40.957-65.914 92.051-77.418 147.48l38.711 7.7422h-0.003906c11.719-58.266 42.996-110.78 88.645-148.84 22.527-15.457 41.309-35.758 54.969-59.418 7.0742-14.047 17.918-25.852 31.316-34.09 13.398-8.2344 28.828-12.582 44.555-12.555 4.2031-0.65234 8.4062 1.1719 10.805 4.6836 2.3984 3.5117 2.5625 8.0898 0.42188 11.77l-71.227 114c-15.527 24.707-23.84 53.266-24 82.449-0.078125 31.406-12.527 61.512-34.645 83.809l-53.031 53.031c-18.305 18.246-28.551 43.059-28.453 68.902zm77.418 452.32h-348.39v-116.13h251.61c20.746 0 39.914-11.07 50.285-29.035 10.375-17.965 10.375-40.098 0-58.062-10.371-17.965-29.539-29.031-50.285-29.031h-251.61v-38.711h348.39zm-348.39-193.55h251.61c6.9141 0 13.305 3.6914 16.762 9.6797 3.457 5.9883 3.457 13.363 0 19.355-3.457 5.9883-9.8477 9.6758-16.762 9.6758h-251.61zm309.68-116.13h-270.96v-38.707h270.97z"/>
 </g>
</svg>
