<svg xmlns:dc="http://purl.org/dc/elements/1.1/" xmlns:cc="http://creativecommons.org/ns#" xmlns:rdf="http://www.w3.org/1999/02/22-rdf-syntax-ns#" xmlns:svg="http://www.w3.org/2000/svg" xmlns="http://www.w3.org/2000/svg" xmlns:sodipodi="http://sodipodi.sourceforge.net/DTD/sodipodi-0.dtd" xmlns:inkscape="http://www.inkscape.org/namespaces/inkscape" viewBox="0 0 32 40.00000125" version="1.1" x="0px" y="0px"><g transform="translate(0,-1020.3622)"><path style="color:#000000;font-style:normal;font-variant:normal;font-weight:normal;font-stretch:normal;font-size:medium;line-height:normal;font-family:sans-serif;text-indent:0;text-align:start;text-decoration:none;text-decoration-line:none;text-decoration-style:solid;text-decoration-color:#000000;letter-spacing:normal;word-spacing:normal;text-transform:none;direction:ltr;writing-mode:lr-tb;baseline-shift:baseline;text-anchor:start;white-space:normal;clip-rule:nonzero;display:inline;overflow:visible;visibility:visible;opacity:1;isolation:auto;mix-blend-mode:normal;color-interpolation:sRGB;color-interpolation-filters:linearRGB;solid-color:#000000;solid-opacity:1;fill:#000000;fill-opacity:1;fill-rule:nonzero;stroke:none;stroke-width:1;stroke-linecap:round;stroke-linejoin:round;stroke-miterlimit:4;stroke-dasharray:none;stroke-dashoffset:0;stroke-opacity:1;color-rendering:auto;image-rendering:auto;shape-rendering:auto;text-rendering:auto;enable-background:accumulate" d="m 6.77407,1033.8624 a 0.50005,0.50005 0 0 0 -0.18164,0.035 c -2.26055,0.8453 -3.84366,1.9459 -4.61719,3.2598 -0.77353,1.3138 -0.60473,2.8657 0.52344,4.1504 2.25632,2.5693 7.56243,4.0523 13.48828,4.0546 5.92582,0 11.23763,-1.4766 13.50391,-4.0429 1.13316,-1.2832 1.30936,-2.8353 0.54101,-4.1504 -0.76834,-1.3152 -2.34828,-2.4185 -4.60547,-3.2656 a 0.50062478,0.50062478 0 1 0 -0.35156,0.9375 c 2.12887,0.7989 3.51104,1.8365 4.09375,2.8339 0.58272,0.9975 0.50004,1.9319 -0.42773,2.9825 -1.85549,2.1011 -7.00463,3.7073 -12.75391,3.705 -5.74931,0 -10.89093,-1.6134 -12.73633,-3.7148 -0.92271,-1.0507 -1.00146,-1.9847 -0.41406,-2.9824 0.5874,-0.9977 1.97496,-2.0347 4.10742,-2.8321 a 0.50005,0.50005 0 0 0 -0.16992,-0.9707 z"/><path style="color:#000000;font-style:normal;font-variant:normal;font-weight:normal;font-stretch:normal;font-size:medium;line-height:normal;font-family:sans-serif;text-indent:0;text-align:start;text-decoration:none;text-decoration-line:none;text-decoration-style:solid;text-decoration-color:#000000;letter-spacing:normal;word-spacing:normal;text-transform:none;direction:ltr;writing-mode:lr-tb;baseline-shift:baseline;text-anchor:start;white-space:normal;clip-rule:nonzero;display:inline;overflow:visible;visibility:visible;opacity:1;isolation:auto;mix-blend-mode:normal;color-interpolation:sRGB;color-interpolation-filters:linearRGB;solid-color:#000000;solid-opacity:1;fill:#000000;fill-opacity:1;fill-rule:evenodd;stroke:none;stroke-width:1px;stroke-linecap:butt;stroke-linejoin:miter;stroke-miterlimit:4;stroke-dasharray:none;stroke-dashoffset:0;stroke-opacity:1;color-rendering:auto;image-rendering:auto;shape-rendering:auto;text-rendering:auto;enable-background:accumulate" d="m 15.50063,1026.8624 c -4.13621,0 -7.5,3.3638 -7.5,7.5 l 0,2.7793 c -10e-6,0.6438 0.41469,1.2203 1.02539,1.4239 l 2.07227,0.6914 c 3.18157,1.0605 6.62116,1.0605 9.80273,0 l 2.07227,-0.6914 c 0.6107,-0.2036 1.02735,-0.7801 1.02734,-1.4239 l 0,-2.7793 c 0,-4.1362 -3.36378,-7.5 -7.5,-7.5 z m 0,1 1,0 c 3.59578,0 6.5,2.9043 6.5,6.5 l 0,2.7793 c 10e-6,0.2172 -0.1358,0.406 -0.34179,0.4746 l -2.07422,0.6915 c -2.97644,0.9921 -6.19349,0.9921 -9.16992,0 l -2.07227,-0.6915 c -0.20599,-0.069 -0.3418,-0.2574 -0.3418,-0.4746 l 0,-2.7793 c 0,-3.5957 2.90423,-6.5 6.5,-6.5 z"/><path style="color:#000000;font-style:normal;font-variant:normal;font-weight:normal;font-stretch:normal;font-size:medium;line-height:normal;font-family:sans-serif;text-indent:0;text-align:start;text-decoration:none;text-decoration-line:none;text-decoration-style:solid;text-decoration-color:#000000;letter-spacing:normal;word-spacing:normal;text-transform:none;direction:ltr;writing-mode:lr-tb;baseline-shift:baseline;text-anchor:start;white-space:normal;clip-rule:nonzero;display:inline;overflow:visible;visibility:visible;opacity:1;isolation:auto;mix-blend-mode:normal;color-interpolation:sRGB;color-interpolation-filters:linearRGB;solid-color:#000000;solid-opacity:1;fill:#000000;fill-opacity:1;fill-rule:evenodd;stroke:none;stroke-width:1px;stroke-linecap:butt;stroke-linejoin:miter;stroke-miterlimit:4;stroke-dasharray:none;stroke-dashoffset:0;stroke-opacity:1;color-rendering:auto;image-rendering:auto;shape-rendering:auto;text-rendering:auto;enable-background:accumulate" d="m 8.00063,1034.6222 c -10e-6,0.6437 0.41464,1.2203 1.02539,1.4238 l 2.07227,0.6914 c 3.18157,1.0605 6.62116,1.0605 9.80273,0 l 2.07227,-0.6914 c 0.61076,-0.2035 1.02736,-0.7801 1.02734,-1.4238 l -1,0 c 10e-6,0.2171 -0.13585,0.406 -0.34179,0.4746 l -2.07422,0.6914 c -2.97645,0.9921 -6.19348,0.9921 -9.16992,0 l -2.07227,-0.6914 c -0.20594,-0.069 -0.3418,-0.2575 -0.3418,-0.4746 z"/></g></svg>
