<svg xmlns="http://www.w3.org/2000/svg" xmlns:xlink="http://www.w3.org/1999/xlink" xml:space="preserve" version="1.1" style="shape-rendering:geometricPrecision;text-rendering:geometricPrecision;image-rendering:optimizeQuality;" viewBox="0 0 736 812.5" x="0px" y="0px" fill-rule="evenodd" clip-rule="evenodd">
<g><path class="fil0" d="M484 62c0,0 -10,-24 -1,-20 29,18 66,90 112,129 -10,6 -28,7 -63,-4 4,25 -26,30 -46,38 19,23 22,17 0,35 28,15 31,10 8,28 43,-14 46,-8 6,-29 18,-16 16,-11 -1,-31 16,-6 41,-12 38,-33 20,6 46,10 64,3 27,32 72,75 52,124 -21,51 -111,169 -31,219 9,5 55,12 71,24 19,14 52,30 41,60 -4,10 -8,11 -8,11 -4,-18 -11,-13 -30,-7 -32,10 -59,32 -97,30 -37,-2 -62,15 -94,10 -32,-6 -100,-20 -118,-24 -19,-5 -97,-6 -105,-3 -9,4 -39,24 -59,21 -20,-2 -36,-12 -36,-12 0,0 17,0 26,-3 8,-3 -12,-5 -12,-5 21,-9 35,-2 51,-10 0,0 -12,-8 -40,-2 -29,5 -64,17 -92,17 -35,1 -83,-20 -120,-26 0,0 71,-36 90,-37 19,-1 22,-2 22,-2 -2,-2 -5,-5 -8,-8 17,1 34,1 51,2 -4,-4 -9,-7 -13,-11 0,0 36,2 60,7 23,5 76,6 76,6 -9,-3 -17,-6 -25,-10 5,-6 10,-12 16,-18 68,1 133,-9 172,1 -22,-20 -23,-18 -3,-38 -34,-20 -9,-17 27,-28 -11,-6 -22,-11 -33,-17 11,-3 22,-6 33,-9 -35,-20 -34,-16 5,-19 -24,-28 -34,-26 -3,-38 -6,-21 -6,-16 16,-19 -3,-28 -8,-24 19,-26 3,-29 4,-22 35,-28 -2,-24 4,-20 26,-32 -20,-16 -24,-12 -1,-22 -17,-30 -21,-24 12,-31 2,-23 -1,-18 21,-27 -29,0 -26,-6 -29,20 -37,8 -34,2 -15,34 -26,12 -25,8 -2,25 -19,11 -22,6 -20,26 -30,7 -31,-1 -34,27 -29,3 -24,-2 -20,28 -25,3 -24,-2 -17,20 -34,13 -28,8 -3,37 -49,3 -55,-3 -10,23 -12,3 -23,6 -35,9 12,6 23,12 35,17 -44,14 -59,8 -20,31 -14,16 -18,12 -4,25 -60,-9 -91,11 -145,-5 9,-17 14,-15 42,-16 -13,-3 -25,-6 -37,-10 10,-13 15,-12 38,-12 -10,-4 -19,-7 -29,-11 9,-13 16,-11 37,-13 -10,-2 -21,-3 -31,-5 8,-17 17,-13 40,-15 -13,-2 -25,-4 -37,-6 8,-17 16,-15 43,-16 -13,-3 -26,-5 -40,-8 10,-21 24,-14 48,-16 -25,-5 -49,-9 -74,-14 14,-18 26,-15 57,-17 -23,-2 -45,-4 -68,-6 19,-23 45,-14 77,-14 -20,-5 -40,-9 -60,-14 23,-19 59,-8 87,-6 -16,-4 -33,-9 -50,-14 33,-17 37,-11 74,-10 -15,-4 -29,-9 -43,-13 26,-19 50,-13 83,-14 -44,-8 -68,-1 -91,-37 31,5 61,11 91,16 -45,-14 -77,-12 -97,-52 16,5 33,10 49,15 -34,-20 -50,-18 -60,-55 23,10 46,20 69,30 -37,-23 -77,-36 -88,-76 23,13 47,25 70,38 -29,-20 -76,-38 -85,-74 45,9 48,15 87,40 -28,-25 -46,-35 -63,-68 44,5 50,13 89,34 -31,-25 -44,-27 -54,-65 39,9 47,20 80,42 -20,-24 -27,-22 -27,-53 39,10 52,33 81,62zm-121 199c-14,7 -21,17 -30,23 -30,23 -41,18 -63,39 2,2 4,4 7,6 -7,8 -14,17 -20,25 8,1 17,2 25,2 -5,7 -9,14 -14,21 15,2 29,5 43,8 -22,6 -17,68 -40,108 8,-82 -13,-88 -27,-139 -5,-2 -11,-4 -16,-7 5,-3 9,-6 14,-9 -20,-4 -29,-2 -43,-17 10,-2 19,-4 29,-5 -23,-2 -40,2 -57,-13 8,-1 15,-3 23,-5 -35,-4 -50,3 -70,-23 18,1 37,3 55,4 -22,-9 -46,-13 -54,-34 39,1 41,2 77,16 -27,-17 -38,-20 -55,-47 50,8 68,19 114,41 -30,-22 -47,-28 -66,-60 48,6 67,21 110,43 -8,-13 -10,-11 -5,-25 38,5 37,31 63,48zm278 291c34,3 41,5 56,18 -37,3 -27,8 -56,-18z"/></g></svg>
