<?xml version="1.0" encoding="UTF-8" standalone="no" ?>
<!DOCTYPE svg PUBLIC "-//W3C//DTD SVG 1.1//EN" "http://www.w3.org/Graphics/SVG/1.1/DTD/svg11.dtd">
<svg xmlns="http://www.w3.org/2000/svg" xmlns:xlink="http://www.w3.org/1999/xlink" version="1.1" width="1080" height="1080" viewBox="0 0 1080 1080" xml:space="preserve">
<g transform="matrix(1 0 0 1 540 540)" id="ccf6f6f6-2004-46f3-ae99-6d9009da461c"  >
<rect style="stroke: none; stroke-width: 1; stroke-dasharray: none; stroke-linecap: butt; stroke-dashoffset: 0; stroke-linejoin: miter; stroke-miterlimit: 4; fill: rgb(255,255,255); fill-rule: nonzero; opacity: 1; visibility: hidden;" vector-effect="non-scaling-stroke"  x="-540" y="-540" rx="0" ry="0" width="1080" height="1080" />
</g>
<g transform="matrix(1 0 0 1 540 540)" id="dc57fb39-fb0c-4032-ba02-cdd86d5706c4"  >
</g>
<g transform="matrix(9.78 0 0 9.78 532.14 539.99)"  >
<path style="stroke: none; stroke-width: 1; stroke-dasharray: none; stroke-linecap: butt; stroke-dashoffset: 0; stroke-linejoin: miter; stroke-miterlimit: 4; fill: rgb(0,0,0); fill-rule: nonzero; opacity: 1;" vector-effect="non-scaling-stroke"  transform=" translate(-55.01, -54.93)" d="M 37.79 47.66 C 38.19546500872179 47.7240378474365 38.52061292820976 48.02935967427276 38.61 48.43 C 38.83975560206499 49.42289111949803 39.174993589192866 50.38837652242633 39.61 51.31000000000001 C 39.90278424645523 51.97677645245848 40.236762513217904 52.624694289978066 40.61000000000001 53.25 C 40.81197464162974 53.595624470378866 40.788369015946046 54.02839427457981 40.55 54.35 L 38.239999999999995 57.480000000000004 C 38.63999999999999 58.03 38.989999999999995 58.480000000000004 39.349999999999994 58.900000000000006 C 40.53549955475453 60.29002453049122 41.87774592923963 61.53831365876237 43.349999999999994 62.620000000000005 L 46.46999999999999 60.34 C 46.78940837629635 60.10595623114433 47.216832972485214 60.08242827172109 47.559999999999995 60.28 C 49.09222352108663 61.1571680124359 50.73288392562961 61.82956981757647 52.440000000000005 62.28 C 52.82503380057768 62.383381494659154 53.11187661974167 62.70558849700775 53.169999999999995 63.1 L 53.74999999999999 66.91 C 56.17968997850997 67.27515894412386 58.65031002149002 67.27515894412385 61.08 66.91 L 61.65999999999999 63.089999999999996 C 61.71812338025831 62.695588497007755 62.004966199422306 62.37338149465915 62.389999999999986 62.269999999999996 C 64.10093402201537 61.821500044587246 65.7451477865282 61.14901997730183 67.27999999999997 60.269999999999996 C 67.62316702751477 60.07242827172109 68.05059162370362 60.09595623114433 68.36999999999999 60.33 L 71.50999999999999 62.629999999999995 C 73.03657903699138 61.50612438650195 74.42311250919609 60.20352151188833 75.63999999999999 58.75 C 75.97999999999999 58.35999999999999 76.30999999999999 57.92999999999999 76.63999999999999 57.459999999999994 L 74.32 54.339999999999996 C 74.08163098405394 54.01839427457981 74.05802535837026 53.58562447037886 74.25999999999999 53.239999999999995 C 74.58999999999999 52.669999999999995 74.92999999999999 52.029999999999994 75.25999999999999 51.239999999999995 C 75.66612253122258 50.30684082561612 76.00042685351383 49.34404437741735 76.25999999999999 48.35999999999999 C 76.35850828653642 47.97401744675002 76.67670928476757 47.683315300217856 77.07 47.61999999999999 L 80.91999999999999 47.01999999999999 C 81.10663010487777 45.80893682998361 81.2002371500232 44.585359025582555 81.19999999999999 43.35999999999998 C 81.22006121570733 42.15342615796384 81.15322174313931 40.94697367811112 81 39.75 L 77.18 39.17 C 76.78287765520665 39.110355030620916 76.4599557405481 38.818937693002226 76.36000000000001 38.43 C 75.93421860993394 36.72734148891806 75.26034164443729 35.096559232416155 74.36000000000001 33.59 C 74.13580046282374 33.25396313004734 74.13580046282374 32.81603686995267 74.36000000000001 32.480000000000004 L 76.67000000000002 29.330000000000005 C 75.23158075740562 27.353105666730578 73.49410027829204 25.61225143911386 71.52000000000001 24.17000000000001 L 68.39000000000001 26.450000000000006 C 68.07059162370365 26.684043768855677 67.64316702751479 26.707571728278918 67.30000000000001 26.510000000000005 C 65.76561213665768 25.630029261622376 64.12126902727941 24.957496292551507 62.41000000000001 24.510000000000005 C 62.02496619942233 24.406618505340848 61.73812338025834 24.08441150299225 61.680000000000014 23.690000000000005 L 61.100000000000016 19.890000000000004 C 58.67262896573823 19.495025482350403 56.19737103426181 19.495025482350407 53.770000000000024 19.890000000000004 L 53.19000000000002 23.690000000000005 C 53.128224442133025 24.08058698263832 52.84208361390991 24.39808570984479 52.46000000000002 24.500000000000004 C 50.759196647937124 24.959737255491955 49.123008790639375 25.631682987441746 47.59000000000002 26.500000000000007 C 47.246832972485244 26.697571728278916 46.81940837629639 26.674043768855675 46.50000000000002 26.440000000000005 L 43.37000000000002 24.160000000000004 C 41.39264292945726 25.605716627846682 39.65188554411338 27.349847574014873 38.21000000000003 29.329999999999995 L 40.51000000000002 32.470000000000006 C 40.73419953717629 32.80603686995267 40.73419953717629 33.24396313004734 40.51000000000002 33.580000000000005 C 39.608600352608114 35.08246478399556 38.934625798415645 36.71011333237038 38.51000000000002 38.41000000000001 C 38.413518178936286 38.8028402912791 38.089867932956686 39.09886185772385 37.69000000000002 39.160000000000004 L 33.85000000000002 39.74 C 33.666523688364656 40.94794156516218 33.576257303723 42.1682093575402 33.58000000000003 43.39000000000001 C 33.57948958787947 44.61131099810151 33.666378164762556 45.83109294280618 33.840000000000025 47.03999999999999 Z M 57.45 31.17 C 62.398390946333976 31.165955542766742 66.8615930162495 34.14421603099345 68.75712901844295 38.71516041698009 C 70.6526650206364 43.28610480296673 69.60695381178022 48.548869886105365 66.10791184894279 52.04791184894279 C 62.60886988610537 55.54695381178021 57.346104802966735 56.59266502063641 52.77516041698009 54.697129018442965 C 48.20421603099345 52.80159301624951 45.22595554276674 48.338390946333995 45.23 43.39000000000002 C 45.23551421139437 36.64336573825854 50.70336573825854 31.175514211394372 57.449999999999996 31.17 Z M 17.87 74.85 L 19.34 74.85 C 20.69862048458375 74.85 21.799999999999997 75.95137951541624 21.8 77.30999999999999 L 21.8 91.07 C 21.800000000000004 93.53318998424533 23.796810015754666 95.52999999999999 26.259999999999998 95.52999999999999 L 39.260000000000005 95.52999999999999 C 39.91416887756806 95.52999459505261 40.541399754292485 95.79054468567777 41.00302778373567 96.25404925182602 C 41.46465581317885 96.71755381797425 41.722659223101964 97.345836527357 41.72 98 C 41.72 100.76142374915396 43.95857625084603 103 46.72 103 L 82.38 103 C 83.88685973172103 103.00935482058144 85.31757304881714 102.3386191936198 86.27422027073573 101.17434265578787 C 87.23086749265431 100.01006611795592 87.61140679172088 98.47643750618 87.31 97 L 85.49000000000001 87.43 C 84.77726704746566 83.69148292355307 85.1735347054904 79.82613524176797 86.63000000000001 76.31 L 93.32 60.2 L 94 58.56 L 94 58.49 C 99.56885911642702 44.31911407406951 96.09441222318364 28.190518487400958 85.1848307393931 17.569443606162146 C 74.27524925560257 6.948368724923334 58.05934745452825 3.9073317981191167 44.04276597857273 9.853897488687743 C 30.026184502617213 15.800463179256369 20.944014404788092 29.57426305896898 21 44.79999999999998 C 20.996049355206775 46.02230611758578 21.05613168029254 47.243980060996236 21.180000000000007 48.460000000000015 C 21.22984792858649 48.83505205085783 21.185160308003102 49.21661558045445 21.05 49.56999999999999 L 13.7 68.79 C 13.177614842813536 70.1625374779749 13.362744378989927 71.70411054163262 14.19524907862527 72.91393751520341 C 15.027753778260614 74.1237644887742 16.401415967650816 74.84748587522044 17.869999999999997 74.85000000000001 Z M 32.07 38.7 C 32.09965796664944 38.55498857124297 32.161136750537715 38.418369051491254 32.25 38.300000000000004 C 32.42250506802606 38.072391940063184 32.677449878415196 37.92157951701609 32.96 37.88 L 32.96 37.88 L 36.82 37.29 C 37.224525139115286 35.840947061442066 37.798487042355305 34.444642080460504 38.53 33.129999999999995 L 36.21 30 L 36.13 29.87 C 35.92313607740685 29.54332820422396 35.92313607740685 29.12667179577604 36.13 28.8 C 37.91661021903581 26.191943426199177 40.167328472995294 23.93444590039041 42.76999999999999 22.140000000000008 C 43.119306647404 21.888044388731338 43.590693352596006 21.888044388731338 43.940000000000005 22.14 L 43.940000000000005 22.14 L 47.09 24.43 C 48.41181129081438 23.715609281636688 49.80214656802481 23.136023732341734 51.23999999999999 22.700000000000003 L 51.830000000000005 18.849999999999998 C 51.900722966719485 18.42010357824563 52.225036644601325 18.0760146761027 52.650000000000006 17.979999999999997 L 52.650000000000006 17.979999999999997 C 55.765644912536864 17.389969709126987 58.96435508746314 17.389969709126987 62.08 17.979999999999997 L 62.080000000000005 17.979999999999997 C 62.51567964936734 18.056700810673366 62.849190662354154 18.410547861037415 62.900000000000006 18.849999999999998 L 63.49000000000001 22.689999999999998 C 64.93627557125583 23.124670938853225 66.333711549103 23.70777372097651 67.66000000000001 24.430000000000003 L 70.79 22.139999999999997 L 70.92 22.06 C 71.25373249557455 21.840219539232674 71.68626750442544 21.840219539232674 72.02 22.06 C 74.61685754438268 23.849988593122134 76.86392731489235 26.10044760913786 78.64999999999998 28.699999999999996 C 78.75990636507825 28.869881066427286 78.81889579816155 29.067669165588907 78.82 29.27 C 78.82910976997933 29.369792530227308 78.82910976997933 29.470207469772692 78.82 29.57 C 78.78679646456332 29.69667219350356 78.72903659253666 29.815589577087867 78.64999999999999 29.92 L 76.33 33.07 C 77.05731682775391 34.38910552686816 77.6374658348678 35.78414591391657 78.06 37.230000000000004 L 81.92 37.81 C 82.35945213896258 37.860809337645854 82.71329918932663 38.19432035063266 82.79 38.63 C 83.0708305030084 40.184399467016476 83.21471571910615 41.76044450845928 83.22000000000001 43.34000000000001 C 83.21852088322531 44.919732909312486 83.07460488786764 46.49611509102085 82.79 48.050000000000004 C 82.71014121112694 48.4955121872107 82.34100145552613 48.83183952009144 81.89 48.870000000000005 L 78.04 49.470000000000006 C 77.78913000401091 50.35017987189421 77.47840620470863 51.21218783124888 77.11 52.050000000000004 C 76.83 52.64000000000001 76.57 53.150000000000006 76.31 53.620000000000005 L 78.65 56.77 C 78.69254948394267 56.833257850216334 78.72936247970215 56.90019056977902 78.76 56.970000000000006 C 78.90756436593132 57.29367066583146 78.88121822445484 57.67004411549558 78.69000000000001 57.970000000000006 C 78.21962405416251 58.66606636224935 77.70874314454211 59.33388454475968 77.16000000000001 59.970000000000006 C 75.67692574583843 61.739484687497615 73.96138194638225 63.30029316386559 72.06000000000002 64.61 C 71.70858023733928 64.8667956733635 71.23141976266075 64.8667956733635 70.88000000000001 64.61 L 70.88000000000001 64.61 L 70.88000000000001 64.61 L 67.73 62.3 C 66.40377431621096 63.01975626292969 65.00624774340977 63.5995454645954 63.56 64.03 L 63 67.93 L 63 67.93 C 62.96421474086569 68.15321789321946 62.85928545724064 68.35957881768208 62.7 68.52000000000001 C 62.559859029290855 68.66310194693479 62.3776722062754 68.75769895119282 62.18 68.79 C 60.63424187453224 69.08460061781527 59.063557628515326 69.22860791542449 57.49 69.22000000000001 C 55.907412014728685 69.21829263372642 54.3280245210943 69.07775391607251 52.77 68.80000000000001 C 52.617984186208076 68.77321905959242 52.4742315870482 68.71161080280962 52.35 68.62 C 52.12522578413374 68.45370878701456 51.97447134797125 68.20604078474763 51.93 67.93 L 51.93 67.93 L 51.339999999999996 64.06 C 49.8969900762627 63.629441473112585 48.50279012479155 63.049641974063285 47.17999999999999 62.330000000000005 L 44 64.64 C 43.639914087014944 64.88091795804414 43.17008591298506 64.88091795804414 42.81 64.64 C 40.956013290277546 63.37380671000246 39.27515931779174 61.87112325860014 37.81 60.17 C 37.22317140267224 59.48038478523132 36.67883294015586 58.755713335132825 36.18 58 C 35.979213576362554 57.70327408785949 35.95251075483933 57.32180520895638 36.11 57 C 36.1525756294223 56.91385667994424 36.21013945571852 56.83597620907289 36.28 56.77 L 38.550000000000004 53.690000000000005 C 38.24 53.120000000000005 37.980000000000004 52.6 37.77 52.11000000000001 C 37.37196335929024 51.27649943604414 37.03767259488815 50.414029263886725 36.77000000000001 49.53 L 33 48.93 L 32.89 48.93 C 32.487495352396415 48.85063063651266 32.17430033347923 48.53347112368514 32.1 48.13 C 31.82863077934833 46.57815514453368 31.694777961692683 45.00538453707985 31.7 43.42999999999999 C 31.674367158701966 41.845207741651066 31.79824895282162 40.261529670878275 32.07000000000001 38.70000000000002 Z" stroke-linecap="round" />
</g>
</svg>
