<svg xmlns="http://www.w3.org/2000/svg" version="1.1" viewBox="-5.0 -10.0 110.0 135.0">
 <g>
  <path d="m56.406 77.875c0.49219 1.4844 1.1328 2.9102 1.7773 4.332-1.1523-0.40625-2.3086-0.82812-3.4336-1.3086-0.63281-0.26953-1.2461-0.58594-1.8789-0.85156-0.14062 1.4805-0.14844 3.5117-1.0195 4.7812-0.28906 0.42188-0.66406 0.77734-1.0547 1.1016-0.67188 0.55469-1.9062 1.3398-1.9922 2.2734-0.023438 0.25 0.058593 0.48828 0.22266 0.67578 0.10547 0.12109 0.25391 0.21484 0.39062 0.29688 1.6992 0.66406 4.4062 0.19141 6.0352-0.52344 1.2031-0.52734 1.6914-1.0703 2.1602-2.293 0.84766-2.207 1.5195-4.5547 2.9922-6.4531-1.1641-0.28125-2.3008-0.65234-3.3008-1.3359-0.30469-0.21094-0.57422-0.52344-0.89453-0.69922z"/>
  <path d="m51.148 83.922c0.62891-1.3242 0.62891-3.1328 0.63672-4.5742-0.33594-0.21875-0.67578-0.43359-0.99609-0.67188-0.38281-0.28125-1.0469-0.89062-1.4492-1.0508 0.63281 1.0703 1.4531 1.9023 2.3281 2.7734-0.87891-0.14453-1.7656-0.097657-2.6484-0.26563-0.14453 1.125-0.33984 2.0078-1.2812 2.7344-0.60547 0.46875-2.3359 1.1602-2.4648 1.9219-0.023438 0.13281 0.007812 0.27734 0.089843 0.38672 0.050781 0.070313 0.11328 0.13281 0.17578 0.19531 0.76953 0.375 3.0703 0.48828 3.875 0.22266 0.74609-0.24219 1.4102-0.98828 1.7383-1.6758z"/>
  <path d="m28.25 44.332c-0.49609-0.27734-1.1367-0.4375-1.6992-0.35156-0.96484 0.16797-1.5195 0.57422-2.1328 1.3203 0.62891-0.44922 1.2461-0.72266 2.043-0.59766 0.44531 0.070313 0.78516 0.25781 1.125 0.54688-0.30859 0.21484-0.61328 0.42188-0.69922 0.81641-0.035157 0.17188-0.007813 0.35156 0.097656 0.49219 0.11328 0.14453 0.28125 0.22266 0.46094 0.23438 0.30078 0.015625 0.57813-0.13281 0.78906-0.33594 0.070313-0.070312 0.13672-0.14453 0.20312-0.21875 0.39062 1.2031 0.43359 2.0977-0.089844 3.2656-0.35938 0.62891-0.71484 1.0195-1.3164 1.4297 1.0352-0.28906 1.8398-0.85547 2.375-1.8008 0.48828-0.85937 0.59766-1.8477 0.33594-2.8008-0.22266-0.80859-0.75391-1.582-1.4922-1.9961z"/>
  <path d="m76.656 75.074c0.56641 1.4844 0.71875 2.6758 0.82812 4.2344 0.09375-0.20703 0.1875-0.41406 0.26562-0.62891 0.37891-0.96875 0.58594-2.0117 0.49609-3.0547-0.51562-0.22656-1.0469-0.40625-1.5898-0.55469z"/>
  <path d="m40.738 74.797c0.17578 0.88281 0.4375 1.75 0.77734 2.582-0.98438-0.042968-1.8086-0.28906-2.7148-0.66406-0.30469 1.0508-0.61719 2.2188-1.3086 3.0938-0.59766 0.75391-3.3945 2.0039-2.707 3.1953 0.22266 0.38672 0.67969 0.58594 1.0938 0.67969 0.52734 0.11719 1.0977 0.12891 1.6367 0.10547 1.9258-0.074218 4.1484-0.29297 5.5469-1.7812 0.72266-0.76953 1.2969-2.4375 1.9648-3.4375-1.0781-0.71875-2.1016-1.5273-3.0273-2.4375-0.42578-0.41797-0.80859-0.95703-1.2656-1.332z"/>
  <path d="m69.742 82.832c-0.70703-0.87891-1.3945-1.7617-2.2344-2.5156 0.32422 1.6758 0.64063 3.4141-0.38672 4.918-0.15625 0.23047-0.33594 0.45312-0.54297 0.63672-0.55859 0.5-2.168 1.4766-2.0352 2.3672 0.03125 0.22266 0.19141 0.38281 0.37109 0.5 0.84375 0.55469 2.2422 0.52344 3.207 0.44531 1.6289-0.12891 3.625-0.52344 4.7422-1.8398 0.55078-0.65234 0.98047-1.7773 1.4492-2.5547 0.80078-1.3242 1.9648-2.6992 2.5664-4.1055-1.8203-1.793-4.2422-2.6602-6.7109-3.1133 0.34766 1.7266 0.34375 3.6289-0.42578 5.2578z"/>
  <path d="m15.309 36.23 0.58984-1.0703c0.63281-1.0508 1.2852-2.0117 2.0781-2.9453-0.29297-1.2891-0.33984-2.5391-0.47266-3.8398-0.92969-0.94531-2.6719-2.2109-4.0508-2.2852-0.41797 0.17188-0.64844 0.39062-0.82031 0.82031-0.66797 1.668 0.19531 5.2227 0.9375 6.8398 0.41406 0.90625 1.0273 1.7812 1.7383 2.4805z"/>
  <path d="m90.219 54.738c-0.23828-0.24219-0.49609-0.46484-0.76172-0.67578 2.1523-0.28516 4.168 0.23438 5.9961 1.375 0.015625-2.4922-0.72266-4.4883-2.4883-6.2773-0.95312-0.96484-2.1133-1.6836-3.3359-2.2539 2.0234-0.62891 3.8398-0.62891 5.8203 0.125-0.57031-2.3906-2.0742-4.6562-4.1875-5.9453-1.2148-0.74219-2.5352-1.1445-3.9414-1.2852 1.8438-0.99219 3.7461-1.5547 5.8516-1.2734-1.1406-2.1719-3.0117-3.6953-5.3594-4.418-1.2305-0.37891-2.5586-0.50391-3.8477-0.49609 1.7695-1.2461 3.6562-2.7773 5.9062-2.9336-2.4336-1.8086-5.3945-3.3477-8.5234-2.9023-0.30469 0.042968-0.61719 0.11328-0.91016 0.21094 1.3516-1.6641 2.4648-2.6992 4.6172-3.1953-2.5039-1.3984-5.2891-2.1719-8.125-1.375-0.74609 0.20703-1.4219 0.51562-2.0977 0.89062 0.60938-2.2383 1.7969-4.0273 3.6445-5.418-2.6211-0.52344-5.6094 0.40234-7.793 1.8516-0.42578 0.28125-0.82031 0.60156-1.207 0.9375 0.11328-2.5234 0.82422-4.8438 2.7188-6.5938-3.7617 0.085937-7.2539 1.5312-9.8984 4.2305 0.089844-2.332 0.68359-4.5938 2.2734-6.3555-3.6055 0.59375-6.3516 1.6562-8.5469 4.7305-0.43359 0.60547-0.82031 1.2422-1.2031 1.8789 0.14844-0.67187 0.34375-1.3086 0.57813-1.9531 0.15625-0.42969 0.35156-0.85938 0.46875-1.3008 0.10937-0.40625 0.078124-0.83594 0.13672-1.2461 0.15234-1.0859 0.46484-2.0664 0.90625-3.0664-2.293 0.82031-4.7383 2.1992-5.8242 4.4961-0.25 0.52734-0.43359 1.1016-0.54688 1.6719-0.58984-1.1211-1.4453-3.5156-1.6133-4.7344-0.085937-0.61719-0.070312-1.2695-0.050781-1.8906 0.003906-0.074219 0.015625-0.042969-0.035156-0.097656-2.5703 2.0039-3.9688 4.7305-4.5391 7.8906-1.2852-1.4844-1.9961-3.3008-1.8398-5.2812 0.015624-0.21094 0.046874-0.42188 0.082031-0.62891-2.1719 1.6094-3.6914 3.9883-4.0977 6.6719-0.078124 0.51563-0.14062 1.0547-0.11719 1.5742-0.95312-2.043-1.6953-4.2773-1.8672-6.5312-1.8711 1.75-3.1836 3.9453-3.2695 6.5547-0.015625 0.49219-0.007812 1.0039 0.039063 1.4922-1.7695-1.5352-3.4219-3.457-3.6211-5.9023-1.8125 2.4609-2.375 4.7539-1.9062 7.7969 0.058594 0.38281 0.12109 0.76953 0.20703 1.1445-2.1602-1.5-3.8633-2.8594-4.6797-5.4727-0.83594 1.9961-1.3281 4.5156-0.87109 6.6484 0.14062 0.66406 0.42188 1.2852 0.61719 1.9375-1.2148-2.0391-3.0469-2.4766-4.1562-4.6094-0.14844 1.0273-0.24219 2.0352-0.24219 3.0742 0.003906 2.9961 0.69922 7.2383 2.5 9.6523 1.0391-0.80469 2.1836-1.5156 3.3906-2.0312 2.7188-1.1602 6.0391-1.5391 8.9727-1.5234 0.42188-0.52734 0.84375-1.0391 1.3477-1.4922 2.207-1.9922 5.9219-3.8672 8.8789-4.2109 0.875-0.10156 1.8047-0.054687 2.5195 0.52734 0.95703 0.77734 1.2148 2.2383 1.3164 3.3945 0.30859 3.5195-0.87891 7.25-3.1641 9.9453-1.1172 1.3203-2.8555 2.707-4.6445 2.8711-0.17578 0.015625-0.37109 0.023438-0.54297-0.023437 0.73438-0.41797 1.4727-0.76953 2.1641-1.2695 2.2891-1.6602 3.9453-4.3203 4.7031-7.0273 0.47266-1.6953 0.83594-4.9336-0.089843-6.5391-0.21875-0.38281-0.53125-0.66016-0.96484-0.76953-1.9727-0.48828-5.8789 1.4102-7.6016 2.5039-2.3125 1.4648-3.6328 3.0352-4.918 5.4453 0.12891-0.96875 0.33594-1.8281 0.6875-2.7422-4.2617 0.089844-9.0781 0.71875-12.195 3.9102-1.0352-1.543-1.8086-3.2852-2.5781-4.9688-1.5898 1.9766-2.7422 4.3359-3.3711 6.7891-0.097656 0.375-0.45312 1.4844-0.42188 2.0234 0.035156 0.37109 0.27344 0.73437 0.32812 0.91016 0.078125 0.25391 0.125 0.52344 0.14844 0.78516 0.039062 0.41016-0.023438 0.86719-0.089844 1.2734-0.47656 2.957-3.0156 5.2109-5.5703 6.5078-0.43359 0.21875-0.875 0.39844-1.3281 0.57422 0.41406 0.42969 0.76562 0.86719 0.75781 1.5039-0.007812 0.73047-0.48828 1.4062-1.0039 1.8867-0.21484 0.19922-0.44922 0.38672-0.71094 0.51953 2.2109 2.2344 4.8398 3.4922 8.0234 3.5 1.5938 0.003906 3.2852-0.40234 4.4336-1.5664 0.28516-0.28906 0.69922-0.92188 1.1367-0.93359 0.10547-0.003906 0.19531 0.042969 0.25781 0.12891 0.082031 0.11719 0.10547 0.27734 0.066406 0.41797-0.20312 0.73828-1.5977 1.7734-2.2617 2.1172-1.2852 0.66797-2.75 0.86328-4.1836 0.81641 1.8633 0.57422 3.8555 0.94922 5.8008 1.043 4.7109 0.22266 10.305-1.0508 14.539-3.0977-1.8555 1.4062-3.9141 2.4883-6.1367 3.1875-0.69922 0.21875-1.4219 0.35547-2.1172 0.57422 1.0547 0.53516 2.0195 1.0742 2.8555 1.9297 1.3047 1.3359 2.1133 3.0312 3.0703 4.6133 1.6055 2.6562 4.3867 6.1641 7.4375 7.125-0.38281-1.5742-0.91016-3.4023-0.57812-5.0234 1.0547 1.9258 2.5781 3.8516 4.2578 5.2695 1.7812 1.4375 3.1016 2.1562 5.3359 2.7383-1.1133-1.6836-1.9023-3.2344-1.7344-5.3086 0.66016 0.73047 1.2305 1.5352 1.8945 2.2617 2.0859 2.2891 4.3242 3.3633 7.1523 4.4531-0.87891-2.1562-1.457-4.2656-1.5352-6.6055 0.70703 2.0117 2.0664 3.543 4.0039 4.4688 1.75 0.83594 3.2773 0.55859 4.8359 1.1641-0.71094-1.8477-1.5781-3.6133-2.0078-5.5547 0.69922 1.0859 1.3477 2.207 2.0156 3.3086 2.0859 0.44531 4.3555 1.8164 5.6758 3.4883 0.28516-2.3711-0.47266-4.3828-1.3438-6.5352 0.69922 0.62891 1.2461 1.4727 1.6953 2.293 2.6094 0.30469 4.8867 1.1445 6.9883 2.7383-0.015625-2.1445-0.53906-4.125-2.0273-5.7266 2.6992 0.59375 4.2812 1.2031 6.5547 2.8281 0.35938-2.2617-0.22266-4.0352-1.5547-5.8711l-0.12109-0.16406c2.875 0.66797 4.5938 1.6602 6.3789 4.0352 0.59375-1.375 0.53906-3.6328-0.019531-5.0195-0.52344-1.2969-1.4336-2.3203-2.3828-3.3203 2.2656 0.60156 4.5117 1.8477 5.9414 3.75 0.59375-2.832 0.39453-5.1758-1.2227-7.6445-0.68359-1.0391-1.5273-1.8711-2.4805-2.6562 2.5625 0.65234 4.7656 1.4023 6.918 3.0078 0.015625-2.8555-0.33984-5.5742-2.4453-7.7031zm-60.238-5.1641c-0.60938 1.0352-1.5742 1.7109-2.7266 2.0039-0.035156 0.007813-0.074218 0.015625-0.10938 0.019531-0.90625 0.14453-1.8516-0.082031-2.5898-0.63281-0.83984-0.62891-1.3438-1.6211-1.4922-2.6445-0.18359-1.2461 0.12109-2.5508 0.87891-3.5625 0.63281-0.84375 1.4961-1.3398 2.5352-1.4961 0.73438-0.0625 1.5234 0.13281 2.1602 0.50391 0.90625 0.52734 1.5234 1.4023 1.7891 2.4102 0.29688 1.1328 0.15234 2.3867-0.44531 3.3984zm25.223-24.734c-0.12109 0.39453-0.21094 0.80469-0.26172 1.2148-0.17188 1.4141-0.03125 3.2891-0.027344 4.7578-0.53906-2.0781-0.875-3.5039-0.54297-5.6992-0.8125 0.52344-1.543 1.082-2.2383 1.7578-1.0781 1.0703-1.7656 2.3789-2.1289 3.8477 0.003906-0.875 0.13672-1.7031 0.49609-2.5039 0.91797-2.0508 2.875-3.3516 4.9062-4.1367 0.035156 0.039063 0.03125 0.027344 0.027344 0.082031-0.015625 0.21484-0.17188 0.47266-0.23438 0.68359zm21.438 3.3438c1.1914-0.14844 2.4297 0.09375 3.5898 0.34766-1.6094 1.0039-3.0664 1.9648-4.3086 3.4297-0.49609 0.58594-0.91406 1.2305-1.4062 1.8164 0.27734-0.81641 0.58594-1.5195 1.0742-2.2344 0.78516-1.043 1.7227-1.918 2.8008-2.6523-2.168-0.097656-4.1406 0.09375-6.2344 0.68359 1.3359-0.85156 2.9141-1.2695 4.4844-1.3906zm-13.547-0.375c1.5-1.6953 3.4297-2.2344 5.6172-2.3711 0.12891 0 0.22266-0.027344 0.32812 0.050781-0.039062 0.09375-1.0234 1.1406-1.2266 1.4414-1.457 2.1289-1.332 3.5391-1.6875 5.9102-0.042969-0.15234-0.082031-0.30469-0.11719-0.45703-0.44531-2.0156 0.09375-4.0078 1.1953-5.7031l0.30469-0.42578c-2.0625 0.37109-3.8008 1.3047-5.2734 2.8008 0.24219-0.44922 0.51562-0.85938 0.85547-1.2422zm-0.33984 19.652c-0.21094-1.8086 0.51953-3.5391 1.5039-5.0195l0.39844-0.53906c-2.25 0.24609-4.2578 0.95312-6.3477 1.7891 1.8047-1.293 3.9102-2.2227 6.1328-2.4453 0.1875-0.011719 0.36719-0.023438 0.55469-0.007813 0.22656 0.019531 0.51172 0.074219 0.64844 0.28125 0.035157 0.054688 0.078125 0.17578 0.066407 0.24609-0.027344 0.17578-0.94531 0.98047-1.1211 1.2617-0.88281 1.4023-1.3438 2.875-1.832 4.4375zm9.4727 3.8047c-0.085937 0.13672-0.97656 0.49219-1.1758 0.60156-0.28516 0.15234-0.57031 0.33594-0.82812 0.53125-1.1641 0.88672-1.875 2.4727-2.6016 3.7109 0.15625-1.1133 0.53125-1.9258 1.1523-2.8633 0.58594-0.84375 1.2852-1.4766 2.1055-2.082-2.332-0.29297-4.4453 0.20313-6.6289 0.95703 1.3633-0.98828 2.875-1.5508 4.5469-1.7266 0.83984-0.097656 2.3984-0.058593 3.1641 0.32812 0.12891 0.0625 0.26562 0.16406 0.29687 0.3125 0.015626 0.0625-0.003906 0.17188-0.035156 0.23047zm-0.23047-13.422c0.87891-0.30469 1.7383-0.50391 2.6641-0.60156 1.3711-0.22656 3.5898 0.23437 4.9141 0.74609 0.22656 0.085938 0.42578 0.19141 0.52734 0.42188-0.019531 0.27734-0.21094 0.31641-0.45312 0.37109-1.918 0.42969-3.4102 1.6875-4.6562 3.1406 0.085937-0.27734 0.1875-0.53125 0.30859-0.79688 0.75391-1.3164 1.918-2.1016 3.2422-2.7578-2.5273-0.69922-4.0156-0.59766-6.5508-0.52344zm5.1406 25.07c-0.74609-0.03125-1.4805-0.023437-2.2266-0.007812 1.8516-0.72656 3.3867-0.51172 5.2422 0.054688-0.91406-1.5312-1.9492-2.6562-3.5312-3.5078-0.44141-0.23828-0.92188-0.41406-1.3555-0.66016-0.011719-0.007813-0.023437-0.015625-0.035156-0.023438 0.77734 0.085938 1.5195 0.25781 2.2227 0.60547 1.9375 0.95312 3.3164 2.8359 4.0039 4.8477-1.4062-0.64844-2.7773-1.0938-4.3164-1.3125zm3.6094-10.016-0.10547-0.027344c0.17188-0.12109 0.42188-0.17188 0.625-0.23438 1.4922-0.47656 3.1484-0.59375 4.7031-0.41406-0.17969-0.26562-0.39062-0.51172-0.61328-0.74609-1.9883-2.1055-3.8125-2.4844-6.6133-2.5547 0.51953-0.13281 1.0234-0.21094 1.5586-0.25391 0.90234-0.089844 1.9648 0.10156 2.8086 0.42188 1.8828 0.71875 3.3789 2.1914 4.2031 4.0234-2.3867-0.42188-4.1602-0.42578-6.5664-0.21094zm0.625-7.4688-0.79297 0.375c1.5273-1.582 3.4258-2.0625 5.5547-2.207-1.6406-1.668-4.0273-2.3242-6.293-2.4766 0.30859-0.070313 0.60938-0.097656 0.92578-0.12109 0.63281-0.054688 1.2734-0.027344 1.8984 0.082031 2.0117 0.35938 3.8477 1.5195 5.0195 3.2031-2.1719-0.085937-4.3242 0.22266-6.3086 1.1445z"/>
  <path d="m14.219 43.691c-0.070312 0.12109-0.17969 0.28125-0.16406 0.42969 0.011718 0.10938 0.078124 0.19141 0.17187 0.24609 0.039063 0.023437 0.11719 0.042968 0.16406 0.058593 0.078125-0.15625 0.14453-0.32422 0.085937-0.5-0.042968-0.13281-0.14062-0.1875-0.26172-0.23438z"/>
 </g>
</svg>