<?xml version="1.0" encoding="UTF-8" standalone="no" ?>
<!DOCTYPE svg PUBLIC "-//W3C//DTD SVG 1.1//EN" "http://www.w3.org/Graphics/SVG/1.1/DTD/svg11.dtd">
<svg xmlns="http://www.w3.org/2000/svg" xmlns:xlink="http://www.w3.org/1999/xlink" version="1.1" width="1080" height="1080" viewBox="0 0 1080 1080" xml:space="preserve">
<desc>Created with Fabric.js 5.2.4</desc>
<defs>
</defs>
<g transform="matrix(1 0 0 1 540 540)" id="34713ac2-a781-4851-b9c1-cb613f0a14e7"  >
<rect style="stroke: none; stroke-width: 1; stroke-dasharray: none; stroke-linecap: butt; stroke-dashoffset: 0; stroke-linejoin: miter; stroke-miterlimit: 4; fill: rgb(255,255,255); fill-rule: nonzero; opacity: 1; visibility: hidden;" vector-effect="non-scaling-stroke"  x="-540" y="-540" rx="0" ry="0" width="1080" height="1080" />
</g>
<g transform="matrix(1 0 0 1 540 540)" id="f686116c-02b4-4229-beb5-366ddb5452ab"  >
</g>
<g transform="matrix(1 0 0 1 540 540)"  >
<rect style="stroke: none; stroke-width: 1; stroke-dasharray: none; stroke-linecap: butt; stroke-dashoffset: 0; stroke-linejoin: miter; stroke-miterlimit: 4; fill: rgb(255,255,255); fill-rule: nonzero; opacity: 1; visibility: hidden;" vector-effect="non-scaling-stroke"  x="-540" y="-540" rx="0" ry="0" width="1080" height="1080" />
</g>
<g transform="matrix(2.4 0 0 2.4 541.98 538.4)"  >
<path style="stroke: rgb(0,0,0); stroke-width: 0; stroke-dasharray: none; stroke-linecap: butt; stroke-dashoffset: 0; stroke-linejoin: miter; stroke-miterlimit: 4; fill: rgb(0,0,0); fill-rule: nonzero; opacity: 1;" vector-effect="non-scaling-stroke"  transform=" translate(-350, -280.01)" d="M 541 209.11 L 536.4922 213.22330000000002 C 509.0702 212.36392000000004 499.1132 214.10611000000003 495.5942 215.20770000000002 C 494.81686 215.43426000000002 494.1333 215.72332000000003 493.52 215.99676000000002 L 492.477 216.37176000000002 C 475.87899999999996 222.97726000000003 467.313 236.74276000000003 457.43399999999997 259.66876 C 455.85979999999995 263.31716 454.51989999999995 267.05546000000004 453.1801 270.77376000000004 C 451.4926 275.47296000000006 449.73089999999996 280.32066000000003 447.5551 284.92976000000004 L 447.1176 285.91804 C 424.8406 332.06604000000004 379.9456 360.74604 329.94759999999997 360.74604 C 312.5886 360.74604 295.77959999999996 357.20304 279.8966 350.40204 C 283.8185 367.74604 291.51759999999996 410.05804 278.0763 427.50004 C 274.0958 432.66414000000003 268.4357 435.38284 261.7213 435.38284 C 228.50629999999998 435.38284 199.01829999999998 343.18384 190.4513 313.73284 L 188.5607 316.54144 L 170.6937 304.51044 L 176.49450000000002 295.89324 L 158.97850000000003 288.50654 L 160.4824 284.55343999999997 C 163.69330000000002 276.15504 168.8222 268.87343999999996 175.71640000000002 262.93244 L 178.91950000000003 260.17464 L 191.40350000000004 273.72964 L 197.77460000000005 264.26084000000003 L 215.64160000000004 276.29184000000004 L 209.55960000000005 285.33094000000006 C 211.42290000000006 286.45984000000004 213.44630000000004 287.72154000000006 215.73540000000006 289.1825400000001 C 219.21980000000005 291.3973400000001 223.29400000000007 293.97944000000007 227.76640000000006 296.60444000000007 C 221.85230000000007 284.0144400000001 218.71950000000007 270.24944000000005 218.71950000000007 256.0224400000001 C 218.71950000000007 202.95244000000008 261.89950000000005 159.77244000000007 314.96950000000004 159.77244000000007 C 332.4345 159.77244000000007 349.6725 164.55764000000008 364.81750000000005 173.5964400000001 L 365.37609000000003 173.98316000000008 C 392.91109000000006 190.9131600000001 409.61409000000003 219.80716000000007 410.95409000000006 251.92816000000008 C 421.0520900000001 231.1741600000001 425.8450900000001 202.3231600000001 417.81349000000006 181.66616000000008 C 413.27049000000005 170.0021600000001 397.90749000000005 154.68916000000007 389.63749000000007 146.47516000000007 C 387.68439000000006 144.5337600000001 386.11019000000005 142.95956000000007 385.07889000000006 141.8462600000001 L 383.91479000000004 140.5845600000001 L 383.91479000000004 138.8697600000001 C 383.69604000000004 136.9635600000001 384.10620000000006 134.6509600000001 385.15699000000006 132.5533600000001 C 394.08279000000005 115.87736000000011 437.48899000000006 127.74866000000011 475.82499000000007 148.0333600000001 C 507.97699000000006 165.0173600000001 542.06699 191.3923600000001 541.0009900000001 209.1113600000001 z M 204.68 292.59000000000003 L 197.41830000000002 303.379 C 212.3203 316.707 245.0903 343.50800000000004 314.9883 343.50800000000004 C 363.23429999999996 343.50800000000004 402.4883 304.254 402.4883 256.00800000000004 C 402.4883 225.15600000000003 386.7543 197.17200000000003 360.40229999999997 181.16800000000003 L 359.87886 180.82816000000003 C 346.21085999999997 172.76176000000004 330.68786 168.50816000000003 314.98386 168.50816000000003 C 266.73786 168.50816000000003 227.48386 207.76216000000002 227.48386 256.00816000000003 C 227.48386 269.61316000000005 230.58156 282.76616 236.51506 294.66416000000004 C 238.85096000000001 298.38296 241.20646 301.76966000000004 243.69086000000001 304.96116000000006 C 255.46786 310.37916000000007 268.84686 314.62916000000007 282.78486000000004 314.62916000000007 C 293.39786000000004 314.62916000000007 303.70686000000006 312.69556000000006 313.38286000000005 309.15256000000005 C 284.76186000000007 308.31272000000007 261.7228600000001 284.82856000000004 261.7228600000001 256.00456 C 261.7228600000001 226.65656 285.6018600000001 202.77756000000002 314.95686000000006 202.77756000000002 C 344.31186 202.77756000000002 368.18386000000004 226.65656 368.18386000000004 256.00456 C 368.18386000000004 267.55556 364.44946000000004 278.23156 358.16386000000006 286.96956 L 358.56620000000004 287.30159 C 339.91020000000003 310.23559 312.28920000000005 323.38759 282.7812 323.38759 C 253.2072 323.38759 226.8162 306.59459 211.04720000000003 296.55959 C 208.64880000000002 295.02439000000004 206.58240000000004 293.73149 204.68390000000002 292.59079 z M 359.44 256.00800000000004 C 359.44 231.48100000000005 339.491 211.53100000000003 314.963 211.53100000000003 C 290.428 211.53100000000003 270.47900000000004 231.48000000000005 270.47900000000004 256.00800000000004 C 270.47900000000004 280.535 290.42800000000005 300.485 314.963 300.485 C 339.483 300.485 359.44 280.524 359.44 256.00800000000004 z M 181.48 288.48800000000006 L 186.398 281.18330000000003 L 178.355 272.46060000000006 C 175.08159999999998 275.83950000000004 172.4058 279.62860000000006 170.3472 283.80060000000003 z M 186.1948 304.3860000000001 L 203.5108 278.6590000000001 L 200.1592 276.40120000000013 L 182.8432 302.1282000000001 z M 270.37879999999996 348.0930000000001 C 236.14879999999997 341.40940000000006 214.09779999999995 327.95200000000006 200.71879999999996 317.53800000000007 C 214.96479999999997 364.5610000000001 240.80079999999995 426.62800000000004 261.72279999999995 426.62800000000004 C 265.7930999999999 426.62800000000004 268.7930999999999 425.20220000000006 271.14469999999994 422.13970000000006 C 282.05869999999993 407.99170000000004 274.78919999999994 366.1047000000001 270.37907999999993 348.0887000000001 z M 509.39879999999994 204.58300000000008 C 501.1721999999999 196.66500000000008 485.70379999999994 182.92700000000008 463.5747999999999 171.21200000000007 C 439.8517999999999 158.66500000000008 418.4967999999999 152.94200000000006 406.3757999999999 151.07100000000008 C 414.15309999999994 159.4265000000001 422.5207999999999 169.55100000000007 425.99279999999993 178.4770000000001 C 437.3517999999999 207.6760000000001 426.57091999999994 248.9650000000001 410.0747999999999 270.4930000000001 L 410.03964399999995 270.4656560000001 C 403.52014399999996 313.4536560000001 368.58264399999996 347.2386560000001 324.9736439999999 351.74265600000007 C 326.63774399999994 351.81296800000007 328.28224399999993 351.9965660000001 329.9619439999999 351.9965660000001 C 376.2389439999999 351.9965660000001 417.8639439999999 325.5905660000001 438.8119439999999 283.00456600000007 L 439.25725399999993 282.0084760000001 C 441.43695399999996 277.5475760000001 443.14395399999995 272.8131760000001 444.9525539999999 267.8054760000001 C 446.3431539999999 263.9187760000001 447.7533539999999 260.0085760000001 449.4056539999999 256.20347600000014 C 458.3236539999999 235.51947600000014 468.1396539999999 216.25047600000013 490.1006539999999 207.90247600000015 L 490.7569039999999 207.65638600000014 C 491.4912839999999 207.35950600000015 492.2725039999999 207.07044600000015 493.0577039999999 206.83216600000014 C 496.5968039999999 205.71106600000013 502.1007039999999 204.97666600000014 509.39770399999986 204.58216600000014 z M 531.3868 204.3290900000001 C 526.836 193.1650900000001 505.10179999999997 173.3880900000001 471.7658 155.7390900000001 C 429.3908 133.3130900000001 396.7968 129.3760900000001 392.9728 136.5240900000001 C 392.902487 136.6647100000001 392.81655 136.8756500000001 392.75405 137.1373700000001 C 393.61343 138.0123700000001 394.66025 139.0553700000001 395.85175 140.2350700000001 C 396.29706 140.6725700000001 396.83222 141.2155400000001 397.31264999999996 141.6959700000001 C 408.53964999999994 141.2155000000001 436.97664999999995 147.22717000000011 467.67965 163.4659700000001 C 495.21465 178.05197000000013 512.93365 195.6729700000001 519.60965 202.2979700000001 C 520.59012 203.2706300000001 521.25415 203.9502700000001 521.61355 204.2510700000001 C 524.68385 204.2510700000001 527.89475 204.2706010000001 531.3869500000001 204.3291950000001 z M 255.67680000000001 204.2626840000001 C 243.1458 218.6216840000001 236.24280000000002 236.9896840000001 236.24280000000002 256.0086840000001 C 236.24280000000002 272.2316840000001 241.13340000000002 287.74268400000005 250.3838 300.86068400000005 C 251.23146 302.06768400000004 252.5869 302.71618400000006 253.9541 302.71618400000006 C 254.8291 302.71618400000006 255.7041 302.46227400000004 256.47360000000003 301.91149400000006 C 258.45020000000005 300.52089400000006 258.915 297.79039400000005 257.5244 295.82169400000004 C 249.31740000000002 284.18469400000004 244.98540000000003 270.41969400000005 244.98540000000003 256.009694 C 244.98540000000003 239.10369400000002 251.11820000000003 222.77569400000002 262.26640000000003 210.02169400000002 C 263.8602 208.20139400000002 263.6648 205.43579400000002 261.84453 203.84589400000002 C 260.03983 202.275594 257.28593 202.43179400000002 255.67653 204.263864 z M 355.8768 188.6066840000001 C 332.5138 174.64168400000008 303.0608 173.6686840000001 279.2438 185.86058400000007 C 277.0915 186.96218400000006 276.2321 189.6066840000001 277.3376 191.75118400000008 C 278.447 193.90348400000008 281.1071 194.75118400000008 283.2282 193.6573840000001 C 304.41220000000004 182.8173840000001 330.5912 183.7003840000001 351.3802 196.13398400000008 C 352.08723 196.55586400000007 352.8607 196.7472640000001 353.6302 196.7472640000001 C 355.1185 196.7472640000001 356.5716 195.9855440000001 357.3919 194.6222640000001 C 358.6302 192.53636400000008 357.95049 189.84106400000007 355.8763 188.60666400000008 z" stroke-linecap="round" />
</g>
</svg>