<svg xmlns="http://www.w3.org/2000/svg" version="1.1" viewBox="-5.0 -10.0 110.0 135.0">
 <g>
  <path d="m87.43 9.9883c0.375 0.28906 0.75 0.57031 1.0938 0.89062 0.23047 0.20703 0.44922 0.46094 0.70312 0.64062 0.25391 0.17969 0.35938 0.019531 0.52734-0.16406 0.66016-0.71484 1.1602-1.6016 1.5195-2.5039 0.22656-0.57031 1.0547-4.043-0.19141-2.7695-0.23438 0.23828-0.45703 0.49219-0.6875 0.73438-0.44141 0.45312-0.91406 0.87891-1.418 1.2695-0.50391 0.39062-1.0234 0.73828-1.5703 1.0469-0.12109 0.066407-0.53906 0.19531-0.55078 0.37109-0.007813 0.14844 0.36719 0.32812 0.46094 0.40234 0.035156 0.027344 0.070313 0.054688 0.10547 0.082031z"/>
  <path d="m87.473 64.594c-0.33203-0.35156-0.66016-0.70703-0.96875-1.0938-0.63281-0.80859-1.2109-1.6562-1.7422-2.5312-0.52734-0.875-1.0039-1.7891-1.418-2.7305-0.20312-0.46484-0.40234-0.9375-0.55859-1.418-0.55078-1.6602-0.88672-0.71484-1.6172 0.26172-0.41797 0.5625-0.87109 1.1055-1.3516 1.6211-0.99219 1.0586-2.1211 1.9922-3.3711 2.7305-0.25781 0.15625-1.0039 0.41797-1.0977 0.73828-0.13672 0.44531 1.0742 1.1133 1.3828 1.3398 1.25 0.91406 2.5781 1.6875 3.9648 2.375 1.082 0.53516 2.4883 0.72266 3.3867 1.5781 0.77344 0.74609 0.77734 2.0586 0.58203 3.0352-0.23047 1.1484-0.75391 2.2383-1.3672 3.2266-0.5625 0.91406-1.25 2.0938-2.2539 2.5664-0.6875 0.32031-1.1914 0.34766-1.5195 1.0977-0.19922 0.45703-0.42578 1.0117-0.98047 0.64062-0.30469-0.20312-0.76562-1.0703-1.1602-0.79688-0.24219 0.17188-0.32422 0.73047-0.42578 0.98828-0.12109 0.29688-0.26172 0.70703-0.5 0.91406 0.10547-0.35547 0.26172-0.69922 0.39844-1.0469 0.089843-0.22656 0.30859-0.59375 0.21094-0.83203-0.51953 0-1.0703 1.1172-1.2852 1.5156-0.38672 0.71094-0.65625 1.4844-0.82031 2.2734-0.16406 0.78906-0.23047 1.6016-0.1875 2.4062 0.015624 0.28906-0.03125 0.86328 0.17187 1.082 0.24609 0.26953 0.67188 0.050782 0.96094-0.042968 0.76562-0.24219 1.6133-0.50391 2.2539-1.0039 0.57031-0.44531 0.99609-1.0391 1.5352-1.5195 1.0195-0.91406 2.4766-0.82031 3.4883-1.7891 0.86719-0.83984 1.2969-2.0508 1.8633-3.0898 0.84375-1.5547 1.6367-3.1641 2.5664-4.668 0.69531-1.125 1.6094-2.2578 1.918-3.5742s-0.29688-2.3438-1.1133-3.2617c-0.30078-0.34375-0.62109-0.66406-0.92969-0.98828z"/>
  <path d="m57.105 84.418c-0.058594-0.089844-0.11719-0.18359-0.16797-0.27734-0.44531-0.79297-0.71875-1.6641-0.94531-2.5391-0.1875-0.73047-0.29688-1.5117-0.55469-2.2227-0.25781-0.71094-0.78516-1.2344-1.3398-1.7148-2.2422-1.9258-4.6562-3.7539-6.5508-6.0469-0.4375-0.52734-0.86328-1.1211-0.86328-1.8438 0-0.72266 0.48438-1.4141 0.85938-1.9844 0.91406-1.3906 2.0898-2.6094 3.2695-3.7812 0.57031-0.57031 1.1523-1.1289 1.7383-1.6836 0.28906-0.27734 0.62891-0.46094 0.21875-0.76172-0.32031-0.23828-0.84766-0.33984-1.2188-0.5-2.3047-0.97656-4.5078-2.2773-6.9258-2.9531-0.28906-0.078125-0.69531-0.24609-0.98047-0.066406-0.25391 0.16016-0.375 0.58594-0.47266 0.84375-0.15234 0.38672-0.39062 0.77344-0.42188 1.1953-0.058594 0.6875 0.22656 1.3945 0.19922 2.1016-0.03125 0.77344-0.21094 1.5391-0.51562 2.25-0.30078 0.71484-0.6875 1.3203-1.1719 1.8828-0.53516 0.62891-1.2031 1.1523-1.6719 1.8359-0.66406 0.97266-0.39844 1.9375 0.40234 2.7266 0.79687 0.78906 1.7812 1.3086 2.7266 1.8477 1.2148 0.69531 2.4219 1.4336 3.5391 2.2773 1.2578 0.95312 2.4297 2.0469 3.3359 3.3438 0.45312 0.64844 0.78906 1.3438 1.1172 2.0664 0.26953 0.59375 0.53516 1.2188 1.0469 1.6445 0.35547 0.29297 0.85938 0.52734 1.0938 0.94141 0.375 0.64844-0.3125 0.96484-0.65625 1.4258-0.21875 0.28906-0.44531 0.69531-0.51562 1.0508-0.082032 0.42969 0.11719 0.75 0.33203 1.1016 0.44141 0.73438 0.92188 1.4414 1.4609 2.1055 0.48438 0.59766 1.0039 1.1562 1.5703 1.6758 0.27734 0.25391 0.64062 0.66797 0.98438 0.83203 0.44531 0.21094 0.51953-0.16406 0.65234-0.53516 0.26953-0.75 0.53516-1.5 0.78125-2.2578 0.22656-0.71875 0.60937-1.5781 0.47266-2.3516-0.10156-0.58984-0.50391-1.1055-0.82812-1.6172z"/>
  <path d="m26.934 50.516c0-0.23047 0.007812-0.45703 0.019531-0.6875 0.066406-1.6523 0.27344-3.3008 0.71875-4.8945s1.2422-3.0195 2.207-4.4258c-0.37109 0.035157-0.90625 0.74609-1.1523 1.0234-0.44141 0.50781-0.82031 1.0664-1.1445 1.6562s-0.59375 1.2148-0.82031 1.8555c-0.15625 0.44141-0.23438 1.2695-0.52344 1.5977-0.125-0.94531 0.15234-2.0547 0.45703-2.9414 0.17188-0.48828 0.38281-0.96094 0.63281-1.4102 0.19531-0.34766 0.75391-0.91016 0.79688-1.2617-0.66016 0.35547-1.2422 1.0156-1.6992 1.6016-0.23438 0.29688-0.44922 0.61719-0.63672 0.94531-0.0625 0.10938-0.46484 1.0234-0.5625 1.0078-0.011718-0.87109 0.44531-1.8242 0.83984-2.5859 0.35547-0.68359 0.78516-1.3281 1.2891-1.918 1.0625-1.25 2.4297-2.2461 3.9688-2.8242 0.78516-0.29297 1.6094-0.48047 2.4453-0.53906 0.45703-0.035156 0.92188-0.03125 1.3711-0.13672 0.48828-0.11719 0.94531-0.375 1.3945-0.58984 0.44922-0.21484 0.92969-0.43359 1.4141-0.61328 0.30859-0.11328 0.63281-0.17188 0.41797-0.54688-0.19531-0.33984-0.80469-0.64453-1.1289-0.85547-3.5664-2.2852-8.4883-2.5273-12.406-1.0938-1.5938 0.58594-3.0898 1.4414-4.4219 2.4922-0.66406 0.52734-1.293 1.1055-1.8711 1.7305-0.57812 0.625-1.2266 1.293-1.5898 2.0273 0.98047-0.69922 1.8281-1.5781 2.8359-2.2578 0.91797-0.625 1.8906-1.168 2.9102-1.6055 1.0195-0.4375 2.1094-0.76172 3.207-0.96094 1.0977-0.19531 2.5156-0.42969 3.6211-0.19531-0.66406 0.19922-1.4609 0.125-2.1562 0.25391-0.81641 0.15234-1.6172 0.38672-2.3906 0.6875-1.582 0.625-3.043 1.5508-4.3047 2.6914-1.3242 1.1992-2.3906 2.6406-3.4102 4.0977-0.53125 0.75781-1.0586 1.5273-1.6094 2.2695-0.27734 0.37109-0.55859 0.73828-0.85547 1.0938-0.24609 0.29688-0.60547 0.60156-0.79297 0.94141 0.56641-0.12891 1.2422-0.82422 1.7188-1.1797 0.69922-0.52344 1.3906-1.0586 2.0859-1.5859 0.65625-0.5 1.3203-0.98828 2-1.4531 0.55469-0.38281 1.2461-1 1.8945-1.1641-0.55469 0.65234-1.3125 1.168-1.8984 1.8086-0.63672 0.70313-1.2227 1.4492-1.7812 2.2188-1.0898 1.5078-2.0664 3.0938-3.1641 4.5938-1.0938 1.5-2.3594 2.9375-3.8398 4.1016-0.75781 0.59766-1.5781 1.1133-2.4492 1.5352-0.47266 0.22656-0.96094 0.42188-1.4531 0.58594-0.40234 0.13281-0.89844 0.16797-1.2656 0.35938 1.1914 0.24219 2.6602-0.089844 3.8359-0.33984 1.2695-0.27344 2.5078-0.66016 3.6602-1.2656s2.2422-1.3789 3.2148-2.2539c0.45312-0.40625 0.88672-0.84375 1.2969-1.3008 0.35938-0.39844 0.73438-1.0664 1.1523-1.3359-0.89844 1.5977-2.25 3.0547-3.6289 4.25-1.375 1.1992-3.0352 2.2539-4.7852 2.9414-1.7539 0.6875-3.5781 1.0508-5.4414 0.83984-0.91797-0.10547-1.8203-0.33594-2.668-0.69922-0.46484-0.19922-0.91406-0.43359-1.3359-0.71094-0.37891-0.24219-0.73828-0.64453-1.1484-0.82031 0.058594 0.34375 0.42187 0.71875 0.625 0.99609 0.26562 0.37109 0.54297 0.73047 0.83594 1.0742 0.5625 0.66016 1.1836 1.2734 1.8711 1.7969 1.4336 1.0938 3.0742 1.6719 4.875 1.7578 1.7969 0.082031 3.6094-0.24609 5.2812-0.85938 0.77344-0.28516 1.5391-0.63281 2.2383-1.0664 0.27734-0.17188 0.55859-0.48438 0.86719-0.56641-0.25781 0.48828-0.83203 0.90625-1.2578 1.2422-0.55859 0.44141-1.1719 0.81641-1.8125 1.125-0.60547 0.28906-1.2383 0.52344-1.8906 0.70703-0.36328 0.10156-0.73438 0.1875-1.1055 0.25781-0.24219 0.046875-0.61328 0.035156-0.80078 0.19141 0.62109 0.21484 1.5039 0.078125 2.1367 0 0.80469-0.10156 1.5938-0.29688 2.3555-0.58984 0.71484-0.27344 1.3984-0.63281 2.0234-1.0703 0.57422-0.40234 0.98828-0.98828 1.5469-1.3906-0.023438 0.27734-0.28516 0.63281-0.42188 0.875-0.17188 0.3125-0.35938 0.62891-0.54688 0.93359-0.40234 0.64453-0.84375 1.2734-1.3164 1.8711-0.96875 1.2305-2.0742 2.3633-3.2852 3.3516-1.2109 0.98828-2.4727 1.8008-3.8398 2.4805-0.68359 0.33984-1.3867 0.63672-2.1055 0.89453-0.37891 0.13672-0.76172 0.25781-1.1484 0.36719-0.30078 0.085937-0.65625 0.125-0.92188 0.28516 0.47656 0.082031 1.0508-0.035156 1.5312-0.074219 0.52734-0.046875 1.0547-0.10938 1.5781-0.18359 1.0703-0.16016 2.1289-0.38672 3.168-0.68359 1.9492-0.55859 3.8281-1.3789 5.5312-2.4766s3.1836-2.4531 4.4023-4.043c0.62891-0.82031 1.1797-1.6992 1.6484-2.6211 0.24219-0.48047 0.46094-0.96875 0.66016-1.4648 0.16406-0.40234 0.26563-0.94922 0.51563-1.3008-0.078126 1.1484-0.51563 2.332-0.97266 3.3789-0.22266 0.51172-0.48047 1.0078-0.75391 1.4922-0.27734 0.48438-0.70703 0.97656-0.94531 1.4961 0.36328-0.10156 0.71094-0.55859 0.96484-0.83594 0.29297-0.32031 0.5625-0.66797 0.81641-1.0234 0.59375-0.84375 1.1094-1.7461 1.4961-2.7031 0.35547-0.88281 0.59766-1.8047 0.73438-2.7461 0.066407-0.47266 0.11328-0.94531 0.14062-1.4219 0.027344-0.47656-0.058594-1.043 0.03125-1.5234 0.61719 0.875 0.63281 2.418 0.59375 3.4375-0.023437 0.58984-0.09375 1.1758-0.19922 1.7578-0.097657 0.53516-0.33203 1.1016-0.36328 1.6445 0.51953-0.57812 0.83594-1.5352 1.125-2.2461 0.34375-0.84375 0.62109-1.7188 0.80078-2.6094 0.30859-1.5469 0.21875-3.1133 0.23828-4.6758z"/>
  <path d="m94.332 21.203c-0.50781-0.98047-0.84766-2-1.1328-3.0781-0.33594-1.2695-0.78516-2.3711-1.6172-3.4023s-1.6914-2.0859-2.6445-3.0078c-0.77734-0.75-1.7617-1.5273-2.8086-1.8672-0.42969-0.14062-0.73828-0.14062-0.78125 0.37109-0.046875 0.51172 0.12891 1.2344-0.20703 1.6914-0.27734-0.37109-0.015625-1.2031-0.007813-1.6328 0.011719-0.70703-0.09375-1.4141-0.24219-2.1016s-0.37109-1.3594-0.51562-2.0547c-0.28516-1.3711-0.35156-2.2695-1.5039-0.75391-0.41406 0.54687-0.75 1.1445-0.97656 1.793-0.28906 0.81641-0.41406 1.6797-0.41797 2.543 0 0.47266 0.03125 0.95312 0.11328 1.4219 0.039062 0.22266 0.32031 0.86328 0.16406 1.0586-0.51953-0.14062-0.69531-0.1875-1.1719 0.14453-0.52344 0.36328-1.0391 0.75391-1.5391 1.1562-0.89453 0.72656-1.7383 1.5117-2.5312 2.3477-1.5859 1.6719-2.9492 3.543-4.1406 5.5156s-2.293 4.2031-3.2656 6.3867c-0.47266 1.0625-0.94141 2.125-1.3555 3.207-0.26562 0.68359-0.65234 2.0742-1.4141 2.3828-0.078126-0.1875 0.058593-0.41406 0.11719-0.59766 0.097656-0.30469 0.17578-0.625 0.26562-0.93359 0.20312-0.74609 0.42188-1.4844 0.64453-2.2266 0.42969-1.4023 0.89844-2.7969 1.4375-4.1641 1.0195-2.5977 2.2734-5.1289 3.957-7.3711 1.6797-2.2422 3.6523-4.0352 6.0391-5.3516 0.46875-0.26172 0.94531-0.46094 1.4414-0.66406 0.49609-0.20312 0.90625-0.44922 0.81641-1.0625-0.082032-0.5625-0.20313-1.0742-0.22266-1.6523-0.015625-0.49609 0.046875-0.96484-0.55078-1.0469-0.70703-0.097656-1.5547 0.085938-2.2578 0.17969-0.77734 0.10156-1.5508 0.25-2.3125 0.44141-0.70703 0.17578-1.3984 0.40234-2.0938 0.63281-0.60156 0.19531-1.5625 0.39063-1.9961 0.88672 0.28516 0.10547 0.72656-0.12109 1.0078-0.1875 0.51172-0.125 1.0273-0.23828 1.5508-0.30078 0.48437-0.058594 0.96484-0.058594 1.4492-0.011719 0.30078 0.027344 1.0938-0.007812 1.293 0.27734-0.21875 0.30078-1.0234 0.20312-1.3633 0.26172-0.72656 0.12109-1.4414 0.31641-2.1484 0.52344-1.3164 0.38672-2.6055 0.85938-3.9102 1.2891-1.3047 0.42969-2.6875 0.84375-4.082 1.043-0.67578 0.097657-1.3555 0.14453-2.0391 0.12109-0.34375-0.011718-0.69141-0.035156-1.0273-0.089844-0.33594-0.058593-0.69141-0.22266-1.0391-0.17969 0.054688 0.57031 1.4805 1.1953 1.9141 1.3906 0.875 0.39453 1.8125 0.62891 2.7578 0.78125 1.0117 0.16797 2.0352 0.24219 3.0586 0.28906 0.42578 0.019532 0.85938 0.042969 1.2852 0.027344 0.22266-0.007812 0.79297-0.10938 0.92578 0.11719-0.25781 0.35938-0.90625 0.48047-1.293 0.60938-0.54688 0.18359-1.0938 0.35938-1.6602 0.48828-1.2422 0.28125-2.5273 0.38281-3.8008 0.30469-1.1836-0.070313-2.3594-0.29688-3.4805-0.68359-0.55469-0.1875-1.1094-0.41016-1.6289-0.69141-0.44531-0.23828-0.9375-0.74609-1.4453-0.82422-0.125 0.33203 0.78516 1.125 0.98438 1.3359 0.58203 0.60938 1.2383 1.1562 1.9102 1.6602 0.67188 0.50391 1.3789 0.87109 2.1094 1.2461 0.39062 0.19922 1.5547 0.55859 1.7031 1.0078-0.33984 0.23047-1.1836-0.058594-1.582-0.058594-0.82031 0-1.6406 0.089844-2.4453 0.24609-0.73828 0.14062-1.4492 0.35547-2.1719 0.56641-0.44531 0.13281-1.3281 0.23828-1.6133 0.64453 0.63281 0.14062 1.4727-0.23828 2.1094-0.32031 0.88672-0.11719 1.793-0.16797 2.6914-0.125 0.75 0.035156 1.4922 0.14453 2.2305 0.28906 0.55078 0.10938 1.4844 0.20703 1.8516 0.67578-0.22656 0.12109-0.59766-0.015626-0.83594-0.042969-0.32812-0.035157-0.66016-0.054688-0.98828-0.0625-0.78516-0.027344-1.5703 0-2.3555 0.058593-1.4336 0.10547-2.8555 0.3125-4.2812 0.49219-1.4258 0.17578-2.9375 0.33984-4.4141 0.3125-0.72266-0.011719-1.4492-0.058594-2.1602-0.1875s-1.4453-0.5625-2.1445-0.54688c-0.023438 0.38281 0.73438 0.80078 1.0195 0.98828 0.48047 0.31641 0.98047 0.60938 1.4961 0.85547 1.2031 0.57031 2.4883 0.95703 3.7812 1.2539 1.293 0.29688 2.6992 0.53906 4.0547 0.73047 0.72266 0.10156 1.4453 0.16016 2.1719 0.21094 0.30078 0.023437 1.2812-0.054688 1.4453 0.23437-0.31641 0.33203-1.0156 0.35156-1.4492 0.44141-0.66797 0.13672-1.3359 0.24609-2.0156 0.3125-0.67578 0.066406-1.3633 0.10156-2.0469 0.10156-0.58203 0-1.2773-0.17578-1.8398-0.007812 0.36328 0.32812 1.1602 0.28125 1.6211 0.32422 0.79297 0.074218 1.5781 0.16406 2.3711 0.20312 0.79297 0.042969 1.543 0.066407 2.3125 0.078126 0.62109 0.007812 1.6797-0.24609 2.2344 0.066406-0.16797 0.375-0.96484 0.51562-1.332 0.62891-0.60938 0.17969-1.2148 0.34375-1.8438 0.44531-1.3789 0.22656-2.793 0.21094-4.1719 0.019532-1.2617-0.17578-2.5156-0.50391-3.6953-0.98438-0.57031-0.23438-1.1211-0.51953-1.625-0.87891-0.41797-0.29687-0.92969-0.87109-1.4531-0.92187 0.027344 0.39453 0.55859 0.80469 0.8125 1.0859 0.34375 0.375 0.68359 0.74609 1.0508 1.0938 0.80469 0.76562 1.6875 1.4453 2.6367 2.0195 0.89844 0.54297 1.8594 0.99219 2.8555 1.3242 0.52734 0.17578 1.0703 0.32812 1.6172 0.43359 0.38281 0.070312 1.0781-0.011719 1.3672 0.28906-0.070313 0.24609-0.73438 0.29688-0.95312 0.33594-0.44141 0.078125-0.89062 0.12891-1.3359 0.19141-0.81641 0.125-1.5547 0.125-2.3711 0.11719 1.0938 0.64844 2.6992 0.58203 3.9219 0.55078 0.79297-0.019532 1.582-0.070313 2.3711-0.16797 0.35938-0.042969 0.70703-0.10156 1.0586-0.17578 0.26562-0.058594 0.58984-0.1875 0.85938-0.082032-0.070312 0.22656-0.5 0.33984-0.69922 0.43359-0.46094 0.21094-0.92188 0.41016-1.3867 0.60547-0.41406 0.17188-0.82812 0.35156-1.2539 0.49219-0.28125 0.09375-0.67578 0.10938-0.88672 0.32422 0.26172 0.20703 0.77344 0.089844 1.0898 0.082031 0.55078-0.015624 1.0977-0.046874 1.6484-0.12109 0.42188-0.058594 0.85547-0.11719 1.2656-0.23438 0.30078-0.082032 0.86719-0.39844 1.1719-0.24609-0.19922 0.38672-0.86719 0.56641-1.2305 0.73828-0.53906 0.25391-1.0898 0.48828-1.6484 0.6875-1.2344 0.44141-2.5156 0.75-3.8125 0.94141-2.707 0.40234-5.4727 0.28906-8.1719-0.11719-1.2617-0.1875-2.5039-0.48047-3.7734-0.625s-2.6484-0.14062-3.9648-0.007812c-2.4336 0.24219-4.875 0.94141-6.9062 2.3281-1.8477 1.2578-3.2812 3.1211-4.1758 5.1602-1.0352 2.3633-1.1797 4.9492-0.9375 7.4883 0.50391 5.2461 2.4023 10.598 0.46094 15.773-0.45312 1.2109-1.0938 2.2344-1.9141 3.2227-0.70312 0.84766-1.0781 1.7188-0.85547 2.8359 0.20312 1.0234 0.76172 1.9492 1.3047 2.8242 0.625 1.0078 1.1992 2.0078 1.6133 3.125 0.88672 2.3672 1.3477 4.9336 1.7266 7.4297 0.16016 1.0586 0.19531 2.2617 0.69531 3.2305s1.3398 1.0508 2.2773 1.3789c0.33984 0.12109 0.75 0.30078 0.86328 0.67578 0.13672 0.46094-0.25 0.99219-0.20312 1.4883 0.050781 0.52734 0.26172 1.1328 0.62891 1.5273 0.36719 0.39453 0.83984 0.42188 1.332 0.44922 1.25 0.066406 2.5 0 3.75-0.027344 0.44531-0.007813 0.87891-0.003906 1.3242 0.035156 0.23828 0.023438 0.72266 0.10938 0.90625-0.10547 0.23047-0.26562-0.125-0.67188-0.26172-0.90625-0.30078-0.52344-0.60156-1.0469-0.94141-1.5469-0.66797-0.97656-1.4492-1.5625-2.4883-2.0977-0.96484-0.49609-1.9102-1.043-2.5938-1.9023-0.75391-0.95703-1.2031-2.2031-1.6289-3.3281-0.95312-2.5117-1.5898-5.1523-1.9609-7.8125-0.34766-2.5039-0.078125-4.8086 1.1367-7.0586 1.2148-2.2461 2.918-4.0391 4.4453-5.9922 1.5547-1.9922 2.8242-4.1758 3.7812-6.5117 0.23047-0.56641 0.46094-1.1367 0.66797-1.7109 0.16406-0.44531 0.28125-1.1641 0.61719-1.5195 0.039062 0.57031-0.23047 1.2344-0.40625 1.7773-0.10938 0.33984-0.45312 0.9375-0.15234 1.2656 0.26953 0.28906 1.125 0.22266 1.4688 0.28516 0.66406 0.11719 1.3242 0.27344 1.9805 0.44922 2.5742 0.70703 5.0195 1.793 7.5117 2.7383 2.4883 0.94531 4.8789 1.6719 7.4453 2.1719 0.32422 0.0625 0.84375 0.22266 1.125-0.046874 0.30469-0.28906 0.19141-0.98047 0.19141-1.3359-0.003906-0.62109 0.058594-1.2344 0.12109-1.8516 0.050781-0.5-0.027344-1.3008 0.26953-1.7188 0.12891 0.30859 0.042969 0.72266 0.042969 1.0508v1.1367 2.8203c-0.007813 1.7227-0.042969 3.4492-0.14453 5.1719-0.046875 0.78906-0.070313 1.5898-0.20312 2.3672-0.13281 0.77734-0.41797 1.5781-0.66797 2.3555-0.53516 1.6641-0.22656 3.2344-0.28906 4.9375-0.058594 1.7031-0.51563 3.4336-0.92188 5.0742s-1.1367 3.2031-1.3008 4.8672c-0.066406 0.6875 0 1.4062 0.41406 1.9844 0.41406 0.57813 1.1328 0.82813 1.5273 1.4102 0.34375 0.51172 0.11328 1.0352 0.066406 1.5938-0.046875 0.55859 0.019531 1.1484 0.27344 1.625 0.26953 0.50781 0.70703 0.63672 1.2539 0.64844 0.70703 0.011719 1.418-0.066406 2.125-0.066406 0.79297 0 1.582-0.003906 2.375 0 0.3125 0 1.3945 0.19922 1.6367-0.082031 0.24219-0.28516-0.19141-0.78125-0.33594-1.0352-0.36719-0.64453-0.73828-1.2695-1.2539-1.8086-0.92969-0.97656-2.3984-1.4258-3.1328-2.5703-0.73438-1.1445-0.73828-2.7188-0.72656-4.0547 0.011718-1.7227 0.28516-3.4297 0.73437-5.0938 0.40625-1.4883 0.96094-2.9375 1.6719-4.3086 0.32422-0.62891 0.42187-1.1797 0.51953-1.875 0.11328-0.83594 0.28516-1.668 0.49219-2.4805 0.88281-3.4883 2.4922-6.7344 4.1758-9.8906 0.85937-1.6094 1.8438-3.168 2.4883-4.8867 0.29297-0.77734 0.51562-1.5898 0.64844-2.4102 0.16016-0.97266-0.023437-1.9609 0.12109-2.9219 0.35938 0.18359 0.28516 1.6875 0.28125 2.0039-0.011719 1.0898-0.23438 2.1602-0.57422 3.1914-0.29297 0.89844-0.67969 1.7656-1.0977 2.6094-0.20312 0.41016-0.41797 0.82422-0.63672 1.2266-0.19141 0.35547-0.51172 0.75781-0.64453 1.1406-0.27344 0.77344 1.0781 0.039063 1.2969-0.066406 0.91406-0.43359 1.7891-0.90234 2.625-1.4727 1.5273-1.0508 2.8945-2.3477 3.9922-3.8438 1.0977-1.4961 1.9688-3.2812 2.3633-5.1406 0.42578-2.0234 0.25391-4.1016-0.046875-6.1367-0.29688-2.0312-0.70703-4.0781-0.8125-6.1484-0.10547-2.0703 0.089844-4.3242 0.40234-6.4453 0.17578-1.207 0.37891-2.4414 0.75-3.6094 0.125-0.38672 0.41016-0.82422 0.33203-1.2422-0.0625-0.34766-0.38281-0.51563-0.64844-0.69531-0.83203-0.5625-1.5195-1.3359-2.0039-2.2188-0.35938-0.65234-1.0234-1.9336-0.72656-2.6953 0.38281 0.35938 0.37109 1.1875 0.58203 1.6602 0.25781 0.57031 0.67188 1.082 1.1328 1.4961 0.95703 0.85938 2.1992 1.3438 3.4766 1.3984 1.4414 0.058594 2.6758 0.29297 3.9727 0.96484 1.0156 0.52344 2.1055 1.0859 2.9922 1.8125 0.40234 0.33203 0.78125 0.72656 1.0039 1.2109 0.22266 0.48438 0.26953 1.0742 0.48828 1.582 0.34766 0.80469 1.0625 1.0586 1.8555 1.2422 0.41016 0.09375 1.6836 0.31641 1.3711-0.51562-0.16016-0.42188-0.70703-0.69922-1.0391-0.96484-0.45312-0.36328-1.0703-0.87891-1.2305-1.457 0.28125-0.046875 0.92969 0.78516 1.1094 0.95312 0.46094 0.42188 0.94922 0.85938 1.5195 1.1328 1.168 0.55859 1.8125-0.26172 1.9062-1.3672 0.054687-0.63672 0.085937-1.2148 0.28516-1.832 0.21484-0.67578 0.10156-1.0547-0.32422-1.6016-0.79297-1.0156-1.6211-2.0078-2.4492-3-0.87109-1.0508-1.7344-2.1211-2.4453-3.2852-0.125-0.20312-0.23828-0.40625-0.34375-0.61328zm-4.793-1.5977s-0.023437-0.007813-0.035156-0.011719c-0.4375-0.12109-0.89453-0.23438-1.3086-0.42969-0.27344-0.13281-1.0078-0.57031-0.79687-0.94531 0.09375-0.16797 0.28125-0.30859 0.41797-0.43359 0.65625-0.57422 1.3281 0.24219 1.6406 0.79297 0.12109 0.21094 0.22266 0.42969 0.33203 0.64453 0.078126 0.15625 0.24219 0.34375 0.28125 0.50781-0.16016 0.035156-0.375-0.070313-0.53516-0.125zm8.5234 8.5898c0.42188-0.28906 0.86328 0.85547 0.92969 1.1406 0.058593 0.25391 0.089843 0.51953 0.085937 0.77734 0 0.15234 0.007813 0.42578-0.10156 0.54688-0.097656-0.058594-0.10156-0.24219-0.11719-0.34375-0.019531-0.14062-0.046875-0.27734-0.066406-0.41406-0.054688-0.29297-0.10547-0.60547-0.26172-0.86328-0.078125-0.12891-0.17969-0.24219-0.31641-0.31641-0.058594-0.035156-0.12109-0.058594-0.1875-0.058594-0.050782 0-0.12891 0.039063-0.17188 0.011719-0.10938-0.058593 0.03125-0.26953 0.074219-0.33594 0.046874-0.066406 0.089843-0.11328 0.13672-0.14453z"/>
 </g>
</svg>