<svg xmlns="http://www.w3.org/2000/svg" version="1.1" viewBox="-5.0 -10.0 110.0 135.0">
 <path d="m63.23 14.016c0.34766-0.27344 0.67578-0.55469 1.0039-0.85156 1.7344-1.8398 2.9883-3.5156 0.69922-5.5547-0.59375-0.51562-2.2734-1.7734-3.0781-1.6875-2.0859 1.1719-1.0391 4.457-0.21875 6.1445 0.42578 0.80469 0.91016 1.3555 1.5977 1.9453z"/>
 <path d="m67.426 31.469c0.078125 0.011719 0.046875 0.023438 0.097657-0.007812 0.023437-0.042969 0.046874-0.074219 0.058593-0.12109 0.089844-0.40625 0.16797-0.80859 0.21094-1.2227-0.39844-0.027344-0.78516-0.035157-1.1836-0.007813 0.19141 0.50391 0.375 1.0195 0.81641 1.3594z"/>
 <path d="m71.023 62.781c0.37109 4.9414-0.33594 9.918 0.3125 14.84l0.0625-0.003906c0.38672-2.2695 0.42578-4.6094 0.51172-6.9102-0.042968-2.6992 0.015625-5.4609 0.43359-8.1055-0.4375-0.035156-0.87891 0.16016-1.3203 0.17969z"/>
 <path d="m84.82 35.371c-0.71094 0.81641-1.4062 1.4414-2.4375 1.8203-0.39062 3.4961-4.543 4.4922-7.4766 3.8242-2.1094-0.36328-3.8359-1.8242-3.8242-4.0859-0.83594-0.24219-1.543-0.60938-2.1367-1.2617-1.3594 0.625-2.6523 1.3008-3.8359 2.2305 1.0195-1.2461 2.1445-1.7344 3.4219-2.6016-0.30078-0.37109-0.58203-0.75391-0.82031-1.168-1.5352 0.26172-3.0469 0.60938-4.4219 1.3633 1.0977-1.0508 2.8047-1.4648 4.2578-1.7148-0.16406-0.42969-0.3125-0.96484-0.58594-1.332-1.3281-0.03125-2.7422-0.03125-4.0469 0.23438-0.20703 0.042968-1.1914 0.40234-1.3164 0.35156 1.5547-0.95312 3.457-0.95703 5.2305-1.0469-0.79688-0.53516-1.4219-1.0547-2.0547-1.7812-1.3594 0.12891-2.5977 0.37891-3.8906 0.80859 1.1484-0.65625 2.3477-0.9375 3.6367-1.1719-2.7148-2.9023-2.3516-7.0664-2.2852-10.707-4.1875 5.5-8.293 12.07-7.3828 19.281 0.28906 3.4297 2.2461 6.4844 1.8516 9.9609-0.046875 5.3281 3.0586 9.9023 4.3281 14.938 0.31641 1.4844-0.085938 3.25-0.0625 4.7812 0.019531 1.2734 0.42969 2.6445 0.78125 3.8672 0.12891 0.44922 0.21875 1.1602 0.48438 1.5352 1.2266-0.082032 1.5977 1.6797 0.68359 2.3359 1.0312 3.4648 2.918 9.6953 1.0664 13.074-0.74219 1.3555-2.2812 3.2891-1.8438 4.9219 0.13281 0.46875 0.52344 1.0508 1.0586 1.0312 0.011719-0.003906 0.023437-0.011719 0.035156-0.015625-0.21094-1.4492 0.0625-3.2852 1.3867-4.168-0.83203 1.4648-1.293 3.8359 0.39062 4.8867 0.46484 0.26172 1.2227 0.33594 1.5195-0.19531 0.48047-0.98828-0.30078-3.418 0.64844-4.5742l0.066406-0.007813c0.019531 1.2031-0.27344 3.9727 0.66797 4.8359 0.67188 0.37891 1.5234-0.097656 1.8477-0.73047 0.82812-1.457-0.16797-3.8008 0.085937-4.293 0.10547 0.003906 0.10938 0.011719 0.17969 0.085938 0.95312 1.1445 1.1211 3.125 0.64844 4.5 4.3125-0.14062-0.054687-6.6875 0.53906-8.7227l0.078125-0.0625c0.33984 0.15234 0.46484 0.58594 0.5625 0.91797 0.52734-1.6719-0.43359-3.418-0.85547-5.0586-0.64453-2.4648-1.0195-4.9961-1.1172-7.543-0.17187-4.4609 0.38672-8.9688-0.26953-13.402-0.18359-0.87891-0.68359-1.6602-1.2695-2.3242-0.27344-0.30859-1.1055-0.89062-1.1523-1.2852l0.050782-0.074219c1.3594 0.42188 3.1289 2.3867 3.5078 3.875 3.1953-0.875 6.3867-1.7148 8.4375-4.5625 0.43359-0.53125 2.0469-2.9062 2.4023-3.1094l0.042968 0.035157c-1.5469 3.3477-4.1406 6.6797-7.75 7.9297-0.56641 1.4297-0.69531 3.2539-0.68359 4.7891 1.5625-1.0664 1.8828 1.293 0.98828 2.1719-0.35547 0.34766-0.54297 0.41016-1.0352 0.42188 0.054687 4.1758-0.52734 8.3164-1.1328 12.43-0.011719 0.5625 0.19141 1.0938 0.38672 1.6133 0.69922 1.875 1.2461 3.3164 0.19141 5.2148 0.45703 1.5625 0.9375 3.0703 1.2695 4.6641 4.5547 2.7461 5.4922-1.1094 2.293-4.0117 2.0859 0.42578 3.4609 2.8477 2.5352 4.8203 1.0469 0.39453 1.9336-0.14062 2.1406-1.2305 0.39062-1.6094-0.80859-2.9297-1.8789-3.9609 2.1133 0.21484 3.4961 2.6953 2.6328 4.6211l0.011718 0.074218c0.10938 0.058594 0.10547 0.054688 0.22266 0.023438 1.0547-1.2344 0.57422-3.2031-0.45312-4.3164-0.45312-0.49219-0.99219-0.89844-1.4688-1.3633-1.3984-1.3672-1.8438-2.9766-1.7773-4.8945 0.14453-4.1797 1.8477-9.5547 3.1016-13.586 0.48438-1.5586 1.0547-3.1367 1.3906-4.7383 0.55859-2.6641 0.035156-4.8516 0.97656-7.6406 1.2148-3.1406 3.293-5.8828 4.2734-9.1406-1.4258-0.96484-0.54297-3.4375 0.89453-3.9492 0.25391-1.7852 0.38672-4.2773 0.16406-6.0781-0.9375-1.0938-2.7773-1.9219-4.1172-2.3594zm-20.766 20.254c1.7109-0.10156 1.9766 2.9648 0.50391 3.5-0.39453 0.125-0.82422-0.042969-1.0391-0.39453-0.55859-0.94531-0.52344-2.5234 0.53516-3.1055zm1.4297-5.9023c0.66797-0.10938 1.125 0.59375 1.3516 1.1289 0.43359 0.93359 0.54687 2.2266-0.66797 2.5547-0.14062 0.027344-0.29297 0.042969-0.43359 0.023438-1.6445-0.32813-1.4453-2.9336-0.25-3.7031zm-4.4766-12.516c1.3984-0.25 1.5664 1.9062 0.58984 2.5117-0.30078 0.125-0.66016 0.046875-0.86328-0.21484-0.46484-0.66406-0.41016-1.7969 0.27344-2.2969zm-1.0508-11.195c0.51953-0.14062 0.72266 0.53516 0.79297 0.92578 0.15625 0.92969 0.21094 2.6641-1.0195 2.8242-1.4844-0.64844-1.0156-3.0703 0.22656-3.75zm-1.6914 5.8828c1.5625 0.25 1.9375 4.5586 0.09375 4.6211-0.83203-0.24609-1.2852-1.1484-1.3867-1.957-0.11328-1.0234 0.30469-2.2188 1.293-2.6602zm-0.94141 7.6055c1.2461-0.085938 2.0039 2.4844 0.84375 3.0625-1.3047 0.12109-1.9766-2.4727-0.84375-3.0625zm0.91797 6.6367c1.2969-0.15234 2.1094 2.1719 1.0664 2.9102-1.3086 0.30078-2.0195-2.2148-1.0664-2.9102zm2.2227 9.5352c-1.6133 0.35547-2.6289-3.375-1.2695-4.1055 0.12109-0.003906 0.25-0.003906 0.37109 0.023438 1.3438 0.45312 2.2773 3.2188 0.89844 4.0781zm1.2031-12.215c1.5273 0.027344 2.7266 3.7109 0.90234 4.1094-0.18359 0.023438-0.37891 0.023438-0.55859-0.027344-1.4883-0.47656-1.8086-3.4102-0.33984-4.082zm0.70312 17.418c1.6992 0.25 1.957 3.0508 0.44141 3.7344-1.7148 0.16016-1.9844-3.3398-0.44141-3.7344zm1.3711 10.082c-1.7148 0.011719-1.9062-2.7422-0.46484-3.3555 0.14453-0.007812 0.26562-0.011718 0.39844 0.046876 1.2578 0.54297 1.6016 2.9102 0.066407 3.3086zm1.9414 2.2656c1.5273 0.03125 1.9219 2.6172 0.46484 3.0859-1.5039 0.097656-1.9727-2.7617-0.46484-3.0859zm1.5078 9.2266c-1.2109 0.16797-1.793-1.8984-0.69141-2.4141 0.125-0.003906 0.25391-0.003906 0.37109 0.03125 0.92578 0.30078 1.2734 1.9102 0.32031 2.3828zm2.1328-5.7656c0.19141 0.72656 0.51953 2.2031-0.52734 2.3867-0.13281-0.050781-0.25391-0.10156-0.35938-0.20312-0.72266-0.85156-0.26562-2.2461 0.45703-2.957 0.26172 0.12109 0.35547 0.51562 0.42578 0.77344zm-1.1836-5.2656c-1.0938-0.15625-1.7422-2.0273-0.44141-2.3906 1.2188-0.13281 1.6445 2.1328 0.44141 2.3906zm-0.91016-5.0547c-1.7148 0.23047-1.957-2.707-0.55469-3.2773 1.5547-0.14453 2.0664 2.8359 0.55469 3.2773zm-0.44531-22.75c-1.9922 0.51562-2.625-3.4141-1.2539-4.3906 0.050781 0.007813 0.10547 0.019532 0.15625 0.03125 1.707 0.47656 2.7812 3.2578 1.0977 4.3594zm3.3711 11.898c-1.0078 0.27344-2.5703-1.7852-1.5-2.4258 0.089844-0.007813 0.18359-0.015626 0.27344-0.003907 0.79687 0.10547 2.1992 1.8242 1.2266 2.4297zm-0.10547-5.707c-1.7344-0.058594-2.543-3.0195-0.87109-3.7578 0.14062-0.011719 0.27344-0.011719 0.40625 0.035156 1.3398 0.50391 2.043 3.1016 0.46875 3.7188zm0.90234-7.8711c0.51562-0.058594 0.76172 0.51172 1.1211 0.77734 0.65625 0.59766 3.0352 1.6211 1.7617 2.6523-0.074219 0.019531-0.15234 0.035157-0.23047 0.046875-1.4375 0.19531-3.6406-2.1328-2.6523-3.4766zm1.1914 7.8828c0.92969-0.066406 1.7812 1.1133 1.625 1.9883-0.0625 0.26172-0.20703 0.42969-0.43359 0.56641-1.2617 0.20703-2.1367-1.7188-1.1914-2.5547zm3.0742 8.4609c-1.3945 0.050781-2.4375-2.1914-0.98828-2.8828 0.18359-0.011719 0.35547-0.019531 0.53516 0.027344 1.1289 0.30469 1.668 2.3281 0.45312 2.8555zm3.7656-5.9727c-1.7344-0.62891 0.46484-2.6211 1.1602-3.2539 0.074219 0.023438 0.14062 0.042969 0.20312 0.089844 0.94922 0.91016-0.14062 3.0781-1.3633 3.1602zm0.007813-6.8867c-0.30078-0.035157-0.68359-0.20703-0.65234-0.57031 0.058594-0.77344 1.2383-1.4414 1.7891-1.8867 0.35156-0.28516 0.6875-0.59375 1.0195-0.90234 0.25391-0.035156 0.51953 0.066406 0.58203 0.33594 0.37109 1.5312-1.5 2.6484-2.7422 3.0195zm-2.1953 16.664c1.7812 0.085938 0.98828 2.5781-0.25391 2.9141-0.20312 0.015625-0.39453-0.035156-0.56641-0.14453-0.95703-0.73437-0.40234-2.6797 0.82031-2.7656zm-1.8125 8.8359c1.7109-0.0625 1.2812 2.3125 0.097656 2.793-0.19922 0.019531-0.39062 0.019531-0.57812-0.0625-1.0352-0.55859-0.57031-2.4453 0.48047-2.7344zm-0.33594 8.0234c-1.6172 0.11328-1.3281-2.3398-0.10156-2.7266 0.40234-0.050782 0.83984 0.10938 1.0117 0.49609 0.31641 0.81641-0.11328 1.8711-0.91406 2.2305zm1.9023 3.7109c-1.2539-0.16406-1.1289-2.0898-0.011719-2.3867 0.16016-0.003906 0.33203-0.011719 0.47656 0.0625 0.8125 0.49219 0.44141 2.1406-0.46484 2.3242zm1.6523-5.957c-1.3594 0.19141-1.25-2.1055-0.14062-2.3711 0.31641-0.023438 0.66016 0.070312 0.83984 0.35156 0.41406 0.69922 0.074218 1.7305-0.69922 2.0195zm0.24219-5.8477c-1.3242 0.20312-1.7383-2.0664-0.58203-2.5508 0.15234-0.019531 0.30078-0.039063 0.45312-0.003906 1.0859 0.30859 1.0977 2.0859 0.12891 2.5547zm1.7383-5.6602c-1.5938-0.84375 0.070312-2.8711 1.2617-3.2109 0.12109-0.007812 0.25391-0.019531 0.35938 0.054688 0.16406 0.11719 0.21094 0.33203 0.21875 0.51953-0.019532 1.0391-0.63672 2.5742-1.8398 2.6328zm0.78516-6.0352c-1.4609-0.71484 0.36328-2.4844 1.1367-3.0234 0.10547 0.007813 0.23047 0.011719 0.31641 0.082032 0.63672 0.71875-0.48047 2.9609-1.4531 2.9414zm2.9062-13.66c1.8477-0.035157 0.51562 3.2656-0.78125 3.2539-1.9492-0.45312-0.49219-2.875 0.78125-3.2539zm-0.25391 7.4648c-1.7656-0.1875-0.46484-2.293 0.53516-2.6719 0.16797-0.015625 0.32422-0.039062 0.48438 0.027344 0.89062 0.52344-0.20703 2.4922-1.0195 2.6445zm2.6953-11.578c-1.8164-0.37109-0.8125-2.9727 0.47656-3.543 0.13281 0.003906 0.23047 0.019531 0.34375 0.10156 0.95312 0.82812 0.62891 3.3438-0.82031 3.4375z"/>
 <path d="m76.734 32.742c0.078125 0.007812 0.097656 0.007812 0.17969-0.019532 0.60938-0.28516 1.0156-0.65625 1.3789-1.2188-0.10547-0.67578 0.45312-1.3672 1.125-0.90625 0.17969-0.22266 0.375-0.44531 0.52734-0.6875-1.0156-0.52734-2.0352-0.73438-3.1836-0.65625-1.0391 0.046875-2.0703 0.26562-3.043 0.64453 0.20312 0.21484 0.58594 0.70703 0.90234 0.70703 0.24219 0 0.58594-0.14062 0.77344 0.074219 0.20312 0.23437 0.15234 0.66406 0.10938 0.94531 0.33594 0.4375 0.78906 0.78516 1.2266 1.1172z"/>
 <path d="m45.68 81.246c-2.0312-2.3203-3.4883-8.7227-2.7969-11.746 0.28906-1.2656 1.1016-2.3984 1.6914-3.5391-0.53125-0.1875-0.60156-0.80859-0.32812-1.2422 0.21484-0.42969 0.78906-0.88281 1.1758-0.375 0.28906-0.25391 0.89844-1.6172 0.98438-2.0078l-0.039062-0.058594c-0.83984 0.17969-1.2266-1.1484-0.6875-1.668 0.48828-0.48828 1.1367 0.17969 1.1836 0.70703 0.50391-1.1562 0.92969-2.3242 1.3789-3.5-1.6172-1.0547-3.0781-2.3633-4.3945-3.7695-0.57812 2.2617-0.88281 4.6055-1.5859 6.8398-0.62891 2.4727-1.9453 4.7461-2.5391 7.2109-0.32812 2.1406 0.42969 4.2734 0.94141 6.3242 0.64844 2.3828 1.3242 4.9258 2.4883 7.1172 0.93359 1.7539 2.8984 2.1211 3.3477 3.957 0.13281 0.55078-0.015625 1.0859 0.066406 1.5781 0.015625 0.10156 0.046875 0.125 0.12109 0.1875 0.60547-0.13281 0.65625-0.92578 0.64844-1.4336-0.011719-0.83984-0.23828-1.7891-0.85156-2.4023-0.33984-0.33984-0.85156-0.48047-1.1836-0.82031l0.003907-0.070313c1.3047-0.10938 2.5586 1 2.9023 2.2227 0.24219 0.6875 0.089844 1.3984 0.16016 2.0977 1.168-0.015625 0.62891-2.5312 0.20703-3.1406-0.73047-1.082-2.0977-1.4336-2.9023-2.4609zm-2.2188-23.328c0.082031 0.011719 0.17187 0.023437 0.25 0.050781 0.67578 0.27344 0.91797 1.4844 0.17187 1.8242-0.83594-0.082031-1.3047-1.5117-0.42578-1.875zm-0.96094 4.2383c0.082031 0 0.16406-0.003906 0.24609 0.007812 0.875 0.25781 1 1.7891 0.19531 2.2148-0.98828-0.054687-1.3203-1.7695-0.4375-2.2227zm-1.1094 4.0469c0.6875 0.042969 0.90234 0.89062 0.68359 1.4453-0.10156 0.27344-0.22266 0.41016-0.48828 0.52734-0.94141-0.14844-0.99609-1.582-0.19531-1.9727zm0.69141 5.5c-0.89844 0.074219-1.3242-1.4375-0.46094-1.8047 0.0625-0.003907 0.12109-0.007813 0.18359-0.007813 0.89844 0.066406 0.90234 1.3711 0.27734 1.8125z"/>
 <path d="m85.086 35c0.86719 0.28906 3.2227 1.4336 3.6328 2.2188l-0.039062 0.10156 0.13672 0.035157c0.16406-0.27344-0.082031-1.5156-0.13672-1.8828-1.1094-0.4375-2.207-0.85156-3.3477-1.1953-0.078125 0.24219-0.15234 0.48438-0.24609 0.71875z"/>
 <path d="m87.465 30.156c-0.56641-0.003906-1.1289-0.007812-1.6953 0.019531l-0.15625 0.035157c-0.12891 0.27344 0.17188 1.0156 0.21094 1.3477 0.14453 0.066406 0.29297 0.12891 0.42969 0.20703 0.48047-0.47656 0.8125-1.0664 1.2109-1.6055z"/>
 <path d="m87.477 34.531 1.0742 0.46875c-0.12891-0.84766-0.34375-1.6641-0.59766-2.4805-0.26562-0.039062-0.53516-0.097656-0.80469-0.12109-0.55078 0.52344-1.0781 1.0234-1.7109 1.457 0.68359 0.21094 1.3711 0.40625 2.0352 0.67969z"/>
 <path d="m72.109 37.074c-0.03125 2.3398 2.6367 3.1719 4.5703 3.2344 1.2812-0.074219 2.9883-0.45703 3.8828-1.4531 0.29688-0.35156 0.82031-1.1289 0.64453-1.6055-0.70312-0.11328-1.4258-0.21484-2.0898-0.46484-0.52734-0.19922-1.8477-0.94531-2.3086-0.91797l-0.0625 0.019531c-1.4883 0.63672-2.9766 1.2812-4.6328 1.1914z"/>
 <path d="m56.285 45.988c-0.69922-2.7812-1.7188-5.5391-1.7422-8.4531-0.16797-5.5508 1.7891-11.32 4.8633-15.898-5.4453 1.4688-10.934-1.3281-16.359-1.457-10.355 0.27344-18.316 9.9297-17.867 20.047 0.32031 8.375 5.2578 15.613 7.2031 23.582 0.28125 1.2539 0.60156 2.7305 0.34375 4.0039-0.29687 1.4648-1.5469 2.0742-1.0898 3.8438 0.49219 1.6758 1.6133 3.1602 2.1445 4.8359 0.93359 2.5078 1.6875 5.0859 2.3945 7.668 0.49219 1.4531 0.44922 3.2891 1.5469 4.4414 1.4531 1.2695 3.2773 0.58203 2.9453-1.4102-0.054688-0.66797-0.38281-1.2852-0.6875-1.8555-0.03125-0.10938-0.023438-0.12891 0.03125-0.22266 1.2266 0.25 1.9609 2.9297 1.2539 3.9062 0.73438 0.23438 1.8242 0.1875 2.0352-0.72656 0.25391-1.082 0.046875-2.5352-0.80469-3.3164-0.21875-0.17578-1.2891-0.66406-1.2852-0.83594 1.25-0.15234 2.5898 0.85938 3.0078 2.0234 0.26953 0.77344 0.22266 1.668 0.035156 2.4531 1.3828-0.26953 1.457-1.9883 1.0703-3.0742-0.31641-0.85156-1.1445-1.2461-1.8047-1.7891-1.7227-1.4062-2.1445-3.6523-2.9258-5.6094-0.86719-3.4023-2.7227-7.3242-1.8516-10.867 0.70703-2.0703 1.6641-4.0547 2.2812-6.1602 0.8125-2.6445 1.1992-5.3867 2.0234-8.0273-1.957-3.0938-3.6758-6.4297-4.9258-9.8828 2.3125 3.6172 4.2422 7.5859 7.2617 10.707 2.8516 2.9492 7.3867 5.0938 11.402 5.7852 0.63281 0.10938 1.2695 0.18359 1.9102 0.22266-0.98437-2.6328-2.1211-5.2383-2.418-8.0664-0.35938-1.9492 0.007812-3.918 0.003906-5.8633zm-2.1719-23.059c2.6719-0.13281 0.87891 2.3828-0.47266 2.918-0.35156 0.070313-0.66016 0.097656-0.98438-0.097656-1.1797-0.98438 0.24609-2.7148 1.457-2.8203zm-2.5781 10.82c2.1289-0.03125 1.418 4.0234-0.09375 4.5625-0.14453 0.03125-0.28516 0.046875-0.42969 0-1.5508-0.70703-0.90234-3.9883 0.52344-4.5586zm-2.1992-1.9102c-1.4648-0.003906-1.707-1.9414-1.0586-2.9492 0.28906-0.51562 0.68359-0.875 1.2578-1.0391 2.1562 0.089844 1.5312 3.6055-0.19922 3.9883zm-1.1797-8.9102c2.6094-0.17188 1.0703 3.1133-0.73438 2.9961-0.17969-0.035156-0.36719-0.070312-0.53516-0.14844-2.0078-1.0039-0.21875-2.6367 1.2695-2.8477zm-1.4609 11.969c0.38281 1.1484-0.089843 2.6914-1.3867 2.9492-1.3242 0.023438-1.543-1.6836-1.0898-2.6328 0.26562-0.625 0.71484-1.0742 1.3398-1.332 0.59375-0.050781 0.99219 0.5 1.1367 1.0156zm-3.4922-2.9531c-2.2578-0.23437-1.0938-3.7461 0.50391-4.2305 2.3164-0.027344 1.0977 3.9062-0.50391 4.2305zm-2.3555-10.172c0.33594-0.48047 1.0117-0.63281 1.5586-0.72656 2.4844-0.31641 3.0117 1.7344 0.375 2.1445-0.55469 0.070313-1.207 0.089844-1.6914-0.23438-0.40234-0.24219-0.53516-0.80469-0.24219-1.1836zm-0.60156 2.9531c2.4297-0.09375 0.93359 2.6211-0.59375 2.8008-0.33203 0.007812-0.67188-0.023438-0.96094-0.20312-1.1602-0.96094 0.42188-2.5586 1.5508-2.5977zm-4.1016 9.0586c-1.375-0.023437-1.4023-1.7266-0.91016-2.6602 0.3125-0.69531 0.79297-1.2891 1.5195-1.5703 2.2969 0.035156 1.0352 3.9609-0.60938 4.2305zm-2.1758 13.016c-1.9922-0.11719-2.2148-3.6914-0.33984-4.207 0.19141-0.003906 0.38672 0.03125 0.55469 0.125 1.3203 0.83203 1.5234 3.6289-0.21484 4.082zm-0.41016-21.348c0.48047-0.79297 1.2578-1.4297 2.1641-1.6523 2.4844-0.20312-0.070312 4.0586-1.4961 3.9297-0.17969-0.011719-0.33984-0.046875-0.5-0.12891-0.89453-0.375-0.58203-1.5117-0.16797-2.1484zm-2.8906 3.8359c1.8828 0.35938 0.29688 4.25-1.1836 4.3125-0.12109-0.027343-0.25-0.054687-0.35938-0.11328-1.4102-0.97656 0.11328-3.9688 1.543-4.1992zm-2.5391 7.6016c1.4805 0.12891 1.4023 2.1562 0.91406 3.168-0.23828 0.53906-0.55859 0.91016-1.1133 1.1211-1.9297-0.12109-1.5469-4.0586 0.19922-4.2891zm0.70312 6.4844c1.6016-0.058594 1.5352 2.293 1.0625 3.332-0.22266 0.5-0.49219 0.78516-1.0039 0.98047-1.9766-0.12109-1.7383-3.832-0.058594-4.3125zm2.6328 10.066c-1.5312 0.44141-3.1562-2.6211-1.5508-3.3867 0.14453-0.007813 0.28906-0.015626 0.42969 0.019531 1.2773 0.31641 2.6055 2.5156 1.1211 3.3672zm1.1484-18.27c1.7344 0.15625 1.9961 3.7578 0.39844 4.2969-1.8203-0.12891-2.0312-3.7188-0.39844-4.2969zm0.63281 19.719c2.0078-0.19531 2.8008 3.8125 0.94141 4.5-2.0781 0.22266-2.7344-3.707-0.94141-4.5zm1.2852 9.7383c-1.1055 0.089844-1.3906-1.7891-0.51172-2.2812 0.09375-0.003906 0.18359-0.007812 0.27344 0.003906 0.94141 0.22656 1.0938 1.8477 0.23438 2.2773zm-0.65234 6.2344c-0.95703 0.15625-1.1719-1.4922-0.46875-1.9258 0.26562-0.027344 0.51562 0.035156 0.6875 0.25 0.39062 0.49219 0.28516 1.3008-0.22266 1.6758zm1.1641 3.7773c-0.96875 0.14062-1.3516-1.5742-0.51953-1.9766 0.074218 0 0.078124-0.003906 0.16016 0.003907 0.95312 0.09375 1.1211 1.5039 0.35938 1.9727zm1.0469-4.6953c0.69922-0.035156 1.0273 0.79688 0.83594 1.3828-0.089843 0.3125-0.23828 0.48047-0.51562 0.63672-0.9375-0.066406-1.207-1.6719-0.32031-2.0195zm1.25-5.8477c1.3008-0.039062 1.1953 1.9258 0.21094 2.3438-0.10938 0.003906-0.20312 0.007813-0.30859-0.019531-0.9375-0.375-0.81641-1.9844 0.097656-2.3242zm0.32422 14.84c-1.2812 0.027344-1.6133-1.918-0.5-2.4492 0.12109-0.019531 0.23438-0.027343 0.35547 0.003907 0.99219 0.30859 1.1211 2.0312 0.14453 2.4453zm1.0586-3.6953c-0.65625-0.082032-1.0156-0.96875-0.72656-1.5273 0.10547-0.1875 0.25781-0.24609 0.45312-0.30859 0.87109 0.085938 1.0625 1.4922 0.26953 1.8359zm-0.71875-12.984c-1.3828-0.042968-1.5781-2.3086-0.33984-2.7656 0.15625-0.007813 0.32031-0.003907 0.46875 0.058593 1.0039 0.48047 0.98047 2.3672-0.12891 2.707zm1.0977-5.7617c-1.0234-0.015625-1.4766-1.3477-1.1641-2.1914 0.125-0.33984 0.3125-0.51563 0.63672-0.65625 1.4023-0.15234 1.8594 2.4766 0.52734 2.8516zm-1.7656-5.0273c-1.7617 0.22656-2.0703-2.8594-0.58984-3.4375 0.18359-0.027344 0.36719-0.03125 0.54688 0.023438 1.3711 0.48828 1.3828 2.8672 0.042969 3.4102zm0.96094-9.5625c-1.3594-0.125-1.8164-2.793-0.44922-3.2305 0.14453 0.019531 0.28516 0.046875 0.41797 0.11328 1.0469 0.57031 1.3281 2.6836 0.03125 3.1172zm2.0156-3.9805c-2.1055 0.16016-1.7969-3.3828-0.29297-4.0391 1.4258-0.16406 1.7539 1.6914 1.3594 2.7344-0.19531 0.58984-0.50391 1.0234-1.0664 1.3047zm1.8125 9.5078c-1.3203-0.082032-1.918-2.4297-0.64453-3 0.15234-0.003906 0.29688 0.003906 0.4375 0.066406 0.91016 0.46094 1.375 2.5312 0.20703 2.9336zm2.4062-3.2266c-1.832 0.10547-2.7422-3.1523-1.0586-3.9609 0.79688-0.14062 1.3594 0.62109 1.6172 1.2812 0.34766 0.84766 0.51562 2.3047-0.55469 2.6797zm2.2969 7.4648c-1.5391-0.16016-2.4688-3.1133-0.82422-3.7422 0.17188 0.019531 0.32422 0.042968 0.48047 0.11719 1.0664 0.52734 1.8906 3.25 0.34375 3.625zm2.2383-6.3594c-1.8789-0.26562-2.2539-3.6953-0.58594-4.4727 0.19531-0.003906 0.37109 0.007812 0.55078 0.097656 1.2344 0.6875 1.6992 3.9492 0.039062 4.3711zm3.1914 9.5273c-1.7305 0.36719-2.6562-3.207-1.2109-3.9609 0.085937 0.007813 0.17188 0.019532 0.25781 0.035156 1.4688 0.41406 2.4062 2.9805 0.95312 3.9258zm1.3672-4.5625c-1.7031 0.21484-2.4766-3.6836-0.89453-4.1406 0.066406 0.007812 0.12891 0.015625 0.19531 0.03125 1.5898 0.42969 2.2344 3.25 0.69922 4.1094z"/>
 <path d="m68.711 18.535c-0.33594 0.16406-0.66797 0.32031-0.97266 0.54297 0.34375 1.6992 2.2266 3.6523 3.7148 1.7891 0.125-0.24219 0.20703-0.46484 0.26172-0.73438-0.10547-0.22266-0.21484-0.41797-0.35156-0.62109-0.13672 1.4023-1.7148 1.7578-2.5039 0.63281-0.49219-0.73828 0.082031-1.5625-0.14453-1.6055z"/>
 <path d="m70.195 19.613c0.41016-0.34375 0.17578-0.89453-0.35547-0.84375-0.12109 0.13281-0.24219 0.28516-0.23047 0.47656-0.003906 0.31641 0.32812 0.42188 0.58594 0.36719z"/>
 <path d="m82.609 19.148c-0.42969 0.44922-0.85547 1.1602-0.42578 1.7461 0.66406 0.92188 1.957 1.3203 2.8281 0.42969 0.32812-0.30078 1.168-1.4453 1.1992-1.8672-0.074219-0.49219-0.70703-0.60156-1.1211-0.64062 0.3125 0.78906 0.13672 1.8828-0.79688 2.1211-1.0977 0.33203-1.6953-0.86328-1.6875-1.793z"/>
 <path d="m90.176 20.543c0.10938-0.14062 0.21094-0.27734 0.33984-0.40234-0.43359-1.5977-0.81641-3.2539-1.1562-4.8477-0.82031-1.4609-2.9336-3.5938-3.2617-5.1914-0.17969-2.6328 3.2695-4.5156 5.3984-5.2188 0.29297-0.0625 0.64062-0.082031 0.92578 0.023438 0.0625 0.023438 0.25781 0.125 0.30469 0.097656-1.2422-1.4805-6.3125 1.8477-7.5781 2.7461-0.25781 0.19141-1.375 1.3164-1.6445 1.2617-0.83984-0.28125-0.25781-1.0508 0.17969-1.4219-3.6562-1.1914-7.5625-1.332-11.34-0.73828-0.73047 0.14453-1.8438 0.17188-2.4258 0.63672l-0.007813 0.078125c0.44531 0.3125 0.88281 1.5039-0.023437 1.3945-0.71094-0.42578-1.3164-1.1445-1.9688-1.6719-1.3516-1.0977-4.5078-2.9961-6.2305-2.9648 0.14062 0.26953 0.88672 0.53125 1.1875 0.69531 1.9336 1.0156 4.6523 2.6719 4.4375 5.2109-0.3125 1.7148-2.3203 4.0234-3.8906 4.8242-0.078125 1.0664 0.050781 2.1328 0.019531 3.1992-0.085937 3.0312-0.71484 7.5391 1.4062 10.02 0.51953 0.60937 1.1328 0.70312 1.4492 1.418 0.54297-0.015625 1.0938-0.035156 1.6328 0.046875 0.53906-1.207 1.1055-2.2266 2.2539-2.9414-0.83984 1.4414-1.6055 2.9453-1.6758 4.6523 0.21875-0.039063 0.73828-0.1875 0.9375-0.085938l0.054688 0.10156c0.16016-0.078125 0.30078-0.15625 0.48047-0.17188 0.10547 0.042969 0.09375 0.015625 0.14062 0.12891 0.007812 0.22656-0.089844 0.46094-0.34766 0.46875-0.10547-0.050781-0.21094-0.23438-0.25781-0.25-0.035156-0.011719-0.85156 0.125-1.0039 0.125 0.007812 0.64453 0.085937 1.2578 0.26953 1.8789 0.26562-0.054687 0.70312 0.085938 0.85938-0.10547 0.039063-0.042968 0.074219-0.10547 0.10547-0.15234 0.11719-0.027344 0.12891-0.011719 0.23828 0.027343l0.007813 0.12891 0.023437-0.10938 0.074219 0.09375c-0.21484 0.36328-0.79297 0.30078-1.1641 0.37891 0.17188 0.32422 0.38672 0.61719 0.60547 0.91406 0.41406-0.16406 0.76172-0.32812 1.2188-0.28516l0.085938 0.050782c-0.12891 0.23047-0.76563 0.39062-1.0234 0.48047 0.92578 0.82812 1.9102 1.2852 3.1797 1.2109 0.76953-0.042969 2.8242-0.65234 3.3164-1.2539 0.25391-0.3125 0.15234-1.0352 0.16406-1.4297-1.2422-0.74219-1.9102-2.0703-3.082-2.8867-1.9023-1.5273-1.5234-4.1719-1.1406-6.3008 0.066406-0.69922 0.40234-1.6484-0.20312-2.1914-0.22266-0.16016-0.52344-0.14844-0.77734-0.09375-0.98438 0.20312-1.5039 0.59766-2.5-0.027344-0.86719-0.54688-1.375-1.4531-1.793-2.3594-0.63672 0.28516-2.0039 0.54688-1.6289-0.60547 0.26562-0.37891 0.80859-0.375 1.207-0.54297 1.4805-0.49219 3.2227-1.3711 4.7109-0.45313 0.99609 0.65625 1.2773 2.2188 1.4961 3.3242 0.10156 0.52344 0.15625 1.0508 0.12109 1.5859-0.14453 2.1328-1.1719 4.3555 0.25781 6.2969 3.2852-0.94531 4.0977-1.0078 7.4453-0.16797 0.93359-1.5391-0.039063-3.668-0.10938-5.3359-0.023437-1.5352 0.42969-4.25 1.6133-5.3516 1.4766-1.3281 3.832-0.61328 5.1836 0.55859 0.33203 0.24219 0.55469 0.69141 0.14453 0.98047-0.24219 0.1875-0.58984 0.25781-0.80469 0.47266-0.91797 0.91016-1.3281 2.3906-2.9688 2.1055-0.65234-0.11328-1.2188-0.49219-1.8633-0.64062-0.35156 0.15234-0.55469 0.27734-0.71094 0.64844-0.83203 2.0039 1.6172 5.1133-0.16016 7.6289-0.39844 0.56641-1.0039 0.85156-1.4727 1.332-0.70703 0.72266-1.2891 1.6445-2.25 2.0508 0.023438 0.47266 0.019531 0.96094 0.089844 1.4297 1.8438 1.4375 4.8633 1.8984 6.5703 0-0.72266-0.23828-1.5-0.26562-2.2266-0.46094-0.042969-0.10938-0.035156-0.10547 0.007812-0.21484 0.6875-0.24609 1.7344 0.23438 2.4531 0.33594 0.23047-0.33203 0.39062-0.49219 0.34375-0.91406 0.52734-0.46094 0.48047-1.543 0.48047-2.1953-0.73047-0.11328-0.98828 0.39063-1.5664 0.007813l0.050781 0.015625c0.09375-0.13281 0.19922-0.32031 0.35938-0.36719 0.37891-0.042968 0.72656 0.21484 1.1172 0.13672-0.14453-1.832-1.1523-3.25-2.1836-4.6992 1.3242 0.66406 2.0586 1.6406 2.6758 2.9648 0.78906-0.12109 1.6719-0.19531 2.4609-0.042968 1.2148-1.7578 3.0742-5.4648 2.9297-7.6289-0.52734-0.29688-0.71094-0.86719-0.57812-1.4453zm-17.805 14.742c-0.14453-0.003906-0.26953 0.003906-0.40625-0.050781-0.066406-0.13281-0.035156-0.20703-0.019532-0.35156 0.13672 0.007813 0.25391 0.003907 0.375 0.082032 0.074219 0.11719 0.0625 0.19531 0.050782 0.32422zm0.47266-0.58594c0.17578-0.007813 0.39453 0.03125 0.42188 0.23828-0.019531 0.14453-0.085937 0.20703-0.17969 0.3125-0.015626-0.003906-0.035157-0.003906-0.050782-0.007812-0.14453-0.023438-0.24219-0.0625-0.33203-0.17969-0.007813-0.14844 0.066406-0.24219 0.14062-0.36328zm-0.19141-1.3008c-0.007813 0.15234-0.074219 0.22266-0.16406 0.33203-0.14844-0.023438-0.28125-0.078125-0.30469-0.23438 0.03125-0.14062 0.10156-0.21875 0.19141-0.32422 0.14062 0.0625 0.20312 0.09375 0.27344 0.22656zm-0.67578-1.6914c0.19922 0.027344 0.42188 0.09375 0.48047 0.30859-0.019531 0.16797-0.039062 0.19141-0.14062 0.31641-0.097656-0.003906-0.21484-0.011719-0.30078-0.058593-0.11328-0.0625-0.13281-0.12109-0.17578-0.23047 0.015625-0.15625 0.046875-0.21094 0.13672-0.33594zm-0.23437 2.0586c0.39453 0.046875 0.33594 0.44531 0.03125 0.58203-0.011719-0.003906-0.023438-0.011718-0.035157-0.015625-0.12891-0.070312-0.17188-0.13281-0.21484-0.26562 0.03125-0.14453 0.11328-0.20703 0.21875-0.30078zm-0.78125-2.375c0.20312-0.035156 0.45312-0.015625 0.53125 0.20703 0.003906 0.15234-0.050782 0.21875-0.13672 0.33594-0.10156 0.015625-0.20703 0.023437-0.30859 0.003906-0.11719-0.023438-0.16016-0.097656-0.21484-0.19531-0.003906-0.15625 0.046875-0.22656 0.12891-0.35156zm-0.10547 1.6953c0.16406-0.011719 0.33594 0.011718 0.42188 0.16797-0.023438 0.16016-0.058594 0.19141-0.16016 0.3125-0.042969 0.007813-0.13672 0.035156-0.18359 0.03125-0.12109-0.019531-0.14062-0.050781-0.19922-0.14844-0.003906-0.15625 0.042969-0.23438 0.12109-0.36328zm-4.0977-9.7695c0.65625 0.12891 1.4062 0.95703 1.0625 1.6406-0.15234 0.003907-0.28906 0-0.42969-0.066406-0.55469-0.26562-0.96484-1-0.63281-1.5781zm-0.39453 4.2656c-0.82031-0.019531-1.5312-0.96875-1.3672-1.7656 0.066406-0.25391 0.17578-0.37109 0.39062-0.50781 0.92188-0.058594 1.9805 1.75 0.97656 2.2734zm-1.4922-3.4141c-1.0781 0.125-1.6484-1.6367-0.68359-2.168 0.085938-0.003906 0.17188-0.007812 0.25391 0 0.96484 0.16406 1.2852 1.6484 0.42969 2.168zm0.042968-5.6445c-0.87891 0.054687-0.81641-1.0742-0.078124-1.2656 0.027343 0.003907 0.054687 0.007813 0.078124 0.015626 0.71484 0.12109 0.60938 1.0469 0 1.25zm1.1953-1.9766c-0.875 0.074219-0.44141-1.0859 0.12109-1.2344 0.046875 0 0.074219 0 0.12109 0.007812 0.71094 0.16797 0.29297 1.0977-0.24219 1.2266zm1.582-2.5898c-0.12891-0.050781-0.14453-0.085937-0.20312-0.20703 0.039063-0.71875 0.69531-1.2422 1.3477-1.4219 0.54297 0.042969 0.74219 0.69531 0.44141 1.1094-0.26562 0.40625-0.74219 0.42969-1.1758 0.51172-0.12109 0.023437-0.28906 0.058593-0.41016 0.007812zm1.4102 1.5859c-1.0898 0.023437-0.64844-1.1797 0.13281-1.3242 0.085937-0.003906 0.17188 0.003906 0.25391 0.023438 0.86719 0.21094 0.17969 1.168-0.38672 1.3008zm0.29297-4.2812c-0.17578 0.046875-0.35547 0.09375-0.53906 0.070312-0.10938-0.011719-0.17969-0.050781-0.24609-0.13672-0.097656-0.58594 0.53125-0.90625 0.99219-1.0742 0.28906-0.015625 0.62891-0.050782 0.82813 0.19922 0.12109 0.55859-0.62109 0.80859-1.0352 0.94141zm2.3359 4.7578c-0.14062 0.011719-0.32031 0.035157-0.45703-0.015625-0.64453-0.30859-0.16016-1.1836 0.37891-1.3203 0.98047-0.046875 0.90625 1.1289 0.078125 1.3359zm0.25-2.4375c-0.19141 0-0.39844 0-0.58203-0.058593-0.84375-0.32031-0.16016-1.2344 0.44531-1.3711 1.2539-0.19531 1.2344 1.207 0.13672 1.4297zm0.83984-3.4727c-0.9375-0.40625 0.007813-1.3438 0.66016-1.4141 1.2305 0.16406 0.98438 1.5234-0.18359 1.5195-0.16016-0.027344-0.32422-0.054688-0.47656-0.10547zm1.7695 5.7539c-0.96484 0.058594-0.875-1.2891-0.38672-1.8008 0.75391 0.070312 0.97656 1.3906 0.38672 1.8008zm1.0469 2.6562c-0.94141 0.0625-0.71484-1.0664-0.19531-1.4688 0.65234 0.16016 0.78906 1.1484 0.19531 1.4688zm0.94922-2.8555c-0.8125-0.078124-0.58594-1.2344-0.019532-1.5234 0.53125 0.3125 0.71094 1.2852 0.019532 1.5234zm0.42969-2.75c-1.0977 0.019532-1.2578-2.1836-0.25-2.4766h0.035156c1.2188 0.14062 1.0117 1.918 0.21484 2.4766zm0.066406-3.1211c-0.097656 0.023437-0.17578 0.042969-0.27344 0.019531-0.91797-0.33984-1.0391-1.9727-0.19141-2.4648 1.3789-0.10156 1.3867 1.8203 0.46875 2.4414zm1.4219 8.793c-0.88281-0.003907-0.77734-1.1953-0.20312-1.582 0.70312 0.16406 0.89844 1.2734 0.20312 1.582zm0.78906-2.8945c-0.86328-0.10938-0.66016-1.2461-0.125-1.6445 0.61328 0.23828 0.84766 1.3945 0.125 1.6445zm0.79297-6.9961c0.86328-0.050781 1.8516 1.3555 0.50391 1.4609-0.23438 0.007812-0.46484 0.007812-0.67578-0.097656-0.76172-0.36719-0.63672-1.1836 0.17578-1.3672zm1.3164 7.4805c-0.30469 0.10156-0.6875 0.14062-0.875-0.17578-0.22266-0.33203-0.33984-1.0898 0.066406-1.3164 0.46484-0.10547 1.0273 0.089844 1.1289 0.60156 0.058594 0.32422-0.085937 0.66797-0.31641 0.89062zm0.66016-2.3281c-0.59766 0.12891-1.4375-0.41016-1.207-1.0781 0.10547-0.25781 0.33203-0.34375 0.57031-0.44141 1-0.13672 1.9375 1.1094 0.63672 1.5195zm1.7422-3.6367c0.66406-0.10938 2.3555 0.75391 1.2344 1.375-0.0625 0-0.058593 0.003906-0.12891-0.003907-0.47266-0.082031-1.5664-0.49609-1.4414-1.1094 0.09375-0.13672 0.19141-0.18359 0.33203-0.26172zm0.45312 5.6289c-0.19922 0.003906-0.41016 0.019531-0.59375-0.070313-0.64844-0.32422-0.53125-1.0898 0.20313-1.1719 0.79687-0.066406 1.4023 1.0156 0.39062 1.2422zm1.1758-1.6602c-1.0469 0.074218-1.8242-1.1367-0.65234-1.6758 0.76172 0.10156 1.7812 1.2969 0.65234 1.6758zm1.9258 2.8906c-0.007813 0-0.019531-0.003906-0.027344-0.007812-0.66797-0.050781-1.0273-0.98047-0.44141-1.3867 0.59375 0.066407 0.99219 1.0156 0.46875 1.3945zm-7.3164 15.316c0.011719-0.14844 0.078125-0.21875 0.16406-0.32812 0.16016 0.007812 0.35547 0.042968 0.37109 0.23047-0.035156 0.14453-0.10547 0.20313-0.21094 0.29688-0.14844 0-0.27734-0.054688-0.32422-0.19922zm0.39062 1.3203c0.0625-0.14062 0.10938-0.16016 0.23047-0.25 0.15625 0.011719 0.33203 0.054688 0.33984 0.23438-0.046875 0.14062-0.11328 0.21484-0.21484 0.31641-0.16406-0.058593-0.3125-0.12109-0.35937-0.30078zm0.66406 1.6953c-0.14453-0.007813-0.25781-0.03125-0.33203-0.16016-0.003906-0.14844 0.070313-0.25781 0.14453-0.38281 0.14453 0.058594 0.21484 0.10156 0.28516 0.23828-0.003906 0.14453-0.023437 0.17578-0.09375 0.30078zm0.39453-0.875c-0.14453 0.050781-0.23438 0.035156-0.35547-0.046875-0.070313-0.13281-0.054688-0.20703-0.03125-0.34766 0.15234 0.019532 0.26953 0.046876 0.39453 0.14453 0.050781 0.125 0.039062 0.12109-0.007812 0.25zm0.10937-2.25c-0.14844 0.011718-0.29687 0.003906-0.36719-0.14062-0.003906-0.14062 0.058594-0.22656 0.13281-0.33984 0.042968 0 0.10547 0 0.14453 0.007813 0.11328 0.027343 0.14453 0.0625 0.20703 0.14844-0.003906 0.16016-0.03125 0.19141-0.11328 0.32422zm2.168 0.80078c0.16406 0.023437 0.32422 0.10938 0.32031 0.29297-0.042969 0.14844-0.11328 0.19141-0.23047 0.27734-0.074219-0.015626-0.14844-0.042969-0.22266-0.066407-0.089844-0.097656-0.097657-0.097656-0.10938-0.22656 0.050781-0.14062 0.125-0.19141 0.24219-0.27734zm-1.1953 0.60938c-0.16797 0.019531-0.34375-0.03125-0.37109-0.21875 0.019531-0.16016 0.074219-0.22266 0.18359-0.33984 0.089843 0.003906 0.19141 0.015625 0.26953 0.0625 0.097656 0.054688 0.10938 0.10156 0.13281 0.20312-0.035156 0.14844-0.10547 0.19922-0.21484 0.29297zm0.47266-2.0859c-0.035156 0.16797-0.16016 0.27734-0.26953 0.39844-0.15625 0-0.35938-0.007812-0.40625-0.1875 0.035156-0.15625 0.13281-0.23047 0.24609-0.33594 0.14844-0.003906 0.37891-0.050781 0.42969 0.125zm5.3281-14.215c0.76172-0.070313 1.1055 1.2031 0.63281 1.6875-0.17187 0.019531-0.28516 0.03125-0.43359-0.082031-0.45312-0.375-0.59766-1.1445-0.19922-1.6055zm-2.082 7.8281c-0.16406 0.027344-0.28906 0.019531-0.43359-0.074219-0.25-0.48438 0.32031-1.0312 0.66797-1.3008 0.19141-0.027344 0.39844-0.039063 0.52344 0.13281 0.15625 0.51562-0.37109 0.99219-0.76172 1.2422zm1.5547 2.8438c-0.77734 0.015625-1.0078-0.97266-0.74219-1.5664 0.13672-0.34375 0.33203-0.51563 0.66406-0.66406 1.25-0.015625 1.0508 1.9102 0.078125 2.2305zm1.332-3.6289c-0.70313 0.011718-0.96484-0.87891-0.73828-1.4414 0.13672-0.375 0.36328-0.58594 0.71484-0.75391 1.1719-0.089844 0.92578 1.9648 0.023438 2.1953z"/>
 <path d="m84.07 19.773c0.45703-0.33594 0.26563-0.92578-0.3125-0.86719-0.15234 0.125-0.25781 0.22266-0.27344 0.43359-0.035156 0.32812 0.29688 0.50391 0.58594 0.42969z"/>
 <path d="m29.012 62.559c-0.97656-0.79297-0.76172-3.7305 0.17578-4.5195-0.21875-0.59375-2.0977-5.4727-2.2969-5.6523 0.40625 3.6523 0.30859 8.2148-0.31641 11.828 1.1562-0.92969 1.6094 0.73828 1.3008 1.6328-0.13672 0.86328-1.1289 1.9805-1.9141 1.0586-0.82031 2.9609-2.375 5.6602-4.6992 7.6562-0.13672 0.17188-0.097657 0.45312-0.13281 0.66797-0.24609 1.3711-3.4492 2.8711-3.3047 0.5625-4.3594 0.48438-7.668-3.8438-7.6211-7.9141-0.007813-2.293 1.0703-4.1289 2.4961-5.8359 0.42969-0.51562 0.94531-1.043 1.2188-1.668 0.58984-1.2578-0.58594-2.6172-1.8906-2.543-2.2461 0.16406-3.543 2.4492-4.3281 4.3203-1.0312 2.7578-1.332 5.9336-0.35938 8.7617 1.4492-2.7812 3.8711 3.168 1.3359 3.1367 2.4883 4.5195 8.1602 6.4414 12.738 3.8867-0.41797-1.2188 2.2305-3.6289 3.1289-2.1836 3.5742-3.582 4.9883-9.3242 5.7891-14.168-0.23047 0.46484-0.69531 1.2852-1.3164 0.97656zm-14.629 15.148c-1.3828 0.48438-3.2969-1.5234-1.4688-2.3125 0.51172-0.078125 1.082 0.023438 1.5312 0.28125 0.42578 0.24609 0.62891 0.55859 0.75391 1.0234-0.125 0.48828-0.36328 0.78906-0.81641 1.0078zm11.031-4.6367c-2.0195 0.41797-1.0586-2.4102 0.14063-2.793 0.19531-0.023438 0.36719-0.035156 0.55859 0.015625 1.4492 0.48438 0.31641 2.4414-0.70312 2.7773z"/>
 <path d="m91.719 5.8789c-1.6406 0.69922-5.0195 2.2188-4.4453 4.4375 0.53516 1.1602 2.0469 3.0195 2.8242 4.125 1.5547-1.582 3.0703-3.8477 3.0586-6.1562-0.035156-0.8125-0.34766-2.5156-1.4375-2.4062z"/>
</svg>