<?xml version="1.0" encoding="utf-8"?>
<!-- Generator: Adobe Illustrator 16.0.0, SVG Export Plug-In . SVG Version: 6.00 Build 0)  -->
<!DOCTYPE svg PUBLIC "-//W3C//DTD SVG 1.1//EN" "http://www.w3.org/Graphics/SVG/1.1/DTD/svg11.dtd">
<svg version="1.1" id="Layer_1" xmlns="http://www.w3.org/2000/svg" xmlns:xlink="http://www.w3.org/1999/xlink" x="0px" y="0px"
	 width="841.89px" height="595.28px" viewBox="0 0 841.89 595.28" enable-background="new 0 0 841.89 595.28" xml:space="preserve">
<path fill="#19140F" d="M306.943,188.101c2.938,0.168,5.753-0.211,8.551-1.243c4.206-1.55,8.308-3.341,12.455-5.025
	c3.886-1.577,7.784-2.91,12.144-2.748c4.923,0.183,8.228,2.992,11.37,6.161c4.747,4.776,10.08,7.737,17.147,7.051
	c3.079-0.299,6.203-0.95,9.46-0.389c-1.913,1.088-4.01,1.081-5.98,1.487c-5.584,1.15-11.111,1.063-16.39-1.362
	c-3.606-1.658-6.471-4.35-9.188-7.175c-0.995-1.036-1.409-1.055-2.139,0.37c-1.393,2.733-3.546,4.69-6.767,5.218
	c-3.234,0.528-6.477,1.056-9.663,1.795c-2.557,0.593-5.185,1.208-7.32,3.41c2.385,0,4.369,0.065,6.351-0.012
	c4.242-0.165,4.342-0.232,5.757,3.64c0.728,1.981,1.873,2.77,3.931,2.665c1.434-0.071,2.935-0.253,4.476,0.708
	c-0.853,0.275-1.424,0.465-1.996,0.643c-4.612,1.431-9.47,1.591-14.139,2.744c-8.472,2.091-15.174,6.687-19.817,14.082
	c-2.082,3.314-2.436,6.886-1.309,9.505c1.094-6.47,4.921-11.055,10.271-14.007c9.013-4.973,18.771-6.214,28.801-3.674
	c5.546,1.405,11.015,3.129,16.771,3.329c7.16,0.248,13.868-1.771,20.427-4.407c4.496-1.808,8.717-4.265,13.46-5.496
	c2.444-0.635,4.983-0.526,7.615-1.015c-2.581-3.468-5.319-6.449-8.592-8.882c-5.349-3.982-10.951-7.695-17.777-8.262
	c-8.176-0.679-15.808-2.898-23.003-6.718c-3.7-1.966-7.479-3.557-11.718-3.786c6.205-1.188,11.599,1.403,17.213,3.863
	c-0.244-1.396-0.55-2.708-1.542-3.351c-6.291-4.076-13.112-6.575-20.711-5.464c-5.646,0.824-10.487,3.936-15.574,6.304
	c-3.102,1.442-6.189,2.955-9.672,3.233c-1.792,0.142-3.431-0.262-4.063-2.205c-0.594-1.819,0.136-3.316,1.566-4.451
	c0.834-0.66,1.824-1.048,2.857-1.373c2.713-0.854,5.266-0.143,7.871,0.714c-2.018-2.705-4.591-4.556-7.691-5.558
	c-3.731-1.205-7.204-0.556-9.858,2.406c-2.936,3.272-3.688,7.185-2.047,11.3C299.974,185.864,302.873,187.868,306.943,188.101z
	 M343.696,199.492c10.043,4.149,20.442,6.081,31.305,5.253C363.777,207.767,353.486,205.092,343.696,199.492z M319.284,305.441
	c0.487,2.975-0.121,5.703-1.827,8.625c-0.636-2.029,0.073-3.795-0.531-5.43c-0.854-2.313-1.219-2.391-3.077-0.803
	c-2.034,1.742-4.149,3.393-5.67,4.631c0.239-1.09,0.641-3.182,1.165-5.242c0.935-3.664,0.244-7.064-1.219-10.479
	c-3.002-6.994-5.951-14.03-8.02-21.351c-8.707-1.837-17.081,1.371-22.88,7.88c-5.569,6.257-7.774,13.27-5.137,20.948
	c2.518,7.329,9.071,11.298,19.026,11.646c2.854,0.1,5.755,0.404,8.579-0.443c-13.778,12.98-36.183,9.354-43.033-6.816
	c-4.364-10.296-3.963-20.493,4.156-29.384c9.066-9.927,24.404-13.909,38.245-7.878c-0.025-0.109-0.055-0.217-0.077-0.325
	c-4.668-20.578,4.587-38.279,22.7-47.15c5.095-2.495,10.534-1.948,15.823-1.411c8.103,0.821,15.087,4.909,22.101,8.694
	c2.049,1.108,1.967,2.595-0.266,3.376c-2.949,1.035-6.033,1.318-9.008-0.292c-9.248-5.006-18.512-5.042-27.743,0.045
	c-0.64,0.354-1.129,0.981-1.616,1.677c3.109-0.777,6.218-1.222,9.363-1.549c7.022-0.732,13.687,0.43,20.084,3.348
	c0.7,0.318,1.576,0.596,1.558,1.41c-0.02,0.784-0.824,1.228-1.545,1.543c-4.913,2.166-10.16,3.106-15.387,4.107
	c-5.598,1.072-11.33,0.588-16.96,1.381c-8.38,1.178-15.35,6.762-17.317,13.984c-0.999,3.654-0.24,7.319-0.152,11.272
	c1.256-2.054,0.935-4.19,1.164-6.107c1.054-8.876,9.106-15.474,17.339-16.798c4.979-0.801,10.082-0.802,15.091-1.46
	c5.801-0.762,11.429-2.32,16.857-4.549c1.114-0.457,2.329-1.142,2.44-2.217c0.233-2.301,1.718-2.459,3.44-2.757
	c3.546-0.616,5.515-3.349,7.574-5.93c1.515-1.891,2.953-3.866,5.33-5.458c-0.365,3.325-1.114,6.208-2.863,8.585
	c-4.979,6.779-11.207,12.084-19.294,14.812c-4.446,1.498-9.193,1.43-13.79,2.15c-6.244,0.976-12.027,2.779-16.4,7.717
	c-3.466,3.911-4.939,8.692-5.849,13.633c-1.407,7.64-0.612,14.967,3.541,21.796C317.173,298.111,318.658,301.634,319.284,305.441z
	 M272.717,140.051c-3.199-0.825-6.379-1.734-9.784-2.665c8.417-9.071,17.326-17.023,26.976-24.164
	c5.018-3.713,10.319-6.992,15.462-10.513c1.223-0.834,1.901-0.763,2.661,0.562c3.744,6.527,7.523,13.035,11.37,19.503
	c0.727,1.22,0.466,1.841-0.634,2.501c-9.869,5.924-18.884,12.979-27.281,20.835c-0.484,0.454-0.838,1.025-1.693,0.421
	C284.661,142.91,278.651,141.582,272.717,140.051z M230.926,178.811c6.098-11.142,21.354-31.119,30.345-39.502
	c4.013,5.582,6.362,11.773,9.249,17.682c0.99,2.03,1.914,4.101,2.975,6.092c0.535,0.997,0.291,1.603-0.401,2.406
	c-7.032,8.149-13.287,16.866-18.823,26.099c-1.812,3.019-2.126,3.154-4.855,0.955c-5.386-4.341-11.592-7.361-17.437-10.958
	C230.831,180.876,230.044,180.426,230.926,178.811z M216.154,382.533c-1.114,0.546-1.672,0.602-2.141-0.698
	c-3.46-9.563-6.888-19.124-9.211-29.063c-1.973-8.434-4.557-16.713-7.249-24.948c-0.655-4.627-2.313-9.057-2.699-13.735
	c9.357-0.35,18.722-0.339,28.088-0.354c1.331,0,1.825,0.323,1.902,1.782c0.16,3.128,0.604,6.24,0.951,9.357
	c0.132,1.198-0.111,1.967-1.296,2.751c-6.592,4.377-10.655,10.895-14.431,17.607c-1.085,1.922-2.095,3.888-3.071,5.866
	c-0.32,0.655-0.61,1.013-1.327,0.569c-0.207-0.182-0.41-0.475-0.667-0.088c-0.021,0.039,0.242,0.268,0.37,0.408
	c5.243,5.92,12.219,9.396,18.883,13.279c4.285,2.494,8.751,4.697,13.444,6.668c-1.48,1.223-3.201,1.818-4.816,2.592
	C227.312,377.201,221.707,379.813,216.154,382.533z M214.421,212.912c4.066-10.24,8.859-20.131,14.229-29.748
	c0.428-0.77,0.662-1.284,1.804-0.557c6.556,4.167,13.203,8.188,19.806,12.285c0.522,0.324,1.331,0.474,1.318,1.252
	c-0.33,0.647-0.594,1.192-0.878,1.726c-4.536,8.534-8.75,17.222-12.434,26.159c-0.496,1.209-0.924,1.582-2.208,0.961
	c-6.886-3.321-13.799-6.582-20.721-9.818C214.227,214.653,213.935,214.143,214.421,212.912z M195.829,282.856
	c-0.302-0.094-0.61-0.186-0.916-0.278c0.771-5.53,2.232-10.908,3.627-16.295c2.113-8.176,4.329-16.325,6.508-24.482
	c0.017-0.054,0.035-0.105,0.056-0.159l1.196-4.094l0,0c0.13-0.615,0.319-1.238,0.51-1.871c1.798-6.075,3.688-12.111,5.901-18.056
	c0.504-1.354,0.881-1.295,1.99-0.752c6.843,3.337,13.697,6.654,20.618,9.829c1.458,0.67,1.704,1.197,1.108,2.655
	c-3.04,7.413-5.078,15.156-7.302,22.833c-0.126,0.433-0.103,0.91-0.146,1.366c-0.821,1.265-3.663,1.231-5.757-0.104
	c-0.82-0.524-1.591-1.13-2.379-1.697c-2.142-1.698-4.192-3.533-6.452-5.057c-2.33-1.576-4.201-3.777-6.8-4.964l-0.132,0.112
	c3.305,4.485,7.589,7.965,11.832,11.488l7.528,7.932v0.002c0.418,0.362,0.596,0.895,0.235,1.822
	c-0.752,1.943-0.165,3.909-0.834,5.815c-0.418,1.192-0.752,1.323-1.683,0.706c-1.354-0.896-2.438-2.021-3.42-3.334
	c-1.733-2.317-3.658-4.495-5.508-6.729c-1.696-2.862-3.111-5.85-4.332-8.952c-1.114-2.844-2.531-5.543-5.39-7.567
	c2.225,6.755,4.926,12.934,8.786,18.567c2.459,4.307,5.826,7.759,10.019,10.36c0.809,0.499,0.938,0.722,0.771,1.677
	c-0.365,2.083-0.396,4.225-0.568,6.344c-0.008,0.431-0.019,0.862-0.027,1.294c-0.033,0.446-0.061,0.892-0.092,1.339
	c-1.319,0.095-2.638,0.193-3.959,0.29c-0.242,0.009-0.487,0.021-0.729,0.031C212.001,282.903,203.917,282.879,195.829,282.856z
	 M309.515,102.231c-0.521-0.877-0.606-1.323,0.5-1.981c8.172-4.852,16.788-8.792,25.479-12.599c1.083-0.475,1.562-0.235,2.082,0.825
	c3.306,6.687,6.691,13.331,10.041,19.996c0.42,0.838,0.798,1.54-0.588,2.074c-8.224,3.188-16.033,7.217-23.545,11.828
	c-0.387,0.235-0.799,0.419-1.229,0.64c-0.64-0.026-0.803-0.574-1.065-1.023C317.302,115.402,313.416,108.811,309.515,102.231z
	 M267.707,235.036c-3.248-9.238-2.949-18.383,3.097-26.361c8.479-11.185,24.333-13.972,36.084-1.078
	c0.25,0.272,0.407,0.625,0.618,0.952c-0.592,0.447-0.937-0.088-1.221-0.292c-8.535-6.207-17.57-3.653-23.267,4.053
	c-4.149,5.614-5.787,11.905-3.824,18.791c1.874,6.576,6.751,10.133,14.168,10.445c2.124,0.091,4.279,0.365,6.386-0.396
	C289.49,252.79,272.809,249.539,267.707,235.036z M203.039,312.293c6.285-0.053,12.569-0.088,18.855-0.183
	c0.852-0.013,1.842,0.397,2.563-0.468c-0.124-8.245-0.397-16.489-0.017-24.734c0.268-1.982-0.611-2.516-2.536-2.376
	c-2.266,0.167-4.563-0.037-6.843-0.08c-6.227,0.009-12.452,0.046-18.678,0.001c-1.208-0.009-1.858,0.254-1.895,1.58
	c-0.228,8.223-0.165,16.446-0.052,24.67c0.017,1.131,0.466,1.615,1.681,1.574C198.423,312.2,200.73,312.279,203.039,312.293z
	 M203.95,293.091c2.716,0.347,4.482,1.498,6.739,2.201c-1.054-2.023-1.936-3.734-3.147-6.063c2.755,1.453,3.651,3.725,5.099,5.61
	c0.673-1.68,0.558-3.72,2.139-5.358c0.823,2.115-0.385,3.813-0.489,5.834c1.515-0.686,2.561-2.261,4.474-1.978
	c-1.012,0.802-1.976,1.569-3.061,2.43c1.743,1.474,3.809,0.083,5.143,2.132c-1.325,0-2.313-0.137-3.23,0.044
	c-0.717,0.144-2.017-0.196-1.831,1.317c1.017,0.492,2.045,0.965,3.048,1.484c0.33,0.173,0.646,0.456,0.51,0.919
	c-0.15,0.495-0.6,0.45-0.946,0.392c-0.673-0.112-1.327-0.337-1.997-0.472c-0.56-0.112-1.056-1.115-1.703-0.165
	c-0.521,0.768-0.973,1.662-0.306,2.471c0.481,0.59,0.438,0.945-0.121,1.22c-0.721,0.357-0.851-0.341-0.995-0.78
	c-0.389-1.193-0.211-2.529-0.9-3.653c-1.171,2.053-2.514,3.966-4.677,5.628c0.064-1.973,1.611-2.971,2.059-4.457
	c0.201-0.67,0.874-1.387-0.583-1.115c-1.587,0.816-3.117,1.83-5.596,1.607c1.798-1.354,3.343-2.02,4.932-2.602
	c0.312-0.195,0.618-0.391,1.087-0.69c-1.935-0.919-4.001-0.937-6.497-1.462c2.376-1.017,4.352-0.395,6.455-0.681
	C208.229,295.118,206.137,294.589,203.95,293.091z M350.66,252.309c3.697,5.188,2.529,9.134-3.504,10.983
	c-11.139,3.413-16.872,11.404-19.553,22.146c-0.944,3.771-0.702,7.58-0.131,11.416c0.618,4.148,1.309,8.316,0.336,12.537
	c-0.88,3.806-3.94,5.662-6.729,7.771c-0.192,0.145-0.618,0.127-0.867,0.023c-0.341-0.143-0.228-0.43-0.09-0.749
	c2.751-6.44,1.213-12.798,0-19.307c-1.53-8.2-2.674-16.551-1.591-24.906c1.081-8.314,6.92-13.762,15.25-14.924
	c3.334-0.464,6.664-0.988,10.018-1.211C346.713,255.894,348.857,254.571,350.66,252.309z M409.452,81.51c0.009,0,0.017,0,0.025,0
	c0,4.223,0.05,8.448-0.029,12.67c-0.027,1.575,0.396,2.163,2.08,1.994c8.04-0.797,16.109-0.407,24.166-0.293
	c1.767,0.026,2.268-0.459,2.268-2.093c-0.004-8.447,0.038-16.896,0.099-25.343c0.007-0.928-0.196-1.221-1.206-1.417
	c-2.362-0.456-4.739-0.357-7.105-0.482c-6.217-0.329-12.416-0.051-18.624,0.382c-1.384,0.096-1.743,0.537-1.712,1.91
	C409.518,73.06,409.452,77.286,409.452,81.51z M421.362,81.333c0.147-0.035,0.296-0.067,0.44-0.101
	c-1.52-1.551-3.106-3.05-4.032-5.231c1.497,0.233,2.073,1.66,3.224,2.213c0.044,0.186,0.044,0.462,0.338,0.314
	c0.057-0.029-0.037-0.364-0.066-0.559c-0.711-1.643-0.865-3.362-0.691-5.445c1.472,2.107,1.881,4.423,3.089,6.749
	c0.17-2.492,0.775-4.524,1.413-7.009c1.064,2.329-0.189,4.544,0.987,6.372c0.813-2.094,2.251-3.612,4.574-4.999
	c-0.626,2.363-2.175,3.656-2.99,5.336c0.41,0.427,1.299-0.089,1.521,0.929c-0.728,0.067-1.435,0.131-2.143,0.194
	c-0.322,0.377-0.646,0.754-1.061,1.234c2.099,0.543,3.722-0.35,5.396-0.925c0.515-0.177,1.131-0.52,1.393,0.125
	c0.27,0.653-0.42,0.735-0.899,0.928c-1.599,0.639-3.169,1.338-4.86,2.06c1.742,1.271,4.043,1.486,6.05,3.498
	c-1.879-0.435-3.177-0.809-4.5-1.021c-0.968-0.154-1.198,0.14-1.198,1.075c0.953,0.968,1.281,2.273,1.758,3.542
	c-1.607-1.007-2.744-2.403-3.411-4.204c-0.234-0.265-0.464-0.532-0.757-0.865c-0.48,0.655,0.021,1.146,0.094,1.674
	c0.071,0.517,0.489,1.267-0.326,1.525c-0.871,0.275-0.905-0.519-1.054-1.077c-0.171-0.64-0.319-1.286-0.489-1.985
	c-0.294,0.565-0.583,1.118-0.867,1.67c-0.581,1.058-1.127,2.135-1.771,3.156c-0.224,0.36-0.705,0.706-1.158,0.401
	c-0.477-0.321-0.24-0.768,0.004-1.195c0.513-0.899,0.969-1.826,1.449-2.744c0.194-0.552,0.387-1.106,0.688-1.972
	c-2.074,0.842-3.946,1.603-5.815,2.363c0.972-2.188,3.068-2.794,4.897-3.877c-0.788-0.917-2.021-0.863-2.973-1.39
	c-0.876-0.323-1.883-0.394-2.601-1.392C417.281,80.345,419.354,80.476,421.362,81.333z M356.426,169.268
	c-1.103-6.819-0.46-13.667,1.565-20.214c2.485-8.024,7.96-13.566,15.783-16.713c0.271-0.108,0.591-0.092,0.886-0.132
	c-4.791,3.695-8.47,8.203-11.324,13.443c-5.803,10.639-0.695,26.364,12.729,29.034c13.971,2.779,22.138,12.283,27.687,24.618
	c0.491,1.095,0.737,2.311,1.01,3.49c0.1,0.417,0.119,1.11-0.119,1.29c-0.45,0.345-1.052,0.054-1.422-0.365
	c-1.317-1.494-2.571-3.043-3.898-4.527c-5.826-6.506-12.729-11.381-21.263-13.623c-2.203-0.58-4.52-0.846-6.8-1.001
	C362.747,183.993,357.401,175.308,356.426,169.268z M374.159,80.336c9.986-6.865,20.651-11.133,32.314-12.958
	c1.219-0.191,1.233,0.213,1.229,1.107c-0.007,8.989-0.007,17.978,0.021,26.967c0.002,0.866-0.245,1.18-1.156,1.218
	c-3.215,0.136-6.38,0.687-9.526,1.312c-0.871,0.175-1.45-0.002-1.93-0.757C390.105,89.336,382.74,84.335,374.159,80.336z
	 M285.136,152.37L285.136,152.37c-2.23,2.216-4.513,0.272-4.513,0.272c-3.77-4.705-7.867-8.854-14.222-11.302
	c2.143,3.231,4.3,5.593,6.934,7.535c1.476,1.09,2.967,2.161,4.413,3.283c1.671,1.296,2.278,3.062,1.895,5.097
	c-0.078,0.425-0.104,1.104-0.454,1.417l-2.527,2.987c-0.134,0.27-0.33,0.513-0.614,0.724l0,0l0,0
	c-0.109,0.081-0.232,0.157-0.372,0.228c-4.554-6.775-5.024-15.681-11.266-22.151c2.315-0.003,3.761,0.99,5.352,1.443
	c5.216,1.49,10.45,2.924,15.595,4.63c3.922,1.298,3.748,1.375,1.319,4.521C286.156,151.722,285.662,152.162,285.136,152.37z
	 M449.145,203.803c0.307-2.32,0.832-4.424,3.094-5.76c4.175-2.462,8.513-4.311,13.918-4.536c-7.384,5.799-7.384,5.799-9.785,12.749
	c-2.005-0.376-3.986-0.842-6-1.081C449.391,205.056,449.013,204.81,449.145,203.803z M319.593,473.309
	c-3.926,6.553-7.768,13.154-11.616,19.756c-0.435,0.745-0.709,1.229-1.717,0.603c-16.029-9.965-30.736-21.558-43.736-35.275
	c-0.046-0.054-0.067-0.138-0.284-0.581c5.667-1.33,11.123-2.64,16.594-3.883c3.724-0.848,7.351-1.998,10.72-3.784
	c0.998-0.53,1.414-0.475,2.206,0.251c8.431,7.759,17.437,14.774,27.282,20.666C320.137,471.715,320.271,472.186,319.593,473.309z
	 M273.415,431.854c-3.885,7.348-6.498,15.338-11.355,22.2c-1.148,1.621-1.796,1.979-3.313,0.302
	c-10.089-11.172-19.091-23.141-26.838-36.052c-0.475-0.785-0.504-1.009,0.339-1.483c6.992-3.932,13.977-7.877,20.9-11.938
	c1.402-0.822,1.658,0.27,2.04,0.9c2.889,4.789,6.004,9.415,9.307,13.928c2.628,3.594,5.408,7.059,8.287,10.451
	c0.341,0.4,0.646,0.83,0.942,1.217C273.577,431.604,273.487,431.723,273.415,431.854z M233.313,414.142
	c-0.924,0.522-1.841,1.057-2.854,1.642c-4.133-7.236-7.908-14.706-11.451-22.3c-1.06-2.272-1.93-4.636-3.042-6.882
	c-0.602-1.209-0.31-1.67,0.835-2.217c6.898-3.293,13.784-6.622,20.607-10.058c1.338-0.672,1.704-0.415,2.223,0.858
	c2.603,6.377,5.648,12.559,8.721,18.723c1.223,2.455,2.402,4.967,3.929,7.23c1.076,1.586,0.345,2.068-0.839,2.734
	C245.392,407.283,239.353,410.716,233.313,414.142z M347.239,487.559c-3.208,6.667-6.85,13.104-10.271,19.654
	c-0.231,0.439-0.323,1.297-1.279,1.094c-0.305-0.117-0.666-0.244-1.016-0.393c-8.304-3.48-16.421-7.332-24.225-11.838
	c-1.21-0.699-1.58-1.158-0.729-2.545c3.81-6.236,7.488-12.553,11.185-18.855c0.671-1.141,1.21-1.695,2.625-0.789
	c7.142,4.575,14.851,8.039,22.726,11.128C347.746,485.6,347.95,486.081,347.239,487.559z M209.864,353.861
	c6.301-2.915,11.011-7.698,17.206-10.138c-0.01,0-0.015,0-0.017,0c0.786-0.231,1.568-0.385,2.248-0.133
	c0.431,0.618,0.746,1.341,0.928,2.194c1.635,7.762,4.307,15.215,6.815,22.715c0.127,0.376,0.259,0.705,0.083,1.193
	C227.552,365.461,218.659,360.103,209.864,353.861z M224.777,338.6c0.007-0.012,0.013-0.027,0.02-0.039
	c0.006-0.002,0.01-0.002,0.016-0.002L224.777,338.6z M226.732,332.253c0.928,2.511,0.288,4.044-1.541,5.534
	c-0.205,0.168-0.275,0.502-0.395,0.773c-0.536,0.027-0.776,0.439-0.945,0.841c-1.892,4.556-5.816,7.075-9.697,9.606
	c-1.671,1.09-2.925,2.772-5.021,3.67c3.884-7.389,7.324-14.736,12.969-20.696c0.308-0.331,0.707-0.58,1.074-0.853
	C225.785,329.186,225.677,329.391,226.732,332.253z M275.351,452.06c-0.94,0.188-1.884,0.356-2.826,0.517l0,0l-5.826,1.51
	c-0.646,0.235-1.305,0.476-2.001,0.729c0.172-0.604,0.438-0.963,0.75-1.175l0,0l0,0c0.168-0.112,0.344-0.185,0.531-0.228
	l6.077-2.592c2.697-1.897,5.355-3.845,7.73-6.147c0.555-0.54,0.999-0.661,1.541-0.372c1.153,0.61,2.047,0.293,2.857-0.595
	c0.519-0.569,1.104-0.592,1.585-0.024c1.037,1.227,2.049,2.481,2.995,3.777c0.753,1.032-0.359,1.092-0.863,1.336
	C283.938,450.709,279.594,451.195,275.351,452.06z M279.331,438.61c0.355,2.615-0.61,4.587-2.971,6.003
	c-2.827,1.694-5.557,3.522-7.864,5.914c-0.243,0.207-0.485,0.412-0.73,0.619l-0.022-0.029c-0.273-0.473,0.061-0.742,0.343-1.029
	c2.326-3.729,3.357-7.971,4.735-12.071c0.589-1.751,1.485-3.306,2.537-4.86c0.199,0.17,0.359,0.352,0.496,0.537l0.004-0.01
	l3.068,4.014C279.161,437.891,279.276,438.221,279.331,438.61z M486.493,261.3c-0.187-0.856,0.372-0.831,0.937-0.824
	c0.354,0.003,0.568-0.154,0.501-0.539c-0.081-0.41-0.359-0.61-0.733-0.791c-1.004-0.479-1.347-2.512-0.524-3.128
	c0.635-0.474,0.937,0.193,1.296,0.521c1.789,1.643,2.406,3.971,3.629,6.152c-1.539,0.367-2.786-0.083-4.054-0.335
	C486.953,262.237,486.618,261.884,486.493,261.3z M479.051,292.465c2.943,3.136,3.552,7.014,3.691,11.045
	C480.433,300.191,479.379,296.445,479.051,292.465z M529.69,122.068c3.98-6.587,7.888-13.221,11.807-19.846
	c0.192-0.325,0.297-0.679,0.705-0.744c0.351,0.196,0.684,0.375,1.01,0.571c15.166,9.149,29.174,19.791,41.711,32.33
	c2.667,2.664,2.615,2.595-0.845,3.855c-5.941,2.164-12.265,3.035-18.131,5.443c-1.772,0.728-3.719,1.344-5.04,2.631
	c-1.514,1.479-2.176,0.684-3.229-0.325c-8.276-7.902-17.416-14.691-27.116-20.715C529.015,124.309,528.779,123.575,529.69,122.068z
	 M500.562,108.067c3.688-6.756,7.34-13.534,11.031-20.289c0.211-0.384,0.312-1.126,1.131-0.86c2.157,0.942,4.309,1.906,6.479,2.824
	c6.537,2.766,12.823,6.034,19.049,9.426c1.536,0.836,2.036,1.494,0.93,3.267c-3.921,6.263-7.639,12.652-11.374,19.028
	c-0.65,1.109-1.087,1.4-2.354,0.649c-7.712-4.579-15.741-8.556-24.058-11.925C500.125,109.672,499.949,109.188,500.562,108.067z
	 M584.818,141.08c-0.489-0.485-0.884,0.153-1.286-0.035c-0.389,0.321-0.802,0.58-1.258,0.735l-4.974,2.901
	c-1.844,1.444-3.589,3.013-5.226,4.711c-0.318,0.329-0.657,0.672-0.855,1.076c-0.497,1.023-0.974,2.062-1.771,2.381l0.008,0.004
	c-2.216,1.339-4.845-0.497-4.854-0.503c-0.968-0.639-1.583-2.005-2.542-2.651c-1.092-0.736-0.6-1.132,0.288-1.736
	c3.563-2.427,7.718-3.175,11.762-4.114c0.15-0.036,0.303-0.081,0.457-0.121l9.273-3.341c0.192-0.094,0.401-0.174,0.636-0.229
	l0.021-0.008l-0.007,0.005c0.431-0.098,0.929-0.111,1.591,0.064c-5.471,7.141-7.569,15.684-11.042,23.611
	c-0.634-0.337-1.02-0.732-1.241-1.163l-2.488-3.205c-0.114-0.095-0.189-0.194-0.228-0.296l-0.011-0.009
	c-2.76-3.59,1.313-6.777,1.354-6.806c0.832-0.967,2.065-1.699,3.134-2.452C579.099,147.399,582.115,144.441,584.818,141.08z
	 M415.935,394.146c1.984,1.918,1.759,6.133-0.255,8.383C415.724,399.852,417.133,397.297,415.935,394.146z M430.169,321.791
	c0.872-0.941,2.291-1.346,3.11-0.566c1.61,1.539,3.015,0.715,4.52,0.17c0.65-0.235,1.263-0.587,2.07-0.254
	c-1.384,2.284-3.053,4.188-5.712,4.977c-0.433,0.13-0.994,0.432-1.309,0.277c-2.172-1.073-4.074-1.139-5.648,1.036
	c-0.16,0.223-0.731,0.745-1.109,0.087c-0.256-0.443-0.115-1.053,0.229-1.262C428.109,325.18,428.833,323.227,430.169,321.791z
	 M414.641,324.565c0.477,0.533,0.573,1.23,0.271,1.678c-0.438,0.636-1.059,0.229-1.563-0.169c-0.566-0.447-1.157-0.6-1.912-0.393
	c-4.058,1.109-6.418,0.023-8.845-4.025c0.863-0.537,1.732-0.461,2.519,0.066c1.493,0.998,2.872,0.823,4.135-0.34
	c1.213-1.115,2.173-0.656,3.064,0.386C413.098,322.689,413.83,323.661,414.641,324.565z M652.111,312.383
	c0.307,0.096,0.61,0.186,0.913,0.281c-0.768,5.528-2.23,10.905-3.619,16.293c-2.119,8.174-4.335,16.324-6.516,24.482
	c-0.008,0.022-0.015,0.043-0.021,0.064c-0.366,1.265-1.116,3.535-1.116,3.535h-0.001c-0.104,0.82-0.365,1.663-0.616,2.523
	c-1.804,6.074-3.696,12.113-5.905,18.057c-0.502,1.355-0.88,1.293-1.992,0.751c-6.843-3.335-13.697-6.655-20.616-9.829
	c-1.457-0.672-1.706-1.196-1.104-2.652c3.038-7.414,5.074-15.156,7.3-22.837c0.126-0.432,0.099-0.907,0.139-1.362
	c0.825-1.267,3.673-1.232,5.761,0.103c0.822,0.523,1.591,1.129,2.38,1.697c2.143,1.698,4.193,3.532,6.455,5.058
	c2.348,1.59,4.237,3.824,6.878,4.998l0.089-0.099c-3.309-4.508-7.61-7.999-11.873-11.535c-1.173-1.577-2.352-3.154-3.525-4.73
	c-0.317-0.424-0.754-0.806-0.924-1.28c-0.633-1.733-4.394-0.953-3.313-3.744c0.75-1.946,0.165-3.91,0.836-5.816
	c0.42-1.192,0.75-1.322,1.685-0.706c1.349,0.896,2.432,2.022,3.416,3.334c1.739,2.319,3.664,4.493,5.509,6.729
	c1.695,2.861,3.112,5.85,4.331,8.951c1.12,2.846,2.531,5.544,5.394,7.568c-2.227-6.755-4.93-12.936-8.789-18.566
	c-2.46-4.307-5.826-7.759-10.023-10.36c-0.805-0.499-0.935-0.722-0.765-1.677c0.365-2.084,0.398-4.228,0.566-6.344
	c0.01-0.434,0.019-0.863,0.026-1.297c0.034-0.445,0.065-0.891,0.093-1.339c1.319-0.097,2.642-0.192,3.963-0.287l0.728-0.034
	C635.941,312.337,644.022,312.361,652.111,312.383z M651.555,283.992c-6.226,0.045-12.451,0.008-18.677-0.001
	c-2.284,0.043-4.575,0.247-6.84,0.081c-1.448-0.105-2.304,0.168-2.529,1.153c0.021,0.98,0.036,1.96,0.055,2.94
	c0.112,3.079,0.136,6.158,0.125,9.237c0.011,3.07-0.013,6.137-0.125,9.208c-0.019,0.981-0.034,1.962-0.055,2.943
	c0.226,0.983,1.081,1.259,2.529,1.151c2.265-0.167,4.556,0.039,6.84,0.082c6.226-0.01,12.451-0.048,18.677-0.002
	c1.211,0.008,1.858-0.254,1.895-1.578c0.112-3.939,0.154-7.879,0.156-11.818c-0.002-3.938-0.044-7.878-0.156-11.817
	C653.413,284.248,652.766,283.984,651.555,283.992z M644.842,297.655c-2.095,0.896-3.888,0.517-5.728,0.613
	c-0.194,0.072-0.391,0.154-0.583,0.243c0.123,0.154,0.253,0.305,0.389,0.441c0.188,0.119,0.352,0.224,0.512,0.324
	c1.592,0.584,3.136,1.252,4.934,2.604c-0.257,0.022-0.503,0.029-0.74,0.027c0.122,0.076,0.243,0.158,0.37,0.242
	c-2.379-0.303-4.034-1.223-5.92-1.92c-0.477,0.1-0.044,0.642,0.111,1.158c0.433,1.446,1.91,2.433,2.048,4.306
	c0.053,0.106,0.107,0.208,0.165,0.319c-2.69-1.418-3.609-3.615-4.998-5.473c-0.486,1.051-0.383,2.248-0.733,3.33
	c-0.128,0.383-0.24,0.958-0.742,0.866c-0.201,0.353-0.449,0.696-0.766,1.022c-0.635-1.633-0.064-3.018,0.283-4.494
	c-0.063-0.104-0.132-0.205-0.199-0.305c-0.236-0.35-0.454-0.432-0.658-0.398c-1.026,0.723-1.972,1.555-3.407,1.341
	c0.129-0.104,0.259-0.207,0.391-0.312c-0.009,0.002-0.017,0.004-0.021,0.006c-0.351,0.057-0.8,0.102-0.946-0.394
	c-0.141-0.462,0.176-0.746,0.508-0.919c0.825-0.426,1.662-0.822,2.504-1.223c-1.562-0.764-3.268,0.045-4.444-1.624
	c-0.026,0-0.048,0.003-0.075,0.003c0.013-0.02,0.027-0.031,0.038-0.05c-0.011-0.019-0.025-0.032-0.038-0.049
	c0.027,0,0.053,0,0.075,0c1.177-1.668,2.883-0.857,4.444-1.625c-0.842-0.399-1.679-0.794-2.504-1.222
	c-0.332-0.173-0.648-0.455-0.508-0.917c0.146-0.496,0.596-0.45,0.946-0.392c0.005,0.002,0.013,0.003,0.021,0.005
	c-0.132-0.105-0.262-0.207-0.391-0.312c1.436-0.212,2.381,0.62,3.407,1.339c0.204,0.036,0.422-0.049,0.658-0.397
	c0.067-0.099,0.136-0.202,0.199-0.307c-0.348-1.477-0.918-2.86-0.283-4.492c0.316,0.326,0.564,0.668,0.766,1.022
	c0.502-0.091,0.614,0.484,0.742,0.868c0.351,1.08,0.247,2.278,0.733,3.329c1.389-1.857,2.308-4.054,4.998-5.473
	c-0.058,0.112-0.112,0.213-0.165,0.32c-0.138,1.872-1.615,2.86-2.048,4.305c-0.155,0.516-0.588,1.058-0.111,1.157
	c1.886-0.696,3.541-1.617,5.92-1.92c-0.127,0.084-0.248,0.164-0.37,0.242c0.237-0.002,0.483,0.006,0.74,0.029
	c-1.798,1.353-3.342,2.02-4.934,2.603c-0.16,0.101-0.323,0.206-0.512,0.323c-0.136,0.137-0.266,0.287-0.389,0.441
	c0.192,0.087,0.389,0.172,0.583,0.243c1.84,0.097,3.633-0.281,5.728,0.614c-0.503,0.107-0.984,0.189-1.459,0.266
	C643.857,297.464,644.339,297.548,644.842,297.655z M576.785,164.507c3.992-7.771,6.971-16.023,11.217-23.682
	c0.094-0.165,0.18-0.31,0.257-0.439c9.103,9.085,23.002,27.452,28.755,37.963c0.882,1.614,0.096,2.065-1.052,2.772
	c-5.845,3.597-12.051,6.618-17.433,10.958c-1.187,0.956-1.917,1.468-2.51,1.499c-0.119-0.146-0.229-0.327-0.355-0.536
	c-5.531-9.179-11.588-17.99-18.378-26.289C576.78,166.141,576.249,165.549,576.785,164.507z M617.014,416.43
	c-6.098,11.141-21.35,31.119-30.345,39.499c-4.008-5.579-6.359-11.771-9.247-17.679c-0.988-2.031-1.912-4.102-2.977-6.094
	c-0.535-0.996-0.29-1.603,0.401-2.403c7.034-8.151,13.291-16.867,18.823-26.101c1.813-3.018,2.132-3.152,4.859-0.954
	c5.382,4.34,11.588,7.361,17.433,10.959C617.109,414.363,617.896,414.814,617.014,416.43z M628.771,218.575l-16.692,7.935
	c0,0-1.137,0.581-0.42,2.523l0,0c0.11,0.402,0.31,0.916,0.585,1.604c2.034,5.069,3.502,10.322,5.143,15.517
	c0.18,0.579,0.636,1.318,0.41,2.013c0.339,1.187,0.679,2.373,1.021,3.557c0.126,0.433,0.099,0.909,0.139,1.366
	c0.825,1.265,3.673,1.231,5.761-0.104c0.822-0.523,1.591-1.129,2.38-1.698c2.143-1.698,4.193-3.531,6.455-5.057
	c2.406-1.629,4.327-3.938,7.076-5.087l0.022,0.013c-3.323,4.596-7.69,8.128-12.005,11.708c-1.173,1.579-2.352,3.155-3.525,4.732
	c-0.317,0.424-0.754,0.805-0.924,1.281c-0.633,1.733-4.394,0.952-3.313,3.744c0.75,1.944,0.165,3.908,0.836,5.814
	c0.42,1.194,0.75,1.324,1.685,0.708c1.349-0.896,2.438-2.022,3.416-3.335c1.739-2.317,3.664-4.495,5.509-6.729
	c1.695-2.86,3.112-5.848,4.331-8.951c1.12-2.845,2.531-5.545,5.394-7.568c-2.227,6.755-4.93,12.935-8.789,18.567
	c-2.46,4.307-5.826,7.76-10.023,10.36c-0.805,0.499-0.935,0.723-0.765,1.678c0.365,2.082,0.398,4.227,0.566,6.342
	c0.01,0.433,0.019,0.864,0.026,1.296c0.034,0.446,0.065,0.892,0.093,1.339c1.319,0.096,2.642,0.192,3.963,0.288l0.728,0.033
	c8.089-0.024,16.174-0.047,24.259-0.069c0.307-0.095,0.61-0.186,0.913-0.281c-0.768-5.527-2.23-10.907-3.619-16.292
	c-2.119-8.175-4.335-16.327-6.516-24.482c0,0-0.889-3.148-1.482-5.183c-0.081-0.287-0.167-0.577-0.255-0.87
	c-0.022-0.074-0.044-0.144-0.061-0.21v0.002c-1.787-6.028-3.667-12.02-5.859-17.919c-0.504-1.354-0.882-1.292-1.994-0.752
	C631.754,217.132,630.263,217.854,628.771,218.575z M640.682,241.172c-0.017,0.007-0.033,0.016-0.05,0.023
	c0.011-0.01,0.019-0.022,0.033-0.032L640.682,241.172z M633.521,382.327c-4.07,10.241-8.857,20.132-14.226,29.749
	c-0.432,0.768-0.667,1.282-1.807,0.555c-6.558-4.166-13.205-8.188-19.803-12.283c-0.522-0.325-1.334-0.473-1.319-1.252
	c0.326-0.647,0.592-1.191,0.876-1.727c4.538-8.533,8.751-17.223,12.432-26.158c0.496-1.207,0.924-1.582,2.208-0.963
	c6.886,3.322,13.801,6.582,20.723,9.82C633.717,380.586,634.009,381.098,633.521,382.327z M196.211,327.928
	c-0.002-0.001-0.002-0.002-0.008-0.002c0.002-0.005,0.002-0.008,0.002-0.012L196.211,327.928z M562.22,443.209h-0.002
	c2.072-2.46,5.102-0.611,5.102-0.611c3.767,4.703,7.864,8.855,14.221,11.303c-2.143-3.232-4.302-5.594-6.934-7.535
	c-1.478-1.09-2.964-2.16-4.413-3.284c-1.672-1.294-2.274-3.06-1.896-5.097c0.055-0.292,0.082-0.707,0.212-1.04
	c0.002-0.009,0.803-2.384,3.33-4.05v0.002c0.125-0.096,0.266-0.187,0.431-0.268c4.549,6.775,5.025,15.678,11.261,22.151
	c-2.313,0.001-3.761-0.991-5.35-1.443c-5.215-1.489-10.448-2.924-15.597-4.63c-3.92-1.298-3.744-1.377-1.315-4.521
	C561.589,443.771,561.902,443.447,562.22,443.209z M538.431,493.008c0.521,0.879,0.606,1.324-0.502,1.981
	c-8.172,4.854-16.788,8.794-25.477,12.597c-1.083,0.477-1.563,0.236-2.088-0.824c-3.301-6.686-6.69-13.33-10.035-19.995
	c-0.424-0.837-0.798-1.538,0.586-2.075c8.224-3.186,16.032-7.215,23.545-11.826c0.383-0.236,0.799-0.418,1.226-0.641
	c0.644,0.027,0.803,0.574,1.069,1.023C530.642,479.839,534.523,486.43,538.431,493.008z M575.226,455.188
	c3.198,0.827,6.376,1.735,9.781,2.666c-8.417,9.07-17.322,17.023-26.976,24.162c-5.018,3.713-10.314,6.993-15.459,10.514
	c-1.222,0.837-1.902,0.765-2.661-0.561c-3.744-6.527-7.526-13.036-11.373-19.504c-0.727-1.221-0.466-1.84,0.634-2.5
	c9.873-5.926,18.884-12.98,27.283-20.836c0.486-0.454,0.838-1.027,1.697-0.422C563.278,452.33,569.292,453.658,575.226,455.188z
	 M473.78,514.902c-8.979,6.172-18.509,10.239-28.817,12.326l0,0c-0.563,0.112-1.129,0.223-1.697,0.326
	c-0.598,0.107-1.197,0.213-1.798,0.307c-0.231,0.037-0.416,0.051-0.568,0.047c-0.654-0.025-0.663-0.428-0.663-1.154
	c0.009-8.988,0.009-17.978-0.021-26.966c0-0.433,0.061-0.728,0.238-0.921c0.176-0.189,0.464-0.279,0.924-0.298
	c0.564-0.022,1.123-0.064,1.684-0.11c0.075-0.006,0.154-0.013,0.226-0.021c2.557-0.229,5.092-0.678,7.611-1.181
	c0.871-0.173,1.45,0.002,1.932,0.758C457.837,505.902,465.199,510.904,473.78,514.902z M519.361,473.799l0.009-0.002
	c0,0,0.006-0.007,0.012-0.009c7.309-4.079,14.346-8.626,21.022-13.743c25.132-19.254,45.133-42.832,59.226-71.346
	c7.425-15.024,13.308-30.57,17.478-46.786c0.055-0.218,0.023-0.458,0.031-0.688c2.007-9.896,3.74-19.828,4.079-29.953
	c0.017-0.545,0.046-1.098,0.284-1.597c0.044-0.801,0.084-1.604,0.121-2.405c0.119-2.555,0.152-5.113,0.165-7.672
	c0-0.737,0-1.473,0-2.208c0-0.737,0-1.472,0-2.208c-0.013-2.56-0.046-5.118-0.165-7.671c-0.037-0.804-0.077-1.604-0.121-2.407
	c-0.238-0.5-0.268-1.052-0.284-1.597c-0.339-10.123-2.072-20.055-4.079-29.952c-0.008-0.231,0.023-0.471-0.031-0.689
	c-4.17-16.214-10.053-31.762-17.478-46.786c-14.093-28.513-34.094-52.091-59.226-71.347c-6.677-5.115-13.714-9.663-21.022-13.742
	c-0.006-0.001-0.012-0.008-0.012-0.008l-0.009-0.002c-2.139-1.193-4.303-2.344-6.487-3.46c-5.002-2.502-10.109-4.784-15.41-6.636
	c-0.868-0.303-1.679-0.707-2.12-1.625c-2.188-4.593-4.866-8.898-7.582-13.186c-0.236-0.336-0.475-0.673-0.711-1.011
	c-3.414-4.833-7.067-9.454-11.368-13.536c-0.309-0.295-0.667-0.845-1.072-1.065c0.036-0.034,0.075-0.069,0.111-0.102
	c-2.668-2.17-5.613-3.902-8.707-5.373c-7.915-3.763-16.124-6.526-24.871-7.659c-1.428-0.186-1.69-0.117-1.683,1.271
	c0.055,8.61,0.097,17.223,0.011,25.833c-0.017,1.653,0.634,2.156,2.057,2.164c2.852,0.018,5.694,0.439,8.4,1.139
	c2.128,0.55,3.146-0.261,4.157-1.715c2.203-3.169,4.79-5.976,7.923-8.241c3.929-2.843,7.925-5.586,12.532-7.263
	c-2.17,3.279-5.608,5.094-8.671,7.288c-4.083,2.918-7.571,6.359-10.67,10.27c-0.218,0.275-0.352,0.512-0.414,0.717
	c0.132,0.072,0.295,0.14,0.481,0.215c1.404,0.554,2.552,0.804,3.616,0.705c0.019,0.001,5.494,0.181,8.103-4.945
	c0.234-0.248,0.441-0.579,0.617-1.016c0.576-1.411,1.307-2.759,1.996-4.122c0.94-1.854,1.708-3.826,3.328-5.385
	c0.027,0.22,0.083,0.371,0.086,0.481c0.068,0.406-0.047,0.749-0.23,1.087c-1.273,3.348-2.835,6.537-4.639,9.594
	c-0.083,0.388-0.148,0.778-0.196,1.181c-0.019,0.174-0.224,0.443-0.379,0.471c-0.228,0.041-0.407,0.093-0.556,0.147
	c-0.182,0.189-0.357,0.378-0.537,0.567c0.027,0.416,0.634,0.873,0.893,1.091c1.691,1.406,3.552,2.504,5.815,2.925
	c2.628,0.488,5.241,1.127,7.624,2.433c2.498,0.842,4.853,2.027,6.583,4.282c-2.385-0.872-4.764-1.772-7.162-2.608
	c-0.468-0.164-0.944-0.306-1.421-0.439l0.002-0.004c-0.029-0.005-0.061-0.014-0.092-0.021c-1.305-0.359-2.637-0.629-3.987-0.873
	c-1.122-0.235-2.341-0.483-3.623-0.737c-0.019-0.019-0.033-0.037-0.05-0.052c-0.006,0.013-0.006,0.026-0.006,0.04
	c-5.396-1.073-11.841-2.273-16.392-3.11c-0.897-0.209-1.821-0.351-2.732-0.498c-1.888-0.344-3.061-0.554-3.061-0.554l0.009,0.007
	c-12.297-2.243-24.721-2.551-37.178-1.53c-5.451,0.447-10.861,1.198-16.23,2.236l0.001-0.005c0,0-17.74,2.695-23.515,4.534
	l-0.004,0.001c-2.46,0.484-4.827,1.362-7.223,2.489c0.121-1.34,0.982-1.866,1.88-2.404c2.517-1.512,5.324-2.199,8.152-2.725
	c2.258-0.42,4.12-1.517,5.813-2.925c0.443-0.369,1.882-1.429-0.202-1.805c-0.157-0.027-0.36-0.296-0.381-0.471
	c-0.487-4.437-3.361-7.847-5.046-11.767c-0.049-0.115,0.028-0.283,0.066-0.576c1.622,1.56,2.388,3.53,3.332,5.386
	c0.688,1.362,1.422,2.711,1.992,4.121c0.212,0.522,0.465,0.897,0.762,1.151l0,0c0,0,1.45,3.091,7.151,4.67v-0.002
	c1.298,0.356,2.656,0.135,4.423-0.563c0.808-0.318,1.125-0.51,0.612-1.375c-0.865-1.459-1.831-2.727-3.29-3.729
	c-2.58-1.777-4.486-4.332-6.871-6.377c-2.85-2.443-6.262-4.119-8.877-6.871c-0.809-0.848-1.467,0.376-1.989,0.874
	c-4.298,4.082-7.948,8.704-11.368,13.537c-3.169,4.484-6.231,9.025-8.732,13.925c-1.065,2.086-3.374,2.121-5.157,2.897
	c-14.026,6.124-27.33,13.555-39.464,22.848c-25.129,19.256-45.133,42.833-59.225,71.347c-7.426,15.024-13.305,30.571-17.477,46.785
	c-0.057,0.218-0.021,0.46-0.031,0.69c-2.007,9.897-3.742,19.828-4.077,29.952c-0.021,0.684-0.061,1.381-0.504,1.966l-0.068,3.588
	c0.039,6.07-0.109,12.15,0.163,18.208c0.16,3.611,0.403,7.218,0.717,10.82l-0.006-0.001c0,0-0.995,9.796,6.386,32.098l0.004-0.001
	c3.931,13.895,8.772,27.458,15.512,40.283c7.635,14.531,16.438,28.271,27.488,40.534c9.112,10.112,18.383,20.026,29.258,28.285
	c13.082,9.929,27.057,18.327,42.479,24.131c2.698,1.016,4.66,2.552,6.103,5.101c4.456,7.871,9.432,15.398,15.479,22.165
	c0.97,1.084,1.838,2.403,3.052,3.083c1.564,0.877,2.225-1.139,3.306-1.766c5.991-3.457,11.521-7.555,16.113-12.791
	c0.746-0.846,1.976-2.104,1.404-2.87c-0.539-0.722-1.562-1.21-2.557-1.28l0,0l-6.294-1.067l-0.009,0.003
	c-3.198-0.647-6.478-1.021-9.651-1.699l-0.832-0.102c-5.427-1.113-10.703-2.531-14.458-7.084c5.181,2.502,10.432,4.759,16.157,5.908
	c-0.01,0.016-0.021,0.027-0.031,0.041c2.413,0.493,4.888,0.828,7.329,1.253c3.352,0.833,9.359,2.013,9.359,2.013v-0.007
	c4.114,0.915,8.291,1.426,12.478,1.87c2.474,0.326,4.951,0.465,7.433,0.648c5.031,0.252,10.075,0.138,15.109,0.303
	c2.864-0.086,5.729-0.246,8.597-0.482c0.453-0.038,0.907-0.081,1.356-0.123v-0.002c1.967-0.18,3.928-0.4,5.885-0.656
	c0.224-0.028,0.455-0.06,0.679-0.092c1.671-0.225,3.335-0.476,4.997-0.758c6.672-1.047,17.965-2.949,26.267-5.029
	c1.712-0.293,3.378-0.781,5.034-1.414l0.002-0.002l0,0c0.919-0.352,1.833-0.748,2.753-1.179c-0.121,1.34-0.982,1.868-1.879,2.403
	c-2.516,1.512-5.325,2.201-8.149,2.726c-2.264,0.42-4.124,1.518-5.815,2.926c-0.443,0.368-1.882,1.431,0.2,1.804
	c0.155,0.029,0.36,0.298,0.379,0.473c0.491,4.438,3.361,7.847,5.049,11.766c0.046,0.115-0.03,0.285-0.069,0.576
	c-1.62-1.559-2.388-3.528-3.328-5.386c-0.689-1.36-1.42-2.71-1.996-4.12c-0.224-0.553-0.491-0.941-0.81-1.195
	c-2.59-6.24-9.503-4.673-9.503-4.673l0,0c-0.619,0.118-1.286,0.319-2.023,0.612c-0.805,0.318-1.121,0.508-0.608,1.375
	c0.865,1.459,1.831,2.727,3.286,3.73c2.581,1.775,4.488,4.331,6.871,6.375c2.852,2.443,6.264,4.119,8.883,6.871
	c0.803,0.848,1.463-0.375,1.983-0.873c4.301-4.082,7.954-8.705,11.368-13.537c3.171-4.484,6.231-9.027,8.736-13.924
	c1.064-2.089,3.372-2.121,5.151-2.898C507.238,480.145,513.393,477.127,519.361,473.799z M381.356,499.919
	c-2.802,4.357-4.585,9.374-8.538,12.935C375.526,508.426,377.94,503.838,381.356,499.919z M563.598,334.788
	c-0.799-9.446,6.694-12.788,12.805-13.328c6.733-0.596,13.26,0.43,19.519,3.052c0.266,0.111,0.575,0.116,1.204,0.238
	c-0.819-1.561-2.025-2.143-3.088-2.846c-5.354-3.551-11.169-6.104-17.627-6.34c-11.441-0.418-20.063,4.695-22.332,16.064
	c-2.888,14.496,5.817,25.01,17.639,28.327c9.315,2.617,18.493,1.489,27.333-2.337c3.069-1.33,5.591-3.43,7.403-6.488
	c0.902,1.09,0.321,2.143,0.09,3.085c-1.94,7.86-5.532,14.726-12.484,19.297c-11.272,7.403-27.578,4.208-35.972-6.783
	c-5.414-7.093-8.035-15.25-9.691-23.837c-1.116-5.779-1.166-11.615-0.635-17.432c0.673-7.327-0.036-14.502-1.594-21.654
	c-0.301-1.377-0.953-1.329-1.948-1.111c-3.64,0.801-6.913,2.336-9.764,4.759c-0.561,0.477-0.981,1.24-2.076,0.935
	c2.31-3.667,5.561-6.174,9.217-8.232c9.226-5.196,19.02-8.345,29.729-7.739c9.593,0.544,18.607,3.13,25.949,9.585
	c7.754,6.814,10.377,15.789,9.514,25.894c-0.642,7.509-3.667,13.796-9.714,18.478c-8.472,6.563-23.262,6.061-30.095-1.049
	c-2.189-2.281-3.644-4.908-3.366-8.229C563.675,336.332,563.665,335.553,563.598,334.788z M486.508,266.475
	c0.42,4.693,2.834,8.578,5.004,12.559c4.582,8.407,12.152,13.593,20.064,18.327c4.568,2.735,8.297,6.061,9.491,11.447
	c1.052,4.751,0.577,9.503-0.581,14.474c-0.896-1.513-0.736-3.038-1.226-4.369c-2.513-6.854-6.342-12.855-12.752-16.539
	c-6.695-3.841-11.796-9.196-16.414-15.179c-0.977-1.267-2.082-2.43-3.18-3.698c-1.367,1.653-2.608,3.28-3.99,4.77
	c-0.619,0.668-0.37,0.926,0.108,1.436c3.116,3.348,3.873,7.499,3.898,11.863c0.04,6.804,2.313,9.752,8.938,11.499
	c0.641,0.169,1.418-0.052,1.893,0.642c-8.364,1.004-14.645-3.836-20.397-15.811c-0.896,1.376-0.99,2.928-1.294,4.336
	c-0.466,2.158-1.005,4.247-1.948,6.252c-0.562,1.182-0.748,2.523-0.431,3.809c0.143,0.559,0.318,1.488,1.279,1.268
	c0.83-0.189,1.334-0.851,1.219-1.687c-0.131-0.938-0.486-1.842-0.349-3.046c2.135,1.913,4.164,3.965,6.426,5.718
	c4.595,3.56,6.6,8.374,7.549,13.923c0.991,5.779,2.784,11.351,5.346,16.648c1.816,3.754,3.836,7.424,5.45,11.264
	c3.478,8.272,5.707,16.854,5.979,25.901c0.127,4.282-0.588,8.345-2.218,12.46c-0.63-0.958-0.383-1.914-0.421-2.818
	c-0.039-0.921-0.057-1.844-0.092-2.765c-0.33-8.667-3.259-16.651-6.445-24.567c-3.072-7.641-6.921-14.939-9.719-22.713
	c-1.873-5.201-2.297-10.698-3.858-15.953c-1.131-3.798-2.831-7.188-5.588-10.039c-0.301-0.313-0.491-0.861-1.064-0.476
	c-0.514,0.342-0.612,0.813-0.416,1.407c0.542,1.622,1.05,3.257,1.426,4.954c-2.262-3.187-5.592-5.456-7.335-9.03
	c-4.688,4.183-5.619,7.875-0.645,12.498c5.958,5.536,9.262,12.646,10.955,20.446c1.145,5.264-0.515,10.386-1.815,15.47
	c-0.231-1.946,0.009-3.862,0.18-5.797c0.667-7.6-2.372-13.844-7.297-19.347c-0.973-1.089-2.039-2.093-3.08-3.118
	c-6.208-6.116-6.495-14.607-0.702-21.066c0.771-0.856,1.508-1.756,2.355-2.531c2.597-2.379,3.716-5.453,3.684-8.813
	c-0.048-5.092,1.829-9.138,5.573-12.492c2.404-2.154,4.683-4.53,5.325-7.836c0.625-3.239,0.484-6.465-0.45-9.727
	c-1.783-6.229-1.881-12.485,0.687-18.595c0.114-0.266,0.301-0.498,0.459-0.75c4.068,3.965,6.35,9.078,9.48,13.602
	c7.108,10.267,16.563,17.521,28.828,20.535c3.146,0.771,6.56,0.465,10.396,0.686c-5.403,2.093-10.534,2.239-15.615,1.693
	c-10.76-1.159-18.433-7.157-24.037-16.124c-0.244-0.388-0.633-0.771-0.673-1.188c-0.412-4.104-3.398-4.671-6.662-5.074
	C486.552,265.058,486.407,265.366,486.508,266.475z M490.966,410.505c-1.927,3.433-3.877,6.854-5.04,10.726
	C486.035,416.936,487.176,413.07,490.966,410.505z M471.907,414.625c1.972,3.152,3.157,6.574,3.312,10.256
	c0.366,8.648,0.021,17.188-5.418,24.545c-2.426,3.276-5.421,5.883-9.726,7.045C470.439,444.279,474.441,430.392,471.907,414.625z
	 M464.685,395.12c0.843,3.226,1.028,6.582,1.951,9.788C464.729,401.899,464.373,398.576,464.685,395.12z M466.796,405.692
	c-0.012-0.036,0.047-0.093,0.071-0.142c0.046,0.003,0.108-0.013,0.13,0.01c0.039,0.035,0.077,0.11,0.061,0.144
	C466.97,405.902,466.867,405.896,466.796,405.692z M472.997,380.433c-1.07,1.594-2.309,3.044-4.349,3.807
	c1.021-4.736,1.9-9.379,1.307-14.15c-0.901-7.21-4.402-12.7-10.736-16.317c-1.644-0.939-3.529-1.467-4.886-2.889
	c-0.945-0.994-1.154,0.095-1.405,0.576c-2.044,3.921-2.872,8.043-0.398,11.973c4.241,6.734,4.636,13.839,2.092,21.051
	c-3.614,10.26-1.787,19.736,3.188,28.961c0.244,0.447,0.656,0.875,0.426,1.732c-1.574-1.287-2.819-2.729-3.858-4.312
	c-3.401-5.187-6.856-10.421-6.473-16.992c0.187-3.185,1.017-6.328,1.361-9.512c0.537-4.958,0.297-9.862-0.288-14.864
	c-0.406-3.496-0.06-7.21-0.188-10.844c-0.155-4.252,1.329-8.094,4.509-11.135c1.052-1.008,1.965-2.141,2.91-3.254
	c4.767-5.626,5.027-11.883,2.685-18.483c-2.963-8.348-8.266-15.53-11.847-23.603c0.365-0.328,0.637-0.049,0.875,0.27
	c5.516,7.471,10.741,15.159,13.557,24.09c1.857,5.903,1.64,11.124-3.133,18.365c9.675,4.589,14.146,13.232,17.524,22.688
	C477.604,372.443,475.616,376.533,472.997,380.433z M435.397,384.239c-3.742,3.142-7.655,6.12-8.645,11.397
	c-0.284,1.505,0.004,2.895,0.196,4.723c-2.694-2.308-3.165-5.258-3.854-8.847c-4.898,11.003-5.947,21.373-0.41,31.942
	c-2.28-1.435-4.122-3.293-5.543-5.516c-3.313-5.204-5.133-10.648-2.944-16.895c1.556-4.443,0.049-8.412-2.585-12.078
	c-0.145,2.44,0.715,4.855-0.183,7.27c-0.896,2.412-2.581,4.143-4.678,5.922c4.308-8.928,3.596-15.336-2.153-19.41
	c-0.406,1.959-0.069,3.943-0.968,5.772c-0.848,1.729-1.903,3.263-3.339,4.62c0.563-1.24,1.223-2.447,1.672-3.728
	c1.27-3.632,0.282-6.933-1.751-9.987c-2.725-4.098-1.506-7.176,3.67-8.683c-0.771,3.303-1.565,6.595,1.777,9.431
	c0.113-3.159,1.468-5.227,4.351-6.555c-0.533,2.196-0.533,4.229-0.571,6.267c-0.043,2.152,0.79,3.903,2.21,5.875
	c0.359-2.626-0.508-5.261,1.88-7.149c1.129,3.197,1.43,6.449,1.932,9.659c0.092,0.589-0.396,1.593,0.725,1.577
	c0.837-0.014,0.962-0.926,1.083-1.557c0.498-2.596,0.891-5.217,2.19-7.703c1.061,1.675,0.489,3.413,0.613,5.063
	c0.077,1.07,0.017,2.153,0.015,3.229c0,0.767-0.13,1.663,0.948,1.776c1.299,0.143,1.24-1.029,1.266-1.74
	c0.1-2.582,0.039-5.17,0.039-8.319c2.563,2.88,2.417,6.282,4.019,9.614c1.082-4.076,0.48-7.858,1.798-11.359
	c2.257,1.36,1.902,3.969,2.749,6.676c1.423-4.018,0.706-7.545,0.317-11.059c2.793,0.843,3.847,2.406,4.334,6.43
	c2.224-2.219,2.521-5.646,0.775-8.943c3.614-0.381,6.407,3.245,5.79,7.117c-0.886,5.571-2.122,11.074-2.766,16.693
	c-0.75,6.593,0.561,12.717,3.337,18.634c0.309,0.657,0.873,1.234,0.794,2.286c-6.995-5.895-6.759-13.703-6.347-21.584
	c-1.102,0.133-1.424,1.089-1.635,1.772c-1.347,4.333-2.35,8.693-0.721,13.224c1.417,3.934,2.63,8.028,5.276,11.285
	c4.011,4.928,9.083,8.53,15.223,10.475c0.42,0.135,0.809,0.374,1.52,0.709c-2.908,1.154-5.494,0.484-8.04-0.141
	c-8.284-2.029-12.509-8.304-15.541-15.503c-2.26-5.354-2.726-11.052-1.619-16.831c0.708-3.693,2.427-6.978,3.972-10.332
	c0.715-1.548,1.107-3.152,1.156-4.83C436.758,383.984,436.413,383.389,435.397,384.239z M395.588,378.23
	c0.21,2.843-1.354,5.084-2.861,7.293c-3.13,4.604-6.29,9.219-7.246,14.845c-1.214,7.153-1.062,14.16,3.447,20.653
	c-3.202-1.365-6.992-5.626-8.096-9.063c-1.275-3.972-0.891-8.042-0.414-12.083c0.493-4.17,2.822-7.574,4.897-11.141
	c-4.902,2.415-8.942,5.693-11.418,10.684c0.731-5.346,3.977-8.918,8.17-11.838c2.82-1.961,5.694-3.863,7.883-6.584
	c1.894-2.348,3.188-4.884,3.425-8.002c0.148-1.969,1.4-3.596,3.063-5.625c0.103,2.121,0.148,3.529-0.176,4.979
	C395.826,374.271,395.439,376.205,395.588,378.23z M395.078,276.367c-1.079-1.207-2.149-1.387-3.708-0.536
	c-4.061,2.211-11.214,1.606-14.431-3.158c-1.353-2.007-2.864-3.93-5.603-5.286c2.352-0.718,3.871-0.311,5.274,0.674
	c1.453,1.022,2.973,1.268,4.762,1.049c3.443-0.422,6.932-0.65,9.488,2.5c0.17,0.211,0.542,0.467,0.745,0.414
	c3.51-0.908,5.143,1.755,6.983,3.782c1.882,2.076,2.739,4.64,3.106,7.471c0.397,3.073,0.344,6.125,0.302,9.195
	c0.152,1.269,0.363,2.544-0.619,3.896c-0.322-1.164-0.317-2.105-0.143-3.061c-0.338-5.044-0.968-10.017-3.924-14.333
	C396.667,278.036,395.842,277.22,395.078,276.367z M449.218,232.303c0.029,0.006,0.057,0.012,0.087,0.018
	c-0.019,0.009-0.043,0.018-0.058,0.026c0.013,0.022,0.024,0.046,0.039,0.068c-0.077,0.003-0.146,0.008-0.222,0.012
	c-1.679,0.738-3.38,1.436-5.021,2.264c-5.858,2.961-8.936,9.184-7.34,15.001c1.275,4.647,5.055,6.597,9.184,8.023
	c1.109,0.383,2.326,0.458,3.447,0.828c-5.269,0.202-10.626,0.342-14.302-4.391c-2.949-3.79-2.128-11.385,1.596-15.805
	c3.215-3.813,7.459-5.717,12.436-5.92c0.059-0.027,0.122-0.053,0.183-0.08C449.238,232.333,449.228,232.318,449.218,232.303z
	 M462.952,260.083c3.231,1.632,6.646,1.465,10.089,1.146c1.335-0.125,2.669-0.174,4.281-0.274c-4.997,4.555-9.414,5.153-14.559,1.91
	c-6.752-4.257-12.798-0.382-15.898,3.567c-0.55,0.704-1.024,1.469-1.804,2.604c-0.273-3.243,1.402-5.015,3.275-6.424
	C452.729,259.312,457.471,257.315,462.952,260.083z M453.936,232.195c0.08-0.083,0.161-0.168,0.244-0.252
	c0.132,0.05,0.258,0.095,0.392,0.14c-0.08,0.086-0.155,0.238-0.238,0.242C454.205,232.335,454.069,232.245,453.936,232.195z
	 M471.55,231.879c3.006,5.389,6.592,10.25,12.644,12.664c2.239,0.892,4.576,1.215,6.907,1.482c4.551,0.523,7.439,3.263,9.741,6.87
	c1.602,2.511,2.507,5.359,3.757,8.041c2.815,6.042,7.101,10.601,13.443,13.018c3.099,1.203,6.412,1.559,9.585,2.53
	c-3.757,0.173-7.498,0.249-10.979-1.577c-7.187-2.073-11.735-7.138-15.208-13.421c-0.809-1.465-1.618-2.93-2.373-4.424
	c-1.908-3.782-4.964-5.961-9.036-7.096c-11.178-3.116-18.094-10.755-22.055-21.359c-1.092-2.928-0.847-6.014-0.782-9.322
	c2.221,2.046,3.94,4.244,5.592,6.485c4.948,6.708,11.852,10.34,19.645,12.605c2.768,0.806,5.55,1.57,8.287,2.474
	c7.084,2.337,12.342,6.872,15.872,13.431c1.466,2.729,3.034,5.415,3.711,8.491c0.368,0.119,0.481,0.488,0.273,0.674
	c-0.296,0.26-0.4-0.223-0.61-0.353c-2.15-3.327-4.245-6.696-6.468-9.975c-5.038-7.427-12.467-11.161-20.867-13.367
	c-1.826-0.478-3.61-1.1-5.429-1.607c-7.302-2.041-12.598-6.565-16.297-13.094c-0.621-1.101-1.357-2.136-2.338-3.664
	C468.401,225.618,469.849,228.828,471.55,231.879z M445.547,276.365c-4.61,3.316-6.491,8.062-7.001,13.492
	c-0.124,1.291-0.02,2.604-0.02,3.994c-1.109-2.285-1.21-5.716-0.224-9.172c0.642-2.251,1.359-4.483,2.082-6.71
	c1.083-3.354,3.366-5.338,6.874-5.814c0.767-0.105,1.591-0.022,2.137-0.657c1.87-2.169,4.362-2.282,6.938-2.217
	c2.655,0.069,5.278,0.257,7.644-1.542c1.005-0.764,2.489-0.945,4.404-0.579c-2.854,1.476-4.1,3.872-5.768,5.909
	c-3.084,3.771-9.286,5.121-14.021,2.935C447.281,275.399,446.498,275.681,445.547,276.365z M444.224,377.655
	c-0.345-3.087-0.674-6.022-1.002-8.988C446.537,371.085,446.997,374.896,444.224,377.655z M444.088,248.065
	c1.133,3.836,4.036,5.88,7.674,7.218c-4.562,0.28-8.535-2.845-9.482-7.556c-1.235-6.155,1.202-12.044,7.446-14.079
	c0.984-0.902,2.19-1.165,4.053-1.467c-1.325,1.051-2.249,1.485-3.34,1.584C443.837,237.029,442.651,243.236,444.088,248.065z
	 M435.125,270.762c-2.46,3.287-2.121,7.042-2.731,10.581c-1.242-1.594-1.731-8.133-0.669-9.736
	C432.489,270.455,433.673,270.701,435.125,270.762z M437.388,319.162c0.99,0.734,4.576-0.949,5.467-2.49
	c0.93-1.611,0.79-3.514,1.481-5.326c1.037,5.277-0.953,9.523-3.873,13.496c-1.746,2.377-4.136,3.805-7.048,3.656
	c-4.498-0.229-7.74,2.021-10.652,4.928c-1.184,1.18-1.953,1.114-3.023,0.042c-0.698-0.701-1.589-1.212-2.284-1.916
	c-2.051-2.077-4.405-2.87-7.402-2.837c-6.642,0.076-9.583-2.553-12.061-11.05c-0.368-1.265-0.735-2.643-0.345-4.068
	c1.008,0.612,0.742,1.781,1.179,2.634c1.568,3.064,4.642,4.045,7.449,2.257c2.911-1.853,5.297-1.579,7.815,0.897
	c4.079,4.012,9.321,4.121,13.661,0.289C431.434,316.426,433.562,316.313,437.388,319.162z M408.976,281.96
	c-0.755-4.041-0.015-8.009-2.613-11.155c2.822-0.202,3.865,0.619,3.985,3.162C410.473,276.54,410.363,279.089,408.976,281.96z
	 M396.521,258.636c-1.609,0.078-3.224,0.012-4.855-0.151c2.215-0.225,4.39-0.53,6.507-1.192c8.535-2.669,11.09-12.378,4.982-19.003
	c-2.723-2.957-6.071-5.018-9.671-6.756c5.496,1.246,10.396,3.621,13.479,8.546C412.181,248.414,406.646,258.144,396.521,258.636z
	 M399.023,239.039c2.552,3.494,2.185,7.354,0.156,10.94c-1.892,3.351-4.923,5.173-8.826,5.357c1.604-0.662,3.013-1.671,4.409-2.668
	c6.263-4.473,6.14-11.639-0.209-16.394c-2.663-1.995-5.594-3.459-8.648-4.714C391.178,232.482,395.814,234.638,399.023,239.039z
	 M395.768,265.198c0.571,1.042,0.861,2.239,1.396,3.677c-1.366-0.359-1.634-1.242-2.079-1.912c-3.227-4.87-9.765-8.431-16.899-4.061
	c-5.632,3.448-9.957,2.859-15.474-1.834c1.822,0,3.411-0.232,4.899,0.045c4.457,0.821,8.582,0.018,12.746-1.629
	C385.937,257.277,392.917,259.99,395.768,265.198z M413.29,349.293c3.293-1.844,7.05-3.292,7.666-8.029
	c1.537,5.732,6.966,6.734,10.725,9.547c4.1,3.066,8.324,6.072,13.698,7.93c-2.893,0.598-5.138-0.395-7.379-1.053
	c-2.722-0.803-5.227-2.156-7.444-3.906c-2.774-2.192-5.929-3.732-8.88-5.612c-0.672-0.431-0.982-0.222-1.554,0.132
	c-3.309,2.047-6.556,4.163-9.702,6.461c-3.825,2.791-8.27,4.079-13.042,4.302C403.243,356.657,407.868,352.327,413.29,349.293z
	 M599.665,248.585c1.994-3.249,3.543-6.716,5.362-10.32c7.034,21.269,10.854,42.807,10.379,65.433
	c-7.105-11.895-16.688-20.317-29.012-25.64c-6.472-2.796-13.157-5.088-19.436-8.333c-10.293-5.318-17.486-13.37-21.379-24.319
	c-0.152-0.427-0.35-0.859-0.393-1.299c-0.17-1.903-0.744-3.776-0.368-5.944c2.101,3.157,3.992,6.282,6.16,9.201
	c3.909,5.265,8.218,10.22,14.527,12.669C577.174,264.563,591.719,261.572,599.665,248.585z M594.31,210.524
	c1.912,5.001,3.867,10.02,3.472,15.482c-0.782,10.851-6.95,16.381-16.54,16.934c-11.169,0.647-18.111-5.898-21.208-15.887
	c-2.845-9.182-6.628-17.781-12.676-25.287c-6.74-8.372-14.901-14.619-25.724-16.77c-3.564-0.708-7.166-0.665-11.274-0.55
	c1.752-1.97,3.542-2.296,5.487-2.398c12.46-0.665,23.777,2.854,34.438,9.085c7.421,4.337,14.629,9.047,22.385,12.798
	c6.118,2.96,12.538,4.721,19.324,4.99C593.282,208.974,593.857,209.338,594.31,210.524z M571.15,175.079
	c8.053,9.663,15.108,19.982,20.913,31.148c0.13,0.248,0.139,0.561,0.245,1.024c-8.354-1.268-15.457-5.05-22.339-9.383
	c-8.249-5.194-15.507-11.702-23.354-17.426c-5.753-4.198-12.01-7.448-18.892-9.401c-1.041-0.298-2.423-0.346-1.896-1.848
	c0.443-1.266,1.743-0.509,2.599-0.357c4.818,0.857,9.244,2.944,13.82,4.562c8.407,2.967,16.891,3.218,25.486,0.939
	C568.954,174.013,570.047,173.753,571.15,175.079z M465.487,120.22c1.656,0.64,3.203,1.553,4.913,2.159
	c-5.232-5.768-10.87-10.935-18.704-13.122c3.304-0.902,6.546-0.469,9.775-0.196c3.786,0.359,10.129,1.873,11.094,2.107
	c13.005,3.529,25.615,8.152,37.731,14.124c19.606,9.669,36.515,22.905,51.233,39.005c2.214,2.421,4.662,4.643,6.568,7.493
	c-9.596,1.786-18.394-0.139-26.71-4.785c-9.43-5.266-18.526-11.121-28.145-16.044c-7.908-4.05-16.031-7.596-24.855-9.228
	c-6.727-1.241-13.249-0.039-19.79,1.333c-12.129,2.545-24.208,5.471-36.774,4.813c-8.27-0.433-16.359-1.869-24.372-3.869
	c-1.253-0.313-2.542-0.568-3.826-0.666c-0.769-0.057-1.902-0.545-2.274,0.396c-0.307,0.768,0.755,1.204,1.288,1.7
	c1.012,0.936,2.161,1.731,3.129,2.708c4.163,4.193,3.491,8.974-1.762,11.743c-4.279,2.256-8.935,3.124-14.387,3.249
	c2.773-1.071,4.919-1.965,7.114-2.719c0.913-0.313,1.074-0.565,0.765-1.552c-3.445-10.954-1.079-18.423,7.655-24.136
	c11.6-7.584,24.168-12.897,37.699-15.706C450.404,117.458,458.083,117.354,465.487,120.22z M414.524,150.645
	c4.126,2.486,7.768,5.006,9.392,10.083c-4.325-2.174-7.696-1.146-10.458,2.245c-0.821,1.01-1.589,2.064-2.432,3.055
	c-0.475,0.555-0.918,1.222-2.067,1.251C411.704,162.005,415.318,157.267,414.524,150.645z M300.342,445.219
	c-3.731-3.325-7.381-6.717-10.828-10.339c-13.528-14.218-24.177-30.457-33.222-47.767c-6.335-12.129-11.013-24.949-14.561-38.166
	c-0.663-2.479-1.062-5.03-1.662-7.922c2.3,2.771,3.209,5.893,4.866,8.596c2.921,4.768,6.348,9,11.105,12.057
	c0.737,0.473,1.413,0.906,1.272,2.158c-1.639,14.461,3.165,27.119,10.925,38.992c9.801,14.987,23.543,23.918,41.1,26.95
	c7.506,1.298,14.834,0.839,21.355-3.78c1.93-1.369,3.438-3.148,5.467-5.224c-11.65,5.876-22.854,4.56-33.686,0.123
	c-16.771-6.878-28.042-19.135-32.032-37.017c-2.296-10.314-0.448-20.433,5.433-29.428c5.687-8.703,13.81-14.303,23.668-17.459
	c2.279-0.732,4.664-1.037,7.008-1.105c5.608-0.16,11.226-0.051,16.939-0.051c-0.115,1.74-1.651,1.556-2.525,1.661
	c-3.724,0.456-7.444,1.007-11.216,1.044c-3.361,0.035-6.512,1.041-9.499,2.878c1.239-0.076,2.496-0.042,3.709-0.249
	c3.706-0.627,7.346,0.076,11.01,0.398c3.68,0.32,7.369,0.242,11.057,0.199c2.406-0.027,2.69,0.38,1.361,2.415
	c-2.038,3.13-4.631,5.95-6.313,9.249c-3.264,6.395-9.315,7.234-15.233,8.102c-10.412,1.525-20.017-0.733-28.504-7.171
	c-0.207-0.157-0.53-0.173-1.144-0.358c1.224,2.93,3.36,4.676,5.427,6.368c8.223,6.737,17.924,9.305,28.268,8.412
	c7.58-0.655,14.79-3.37,21.906-7.437c-2.642,7.961-4.887,15.574-14.064,17.971c4.47,0.09,8.247-1.482,11.849-3.595
	c1.44-0.846,2.82-1.792,4.248-2.657c0.722-0.438,1.647-1.385,1.787,0.477c0.055,0.711,0.328,0.361,0.688,0.191
	c2.863-1.342,3.882-3.959,2.684-6.98c-1.633-4.121-1.633-4.171,2.85-4.182c1.323-0.003,2.251-0.322,3.138-1.374
	c1.649-1.948,4.051-2.948,6.119-4.362c8.025-5.482,12.229-13.088,13.211-22.711c0.707-6.984,0.113-13.988,0.688-20.967
	c0.1-1.16-0.161-2.307-0.753-3.283c-2.925-4.829-2.782-10.365-3.684-15.659c-0.138-0.816,0.095-1.723-0.88-2.411
	c-0.825,2.285-0.592,4.529-0.24,6.797c0.644,4.142,1.869,8.242,1.123,12.499c-0.599,3.413-2.846,5.525-5.992,6.925
	c0.348-0.518,0.665-1.056,1.044-1.548c3.017-3.939,2.345-8.324,1.03-12.487c-1.459-4.62-1.424-8.973,0.526-13.35
	c0.316-0.711,0.302-1.314-0.263-1.892c-5.701-5.835-6.471-12.66-4.039-20.132c0.165-0.501,0.236-1.048,0.261-1.579
	c0.04-0.967,0.013-1.938,0.013-3.333c-3.486,3.161-7.802,4.165-11.158,6.839c-6.477,5.162-9.7,11.983-10.534,20.115
	c-0.636,6.173-1.288,12.348-2.195,18.482c-0.856,5.823-4.647,9.313-9.94,11.391c-0.587,0.229-1.307,0.259-1.707,0.942
	c6.708,0.991,14.644-1.224,17.288-7.778c0.435,2.661-0.968,5.58-3.546,7.424c-3.77,2.695-8.128,3.716-12.587,4.481
	c-5.941,1.024-11.957,0.458-17.928,0.876c-16.701,1.168-29.811,8.322-38.665,22.771c-2.208,3.606-2.334,3.693-5.085,0.432
	c-7.866-9.316-13.561-19.653-14.774-32.063c-0.578-5.971-1.063-11.954,1.07-17.695c1.147-3.083,2.945-5.916,4.308-8.927
	c2.149-4.769-0.194-11.55-4.668-13.764c-0.464,0.956,0.196,1.636,0.656,2.276c3.573,4.982,3.573,9.91,0.077,14.961
	c-2.592,3.74-3.536,8.145-4.58,12.479c-0.127,0.544-0.229,1.039-0.697,1.386c-1.572-5.196-2.904-4.063,2.424-12.312
	c-1.603,0.706-2.537,1.303-3.461,2.477c-0.88,1.123-1.654,2.331-2.52,3.566c-1.12-0.871-0.832-1.991-0.836-2.996
	c-0.106-23.077,3.984-45.392,12.217-66.942c6.136-16.061,13.339-31.608,23.345-45.666c14.14-19.863,31.045-36.967,51.47-50.447
	c0.699-0.462,1.379-0.958,2.084-1.409c0.307-0.199,0.658-0.326,0.809-0.399c-2.011,9.46-0.677,18.132,5.866,25.767
	c4.588,5.354,10.128,8.949,17.004,10.57c2.983,0.704,5.738,2.094,8.522,3.736c-0.728-2.334-1.545-4.438-2.007-6.617
	c-0.354-1.684-1.646-2.071-2.819-2.695c-6.751-3.604-12.441-8.383-16.346-15.052c-4.781-8.163-3.141-16.083,4.293-21.925
	c8.531-6.7,18.472-10.419,28.597-13.78c0.737-0.246,1.472-0.485,2.209-0.728c0.104-0.024,11.15-2.519,17.707-3.803
	c0.301-0.005,0.668-0.122,0.895-0.165c3.978-0.76,7.979-1.328,12.001-1.836c10.38-1.317,20.809-1.605,31.249-1.345
	c3.12,0.077,6.301-0.431,10.023,0.838c-4.037,0.556-7.44,0.928-10.814,1.509c-13.107,2.253-25.763,5.844-37.584,12.173
	c-10.818,5.791-17.953,14.938-24.001,25.205c-2.084,3.542-2.906,7.447-3.766,11.392c-1.116,5.126,2.691,11.922,7.532,13.918
	c2.208,0.911,4.503,1.617,6.986,2.496c-1.036-5.537-6.188-7.506-9.137-11.886c5.37,1.854,8.999,4.745,10.429,9.871
	c0.449,1.605,1.372,2.461,2.855,3.097c12.271,5.276,19.086,15.056,22.523,27.564c0.389,1.415,0.579,2.867,2.465,3.096
	c0.98,0.119,1.4-0.099,1.263-1.184c-0.234-1.816-0.72-3.558-1.288-5.292c-1.568-4.816-3.568-9.43-6.878-14.166
	c2.553,1.337,3.738,3.092,4.867,4.816c1.873,2.863,3.179,6.027,4.41,9.209c1.792,4.646,4.472,8.773,7.526,12.846
	c0.928-3.912,0.903-7.88,0.37-11.733c-1.566-11.315,2.629-20.068,11.873-26.181c11.364-7.513,22.939-14.768,35.509-20.188
	c9.05-3.902,18.504-4.167,27.95-2.026c6.74,1.528,11.157,6.518,15.239,11.92c-15.841-1.119-31.576-1.331-47.226,1.609l-0.236-0.805
	c6.784-3.62,13.567-7.24,20.351-10.86c-4.795-0.884-9.34-0.234-13.674,1.414c-11.809,4.487-22.025,11.496-30.973,20.327
	c-2.431,2.397-4.285,5.373-6.739,7.873c2.236-3.325,4.468-6.652,6.702-9.977c-3.918,1.713-7.367,3.932-10.417,6.788
	c-3.886,3.636-5.566,7.77-4.118,13.185c1.298,4.871,0.451,9.933,0.471,14.912c0.002,0.665,0,1.331,0,2.407
	c2.652-2.917,3.783-6.145,4.68-9.478c2.183-8.151,5.804-15.498,11.96-21.409c3.084-2.96,5.764-6.371,9.581-8.553
	c-2.111,2.403-4.147,4.853-6.46,8.037c9.301-4.799,19.155-4.253,28.399-6.597c-4.478,2.933-9.516,4.3-14.654,5.402
	c-2.983,0.639-6.006,1.017-8.973,1.792c-9.004,2.349-13.81,8.551-16.121,17.152c-0.646,2.411-0.489,4.87-0.452,7.319
	c0.017,0.945,0.207,1.742,1.495,1.257c3.827-1.439,7.833-1.275,11.809-1.188c1.361,0.03,2.147-0.32,2.279-1.709
	c0.323-3.393,2.449-5.431,5.176-7.083c7.367-4.467,15.484-6.029,23.938-5.891c6.905,0.113,13.8,0.751,20.707,0.933
	c6.43,0.166,12.868,0.034,19.317,0.335c-2.368,1.072-4.866,1.194-7.339,1.373c-7.223,0.525-14.452,0.073-21.679,0.02
	c-6.706-0.05-13.344,0.394-19.521,3.272c-3.841,1.786-7.48,3.913-8.729,8.485c-0.55,2.025-0.438,3.457,1.953,4.145
	c1.514,0.435,2.91,1.898,4.329,1.855c1.432-0.043,1.435-2.298,2.397-3.402c3.264-3.743,7.514-5.421,12.261-6.039
	c8.35-1.083,16.797-1.254,25.044,0.121c8.87,1.478,17.306,4.539,23.303,11.93c1.523,1.875,2.78,3.941,2.971,6.688
	c-5.479-5.927-12.587-8.499-19.567-11.392c-6.083-2.52-12.402-3.166-18.846-3.101c-5.069,0.05-10.155-0.429-15.201,0.351
	c-3.021,0.466-5.705,1.665-7.806,3.943c-0.506,0.547-1.229,1.375-1.108,1.901c0.19,0.83,1.365,0.905,2.137,1.01
	c1.202,0.162,2.45,0.024,3.681-0.006c5.386-0.134,10.501,0.802,15.104,3.791c1.068,0.694,2.067,1.454,2.645,2.802
	c-5.628-3.423-11.534-5.482-18.56-4.369c2.983,3.796,6.689,5.885,11.013,7.098c6.019,1.687,12.146,1.412,18.279,1.157
	c1.737-0.074,3.476-0.172,5.228-0.059c-6.365,2.555-13.049,1.707-20.118,1.64c2.222,1.534,4.423,1.526,6.449,1.808
	c5.533,0.767,11.103,1.242,16.65,1.927c12.336,1.524,21.166,8.065,26.877,18.986c0.272,0.526,0.377,1.142,0.563,1.716
	c0.425,0.192,0.451,0.499,0.242,0.869c-0.192-0.191-0.384-0.381-0.576-0.572c-6.521-10.083-16.336-14.692-27.701-16.895
	c-7.776-1.505-15.73-2.115-23.312-4.592c-4.766-1.558-9.309-3.554-12.677-7.446c-5.891-6.797-13.851-9.67-22.161-11.921
	c-5.425-1.469-10.968-0.975-16.475-0.885c-1.833,0.03-3.566,0.542-4.846,2.303c-0.592-1.348-1.094-2.491-1.602-3.65
	c-3.616,4.673-6.516,9.629-8.345,15.332c-2.866-4.777-4.791-9.965-8.643-14.188c-0.682,0.832-0.499,2.086-1.576,2.769
	c-1.668-2.228-4.187-2.417-6.775-2.667c-7.128-0.689-13.768,0.797-20.175,3.884c-6.328,3.048-12.976,5.144-19.912,6.381
	c-5.253,0.938-10.19-0.355-15.131-1.648c-5.632-1.473-11.236-2.786-17.133-2.571c-8.803,0.321-15.349,4.54-18.033,11.885
	c0.109,0.052,0.272,0.183,0.328,0.146c10.627-7.083,21.816-6.747,33.304-2.54c3.198,1.172,6.266,2.685,9.564,3.623
	c1.56,0.442,3.121,0.897,4.739,0.643c1.313-0.206,2.431-0.405,1.846,2.135c2.895-2.914,5.596-4.999,8.748-6.688
	c-0.497,2.675-0.918,5.22-1.442,7.744c-0.926,4.461-3.604,7.906-6.84,10.866c-3.585,3.276-6.547,7.361-11.33,9.166
	c-0.521,0.198-0.771,0.511-0.293,0.998c5.446,5.547,3.021,11.973,2.047,18.24c-0.571,3.674-1.731,7.306-0.563,11.092
	c0.689,2.229,1.58,4.453,3.372,5.853c4.58,3.58,6.146,8.366,6.361,13.875c0.159,4.09,1.866,7.507,4.813,10.297
	c1.283,1.212,2.264,2.624,2.115,4.376c-0.782,9.206-1.508,18.429-3.723,27.438c-0.54,2.208-1.717,4.187-2.793,6.181
	c-0.394,0.736-0.908,1.494-1.771,1.71c-1.302,0.329-1.99,0.733-0.917,2.11c0.572,0.732-0.104,1.408-0.489,1.996
	c-3.935,5.989-9.192,9.609-16.659,9.287c-1.269-0.057-2.045,0.275-2.324,1.841c-1.255,7.114-4.37,13.514-8.776,19.106
	c-4.718,5.979-13.523,5.1-17.77-1.374c-0.482-0.733-0.895-1.516-1.448-2.46c-0.295,4.39,2.364,8.371,6.664,10.164
	c4.42,1.844,9.055,2.191,13.767,1.791c3.631-0.309,3.719-0.363,3.996,3.18c0.776,9.984,4.585,18.674,10.777,26.484
	c3.593,4.531,6.391,9.548,7.419,15.379c0.273,1.537,0.196,3.049,0.144,5.286c-4.155-4.733-10.434-4.956-14.673-9.192
	c0.123,2.204,1.313,3.8,2.065,5.537c1.056,2.438,2.164,4.833,2.701,7.475c0.531,2.604-0.209,4.651-2.115,6.394
	c-2.411,2.206-5.384,3.229-8.504,3.62C322.566,458.344,310.64,454.397,300.342,445.219z M341.015,297.995
	c3.474,4.233,3.957,8.873,3.913,13.632c-0.04,4.34-1.51,8.189-4.271,11.544c-1.42,1.731-3.224,2.691-5.661,2.829
	C341.669,317.719,342.976,308.398,341.015,297.995z M349.31,337.684c-0.698,3.283-1.142,6.641-4.191,8.766
	c-0.466,0.328-0.914,0.929-1.589,0.593c-0.68-0.344-0.838-1.081-0.893-1.758C342.384,342.138,345.888,338.125,349.31,337.684z
	 M389.442,159.659c-2.801-2.739-3.372-8.391-0.88-11.311C388.456,152.158,388.96,155.896,389.442,159.659z M493.879,167.632
	c-6.63,7.584-15.365,10.729-24.58,13.064c-7.976,2.023-15.612,4.981-22.429,9.694c-3.698,2.558-6.268,5.994-6.96,10.61
	c-0.11,0.73,0,1.938-1.199,1.754c-1.116-0.173-0.782-1.366-0.755-2.086c0.24-6.349,3.677-10.653,9.008-13.624
	c5.788-3.225,11.972-5.593,18.076-8.114c8.335-3.443,16.738-6.716,25.121-10.039C491.336,168.425,492.562,168.076,493.879,167.632z
	 M360.854,476.069c-0.977,0.839-1.219-0.119-1.5-0.542c-2.537-3.826-2.914-7.813-0.534-11.846c2.707-4.598,5.407-9.189,7.02-14.321
	c0.142-0.444,0.352-0.847,0.077-1.599c-2.828,4.354-6.424,7.893-9.34,11.95c-1.801,2.509-2.32,5.612-2.472,8.684
	c-0.116,2.301-0.138,4.619-0.022,6.919c0.083,1.65-0.337,1.959-1.923,1.43c-6.194-2.066-12.217-4.533-18.083-7.393
	c-2.672-1.301-5.289-2.672-7.525-4.662c0,0.002-0.005,0.002-0.007,0.004c0.002-0.002,0.002-0.004,0.002-0.004
	c-0.002-0.004-0.006-0.007-0.008-0.01c0.041-0.105,0.085-0.211,0.127-0.316c-0.039,0.107-0.081,0.217-0.119,0.324
	c0.005,0,0.005,0.002,0.005,0.002c0.273-0.366,0.64-0.328,1.028-0.236c9.16,2.17,16.757-1.229,23.776-6.678
	c3.542-2.75,7.133-5.626,8.005-10.27c1.144-6.105,0.504-12.152-1.699-18.031c-0.83-2.207-2.191-4.136-2.846-6.434
	c0.7,0.994,1.442,1.961,2.087,2.988c3.345,5.329,8.438,8.527,13.813,11.391c3.299,1.758,6.537,3.609,9.7,5.604
	c7.712,4.871,11.458,11.688,10.392,21.281c1.925-1.657,2.065-3.693,2.443-5.511c1.595-7.74-1.032-14.249-6.072-20.03
	c-4.014-4.607-9.073-8.023-13.601-12.042c-7.898-7.006-11.703-15.657-10.4-26.315c0.081-0.686,0.186-1.385,0.121-2.064
	c-0.05-0.545,0.861-1.264-0.046-1.58c-1.064-0.373-1.191,0.69-1.451,1.357c-2.401,6.189-2.55,12.471-0.664,18.81
	c0.131,0.439,0.393,0.823,0.125,1.433c-2.016-2.878-3.006-6.064-3.228-9.402c-0.481-7.37,0.784-14.381,5.819-20.111
	c2.99-3.408,7.091-5.514,10.806-8.066c5.135-3.531,9.726-7.713,13.708-12.521c1.772-2.136,2.55-4.594,2.211-7.429
	c-0.444-3.702-0.516-7.481-3.041-10.573c-0.165-0.092-0.441-0.293-0.479-0.258c-0.24,0.238-0.148,0.48,0.103,0.67
	c1.181,8.856-7.233,14.695-13.697,17.358c-4.094,1.685-8.517,1.973-12.833,2.197c-5.593,0.29-10.541,1.585-14.284,6.101
	c0.996-3.974,3.464-6.734,6.917-8.639c3.205-1.766,6.635-3.102,9.4-5.631c2.71-2.484,5.074-5.24,7.089-8.57
	c0.32,3.357-0.946,6.178-3.614,9.303c-2.253,2.639-5.168,4.15-8.308,5.396c8.282-0.143,15.33-3.08,21.329-8.725
	c3.464-3.26,4.704-7.382,5.283-11.846c0.061-0.474-0.155-1.107-0.465-1.483c-6.908-8.412-5.65-17.302-1.732-26.442
	c2.968-6.92,6.904-13.198,12.091-18.753c-1.272,2.458-2.575,4.897-3.803,7.374c-3.131,6.33-6.57,12.511-8.468,19.402
	c-1.921,6.969-0.542,13.119,4.559,18.124c4.309,4.229,6.159,9.038,5.783,15.05c-0.251,4.027,0.147,8.063-2.307,11.644
	c-2.973,4.335-6.342,8.281-10.878,11.042c-3.119,1.899-6.268,3.749-9.082,6.102c-0.832,1.266-1.565,2.488-2.155,4.027
	c-0.282,0.733-0.505,1.504-0.706,2.284c-0.05,0.799-0.136,1.6-0.218,2.396c0.196,1.668,0.212,3.4,0.722,5.055
	c2.669,8.559,8.504,14.609,15.749,19.331c6.458,4.21,13.105,8.14,19.185,12.897c3.502,2.744,6.819,5.728,9.592,9.268
	c6.317,8.061,4.191,18.248-5.007,22.682c-6.161,2.967-12.781,4.421-19.637,4.781c-3.6,0.188-7.195,0.498-10.776,0.874
	c-1.452,0.15-2.48-0.22-3.395-1.356c-2.099-2.599-4.688-4.611-7.679-6.114c-1.155-0.581-2.303-1.072-3.746-0.673
	c3.544,2.494,7.693,4.322,8.667,9.436C367.036,473.441,363.713,473.607,360.854,476.069z M412.333,488.111
	c-3.924,0.463-7.954-0.022-11.895-0.589c-4.373-0.628-8.724-1.423-13.085-2.146l-3.829-0.496c-5.049-0.817-10.197-1.18-15.096-3.095
	c0.46-0.786,1.077-0.638,1.543-0.601c6.719,0.551,13.262-0.535,19.813-1.862c7.752-1.575,15.486-3.169,22.717-6.531
	c2.63-1.224,5.111-2.71,7.361-4.577c5.586-4.635,7.014-15.594,2.594-22.794c-3.244-5.284-7.632-9.581-11.797-14.073
	c-3.129-3.373-6.105-6.844-8.231-10.973c-1.723-3.344-2.766-6.754-1.435-10.759c0.322,2.024,0.466,3.872,0.922,5.636
	c1.33,5.096,4.677,8.971,8.137,12.713c4.421,4.783,9.444,9.009,13.128,14.471c7.02,10.406,8.933,21.611,4.674,33.475
	C425.307,483.003,419.849,487.223,412.333,488.111z M452.125,487.203c-7.768,1.281-15.593,1.38-23.419,1.549
	c-2.896,0.063-5.793,0.01-9.011,0.01c4.53-2.609,8.771-5.135,11.883-9.899v4.288c1.147-0.118,1.21-0.963,1.421-1.603
	c1.264-3.87,4.125-6.044,7.541-8.053c5.797-3.408,11.453-7.119,15.822-12.407c0.434-0.524,0.899-1.019,1.614-1.821
	c1.896,8.597,4.436,16.788-0.891,24.819C455.834,485.969,454.331,486.842,452.125,487.203z M459.85,485.842
	c-0.245-0.398,0.282-0.924,0.51-1.204c4.942-6.059,6.715-13.569,9.574-20.591c3.086-7.576,6.061-15.197,8.967-22.846
	c2.046-5.397,5.671-9.732,10.109-13.389c1.091-0.791,2.179-1.584,3.535-2.567c-0.563,1.853-1.772,2.478-3.226,2.827
	c0.103,4.455,0.319,8.91,0.279,13.363c-0.061,6.319-1.919,12.043-6.146,16.969c3.046-1.382,5.188-3.805,7.185-6.297
	c5.973-7.443,8.293-16.459,10.673-25.429c0.875-3.306,1.527-6.676,2.489-9.956c1.021-3.487,2.421-6.842,4.825-9.969
	c0.158,2.825-0.209,5.482,0.279,8.1c1.083,5.831,4.717,9.973,8.991,13.712c2.089,1.828,4.516,3.124,6.855,4.563
	c1.114,0.687,2.61,1.728,2.108,2.87c-0.401,0.915-2.262,0.815-3.593,0.635c-2.058-0.28-3.863-1.22-5.864-2.189
	c3.111,6.537,9.97,8.928,16.032,5.833c2.443-1.248,5.004-2.239,6.516-4.816c0.525-0.904,1.759-1.158,2.799-1.409
	c3.216-0.778,5.396-2.868,6.849-5.674c2.438-4.697,4.356-9.624,3.962-15.03c-0.337-4.651-1.497-8.856-4.213-13.08
	c-3.863-6.012-9.118-8.917-15.567-9.892c-7.271-1.098-14.136,0.584-20.073,5.227c-0.297,0.233-0.622,0.434-0.938,0.639
	c-0.042,0.024-0.127-0.018-0.506-0.079c2.113-3.515,3.563-7.216,4.748-11.03c2.566-8.271,3.8-16.808,5.063-25.336
	c0.567-3.85,1.194-7.684,2.595-11.771c1.056,3.359,1.86,6.461,2.995,9.437c4.282,11.249,10.737,20.96,21.039,27.55
	c7.067,4.523,15.135,5.815,23.417,6.233c7.497,0.378,14.626-0.521,21.127-4.583c0.163-0.103,0.409-0.073,1.288-0.207
	C564.75,440.641,520.622,474.451,459.85,485.842z M520.496,403.03c7.687-4.502,16.559-2.802,21.415,3.97
	c1.313,1.834,1.807,4.854,1.56,8.513c-0.046,0.69-0.103,1.381-0.143,2.071c-0.16,2.406-1.562,4.252-3.858,4.413
	c-7.749,0.54-14.911-1.054-20.644-6.681C514.448,411.018,515.193,406.135,520.496,403.03z M660.266,266.075l0.057-3.245
	c-0.682-3.849-1.655-7.842-2.74-11.872c-1.602-7.044-3.017-10.772-3.033-10.817c-0.65-2.291-1.288-4.566-1.871-6.805
	c-8.502-32.335-23.514-61.392-44.797-87.208c-8.613-10.452-17.717-20.43-27.963-29.304c-14.277-12.364-29.927-22.68-46.768-31.219
	c-16.945-8.592-34.671-14.94-53.368-18.324c-0.531-0.097-1.056-0.206-1.57-0.325c-58.069-12.052-108.526,0.698-108.526,0.698
	c-4.004,0.98-8.088,1.679-12.079,2.674c-26.618,6.638-50.656,18.614-72.74,34.762c-12.952,9.472-24.672,20.274-35.265,32.275
	c-12.375,14.015-23.144,29.189-32.02,45.687c-8.276,15.389-14.834,31.429-19.793,48.08l0.002-0.02c0,0-19.719,51.109-7.977,106.037
	c0.115,1.192,0.397,2.285,0.891,3.908c1.289,5.355,2.881,10.738,4.837,16.102v-0.004c1.706,5.759,3.451,11.508,5.346,17.008
	c7.782,22.568,18.279,43.846,31.98,63.394c11.499,16.404,25.098,31.017,40.498,43.864c25.751,21.487,54.688,36.969,87.273,45.227
	c8.973,2.273,17.132,4.504,26.49,5.58c0,0,36.201,6.617,75.348-0.154l-10.856,0.154l-1.225-0.128l12.081-0.026
	c9.607-1.539,15.465-2.865,23.578-4.813c18.972-4.551,37.021-11.623,54.271-20.739c22.628-11.958,42.385-27.649,59.447-46.636
	c23.664-26.329,40.604-56.564,51.06-90.39c1.7-5.515,3.427-11.194,4.88-16.905v0.002c0-0.004,0.004-0.007,0.004-0.011
	c1.478-5.81,2.68-11.659,3.295-17.418l0.015-0.753C663.393,305.416,662.408,282.209,660.266,266.075z M655.037,312.648
	c-0.228,0.193-0.401,0.514-0.488,1.043c-2.239,13.578-6.517,26.648-9.907,39.938c-6.207,24.336-15.978,47.191-29.087,68.592
	c-5.302,8.662-11.348,16.821-17.944,24.567c-6.079,7.142-12.457,14.007-19.212,20.491c-10.331,9.913-21.679,18.447-33.943,25.952
	c-10.436,6.386-21.271,11.794-32.434,16.649c-10.36,4.51-21.227,7.408-32.233,9.806c-0.79,0.173-2.238,0.69-2.431-0.032
	c-0.412-1.557,1.321-1.408,2.178-1.633c8.734-2.295,17.539-4.359,26.006-7.525c4.43-1.658,4.248-0.571,2.113-5.087
	c-2.521-5.342-5.232-10.598-7.889-15.875c-0.509-1.005-1.16-1.938-1.893-3.157c-2.841,4.467-5.23,8.909-8.171,13.011
	c-3.176,4.427-6.467,8.754-10.146,12.762c-6.827,7.438-15.796,11.311-25.059,14.499c-3.146,1.085-6.33,1.906-9.535,2.531v0.007
	c-0.238,0.047-0.472,0.087-0.71,0.131c-0.148,0.028-0.3,0.058-0.454,0.085c-8.707,1.565-17.589,1.668-26.514,1.214
	c-2.313-0.118-4.632-0.226-6.942-0.419c-1.754-0.184-3.501-0.369-5.241-0.59v-0.086c-2.278-0.43-4.5-1.264-6.637-2.139
	c-1.534-0.627-3.288-0.697-4.737-1.485c-0.405-0.108-0.882-0.26-1.509-0.457c-5.987-1.904-11.621-4.58-17.059-7.72
	c-5.985-3.459-9.633-9.143-13.727-14.387c-3.299-4.228-5.882-8.946-8.711-13.493c-0.244-0.388-0.466-0.788-0.723-1.168
	c-1.731-2.571-2.034-2.548-3.438,0.13c-3.188,6.093-6.348,12.205-9.63,18.249c-0.941,1.731-0.711,2.466,1.189,3.194
	c8.915,3.432,18.101,5.952,27.339,8.311c0.942,0.24,1.942,0.356,2.594,1.265c-0.472,0.632-1.04,0.494-1.655,0.362
	c-32.229-6.883-60.967-21.1-86.632-41.579c-16.128-12.868-29.872-28.034-42.018-44.708c-2.934-4.027-6.069-8.038-8.432-12.295
	c-5.805-10.459-11.53-21.002-16.19-32.061c-5.663-13.426-10.053-27.248-13.458-41.412c-1.475-6.133-3.414-12.152-5.197-18.209
	c-0.197-0.674-0.397-1.299-0.27-1.994c-0.284-0.064-0.404-0.24-0.348-0.533c-0.516-2.303-1.122-4.588-1.624-6.891
	c-1.021-5.007-1.461-10.135-1.641-14.195c-0.021-2.668-0.059-5.328-0.065-7.984c0.795-14.283,1.819-21.559,2.448-24.926
	c2.352-10.702,5.621-21.175,8.328-31.787c6.205-24.336,15.976-47.19,29.081-68.593c5.304-8.661,11.349-16.819,17.946-24.566
	c6.079-7.14,12.457-14.006,19.212-20.491c10.335-9.912,21.683-18.447,33.943-25.953c10.438-6.386,21.272-11.793,32.434-16.649
	c10.36-4.507,21.227-7.407,32.234-9.806c0.791-0.171,2.239-0.69,2.434,0.033c0.412,1.556-1.323,1.409-2.18,1.633
	c-8.73,2.294-17.539,4.359-26.004,7.526c-4.434,1.657-4.246,0.57-2.117,5.085c2.525,5.343,5.232,10.596,7.894,15.874
	c0.504,1.007,1.155,1.942,1.89,3.161c2.839-4.469,5.232-8.914,8.172-13.013c3.173-4.426,6.466-8.753,10.146-12.761
	c6.824-7.437,15.798-11.31,25.055-14.5c12.068-4.156,24.603-4.613,37.213-3.966c2.316,0.118,4.634,0.226,6.942,0.417
	c5.711,0.6,11.357,1.177,16.901,3.088c6.29,2.167,12.449,4.653,17.889,8.353c1.54,0.979,3.05,2.022,4.52,3.153
	c3.858,2.965,6.846,6.948,9.411,11.161c0.184,0.24,0.363,0.482,0.548,0.725c0.338,0.093,0.426,0.411,0.533,0.714
	c0.083,0.111,0.165,0.223,0.248,0.335c0.355,0.231,0.575,0.558,0.7,0.947c0.452,0.622,0.903,1.244,1.355,1.871
	c2.94,4.101,5.33,8.544,8.171,13.011c0.732-1.217,1.384-2.151,1.893-3.159c2.656-5.276,5.368-10.531,7.889-15.872
	c2.135-4.517,2.316-3.43-2.113-5.088c-8.467-3.167-17.271-5.232-26.006-7.525c-0.635-0.168-1.758-0.129-2.121-0.739
	c-0.41-0.202-0.717-0.543-0.498-1.185c0.262-0.772,0.956-0.343,1.363-0.252c6.598,1.437,13.179,2.939,19.612,5.007
	c0.051,0.016,0.099,0.029,0.148,0.039l0.5,0.255c0.007,0.018,0.021,0.037,0.031,0.059c0.073,0.021,0.143,0.045,0.211,0.067
	c0,0,1.858,0.453,5.153,1.508c10.767,3.81,21.12,8.529,31.211,13.952c9.248,4.972,18.007,10.639,26.476,16.782
	c11.85,8.601,22.41,18.611,31.986,29.68c1.754,2.021,3.51,4.033,5.258,6.056c4.57,5.741,8.985,11.938,13.157,18.617
	c0.366,0.712,0.69,1.45,1.158,2.107c0.034,0.053,0.038,0.104,0.034,0.148c0.794,1.224,1.578,2.453,2.339,3.698
	c13.109,21.402,22.88,44.257,29.087,68.593c3.391,13.29,7.668,26.359,9.907,39.938c0.033,0.205,0.083,0.371,0.142,0.52
	c0.088,0.351,0.196,0.883,0.306,1.615l0.279,26.898C655.215,311.189,655.134,312.061,655.037,312.648z M407.724,500.251
	c-0.027,8.987-0.027,17.976-0.021,26.966c0.004,0.895-0.011,1.299-1.229,1.108c-0.46-0.074-0.914-0.153-1.372-0.235v0.023
	c-1.688-0.359-3.323-0.946-4.941-1.544c-0.853-0.315-1.685-0.679-2.536-0.987c-0.504-0.184-1.023-0.27-1.534-0.365
	c-0.583-0.182-1.166-0.365-1.745-0.553c-0.088-0.049-0.176-0.076-0.262-0.087c-7.001-2.285-13.64-5.183-19.696-9.37
	c7.976-4.564,15.763-9.023,20.656-16.999c0.516-0.835,1.1-1.122,2.067-1.007c2.661,0.313,5.322,0.629,7.991,0.845
	c0.485,0.042,0.973,0.097,1.466,0.117C407.479,498.201,407.726,499.384,407.724,500.251z M438.487,513.73h-0.021
	c-0.002-4.224-0.054-8.449,0.025-12.674c0.002-0.123,0-0.242-0.004-0.357c0-0.021-0.002-0.043-0.002-0.063
	c-0.042-0.839-0.278-1.322-0.889-1.507v-0.006c-0.297-0.09-0.684-0.107-1.184-0.057c-8.042,0.798-16.111,0.407-24.168,0.293
	c-1.767-0.025-2.264,0.458-2.264,2.092c0,8.447-0.036,16.896-0.099,25.343c-0.008,0.929,0.194,1.222,1.206,1.419
	c2.364,0.456,4.735,0.355,7.104,0.479c6.215,0.33,12.418,0.052,18.622-0.382c0.312-0.021,0.568-0.064,0.782-0.129v-0.004
	c0.433-0.129,0.684-0.361,0.815-0.742c0.01-0.032,0.022-0.065,0.031-0.1c0.017-0.055,0.025-0.114,0.037-0.172
	c0.011-0.062,0.021-0.127,0.027-0.194c0.002-0.05,0.011-0.099,0.013-0.153c0.006-0.128,0.009-0.263,0.006-0.416
	C438.425,522.182,438.487,517.955,438.487,513.73z M426.58,513.906c-0.15,0.034-0.299,0.066-0.441,0.103
	c1.52,1.551,3.108,3.048,4.03,5.231c-1.497-0.234-2.073-1.66-3.222-2.216c-0.044-0.185-0.044-0.46-0.336-0.313
	c-0.061,0.029,0.037,0.364,0.063,0.561c0.715,1.643,0.865,3.361,0.692,5.445c-1.473-2.109-1.876-4.426-3.09-6.75
	c-0.17,2.492-0.771,4.522-1.411,7.009c-1.066-2.327,0.188-4.546-0.985-6.374c-0.817,2.098-2.255,3.613-4.573,5.002
	c0.625-2.363,2.174-3.657,2.989-5.337c-0.414-0.427-1.301,0.09-1.524-0.93c0.731-0.066,1.437-0.128,2.143-0.192
	c0.328-0.378,0.648-0.754,1.061-1.236c-2.093-0.541-3.72,0.352-5.396,0.928c-0.515,0.176-1.131,0.52-1.393-0.127
	c-0.264-0.651,0.42-0.734,0.903-0.926c1.595-0.641,3.169-1.34,4.86-2.063c-1.741-1.27-4.045-1.485-6.048-3.498
	c1.873,0.436,3.173,0.812,4.496,1.021c0.969,0.155,1.2-0.14,1.198-1.077c-0.955-0.965-1.277-2.272-1.76-3.54
	c1.607,1.006,2.748,2.402,3.411,4.203c0.234,0.266,0.464,0.533,0.759,0.865c0.48-0.654-0.022-1.143-0.094-1.675
	c-0.067-0.516-0.489-1.267,0.328-1.522c0.87-0.273,0.907,0.52,1.056,1.074c0.165,0.641,0.313,1.287,0.485,1.986
	c0.294-0.566,0.581-1.117,0.865-1.673c0.585-1.055,1.131-2.134,1.771-3.152c0.224-0.362,0.706-0.706,1.158-0.403
	c0.477,0.32,0.244,0.77,0,1.195c-0.511,0.9-0.972,1.827-1.453,2.744c-0.19,0.552-0.385,1.106-0.682,1.971
	c2.069-0.841,3.94-1.602,5.81-2.361c-0.968,2.189-3.068,2.793-4.894,3.877c0.786,0.916,2.021,0.863,2.969,1.389
	c0.876,0.324,1.885,0.396,2.601,1.395C430.66,514.896,428.589,514.764,426.58,513.906z M615.549,183.365
	c0.647-0.405,1.296-0.809,1.939-1.219c1.14-0.727,1.375-0.212,1.807,0.555c5.368,9.618,10.155,19.509,14.226,29.749
	c0.488,1.23,0.196,1.742-0.916,2.261c-6.922,3.237-13.837,6.496-20.723,9.818c-0.77,0.371-1.229,0.378-1.581,0.071
	c-0.054-0.125-0.108-0.255-0.162-0.399c-3.374-9.346-7.371-18.429-12.184-27.13c-0.427-0.766-0.324-1.188,0.006-1.523l0,0
	c0-0.001,0-0.004,0-0.004c0.005,0,0.005,0,0.005,0C601.496,191.818,613.98,184.301,615.549,183.365z"/>
</svg>
