<svg xmlns="http://www.w3.org/2000/svg" version="1.1" viewBox="-5.0 -10.0 110.0 135.0">
 <g>
  <path d="m61.414 40.062c0.14063 0.019531 0.28125 0.035156 0.42188 0.046875 0.21875-0.019531 0.4375-0.011719 0.59375-0.1875 0.11328-0.12891 0.14453-0.29688 0.11719-0.46094-0.09375-0.51172-0.52344-0.96484-0.94531-1.2305-0.34766-0.21875-0.64062-0.29688-1.0469-0.28516-0.25 0.125-0.62109 0.375-0.69531 0.67188-0.058594 0.23437 0.015625 0.44922 0.15234 0.64062 0.30469 0.43359 0.89062 0.73047 1.4062 0.80859z"/>
  <path d="m65.137 44.77c-0.066407-0.019531-0.15234-0.019531-0.22266-0.023437-0.31641 0.20312-0.53906 0.46875-0.61719 0.84375-0.14062 0.67188 0.21484 1.3945 0.58984 1.9336 0.09375 0.13672 0.19531 0.27344 0.29688 0.40625 0.20312-0.10547 0.35156-0.5 0.41797-0.71484 0.19922-0.62891 0.25-1.4688-0.074218-2.0625-0.085938-0.15625-0.21484-0.32812-0.39453-0.37891z"/>
  <path d="m63.602 32.645c0.44922 0.17969 0.90234 0.22656 1.3828 0.21484 0.35156-0.046875 0.68359-0.14453 1.0156-0.26562-0.49609-0.63672-1.2227-1.0469-2.0234-1.1523-0.074218-0.011718-0.14844-0.015625-0.22266-0.015625-0.28125 0.015625-0.75391 0.10156-0.96875 0.30078-0.085937 0.078126-0.078125 0.12891-0.078125 0.23438 0.14844 0.33984 0.5625 0.55078 0.89453 0.68359z"/>
  <path d="m64.711 52.672c-0.089844-0.070313-0.19141-0.097656-0.30469-0.10938-0.39844 0.34375-0.55859 0.71875-0.59766 1.2461-0.046875 0.60547 0.089844 1.5156 0.46875 2 0.10156 0.035156 0.09375 0.03125 0.19141-0.011719 0.48438-0.59766 0.76172-1.4375 0.67578-2.207-0.039062-0.35547-0.14062-0.69531-0.4375-0.92188z"/>
  <path d="m64.25 86.512c0.15625-0.65234 0.42578-1.2344 0.90234-1.7188 0.12891-0.12891 0.39453-0.26953 0.45703-0.42969-0.12109-0.046875-0.23438-0.027343-0.36328-0.015625-0.53125 0.09375-0.92188 0.45703-1.2227 0.89062-0.33203 0.47656-0.59375 1.2461-0.49609 1.832 0.035156 0.19531 0.14844 0.45703 0.32422 0.5625 0.085938 0.050782 0.15625 0.070313 0.25 0.089844l0.14063-0.039062c0.10156-0.35156-0.082032-0.78516 0.007812-1.1719z"/>
  <path d="m56.785 33.172c0.4375 0.15234 0.85547 0.19531 1.3125 0.16797 0.32812-0.058594 1.0234-0.17969 1.1875-0.50391 0.054688-0.10547 0.042969-0.21484-0.003906-0.31641-0.15234-0.33203-0.69531-0.52344-1.0273-0.61719-0.34375-0.097656-0.70312-0.13281-1.0586-0.11328-0.36328 0.070313-0.95703 0.15625-1.1914 0.47656-0.0625 0.085937-0.082031 0.22266-0.042968 0.32422 0.12109 0.3125 0.53125 0.48438 0.82422 0.58594z"/>
  <path d="m58.223 45.375c0.41016-0.30859 0.71875-0.74219 0.79297-1.2617 0.054687-0.39844-0.050781-0.82812-0.30078-1.1445-0.17578-0.21875-0.35547-0.32812-0.61719-0.41406-0.43359 0.40625-0.71484 0.89062-0.72656 1.5039-0.007813 0.37891 0.050781 0.97266 0.33984 1.2422 0.070312 0.066407 0.17187 0.13672 0.27344 0.13672 0.082031 0 0.17188-0.035156 0.24609-0.0625z"/>
  <path d="m51.789 33.188c-0.4375-0.21484-0.85937-0.35938-1.3555-0.28125-0.43359 0.054688-1.0664 0.16406-1.3477 0.53125-0.074219 0.09375-0.074219 0.13281-0.078126 0.24609 0.10938 0.13672 0.22656 0.1875 0.40234 0.21094 0.25781 0.03125 0.55469 0.015625 0.81641-0.003906 0.59375-0.078125 1.1133-0.30859 1.5664-0.69922z"/>
  <path d="m62.031 58.293c-0.0625-0.023438-0.125-0.039063-0.1875-0.054688-0.22266 0.15625-0.33594 0.33203-0.38281 0.60156-0.085938 0.48047 0.14062 1 0.41797 1.3789 0.16406 0.22266 0.36719 0.41797 0.58203 0.58984 0.27734-0.55469 0.40234-1.1562 0.19922-1.7578-0.10156-0.29688-0.32812-0.63281-0.62891-0.75391z"/>
  <path d="m59.211 49.57c-0.10156-0.078124-0.21094-0.125-0.33203-0.16016-0.36328 0.43359-0.50781 0.91406-0.46094 1.4766 0.03125 0.36719 0.14453 0.86328 0.43359 1.1094 0.066407 0.054687 0.13281 0.089844 0.21484 0.11719l0.10938-0.011719c0.35547-0.4375 0.60938-1.0156 0.54297-1.5938-0.042969-0.37891-0.20703-0.69531-0.50781-0.93359z"/>
  <path d="m51.078 41.652c-0.23438-0.039063-0.47266-0.015625-0.70703 0.007812-0.29297 0.10938-0.71875 0.23438-0.875 0.53125-0.042969 0.078125-0.039063 0.13672-0.03125 0.21875 0.085937 0.17578 0.1875 0.25 0.36719 0.31641 0.36328 0.12891 0.75391 0.082032 1.125 0.011719 0.24609-0.097656 0.67969-0.21484 0.82422-0.45703 0.054688-0.089844 0.070312-0.18359 0.019531-0.27734-0.12109-0.22266-0.49609-0.32031-0.72266-0.35547z"/>
  <path d="m54.391 36.543c-0.14453-0.027344-0.29297-0.027344-0.44141-0.023438-0.33984 0.078125-0.80859 0.23438-1.0117 0.54297-0.066406 0.10156-0.09375 0.22266-0.0625 0.34375 0.050781 0.19531 0.23828 0.33594 0.41406 0.41406 0.38672 0.17188 0.8125 0.12891 1.2227 0.10156 0.42578-0.11328 0.76953-0.25 1.1094-0.54297-0.29688-0.41016-0.72266-0.74219-1.2305-0.83594z"/>
  <path d="m66.48 38.949c0.17188 0.16016 0.37891 0.27734 0.58203 0.39062 0.14062-0.097656 0.17578-0.23047 0.20703-0.39844 0.10156-0.51953-0.085937-1.1719-0.38281-1.6016-0.18359-0.26172-0.44531-0.52344-0.77344-0.56641-0.058593-0.007813-0.125-0.003907-0.18359-0.003907-0.1875 0.20703-0.27344 0.36719-0.26563 0.65234 0.015626 0.5625 0.40625 1.1523 0.81641 1.5273z"/>
  <path d="m20.434 24.551c0.20312 0.058594 0.42969 0.003907 0.60547-0.10547 0.23047-0.14453 0.42578-0.38672 0.48438-0.66016 0.027343-0.13281 0.007812-0.23438-0.027344-0.36328-0.074219-0.09375-0.125-0.10938-0.23828-0.14062-0.003906 0.25781-0.015624 0.52734-0.21094 0.72266-0.11719 0.11328-0.29688 0.19922-0.46484 0.1875-0.28906-0.019531-0.47656-0.30859-0.625-0.52344l-0.078125-0.11328-0.039062-0.007813c-0.042969 0.16797-0.027344 0.29688-0.003906 0.46875 0.12109 0.23438 0.33594 0.46094 0.59766 0.53516z"/>
  <path d="m11.238 23.531c-0.16406 0.24219-0.37891 0.69531-0.68359 0.77344-0.15625 0.039062-0.40234-0.035157-0.53125-0.12891-0.22656-0.16406-0.30469-0.48828-0.33594-0.75-0.007812-0.0625-0.011719-0.12891-0.015625-0.19141l-0.046875-0.042969c-0.13672 0.082032-0.25781 0.14844-0.29688 0.31641-0.046875 0.20313 0.023437 0.41797 0.14062 0.58594 0.18359 0.26172 0.47656 0.44531 0.79297 0.49219 0.28906 0.042968 0.56641-0.039063 0.78906-0.22266 0.14453-0.11719 0.23438-0.26953 0.31641-0.43359 0.003906-0.14844 0.003906-0.25391-0.058594-0.39063l-0.074219-0.007812z"/>
  <path d="m5.8008 20.141c0.29688-0.46094 0.58984-0.9375 0.94922-1.3594l0.058594-0.070312c0.64062-0.76563 1.7656-1.3555 1.6602-2.4961-0.10547-1.1484-1.2344-2.3555-2.0938-3.0352-0.59375-0.46875-1.1562-0.75-1.9297-0.73828-0.60547 1.9023-0.79687 4.3477 0.16016 6.1758 0.30078 0.57422 0.72266 1.082 1.1953 1.5195z"/>
  <path d="m15.086 34.48c0.14453-0.09375 0.23828-0.18359 0.26562-0.35938 0.03125-0.1875 0.019532-0.39062 0.015626-0.58203l-0.31641-0.19922c-0.54688-0.41797-0.81641-0.98438-1.2539-1.4883-0.32812-0.375-0.72266-0.68359-0.98828-1.1094-0.15234-0.24219-0.25781-0.50781-0.29297-0.79688-0.070313-0.54687 0.078125-1.0625 0.28906-1.5586-0.015626 0.74609 0.046874 1.2305 0.34375 1.918 1.3008-0.42188 1.7344-0.19531 3.0078-0.19531 0.69141 0 1.3242-0.058594 2.0156 0.050781 0.28125-0.53125 0.34766-1.0234 0.16406-1.6055-0.082032-0.25391-0.19531-0.49609-0.31641-0.73438 0.50391 0.61719 0.97266 1.2188 0.87891 2.0664-0.10938 0.98828-0.86328 1.4805-1.457 2.1719-0.26562 0.30859-0.47266 0.68359-0.75391 0.97656-0.20312 0.21484-0.57422 0.42969-0.66016 0.72266-0.054688 0.1875-0.015625 0.35156 0.10156 0.50391 0.41016 0.52344 2.5078 1.0664 3.1914 1.1289 0.30469 0.027344 0.55469-0.042969 0.78516-0.24609 0.25-0.21484 0.44531-0.53906 0.64453-0.80469-0.92188-0.14062-1.918-0.21875-2.7773-0.59375 1 0.039062 1.9609 0.070312 2.9375 0.30859 0.11328-0.25 0.21875-0.5 0.3125-0.75391-0.6875 0.007813-1.332 0.035157-2-0.15234 0.69141-0.14844 1.3828-0.14453 2.0898-0.16406 0.03125-0.20703 0.066406-0.41016 0.09375-0.61719-0.70703 0.054687-2.1133 0.33594-2.7188 0.13672l-0.007812-0.050781c0.65625-0.40234 1.9883-0.42188 2.75-0.39844 0.011718-1.168-0.18359-2.1445-0.82422-3.1328-0.19141-0.30078-0.42969-0.57422-0.61328-0.875 0.89844 0.39062 1.5312 0.9375 1.8984 1.8672 0.20703 0.52734 0.28906 1.0625 0.32422 1.6211 1.8516-1.3945 3.3711-3.8359 3.6953-6.1484 0.15234-1.0781 0.14453-3.2852-0.25-4.293-0.17969-0.46484-0.50781-0.875-0.80859-1.2656-0.95312-1.2461-1.9727-2.6445-1.7578-4.3008 0.11719-0.91016 0.48828-1.7773 1.1406-2.4336 0.15625-0.15625 0.96875-0.81641 0.93359-0.875l-0.015625-0.003906c-0.38672 0.22266-0.76172 0.46094-1.1211 0.72656-0.67969 0.5-2.5352 2.1172-3.418 1.8828-0.53516-0.14062-1.0586-0.37891-1.5859-0.55078-1.0312-0.34375-2.1562-0.52734-3.2422-0.54297-0.95703-0.011719-1.9453 0.09375-2.8789 0.31641-0.84375 0.19922-1.6562 0.70312-2.3711 0.87109-0.19531 0.046875-0.39844 0.0625-0.59375 0.007812-0.75-0.21094-2.2109-1.6836-3.0234-2.1797 0.98828 0.96094 2.2656 2.0586 2.2773 3.5547 0.007813 0.73047-0.30078 1.2617-0.80078 1.7656-0.49609 0.49609-0.97656 0.95703-1.3672 1.5469-0.96094 1.4414-1.7109 3.9805-1.7148 5.7266-0.003906 1.8906 0.78125 3.4531 2.1055 4.7734 0.51562 0.51172 1.0664 0.95312 1.6797 1.3477 0.29297-1.3359 0.90234-2.5234 2.0703-3.2891-0.54297 1.2773-1.4141 2.6875-1.3164 4.1133 0.70703-0.007812 2.5664-0.085937 3.0859 0.37109-0.22266 0.125-2.7031-0.046875-3.1211-0.050781 0.070313 0.32031 0.13281 0.63672 0.24219 0.94922 1.207-0.070313 2.4805-0.20313 3.6758 0.03125-1.1055 0.35547-2.3438 0.20312-3.4844 0.35156 0.09375 0.17188 0.17969 0.35156 0.29297 0.51172 0.61328-0.078125 1.2109-0.125 1.832-0.10547-0.51562 0.19531-1.043 0.3125-1.582 0.42578 0.15625 0.24609 0.49219 0.61719 0.78125 0.69141 0.69922 0.17578 2.9062-0.57422 3.5078-0.96875zm9.5273-11.188c0.09375-0.011719 0.19141-0.019531 0.28516-0.007813 0.15625 0.015625 0.30469 0.11719 0.39844 0.24219 0.097656 0.12891 0.13672 0.28516 0.11328 0.44531-0.039062 0.23438-0.16016 0.35938-0.34766 0.49219-0.0625 0.011718-0.12109 0.019531-0.18359 0.023437-0.16406 0.007813-0.29297-0.039062-0.41016-0.15625-0.12891-0.125-0.17188-0.29688-0.16406-0.47266 0.015624-0.26562 0.12109-0.39062 0.3125-0.56641zm-1.4336-2.375c0.074218-0.19922 0.1875-0.27344 0.37891-0.35547 0.039062 0.003906 0.078125 0.007812 0.11328 0.011719 0.22656 0.03125 0.41406 0.11719 0.55078 0.30859 0.089844 0.12891 0.125 0.28125 0.097656 0.4375-0.046874 0.23828-0.20703 0.35156-0.39844 0.47656-0.10547 0.007813-0.23438 0.023437-0.33984-0.015625-0.17188-0.0625-0.29688-0.17578-0.37891-0.33984-0.082031-0.16406-0.089844-0.35547-0.023437-0.52344zm-0.32813 4.875c0.0625-0.003907 0.125-0.007813 0.18359-0.007813 0.17969 0 0.31641 0.050782 0.4375 0.18359 0.10938 0.11719 0.16016 0.26562 0.15234 0.42578-0.007812 0.26172-0.14453 0.43359-0.32812 0.60547-0.082031 0.007812-0.16797 0.015625-0.25 0.015625-0.14844 0-0.26562-0.054687-0.36719-0.16406-0.10547-0.11719-0.15625-0.26562-0.14844-0.42578 0.011719-0.26562 0.12109-0.46094 0.31641-0.63672zm-2.9688-5.9883c0.066407-0.26953 0.16406-0.36328 0.39844-0.50391 0.054688 0 0.12109-0.007812 0.17578 0 0.16797 0.023438 0.31641 0.12109 0.41406 0.25781 0.125 0.17578 0.14844 0.39062 0.10156 0.59766-0.058594 0.25391-0.19531 0.35547-0.40625 0.48828-0.066406 0.003907-0.13281 0.011719-0.19922 0.003907-0.16406-0.019532-0.32031-0.11328-0.41016-0.25391-0.11328-0.17578-0.12109-0.39062-0.074219-0.58984zm-1.4805-3.7656c0.054687-0.26172 0.20703-0.40625 0.42969-0.53906 0.09375 0.003906 0.19141 0 0.28125 0.023438 0.17969 0.039062 0.35547 0.19531 0.44922 0.34766 0.10547 0.17188 0.14453 0.375 0.085938 0.57031-0.070313 0.24219-0.21875 0.34375-0.43359 0.45703-0.09375 0.003906-0.19531 0.011718-0.28906 0-0.14844-0.019532-0.3125-0.16016-0.39844-0.27344-0.125-0.16406-0.16406-0.38281-0.12109-0.58203zm0.47266 7.6445c0.29297-0.54297 0.67578-0.94531 1.2812-1.1211 0.63281-0.070312 1.4883 0.078125 2.0039 0.47656 0.10547 0.082032 0.16406 0.15625 0.18359 0.28906-0.40625 0.46094-0.039062 1.0664-0.88672 1.5977-0.37109 0.23047-0.85938 0.30078-1.2812 0.1875-0.5-0.13672-0.76953-0.45312-1.0195-0.88281-0.1875 0.41016-0.28906 0.78906-0.35938 1.2344-0.13281 0.86328 0.14062 1.457 0.34766 2.2734l-0.050781 0.054688c0.003906 0 0.003906 0 0.007812 0.003906l-0.007812-0.003906-0.003906 0.003906-0.09375-0.035156 0.097656 0.035156c-0.039062-0.011719-0.078125-0.027344-0.11328-0.046875-0.23438-0.13281-0.47266-0.58594-0.54688-0.83594-0.30859-1.0117-0.054688-2.3125 0.44141-3.2266zm-1.3789-5.9531c0.054687 0 0.097656-0.003907 0.15625 0.003906 0.19141 0.019531 0.35938 0.11719 0.47656 0.26953 0.14453 0.1875 0.19141 0.43359 0.14844 0.66406-0.054688 0.28125-0.20703 0.44531-0.44141 0.59375-0.28125-0.027344-0.49219-0.066407-0.67969-0.29688-0.12891-0.16016-0.17188-0.36719-0.13672-0.56641 0.050781-0.30859 0.23047-0.49609 0.48047-0.66406zm-1.7617 3.5195c-0.082031 0.003906-0.16797 0-0.25-0.011719-0.1875-0.027343-0.32031-0.125-0.42969-0.27734-0.14453-0.21094-0.17578-0.48047-0.12109-0.73047 0.0625-0.28906 0.1875-0.44141 0.42969-0.60156 0.054688-0.003906 0.12109-0.007812 0.17969 0 0.19141 0.027344 0.36719 0.125 0.48047 0.28125 0.14062 0.19531 0.17578 0.44141 0.14062 0.67578-0.050781 0.30859-0.17969 0.48047-0.42969 0.66016zm-0.95703-5.8672c0.12891-0.24609 0.31641-0.33984 0.57422-0.42187 0.035157 0.007812 0.070313 0.019531 0.10156 0.03125 0.23828 0.078124 0.42188 0.22266 0.53516 0.45312 0.089844 0.19141 0.09375 0.41406 0.015625 0.61328-0.10547 0.27344-0.30078 0.375-0.55469 0.48438-0.12109-0.003907-0.29297 0.007812-0.39844-0.050781-0.15625-0.089844-0.27344-0.22656-0.33594-0.39844-0.082032-0.23438-0.050782-0.49219 0.0625-0.70703zm-8.4375 8.9609c-0.10547-0.11328-0.14844-0.26172-0.14453-0.41406 0.011719-0.30469 0.14063-0.52344 0.35156-0.73047 0.09375-0.011719 0.1875-0.011719 0.27734 0 0.12891 0.015625 0.22656 0.10156 0.29688 0.20703 0.11328 0.16797 0.125 0.36719 0.085937 0.55859-0.054687 0.26953-0.16406 0.38281-0.38672 0.53516-0.1875-0.003906-0.34375-0.007812-0.48437-0.15625zm1.332 3.0977c-0.19531 0.011719-0.36328-0.011718-0.51562-0.14453-0.14062-0.125-0.19141-0.30078-0.19531-0.48438-0.003907-0.30469 0.12109-0.49219 0.32812-0.69922 0.023438 0 0.046876-0.003906 0.070313-0.003906 0.20312 0 0.35547 0.054687 0.49609 0.20312 0.14062 0.15625 0.19531 0.36719 0.16797 0.57422-0.035157 0.26172-0.14844 0.40625-0.35547 0.55469zm4.8711-9.125c0.097656-0.26562 0.26172-0.37109 0.50391-0.49219 0.089844 0 0.16797 0.003906 0.25391 0.027343 0.19531 0.058594 0.35938 0.21094 0.44531 0.39453 0.089844 0.19141 0.09375 0.41797 0.023437 0.61719-0.085937 0.24609-0.27344 0.35156-0.5 0.45312-0.089843 0-0.17969-0.011718-0.26953-0.039062-0.17969-0.054688-0.33984-0.18359-0.42578-0.35156-0.10156-0.1875-0.10547-0.41406-0.035157-0.61328zm-1.4492-2.0859c0.054688-0.26953 0.19922-0.4375 0.42188-0.58594 0.070313-0.003906 0.13672-0.003906 0.20703 0 0.1875 0.019531 0.35938 0.125 0.46875 0.27734 0.10938 0.14844 0.15234 0.33203 0.125 0.51172-0.039062 0.25-0.17188 0.41016-0.37109 0.55859-0.10547 0.007812-0.21484 0.015624-0.32422 0.007812-0.16406-0.011719-0.33594-0.13281-0.42969-0.26172-0.10547-0.14844-0.13672-0.32812-0.10156-0.50781zm-1.0625 3.6641c0.097656-0.25 0.23047-0.34375 0.46875-0.44922 0.0625 0.003907 0.12109 0.007813 0.17969 0.023438 0.15625 0.035156 0.26562 0.10547 0.34375 0.25 0.10547 0.1875 0.097656 0.39844 0.027343 0.59375-0.09375 0.26562-0.21875 0.34766-0.46484 0.46875-0.070313-0.007812-0.14063-0.011719-0.21094-0.03125-0.15234-0.039062-0.25781-0.125-0.32812-0.26562-0.09375-0.1875-0.085937-0.39453-0.011719-0.58594zm2.2617 7.8164c-0.15234-0.27734 0.10547-0.89844 0.14062-1.2227 0.019531-0.19531 0.015625-0.39844 0.011718-0.59375-0.050781-0.56641-0.19531-1.0664-0.44531-1.5781-0.09375 0.125-0.1875 0.25-0.29297 0.36328-0.35547 0.35937-0.84375 0.53125-1.3438 0.53516-0.80469 0-1.3906-0.41016-1.6367-1.1758-0.050781-0.16406-0.050781-0.375-0.11328-0.52734-0.023437-0.054688-0.14062-0.14844-0.1875-0.1875l0.011719-0.11328c0.36719-0.40234 1.2266-0.66406 1.7578-0.73047 0.35938-0.011719 0.69141 0.042969 1.0156 0.21094 0.73437 0.37891 1.1484 1.1367 1.3984 1.8945 0.27344 0.82812 0.45703 1.9531 0.03125 2.7578-0.070313 0.13281-0.19922 0.33594-0.34766 0.375z"/>
  <path d="m65.621 83.449c0.21875 0.003906 0.41797 0.039062 0.625 0.11328 1.375-1.9883 2.0859-6.4648 1.7109-8.8477-0.011719-0.074219-0.007812-0.050782-0.054687-0.11719-1.8086 3.0664-2.9414 6.5117-4.4219 9.7344-0.03125 0.066407-0.019531 0.042969-0.019531 0.12891l0.10156-0.066407c0.59766-0.57812 1.1914-0.96484 2.0586-0.94922z"/>
  <path d="m24.328 14.07c-0.40234 0.62109-0.69141 1.6289-0.53516 2.3633 0.21484 1.0078 0.89062 1.9141 1.4922 2.7266 0.21484 0.27344 0.43359 0.54297 0.66016 0.80469 1.4609-1.6055 2.3047-3.2227 2.1992-5.457-0.03125-0.68359-0.15234-1.6641-0.49219-2.2656l-0.074219-0.015626c-1.3047 0.28516-2.4805 0.66406-3.25 1.8438z"/>
  <path d="m22.621 83.566c0.70703-0.69922 1.1797-1.6836 1.5156-2.6055 0.44531-1.2227 0.92969-2.9453 0.54297-4.2461-0.16016-0.53516-0.41406-0.94141-0.39063-1.5195 0.078126-2.0352 0.60938-4.0039 0.78516-6.0234 0.082031-0.94531-0.058594-1.9805-0.11328-2.9297-0.12109-2.2461-0.16797-4.5508-0.61328-6.7578-0.63281-0.13672-1.2578-0.35938-1.8633-0.58203-2.6758-0.98438-4.8555-2.5625-6.3984-4.9805-1.3281-2.0742-2.1562-4.3164-2.6836-6.7109-0.070313-0.3125-0.25391-1.4453-0.39062-1.6289-0.12109 1.7344-0.25 3.5195 0.20703 5.2148 0.43359 1.6094 1.2109 3.2344 1.9961 4.6953 0.44531 0.83203 0.9375 1.6406 1.332 2.5 1.2812 2.793 2.0156 5.6797 2.7227 8.6562 0.24219 1.0195 0.55469 2.0664 0.69531 3.1055 0.17188 1.25 0.085937 2.5508 0.21484 3.8164 0.085937 0.84766 0.30859 1.668 0.42578 2.5117 0.27734 2.0039-0.26953 3.8633-1.6172 5.3594 0.23438-0.019531 0.46875-0.035156 0.69922-0.078125-0.97266 0.48438-2.0781 1.25-2.4453 2.3242-0.14063 0.41797-0.22656 1.1953-0.011719 1.6016 0.10156 0.19531 0.29297 0.30469 0.5 0.35938 0.43359 0.11328 0.96484 0.054687 1.4102 0.046874-0.082031-0.92578-0.019531-1.7969 0.60156-2.5391 0.55469-0.66406 1.2031-0.83594 2.0234-0.95312-0.51562 0.25391-0.92188 0.50391-1.2969 0.95312-0.44922 0.65234-0.69922 1.4336-0.54688 2.2266 0.046875 0.24609 0.14453 0.46484 0.28906 0.66797l0.51172 0.035157c0.21094-0.92188 0.46094-1.4414 1.2461-2.0039 0.22266-0.16016 0.46094-0.31641 0.65625-0.50781z"/>
  <path d="m55.57 82.805c-0.61328 0.36719-1.125 0.81641-1.3203 1.5391-0.089844 0.32422-0.09375 0.67969 0.050781 0.98828 0.070313-0.003906 0.21094 0.007813 0.25391-0.050781 0.13672-0.19531 0.10937-0.61719 0.14453-0.85547 0.089843-0.57031 0.47266-1.1992 0.90625-1.5664z"/>
  <path d="m15.914 84.152c-0.03125 0.29688 0.027344 0.48828 0.21875 0.71875 0.011719 0.015625 0.023438 0.027344 0.035157 0.042968l0.058593 0.035157c0.042969-0.19141 0.027344-0.39062 0.039063-0.58594 0.027344-0.39453 0.12891-0.80469 0.29688-1.1641 0.10938-0.23438 0.25781-0.42969 0.41797-0.63281 0.007812-0.007812 0.10156-0.12109 0.10156-0.125 0-0.019531-0.019531-0.035156-0.03125-0.050781-0.53906 0.42188-1.0625 1.0625-1.1367 1.7656z"/>
  <path d="m16.227 32.551c0.11719-0.13672 0.23047-0.27734 0.34766-0.41406 0.46094-0.51953 1.0586-0.95703 1.3984-1.5664-0.6875-0.078124-1.3398 0.070313-2.0234 0.054688-0.53125-0.011719-1.043-0.15625-1.582-0.13281-0.32031 0.039062-0.62109 0.10156-0.92969 0.20312 0.31641 0.32031 0.64844 0.62891 0.95703 0.95703 0.41016 0.4375 0.75 0.99219 1.2852 1.2812 0.23828-0.015625 0.39844-0.21484 0.55078-0.38672z"/>
  <path d="m15.539 37.531c0.98438 0.007812 2.1211-0.074219 2.8633-0.80859 0.20703-0.20312 0.45312-0.55078 0.49609-0.84766-0.050782-0.10938-0.09375-0.14453-0.21094-0.1875-0.28125-0.10547-0.62891-0.12891-0.92188-0.19141-0.69531-0.14453-1.3359-0.33203-1.9805-0.63281-0.058594-0.027343-0.03125-0.019531-0.074218-0.027343-1.2461 0.65625-2.1719 0.67969-3.4727 1.0078 0.97266 1.0391 1.8516 1.6016 3.3008 1.6836z"/>
  <path d="m66.723 75.027c0.28906-0.55078 0.5625-1.125 0.87891-1.6641-0.83594-1.8125-2.543-3.4414-3.8398-4.9727-0.73828-0.87109-1.4141-1.793-2.0586-2.7344-1.6992-2.4883-2.7617-5.3086-4.1875-7.9414-0.76562-0.17578-1.6289-0.37891-2.418-0.28906-1.2812 0.082031-2.4766 0.375-3.668 0.84766 0.875 2.8398 2.0078 5.6289 3.6836 8.0977 3.0195 4.4492 7.7773 6.7539 4.5625 12.895-0.46875 0.89453-1.0273 1.7578-1.7109 2.4961-0.89844 0.96875-3.0781 2.1367-2.5703 3.7188 0.089844 0.27734 0.28906 0.48438 0.55078 0.60547 0.5625 0.25391 1.3047 0.18359 1.8828 0.023437-0.16016-1.0742 0.28516-1.9688 0.91797-2.8125 0.21094-0.28125 1.0273-1.332 1.3477-1.3789-0.55859 0.92969-1.8164 2.7148-1.5195 3.8203 0.046875 0.17578 0.14844 0.31641 0.30859 0.40625 0.44141 0.24609 1.293 0.085938 1.7578-0.070312 0.99219-0.32812 1.5742-1.1445 2.0195-2.0469 0.69531-1.4141 1.2461-2.9141 1.8555-4.3633 0.66406-1.582 1.4141-3.125 2.207-4.6445z"/>
  <path d="m71.109 48.434c-0.082031-0.046875-0.16016-0.070313-0.25-0.078125-0.36719 0.24609-0.55078 0.53906-0.62891 0.97656-0.12109 0.69531 0.1875 1.4375 0.58984 1.9883l0.0625 0.027344c0.44141-0.66797 0.8125-1.5078 0.62891-2.3281-0.050781-0.22656-0.19922-0.47266-0.40234-0.58594z"/>
  <path d="m67.484 60.164c-0.078125-0.039062-0.16016-0.0625-0.24219-0.089843-0.29297 0.33594-0.39453 0.66406-0.36328 1.1133 0.035156 0.50781 0.26953 1.2656 0.63672 1.6328 0.09375 0.007813 0.054687 0.019532 0.11719-0.007812 0.34766-0.55469 0.55078-1.2422 0.38672-1.8984-0.070312-0.29297-0.25781-0.60937-0.53516-0.75z"/>
  <path d="m70.391 54.855c-0.097656-0.066407-0.20703-0.085938-0.32422-0.097657-0.39453 0.1875-0.66797 0.40234-0.82031 0.82422-0.1875 0.51562-0.046875 1.2539 0.19141 1.7383 0.066406 0.12891 0.14844 0.29688 0.28516 0.35938 0.49219-0.64453 1.0586-1.5 0.92578-2.3594-0.027344-0.1875-0.10938-0.35547-0.26563-0.46484z"/>
  <path d="m66.012 66.289c-0.085938-0.050781-0.17188-0.089843-0.26562-0.10937-0.23047 0.35547-0.30078 0.70312-0.21484 1.1211 0.10547 0.51562 0.41406 1.0195 0.86719 1.3008 0.042968 0.027344 0.089843 0.054688 0.13672 0.078126 0.23828-0.375 0.25781-0.98047 0.16016-1.3984-0.09375-0.39453-0.32812-0.78516-0.67969-0.99609z"/>
  <path d="m70.684 41.93c-0.078125-0.011719-0.082032-0.011719-0.15625-0.015626-0.29297 0.29297-0.4375 0.60547-0.4375 1.0273 0 0.67969 0.41016 1.4727 0.89062 1.9375 0.007812 0.007813 0.019531 0.019532 0.03125 0.027344 0.20703-0.14844 0.27734-0.5625 0.31641-0.8125 0.09375-0.58984 0.097656-1.3906-0.25781-1.8945-0.09375-0.13281-0.21875-0.25-0.38281-0.27734z"/>
  <path d="m94.441 55.348c-0.29688-0.34766-0.63672-0.60938-1.0703-0.75391-0.57422 0.17188-1.0859 0.50781-1.3789 1.0508-0.23828 0.44922-0.19922 0.86719-0.042969 1.3359 0.28906 0.87109 0.65625 1.707 0.87891 2.5977 0.65625 2.6289 0.26562 5.7266-0.92188 8.1445-1.0039 2.043-2.8711 3.9258-5.0508 4.6602-1.3281 0.44531-2.8711 0.55469-4.1484-0.09375-1.8906-0.95312-3.0078-3.0664-3.6289-5-0.96094-2.9961-0.9375-6.0352-0.69922-9.1289 0.44141-5.7773 1.5117-11.059-0.87891-16.602-0.67578-1.5703-1.5508-3.0352-2.6367-4.3594-1.8125-2.207-3.9688-4.0859-6.5117-5.3984-6.8281-3.5234-12.844-2.7188-20.008-0.82812-2.2188 0.58594-4.7578 1.3945-7.0508 1.5234-2.3633 0.13281-4.6914-0.34375-6.8828-1.2188-2.0391-0.81641-4.0195-2.0742-5.7344-3.4336-0.70312-0.55859-1.3359-1.25-2.0898-1.7422-0.64844 2.4766-2.0898 5-4.3477 6.3203l-0.042969 0.023437c-0.03125 0.23438-0.054687 0.47266-0.10156 0.70313 1.2695 0.31641 2.5977 0.93359 3.6641 1.7031-1.2656-0.46484-2.4766-0.98047-3.7656-1.3906-0.125 0.32031-0.26172 0.63281-0.41016 0.94531 0.90234 0.36719 1.6992 0.80469 2.4531 1.418-0.60547-0.30859-1.2188-0.66797-1.8633-0.88281 0.72266 0.71094 1.3438 1.4023 1.8477 2.2891-0.79688-0.92578-1.5742-1.8438-2.6172-2.5117-0.15234 0.22266-0.30078 0.44531-0.46875 0.65625 0.8125 0.79297 1.3242 1.6914 1.7852 2.7227-0.35938-0.49609-0.71094-1.0039-1.0977-1.4805-0.28125-0.34375-0.61719-0.66016-0.86719-1.0273-0.32812 0.22656-0.66406 0.40234-1.0312 0.55859-0.57031 1.0078-1.2031 1.668-2.3477 1.9805-1.3711 0.375-3.0742 0.21875-4.3125-0.49219-0.65234-0.375-1.1328-0.96875-1.5938-1.5547 0.34375 0.82812 0.52344 1.6914 0.8125 2.5352 0.22266 0.65234 0.57422 1.2656 0.72656 1.9375 0.36328 1.5703 0.50391 3.207 0.80078 4.793 0.76953 4.0938 2.3047 8.5977 5.8125 11.141 0.86328 0.625 1.8164 1.0625 2.793 1.4688 0.58594 0.24219 1.1758 0.48828 1.7891 0.64844-0.41016-1.1758-0.83984-1.3984-1.3945-2.3594-1.2578-2.1641-1.082-4.75-0.03125-6.9531 0.20312-0.42188 0.42578-0.81641 0.71484-1.1875-0.85938 2.2148-1.418 4.7383-0.42188 7.0156 0.49609 1.1367 1.4609 1.8633 1.8438 3.0938 0.72656 2.3398 0.76563 5.8828 0.92578 8.3633 0.16406 2.5703 0.42969 5.1328 0.29688 7.7148-0.050781 0.97266-0.3125 1.8672-0.45312 2.8203-0.078125 0.53516-0.066406 1.0898-0.11719 1.6289-0.085937 0.88281-0.34766 1.8086-0.66406 2.6367-0.33984 0.89062-0.87891 1.8789-1.5117 2.5938-0.66016 0.74219-1.7305 0.96094-1.8477 2.1133-0.035157 0.35156 0.03125 0.73828 0.18359 1.0586 0.10156 0.21875 0.27344 0.39062 0.51172 0.46094 0.17188 0.050781 0.375 0.054687 0.55469 0.0625-0.042969-0.97656 0.011719-1.8945 0.70312-2.6562 0.53516-0.58594 1.1914-0.74609 1.9492-0.80078-0.85547 0.55469-1.6211 1.0742-1.8477 2.1406-0.11328 0.53906-0.14453 1.2734 0.18359 1.7383 0.15234 0.21875 0.37109 0.32812 0.63281 0.36719 0.54297 0.078125 1.1562-0.042969 1.6914-0.13281-0.30859-0.74609-0.43359-1.5547-0.11328-2.3242 0.21094-0.50781 0.61719-0.90625 1.1289-1.1133 0.16406-0.066407 0.33594-0.11328 0.50391-0.16406-0.60156 0.44141-0.97656 0.76562-1.0977 1.5469-0.089844 0.57422-0.035156 1.3984 0.33203 1.8633 0.13672 0.17188 0.31641 0.28906 0.53906 0.31641 0.51953 0.058593 1.0898-0.31641 1.4727-0.64062 0.49219-0.42188 0.74219-0.85547 0.78906-1.5117 0.097656-1.3398-0.20312-5.0586 0.1875-6.0234 0.16406-0.40234 0.50391-0.74219 0.78906-1.0625 0.085937-1.1016 0.15625-2.1992 0.35547-3.2852 0.40625-2.2227 1.1445-4.4648 1.6992-6.6641 0.050782-0.20703 0.28125-0.90234 0.19922-1.0703-0.011719-0.003906-0.027344-0.003906-0.039063-0.007812-0.19141-0.046875-0.28516-0.13672-0.37891-0.30859-0.30469-0.5625-0.17969-1.4844 0.027344-2.0664 0.10156-0.28516 0.27734-0.49609 0.55078-0.625 0.14453-0.070313 0.30078-0.089844 0.45703-0.11328l0.011719-0.078124c0.070313-0.57813 0.050781-1.1641 0.078125-1.7461 0.035156-0.69531 0.16016-1.3906 0.35547-2.0625 0.80859-2.7969 2.5234-5.2031 2.832-8.1641 0.13672-1.3203 0.070313-2.6328-0.085937-3.9453-0.066407-0.5625-0.17969-1.1367-0.21875-1.6992 0.25391 0.78906 0.52344 1.5781 0.69922 2.3906 0.57422 2.6641 0.09375 5.1406-0.88672 7.6211-0.40234 1.0156-0.90234 2.0273-1.207 3.0742 3.0742 0.54687 6.9844 0.16797 9.9688-0.72656 3.6406-1.0938 8.1367-3.9297 12.016-3.0039-1.3438-3.332-2.0703-5.8672-1.7578-9.5234 0.082031-0.95312 0.1875-1.9219 0.54297-2.8203-0.039063 0.82812-0.12891 1.6602-0.125 2.4883 0.023437 3.0586 0.71875 6.1875 1.918 8.9961 0.48437 1.1328 1.0664 2.2266 1.5898 3.3438 1.168 2.5 2.4102 4.9375 4.0508 7.1641 0.6875 0.93359 1.4336 1.8203 2.1992 2.6875 0.78516 0.89062 1.6289 1.793 2.2812 2.793 0.31641 0.53516 0.625 1.0547 0.80859 1.6523 0.625 2.0703 0.26172 5.2305-0.27344 7.3281-0.28906 1.1445-0.71094 2.2266-1.3594 3.2188-0.64844 0.98828-1.75 1.332-1.9883 2.6367-0.054687 0.30469-0.035156 0.62891 0.12891 0.89844 0.19531 0.31641 0.53906 0.48828 0.89062 0.56641 0.41797 0.09375 0.83984 0.070313 1.2617 0.011719-0.24219-0.63281-0.078125-1.3359 0.1875-1.9375 0.44141-1 1.0664-1.6992 2.0508-2.1836-0.83203 0.90234-1.7148 1.8906-1.668 3.2031 0.011718 0.3125 0.089844 0.63281 0.33203 0.84766 0.24219 0.21484 0.58984 0.24609 0.89844 0.21484 1.0039-0.10547 1.832-0.76562 2.4336-1.5352 0.27344-0.34766 0.54297-0.75391 0.6875-1.1758 0.21094-0.62109 0.21094-1.3633 0.27734-2.0117 0.066406-0.62109 0.17188-1.2305 0.31641-1.8398 0.33984-1.3945 0.84375-2.7383 1.4531-4.0352 0.48047-1.0273 1.4688-2.5586 1.3438-3.707-0.12891-1.1719-1.1445-2.2578-1.7148-3.2617-0.89453-1.5781-1.4531-3.332-1.5977-5.1445-0.20703-2.6055 0.13672-5.1445 0.57422-7.7109 0.69141-4.043 2.125-10.594 1.2461-14.516-0.33594-1.4883-0.98047-2.9375-1.5859-4.3359-0.4375-1.0039-0.86328-2.0078-1.3477-2.9922 1.1445 1.3633 2.418 3.4609 3.1172 5.0898 0.30078 0.69531 0.51172 1.4297 0.73047 2.1562 0.60547 2.0273 1.1133 4.125 1.25 6.2461 0.12891 2.0078-0.011718 3.9883-0.18359 5.9844-0.13281 1.5586-0.30469 3.1016-0.33984 4.668-0.085938 4.0117 0.58203 8.8633 3.2344 12.031 1.4688 1.7578 3.2461 2.7383 5.5469 2.9414 2.4922 0.21875 4.9102-0.88281 6.7734-2.4688 0.6875-0.58203 1.3008-1.2656 1.8047-2.0156 1.4453-2.1445 2.6914-5.7383 2.8984-8.3398 0.16797-2.1094-0.10547-5.3359-1.5195-6.9961zm-26.59-17.5c0.13281 0.5 0.14844 1.3008-0.13672 1.75-0.14453 0.22656-0.28906 0.36328-0.55078 0.42578-0.12109-0.019532-0.24609-0.039063-0.35937-0.085938-0.71094-0.27344-1.3398-1.0586-1.625-1.7422-0.17969-0.43359-0.27344-0.97656-0.070313-1.4219 0.15234-0.33594 0.39453-0.5 0.72656-0.63281 0.32422-0.035156 0.62109 0.011719 0.90234 0.17578 0.54297 0.3125 0.94922 0.92969 1.1094 1.5273zm-2.0781 10.434c-0.21094 0.24219-0.33594 0.33594-0.66016 0.35156-0.023437-0.011718-0.042969-0.023437-0.066406-0.035156-0.59375-0.3125-1.0781-1.2031-1.2734-1.8203-0.19531-0.61719-0.22266-1.3047 0.097656-1.8867 0.25391-0.46094 0.63281-0.69141 1.125-0.82812 0.26562 0.027344 0.48828 0.10938 0.69922 0.28125 0.46484 0.38281 0.66797 1.0586 0.72266 1.6406 0.070312 0.75-0.14062 1.7148-0.64062 2.2969zm-3.6367-16.734c0.27734-0.41797 0.95312-0.64844 1.4297-0.73438 0.80078-0.035156 1.5625 0.24219 2.2227 0.68359 0.34375 0.23047 0.85547 0.60938 0.92188 1.0391 0.019531 0.13281-0.007813 0.26172-0.089844 0.36719-0.28516 0.38281-0.98438 0.49609-1.4258 0.58203-0.80859 0.074219-1.5703-0.035156-2.2773-0.44922-0.36328-0.21094-0.77734-0.53906-0.875-0.96875-0.042969-0.18359-0.011719-0.36328 0.09375-0.52344zm0.16797 6.3906c0.46484 0.39453 0.86719 0.96484 0.89844 1.5938 0.015625 0.30859-0.066406 0.61328-0.28516 0.83984-0.28516 0.29297-0.66797 0.35938-1.0547 0.375-0.61328-0.03125-1.1562-0.13281-1.6875-0.45312-0.44141-0.26562-0.82422-0.66016-0.94141-1.1758-0.078125-0.35938-0.019531-0.73828 0.17969-1.0469 0.28516-0.44531 0.73047-0.66016 1.2266-0.76953 0.625-0.039062 1.1992 0.24219 1.6641 0.63672zm-6.9219-5.9688c0.36719-0.44531 1.0898-0.66406 1.6445-0.73438 0.80078-0.054687 1.4961 0.003906 2.207 0.39844 0.32812 0.18359 0.70703 0.45703 0.80078 0.84375 0.054688 0.21484-0.003906 0.42969-0.12891 0.61328-0.32422 0.47656-1.0664 0.70312-1.6094 0.8125-0.86719 0.097656-1.8477-0.058594-2.5664-0.58203-0.25-0.18359-0.49219-0.4375-0.53125-0.75781-0.027344-0.21484 0.039062-0.42578 0.17578-0.59375zm-24.402 7.0703c0.375 0.125 0.68359 0.44531 0.83984 0.80078 0.16797 0.38672 0.17578 0.83594 0.011719 1.2227-0.15234 0.35547-0.41016 0.57422-0.75781 0.71875-0.20703 0.027344-0.35156 0.023438-0.53906-0.078125-0.34375-0.18359-0.53516-0.55078-0.64453-0.91016-0.17969-0.58203-0.11328-1.0664 0.17969-1.5859 0.1875-0.10938 0.35547-0.1875 0.56641-0.24219 0.11719 0.011718 0.23438 0.035156 0.34766 0.070312zm-1.5664-5.5273c0.34766 0.082031 0.64844 0.29297 0.83594 0.59766 0.21484 0.34766 0.27344 0.78906 0.17578 1.1875-0.09375 0.375-0.28906 0.625-0.61719 0.82031-0.16016 0.011718-0.29688 0.007812-0.44922-0.050782-0.33203-0.13281-0.56641-0.45312-0.69141-0.77734-0.16016-0.41016-0.20312-0.92578-0.019531-1.3398 0.11719-0.26172 0.27734-0.36328 0.53906-0.46484 0.078125-0.003906 0.14844 0.007813 0.22656 0.023437zm-0.75391 14.559c-0.19141 0.37891-0.4375 0.60156-0.83984 0.72656-0.09375-0.007813-0.19141-0.015625-0.28125-0.039063-0.26172-0.066406-0.5-0.28516-0.61719-0.51953-0.20312-0.39844-0.17578-0.91797-0.039063-1.332 0.15625-0.46484 0.44531-0.82422 0.89063-1.0312 0.15234-0.007812 0.29687-0.007812 0.44141 0.050781 0.26172 0.10938 0.44531 0.33594 0.54297 0.59766 0.17578 0.48437 0.13281 1.0898-0.097656 1.5508zm-1.5586-19.395c0.046876-0.23828 0.16016-0.34766 0.35938-0.47656 0.054687 0 0.10547 0 0.16016 0.007812 0.34766 0.039063 0.72656 0.39062 0.92969 0.66016 0.20703 0.26953 0.37109 0.625 0.30859 0.97266-0.042969 0.24219-0.19141 0.37109-0.37891 0.50781-0.10938 0.027344-0.20703 0.042969-0.32031 0.027344-0.3125-0.046875-0.60156-0.31641-0.77344-0.56641-0.21875-0.32031-0.36328-0.73828-0.28516-1.1289zm-1.7188 12.516c-0.18359 0.44141-0.48047 0.70703-0.91016 0.89844-0.16797 0.027344-0.3125 0.007812-0.46875-0.058594-0.20312-0.085938-0.33203-0.24609-0.41016-0.44922-0.16016-0.44141-0.089844-1.043 0.11328-1.4609 0.1875-0.37891 0.41406-0.55469 0.80469-0.69531l0.066406 0.019531c0.0625 0.019532 0.12109 0.035157 0.17969 0.058594 0.27344 0.10547 0.51953 0.35938 0.63672 0.625 0.14844 0.33594 0.12109 0.72656-0.015625 1.0625zm0.11719-3.4648c-0.25-0.40234-0.34375-0.94141-0.21875-1.3984 0.082031-0.3125 0.21875-0.48438 0.49219-0.64844 0.11328-0.007813 0.22656-0.011719 0.33984 0 0.27734 0.027343 0.53516 0.23437 0.69531 0.44922 0.25 0.33984 0.33594 0.80078 0.25391 1.2148-0.078125 0.38672-0.25781 0.625-0.57422 0.84766-0.11719 0.023438-0.23828 0.042969-0.35547 0.023438-0.26172-0.046875-0.49609-0.26953-0.63281-0.48828zm1.1641 18.707c-0.23828-0.10938-0.41016-0.32422-0.5-0.57031-0.19531-0.51953-0.078124-1.2266 0.16797-1.7109 0.17969-0.35156 0.39062-0.5625 0.76562-0.68359 0.12109 0.011719 0.24609 0.023438 0.35547 0.078125 0.23047 0.11328 0.39453 0.35156 0.47656 0.58984 0.17578 0.50391 0.14453 1.2266-0.10156 1.6992-0.19922 0.38672-0.41797 0.55078-0.82812 0.67578-0.11328-0.015625-0.23438-0.03125-0.33984-0.078125zm1.0664 9.3203c-0.24609-0.074218-0.44141-0.24609-0.5625-0.47266-0.21875-0.41797-0.20312-0.97266-0.054688-1.4102 0.14453-0.42188 0.36328-0.69141 0.75781-0.89453 0.12109-0.003906 0.24609-0.011718 0.36328 0.015626 0.26953 0.066406 0.50391 0.26172 0.63281 0.50391 0.20312 0.38281 0.23047 0.91406 0.10547 1.3242-0.13672 0.45703-0.40625 0.73828-0.82422 0.95313-0.14063 0.011718-0.28125 0.023437-0.41797-0.019532zm2.7617 4.8711c-0.16406 0.36328-0.375 0.5625-0.74609 0.70312-0.16016 0-0.32812 0.007813-0.48047-0.050781-0.25391-0.097656-0.45312-0.30469-0.55859-0.55469-0.17578-0.43359-0.089843-0.99219 0.09375-1.4102 0.17188-0.38281 0.36719-0.58594 0.75391-0.73438 0.14062 0.003906 0.27344 0.011719 0.40234 0.0625 0.26953 0.10938 0.46875 0.31641 0.57812 0.58203 0.17969 0.42969 0.14453 0.97266-0.046875 1.3984zm1.6758-10.141c-0.11719 0.46875-0.375 0.78125-0.78125 1.0312-0.12109 0.03125-0.24219 0.050781-0.36719 0.023437-0.28125-0.054687-0.50781-0.19922-0.65625-0.44531-0.24609-0.39844-0.26562-0.95703-0.14062-1.3984 0.125-0.44922 0.32422-0.67969 0.72656-0.89844 0.10156 0 0.19141 0 0.28906 0.023437 0.32422 0.070313 0.60156 0.23047 0.78125 0.51953 0.21094 0.33984 0.25 0.76172 0.15234 1.1445zm0.55078-8.5078c-0.15234 0.44531-0.39844 0.75781-0.82031 0.96094-0.14453 0.019531-0.26953 0.019531-0.41016-0.019531-0.26172-0.070313-0.46875-0.23438-0.59375-0.47656-0.21484-0.41406-0.19531-0.94141-0.058593-1.375 0.15234-0.48828 0.39844-0.79297 0.85156-1.0273 0.14062-0.011718 0.30078-0.007812 0.43359 0.03125 0.24219 0.070313 0.4375 0.24219 0.55469 0.46094 0.22266 0.42188 0.19531 1 0.042969 1.4414zm-0.19141-18.77c-0.19922-0.27344-0.32812-0.64453-0.26172-0.98438 0.0625-0.31641 0.21484-0.5 0.47266-0.67578 0.13281-0.011719 0.26562-0.011719 0.40234-0.003906 0.52344 0.039062 1.1211 0.4375 1.4531 0.82812 0.17969 0.21094 0.32031 0.47266 0.28125 0.76172-0.042969 0.3125-0.26562 0.49219-0.50781 0.66406-0.22656 0.074219-0.44531 0.125-0.68359 0.097656-0.45312-0.054687-0.89062-0.3125-1.1602-0.68359zm0.62891 11.664c0.10938-0.43359 0.32031-0.67188 0.69922-0.89453 0.13281-0.011718 0.27344-0.03125 0.40625-0.011718 0.27344 0.039062 0.53125 0.23438 0.67969 0.46094 0.26172 0.39844 0.28125 0.94922 0.16797 1.3984-0.11328 0.44531-0.31641 0.71875-0.69922 0.95703-0.13672 0.035156-0.28516 0.046875-0.42578 0.015625-0.26562-0.0625-0.48438-0.24609-0.625-0.48047-0.24609-0.40625-0.31641-0.98828-0.19922-1.4492zm1.9141 11.66c-0.21094 0.41406-0.50781 0.65234-0.94141 0.80078-0.11719-0.015625-0.21094-0.039062-0.31641-0.089843-0.23438-0.12109-0.40625-0.32422-0.47266-0.57813-0.11328-0.41406 0.019531-0.89062 0.24609-1.2461 0.20312-0.32031 0.48437-0.55469 0.85547-0.64062 0.38281 0.035156 0.48828 0.09375 0.75391 0.38281 0.14063 0.46484 0.10156 0.9375-0.12109 1.3711zm2.0117-16.289c-0.09375 0.35547-0.26953 0.52734-0.58594 0.70312-0.15625 0.042969-0.29297 0.070313-0.45312 0.027344-0.28125-0.074218-0.49219-0.27344-0.625-0.52734-0.22266-0.42187-0.26562-0.99219-0.11328-1.4414 0.097656-0.29688 0.25-0.45703 0.52734-0.59375 0.12109-0.007812 0.26172-0.015625 0.38281 0.007813 0.27344 0.058593 0.52344 0.29688 0.66406 0.52734 0.22656 0.37109 0.3125 0.87109 0.20312 1.293zm2.8984-4.7812c-0.097657 0.29297-0.47656 0.49609-0.73438 0.62109-0.42578 0.12109-0.81641 0.12891-1.2305-0.039062-0.40625-0.16406-0.76953-0.5-0.93359-0.91016-0.078125-0.19141-0.10156-0.41016-0.007812-0.60156 0.12891-0.27344 0.36328-0.37109 0.63281-0.47266 0.36719-0.015625 0.70312 0.015625 1.0586 0.11328 0.44141 0.125 0.9375 0.36328 1.1562 0.78516 0.085937 0.16406 0.11328 0.32422 0.054687 0.50391zm0.34766 5.2344c-0.21094-0.32812-0.30859-0.75391-0.21875-1.1367 0.074219-0.3125 0.23047-0.47656 0.49609-0.64062 0.16406-0.023438 0.3125-0.039063 0.47656 0.003906 0.39062 0.097656 0.72656 0.39062 0.92969 0.73047 0.18359 0.30078 0.29297 0.68359 0.19531 1.0312-0.085937 0.30078-0.28906 0.44531-0.55078 0.59375-0.16406 0.035156-0.31641 0.066406-0.48047 0.03125-0.35547-0.070313-0.65625-0.3125-0.84766-0.61328zm2.1953 5.2891c-0.10156 0.32812-0.34766 0.51172-0.63672 0.67578-0.16016 0.027344-0.3125 0.039063-0.47656-0.003906-0.30859-0.082031-0.55859-0.30078-0.71094-0.58203-0.18359-0.33984-0.23438-0.76953-0.10938-1.1367 0.10547-0.30859 0.30078-0.45703 0.58203-0.60156 0.11328 0 0.23438 0.011718 0.34375 0.035156 0.37109 0.089844 0.70312 0.39453 0.88281 0.72266 0.14844 0.27344 0.21484 0.58984 0.12109 0.89062zm0.042968-12.297c-0.19141-0.11328-0.47266-0.32031-0.50781-0.5625-0.019532-0.13672 0.011718-0.25 0.09375-0.35938 0.33594-0.42969 1.1641-0.44922 1.6758-0.51172 0.007813 0 0.015625-0.003906 0.023437-0.003906 0.4375-0.046875 0.98828-0.03125 1.3438 0.25781 0.14063 0.11328 0.25 0.28125 0.26563 0.46484 0.019531 0.21484-0.078126 0.41797-0.22266 0.57422-0.37109 0.41797-0.87891 0.49609-1.4023 0.52344-0.45703-0.035156-0.87891-0.14844-1.2734-0.38672zm4.375 10.59c-0.097656 0.32812-0.33203 0.47266-0.61328 0.62891-0.17578 0.054688-0.31641 0.078125-0.50391 0.042969-0.35547-0.066407-0.64844-0.29297-0.83984-0.59766-0.19922-0.3125-0.28516-0.69922-0.19531-1.0625 0.078126-0.30859 0.25-0.45312 0.51172-0.61719 0.15234-0.019531 0.32812-0.03125 0.48047 0 0.40625 0.089844 0.82031 0.4375 1.0273 0.79297 0.14062 0.24219 0.21484 0.53516 0.13281 0.80859zm0.16797-6.0664c-0.13672 0.33984-0.47656 0.50391-0.79688 0.62891-0.45703 0.078125-0.9375 0.078125-1.3633-0.12891-0.31641-0.15234-0.57422-0.41016-0.67578-0.75391-0.066407-0.22266-0.058594-0.47266 0.066406-0.67578 0.16406-0.26172 0.4375-0.41797 0.73047-0.48828 0.35547-0.023438 0.70703 0 1.043 0.11719 0.37891 0.13281 0.78906 0.37891 0.96484 0.75781 0.078125 0.17188 0.10156 0.36328 0.027344 0.53906zm1.1797-4.5078c-0.023437-0.22266 0.0625-0.43359 0.19922-0.60547 0.42188-0.53125 1.1953-0.76953 1.8477-0.83984 0.50391-0.054687 1.125 0.03125 1.5781 0.26563 0.21094 0.10937 0.43359 0.28125 0.49609 0.51953 0.042969 0.15234 0.007813 0.30859-0.074218 0.44141-0.34375 0.55469-1.2539 0.79688-1.8477 0.94922-0.57812 0.074218-1.375 0.10938-1.875-0.23438-0.16406-0.11328-0.30078-0.28906-0.32031-0.49219zm4.1484 8.8359c-0.39453 0.49609-1.1445 0.73047-1.7539 0.81641l-0.054688 0.003906c-0.027344 0.003906-0.058594 0.003906-0.085937 0.007813-0.45703 0.042968-1.0234-0.03125-1.3984-0.3125-0.19141-0.14453-0.33594-0.34766-0.36719-0.58984-0.039063-0.28516 0.085937-0.55469 0.26562-0.76953 0.44531-0.52344 1.1055-0.67187 1.7578-0.72266 0.49219 0.019532 1 0.13672 1.4023 0.4375 0.19531 0.14844 0.375 0.35547 0.40234 0.60938 0.023437 0.19141-0.054688 0.37109-0.17188 0.51953zm3.7578-4.9375c-0.23047 0.49219-0.91797 0.76172-1.4023 0.92188-0.58594 0.11328-1.2461 0.12109-1.8047-0.11719-0.32422-0.14062-0.62109-0.37891-0.74609-0.71875-0.097657-0.26562-0.066407-0.55078 0.058593-0.80078 0.26953-0.53516 0.86719-0.84375 1.4102-1.0195 0.4375-0.050782 0.82812-0.015626 1.2383 0.15234 0.45312 0.1875 1.0781 0.60547 1.2578 1.0742 0.066407 0.17188 0.0625 0.34375-0.015625 0.50781zm0.73438 7.6367c-0.28906-0.73438-0.30078-1.5234 0.019531-2.2461 0.22656-0.51172 0.55859-0.89453 1.0859-1.1016 0.125 0.007813 0.25391 0.011719 0.375 0.042969 0.38672 0.10156 0.73047 0.39062 0.92969 0.73438 0.29688 0.51172 0.39062 1.1836 0.23438 1.7539-0.19922 0.72266-0.67578 1.3359-1.3242 1.707-0.22266 0.0625-0.36328 0.082032-0.57812-0.007812-0.38672-0.15625-0.59375-0.50781-0.74219-0.87891zm3.3633 6.2148c-0.18359 0.60156-0.50391 1.0977-1.0664 1.4023-0.17578 0.019531-0.32812 0.015625-0.48828-0.070313-0.49219-0.26172-0.76953-0.85938-0.91016-1.375-0.18359-0.67969-0.10938-1.4883 0.25781-2.0977 0.20312-0.33594 0.42969-0.52344 0.8125-0.61328 0.019531 0.003906 0.042968 0.007812 0.0625 0.011719 0.51562 0.125 0.92578 0.48437 1.1797 0.94531 0.30859 0.5625 0.33594 1.1914 0.15234 1.7969zm2.8359 9.5312c-0.16016 0.28516-0.33984 0.46094-0.65625 0.55469-0.070312-0.023437-0.14062-0.046874-0.20703-0.078124-0.64453-0.32813-1.168-1.1211-1.3516-1.8086-0.12891-0.47266-0.16016-1.0586 0.10938-1.4922 0.1875-0.30078 0.43359-0.4375 0.76953-0.51953 0.20312-0.003906 0.39453 0.023437 0.58203 0.11328 0.47656 0.23047 0.78516 0.75391 0.93359 1.2422 0.17969 0.60547 0.14062 1.4258-0.17578 1.9844zm1.0664-4.418c-0.22266-0.050781-0.41016-0.28906-0.51172-0.48047-0.45703-0.83594-0.66406-2.1562-0.35547-3.0703 0.17578-0.51562 0.44922-0.83203 0.92969-1.0742 0.11719-0.011718 0.24219-0.027344 0.35938-0.011718 0.26953 0.039062 0.55078 0.24609 0.71094 0.45703 0.40625 0.53125 0.51562 1.3828 0.41797 2.0312-0.11328 0.76562-0.49219 1.6172-1.125 2.082-0.12109 0.054688-0.29297 0.10156-0.42969 0.070312zm3.0703 12.129c-0.11719 0.34375-0.28516 0.54297-0.61328 0.69531-0.089844-0.015625-0.17969-0.035156-0.26562-0.066406-0.57422-0.20703-0.99219-0.71484-1.25-1.2539-0.25781-0.54297-0.41406-1.2539-0.19141-1.832 0.13281-0.33984 0.33594-0.52344 0.66016-0.67188 0.14453 0 0.28516 0.003906 0.42578 0.046875 0.48047 0.15625 0.85156 0.58203 1.0742 1.0195 0.30469 0.59375 0.38281 1.4258 0.16016 2.0625zm0.57812-5.1953c-0.13672 0.070312-0.24609 0.125-0.40625 0.078125-0.33594-0.097656-0.55859-0.44141-0.70703-0.73438-0.39062-0.75391-0.66797-1.7773-0.37891-2.6094 0.13281-0.38672 0.32813-0.60156 0.69531-0.78125 0.082031-0.003906 0.16406-0.007813 0.25-0.007813 0.33594 0 0.67578 0.19531 0.89844 0.4375 0.41797 0.45313 0.57031 1.1211 0.52734 1.7266-0.050781 0.70312-0.33594 1.4297-0.875 1.8945zm3.1641-6.5938c-0.26172 0.625-0.66016 1.2461-1.3125 1.5078-0.12891-0.011718-0.25-0.042968-0.35547-0.12109-0.45703-0.32812-0.68359-1.0586-0.77734-1.5938-0.11328-0.65234-0.066406-1.332 0.34375-1.8828 0.3125-0.42578 0.71875-0.61328 1.2305-0.68359 0.15234 0.007813 0.29688 0.015626 0.44141 0.074219 0.26953 0.10547 0.48047 0.3125 0.59375 0.57422 0.27734 0.65234 0.097656 1.4961-0.16797 2.125zm1.1953 13.281c0.19141 0.015625 0.39453 0.19141 0.5 0.34375 0.26953 0.38281 0.30859 0.94922 0.21875 1.3984-0.074219 0.375-0.21484 0.65234-0.53516 0.86328-0.085938 0.015625-0.17578 0.03125-0.26172 0.027343-0.19141-0.015624-0.34375-0.12109-0.46484-0.26953-0.26953-0.33594-0.32031-0.90234-0.26953-1.3125 0.058594-0.44531 0.21094-0.76562 0.5625-1.0469 0.082031-0.007812 0.16406-0.015625 0.24609-0.007812zm-0.24219-19.477c-0.19922 0.53125-0.50391 1.1211-1.0391 1.3672-0.12109-0.011719-0.23828-0.023437-0.34375-0.089844-0.52344-0.32422-0.82422-1.1641-0.95312-1.7422-0.14453-0.64844-0.09375-1.3086 0.28516-1.875 0.23438-0.35156 0.54297-0.55859 0.95703-0.64453 0.13281 0 0.25781 0.003907 0.38281 0.046876 0.35156 0.11719 0.60156 0.42187 0.74609 0.75 0.3125 0.69922 0.21875 1.4844-0.039063 2.1836zm-0.12109-8.4414c0.33984 0.80469 0.28516 1.8516-0.0625 2.6445-0.17188 0.39453-0.36719 0.64453-0.76953 0.80859-0.67187-0.3125-1.1172-1.0938-1.3711-1.7695-0.23438-0.62891-0.28125-1.3359 0.019531-1.9531 0.19141-0.39062 0.47656-0.625 0.87891-0.76562 0.14844 0.011719 0.30469 0.019531 0.44531 0.074219 0.41016 0.16016 0.69531 0.57031 0.85938 0.96094zm2.6133-1.9805c-0.14062-0.027343-0.23828-0.058593-0.35156-0.14844-0.33984-0.27344-0.58984-0.69531-0.63672-1.1328-0.027344-0.26172 0.046875-0.44922 0.21484-0.64844 0.078124 0 0.15234 0 0.23047 0.003906 0.20703 0.011719 0.35547 0.13672 0.48438 0.28906 0.25391 0.30078 0.39453 0.71484 0.35156 1.1094-0.027344 0.25-0.10156 0.37109-0.29297 0.53125zm3.8438 7.9805c0.019531 0.46484-0.003906 0.99609-0.33203 1.3555-0.082032 0.019531-0.1875 0.050781-0.26953 0.050781-0.10937-0.003906-0.20312-0.054687-0.28125-0.12891-0.34375-0.32422-0.37891-1.0508-0.375-1.5 0.003907-0.39453 0.042969-0.72656 0.33594-1.0156 0.046875-0.003906 0.09375-0.007812 0.14062-0.011719 0.17578-0.007812 0.29297 0.027344 0.42188 0.14844 0.28516 0.27734 0.34375 0.72656 0.36328 1.1016zm-0.32031 4.6133c-0.019531 0.39844-0.11719 0.70703-0.41016 0.98438-0.15625 0.023437-0.29297 0.039062-0.42188-0.074219-0.125-0.10547-0.17578-0.27734-0.19922-0.42969-0.070312-0.48047 0.0625-1.1484 0.36719-1.5352 0.15625 0.011719 0.28516 0.042969 0.39844 0.16406 0.22266 0.23047 0.28125 0.58594 0.26562 0.89453zm-0.98828-9.8945c0.054688 0 0.12109 0 0.17578 0.011719 0.16797 0.035156 0.27734 0.13672 0.36719 0.27734 0.21484 0.33984 0.24219 0.79688 0.14062 1.1797-0.054687 0.20703-0.10547 0.29297-0.28906 0.40625-0.11328-0.015625-0.19531-0.03125-0.28516-0.10938-0.29297-0.25-0.40625-0.76172-0.39453-1.1289 0.007813-0.27344 0.09375-0.44141 0.28516-0.62891zm-0.5625 14.707c0.058594-0.48828 0.24219-0.95312 0.63281-1.2617 0.0625-0.007813 0.12891-0.011719 0.19531-0.003906 0.15234 0.015624 0.26172 0.09375 0.34766 0.21484 0.17188 0.25 0.14453 0.62109 0.09375 0.90234-0.078124 0.41797-0.24219 0.77344-0.60156 1.0195h-0.039062c-0.19922 0-0.33594-0.015625-0.48047-0.17188-0.16797-0.17578-0.17188-0.47656-0.14844-0.70312zm0.61328 6.1562c-0.16016-0.003906-0.27344-0.046874-0.37891-0.17187-0.22266-0.25781-0.22656-0.67188-0.20703-0.99219 0.027344-0.44141 0.10547-0.85547 0.44531-1.1602h0.042968c0.19141 0.003906 0.31641 0.035156 0.44141 0.18359 0.24609 0.28516 0.27734 0.71875 0.25391 1.0781-0.027344 0.42578-0.14062 0.76953-0.46094 1.0586-0.046875 0.003906-0.09375 0.003906-0.14062 0.003906zm1.1797 4.5352c-0.37109-0.30078-0.65234-0.79297-0.67969-1.2734-0.015624-0.27734 0.058594-0.4375 0.23828-0.64062 0.16016-0.003906 0.28125 0 0.41797 0.09375 0.39063 0.26953 0.64844 0.88281 0.71484 1.3438 0.039063 0.26953 0.015625 0.42578-0.14453 0.64453-0.23047-0.003907-0.36719-0.019532-0.55078-0.16797zm1.6797 3.9609c-0.19141-0.035156-0.35547-0.082031-0.50391-0.21484-0.34766-0.3125-0.59766-0.84766-0.59766-1.3164-0.003906-0.27734 0.089844-0.44531 0.28125-0.63672 0.23438 0.015624 0.38281 0.085937 0.5625 0.24219 0.30469 0.27344 0.48828 0.68359 0.51172 1.0898 0.015625 0.3125-0.042969 0.59766-0.25 0.83203zm6.1641 1.3555c-0.14062 0.28516-0.44141 0.39844-0.71875 0.49609-0.17969 0.019531-0.34766 0.019531-0.52344-0.027344-0.16797-0.042969-0.36719-0.14453-0.44531-0.30859-0.066406-0.14453-0.066406-0.26953 0-0.41016 0.13281-0.28125 0.44531-0.36719 0.71484-0.45703 0.23438-0.015625 0.49609-0.007813 0.71094 0.09375 0.12891 0.058594 0.25781 0.16797 0.29688 0.30859 0.027344 0.10547 0.011719 0.21484-0.035156 0.30859zm4.457-1.1328c-0.17188 0.37109-0.53125 0.53125-0.89453 0.65234-0.22266 0.007813-0.52734 0.023438-0.72656-0.09375-0.097657-0.058594-0.1875-0.14062-0.21094-0.25781-0.019531-0.10156 0.011719-0.21094 0.0625-0.30469 0.19141-0.34375 0.53906-0.49219 0.89453-0.60156 0.1875-0.011719 0.37891-0.027344 0.5625 0.015625 0.13672 0.03125 0.27344 0.10156 0.33594 0.23438 0.050781 0.11328 0.03125 0.24219-0.019531 0.35156zm2.8945-3.7539c-0.12109 0.48438-0.49219 0.79297-0.90625 1.0273-0.070312-0.003906-0.12891-0.007812-0.19531-0.035156-0.11719-0.050782-0.17969-0.13281-0.22266-0.25-0.078125-0.21484 0.023437-0.51562 0.11719-0.71094 0.17188-0.35547 0.375-0.59375 0.75-0.73438 0.17969 0.042969 0.30078 0.074219 0.40234 0.24219 0.085937 0.14062 0.09375 0.30469 0.054687 0.46094z"/>
 </g>
</svg>