<?xml version="1.0" encoding="utf-8"?>
<!-- Generator: Adobe Illustrator 16.0.0, SVG Export Plug-In . SVG Version: 6.00 Build 0)  -->
<!DOCTYPE svg PUBLIC "-//W3C//DTD SVG 1.1//EN" "http://www.w3.org/Graphics/SVG/1.1/DTD/svg11.dtd">
<svg version="1.1" id="Layer_1" xmlns="http://www.w3.org/2000/svg" xmlns:xlink="http://www.w3.org/1999/xlink" x="0px" y="0px"
	 width="841.89px" height="595.28px" viewBox="0 0 841.89 595.28" enable-background="new 0 0 841.89 595.28" xml:space="preserve">
<path fill-rule="evenodd" clip-rule="evenodd" d="M237.74,178.433c6.84,10.346,16.065,12.689,26.98,6.913
	c3.946-2.088,7.594-4.729,11.464-6.969c5.425-3.141,10.613-7.085,16.456-9.038c19.982-6.687,38.599-15.875,55.684-28.154
	c10.752-7.73,21.725-15.074,33.938-20.343c7.511-3.239,15.281-5.598,23.626-6.697c-3.376,8.187-3.543,15.791,2.425,22.301
	c-3.653,2.543-7.216,5.03-11.1,7.735c-0.387-0.479-0.83-1.171-1.405-1.729c-10.609-10.36-26.06-14.545-38.797-3.451
	c-5.795,5.049-8.494,13.718-3.901,20.673c3.242,4.904,9.792,5.579,13.591,1.24c2.438-2.791,4.007-6.059,4.325-9.786
	c-2.626,1.677-5.097,3.617-7.877,4.882c-1.325,0.602-3.755,0.51-4.73-0.352c-1.002-0.88-1.334-3.161-1.094-4.693
	c0.849-5.416,8.306-10.892,14.671-11.276c8.897-0.535,15.47,3.78,21.4,9.924c-4.204,5.34-5.697,11.546-6.064,18.171
	c-9.93-4.637-10.747-3.913-16.505-3.815c-6.432,0.108-12.229,4.89-13.479,11.148c-0.371,1.877-0.06,3.893-0.06,6.479
	c-9.393-3.583-7.696-11.608-8.284-18.569c-0.247,0-0.489,0.002-0.736,0.006c-0.878,3.411-1.754,6.821-2.606,10.137
	c-5.322-5.674-6.794-13.023-7.714-20.649c-0.232,0.192-0.556,0.33-0.618,0.543c-2.294,7.888-2.813,15.595,2.198,22.812
	c7.006,10.097,15.61,11.59,26.986,6.309c-1.047-0.162-2.042-0.299-3.027-0.476c-2.926-0.517-3.396-1.352-2.155-4.075
	c0.406-0.895,1.004-1.747,1.667-2.479c3.926-4.294,9.051-6.259,14.594-5.472c7.107,1.008,9.881,2.047,10.224,7.851
	c0.047,0.825-0.387,2.152-0.999,2.464c-3.642,1.858-7.3,3.788-11.148,5.13c-7.716,2.683-15.66,4.411-23.913,3.403
	c-11.013-1.338-21.087-5.477-30.822-10.586c-3.545-1.858-7.071-3.825-10.79-5.271c-8.32-3.232-17.139-0.164-21.219,7.21
	c1.613-0.665,3.083-1.336,4.593-1.886c5.425-1.974,10.692-1.984,15.747,1.214c1.922,1.219,3.947,2.274,5.936,3.387
	c14.508,8.117,29.754,13.358,46.701,12.175c10.481-0.733,20.217-3.591,28.968-9.699c3.48,8.08,9.739,13.636,17.656,18.212
	c-3.201,0.577-5.54,1.298-5.938,4.345c-0.397,3.1,1.422,4.962,3.809,6.395c1.079,0.647,2.501,0.853,3.383,1.677
	c0.542,0.505,0.801,2.084,0.414,2.673c-1.048,1.589-2.509,2.906-3.805,4.328c0.2,0.188,0.397,0.376,0.6,0.562
	c-3.363,1.19-3.612,1.974-2.824,5.454c0.97,4.279,4.336,5.996,7.763,7.752c0,0.541,0.014,0.997-0.003,1.453
	c-0.75,18.96-1.516,37.917-2.227,56.88c-0.075,2.011-1.041,2.345-2.79,2.332c-3.333-0.028-4.48,1.189-4.332,4.48
	c0.053,1.217,0.489,2.425,0.775,3.726c-1.404,1.252-2.977,2.513-4.383,3.936c-1.684,1.702-1.992,3.933-0.63,5.754
	c1.066,1.434,2.929,2.268,4.549,3.453c-10.302,16.897-12.525,34.378-1.674,52.299c-3.815,0.786-4.984,5.181-1.662,8.183
	c2.638,2.373,5.667,4.316,8.15,6.173c0.627,1.535,1.152,2.837,1.869,4.604c-0.423,1.315-1.398,3.28-1.624,5.331
	c-0.276,2.491,1.012,4.072,3.591,3.541c-0.324,1.521-0.623,2.912-0.924,4.305c-2.452,0.895-5.071,2.027-5.799,4.885
	c-0.372,1.464,0.412,3.228,0.788,5.546c-6.579,7.656-9.14,16.831-3.574,27.525c-4.946,0-9.546,0-14.174,0
	c0.435,4.451,3.042,7.526,6.07,9.733c2.388,1.737,2.406,3.055,1.186,5.08c-0.796,1.315-1.649,2.638-2.699,3.755
	c-4.611,4.929-10.375,7.985-16.742,9.99c-2.333,0.733-4.697,1.369-7.045,2.049c0.029,0.156,0.057,0.312,0.086,0.466
	c36.288,0,72.575,0,108.865,0c-0.372-0.527-0.827-0.713-1.285-0.88c-4.6-1.681-9.359-3.025-13.76-5.12
	c-5.588-2.656-10.318-6.551-13.54-12.02c-0.796-1.349-0.813-2.151,0.604-3.385c2.883-2.502,6.189-4.972,5.707-9.757
	c-4.763,0-9.592,0-14.786,0c5.485-11.222,1.697-20.037-6.788-27.557c3.642-2.385,3.33-6.442-0.786-8.66
	c-1.967-1.063-2.761-2.348-2.753-3.51c1.323-1.874,2.439-2.978,2.947-4.317c0.103-0.27,0.132-0.529,0.104-0.77
	c-0.079-2.836-1.419-6.037-1.419-6.037l0,0c-0.123-0.341-0.276-0.719-0.453-1.139c2.211-0.308,2.475-1.664,1.806-3.176
	c2.362-1.775,4.591-3.616,6.984-5.212c2.009-1.342,3.773-2.817,3.612-5.399c-0.172-2.764-2.434-3.6-4.771-4.305
	c6.671-7.599,9.06-16.504,8.46-26.408c-0.592-9.813-3.297-18.754-10.726-26.136c1.172-0.055,1.906-0.213,2.596-0.099
	c3.671,0.608,5.438-3.363,4.149-6.087c-0.75-1.591-2.109-2.925-3.313-4.269c-0.715-0.795-1.657-1.387-2.466-2.047
	c2.479-4.776,1.459-6.213-6.333-9.281c-0.235-4.224-0.564-8.427-0.681-12.635c-0.401-14.938-0.715-29.882-1.125-44.822
	c-0.037-1.442,0.295-2.225,1.653-2.977c2.989-1.651,5.91-3.533,5.489-7.708c-0.031-0.305,0.326-0.636,0.333-0.959
	c0.015-0.927,0.312-2.294-0.167-2.701c-1.449-1.223-2.992-2.227-3.159-4.363c-0.024-0.278-0.438-0.629-0.75-0.768
	c-1.884-0.827-2.12-2.28-1.57-4.207c4.064-1.146,8.523-2.212,8.519-7.79c-0.004-2.583-2.124-3.938-6.761-4.756
	c8.354-4.065,14.868-9.605,18.12-18.331c1.204,0.803,2.25,1.523,3.318,2.21c14.684,9.422,30.601,9.969,46.989,6.271
	c11.586-2.613,22.065-8.053,32.395-13.692c5.777-3.153,11.412-3.314,17.254-0.504c1.13,0.543,2.271,1.069,3.855,1.816
	c-3.559-7.248-14.656-11.808-23.61-7.505c-6.089,2.922-12.111,5.982-18.269,8.736c-8.357,3.731-17.012,6.704-26.246,6.972
	c-11.048,0.313-21.218-3.007-30.702-8.542c-0.575-0.339-1.268-0.876-1.437-1.455c-0.684-2.406,0.979-6.052,3.293-7.1
	c6.994-3.179,13.764-2.615,19.876,2.021c1.763,1.334,2.857,3.628,4.041,5.609c0.813,1.367,0.15,2.232-1.451,2.383
	c-1.645,0.15-3.286,0.374-5.362,0.614c11.445,4.338,18.869,4.072,26.372-4.117c6.254-6.828,8.262-18.737,4.06-25.757
	c-0.573,8.167-3.414,15.206-9.079,20.881c-0.903-3.534-1.791-6.999-2.678-10.463c-0.876,3.397-1.215,6.742-1.614,10.081
	c-0.574,4.828-3.006,7.753-6.426,7.989c-0.207-2.163-0.081-4.417-0.684-6.461c-2.285-7.779-10.879-11.854-20.349-10.116
	c-3.374,0.619-6.572,2.209-9.853,3.354c-0.598-3.038-0.947-6.145-1.856-9.077c-0.933-3.007-2.417-5.845-3.522-8.438
	c1.378-1.518,2.561-3.052,3.97-4.338c8.28-7.591,19.463-8.259,27.745-1.653c2.749,2.195,4.545,4.967,4.496,8.665
	c-0.043,3.048-2.146,4.811-5.067,3.887c-1.613-0.507-3.106-1.502-4.521-2.476c-1.409-0.97-2.656-2.181-4.562-3.782
	c0.771,2.856,1.098,5.131,1.984,7.164c2.73,6.253,9.992,8.335,14.938,4.112c3.729-3.184,4.492-7.678,3.374-12.292
	c-2.839-11.729-15.984-19.286-28.262-16.522c-7.567,1.699-13.805,5.556-18.734,11.048c-3.922-2.597-7.69-5.093-11.479-7.602
	c6.288-6.271,7.925-13.563,4.322-22.376c4.459,1.096,8.452,1.932,12.361,3.059c16.745,4.837,30.941,14.43,45.024,24.247
	c13.858,9.656,28.165,18.576,44.314,23.951c10.992,3.66,21.235,8.572,30.538,15.553c3.024,2.268,6.598,3.907,10.101,5.425
	c6.959,3.01,13.814,2.993,19.705-2.379c10.76-9.813,14.347-22.218,10.787-36.063c-3.918-15.237-13.693-26.741-26.683-35.183
	c-8.049-5.229-17.185-7.5-26.949-5.238c-11.635,2.698-17.668,15.645-11.854,25.656c1.221,2.105,2.436,4.424,5.416,5.234
	c-2.907-5.464-3.215-6.961-2.417-10.308c0.557,1.628,1.234,3.625,2.156,6.321c0.504-2.808,0.702-4.8,1.232-6.697
	c2.135-7.654,9.297-13.11,17.696-13.609c8.531-0.508,16.638,4.275,19.96,11.779c5.98,13.501-5.207,29.938-20.574,30.001
	c-7.294,0.033-14.154-2.331-20.847-4.938c-7.766-3.024-15.404-6.38-23.094-9.589c0.12-0.282,0.236-0.564,0.352-0.846
	c0.627,0.253,1.267,0.477,1.877,0.769c9.869,4.717,19.749,9.295,30.714,11.119c10.711,1.783,20.47-4.185,23.298-14.64
	c1.123-4.151,0.306-7.774-2.224-11.075c-3.109-4.056-9.407-5.004-12.974-2.055c-3.775,3.123-4.208,8.98-0.861,13.02
	c0.794-2.269,1.563-4.472,2.335-6.675c0.088,1.827-0.412,3.453-0.914,5.078c-0.697,2.259-0.087,4.218,2.122,4.941
	c2.045,0.673,4.325,0.636,6.347,0.896c-2.849,4.71-10.564,7.417-17.516,6.084c-8.945-1.717-17.138-5.446-25.315-9.217
	c-15.238-7.026-28.836-16.778-42.797-25.923c-11.295-7.394-22.603-14.771-35.639-18.812c-4.729-1.466-9.605-2.459-14.396-3.665
	c7.626-9.702,4.371-22.04-2.472-28.196c-8.319-7.488-20.551-7.499-28.428-0.19c-8.621,8-9.635,18.735-2.569,28.354
	c-0.713,0.22-1.371,0.539-2.055,0.617c-7.565,0.877-14.778,2.972-21.791,5.928c-11.271,4.752-21.239,11.711-31.313,18.464
	c-16.771,11.238-33.619,22.294-52.751,29.256c-5.854,2.134-11.749,3.94-18.1,3.647c-4.816-0.224-10.074-3.046-11.999-6.591
	c5.977,0.376,6.188,0.284,9.767-4.16c2.661-3.308,2.504-8.481-0.362-11.627c-3.177-3.487-7.325-3.931-11.321-1.209
	c-3.922,2.67-5.573,7.33-4.347,12.355c3.207,13.18,12.374,16.738,24.158,15.388c8.278-0.951,15.854-4.162,23.334-7.551
	c5.529-2.505,10.909-5.329,16.359-8.018c-0.182,0.421-0.473,0.726-0.827,0.894c-9.081,4.249-17.982,8.961-27.314,12.563
	c-6.815,2.636-14.104,4.681-21.348,5.45c-14.663,1.559-26.403-11.663-23.574-25.729c1.776-8.829,8.625-15.391,18.042-15.777
	c6.563-0.271,17.364,3.834,19.634,13.655c0.493,2.126,0.753,4.304,1.233,7.126c0.872-2.412,1.501-4.149,2.129-5.885
	c0.312,0.101,0.622,0.203,0.936,0.306c-0.865,3.127-1.732,6.257-2.531,9.152c2.634-1.646,4.858-4.369,5.831-7.284
	c3.332-9.987-2.969-21.31-13.605-23.73c-9.946-2.265-19.067,0.581-27.31,6.07c-9.366,6.236-15.633,15.265-20.905,24.99
	C228.116,152.149,229.232,165.563,237.74,178.433z M580.721,180.36c-4.402-2.267-8.807-4.538-13.205-6.803
	c0.165-0.231,0.334-0.462,0.504-0.693c4.342,2.286,8.686,4.573,13.029,6.858C580.938,179.934,580.83,180.147,580.721,180.36z
	 M595.534,134.31c1.611,13.891,1.289,28.079,7.672,41.736c-13.95-1.321-25.986-5.54-36.447-14.54
	C583.369,159.706,593.77,151.622,595.534,134.31z M557.59,164.099c-15.97-0.823-29.334-8.322-42.625-16.009
	C528.285,155.848,542.894,160.171,557.59,164.099z M486.604,129.733c-14.211-9.169-29.179-16.632-45.709-20.556
	C458.635,110.424,473.08,119.049,486.604,129.733z M408.129,122.387c0.345-2.253,1.217-4.423,1.85-6.633
	c0.254,0.053,0.507,0.107,0.76,0.157c0,1.72,0,3.433,0,5.145c4.377,1.567,6.846,6.809,5.303,11.286
	c-0.635,1.84-1.827,1.607-3.235,0.887C409.632,131.604,407.443,126.904,408.129,122.387z M395.791,185.643
	c-9.756-12.01-4.457-38.703,15.624-44.88C396.489,150.7,388.455,166.168,395.791,185.643z M415.255,301.228
	c-3.317,0.968-5.832,1.697-8.537,2.487C406.643,300.815,406.643,300.815,415.255,301.228z M414.879,264.812
	c0.132-8.784,0.552-17.561,0.922-26.34c0.031-0.813,0.617-1.61,0.949-2.415c0.393,0.128,0.78,0.258,1.169,0.385
	c-0.729,19.597-1.459,39.194-2.185,58.793c-0.297-0.009-0.598-0.02-0.891-0.029C414.844,285.074,414.723,274.939,414.879,264.812z
	 M408.208,321.996c0,1.029,0.222,2.118-0.037,3.079c-1.435,5.32-3.424,10.532-4.398,15.935c-1.549,8.574-1.195,17.2,1.419,25.842
	C396.196,356.243,397.512,331.692,408.208,321.996z M409.042,356.332c-3.344-10.247-0.014-29.474,8.983-34.987
	C408.833,342.302,408.666,342.953,409.042,356.332z M404.688,462.823c-3.396,3.134-7.441,2.899-12.3,2.588
	c4.647-3.043,7.21-6.829,8.517-11.574c0.646-2.346,2.63-2.725,4.613-1.104C408.358,455.058,407.867,459.891,404.688,462.823z
	 M404.636,434.563c-2.822-4.043-1.283-13.062,3.069-16.082C406.674,423.876,405.61,429.46,404.636,434.563z M412.586,432.459
	c-2.229-0.013-4.509-2.416-4.488-4.727c0.027-2.821,2.431-5.55,4.944-5.617c2.291-0.059,4.432,2.558,4.388,5.366
	C417.388,430.164,415.141,432.474,412.586,432.459z M409.653,414.387c0.077-0.447,0.156-0.895,0.235-1.342
	c1.761,0.209,3.521,0.414,5.279,0.625c-0.059,0.345-0.117,0.694-0.174,1.041C413.146,414.947,411.272,415.347,409.653,414.387z
	 M432.046,408.703c-7.694,0-15.392,0-23.085,0c-0.22-0.207-0.438-0.422-0.663-0.634c0.621-0.482,1.231-1.377,1.856-1.386
	c6.662-0.106,13.321-0.115,19.981-0.002C430.871,406.692,431.588,407.637,432.046,408.703z M413.132,395.106
	c-0.701-0.063-1.328-0.944-1.99-1.448c0.121-0.245,0.244-0.491,0.367-0.742c5.841,0,11.682,0.037,17.524-0.013
	c0.718-0.008,1.295-0.038,1.754-0.113c0.394,0.597,0.492,1.282,0.492,1.792c-0.126,0.019-0.253,0.042-0.381,0.084
	C425.024,396.622,419.063,395.634,413.132,395.106z M437.718,374.213c0.42,0.002,0.838,0.208,1.254,0.319
	c0.132,0.257,0.264,0.512,0.394,0.766c-0.645,0.371-1.288,1.051-1.938,1.053c-11.15,0.069-22.305,0.069-33.454,0.003
	c-0.623-0.003-1.247-0.699-1.87-1.073c0.631-0.367,1.258-1.051,1.887-1.053C415.232,374.169,426.475,374.189,437.718,374.213z
	 M437.469,311.414c1.373,0,2.421,0.145,1.798,2.1c-12.507,0-24.82,0-37.14,0c-0.263-2.335,1.325-2.202,2.674-2.21
	c5.582-0.021,11.163-0.002,16.745,0.021C426.852,311.346,432.159,311.41,437.469,311.414z M432.247,227.82
	c0.154,0.245,0.305,0.491,0.453,0.736c-0.673,0.475-1.336,1.354-2.017,1.364c-7.054,0.105-14.109,0.103-21.165,0.018
	c-0.589-0.005-1.168-0.847-1.747-1.297c0.22-0.271,0.443-0.548,0.665-0.821C416.37,227.82,424.312,227.82,432.247,227.82z
	 M434.83,207.972c0.151,0.257,0.306,0.508,0.458,0.755c-0.563,0.491-1.12,1.4-1.687,1.406c-8.515,0.096-17.031,0.077-25.544,0.061
	c-0.33,0-0.662-0.217-1.635-0.55c0.92-0.744,1.488-1.605,2.069-1.605C417.271,207.95,426.049,207.972,434.83,207.972z
	 M421.264,149.505c14.913-0.755,22.487,11.41,22.55,21.816c0.075,12.193-9.345,21.981-20.717,22.443
	c-14.708,0.6-24.205-10.129-24.461-21.967C398.412,161.387,406.417,148.61,421.264,149.505z M414.818,62.919
	c-1.655,1.836-3.541,3.925-5.429,6.017c0.156,0.113,0.31,0.229,0.468,0.341c1.403-0.341,2.908-1.155,4.188-0.891
	c1.242,0.257,2.567,1.413,3.305,2.538c1.554,2.375,0.357,5.87-2.205,7.316c-2.766,1.558-4.762,0.698-7.802-3.146
	c-0.266,2.63-0.529,5.262-0.755,7.502C402.666,75.746,407.264,64.755,414.818,62.919z M293.328,161.76
	c13.274-3.423,25.96-8.264,37.637-15.55c0.678-0.428,1.447-0.712,2.175-1.06c9.754-6.719,19.575-13.339,29.235-20.178
	c6.879-4.866,13.962-9.375,22.013-11.905c6.211-1.954,12.647-3.193,18.983-4.747c0.066,0.27,0.13,0.537,0.196,0.805
	c-3.993,1.079-8.031,2.007-11.962,3.28c-3.966,1.281-7.906,2.726-11.71,4.428c-3.894,1.737-7.769,3.623-11.375,5.885
	c-8.807,5.527-17.447,11.317-26.173,16.977c-2.975,1.93-6,3.783-9.004,5.674c-10.606,7.042-21.993,12.494-34.104,16.345
	c-4.38,1.391-8.964,2.129-13.456,3.17c-0.075-0.304-0.157-0.604-0.236-0.908C288.14,163.233,290.718,162.431,293.328,161.76z
	 M257.51,181.418c5.831-3.013,12.587-6.508,19.327-9.992C270.758,176.303,264.191,180.195,257.51,181.418z M244.537,155.701
	c0.911-6.598,1.352-13.256,2-19.891c2.586,16.94,13.41,24.492,29.827,25.621c-6.081,6.655-26.372,14.514-35.309,13.991
	C242.229,168.884,243.619,162.324,244.537,155.701z M583.298,423.132c14.293-8.463,27.311-18.292,36.636-32.438
	c2.45-3.717,5.921-6.729,10.679-7.646c3.713-0.72,6.761-2.694,9.305-5.448c4.279-4.648,7.062-10.19,9.228-16.031
	c1.534-4.142,2.742-8.408,4.097-12.62c-0.167-0.02-0.332-0.042-0.497-0.057c-2.206,2.358-4.409,4.716-6.616,7.076
	c-0.315-0.257-0.63-0.515-0.947-0.773c3.19-8.82,4.382-17.972,5.103-26.491c-3.131,3.64-6.156,7.89-9.91,11.35
	c-5.599,5.163-10.497,10.783-13.269,17.865c-2.141,5.465-3.522,11.23-5.133,16.509c0.134,0.231-0.175-0.071-0.198-0.394
	c-0.455-5.83-0.979-11.654-1.212-17.495c-0.044-1.164,0.98-2.421,1.643-3.562c1.409-2.426,3.299-4.647,4.292-7.225
	c3.786-9.823,3.964-20.084,1.972-30.214c-1.068-5.425-3.757-10.53-5.714-15.785c-0.288,0.088-0.572,0.171-0.856,0.257
	c-0.161,1.8,0.022,3.719-0.553,5.377c-1.659,4.782-3.365,9.576-5.526,14.142c-3.575,7.547-4.728,15.156-2.593,23.355
	c1.461,5.623,2.412,11.389,3.412,17.123c1.187,6.813,2.242,13.65,3.221,20.497c0.178,1.245,0.106,2.822-0.524,3.831
	c-2.164,3.479-4.618,6.78-6.978,10.137c-5.793,8.245-13.411,14.443-22.053,19.532c0.955-1.545,2.067-2.946,3.312-4.213
	c4.754-4.835,8.182-10.469,10.452-16.843c4.662-13.101,2.155-26.332,1.135-39.073c-1.91,3.497-3.777,7.307-6.017,10.886
	c-1.685,2.7-3.952,5.031-5.771,7.655c-8.335,12.012-12.538,24.832-7.842,39.501c0.381,1.196-0.453,3.295-1.417,4.33
	c-7.607,8.159-17.246,13.581-26.703,19.308c1.026-1.458,2.161-2.811,3.491-3.927c8.121-6.777,13.315-15.135,13.257-25.955
	c-0.056-10.099-0.618-20.198-0.968-30.636c-0.445,0.821-0.773,1.417-1.089,2.023c-2.237,4.246-4.151,8.702-6.765,12.706
	c-6.516,9.968-8.312,20.961-7.356,32.484c0.335,4.04-0.268,7.513-2.896,10.397c-4.364,4.798-8.779,9.587-13.542,13.977
	c-4.511,4.158-9.501,7.798-14.738,12.041c4.763-6.675,8.981-12.914,13.543-18.891c5.203-6.819,7.732-14.324,7.456-22.919
	c-0.46-14.246-8.33-24.897-16.268-34.802c0.244,4.884,0.7,10.313,0.723,15.743c0.017,3.458-0.654,6.915-0.926,10.384
	c-0.604,7.768,0.966,15.235,2.979,22.684c1.026,3.799,2.14,7.593-0.003,11.648c-7.964,15.082-21.237,23.56-36.437,29.854
	c5.734-4.425,8.746-10.632,11.399-17.07c5.302-12.849,2.575-27.101-7.455-35.285c-5.372-4.386-11.574-7.75-17.781-11.83
	c0.629,2.057,1.133,3.706,1.611,5.271c-2.673,0.539-5.096,1.025-7.519,1.511c-0.023,0.216-0.047,0.429-0.073,0.642
	c2.982,1.334,5.962,2.672,8.546,3.828c-1.563,3.244,2.437,4.831,2.216,7.434c-9.326-6.42-18.595-12.8-28.521-19.63
	c1.833,3.671,3.374,6.748,4.901,9.832c1.497,3.017,3.109,5.984,4.431,9.077c1.309,3.062,2.317,6.256,3.459,9.39
	c-0.248,0.121-0.493,0.243-0.739,0.368c-1.376-1.283-2.751-2.565-4.717-4.393c0.109,2.497,0.192,4.315,0.286,6.392
	c-0.863-0.603-1.534-1.068-2.512-1.754c1.032,4.592,3.62,7.771,6.363,10.793c7.107,7.839,16.229,10.826,26.571,10.912
	c1.8,0.013,3.596,0.679,5.546,1.072c-1.768,5.431-5.163,8.819-8.725,12.149c-2.725,2.549-5.758,3.354-9.471,3.345
	c-28.708-0.068-57.417,0.082-86.125,0.08c-14.493,0-28.982-0.167-43.474-0.282c-2.862-0.025-5.638-0.297-7.787-2.621
	c-1.869-2.016-4.03-3.77-5.795-5.864c-1.595-1.898-2.832-4.104-4.771-6.978c2.724-0.423,4.538-0.945,6.351-0.943
	c10.142,0.009,19.131-2.824,26.178-10.434c2.836-3.068,5.251-6.457,5.942-11.138c-1.128,0.447-1.91,0.765-2.989,1.195
	c0-1.941,0-3.633,0-5.984c-1.965,1.843-3.482,3.265-5,4.687c-0.24-0.165-0.477-0.326-0.719-0.491
	c4.525-9.167,9.047-18.332,13.377-27.095c-3.222,2.032-6.645,4.195-10.06,6.359c-2.536,1.605-5.157,3.094-7.569,4.864
	c-3.181,2.329-6.194,4.89-9.104,7.208c-0.656-7.098,5.496-8.55,10.327-11.715c-3.273-0.753-5.87-1.351-8.49-1.953
	c0.557-1.743,1.017-3.189,1.477-4.635c-0.18-0.165-0.361-0.332-0.535-0.499c-6.429,4.858-13.116,9.418-19.157,14.717
	c-2.593,2.274-4.478,5.87-5.601,9.229c-4.066,12.152-0.911,23.224,6.255,33.337c1.831,2.588,4.313,4.712,6.814,7.382
	c-3.811-1.858-7.195-3.59-10.645-5.179c-8.738-4.024-15.866-9.9-21.696-17.598c-4.576-6.048-6.878-11.94-3.977-19.678
	c3.07-8.19,3.594-16.878,2.314-25.658c-0.615-4.219-0.747-8.552-0.625-12.818c0.092-3.249,0.926-6.479,1.478-10.012
	c-3.38,4.327-7.001,8.152-9.681,12.558c-8.326,13.676-10.536,27.922-2.128,42.449c2.733,4.722,6.142,9.054,9.258,13.553
	c0.883,1.275,1.784,2.539,2.73,3.763c0.87,1.122,1.814,2.187,2.724,3.277c-0.994,0.047-1.532-0.284-2.049-0.642
	c-8.938-6.191-16.64-13.738-23.722-21.921c-2.03-2.345-3.889-4.932-3.776-8.286c0.071-2.195,0.39-4.378,0.507-6.57
	c0.55-10.47-1.563-20.238-7.223-29.228c-2.605-4.135-4.653-8.621-6.951-12.948c-0.222-0.416-0.454-0.836-0.841-1.543
	c-0.365,8.977-0.765,17.554-1.028,26.132c-0.094,3.01-0.112,6.07,0.295,9.047c1.105,8.15,5.582,14.512,11.27,20.146
	c1.807,1.798,3.644,3.568,5.463,5.352c-2.56-0.896-4.641-2.325-6.807-3.608c-7.444-4.402-14.169-9.689-20.127-15.969
	c-2.4-2.53-3.408-4.93-2.54-8.774c0.915-4.043,0.723-8.592-0.059-12.718c-2.016-10.639-6.938-19.977-13.613-28.548
	c-3.108-3.995-5.225-8.759-7.567-12.79c-0.27,5.67-0.627,11.971-0.854,18.277c-0.449,12.578,2.371,24.111,10.996,33.753
	c2.63,2.937,5.203,5.924,7.804,8.889c-13.145-7.396-23.2-17.742-30.268-30.901c-0.859-1.602-1.334-3.669-1.223-5.471
	c0.328-5.375,0.95-10.739,1.62-16.087c0.489-3.877,0.649-7.938,1.978-11.537c4.06-10.993,4.166-21.787-0.54-32.502
	c-2.852-6.51-5.515-13.02-5.676-20.343c-3.292,7.776-7.188,15.223-8.218,23.785c-1.162,9.652-0.649,19.016,5.371,26.942
	c5.935,7.814,3.012,15.979,2.546,24.124c-0.937-3.238-1.442-6.575-2.517-9.721c-3.354-9.813-8.069-18.754-16.643-25.185
	c-4.45-3.343-6.607-8.31-8.652-13.947c-1.129,11.561,2.023,21.714,5.845,31.75c-0.218,0.124-0.437,0.245-0.652,0.37
	c-2.479-2.604-4.954-5.212-7.505-7.896c0,0.905-0.106,1.725,0.017,2.511c1.336,8.497,4.235,16.401,9.33,23.373
	c3.203,4.386,7.231,7.967,12.871,8.521c3.887,0.38,6.301,2.621,8.684,5.17c0.933,1.001,1.769,2.104,2.576,3.21
	c8.14,11.107,17.635,20.742,29.668,27.705c4.545,2.626,8.933,5.525,13.925,8.63c-7.442-1.56-14.18-3.253-21.016-4.327
	c-7.311-1.147-13.335,3.485-20.231,5.357c3.719,3.464,8.086,5.634,12.727,7.224c7.971,2.731,15.589,3.058,22.143-3.575
	c0.737-0.746,2.33-1.033,3.476-0.938c7.979,0.684,14.728,4.425,21.14,8.887c6.351,4.41,12.674,8.863,19.006,13.299
	c-1.62,0.174-2.989,0.018-4.21-0.499c-1.314-0.556-2.521-1.388-3.713-2.201c-10.295-7.024-21.153-12.221-34.129-11.063
	c-5.245,0.467-10.518,0.619-15.453,0.896c3.467,4.377,7.906,7.348,13.516,8.784c-0.301,0.14-0.519,0.231-0.726,0.343
	c-0.063,0.035-0.088,0.129-0.176,0.263c1.033,0.423,2.053,0.839,3.077,1.251c-0.013,0.268-0.019,0.537-0.029,0.803
	c-1.53,0.2-3.07,0.401-4.766,0.622c4.977,5.739,11.387,8.859,18.461,10.649c8.044,2.03,15.927,1.628,22.652-3.794
	c2.111-1.695,3.953-2.028,6.177-1.265c4.888,1.681,9.842,3.248,14.559,5.337c8.736,3.867,17.323,8.075,25.968,12.151
	c1.182,0.557,2.331,1.177,3.497,1.771c-0.037,0.234-0.073,0.471-0.11,0.709c-1.292,0.138-2.646,0.59-3.859,0.345
	c-2.922-0.585-5.857-1.287-8.648-2.312c-8.389-3.086-16.843-5.22-25.938-4.138c-6.087,0.724-11.614,2.888-17.14,5.276
	c-3.063,1.326-6,3.592-9.712,1.424c0.263,0.561,0.466,0.896,0.761,1.079c13.502,8.341,28.026,12.124,43.879,9.591
	c4.572-0.731,8.916-2.101,11.278-6.752c0.297-0.59,1.307-0.927,2.059-1.163c3.778-1.188,7.538-2.508,11.397-3.373
	c2.383-0.531,4.932-0.333,7.406-0.463c0.165,0.429,0.328,0.859,0.492,1.284c-1.217,1.014-2.342,2.178-3.67,3.015
	c-2.761,1.736-5.636,3.283-8.449,4.933c-3.354,1.964-5.887,4.251-3.19,8.502c0.082,0.126,0.044,0.371-0.014,0.538
	c-1.079,3.186,0.875,3.154,3.147,3.152c49.532-0.025,99.062-0.009,148.592,0c0.978,0,1.96,0,3.028,0
	c0.113-1.699-0.206-3.317,0.383-4.464c1.365-2.644,0.184-4.386-1.56-6.001c-3.265-3.021-6.819-5.601-11.031-7.256
	c-1.151-0.454-1.992-1.71-2.975-2.597c3.288-1.33,6.026-1.461,8.7,0.278c1.259,0.821,2.722,1.56,4.184,1.798
	c3.415,0.56,6.508,1.237,8.439,4.659c0.673,1.186,2.383,2.109,3.794,2.485c3.589,0.96,7.254,1.978,10.936,2.193
	c11.039,0.652,21.291-2.584,31.087-7.321c2.901-1.402,5.487-3.462,8.214-5.222c-0.069-0.276-0.137-0.554-0.205-0.832
	c-5.419,2.962-9.932-0.101-14.654-1.772c-11.763-4.164-23.476-4.807-35.208,0.222c-3.077,1.316-6.301,2.381-9.552,3.175
	c-1.741,0.425-3.681,0.031-5.529,0.005c-0.037-0.362-0.077-0.724-0.116-1.085c0.761-0.425,1.499-0.894,2.282-1.268
	c6.484-3.088,12.944-6.223,19.475-9.21c6.438-2.946,12.932-5.776,19.439-8.569c2.417-1.035,4.593-0.977,6.521,1.422
	c0.951,1.185,2.701,1.827,4.195,2.46c4.551,1.922,9.253,2.597,14.185,1.681c8.728-1.622,16.51-4.956,22.933-12.265
	c-1.649,0.315-2.691,0.517-3.801,0.728c-1.321-1.486-1.165-2.441,0.761-3.42c4.329-2.195,8.302-4.913,11.469-9.246
	c-4.644,0-8.908-0.036-13.175,0.01c-3.566,0.034-7.176-0.175-10.68,0.318c-8.826,1.241-16.097,6-23.332,10.816
	c-2.109,1.4-4.547,2.312-6.836,3.447c-0.2-0.346-0.397-0.694-0.6-1.041c6.656-4.605,13.287-9.244,19.975-13.806
	c5.216-3.563,10.636-6.694,17.017-7.781c3.257-0.554,6.114-0.767,8.698,2.155c3.246,3.669,7.755,4.162,12.404,3.482
	c1.802-0.265,3.603-0.578,5.384-0.974c5.18-1.147,9.89-3.251,14.063-6.814c-6.517-2.459-12.134-7.259-19.243-6.35
	c-6.693,0.859-13.262,2.67-19.749,4.03c-0.037,0.088-0.017-0.138,0.101-0.215C578.687,426.056,580.948,424.52,583.298,423.132z
	 M644.048,343.862c-2.486,2.362-4.501,4.277-6.514,6.192C638.98,347.557,640.207,344.837,644.048,343.862z M623.544,317.857
	c0.251,0,0.504,0.004,0.757,0.008c-0.706,5.097-1.404,10.197-2.107,15.294c-0.173-0.019-0.349-0.041-0.522-0.061
	C622.294,328.019,622.921,322.936,623.544,317.857z M598.369,371.725c-2.465,6.986-4.715,13.369-7.152,20.28
	C592.444,384.671,594.453,378.207,598.369,371.725z M567.749,394.485c0.271,0.044,0.537,0.082,0.808,0.13
	c-1.081,6.084-2.162,12.167-3.242,18.252c-0.165-0.024-0.326-0.05-0.485-0.075C565.801,406.688,566.775,400.59,567.749,394.485z
	 M538.222,400.13c0.576,6.042,1.153,12.087,1.727,18.129c-0.161,0.013-0.324,0.025-0.483,0.042
	c-0.635-6.037-1.271-12.073-1.904-18.11C537.78,400.17,537.998,400.151,538.222,400.13z M497.616,434.572
	c0.29-0.056,0.583-0.108,0.873-0.164c0.901,4.989,1.805,9.976,2.705,14.965C497.177,444.976,496.541,439.937,497.616,434.572z
	 M344.9,433.943c0.278,0.044,0.558,0.094,0.836,0.138c0.487,5.542,0.425,10.938-4.674,15.021
	C342.34,444.049,343.617,438.996,344.9,433.943z M303.81,418.994c-0.156-0.017-0.315-0.031-0.474-0.048
	c0.664-7.204,1.323-14.413,1.979-21.619c0.242,0.022,0.477,0.046,0.713,0.068C305.29,404.594,304.55,411.795,303.81,418.994z
	 M277.785,407.208c-0.827-3.651-1.653-7.306-2.48-10.958c0.189-0.042,0.38-0.081,0.563-0.127c0.818,3.654,1.636,7.311,2.457,10.964
	C278.143,407.125,277.965,407.169,277.785,407.208z M247.597,386.21c-1.58-4.321-3.162-8.643-4.739-12.961
	c0.229-0.084,0.454-0.166,0.682-0.247c1.504,4.321,3.009,8.646,4.514,12.965C247.898,386.047,247.75,386.13,247.597,386.21z
	 M219.179,332.961c-0.474-5.599-0.946-11.192-1.417-16.788c0.264-0.02,0.524-0.038,0.788-0.059
	c0.449,5.596,0.899,11.192,1.353,16.788C219.662,332.923,219.418,332.94,219.179,332.961z M293.893,481.744
	c-0.104-0.353-0.213-0.71-0.317-1.063c5.103-1.177,10.203-2.354,15.304-3.533c0.071,0.291,0.139,0.588,0.21,0.884
	C304.023,479.27,298.958,480.507,293.893,481.744z M388.558,491.67c-13.023,0.32-26.049,0.64-39.266,0.966
	c0.383-2.02,1.508-2.655,3.132-2.597c8.038,0.271,16.072,0.531,24.107,0.854c4.014,0.158,8.021,0.441,12.033,0.665
	C388.563,491.595,388.558,491.633,388.558,491.67z M488.988,491.239c-0.01,0.152-0.019,0.308-0.029,0.462
	c-12.392,0-24.786,0-37.177,0c0-0.154,0-0.31,0-0.462C464.185,491.239,476.584,491.239,488.988,491.239z M536.497,477.426
	c4.335,0.993,8.665,1.988,13,2.985c-0.077,0.347-0.156,0.695-0.236,1.041c-4.325-1.013-8.66-2.026-12.989-3.034
	C536.347,478.084,536.42,477.754,536.497,477.426z M674.403,297.879c-0.259,22.29-4.639,43.862-11.19,65.051
	c-8.726,28.218-22.771,53.65-40.873,76.889c-24.467,31.411-54.586,55.947-90.294,73.557c-20.277,10.001-41.581,17.121-63.78,21.373
	c-21.885,4.189-43.988,4.849-66.201,3.519c-29.164-1.751-57.097-8.458-83.742-20.44c-18.906-8.504-36.383-19.354-52.734-32.107
	c-13.348-10.409-25.632-21.932-36.74-34.648c-25.625-29.342-43.605-62.785-53.612-100.526c-6.468-24.396-8.623-49.212-6.931-74.249
	c1.708-25.274,8.21-49.538,18.281-72.82c9.35-21.617,21.691-41.346,37.13-59.125c3.781-4.353,7.682-8.603,11.966-12.641
	c-0.082,0.334-0.124,0.682-0.255,0.997c-2.327,5.601-5.039,11.071-6.891,16.824c-1.581,4.897-4.8,8.587-7.714,12.466
	c-20.953,27.907-34.15,59.217-41.018,93.271c-2.941,14.592-3.428,29.419-3.167,44.291c0.569,32.683,9.087,63.377,23.175,92.635
	c8.304,17.246,18.955,33.059,31.086,47.849c22.832,27.84,50.328,49.952,82.591,65.907c19.905,9.842,40.958,16.392,62.883,20.284
	c20.715,3.679,41.591,4.09,62.418,2.924c42.259-2.352,80.881-16.174,116.298-39.161c19.152-12.428,36.462-27.071,51.373-44.352
	c17.554-20.347,32.23-42.595,42.282-67.673c6.653-16.603,11.324-33.794,14.556-51.35c2.381-12.909,2.701-26.024,2.402-39.139
	c-0.766-33.352-8.729-64.932-23.922-94.596c-6.787-13.248-15.158-25.542-24.241-37.359c-1.76-2.291-2.399-5.429-3.64-8.134
	c-3.012-6.56-6.072-13.097-8.964-19.326c4.501,5.103,9.445,10.619,14.289,16.222c10.249,11.854,19.393,24.496,26.89,38.278
	c11.299,20.765,19.702,42.579,23.983,65.911C673.099,264.817,674.588,281.266,674.403,297.879z M247.064,324.3
	c-4.581-1.206-9.579,1.697-10.688,6.184c-1.093,4.437,1.473,8.06,6.451,9.259c0.65,0.155,1.508,0.687,1.717,1.25
	c3.537,9.393,9.805,16.595,17.896,22.267c8.931,6.265,19.009,9.455,29.792,10.517c12.513,1.233,24.859,0.529,36.667-4.122
	c13.009-5.124,23.032-13.647,28.605-26.746c0.832-1.954,1.769-2.943,3.891-3.365c5.004-0.999,7.417-4.622,6.418-9.09
	c-0.993-4.432-5.383-7.051-10.085-5.893c-0.771,0.192-1.407,0.196-1.946,0.011l-40.699-78.207
	c-3.156-6.454-6.277-12.924-9.426-19.39c7.001-4.29,5.222-11.071-1.625-14.123c0-5.883,0.046-11.836-0.014-17.79
	c-0.04-3.748-2.114-4.956-5.578-3.738c-1.191,0.421-3.242,0.456-3.924-0.261c-0.856-0.898-1.141-2.828-0.903-4.179
	c0.46-2.621,3.197-4.252,6.249-4.225c3.497,0.029,6.152,1.881,6.893,5.073c0.462,1.976,0.585,4.03,0.873,6.147
	c3.174-4.551,3.187-9.818,0.119-13.155c-3.098-3.371-9.052-3.767-13.92-0.93c-4.934,2.879-7.317,8.11-5.548,12.948
	c0.583,1.607,1.804,3.462,3.242,4.177c2.354,1.167,5.121,1.492,8.054,2.262c0,3.483-0.045,7.693,0.021,11.901
	c0.023,1.604-0.352,2.476-1.988,3.336c-1.497,0.786-2.83,2.582-3.435,4.228c-1.302,3.552,0.064,6.221,4.116,9.219l-49.674,96.944
	C248.132,324.629,247.607,324.44,247.064,324.3z M241.182,332.758c-0.289-2.42,1.06-3.67,3.102-4.087
	c0.832-0.171,1.924,0.489,2.771,0.987c1.298,0.757,2.527,2.419,3.712,2.354c1.098-0.061,2.532-1.703,3.049-2.96
	c0.771-1.886-0.145-3.558-1.854-4.267c3.116-6.453,6.186-12.816,9.255-19.18c1.085-2.229,2.174-4.455,3.259-6.682l18.233-35.588
	c0.059-0.119,0.123-0.229,0.18-0.344c5.422-10.431,10.771-20.897,16.141-31.354c0.043-0.084,0.058-0.184,0.066-0.284l0.236-0.462
	c0.515-0.495,1.05-1.008,1.746-1.671c0,32.369,0,64.561,0,96.776c-3.496,2.066-3.521,4.085-0.038,7.026
	c-0.27,2.314-1.968,2.16-3.634,2.16c-13.926,0.015-27.851,0.031-41.777,0.088c-3.571,0.012-7.144,0.221-10.712,0.228
	C243.082,335.503,241.459,335.063,241.182,332.758z M334.038,342.229c-24.388,0.253-48.772,0.334-73.158,0.475
	c-0.731,0.002-1.461,0-2.683,0c7.116,12.07,16.139,21.027,29.669,25.054c-12.083,1.702-34.823-15.304-37.702-28.277
	c33.304,0.466,66.517-0.841,99.703,0.886c0.009,0.247,0.017,0.493,0.023,0.742C344.605,341.496,339.323,342.174,334.038,342.229z
	 M357.581,330.603c0.98-1.063,1.552-2.688,3.407-1.879c1.729,0.75,2.275,2.212,2.03,4.065c-0.264,1.976-1.67,2.641-3.288,2.645
	c-6.042,0.011-12.087-0.189-18.137-0.209c-11.636-0.029-23.273,0-34.913,0.017c-1.717,0.001-3.477,0.119-3.425-2.441
	c2.954-2.227,2.925-3.926-0.068-6.585c0-32.687,0-65.229,0-97.771c0.223-0.042,0.447-0.088,0.668-0.134l10.052,19.896
	c0.215,0.433,0.429,0.867,0.646,1.298c6.349,12.637,12.742,25.253,19.128,37.871c0.035,0.063,0.069,0.123,0.104,0.187l18.704,37.026
	c-1.7,1.149-1.737,3.14-0.956,4.945c0.494,1.146,1.936,2.223,3.169,2.591C355.466,332.351,356.858,331.391,357.581,330.603z
	 M301.897,217.32c2.02,0.033,3.752,1.685,3.727,3.552c-0.029,1.894-1.958,3.698-3.965,3.714c-2.306,0.013-3.28-1.095-3.23-3.691
	C298.469,218.614,299.759,217.286,301.897,217.32z M476.859,329.809c-1.351,5.062,1.729,9.539,6.972,10.281
	c0.822,0.116,2.067,0.6,2.283,1.208c4.595,12.836,13.674,21.455,25.796,26.892c15.554,6.972,31.812,7.739,48.268,3.966
	c11.824-2.707,22.495-7.844,30.084-17.688c3.334-4.327,5.757-9.353,8.782-14.376c3.621,0.148,7.516-0.63,9.42-5.007
	c1.212-2.784,0.896-5.606-1.207-7.932c-2.895-3.196-6.351-3.794-10.429-2.049l-40.86-78.52c-0.77-1.493-1.547-2.983-2.327-4.476
	l-7.72-14.828c5.805-3.93,5.966-9.059,0.054-13.454c-0.504-0.375-1.026-1.125-1.036-1.712c-0.084-4.442-0.046-8.889-0.046-13.332
	c9.854,1.041,13.26-7.586,10.469-13.379c-1.959-4.069-5.373-6.277-9.723-7.221c-3.968-0.856-8.603,0.561-10.336,3.241
	c-2,3.092-1.707,8.453,0.738,11.917c0.096-1.078,0.143-2.048,0.276-3.002c0.737-5.354,4.101-8.226,9.072-7.678
	c2.404,0.268,4.229,1.6,4.614,3.976c0.237,1.433,0.021,3.456-0.859,4.446c-1.581,1.79-3.555,1.071-5.353-0.356
	c-0.437-0.346-2.05-0.08-2.293,0.363c-0.704,1.273-1.338,2.772-1.375,4.195c-0.13,5.404,0.048,10.814-0.059,16.22
	c-0.019,0.828-0.837,1.737-1.474,2.438c-1.244,1.376-3.17,2.396-3.841,3.979c-1.868,4.388-0.033,7.096,3.556,9.447
	c-0.022,0.127-0.037,0.244-0.054,0.361l-19.027,37.133c-0.502,0.645-0.839,1.385-1.106,2.16l-29.649,57.868l0.003,0.002
	c-0.487-0.184-0.947-0.355-1.407-0.502C482.838,323.063,477.974,325.654,476.859,329.809z M566.026,342.306
	c-20.809,0.231-41.619,0.293-62.434,0.433c-0.962,0.008-1.93,0.11-3.174,0.186c5.981,11.128,13.521,20.143,26.292,24.503
	c-13.498-0.288-33.722-16.481-34.923-27.91c32.795,0.392,65.54-0.856,98.259,0.861c0.008,0.363,0.014,0.728,0.017,1.091
	C582.053,341.758,574.04,342.216,566.026,342.306z M596.084,325.447c-0.042,0.02-0.082,0.034-0.124,0.057
	c-0.041-0.077-0.081-0.158-0.119-0.235L596.084,325.447z M589.813,317.659c0.209,0.44,0.42,0.886,0.633,1.327
	c0.619,1.29,1.31,2.55,2.021,3.849l0.002,0.002l0,0c0.31,0.564,0.621,1.135,0.933,1.723c-1.2,1.217-3.077,2.513-1.587,4.681
	c0.808,1.177,1.946,2.659,3.146,2.885c1.033,0.196,2.692-0.933,3.485-1.938c1.045-1.329,2.099-2.392,3.545-1.353
	c1.116,0.797,2.208,2.269,2.383,3.566c0.21,1.539-0.777,2.883-2.838,2.879c-2.925-0.004-5.85,0.303-8.771,0.288
	c-15.116-0.075-30.236-0.207-45.354-0.312c-2.91-0.021-2.91,0.001-3.909-2.295c3.414-1.988,3.61-4.072,0.738-6.581
	c-0.475-0.414-0.766-1.296-0.768-1.965c-0.067-19.642-0.104-39.288-0.115-58.933c-0.004-10.785,0.059-21.567,0.055-32.351
	c0-1.5-0.201-2.997-0.328-4.793c0.51,0.397,0.98,0.768,1.432,1.12l0,0L589.813,317.659z M541.907,217.31
	c2.025-0.096,3.723,1.624,3.759,3.809c0.029,1.875-1.684,3.707-3.564,3.813c-1.978,0.112-3.527-1.426-3.608-3.575
	C538.411,218.986,539.735,217.414,541.907,217.31z M492.4,331.449c1.972-1.725,1.823-3.773-0.502-6.419
	c2.331-4.8,4.685-9.623,7.01-14.456c0.265-0.55,0.387-1.167,0.579-1.752c1.461-2.973,2.922-5.945,4.384-8.918
	c0.18-0.355,0.361-0.707,0.539-1.063l35.469-69.231c0.315-0.239,0.707-0.544,1.334-1.024c0,3.886-0.002,7.32,0,10.749
	c0.013,25.27,0.031,50.544,0.044,75.813c0,2.579-0.042,5.155-0.035,7.732c0.004,1.938-0.025,3.656-1.343,5.479
	c-0.664,0.918,0.568,3.203,1.323,4.796c0.073,2.201-1.649,2.076-3.309,2.072c-13.388-0.016-26.775-0.067-40.165-0.03
	c-4.309,0.009-8.614,0.31-12.923,0.364c-1.976,0.025-3.291-1.01-3.508-3.077c-0.218-2.099,0.9-3.341,2.868-3.592
	c0.779-0.1,1.93,0.27,2.434,0.843C489.052,332.512,490.579,333.045,492.4,331.449z M216.737,241.323
	c-1.877-9.154-5.548-17.498-10.958-25.107c-2.791-3.923-5.396-7.949-6.033-13.596c-0.438,1.097-0.671,1.538-0.801,2.011
	c-2.776,9.904-3.427,19.973-2.164,30.15c1.213,9.813,4.296,18.813,11.595,25.964c0.907,0.885,1.582,2.563,1.498,3.813
	c-0.633,9.213-1.202,18.442-2.345,27.599c-1.271,10.193-2.459,20.369-1.937,30.645c0.222,4.324,1.311,8.519,3.561,12.338
	c0.127-1.462-0.067-2.892-0.038-4.313c0.153-7.025-0.832-14.347,0.822-21.009c2.703-10.883,9.657-19.506,18.965-25.926
	c1.153-0.793,3.135-0.979,4.563-0.669c5.511,1.188,11.011,1.929,16.572,0.677c9.928-2.239,17.754-6.995,20.73-17.532
	c0.861-3.059,2.034-6.033,3.042-9.05c0.242-0.728,0.399-1.488,0.765-2.881c-4.544,3.451-7.954,7.73-13.956,7.348
	c1.229-1.8,2.318-3.398,3.506-5.139c-0.99-0.499-1.626-0.821-2.696-1.362c3.794-1.821,7.375-3.2,10.582-5.176
	c3.248-1.992,6.125-4.576,9.167-6.903c-0.185-0.312-0.372-0.623-0.557-0.933c-5.776,5.078-12.618,6.067-19.793,5.197
	c-4.964-0.604-9.649,0.19-14.255,1.809c-13.178,4.632-20.75,15.419-19.456,28.027c0.255,2.464-0.501,3.806-2.201,5.368
	c-3.228,2.968-6.277,6.152-9.164,9.459c-2.063,2.368-3.734,5.078-5.586,7.639c0.186-2.732,0.38-5.433,1.263-7.881
	c3.926-10.852,7.76-21.754,12.219-32.39c2.264-5.398,5.734-10.296,8.732-15.378c1.109-1.871,2.855-1.938,4.956-1.946
	c3.878-0.013,7.991,0.022,11.59-1.191c12.47-4.2,18.408-14.196,16.918-29.121c-0.984,0.935-1.856,1.763-2.994,2.838
	c-0.854-9.215,1.955-17.387,4.022-25.766c-4.898,8.071-11.9,13.505-20.501,17.15c0-2.034,0-4.037,0-6.815
	c-1.95,2.137-3.333,3.648-4.911,5.377c-0.64-7.839-6.14-12.432-10.686-18.56c1.223,6.819,0.988,12.739-1.913,18.263
	c-6.169,11.759-5.151,23.389,0.566,34.905c0.708,1.434,0.566,2.37-0.188,3.651c-2.686,4.545-5.561,9.017-7.768,13.789
	c-3.176,6.876-5.833,13.989-8.711,21.003c-0.225-0.042-0.454-0.086-0.68-0.128c1.351-6.653,2.611-13.328,4.089-19.96
	C217.371,252.195,217.868,246.818,216.737,241.323z M205.048,238.168c-1.608-6.756-3.218-13.513-4.825-20.271
	c0.236-0.032,0.473-0.063,0.711-0.099c1.557,6.748,3.112,13.498,4.662,20.244C205.415,238.087,205.233,238.124,205.048,238.168z
	 M257.182,266.797c-0.851,4.682-5.318,5.181-10.784,5.367C249.798,269.252,253.153,267.563,257.182,266.797z M240.462,216.007
	c0.139-0.765,0.627-1.461,1.012-2.32c2.371,5.852,1.136,11.918-3.444,16.298C238.871,225.101,239.626,220.546,240.462,216.007z
	 M602.173,204.242c-0.961-0.975-1.595-1.625-2.243-2.271c-0.64-0.634-1.291-1.261-2.55-2.494c0,2.839,0,4.781,0,6.997
	c-7.816-4.553-14.46-9.819-19.701-16.855c2.428,7.641,3.949,15.305,4.037,23.649c-1.21-1.028-2.053-1.745-3.477-2.954
	c0.377,4.437,0.535,8.168,1.035,11.855c1.595,11.673,14.169,21.82,25.709,20.261c3.796-0.514,5.65,0.773,7.274,3.61
	c0.544,0.949,1.228,1.816,1.745,2.776c8.463,15.727,12.781,32.896,17.493,49.971c-3.46-6.813-8.458-12.303-13.845-17.517
	c-0.552-0.532-0.645-1.798-0.568-2.688c0.401-4.359,0.121-8.59-1.928-12.545c-6.372-12.324-16.874-17.91-30.386-18.514
	c-4.104-0.184-8.299,0.159-12.289-0.601c-3.33-0.635-6.42-2.526-9.556-3.831c4.607,6.184,11.896,8.669,18.346,11.907
	c-2.808,3.282,1.644,4.525,1.283,6.907c-5.13-0.791-8.612-4.371-12.562-7.622c0.375,1.913,0.764,3.497,0.991,5.106
	c1.613,11.408,7.666,19.335,18.521,23.332c6.917,2.546,13.977,2.135,21.085,0.646c1.415-0.299,3.474-0.063,4.515,0.798
	c12.05,9.993,18.712,22.373,16.743,38.551c-0.755,6.211-1.1,12.474-1.627,18.71c0.923-0.795,1.389-1.653,1.675-2.573
	c4.087-13.158,4.47-26.545,2.85-40.148c-1.327-11.162-2.21-22.378-3.088-33.587c-0.101-1.297,0.903-2.814,1.702-4.03
	c2.242-3.408,5.291-6.443,6.864-10.118c4.499-10.511,5.56-21.691,4.805-33.027c-0.312-4.691-1.066-9.354-1.596-13.781
	c-2.577,4.229-4.843,8.459-7.584,12.357c-9.479,13.473-14.123,27.81-9.374,44.339c1.531,5.333,2.102,10.939,3.113,16.421
	c-0.198,0.042-0.397,0.081-0.594,0.121c-0.407-1.087-0.87-2.153-1.213-3.259c-3.476-11.238-7.371-22.284-13.958-32.189
	c-0.547-0.817-0.403-2.443-0.006-3.47c4.578-11.861,5.128-23.572-0.638-35.265c-0.935-1.898-1.38-4.183-1.482-6.315
	c-0.146-3.167,0.209-6.363,0.366-9.9C607.495,192.209,602.627,196.794,602.173,204.242z M601.439,213.89
	c1.054,4.954,2.111,9.911,3.205,15.032C600.271,226.519,598.785,219.097,601.439,213.89z M599.433,272.084
	c-4.467,0.751-9.108-1.289-11.449-5.034c0.11-0.252,0.22-0.501,0.33-0.754c3.817,1.681,7.633,3.363,11.449,5.04
	C599.652,271.587,599.543,271.833,599.433,272.084z M638.438,220.533c-0.012-0.709,0.172-1.522,0.548-2.111
	c0.724-1.129,1.642-2.126,2.883-2.947c-1.649,6.347-3.296,12.699-4.945,19.05c-0.164-0.039-0.329-0.077-0.492-0.115
	c0.815-3.591,1.71-7.166,2.395-10.782C639.01,222.655,638.451,221.57,638.438,220.533z M490.742,379.873
	c-2.078,0.563-2.117,1.416-0.909,2.618c0.885,0.88,1.673,1.855,2.904,3.235c-1.849-0.382-3.313-0.293-4.271-0.949
	c-3.339-2.278-6.503-4.818-9.697-7.229c0,3.363-0.097,6.9,0.021,10.43c0.422,12.866,9.976,21.646,20.251,23.21
	c4.561,0.69,9.428-0.19,14.098-0.813c2.03-0.272,3.454-0.017,4.478,1.576c1.905,2.982,4.179,5.874,5.358,9.142
	c2.109,5.823,3.521,11.902,5.403,18.488c0.19-3.493,0.628-6.557,0.473-9.592c-0.359-6.836-3.326-12.804-6.911-18.459
	c-1.271-2.002-1.378-3.704-0.779-6.079c0.878-3.449,1.639-7.339,0.917-10.713c-2.768-12.865-11.7-19.973-23.919-23.205
	c-3.75-0.997-7.864-0.554-11.673-1.394c-4.107-0.905-8.053-2.538-11.887-3.795C478.421,372.197,485.096,375.239,490.742,379.873z
	 M505.948,396.767c-4.687-0.522-8.04-2.617-10.837-6.688C500.208,390.428,503.47,392.673,505.948,396.767z M368.053,366.632
	c-0.498-0.026-0.812-0.146-0.993-0.037c-4.942,2.954-10.365,3.752-16.014,3.809c-6.862,0.075-13.029,2.356-18.653,6.242
	c-11.163,7.712-14.644,17.33-11.035,30.009c0.363,1.265-0.132,2.973-0.7,4.269c-1.819,4.148-4.198,8.078-5.729,12.323
	c-1.89,5.248-1.331,10.587,0.993,15.679c0.226-1.386,0.168-2.759,0.234-4.128c0.345-7.033,2.009-13.691,5.742-19.747
	c2.105-3.411,4.503-6.035,9.063-4.072c0.885,0.381,1.972,0.317,2.969,0.425c9.651,1.072,17.861-1.518,24.113-9.321
	c5.606-6.999,4.902-15.017,4.217-23.59c-3.515,3.588-6.691,6.817-11.575,7.024c0.337-1.963,4.43-2.419,1.813-5.401
	C357.972,375.98,363.935,372.52,368.053,366.632z M336.75,397.377c1.553-4.204,6.271-7.041,10.81-6.508
	C345.201,395.226,341.286,396.627,336.75,397.377z M658.892,277.981c-0.497-5.747-2.207-11.396-3.403-17.083
	c-0.712-3.359-1.479-6.705-2.226-10.045c-0.08,0.063-0.172,0.114-0.27,0.152c-0.051,0.276-0.28,0.75-0.443,1.039
	c-2.454,4.369-4.97,8.703-7.382,13.097c-2.22,4.047-5.264,7.939-6.292,12.29c-2.26,9.547-0.564,18.862,4.492,27.39
	c2.005,3.376,3.506,6.821,3.004,10.846c-0.152,1.201-0.399,2.389-0.604,3.583c2.695-4.605,4.934-9.35,7.279-14.04
	C657.348,296.629,659.72,287.537,658.892,277.981z M647.24,297.101c-2.827-8.614-0.738-16.834,0.585-25.064
	C649.138,280.311,648.947,288.56,647.24,297.101z M410.418,527.717c11.324,0.463,22.711,1.139,33.949-1.119
	c4.254-0.855,8.456-2.029,11.207-4.646c-3.284,0-7.018,0.01-10.751-0.001c-3.667-0.01-3.667-0.017-9.845-3.219
	c1.42-0.124,2.386-0.181,3.345-0.299c1.888-0.232,3.847-0.257,5.645-0.801c2.856-0.866,5.082-4.754,4.681-7.63
	c-0.535-3.834-3.273-6.566-6.994-6.985c-3.226-0.365-7.116,1.744-7.642,4.86c-0.387,2.305,0.423,4.807,0.74,7.587
	c-1.885,1.668-26.335,2.415-29.678,0.468c2.383-1.988,4.428-4.174,3.666-7.628c-0.691-3.121-3.625-5.27-7.101-5.31
	c-3.387-0.037-6.874,2.441-7.721,5.491c-0.931,3.352,0.517,7.228,3.354,8.8c3.464,1.921,6.957,3.787,10.611,5.773
	c-7.091-0.543-13.776-1.049-20.464-1.555c1.956,1.654,4.131,3.378,6.556,3.883C399.391,526.516,404.91,527.49,410.418,527.717z
	 M440.665,506.724c2.071,0.035,3.763,1.954,3.737,4.247c-0.022,2.2-1.54,3.846-3.457,3.753c-2.053-0.101-3.773-2.062-3.757-4.271
	C437.203,508.221,438.633,506.688,440.665,506.724z M401.304,514.504c-2.047-0.165-3.303-1.835-3.209-4.269
	c0.079-2.051,1.94-3.984,3.729-3.876c1.833,0.107,3.568,2.183,3.497,4.171C405.244,512.635,403.199,514.657,401.304,514.504z
	 M190.199,251.096c-11.872,36.021-7.629,43.349,5.339,67.361c0-0.677,0.112-1.208-0.02-1.674c-1.204-4.413-0.426-8.419,2.021-12.286
	c1.349-2.13,2.392-4.507,3.243-6.895c3.545-9.902,4.534-19.634-1.713-29.062c-2.251-3.396-3.9-7.193-5.763-10.842
	C192.239,255.607,191.301,253.449,190.199,251.096z M193.705,296.967c-1.455-7.791-1.01-14.946,0.537-22.052
	C194.791,282.106,196.025,289.299,193.705,296.967z M392.492,504.029c-5.937,7.854-12.501,13.669-21.985,14.821
	c-15.982,1.948-27.791-5.335-37.114-17.721c3.566,3.204,7.943,2.824,12.188,2.843c13.569,0.05,27.141,0.04,40.712,0.057
	C388.106,504.033,389.923,504.029,392.492,504.029z M451.159,503.997c11.931,0,23.378,0.001,34.819-0.002
	c3.299-0.002,6.596-0.008,9.894-0.046c4.46-0.054,8.993,0.176,12.926-3.209c-2.249,6.704-16.557,16.205-25.709,17.665
	C468.271,520.771,460.297,514.962,451.159,503.997z M403.722,178.023c3.029,9.158,11.659,15.237,20.025,14.1
	c9.25-1.256,16.665-10.544,16.383-21.564c0.123-5.023-2.358-10.03-6.506-14.155c-3.656-3.636-8.113-6.29-13.436-5.508
	C407.601,152.739,399.731,165.948,403.722,178.023z M427.414,168.596c2.295,1.02,3.072,3.862,2.115,7.736
	c-0.749,3.035-3.517,4.371-8.937,3.922C426.313,179.164,426.968,177.921,427.414,168.596z M416.217,166.758
	c0.929-1.328,2.925-1.909,5.051-3.17c0-2.68-0.073-5.79,0.059-8.889c0.029-0.681,0.796-1.323,1.551-2.493
	c1.591,4.841-0.861,9.376,1.838,13.37c-0.117,0.322-0.26,1.184-0.704,1.849c-1.11,1.676-2.122,3.535-3.615,4.8
	c-1.452,1.232-3.666,0.961-4.467-0.813C415.345,170.112,415.433,167.88,416.217,166.758z M418.174,174.452
	c2.135,0.703,2.531,2.653,1.858,8.398c-0.306,2.619-1.428,3.361-5.377,3.57C417.175,183.92,417.175,183.92,418.174,174.452z
	 M417.91,170.926c-1.417-2.326,0.257-5.218,3.596-5.262c-0.286,1.93-0.445,3.631-0.841,5.272c-0.106,0.458-0.895,1.043-1.371,1.043
	C418.824,171.981,418.205,171.409,417.91,170.926z"/>
</svg>
