<svg xmlns="http://www.w3.org/2000/svg" version="1.1" viewBox="-5.0 -10.0 110.0 135.0">
 <g>
  <path d="m37.934 23.32c-0.21875 0.36328-0.4375 0.72266-0.62891 1.1016l0.35547 0.41406c0.25 0.26562 0.52734 0.52344 0.84375 0.70312 0.43359 0.25 0.94531 0.33594 1.4297 0.19531 0.86719-0.25391 1.3633-1.1719 1.7617-1.9102-0.25-0.35547-0.56641-0.66797-0.87109-0.97656-0.035157 0.042969-0.011719 0.10547-0.003907 0.16016 0.003907 0.019532 0.007813 0.039063 0.007813 0.054688 0.058594 0.35547-0.03125 0.78125-0.25 1.0703-0.25781 0.33984-0.71094 0.58203-1.1328 0.61719-0.39844 0.035156-0.80859-0.085938-1.1016-0.35938-0.34375-0.32031-0.38672-0.625-0.40625-1.0664z"/>
  <path d="m21.613 15.207c-0.36328 0.41797-0.36719 1.1719-0.3125 1.6992 0.16797 1.5664 1.1641 2.5859 2.3281 3.5312l0.72266-1.0977c0.72266-0.98047 1.5039-1.7305 2.5273-2.3945-1.168-0.96484-2.7109-1.9219-4.2422-2.0469-0.13281-0.003907-0.26562-0.003907-0.39844 0.003906-0.25391 0.011718-0.45703 0.11328-0.625 0.30469z"/>
  <path d="m28.02 31.66c0.34766-0.49609 0.72266-0.98438 0.95703-1.5469 0.24609-0.59766 0.42188-1.2344 0.62109-1.8516 0.33984-1.0508 0.6875-2.0977 0.98047-3.1641-0.22266 0.27734-0.47656 0.52344-0.77734 0.71484-0.55859 0.35547-1.1836 0.50391-1.8359 0.34766-0.6875-0.16406-1.3047-0.60938-1.6641-1.2188-0.31641-0.53125-0.40625-1.1523-0.23828-1.75 0.19922-0.69141 0.74219-1.4023 1.3828-1.7422 0.45313-0.23828 0.94922-0.26953 1.4336-0.10938 0.84766 0.28516 1.3984 1.2188 1.6289 2.0391 0.10156 0.35547 0.14844 0.73828 0.3125 1.0703 0.12891-0.066407 0.16016-0.24609 0.29297-0.33203l0.050781 0.054687c0.10938 0.60156-0.94922 4.8203-1.2109 5.5898-0.082031 0.24219-0.34375 0.40234-0.46094 0.62891-0.13281 0.25391-0.007813 0.62109 0.0625 0.87891l0.35547 0.21484c0.85547 0.39453 1.7773 0.58594 2.7109 0.6875 1.293 0.13672 4.4492 0.15625 5.4648-0.71094 0.26953-0.23047 0.41797-0.54297 0.39453-0.89844-0.027344-0.38672-0.33594-0.69922-0.45312-1.0586-0.25781-0.79297-0.42188-1.6523-0.62891-2.4609-0.21094-0.83203-0.49609-1.6914-0.62109-2.5391-0.03125-0.21484-0.011719-0.43359 0.003906-0.65234l0.32031 0.52344c0.042969-0.65625 0.28516-1.332 0.62109-1.8984 0.33203-0.5625 0.81641-1.0469 1.4727-1.1992 0.50391-0.11719 1.0156-0.003906 1.4492 0.26953 0.78516 0.50391 1.2344 1.4453 1.4453 2.3242-0.24219 0.55469-0.625 1.1289-1.0469 1.5586-0.46484 0.47656-1.0547 0.79687-1.7344 0.78906-0.76953-0.007812-1.3047-0.38281-1.8203-0.91016 0.57422 1.4297 0.85938 3.0273 1.4492 4.418 0.22266 0.52344 0.5625 0.95313 0.90625 1.3984 1.0156 1.3242 1.6953 2.4453 1.6445 4.1641 0.21484-0.375 0.58203-1.2852 1.0234-1.3984 0.38281-0.10156 1.0469 0.375 1.375 0.55859 0.24609-1.1719 0.39844-1.8477 0.29688-3.0508 0.57031 0.19531 1.2305 0.30469 1.7656 0.57031 0.050781 0.023438 0.10156 0.046875 0.15234 0.070312 0.054688-0.078124 0.0625-0.14062 0.066407-0.23437 0.054687-0.66016-0.23047-1.6133-0.60547-2.168-0.16406-0.24219-0.39844-0.46094-0.58594-0.6875l0.023438-0.050781c0.4375-0.22266 1.832 0.27734 2.3203 0.43359-0.14062-0.58594-0.31641-1.1602-0.57422-1.7031-0.14062-0.29297-0.85547-1.332-0.83984-1.5078 0.30469-0.28125 1.2773-0.18359 1.7109-0.27734l0.0625-0.015625c-0.57813-1.1641-1.4336-1.5664-2.0859-2.4492-0.33203-0.44922-0.57422-1.0273-0.83984-1.5195-0.47656-0.89062-0.99219-1.7266-1.625-2.5156-1.3984-1.7422-3.5117-3.125-5.7656-3.3711-0.070312-0.003906-0.14453-0.011718-0.21484-0.011718-1.2969-0.039063-2.2422 0.75-3.1289 1.5898-0.51562-0.41797-0.91797-0.93359-1.5273-1.2266-1.0195-0.49219-2.1641-0.30859-3.1836 0.0625-2.1914 0.79688-3.8984 2.3164-5.0742 4.3125-0.46875 0.79688-0.86719 1.6406-1.4375 2.375-0.78906 1.0156-1.9297 1.832-2.4844 3.0078 0.54297-0.054687 1.375-0.085937 1.8438 0.22656 0.10547 0.19141-0.007812 0.23438-0.14062 0.37891-0.75 0.82031-1.0703 1.832-1.3008 2.9023 0.019531-0.015625 0.042968-0.027344 0.0625-0.042969 0.45703-0.28906 1.1367-0.54688 1.6875-0.42578 0.058594 0.046875 0.15234 0.097656 0.13281 0.19141-0.03125 0.16016-0.18359 0.39453-0.25 0.55469-0.22266 0.54687-0.4375 1.4922-0.26172 2.0664 0.027343 0.089844 0.027343 0.13281 0.11719 0.17969 0.085937-0.085937 0.17578-0.17578 0.27734-0.24219 0.17578-0.11719 0.46094-0.23828 0.67188-0.20312 0.42578 0.3125 1.082 2.0938 1.3164 2.6289 0.24609-0.25 0.46484-0.46094 0.77344-0.625 0.66016 0.52734 1.1289 1.2891 1.5352 2.0156-0.21875-1.5156 0.39844-2.8242 1.2422-4.0391z"/>
  <path d="m33.922 32.914c-0.49609-0.007812-0.99609-0.0625-1.4883-0.11328-0.019532 0.023438-0.042969 0.042969-0.058594 0.070313-0.074219 0.125-0.097656 0.36328-0.074219 0.50391 0.13281 0.75781 0.97266 1.4219 1.5625 1.8359 0.26172-0.15234 0.48828-0.32031 0.72266-0.51172 0.29687-0.32422 0.53516-0.65234 0.66797-1.0781 0.0625-0.21094 0.097656-0.39453-0.007812-0.59766-0.078125-0.0625-0.10938-0.097657-0.21094-0.11328-0.35156-0.042968-0.75391 0.003906-1.1133 0z"/>
  <path d="m35.879 33.547 0.074219 0.027344c0.62891-0.20312 1.1719-0.67969 1.5742-1.1914-0.5 0.019532-1.2969 0.3125-1.8242 0.43359 0.066406 0.21875 0.10938 0.44141 0.15625 0.66406z"/>
  <path d="m29.98 32.246c0.20703 0.44922 1.2539 1.043 1.7188 1.2109l0.12891-0.75781c-0.62891-0.14844-1.2305-0.34766-1.832-0.57812l-0.042969 0.035156c0.007813 0.03125 0.015625 0.0625 0.027344 0.089844z"/>
  <path d="m39.266 23.125c0.15625-0.003906 0.30469-0.070312 0.41016-0.18359 0.097657-0.10547 0.13672-0.23438 0.11719-0.37891-0.03125-0.21875-0.17188-0.3125-0.33594-0.42969-0.042969-0.003906-0.089843-0.003906-0.13281-0.003906-0.19141 0.003906-0.39844 0.0625-0.52344 0.21875-0.078125 0.097656-0.09375 0.20312-0.078125 0.32422 0.027344 0.19922 0.18359 0.32422 0.32812 0.44141 0.074219 0.007813 0.14844 0.015625 0.22266 0.011719z"/>
  <path d="m34.371 81.168c-0.054688-0.62109-0.29297-1.2148-0.47266-1.8047-0.20313-0.66016-0.39844-1.332-0.55078-2.0039-0.51172-2.2461-0.46484-4.5039-0.49219-6.7891-2.8672-1.9766-5.1055-5.2656-5.9727-8.6094-0.27344 0.71484-0.49609 1.3867-0.59375 2.1445-0.054687 0.40625 0.18359 0.91797 0.089844 1.2812-0.03125 0.12109-0.09375 0.15625-0.1875 0.21875-0.10156 0.003906-0.17578 0-0.26953-0.039063-0.39453-0.17188-0.74219-0.56641-1.0469-0.86328-1.7148-1.6562-2.6602-3.1055-3.5859-5.3008-0.027343 0.007812-0.054687 0.015625-0.082031 0.027344-0.23047 0.12109-0.13672 1.3828-0.13672 1.7031 0.007813 2.4844 0.070313 5.1055 0.80078 7.5039 0.26172 0.86328 0.61328 1.6992 0.94531 2.5352 0.64844 1.6406 1.3398 3.3008 1.8516 4.9883 0.45312 1.4844 0.55859 2.9727 0.8125 4.4883 0.47266 2.8203 1.3164 4.4766 0.20703 7.3633-0.21875 0.5625-0.46484 1.2148-0.88672 1.6641-0.21875 0.23438-0.52734 0.40234-0.79297 0.57422-0.81641 0.53516-1.4766 1.1641-1.6992 2.1523-0.15625 0.70312-0.09375 1.5625 0.30859 2.1758 0.31641 0.48438 0.76953 0.64062 1.3047 0.76172-0.078125-0.17969-0.15234-0.36719-0.20703-0.55469-0.26953-0.90234-0.16406-1.9297 0.27734-2.7578 0.48828-0.91406 1.1992-1.3555 2.168-1.6562-0.32812 0.29688-0.66406 0.58984-0.96484 0.91406-0.64062 0.6875-0.95312 1.5898-0.91016 2.5312 0.027344 0.59375 0.20312 1.2383 0.66797 1.6367 0.48047 0.41406 1.0234 0.37891 1.6094 0.32422-0.23828-0.83594-0.42969-1.6562-0.29688-2.5312 0.17969-1.1758 0.78516-1.8867 1.7188-2.5781-0.089844 0.13281-0.17969 0.26172-0.26562 0.39844-0.64453 1.0273-0.96484 2.5117-0.6875 3.7031 0.10547 0.46094 0.30859 0.83203 0.71484 1.0859 0.69141 0.28516 1.4297 0.19922 2.1562 0.10547-0.078125-0.29688-0.14453-0.59375-0.17578-0.90234-0.16406-1.5898 0.58203-3.25 1.5625-4.4609-0.63281 1.8477-1.3242 3.4883-0.53516 5.4062 0.88672-0.042968 1.8125-0.48828 2.4375-1.1172 1.2734-1.2852 1.0977-4.2344 0.86719-5.9141-0.15234-1.1055-0.44922-2.207-0.38672-3.332 0.078125-1.4062 0.80859-3.2734 0.70703-4.4805z"/>
  <path d="m81.957 45.293c1 2.543 1.0742 5.2773 1.0703 7.9727-0.003906 1.7617-0.035156 3.5078-0.25391 5.2617-0.16797 1.3555-0.57422 3-0.61719 4.3203-0.039062 1.2031 0.64453 3.6289 1.0938 4.7617 0.82031 2.0586 2.1328 3.707 3.625 5.3086 0.75391 0.80859 1.5273 1.5977 2.1172 2.5391 1.1953 1.9023 1.4688 3.8672 0.96484 6.0352 0.16797 0.066406 0.33594 0.13672 0.50391 0.21094l0.058593-0.042969c0.24219-0.74609 0.34375-1.5234 0.35938-2.3047 0.085938-3.75-2.6133-6.2344-4.543-9.0977-0.99219-1.4727-1.8672-3.2227-2.2773-4.9531-0.44922-1.8828-0.57812-3.7734-0.44531-5.7031 0.35156-5.082 1.9023-8.7305 0.49219-13.93-0.69531-2.5625-2.0312-5.0312-4.0938-6.7461-0.75-0.625-1.582-1.1328-2.4258-1.6172l-0.035157 0.007812-0.015625 0.066406c0.95703 1.3281 1.7617 2.7773 2.5586 4.207 0.67188 1.207 1.3594 2.4297 1.8672 3.7148z"/>
  <path d="m46.5 17.984c0.25781-0.73438 0.45312-1.9648 0.082031-2.6797-0.17969-0.34375-0.39453-0.44531-0.75-0.55469-0.039062-0.003906-0.078125-0.003906-0.11719-0.007812-1.5859-0.050782-3.4453 0.86719-4.5781 1.9336 0.875 0.58984 1.6367 1.2695 2.3359 2.0625 0.35547 0.43359 0.67578 0.91016 1.0039 1.3672 0.14844-0.046875 0.30078-0.097657 0.4375-0.16016 0.75781-0.35547 1.3164-1.1914 1.5898-1.9609z"/>
  <path d="m46.09 14.137c0.41797 0.089843 0.77734 0.30469 1.0039 0.67969 0.51562 0.85547 0.34766 2.168 0.13281 3.0898l-0.042968 0.13281c-0.42578 1.2773-1.1133 2.0859-2.3125 2.6875 0.17188 0.22266 0.30078 0.45313 0.43359 0.69922 0.48437-0.18359 0.95703-0.40625 1.375-0.71875 1.2266-0.92578 1.9727-2.4844 2.1719-3.9844 0.14453-1.0742 0.070313-2.4023-0.62891-3.2891-0.46484-0.58594-1.1055-0.79688-1.8164-0.88672-1.0625-0.070313-2.1641 0.16797-3.1094 0.66406-1.1055 0.57812-1.9922 1.582-2.3594 2.7812 0.10938-0.078126 0.21875-0.15625 0.32812-0.23047 1.332-0.90234 3.1484-1.9805 4.8242-1.6211z"/>
  <path d="m23.27 20.984c-0.63281-0.47656-1.1719-0.98438-1.6602-1.6133-0.39062-0.55859-0.73828-1.2109-0.88281-1.8828-0.17187-0.80078-0.15234-1.9531 0.32422-2.6523 0.21875-0.31641 0.53516-0.50391 0.91016-0.56641 1.7461-0.29688 3.7266 0.98047 5.0859 1.9375-0.16797-0.58984-0.40234-1.1172-0.76953-1.6133-0.82812-1.1094-1.9609-1.8008-3.332-2.0078-0.24219-0.035157-0.51172-0.03125-0.75391-0.023438-0.85156 0.035156-1.6641 0.32812-2.2461 0.97266-0.63672 0.70312-0.88281 1.707-0.83594 2.6367 0.125 2.4492 1.8867 4.3242 3.6172 5.8711 0.19141-0.34766 0.37891-0.69531 0.54297-1.0586z"/>
  <path d="m55.004 89.234c-0.039062 0.007813-0.066406 0.011719-0.10156 0.023437-0.46094 0.17188-0.83594 0.70313-1.0039 1.1406-0.27344 0.71875-0.21094 1.4766 0.10547 2.168 0.058594 0.089844 0.0625 0.125 0.16016 0.17578 0.0625-0.25-0.039062-0.58203-0.050781-0.84375-0.042969-0.98828 0.35938-1.8633 0.89062-2.668z"/>
  <path d="m57.18 31.566c0.24609 0.11328 0.50391 0.18359 0.76562 0.25391 0.015626-0.60937-1.1523-1.7578-1.5664-2.207-0.050781 0.26172 0.66016 1.6367 0.80469 1.9492z"/>
  <path d="m66.969 64.285c-1.6992 0.62109-3.1289 1.7148-4.7109 2.5625-1.3008 0.69922-2.6641 1.3398-4.0469 1.8633-0.58203 0.21875-1.1797 0.38672-1.7617 0.60156 0.51172 1.6875 1.0703 3.3125 1.9062 4.8711 0.33984 0.63281 0.71094 1.2617 1.1367 1.8438 1.1758 1.6094 2.4648 2.957 2.3477 5.0859-0.13672 2.5117-2.0586 6.1523-4.1797 7.5-0.625 0.39844-1.5234 0.44531-1.9883 0.88672-0.57031 0.53516-0.83203 1.4492-0.87109 2.207-0.027343 0.49609-0.015625 1.1641 0.34766 1.543 0.33984 0.35547 0.97266 0.32422 1.4297 0.33594-0.10156-0.23828-0.18359-0.49219-0.23438-0.74219-0.19922-0.99219 0.015625-2.1445 0.58984-2.9844 0.46094-0.66797 1.0625-0.95312 1.8359-1.0977-0.35547 0.25-0.64453 0.51172-0.92578 0.84375-0.64844 0.87891-0.94531 1.9258-0.8125 3.0195 0.046875 0.375 0.16016 0.75 0.47656 0.98438 0.50781 0.375 1.5352 0.24219 2.125 0.15234-0.078124-0.16016-0.15234-0.31641-0.20703-0.48438-0.26953-0.83984-0.035156-1.8438 0.36328-2.6094 0.32031-0.62109 0.76563-1.0859 1.4453-1.3008-0.61719 0.96484-1.4258 2.4297-1.168 3.625 0.058594 0.27344 0.19531 0.53516 0.44531 0.67969 0.39844 0.23047 0.98438 0.10547 1.4062-0.015625 0.88281-0.25781 1.6641-0.78906 2.1055-1.6133 0.25391-0.47656 0.41016-1.043 0.59766-1.5508l1.0938-3.0234 1.8047-5c0.29297-0.80469 0.62891-1.6016 0.88672-2.4141 0.11719-0.36719 0.21484-0.74609 0.21094-1.1328-0.007813-0.82812-0.51172-1.418-0.84766-2.1328-0.16016-0.34766-0.28125-0.72266-0.38672-1.0859-0.85156-2.918 0.023438-6.0352 1.4609-8.625-0.42969-1.0625-1.0938-1.9414-1.8594-2.7812z"/>
  <path d="m89.449 82.293c-0.8125 0.13672-1.4531 0.71484-1.9062 1.375-0.64062 0.9375-0.84766 1.9648-0.87891 3.082-0.007812 0.28516-0.027343 0.61328 0.035157 0.89062 0.023437 0.10547 0.019531 0.11328 0.11328 0.17188l0.14453-0.10156c0.83594-0.66016 1.8828-1.043 2.6602-1.7695 0.58203-0.54297 0.91797-1.2383 0.9375-2.043 0.011718-0.60938-0.10156-1.1562-0.53516-1.6094-0.19141-0.019531-0.38281-0.03125-0.57422 0.003907z"/>
  <path d="m40.527 58.441c1.0586 1.3789 2.2461 3.7344 2.3867 5.4609 1.7812-1.9453 3.7031-4.5469 3.8281-7.2617 0.097656-2.0508-0.71094-3.7266-2.0703-5.207 0.62891 0.40625 1.1758 0.89062 1.6133 1.4961 1.082 1.4922 1.3398 3.1836 1.0508 4.9727 1.9688-2.543 3.7891-6.0938 3.5742-9.3945-0.14453-2.2227-1.4297-3.1602-2.9727-4.5273 0.35547 0.082031 0.67578 0.16406 1.0039 0.32422 2.0703 1.0078 3.2695 3.3789 4 5.4453 0.20312-0.34766 0.36719-0.71094 0.51953-1.0859 1.2773-3.1484 1.6797-7.1289 0.32422-10.305-0.82031-1.9219-1.6992-2.582-3.5703-3.3359 0.42188 0 0.80078 0.039062 1.207 0.16016 0.45703 0.13672 0.89062 0.34375 1.2812 0.61719 0.4375 0.30859 0.80078 0.70703 1.1797 1.082 1.125 1.125 2.1367 2.2422 2.9062 3.6562 0.082032-0.36328 0.17188-0.72266 0.23828-1.0859 0.61719-3.457 0.089844-7.4883-1.9609-10.391-1.1406-1.6172-2.3867-2.5312-4.3398-2.8711 0.5625-0.066406 1.082-0.078125 1.6367 0.046875 2.0391 0.44922 4.8789 2.9258 5.9805 4.6445 0.03125-2.543-0.47266-5.1172-1.8789-7.2695-1.7383-2.6641-3.8359-3.7891-6.8906-4.4258 2.707-0.20703 6.4609 0.64844 8.6719 2.2617-0.66406-3.293-2.6875-6.1875-5.6094-7.8789-1.2656-0.73047-2.6055-1.2891-3.4648-2.5352 0.96094 0.48828 1.9336 0.99219 3.0352 1.0508 1.293 0.070312 2.5195-0.42969 3.4727-1.2812-0.64844-0.023438-1.293-0.16406-1.9219-0.31641-1.2656-0.30859-2.4453-0.80078-3.5781-1.4414-1.4141-0.80469-2.707-1.7109-4.2461-2.293-2.4336-0.91406-4.8047-1.0273-7.1836 0.058594 0.69141-1.4258 1.6719-2.1094 3.0547-2.7969-0.35547-0.085937-0.70313-0.14453-1.0664-0.18359-2.2031-0.12891-4.7617 0.79297-6.4727 2.168 0.042969 0.97656-0.019531 1.9609-0.21094 2.918-0.28516-0.97656-0.38672-1.9102-0.41797-2.9219-0.67578-0.48438-1.3594-0.91797-2.1172-1.2656-1.6016-0.73047-3.9883-1.2852-5.7031-0.65234 1.2734 0.55469 2.3281 1.4648 2.9453 2.7188-0.53125-0.27734-1.043-0.53906-1.6367-0.66016-2.5156-0.5-5.7422 0.99219-7.8594 2.3242-1.1445 0.71875-2.1992 1.5586-3.4414 2.1172-1.2852 0.57812-2.5039 0.82422-3.9102 0.85547 0.83984 0.6875 1.7344 1.0391 2.8086 1.1641 1.5 0.17188 3.5-0.34766 4.6797-1.2891-0.67188 1.4805-2.5898 1.8008-3.875 2.582-3.207 1.957-5.4258 5.0469-6.3047 8.6914 1.9688-1.5273 4.9102-2.5469 7.4023-2.4727-1.4727 0.44922-2.6133 1.2578-3.6875 2.3516-2.5273 2.5742-3.6016 5.9961-3.5742 9.5508 0.16406-0.28516 0.34375-0.57031 0.53516-0.83984 1.3203-1.8555 3.5352-3.3203 5.6914-3.9961 0.65234-0.20312 1.3164-0.31641 1.9883-0.42578-1.2734 0.41016-2.9375 1.0742-3.918 2.0156-0.39062 0.375-0.70703 0.82812-0.98047 1.2891-2.0977 3.5352-2.2539 7.7969-1.2422 11.695 0.29688-0.57422 0.58984-1.1562 0.95703-1.6914 1.207-1.75 3.0703-3.3008 5.0664-4.0273-1.2969 0.90625-2.6016 1.9727-3.1523 3.5039-1.2695 3.5273-0.47656 7.6719 1.0742 10.984 0.79297-2.3789 2.1367-4.543 4.4258-5.7109-0.26953 0.25781-0.53125 0.52344-0.78125 0.79688-1.4062 1.543-1.6719 3.1914-1.5625 5.2266 0.14844 2.7383 1.2969 5.8672 3.375 7.7305-0.089844-0.55078-0.12109-1.1016-0.058594-1.6562 0.19922-1.7617 1.1875-3.3945 2.5625-4.4844-0.99609 1.5664-1.7422 3.1758-1.6562 5.0742 0.12109 2.6758 2.0078 5.1758 3.9141 6.9141 0.11328-1.8945 1.2031-4.1562 2.4727-5.5586-0.11719 0.28125-0.22266 0.57422-0.30469 0.86328-0.58594 2.0547 0.26562 3.8477 1.2578 5.6211 1.375 2.3516 3.4844 4.3438 5.8281 5.707 0.74609-0.92578 1.5898-1.6953 2.3867-2.5625 0.60547-0.66016 1.1562-1.3984 1.6523-2.1445 1.6914-2.5547 2.2383-4.8945 1.6328-7.9102zm-4.0273-13.785c-0.097656-0.027344-0.078125 0-0.11719-0.078125-0.074218-0.14453-0.046874-0.38281-0.054687-0.54688-0.66797 0.73438-1.3789 1.4258-2.0586 2.1523-0.96484-0.55859-1.9805-1.4805-2.6289-2.3906-0.085937 0.36328-0.18359 0.69922-0.33984 1.0391-1.207-0.82422-2.543-1.957-2.8359-3.4727-0.14062-0.71875-0.03125-1.4258 0.125-2.1328-0.88281-0.85547-1.6758-1.8672-2.2734-2.9375-0.34375-0.58203-0.67188-1.1836-1.1133-1.7031-0.015625 0.011718-0.035156 0.023437-0.050781 0.039062-0.28125 0.21484-0.71484 0.82812-1.0586 0.83594-0.10938-0.054688-0.15234-0.085938-0.19922-0.20313-0.10547-0.27344-0.10547-0.59766-0.16797-0.88281-0.15234-0.67969-0.55859-1.3867-0.92578-1.9688-0.015625 0.011719-0.027343 0.023438-0.042969 0.035156-0.23437 0.19531-0.5625 0.78516-0.80859 0.84766-0.14062-0.050781-0.21094-0.097656-0.27344-0.23828-0.38281-0.84375-0.29297-2.3945-0.007812-3.2578l-0.0625 0.023437c-0.22656 0.089844-1.0898 0.66797-1.1523 0.67188-0.054687 0.007813-0.11328-0.015625-0.16797-0.027343-0.12891-0.085938-0.17578-0.16406-0.20312-0.3125-0.035156-0.21094 0.003907-0.45703 0.027344-0.67188 0.125-1.0586 0.55078-1.8867 1.0898-2.7852-0.21484 0-1.4102 0.13672-1.5039 0.03125-0.10937-0.11719-0.13281-0.25781-0.11328-0.41406 0.15234-1.2148 1.9922-2.793 2.8008-3.6953-1.875-1.6016-3.7188-3.6758-3.9062-6.2539-0.085937-1.1641 0.1875-2.3867 0.96875-3.2852 0.64844-0.74609 1.6953-1.0859 2.6562-1.1484 1.3594-0.089843 2.707 0.36719 3.7266 1.2734 0.96875 0.86328 1.6797 1.875 1.9492 3.1562 1.3594-0.6875 2.9648-1.3086 4.5-0.80469 0.64844 0.21484 1.2383 0.63672 1.6953 1.1406 1.0742-0.90625 2.1094-1.4688 3.5586-1.3438 0.92578 0.078125 1.7734 0.40234 2.6094 0.78906 0.39844-1.4727 1.3359-2.6758 2.668-3.4297 1.0664-0.60547 2.375-0.91797 3.6016-0.82422 0.89062 0.082032 1.7148 0.33984 2.3008 1.0586 0.82031 1.0078 0.97656 2.5977 0.82422 3.8438-0.19922 1.625-0.96484 3.3672-2.2852 4.3867-0.50781 0.39453-1.0664 0.65234-1.6797 0.84375 0.20703 0.35938 0.36719 0.83203 0.61328 1.1484 0.26172 0.33594 0.64453 0.60156 0.94922 0.90234 0.35547 0.35156 1.3945 1.5156 1.2227 2.043-0.042969 0.13281-0.089844 0.1875-0.21484 0.23828-0.38281 0.16016-0.91797 0.16797-1.332 0.18359 0.46484 0.70703 1.3281 2.4023 1.1328 3.2773-0.03125 0.13672-0.074218 0.17969-0.18359 0.25781-0.25391 0.042969-0.75-0.28125-1.0117-0.36719-0.17578-0.058594-0.37109-0.09375-0.55469-0.11719 0.48828 0.94922 0.71484 1.9023 0.38281 2.9492-0.050781 0.15234-0.082031 0.25391-0.22656 0.33203-0.57422-0.21484-0.81641-0.41797-1.457-0.46875-0.085937 0.58594-0.35156 2.3984-0.71875 2.7969-0.15234 0.046875-0.21484 0.011719-0.35938-0.0625-0.38672-0.19141-0.69531-0.43359-1.1172-0.57031-1.0508 1.6328-1.9141 3.2812-3.4414 4.543 0.13281 1.5078 0.26953 2.7695-0.76562 4.0117-0.40234 0.48047-1.4023 1.3398-1.9844 1.5391z"/>
  <path d="m83.695 76c-1.3242-2.3789-2.043-4.9375-2.332-7.6328-0.12109-1.1133-0.23047-2.2422-0.1875-3.3633 0.074219-1.9492 0.51562-3.8672 0.78125-5.793 0.20703-1.5078 0.35547-3.0117 0.35156-4.5352-0.015625-4.7227-1.3398-9.5312-3.4531-13.738-0.74219-1.4805-1.625-3.0586-2.7891-4.2461-2.2852-2.3281-5.8125-3.0469-8.9688-3.1289-1.293-0.035156-2.582 0.050781-3.8711-0.035156-1.9414-0.125-3.8984-0.50781-5.7422-1.1211-0.003906 0.003906-0.003906 0.003906-0.007813 0.007812-0.011718 0.027344-0.027343 0.054688-0.03125 0.082032-0.019531 0.11719 0.17578 0.71875 0.21484 0.88281 0.10547 0.45703 0.17578 0.92578 0.22656 1.3945 0.23047 2.0586 0.027343 4.0938-0.39062 6.1133-0.0625 0.30078-0.11328 0.85156-0.32031 1.082-0.085937 0.09375-0.16797 0.10156-0.28906 0.11719-0.13281-0.054688-0.16797-0.066407-0.24609-0.19141-0.21484-0.34375-0.35156-0.75-0.54688-1.1094-0.39062-0.71875-0.87109-1.3555-1.375-1.9961 0.51562 1.5312 0.67578 3.2266 0.60156 4.832-0.10156 2.2148-0.73437 4.4492-1.6914 6.4414-0.15625 0.32031-0.32812 0.77734-0.60156 1.0117-0.097656 0.085937-0.17969 0.10547-0.3125 0.10156-0.042969-0.023437-0.09375-0.039062-0.12891-0.070312-0.11328-0.10156-0.20313-0.625-0.24219-0.77734-0.19141-0.73828-0.44141-1.4219-0.73438-2.125 0.011719 1.3633-0.074219 2.6094-0.44922 3.9297-0.55469 1.9453-2.5195 6.1328-4.3008 7.125-0.86328 1.9883-2.1328 3.6445-3.5547 5.2617-0.23438 0.26562-0.55078 0.68359-0.92578 0.71094-0.12109-0.054688-0.20703-0.11719-0.22266-0.26562-0.027344-0.25 0.10547-0.53516 0.10156-0.79688-0.003906-0.92969-0.37891-1.8633-0.79687-2.6758-0.25781 2.7227-1.4102 4.3906-2.8945 6.5586 0.1875 0.67188 0.3125 1.3711 0.4375 2.0547 0.53125 2.8438 0.48438 5.1094-0.18359 7.9219-0.21094 0.88281-0.72266 1.7656-0.70703 2.6875 0.011719 0.74219 0.25 1.4453 0.45312 2.1523 0.31641 1.0898 0.57422 2.2617 0.46094 3.4023-0.09375 0.9375-0.42578 1.8398-0.67969 2.7383-0.35156 1.25-0.60547 2.6016-0.62109 3.9023-0.007812 0.82812 0.15234 1.4453 0.74609 2.0508 0.46094 0.46875 1.3672 0.97656 2.0352 0.95703 0.14063-0.003907 0.23828-0.042969 0.33203-0.15625 0.72266-0.88281 0.20703-3.8516 0.0625-4.9727 0.78516 1.668 1.1797 3.3164 0.69531 5.1289 0.56641 0.16016 1.25 0.31641 1.8398 0.18359 0.35547-0.082031 0.64062-0.28516 0.82812-0.59766 0.71094-1.1953 0.14844-3.0781-0.17578-4.3281 0.29297 0.31641 0.54688 0.64062 0.73828 1.0312 0.53516 1.0859 0.56641 2.3828 0.1875 3.5156 0.15625 0.074219 0.30859 0.12891 0.47656 0.16797 0.51172 0.11328 1.1172 0.14062 1.5742-0.16016 0.38672-0.25781 0.56641-0.69141 0.63672-1.1328 0.26172-1.5625-0.375-2.7969-1.2422-4.0312 1.4727 0.60156 2.0469 2.0117 1.9727 3.5352-0.011719 0.24609-0.14062 0.76953-0.042969 0.97656 0.13672 0.035156 0.26562 0.003906 0.39453-0.042969 0.27734-0.09375 0.48047-0.29688 0.60547-0.55859 0.46484-0.98437 0.007813-2.5-0.59766-3.332-0.30078-0.41406-0.69922-0.73828-0.99219-1.1641-0.34375-0.50391-0.60156-1.0742-0.80859-1.6445-0.98828-2.7031-0.21875-4.7773 0.25391-7.4492 0.24219-1.3711 0.36328-2.7578 0.62891-4.125 0.44141-2.2812 1.1172-4.5781 1.7852-6.8047 0.64062-2.1367 1.5078-4.1953 2.1328-6.3398 0.35156-1.2109 0.62109-2.4531 0.90234-3.6836 0.16016-0.70703 0.27344-1.5547 0.58203-2.2109 0.074218 0.625 0.011718 1.2969-0.046875 1.9219-0.3125 3.4961-1.5703 6.7148-2.7695 9.9805 2.3633 0.050781 4.8086-0.55469 7.0117-1.3906 1.9492-0.68359 3.8438-1.6406 5.6289-2.6758 0.61328-0.35547 1.1992-0.76172 1.8164-1.1133 1.3438-0.76172 2.4766-0.97266 3.5664-2.1914 1.2305-1.375 1.9297-3.3477 2.4336-5.1094 0.10938-0.39062 0.35938-1.9023 0.56641-2.082l0.054687 0.070312c0.15625 0.83203-0.015624 1.8789-0.17187 2.6992-0.44531 2.3164-1.6758 4.7422-3.6641 6.0898 1.3867 1.7422 2.1992 3.7305 3.2617 5.6602 0.55859 1.0156 1.2109 1.9648 1.9375 2.8672 0.75391 0.9375 1.5898 1.8086 2.4922 2.6094 1.3945 1.2383 3.1328 2.1172 3.75 3.9922 0.74219 2.2539 0.26562 5.4219-0.79688 7.5117-0.44531 0.875-1.0742 1.832-2.0391 2.1797-0.33984 0.12109-0.71094 0.14844-1.0508 0.26953-0.56641 0.20312-0.97656 0.65625-1.2188 1.1953-0.36719 0.8125-0.34375 1.75-0.011718 2.5742 0.070312 0.17188 0.14062 0.32812 0.32031 0.40234l0.027344-0.023438c-0.058594-0.23828-0.10156-0.47266-0.10547-0.71875-0.027343-0.99219 0.29297-2.1484 1.0078-2.8711 0.49219-0.5 1.0273-0.59375 1.6992-0.59375-0.28516 0.22266-0.58203 0.44141-0.84375 0.6875-0.71094 0.66797-1.168 1.5312-1.1914 2.5195-0.007812 0.42188 0.058594 1.1133 0.375 1.4141 0.41016 0.39062 1.4023 0.31641 1.9453 0.31641-0.36328-0.99219-0.23828-2.0703 0.19922-3.0234 0.39453-0.85156 0.92969-1.3945 1.8164-1.7266-0.79688 1.0586-1.6445 2.5977-1.5078 3.9766 0.03125 0.32422 0.15234 0.625 0.41406 0.83203 0.53125 0.41406 1.8125 0.11719 2.4414 0.027344-0.0625-0.125-0.125-0.25-0.16797-0.38672-0.1875-0.5625-0.10938-1.25 0.15625-1.7734 0.33594-0.65625 0.85156-0.93359 1.5234-1.1367-0.16016 0.17188-0.32422 0.34766-0.46875 0.53516-0.39453 0.51172-0.69922 1.1914-0.60156 1.8477 0.058594 0.39453 0.25391 0.65625 0.56641 0.89062 0.54688 0.035157 1.0703-0.058593 1.5625-0.30859 0.74609-0.375 1.1562-0.98438 1.4141-1.7578 0.27734-0.84375 0.12891-1.832 0.10938-2.707-0.011719-0.53125-0.003906-1.0586 0.011719-1.5898 0.046875-1.832 0.16797-3.6719 0.32812-5.4961 0.070312-0.8125 0.21094-1.6289 0.24609-2.4453 0.015624-0.37109-0.011719-0.74219-0.12109-1.0977-0.27734-0.92969-0.99219-1.7227-1.4609-2.5664z"/>
  <path d="m33.957 37.832c-0.94531 0.39453-1.9961 0.66016-2.9805 0.95312-0.53125 0.15625-1.2695 0.28125-1.7188 0.59766-0.21484 0.38281-0.19141 0.98438-0.17187 1.4141 0.054687 1.3477 0.93359 2.1719 1.8633 3.0312 0.027343-0.23828 0.046875-0.48828 0.12109-0.71875 0.16797-0.089844 0.4375 0.039063 0.64453-0.015625 0.003906 0 0.085937-0.023438 0.09375-0.027344 0.10547-0.003906 0.14844 0.042969 0.21875 0.11328 0.27344 0.27734 0.49219 0.63281 0.74219 0.93359 0.375 0.45312 0.82812 0.81641 1.2812 1.1836l0.035157 0.023437c0.28125-0.066406 1.3516-1.2539 1.5742-1.5156 0.27734-0.32813 0.68359-1.0195 1.0625-1.1992 0.011719 0.003906 0.019532 0.007812 0.03125 0.015625 0.21484 0.19141 0.17188 0.73828 0.18359 1.0039 0.48828-0.37891 0.94922-0.76953 1.2969-1.2852 0.65234-0.95703 0.58594-1.9062 0.375-3-1.5664-0.44531-3.1172-0.97656-4.6562-1.5117z"/>
  <path d="m28.25 23.184c0.066406 0 0.14062 0 0.20703-0.011719 0.15625-0.03125 0.33203-0.125 0.40625-0.27344 0.058594-0.11719 0.070313-0.23438 0.035157-0.35938-0.066407-0.21875-0.23047-0.30078-0.41797-0.40234-0.070313 0-0.14062 0-0.20703 0.003906-0.15625 0.007813-0.28906 0.066406-0.38672 0.19531-0.089844 0.12109-0.11328 0.26562-0.070313 0.41016 0.066406 0.23047 0.23438 0.33984 0.4375 0.4375z"/>
  <path d="m26.914 23.031c-0.23828 0.21875-0.42187 0.55859-0.43359 0.88281-0.019531 0.47656 0.22656 0.94531 0.55469 1.2773 0.42188 0.42578 1.0039 0.67969 1.6055 0.66406 0.88672-0.023438 1.4062-0.68359 1.9727-1.2695l0.050781-0.050782c-0.011718-0.35156-0.57812-1-0.79687-1.3047-0.007813 0.10547-0.011719 0.21484-0.023438 0.32031-0.042969 0.39453-0.23828 0.75391-0.5625 0.98828-0.33203 0.24219-0.75781 0.30859-1.1602 0.22656-0.38672-0.078125-0.74609-0.29297-0.96094-0.63281-0.22656-0.36328-0.23438-0.76953-0.15234-1.1719-0.039062 0.027343-0.058593 0.039062-0.09375 0.070312z"/>
  <path d="m29.383 38.648c0.65625-0.23828 1.3281-0.42188 1.9922-0.63281 0.73047-0.22656 1.457-0.47656 2.1992-0.66406 0.035156-0.52734 0.027343-1.0547 0.078125-1.582-0.63281-0.41797-1.1562-0.92578-1.6289-1.5195-0.42188-0.14453-0.8125-0.32422-1.1953-0.55469-0.98828-0.60156-1.6328-1.4023-1.9062-2.5312-0.60547 0.60547-1.2891 2.2422-1.4219 3.1016-0.19922 1.3047 0.17578 2.6562 0.94922 3.7188 0.17188-0.375 0.32422-0.77344 0.40625-1.1797 0.0625-0.3125 0.027343-0.75781 0.16406-1.0352 0.27344 0.59375-0.16406 1.8047-0.34766 2.4102 0.085937 0.14062 0.19922 0.36719 0.33984 0.45703 0.13672 0.089843 0.22266 0.042969 0.36719 0.011719z"/>
  <path d="m39.051 36.145c0.10938 0.12109 0.085938 0.55078 0.12109 0.73047 0.070313 0.37109 0.17578 0.73438 0.27734 1.0977 0.8125-0.8125 1.4102-1.8672 1.4258-3.0391 0.023438-1.5078-0.82031-3.0742-1.8398-4.1406-0.11328 0.14062-0.13672 0.4375-0.20703 0.61328-0.20312 0.50391-0.58594 1.0703-0.94141 1.4805-0.53125 0.61328-1.4531 1.2969-2.2891 1.3555-0.40234 0.57422-0.875 1.0156-1.3828 1.4922 0.046875 0.53906 0.089844 1.0742 0.11719 1.6133 1.2969 0.32812 2.5898 0.80078 3.8516 1.2383 0.20312 0.066406 0.41406 0.11328 0.62109 0.16797 0.15234-0.17578 0.28125-0.37891 0.41406-0.57031-0.10938-0.55859-0.23438-1.1367-0.24609-1.7109-0.003906-0.125-0.007812-0.23828 0.078125-0.33203z"/>
 </g>
</svg>