<?xml version="1.0" encoding="utf-8"?>
<!-- Generator: Adobe Illustrator 28.0.0, SVG Export Plug-In . SVG Version: 6.00 Build 0)  -->
<svg version="1.1" id="Loki6" xmlns="http://www.w3.org/2000/svg" xmlns:xlink="http://www.w3.org/1999/xlink" x="0px" y="0px"
	 viewBox="0 0 1024 1024" style="enable-background:new 0 0 1024 1024;" xml:space="preserve">
<path d="M412.031,139.949c-7.433,4.664-15.44,8.627-22.174,14.145c-12.476,10.222-15.891,28.435-8.06,42.65
	c3.719,6.75,8.982,12.743,14.084,18.61c4.766,5.482,9.188,10.942,10.581,18.307c0.896,4.739,0.46,8.969-2.184,13.331
	c-3.863,6.374-6.948,13.223-10.311,19.895c-0.494,0.979-0.698,2.105-0.74,3.362c15.376-27.956,41.514-43.094,67.775-58.364
	c16.072-9.345,31.688-19.567,46.887-30.277c6.546-4.613,11.597-11.385,17.187-17.309c10.127-10.731,11.899-23.471,9.551-37.58
	c-4.374-26.282-16.827-48.227-35.301-66.887c-29.756-30.056-66.011-47.655-107.47-54.959c-1.794-0.316-3.567-0.749-5.442-1.887
	c4.392-0.575,8.782-1.161,13.176-1.723c66.508-8.502,137.425,26.605,171.594,84.025c30.702,51.596,18.488,110.06-21.038,146.537
	c-10.918,10.076-23.406,18.452-33.946,26.654c35.109-15.915,62.494-42.23,81.568-77.636c-2.63,31.473-17.52,57.487-36.581,82.194
	c10.079,9.217,20.733,18.423,21.373,33.65c0.123,2.925-1.258,5.913-2.586,8.833c1.081-7.774-1.645-14.322-6.96-19.214
	c-5.173-4.761-11.126-8.868-17.272-12.306c-3.843-2.15-6.179,0.178-5.684,4.848c1.857,17.524,3.844,35.035,5.673,52.562
	c0.156,1.494,0.041,3.901-0.857,4.485c-10.075,6.548-11.726,17.244-14.065,27.637c-0.146,0.647-0.32,1.289-0.525,1.92
	c-0.1,0.309-0.299,0.586-0.633,1.218c-7-4.663-14.039-9.206-20.867-14.046c-1.1-0.78-1.359-2.851-1.844-4.377
	c-3.354-10.564-6.607-21.16-10.076-31.685c-0.353-1.07-1.922-1.739-2.926-2.594c-0.049,1.308-0.514,2.774-0.086,3.9
	c11.186,29.407,5.323,56.85-9.383,83.331c-5.806,10.454-12.096,20.694-17.101,31.524c-4.907,10.62-3.5,21.171,4.156,30.558
	c-5.873-11.507-2.741-21.608,4.728-30.963c3.084-3.863,6.442-7.507,9.675-11.251l-0.1-0.141c4.049,5.059,8.098,10.118,12.146,15.177
	l-0.155-0.074c-5.953,7.971-11.116,16.477-8.733,26.84c1.529,6.646,4.749,12.903,7.203,19.33c-4.818,2.095-6.958,8.288-4.939,14.269
	c-11.344-11.754-22.199-23.949-29.462-38.734c-9.756-19.86-6.344-39.68,9.355-55.331c4.353-4.34,9.38-8.003,14.237-12.095
	c-20.62,5.813-34.387,30.279-30.135,52.859c2.815,14.947,10.225,27.587,18.93,39.694c5.432,7.555,11.163,14.974,15.799,23.008
	c12.517,21.691,8.744,43.363-10.953,58.584c-11.656,9.007-24.632,16.306-37.014,24.373c-5.8-14.717-4.663-19.328,7.413-29.904
	c1.501-1.314,3.192-2.433,4.571-3.859c3.11-3.214,6.471-6.288,9.021-9.918c4.275-6.086,4.505-12.74,0.722-19.236
	c-0.658-1.13-2.351-1.658-3.565-2.465c5.382-6.722,11.071-13.309,10.079-22.892c-1.907,9.747-8.557,15.696-16.573,20.191
	c-8.246,4.623-16.937,8.447-25.237,12.981c-4.758,2.599-9.794,5.253-13.531,9.04c-8.555,8.67-6.546,19.83,4.064,25.755
	c4.88,2.725,10.349,4.734,11.822,11.243c-0.965-4.315-2.464-8.262-4.632-11.799c-6.767-11.042-5.393-19.852,5.348-27.025
	c9.33-6.231,19.151-11.728,28.77-17.559c0.476,0.42,1.097,0.766,1.374,1.292c4.607,8.751,4.02,15.518-2.779,22.741
	c-5.327,5.659-11.506,10.513-16.859,16.151c-7.134,7.515-7.051,17.47-0.332,25.544c-3.652,2.872-7.304,5.746-10.957,8.617
	c-11.799,9.272-18.896,20.74-15.778,36.326c2.11,10.548-2.535,17.411-11.043,22.3c-7.775,4.467-15.986,8.183-23.702,12.742
	c-6.404,3.784-12.64,7.973-18.44,12.62c-4.411,3.534-5.273,8.539-3.043,14.027c5.453,13.418,0.435,26.266-12.563,32.571
	c-5.381,2.61-10.827,5.093-16.123,7.864c-2.161,1.13-4.002,2.871-6.859,4.976c9.71-3.71,18.22-6.948,26.72-10.212
	c9.011-3.46,14.553-9.875,15.61-19.53c0.503-4.592,0.71-9.432-0.19-13.909c-1.235-6.142,0.685-10.651,5.462-13.834
	c4.393-2.927,9.179-5.358,14.015-7.505c8.042-3.572,16.499-6.272,24.349-10.2c9.945-4.976,16.53-12.917,16.919-24.618
	c0.557-16.753,9.334-28.718,21.991-38.442c5.274-4.052,11.01-7.518,16.175-11.696c10.056-8.133,21.036-15.54,29.499-25.131
	c13.837-15.684,16.324-34.16,6.968-53.403c-2.746-5.648-6.34-10.885-9.563-16.328c1.632-4.759,3.281-9.499,4.93-14.24
	c4.342,3.578,8.684,7.157,13.057,10.76c-2.881,4.385-5.911,8.996-8.94,13.608c0.26,0.18,0.52,0.359,0.781,0.539
	c2.429-3.299,4.831-6.617,7.294-9.89c2.027-2.693,4.122-2.617,6.726-0.489c9.83,8.034,14.55,18.53,14.621,30.994
	c0.133,23.39-11.202,40.699-30.072,53.244c-9.109,6.056-19.095,10.795-28.7,16.102c-2.474,1.367-5.018,2.609-7.513,3.939
	c-18.138,9.666-30.164,24.189-35.435,44.214c-1.519,5.772-3.438,11.451-5.412,17.089c-3.23,9.228-9.704,15.27-19.307,16.915
	c-10.122,1.734-17.084,6.081-18.234,17.08c-0.094,0.904-0.765,1.747-1.672,3.71c-0.443-2.623-0.705-4.174-1.21-7.162
	c-5.469,8.941-11.098,16.374-14.751,24.675c-2.938,6.677-6.375,11.899-13.132,14.678c-2.767,1.138-5.492,2.429-8.342,3.306
	c-19.239,5.92-32.374,17.26-34.162,38.216c-12.23-10.618-24.371-21.158-36.901-32.036c12.623-0.997,20.943-7.887,24.601-20.134
	c2.874-9.624,1.132-18.664-4.091-27.24c1.341,9.349,2.021,18.594-2.381,27.388c-4.786,9.56-13.273,12.395-23.49,12.947
	c-0.846-2.771-1.679-5.591-2.568-8.392c-6.853-21.58-26.985-34.606-48.926-28.728c-1.657,0.444-4.3-1.001-5.865-2.309
	c-8.294-6.934-15.933-14.746-24.702-20.984c-6.66-4.738-14.519-7.937-22.127-11.153c-6.52-2.755-12.597-5.775-17.583-11.001
	c-4.124-4.323-9.448-7.602-13.119-12.232c-4.497-5.672-7.827-12.269-11.66-18.467c-2.495-4.035-5.013-8.057-7.468-12.117
	c-0.855-1.413-2.295-2.97-2.202-4.378c0.552-8.353-3.869-14.149-10.319-19.785c4.879-2.434,9.047-4.702,13.4-6.53
	c0.911-0.383,2.896,0.501,3.722,1.406c11.47,12.575,25.809,20.854,41.041,27.875c1.22,0.562,2.022,2.03,3.282,3.354
	c0.802,0,2.698-0.54,4.065,0.082c17.772,8.09,35.435,16.534,48.828,31.297c4.734,5.218,8.186,11.6,12.205,17.464
	c0.513,0.748,0.912,1.574,2.006,3.485c-0.17-15.336-5.212-27.443-15.618-36.522c-8.476-7.396-18.232-13.31-27.288-20.06
	c-7.312-5.45-15.044-10.543-21.477-16.917c-8.792-8.712-10.451-19.648-6.464-31.455c1.417-4.197,2.305-8.574,3.141-12.942
	c-10.425,13.355-18.833,17.298-29.53,13.233c1.501-3.073,3.059-6.098,4.466-9.191c1.414-3.108,2.678-6.284,3.395-9.785
	c-2.339,2.506-4.811,4.902-6.979,7.548c-2.217,2.705-4.137,5.654-5.936,8.149c-14.843-10.264-17.802-21.345-9.649-34.742
	c5.15-8.463,11.282-16.462,17.892-23.847c3.122-3.487,8.208-5.532,12.758-7.336c4.485-1.777,8.938-0.364,12.333,3.195
	c3.173,3.327,3.338,7.108,0.842,10.936c-0.628,0.963-1.435,1.897-2.363,2.562c-9.319,6.683-10.513,14.899-5.352,24.849
	c3.003,5.789,3.441,12.047,0.426,18.261c4.81-4.508,5.811-10.061,4.324-15.96c-2.196-8.712-0.462-15.36,7.517-20.631
	c7.124-4.706,11.093-11.893,8.745-20.686c-2.371-8.881-9.358-12.881-18.012-14.352c-0.492-0.084-0.972-0.236-1.464-0.325
	c-2.385-0.432-5.812-0.038-6.929-1.46c-1.946-2.479-2.763-6.007-3.517-9.221c-0.981-4.178,0.825-5.929,5.302-4.796
	c6.435,1.629,12.686,3.974,19.1,5.705c3.654,0.986,7.483,1.902,11.216,1.837c2.938-0.051,6.619-0.621,7.4-5.797
	c-5.388,5.365-10.934,4.516-16.668,2.745c-6.659-2.057-13.315-4.165-20.07-5.862c-7.197-1.808-9.424,0.66-7.393,7.734
	c0.779,2.715,1.698,5.39,2.504,7.927c-6.92,3.019-13.802,6.022-20.543,8.963c-0.089-4.785,3.28-7.913,12.893-11.551
	c-9.045-1.396-18.915,5.563-23.076,14.784c-3.366,7.458-8.152,14.275-12.472,21.657c-5.943-13.099-11.415-25.16-16.888-37.221
	c-0.626,0.237-1.252,0.473-1.878,0.71c1.042,2.71,1.618,5.737,3.207,8.074c6.256,9.199,7.679,19.527,6.791,30.112
	c-1.602,19.092,0.461,37.247,11.679,53.894c-4.21,1.663-8.031,3.173-11.884,4.696c-4.43-5.719-5.468-12.04-5.982-18.538
	c-0.315-3.984-0.266-8.058-1.149-11.916c-0.752-3.285-1.897-6.974-4.095-9.348c-8.47-9.144-11.303-19.589-7.959-31.406
	c3.833-13.545,8.227-26.932,12.432-40.37c1.333-4.259,4.322-6.898,8.478-8.473c6.839-2.591,13.633-5.303,20.405-8.066
	c4.324-1.764,22.47-5.093,27.14-4.936c8.546,0.286,16.992,0.089,24.636-4.629c10.033-6.192,14.382-21.474,7.024-28.496
	c-0.313,3.042,0.02,6.53-1.159,9.397c-1.186,2.884-3.876,5.149-6.196,8.046c-1.025-6.047-1.812-10.692-2.6-15.337
	c-0.581,0.003-1.162,0.006-1.743,0.01c-0.975,7.397-5.386,11.902-11.858,14.657c-4.851,2.065-9.359,2.47-14.087-0.965
	c-4.928-3.579-9.345-3.033-14.655,1.06c-6.363,4.904-12.844,9.457-21.758,10.448c7.753-14.525,18.94-25.698,30.154-37.143
	c2.563,8.361-0.27,13.849-11.554,23.001c12.353-2.888,18.626-10.456,18.35-23.164c-0.095-4.36,1.217-7.039,4.669-9.531
	c10.713-7.736,21.96-14.384,34.837-18.755c0.263,0.587,0.595,1.094,0.722,1.649c2.962,12.932,10.752,22.683,20.49,31.152
	c3.017,2.623,5.961,5.341,9.101,7.81c13.602,10.692,15.985,24.521,11.437,40.324c-2.847,9.893-5.771,19.764-8.586,29.665
	c-0.532,1.87-0.715,3.838-1.21,6.604c-9.593-11.867-15.043-25.007-16.774-39.175c-1.704-13.944-1.442-28.128-1.945-39.932
	c-4.053,25.809-2.724,52.935,14.028,77.468c2.508,3.674,4.083,7.243,3.962,11.896c-0.54,20.608,11.485,34.326,26.148,46.476
	c6.412,5.313,13.05,10.382,19.149,16.032c2.063,1.911,3.598,5.157,3.983,7.983c1.836,13.483-2.117,26.404-4.382,39.504
	c-1.924,11.134,0.11,21.542,7.324,30.582c0.929,1.165,2.035,2.196,3.117,3.227c0.412,0.392,0.989,0.611,1.814,0.659
	c-7.369-7.947-11.293-17.165-10.737-27.925c0.265-5.124,1.26-10.214,1.978-15.312c1.517-10.772,3.068-21.539,4.542-31.86
	c30.296,26.491,45.088,59.178,32.744,101.001c7.822-22.998,7.964-45.622-2.89-67.666c-6.797-13.805-17.109-24.911-28.087-35.466
	c-1.744-1.677-3.765-3.66-4.351-5.85c-4.029-15.068-12.778-27.303-22.615-38.949c-7.939-9.398-15.851-18.819-23.656-28.088
	c1.389-2.317,2.463-4.11,3.538-5.904l-0.177,0.17c5.945-7.201,8.217-15.786,8.843-24.815c0.35-5.039,0.83-9.486,4.455-13.721
	c4.601-5.376,5.12-12.66,3.206-19.056c-3.493-11.671-2.958-21.665,8.225-29.021c0.796,1.728,2.249,3.97,2.881,6.423
	c1.948,7.557,6.771,12.892,12.894,17.17c10.435,7.291,18.942,16.149,24.274,27.887c1.068,2.35,2.936,4.336,4.753,6.946
	c2.718-2.883,5.071-5.379,7.424-7.875c0.505,0.099,1.01,0.199,1.514,0.298c-10.453,12.13-5.975,25.611-5.138,38.886
	c0.96,15.22,10.685,24.4,21.5,34.026c5.19-8.256,17.489-9.812,17.67-22.161c-3.763,0.697-7.446,1.379-12.205,2.26
	c1.725-1.086,2.496-1.571,3.502-2.203c-2.72-2.133-5.306-4.161-8.339-6.54c9.295,0,17.686,0,26.077,0c8.413,0,16.826,0,26.326,0
	c-3.252,2.31-5.869,4.17-8.672,6.161c1.37,0.861,2.719,1.709,4.069,2.556c-0.058,0.242-0.116,0.483-0.174,0.725
	c-4.131-0.948-8.262-1.897-12.643-2.903c-0.72,11.782,9.618,15.267,15.869,22.294c11.828-9.472,22.506-19.168,22.717-35.787
	c0.052-4.134,0.809-8.283,1.51-12.38c1.281-7.486,0.58-14.559-3.594-21.095c-0.749-1.172-1.277-2.485-1.271-4.132
	c2.334,2.225,4.669,4.451,7.519,7.168c2.26-3.267,4.623-5.89,6.089-8.943c5.448-11.352,14.596-19.287,24.174-26.837
	c11.096-8.745,15.47-21.038,16.535-34.23c1.054-13.056,0.23-26.264,0.23-39.601c-3.381,0.339-6.965,0.782-10.563,1.04
	c-7.769,0.557-13.434-2.475-17.046-9.598c-5.142-10.141-6.348-20.717-3.219-31.497c1.957-6.741,3.261-14.072,9.46-18.807
	c0.493-0.377,1.015-1.053,1.061-1.627c1.059-13.139,10.345-21.696,17.937-30.864c14.707-17.759,33.527-30.223,54.651-39.277
	c1.587-0.68,3.137-1.444,4.705-2.17c-0.163-0.366-0.326-0.733-0.488-1.099c-6.89,3.108-13.937,5.91-20.642,9.376
	c-34.253,17.702-59.993,43.271-73.336,80.149c-0.446,1.234-0.801,2.776-1.726,3.518c-8.806,7.073-11.322,17.367-13.993,27.47
	c-1.006,3.804-2.517,6.335-6.087,8.333c-12.487,6.987-24.785,14.317-37.051,21.689c-2.314,1.391-3.955,1.391-6.258,0.012
	c-13.128-7.863-26.389-15.504-39.505-23.386c-1.155-0.694-1.816-2.506-2.322-3.934c-2.655-7.486-3.515-16.328-8.147-22.225
	c-7.151-9.104-10.993-19.55-16.226-29.431c-13.858-26.168-35.263-44.865-60.104-59.898c-5.168-3.128-8.297-6.725-9.698-12.306
	c-1.122-4.468-2.375-8.904-3.913-14.631c17.375,9.959,33.74,19.011,49.767,28.624c13.764,8.256,26.485,17.971,36.612,30.623
	c3.725,4.654,6.975,9.688,11.415,14.093c-3.49-6.586-6.605-13.405-10.55-19.706c-7.39-11.804-7.32-19.607,1.13-30.867
	c0.1-0.133,0.176-0.293,0.3-0.399c10.034-8.612,9.784-18.773,5.667-30.345c-2.169-6.095-2.832-13.03-2.747-19.568
	c0.3-23.096-11.164-36.036-34.346-37.775c-7.761-0.582-15.529-1.055-23.394-2.123c6.72-5.658,13.479-11.402,22.734-10.707
	c10.237,0.769,20.541,1.847,30.556,4.002c8.153,1.754,14.642,6.979,19.182,14.242c2.46,3.936,3.063,7.831,0.867,12.228
	c-6.454,12.921-6.304,25.889,0.003,38.907c1.726,3.563,3.038,7.379,4.097,11.201c2.104,7.6,0.708,14.783-4.719,20.474
	c-11.379,11.932-12.632,25.501-8.584,40.776c3.735,14.092,6.649,28.422,9.345,42.756c0.871,4.634,0.203,9.645-0.322,14.422
	c-0.346,3.149,0.635,4.776,3.242,6.383c10.055,6.202,19.91,12.73,29.982,18.903c1.355,0.831,4.007,1.091,5.25,0.317
	c10.315-6.418,20.493-13.063,30.56-19.866c1.335-0.902,2.71-3.173,2.548-4.643c-1.601-14.551,1.398-28.495,5.061-42.382
	c1.651-6.258,3.629-12.452,4.888-18.788c2.437-12.266-1.229-22.347-11.73-29.593c-7.808-5.388-15.919-10.384-23.376-16.219
	c-10.9-8.53-17.675-19.747-19.316-33.727c-1.573-13.402,4.529-23.107,14.995-30.586c2.7-1.929,5.992-3.122,8.429-5.303
	c2.74-2.452,4.872-5.601,7.175-8.52c3.156-4,5.842-8.455,9.433-12.003c3.881-3.834,8.78-6.615,12.875-10.26
	c19.506-17.365,20.489-41.677,2.612-60.832c-9.791-10.49-21.753-18.014-34.123-24.98c-1.438-0.81-2.913-1.557-4.201-2.934
	c0.907,0.267,1.846,0.456,2.717,0.811c15.241,6.222,29.28,14.354,40.913,26.189c17.418,17.721,19.782,40.7,6.183,61.449
	c-1.9,2.9-1.924,5.013-0.533,8.151c1.708,3.854,2.301,8.203,3.47,12.702c11.058-7.726,19.726-17.916,23.893-31.297
	c4.175-13.406,3.046-26.896-1.425-40.181c5.902,9.603,8.278,20.138,8.22,31.193c-0.104,19.905-7.182,36.359-24.393,47.561
	c-0.508,0.331-0.829,0.951-1.237,1.436C413.891,138.755,412.961,139.352,412.031,139.949z M592.673,200.658
	c-0.356-0.233-0.713-0.466-1.069-0.699c-1.244,2.093-2.499,4.179-3.73,6.279c-7.245,12.359-16.548,22.866-27.921,31.608
	c-18.943,14.56-39.943,25.046-62.647,32.309c-6.493,2.077-13.987,2.971-16.027,11.358c0-1.437,0-2.875,0-4.628
	c-1.175,0.059-2.196-0.098-3.075,0.184c-13.126,4.225-26.52,7.82-39.218,13.087c-5.778,2.397-11.084,7.431-14.982,12.513
	c-5.926,7.726-4.212,18.912,2.879,25.165c-0.623-1.767-1.142-2.959-1.467-4.203c-2.876-11.018,4.01-19.769,15.248-19.335
	c3.655,0.141,7.37,0.148,10.932,0.852c2.782,0.55,5.37,2.084,8.045,3.181c-0.198,0.475-0.396,0.951-0.594,1.426
	c-4.664-3.622-9.848-4.602-16.517-3.532c2.59,2.016,4.47,3.301,6.141,4.817c3.591,3.259,4.271,7.779,1.734,10.556
	c-2.511,2.748-7.304,2.502-10.431-1.409c-2.313-2.893-3.482-6.701-5.129-10.039c-6.878,5.478-6.478,12.481,1.402,16.746
	c4.566,2.471,9.418,3.255,14.436,1.364c8.422-3.174,14.974-8.58,19.184-16.588c4.832-9.192,3.863-11.608-5.973-14.778
	c-3.83-1.234-7.947-3.242-11.67-2.779c-6.403,0.796-12.599,3.252-19.578,5.207c6.092-4.543,12.264-7.959,19.24-7.091
	c8.987,1.118,17.768,3.794,26.713,5.377c4.128,0.73,8.863,1.7,12.579,0.413c12.362-4.282,24.393-9.523,36.533-14.44
	c1.599-0.647,3.094-1.55,4.637-2.334c0.434,0.271,0.869,0.543,1.303,0.814c-0.883,3.733-1.767,7.466-2.65,11.199
	c3.422-4.167,6.118-8.847,8.99-13.417c1.612-2.565,3.036-5.595,5.36-7.311C570.023,254.312,583.767,229.079,592.673,200.658z
	 M310.738,577.186c0-1.972,0.174-3.962-0.026-5.913c-3.044-29.639-6.852-59.15-14.127-88.123c-1.48-5.896-3.55-12.282-2.572-17.964
	c0.833-4.841,0.197-8.104-2.205-11.804c-1.532-2.359-2.899-4.881-3.941-7.49c-3.687-9.232-11.276-14.739-19.204-20.172
	c2.358,6.754,4.784,13.474,8.169,19.67c3.42,6.26,7.847,11.963,11.715,17.986c1.411,2.198,2.481,4.615,3.707,6.931
	c-0.43,0.242-0.86,0.484-1.289,0.726c-4.352-5.808-8.956-11.448-12.985-17.472c-3.947-5.902-7.826-11.958-10.782-18.384
	c-2.892-6.286-4.583-13.125-6.801-19.721c-0.914,0.3-1.829,0.6-2.743,0.901c3.219,11.452,6.133,23.004,9.827,34.3
	c1.235,3.777,3.967,7.409,6.865,10.235c9.437,9.205,15.522,20.297,19.562,32.633C302.801,520.691,306.708,548.849,310.738,577.186z
	 M429.59,424.464c-7.324,6.364-14.978,12.202-18.77,21.56c-1.176,2.902-2.895,5.643-4.714,8.211c-2.35,3.318-4.9,6.334-1.46,10.487
	c0.575,0.694,0.356,2.28,0.122,3.373c-4.102,19.166-8.386,38.293-12.361,57.485c-1.912,9.231-3.265,18.577-4.872,27.871
	c1.05-0.381,1.212-0.936,1.361-1.495c4.993-18.772,9.77-37.606,15.058-56.294c3.096-10.942,7.179-21.848,15.69-29.7
	c10.04-9.263,14.27-20.991,17.174-33.606c1.275-5.538,2.24-11.148,3.346-16.726c-0.52-0.155-1.039-0.311-1.559-0.466
	c-3.964,9.854-7.006,20.223-12.148,29.417c-5.196,9.292-12.473,17.42-18.839,26.058c-0.481-0.281-0.963-0.563-1.444-0.844
	C413.933,454.73,427.496,442.531,429.59,424.464z M253.493,634.421c0.138-0.59,0.312-1.173,0.408-1.77
	c2.968-18.616-4.468-32.743-19.055-43.649c-7.19-5.375-14.733-10.282-21.853-15.745c-6.892-5.287-12.01-11.947-13.586-20.81
	c-1.628-9.158,1.247-17.423,5.189-25.42c1.93-3.916,4.197-7.667,6.311-11.493c-7.79,7.576-13.985,16.145-16.872,26.611
	c-3.656,13.253-0.539,24.828,10.061,33.751c5.314,4.473,11.484,7.911,17.02,12.141c7.242,5.535,14.683,10.928,21.227,17.226
	C250.418,613.034,252.909,623.431,253.493,634.421z M418.227,572.908c0.505-0.271,1.011-0.541,1.516-0.812
	c-0.287-0.542-0.569-1.086-0.861-1.625c-7.44-13.717-2.881-29.799,10.759-37.352c3.618-2.004,7.618-3.307,11.31-5.192
	c5.602-2.86,11.576-5.305,16.524-9.067c11.401-8.666,13.813-26.417,5.423-38.267c0.523,1.976,0.87,3.392,1.273,4.792
	c3.6,12.502,0.179,22.755-10.629,29.983c-4.945,3.307-10.467,5.752-15.722,8.597c-4.38,2.371-8.932,4.48-13.084,7.2
	c-5.619,3.682-9.594,8.938-10.765,15.609c-0.844,4.812-2.88,8.387-6.316,11.867c-9.875,10.001-10.533,20.789-2.705,32.442
	c1.477,2.199,2.994,4.447,3.986,6.879c2.327,5.701,0.793,10.834-4.049,14.65c-2.218,1.748-4.639,3.274-6.676,5.208
	c-3.303,3.136-4.432,6.982-2.688,11.487c-0.328-6.144,3.133-9.815,7.798-13c9.327-6.366,10.881-13.179,5.584-23.157
	c-0.779-1.467-1.699-2.86-2.581-4.271c-7.251-11.609-5.105-22.526,5.583-30.492C413.977,563.141,416.102,568.025,418.227,572.908z
	 M440.54,333.966c-0.043,0.515-0.087,1.03-0.13,1.545c3.015,0,6.136,0.51,9.028-0.087c13.58-2.801,23.645-10.962,31.538-21.932
	c4.575-6.358,2.298-10.677-5.514-11.581C470.327,319.676,458.751,330.381,440.54,333.966z M528.283,311.9
	c0.304,0.295,0.609,0.59,0.913,0.885c2.698-1.892,5.583-3.573,8.041-5.738c2.307-2.034,4.162-4.581,6.216-6.902
	c-0.488-0.416-0.975-0.832-1.463-1.248C537.421,303.231,532.852,307.565,528.283,311.9z"/>
<path d="M208.513,323.746c-0.897,0.528-2.112,0.84-2.64,1.618c-4.73,6.972-9.273,14.069-14.025,21.026
	c-1.309,1.917-2.836,3.976-4.765,5.13c-11.981,7.17-24.18,13.977-36.146,21.171c-5.077,3.053-9.286,1.858-11.25-3.888
	c-0.225-0.66-0.304-1.37-0.45-2.056c-0.527,0.109-1.054,0.219-1.581,0.328c0.643,2.886,0.966,5.895,2.013,8.626
	c1.176,3.069,0.758,5.223-1.676,7.481c-15.035,13.949-27.116,30.163-36.856,48.194c-1,1.851-3.006,3.568-4.951,4.437
	c-19.317,8.632-35.656,21.313-50.152,36.516c-1.932,2.026-3.401,4.51-4.987,6.847c-3.341,4.923-6.533,9.95-9.942,14.824
	c-5.24,7.491-4.982,15.493,1.146,21.228c-4.573-7.523-3.424-14.458,2.133-21.523c0.401,5.503,0.593,10.503,1.178,15.458
	c0.5,4.229,2.188,7.791,6.072,10.319c2.868,1.867,5.226,4.702,2.259,8.328c-2.89,3.531-6.083,2.607-9.13,0.035
	c-8.327-7.029-14.719-15.285-14.039-26.807c0.763-12.915,1.14-26.005,3.648-38.629c3.928-19.773,25.946-35.376,46.544-34.599
	c1.638,0.062,3.275,0.151,5.974,0.277c-2.027-1.935-3.403-3.234-4.763-4.55c-5.416-5.239-5.877-10.33-1.285-16.373
	c5.889-7.75,14.289-11.138,23.438-13.096c2.274-0.487,4.639-0.61,6.867-1.239c1.71-0.483,3.271-1.497,4.72-2.626
	c-32.892,0.138-53.448-30.685-52.055-53.108c0.534-8.6,3.277-16.275,9.051-22.726c2.329-2.602,4.85-5.042,7.388-7.445
	c4.427-4.19,7.07-9.299,5.15-15.214c-2.079-6.406-7.043-10.501-13.797-11.682c-23.703-4.145-32.737-26.793-17.298-45.375
	c7.929-9.543,8.52-18.453,2.948-28.801c-2.474-4.595-4.446-9.46-6.647-14.202c0.459-0.245,0.917-0.49,1.376-0.735
	c4.724,7.779,9.971,15.298,14.022,23.413c3.872,7.757,3.077,15.811-1.867,23.242c-1.931,2.903-3.913,5.827-5.381,8.972
	c-3.991,8.552-0.696,16.391,8.155,19.682c3.728,1.386,7.692,2.183,11.334,3.747c14.412,6.191,19.669,17.589,14.593,32.463
	c-1.579,4.628-4.218,9.045-7.074,13.06c-10.71,15.055-10.487,28.127,1.071,39.513c12.276,12.094,31.772,13.789,44.761,3.814
	c7.369-5.66,12.027-13.302,15.056-21.915c0.479-1.362-0.259-4.006-1.372-4.938c-7.875-6.589-21.101-6.56-28.888-0.247
	c3.946-10.388,14.438-13.111,35.452-8.711c2.022-9.114,4.198-18.231,6.017-27.419c0.902-4.556,0.822-9.311,1.784-13.849
	c0.853-4.021-0.851-6.805-3.886-8.233c-1.672-0.787-4.871-0.127-6.478,1.082c-4.882,3.671-9.698,7.579-13.842,12.043
	c-5.074,5.465-7.467,12.086-5.123,19.782c-4.666-5.022-4.191-10.915-2.728-16.783c2.299-9.222,8.237-16.217,14.726-22.785
	c1.27-1.286,2.762-2.353,3.464-2.943c-8.217-13.78-16.49-26.613-23.691-40.023c-7.249-13.498-11.142-28.178-11.923-43.631
	c19.185,37.126,47.788,63.792,86.542,79.411c-7.935-4.849-15.716-9.975-23.845-14.475c-9.23-5.11-14.049-12.956-17.04-22.806
	c-7.705-25.378-10.4-51.123-7.203-77.468c0.079-0.65,0.01-1.319,0.01-2.082c-6.775,18.369-5.978,52.382,2.231,83.301
	c-8.747-10.931-19.786-19.198-20.703-33.195c-1.94-29.624,1.663-58.431,14.484-85.675c10.219-21.715,24.505-40.324,42-56.596
	c1.22-1.135,2.435-2.275,3.629-3.436c0.221-0.215,0.331-0.544,0.13-1.128c-19.046,15.649-34.722,34.163-46.889,55.689
	c-12.301,21.764-19.979,44.887-21.818,70.213c-0.943-5.745-2.433-11.461-2.738-17.239c-1.81-34.349,9.999-64.263,31.87-89.99
	c37.429-44.029,85.667-65.176,143.355-64.591c8.588,0.087,17.161,1.612,25.244,2.422c-15.142,4.067-30.91,7.111-45.813,12.535
	c-39.343,14.32-70.721,38.74-90.853,76.187c-8.781,16.334-12.666,33.898-11.826,52.435c0.102,2.247,0.65,4.694,1.732,6.636
	c3.149,5.653,6.014,11.681,10.242,16.453c3.95,4.457,3.59,7.845,1.887,13.08c-8.93,27.445-6.167,53.071,14.625,74.635
	c11.86,12.3,27.209,18.876,43.471,23.329c5.252,1.438,10.595,2.544,17.316,4.139c-5.607-16.262-10.811-31.357-16.016-46.452
	c0.192-0.224,0.384-0.448,0.576-0.673c6.04,5.932,12.443,11.545,18.015,17.888c5.255,5.982,9.86,12.583,14.275,19.229
	c1.478,2.225,1.336,5.476,2.224,8.163c0.536,1.623,1.393,3.266,2.507,4.552c12.065,13.919,14.921,35.535,5.529,51.154
	c-4.816,8.008-10.855,9.946-22.73,7.775c-1.434-0.262-2.863-0.55-4.773-0.918c0,10.044,0.333,19.674-0.131,29.266
	c-0.26,5.369-1.489,10.775-2.976,15.966c-0.721,2.517-3.037,4.576-4.631,6.843c-0.49-0.098-0.98-0.195-1.47-0.293
	c0-11.635,0-23.269,0-34.904c-0.608-0.059-1.215-0.119-1.823-0.178c-0.634,3.313-1.853,6.637-1.785,9.936
	c0.171,8.295,0.957,16.577,1.413,24.868c0.097,1.759,0.221,3.669-0.329,5.284c-1.851,5.44-4.001,10.779-5.678,15.209
	c-6.784-6.173-14.308-12.898-21.697-19.769c-11.263-10.472-19.367-22.426-17.887-38.826c0.74-8.199,3.669-15.484,8.702-21.93
	c2.534-3.245,5.245-6.35,7.876-9.519C209.105,324.387,208.809,324.066,208.513,323.746z M105.556,200.172
	c0.133,0.773,0.183,1.418,0.357,2.028c14.948,52.392,50.998,82.489,102.175,96.463c2.403,0.656,5.315,0.23,7.814-0.397
	c6.919-1.735,13.649-4.345,20.632-5.679c9.019-1.723,18.051-1.721,25.598,5.083c-2.158-0.674-4.316-1.349-6.014-1.88
	c-1.943,1.674-3.595,3.096-4.179,3.599c-1.38-2.005-1.894-3.605-2.955-4.156c-7.42-3.857-13.298,1.529-19.73,3.573
	c-3.202,1.018-3.92,3.305-2.861,6.317c3.83,10.89,10.509,19.239,21.616,23.256c6.198,2.242,11.926,0.398,16.647-3.85
	c5.361-4.824,3.852-12.682-1.878-14.655c-1.394,3.341-2.307,6.938-4.253,9.843c-2.508,3.744-7.189,4.237-10.047,1.796
	c-2.742-2.342-3.092-6.658,0.153-9.747c3.014-2.869,6.926-4.794,9.773-6.689c-0.287-0.045-1.783-0.281-4.279-0.674
	c6.717-0.247,13.422-2.476,16.402,4.55c2.142,5.05,2.736,10.755,3.877,15.562c3.527-4.783,4.795-11.005,1.941-17.979
	c-3.118-7.62-8.29-13.706-15.87-16.423c-14.028-5.028-28.41-9.071-42.654-13.494c-0.212-0.066-0.544,0.252-1.2,0.581
	c0.242,2.064,0.501,4.274,0.76,6.484c-1.919-10.508-10.632-12.256-18.836-14.723c-2.86-0.86-5.654-1.948-8.455-2.996
	c-24.556-9.183-47.475-21.221-65.579-40.594C117.446,217.811,111.952,208.782,105.556,200.172z M258.29,335.758
	c0.122-0.505,0.244-1.01,0.367-1.515c-18.99-3.365-30.527-14.883-36.204-32.711c-7.989,1.782-9.806,5.561-5.33,11.746
	c7.291,10.074,16.457,17.892,28.725,21.146C249.833,335.48,254.134,335.347,258.29,335.758z"/>
<path d="M559.574,627.881c-0.944,6.495-5.533,10.632-9.49,15.334c-11.17,13.272-26.301,18.985-42.266,23.809
	c-18.45,5.574-35.714,13.481-49.392,27.917c-3.131,3.304-8.014,5.366-12.468,6.912c-9.873,3.425-16.628,9.805-19.824,19.574
	c-3.342,10.214-9.717,16.77-19.778,20.823c-16.395,6.606-30.951,16.22-42.359,30.009c-8.521,10.299-13.767,21.802-12.182,35.606
	c0.054,0.468-0.082,1.001-0.268,1.445c-0.355,0.849-0.811,1.656-1.515,3.06c-4.487-6.915-8.61-13.288-12.757-19.646
	c-0.818-1.253-1.849-2.379-2.575-3.679c-1.957-3.502-5.319-7.03-5.402-10.611c-0.234-10.059,3.555-19.562,8.512-24.846
	c-0.457,7.212-0.327,13.899,4.765,19.99c0-3.917-0.348-7.226,0.062-10.438c1.481-11.582,12.798-17.338,23.375-12.057
	c3.598,1.796,8.906-2.925,9.531-8.797c-2.197,0.841-4.255,1.628-6.313,2.416c-0.146-0.186-0.292-0.371-0.438-0.557
	c0.762-0.609,1.468-1.309,2.294-1.814c6.127-3.743,10.586-8.9,14.078-15.188c1.972-3.552,4.691-6.858,7.662-9.651
	c5.594-5.259,10.55-10.665,10.469-19.029c1.774,5.633,0.326,10.436-3.626,14.46c-7.386,7.522-10.631,16.588-10.83,28.19
	c5.493-4.762,11.882-6.834,13.024-14.589c0.539-3.661,3.078-7.028,4.71-10.528c0.435,0.139,0.87,0.279,1.305,0.418
	c-0.182,3.547-0.365,7.094-0.599,11.639c1.2-1.463,1.835-2.233,2.465-3.008c1.742-2.141,4.537-4.081,4.994-6.468
	c0.848-4.428,1.193-9.321,0.172-13.648c-1.389-5.886-4.256-11.422-6.688-17.613c1.597-0.413,3.427-0.938,5.281-1.357
	c11.638-2.629,19.656-9.361,23.467-20.787c1.366-4.095,2.765-8.203,3.732-12.401c5.4-23.437,20.235-38.718,41.504-48.589
	c8.14-3.778,16.394-7.384,24.222-11.74c18.346-10.207,31.964-24.63,38.236-46.065c3.279,5.49,6.136,10.273,8.985,15.043
	c-0.173,0.323-0.29,0.818-0.475,0.844c-8.202,1.183-12.164,6.703-15.809,13.63c-4.264,8.103-11.821,13.5-19.721,17.941
	c-12.321,6.926-25.093,13.079-37.192,20.36c-7.197,4.331-13.885,9.751-20.052,15.487c-7.485,6.961-10.894,16.111-11.283,26.401
	c-0.188,4.982-0.603,9.984-1.346,14.912c-1.901,12.605-8.927,19.399-21.601,21.165c-3.562,0.496-7.152,0.79-11.907,1.304
	c6.366,4.846,12.545,5.497,18.947,3.995c12.909-3.028,21.313-11.583,24.24-24.022c5.596-23.779,20.87-39.136,41.1-50.697
	c5.916-3.381,12.13-6.24,18.099-9.533c3.595-1.983,6.694-2.156,9.858,0.847c0.917,0.87,2.592,0.941,3.902,1.397
	c1.835,7.059,8.862,8.447,13.539,12.402c-4.539-4.108-9.078-8.216-13.617-12.323c-2.044-1.618-4.088-3.237-6.855-5.427
	c17.696-8.517,33.542-18.37,46.701-32.063c4.767,2.238,9.21,4.323,13.653,6.409c0.347,0.532,0.694,1.064,1.041,1.596
	c-1.655,1.08-3.43,2.015-4.942,3.269c-4.323,3.586-6.686,7.867-6.054,13.894c0.63,6.012-3.049,8.632-9,8.469
	c-5-0.136-10.032,0.862-15.05,1.359c0,0,0.148-0.132,0.148-0.132c-0.435,1.942-1.884,4.679-1.106,5.671
	c2.011,2.566,5.004,4.362,7.605,6.465C557.507,625.984,558.54,626.933,559.574,627.881z M519.584,616.319
	c-0.423-0.165-0.845-0.331-1.268-0.496c-2.189,5.637-4.378,11.273-6.566,16.91c0.267,0.103,0.534,0.206,0.801,0.31
	C514.895,627.467,517.24,621.893,519.584,616.319z"/>
<path d="M668.206,484.633c1.572,7.494,3.111,13.744,4.157,20.075c1.604,9.705-6.265,22.553-15.849,25.997
	c1.365-3.732,2.673-7.306,4.318-11.801c-1.879,0.791-2.648,1.115-3.633,1.53c10.346-21.215,6.195-39.009-12.818-55.742
	c-3.123-2.749-6.27-5.534-9.718-7.834c-3.633-2.423-4.772-4.857-1.25-8.513c-14.505-11.622-29.46-22.473-43.058-34.818
	c-13.646-12.388-25.94-26.264-38.646-39.303c5.964-6.94,12.281-14.289,18.634-21.681c7.299,8.391,17.32,13.572,30.147,12.51
	c14.95-1.237,28.488-13.79,29.667-27.782c0.671-7.96-2.363-14.649-7.157-20.704c-5.377-6.791-9.345-14.081-9.502-23.076
	c-0.174-9.996,3.924-17.486,12.823-21.915c4.274-2.127,9.006-3.349,13.561-4.891c10.766-3.644,14.2-12.703,8.424-22.544
	c-1.43-2.437-3.114-4.725-4.698-7.071c-4.88-7.229-5.316-14.919-2.052-22.815c1.262-3.054,2.973-5.959,4.763-8.75
	c3.13-4.881,6.478-9.622,10.732-13.9c-2.495,5.475-4.791,11.051-7.527,16.402c-4.803,9.391-4.101,17.739,3.367,25.59
	c8.084,8.499,9.898,18.558,6.057,29.616c-3.018,8.689-8.708,14.361-18.053,15.953c-2.616,0.445-5.255,0.985-7.751,1.859
	c-11.986,4.2-14.797,17.01-5.751,25.885c0.475,0.466,0.974,0.911,1.492,1.329c19.257,15.512,18.391,37.222,8.657,54.379
	c-9.727,17.143-24.534,26.764-44.722,27.065c-0.414,0.006-0.824,0.24-1.236,0.367c-0.097,0.481-0.194,0.962-0.291,1.443
	c3.514,0.816,6.995,1.836,10.548,2.406c8.044,1.291,15.827,3.551,21.479,9.565c2.996,3.187,4.943,7.661,6.347,11.892
	c0.547,1.648-1.171,5.005-2.839,6.139c-1.431,0.973-5.114,0.699-6.252-0.497c-1.342-1.411-1.048-4.402-1.386-6.72
	c-0.062-0.422,0.244-0.897,0.441-1.546c-4.231,4.236-3.788,9.418,1.33,11.991c3.822,1.921,8.074,3.005,12.168,4.362
	c14.203,4.708,27.815,10.376,37.383,22.7c1.224,1.576,2.446,3.171,3.483,4.871c5.517,9.037,11.112,18.029,16.424,27.186
	c11.058,19.063,4.706,45.037-13.559,55.796c-1.934,1.139-4.105,1.878-6.442,2.456c8.85-10.594,14.876-21.866,11.566-36.091
	C680.054,497.708,676.033,490.704,668.206,484.633z"/>
<path d="M412.031,139.949c0.93-0.597,1.86-1.194,2.789-1.791c7.905-1.7,15.759-3.71,23.73-4.996
	c5.905-0.953,10.108-3.271,12.688-8.952c3.714-8.179,5.736-16.616,5.72-25.571c-0.005-2.616-0.001-5.233,0.488-7.886
	c6.214,10.28,4.466,21.282,2.779,32.417c9.994-10.433,13.873-23.266,14.273-37.269c0.397-13.897-1.954-27.401-7.274-40.331
	c9.87,15.554,14.014,32.575,12.838,50.885c-1.191,18.551-9.001,34.045-22.786,46.828c25.284,5.047,42.164-7.433,44.761-32.147
	c1.467-13.963-0.154-27.505-3.421-41.189c1.003,2.036,2.113,4.027,2.98,6.119c1.015,2.45,1.888,4.965,2.694,7.493
	c0.755,2.368,1.411,4.774,1.992,7.192c2.904,12.095,4.076,24.307,1.606,36.604c-2.429,12.088-9.425,20.697-20.68,25.802
	c-1.048,0.475-2.105,0.934-3.146,1.423c-0.121,0.057-0.172,0.264-0.256,0.401c12.827,8.206,25.978,5.509,38.74-7.945
	c-2.409,10.924-13.043,19.445-26.725,20.877c-13.948,1.459-26.369,6.292-37.461,14.943c-7.334,5.72-11.895,12.819-13.382,21.994
	c-0.239,1.478-0.84,3.39-1.935,4.152c-4.605,3.207-9.46,6.055-14.726,9.349c-7.375-17.845-7.912-35.463-0.375-52.926
	c2.825-6.545,9.129-9.445,16.077-10.413c2.626-0.366,5.31-0.312,7.968-0.447c-8.069-4.814-22.631-0.104-26.923,9.478
	c-2.467,5.508-3.629,11.696-4.736,17.696c-2.389,12.951,0.14,27.845,5.959,38.148c-5.701,6.239-11.388,12.462-17.529,19.183
	c-0.515-3.136-0.361-6.232-1.554-8.669c-2.977-6.084-6.548-11.879-9.916-17.77c-2.634-4.607-6.607-8.91-7.661-13.844
	c-1.304-6.105-1.274-12.957,0.065-19.074c3.257-14.887,10.057-28.136,21.663-38.507
	C411.689,140.909,411.811,140.374,412.031,139.949z"/>
<path d="M495.926,421.067c1.067-1.659,1.997-3.428,3.224-4.959c9.829-12.265,18.394-25.179,21.378-42.186
	c5.007,3.62,9.507,6.619,13.621,10.078c0.745,0.626,0.356,3.338-0.274,4.744c-4.375,9.752-8.175,19.565-8.058,30.549
	c0.126,11.798,3.629,22.495,9.333,32.666c0.98,1.748,1.776,4.031,1.565,5.948c-1.958,17.841,6.494,31.771,23.824,38.299
	c-6.065-4.378-8.535-10.396-8.668-17.944c5.057,0.338,9.356,0.946,9.328,7.141c2.221,0.299,4.184,0.564,6.137,0.822
	c-0.01-0.006-0.182-0.135-0.182-0.135c1.985,2.423,3.69,5.164,6.013,7.202c4.722,4.142,5.701,9.261,5.655,15.216
	c-0.146,18.764-7.221,35.898-20.136,46.794c-3.805-3.794-7.878-7.455-11.394-11.591c-1.158-1.362-1.44-4.034-1.157-5.965
	c2.147-14.622-0.36-28.015-9.037-40.28c-4.633-6.549-5.667-14.044-3.215-21.896c0.4-1.282,0.535-3.109-0.083-4.175
	c-6.132-10.566-9.908-21.714-9.887-34.124c0,5.965,0,11.93,0,19.19c-4.4-5.163-8.165-9.582-11.93-14.001
	c-0.23,0.14-0.459,0.28-0.689,0.42c1.483,2.252,2.942,4.52,4.455,6.752c4.761,7.026,9.635,13.979,14.241,21.105
	c0.97,1.501,1.31,3.608,1.376,5.456c0.181,5.087,0.063,10.184,0.063,15.744c-12.662-6.671-24.15-14.147-27.787-29.182
	c-1.963-8.114,0.233-15.1,6.084-21.003c1.403-1.416,2.924-2.787,3.989-4.438c0.661-1.025,0.565-2.538,0.809-3.831
	c-1.325,0.126-2.736,0.016-3.95,0.452c-1.036,0.372-1.847,1.371-2.757,2.093c0,0,0.155,0.074,0.155,0.074
	c-4.049-5.059-8.098-10.118-12.146-15.177L495.926,421.067z"/>
<path d="M384.131,262.403c-3.009-20.106-16.576-31.422-32.038-28.317c3.848,1.085,9.586,1.584,14.088,4.204
	c9.372,5.455,12.985,14.506,11.546,25.151c-1.451,10.738-8.208,17.245-17.946,21.436c-17.757,7.642-38.952-11.298-39.883-28.667
	c-1.266-23.599,22.784-40.865,44.752-31.524c10.416,4.429,19.288,11.078,21.556,23.028c0.908,4.784-0.205,9.951-0.398,14.944
	C385.249,262.573,384.69,262.488,384.131,262.403z M349.87,246.798c0.781-0.094,1.563-0.274,2.344-0.268
	c6.142,0.042,10.084,3.617,10.258,9.258c0.159,5.166-4.138,9.734-9.651,10.26c-6.144,0.585-11.557-3.316-13.869-9.914
	c-2.332-6.656-0.557-12.499,4.651-18.687c-8.071,4.906-10.858,13.416-8.044,21.547c2.899,8.378,9.853,13.097,17.909,11.94
	c5.456-0.784,8.907-4,10.648-9.256c1.722-5.197,0.228-9.63-3.344-13.259C357.819,245.418,354.048,244.254,349.87,246.798z
	 M355.493,278.482c-9.819,2.339-18.469,0.351-25.448-7.157c-6.954-7.48-8.068-16.572-6.456-26.304
	c-4.153,9.62-1.018,22.934,6.736,29.762C338.285,281.791,347.213,283.201,355.493,278.482z"/>
<path d="M354.606,803.546c5.916-16.727,15.705-30.689,30.395-40.665c7.941-5.393,16.475-9.994,25.046-14.353
	c8.963-4.558,17.635-9.096,23.752-17.616c2.651-3.692,6.612-6.554,10.303-9.367c11.64-8.87,23.439-17.531,35.166-26.288
	c7.218-5.39,15.028-8.522,24.402-6.475c0.649,2.771,1.312,5.606,1.981,8.465c6.085-1.918,8.145-4.709,5.775-8.208
	c3.864-0.646,7.513-1.256,11.163-1.866c0.266,0.505,0.532,1.01,0.798,1.515c-6.468,4.142-12.744,8.629-19.442,12.358
	c-16.412,9.135-33.202,17.6-49.492,26.94c-14.557,8.347-26.851,19.58-37.853,32.254c-1.198,1.38-3.429,1.986-5.29,2.637
	c-2.169,0.76-4.547,0.949-6.683,1.775c-19.564,7.562-35.943,19.355-48.184,36.582C355.874,802.035,355.22,802.776,354.606,803.546z"
	/>
<path d="M284.984,236.293c-5.09-5.677-10.702-11.935-16.525-18.43c7.091-13.284,6.879-27.812,4.541-42.366
	c-2.619-16.308-11.023-23.922-27.267-26.553c-10.991-1.78-21.538-0.775-31.805,3.479c-0.731,0.303-1.533,0.435-2.57,0.72
	c2.449-3.997,12.554-11.484,17.13-12.058c10.173-1.275,20.383-2.497,30.614-3.01c8.649-0.434,15.724,3.644,21.479,9.977
	c3.46,3.808,4.921,8.415,4.134,13.404c-1.858,11.784,0.312,22.818,5.38,33.454c4.107,8.62,4.435,16.944-0.407,25.734
	C287.073,225.393,286.434,231.23,284.984,236.293z"/>
<path d="M198.677,171.578c-1.683-4.315,0.633-7.047,3.925-9.072c11.548-7.106,24.257-9.581,37.658-8.99
	c2.485,0.11,4.997,0.312,7.428,0.805c14.087,2.858,20.117,9.009,22.401,23.494c2.019,12.801,1.461,25.436-4.132,38.044
	c-3.97-2.724-7.791-5.238-11.466-7.95c-0.787-0.581-1.483-1.87-1.488-2.838c-0.11-19.399-12.661-28.522-28.699-34.536
	c-7.739-2.902-15.749-4.266-23.714-0.437c-0.714,0.343-1.287,0.981-1.925,1.482L198.677,171.578z"/>
<path d="M538.256,685.828c2.514,4.047,4.411,7.101,6.308,10.155c0.413,0.098,0.827,0.197,1.24,0.295
	c-0.081-7.063,1.825-12.152,10.268-10.901c0.407,1.234,0.944,2.864,1.482,4.495c-0.72-8.061,8.153-7.638,10.991-12.526
	c1,1.431,2.018,2.888,3.036,4.346c0.198-5.902,2.227-9.936,7.622-11.907c3.148,4.096,1.073,5.765-2.295,9.14
	c-21.221,21.265-49.366,30.39-75.021,43.795c-18.382,9.605-37.559,17.698-55.877,27.415c-9.751,5.173-18.43,12.365-28.306,18.202
	c2.144-2.738,3.922-5.898,6.501-8.134c7.906-6.854,15.584-14.18,24.313-19.838c27.619-17.904,55.654-35.168,83.607-52.552
	C534.195,686.525,536.894,686.25,538.256,685.828z"/>
<path d="M185.486,180.81c16.785,10.75,18.346,13.267,20.315,32.413c0.015,0.142-0.127,0.3-0.274,0.626
	c-5.972-2.985-11.943-5.97-17.914-8.955c-0.136,0.273-0.272,0.546-0.407,0.819c5.734,3.279,11.571,6.396,17.141,9.933
	c1.771,1.125,3.38,3.161,4.127,5.134c4.516,11.932,8.761,23.966,13.297,36.519c-14.23-3.851-24.981-12.417-32.971-24.66
	C178.293,216.542,177.054,196.284,185.486,180.81z"/>
<path d="M260.878,108.172c-8.505-2.707-17.684-4.667-25.995-8.508c-11.288-5.216-16.736-17.067-14.989-28.98
	c1.399-9.535,10.149-14.854,19.821-10.583c-7.488-1.166-12.863,0.106-16.157,5.8c-3.486,6.027-2.738,12.317,0.089,18.215
	c4.466,9.32,11.926,14.67,22.186,17.092c11.264,2.659,22.132,0.373,33.151-0.732c17.373-1.743,33.529,0.995,47.139,12.884
	c6.48,5.66,6.437,8.032,0.107,13.85c-2.444,2.247-4.965,4.41-7.666,6.803c-9.536-8.801-20.646-16.02-34.425-18.415
	c-13.993-2.432-27.679-3.324-40.775,3.965c-10.821,6.023-20.417,2.275-28.125-6.367c8.997,6.561,18.662,5.913,28.27,2.554
	C249.727,113.579,255.627,110.497,260.878,108.172z M272.366,107.043c6.593,0,12.114-0.134,17.624,0.067
	c2.174,0.079,4.355,0.789,6.473,1.414c4.507,1.329,8.993,2.735,13.447,4.23c1.257,0.422,2.528,1.081,3.529,1.94
	c3.275,2.81,6.428,5.762,10.415,9.371C322.751,110.929,291.652,98.346,272.366,107.043z"/>
<path d="M316.947,377.396c-3.967-6.426-7.933-12.851-11.9-19.277c0.216-0.163,0.431-0.326,0.647-0.489
	c0.86,1.028,1.774,2.015,2.571,3.09c6.653,8.97,13.717,17.487,22.707,24.35c4.891,3.734,9.285,8.263,9.137,15.241
	c-0.016,0.741-0.203,1.478-0.483,3.403c-3.5-6.584-7.073-11.584-14.902-12.14c2.021,2.776,3.704,4.945,5.23,7.218
	c1.946,2.898,1.405,4.651-2.238,5.728c-6.893,2.038-12.898,5.37-15.789,13.265c-1.481-4.087-2.961-8.174-4.533-12.511
	c-11.427-1.711-21.888-5.833-29.193-17.388c13.054,10.342,20.054,11.072,29.927,7.542c-12.604-9.355-24.506-20.432-41.836-20.814
	c2.826-6.589,8.701-8.768,15.372-6.092c4.773,1.915,9.31,4.547,14.21,5.979c6.623,1.936,13.493,3.027,20.257,4.481
	C316.403,378.455,316.675,377.926,316.947,377.396z"/>
<path d="M84.861,526.281c-5.148-4.684-6.806-0.394-9.583,1.575c-0.579-1.596-1.105-3.046-1.972-5.437c0,2.698,0,4.475,0,6.675
	c-1.435,0.557-2.892,1.301-4.437,1.688c-3.86,0.968-6.101,0-7.816-4.278c-5.219-13.017-5.465-25.801-0.337-38.805
	c3.283-8.325,8.706-14.862,16.031-19.89c4.339-2.978,8.702-5.923,14.196-9.658C83.665,480.662,80.138,502.213,84.861,526.281z
	 M73.642,505.837c0.25-0.138,0.501-0.276,0.751-0.414c-0.675-1.307-1.542-2.553-1.984-3.935c-0.909-2.839-1.591-5.751-2.366-8.632
	c3.16-0.468,6.321-0.93,9.479-1.412c0.257-0.039,0.495-0.21,1.265-0.552c-1.961-0.601-3.539-1.536-5.055-1.445
	c-2.342,0.139-5.6,0.265-6.69,1.725c-1.072,1.435-0.393,4.691,0.365,6.85C70.374,500.783,72.191,503.246,73.642,505.837z"/>
<path d="M380.868,378.091c10.27-0.615,19.38-2.684,28.093-6.564c2.728-1.215,5.439-2.527,8.273-3.431
	c6.033-1.924,10.613,0.02,14.815,6.675c-17.562,0.167-30.279,10.255-43.244,19.474c9.281,5.135,16.584,3.783,30.508-5.813
	c-3.002,8.327-12.777,14.148-28.447,17.05c-1.423,3.907-2.803,7.695-4.661,12.795c-3.778-9.027-10.616-12.271-18.308-15.29
	c1.999-3.841,3.869-7.434,5.942-11.417c-8.192,0.442-11.485,6.316-14.82,13.017c-1.986-4.439-1.528-7.946,0.655-11.008
	c2.106-2.954,4.355-6.067,7.23-8.165c9.167-6.689,16.097-15.35,22.785-24.299c0.75-1.003,1.644-1.897,3.197-2.364
	C389.011,364.987,385.136,371.223,380.868,378.091z"/>
<path d="M640.51,516.591c-1.069,3.106-1.935,6.304-3.281,9.286c-0.851,1.887-2.906,5.069-3.573,4.867
	c-2.319-0.701-4.389-2.489-6.293-4.16c-0.689-0.605-0.644-2.046-0.611-1.928c-4.456,0-8.363,0-13.003,0
	c0.175-3.09,0.354-6.261,0.534-9.432c0.322-0.077,0.644-0.153,0.966-0.23c0.942,1.538,1.884,3.077,2.376,3.881
	c1.858-4.149,3.757-8.515,5.768-12.829c1.051-2.256,2.768-4.307,3.337-6.655c0.68-2.808,1.706-6.809,0.347-8.556
	c-2.483-3.193-6.475-1.715-10.874,0.136c11.556,0.45,12.329,1.872,7.02,11.319c-1.916,3.41-4.074,6.684-6.402,10.478
	c-2.453-17.091-4.807-33.492-7.111-49.544c15.911,4.49,29.452,21.612,30.205,39.069c0.207,4.809,0.352,9.621,0.525,14.432
	C640.44,516.725,640.51,516.591,640.51,516.591z"/>
<path d="M330.174,177.887c-5.618-10.027-4.932-20.321,0.446-29.834c3.621-6.404,9.011-11.838,13.816-17.532
	c3.106-3.681,6.888-6.812,9.842-10.599c11.313-14.499,8.396-31.894-7.035-41.718c-4.465-2.842-9.445-4.869-14.155-7.332
	c-13.202-6.904-19.797-19.46-17.434-33.777c0.91,16.742,12.108,25.043,25.45,31.666c6.1,3.028,12.34,5.889,18.064,9.536
	c17.572,11.196,19.172,30.449,3.79,44.469c-5.406,4.927-11.406,9.197-16.874,14.06C333.578,147.951,328.521,161.556,330.174,177.887
	z"/>
<path d="M542.869,390.264c4.456,4.74,9.174,9.166,13.175,14.167c4.712,5.889,4.963,12.705,1.22,19.149
	c-3.072,5.289-6.966,10.096-10.429,15.163c-2.987,4.371-5.879,8.808-8.712,13.064C527.928,434.603,526.504,409.594,542.869,390.264z
	"/>
<path d="M598.887,461.143c3.304,9.657,6.969,19.21,9.782,29.007c1.811,6.308,2.34,12.981,3.502,19.481
	c0.931,5.213-0.832,9.429-4.672,13.159c-4.988-6.45-10.259-12.594-14.687-19.296c-1.978-2.993-2.886-7.053-3.198-10.72
	c-0.951-11.208,2.099-21.593,7.312-31.37C597.58,461.317,598.233,461.23,598.887,461.143z"/>
<path d="M251.157,721.72c2.574-4.184,6.17-3.135,8.776-0.773c4.305,3.901,7.963,8.517,11.893,12.832
	c-0.342,0.484-0.683,0.968-1.025,1.452c-12.853,0.891-25.7,1.906-38.566,2.505c-1.461,0.068-3.382-1.946-4.458-3.447
	c-1.225-1.708-1.743-3.924-2.565-5.921c-2.205-5.352-1.104-9.556,4.384-11.02c4.342-1.158,9.354-0.542,13.926,0.182
	C246.121,717.942,248.434,720.156,251.157,721.72z"/>
<path d="M18.438,469.201c0,4.136,0.534,8.131-0.118,11.922c-1.153,6.704-2.835,13.337-4.638,19.905
	c-3.967,14.448,0.859,26.458,9.929,37.386c0.742,0.894,1.564,1.72,2.335,2.59c0.102,0.116,0.117,0.309,0.428,1.198
	C15.155,538.83,7.998,531.417,3.941,521.59C-4.546,501.028,0.849,483.571,18.438,469.201z"/>
<path d="M572.274,482.933c-1.713,1.049-3.427,2.097-5.13,3.152c0.01,0.006,0.183,0.136,0.192,0.141
	c-1.01-0.841-2.321-1.501-2.998-2.565c-2.972-4.674-6.986-7.406-12.565-6.996c-1.583-10.276,4.544-19.622,14.212-20.684
	c6.911-0.759,13.998,0.077,21.75,0.215c-1.679,6.783-2.58,11.961-6.895,16.077c-3.308,3.155-5.829,7.135-8.698,10.749
	C572.143,483.022,572.274,482.933,572.274,482.933z"/>
<path d="M117.916,669.685c7.181,1.325,7.336,6.79,7.076,12.505c0.494-0.017,0.989-0.034,1.483-0.051
	c0.621-1.571,1.242-3.142,1.962-4.961c4.201,3.48,11.112,4.486,9.674,12.938c4.955-5.674,7.911-6.364,13.77-2.375
	c7.824,5.327,15.299,11.172,22.84,16.905c3.63,2.76,3.47,6.462,1.996,10.658c-0.831-0.285-1.619-0.431-2.283-0.8
	c-14.81-8.238-29.729-16.291-44.314-24.91c-3.452-2.04-5.771-5.998-8.614-9.072c-0.556-0.601-1.016-1.512-1.699-1.738
	C113.953,676.847,116.155,673.311,117.916,669.685z"/>
<path d="M266.135,552.838c-9.092-8.012-18.367-15.827-27.229-24.086c-10.421-9.71-15.154-21.97-14.829-37.657
	c15.266,20.691,35.07,36.649,43.229,60.924C266.916,552.292,266.526,552.565,266.135,552.838z"/>
<path d="M590.775,504.907c5.282,6.541,10.564,13.081,15.379,19.043c-2.781,5.054-6.118,9.393-7.6,14.293
	c-1.506,4.981-0.815,10.583-1.762,15.79c-1.046,5.751-2.86,11.363-4.534,17.783c-5.207-2.063-9.12-3.612-13.516-5.354
	C590.997,547.209,593.711,526.783,590.775,504.907z"/>
<path d="M158.075,686.567c4.984,1.151,10.049,1.428,12.256,7.054c0.714,1.821,3.446,2.85,5.188,4.19
	c0.552-0.441,0.969-0.6,1.024-0.842c1.898-8.353,3.821-9.622,12.372-7.318c9.2,2.479,16.715,7.836,24.245,14.986
	c-3.762,2.87-7.052,5.798-10.767,8.014c-1.568,0.935-4.606,1.253-5.996,0.348c-12.475-8.127-24.736-16.585-37.041-24.972
	C158.838,687.674,158.498,687.06,158.075,686.567z"/>
<path d="M358.001,445.553c0.402-4.434,3.186-6.74,6.84-6.645c2.063,0.054,4.722,2.149,5.939,4.068
	c1.911,3.014,2.431,6.616-0.949,9.441c-1.785,1.492-3.88,2.722-5.328,4.487c-2.99,3.643-6.091,7.324-8.286,11.448
	c-1.752,3.289-3.626,5.522-7.426,5.483c-3.537-0.036-5.347-2.199-6.163-5.44c-1.667-6.617-6.723-10.407-11.755-14.315
	c-5.005-3.887-5.616-6.841-3.223-11.543c1.5-2.948,3.775-4.137,6.928-3.524c3.271,0.636,5.246,2.495,5.294,6.29
	c-6.361-4.847-8.622-4.531-11.813,1.81c5.711,3.769,11.174,8.252,17.389,11.078c2.8,1.273,7.389-0.082,10.648-1.466
	c3.901-1.656,7.364-4.466,10.777-7.088c1.288-0.989,1.909-2.848,2.833-4.31c-1.999-1.119-3.971-3.045-6.004-3.111
	C361.949,442.157,360.127,444.218,358.001,445.553z"/>
<path d="M391.551,481.778c-5.466-0.392-11.118-0.044-16.351-1.362c-6.49-1.635-12.468-1.493-18.413,1.313
	c-5.539,2.615-10.928,2.204-16.259-0.489c-4.987-2.519-9.988-2.591-15.47-1.399c-5.802,1.261-11.859,1.352-17.912,1.281
	c1.273-3.964,3.777-5.775,6.855-4.365c6.122,2.806,11.56,1.246,17.132-1.33c4.814-2.225,9.531-3.106,14.785-0.451
	c2.138,1.08,5.807,0.828,8.018-0.304c4.041-2.07,7.584-1.818,11.41-0.081c6.121,2.78,12.088,5.177,19.081,1.922
	c1.837-0.855,5.059,1.265,7.645,2.019C391.899,479.614,391.725,480.696,391.551,481.778z"/>
<path d="M54.276,513.452c2.796,7.156,8.647,13.501,4.577,22.17c2.673,1.495,5.372,3.003,8.553,4.782
	c-1.511,1.974-2.761,3.607-4.369,5.708c1.773,1.069,3.489,2.103,5.747,3.464c0.197-2.028,0.316-3.255,0.441-4.539
	c0.243,0.092,0.549,0.113,0.688,0.276c2.478,2.894,5.222,5.62,7.271,8.794c0.944,1.462,0.519,3.808,0.714,5.753
	c-1.892-0.06-4.138,0.514-5.609-0.304c-3.899-2.17-7.312-5.216-11.219-7.366c-2.169-1.193-4.942-1.29-7.577-1.912
	c0.261-4.29,0.587-9.663,0.939-15.454c-1.446,1.046-2.754,1.992-4.062,2.938C55.581,530.222,56.042,522.109,54.276,513.452z"/>
<path d="M545.428,368.258c3.3-10.611,4.463-21.232,13.372-28.468c3.908-3.174,4.655-7.68,3.852-12.186
	c-0.866-4.858-2.527-9.579-3.93-14.334c-0.45-1.527-1.179-2.972-2.132-5.32C573.891,325.646,568.055,357.268,545.428,368.258z"/>
<path d="M408.457,304.849c-0.987,14.085-1.783,26.985,6.58,38.365c0.53,0.721,0.354,2.757-0.274,3.338
	c-0.849,0.787-2.839,1.436-3.671,0.965c-4.609-2.609-9.069-5.499-13.44-8.498c-0.728-0.499-1.172-2.057-1.055-3.043
	C397.909,324.966,401.518,314.812,408.457,304.849z"/>
<path d="M290.114,305.925c7.038,9.762,9.899,19.648,10.938,30.137c0.12,1.213-0.743,3.063-1.745,3.753
	c-4.087,2.814-8.336,5.419-12.695,7.789c-0.885,0.481-2.847-0.012-3.677-0.761c-0.65-0.586-0.876-2.7-0.337-3.388
	C291.088,332.618,290.561,319.958,290.114,305.925z"/>
<path d="M110.991,673.485c-23.271-13.095-40.884-31.762-54.356-54.853c4.198,3.091,8.205,5.807,11.908,8.889
	c1.42,1.182,2.431,3.085,3.139,4.856c3.682,9.207,9.04,17.296,17.618,22.335c5.03,2.955,10.956,4.541,16.638,6.195
	C114.081,663.276,115.512,666.593,110.991,673.485z"/>
<path d="M139.043,672.782c2.482-0.836,4.616-1.554,8.191-2.758c-3.323-3.651-5.952-6.539-8.494-9.332
	c-3.539,1.7-6.253,4.67-10.632,1.023c2.586-0.889,4.478-1.54,6.402-2.202c-4.427-5.982-2.257-12.396-1.602-18.681
	c7.641,9.926,15.134,19.659,22.675,29.454C149.69,675.92,145.318,676.755,139.043,672.782z"/>
<path d="M338.042,90.603c-11.335-6.757-23.572-6.933-35.949-6.867c-8.11,0.044-14.538-5.214-17.302-13.578
	c6.288,8.597,15.035,10.556,25.777,9.683c-1.922-3.659-3.633-6.917-5.342-10.17C322.618,75.375,337.471,84.566,338.042,90.603z"/>
<path d="M641.044,618.12c-13.466,23.335-31.232,42.42-55.579,54.776c-3.064-6.736-1.741-9.917,6.589-11.778
	c11.366-2.54,21.483-7.393,27.356-17.448C625.16,633.826,631.101,624.5,641.044,618.12z"/>
<path d="M562.792,659.607c2.398,1.278,4.324,2.305,6.251,3.332c-0.173,0.71-0.345,1.421-0.518,2.131
	c-7.525-4.853-13.434-3.984-17.632,4.708c1.994,1.19,4.102,2.449,6.228,3.719c-5.635,3.124-9.311,2.273-15.394-3.654
	c4.214-4.565,8.859-8.828,12.539-13.805c3.542-4.791,6.084-10.32,9.845-15.195C564.433,647.298,568.414,653.703,562.792,659.607z"/>
<path d="M83.483,609.205c-3.202-0.618-6.069-1.172-9.596-1.852c3.573-6.369,6.614-12.39,10.261-18.017
	c1.621-2.5,4.479-2.23,6.053,0.549c1.357,2.397,2.162,5.107,3.33,7.969C86.939,598.875,84.816,603.322,83.483,609.205z"/>
<path d="M623.021,607.235c-7.32,2.535-7.139,2.423-10.91-3.619c-1.669-2.674-4.234-4.789-6.971-7.791
	c-0.052,0.426-0.188-0.36,0.139-0.813c1.712-2.38,3.54-4.676,5.328-7.002c1.883,2.049,4.137,3.87,5.566,6.198
	C618.659,598.26,620.637,602.626,623.021,607.235z"/>
<path d="M559.574,627.881c-1.033-0.948-2.067-1.896-3.1-2.845c-3.162-3.512-7.481-6.404-6.499-12.135c0,0-0.148,0.132-0.148,0.132
	c6.027-0.296,12.054-0.591,18.081-0.887c0.243,0.506,0.486,1.012,0.729,1.518C565.616,618.403,562.595,623.142,559.574,627.881z"/>
<path d="M297.589,94.311c11.064-4.354,22.279-5.887,33.218,0.679c7.152,4.293,8.839,9.924,5.444,16.527
	C329.104,95.675,322.401,92.739,297.589,94.311z"/>
<path d="M616.224,534.143c5.33-4.955,11.775-3.841,15.051,2.19c1.172,2.158,3.491,3.779,5.497,5.38
	c3.318,2.648,6.366,5.335,5.937,10.452c-3-4.003-5.838-7.79-8.676-11.576c-0.173,0.609-0.346,1.219-0.519,1.828
	c-2.896,0.689-5.818,1.934-8.676,1.8c-1.196-0.056-2.123-3.149-3.411-4.659c-1.662-1.949-3.564-3.694-5.362-5.526L616.224,534.143z"
	/>
<path d="M78.519,626.446c2.592,0.899,4.778,0.969,5.682,2.081c6.149,7.566,12.028,15.351,17.861,22.894
	C94.744,652.645,82.29,640.408,78.519,626.446z"/>
<path d="M619.594,627.109c-5.617,12.613-12.147,21.904-24.85,25.151c6.479-8.225,12.649-16.222,19.081-24.002
	C614.583,627.342,616.782,627.618,619.594,627.109z"/>
<path d="M627.503,545.494c5.199,0.142,5.575,1.807,4.299,6.353c-1.95,6.951-9.084,6.68-13.035,10.658
	c-0.915-1.042-2.815-2.661-2.594-3.038c2.644-4.514,5.515-8.906,8.562-13.161C625.251,545.586,626.874,545.66,627.503,545.494z"/>
<path d="M618.176,445.687c-5.354-2.164-10.729-4.278-16.042-6.539c-0.972-0.414-2.001-1.264-2.474-2.185
	c-2.624-5.113-5.083-10.31-8.25-16.816c10.021,8.811,18.951,16.663,27.88,24.514C618.918,445.004,618.547,445.345,618.176,445.687z"
	/>
<path d="M570.617,432.524c1.202-5.148,2.361-10.111,3.878-16.61c4.351,6.56,8.097,12.21,12.372,18.656
	C580.601,433.781,575.579,433.149,570.617,432.524z"/>
<path d="M238.077,437.46c-0.965-9.3-5.278-18.76,2.164-28.571C241.004,419.253,246.161,428.728,238.077,437.46z"/>
<path d="M387.578,714.368c-5.749,9.403-6.83,22.893-21.942,24.138c8.549-3.519,10.738-11.817,14.77-18.812
	c1.423-2.469,4.148-4.187,6.278-6.249C386.983,713.754,387.281,714.061,387.578,714.368z"/>
<path d="M572.962,649.062c-5.322-4.866-6.089-9.934-3.61-16.086c3.004-7.455,6.694-14.319,12.953-19.762
	C575.971,624.255,568.756,634.961,572.962,649.062z"/>
<path d="M572.274,482.933c0,0-0.131,0.088-0.132,0.089c3.506-3.077,7.013-6.154,10.344-9.078c-0.765,3.04-1.864,6.665-2.557,10.366
	c-0.699,3.729-0.995,7.534-1.567,12.106C574.85,492.221,570.405,489.151,572.274,482.933z"/>
<path d="M228.162,481.806c-0.593,0.225-1.185,0.45-2.495,0.947c0.758-10.113,4.333-18.954,8.203-27.711
	c0.53,0.11,1.06,0.221,1.59,0.331c-0.981,5.063-1.682,10.202-3.033,15.164c-1.069,3.928-2.936,7.639-4.445,11.443
	C227.986,481.976,228.162,481.806,228.162,481.806z"/>
<path d="M124.267,647.804c4.016-10.793-1.231-19.679-5.28-28.891c5.909,5.767,9.234,12.876,10.684,20.554
	c0.466,2.468-2.305,5.546-3.595,8.346C125.474,647.811,124.871,647.808,124.267,647.804z"/>
<path d="M584.781,640.067c-4.715-7.643,1.679-12.457,4.048-17.929c0.936-2.162,5.398-2.798,8.255-4.128
	c0.479,0.654,0.958,1.309,1.438,1.963C592.484,625.684,583.352,629.361,584.781,640.067z"/>
<path d="M68.861,531.687c3.003,0,5.139-0.066,7.269,0.025c1.282,0.055,2.554,0.353,3.099,0.434
	c-1.283,4.805-2.517,9.431-4.152,15.556C72.87,542.017,71.044,537.313,68.861,531.687z"/>
<path d="M526.352,676.215c-7.389,1.803-15.086,3.68-22.576,5.508c1.367-5.179,2.616-5.977,8.147-5.315
	c0.92,0.11,1.987-0.57,2.914-1.031C519.73,672.945,523.509,673.331,526.352,676.215z"/>
<path d="M640.44,516.725c0.739-1.155,1.478-2.311,2.217-3.466c-0.332,8.956-2.087,17.997,6.589,25.433
	c-6.655-1.546-9.742-5.741-9.554-11.952c0.103-3.4,0.552-6.789,0.831-10.166C640.51,516.591,640.44,516.725,640.44,516.725z"/>
<path d="M593.627,603.386c0-2.928-0.124-5.863,0.042-8.782c0.116-2.039-0.027-4.772,1.164-5.862
	c1.018-0.931,3.772,0.037,6.666,0.223c-2.713,5.584-4.974,10.235-7.234,14.887C594.053,603.697,593.84,603.542,593.627,603.386z"/>
<path d="M103.675,587.251c0,5.243,0,9.607,0,13.971c-0.489,0.125-0.978,0.251-1.467,0.376c-1.765-4.007-3.529-8.014-5.447-12.37
	C98.857,588.629,100.562,588.141,103.675,587.251z"/>
<path d="M97.797,619.123c3.247-0.189,5.642-1.07,6.671-0.246c2.775,2.224,5,5.146,7.339,7.881c0.225,0.264-0.169,1.591-0.472,1.67
	c-0.858,0.223-2.121,0.433-2.689-0.022C105.332,625.753,102.171,622.908,97.797,619.123z"/>
<path d="M112.384,606.882c-2.323-1.438-5.228-2.452-6.716-4.498c-0.705-0.969,1.298-3.908,2.075-5.954
	c0.489-0.01,0.978-0.021,1.467-0.031c1.491,2.957,2.983,5.915,4.474,8.872C113.25,605.808,112.817,606.345,112.384,606.882z"/>
<path d="M542.67,676.859c-5.225-0.973-9.622-1.791-14.018-2.609c0.091-0.484,0.181-0.969,0.272-1.453
	C541.033,670.845,539.367,669.439,542.67,676.859z"/>
<path d="M155.199,674.567c4.802-4.176,9.329-2.562,14.078-1.319C165.646,677.158,161.212,677.665,155.199,674.567z"/>
<path d="M601.263,621.833c2.69,1.346,4.128,2.066,6.295,3.15c-2.7,3.505-5.157,6.695-8.209,10.657
	C600.059,630.512,600.611,626.538,601.263,621.833z"/>
<path d="M95.487,632.663c-1.933-2.81-3.865-5.62-6.412-9.325c2.598-0.519,5.863-1.345,5.923-1.157
	c1.024,3.239,1.654,6.603,2.37,9.94C96.74,632.302,96.114,632.482,95.487,632.663z"/>
<path d="M648.1,582.737c-2.697,6.18-7.25,5.372-11.414,5.338c-0.528-0.004-1.573-1.349-1.486-1.48
	c0.563-0.847,1.273-2.004,2.12-2.182C640.651,583.711,644.051,583.334,648.1,582.737z"/>
<path d="M61.919,587.815c-4.874,0.357-9.424,1.227-12.067-4.012C56.006,582.562,60.63,583.934,61.919,587.815z"/>
<path d="M583.821,606.744c0.983-3.193,1.565-5.685,2.563-7.996c0.346-0.801,1.859-1.731,2.594-1.558
	c0.779,0.183,1.69,1.553,1.81,2.498C591.34,604.022,588.837,605.825,583.821,606.744z"/>
<path d="M209.104,141.755c-6.139,5.587-17.188,0.856-20.643-7.504C193.085,141.407,200.108,142.667,209.104,141.755z"/>
<path d="M107.212,647.958c2.336-1.298,4.673-2.595,7.009-3.893c0.414,0.17,0.829,0.34,1.243,0.51
	c-1.349,2.446-2.499,5.057-4.246,7.176c-0.29,0.352-3.181-1.438-4.87-2.238C106.636,648.996,106.924,648.477,107.212,647.958z"/>
<path d="M594.343,610.065c2.422-2.648,4.261-4.66,6.388-6.986c-0.172,1.438-0.313,2.614-0.436,3.64
	c3.043,0.331,6.073,0.66,9.102,0.989c-0.033,0.447-0.066,0.895-0.098,1.342C604.51,609.375,599.72,609.701,594.343,610.065z"/>
<path d="M198.666,171.581c-3.785,2.219-7.569,4.438-11.354,6.656c-0.208-0.09-0.416-0.181-0.623-0.271
	c2.811-3.52,5.622-7.039,8.388-10.501c1.455,1.664,2.527,2.889,3.6,4.114C198.677,171.578,198.666,171.581,198.666,171.581z"/>
<path d="M77.688,590.737c-3.249,5.144-7.69,6.243-13.84,3.045C68.909,592.668,72.832,591.805,77.688,590.737z"/>
<path d="M402.469,702.113c-4.824,3.732-8.649,6.69-13.607,10.525C395.688,702.295,397.469,700.74,402.469,702.113z"/>
<path d="M619.875,591.144c4.42,0.91,8.451,1.741,13.205,2.72C627.563,596.928,622.985,595.887,619.875,591.144z"/>
<path d="M584.016,593.544c-1.264,3.023-2.529,6.047-3.793,9.07c-0.57-0.026-1.141-0.051-1.711-0.077
	c-0.115-1.818-0.866-3.937-0.185-5.379c0.873-1.848,2.899-3.15,4.429-4.688C583.175,592.828,583.596,593.186,584.016,593.544z"/>
<path d="M583.308,645.712c2.099,0.628,4.199,1.257,7.705,2.306c-1.88,1.592-3.21,2.718-4.539,3.843
	c-1.507-1.876-3.014-3.753-4.521-5.629C582.405,646.059,582.856,645.885,583.308,645.712z"/>
<path d="M112.732,638.934c-0.964-2.657-1.928-5.315-3.432-9.461c2.45,1.062,4.385,1.355,4.563,2.079
	c0.562,2.289,0.467,4.74,0.626,7.129C113.903,638.765,113.317,638.849,112.732,638.934z"/>
<path d="M616.064,534.032c0.029,1.81-0.458,3.833,0.185,5.39c1.842,4.462,0.021,7.557-3.492,11.087c0-1.647-0.144-2.666,0.026-3.63
	c0.596-3.368,1.235-6.731,2.004-10.062c0.22-0.952,0.935-1.79,1.43-2.678C616.224,534.143,616.064,534.032,616.064,534.032z"/>
<path d="M625.008,611.735c-3.093,2.038-6.186,4.075-10.044,6.617c0.253-7.894,7.091-4.607,9.381-7.907
	C624.566,610.875,624.787,611.305,625.008,611.735z"/>
<path d="M81.674,537.663c0.507,2.862,1.014,5.724,1.769,9.98c1.08-2.261,1.548-3.24,2.217-4.638c0,2.748,0,4.977,0,7.553
	C79.819,547.314,80.551,542.408,81.674,537.663z"/>
<path d="M91.641,550.649c0.501,2.95,1.002,5.9,1.61,9.481C87.017,557.668,89.14,554.131,91.641,550.649z"/>
<path d="M172.506,676.911c6.196-0.944,4.991,3.109,6.117,5.612c-0.531,0.364-1.062,0.728-1.593,1.093
	C175.523,681.381,174.015,679.146,172.506,676.911z"/>
<path d="M81.653,618.402c-3.309-2.405-6.006-4.365-8.703-6.325C76.475,612.914,82.516,610.35,81.653,618.402z"/>
<path d="M116.887,602.097c-1.14-2.865-2.281-5.729-3.808-9.566c5.992,1.996,6.65,5.11,5.329,9.072
	C117.901,601.768,117.394,601.932,116.887,602.097z"/>
<path d="M578.558,657.426c1.775,6.097-2.395,6.789-5.433,8.346c-0.394-0.32-0.788-0.641-1.182-0.961
	C573.939,662.582,575.935,660.354,578.558,657.426z"/>
<path d="M119.212,658.576c2.127,2.036,4.253,4.071,6.38,6.107c-0.437,0.445-0.874,0.889-1.311,1.334
	c-3.051-1.188-5.771-2.683-6.562-5.967C118.217,659.558,118.715,659.067,119.212,658.576z"/>
<path d="M116.998,618.034c-2.914-1.792-5.827-3.583-8.741-5.375c0.175-0.406,0.349-0.812,0.524-1.219
	c3.166,1.266,6.332,2.531,9.498,3.797C117.852,616.17,117.425,617.102,116.998,618.034z"/>
<path d="M96.294,603.856c0.296,1.711,0.532,3.073,0.847,4.895c-2.821,0.319-5.24,0.593-7.658,0.866
	c-0.073-0.335-0.146-0.669-0.219-1.004C91.46,607.128,93.655,605.642,96.294,603.856z"/>
</svg>
