<?xml version="1.0" encoding="UTF-8" standalone="no" ?>
<!DOCTYPE svg PUBLIC "-//W3C//DTD SVG 1.1//EN" "http://www.w3.org/Graphics/SVG/1.1/DTD/svg11.dtd">
<svg xmlns="http://www.w3.org/2000/svg" xmlns:xlink="http://www.w3.org/1999/xlink" version="1.1" width="1080" height="1080" viewBox="0 0 1080 1080" xml:space="preserve">
<desc>Created with Fabric.js 5.2.4</desc>
<defs>
</defs>
<g transform="matrix(1 0 0 1 540 540)" id="67fcca58-a20d-4217-8461-e16cc2ea0d91"  >
<rect style="stroke: none; stroke-width: 1; stroke-dasharray: none; stroke-linecap: butt; stroke-dashoffset: 0; stroke-linejoin: miter; stroke-miterlimit: 4; fill: rgb(255,255,255); fill-rule: nonzero; opacity: 1; visibility: hidden;" vector-effect="non-scaling-stroke"  x="-540" y="-540" rx="0" ry="0" width="1080" height="1080" />
</g>
<g transform="matrix(1 0 0 1 540 540)" id="bacf58d7-8787-409a-b2f7-73e10146983c"  >
</g>
<g transform="matrix(1 0 0 1 50 50)"  >
<rect style="stroke: none; stroke-width: 1; stroke-dasharray: none; stroke-linecap: butt; stroke-dashoffset: 0; stroke-linejoin: miter; stroke-miterlimit: 4; fill: rgb(255,255,255); fill-opacity: 0; fill-rule: nonzero; opacity: 1;" vector-effect="non-scaling-stroke"  x="-50" y="-50" rx="0" ry="0" width="100" height="100" />
</g>
<g transform="matrix(1 0 0 1 540 540)"  >
<rect style="stroke: none; stroke-width: 1; stroke-dasharray: none; stroke-linecap: butt; stroke-dashoffset: 0; stroke-linejoin: miter; stroke-miterlimit: 4; fill: rgb(255,255,255); fill-rule: nonzero; opacity: 1; visibility: hidden;" vector-effect="non-scaling-stroke"  x="-540" y="-540" rx="0" ry="0" width="1080" height="1080" />
</g>
<g transform="matrix(1.66 0 0 1.66 538.17 543.48)"  >
<path style="stroke: rgb(0,0,0); stroke-width: 0; stroke-dasharray: none; stroke-linecap: butt; stroke-dashoffset: 0; stroke-linejoin: miter; stroke-miterlimit: 4; fill: rgb(0,0,0); fill-rule: nonzero; opacity: 1;" vector-effect="non-scaling-stroke"  transform=" translate(-350, -280)" d="M 460.36 273.84 C 444.38 244.00799999999998 428.587 224.54699999999997 424.329 219.51599999999996 C 423.95791 208.11799999999997 419.8056 198.82799999999997 412.48900000000003 192.98899999999998 L 404.06710000000004 46.688999999999965 C 408.48900000000003 46.755405999999965 412.4109 45.255399999999966 415.66510000000005 41.63429999999997 C 417.08700000000005 39.86479999999997 418.00100000000003 37.80619999999997 418.4073000000001 35.645999999999965 L 425.5870000000001 35.645999999999965 C 433.4464000000001 35.645999999999965 439.8410000000001 29.251499999999965 439.8410000000001 21.391999999999967 C 439.8410000000001 13.53249999999997 433.4465000000001 7.137999999999968 425.5870000000001 7.137999999999968 L 412.7160000000001 7.137999999999968 C 410.3918000000001 2.8606999999999676 405.8410000000001 0.005199999999968341 400.80200000000013 0.005199999999968341 L 299.2020000000001 0.005199999999968341 C 294.16680000000014 0.005199999999968341 289.61610000000013 2.8606999999999685 287.2920000000001 7.145799999999968 L 274.4170000000001 7.145799999999968 C 266.5576000000001 7.145799999999968 260.16300000000007 13.540299999999968 260.16300000000007 21.399799999999967 C 260.16300000000007 29.259299999999968 266.55750000000006 35.65379999999997 274.4170000000001 35.65379999999997 L 281.5967000000001 35.65379999999997 C 282.0029500000001 37.81399999999997 282.9170000000001 39.87259999999997 284.33890000000014 41.64209999999997 C 287.5967000000001 44.677299999999974 291.31940000000014 46.68119999999997 295.93690000000015 46.69679999999997 L 287.51500000000016 192.99679999999998 C 280.19860000000017 198.8327 276.04600000000016 208.12179999999998 275.6750000000002 219.5238 C 271.4211000000002 224.5511 255.6240000000002 244.01579999999998 239.64400000000018 273.8478 C 222.7420000000002 305.4028 202.58900000000017 354.89480000000003 202.58900000000017 411.43780000000004 C 202.58900000000017 450.71080000000006 214.63600000000017 485.1408 238.39400000000018 513.7678000000001 C 257.6480000000002 536.9668 279.73800000000017 550.2208 291.19100000000014 556.0608000000001 C 296.24570000000017 558.6350000000001 301.9180000000001 559.9944 307.5860000000001 559.9944 L 392.4180000000001 559.9944 C 398.0899000000001 559.9944 403.7620000000001 558.635 408.81600000000014 556.0608000000001 C 420.2690000000001 550.2249 442.35900000000015 536.9708 461.61300000000017 513.7678000000001 C 485.37100000000015 485.13880000000006 497.4180000000002 450.7088000000001 497.4180000000002 411.4378000000001 C 497.4180000000002 354.8908000000001 477.2660000000002 305.3978000000001 460.36300000000017 273.83780000000013 z M 425.583 16.029999999999973 C 428.54 16.029999999999973 430.9463 18.43619999999997 430.9463 21.39329999999997 C 430.9463 24.350399999999972 428.5401 26.75659999999997 425.583 26.75659999999997 L 417.56350000000003 26.75659999999997 L 415.20410000000004 16.02959999999997 z M 282.433 26.759999999999973 L 274.4135 26.759999999999973 C 271.4565 26.759999999999973 269.0502 24.35379999999997 269.0502 21.396699999999974 C 269.0502 18.439599999999977 271.45640000000003 16.033399999999975 274.4135 16.033399999999975 L 284.7885 16.033399999999975 z M 406.71299999999997 199.77999999999997 C 412.41999999999996 204.18619999999999 414.58799999999997 210.81099999999998 415.23249999999996 216.75999999999996 L 391.7795 216.75999999999996 L 391.0295 199.77999999999997 z M 412.86139999999995 455.76 C 417.1972999999999 455.76 420.72079999999994 459.2873 420.72079999999994 463.6194 C 420.72079999999994 467.9514 417.1934999999999 471.4788 412.86139999999995 471.4788 L 287.1414 471.4788 C 282.8055 471.4788 279.282 467.95149999999995 279.282 463.6194 C 279.282 459.2835 282.8093 455.76 287.1414 455.76 z M 395.3453999999999 297.41999999999996 C 403.32199999999995 307.3692 408.1073999999999 319.979 408.1073999999999 333.693 C 408.1073999999999 345.57599999999996 404.51359999999994 356.63399999999996 398.36909999999995 365.849 z M 301.6343999999999 365.84999999999997 C 295.48599999999993 356.63519999999994 291.89609999999993 345.57699999999994 291.89609999999993 333.69399999999996 C 291.89609999999993 319.979 296.6812999999999 307.36999999999995 304.65809999999993 297.42099999999994 z M 359.22439999999995 199.76999999999995 L 359.6267399999999 216.74999999999994 L 340.3847399999999 216.74999999999994 L 340.7870799999999 199.76999999999995 z M 340.99039999999997 190.87939999999995 L 344.3966 46.67939999999996 L 355.6036 46.67939999999996 L 359.0098 190.87939999999995 z M 359.83439999999996 225.63739999999996 L 360.82658999999995 267.58639999999997 C 354.23278999999997 265.6762 346.92458999999997 265.96139999999997 339.18158999999997 267.58639999999997 L 340.17377999999997 225.63739999999996 z M 361.04139999999995 276.6534 L 363.72499999999997 390.1534 C 354.5766 391.9659 345.43199999999996 391.9659 336.284 390.1534 L 338.9676 276.6534 C 346.3231 274.9034 353.6826 274.9034 361.0416 276.6534 z M 363.93589999999995 399.22339999999997 L 365.06089999999995 446.86839999999995 L 334.93989999999997 446.86839999999995 L 336.06489999999997 399.22339999999997 C 345.3579 400.47729999999996 354.64689999999996 400.47729999999996 363.93589999999995 399.22339999999997 z M 384.2638999999999 46.68339999999995 L 395.1658999999999 46.68339999999995 L 403.4666999999999 190.88339999999994 L 390.6346999999999 190.88339999999994 z M 389.9122999999999 375.86339999999996 C 384.8810999999999 380.6251 379.0142999999999 384.51179999999994 372.5412999999999 387.24639999999994 L 369.9865999999999 279.1363999999999 C 375.83429999999987 281.2847999999999 381.2365999999999 284.36299999999994 386.0335999999999 288.16759999999994 z M 385.5411999999999 276.94539999999995 C 380.6661999999999 273.87899999999996 375.3771999999999 271.41419999999994 369.7641999999999 269.67979999999994 L 368.7211999999999 225.63679999999994 L 383.2681999999999 225.63679999999994 z M 368.5141999999999 216.75039999999996 L 368.1118599999999 199.77039999999997 L 382.12785999999994 199.77039999999997 L 382.87785999999994 216.75039999999996 z M 367.9048199999999 190.87939999999995 L 364.4986199999999 46.67939999999996 L 375.3656199999999 46.67939999999996 L 381.7406199999999 190.87939999999995 z M 332.0998199999999 190.87939999999995 L 318.2638199999999 190.87939999999995 L 324.6388199999999 46.67939999999996 L 335.5058199999999 46.67939999999996 z M 331.8888799999999 199.76999999999995 L 331.48653999999993 216.74999999999994 L 317.1195399999999 216.74999999999994 L 317.8695399999999 199.76999999999995 z M 331.2794999999999 225.63699999999994 L 330.2364999999999 269.67999999999995 C 324.6270999999999 271.41439999999994 319.3384999999999 273.87919999999997 314.45949999999993 276.94559999999996 L 316.7289999999999 225.63659999999996 z M 330.0138999999999 279.1329999999999 L 327.4591999999999 387.24299999999994 C 320.9864999999999 384.50859999999994 315.1191999999999 380.6218999999999 310.0881999999999 375.85999999999996 L 313.9631999999999 288.16099999999994 C 318.7639999999999 284.3562999999999 324.1661999999999 281.27819999999997 330.0141999999999 279.12979999999993 z M 309.36889999999994 190.8789999999999 L 296.53689999999995 190.8789999999999 L 304.8376999999999 46.67899999999992 L 315.7396999999999 46.67899999999992 z M 309.59155999999996 387.08899999999994 C 314.91185999999993 391.1241999999999 320.84556 394.38589999999994 327.23256 396.7022999999999 L 326.04895999999997 446.87029999999993 L 306.95095999999995 446.87029999999993 z M 373.95055999999994 446.86599999999993 L 372.7669599999999 396.6979999999999 C 379.15365999999995 394.38159999999993 385.09095999999994 391.1198999999999 390.40795999999995 387.08469999999994 L 393.04855999999995 446.86569999999995 z M 294.8885599999999 37.795999999999935 C 293.4744599999999 37.795999999999935 292.15415999999993 37.163189999999936 291.2674599999999 36.061599999999935 C 290.3807599999999 34.96000999999993 290.04475999999994 33.53429999999994 290.3494899999999 32.15139999999993 L 294.6619899999999 12.53439999999993 C 295.12682999999987 10.42109999999993 297.0330899999999 8.88989999999993 299.2010899999999 8.88989999999993 L 400.8110899999999 8.88989999999993 C 402.97518999999994 8.88989999999993 404.88528999999994 10.42509999999993 405.35018999999994 12.53829999999993 L 409.66268999999994 32.15529999999993 C 409.96737999999993 33.538099999999936 409.63143999999994 34.95999999999993 408.7447199999999 36.065499999999936 C 407.8579999999999 37.167099999999934 406.5377199999999 37.79989999999994 405.1236199999999 37.79989999999994 z M 293.29085999999995 199.77599999999993 L 308.97486 199.77599999999993 L 308.22486 216.75599999999991 L 284.77186 216.75599999999991 C 285.41639 210.8028999999999 287.58046 204.1779999999999 293.29136 199.77599999999993 z M 404.78085999999996 548.146 C 400.96835999999996 550.0874 396.69496 551.1148 392.41785999999996 551.1148 L 307.58985999999993 551.1108939999999 C 303.3125599999999 551.1108939999999 299.03905999999995 550.083594 295.22685999999993 548.1420939999999 C 275.5788599999999 538.1340939999999 211.47685999999993 498.6930939999999 211.47685999999993 411.44209399999994 C 211.47685999999993 356.8370939999999 230.99285999999992 308.87209399999995 247.35985999999994 278.26209399999993 C 262.44985999999994 250.03909399999992 277.71885999999995 230.94609399999993 282.14485999999994 225.64509399999994 L 307.8328599999999 225.64509399999994 L 305.2586599999999 283.89109399999995 C 291.6106599999999 296.164094 283.0086599999999 313.94609399999996 283.0086599999999 333.7000939999999 C 283.0086599999999 351.32909399999994 289.8641599999999 367.3840939999999 301.0396599999999 379.3560939999999 L 298.0552599999999 446.87209399999995 L 287.1452599999999 446.87209399999995 C 277.9108599999999 446.87209399999995 270.3952599999999 454.38769399999995 270.3952599999999 463.62209399999995 C 270.3952599999999 472.85649399999994 277.9108599999999 480.37209399999995 287.1452599999999 480.37209399999995 L 412.8652599999999 480.37209399999995 C 422.0996599999999 480.37209399999995 429.6152599999999 472.85649399999994 429.6152599999999 463.62209399999995 C 429.6152599999999 454.38379399999997 422.0996599999999 446.87209399999995 412.8652599999999 446.87209399999995 L 401.9552599999999 446.87209399999995 L 398.9708599999999 379.3560939999999 C 410.1428599999999 367.3830939999999 417.0018599999999 351.32909399999994 417.0018599999999 333.7000939999999 C 417.0018599999999 313.94209399999994 408.4002599999999 296.16109399999993 394.7518599999999 283.89109399999995 L 392.1776599999999 225.64509399999994 L 417.8616599999999 225.64509399999994 C 427.47885999999994 237.20009399999995 488.53365999999994 314.42209399999996 488.53365999999994 411.4450939999999 C 488.53365999999994 498.6950939999999 424.43165999999997 538.135094 404.78365999999994 548.145094 z" stroke-linecap="round" />
</g>
</svg>