<svg xmlns="http://www.w3.org/2000/svg" version="1.1" viewBox="-5.0 -10.0 110.0 135.0">
 <path d="m21.969 91.055 0.14062 0.11328 0.066406-0.011719c-0.14062-0.83594-0.03125-1.7305 0.45312-2.4492 0.058594-0.089843 0.16797-0.19141 0.125-0.29297-1.0742 0.37891-1.5391 1.7422-0.78516 2.6445z"/>
 <path d="m19.129 30.723c-0.25-0.33594-0.50391-0.66797-0.68359-1.0508-0.62109 0.17578-1.1914 0.39844-1.7734 0.67188 0.53125-0.40625 1.0586-0.65234 1.6836-0.87109-0.19141-0.4375-0.35156-0.85547-0.44531-1.3242-0.54297 0.24219-1.082 0.5-1.6328 0.71484 0.46484-0.43359 1-0.67969 1.5625-0.97266-2.5078-1.3477-4.6328-3.6641-5.5117-6.3867-1.1367 2.1094-1.8984 4.6289-2.1484 7.0117 0.69141-0.80078 1.2852-1.6875 2.1602-2.3047-1.4648 3.2383-1.1445 3.875-0.58984 7.2461 0.38281-0.92188 0.92578-1.75 1.6133-2.4727 0.62891-0.73828 1.2891-1.7891 2.2656-2.0938-0.29688 0.41016-0.66406 0.76562-1.0039 1.1445-1.3594 1.3828-1.2344 3.2148-0.68359 4.9453 0.28906 0.82812 0.58984 1.6953 0.99609 2.4766-0.10938-3.7266 0.84375-5.082 4.1875-6.7422z"/>
 <path d="m32.203 89.02c0.92188-1.5469 1.0625-3.5352 0.90234-5.3008-0.24219 0.53516-0.48828 1.0039-0.92188 1.4102-0.027344 1.2969-0.023438 2.5938 0.019531 3.8867z"/>
 <path d="m31.445 90.23c-0.24219-1.6211-0.14453-3.3555-0.19531-4.9961-0.67969-0.24219-1.2031-0.60547-1.5156-1.2812-0.23438-0.51953-0.39062-1.375 0.089844-1.8008l0.058593 0.03125c0.13672 0.80469 0.28125 1.6797 1.0117 2.1836 0.49609 0.35937 1.0039 0.070312 1.1914-0.45703 0.60937-1.3281-0.054688-2.4453-0.35938-3.7422-0.63281-3.5469-0.32812-7.3008 0.16016-10.852-1.1523-0.66016-2.2852-1.4727-3.0781-2.5547 0.33203 0.68359 0.70312 1.3789 1.0977 2.0273-1.6758-0.64844-3.0977-1.9414-4.2969-3.2461-1.2422-1.082-2.2578-2.3359-3.1445-3.7109-1.0312-1.0977-2.0625-2.1602-2.5547-3.6094-0.003906 0.066406-0.007812 0.12891-0.003906 0.19531-0.68359-0.53906-1.0195-1.5391-1.5547-2.1992 0.42969 3.0742 0.94531 6.1953 2.3242 9.0117 1.4688 2.8633 2.8555 5.8164 3.2383 9.0508 0.23828 1.7227 0.32031 3.4648 0.59766 5.1797 0.21094 1.3086 0.73438 2.6211 0.6875 3.9492-0.050781 1.4961-0.54688 2.9688-1.168 4.3164 0.40625-0.011718 0.95312-0.027343 1.2852 0.25l0.039063 0.11719c-0.066407 0.09375-0.16797 0.10156-0.27734 0.12109-0.73438 0.13672-1.3203 0.24609-1.8086 0.89062-0.56641 0.76172-0.67188 2.0859 0.1875 2.6719 0.53125 0.36328 1.3203 0.45703 1.9492 0.48828-0.62891-1.7344 0.52344-4.3633 2.582-4.2344l0.0625 0.054688c-0.11328 0.22656-0.57031 0.39453-0.78516 0.5625-2.2578 1.9297-1.6992 4.6172 1.582 4.2578 0.082032-0.27344 0.16797-0.52344 0.29688-0.78125 0.49219-0.71094 1.0508-1.0547 1.8867-1.2383 0.14062-0.21484 0.28125-0.42969 0.40234-0.65625z"/>
 <path d="m19.367 20.895c-0.007813-0.14062 0.007812-0.28125-0.085938-0.39453-0.14453-0.054688-0.27734-0.035156-0.42578-0.027344 0.09375 0.22656 0.25 0.41797 0.51172 0.42188z"/>
 <path d="m88.836 45.391c1.1523-1.2578-1.082-1.8789-1.9023-2.3867-1.5195-0.78516-2.9766-1.7148-4.2578-2.8477-0.33594-0.29297-0.66406-0.65234-1.0195-0.91797 0.94531 1.5586 1.5 3.2969 2.0938 5 1.3086 0.85938 3.5859 2.1836 5.0898 1.1523z"/>
 <path d="m22.879 33.684c0.46875 0.13281 0.99609 0.16016 1.4766 0.15625 0.83594-0.011719 1.6875 0 2.3125-0.65234 0.35156-0.36719 0.59766-0.85547 0.84766-1.293-0.94531-0.32031-1.8633-0.70703-2.7539-1.1562-0.13281-0.066406-0.3125-0.1875-0.45703-0.20312-0.98438 0.57031-2.0938 1.0938-3.2148 1.3203 0.42969 0.78906 0.86328 1.5625 1.7891 1.8281z"/>
 <path d="m12.848 17.23c0.21094 0.54688 0.65234 1.3398 0.66016 1.9219 0.007813 0.57422-0.77734 1.5664-1.0547 2.0898 1.2539 2.6641 3.3555 4.5586 5.668 6.2891 0.35547-0.64844 0.80859-1.2461 1.3672-1.7383-0.21484 0.50781-1.1016 1.8906-0.82812 2.3516-0.12109 0.19922-0.11328 0.26172-0.054687 0.5 0.28125 1.0586 1.1797 2.2812 2.2383 2.6562 1.0352-0.18359 2.3633-0.68359 3.1914-1.3516-0.007812-0.32422-0.007812-0.65234-0.019531-0.97656-1.043-0.39062-2.0234-1.4531-2.4844-2.4531-0.45703-0.89062-0.10938-1.8359 0.375-2.6367-0.27344-0.42969-0.54297-0.86328-0.80469-1.3008-1.1719 1.0039-2.9844 0.71875-3.8242-0.56641-0.30078-0.40234-0.58203-1.2734-0.92969-1.4727 1.1094-1.0547 2.9141-1.3164 4.2031-0.39062 0.91797 0.57422 0.91406 1.6914 1.2266 2.6055 0.12109 0.3125 0.47266 0.74609 0.49609 1.0664 0.046874 0.48828-0.30859 0.87891-0.46484 1.3125-0.23438 0.67969 0.30469 1.4102 0.66797 1.9414 0.33594-1.2695 0.90625-1.0078 1.9609-0.89062 0.96484-0.10156 1.6367-0.40234 1.9805 0.78516 0.32422-0.47656 0.63281-0.95703 0.51172-1.5664-0.10938-0.54297-0.46484-1.0039-0.63281-1.5273 0.85547-1.1133 0.35938-2.625 1.4062-3.6211 1.2266-1.0547 3.2617-0.85937 4.4883 0.10547-0.99219 0.67188-0.71875 2.0156-2.1562 2.5508-0.85938 0.32422-1.8594 0.13281-2.5391-0.48437-0.24609 0.48047-0.48438 0.96094-0.76953 1.4219 0.43359 0.73438 0.91797 1.3906 0.68359 2.293-0.32422 1.0977-1.6211 2.3672-2.6406 2.8047-0.007812 0.33984-0.011719 0.68359-0.0625 1.0195 0.83984 0.52734 2.0469 1.1094 3 1.3555 0.47266-0.16797 0.97266-0.49219 1.3594-0.81641-0.70703-0.26562-1.4453-0.36328-2.1914-0.42187-0.10938-0.019532-0.15625-0.046876-0.22266-0.13672 0.089844-0.085938 0.13672-0.078125 0.25391-0.074219 0.90625 0.011719 1.4062 0.21094 2.2383 0.53125 0.28125-0.3125 0.43359-0.61719 0.58984-1.0039-1.1094-0.10156-2.2188-0.007813-3.3281-0.007813 1.168-0.37891 2.207-0.22656 3.3984-0.11328 0.50781-1.0547-0.20313-2.0195-0.72266-2.9062 0.47266 0.30469 0.875 0.61719 1.2148 1.0742 2.0742-1.6328 3.7891-3.5586 4.8867-5.9844-0.42578 2.875-2.5 4.918-4.7695 6.5234 1.6289 0.32422 2.9609 0.76172 4.0078 2.125-1.1758-0.97266-2.3828-1.5234-3.8828-1.8125-0.019531 0.38672-0.070312 0.75781-0.17187 1.1328 0.91797 0.33984 1.625 0.85938 2.2578 1.6094-0.74219-0.55078-1.4648-1.0625-2.3359-1.3984-0.20703 0.40234-0.41406 0.80859-0.69531 1.1641 2.4531 1.1523 4.1055 3.3086 3.8789 6.0977 0.97656-1.9336 1.8359-4.6016 0.52344-6.5625 1.0938 0.96484 1.9844 2.2031 2.5977 3.5234 0.4375-2.2656 1-5.1133-0.74219-6.9648 0.95313 0.54297 1.7461 1.4766 2.2812 2.4258-0.62891-2.2852-1.25-4.5195-2.1172-6.7266-0.30859-0.78516-1.2617-2.7812-1.2812-3.5234-0.039063-1.3867 1.4414-3.832 1.75-5.3359 0.28906-1.4141-0.023437-3.8477-0.10156-5.3516-0.011718-0.23438-0.03125-1.6875-0.13281-1.793-0.66797 0.64453-1.457 1.1367-2.1914 1.6992-1.9141 1.4805-3.3398 3.3594-3.9844 5.7109 1.7734 0.78516 3.6172 1.875 4.6211 3.6016-1.0781-1.0977-2.2344-2.0898-3.6328-2.7578-0.31641-0.16016-1.2148-0.52344-1.4375-0.70703-0.082031-0.070312-0.12109-0.21484-0.13281-0.31641 0.22656-2.4062 2.3516-4.3477 3.5586-5.5898-1.082 0.68359-3.918 3.2539-4.2305 4.4609-0.11719 0.45312 0.0625 0.95312 0.17578 1.3945-0.42188-0.51172-0.63672-0.82812-0.65234-1.5195-2.7656-0.45312-5.6445-0.48047-8.3945 0.085937-0.20312 0.46094-0.33984 0.88672-0.81641 1.1367l-0.066406-0.027344c-0.039062-0.25391 0.10938-0.60547 0.16406-0.86328-0.46875-1.7148-3.3125-4.1797-4.8086-5.1445 1.8789 1.7344 3.9414 3.5625 4.0938 6.293-0.35156 0.36328-1.7148 0.99609-2.2695 1.3711-1.1016 0.74219-1.9727 1.668-2.8789 2.6289 1.1758-1.7578 2.6914-3.1172 4.5625-4.1094-0.77734-3.1641-3.5938-5.6289-6.2656-7.3047 0.31641 2.2188-0.1875 4.457-0.13281 6.6602 0.16016 0.98047 0.94531 2.9609 1.3203 3.9258zm7.9766 12.941c-0.32031 0.10156-0.64062 0.19922-0.96484 0.29297 0.44922-0.28125 0.87891-0.50391 1.4062-0.59375 0.40234-0.046875 0.79297-0.007813 1.1914 0.042968-0.52734 0.12891-1.0977 0.17188-1.6328 0.25781zm-0.65625-0.98438c0.62109-0.058594 1.4102-0.089844 1.9883 0.17969l-0.015625 0.035156c-0.30859 0.046875-0.61328 0.015625-0.92188-0.007813-0.73828-0.046875-1.4766 0.089844-2.2148 0.12891 0.38672-0.17188 0.74219-0.27734 1.1641-0.33594zm7.1094-10.426c-0.16406-0.78125 0.60938-2.4141 1.0273-3.0586 0.085937 1.0469-0.17578 2.3672-1.0273 3.0586zm0.03125-5.0703c0.054687 0.28516-0.26562 0.68359-0.375 0.94922-0.22656 0.50391-0.40234 1.043-0.57812 1.5664-0.12891 0.39062-0.38281 1.6758-0.625 1.9023-0.38672-1.2695 0.87109-3.418 1.5781-4.418zm-4.625 4.3477-0.09375-0.003906c-0.16016-0.14844-0.37891-1.3008-0.46484-1.5938-0.30078-1.0547-0.84766-2.0039-1.1562-3.0391 0.90625 1.0742 1.9219 3.2227 1.7109 4.6367zm-2.5-2.75c0.47266 0.66016 0.91016 2.6367 0.85156 3.4375-0.11328-0.007812-0.16016-0.050781-0.23438-0.13281-0.57422-0.63672-0.63672-2.4766-0.61719-3.3047z"/>
 <path d="m29.711 21.832c-0.78906 0.47656-1.418-0.34766-1.3398-1.1133-0.41406 0.28125-0.80469 0.78125-0.45312 1.2695 0.72656 0.76562 2.0039 0.67969 2.6562-0.13672 0.78125-0.91016 0.33984-1.4219-0.74219-1.4922 0.023438 0.082031 0.074219 0.14062 0.125 0.20703 0.32422 0.38672 0.14453 1-0.24609 1.2656z"/>
 <path d="m25.797 27.453 0.21094-0.17188c-0.10156-0.26953-0.20312-0.67578-0.51953-0.75781-0.36328 0.11719-0.72266 0.25391-1.1094 0.25781-0.30859 0.003906-0.82812-0.24609-1.1016-0.14844-0.1875 0.125-0.32422 0.41797-0.23828 0.64453 0.125 0.34375 0.54297 0.54688 0.78516 0.80469 0.0625 0.078125 0.09375 0.15625 0.19531 0.16797 0.19141 0.023438 0.3125 0.050781 0.46875 0.16797 0.59766-0.21094 0.76172-0.85156 1.3086-0.96484z"/>
 <path d="m33.223 81.824c0.39453-3.9492 0.77734-7.6523 0.67969-11.645-0.38672-0.12109-0.77344-0.23828-1.1562-0.38281-0.26562 2.1875-0.39844 4.3359-0.39844 6.5352-0.035156 1.9062 0.10938 3.8828 0.85547 5.6484 0.007813-0.046875 0.019531-0.11328 0.019531-0.16016z"/>
 <path d="m18.629 20.449c-0.11719-0.12891-0.28906-0.078125-0.44141-0.058594-1.3008 0.35938-0.18359 1.918 0.66406 2.125 0.62891 0.1875 1.8984 0.039063 1.8672-0.81641-0.12891-0.4375-0.31641-0.71484-0.63672-1.043 0.25391 0.72266-0.38672 1.8359-1.1797 1.2266-0.20703-0.16797-0.30078-0.41797-0.39062-0.66406 0.03125-0.21875 0.16406-0.56641 0.12109-0.76562z"/>
 <path d="m70.504 72.586c-0.94141-1.5508-1.2578-3.3125-0.84375-5.0898 0.19922-0.85156 0.55469-1.6523 0.91797-2.4414-0.69922-1.4219-1.6289-3.6133-3.2461-4.1602-3.5586-0.70312-6.6602 1.1797-9.7617 2.6328 0.19531 1.8633 0.72656 3.9102 1.5664 5.5898 1.3906 2.9297 3.9336 5.4297 5.375 8.3164 0.96875 2.4766-0.32812 6.5664-1.9453 8.5781-0.46484 0.67969-1.2031 1.0273-1.9492 1.2969-0.99219 0.44531-1.582 1.3203-1.4453 2.4258 0.10156 0.98828 1.3984 0.88672 2.1211 0.76172 0.058593-0.89453 0.33984-1.7891 1.082-2.3516 0.72656-0.42188 1.3711-0.42969 2.1797-0.32812-0.81641 0.17188-1.6172 0.35547-2.1094 1.1094-0.23437 0.41797-0.66797 1.2656-0.28125 1.6836 0.54688 0.15234 3.6445-0.085937 4.1289-0.33984 0.41797-0.21875 0.76562-1.1641 1.0039-1.5703 2.0273-3.0508 3.582-6.4219 4.4219-10 0.23828-0.96875 0.64062-2.2461 0.45312-3.2305-0.25781-1.1016-1.1172-1.9219-1.6641-2.8828zm0.26562 5.8945c-0.023437 0.054687-0.046875 0.082031-0.085937 0.125-0.11328-0.47656 0.41406-1.6992 0.12109-2.7344-0.33984-1.2031-1.4922-1.9258-1.8984-3.5156 0.27734 0.19922 0.47656 0.71094 0.6875 0.99219 0.35938 0.48438 0.78906 0.91406 1.1406 1.4062 0.87109 1.0859 0.53906 2.5547 0.035156 3.7227z"/>
 <path d="m31.09 91.82-0.078125-0.023437c-1.2578 0.16797-1.6836 1.8398-0.83594 2.707 0.097657 0.058594 0.13281 0.10938 0.25 0.085938l-0.03125-0.097656 0.035157 0.007812c-0.035157-0.62891-0.054688-1.2422 0.17578-1.8398 0.082031-0.21094 0.49609-0.67188 0.48438-0.83594z"/>
 <path d="m87.719 71.996c-1.6055-2.1953-2.9336-4.7969-3.5508-7.457-0.82422-3.543 0.066406-7.1094 0.070312-10.684-0.28906-16.934-9.3164-24.566-26.082-22.484-4.5898 0.77734-9.2383 1.1875-13.832 0.19922 1.4922 2.3125 3.0117 4.9414 3.6367 7.6445-2.3906-4.5195-4.8789-9.5469-9.6445-11.957 0.19922 1.0352 0.42969 2.1094 0.4375 3.1641l-0.054687 0.066406c-0.48438-0.085937-0.75391-0.62891-1.0781-0.95703-0.082032 1.8516-0.29297 3.7344-0.76953 5.5273-0.50781-0.88281-1.0977-1.7109-1.6016-2.5938 0.03125 2.2812-0.99219 4.5586-2.4102 6.3086-0.089844 0.09375-0.14453 0.16406-0.26953 0.1875-0.066406-0.25781 0.17969-1.0469 0.22656-1.3672 0.51172-2.8633-1.1094-5.2773-3.8125-6.1836l-0.71484 0.39844c-0.95703 2.5898-3.582 3.332-6 2.2656-1.4062-0.65625-1.4766-2.0625-2.7031-2.8438-1.2422 0.72656-3.0977 1.7109-3.5 3.2031-0.28125 1.0391-0.085937 2.1641-0.21484 3.2227-0.55078 3.8438-2.0078 7.8789-0.32422 11.641 0.011718-0.78125 0.050781-2.0117 0.76562-2.4727l0.054687 0.054687c-0.73047 1.8633-0.085937 3.9297 0.63281 5.6914 0.59766 1.7188 1.6445 3.2109 2.5078 4.793-0.27344-1.4023-0.37891-3.2188 0.62891-4.3789-0.92578 2.8438-0.12891 5.7031 1.8984 7.8594-0.47266-1.4062-0.76562-2.6719-0.20312-4.0977-0.32422 2.9492 1.2773 5.5781 3.1172 7.7383-0.48438-1.0703-1.1641-2.3867-0.78906-3.5703 0.22656 0.19141 0.26172 0.80469 0.32031 1.0938 0.60937 2.8594 2.8047 4.6289 4.9375 6.3281-0.62109-1.0273-1.957-2.9883-1.5195-4.2031l0.058594-0.027343c0.10938 0.050781 0.13281 0.074219 0.17188 0.1875 0.58594 2.6953 3.2148 4.2852 5.7227 4.9297-0.17188-1.8047-0.75781-3.4844-1.582-5.0859-1.5039-2.918-2.9531-4.5078-2.5156-8.0625 0.24609-2.8594 2.0352-5.2109 2.6133-7.9648l0.054688-0.003906c0.41797 1.4258-0.65234 2.8477-1.0703 4.1602-0.89062 2.5312-1.2383 5.5195-0.13672 8.0312 1.082 2.2773 2.6758 4.3516 3.2305 6.8594 1.0039 4.8906 0.13672 9.9336-0.29688 14.848-0.16406 2.1562 0.14062 4.2852-0.66406 6.3438-0.40625 1.0352-0.98438 1.9453-1.6016 2.8672 0.25781 0.085937 0.53906 0.15625 0.77344 0.29688l0.015625 0.054687c-2.5117 0.92188-1.9805 4.6289 0.92578 3.8086 0.089844-0.14844-0.10547-0.87891-0.10938-1.1055-0.019531-1.1172 0.5625-2.4336 1.707-2.7578-0.55078 1.082-1.3906 1.9258-0.96484 3.2578 0.47656 1.5195 2.5273 1.4492 3.6172 0.65625-0.50391-1.1406-0.46875-2.6523 0.59375-3.4609-0.50391 1.3555-0.73438 3.4141 0.98828 3.9688 0.63281-0.23828 1.1133-0.68359 1.3984-1.3047 0.54297-1.1836-0.074219-2.2617-0.23047-3.4492-0.39844-2.3086 0.40625-4.5195 1.6211-6.4414-0.38672-2.3906 0.074219-4.7891 0.67188-7.1055 0.78906-3.2852 1.9648-7.3633 3.4297-10.391 1.2578-2.5742 2.3008-3.7578 1.2773-6.7148-0.80469-2.3164-2.3008-4.457-2.3711-6.9844-0.082031-2.1406 0.72266-5.3203 1.5547-7.2734-0.097657 2.5195-0.97266 5.0195-0.69141 7.5547 0.65625 4.4023 4.7461 7.9414 1.7227 12.465 2.5273-0.46484 4.9297-1.4727 7.2617-2.5234 3.8555-1.6641 9.2266-5.4922 13.445-3.2773 1.9805 1.3555 2.875 4.4492 4.125 6.4414 1.4961 2.375 3.5312 4.3047 5.7539 5.9961 1.5586 1.1367 3.5273 2.2305 3.7617 4.3438 0.50781 2.875-0.35156 8.4883-2.0117 10.859-0.32422 0.46484-0.76953 0.5625-1.2578 0.78906-0.83203 0.38672-1.4844 1.0117-1.7617 1.8984-0.37109 1.3125-0.17969 1.6523 1.1992 1.7148-0.23828-1.7812 0.76562-3.5156 2.5859-3.8633-0.96484 0.8125-1.7617 1.5469-1.875 2.8828-0.25391 1.5664 1.0586 1.8125 2.2578 1.3594-0.21875-2 0.72656-3.9062 3.0039-3.5977-0.86328 0.42188-1.8125 0.82031-2.1602 1.8086-0.16016 0.44922-0.23047 1.3477-0.003906 1.7852 0.76172 1.1797 3.8828-0.11328 4.0156-1.3906 0.17578-0.84375-0.11328-1.7109 0.089844-2.5781 0.22656-0.96484 0.76953-1.8164 1.0547-2.7617 0.70312-3.668 1.6758-7.3125 2.4648-10.949-0.050782-1.332-1.3203-2.1797-2.0039-3.2227zm-69.695-31.23c-0.80859-1.5547-1.1016-3.7344-0.59375-5.4258 0.011718 1.8125 0.078124 3.6602 0.63672 5.418zm2.8438 6.9414c-1.1953-1.6484-2.3555-4.2422-0.89844-6.0547 0.042969 0.007812 0.085938 0.03125 0.12891 0.046875 0.066406 0.34766-0.22656 1.0586-0.26953 1.4453-0.078125 1.2383 0.19141 2.5156 0.71484 3.6367 0.12891 0.29688 0.46094 0.67188 0.44922 0.99609l-0.11719-0.070313zm8.1016-4.5898c-0.074219 1.7578-1.0078 2.7852-1.7695 4.2656-0.32422 0.63281-0.50781 1.332-0.84766 1.957-0.16016-0.84766 0.011719-1.8281 0.13672-2.6758-1.1016 1.832-2.3047 4.3008-1.4727 6.4141-0.10156 0.046875-0.12109 0.039063-0.23047-0.003906-1.1562-0.85938-2.8359-4.3555-3.2383-5.8594 0 0.35156 0.17188 1.2812-0.027344 1.5469l-0.089843-0.011719-0.11719-0.15625c-0.32031-1.3008-0.16797-2.8945 0.44922-4.0859-0.26953 2.7305 1.1641 5.25 2.6367 7.4492-0.058594-1.0312 0.10547-2.0586 0.5-3.0156 0.19141-0.46484 1.4727-3.2539 1.6992-3.3984l0.082032 0.046875c0.16406 0.48047 0.011718 1.3203-0.023438 1.832 0.53516-1.1836 1.3281-2.2422 1.6641-3.5117 0.19141-0.73438 0.12891-1.5 0.32813-2.2148 0.41016 0.3125 0.30859 0.95703 0.32031 1.418zm0.74609-1.7656c0.007812-0.34375 0.70312-1.4844 0.87109-1.9023 0.58203-1.4805 0.78125-2.875 1.1875-4.3906 0.039062 2.2617-0.64063 4.4922-2.0547 6.293zm37.656 14.305-0.30078 0.35938c0.60938-1.293 1.3281-2.5352 1.918-3.8398 2.0703-4.5703 2.2305-8.0977 1.5547-12.988 0.42188 0.36328 0.73438 2.3945 0.8125 3.0352 0.57812 4.7695-1.0469 9.6953-3.9805 13.434zm21.066 21.414c0.13672-1.4102-0.42969-2.3047-1.2109-3.4102 0.50391 0.32422 1.0312 0.86328 1.3047 1.4062 0.49219 1.0117 0.23047 2.2422-0.1875 3.2188-0.066406-0.36328 0.058594-0.84375 0.09375-1.2148z"/>
 <path d="m59.535 87.312c-0.039062-0.046875-0.015625-0.039062-0.0625-0.046875-0.52344 0.10547-0.85156 0.4375-1.1367 0.87109-0.32422 0.52734-0.78906 1.418-0.4375 2.0195l0.13281 0.078125c0.12891 0 0.40625 0.035156 0.5-0.046875-0.22656-1.0859 0.21094-2.125 1.0039-2.8789z"/>
</svg>