<?xml version="1.0" encoding="UTF-8" standalone="no" ?>
<!DOCTYPE svg PUBLIC "-//W3C//DTD SVG 1.1//EN" "http://www.w3.org/Graphics/SVG/1.1/DTD/svg11.dtd">
<svg xmlns="http://www.w3.org/2000/svg" xmlns:xlink="http://www.w3.org/1999/xlink" version="1.1" width="1080" height="1080" viewBox="0 0 1080 1080" xml:space="preserve">
<g transform="matrix(1 0 0 1 540 540)" id="43398d17-495a-4936-87fa-ef60bc61012c"  >
<rect style="stroke: none; stroke-width: 1; stroke-dasharray: none; stroke-linecap: butt; stroke-dashoffset: 0; stroke-linejoin: miter; stroke-miterlimit: 4; fill: rgb(255,255,255); fill-rule: nonzero; opacity: 1; visibility: hidden;" vector-effect="non-scaling-stroke"  x="-540" y="-540" rx="0" ry="0" width="1080" height="1080" />
</g>
<g transform="matrix(1 0 0 1 540 540)" id="af7e3765-b265-453a-a0c3-b085e319ddaa"  >
</g>
<g transform="matrix(11.11 0 0 11.11 543.56 548.95)"  >
<path style="stroke: none; stroke-width: 1; stroke-dasharray: none; stroke-linecap: butt; stroke-dashoffset: 0; stroke-linejoin: miter; stroke-miterlimit: 4; fill: rgb(0,0,0); fill-rule: evenodd; opacity: 1;" vector-effect="non-scaling-stroke"  transform=" translate(-50, -50)" d="M 51.219 56.891 L 43.801 49.473 L 12.430000000000003 80.848 C 11.406600000000003 81.8714 10.898800000000003 83.2152 10.898800000000003 84.5589 L 10.898800000000003 84.554994 C 10.898800000000003 89.26199399999999 16.590200000000003 91.51979399999999 19.844100000000005 88.26589399999999 z M 34.598 39.18 L 33.266 42.137 L 35.9066 48.0042 L 30.039399999999997 45.3636 L 24.172199999999997 48.0042 L 26.812799999999996 42.137 L 24.172199999999997 36.269800000000004 L 30.039399999999997 38.9104 L 35.9066 36.269800000000004 z M 77.39099999999999 60.91 L 76.00429999999999 63.992 L 78.69959999999999 69.9842 L 72.70739999999999 67.2889 L 66.7152 69.9842 L 69.4105 63.992000000000004 L 66.7191 57.99980000000001 L 72.7113 60.69510000000001 L 78.70349999999999 57.99980000000001 z M 49.78199999999999 13.113 L 47.27029999999999 18.6911 L 51.090599999999995 27.1794 L 42.60229999999999 23.3591 L 34.11399999999999 27.1794 L 37.93429999999999 18.6911 L 34.11399999999999 10.202799999999998 L 42.60229999999999 14.023099999999998 L 51.090599999999995 10.202799999999998 z M 87.79799999999999 20.4802 L 84.6535 27.4685 L 89.1066 37.3669 L 79.2082 32.9138 L 69.30980000000001 37.3669 L 73.76290000000002 27.4685 L 69.30980000000001 17.570099999999996 L 79.2082 22.023199999999996 L 89.1066 17.570099999999996 z M 45.652999999999984 47.6172 L 56.63299999999998 36.63719999999999 C 57.656399999999984 35.61379999999999 59.00019999999998 35.105999999999995 60.343899999999984 35.105999999999995 L 60.343899999999984 35.109905999999995 C 63.25409999999999 35.109905999999995 65.58609999999999 37.445806 65.58609999999999 40.348206 L 65.58219299999999 40.348206 C 65.58219299999999 41.695906 65.07047299999999 43.039606 64.05489299999999 44.059106 L 53.07489299999999 55.039106000000004 z" stroke-linecap="round" />
</g>
</svg>
