<?xml version="1.0" encoding="utf-8"?>
<svg height="800px" width="800px" version="1.1" id="Capa_1" viewBox="0 0 56 56" xmlns="http://www.w3.org/2000/svg">
  <polygon style="paint-order: fill; fill: none; fill-rule: nonzero; stroke: rgb(0, 0, 0);" points="49.25,19.75 35,5.5 28,12.5 21,5.5 7.109,19.391 28.012,37.196 "/>
  <path style="stroke: rgb(0, 0, 0); fill: none;" d="M28,45.5c-0.229,0-0.46-0.079-0.646-0.237L2.374,24.126L0,26.5l28,24l28-24l-2.374-2.374 l-24.98,21.137C28.46,45.421,28.229,45.5,28,45.5z"/>
  <path style="stroke: rgb(0, 0, 0); fill: none;" d="M28.635,39.273C28.45,39.424,28.225,39.5,28,39.5c-0.23,0-0.462-0.08-0.648-0.239L5.691,20.809 l-1.898,1.898L28,43.19l24.207-20.483l-1.536-1.536L28.635,39.273z"/>
  <path style="stroke: rgb(0, 0, 0);" d="M3.793,22.707l-1.419,1.419l24.98,21.137C27.54,45.421,27.771,45.5,28,45.5s0.46-0.079,0.646-0.237 l24.98-21.137l-1.419-1.419L28,43.19L3.793,22.707z"/>
  <path style="stroke: rgb(0, 0, 0);" d="M28,39.5c0.225,0,0.45-0.076,0.635-0.227l22.037-18.102L49.25,19.75L28.012,37.196L7.109,19.391 l-1.419,1.419l21.661,18.452C27.538,39.42,27.77,39.5,28,39.5z"/>
</svg>