<?xml version="1.0" encoding="UTF-8" standalone="no" ?>
<!DOCTYPE svg PUBLIC "-//W3C//DTD SVG 1.1//EN" "http://www.w3.org/Graphics/SVG/1.1/DTD/svg11.dtd">
<svg xmlns="http://www.w3.org/2000/svg" xmlns:xlink="http://www.w3.org/1999/xlink" version="1.1" width="1080" height="1080" viewBox="0 0 1080 1080" xml:space="preserve">
<desc>Created with Fabric.js 5.2.4</desc>
<defs>
</defs>
<g transform="matrix(1 0 0 1 540 540)" id="5c99542e-7b30-4f4b-92e5-a4c869a64ac5"  >
<rect style="stroke: none; stroke-width: 1; stroke-dasharray: none; stroke-linecap: butt; stroke-dashoffset: 0; stroke-linejoin: miter; stroke-miterlimit: 4; fill: rgb(255,255,255); fill-rule: nonzero; opacity: 1; visibility: hidden;" vector-effect="non-scaling-stroke"  x="-540" y="-540" rx="0" ry="0" width="1080" height="1080" />
</g>
<g transform="matrix(1 0 0 1 540 540)" id="19416c29-0f8f-42a8-918f-34cf25356206"  >
</g>
<g transform="matrix(1 0 0 1 540 540)"  >
<rect style="stroke: none; stroke-width: 1; stroke-dasharray: none; stroke-linecap: butt; stroke-dashoffset: 0; stroke-linejoin: miter; stroke-miterlimit: 4; fill: rgb(255,255,255); fill-rule: nonzero; opacity: 1; visibility: hidden;" vector-effect="non-scaling-stroke"  x="-540" y="-540" rx="0" ry="0" width="1080" height="1080" />
</g>
<g transform="matrix(1.66 0 0 1.66 539.15 541.12)"  >
<path style="stroke: rgb(0,0,0); stroke-width: 0; stroke-dasharray: none; stroke-linecap: butt; stroke-dashoffset: 0; stroke-linejoin: miter; stroke-miterlimit: 4; fill: rgb(0,0,0); fill-rule: nonzero; opacity: 1;" vector-effect="non-scaling-stroke"  transform=" translate(-350.04, -280)" d="M 541.71 0 L 158.29000000000002 0 C 146.30200000000002 0 136.58700000000002 9.7109 136.58700000000002 21.699 L 136.58700000000002 538.299 C 136.58700000000002 550.287 146.29790000000003 559.9979999999999 158.28600000000003 559.9979999999999 L 541.796 559.9979999999999 C 553.7840000000001 559.9979999999999 563.495 550.2870999999999 563.495 538.299 L 563.498906 21.698999999999955 C 563.412968 9.710999999999956 553.698106 -4.618527782440651e-14 541.709906 -4.618527782440651e-14 z M 519.398 125.12 L 255.49800000000005 383.6 C 253.83390000000006 385.26410000000004 253.74800000000005 387.975 255.41206200000005 389.725 C 256.28706200000005 390.6 257.33786200000003 391.0375 258.47456200000005 391.0375 C 259.52536200000003 391.0375 260.66206200000005 390.6 261.45116200000007 389.8109 L 519.3111620000001 137.2909 L 519.3111620000001 505.2309 C 519.3111620000001 510.9184 514.6744620000001 515.5549 508.98716200000007 515.5549 L 191.36716200000006 515.5549 C 185.67966200000006 515.5549 181.04316200000005 510.91819999999996 181.04316200000005 505.23089999999996 L 181.04316200000005 472.24289999999996 L 211.23116200000004 441.09489999999994 C 212.89526200000003 439.34489999999994 212.80536200000003 436.63399999999996 211.14522400000004 434.96989999999994 C 209.48112400000005 433.3057999999999 206.68432400000003 433.3956999999999 205.02022400000004 435.05583699999994 L 181.04322400000004 459.81783699999994 L 181.03931700000004 351.57783699999993 L 486.679317 49.96783699999992 L 509.07731700000005 49.96783699999992 C 514.764817 49.96783699999992 519.4013170000001 54.604536999999915 519.4013170000001 60.38183699999992 z M 181.12800000000004 339.5 L 181.12800000000004 60.379999999999995 C 181.12800000000004 54.60659999999999 185.76470000000003 49.965999999999994 191.45200000000006 49.965999999999994 L 474.4320000000001 49.965999999999994 z" stroke-linecap="round" />
</g>
</svg>