<?xml version="1.0" encoding="UTF-8"?>
<svg viewBox="125.442 28 449.124 504.005" width="449.124" height="504.005" xmlns="http://www.w3.org/2000/svg" xmlns:xlink="http://www.w3.org/1999/xlink">
  <path d="M 549.92 254.8 C 542.639 101.36 463.678 28 350 28 C 235.76 28 157.36 92.961 149.52 254.8 C 136.079 255.921 125.442 267.12 125.442 280.562 L 125.442 353.363 C 125.442 367.922 137.204 379.125 151.204 379.125 L 168.005 379.125 C 203.841 469.281 282.805 532.005 350.005 532.005 C 414.966 532.005 495.045 469.286 531.445 379.125 L 548.804 379.125 C 563.363 379.125 574.566 367.363 574.566 353.363 L 574.566 280.562 C 574.562 266.562 563.925 255.363 549.925 254.804 L 549.92 254.8 Z M 202.16 238.558 C 202.16 236.32 203.281 234.078 206.082 233.519 C 223.441 229.597 239.121 227.917 253.684 227.917 L 258.723 227.917 C 272.164 228.476 285.602 228.476 297.364 235.757 C 299.044 236.878 300.165 239.117 299.602 241.359 C 299.044 243.597 296.802 245.281 295.122 245.281 C 294.001 245.281 293.442 245.281 292.321 244.722 C 283.923 239.683 272.719 236.882 257.602 236.882 C 240.801 236.882 222.321 240.242 208.321 243.601 L 207.2 243.601 C 204.962 243.601 202.719 241.359 202.161 238.558 L 202.16 238.558 Z M 206.078 278.878 C 206.078 272.159 225.68 265.999 250.316 265.999 C 274.957 265.999 294.554 271.601 294.554 278.878 C 294.554 285.597 274.952 291.757 250.316 291.757 C 225.679 291.761 206.078 285.601 206.078 278.878 Z M 438.478 414.398 C 429.517 421.117 418.876 425.597 408.24 428.957 C 386.4 435.676 364.002 438.477 341.041 439.598 C 330.4 440.157 319.76 440.157 309.119 440.157 C 299.041 440.157 288.4 440.157 279.439 434.555 C 275.517 431.754 272.158 426.715 274.958 422.235 C 276.638 419.997 279.439 419.434 282.798 418.876 C 306.876 415.516 331.517 418.876 355.599 418.876 L 362.318 418.876 C 388.08 417.754 416.638 411.036 432.318 388.638 C 434.556 385.278 437.357 381.356 441.279 379.677 C 445.759 377.997 450.798 379.677 453.599 383.599 C 463.677 395.361 447.997 407.681 438.478 414.4 L 438.478 414.398 Z M 456.958 291.198 C 432.88 291.198 413.278 285.596 413.278 278.319 C 413.278 271.6 432.88 265.44 456.958 265.44 C 481.036 265.44 500.638 271.042 500.638 278.319 C 500.638 285.6 481.036 291.198 456.958 291.198 Z M 502.876 234.077 C 502.317 236.315 500.075 237.436 497.837 237.436 C 496.716 237.436 495.599 236.878 494.477 236.315 C 492.798 234.636 491.118 232.956 488.876 231.276 C 479.915 222.878 469.837 213.917 458.638 213.917 C 454.716 213.917 451.357 215.038 447.997 216.718 C 437.919 222.32 428.958 230.718 419.997 239.116 C 417.759 241.354 415.516 243.597 412.716 245.835 C 411.595 246.956 410.477 246.956 409.356 246.956 C 407.118 246.956 405.434 245.835 404.317 243.597 C 403.759 241.917 404.317 239.675 405.438 238.557 C 408.239 236.319 410.477 233.518 413.278 231.276 C 425.598 219.514 438.477 207.198 455.837 203.835 C 457.517 203.277 459.196 203.277 460.318 203.277 C 473.759 203.277 484.959 213.918 494.478 222.879 C 496.716 225.117 498.958 226.801 500.638 228.48 C 502.876 230.719 503.439 232.398 502.876 234.078 L 502.876 234.077 Z"></path>
</svg>

