<?xml version="1.0" encoding="UTF-8" standalone="no" ?>
<!DOCTYPE svg PUBLIC "-//W3C//DTD SVG 1.1//EN" "http://www.w3.org/Graphics/SVG/1.1/DTD/svg11.dtd">
<svg xmlns="http://www.w3.org/2000/svg" xmlns:xlink="http://www.w3.org/1999/xlink" version="1.1" width="1080" height="1080" viewBox="0 0 1080 1080" xml:space="preserve">
<desc>Created with Fabric.js 5.2.4</desc>
<defs>
</defs>
<g transform="matrix(1 0 0 1 540 540)" id="13595c60-b85e-4e35-85b4-9674708826d7"  >
<rect style="stroke: none; stroke-width: 1; stroke-dasharray: none; stroke-linecap: butt; stroke-dashoffset: 0; stroke-linejoin: miter; stroke-miterlimit: 4; fill: rgb(255,255,255); fill-rule: nonzero; opacity: 1; visibility: hidden;" vector-effect="non-scaling-stroke"  x="-540" y="-540" rx="0" ry="0" width="1080" height="1080" />
</g>
<g transform="matrix(1 0 0 1 540 540)" id="455395f6-9b7b-47a9-a51e-e7ae3bd407a1"  >
</g>
<g transform="matrix(1 0 0 1 540 540)"  >
<rect style="stroke: none; stroke-width: 1; stroke-dasharray: none; stroke-linecap: butt; stroke-dashoffset: 0; stroke-linejoin: miter; stroke-miterlimit: 4; fill: rgb(255,255,255); fill-rule: nonzero; opacity: 1; visibility: hidden;" vector-effect="non-scaling-stroke"  x="-540" y="-540" rx="0" ry="0" width="1080" height="1080" />
</g>
<g transform="matrix(1.77 0 0 1.77 200.75 134.3)"  >
<path style="stroke: none; stroke-width: 1; stroke-dasharray: none; stroke-linecap: butt; stroke-dashoffset: 0; stroke-linejoin: miter; stroke-miterlimit: 4; fill: rgb(0,0,0); fill-rule: nonzero; opacity: 1;" vector-effect="non-scaling-stroke"  transform=" translate(-156.15, -53.84)" d="M 178.02 86.152 L 134.30100000000002 86.152 C 110.72300000000001 86.152 91.53900000000002 66.97200000000001 91.53900000000002 43.402 L 91.53900000000002 32.308 C 91.53900000000002 26.3549 96.35540000000002 21.538 102.30900000000001 21.538 L 209.99900000000002 21.538 C 215.95210000000003 21.538 220.76900000000003 26.3544 220.76900000000003 32.308 L 220.76900000000003 43.402 C 220.76900000000003 66.97200000000001 201.58500000000004 86.152 178.01900000000003 86.152 z M 113.07900000000001 43.078 L 113.07900000000001 43.40222 C 113.07900000000001 55.09722 122.59460000000001 64.61722 134.30200000000002 64.61722 L 178.02100000000002 64.61722 C 189.716 64.61722 199.23200000000003 55.09772 199.23200000000003 43.40222 L 199.23200000000003 43.078 z" stroke-linecap="round" />
</g>
<g transform="matrix(1.77 0 0 1.77 200.75 573.63)"  >
<path style="stroke: none; stroke-width: 1; stroke-dasharray: none; stroke-linecap: butt; stroke-dashoffset: 0; stroke-linejoin: miter; stroke-miterlimit: 4; fill: rgb(0,0,0); fill-rule: nonzero; opacity: 1;" vector-effect="non-scaling-stroke"  transform=" translate(-156.15, -301.53)" d="M 156.15 538.46 C 151.20860000000002 538.46 146.9039 535.0928 145.709 530.2998 L 124.17 444.1478 C 123.95125 443.29233 123.84578 442.4212 123.84578 441.5384 L 123.84578 75.3784 C 123.84578 69.4253 128.66218 64.6084 134.61578 64.6084 C 140.56888 64.6084 145.38578 69.4248 145.38578 75.3784 L 145.38578 440.2084 L 156.15578000000002 483.28639999999996 L 166.92578000000003 440.2084 L 166.92187400000003 75.3784 C 166.92187400000003 69.4253 171.73827400000002 64.6084 177.69187400000004 64.6084 C 183.64547400000006 64.6084 188.46187400000005 69.4248 188.46187400000005 75.3784 L 188.46187400000005 441.5284 C 188.46187400000005 442.41121 188.35640400000005 443.28619999999995 188.13765400000005 444.13779999999997 L 166.59865400000007 530.2898 C 165.39945400000008 535.0906 161.09865400000007 538.4539 156.15365400000007 538.4539 z" stroke-linecap="round" />
</g>
<g transform="matrix(1.77 0 0 1.77 449.06 936.58)"  >
<path style="stroke: none; stroke-width: 1; stroke-dasharray: none; stroke-linecap: butt; stroke-dashoffset: 0; stroke-linejoin: miter; stroke-miterlimit: 4; fill: rgb(0,0,0); fill-rule: nonzero; opacity: 1;" vector-effect="non-scaling-stroke"  transform=" translate(-296.16, -506.15)" d="M 350 538.46 L 242.31 538.46 C 236.3569 538.46 231.54 533.6436 231.54 527.69 L 231.54 516.604 C 231.54 493.02600000000007 250.724 473.84600000000006 274.302 473.84600000000006 L 318.021 473.84600000000006 C 341.587 473.84600000000006 360.771 493.02600000000007 360.771 516.6080000000001 L 360.771 527.69 C 360.771 533.6431 355.9546 538.46 350.00100000000003 538.46 z M 253.078 516.921 L 339.23 516.60459 C 339.23 504.90159000000006 329.7144 495.38159 318.019 495.38159 L 274.3 495.38159 C 262.593 495.38159 253.077 504.90109 253.077 516.60859 z" stroke-linecap="round" />
</g>
<g transform="matrix(1.77 0 0 1.77 449.05 497.22)"  >
<path style="stroke: none; stroke-width: 1; stroke-dasharray: none; stroke-linecap: butt; stroke-dashoffset: 0; stroke-linejoin: miter; stroke-miterlimit: 4; fill: rgb(0,0,0); fill-rule: nonzero; opacity: 1;" vector-effect="non-scaling-stroke"  transform=" translate(-296.15, -258.45)" d="M 317.69 495.38 C 311.7369 495.38 306.92 490.5636 306.92 484.61 L 306.92 119.78000000000003 L 296.15000000000003 76.70200000000003 L 285.38000000000005 119.78000000000003 L 285.38000000000005 484.61 C 285.38000000000005 490.5631 280.56360000000006 495.38 274.61000000000007 495.38 C 268.6564000000001 495.38 263.8400000000001 490.5636 263.8400000000001 484.61 L 263.84390600000006 118.44999999999999 C 263.84390600000006 117.56718999999998 263.9493760000001 116.69219999999999 264.1681260000001 115.8406 L 285.7071260000001 29.688599999999994 C 286.9063260000001 24.891699999999993 291.2071260000001 21.528399999999994 296.14812600000005 21.528399999999994 C 301.089126 21.528399999999994 305.39422600000006 24.895599999999995 306.589126 29.688599999999994 L 328.128126 115.8406 C 328.350786 116.69606999999999 328.456256 117.5672 328.456256 118.44999999999999 L 328.456256 484.59999999999997 C 328.456256 490.5531 323.639856 495.36999999999995 317.686256 495.36999999999995 z" stroke-linecap="round" />
</g>
<g transform="matrix(1.77 0 0 1.77 640.08 134.3)"  >
<path style="stroke: none; stroke-width: 1; stroke-dasharray: none; stroke-linecap: butt; stroke-dashoffset: 0; stroke-linejoin: miter; stroke-miterlimit: 4; fill: rgb(0,0,0); fill-rule: nonzero; opacity: 1;" vector-effect="non-scaling-stroke"  transform=" translate(-403.84, -53.84)" d="M 425.71 86.152 L 381.991 86.152 C 358.413 86.152 339.229 66.97200000000001 339.229 43.402 L 339.229 32.308 C 339.229 26.3549 344.0454 21.538 349.99899999999997 21.538 L 457.68899999999996 21.538 C 463.64209999999997 21.538 468.45899999999995 26.3544 468.45899999999995 32.308 L 468.45899999999995 43.402 C 468.45899999999995 66.97200000000001 449.2749999999999 86.152 425.70899999999995 86.152 z M 360.769 43.078 L 360.769 43.40222 C 360.769 55.09722 370.2846 64.61722 381.992 64.61722 L 425.711 64.61722 C 437.406 64.61722 446.922 55.09772 446.922 43.40222 L 446.922 43.078 z" stroke-linecap="round" />
</g>
<g transform="matrix(1.77 0 0 1.77 640.09 573.63)"  >
<path style="stroke: none; stroke-width: 1; stroke-dasharray: none; stroke-linecap: butt; stroke-dashoffset: 0; stroke-linejoin: miter; stroke-miterlimit: 4; fill: rgb(0,0,0); fill-rule: nonzero; opacity: 1;" vector-effect="non-scaling-stroke"  transform=" translate(-403.85, -301.53)" d="M 403.85 538.46 C 398.90860000000004 538.46 394.6039 535.0928 393.40900000000005 530.2998 L 371.87000000000006 444.1478 C 371.64734000000004 443.29233 371.5418700000001 442.4212 371.5418700000001 441.5384 L 371.5418700000001 75.3784 C 371.5418700000001 69.4253 376.35827000000006 64.6084 382.31187000000006 64.6084 C 388.26547000000005 64.6084 393.08187000000004 69.4248 393.08187000000004 75.3784 L 393.08187000000004 440.2084 L 403.85187 483.28639999999996 L 414.62187 440.2084 L 414.62187 75.3784 C 414.62187 69.4253 419.43827 64.6084 425.39187 64.6084 C 431.34547 64.6084 436.16186999999996 69.4248 436.16186999999996 75.3784 L 436.16186999999996 441.5284 C 436.16186999999996 442.41121 436.05639999999994 443.28619999999995 435.83764999999994 444.13779999999997 L 414.29864999999995 530.2898 C 413.09554999999995 535.0906 408.79474999999996 538.4539 403.85364999999996 538.4539 z" stroke-linecap="round" />
</g>
<g transform="matrix(1.77 0 0 1.77 888.4 936.58)"  >
<path style="stroke: none; stroke-width: 1; stroke-dasharray: none; stroke-linecap: butt; stroke-dashoffset: 0; stroke-linejoin: miter; stroke-miterlimit: 4; fill: rgb(0,0,0); fill-rule: nonzero; opacity: 1;" vector-effect="non-scaling-stroke"  transform=" translate(-543.85, -506.15)" d="M 597.69 538.46 L 490.00000000000006 538.46 C 484.04690000000005 538.46 479.2300000000001 533.6436 479.2300000000001 527.69 L 479.2300000000001 516.604 C 479.2300000000001 493.02600000000007 498.4140000000001 473.84600000000006 521.9920000000001 473.84600000000006 L 565.7110000000001 473.84600000000006 C 589.2770000000002 473.84600000000006 608.4610000000001 493.02600000000007 608.4610000000001 516.6080000000001 L 608.4610000000001 527.69 C 608.4610000000001 533.6431 603.6446000000001 538.46 597.6910000000001 538.46 z M 500.76800000000003 516.921 L 586.9200000000001 516.60459 C 586.9200000000001 504.90159000000006 577.4044000000001 495.38159 565.7090000000001 495.38159 L 521.99 495.38159 C 510.283 495.38159 500.767 504.90109 500.767 516.60859 z" stroke-linecap="round" />
</g>
<g transform="matrix(1.77 0 0 1.77 888.39 497.22)"  >
<path style="stroke: none; stroke-width: 1; stroke-dasharray: none; stroke-linecap: butt; stroke-dashoffset: 0; stroke-linejoin: miter; stroke-miterlimit: 4; fill: rgb(0,0,0); fill-rule: nonzero; opacity: 1;" vector-effect="non-scaling-stroke"  transform=" translate(-543.84, -258.45)" d="M 565.38 495.38 C 559.4269 495.38 554.61 490.5636 554.61 484.61 L 554.613907 119.78000000000003 L 543.8439070000001 76.70200000000003 L 533.0739070000001 119.78000000000003 L 533.0739070000001 484.61 C 533.0739070000001 490.5631 528.257507 495.38 522.3039070000001 495.38 C 516.3503070000002 495.38 511.5339070000001 490.5636 511.5339070000001 484.61 L 511.5339070000001 118.44999999999999 C 511.5339070000001 117.56718999999998 511.63937700000014 116.69219999999999 511.85812700000014 115.8406 L 533.3971270000002 29.688599999999994 C 534.5963270000002 24.891699999999993 538.8971270000002 21.528399999999994 543.8421270000002 21.528399999999994 C 548.7835270000003 21.528399999999994 553.0882270000002 24.895599999999995 554.2831270000003 29.688599999999994 L 575.8221270000003 115.8406 C 576.0408770000003 116.69606999999999 576.1463470000002 117.5672 576.1463470000002 118.44999999999999 L 576.1463470000002 484.59999999999997 C 576.1463470000002 490.5531 571.3299470000002 495.36999999999995 565.3763470000002 495.36999999999995 z" stroke-linecap="round" />
</g>
</svg>