<svg xmlns="http://www.w3.org/2000/svg" xmlns:xlink="http://www.w3.org/1999/xlink" xml:space="preserve" style="shape-rendering:geometricPrecision;text-rendering:geometricPrecision;image-rendering:optimizeQuality;" viewBox="0 0 6827 8533.75" x="0px" y="0px" fill-rule="evenodd" clip-rule="evenodd">
<rect class="fil0" width="6827" height="6827"/><g><path class="fil1" d="M1717 1717c-2,3 -4,5 -7,8 -52,52 -162,26 -246,-57 -84,-84 -109,-194 -57,-246 3,-3 5,-5 8,-7 2,-3 4,-5 7,-8 52,-52 162,-26 246,57 84,84 109,194 57,246 -3,3 -5,5 -8,7zm-721 -721c-1,1 -3,2 -4,3 -4,4 -8,7 -11,12 -597,689 1071,1602 1209,1676 1272,1033 2520,2286 3782,3285 -999,-1262 -2252,-2510 -3285,-3782 -74,-139 -987,-1806 -1676,-1209 -4,3 -8,7 -12,11 -1,1 -2,3 -3,4z"/></g></svg>
