<svg xmlns="http://www.w3.org/2000/svg" xmlns:xlink="http://www.w3.org/1999/xlink" version="1.1" x="0px" y="0px" viewBox="0 0 1000 1250" style="enable-background:new 0 0 1000 1000;" xml:space="preserve"><g><path d="M931.7122803,355.2940979c6.628418,4.6148071,12.7166138,8.8534546,18.8047485,13.0920715   c0.0045166-1.1474915-0.3583984-1.721405-0.8327637-2.1803589c-1.1477661-1.1099854-2.3303833-2.262146-3.5530396-3.1902466   c-10.1992798-7.741272-14.1937866-8.8418274-13.3063354-22.3226013c0.0562134-0.8538818-0.0006714-5.1809998-0.0950928-6.0906067   c-5.2270508-44.2929382-47.1646729-70.6939087-75.3477783-101.1017761   c-46.0238647-42.0454254-7.6146851-79.2013092-56.6893921-116.1222229   c-12.7860718-9.5439987-25.8770142-18.7899628-39.4989014-27.0715103   c-12.5096436-7.6053162-20.447998-17.1278152-22.8540649-32.0822372   c-1.369812-8.5138245-5.0027466-17.2214394-9.6729126-24.5273705c-9.0841064-14.2110786-23.8605957-15.961586-37.1504517-5.6221962   c-6.7768555,4.2446976-11.2982788,15.0044556-20.6914062,11.0273438   C519.4824829-16.4293518,324.8142395,6.3869224,221.1694183,139.5495148   C153.0684967,223.8442841,80.0821304,330.0649719,61.5053635,438.1978455   c-6.7762871,52.3362732-6.5764771,104.8340759-4.6433945,157.3547058   c0.9116936,109.7660522,22.7915039,222.1351929-7.3790627,329.3733521   c30.5511131-25.1817017,64.3211823-34.0388184,103.6105194-24.0113525   C94.1788254,825.4442139,92.768364,724.8148804,80.3142319,633.8153687   C70.0949173,527.5733032,59.463089,412.901001,120.1820145,319.18573   c-38.5996399,83.1262207-37.2758636,176.0655823-27.2039719,265.3800049   c10.9830856,129.0574951,40.9095001,277.2913818,164.5672455,344.5941772   c-21.6349792-24.0500488-33.5813904-52.9506226-43.9478912-84.0362549   c1.4133148,1.1011353,1.8673248,1.3150024,2.1177521,1.6716919c21.1099396,31.401062,44.3795471,61.1170654,76.0481873,82.6715698   c83.7562561,55.6021729,195.8120117,81.543457,289.9831238,37.1595459   c11.571228-4.7594604,21.878418-6.7280273,34.9329834-8.206665c-20.5375977-7.1228027-36.6827393-17.8331909-51.7311401-30.1342773   c-27.0513306-22.112854-53.5712585-44.8772583-80.6771851-66.920105   c-86.0884399-62.7862549-164.5914917-132.6611938-191.1004944-240.4866333   c1.4498901,75.4195557,32.3791809,138.4393921,82.1289062,194.057251   c-41.5732422-24.145752-99.8687744-90.593811-108.4372253-138.8879395   c-17.5645905-88.8810425,10.7541504-222.1096497,121.9884644-223.1322021   c0.206604,0.7007446-39.4778442,33.9434204-52.4776001,56.5660095   c18.7797546-16.868866,37.583252-33.8687439,56.7868347-50.3274841c3.0580444-2.6226501,7.9224854-5.2857666,11.5122986-4.7831421   c19.1817932,2.6855469,38.2237854,6.3699646,58.746582,9.9595032   c-32.3521423,23.1143188-60.750946,46.7241516-86.1194763,76.894989   c100.4687805-100.0901184,181.2947693-128.2302856,313.0292053-171.0302124   c-58.5280151,12.637207-116.1206055,35.9231262-170.8877563,61.3400269   c-3.2183838,1.5585632-7.5065613,1.8778687-11.1347656,1.4380798c-21.70578-3.0897522-43.3326416-6.910675-65.0874634-9.7611389   c95.3786621-57.8070984,209.8739014-55.4831848,317.5303955-59.3508606   c-109.581604-14.8174438-227.9126587-3.664032-323.8345947,55.1603088   c-3.6416016,2.4582214-8.8520203,3.2920837-13.4118347,3.5606079c-20.5904236,1.3562317-41.3676758,0.0625-61.6773987,4.2878723   c25.2294006-18.2113037,55.0219421-24.0934753,83.8989258-32.5636902   c-49.0934143-4.8003845-98.3150635-5.4879761-146.3205872,7.3117981   c-9.9396667,2.5164185-19.9890442,4.6249695-30.0392761,6.6694946c-5.7678528,1.1732788-11.7155457,1.2213745-15.7062073-3.9864807   c-4.7018127-6.2423706-0.8057709-13.2567749,2.0357361-19.2698975   c10.8858643-15.4295959,20.7371826-31.7601624,33.0340881-45.9736023   c11.6824951-13.5031128,25.9319153-24.7854919,39.1450195-37.1308594   c-32.4560852,9.1357727-62.7898254,26.9202576-96.1200104,33.1962585   c-12.3220062,2.0050354-14.564682-13.1637573-11.6564026-22.1601868   c3.2084198-9.2301636,6.0970459-18.7861938,10.8718872-27.217041c16.946579-31.3453979,37.7954559-60.638092,52.9793243-92.877533   c-0.5033875-0.4766083-16.3789673,5.9573822-23.9595032,9.2275543   c-37.6877747,10.5643768,17.5635071-75.4135437,26.1723633-83.8208618   c29.0906982-37.2350235,75.6982117-39.9632416,119.8110046-32.3094864   c16.6774902,2.8936462,47.7124023,13.184166,47.6278992,13.8616638   c-35.8499146,2.4896698-71.0823364-12.6054916-107.0891418-6.1407928   c-40.6152039,6.7909241-70.5605469,55.662178-53.4700623,91.3702621   c3.3643188,7.0292358,3.8084412,15.9487915,3.8157349,23.9980621c0.0204163,22.4656982,7.383667,31.6688995,29.6106262,34.8970642   c30.7759399,3.1069946,62.3173218,3.7279358,92.3868103,10.3011475   c53.099884,12.8825989,102.8997498,29.5752563,155.1372986,47.3284302   c-24.4908447,4.6460571-47.0834961,3.7810669-70.3787231,0.6906128c2.3987122,3.401886,5.587616,4.2760925,8.826355,6.3826294   c23.2658081,12.5549316,48.0109863,21.2708435,73.8884888,26.1056824   c36.704895,7.8551636,66.590332,1.20578,100.1983643-14.1708374c24.0999756-11.0958862,50.4219971-6.952179,75.8345337-3.9872437   c6.1728516,0.625885,12.2516479,2.1795959,20.5410156,3.7122192c-6.7958984-9.2399597-12.3278198-16.7610779-18.1899414-24.7312927   c22.1565552,4.5969543,43.2190552,16.9638977,66.1376343,17.9790039c3.2185669-0.0131226,8.0518188-3.5641785,9.163147-6.6061707   c1.0767822-2.9474487-0.8297119-7.9120483-2.9727783-10.8701172c-2.5911865-3.5768433-6.8935547-5.879425-10.3075562-8.9004822   c-15.5383301-13.7498779-32.1182861-26.5283203-46.2909546-41.5706024   c-36.1621704-39.5133362-80.1691895-69.4196625-127.5256958-93.7498322   c-0.3959961,0.5718231,30.0606689,25.774765,37.8145142,46.9509735   c-18.4336548-10.3425598-36.0301514-19.6765442-56.9827271-23.118576   c-14.1931763-2.5590363-28.4174805-7.1468658-43.0255127-1.128067c-2.3267212,0.9587097-5.9742432-0.045517-8.5459595-1.1888275   c-4.9754028-2.2118683-10.0542603-4.6068268-14.3275757-7.9118805   c-21.6658936-16.7566376-43.09021-33.8257141-64.5674438-50.8253403c-0.3710938-0.2936859-0.346344-1.0876541-1.0734558-3.6358109   c82.4347229,7.7729111,164.155365,22.398407,233.3193054,70.4920197   c54.0067139,38.8171844,112.0089111,73.0897064,158.2509766,121.3681335   c-19.0628052-3.1743469-29.788269,4.8034668-36.3643799,19.5727234c-2.4570312,5.5181885-6.0828247,7.5933533-12.3937378,6.8633118   c-22.3247681-2.5969543-18.0975952,24.444519-13.0654907,37.9988708   c3.7386475,9.910553,11.7454834,15.3946228,23.223877,14.2520752c2.2086182-0.2198181,4.8683472,0.5426941,6.7890625,1.7188721   c4.007019,2.4537659,7.6594238,5.4864807,12.7719116,9.2484741   c-24.9987183,29.6502991-55.4181519,40.0067444-92.1420898,48.0090942   c-2.6898804,0.659668-6.0045776,2.0602722-7.3951416,4.1862183c-7.9559937,12.1625061-22.0923462,38.4422302-21.6151733,39.1510315   c14.0979004-5.2302856,28.1956787-10.4606323,43.5383301-16.152771c-3.9001465,11.4100647-7.5950317,22.219696-11.2897949,33.02948   c5.4031372-8.8846741,10.9360962-17.9575806,13.036438-27.765564c2.2570801-10.5397034,18.5021362-16.9749451,19.197876-16.6835327   c-5.2370605,16.3881531-10.4741821,32.7762146-15.7112427,49.1643677   c9.3449097-15.5945129,16.8899536-31.8132324,19.0059204-50.1001587c0.2280273-1.9709778,0.5591431-4.3323669,1.7574463-5.7255249   c10.2052002-11.8651428,22.456604-20.500061,38.9750366-22.9735718c3.7927856,13.7557373,0.0288696,27.4339905-2.0432129,41.187439   c6.1973267-13.9966125,10.1150513-28.299408,6.1558838-44.1333008c2.4508057-1.1911621,4.84729-2.3558655,7.5863037-3.6871033   c6.8912354,18.54245,3.0029297,36.8543091,1.407959,55.1122131c5.3144531-18.9529724,10.6755981-37.8757019,2.8484497-57.7484741   c2.7158203-0.9498596,4.7321777-1.6551208,7.1710205-2.5080872c1.489624,4.1573486,3.4785156,7.6904907,3.961853,11.4187622   c1.7485352,13.4904175,2.991272,27.0463257,4.2890015,39.2952881c3.3956909-17.3317871,3.4728394-35.8016357-4.493103-52.4620361   c9.1843872-8.7277832,17.5794067-16.7053528,26.5674438-25.24646c4.1871338,4.8943481,13.7246094,14.5338135,14.1248169,14.2473145   c-4.1829834-5.7356567-8.3660278-11.4713135-12.7092285-17.4265137c2.6473999-3.9596252,5.3988037-8.0747375,8.4380493-12.6203918   c7.2185669,5.5753479,21.9121094,15.399231,22.2821045,14.9225464   c-7.0574341-5.932373-14.1148071-11.8646545-21.2745361-17.8829651   C928.0633545,364.8125916,929.7304077,360.4639893,931.7122803,355.2940979z M632.1134644,211.3629761   c16.1855469,0.0327911,15.5908813,23.8743896,0.2717285,24.4298096   C617.0266724,234.9835052,615.6289062,211.9529419,632.1134644,211.3629761z M604.1126099,247.4923553   c17.6225586,38.8962555,64.0786743,24.3730621,70.3607788-12.4508667   c12.1412964,10.1635132,9.6304321,28.978653,22.8397217,36.8172455   c-19.1717529,3.9023132-38.5288696,8.6626892-58.1588135,11.5994263   c-18.3817139,2.7498779-32.8087769-5.2821655-43.1669922-20.5732727   c-6.6462402-9.8115082-10.0420532-20.6977844-10.949646-32.936615   C592.2405396,236.3540497,599.7902222,239.5833893,604.1126099,247.4923553z M439.0476685,166.4842224   c-6.9686584-2.5921631-13.4294128-6.6957092-19.8635864-10.5476379   c-13.8989563-8.3933411-28.7260437-17.1031342-45.6216736-16.5217743   c-10.0053711,1.084137-19.1012878,4.2827606-22.9495544,14.5527039   c-6.660553,18.1963043,12.2260437,28.9062042,23.4167175,39.4598694   c4.3418274,4.2844543,8.0114441,9.2499847,11.9781799,13.9144592c-0.4642944,0.4172821-20.1529846-1.4316254-20.559021-0.6913757   c3.6470947,12.0713959,19.0322571,13.5254669,24.2586975,24.4548187   c-44.0214539,6.1659088-69.84198-23.3841553-76.8945618-63.4384308   c-16.3219604-83.9561539,117.6314392-72.698288,141.5914307-15.7137451   C457.3822021,162.0123596,448.8469543,170.1294098,439.0476685,166.4842224z M726.7769165,76.2810974   c35.3872681,17.5952072,71.0037231,34.9494324,81.9589844,78.2285309   C808.2504272,154.9923401,726.3171997,76.7626343,726.7769165,76.2810974z M893.2969971,398.4908752   c-9.6958008,6.1694031-13.8463745,3.556488-15.7943726-9.2322388c14.5690308,0.6327209,20.5258789-10.125946,27.2593994-20.433197   c6.6965942-10.2507935,14.2667847-19.9309998,21.4539185-29.8614807   C924.9754639,364.2383423,914.8234253,384.7935486,893.2969971,398.4908752z"/><path d="M858.3835449,961.8736572c-7.2527466-12.3857422-15.5753784-24.8968506-22.1343384-38.2728882   c-6.7108154-13.6852417-11.6355591-28.2418213-17.4550171-42.3693237   c-59.6877441-155.6153564-143.8980713-183.00177-260.4169922-281.972168   c43.7139282-88.6239624,113.1380005-155.2709961,193.99646-208.6288452   c-2.4954834,0.1701965-4.6171875,0.8715515-6.4204712,2.057251c-20.5635986,13.520874-42.6898193,25.2622681-61.1027222,41.2701416   c-15.0473022,13.0819092-29.6149292,18.5481567-48.5482178,14.7129517   c-2.4301147-0.4922485-5.9014282-0.1206665-7.7203369,1.3240051   c-14.4563599,11.4811096-45.2612915,36.9277954-45.899231,38.1272278   c15.2091064-1.1626282,31.2740479-2.2858276,48.1740723-3.5776672   c-30.2837524,34.5813904-54.7403564,70.8041077-73.244812,111.9910583   c-16.5170898-18.0097046-27.956543-36.8612061-24.7371216-61.8648071   c-0.7734985-0.2624512-27.1333618,34.9259644-39.9117126,53.3178101   c6.164032-21.9307251,46.7066345-82.0319519,120.7614441-133.6976318   c37.7783813-26.356842,77.3394775-49.1634216,117.3363037-71.6088562   c-1.4133301-0.8799744-2.2643433-0.6967468-3.0491943-0.3597107   c-37.631897,16.1610718-73.5896606,35.375824-106.9970093,59.1531677   c-9.7195435,8.5460205-20.8660278-0.7906189-30.4580078,3.4346619   c-38.7643433,21.6868591-75.9562378,45.6461792-105.425354,79.682251c-1.0349426,1.1953125-3.4553528,3.152771-4.3122253,2.3461914   c46.1267395-66.9198914,144.8398132-108.3407288,216.7176819-142.9528809   c-1.9217529-0.5666199-3.4510498-0.2187195-4.8538818,0.4110107   c-30.5656738,13.7204285-61.0500488,27.6246643-91.7045288,41.1430969   c-12.307251,5.4274292-22.4819336,16.1818237-37.4198608,15.2532959   c-20.2363281,11.855896-40.8955688,24.5026245-59.5701294,38.7298584   c-18.2642517,14.4206543-38.6650696,26.8773804-45.900116,52.5691223   c-7.1330872,25.3292847-11.7266846,49.9974976-6.5819397,76.0912476   c15.8829346,93.2618408,90.2322388,151.874939,158.7462769,208.6311646   c0.5903931-0.5294189,1.1806641-1.0587158,1.7710571-1.5880737c-23.137085-31.5291748-52.7548218-57.1031494-79.4386597-85.4528198   c-35.630188-37.8931274-65.461731-86.9359131-63.1728821-140.8260498   c16.6250305,98.6351318,82.1291199,141.0791626,149.9899597,204.8370361   c36.3327026,33.3137207,70.866272,68.3479004,94.6608276,111.9813232   c10.2062988,18.7156372,27.5410767,22.4017334,45.0530396,29.0718994   c-6.2854614-10.2438965-12.0195923-19.5894165-17.7537231-28.9350586c0.4785767-0.399353,0.9572754-0.7988281,1.4358521-1.1981812   C779.4324951,928.4598389,818.6095581,946.9695435,858.3835449,961.8736572z"/><path d="M721.635498,442.4877014c-4.4671021,5.3783875-9.0723267,8.947937-16.7261353,8.224762   c-8.1451416-0.7696228-16.4099731-0.3476562-24.6210938-0.2786255c-1.4675293,0.0123596-3.3224487,0.4152527-4.3314209,1.3544617   c-11.0986328,10.3314514-32.6322021,32.5257874-32.4146118,33.1688843c13.5450439,0,27.0900879,0,42.6453857,0   c-13.9492798,19.8204041-26.7159424,37.4062195-35.1460571,57.5220642   c28.4602051-41.0350952,57.2409058-82.0992126,92.9949951-117.1680298   c17.3796997-17.2221069,37.052063-32.1305237,55.7180176-48.0546265   C768.0653687,391.04422,743.8212891,416.7773743,721.635498,442.4877014z"/><path d="M660.3513794,386.347168c-1.567688-0.2400513-2.0565186-0.4752502-2.4158325-0.347229   c-35.239502,12.5632324-69.6248169,27.0518494-102.0216675,45.9075012   c-6.0774536,3.5371399-11.9389648,6.4802551-19.2811279,4.4147949c-1.7974243-0.5056458-4.3126831-0.1661682-5.9567871,0.7529602   c-17.0818481,9.5496826-34.0703735,19.267395-51.0180359,29.0545654   c-4.1697083,2.7307129-3.0144653,8.7493591-4.8529968,12.7832031c-4.4699402,11.0427246-13.1140442,33.177063-12.7218628,33.300415   C514.6987305,451.3085327,587.8685303,418.0336304,660.3513794,386.347168z"/><path d="M772.6593628,416.6662598c-0.7668457-0.6156616-15.9813843,13.8577271-21.4076538,22.5889282   c-4.3026123,6.9234009-9.2651978,10.0614319-17.1558838,9.7157898c-2.8468628-0.1246643-6.864502-0.1919556-8.4331055,1.4950562   c-10.3352661,11.1151123-29.4580078,35.4065247-29.12146,36.030304c9.1533203,0,18.3066406,0,28.2481079,0   c-3.9772339,9.2064819-7.4785767,17.3118286-10.9799805,25.4170837   C732.3984375,479.4061279,746.7156982,444.5627747,772.6593628,416.6662598z"/><path d="M734.980896,512.7635498c22.0620117-49.3815308,48.4423218-95.5691528,93.7930908-127.9839783   c-24.9208984,9.1698914-41.6519165,31.1721191-56.9038696,51.7407837   c-3.6488647,5.1979065-7.7565308,8.682373-14.2064209,9.2837219c-1.6605835,0.1547852-4.0443115,0.8266602-4.7164307,2.0309753   c-6.7183228,12.0358276-13.1479492,24.2327576-20.5059204,37.9650574   c5.3202515-0.4509888,8.3512573-0.7079468,11.8328857-1.0031433   C740.359436,494.0325623,734.2645874,512.4394531,734.980896,512.7635498z"/></g></svg>