<?xml version="1.0" encoding="UTF-8" standalone="no" ?>
<!DOCTYPE svg PUBLIC "-//W3C//DTD SVG 1.1//EN" "http://www.w3.org/Graphics/SVG/1.1/DTD/svg11.dtd">
<svg xmlns="http://www.w3.org/2000/svg" xmlns:xlink="http://www.w3.org/1999/xlink" version="1.1" width="1080" height="1080" viewBox="0 0 1080 1080" xml:space="preserve">
<desc>Created with Fabric.js 5.2.4</desc>
<defs>
</defs>
<g transform="matrix(1 0 0 1 540 540)" id="8f14c3f0-fd57-41f4-bfdb-93ee6ca9fd80"  >
<rect style="stroke: none; stroke-width: 1; stroke-dasharray: none; stroke-linecap: butt; stroke-dashoffset: 0; stroke-linejoin: miter; stroke-miterlimit: 4; fill: rgb(255,255,255); fill-rule: nonzero; opacity: 1; visibility: hidden;" vector-effect="non-scaling-stroke"  x="-540" y="-540" rx="0" ry="0" width="1080" height="1080" />
</g>
<g transform="matrix(1 0 0 1 540 540)" id="0e3a65b4-1c84-4f91-91d4-4778dcd33560"  >
</g>
<g transform="matrix(1.33 0 0 1.33 539.08 538.6)"  >
<g style="" vector-effect="non-scaling-stroke"   >
		<g transform="matrix(1.33 0 0 1.33 -36.42 69.58)"  >
<path style="stroke: none; stroke-width: 1; stroke-dasharray: none; stroke-linecap: butt; stroke-dashoffset: 0; stroke-linejoin: miter; stroke-miterlimit: 4; fill: rgb(0,0,0); fill-rule: nonzero; opacity: 1;" vector-effect="non-scaling-stroke"  transform=" translate(-322.69, -332.18)" d="M 190.1 432.52 C 173.56099999999998 437.21139999999997 163.959 454.42199999999997 168.65099999999998 470.961 C 173.34239999999997 487.5 190.54899999999998 497.10900000000004 207.09199999999998 492.41 L 324.132 459.207 C 339.464 454.8554 349.034 439.629 346.3 423.93 L 338.29220000000004 377.899 L 375.6442 414.68 L 417.2692 538.77 C 421.63640000000004 551.786 433.7652 560.004 446.7772 560.004 C 450.0584 560.004 453.3983 559.48056 456.6795 558.379 C 472.97650000000004 552.9102 481.7575 535.27 476.2925 518.969 L 432.3005 387.8190000000001 C 430.7458 383.17840000000007 428.1169 378.9713000000001 424.6286 375.53800000000007 L 325.7336 278.15100000000007 C 327.47580000000005 268.5807000000001 329.9055 258.97100000000006 332.7961 249.49500000000006 C 296.4211 210.07300000000006 298.3741 154.28800000000007 298.4801 151.87400000000008 C 299.06994 138.24900000000008 310.2421 127.57300000000008 323.9141 127.57300000000008 C 324.25394 127.57300000000008 324.58988 127.58081200000008 324.9336 127.59253100000008 C 338.9026 128.1980010000001 349.7926 140.03353100000007 349.2346 153.97953100000007 C 349.226787 154.20609100000007 348.84788 171.50253100000006 355.4416 189.94853100000006 C 357.676 184.69853100000006 359.8361 179.64753100000007 361.8127 174.91753100000005 C 373.7927 152.08153100000004 370.5979 121.14453100000006 350.8437 111.67953100000005 C 348.6289 110.61703100000005 346.24600000000004 109.75373100000006 343.7421 109.07793100000005 C 343.49991 108.99590000000005 343.26554 108.89824100000006 343.01554 108.82402100000004 C 341.71864 108.44511100000004 310.83954 99.62482100000004 274.97654 107.88261100000004 C 241.33554 115.63261100000004 196.80854 139.82761100000005 175.75754 211.12261100000003 C 172.63644 221.67361100000002 178.66774 232.75561100000004 189.21854000000002 235.86861100000004 C 191.10134000000002 236.42330100000004 192.99974000000003 236.68892100000005 194.87084000000002 236.68892100000005 C 203.47244 236.68892100000005 211.40984000000003 231.07172100000005 213.96884 222.40392100000005 C 225.19184 184.40392100000005 245.28484 160.04892100000006 273.70684 149.77092100000004 C 250.90984 190.73992100000004 241.80084 221.44692100000003 237.31584 273.12092100000007 C 237.01506 301.9139210000001 249.89784 315.14792100000005 265.37484 321.96492100000006 L 280.15984000000003 406.9689210000001 z" stroke-linecap="round" />
</g>
		<g transform="matrix(1.33 0 0 1.33 38.76 -97.13)"  >
<path style="stroke: none; stroke-width: 1; stroke-dasharray: none; stroke-linecap: butt; stroke-dashoffset: 0; stroke-linejoin: miter; stroke-miterlimit: 4; fill: rgb(0,0,0); fill-rule: nonzero; opacity: 1;" vector-effect="non-scaling-stroke"  transform=" translate(-379.08, -207.16)" d="M 343.76 153.77 C 344.1975 142.809 335.6858 133.55100000000002 324.717 133.07500000000002 C 313.72499999999997 132.64141 304.428 141.1219 303.95099999999996 152.11400000000003 C 303.84552999999994 154.50070000000002 301.8533 210.95400000000004 339.68899999999996 248.79800000000003 C 361.23999999999995 270.353 390.58 281.25100000000003 426.97799999999995 281.25100000000003 C 429.6732999999999 281.25100000000003 432.4077 281.192406 435.18499999999995 281.07131000000004 C 446.17699999999996 280.59865 454.7049999999999 271.30181000000005 454.22799999999995 260.30931000000004 C 453.75533999999993 249.31731000000005 444.5053 240.80531000000005 433.46599999999995 241.26631000000003 C 404.989 242.49291000000002 382.96999999999997 235.61011000000002 368.04799999999994 220.80931000000004 C 342.69599999999997 195.65731000000005 343.73599999999993 154.52031000000005 343.75899999999996 153.77031000000005 z" stroke-linecap="round" />
</g>
		<g transform="matrix(1.33 0 0 1.33 108.55 -237.06)"  >
<path style="stroke: none; stroke-width: 1; stroke-dasharray: none; stroke-linecap: butt; stroke-dashoffset: 0; stroke-linejoin: miter; stroke-miterlimit: 4; fill: rgb(0,0,0); fill-rule: nonzero; opacity: 1;" vector-effect="non-scaling-stroke"  transform=" translate(-431.42, -102.21)" d="M 442.68 47.324 C 472.992 53.5428 492.524 83.16 486.305 113.472 C 480.08230000000003 143.784 450.469 163.316 420.15700000000004 157.093 C 389.845 150.8742 370.31300000000005 121.261 376.53200000000004 90.948 C 382.75100000000003 60.63499999999999 412.36800000000005 41.10399999999999 442.68000000000006 47.32299999999999" stroke-linecap="round" />
</g>
		<g transform="matrix(1.33 0 0 1.33 -34.95 -332.23)"  >
<path style="stroke: none; stroke-width: 1; stroke-dasharray: none; stroke-linecap: butt; stroke-dashoffset: 0; stroke-linejoin: miter; stroke-miterlimit: 4; fill: rgb(0,0,0); fill-rule: nonzero; opacity: 1;" vector-effect="non-scaling-stroke"  transform=" translate(-323.79, -30.83)" d="M 299.75 31.102 C 296.6523 49.063 317.359 36.5864 348.145 41.0981 C 339.1216 20.660100000000003 303.03999999999996 12.016100000000002 299.75 31.102000000000004 z" stroke-linecap="round" />
</g>
		<g transform="matrix(1.33 0 0 1.33 15.61 -350.03)"  >
<path style="stroke: none; stroke-width: 1; stroke-dasharray: none; stroke-linecap: butt; stroke-dashoffset: 0; stroke-linejoin: miter; stroke-miterlimit: 4; fill: rgb(0,0,0); fill-rule: nonzero; opacity: 1;" vector-effect="non-scaling-stroke"  transform=" translate(-361.71, -17.48)" d="M 373.11 34.965 C 379.93420000000003 18.633000000000003 365.22720000000004 -6.815999999999995 352.46500000000003 1.6990000000000052 C 340.449 9.714600000000004 358.91420000000005 14.808000000000005 373.11 34.965 z" stroke-linecap="round" />
</g>
		<g transform="matrix(1.33 0 0 1.33 -21.09 -278.48)"  >
<path style="stroke: none; stroke-width: 1; stroke-dasharray: none; stroke-linecap: butt; stroke-dashoffset: 0; stroke-linejoin: miter; stroke-miterlimit: 4; fill: rgb(0,0,0); fill-rule: nonzero; opacity: 1;" vector-effect="non-scaling-stroke"  transform=" translate(-334.18, -71.14)" d="M 317.07 72.914 C 317.26531 85.539 329.76099999999997 74.3867 351.3 73.51166 C 342.5344 60.75366000000001 316.85900000000004 59.499660000000006 317.07 72.914 z" stroke-linecap="round" />
</g>
		<g transform="matrix(1.33 0 0 1.33 186.22 -92.75)"  >
<path style="stroke: none; stroke-width: 1; stroke-dasharray: none; stroke-linecap: butt; stroke-dashoffset: 0; stroke-linejoin: miter; stroke-miterlimit: 4; fill: rgb(0,0,0); fill-rule: nonzero; opacity: 1;" vector-effect="non-scaling-stroke"  transform=" translate(-489.67, -210.44)" d="M 525.68 186.04 C 516.1955999999999 176.083 500.44199999999995 175.7 490.48499999999996 185.17672 C 490.28187999999994 185.37203 490.10608999999994 185.57906 489.91077999999993 185.77828 L 471.6687799999999 158.52428 L 468.4656799999999 160.43838 L 482.3446799999999 183.67238 L 493.6766799999999 202.64938 L 498.89147999999994 199.19628 L 492.40317999999996 189.50488 C 500.69617999999997 182.98928 512.73518 183.72758000000002 520.15318 191.51658 C 527.72738 199.47358 527.70398 211.87158 520.34068 219.82158 C 520.1688 219.63017000000002 520.0203700000001 219.42705 519.84068 219.23955 C 516.16098 215.37625 511.55948 212.92315000000002 506.70768000000004 211.88795000000002 C 509.05538 212.98175 511.24288 214.50515000000001 513.13738 216.49345000000002 C 521.25848 225.02075000000002 520.92648 238.50945000000002 512.40301 246.63045000000002 C 503.87570999999997 254.74765000000002 490.38301 254.41565000000003 482.26601 245.89217000000002 C 478.41441 241.84917000000002 476.49261 236.68517000000003 476.41441 231.50917 C 475.82066 234.30997000000002 475.71909999999997 237.18497000000002 476.07457 240.02477000000002 C 470.36757 240.22399000000001 464.60557 238.09897 460.35557 233.63417 C 452.47277 225.36077 452.79697 212.25917 461.07041 204.38017000000002 C 463.94541 201.64187 467.40630999999996 199.91927 471.02741 199.14967000000001 L 474.21101 210.54467000000002 L 480.23051 208.83377000000002 L 473.40630999999996 188.48577 L 464.59770999999995 162.21577 L 461.05080999999996 163.40716999999998 L 469.34380999999996 193.10617 C 464.10551 193.82882999999998 459.03180999999995 196.11786999999998 454.90980999999994 200.03977 C 444.45680999999996 209.99287 444.05080999999996 226.53977 454.00746999999996 236.99677 C 460.18717 243.49287 468.91346999999996 246.09837 477.14046999999994 244.76627 C 478.28496999999993 248.27016999999998 480.17956999999996 251.58266999999998 482.89046999999994 254.43036999999998 C 492.6092699999999 264.63336999999996 508.75746999999996 265.03236999999996 518.9644699999999 255.31708999999998 C 528.0035699999999 246.71158999999997 529.3314699999999 233.07108999999997 522.7808699999999 222.97308999999998 C 523.48399 222.43402999999998 524.1714699999999 221.85589 524.82777 221.23089 C 534.77307 211.75429 535.15977 196.00089 525.6793299999999 186.03988999999999 z" stroke-linecap="round" />
</g>
</g>
</g>
</svg>