<svg xmlns="http://www.w3.org/2000/svg" xmlns:xlink="http://www.w3.org/1999/xlink" version="1.1" x="0px" y="0px" viewBox="0 0 1000 1250" style="enable-background:new 0 0 1000 1000;" xml:space="preserve"><g><path d="M812.2453613,245.4100342c-33.7078857,21.6421509-68.1353149,40.7716064-105.7625732,52.3278809   c-55.5546875,17.0622253-100.7030029,51.0086365-145.6852417,85.5380249   c-21.2166138,16.286377-41.2073975,34.0819092-61.3899231,52.6409302   c-9.0263977-8.0326843-17.9525757-16.0474548-26.9550171-23.975647   c-44.6508179-39.3225098-92.5826721-73.9402771-145.4906921-101.4251404   c-5.3659973-2.7875366-10.8182678-5.2211304-16.6624451-6.9208069   c-43.6174622-12.6852417-83.4316559-33.4275818-121.8973541-57.8766632   c-3.8422241,2.9073181-6.5103149,7.0057983-9.0110016,11.0595551   c-42.351532,68.6530762-54.3237152,141.3822632-25.9871368,218.0515137   c29.1408691,78.8454285,107.7310028,127.3561096,191.4992828,119.6231384   c30.1190186-2.7803345,57.9839478-12.5152588,82.3589478-31.4338989   c-1.9304504,5.4636841-5.4117737,9.9015503-9.0284424,14.1503296   c-24.422821,28.6914673-55.9967651,44.1385498-92.9825745,48.1260376   c-66.2950134,7.147583-120.0831146-18.6260986-164.2937775-66.0170288   c-89.2898178-95.7128601-76.8936691-240.7155457,3.8071899-325.7198486   c0.6270905-0.6605225,1.1690674-1.4019318,2.105423-2.5345612   C105.4041138,178.7644958,77.1597519,114.629776,96.5877075,33.4437332   C109.833786,118.8708801,157.049881,180.4483795,230.3274078,224.25354   c-1.2294312-1.4464569-2.2015839-2.7177277-3.3080139-3.8587036c-1.2938843-1.3344116-2.7151642-2.5443726-4.0634613-3.8270569   c-24.8797607-23.6686096-48.0224152-48.7711487-63.3292236-79.9595642   c-19.7434845-40.2285614-23.9560394-82.0807571-12.072937-125.4138794   c0.2978973-1.0861521,0.8155823-2.1119976,1.6416321-4.2090416   c15.0852203,85.8289185,68.6977844,140.9428558,139.6810608,181.5845337   c139.8789673-23.8933105,279.6463623-24.2299652,422.2244873,0.0174103   c3.3070068-2.2093658,9.1561279-5.9299011,14.8096313-9.9272003c22.383606-15.826416,45.6541138-30.5122375,64.3294067-51.0524597   c30.8952637-33.9804306,51.3035278-73.1899109,59.9520874-118.5984116   c2.4190063,1.8753948,2.1903076,4.9843111,3.0264282,7.5418425c0.9328003,2.8530769,1.4909058,5.8479424,1.9995728,8.8174782   c9.2120972,53.7761841-4.3326416,101.7267761-36.9855957,144.8434753   c-14.3643188,18.9674835-31.1520996,35.6872559-48.4474487,52.5359039   c14.7613525-2.9229431,71.2810669-52.5073242,89.4794312-78.8159485   c23.1921997-33.5281372,37.458313-70.620079,43.5202026-110.8418198   c18.8588867,80.291481-8.352478,144.7359619-69.4684448,197.8884888   c11.6688232,12.7310333,21.8658447,26.1846008,30.72052,40.6729736   c53.5587769,87.6352844,47.55896,198.5585938-15.855957,276.7811279   c-33.0355225,40.7495728-74.8321533,68.1729736-127.4640503,76.1469116   c-46.4951172,7.0440674-89.227356-2.1251221-125.8493042-33.3458252   c-9.640686-8.218811-17.6339111-17.7998047-24.0565186-28.7463379c0.4584351-0.192627,0.9486694-0.5366821,1.0770264-0.4329834   c34.1538086,27.5847168,73.8363647,37.0830078,116.4349365,32.2145386   c75.2484741-8.5998535,128.9153442-48.1157227,157.2166748-118.6445007   c24.2630005-60.4646912,18.6099854-121.1105042-5.2238159-180.6875305   C833.2982788,277.3956299,824.0558472,261.0698853,812.2453613,245.4100342z M683.6246338,217.7970428   c-34.1213989,6.6656799-62.8380127,20.4507446-91.4741821,39.7581024   c-31.1630249,21.0109863-62.0376587,42.4456482-93.1953125,63.4661865   c-30.3139954-20.5057678-60.3579407-41.3390198-90.45047-62.1576843   c-28.4063721-19.6522369-58.6566772-34.8399963-92.8798523-41.0666046   c64.4950562,55.3986053,120.5972595,117.4460907,183.9319153,172.0346832   C563.5067139,335.7532654,617.9572144,272.2755432,683.6246338,217.7970428z"/><path d="M443.3135681,547.4578857c12.3110046-25.1037598,24.4632874-49.8839417,36.8777161-75.1986084   c-12.9454346-10.1280212-25.4523621-20.7122192-39.6065674-30.4395752c-1.5840149,4.186676-2.8568726,7.82547-4.322998,11.3846436   c-19.2710876,46.7822571-67.8747253,74.7845459-119.1989136,68.7044678   c-46.3399963-5.4894409-88.4451599-47.4621582-95.7634583-95.2288818   c-4.1811371-27.2905884-0.1735992-53.208313,12.1932983-77.8650818c0.9267578-1.8477173,1.7637329-3.7405396,2.8288269-6.0093384   c-22.9626465-21.196106-35.8027496-47.1104431-37.0175781-78.5725098c1.7971802,0.4867554,1.9061127,2.0749512,2.405304,3.2038879   c18.6478729,42.1710205,49.9731445,70.3315735,94.5393066,81.9238281   c72.9486084,18.974823,134.7015991,56.9691467,189.3270569,107.8030701   c4.4033508,4.0977173,8.9191895,8.0744629,13.7426758,12.4327087c9.3183899-8.2990112,18.3867188-16.5457764,27.6364746-24.5838318   c41.194397-35.79776,85.9712524-65.7277222,137.8722534-83.9669189   c18.3950806-6.4644165,37.5766602-10.5071106,55.6710205-17.8453369   c35.4501343-14.3768005,61.0028687-39.1912537,77.0128784-73.8907776c0.7581787-1.6430969,1.5172119-3.2857971,2.4561157-5.3190002   c2.0626221,25.179657-11.6226196,56.6920776-36.9257812,79.1408386   c5.4880981,11.5039978,10.6079712,23.3463135,13.463562,36.0794373   c13.9481812,62.1940918-23.9944458,125.2805786-84.6149902,140.4080505   c-55.2687988,13.7918091-114.3226318-18.8468628-132.3187866-73.1291504   c-0.4214478-1.2709351-0.196106-2.8482361-2.4918823-4.0677795c-12.6557617,9.7835693-25.6019287,19.791687-38.987915,30.1398315   c12.3842163,25.3022461,24.6108398,50.2823792,37.0153809,75.6261902   c-18.2828979,43.0464478-36.65625,86.3059692-55.7788086,131.3293457   C480.2218628,634.4732666,461.8745728,591.2174683,443.3135681,547.4578857z M268.4475708,364.7409973   c-26.5879669,40.15271-5.8129272,98.2817688,38.665863,114.8605957   c42.8445435,15.969696,98.6863708-15.3122559,100.269043-63.2602844   c-5.1977539-3.4923706-10.513031-7.0636597-16.0862427-10.8082581   c-3.6007385,31.4161682-27.0334167,59.947113-60.618927,59.1018982   c-34.5742188-0.8701477-63.6442261-39.5751953-52.0281067-72.8622742   c9.9441833,2.4005127,19.9444885,4.8145142,30.2115173,7.2929077c1.2199707-7.2567749,4.6200256-13.2406311,4.6312561-20.2240601   C298.2982788,374.3697205,283.248291,370.5592346,268.4475708,364.7409973z M730.571167,364.2719421   c-14.7063599,6.6801758-30.2188721,9.7510071-45.354248,14.5452576c1.6841431,6.9173279,3.2606812,13.3926392,4.9420776,20.2987976   c10.3718262-2.6089478,20.3858032-5.1278381,30.367981-7.6388245   c10.2416992,31.0591736-13.4818726,65.7969971-44.3832397,72.1524048   c-37.0095825,7.6116638-65.7747803-23.4654236-68.194519-58.1492004   c-6.3745117,4.0789185-11.7738647,7.5338745-17.1171875,10.9530029   c5.1825562,47.1610718,53.3543701,79.5001221,98.8076172,63.7195435   C734.5980835,464.5441589,757.5368042,404.9332581,730.571167,364.2719421z"/><path d="M440.1628113,982.4978638c-38.3320923-16.3175049-67.9039001-43.65979-95.9494019-73.9959106   c2.7670898,9.2893066,5.3451538,18.6403198,8.3537903,27.850647c3.0965271,9.4796143,6.3640442,18.9202271,10.0158997,28.1970215   c3.6155396,9.1846924,7.8040771,18.1438599,12.1349182,28.1077271   c-10.3137817-4.5675049-19.1370544-9.9801025-27.7266846-15.7264404   c-90.0541382-60.2445679-163.3824005-136.1444092-214.8194122-232.0061035   C92.2927094,670.6031494,79.473053,590.8709106,87.669426,507.3782349c0.3852692-3.9245911,1.14505-7.8145142,1.7983475-11.7092285   c0.1903763-1.1349182,0.6164627-2.2303772,1.0613098-3.7878418c2.8862915,2.2000732,3.7202225,5.3881531,5.2174683,8.0544128   c29.4927292,52.5193176,66.2515106,98.8191223,115.5466919,134.2367859   c32.1187286,23.0766602,67.4737244,38.8922729,106.5683899,45.914978c2.0278625,0.3641968,3.9996643,1.039978,6.0713196,1.59021   C313.2844238,801.1478271,356.4777222,899.5498657,440.1628113,982.4978638z M313.1298218,919.0524292   c-18.8562927-33.6776733-36.0081482-68.4682007-48.2453613-105.1431885   c-12.2974548-36.8555908-19.7495728-75.1691895-23.9729767-113.7497559   c-7.5754547-4.5195312-15.1436768-9.034729-23.5717316-14.0629883   c0.4573669,38.359314,5.4354553,74.6201782,14.8901367,110.3996582   c-34.6559296-44.8182983-56.1121979-95.2330933-65.2243805-150.2720947   c-9.9766388-8.1543579-19.8356323-16.4130249-29.624939-24.7908936   C150.3847504,749.1335449,220.7509155,840.5675049,313.1298218,919.0524292z"/><path d="M674.7442017,681.8345337c113.1660156-20.8621216,181.2692871-95.8441772,234.3544312-190.2030334   c3.755127,9.2490234,3.8409424,21.1294861,4.4868164,30.9828796c0.7258911,11.0736694,1.1461792,22.161499,1.095459,33.2601318   c-0.0881958,19.2937012-1.4820557,38.5836182-4.2493286,57.6791382   c-5.5568237,38.3443604-16.7285767,75.7602539-32.7687378,111.0164795   c-32.9447021,72.4127197-86.0354614,136.9847412-144.4823608,190.4074097   c-32.8230591,30.0015869-68.8486938,56.4351807-107.7352295,78.0371704   c13.1207886-27.7355957,22.4985962-55.1552734,28.6288452-83.7639771   c-25.8670654,29.0460815-56.8615723,58.9205933-93.7044678,73.2699585   c37.2349243-41.1783447,70.0177002-83.3132324,91.1396484-135.1567993   C672.9153442,794.8232422,680.1152344,738.1567993,674.7442017,681.8345337z M685.1196899,918.4798584   c2.8215942,0.1045532,3.690979-1.4729004,4.8840942-2.4424438c16.6293335-13.512207,32.43927-27.9324951,47.2634888-43.3998413   c48.9770508-51.102478,88.9123535-107.895813,110.3269043-176.2515869   c7.4848633-23.8919067,12.0765991-48.3486938,14.4509888-74.5515747   c-8.5396729,7.2315674-15.9190063,13.8892822-23.7625732,19.9456787   c-3.7722168,2.9124756-5.7687988,6.1645508-6.6183472,10.7728882   c-8.1904907,44.4312134-25.0652466,85.4295044-49.3724976,123.4122925   c-4.7246094,7.3828125-9.6538696,14.6717529-16.0906982,21.0211792   c5.3389893-17.8323364,9.1213989-35.9146729,11.5223999-54.2661133   c2.3968506-18.3199463,3.9893799-36.6984253,3.4708862-56.3207397c-4.7277832,2.9627075-8.3948975,5.2966919-12.0983276,7.5714111   c-3.7247925,2.2878418-7.4859619,4.5166626-11.1255493,6.7078247   C750.6964722,779.0407104,726.3221436,851.2384644,685.1196899,918.4798584z"/><path d="M572.5946045,735.9514771c32.925293,37.6749878,44.5279541,88.8676758,27.7652588,136.5539551   c-15.0479736,42.8080444-52.0412598,73.3127441-94.1373596,87.8406372   c29.2679749-26.3609619,57.5435486-58.6046753,70.7442322-96.2890625   C591.5640259,822.3853149,587.2584839,776.9108887,572.5946045,735.9514771z"/><path d="M491.554657,959.6542969c-48.2974548-19.0375366-85.2705688-49.0059204-96.6466675-101.6120605   c-9.77948-45.2230225,0.7846069-86.3602295,31.4135132-122.0834351   C393.9813538,826.3962402,421.0326233,899.2312012,491.554657,959.6542969z"/><path d="M487.9099121,912.9379883c-49.76651-33.2080688-66.7968445-124.2697144-17.947052-175.8711548   C449.355011,798.4852295,456.7711182,856.4135132,487.9099121,912.9379883z"/><path d="M510.4537048,913.4921875c28.4844666-45.281189,42.1567078-113.876709,19.8819885-174.5578613   C575.8495483,771.265564,564.1435547,880.0552368,510.4537048,913.4921875z"/></g></svg>