<svg xmlns="http://www.w3.org/2000/svg" xmlns:xlink="http://www.w3.org/1999/xlink" version="1.1" x="0px" y="0px" viewBox="0 0 100 125" enable-background="new 0 0 100 100" xml:space="preserve"><path d="M1542.363,1223.328c-1.89-1.79-4.609-2.471-7.14-1.76c-0.2,0.06-0.319,0.27-0.26,0.47c0.05,0.2,0.26,0.319,0.46,0.26  c2.27-0.63,4.7-0.03,6.41,1.57c0.08-0.101,0.17-0.2,0.27-0.3C1542.193,1223.479,1542.273,1223.398,1542.363,1223.328z   M1531.953,1227.388c-0.149,0.14-0.149,0.39,0,0.53c0.141,0.15,0.381,0.15,0.53,0c2.03-2.02,5.091-2.43,7.62-1.24  c0.07-0.24,0.17-0.47,0.301-0.699C1537.594,1224.678,1534.203,1225.138,1531.953,1227.388z M1556.164,1238.208  c1.609,1.7,2.199,4.13,1.569,6.399c-0.06,0.201,0.061,0.41,0.26,0.461c0.04,0.01,0.07,0.02,0.101,0.02c0.17,0,0.32-0.109,0.37-0.279  c0.71-2.531,0.04-5.23-1.761-7.131c-0.069,0.08-0.149,0.17-0.229,0.25C1556.374,1238.027,1556.273,1238.128,1556.164,1238.208z   M1552.113,1247.548c-0.149,0.15-0.149,0.39,0,0.53c0.07,0.08,0.17,0.12,0.271,0.12c0.09,0,0.19-0.04,0.26-0.12  c2.25-2.25,2.71-5.63,1.41-8.44c-0.22,0.12-0.45,0.22-0.69,0.3C1554.544,1242.468,1554.134,1245.527,1552.113,1247.548z   M1513.743,1252.729c0.11-0.061,0.221-0.121,0.341-0.181c0.49-1.69,1.409-3.29,2.75-4.64c3.38-3.37,7.67-6.561,11.68-9.21  c-0.2-0.3-0.4-0.601-0.64-0.87l-0.2-0.25c-0.28-0.33-0.58-0.69-0.84-1.07c-5.021,3.35-10.351,7.34-14.561,11.551  c-2.74,2.729-4.09,6.279-4.1,9.819C1510.054,1255.498,1511.874,1253.809,1513.743,1252.729z M1561.993,1232.607  c-0.63-0.539-1.439-1.18-2.239-1.43h-0.011c0.03,0.34,0.04,0.67,0.03,1.021c-0.03,0.92-0.21,1.829-0.52,2.7  c0.15,0.02,0.29,0.029,0.439,0.029c0.221,0,0.431-0.02,0.641-0.05c0.399-0.05,0.81-0.13,1.17-0.33  C1562.174,1234.188,1562.693,1233.198,1561.993,1232.607z M1526.654,1265.918c0.739-1.28,1.51-3.16,1.649-4.65  c0.12-1.16-0.55-3.76-2.149-3.76h-0.03c-1.71,0.04-3.021,2.12-3.8,3.36c-1.791,2.81-3.581,5.67-4.471,8.909  c-0.15,0.561-0.27,1.181,0,1.711c0.28,0.56,0.94,0.85,1.561,0.85c0.1,0,0.189,0,0.289-0.02c0.69-0.101,1.29-0.51,1.841-0.94  C1523.483,1269.878,1525.424,1268.048,1526.654,1265.918z M1527.613,1262.578c-0.14,0.25-0.449,0.34-0.699,0.199  c-0.25-0.14-0.34-0.459-0.19-0.709c0.14-0.25,0.45-0.33,0.7-0.19S1527.764,1262.338,1527.613,1262.578z M1527.424,1260.488  c0.25,0.14,0.33,0.449,0.189,0.699c-0.14,0.25-0.449,0.34-0.699,0.2c-0.25-0.149-0.34-0.46-0.2-0.71  C1526.863,1260.428,1527.174,1260.348,1527.424,1260.488z M1525.874,1259.598c0.14-0.24,0.46-0.33,0.71-0.189  c0.25,0.14,0.33,0.46,0.189,0.71c-0.14,0.25-0.46,0.33-0.71,0.19C1525.824,1260.168,1525.733,1259.848,1525.874,1259.598z   M1524.523,1259.428c0.141-0.25,0.45-0.34,0.7-0.199c0.25,0.149,0.34,0.459,0.2,0.709c-0.15,0.25-0.46,0.34-0.71,0.19  C1524.464,1259.988,1524.374,1259.678,1524.523,1259.428z M1523.514,1260.838c-0.25-0.14-0.33-0.46-0.189-0.71  c0.14-0.24,0.459-0.33,0.699-0.19c0.25,0.141,0.34,0.461,0.2,0.711S1523.764,1260.979,1523.514,1260.838z M1524.063,1261.568  c0.38-0.67,1.13-0.971,1.66-0.66c0.54,0.31,0.67,1.1,0.28,1.77c-0.38,0.67-1.13,0.971-1.66,0.66  C1523.804,1263.038,1523.674,1262.238,1524.063,1261.568z M1532.514,1232.888c0.811,0.53,1.51,1.23,2.07,2.04  c1.979-1.16,3.619-2.05,4.659-2.609c-0.319-0.95-0.479-1.971-0.439-3.021c0-0.021,0.01-0.04,0.01-0.069  C1537.094,1230.178,1534.924,1231.428,1532.514,1232.888z M1530.674,1244.448c-0.03,0.31-0.07,0.63,0.04,0.92  c0.16,0.47,0.68,0.739,1.18,0.739c0.1,0,0.2-0.01,0.3-0.029c0.59-0.13,1.061-0.561,1.431-1.03c0.52-0.67,0.88-1.44,1.149-2.239  c0.7-2.101,0.71-4.461-0.229-6.461c-0.74-1.59-2.12-2.91-3.771-3.51c-0.34-0.12-0.74-0.18-1.149-0.18c-1.11,0-2.32,0.46-2.631,1.529  c-0.35,1.16,0.681,2.221,1.46,3.15C1530.084,1239.298,1530.904,1241.908,1530.674,1244.448z M1547.834,1220.258h0.31  c0.24,0,0.48,0.01,0.71,0.03v-0.011c-0.25-0.799-0.89-1.609-1.43-2.239c-0.19-0.24-0.44-0.33-0.69-0.33  c-0.49,0-1.01,0.38-1.25,0.819c-0.189,0.36-0.28,0.771-0.329,1.171c-0.051,0.35-0.051,0.72-0.011,1.079  C1546.014,1220.468,1546.914,1220.288,1547.834,1220.258z M1509.033,1264.508l-3.399,6.51c-0.29,0.561-0.57,1.061-0.84,1.51  c-0.271,0.451-0.54,0.811-0.88,1.211c-0.66,0.779-1.57,1.529-2.62,2.279c-2.091,1.5-4.78,2.961-7.011,5.211  c-2.189,2.209-3.75,4.899-4.569,7.729c-0.13,0.45,0.06,0.95,0.479,1.2c0.5,0.279,1.131,0.109,1.42-0.391l0.011-0.02  c1.29-2.26,3.119-4.12,5.21-5.41c2.05-1.27,4.52-1.95,7.279-3.04c1.38-0.56,2.851-1.229,4.291-2.239  c0.72-0.49,1.449-1.091,2.06-1.69c0.62-0.61,1.17-1.21,1.67-1.78l3.81-4.38c-1.529-0.72-2.96-1.69-4.2-2.931  C1510.613,1267.138,1509.714,1265.868,1509.033,1264.508z M1542.214,1252.158c-0.28-0.23-0.58-0.44-0.88-0.641  c-2.65,4.01-5.841,8.311-9.21,11.681c-1.351,1.35-2.95,2.26-4.641,2.75c-0.06,0.12-0.12,0.239-0.18,0.34  c-1.08,1.87-2.771,3.69-5.149,5.569c3.539,0,7.089-1.359,9.829-4.1c4.21-4.21,8.19-9.54,11.54-14.56  c-0.38-0.25-0.729-0.55-1.07-0.841L1542.214,1252.158z M1508.544,1262.178c0.229,0.12,0.479,0.16,0.729,0.16  c0.33,0,0.66-0.08,0.98-0.16c3.239-0.89,6.1-2.68,8.91-4.47c1.24-0.78,3.329-2.09,3.359-3.8c0.03-1.51-2.229-2.2-3.49-2.2  c-0.09,0-0.18,0.01-0.27,0.021c-1.49,0.14-3.37,0.909-4.64,1.649c-2.141,1.229-3.96,3.17-5.47,5.11  c-0.431,0.55-0.841,1.149-0.94,1.85C1507.613,1261.027,1507.904,1261.857,1508.544,1262.178z M1519.904,1256.708  c-0.25,0.14-0.57,0.06-0.711-0.19c-0.14-0.25-0.05-0.56,0.19-0.709c0.25-0.141,0.569-0.051,0.71,0.199  C1520.233,1256.258,1520.144,1256.568,1519.904,1256.708z M1520.604,1255.518c-0.24,0.141-0.56,0.051-0.699-0.199  c-0.141-0.25-0.061-0.561,0.189-0.7c0.25-0.15,0.57-0.06,0.71,0.19S1520.854,1255.368,1520.604,1255.518z M1519.914,1253.258  c0.25-0.14,0.569-0.05,0.71,0.19c0.14,0.25,0.05,0.569-0.19,0.71c-0.25,0.14-0.57,0.06-0.71-0.19  S1519.674,1253.398,1519.914,1253.258z M1518.844,1252.418c0.25-0.141,0.561-0.061,0.7,0.189c0.149,0.25,0.06,0.57-0.19,0.711  c-0.25,0.14-0.56,0.05-0.71-0.2C1518.504,1252.878,1518.594,1252.559,1518.844,1252.418z M1517.453,1252.418  c0.25-0.15,0.561-0.061,0.701,0.189c0.149,0.25,0.06,0.561-0.19,0.711c-0.25,0.14-0.56,0.05-0.71-0.2  C1517.113,1252.868,1517.203,1252.559,1517.453,1252.418z M1517.354,1254.027c0.67-0.39,1.471-0.26,1.771,0.281  c0.31,0.539,0.01,1.279-0.66,1.67c-0.67,0.379-1.471,0.25-1.771-0.28C1516.384,1255.158,1516.684,1254.408,1517.354,1254.027z   M1516.834,1263.188c-0.67-0.67-1.23-1.42-1.69-2.209c-1.47,0.779-3.04,1.47-4.69,1.92c-0.319,0.09-0.75,0.189-1.18,0.189  c-0.03,0-0.06-0.01-0.09-0.01c0.69,1.699,1.721,3.29,3.09,4.67c1.391,1.38,2.98,2.41,4.69,3.1c-0.021-0.439,0.06-0.869,0.17-1.27  c0.45-1.65,1.14-3.21,1.92-4.69C1518.264,1264.428,1517.514,1263.868,1516.834,1263.188z M1543.693,1245.488  c-1.069-0.5-2.25-0.73-3.43-0.73c-1.03,0-2.061,0.17-3.03,0.5c-0.8,0.27-1.579,0.63-2.24,1.15c-0.479,0.369-0.909,0.84-1.04,1.43  c-0.119,0.58,0.141,1.29,0.711,1.48c0.14,0.05,0.289,0.069,0.439,0.069c0.16,0,0.33-0.02,0.48-0.03  c0.279-0.029,0.56-0.039,0.84-0.039c2.27,0,4.529,0.81,6.27,2.26c0.8,0.67,1.7,1.529,2.681,1.529c0.149,0,0.31-0.02,0.47-0.069  c1.46-0.431,1.79-2.54,1.35-3.771C1546.604,1247.607,1545.273,1246.229,1543.693,1245.488z M1547.714,1240.788  c-0.56,1.04-1.45,2.68-2.61,4.66c0.811,0.56,1.5,1.26,2.03,2.06c1.47-2.41,2.71-4.58,3.66-6.29c-0.12,0-0.24,0.021-0.37,0.021  C1549.483,1241.238,1548.563,1241.078,1547.714,1240.788z M1556.874,1226.578l-3.421-3.42c-1.439-1.43-3.35-2.15-5.31-2.15h-0.28  c-1.949,0.07-3.92,0.85-5.5,2.32c0.061,0.05,0.11,0.1,0.16,0.15c1.41,1.409,2.19,3.289,2.19,5.299c0,0.101-0.04,0.201-0.11,0.271  c-0.08,0.07-0.18,0.11-0.279,0.11c-0.101,0-0.19-0.03-0.271-0.11c-0.09-0.09-0.13-0.22-0.101-0.34c-0.02-1.78-0.72-3.44-1.97-4.7  c-0.05-0.05-0.1-0.1-0.149-0.14c-0.61,0.649-1.08,1.36-1.43,2.11c0.829,0.369,1.609,0.909,2.289,1.59  c0.41,0.41,0.79,0.88,1.141,1.43c0.119,0.18,0.07,0.41-0.11,0.529c-0.06,0.041-0.14,0.061-0.21,0.061c-0.12,0-0.24-0.061-0.311-0.18  c-0.329-0.5-0.67-0.93-1.049-1.301c-0.61-0.609-1.311-1.09-2.051-1.43c-1.09,2.84-0.56,6.07,1.6,8.23l3.421,3.42  c1.439,1.439,3.35,2.16,5.3,2.16c0.99,0,1.99-0.18,2.939-0.551c-0.33-0.739-0.81-1.439-1.43-2.06c-0.38-0.38-0.81-0.72-1.31-1.04  c-0.181-0.12-0.23-0.35-0.12-0.529c0.12-0.171,0.35-0.221,0.529-0.11c0.551,0.35,1.021,0.729,1.431,1.14  c0.69,0.689,1.22,1.471,1.59,2.3c0.75-0.35,1.46-0.829,2.11-1.43c-0.04-0.05-0.09-0.11-0.141-0.16c-1.26-1.26-2.939-1.96-4.729-1.97  c-0.12,0.01-0.23-0.02-0.311-0.1c-0.149-0.15-0.159-0.391-0.01-0.53c0.07-0.08,0.181-0.13,0.28-0.13c2.01,0,3.89,0.779,5.3,2.189  c0.05,0.051,0.11,0.11,0.149,0.17c1.471-1.58,2.25-3.55,2.32-5.51C1559.094,1230.107,1558.374,1228.088,1556.874,1226.578z   M1546.254,1225.888c0.47-0.47,1.239-0.47,1.71,0c0.47,0.48,0.47,1.24,0,1.71c-0.471,0.48-1.24,0.48-1.71,0  C1545.783,1227.128,1545.783,1226.368,1546.254,1225.888z M1550.014,1233.548c-0.58,0.03-2,0.08-2.82-0.17  c-0.35,0.681-0.24,1.54,0.33,2.11c0.36,0.359,0.86,0.55,1.37,0.539c0.16,0,0.29,0.11,0.3,0.271c0,0.15-0.119,0.28-0.27,0.29h-0.1  c-0.641,0-1.25-0.25-1.7-0.7c-0.65-0.649-0.83-1.579-0.58-2.399c-0.23,0.07-0.47,0.119-0.71,0.119c-0.61,0-1.221-0.229-1.69-0.699  c-0.47-0.471-0.729-1.131-0.7-1.79c0.01-0.16,0.141-0.28,0.3-0.271c0.15,0,0.271,0.131,0.271,0.29c-0.03,0.511,0.17,1.011,0.53,1.37  c0.569,0.57,1.43,0.68,2.11,0.33c-0.25-0.82-0.201-2.24-0.161-2.82c0-0.149,0.141-0.25,0.28-0.22c0.87,0.22,1.65,0.99,1.93,1.3  c0.07,0.08,0.15,0.16,0.23,0.23c0.31,0.279,1.08,1.06,1.3,1.93C1550.264,1233.398,1550.164,1233.538,1550.014,1233.548z   M1554.144,1233.777c-0.479,0.471-1.239,0.471-1.71,0c-0.47-0.469-0.47-1.229,0-1.709c0.471-0.471,1.23-0.471,1.71,0  C1554.613,1232.548,1554.613,1233.309,1554.144,1233.777z"/><path d="M91.271,26.039c0.101-1.136-0.089-2.304-0.629-3.343c-0.578-1.107-1.382-1.743-2.065-2.263  c-0.697-0.514-1.366-0.922-1.915-1.328c-0.27-0.198-0.507-0.398-0.663-0.571c-0.159-0.196-0.229-0.245-0.262-0.436  c-0.078-0.595-0.023-1.144,0.306-1.64c0.325-0.511,0.908-0.909,1.605-1.331c0.236-0.144,0.312-0.452,0.168-0.689  c-0.121-0.202-0.365-0.287-0.58-0.218l-0.023,0.007c-0.716,0.229-1.597,0.502-2.331,1.167c-0.681,0.583-1.086,1.484-1.238,2.357  c0.201,0.146,0.402,0.288,0.63,0.441c0.321,0.216,0.662,0.447,1.012,0.701c0.693,0.527,1.713,1.301,2.439,2.689  c0.629,1.244,0.893,2.637,0.768,4.046c-0.096,1.049-0.412,2.082-0.927,3.038c0.079,0.078,0.155,0.155,0.23,0.231  c0.207,0.208,0.402,0.405,0.585,0.582c0.293,0.287,0.551,0.572,0.793,0.859C90.31,29.201,91.119,27.709,91.271,26.039z   M5.278,67.842c0.028,0,0.061-0.005,0.091-0.015c1.335-0.441,3.541-1.488,4.159-3.617c0.189-0.517,0.151-1.059-0.063-1.513  c-0.176-0.378-0.202-0.806-0.024-1.184c0.315-0.693,0.592-1.424,0.794-2.193c0.365-1.361,0.517-2.785,0.491-4.171  c-0.038-2.786-0.618-5.495-1.272-8.104c-0.228-1.146-0.315-2.306-0.012-3.389c0.301-1.072,0.882-2.068,1.65-2.949  c0.05-0.05,0.113-0.101,0.164-0.151c-1.046,4.65,0.592,10.813,3.693,17.808v0.038l-0.933,7.422v0.038l5.431,20.403  c0.026,0.013,0.062,0.038,0.088,0.063h4.474c0.038-0.038,0.05-0.051,0.088-0.1l-1.374-18.048c0-0.013,0-0.026,0.012-0.051  c1.26-2.534,2.521-5.055,3.781-7.587c0.189-0.366,0.377-0.744,0.667-1.034c0.485-0.483,1.314-0.547,2.028-0.547  c0.159,0,0.312,0.003,0.455,0.005c2.369,0.038,4.664,0.744,6.944,1.386c4.286,1.186,8.632,2.131,13.019,2.812  c1.021,0.164,2.041,0.303,3.049,0.492c1.095,0.34,1.877,0.386,2.645,0.386c0.287,0,0.571-0.007,0.87-0.007  c0.354,0,0.729,0.01,1.148,0.05c0.024,0,0.062,0.036,0.062,0.075l0.076,0.517l2.771,21.576c0.038,0.024,0.051,0.05,0.089,0.075  h5.784c0.039-0.038,0.063-0.063,0.102-0.1l0.844-21.942l0.026-0.581c0.378-0.743,0.869-1.737,1.246-2.482  c4.664-3.944,8.584-8.278,11.078-13.421c0.026-0.012,0.038-0.026,0.063-0.038l2.105-0.315l6.288-0.919h0.05l2.32,0.844  c0.203,0.076,0.415,0.113,0.626,0.113c0.48,0,0.955-0.192,1.313-0.543l2.156-2.117c0.818-0.806,0.882-2.117,0.126-3l-4.537-5.368  c-0.014-0.026-0.025-0.038-0.025-0.051c0-2.597-0.542-4.197-2.407-6.024c-0.44-0.428-0.958-0.97-1.537-1.525  c0.692-0.97,1.159-2.104,1.272-3.34c0.101-1.146-0.102-2.305-0.63-3.352c-0.58-1.11-1.387-1.74-2.066-2.256  c-0.707-0.517-1.374-0.92-1.917-1.336c-0.276-0.188-0.503-0.39-0.667-0.567c-0.151-0.188-0.228-0.239-0.266-0.429  c-0.075-0.604-0.024-1.147,0.315-1.65c0.314-0.504,0.908-0.907,1.601-1.323c0.24-0.151,0.315-0.454,0.164-0.694  c-0.086-0.152-0.253-0.24-0.421-0.24c-0.055,0-0.107,0.008-0.159,0.026l-0.024,0.013c-0.706,0.227-1.589,0.491-2.32,1.16  c-0.768,0.655-1.196,1.701-1.297,2.658c-0.089,0.593,0.126,1.323,0.391,1.777c0.276,0.479,0.579,0.856,0.882,1.197l1.639,1.727  c0.479,0.517,0.806,1.032,0.844,1.374c0.089,0.39,0.051,0.844-0.101,1.26c-0.277,0.781-1.033,1.412-1.891,1.676  c-0.051,0.012-0.1,0.038-0.151,0.062c-0.024,0-0.049,0-0.062,0.026c-0.188,0.037-0.378,0.113-0.554,0.201  c-0.014,0.007-0.026,0.01-0.037,0.01c-0.012,0-0.02-0.002-0.026-0.01c-1.726-0.971-3.199-1.262-4.347-1.262  c-1.503,0-2.446,0.498-2.661,0.619c-0.038,0.026-0.05,0.051-0.05,0.089c0.126,2.028,0.668,3.982,0.794,4.411  c-0.025,0.039-0.037,0.063-0.063,0.101l-9.036,2.571h-0.05c-1.754-0.565-3.599-0.781-5.508-0.781  c-6.143,0-12.936,2.231-19.386,2.231c-1.068,0-2.128-0.062-3.171-0.204c-5.802-0.789-11.132-1.536-15.147-1.536  c-2.588,0-4.631,0.31-5.9,1.121c-0.077,0.037-2.482,1.247-3.555,1.954c-1.185,0.818-2.318,1.751-3.251,2.923  c-0.933,1.161-1.663,2.546-2.004,4.059c-0.341,1.525-0.139,3.074,0.24,4.498c0.768,2.521,1.424,5.042,1.587,7.587  c0.138,1.941-0.151,3.832-0.856,5.634c-0.152,0.391-0.517,0.63-0.933,0.719c-0.63,0.149-1.186,0.604-1.425,1.272  c-1.121,2.898,0.303,3.288-0.693,4.536C4.91,67.563,5.05,67.842,5.278,67.842z M84.652,34.569c0-0.517,0.429-0.945,0.945-0.945  c0.529,0,0.945,0.429,0.945,0.945c0,0.529-0.416,0.945-0.945,0.945C85.081,35.514,84.652,35.098,84.652,34.569z"/></svg>