<svg xmlns="http://www.w3.org/2000/svg" version="1.1" viewBox="-5.0 -10.0 110.0 135.0">
 <path d="m19.746 14.555c0.27734-0.12109 0.48438-0.26172 0.59766-0.55469 0.25391-0.60156-0.30859-1.2031-0.92578-1.1094-1.0664 0.26562-0.77734 1.8477 0.32812 1.6641z"/>
 <path d="m38.523 78.824c1.1992 0.6875 2.5781 0.11328 3.2031-1.0508 0.67188-1.2461 1.1875-2.9688 1.3203-4.3945-3.3789-0.95312-6.3633-2.7773-9.2031-4.7539 0.33594 1.0156 0.39844 2.125 0.64062 3.168 0.5 2.1719 1.9844 5.9414 4.0391 7.0352z"/>
 <path d="m19.109 12.34c-2.9766 0.41797-2.4922 4.5781 0.50391 4.3203 1.0586-0.14453 1.9688-0.99219 1.9805-2.1016 0.066406-1.3281-1.1836-2.3906-2.4844-2.2188zm2.1445 1.3398c0.47266 1.1328-0.25 2.4297-1.4336 2.6875-2.5664 0.55859-3.4453-3.2383-0.93359-3.8984 0.95312-0.15625 2.0195 0.24609 2.3672 1.2109z"/>
 <path d="m28.324 42.914c-0.10547 0.074219-0.20312 0.10938-0.33203 0.082032-0.49219-0.24609-0.86719-1.1875-1.0977-1.6875-0.47266 1.5469-1.4375 2.3672-2.8359 3.1055-0.18359 0.097657-0.47266 0.26563-0.6875 0.23047-0.10156-0.015625-0.14453-0.066406-0.19141-0.15234-0.22266-0.43359-0.20703-1.1523-0.28906-1.6406-0.1875 0.48047-0.44141 1.9102-1.1016 1.8398-0.32031-0.20703-0.58984-0.51953-0.86328-0.78516-0.67578-0.73828-1.2891-1.5-1.8477-2.332 1.7109 13.301 12.848 29.016 26.41 31.934 0.97266 2.4219 2.0234 5.8672 4.582 7.0195 1.7969 0.79297 3.2305-0.69141 3.7188-2.3203 0.54688-1.5742 0.60156-3.0039 0.80469-4.6172-3.7656-2.2578-7.5156-4.7969-10.309-8.2227-5.957-4.4492-10.762-10.738-12.797-17.953-1.2031-4.1367-2.3594-10.137 1.5078-13.195 3.8359-3.3633 8.8242-1.5625 12.91 0.23047-3.7461-2.668-6.9648-6.1562-9.0938-10.254-1.0156-1.9727-1.4492-3.7461-2.1289-5.8125-1.668-5.0586-4.0352-8.8516-9.4336-10.504-3.4102-1.1172-6.6406-1.1016-10.008 0.17188 3.1484-2.3281 7.7344-1.1328 10.953-3.1641l-0.050781-0.003907c-4.6289 0.71484-8.9023-0.77734-13.215 1.7227-1.9219 1.1289-3.8711 3.0078-3.6406 5.418 1.918-0.58594 3.957 0.50781 4.3594 2.5078 0.15625 0.64844 0.15625 1.2891 0.44922 1.9062 0.37891 0.79688 1.0156 1.4258 1.4844 2.1641 1.1328 1.75 1.4492 4.6328-0.4375 5.9961 1.7148 2.8281 2.918 6.7734 1.7383 9.9844 1.75-0.6875 2.5117-2.4492 2.4414-4.2422 0.49219 1.5352 1.125 3.7734 2.0781 5.0625 1.5625-1.4062 2.1484-3.5625 2.0352-5.6133 0.36719 0.65625 0.44531 1.4141 0.46094 2.1523 0.84766 0.99609 2.0508 1.9062 3.2852 2.3555 1.1055-1.7266 0.80859-3.9023 0.39062-5.793 1.0781 1.1445 2.4727 2.0312 4.0938 2.082 0.54297 0.0625 1.1094-0.28125 1.0625-0.87891 0.015625-1.6133-1.543-2.6328-2.3281-3.8711 1.3594 0.8125 3.0938 1.5625 4.7109 1.168 0.44531-0.13281 1.4062-0.42188 1.3516-1.0039-0.17578-0.33203-0.86719-0.60156-1.1875-0.83984-0.72266-0.53906-1.3516-1.1992-1.8672-1.9414 0.64453 0.49609 1.2969 1.0312 2 1.4414 0.53516 0.36328 1.4648 0.45703 1.6562 1.1602-0.125 2.1836-3.0312 1.9727-4.5859 1.6602 0.70703 0.92969 1.3086 2.543 0.25781 3.4414-1.3555 0.69922-3.0391-0.10938-4.2578-0.79297 0.074219 1.3516 0.10938 3.3594-0.86719 4.4414-0.12109 0.13281-0.29297 0.26172-0.48047 0.27344-1.0312-0.085938-2.6641-1.5156-3.3438-2.2656-0.34766 0.98047-1.1914 2.793-2.1523 3.2773-0.125 0.0625-0.27344 0.09375-0.41016 0.03125-0.64062-0.28516-1.418-2.5898-1.668-3.2812-0.16797 0.58203-0.60547 1.0273-0.85547 1.5586-1.2148 3.4805 0.41406 7.3867 3.1094 9.707 0.66016-1.582 0.88672-3.0547 0.75391-4.7656 0.51953 1.707 0.73438 3.1367 1.0859 4.8594 2.4766-1.3125 3.1055-3.0664 2.7266-5.7695 0.66016 1.293 0.80078 2.9453 1.7031 4.1172 1.332-1.5195 1.3984-4.0234 1.2383-5.9219 0.66406 0.98047 0.76563 2.1445 0.55078 3.2891-0.17188 0.91406-0.76953 2.6719-1.5625 3.2305zm-8.4023-25.703c-3.7383 0.60156-4.918-4.6367-1.0664-5.3867 1.5469-0.23438 3.1719 0.75391 3.3281 2.3789 0.20312 1.4375-0.88281 2.7344-2.2617 3.0078z"/>
 <path d="m14.621 18.422c-1.5273 1.8789-3.6641 2.8633-5.6016 4.2188 0.44531 0.57031 1.0039 0.87109 1.6641 1.1328 0.80078 0.24609 3.4219 0.60547 4.1211 0.22266 1.6719-1.125 1.0781-4.3438-0.17969-5.5742z"/>
 <path d="m71.277 67.902c-0.023438 0.125-0.070313 0.24609-0.1875 0.31641-0.75391 0.27344-1.7969-0.44531-2.5312-0.68359 2.3984 3.5195 2.0625 4.125-2.125 3.0938 0.49219 0.67969 2.1719 2.8438 2 3.5898-0.03125 0.14062-0.14844 0.24219-0.27734 0.30078-1.9727 0.41797-4.0078-0.14062-5.8906-0.74609 2.3047 2.7266-2.4141 1.9453-3.7578 1.4727 2.8711 2.0234 5.0117 3.207 8.3672 4.3242 4.0234 1.2383 10.512 2.8359 14.695 2.6172 0.45703-0.023438 1.1367-0.023438 1.5391-0.25391 0.50781-0.26172 0.019531-0.85938-0.23047-1.1328-0.85938-1.0117-1.7461-2-2.5859-3.0273-3.1875-3.8867-5.8242-8.1914-8.4414-12.477-0.10937-0.17578-0.57422-1.0117-0.70312-1.082-0.007813-0.003906-0.13672-0.015625-0.13672-0.015625-0.40625 0.046875-0.91406-0.23828-1.3047-0.34375 0.60547 0.89453 1.7617 2.9492 1.5664 4.0469z"/>
 <path d="m9.457 20.953c1.4531-0.80078 3.7617-1.6914 4.8438-2.9219-0.80078-0.92578-1.1641-2.0547-1.3008-3.2539-0.25391-1.2773-1.207-2.2539-2.5625-2.25-1.4414 0.15234-2.6602 1.4023-3.5234 2.4766-2.3906 2.8633-2.582 7.1328 0.48828 9.5859-0.074219-0.53516-0.125-1.0742-0.003906-1.6094 0.28125-0.96875 1.2227-1.5664 2.0586-2.0273zm1.3359-7.6445c0.82422 0.015625 0.92578 1.1094 0.13281 1.3086-0.29688 0.019531-0.59375-0.15625-0.67969-0.44922-0.007813-0.019531-0.011719-0.042969-0.015625-0.0625-0.078125-0.37891 0.19922-0.71875 0.5625-0.79297z"/>
 <path d="m58.508 52.574c0.90234 1.1094 1.5938 2.2891 1.9727 3.6758 0.10938 0.46094 0.35156 1.1328-0.10938 1.4766-1.4531 0.72656-3.8242 0.375-5.1875-0.45703 0.84375 1.6016 2.6289 4.9453 0.71875 6.332-1.9492 0.71094-4.3633-0.35156-6.0078-1.4141 3.2695 5.7227 3 8.6875-3.7734 4.4727 0.86328 0.8125 1.7812 1.5469 2.707 2.2852 2.9883 2.3438 9.6445 7.1406 13.504 5.9492-0.32422-0.45312-0.64453-1.0273-1.0352-1.4141-0.76953-0.65234-1.7266-1.0938-2.5078-1.75-2.2812-1.7422-4.6797-3.8242-6.1484-6.3164 4.2617 3.9961 8.7227 9.207 15.16 8.5938-0.48438-1.2617-1.3594-2.5117-2.2461-3.5234-0.60547-0.55078-1.8281-0.93359-2.5859-1.3633-2.0195-1.1484-4.9102-3.2617-6.1172-5.2109 3.7148 2.8984 7.6289 6.5156 12.633 6.5781-0.64844-2.1797-2.4727-4.0586-4.3672-5.2305-1.8828-1.3906-3.9219-2.9297-5.2422-4.8789 2.6172 1.8438 7.8281 6.8672 10.836 7.2852-0.30859-1.7148-1.1328-3.3242-2.375-4.543-1.957-1.2422-4.2109-3.1602-5.4258-5.1484 2.5156 2.0234 4.8594 4.6445 7.9883 5.6914-1.6055-2.6445-5.9375-9.4492-7.7266-11.441-1.3945 0.62891-3.1836 0.6875-4.6641 0.35547z"/>
 <path d="m37.516 32.918c-8.3984 1.043-7.1406 10.16-4.8828 16.047 2.2383 6.0898 5.9922 11.102 11.035 15.156 1.2812 0.98828 6.0586 4.7695 7.6289 3.7773 0.27344-0.42969-0.22656-1.7109-0.38672-2.1406-1.0547-3.0469-3.1484-5.5898-4.5977-8.4297 0.97656 1.0664 1.8203 2.2422 2.6992 3.3867 1.5977 1.7227 4.0977 2.6523 6.4336 2.5078 1.5273-0.82422 0.25-3.5391-0.26562-4.6758-1.1523-2.3438-2.5742-3.6133-4.043-5.6484 2.3594 1.3398 3.1836 4.0312 6.1055 4.5273 0.98047 0.17969 1.9336 0.11719 2.8906-0.14453-0.69141-3.0039-1.9062-4.4375-4.3008-6.2734 2.2578 0.98438 4.6172 1.5898 7.0469 0.78125-1.1953-1.6797-2.457-3.3086-3.7891-4.8828-4.9766-6.0391-11.113-12.312-19.098-13.879-0.78906-0.13672-1.6836-0.20703-2.4805-0.10547zm12.746 17.418c-0.43359-2.5703-2.1289-4.5195-4.1484-6.043 1.7773 0.78906 3.8516 1.875 5.7969 1.0469-0.29297-1.9961-1.7695-3.3711-3.2266-4.6133 1.7188 0.50391 3.8047 2.7344 3.75 4.5938-0.42969 1.3906-2.5664 0.875-3.6289 0.67969 0.88281 1.1172 1.5547 2.2734 1.8984 3.668 0.12891 0.51953 0.22266 1.0938-0.085937 1.5703-1.4922 1.6914-4.0742 0.09375-5.5234-0.90625 0.69141 1.6406 0.89453 4.1133 0.21484 5.7852-0.43359 1.2578-1.6328 1.3633-2.6914 0.79687-2.5156-1.1758-4.9062-4.543-5.8438-7.1211 0.72266 1.0664 1.5156 2.0742 2.3125 3.0859 1.0156 1.2734 3.4141 4.2539 5.207 3.7031 0.30469-0.16406 0.45703-0.59375 0.55469-0.91016 0.60547-1.9297 0.22266-4.2148-0.55859-6.0352-0.28516-0.66797-0.66016-1.3086-1-1.9531 1.4844 1.6797 3.418 3.7422 5.8516 3.6719 0.34766-0.027344 0.77734-0.11328 1.0078-0.40234 0.14844-0.1875 0.14844-0.39453 0.11719-0.61719zm-5.9688-7.8789c-0.59766 1.2734-2.2617 0.625-3.1992 0.14453 0.31641 1.3594 1.1289 4.8633-1.0742 4.8633-1.4961-0.039063-3.0938-1.0469-4.0977-2.0977-0.55469-0.58203-2.0625-2.5625-2.0469-3.3633l0.09375 0.10156c0.98047 1.4336 2.4453 3.2188 3.9531 4.082 0.59766 0.33984 1.8203 0.90625 2.5195 0.66797 0.13672-0.046875 0.20703-0.14453 0.26953-0.26953 0.65234-1.2969-0.30859-4.2812-0.75-5.6211 0.65625 0.65234 3.3555 2.6562 3.8359 1.0938 0.14062-1.0781-1.3398-2.6562-1.9961-3.4727 1.3125 0.62891 2.9766 2.2812 2.4961 3.8711z"/>
 <path d="m77.07 82.547c1.1211 1.2734 2.1445 2.6523 3.3828 3.8164 3.0312 2.8594 8.4102 5.5117 12.48 6.4102-2.457-1.6523-4.832-3.4102-7.1328-5.2734-1.8789-1.5586-3.6914-3.1914-5.6797-4.6172-1.0234-0.078124-2.0312-0.24219-3.0508-0.33594z"/>
 <path d="m62.547 78.438c-0.97656-0.50391-1.9453-1.0078-2.8555-1.625-0.54297-0.36719-2.4766-1.957-2.8203-2.0898 3.0664 4.6914 7.0859 9.3789 11.66 12.66 0.51172 0.35938 1.1562 0.93359 1.75 1.1328-3.2422-2.7969-5.7031-6.3398-7.7344-10.078z"/>
 <path d="m53.16 87.871c-0.3125 0.085937-0.625 0.17969-0.9375 0.27734-0.19531-0.089844-0.45312-0.18359-0.53906-0.40234-0.42188-1.0469 0.097656-4.7812 0.37109-5.9219-0.65625 0.097656-1.1719 0.082031-1.8203-0.0625 0.44531 2 0.48047 4.8477-1.2539 6.2656-1.9336 0.98047-4.5273 1.5625-6.4102 2.6406 0.49609 0.38281 0.69141 0.74609 0.91016 1.3164 0.32812-0.14453 0.64844-0.28516 0.99219-0.38281 0.77344-1.0234 1.6172-1.6211 2.7617-2.1953 0.47266-0.20703 1.0781-0.63281 1.5938-0.35547 0.027344 0.066407 0.0625 0.097657 0.035156 0.17188-0.125 0.38672-1.5391 1.207-1.9336 1.4883-0.26563 0.20312-0.54688 0.39453-0.78516 0.63281 0.61328 0.13672 0.83203 0.26562 1.2148 0.76172 0.88281-0.65625 3.3828-3.1367 4.2891-3.2461 1.0156-0.125 2.0234 0.058594 3.0352 0.023437 0.8125-0.027343 0.85547-0.5 1.9492-0.45312-1.1875-0.67578-2.125-0.92188-3.4648-0.55859z"/>
 <path d="m45.848 92.285c-0.59375 0.57422-0.73828 1.1914-0.94141 1.9648l0.32031-0.45703c0.25391-0.29297 1.0586-0.90625 1.1289-1.1484-0.042969-0.23828-0.29688-0.31641-0.50781-0.35938z"/>
 <path d="m29.102 87.664c-0.39844 0.24609-0.87109 0.58984-1.0898 1.0156 0.027343-0.015626 0.085937-0.046876 0.10938-0.070313 0.31641-0.25391 1.0391-0.21094 1.2539-0.50391 0.046875-0.19141-0.11719-0.35156-0.26953-0.44141z"/>
 <path d="m70.555 81.184c-2.4375-0.55078-4.8086-1.3398-7.0938-2.3242 3.4375 6.1562 8.1562 11.434 15.133 13.391 1.3398 0.39844 3.0195 0.87891 4.4219 0.92188-5.4336-2.2656-9.4648-7.0703-12.461-11.984z"/>
 <path d="m79.066 85.785c-1.0039-1.0703-1.8516-2.2734-2.8242-3.3672-1.6016-0.34766-3.207-0.68359-4.8125-1.0117 4.1875 7.3906 12.16 13.93 21.133 12.047l0.19922-0.039063-0.050781-0.003906 0.078124-0.03125c-5.0234-1.2188-10.156-3.7539-13.73-7.5898z"/>
 <path d="m44.051 86.949c0.085938 0.027343 0.16797 0.058593 0.25 0.097656-0.61719-0.92969-1.7344-1.207-2.7969-1.1094-0.45703 0.042969-1.3828 0.39844-1.7031-0.0625-0.59375-1.4961-0.078125-4.1133 0.51562-5.582-0.5625 0.019531-1.0625 0.023437-1.6172-0.10156-0.039063 2.0312-0.53125 4.0742-1.9141 5.6211-0.49219 0.51953-1.2812 0.45703-1.9375 0.52734-1.5312 0.13281-3.3516 0.10547-4.7695 0.75781 0.10938 0.15234 0.24219 0.32422 0.30469 0.5 0.070313 0.20312 0.089844 0.83594 0.32813 0.875 0.10937 0.019532 0.25391-0.007812 0.36719-0.015625 1.0039-1.3984 3.3945-1.8086 4.9961-2.125 0.20312-0.027343 0.54688-0.09375 0.71484 0.042969-0.003906 0.11328-0.050781 0.15625-0.13672 0.23047-0.69531 0.54688-2.8164 1.168-3.625 1.7266 0.36719 0.36719 0.63672 0.72266 0.70703 1.2461 1.4375-0.77734 4.1523-2.3711 5.6641-2.6406 1.5195-0.14062 3.1484-0.24219 4.6523 0.011719z"/>
 <path d="m41.77 91.48c-0.41016 0.40234-0.81641 0.82812-1.1289 1.3125l0.55859-0.34766c0.39062-0.19922 0.8125-0.29687 1.2305-0.42187-0.19531-0.24609-0.37109-0.41016-0.65625-0.54297z"/>
 <path d="m32.109 89.211c-0.48438 0.35937-0.74609 0.88672-0.93359 1.4492l0.46875-0.28516c0.39062-0.19922 0.78125-0.3125 1.2031-0.41797-0.12109-0.33203-0.28906-0.85156-0.73828-0.74609z"/>
</svg>