<?xml version="1.0" encoding="UTF-8" standalone="no" ?>
<!DOCTYPE svg PUBLIC "-//W3C//DTD SVG 1.1//EN" "http://www.w3.org/Graphics/SVG/1.1/DTD/svg11.dtd">
<svg xmlns="http://www.w3.org/2000/svg" xmlns:xlink="http://www.w3.org/1999/xlink" version="1.1" width="1080" height="1080" viewBox="0 0 1080 1080" xml:space="preserve">
<g transform="matrix(1 0 0 1 540 540)" id="168225ce-9482-4ed9-9f66-09c370f70696"  >
<rect style="stroke: none; stroke-width: 1; stroke-dasharray: none; stroke-linecap: butt; stroke-dashoffset: 0; stroke-linejoin: miter; stroke-miterlimit: 4; fill: rgb(255,255,255); fill-rule: nonzero; opacity: 1; visibility: hidden;" vector-effect="non-scaling-stroke"  x="-540" y="-540" rx="0" ry="0" width="1080" height="1080" />
</g>
<g transform="matrix(1 0 0 1 540 540)" id="65e70de4-25a1-469d-af78-0b8ede6aeb87"  >
</g>
<g transform="matrix(3.92 0 0 3.92 550.16 613.26)"  >
<path style="stroke: none; stroke-width: 1; stroke-dasharray: none; stroke-linecap: butt; stroke-dashoffset: 0; stroke-linejoin: round; stroke-miterlimit: 2; fill: rgb(0,0,0); fill-rule: evenodd; opacity: 1;" vector-effect="non-scaling-stroke"  transform=" translate(-135.3, -155.57)" d="M 117.056 144.982 L 115.556 151.89 C 115.063 154.15699999999998 113.194 155.867 110.892 156.15699999999998 C 110.886 156.158 110.881 156.158 110.875 156.159 C 88.779 159.12699999999998 71.74199999999999 178.09199999999998 71.74199999999999 201.006 C 71.74199999999999 201.006 71.74199999999999 204.069 71.74199999999999 213.794 C 71.74199999999999 223.435 79.55699999999999 231.25 89.19699999999999 231.25 C 115.076 231.25 155.517 231.25 181.396 231.25 C 191.036 231.25 198.85199999999998 223.435 198.85199999999998 213.794 C 198.85199999999998 204.06900000000002 198.85199999999998 201.006 198.85199999999998 201.006 C 198.85199999999998 178.095 181.81799999999998 159.131 159.73299999999998 156.095 C 159.72499999999997 156.094 159.71699999999998 156.093 159.70999999999998 156.092 C 157.43599999999998 155.806 155.58999999999997 154.116 155.10399999999998 151.877 L 153.559 144.959 C 153.855 144.641 154.148 144.315 154.438 143.983 C 162.152 135.139 167.14 122.018 167.14 111.72900000000001 C 167.14 94.15400000000001 152.87199999999999 79.88500000000002 135.297 79.88500000000002 C 117.722 79.88500000000002 103.453 94.15400000000002 103.453 111.72900000000001 C 103.453 122.01800000000001 108.44200000000001 135.139 116.155 143.983 C 116.45100000000001 144.322 116.751 144.655 117.056 144.982 Z" stroke-linecap="round" />
</g>
<g transform="matrix(3.92 0 0 3.92 849.39 610.26)"  >
<path style="stroke: none; stroke-width: 1; stroke-dasharray: none; stroke-linecap: butt; stroke-dashoffset: 0; stroke-linejoin: round; stroke-miterlimit: 2; fill: rgb(0,0,0); fill-rule: evenodd; opacity: 1;" vector-effect="non-scaling-stroke"  transform=" translate(-211.67, -154.8)" d="M 173.617 155.765 C 190.934 163.47799999999998 203.018 180.84099999999998 203.018 201.00599999999997 C 203.018 201.00599999999997 203.018 204.06899999999996 203.018 213.79399999999998 C 203.018 215.499 202.821 217.159 202.447 218.74999999999997 L 237.087 218.74999999999997 C 245.374 218.74999999999997 252.09199999999998 212.03199999999998 252.09199999999998 203.74499999999998 C 252.09199999999998 195.57099999999997 252.09199999999998 192.99599999999998 252.09199999999998 192.99599999999998 C 252.09199999999998 173.57 237.64899999999997 157.49099999999999 218.923 154.91699999999997 C 218.916 154.91599999999997 218.90800000000002 154.91499999999996 218.9 154.914 C 217.12900000000002 154.69099999999997 215.691 153.375 215.312 151.63 L 214.05100000000002 145.984 C 214.26200000000003 145.75400000000002 214.471 145.52100000000002 214.67800000000003 145.28400000000002 C 221.21300000000002 137.79100000000003 225.43600000000004 126.67200000000003 225.43600000000004 117.95400000000002 C 225.43600000000004 102.99800000000002 213.29400000000004 90.85600000000002 198.33800000000002 90.85600000000002 C 183.38200000000003 90.85600000000002 171.24 102.99800000000002 171.24 117.95400000000002 C 171.24 126.67200000000003 175.46300000000002 137.79100000000003 181.99900000000002 145.28400000000002 C 182.211 145.52800000000002 182.42700000000002 145.76800000000003 182.64400000000003 146.00400000000002 L 181.42100000000002 151.64100000000002 C 181.03600000000003 153.40900000000002 179.579 154.74300000000002 177.78300000000002 154.96900000000002 C 177.77800000000002 154.96900000000002 177.77200000000002 154.97000000000003 177.76600000000002 154.97100000000003 C 176.35800000000003 155.16000000000003 174.973 155.42600000000004 173.61700000000002 155.76500000000004 Z" stroke-linecap="round" />
</g>
<g transform="matrix(3.92 0 0 3.92 235.86 610.26)"  >
<path style="stroke: none; stroke-width: 1; stroke-dasharray: none; stroke-linecap: butt; stroke-dashoffset: 0; stroke-linejoin: round; stroke-miterlimit: 2; fill: rgb(0,0,0); fill-rule: evenodd; opacity: 1;" vector-effect="non-scaling-stroke"  transform=" translate(-55.08, -154.8)" d="M 68.146 218.75 C 67.772 217.159 67.575 215.499 67.575 213.794 C 67.575 204.06900000000002 67.575 201.006 67.575 201.006 C 67.575 181.39 79.01 164.427 95.577 156.448 C 93.434 155.74800000000002 91.21 155.232 88.922 154.917 C 88.914 154.916 88.90599999999999 154.915 88.899 154.91400000000002 C 87.127 154.691 85.68900000000001 153.37500000000003 85.31 151.63000000000002 L 84.049 145.98400000000004 C 84.26 145.75400000000005 84.46900000000001 145.52100000000004 84.676 145.28400000000005 C 91.212 137.79100000000005 95.435 126.67200000000005 95.435 117.95400000000005 C 95.435 102.99800000000005 83.293 90.85600000000005 68.337 90.85600000000005 C 53.381 90.85600000000005 41.239000000000004 102.99800000000005 41.239000000000004 117.95400000000005 C 41.239000000000004 126.67200000000005 45.462 137.79100000000005 51.997 145.28400000000005 C 52.21 145.52800000000005 52.425 145.76800000000006 52.643 146.00400000000005 L 51.419000000000004 151.64100000000005 C 51.035000000000004 153.40900000000005 49.577000000000005 154.74300000000005 47.782000000000004 154.96900000000005 C 47.776 154.96900000000005 47.771 154.97000000000006 47.765 154.97100000000006 C 29.03 157.48700000000005 14.582999999999998 173.56700000000006 14.582999999999998 192.99600000000007 C 14.582999999999998 192.99600000000007 14.582999999999998 195.57100000000005 14.582999999999998 203.74500000000006 C 14.582999999999998 212.03200000000007 21.301 218.75000000000006 29.588 218.75000000000006 L 68.146 218.75000000000006 Z" stroke-linecap="round" />
</g>
<g transform="matrix(3.92 0 0 3.92 397.87 376.37)"  >
<path style="stroke: none; stroke-width: 1; stroke-dasharray: none; stroke-linecap: butt; stroke-dashoffset: 0; stroke-linejoin: round; stroke-miterlimit: 2; fill: rgb(0,0,0); fill-rule: evenodd; opacity: 1;" vector-effect="non-scaling-stroke"  transform=" translate(-96.43, -95.11)" d="M 99.555 116.231 C 99.58600000000001 116.80199999999999 99.602 117.37599999999999 99.602 117.954 C 99.602 127.198 95.324 138.915 88.574 147.12699999999998 L 89.382 150.74599999999998 C 89.38600000000001 150.76399999999998 89.40100000000001 150.778 89.42 150.77999999999997 C 89.443 150.78299999999996 89.46600000000001 150.78599999999997 89.489 150.78999999999996 C 92.027 151.13799999999998 94.494 151.71099999999996 96.87 152.48699999999997 C 98.02900000000001 152.86499999999995 98.93900000000001 153.72099999999998 99.40400000000001 154.80099999999996 C 102.873 153.47899999999996 106.52900000000001 152.53899999999996 110.32000000000001 152.02999999999997 C 110.337 152.027 110.35400000000001 152.02499999999998 110.37100000000001 152.02299999999997 C 110.921 151.95399999999998 111.367 151.54599999999996 111.48500000000001 151.00499999999997 L 112.53600000000002 146.16199999999998 C 105.52100000000002 137.85599999999997 100.71000000000001 126.29199999999997 99.55500000000002 116.23099999999998 Z M 81.20700000000001 89.457 C 90.924 93.857 97.99700000000001 103.08099999999999 99.36200000000001 114.066 C 99.31200000000001 113.273 99.287 112.494 99.287 111.729 C 99.287 101.318 103.714 91.934 110.78800000000001 85.355 L 110.62800000000001 84.638 C 110.78900000000002 84.46300000000001 110.94800000000001 84.284 111.10600000000001 84.10300000000001 C 116.94200000000001 77.412 120.71000000000001 67.48200000000001 120.71000000000001 59.69700000000001 C 120.71000000000001 46.29600000000001 109.831 35.41700000000001 96.43 35.41700000000001 C 83.02900000000001 35.41700000000001 72.149 46.29600000000001 72.149 59.69700000000001 C 72.149 67.48200000000001 75.918 77.412 81.754 84.10300000000001 C 81.917 84.29 82.08200000000001 84.47500000000001 82.248 84.65700000000001 L 81.20700000000001 89.45700000000001 Z" stroke-linecap="round" />
</g>
<g transform="matrix(3.92 0 0 3.92 687.72 375.25)"  >
<path style="stroke: none; stroke-width: 1; stroke-dasharray: none; stroke-linecap: butt; stroke-dashoffset: 0; stroke-linejoin: round; stroke-miterlimit: 2; fill: rgb(0,0,0); fill-rule: evenodd; opacity: 1;" vector-effect="non-scaling-stroke"  transform=" translate(-170.41, -94.82)" d="M 168.384 127.614 C 166.08399999999997 134.284 162.529 140.857 158.088 146.125 L 159.176 150.993 C 159.28699999999998 151.506 159.70999999999998 151.893 160.231 151.958 C 160.254 151.96099999999998 160.277 151.964 160.29999999999998 151.968 C 163.55899999999997 152.416 166.718 153.18099999999998 169.743 154.232 C 170.228 153.005 171.281 152.054 172.607 151.722 C 174.112 151.346 175.648 151.05100000000002 177.212 150.841 C 177.22899999999998 150.839 177.24599999999998 150.83700000000002 177.26299999999998 150.835 C 177.30499999999998 150.829 177.33999999999997 150.798 177.349 150.756 L 178.129 147.161 C 173.57399999999998 141.631 170.141 134.505 168.384 127.614 Z M 170.438 103.84 C 173.68599999999998 97.437 179.075 92.299 185.66 89.37 L 184.603 84.638 C 184.764 84.46300000000001 184.923 84.284 185.08100000000002 84.10300000000001 C 190.91700000000003 77.412 194.686 67.48200000000001 194.686 59.69700000000001 C 194.686 46.29600000000001 183.806 35.41700000000001 170.405 35.41700000000001 C 157.004 35.41700000000001 146.124 46.29600000000001 146.124 59.69700000000001 C 146.124 66.10400000000001 148.677 73.96400000000001 152.835 80.27700000000002 C 161.642 85.20300000000002 168.173 93.71900000000002 170.43800000000002 103.84000000000002 Z" stroke-linecap="round" />
</g>
</svg>
