<?xml version="1.0" encoding="UTF-8"?>
<svg viewBox="38.211 30.795 608.931 629.824" version="1.1" width="608.931" height="629.824" xmlns="http://www.w3.org/2000/svg" xmlns:xlink="http://www.w3.org/1999/xlink">
  <g transform="matrix(1.396056, 0, 0, 1.376436, -145.943344, -39.709194)" style="">
    <path d="m302.75 316.38 40.973 170.93-83.07 21.488-21.441-91.023c-2.168-8.0156-6.1562-15.316-17.023-22.785l-36.961-25.406c-3.7344-2.6016-9.7734-6.1289-13.141-18.582l-37.785-131c-4.582-14.316-1.8008-23.453 1.832-32.23 19.047-45.52 38.137-91.02 57.18-136.55 5.6211 0.71875 16.562 3.6055 22.531 15.172 7.875 15.27 7.7461 49.434-32.535 119.84-6.8711 11.887-6.0195 18.047-2.3711 31.543 6.6367 23.543 13 45.375 21.191 67.684 3.7734 8.8594 9.3867 16.129 16.668 20.43 2.7344 1.7539 5.6797 0.61719 6.6328-0.80859 1.6211-2.0977 1.2031-4.7344 0.17578-6.4961-0.66016-1.0469-1.5469-2.0352-2.5273-2.8164-4.9297-3.8438-9.0117-10.09-10.668-15.059-7.5664-21.918-14.348-43.078-20.859-66.004-3.6484-13.484-0.57031-17.891 2.9492-26.012 3.5859-7.75 8.4336-14.938 12.812-21.445 9.7305-16.699 15.859-1.1836 19.352 9.5312 5.0938 16.328 8.1172 31.965 10.051 48.23 1.1016 8.3516 3.4141 19.754 12.715 28.664l40.52 38.836c10.973 10.871 10.598 15.676 12.816 23.883z" fill-rule="evenodd"></path>
    <path d="m397.25 316.38-40.973 170.93 83.07 21.488 21.441-91.023c2.168-8.0156 6.1562-15.316 17.023-22.785l36.961-25.406c3.7344-2.6016 9.7734-6.1289 13.141-18.582l37.785-131c4.582-14.316 1.8008-23.453-1.832-32.23-19.047-45.52-38.137-91.02-57.18-136.55-5.6211 0.71875-16.562 3.6055-22.531 15.172-7.875 15.27-7.7461 49.434 32.535 119.84 6.8711 11.887 6.0195 18.047 2.3711 31.543-6.6367 23.543-13 45.375-21.191 67.684-3.7734 8.8594-9.3867 16.129-16.668 20.43-2.7344 1.7539-5.6797 0.61719-6.6328-0.80859-1.6211-2.0977-1.2031-4.7344-0.17578-6.4961 0.66016-1.0469 1.5469-2.0352 2.5273-2.8164 4.9297-3.8438 9.0117-10.09 10.668-15.059 7.5664-21.918 14.348-43.078 20.859-66.004 3.6484-13.484 0.57031-17.891-2.9492-26.012-3.5859-7.75-8.4336-14.938-12.812-21.445-9.7305-16.699-15.859-1.1836-19.352 9.5312-5.0938 16.328-8.1133 31.965-10.051 48.23-1.1016 8.3516-3.4141 19.754-12.715 28.664l-40.52 38.836c-10.973 10.871-10.598 15.676-12.816 23.883z" fill-rule="evenodd"></path>
  </g>
</svg>
