<svg xmlns="http://www.w3.org/2000/svg" version="1.1" viewBox="-5.0 -10.0 110.0 135.0">
 <g>
  <path d="m23.633 62.84c8.1914 1.1758 16.535 0.58203 24.477-1.7422 0.30469-0.089844 0.51953-0.36328 0.53906-0.67969 0.023437-0.3125-0.15234-0.60938-0.44141-0.74219l-0.019531-0.007812v-0.003907c-0.1875-0.085937-0.39844-0.09375-0.58984-0.019531-2.3398 0.92188-4.7734 1.5664-7.2617 1.918-0.14453 0.019531-0.27734-0.074219-0.3125-0.21484-0.035157-0.14062 0.046874-0.28516 0.18359-0.33594 1.6016-0.52344 3.1328-1.2344 4.5664-2.125 0.19141-0.13281 0.30859-0.35547 0.30859-0.58984 0.003907-0.23828-0.11328-0.45703-0.30859-0.59375l-0.011719-0.007813c-0.19531-0.13672-0.44531-0.17187-0.67188-0.089843-2.1602 0.81641-4.4062 1.3867-6.6953 1.707-0.14453 0.019531-0.28125-0.074219-0.3125-0.21875-0.035156-0.14062 0.042969-0.28516 0.17969-0.33203 1.6797-0.54297 3.2852-1.3047 4.7695-2.2578 0.16797-0.12109 0.27734-0.30859 0.29688-0.51562 0.019531-0.20312-0.054687-0.40625-0.19922-0.55469l-0.007812-0.007813v-0.003906c-0.19922-0.20703-0.50781-0.26953-0.77344-0.15625-1.8438 0.79297-3.7656 1.3906-5.7344 1.7773-0.14453 0.023437-0.28125-0.0625-0.32422-0.19922-0.039062-0.14062 0.03125-0.28516 0.16406-0.33984 1.6992-0.6875 3.9062-1.7773 5.0117-3.1445l-0.03125-0.050781c-0.14453-0.21875-0.10156-0.51172 0.09375-0.68359 0.19922-0.17188 0.49219-0.17188 0.69141 0 2.5391 2.2227 7.207 5.4531 13.426 6.0742 1.1484-0.50391 2.293-1.0508 3.4297-1.6367 1.1758-0.59375 2.2891-1.3047 3.3242-2.125 8.0391-6.5547 5.8086-16.164-0.73828-18.574-2.375-0.85156-5.0078-0.55078-7.1289 0.8125-5.8945 3.8008-11.141 8.5234-15.535 13.988-2.7773 3.4336-6.4727 6.0078-10.656 7.418-1.2227 0.40234-2.4766 0.71484-3.7461 0.93359-0.82422 0.13672-1.4297 0.84766-1.4297 1.6836v0.003906c0.015626 0.83594 0.64063 1.5273 1.4688 1.6367z"/>
  <path d="m79.066 29.031c0.17969-1.3828-0.60938-2.4453-2.0742-3.2773 1.0977-0.53516 0.89062-1.7266-1.1875-2.6055-0.51563-6.8008-10.293-5.5664-12.148 0l-4.3398 10.598-0.003906 0.003906c0.72266 0.09375 1.4297 0.26562 2.1133 0.51953 3.8281 1.4258 6.5781 4.8164 7.1875 8.8555 0.82031 4.9258-1.293 9.8555-5.8086 13.539h0.003906c-1.1523 0.91797-2.3945 1.7148-3.7109 2.3711-8.3711 4.3633-17.68 6.625-27.121 6.5938-1.1367 0-2.2852-0.03125-3.4375-0.09375-1.4102 1.9219-3.2109 3.5195-5.2812 4.6953l-1.3008 0.73828c-0.78125 0.44531-1.1875 1.3398-1 2.2188 0.18359 0.87891 0.91406 1.5391 1.8086 1.6328l0.046875 0.003907c0.49609 1.207 1.8867 1.5781 3.1523 0.80078-0.13672 1.1836 0.73438 2.0039 2.1406 1.7773 0.85938-0.15625 1.625-0.63672 2.1406-1.3398l2.4141-3.1602c1.4609-1.9023 3.3047-3.4766 5.418-4.6211 2.7461-1.543 5.6562-2.7734 8.6797-3.6641 1.7656-0.55859 4.207-0.12891 5.3164 1.4844 1.3281 2.0391 2.543 3.5234 4.4648 3.2188 1.0234-0.11328 1.8672-0.84375 2.1328-1.8359 0.35156-1.1094 1.0195-2.0898 1.9141-2.8281 9.3281-7.457 19.348-15.656 12.844-26.902-0.91016-2.9648-1.3281-6.0586-1.2344-9.1602 2.0625-1.7383 4.3633-1.4727 6.8711 0.4375zm-7.9844-4.5469-0.003906-0.003906c-0.61328 0-1.1641-0.36719-1.3984-0.93359-0.23438-0.56641-0.10547-1.2188 0.32812-1.6523 0.43359-0.43359 1.0859-0.5625 1.6523-0.32812s0.9375 0.78516 0.9375 1.3984c0 0.40234-0.16016 0.78906-0.44531 1.0742-0.28516 0.28516-0.67188 0.44141-1.0742 0.44141z"/>
  <path d="m61.516 78.773c-0.12109-0.023438-0.21484-0.125-0.22656-0.25391-0.011718-0.125 0.058594-0.24219 0.17188-0.29297 0.80078-0.29687 1.6523-0.43359 2.5039-0.40625 0.14062 0 0.26562-0.09375 0.29688-0.23047 0.035156-0.13672-0.027344-0.27734-0.15234-0.34375-0.96484-0.51172-2.0234-0.83203-3.1133-0.93359-0.72266-0.058594-1.3359-0.55078-1.5508-1.2422l-1.1875-3.9609v-0.003906c-0.42969 0.19531-0.88281 0.33203-1.3477 0.41016-0.19141 0.035156-0.38281 0.054687-0.57812 0.0625l1.2227 4.0859c0.20312 0.6875-0.03125 1.4336-0.59766 1.8789-0.97656 0.80469-1.7656 1.8125-2.3164 2.9531-0.12109 0.25391-0.078125 0.55859 0.10938 0.76953s0.48438 0.28516 0.75 0.19531c3.2617-1.1289 7.4727-0.69141 9.4141-0.39063 0.13672 0.019532 0.27344-0.058593 0.32813-0.1875 0.050781-0.12891 0.011718-0.27734-0.10156-0.35937-1.0586-0.85156-2.2969-1.4492-3.625-1.75z"/>
 </g>
</svg>