<?xml version="1.0" encoding="utf-8"?>
<!-- Generator: Adobe Illustrator 16.0.0, SVG Export Plug-In . SVG Version: 6.00 Build 0)  -->
<!DOCTYPE svg PUBLIC "-//W3C//DTD SVG 1.1//EN" "http://www.w3.org/Graphics/SVG/1.1/DTD/svg11.dtd">
<svg version="1.1" id="Layer_1" xmlns="http://www.w3.org/2000/svg" xmlns:xlink="http://www.w3.org/1999/xlink" x="0px" y="0px"
	 width="841.89px" height="595.28px" viewBox="0 0 841.89 595.28" enable-background="new 0 0 841.89 595.28" xml:space="preserve">
<path fill-rule="evenodd" clip-rule="evenodd" d="M341.668,183.388c4.002-1.558,7.987-3.155,12.003-4.666
	c12.663-4.761,26.335-4.51,39.326-7.804c3.535-0.897,8.181-0.224,11.524,1.382c19.703,9.466,34.621,23.802,42.05,44.77
	c1.802,5.086,2.311,10.755,2.602,16.197c0.191,3.56,2.674,5.324,4.01,7.958c0.713,1.407,1.354,3.654,0.711,4.754
	c-0.851,1.45-2.915,2.788-4.6,2.987c-1.813,0.215-3.791-0.935-5.949-1.563c1.288,1.153,2.777,2.245,3.942,3.616
	c0.772,0.909,1.077,2.214,1.591,3.339c-1.127,0.238-2.283,0.767-3.375,0.66c-2.538-0.255-5.041-0.815-7.698-0.792
	c0.609,0.224,1.218,0.451,1.823,0.679c1.736,0.652,3.645,1.037,5.165,2.021c2.156,1.395,2.137,3.15-0.075,4.374
	c-2.025,1.114-4.306,2.038-6.576,2.41c-22.455,3.695-44.349,1.154-65.419-7.147c-12.819-5.053-22.658-13.855-28.239-26.807
	c-1.372-3.182-2.894-6.505,0.57-9.666c-0.851,0.334-1.705,0.663-2.558,0.991c-0.248-0.207-0.495-0.412-0.743-0.619
	c1.464-1.963,2.929-3.924,4.486-6.008c-1.42,0.568-2.882,1.154-4.346,1.739c-0.41-2.705-0.314-2.868,4.383-7.153
	c-1.876,0.451-3.217,0.777-4.579,1.107c0.812-2.797,0.812-2.797,6.743-6.311c-2.256,0.466-3.902,0.809-5.548,1.147
	c-0.122-0.199-0.245-0.397-0.367-0.601c1.136-0.817,2.208-1.766,3.434-2.419c1.327-0.708,2.798-1.143,4.986-1.998
	c-2.195-0.154-3.529-0.249-4.865-0.341c-0.068-0.22-0.139-0.44-0.209-0.665c2.294-0.721,4.586-1.446,6.592-2.08
	c-0.302-0.196-1.011-0.658-1.718-1.118c0.059-0.297,0.12-0.591,0.178-0.884c2.307,0,4.618,0,6.927,0
	c0.036-0.119,0.07-0.238,0.106-0.357c-1.353-0.531-2.707-1.063-4.385-1.721c3.971-1.8,7.42-0.075,11.824,0.851
	c-2.137-1.316-3.547-2.183-4.958-3.048c0.041-0.184,0.081-0.368,0.122-0.552c2.032,0.291,4.062,0.583,6.137,0.878
	c0.392-1.455,0.928-1.39,13.011,2.009c0.101-0.251,0.202-0.499,0.302-0.744c-2.919-1.133-5.752-2.736-8.78-3.305
	c-9.697-1.825-18.597-0.061-26.167,6.763c-6.374,5.755-8.148,12.866-7.105,21.175c0.795,6.336,3.026,11.979,6.54,17.215
	c0.586,0.873,1,1.862,1.565,2.937c-0.958,0.073-1.731,0.128-2.729,0.205c2.026,1.211,3.856,2.304,5.686,3.397
	c-0.074,0.231-0.151,0.464-0.226,0.696c-3.061,0-6.122,0-9.185,0c-0.002,0.114-0.004,0.226-0.005,0.343
	c1.636,0.152,3.271,0.307,5.435,0.508c-0.962,1.039-1.574,1.703-2.458,2.656c3.03-0.976,5.714-2.765,9.044-0.772
	c-1.661,0.752-3.006,1.358-4.353,1.967c0.045,0.13,0.091,0.264,0.136,0.397c1.972-0.174,3.945-0.346,5.914-0.519
	c0.06,0.286,0.117,0.57,0.177,0.854c-2.035,1.154-4.072,2.313-6.107,3.469c6.799-1.843,7.269-1.869,10.41-0.141
	c-7.455,6.473-14.667,13.221-22.416,19.282c-4.703,3.68-10.321,6.163-15.373,9.427c-6.096,3.934-12.023,8.123-17.936,12.142
	c0.197-1.541,0.691-3.63,0.675-5.72c-0.029-3.845-0.117-7.717-0.605-11.523c-1.648-12.841,4.015-22.598,12.854-31.001
	c4.67-4.437,10.069-7.923,16.687-8.095c4.33-0.112,8.687,0.861,13.03,1.351c-0.163,0.305-0.326,0.606-0.491,0.905
	c-1.511-1.282-3.024-2.567-4.535-3.857c0.231-0.301,0.464-0.605,0.696-0.909c0.025,0.431,0.051,0.861,0.087,1.47
	c-7.548,0-15.115-0.345-22.639,0.071c-16.68,0.926-31.751,6.407-44.094,17.888c-8.78,8.17-14.672,18.563-19.986,29.196
	c-3.7,7.399-6.87,14.98-7.641,23.434c-0.924,10.112,2.948,18.066,10.041,24.795c7.422,7.039,16.931,9.792,26.362,12.715
	c12.726,3.942,25.341,8.079,36.115,16.414c19.204,14.865,25.426,42.857,13.737,63.342c-4.568,8-10.923,14.229-19.623,17.755
	c-0.521,0.213-1.083,0.321-2.418,0.706c15.695-13.901,21.713-30.469,16.61-50.136c-3.524-13.591-12.778-22.977-25.241-29.29
	c0.835,0.671,1.679,1.336,2.505,2.021c0.914,0.755,1.809,1.532,2.72,2.291c12.085,10.064,18.732,22.707,18.354,38.681
	c-0.425,17.895-12.618,30.331-27.369,35.232c-0.725,0.241-1.522,0.268-2.528-0.061c1.294-0.918,2.566-1.871,3.888-2.749
	c18.039-11.974,20.575-29.975,12.502-48.107c-4.157-9.341-11.239-16.237-19.367-22.172c3.691,4.254,7.678,8.291,11.006,12.814
	c5.632,7.668,9.386,16.078,9.506,25.942c0.101,8.22-3.538,14.18-9.788,18.886c-5.577,4.198-11.902,6.057-18.893,5.601
	c-2.96-0.192-5.929-0.293-8.889-0.524c-0.988-0.075-1.956-0.425-2.884-1.194c5.218-1.467,10.435-2.933,15.652-4.398
	c0.005-0.305,0.012-0.608,0.017-0.911c-11.48-1.045-20.95-5.529-27.085-15.58c-1.647-2.692-2.123-5.661-1.24-9.359
	c3.298,6.98,9.028,10.179,15.594,12.112c13.257,3.898,19.464-3.211,17.601-16.115c-0.843-5.854-3.801-10.804-8.029-14.857
	c-3.993-3.828-8.131-7.527-12.423-11.019c-10.856-8.83-18.705-20.01-25.527-32.028c-0.308-0.548-0.622-1.092-1.129-1.589
	c6.105,16.557,6.768,33.557,4.392,50.797c-1.298,9.417-2.79,18.802-4.193,28.204c-0.483,0.106-0.967,0.213-1.449,0.318
	c-1.957-3.168-3.913-6.335-5.868-9.506c-0.264,0-0.527,0-0.792,0c0.288,3.308,0.623,6.61,0.85,9.922
	c0.761,11.103,8.049,17.631,16.45,23.267c16.534,11.099,34.524,15.329,54.076,10.375c12.218-3.096,20.111-11.632,25.925-22.35
	c11.598-21.381,7.727-49.101-10.612-64.642c-9.045-7.665-19.835-11.884-30.862-15.776c-9.068-3.201-18.064-6.717-26.774-10.776
	c-6.194-2.888-11.392-7.367-14.897-13.54c-5.53-9.742-4.02-17.141,5.264-23.426c2.92-1.976,6.257-3.332,9.37-5.03
	c2.509-1.369,5.12-2.617,7.418-4.287c5.679-4.125,7.157-11.471,3.893-17.704c-1.41-2.693-2.794-5.427-3.855-8.266
	c-0.462-1.229-0.079-2.772-0.079-3.665c1.845,3.07,3.532,6.537,5.817,9.547c4.624,6.101,4.792,12.389,2.015,19.245
	c-3.648,9.012-10.141,15.131-18.704,19.32c-2.003,0.982-3.967,2.038-5.755,3.662c0.898-0.131,1.828-0.152,2.689-0.407
	c5.208-1.554,10.469-1.446,15.849-1.121c3.867,0.229,8.002,0.005,11.657-1.159c4.749-1.514,7.598-5.197,7.362-10.604
	c-0.032-0.738-0.003-1.479,0.303-2.236c2.362,3.061,2.583,6.334,1.006,9.785c-2.172,4.764-6.065,7.732-10.667,9.802
	c-2.77,1.242-5.713,2.096-9.366,3.406c3.549,0.217,6.375,0.474,9.206,0.539c6.505,0.157,13.021,0.425,19.517,0.218
	c2.363-0.075,4.799-1.131,7.012-2.147c6.115-2.824,7.944-6.359,7.137-13.08c-0.051-0.429-0.055-0.863-0.097-1.553
	c3.13,3.275,3.402,8.47,0.852,13.061c-3.265,5.875-8.588,9.416-14.687,11.333c-7.57,2.379-15.411,3.898-23.621,5.911
	c14.071,0.036,26.813,7.895,41.786,4.725c-3.694,4.472-8.115,4.472-13.281,4.361c20.458,7.457,32.631,21.624,38.056,41.678
	c5.467,20.213,0.06,38.316-11.377,55.109c4.433-3.229,8.786-6.573,13.314-9.665c12.83-8.765,27.03-14.307,42.326-16.648
	c10.585-1.624,20.877,0.049,30.378,5.342c14.513,8.092,20.982,25.194,15.612,41.909c-1.19,3.709-3.039,7.275-5.039,10.639
	c-2.359,3.966-2.393,7.319,1.188,10.254c7.248,5.947,15.642,8.567,25.05,7.848c10.448-0.803,18.335-6.041,24.85-13.923
	c6.01-7.271,13.429-12.521,22.805-14.522c9.884-2.115,19.485-1.296,28.378,3.784c2.332,1.333,4.281,3.435,6.168,5.41
	c1.927,2.007,1.75,4.214-0.286,6.361c-0.526-0.33-1.027-0.623-1.506-0.947c-17.692-11.98-40.104-7.024-50.949,11.456
	c-13.86,23.618-34.051,38.271-61.016,43.243c-27.666,5.1-61.972-7.381-76.763-32.104c-2.924-4.89-5.293-10.115-8.026-15.396
	c-3.899,3.446-7.89,1.948-11.763-0.626c-2.523-1.678-5.024-2.414-8.073-1.298c-3.199,1.173-5.502-0.142-6.116-3.059
	c-0.503-2.399,1.444-5.038,4.315-5.299c1.699-0.155,3.478,0.322,5.188,0.677c0.905,0.183,1.736,0.709,3.242,1.355
	c-0.154-2.21-0.229-3.83-0.389-5.439c-0.311-3.143-0.12-6.218,2.194-8.592c0.922-0.947,2.395-1.351,4.081-1.792
	c-2.096,6.942-0.105,12.882,3.683,19.339c0.626-1.902,1.365-3.238,1.475-4.626c1.09-13.683,6.149-25.807,14.199-36.79
	c0.146-0.203,0.15-0.511,0.486-1.744c-3.358,2.513-6.241,4.315-8.71,6.575c-10.988,10.059-23.455,17.261-38.006,20.884
	c-10.406,2.594-12.783,9.75-4.155,17.371c12.372,10.926,26.19,19.663,40.56,27.67c8.527,4.75,16.812,9.948,25.176,14.995
	c9.561,5.771,19.869,9.497,30.891,11.88c-1.36,0.09-2.726,0.324-4.074,0.253c-16.548-0.858-32.772-3.761-48.642-8.401
	c-38.585-11.286-71.813-31.666-99.827-60.353c-13.512-13.836-24.124-29.818-29.914-48.474c-6.098-19.659-3.728-38.77,4.965-57.265
	c4.269-9.079,7.084-18.576,7.265-28.698c0.033-1.934-0.367-3.877-0.761-5.819c-0.074,13.676-5.149,25.96-9.861,38.463
	c-9.902,26.283-7.737,52.036,4.867,77.013c3.376,6.689,6.899,13.306,10.155,20.055c1.101,2.276,1.596,4.846,2.352,7.289
	c1.096,3.531,0.028,6.646-2.034,9.47c-0.527,0.724-1.568,1.626-2.239,1.53c-0.649-0.096-1.359-1.296-1.636-2.145
	c-0.875-2.664-1.559-5.397-2.456-8.592c-0.869,4.645-1.33,8.715-2.444,12.601c-1.127,3.931-2.832,7.735-7.593,9.253
	c-0.147-0.867-0.375-1.437-0.313-1.97c1.44-12.571-1.848-23.978-8.016-34.868c-4.956-8.745-10.239-17.462-13.86-26.783
	c-9.165-23.583-9.95-47.448,1.364-70.676c2.808-5.759,7.269-10.771,11.294-15.87c4.502-5.703,8.219-11.766,8.354-19.153
	c0.077-4.14-0.854-8.374-1.82-12.453c-2.078-8.788-5.184-17.389-6.591-26.269c-3.214-20.268-1.587-40.149,6.998-59.127
	c6.741-14.891,14.08-29.462,25.085-41.729c5.192-5.79,11.127-10.912,16.751-16.31c0.917-0.878,1.967-1.618,2.734-2.864
	c-1.843,0.805-3.635,1.771-5.54,2.383c-3.912,1.253-7.872,2.377-11.847,3.421c-0.905,0.235-2.116,0.221-2.893-0.21
	c-1.091-0.604-2.528-1.611-2.681-2.616c-0.157-1.033,0.776-2.854,1.723-3.306c2.076-0.997,4.43-1.635,6.731-1.886
	c2.636-0.282,5.354-0.178,8.001,0.097c6.403,0.671,11.603-2.276,16.865-5.397c-4.914,1.281-9.656,0.539-14.307-0.971
	c-8.892-2.887-15.659-8.585-21.095-16.061c-6.436-8.85-10.739-18.814-15.154-28.729c-2.092-4.7-4.765-8.899-10.574-10.655
	c3.112-1.367,5.576-0.521,7.927,0.55c5.913,2.688,10.043,7.267,13.055,12.894c4.675,8.729,10.938,16.168,18.389,22.672
	c-2.315-2.804-4.52-5.712-6.966-8.4c-6.882-7.563-9.327-16.838-9.995-26.617c-0.379-5.563,0.002-11.225,0.529-16.797
	c1.155-12.236-3.183-22.295-11.708-30.72c-7.577-7.486-16.728-11.471-27.473-11.232c-2.707,0.061-5.399,0.786-8.77,1.309
	c3.337-4.11,7.563-4.82,11.791-5.519c6.063-1.004,11.834,0.568,17.43,2.452c6.611,2.226,13.501,4.225,19.436,7.732
	c10.625,6.277,15.561,16.927,18.855,28.403c2.144,7.461,4.077,15.001,6.625,22.322c2.176,6.263,5.795,11.823,10.652,16.522
	c-1.149-1.617-2.301-3.231-3.45-4.846c-5.739-8.077-7.834-17.516-10.313-26.868c-1.962-7.4-4.195-14.768-6.917-21.917
	c-2.928-7.69-8.621-13.21-16.069-16.628c-5.766-2.645-11.758-4.795-17.69-7.178c6.731,0.532,13.005,2.709,19.229,5.188
	c15.129,6.021,23.617,17.661,28.727,32.637c3.013,8.833,6.682,17.496,10.731,25.914c4.223,8.773,10.673,16.17,19.038,21.023
	c5.108,2.967,11.391,4.257,17.324,5.392c11.317,2.159,22.87,3.163,34.124,5.586c12.871,2.77,25.098,7.485,35.572,15.896
	c6.496,5.219,11.174,11.577,12.88,20.379c0.923-6.168-1.352-10.939-4.892-14.92c-3.504-3.941-5.453-8.03-4.713-13.373
	c0.966-7.02,3.025-13.486,8.394-18.461c1.668-1.541,3.5-2.908,5.172-4.449c2.59-2.389,2.646-4.619,0.271-7.193
	c-0.468-0.506-0.96-1.034-1.541-1.388c-18.828-11.475-35.883-12.67-52.582,2.703c-3.953,3.638-7.142,8.178-10.286,12.581
	c-1.814,2.542-3.64,3.894-6.809,3.313c-3.419-0.627-6.875-1.038-10.589-1.582c12.726-17.355,27.364-31.803,44.485-43.689
	c10.564-7.335,21.466-14.07,33.978-17.649c19.916-5.703,39.155-3.517,58.086,4.532c17.402,7.396,30.622,18.969,38.252,36.431
	c1.835,4.195,2.975,8.692,4.686,13.795c0.48-2.406,0.729-4.193,1.207-5.914c0.77-2.782,2.52-5.057,5.463-5.065
	c1.91-0.006,4.131,1.029,5.635,2.292c1.053,0.882,1.131,2.935,1.643,4.463c-0.31,0.112-0.622,0.222-0.935,0.332
	c-0.188-0.389-0.282-0.869-0.575-1.149c-0.839-0.803-1.816-2.183-2.627-2.113c-0.939,0.088-2.344,1.363-2.536,2.324
	c-1.499,7.47,0.054,21.256,8.343,25.101c0.137,0.061,0.185,0.317,0.371,0.663c-3.74,0.733-6.938-0.324-9.479-2.838
	c-2.422-2.396-4.485-5.148-7.092-8.196c-0.176,14.184-4.097,26.595-13.408,37.031c0.155,0.284,0.309,0.568,0.461,0.854
	c4.967-0.975,10.088-1.474,14.865-3.029c8.768-2.854,16.685-7.408,22.25-15.001c1.916-2.611,3.092-5.908,4.025-9.061
	c0.887-2.985-0.886-5.684-3.57-6.597c-5.967-2.028-8.025-4.422-8.293-9.663c-0.275-5.32,2.691-10.163,7.563-12.35
	c7.595-3.408,17.938,0.635,22.237,8.631c3.605,6.704,3.078,13.507,0.53,20.332c-3.614,9.684-10.874,16.354-18.9,22.285
	c-12.271,9.062-26.088,13.821-41.34,14.173c-6.593,0.152-12.844,1.413-19.062,3.678c-17.031,6.21-32.97,4.262-46.719-8.086
	c-11.534-10.358-14.501-26.853-8.427-42.897c0.523-1.382,1.263-2.728,1.508-4.155c0.18-1.059-0.279-2.225-0.452-3.343
	c-1.21,0.297-2.787,0.213-3.572,0.957c-3.84,3.646-6.718,7.985-8.385,13.074c-1.821,5.554-2.053,11.244-1.571,17.006
	c0.083,0.984,0.452,2.055,0.194,2.943c-1.957,6.769,2.513,10.985,6.029,15.595c0.282,0.372,0.517,0.776,0.886,1.334
	c-4.233-0.305-8.211-0.823-12.179-0.77c-1.64,0.023-3.234,1.353-4.904,1.92c-1.284,0.438-2.647,0.664-3.992,0.895
	c-3.708,0.637-4.75,0.094-6.346-3.362c-5.353-11.583-14.933-18.542-26.088-23.706c-1.539-0.71-3.407-0.706-5.149-0.877
	c13.229,6.193,24.595,14.311,31.364,27.972c-12.992,3.27-13.183,3.291-13.568,1.343c-2.397,3.486-6.216,2.744-9.474,3.295
	c-4.188,0.708-7.304,2.773-9.895,5.913c-0.199,0.24-0.119,0.713-0.177,1.068c-0.991-0.359-1.974-0.706-2.2-0.786
	c-2.533,1.836-4.542,3.291-6.551,4.744c0.106,0.171,0.212,0.34,0.316,0.51C336.062,186.392,338.865,184.887,341.668,183.388z
	 M343.141,154.58c0.384,0.864,0.984,1.696,1.113,2.599c0.686,4.814,6.267,7.776,10.174,5.104c-3.221,0.458-5.393-0.828-7.32-3.148
	c-1.848-2.225-2.801-4.478-1.361-7.499c-0.387-0.033-0.771-0.066-1.157-0.098c-0.463,1.037-0.924,2.073-1.389,3.106
	c-2.984,1.929-5.971,3.858-8.955,5.79c0.157,0.224,0.316,0.449,0.473,0.678C338.647,160.421,341.958,158.912,343.141,154.58z
	 M266.877,172.08c0.174,0.01,0.348,0.022,0.521,0.031c-0.098,0.165-0.191,0.335-0.296,0.495c-2.304,3.552-2.226,5.826,0.295,8.724
	c2.154,2.472,4.576,3.126,7.159,1.924c-0.167-0.078-0.327-0.199-0.503-0.23c-4.083-0.754-6.458-3.233-6.267-6.831
	c0.187-3.592,2.638-4.46,5.734-4.415c0.368,0.006,0.842-0.139,1.086-0.396c0.586-0.596,1.571-1.367,1.496-1.952
	c-0.275-2.141-0.917-4.229-1.313-5.892c-2.38,2.569-5.143,5.557-7.908,8.544c-5.768-0.87-13.057,3.037-13.552,7.327
	C257.17,175.65,261.706,173.268,266.877,172.08z M377.099,149.095c0.126,0.527,0.117,1.146,0.399,1.572
	c2.177,3.284,4.408,6.535,6.404,9.472c-0.244-3.476-3.931-9.571-6.879-10.964c-0.752-0.979-1.349-2.145-2.283-2.896
	c-2.828-2.266-5.785-4.369-8.694-6.535c-1.612-1.197-3.069-2.791-4.875-3.508c-4.453-1.767-8.991-3.426-13.631-4.578
	c-4.628-1.142-9.426-1.615-14.148-2.383c-0.064,0.393-0.131,0.775-0.196,1.166c3.326,0.73,6.623,1.646,9.979,2.162
	c11.346,1.752,21.571,5.764,29.871,14.017C374.137,147.707,375.739,148.277,377.099,149.095z M249.247,184.752
	c0.569,0.657,1.108,1.347,1.713,1.97c3.565,3.696,7.375,3.526,10.331-0.445c-5.359,2.569-9.765,0.868-11.104-4.214
	c-0.88-3.344,0.331-6.141,2.481-8.423c6.223-6.606,12.375-13.289,20.378-17.922c17.692-10.249,36.998-15.844,56.916-19.328
	c7.217-1.265,14.753-1.24,21.972,1.263c12.304,4.265,21.012,12.739,28.073,23.356c-0.603-1.785-1.061-3.817-2.276-5.176
	c-3.862-4.307-7.627-8.835-12.121-12.413c-10.966-8.734-23.912-10.112-37.229-8.03c-8.127,1.271-16.068,3.702-24.117,5.496
	c-19.431,4.338-36.065,13.446-49.381,28.431c-3.997,4.499-7.565,8.968-5.542,15.538c-1.279,0.483-2.67,0.79-3.823,1.488
	c-7.228,4.384-11.225,11.133-13.437,19.04c-0.426,1.531-0.265,3.344,0.054,4.944c0.63,3.136,4.023,6.167,6.937,6.552
	c2.639,0.347,5.451-1.371,6.915-4.227c-4.136,2.394-6.653,2.441-9.449,0.173c-2.885-2.343-4.065-6.033-2.486-9.882
	c2.622-6.386,6.23-12.076,12.678-15.438C247.767,186.967,248.417,185.688,249.247,184.752z M423.513,110.453
	c0.193,0.182,0.382,0.367,0.574,0.549c-0.727,1.466-1.474,2.923-2.177,4.401c-4.316,9.066-5.045,18.354-1.589,27.859
	c4.005,11.013,13.472,18.153,25.746,17.345c11.236-0.742,19.198-6.654,25.268-15.543c8.639-12.657,8.152-31.532-1.305-45.558
	c-12.07-17.907-29.805-25.722-50.673-26.662c-14.27-0.647-27.481,3.592-39.291,11.819c-2.588,1.803-5.21,3.552-8.447,5.758
	c16.633-2.038,27.754,2.564,37.574,15.285c2.092,2.71,3.692,5.799,5.713,8.573c0.472,0.646,1.736,0.713,2.635,1.045
	c0.304-0.904,0.968-1.87,0.827-2.694c-0.238-1.391-0.988-2.694-1.524-4.036c2.763-0.91,2.814-0.855,3.722,3.699
	C421.559,111.674,422.535,111.065,423.513,110.453z M412.526,479.564c-0.292-0.274-0.582-0.548-0.874-0.817
	c0.714-1.044,1.236-2.323,2.174-3.092c5.385-4.411,7.867-10.279,8.65-16.965c1.168-9.988-1.12-18.727-9.857-24.736
	c-8.747-6.017-18.225-5.925-27.749-2.4c-21.028,7.783-32.31,37.902-17.806,58.934c12.077,17.51,29.52,24.051,49.903,23.637
	c12.982-0.264,24.975-4.598,35.764-11.896c3.02-2.042,5.756-4.503,8.623-6.771c-15.223,2.485-25.303-1.11-35.263-12.936
	c-0.955-1.132-1.856-2.316-2.857-3.408c-2.332-2.548-4.687-2.872-7.67-1.162C414.573,478.522,413.541,479.027,412.526,479.564z
	 M442.212,259.51c-0.074-0.367-0.147-0.733-0.222-1.1c-1.056,0.134-2.141,0.155-3.16,0.427c-11.354,2.983-22.788,4.521-34.543,2.729
	c-15.353-2.34-27.784-9.339-35.083-23.306c-7.788-14.896-6.523-25.715,5.581-36.035c3.936-3.354,8.351-6.146,12.268-8.991
	c-4.08,0.134-7.954,2.038-11.668,4.558c-10.022,6.811-15.433,15.767-12.828,28.182c3.42,16.289,13.032,27.669,28.519,33.644
	c13.747,5.302,27.96,5.221,42.22,2.144C436.289,261.113,439.24,260.265,442.212,259.51z M264.201,147.168
	c0.005,0.261,0.011,0.524,0.015,0.788c5.237-0.694,10.696-0.669,15.666-2.214c16.37-5.097,32.715-10.183,48.525-12.654
	c-11.689-1.65-24.473-3.451-37.585-5.299c4.548,2.272,8.824,4.408,13.096,6.543c-0.043,0.211-0.086,0.42-0.129,0.634
	c-2.877-0.26-5.754-0.521-8.627-0.777c-0.058,0.317-0.113,0.629-0.168,0.944c1.58,0.496,3.158,0.997,5.518,1.739
	c-4.797,1.409-8.963-1.281-12.9-0.017c0.002,0.284,0.005,0.57,0.008,0.855c2.117,0.343,4.234,0.686,6.35,1.028
	c-0.026,0.253-0.049,0.508-0.075,0.763c-4.587,0-9.178,0-13.766,0c-0.01,0.245-0.023,0.489-0.034,0.738
	c2.025,0.332,4.048,0.662,6.507,1.065c-4.399,1.719-8.995-0.765-13.385,2.028c2.156,0.495,3.706,0.851,5.473,1.259
	C273.614,145.497,268.907,146.331,264.201,147.168z M326.188,144.027c-0.103-0.365-0.205-0.731-0.309-1.095
	c-0.362-0.086-0.718-0.214-1.085-0.249c-4.99-0.495-8.947,1.464-12.378,4.978c-4.222,4.321-9.304,5.688-13.839,2.912
	c-5.46-3.349-12.162,0.447-14.701,4.202c-2.055,3.041-1.456,7.402,1.3,9.969c2.443,2.271,6.083,2.342,9.165,0.121
	c-1.035-0.079-2.011-0.068-2.952-0.246c-4.651-0.882-6.817-5.201-4.593-9.094c1.811-3.174,6.008-5.063,10.051-3.695
	c5.508,1.868,10.376,0.581,15.196-1.949c2.747,8.487,5.99,10.54,11.454,7.197c-0.981-0.102-1.877-0.096-2.723-0.298
	c-3.322-0.788-6.038-4.55-5.458-7.466c0.627-3.146,4.013-4.945,7.817-4.417C324.092,145.031,325.166,144.337,326.188,144.027z
	 M413.255,223.682c-0.359,0.083-0.718,0.163-1.077,0.246c0.594,1.858,0.784,4.008,1.867,5.513c2.212,3.064,5.743,3.276,9.578,2.981
	c-5.058,2.88-12.41,0.487-14.489-8.103c1.447-0.714,2.9-1.433,4.352-2.149c-0.073-0.136-0.146-0.271-0.217-0.405
	c-2.558,0.403-5.113,0.809-7.614,1.204c0.969,1.941,1.909,3.633,2.68,5.401c2.916,6.671,11.026,9.433,17.348,5.861
	c4.573-2.583,7.585-9.967,5.159-13.391c-3.112-4.391-7.43-6.843-12.441-6.773c2.361,1.263,5.303,2.438,7.77,4.252
	c3.179,2.348,3.689,4.959,2.311,8.665c-0.912,2.447-2.434,4.188-5.379,4.313c-4.191,0.18-7.076-1.158-8.627-4.384
	C413.977,225.881,413.657,224.764,413.255,223.682z M298.556,226.401c-4.983,3.158-8.686,5.42-12.298,7.818
	c-3.853,2.559-7.945,4.888-11.33,7.979c-3.385,3.09-6.021,7.002-8.989,10.553c4.577-3.591,8.563-7.77,13.141-11.148
	c13.753-10.153,27.9-19.638,45.82-21.176c-1.065-0.226-2.135-0.726-3.134-0.612c-3.299,0.389-6.566,1.043-9.858,1.5
	c-0.821,0.111-1.689-0.123-3.009-0.24C306.25,225.013,301.624,226.061,298.556,226.401z M335.175,153.187
	c-4.831,1.586-9.077,3.158-12.365,7.04c-2.071,2.448-5.063,4.34-7.985,5.782c-2.756,1.361-6.236-0.028-7.954-2.301
	c-1.934-2.553-1.247-4.97,0.351-7.361c0.32-0.475,0.507-1.039,0.753-1.563c-2.489,1.62-5.691,2.692-4.814,6.535
	c1.348,5.897,6.444,8.48,11.988,5.949c1.935-0.88,3.703-2.124,5.747-3.321c-0.384,1.888-0.717,3.512-1.049,5.134
	c0.404,0.101,0.806,0.199,1.209,0.297c0.256-0.914,0.556-1.823,0.758-2.755c0.244-1.132,0.184-2.384,0.642-3.408
	c1.352-3.015,3.946-4.137,7.121-4.461C333.429,158.36,334.469,157.267,335.175,153.187z M241.986,378.306
	c0.541-16.149,0.005-31.706-3.159-47.088c-1.189-5.787-2.233-11.652-5.678-16.646c-2.814-4.079-5.811-8.034-8.726-12.044
	c1.334,3.093,2.54,6.372,4.515,9.09c9.027,12.409,10.783,26.892,12.021,41.473C241.65,361.247,241.65,369.465,241.986,378.306z
	 M240.416,298.489c0.282,0.121,0.567,0.246,0.851,0.367c1.508-3.686,2.725-7.529,4.582-11.031
	c5.128-9.668,10.672-19.115,15.735-28.814c1.96-3.761,3.07-7.963,4.568-11.966c-4.238,4.358-4.142,12.367-12.544,12.565
	c0.028,0.264,0.057,0.529,0.085,0.79c1.68,0.128,3.358,0.257,5.391,0.412c-3.368,6.226-6.868,12.275-9.964,18.527
	C246.008,285.618,243.3,292.099,240.416,298.489z M338.718,138.679c17.56,2.051,30.309,11.788,38.695,27.539
	C374.347,150.791,353.094,136.864,338.718,138.679z M251.187,98.869c0.191-0.088,0.382-0.173,0.572-0.259
	c-1.415-5.481-3.109-10.91-4.182-16.458c-1.439-7.457-3.201-14.762-6.645-21.578c-0.442-0.874-0.905-1.744-1.414-2.582
	c-0.455-0.75-0.985-1.459-1.48-2.185c4.006,8.297,6.066,17.09,8.233,25.872C247.699,87.462,249.534,93.14,251.187,98.869z
	 M322.564,186.506c-0.305,0.176-0.602,0.375-0.919,0.521c-2.338,1.07-4.824,1.695-6.941-0.134c-2.284-1.972-2.306-4.631-1.265-7.338
	c0.555-1.438,1.094-2.881,1.642-4.323c-2.533,2.525-5.846,4.672-4.903,8.935c0.696,3.15,2.666,5.324,5.918,5.854
	C318.909,190.477,321.216,189.366,322.564,186.506z M294.44,172.812c-6.752,3.14-6.752,3.14-12.627-6.094
	c0.891,5.105-2.027,8.13-5.131,11.563c3.854-0.169,5.367-2.531,6.921-4.833C287.114,178.362,291.458,178.199,294.44,172.812z
	 M260.608,238.274c1.089,2.948,3.27,3.771,5.913,3.5c3.591-0.368,7.339-3.382,7.468-6.182c0.047-1.032-0.966-2.113-1.496-3.175
	c-1.257,1.218-1.475,2.347-2.122,3.118c-1.156,1.378-2.371,3-3.928,3.676c-1.856,0.809-3.542,0.012-3.392-2.787
	C262.171,237.09,261.412,237.664,260.608,238.274z M258.244,212.785c-0.042,0.348-0.085,0.696-0.127,1.046
	c0.779,0.297,1.542,0.803,2.335,0.856c5.406,0.362,10.675-7.145,8.574-12.143c-1.247-2.961-3.724-4.017-6.704-2.864
	c-3.32,1.285-4.229,3.132-3.349,5.439c0.75-0.962,1.531-2.964,2.761-3.291c1.628-0.433,4.116-0.127,5.281,0.92
	c1.002,0.901,1.29,3.496,0.799,4.981C266.373,212.119,262.796,213.479,258.244,212.785z M292.488,199.741
	c-2.316,6.171-0.541,11.937,3.95,13.49c4.354,1.507,9.894-1.156,11.597-5.768c-3.202,2.621-6.458,5.306-10.604,3.419
	C292.749,208.755,292.469,204.211,292.488,199.741z M293.558,180.91c-2.186,1.257-4.428,3.451-6.852,3.669
	c-2.262,0.204-4.715-1.689-6.96-2.611c-0.053,2.964,2.159,5.41,5.623,5.801C289.794,188.269,292.628,185.814,293.558,180.91z
	 M325.375,210.737c0.474,1.873,0.62,3.691,1.392,5.188c0.978,1.9,2.461,3.535,3.729,5.287c0.865,1.193,1.691,2.418,2.606,3.57
	c0.978,1.233,1.991,2.447,3.081,3.578c0.951,0.987,2.032,1.851,3.057,2.771c0.066-0.092,0.134-0.182,0.201-0.271
	C334.871,224.323,330.299,217.78,325.375,210.737z M275.71,205.21c0.265,3.742,0.917,7.105,4.788,8.724
	c2.241,0.937,4.339,1.01,5.637-0.218c0-2.013,0-3.325,0-4.582C280.456,212.403,279.805,212.169,275.71,205.21z M232.381,233.958
	c-1.863,2.916-1.473,6.146,1.777,7.732c3.114,1.519,6.328,1.233,9.265-0.623c2.887-1.818,4.392-4.515,4.651-7.044
	c-2.191,1.978-4.511,4.609-7.337,6.465c-2.521,1.656-5.653,1.027-7.448-1.344C232.268,237.794,232.597,235.417,232.381,233.958z
	 M264.566,226.401c-0.786,3.033-2.776,3.787-5.113,4.274c-5.691,1.186-7.292-3.6-10.063-6.934c0.189,3.838,2.054,6.554,5.138,7.685
	c4.598,1.687,8.42,0.755,11.772-2.917C265.827,227.934,265.346,227.348,264.566,226.401z M275.34,224.829
	c0.948,2.905,4.356,3.869,8.289,2.343c3.949-1.529,5.296-5.293,3.363-9.392C284.276,225.885,281.764,227.406,275.34,224.829z
	 M297.237,186.067c-1.676,0.096-1.737,1.472-1.648,3.064c0.214,3.803,2.279,6.876,5.324,7.637c1.833,0.46,3.603,0.506,4.462-1.028
	c-2.294-0.962-5.088-1.34-6.454-2.938C297.605,191.263,297.761,188.461,297.237,186.067z M245.565,246.351
	c-3.297,0.708-6.467,1.388-9.625,2.069c1.532,1.869,3.424,3.775,6.476,2.714C244.606,250.375,245.942,248.79,245.565,246.351z
	 M298.843,162.805c-0.032-0.262-0.067-0.524-0.1-0.784c-1.343-1.096-2.569-2.423-4.075-3.202c-0.955-0.492-2.365-0.344-3.502-0.126
	c-0.423,0.084-1.076,1.428-0.877,1.788c0.505,0.919,1.346,2.157,2.2,2.286C294.562,163.08,296.72,162.827,298.843,162.805z
	 M247.782,266.283c-0.266,2.511,0.017,5.515-0.992,7.994c-1.393,3.431-4.769,2.914-8.218,1.961c3.337,2.843,6.791,2.676,9.149-0.067
	C250.67,272.738,250.488,268.844,247.782,266.283z M228.235,225.991c2.565-0.18,4.938-0.347,7.58-0.531
	c-0.872-2.297-2.068-4.137-4.395-4.311C227.787,220.878,229.11,224.116,228.235,225.991z M252.589,239.843
	c-1.203,3.832,0.106,7.688,3.215,9.024c3.298,1.42,6.007,0.592,7.575-2.775c-0.984-0.005-1.957,0.149-2.744,0.614
	c-3.115,1.846-5.47,1.29-6.927-2.034C253.03,243.119,252.914,241.32,252.589,239.843z M428.035,516.005
	c-10.588,1.514-21.159,1.449-31.645-1.227C406.798,518.551,417.367,518.196,428.035,516.005z M220.688,337.002
	c-4.327,5.907-9.511,11.468-10.937,19.092C213.397,349.727,217.043,343.365,220.688,337.002z M240.898,202.578
	c0.336,1.758,0.199,3.499,0.82,3.83c1.839,0.994,3.967,0.725,5.23-1.119c1.062-1.551,1.651-3.42,2.699-5.69
	C246.807,201.315,245.637,205.39,240.898,202.578z M300.897,172.247c-2.077,2.866-1.944,6.88,0.298,9.024
	c1.923,1.84,4.157,1.706,6.824-0.399C303.666,181.372,300.288,180.488,300.897,172.247z M225.5,255.527
	c1.126,5.071,4.242,8.118,7.948,8.28c2.375,0.101,4.068-0.959,4.651-2.911C233.083,263.396,229.677,262.044,225.5,255.527z
	 M328.539,147.241c-0.294,0.033-0.589,0.066-0.884,0.101c-1.253,0.948-2.467,1.948-3.772,2.813c-0.628,0.418-1.43,0.572-2.151,0.845
	c0.678,0.798,1.443,2.316,2.015,2.247c1.297-0.161,2.89-0.808,3.638-1.805C328.198,150.362,328.189,148.665,328.539,147.241z
	 M250.609,212.309c-0.467,2.923-0.019,5.35,1.995,6.301c1.134,0.535,2.728,0.097,4.724,0.097
	C254.496,216.009,252.417,214.027,250.609,212.309z M251.822,194.151c-1.509-1.42-2.844-2.678-4.634-4.36
	c-1.039,1.692-1.921,3.131-2.801,4.567c0.258,0.194,0.517,0.382,0.774,0.574C247.343,194.678,249.527,194.421,251.822,194.151z
	 M316.561,206.473c2.57,1.553,4.79,1.354,6.901-0.015c2.334-1.51,3.184-3.753,2.697-6.594
	C323.57,204.846,323.042,205.223,316.561,206.473z M245.556,225.995c-2.554,1.64-5.383,3.456-8.604,5.525
	c1.206,0.169,2.49,0.72,3.547,0.429C243.807,231.04,245.076,228.361,245.556,225.995z M388.75,161.857
	c-0.081-5.331-4.632-12.699-9.111-14.773c1.689,2.21,3.646,4.395,5.155,6.853C386.363,156.493,387.502,159.313,388.75,161.857z
	 M222.429,225.521c-0.361,0.074-0.719,0.148-1.078,0.223c0.836,2.258,1.145,5.053,2.698,6.579c0.997,0.982,3.832,0.094,5.843,0.04
	c-0.009-0.284-0.021-0.569-0.029-0.859C224.85,231.813,224.377,231.431,222.429,225.521z M231.29,212.976
	c-0.284-0.121-0.569-0.236-0.854-0.357c-4.389,3.35-6.513,6.304-6.856,8.786c1.864-1.736,4.299-3.921,6.625-6.215
	C230.755,214.643,230.939,213.721,231.29,212.976z M309.976,209.706c-0.302,2.96,0.785,5.111,3.204,6.539
	c2.282,1.343,5.109,1.108,7.411-0.482C314.248,216.26,312.978,215.545,309.976,209.706z M394.472,206.905
	c-5.123,2.687-9.388,6.177-12.071,11.364C386.453,214.454,390.463,210.683,394.472,206.905z M248.987,256.26
	c1.427-0.665,2.639-1.226,4.03-1.874c-0.858-1.356-1.711-2.707-2.963-4.692C249.997,252.426,246.476,253.821,248.987,256.26z
	 M230.5,285.644c-0.05,3.273,1.403,5.167,4.603,6.191c2.369,0.761,4.11,0.145,5.567-2.26
	C236.254,292.031,233.3,290.803,230.5,285.644z M221.731,261.638c-2.025,3.494-2.157,7.541,0.126,9.37
	c1.049,0.842,2.845,0.748,4.303,1.076c0.041-0.29,0.083-0.577,0.125-0.865C221.807,271.593,221.136,270.187,221.731,261.638z
	 M422.389,225.394c1.63-1.708,2.107-3.334,0.85-5.113c-0.144-0.201-1.372-0.038-1.62,0.301
	C420.432,222.21,420.578,223.79,422.389,225.394z M264.087,192.59c-0.156,0.07-0.313,0.142-0.468,0.211
	c1.275,1.108,2.389,2.641,3.87,3.2c1.347,0.506,3.091-0.044,4.76-0.132C269.234,194.659,266.66,193.624,264.087,192.59z
	 M434.092,225.209c-0.652-4.979-3.146-8.748-5.257-9.534C430.441,218.591,432.267,221.898,434.092,225.209z M264.745,184.594
	c-1.559,2.782-2.994,5.339-4.424,7.894c1.396-0.977,2.453-2.111,3.307-3.381C264.451,187.882,266.425,186.969,264.745,184.594z
	 M229.32,248.222c-1.229-0.537-2.687-0.901-3.787-1.739c-1.104-0.837-1.854-2.149-2.927-3.456
	C223.974,248.596,226.26,250.225,229.32,248.222z M323.081,193.503c2.136-0.473,3.463-0.769,5.295-1.173
	c-1.107-1.402-1.863-2.361-2.754-3.488C324.834,190.288,324.189,191.471,323.081,193.503z M232.583,304.814
	c0.047,0.143,0.099,0.289,0.146,0.434c1.132-0.824,2.938-1.47,3.215-2.52c0.305-1.156-0.684-2.743-1.382-3.993
	c-0.116-0.211-1.604,0.345-2.758,0.612c1.68,1.094,2.799,1.819,3.919,2.547C234.678,302.868,233.629,303.841,232.583,304.814z
	 M277.584,188.142c-1.802,3.492-0.681,6.219,1.202,9.507c-0.197-2.078-0.296-3.506-0.478-4.925
	C278.128,191.309,277.866,189.903,277.584,188.142z M334.73,172.402c3.831,0.096,7.023-2.25,7.334-5.051
	C339.815,168.9,337.049,170.807,334.73,172.402z M276.614,218.602c-0.328-0.157-0.657-0.317-0.987-0.477
	c-1.06,1.888-2.119,3.769-3.179,5.652c0.331,0.184,0.665,0.366,0.999,0.55C274.5,222.419,275.558,220.514,276.614,218.602z
	 M238.743,281.843c1.143,3.466,2.353,3.963,5.373,2.477C242.456,283.555,240.718,282.754,238.743,281.843z M292.51,196.287
	c-2.813,1.117-5.662,2.256-8.348,3.322C287.589,200.282,290.304,198.723,292.51,196.287z M608.498,282.968
	c-0.474,0.88-0.934,1.768-1.422,2.642c-1.688,2.987-3.473,5.921-5.043,8.969c-1.02,1.973-1.924,4.049-2.547,6.175
	c-3.424,11.728-10.43,21.056-19.1,29.4c-7.615,7.329-16.868,11.868-26.311,16.141c-0.652,0.295-1.863-0.019-2.525-0.473
	c-3.411-2.341-6.669-4.908-10.084-7.241c-9.815-6.702-12.869-24.423-3.336-32.485c1.738-1.47,3.771-2.584,5.822-3.615
	c-7.364,9.464-7.598,18.21-0.501,25.308c5.652,5.646,11.425,7.181,15.606,3.738c-1.266-0.473-2.313-0.862-3.363-1.251
	c-6.748-2.489-11.623-6.758-12.77-14.191c-0.716-4.651,1.063-8.565,4.676-11.527c0.893-0.731,2.209-0.943,3.711-0.812
	c-0.275,0.436-0.518,0.903-0.836,1.311c-5.048,6.436-3.625,13.107,3.624,16.963c9.192,4.892,21.876,3.087,30.055-4.422
	c2.099-1.925,3.979-4.118,5.755-6.347c0.807-1.014,1.125-2.412,1.666-3.633c-0.215-0.178-0.432-0.355-0.646-0.535
	c-0.82,0.696-1.673,1.358-2.456,2.097c-4.422,4.189-9.646,5.389-14.99,2.659c-5.41-2.762-10.706-5.979-15.46-9.748
	c-6.395-5.063-6.103-14.19-0.965-19.544c-0.837,6.629,0.929,11.826,6.368,15.448c4.623,3.077,9.58,4.723,15.437,3.941
	c-5.767-1.355-6.688-6.37-8.979-10.554c-2.427-4.446-5.655-8.51-8.897-12.444c-8.581-10.414-9.641-26.514-2.08-36.654
	c1.287-1.725,3.009-3.125,4.913-4.296c-1.308,3.449-2.945,6.809-3.854,10.356c-2.078,8.113,0.025,15.541,4.977,22.055
	c4.418,5.813,9.247,11.322,13.919,16.953c0.36,0.434,0.868,0.749,1.507,1.004c-4.264-6.77-6.705-14.196-7.893-21.974
	c-1.155-7.599-3.771-15.028-3.399-22.938c3.478,6.797,6.844,13.377,10.211,19.954c0.249-0.109,0.503-0.224,0.751-0.337
	c-0.372-1.191-0.67-2.419-1.133-3.574c-2.672-6.63-2.43-13.371-1.662-20.37c0.748-6.821,0.935-13.833,0.262-20.652
	c-1.02-10.326-8.775-17.307-19.506-18.789c-9.102-1.254-11.443-0.52-19.611,5.802c0.438-1.238,0.679-2.599,1.348-3.698
	c3.021-4.936,7.861-7.481,13.131-9.048c15.443-4.582,30.203,0.929,38.881,14.544c2.369,3.719,4.09,7.85,6.076,11.803
	c0.475,0.944,0.806,1.961,1.502,3.688c-0.912-14.305-4.986-22.598-17.433-37.556c2.228,1.61,4.639,3.023,6.651,4.873
	c10.285,9.455,16.281,21.452,19.93,34.717c2.168,7.875,3.974,15.856,6.02,23.771c1.186,4.593,2.971,8.929,6.402,13.166
	c-0.652-4.257-1.224-7.86-1.754-11.475c-1.21-8.24,0.791-15.668,5.697-22.357c0.643-0.876,1.236-1.794,1.795-2.725
	c3.089-5.136,2.883-6.712-0.723-11.359c-3.753-4.84-7.123-9.981-10.973-14.74c-11.178-13.82-25.9-21.742-43.202-24.87
	c-15.28-2.764-30.263-1.514-44.052,6.066c-17.958,9.873-26.678,25.795-25.113,45.872c1.359,17.47,11.727,29.705,28.295,35.805
	c5.178,1.903,10.959,2.168,16.479,3.115c1.154,0.196,2.508-0.229,3.516,0.215c1.097,0.485,2.279,1.504,2.678,2.569
	c0.236,0.64-0.771,2.404-1.543,2.647c-4.766,1.5-9.559,3.474-14.459,3.89c-30.027,2.549-53.332-26.781-52.792-51.938
	c0.409-19.124,8.187-34.317,22.614-46.311c10.934-9.092,23.081-15.837,37.498-17.731c9.191-1.208,18.333-1.122,27.457,0.51
	c0.486,0.088,0.965,0.224,1.455,0.284c3.912,0.471,7.19-0.898,8.64-3.807c1.63-3.271,0.569-6.217-1.676-8.717
	c-4.292-4.783-8.529-9.642-13.134-14.119c-23.363-22.7-50.348-39.935-80.184-52.874c-5.507-2.392-10.788-5.354-15.986-8.373
	c-9.473-5.498-19.147-10.498-29.694-14.066c1.575,0,3.155-0.073,4.725,0.021c1.574,0.095,3.146,0.322,4.708,0.552
	c22.086,3.213,43.928,7.334,64.73,15.878c32.31,13.272,60.682,32.26,83.99,58.332c21.862,24.45,39.401,51.662,49.248,83.232
	c4.976,15.954,8.102,32.39,8.441,49.129c0.092,4.674-1.962,9.578-3.801,14.06c-3.469,8.458-9.996,14.834-15.849,21.646
	c-2.23,2.597-4.238,5.385-6.532,8.326c-1.787-12.33-1.641-24.384,0.025-36.427c1.97-14.264,2.995-28.499-0.852-42.64
	c-0.256-0.949-0.586-1.875-1.121-3.552c-3.186,7.164-7.492,13.237-6.846,21.074c1.067-4.128,1.668-8.508,6.35-11.301
	c-0.084,1.595-0.16,2.713-0.203,3.83c-0.406,10.663-1.017,21.318-1.154,31.981c-0.172,13.446-0.606,26.94,0.252,40.338
	c1.096,17.103-2.272,33.179-8.58,48.825c-12.988,32.226-34.445,56.854-65.668,72.582c-2.923,1.474-6.166,2.318-9.527,2.966
	c26.488-13.722,47.475-32.766,60.492-59.825c-17.951,32.67-45.033,53.77-80.371,64.48c-0.264-0.286-0.531-0.576-0.795-0.861
	c1.109-1.344,2.217-2.688,3.326-4.03c-0.127-0.315-0.252-0.629-0.375-0.944c-7.518,7.813-16.771,8.552-26.592,6.988
	c-0.006,0.297-0.01,0.59-0.012,0.885c1.971,0.343,3.977,1.104,5.911,0.953c6.569-0.513,13.112-1.324,19.661-2.063
	c8.732-0.985,17.451-2.128,26.199-2.936c2.179-0.2,4.499,0.433,6.67,1.002c16.153,4.245,31.914,9.534,44.063,21.696
	c17.655,17.669,23.374,38.779,16.938,63.022c-0.42,1.589-1.181,3.089-2.078,5.389c2.9-29.979-5.174-54.098-31.941-69.462
	c1.189,1.087,2.363,2.187,3.568,3.253c11.297,10.025,20.541,21.421,23.606,36.684c3.878,19.312,0.414,36.769-13.958,51.089
	c-5.075,5.057-11.031,8.861-18.72,10.603c3.509-2.619,6.708-4.732,9.596-7.208c11.873-10.185,16.339-23.275,16.126-38.755
	c-0.195-14.48-5.971-26.311-14.791-37.11c-2.428-2.969-5.083-5.749-7.631-8.615c-0.234,0.174-0.471,0.348-0.703,0.523
	c0.874,1.199,1.73,2.412,2.629,3.596c6.285,8.266,12.624,16.57,14.938,26.952c3.825,17.163,1.599,33.048-11.212,46.185
	c-5.021,5.146-11.072,8.782-18.346,10.356c1.018-0.769,2.031-1.538,3.053-2.3c11.378-8.5,17.92-19.68,17.945-34.028
	c0.025-15.041-4.711-28.684-13.367-40.967c-0.148-0.21-0.414-0.333-1.097-0.26c0.89,1.919,1.67,3.898,2.687,5.745
	c6.074,11.027,8.695,22.823,7.635,35.348c-1.365,16.159-10.898,28.728-27.322,32.342c-2.753,0.606-5.676,0.445-8.646,0.027
	c0.609-0.232,1.21-0.511,1.835-0.696c15.563-4.673,23.483-15.518,22.829-31.74c-0.238-5.918-1.088-11.807-1.715-17.699
	c-0.095-0.908-0.493-1.788-0.85-2.653c0.705,9.7,0.586,19.304-0.747,28.974c-1.562,11.313-9.08,17.872-19.79,19.736
	c-8.439,1.468-16.566-0.125-23.776-5.033c-5.704-3.882-7.444-9.629-4.567-14.929c0.166,0.282,0.361,0.465,0.375,0.658
	c0.479,6.803,4.021,10.378,10.785,10.869c11.394,0.825,20.201-6.898,22.018-19.419c2.01-13.824-1.346-26.864-6.077-39.652
	c-1.399-3.779-3.3-7.373-4.731-11.142c-2.807-7.393-8.282-12.05-15.112-15.51c-11.077-5.612-22.878-8.475-35.177-9.509
	c-10.432-0.876-20.428-3.284-29.691-8.314c-1.37-0.744-2.694-1.58-3.793-2.949c4.767,1.655,9.491,3.449,14.314,4.931
	c5.433,1.664,10.832,3.732,16.747,2.294c6.177-1.501,10.572-6.724,10.998-13.342c-5.472,9.563-10.063,14.688-22.417,11.004
	c-10.732-3.196-22.007-5.232-31.743-11.028c-7.095-4.219-13.552-9.521-20.188-14.478c-2.779-2.077-5.289-4.507-7.6-7.174
	c10.208-1.338,20.111-1.693,27.625-9.334c8.965,5.729,9.205,17.083,15.425,24.475c0.292-0.173,0.585-0.34,0.877-0.508
	c-2.959-6.849-5.913-13.698-8.888-20.589c1.92-0.671,4.426-1.411,6.83-2.406c9.401-3.895,14.131-11.182,15.324-21.111
	c2.506-20.869-12.709-30.908-26.186-35.292c-0.528-0.173-1.145-0.077-2.075-0.121c4.175,2.08,8.218,3.648,11.76,5.983
	c3.468,2.285,6.427,5.345,9.609,8.066c-0.196,0.245-0.394,0.498-0.591,0.747c-0.842-0.533-1.682-1.064-3.291-2.08
	c2.457,2.92,4.364,5.19,6.27,7.459c-0.164,0.162-0.328,0.328-0.492,0.493c-0.841-0.688-1.682-1.382-2.768-2.269
	c1.875,3.067,3.59,5.874,5.304,8.682c-0.263,0.201-0.522,0.404-0.783,0.608c-1.079-0.863-2.16-1.727-3.346-2.674
	c1.386,2.663,2.719,5.225,4.05,7.783c-0.202,0.148-0.399,0.299-0.602,0.449c-0.626-0.261-1.254-0.524-1.892-0.788
	c0.601,2.074,1.185,4.094,1.879,6.485c-1.078-0.238-1.569-0.35-1.858-0.412c0,1.572,0.271,4.386-0.044,4.454
	c-2.642,0.565-0.948,3.835-3.384,4.721c-1.87,0.673-3.146,2.86-4.856,4.147c-1.808,1.359-3.753,2.567-5.75,3.631
	c-4.083,2.164-5.28,1.953-8.945-1.147c2.013-2.537,4.274-4.925,5.961-7.659c1.662-2.696,2.744-5.753,3.684-8.857
	c-3.405,7.645-8.95,13.441-15.591,18.144c-9.746,6.908-20.35,7.96-31.48,3.669c-26.167-10.07-45.116-27.457-54.781-54.204
	c-0.697-1.932-1.409-3.956-1.519-5.971c-0.095-1.697,0.192-3.826,1.182-5.073c1.44-1.817,3.427-0.388,5.111,0.385
	c0.352,0.162,0.698,0.336,1.757,0.848c-0.64-1.967-0.983-3.426-1.576-4.772c-1.156-2.632-1.354-5.24,0.441-7.565
	c1.867-2.42,4.542-1.994,7.105-1.396c3.413,0.8,6.377-0.089,9.67-1.307c10.203-3.766,20.196-8.364,31.365-8.943
	c18.112-0.938,34.821,3.363,50.105,13.059c2.383,1.508,4.601,3.477,6.434,5.626c9.837,11.537,22.656,17.629,37.155,20.781
	c-5.923-2.843-12.065-5.313-17.702-8.636c-5.699-3.359-10.896-7.565-16.313-11.403c0.173-0.259,0.347-0.51,0.521-0.765
	c6.063,0,12.127,0,18.189,0c0.002-0.032,0.006-0.062,0.01-0.093c-6.5-0.462-12.998-0.924-19.499-1.382
	c0.014-0.378,0.029-0.754,0.043-1.129c8.188,0,16.375,0,24.562,0c-0.004-0.305-0.004-0.608-0.004-0.913c-9.046,0-18.091,0-27.811,0
	c7.529-7.021,50.734-1.098,61.04,5.747c-7.437-1.403-14.229-2.688-21.028-3.971c9.488,2.054,18.751,4.666,27.666,8.542
	c11.704,5.088,20.456,13.308,26.208,24.639c2.318,4.567,3.38,9.556,2.384,14.669c-1.951,10.014-9.049,15.85-19.873,15.766
	c-5.368-0.043-10.722-1.367-16.1-1.945c-2.726-0.295-5.512-0.478-8.229-0.243c-2.781,0.243-4.902,1.842-5.961,4.775
	c4.787-4.994,10.415-3.176,15.886-2.141c6.435,1.223,12.858,2.234,19.368,0.666c12.851-3.1,19.99-16.007,15.904-28.651
	c-2.02-6.244-5.709-11.436-9.979-16.283c-0.704-0.801-1.431-1.585-2.323-2.569c2.06-1.003,3.814-2.095,5.721-2.747
	c14.793-5.053,24.895-15.716,33.229-28.231c3.239-4.866,5.438-10.439,7.968-15.758c2.451-5.146,4.729-10.373,7.053-15.576
	c0.345-0.773,0.547-1.612,0.813-2.419C608.869,283.132,608.682,283.049,608.498,282.968z M435.984,338.263
	c0.782,0.88,1.592,1.741,2.345,2.643c4.312,5.169,7.458,10.822,8.153,17.708c1.928,19.104-17.357,32.488-29.927,33.537
	c-12.11,1.01-21.904-3.725-30.629-11.564c-8.819-7.927-14.531-17.744-18.419-28.844c-1.461-4.171-3.765-8.053-5.684-12.064
	c-0.346,0.15-0.693,0.301-1.039,0.451c0.536,1.522,1.007,3.071,1.62,4.56c1.086,2.639,2.393,5.192,3.373,7.868
	c4.213,11.494,10.344,21.664,19.617,29.869c17.554,15.532,38.738,15.334,54.973-0.535
	C453.941,368.627,452.608,350.04,435.984,338.263z M385.908,339.993c2.675,7.572,6.677,13.538,15.123,14.688
	c8.082,1.098,12-4.76,16.473-9.939c-0.805-0.621-1.309-1.102-1.893-1.445c-3.255-1.908-5.689-4.149-6.822-8.173
	c-1.306-4.625-6.912-5.687-11.29-2.778c-2.579,1.714-5.181,3.388-7.767,5.088C388.431,338.288,387.145,339.163,385.908,339.993z
	 M452.14,417.925c-0.135,0.186-0.269,0.365-0.404,0.549c-1.104-0.917-2.344-1.712-3.283-2.778c-0.984-1.116-1.681-2.491-2.503-3.75
	c-0.28,0.145-0.562,0.289-0.844,0.435c0.967,2.047,1.93,4.094,2.895,6.14c-1.478-0.313-2.525-0.978-3.382-1.837
	c-0.825-0.826-1.446-1.856-2.171-2.789c-0.709-0.905-1.432-1.8-2.15-2.696c-0.146,0.11-0.292,0.222-0.438,0.334
	c1.005,1.928,2.009,3.853,3.013,5.778c-0.201,0.155-0.402,0.31-0.606,0.464c-2.042-1.89-4.087-3.783-6.324-5.853
	c0.12,0.763,0.208,1.337,0.364,2.337c-1.706-1.629-3.063-2.921-4.418-4.215c8.643,11.937,22.631,13.141,35.176,17.581
	c-7.021-3.583-9.033-11.108-13.924-16.388c1.248,2.438,2.496,4.871,3.944,7.699c-4.117-0.627-5.206-4.057-7.687-6.052
	C450.311,414.563,451.227,416.245,452.14,417.925z M511.037,394.967c0.129-0.236,0.232-0.496,0.396-0.711
	c4.965-6.506,8.336-7.562,15.934-5.17c6.941,2.188,13.711,1.595,20.285-1.333c-6.755,0.999-13.518,3.05-20.693-0.517
	c4.223-0.901,7.851-1.671,11.477-2.442c-0.03-0.152-0.061-0.307-0.093-0.457c-4.241,0.354-8.481,0.711-12.72,1.065
	c-0.146-0.323-0.296-0.644-0.446-0.963c2.624-1.821,5.251-3.64,7.22-5.007c-0.53-0.145-1.803-0.494-3.574-0.984
	C523.967,384.354,514.283,386.095,511.037,394.967z M516.994,444.651c0.938,0.393,1.441,0.633,1.963,0.819
	c5.371,1.913,10.763,3.765,16.104,5.757c2.396,0.893,4.661,2.146,7.054,3.05c0.745,0.285,1.719-0.039,2.586-0.088
	c-0.006-0.244-0.011-0.488-0.016-0.731c-2.652-1.704-5.307-3.411-7.958-5.111c0.111-0.22,0.223-0.44,0.336-0.66
	c3.341,1.314,6.681,2.625,9.997,3.924C547.083,447.813,530.445,443.847,516.994,444.651z M498.064,355.193
	c4.073,5.696,18.639,14.27,24.354,14.002c-2.163-1.024-4.389-2.078-6.582-3.115c0.994-0.605,1.643-1.003,2.291-1.395
	c-0.265-0.334-0.463-0.825-0.809-0.979C510.729,360.765,504.123,357.863,498.064,355.193z M553.582,423.568
	c-5.508,4.076-11.275,7.287-19.008,6.499C539.581,433.736,550.996,429.622,553.582,423.568z M483.244,416.107
	c-0.16,5.327-2.483,8.214-8.172,7.482c3.059,2.362,6.158,2.253,8.451-0.042C485.546,421.53,485.554,419.03,483.244,416.107z
	 M574.604,305.827c6.469,3.882,14.195,0.844,17.016-6.226C587.336,304.773,581.809,306.784,574.604,305.827z M488.469,428.067
	c-0.354,4.824-3.176,5.762-7.806,4.051c3.12,3.511,6.353,3.903,8.632,1.737C491.134,432.104,491.004,430.53,488.469,428.067z
	 M416.75,334.594c-7.779-6.171-16.111-9.871-26.007-4.983C400.497,325.368,408.518,330.274,416.75,334.594z M483.515,409.403
	c2.24,2.102,4.938,2.175,7.608,0.445c2.264-1.466,3.066-3.563,2.189-6.44C491.536,407.938,488.093,409.513,483.515,409.403z
	 M583.168,395.736c-1.445,7.533-6.622,8.947-13.106,8.455c2.503,2.202,6.499,1.891,9.88-0.53
	C583.038,401.44,584.35,398.592,583.168,395.736z M524.043,426.813c0.381-0.273,0.766-0.541,1.146-0.813
	c-0.782,1.565-1.569,3.129-2.446,4.868c2.703,0.588,5.392,1.175,7.818,1.702C528.374,430.639,526.205,428.726,524.043,426.813z
	 M521.894,416.921c-1.462,1.183-2.659,2.529-4.159,3.244c-1.494,0.713-3.292,0.786-4.96,1.138c0.032,0.484,0.063,0.963,0.089,1.442
	c1.537,0.081,3.213,0.6,4.574,0.148C520.1,422.023,521.689,419.973,521.894,416.921z M569.203,409.273
	c-1.342,6.274-6.373,7.591-11.635,8.607C564.56,419.109,570.761,414.566,569.203,409.273z M514.721,429.675
	c1.068,6.158-2.875,7.375-8.117,7.914c4.133,1.246,8.1-0.118,9.404-2.853C516.813,433.051,517.268,431.229,514.721,429.675z
	 M545.259,417.962c1.847,0.559,3.3-0.266,3.862-1.978c0.652-1.981,0.047-3.809-1.618-4.831
	C546.772,413.365,546.073,415.493,545.259,417.962z M540.756,419.223c-2.646,3.514-6.31,4.655-11.146,4.413
	C534.955,425.762,539.34,423.886,540.756,419.223z M468.971,429.236c-0.18,0.116-0.361,0.228-0.542,0.345
	c1.167,1.499,2.292,3.043,3.56,4.452c0.155,0.176,1.084-0.341,1.652-0.539c-0.205-0.487-0.278-1.144-0.643-1.43
	C471.71,431.055,470.322,430.17,468.971,429.236z M503.047,425.492c-2.363-0.105-4.777-0.216-6.919-0.312
	C499.201,428.005,500.971,428.051,503.047,425.492z M507.553,418.579c-0.117-0.401-0.234-0.801-0.352-1.204
	c-1.898,0.666-3.797,1.327-5.697,1.992c0.088,0.312,0.175,0.625,0.263,0.938C503.697,419.73,505.625,419.157,507.553,418.579z
	 M208.935,197.139c-0.35,0.086-0.7,0.229-1.054,0.248c-10.01,0.546-15.767,4.909-19.123,14.445
	c-2.926,8.309-2.916,16.831-2.146,25.465c1.81,20.309,10.592,37.73,22.173,54.01c4.714,6.626,5.96,14.432,8.053,22.355
	c-1.007-0.183-1.586-0.289-2.354-0.425c2.361,2.513,2.329,3.458,0.017,4.47c1.946,3.288-1.137,5.559-1.401,8.24
	c-19.808-10.971-37.96-23.629-47.712-44.847c-10.419-22.663-10.783-45.475,1.356-67.684c5.146-9.407,12.994-16.284,23.797-18.586
	C196.708,193.52,203.062,193.53,208.935,197.139z M192.891,285.507c-15.572-26.217-19.349-53.805-9.427-83.594
	C171.558,217.652,177.111,265.347,192.891,285.507z M630.09,329.746c1.011,0.728,1.783,1.281,2.551,1.835
	c0.234-0.159,0.465-0.321,0.699-0.479c-0.541-0.83-1.072-1.668-1.622-2.489c-0.58-0.861-1.182-1.706-1.423-2.967
	c1.047,0.479,2.094,0.955,3.139,1.432c0.196-0.18,0.393-0.361,0.587-0.541c-1.054-1.38-2.104-2.756-3.304-4.329
	c0.877,0,1.586,0,2.679,0c-0.705-1.279-1.247-2.269-2.13-3.865c2.717,1.398,4.935,2.542,7.158,3.686
	c0.164-0.187,0.328-0.372,0.492-0.559c-0.76-1.01-1.52-2.016-2.279-3.025c0.092-0.279,0.186-0.554,0.276-0.832
	c1.368,0.32,2.813,0.452,4.091,0.989c19.321,8.099,29.287,23.733,34.637,43.089c2.449,8.857,3.191,17.878,2.328,26.986
	c-0.585,6.162-3.298,11.56-7.332,16.19c-7.576,8.694-16.749,14.845-28.501,15.875c-3.817,0.335-7.789-0.608-11.632-1.294
	c-1.238-0.226-2.289-1.495-3.268-2.504c12.902,2.656,24.434-9.874,25.835-20.964c1.803-14.259-1.956-27.567-7.604-40.474
	c-0.061-0.138-0.272-0.211-0.759-0.568c0.305,3.844,0.585,7.413,0.861,10.903C641.25,362.407,630.367,337.422,630.09,329.746z
	 M665.821,384.443c-0.353,2.385-0.659,4.774-1.062,7.149c-1.655,9.819-4.904,18.769-14.508,24.923
	C660.451,413.624,667.753,398.539,665.821,384.443z M601.136,449.82c-0.446,0.097-0.889,0.227-1.339,0.285
	c-2.183,0.263-4.185-0.36-4.631-2.597c-0.469-2.35,1.749-2.529,3.399-3.222c1.839-0.771,3.811-1.718,5.134-3.14
	c10.887-11.709,19.725-24.936,27.355-38.906c4.521-8.275,7.835-17.208,12.184-25.587c1.478-2.848,0.989-4.739-0.188-7.246
	c-3.345-7.118-6.452-14.347-9.667-21.525c-0.693-1.549-1.447-3.073-2.468-5.229c-4.413,19.77-10.935,37.832-21.147,54.48
	c-10.271,16.748-23.201,31.016-39.081,42.384c8.504,3.868,16.771,7.756,25.164,11.346c1.525,0.652,3.575,0.094,5.382,0.094
	C601.2,450.579,601.168,450.197,601.136,449.82z M426,532.117c8.688-0.297,17.406-0.322,26.065-1.044
	c23.494-1.963,46.135-7.505,67.659-17.257c6.928-3.144,13.889-6.29,19.183-12.047c5.036-5.469,6.118-12.167,3.038-18.607
	c-3.084-6.449-9.006-10.124-15.609-9.693c-7.84,0.516-12.847,8.719-9.635,15.764c1.083,2.371,0.887,4.624-0.894,6.592
	c-2.334,2.573-6.675,3.081-10.145,1.25c-4.063-2.143-6.622-6.142-5.311-9.517c1.149-2.972,3.269-5.564,4.94-8.301
	c-4.717-0.304-8.756,2.082-11.523,6.275c-3.799,5.757-0.814,10.446,3.817,15.182c-22.785,15.743-47.495,25.638-74.52,30.997
	C424.105,531.861,425.058,532.148,426,532.117z M280.458,103.113c4.532,4.413,8.63,8.477,12.817,12.442
	c1.615,1.53,3.111,1.166,4.918-0.229c7.191-5.543,14.204-11.434,21.899-16.195c23.934-14.809,46.74-31.669,73.448-41.831
	C352.58,63.513,313.985,75.813,280.458,103.113z M455.632,320.059c-4.777-1.752-9.554-3.504-14.661-5.379
	c3.088-2.454,5.979-4.888,9.006-7.139c14.039-10.448,29.74-15.365,47.223-13.325c10.842,1.265,20.701,5.018,27.812,13.963
	c0.356,0.447,0.62,0.968,1.253,1.969c-1.811-0.585-3.131-0.893-4.352-1.428c-13.136-5.797-24.672-3.574-35.063,6.363
	c-4.537,4.338-9.563,8.153-15.576,10.571c-2.74,1.104-4.571,1.063-6.539-1.687c2.834-2.252,5.712-4.538,8.59-6.823
	c-0.096-0.155-0.191-0.31-0.287-0.466c-2.632,1.782-5.361,3.442-7.861,5.393c-1.579,1.231-2.875,1.44-4.729-0.14
	c3.003-2.874,5.954-5.698,8.907-8.521c-0.107-0.145-0.215-0.293-0.322-0.439c-2.961,2.314-6.057,4.479-8.834,6.995
	c-1.742,1.578-3.04,1.967-4.604,0.025c4.871-4.156,9.746-8.3,13.643-11.609c-3.144,0.76-10.908,6.065-13.28,9.797
	C455.643,318.675,455.729,319.427,455.632,320.059z M466.697,301.326c-6.292,2.479-12.565,4.91-16.967,11.178
	C455.717,308.563,461.208,304.944,466.697,301.326z M468.24,304.142c-6.594,2.655-11.934,6.455-16.092,11.922
	C457.411,312.165,462.674,308.264,468.24,304.142z M642.687,316.597c3.376,4.032,9.271,5.314,13.637,2.452
	c1.783-1.171,3.263-2.83,4.801-4.353c4.834-4.791,9.714-9.539,14.406-14.466c3.239-3.405,6.456-6.9,9.166-10.72
	c1.272-1.794,1.327-4.457,1.934-6.724c-0.3-0.103-0.599-0.207-0.899-0.312c-2.426,5.894-6.513,10.388-11.768,13.772
	c-4.854,3.125-9.84,6.044-14.765,9.054c5.929-6.479,7.63-14.715,9.555-22.995c2.327-9.997,6.555-19.042,15.69-24.87
	c0.419-0.266,0.659-0.812,1.43-1.798c-1.781,0.561-2.94,0.79-3.978,1.275c-8.468,3.974-15.878,9.438-21.134,17.191
	c-7.533,11.111-14.875,22.343-24.09,32.184c-0.421,0.447-0.56,1.149-0.825,1.72c0.989,0.669,1.781,1.202,2.629,1.773
	c-0.695,0.951-1.3,1.782-2.368,3.252c2.031,0.172,3.461,0.297,4.936,0.423c-0.627,0.535-1.279,1.091-2.094,1.787
	C640.414,315.741,642.01,315.786,642.687,316.597z M208.216,283.465c-6.984-20.651-5.325-41.527-0.917-62.25
	c2.174-10.225,6.682-19.626,17.099-26.004c-2.139-0.297-3.801-1.001-5.149-0.614c-2.895,0.83-5.951,1.762-8.375,3.46
	c-16.032,11.228-23.923,33.052-19.488,52.462c2.364,10.358,7.301,19.476,12.784,28.385c1.17,1.904,2.428,3.753,3.971,6.129
	C208.197,284.031,208.302,283.714,208.216,283.465z M191.591,355.313c5.415-6.775,10.702-13.651,16.187-20.368
	c1.674-2.048,1.526-3.754-0.099-5.464c-2.1-2.212-4.182-4.488-6.557-6.382c-6.087-4.853-12.327-9.513-18.516-14.239
	c-0.738-0.562-1.547-1.034-2.833-1.89c0.508,17.777,4.038,34.387,8.555,51.475C189.645,357.193,190.752,356.362,191.591,355.313z
	 M475.287,451.911c2.831,7.423-4.59,19.201-15.371,19.105c-5.404-0.047-8.295-2.557-7.871-6.958
	c0.234-2.447-0.318-4.122-2.762-4.766c-2.127-0.561-4.341,0.993-5.161,3.451c-1.359,4.06,0.429,8.619,4.539,11.577
	c7.238,5.209,17.106,5.059,25.554-0.527c6.66-4.402,10.463-10.887,12.582-18.384c0.67-2.357,1.714-3.252,4.098-2.795
	c2.127,0.402,4.282,0.694,6.436,0.918c4.326,0.445,8.666,0.812,12.996,1.208c0.042-0.305,0.086-0.607,0.127-0.913
	c-11.868-2.588-23.729-5.174-36.35-7.927C474.563,448.326,474.645,450.225,475.287,451.911z M522.956,218.1
	c-2.928,2.232-4.364,5.339-4.603,8.943c-0.631,9.407,6.997,18.309,16.628,19.502c10.634,1.317,21.095-5.243,23.007-14.427
	c1.336-6.417-2.182-12.637-8.164-14.189c-1.222-0.314-2.594-0.046-3.895-0.046c-0.002,0.305-0.004,0.605-0.004,0.909
	c0.328,0.171,0.654,0.347,0.986,0.514c6.119,3.053,7.152,9.946,2.199,14.665c-4.691,4.47-11.537,4.888-16.496,1.012
	c-5.423-4.237-6.305-9.863-2.436-16.399C527.735,216.348,525.48,216.172,522.956,218.1z M475.16,176.739
	c-6.508-0.11-12.601,6.473-12.584,13.603c0.014,6.596,6.008,12.598,12.524,12.539c7.116-0.066,12.94-5.799,12.935-12.732
	C488.029,183.252,481.887,176.851,475.16,176.739z M370.222,388.442c-6.109,0.069-11.412,5.654-11.444,12.054
	c-0.033,6.602,5.942,12.701,12.382,12.641c6.224-0.054,11.716-5.821,11.633-12.214C382.708,394.354,376.68,388.369,370.222,388.442z
	 M353.221,119.256c3.386-7.883,13.388-11.447,20.646-7.395c3.154,1.763,3.845,3.728,2.77,7.137
	c-0.273,0.868-0.319,2.406,0.178,2.781c0.886,0.668,2.645,1.292,3.359,0.846c1.735-1.086,3.533-2.552,4.475-4.31
	c1.559-2.902-0.221-7.286-3.527-10.177c-4.885-4.267-10.661-5.436-16.887-4.57c-7.184,0.998-13.154,4.24-17.001,10.565
	c-2.665,4.384-1.029,9.033,3.837,10.721C351.82,122.894,352.45,121.047,353.221,119.256z M364.548,255.639
	c-2.602-2.828-5.405-2.582-6.645,1.008c-1.827,5.278-3.557,10.665-4.505,16.148c-0.861,4.965-0.359,10.087,1.593,14.575
	c3.013-4.968,5.588-10.225,9.114-14.742c3.574-4.574,8.087-8.416,12.185-12.574c-2.957-0.773-6.131-3.125-10.245-2.469
	C366.065,257.453,365.677,256.867,364.548,255.639z M456.119,131.531c6.063-1.893,9.924-9.114,8.503-15.432
	c-1.902-8.446-8.992-13.992-18.851-14.74c-8.076-0.612-16.373,4.663-19.174,12.195c-2.482,6.677,0.174,14.289,6.013,17.088
	c1.91,0.916,3.865,1.38,5.622-0.433c-4.329-5.802-4.309-10.888-0.045-14.5c4.295-3.631,10.703-3.14,14.672,1.123
	c3.81,4.095,3.245,8.596-1.768,14.715C452.773,131.566,454.589,132.008,456.119,131.531z M408.572,95.88
	c1.825-1.572,3.753-2.655,6.158-1.233c2.371,1.405,3.034,3.341,2.207,6.046c-0.606,1.979,0.914,2.743,2.345,1.923
	c1.397-0.801,2.886-2.241,3.356-3.712c1.402-4.378-1.532-9.184-5.782-10.147c-4.616-1.046-8.284,1.896-9.339,7.802
	C408.091,96.193,408.357,96.063,408.572,95.88z M378.607,459.736c-4.208,2.174-6.247,8.15-4.854,13.477
	c1.879,7.191,8.666,12.401,16.655,12.785c8.391,0.401,16.109-4.278,18.67-11.317c2.022-5.557-0.148-12.184-5.102-15.356
	c-1.865-1.191-3.847-2.001-6.042-0.661c3.301,6.953,3.186,9.761-0.472,12.614c-3.893,3.037-8.655,3.103-12.232,0.174
	c-3.599-2.948-3.997-6.441-1.637-12.999C381.921,458.86,380.093,458.967,378.607,459.736z M412.939,497.249
	c3.197,1.117,6.657-0.004,8.888-2.88c2.084-2.683,2.421-6.319,0.661-8.791c-1.481-2.08-3.347-3.503-6.351-2.615
	c0.978,3.009,2.593,6.057-0.722,8.364c-2.856,1.988-5.168,0.376-7.32-1.754C407.993,493.56,409.649,496.102,412.939,497.249z
	 M401.579,347.485c3.26,0.048,6.805-3.781,6.805-7.356c0-3.708-2.854-7.256-5.936-7.385c-3.649-0.148-7.638,3.371-7.674,6.769
	C394.731,343.6,398,347.429,401.579,347.485z M400.087,349.356c-4.01-0.719-6.092-4.331-6.624-11.495
	c-3.609,1.166-4.564,2.308-3.921,4.697c1.244,4.633,7.08,9.393,12.179,9.932c4.82,0.506,10.485-2.77,12.803-7.56
	c-1.032-0.794-2.098-1.617-3.342-2.577C408.665,347.533,404.421,350.134,400.087,349.356z"/>
</svg>
