<?xml version="1.0" encoding="UTF-8"?>
<svg viewBox="187.976 66 320.024 560.005" width="320.024" height="560.005" xmlns="http://www.w3.org/2000/svg" xmlns:xlink="http://www.w3.org/1999/xlink">
  <path d="M 378 66 L 318 66 C 312.484 66.016 308.016 70.484 308 76 L 308 116 C 308 121.523 312.477 126 318 126 L 378 126 C 383.523 126 388 121.523 388 116 L 388 76 C 387.984 70.484 383.516 66.016 378 66 Z M 288 156 L 288 176 C 288 181.523 292.477 186 298 186 L 398 186 C 403.523 186 408 181.523 408 176 L 408 156 C 408 150.477 403.523 146 398 146 L 298 146 C 292.477 146 288 150.477 288 156 Z M 378 426 C 361.43 426 348 439.43 348 456 C 348 472.57 361.43 486 378 486 C 394.57 486 408 472.57 408 456 C 407.953 439.453 394.547 426.047 378 426 Z M 378 426 C 361.43 426 348 439.43 348 456 C 348 472.57 361.43 486 378 486 C 394.57 486 408 472.57 408 456 C 407.953 439.453 394.547 426.047 378 426 Z M 328 536 C 322.477 536 318 540.477 318 546 C 318 551.523 322.477 556 328 556 C 333.523 556 338 551.523 338 546 C 337.984 540.484 333.516 536.016 328 536 Z M 378 426 C 361.43 426 348 439.43 348 456 C 348 472.57 361.43 486 378 486 C 394.57 486 408 472.57 408 456 C 407.953 439.453 394.547 426.047 378 426 Z M 378 426 C 361.43 426 348 439.43 348 456 C 348 472.57 361.43 486 378 486 C 394.57 486 408 472.57 408 456 C 407.953 439.453 394.547 426.047 378 426 Z M 328 536 C 322.477 536 318 540.477 318 546 C 318 551.523 322.477 556 328 556 C 333.523 556 338 551.523 338 546 C 337.984 540.484 333.516 536.016 328 536 Z M 416.102 345.5 C 398.856 337.207 387.922 319.734 388 300.602 L 388 216 C 388 210.477 383.523 206 378 206 L 318 206 C 312.477 206 308 210.477 308 216 L 308 301.879 C 307.75 320.793 296.621 337.871 279.418 345.734 C 226.945 370.621 192.074 421.988 188.313 479.944 C 184.552 537.9 212.485 593.334 261.301 624.804 C 262.657 625.62 264.219 626.035 265.801 626.003 L 430.301 626.003 C 431.789 626.027 433.25 625.609 434.5 624.804 C 483.461 593.355 511.48 537.792 507.652 479.724 C 503.828 421.662 468.765 370.254 416.101 345.504 L 416.102 345.5 Z M 429.399 604.2 C 427.704 605.391 425.672 606.02 423.602 606.001 L 272.302 606.001 C 270.228 606.02 268.201 605.391 266.501 604.2 C 226.47 575.911 204.403 528.548 208.501 479.7 C 211.552 445.97 227.021 414.575 251.899 391.602 C 270.137 374.875 294.059 365.723 318.801 366 L 377.102 366 C 402.645 365.742 427.274 375.508 445.7 393.199 C 475.372 421.519 490.755 461.672 487.595 502.569 C 484.435 543.464 463.072 580.776 429.4 604.199 L 429.399 604.2 Z M 431.801 407.6 C 417.086 393.534 397.453 385.78 377.102 385.998 L 318.801 385.998 C 299.117 385.744 280.071 392.963 265.5 406.197 C 244.27 425.822 231.055 452.611 228.398 481.396 C 225.012 522.052 242.812 561.587 275.5 585.996 L 420.4 585.996 C 448.22 565.582 465.564 533.894 467.763 499.457 C 469.966 465.023 456.794 431.383 431.802 407.598 L 431.801 407.6 Z M 328.001 576 C 311.431 576 298.001 562.57 298.001 546 C 298.001 529.43 311.431 516 328.001 516 C 344.571 516 358.001 529.43 358.001 546 C 357.954 562.547 344.548 575.953 328.001 576 Z M 395.103 553.102 C 393.185 554.926 390.65 555.961 388.002 556 C 387.33 555.977 386.662 555.911 386.002 555.801 C 385.377 555.692 384.767 555.489 384.201 555.2 C 383.564 554.981 382.959 554.68 382.4 554.301 L 380.9 553.102 C 379.076 551.184 378.041 548.649 378.002 546 C 378.017 544.692 378.287 543.403 378.802 542.2 C 379.287 540.977 379.998 539.856 380.9 538.899 C 384.83 535.028 391.146 535.051 395.048 538.953 C 398.95 542.856 398.974 549.172 395.103 553.101 L 395.103 553.102 Z M 378.001 506 C 350.388 506 328.001 483.613 328.001 456 C 328.001 428.387 350.388 406 378.001 406 C 405.614 406 428.001 428.387 428.001 456 C 427.99 483.609 405.61 505.988 378.001 506 Z M 378.001 426 C 361.431 426 348.001 439.43 348.001 456 C 348.001 472.57 361.431 486 378.001 486 C 394.571 486 408.001 472.57 408.001 456 C 407.954 439.453 394.548 426.047 378.001 426 Z M 328.001 536 C 322.478 536 318.001 540.477 318.001 546 C 318.001 551.523 322.478 556 328.001 556 C 333.525 556 338.001 551.523 338.001 546 C 337.986 540.484 333.517 536.016 328.001 536 Z M 328.001 536 C 322.478 536 318.001 540.477 318.001 546 C 318.001 551.523 322.478 556 328.001 556 C 333.525 556 338.001 551.523 338.001 546 C 337.986 540.484 333.517 536.016 328.001 536 Z M 378.001 426 C 361.431 426 348.001 439.43 348.001 456 C 348.001 472.57 361.431 486 378.001 486 C 394.571 486 408.001 472.57 408.001 456 C 407.954 439.453 394.548 426.047 378.001 426 Z M 378.001 426 C 361.431 426 348.001 439.43 348.001 456 C 348.001 472.57 361.431 486 378.001 486 C 394.571 486 408.001 472.57 408.001 456 C 407.954 439.453 394.548 426.047 378.001 426 Z M 328.001 536 C 322.478 536 318.001 540.477 318.001 546 C 318.001 551.523 322.478 556 328.001 556 C 333.525 556 338.001 551.523 338.001 546 C 337.986 540.484 333.517 536.016 328.001 536 Z"></path>
</svg>
