<?xml version="1.0" encoding="UTF-8" standalone="no" ?>
<!DOCTYPE svg PUBLIC "-//W3C//DTD SVG 1.1//EN" "http://www.w3.org/Graphics/SVG/1.1/DTD/svg11.dtd">
<svg xmlns="http://www.w3.org/2000/svg" xmlns:xlink="http://www.w3.org/1999/xlink" version="1.1" width="1080" height="1080" viewBox="0 0 1080 1080" xml:space="preserve">
<g transform="matrix(1.15 0 0 1.15 343.44 295.08)"  >
<path style="stroke: rgb(0,0,0); stroke-width: 5; stroke-dasharray: none; stroke-linecap: butt; stroke-dashoffset: 0; stroke-linejoin: miter; stroke-miterlimit: 10; fill: rgb(255,255,255); fill-rule: nonzero; fill-opacity: 0; opacity: 1;" vector-effect="non-scaling-stroke"  transform=" translate(-430.61, -388.43)" d="M 600 208.86 L 600 536 C 576.31 536 555.63 548.87 544.57 567.99 L 261.21 404.4 C 328.84 287.51 455.23 208.86 600 208.86 z" stroke-linecap="round" />
</g>
<g transform="matrix(1.15 0 0 1.15 731.88 295.08)"  >
<path style="stroke: rgb(0,0,0); stroke-width: 5; stroke-dasharray: none; stroke-linecap: butt; stroke-dashoffset: 0; stroke-linejoin: miter; stroke-miterlimit: 10; fill: rgb(255,255,255); fill-rule: nonzero; fill-opacity: 0; opacity: 1;" vector-effect="non-scaling-stroke"  transform=" translate(-769.39, -388.43)" d="M 938.79 404.4 L 655.43 567.99 C 644.37 548.87 623.69 536 600 536 L 600 208.86 C 744.77 208.86 871.16 287.51 938.79 404.4 z" stroke-linecap="round" />
</g>
<g transform="matrix(1.15 0 0 1.15 793.67 537.66)"  >
<path style="stroke: rgb(0,0,0); stroke-width: 5; stroke-dasharray: none; stroke-linecap: butt; stroke-dashoffset: 0; stroke-linejoin: miter; stroke-miterlimit: 10; fill: rgb(255,255,255); fill-rule: nonzero; fill-opacity: 0; opacity: 1;" vector-effect="non-scaling-stroke"  transform=" translate(-823.28, -600)" d="M 655.43 632 C 660.88 622.59 664 611.66 664 600 C 664 588.34 660.88 577.4 655.43 567.99 L 938.79 404.4 C 972.0899999999999 461.94 991.14 528.75 991.14 600 C 991.14 671.25 972.09 738.06 938.79 795.6 L 655.43 632.01" stroke-linecap="round" />
</g>
<g transform="matrix(1.15 0 0 1.15 731.88 780.23)"  >
<path style="stroke: rgb(0,0,0); stroke-width: 5; stroke-dasharray: none; stroke-linecap: butt; stroke-dashoffset: 0; stroke-linejoin: miter; stroke-miterlimit: 10; fill: rgb(255,255,255); fill-rule: nonzero; fill-opacity: 0; opacity: 1;" vector-effect="non-scaling-stroke"  transform=" translate(-769.39, -811.58)" d="M 938.79 795.6 C 871.16 912.49 744.77 991.14 600 991.14 L 600 664 C 623.69 664 644.37 651.13 655.43 632.01 L 938.79 795.6 z" stroke-linecap="round" />
</g>
<g transform="matrix(1.15 0 0 1.15 343.44 780.23)"  >
<path style="stroke: rgb(0,0,0); stroke-width: 5; stroke-dasharray: none; stroke-linecap: butt; stroke-dashoffset: 0; stroke-linejoin: miter; stroke-miterlimit: 10; fill: rgb(255,255,255); fill-rule: nonzero; fill-opacity: 0; opacity: 1;" vector-effect="non-scaling-stroke"  transform=" translate(-430.61, -811.58)" d="M 600 664 L 600 991.14 C 455.23 991.14 328.84 912.491 261.21 795.6 L 544.5699999999999 632.01 C 555.63 651.13 576.31 664 600 664 z" stroke-linecap="round" />
</g>
<g transform="matrix(1.15 0 0 1.15 281.65 537.66)"  >
<path style="stroke: rgb(0,0,0); stroke-width: 5; stroke-dasharray: none; stroke-linecap: butt; stroke-dashoffset: 0; stroke-linejoin: miter; stroke-miterlimit: 10; fill: rgb(255,255,255); fill-rule: nonzero; fill-opacity: 0; opacity: 1;" vector-effect="non-scaling-stroke"  transform=" translate(-376.72, -600)" d="M 544.57 568 C 539.12 577.41 536 588.34 536 600 C 536 611.66 539.12 622.59 544.57 632 L 544.57 632.01 L 261.21 795.6 C 227.90999999999997 738.0600000000001 208.85999999999999 671.25 208.85999999999999 600 C 208.85999999999999 528.75 227.91 461.94 261.21 404.4 L 544.5699999999999 567.99 L 544.5699999999999 568 z" stroke-linecap="round" />
</g>
</svg>
