<?xml version="1.0" encoding="UTF-8" standalone="no" ?>
<!DOCTYPE svg PUBLIC "-//W3C//DTD SVG 1.1//EN" "http://www.w3.org/Graphics/SVG/1.1/DTD/svg11.dtd">
<svg xmlns="http://www.w3.org/2000/svg" xmlns:xlink="http://www.w3.org/1999/xlink" version="1.1" width="1080" height="1080" viewBox="0 0 1080 1080" xml:space="preserve">
<desc>Created with Fabric.js 5.2.4</desc>
<defs>
</defs>
<g transform="matrix(1 0 0 1 540 540)" id="94a39c68-8c77-46c2-8116-fd11dcc62dee"  >
<rect style="stroke: none; stroke-width: 1; stroke-dasharray: none; stroke-linecap: butt; stroke-dashoffset: 0; stroke-linejoin: miter; stroke-miterlimit: 4; fill: rgb(255,255,255); fill-rule: nonzero; opacity: 1; visibility: hidden;" vector-effect="non-scaling-stroke"  x="-540" y="-540" rx="0" ry="0" width="1080" height="1080" />
</g>
<g transform="matrix(1 0 0 1 540 540)" id="d52f5e9b-0c83-4ae0-af75-22a4163d0541"  >
</g>
<g transform="matrix(1 0 0 1 540 540)"  >
<rect style="stroke: none; stroke-width: 1; stroke-dasharray: none; stroke-linecap: butt; stroke-dashoffset: 0; stroke-linejoin: miter; stroke-miterlimit: 4; fill: rgb(255,255,255); fill-rule: nonzero; opacity: 1; visibility: hidden;" vector-effect="non-scaling-stroke"  x="-540" y="-540" rx="0" ry="0" width="1080" height="1080" />
</g>
<g transform="matrix(2.58 0 0 2.58 540.12 539.88)"  >
<path style="stroke: rgb(0,0,0); stroke-width: 0; stroke-dasharray: none; stroke-linecap: butt; stroke-dashoffset: 0; stroke-linejoin: miter; stroke-miterlimit: 4; fill: rgb(0,0,0); fill-rule: nonzero; opacity: 1;" vector-effect="non-scaling-stroke"  transform=" translate(-349.99, -280.01)" d="M 278.37 100.81 C 271.1591 102.04050000000001 266.827 111.4 270.5888 117.611 C 259.91679999999997 113.8454 249.17079999999999 111.5133 238.9408 111.6618 C 210.9608 112.07196 185.7108 127.7438 178.8278 154.00979999999998 C 171.04659999999998 176.3378 183.33169999999998 200.4828 195.9758 215.43579999999997 C 208.0658 229.34179999999998 222.6208 238.65879999999999 232.7488 248.68579999999997 C 243.0888 262.86179999999996 256.4598 273.7168 269.8778 281.0608 C 263.9051 283.83419999999995 261.63559999999995 292.3578 265.4559 297.6858 C 293.43289999999996 335.89279999999997 342.4949 353.01379999999995 391.5159 355.61179999999996 C 388.0823 358.61179999999996 386.7971 363.7915 388.4378 368.02579999999995 C 390.0784 372.26019999999994 394.53549999999996 375.25629999999995 399.1178 375.21329999999995 L 410.43379999999996 375.21329999999995 C 410.429894 380.13519999999994 414.10569999999996 384.8305 418.92209999999994 386.06129999999996 C 444.4300999999999 392.37379999999996 466.61709999999994 384.56909999999993 480.09809999999993 383.7879 C 491.13309999999996 405.2759 499.89109999999994 426.9249 506.6180999999999 448.0109 L 523.5910999999999 459.2099 C 514.1027999999999 431.9799 503.41109999999986 406.7299 491.59109999999987 383.43690000000004 C 501.53639999999984 376.32750000000004 503.2080999999999 366.7259 505.38009999999986 356.13590000000005 C 505.88009999999986 355.38199000000003 507.09099999999984 353.80390000000006 511.56759999999986 351.58510000000007 C 516.0206999999998 349.33510000000007 518.5714999999999 343.9093000000001 517.4464999999999 339.08510000000007 C 514.0675999999999 333.28040000000004 510.8878999999999 330.5968000000001 505.0284999999999 330.4093000000001 C 507.41129999999987 326.3234000000001 506.2315999999999 321.0460000000001 503.1807999999999 317.5073000000001 C 499.0596999999999 313.5464000000001 496.3682999999999 313.8159000000001 491.59079999999994 314.3120000000001 C 481.46579999999994 267.50300000000016 452.05979999999994 225.23400000000012 415.2117999999999 190.06200000000013 C 374.47779999999995 151.18700000000013 325.67679999999996 120.58900000000013 285.08179999999993 101.86300000000013 C 282.68729999999994 100.35520000000012 280.64429999999993 100.94894000000012 278.36299999999994 100.81220000000013 z M 239.296 134.06 C 259.48699999999997 133.76703 284.694 143.767 305.421 169.40800000000002 C 308.3272 173.00570000000002 313.61629999999997 174.5096 318.007 172.9822 C 322.3976 171.4549 325.5773 167.01340000000002 325.5773 162.4082 C 325.5773 156.7012 323.54999999999995 151.8492 321.33509999999995 147.1812 C 347.9521 163.4192 375.38609999999994 183.1582 399.4830999999999 206.1542 C 437.9600999999999 242.87720000000002 467.31909999999993 286.4392 472.6780999999999 331.6242 C 475.0257999999999 340.15939999999995 473.8225999999999 351.62019999999995 483.2870999999999 352.6242 C 482.4980399999999 356.2414 481.4901999999999 358.75309999999996 479.7518999999999 361.3742 C 421.18589999999995 258.8642 335.6818999999999 196.01419999999996 212.42189999999994 156.80419999999998 C 341.40189999999996 206.2222 421.26189999999997 282.81419999999997 468.0818999999999 362.25419999999997 C 463.9138999999999 362.73467 459.7654999999999 363.3909 455.7068999999999 364.00419999999997 C 455.7068999999999 358.1409 450.3162999999999 352.80519999999996 444.39089999999993 352.80519999999996 L 434.4885999999999 352.80519999999996 C 438.0705999999999 349.7193 439.32839999999993 344.26609999999994 437.4573999999999 339.9462 C 435.5862999999999 335.6259 430.7307999999999 332.76649999999995 426.0003999999999 333.2079 C 382.7463999999999 337.4891 335.1763999999999 327.8095 303.6503999999999 303.9809 C 307.79489999999987 303.28949 312.37309999999985 302.72310000000004 315.8493999999999 302.2309 C 320.41969999999986 301.56684 324.3766999999999 297.8598 325.2985999999999 293.3793 C 326.2204699999999 288.8988 324.04079999999993 283.9574 320.0915999999999 281.5783 C 304.9975999999999 272.6135 290.5795999999999 266.9263 278.72059999999993 260.4023 C 265.40459999999996 252.07420000000002 255.66159999999994 243.47230000000002 248.66159999999994 232.75430000000003 C 236.16159999999994 220.37930000000003 222.32959999999994 211.49630000000002 213.12259999999992 200.90630000000004 C 204.11479999999992 190.54330000000004 198.68159999999992 179.45330000000004 200.9235999999999 159.25830000000005 C 205.1774999999999 143.75830000000005 219.2675999999999 134.34830000000005 239.2905999999999 134.05930000000004 z" stroke-linecap="round" />
</g>
</svg>