<svg xmlns="http://www.w3.org/2000/svg" version="1.1" viewBox="-5.0 -10.0 110.0 135.0">
 <path d="m88.273 76.188c-0.023438 1.2188-0.11719 2.125-1.043 3.0117-0.80078 0.76172-1.8711 1.2266-2.8164 1.7695-1.0703 0.61719-2.1406 1.543-2.918 2.5078-0.16406 2.7969-1.7305 5.6875-3.6055 7.7266-0.58594 0.63672-1.2656 1.1641-1.8633 1.7852 1.1133 0.57812 2.2109 1 3.4727 1.1133 3.1406 0.19922 5.9453-0.73437 8.3125-2.832 2.2969-2.0352 3.707-5.1016 3.8828-8.1562 0.14063-2.4336-0.55859-4.2773-2.1758-6.0898-0.33203-0.375-0.73047-0.75391-1.2383-0.83984z"/>
 <path d="m11.508 52.352c2.3164 1.8867 6.5195 2.1875 9.4023 1.8789 0.95312-0.10156 1.9688-0.35938 2.9023-0.57812l0.023438-0.11719 0.125 0.089844c-0.36719 0.10547-0.72656 0.25391-1.0938 0.36328-0.82813 0.24609-1.6602 0.44141-2.5117 0.60547-1.125 8.3477 0.36719 16.203 5.5273 22.98 0.57813 0.76172 1.1797 1.5469 1.8477 2.2383 0.57812 0.59766 1.2227 1.1406 1.7773 1.7656 2.3516 2.6562 3.1328 5.8281 2.6719 9.3086-0.16797 1.2578-0.41016 2.5977-1.3477 3.5234-2.3633 0.15625-4.4766 1.0078-6.0625 2.8086-0.32812 0.37109-1.0039 1.1211-0.96875 1.6484 0.011719 0.17187 0.10156 0.32031 0.23438 0.42578 1.0273 0.83203 7.7461 0.78906 9.2109 0.57812 1.2344-0.17969 2.3086-0.91797 3.0352-1.918 0.85547-1.1719 1.2695-2.8555 1.9922-4.1719 1.4062-2.5664 3.3438-4.7969 4.3672-7.5781 0.16016-0.42969 0.30078-0.86719 0.41406-1.3125 0.11719-0.44531 0.20703-0.89453 0.27344-1.3516 0.050781-0.375 0.023437-1.0078 0.14062-1.3398 0.25391 0.77734-0.070312 3.2148-0.3125 4.0586-0.22266 0.76563-0.54297 1.4844-0.88672 2.2031 3.0156 1.8438 7.082 3.5234 10.508 4.3789-3.7695 0.089844-7.5547 0.72656-10.289 3.5703-0.41406 0.42969-1.3359 1.4258-1.3203 2.043 0.003906 0.14062 0.058593 0.26953 0.16406 0.36328 0.73828 0.65625 4.9375 0.55078 6.0508 0.54297 0.23828-1.6836 1.2695-2.7695 2.5898-3.7617 1.7266-1.3008 4.1328-2.2031 6.3008-2.3359-4.043-2.6758-7.9297-6.25-8.9219-11.223-0.015624-0.089843-0.03125-0.17187-0.050781-0.26172-0.015625-0.089844-0.03125-0.17188-0.042969-0.26172-0.015624-0.089844-0.023437-0.17578-0.035156-0.26562-0.011718-0.089844-0.023437-0.17578-0.03125-0.26562-0.007812-0.089844-0.015625-0.17578-0.023437-0.26562-0.003907-0.089844-0.011719-0.17578-0.015625-0.26562s-0.007813-0.17578-0.011719-0.26562c0-0.089844-0.003906-0.17578-0.003906-0.26562s0-0.17578 0.003906-0.26562c0-0.089844 0.003906-0.17578 0.007813-0.26562 0.003906-0.089844 0.011718-0.17578 0.015624-0.26562 0.003907-0.089844 0.015626-0.17578 0.023438-0.26562s0.019531-0.17578 0.03125-0.26562 0.023438-0.17578 0.035156-0.26562c0.015625-0.089844 0.027344-0.17578 0.042969-0.26172 0.015625-0.089844 0.03125-0.17188 0.050781-0.26172 0.015625-0.089844 0.035156-0.17188 0.054688-0.25781 0.019531-0.085937 0.042968-0.17188 0.0625-0.25781 0.023437-0.085937 0.042968-0.17187 0.070312-0.25391 0.023438-0.085937 0.050782-0.17188 0.074219-0.25391 0.023437-0.085938 0.050781-0.16797 0.078125-0.25391 0.027344-0.085938 0.058594-0.16797 0.089844-0.25 0.03125-0.082032 0.058594-0.16406 0.09375-0.24609 0.03125-0.082031 0.066406-0.16406 0.097656-0.24609 0.03125-0.082031 0.070312-0.16406 0.10547-0.24609 0.035156-0.082031 0.074219-0.16406 0.11328-0.24219s0.078125-0.16016 0.11719-0.23828c0.042968-0.078125 0.082031-0.15625 0.125-0.23828 0.042968-0.078124 0.085937-0.15234 0.12891-0.23047 0.042968-0.078125 0.089844-0.15234 0.13281-0.22656 0.046875-0.078125 0.09375-0.15234 0.14062-0.22656s0.097657-0.14844 0.14453-0.22266c1.3555-2 3.332-3.6992 5.543-4.6641 0.25781-0.11328 0.55078-0.29688 0.82422-0.35547 0.023438-0.003906 0.042969-0.003906 0.0625-0.007812-0.042969 0.09375-1.5117 0.92578-1.7227 1.0703-2.75 1.8984-4.7305 5.0156-5.1406 8.3555-0.42578 3.5039 0.8125 6.9727 2.9727 9.7266 2.0898 2.6602 4.8828 4.5352 7.8555 6.082-3.2266-0.35156-6.7422 0.42969-9.3047 2.4805-0.64062 0.51563-1.8008 1.6992-1.8477 2.5742-0.003906 0.11719 0.03125 0.14844 0.097656 0.23828 0.62891 0.32422 1.7461 0.34766 2.4531 0.38672 1.5273 0.089844 3.0586 0.070313 4.582 0.070313h6.1211c1.2695 0 2.543-0.015625 3.8125 0.011718 1.1445 0.023438 2.2969 0.09375 3.4414 0.042969 0.53125-0.023437 1.0625-0.097656 1.5703-0.26172 0.76953-0.25 1.5312-0.73437 1.8984-1.4805 0.33984-0.69531 0.21875-1.4648-0.039062-2.1641-0.125-0.34375-0.30859-0.65625-0.49609-0.96875 3.7344-1.8203 7.1953-5.2305 8.5586-9.1953 2.0859-6.0586 0.27734-14.418-2.4844-20.031-4.2031-8.5352-11.238-13.391-20.094-16.398-1.2773-0.42188-2.5742-0.79688-3.8828-1.1211-1.3086-0.32422-2.6289-0.59375-3.957-0.8125-0.59766-0.10938-1.1992-0.20313-1.8008-0.28125-0.625-0.078126-1.3477-0.078126-1.9336-0.29297-0.94922-0.33984-2.5938-1.3828-3.0508-2.2891-0.48047-0.95312-0.11328-2.0586 0.015625-3.0547 0.046875-0.37109 0.042969-0.75391 0.039062-1.1289-0.042968-2.7148-0.80469-6.0469-2.1484-8.3945 2.2148-1.8789 4.6992-3.2656 7.1211-4.8398 5.418-3.5117 9.25-7.6992 11.809-13.648 0.8125-1.8906 1.9727-4.9258 2.1406-6.9453 0.046874-0.5625 0.007812-1.168-0.37891-1.6133-0.50391-0.57812-1.4375-0.69141-2.1641-0.71875-5.2188-0.21875-12.16 3.0195-15.93 6.5273-4.4336 4.1211-7.0781 9.3945-9.125 15.02-0.17188 0.47656-0.8125 2.6953-0.96094 2.9102-0.050782 0.074218-0.10547 0.058593-0.19141 0.070312-0.097657-0.09375-0.11719-0.14453-0.125-0.28125-0.023438-0.61719 0.49609-2.293 0.68359-2.9648 1.5312-5.4492 4.0781-10.488 8.1445-14.484 0.38281-0.375 0.80078-0.73438 1.1641-1.1289 0.21094-2.5117 0.29297-7.3906-1.3984-9.3398-0.28125-0.32031-0.70313-0.60547-1.1445-0.62109-0.125-0.0039063-0.25391 0.0039062-0.375 0.011719-0.75391 0.21484-1.4141 0.66797-2.0469 1.1211-2.6094 1.8789-4.8477 4.5273-6.4102 7.3281-3.0742 5.5078-3.7344 11.695-3.3008 17.898-0.91406 0.082032-1.8125 0.19141-2.707 0.40234-4.3281 1.043-8.2383 3.8125-11.066 7.1953-0.58984 0.69922-1.125 1.4375-1.6055 2.2148-1.2852 2.0391-2.3633 4.1914-3.3867 6.3672-0.41016 0.86719-0.86328 1.7422-1.1562 2.6602-0.14453 0.46094-0.25 0.95312-0.20703 1.4414 0.15625 1.7773 1.8086 4.5781 3.2031 5.7148zm10.18-15.125c0.67969-0.83984 1.6328-1.3125 2.6953-1.4336 0.88672-0.058594 1.7891 0.15234 2.5117 0.67188l0.14062 0.10547c0.046875 0.039063 0.089844 0.078126 0.13281 0.11719s0.085937 0.078125 0.12891 0.12109c0.042969 0.042968 0.082031 0.085937 0.12109 0.125 0.039062 0.042968 0.078125 0.089844 0.11719 0.13281 0.039063 0.046875 0.074219 0.089844 0.10938 0.14062 0.035157 0.046875 0.070313 0.097657 0.10156 0.14453 0.03125 0.050782 0.0625 0.097657 0.097656 0.14844 0.03125 0.050781 0.058594 0.10156 0.089844 0.15234 0.027344 0.050781 0.054687 0.10547 0.078125 0.15625 0.023437 0.050781 0.050781 0.10547 0.070312 0.16406 0.023438 0.054688 0.042969 0.10938 0.0625 0.16406 0.019531 0.054687 0.039063 0.10938 0.054688 0.16797 0.015625 0.054687 0.03125 0.11328 0.046875 0.17187 0.015625 0.058594 0.027344 0.11719 0.039062 0.17188 0.011719 0.058593 0.023438 0.11719 0.03125 0.17187 0.011719 0.058594 0.019532 0.12109 0.023438 0.17969s0.011718 0.12109 0.015625 0.17969c0.003906 0.058593 0.003906 0.12109 0.003906 0.18359v0.18359c0 0.058594-0.003906 0.12109-0.011719 0.17969-0.003906 0.058594-0.011718 0.12109-0.019531 0.17969s-0.019531 0.12109-0.03125 0.17969c-0.011719 0.058593-0.023437 0.12109-0.039063 0.17969-0.015624 0.058594-0.03125 0.11719-0.046874 0.17578-0.015626 0.058594-0.035157 0.11719-0.054688 0.17188-0.019531 0.058594-0.042969 0.11719-0.0625 0.17188-0.023438 0.058594-0.046875 0.11328-0.074219 0.16797-0.023437 0.054687-0.050781 0.10938-0.082031 0.16406-0.027344 0.054687-0.058594 0.10547-0.089844 0.16016-0.03125 0.050781-0.0625 0.10547-0.097656 0.15625-0.03125 0.050781-0.070312 0.10156-0.10547 0.15234-0.65234 0.88672-1.5742 1.2969-2.6406 1.4531-0.99609 0.019532-1.8984-0.18359-2.6953-0.80859-0.74219-0.57812-1.2578-1.3984-1.3633-2.3438-0.10547-0.94531 0.13281-1.9297 0.73438-2.6758zm-10.906 11.426-0.007812 0.058594c0 0.17969-0.007813 0.35547-0.023438 0.53516l-0.042969-0.019532c-0.17188-0.32031-0.13672-0.69922-0.34766-1.0195-0.33594-0.51953-0.96484-0.95312-1.1055-1.5742-0.035156-0.15625-0.023437-0.32031 0.078125-0.45312 0.21094-0.28125 0.65625-0.33984 0.98047-0.39453 0.13281-0.007812 0.26562-0.011718 0.40234 0 0.39453 0.023438 1.1172 0.11328 1.3594 0.45312 0.45312 0.63672-0.83203 1.4531-1.1367 1.9297-0.097656 0.15625-0.13281 0.31641-0.16406 0.49609z"/>
 <path d="m21.395 39.727c0.003907 0.03125 0.003907 0.070313 0.011719 0.10156 0.003906 0.03125 0.011719 0.070313 0.015625 0.10156s0.015625 0.066406 0.023437 0.10156c0.007813 0.03125 0.015626 0.066406 0.027344 0.097656 0.011719 0.03125 0.019532 0.066406 0.03125 0.097656 0.011719 0.03125 0.023438 0.0625 0.035156 0.097657 0.19922 0.49609 0.59766 0.92578 1.1055 1.1211 0.41406 0.16016 0.78516 0.14063 1.2031 0.023438 0.54688-0.26172 0.96875-0.625 1.1641-1.2188 0.16016-0.48438 0.097656-0.99609-0.14062-1.4414-0.015625-0.03125-0.03125-0.058594-0.050782-0.089844-0.019531-0.03125-0.035156-0.058594-0.054687-0.089844-0.019531-0.027344-0.039063-0.058594-0.058594-0.085937-0.023437-0.027344-0.042969-0.054688-0.066406-0.082031-0.023437-0.027344-0.046875-0.050782-0.070313-0.078126l-0.074218-0.074218c-0.023438-0.023438-0.050782-0.046875-0.078125-0.070313-0.027344-0.023437-0.050781-0.042969-0.078125-0.066406s-0.054688-0.042969-0.082032-0.0625c-0.027343-0.019531-0.058593-0.039063-0.089843-0.058594s-0.058594-0.035156-0.089844-0.050781-0.058594-0.03125-0.09375-0.050781c-0.03125-0.015625-0.0625-0.03125-0.097656-0.042969-0.03125-0.015625-0.0625-0.027344-0.097657-0.039062-0.03125-0.011719-0.066406-0.023438-0.097656-0.03125-0.03125-0.011719-0.066406-0.019532-0.10156-0.027344-0.32031-0.085938-0.62891-0.066406-0.95312-0.042969-0.49609 0.19141-0.85156 0.45703-1.0781 0.95312-0.015625 0.03125-0.027344 0.0625-0.039063 0.097656-0.011719 0.03125-0.023437 0.0625-0.03125 0.097656-0.011719 0.03125-0.019531 0.066407-0.03125 0.097657-0.007812 0.03125-0.015625 0.066406-0.023437 0.097656-0.007813 0.03125-0.015625 0.066406-0.019532 0.10156-0.003906 0.03125-0.011718 0.070312-0.015624 0.10156-0.003907 0.03125-0.007813 0.070312-0.007813 0.10156s-0.003906 0.070313-0.003906 0.10156v0.10156c0 0.03125 0.003906 0.070312 0.003906 0.10156zm1.8672-1.0703c0.03125-0.25781 0.17188-0.38281 0.35938-0.53906 0.0625-0.003907 0.125-0.007813 0.1875-0.007813 0.23828 0.007813 0.4375 0.078125 0.58984 0.26562 0.10547 0.13281 0.16406 0.29297 0.13281 0.46484-0.039062 0.24609-0.1875 0.38672-0.38672 0.52344-0.0625 0.015625-0.10938 0.023438-0.17578 0.03125h-0.078125c-0.023437 0-0.050781-0.003906-0.078125-0.007812-0.023438-0.003907-0.050781-0.007813-0.074219-0.015625-0.023437-0.003906-0.050781-0.015625-0.070312-0.023438-0.023438-0.007812-0.046875-0.019531-0.070313-0.03125-0.023437-0.011718-0.042968-0.023437-0.066406-0.039062s-0.042969-0.03125-0.058594-0.046875c-0.019531-0.015625-0.039062-0.03125-0.054687-0.050781-0.13281-0.14063-0.18359-0.33203-0.16406-0.52344z"/>
</svg>