<?xml version="1.0" encoding="UTF-8" standalone="no" ?>
<!DOCTYPE svg PUBLIC "-//W3C//DTD SVG 1.1//EN" "http://www.w3.org/Graphics/SVG/1.1/DTD/svg11.dtd">
<svg xmlns="http://www.w3.org/2000/svg" xmlns:xlink="http://www.w3.org/1999/xlink" version="1.1" width="1080" height="1080" viewBox="0 0 1080 1080" xml:space="preserve">
<desc>Created with Fabric.js 5.2.4</desc>
<defs>
</defs>
<g transform="matrix(1 0 0 1 540 540)" id="d2d54c6b-f560-4f15-8439-4267dd12eda6"  >
<rect style="stroke: none; stroke-width: 1; stroke-dasharray: none; stroke-linecap: butt; stroke-dashoffset: 0; stroke-linejoin: miter; stroke-miterlimit: 4; fill: rgb(255,255,255); fill-rule: nonzero; opacity: 1; visibility: hidden;" vector-effect="non-scaling-stroke"  x="-540" y="-540" rx="0" ry="0" width="1080" height="1080" />
</g>
<g transform="matrix(1 0 0 1 540 540)" id="b5879157-c59c-44b7-92cd-85ec1672b3cb"  >
</g>
<g transform="matrix(1.42 0 0 1.42 536.27 543.93)"  >
<g style="" vector-effect="non-scaling-stroke"   >
		<g transform="matrix(1.33 0 0 1.33 -174.59 -75.6)"  >
<path style="stroke: none; stroke-width: 1; stroke-dasharray: none; stroke-linecap: butt; stroke-dashoffset: 0; stroke-linejoin: miter; stroke-miterlimit: 4; fill: rgb(0,0,0); fill-rule: nonzero; opacity: 1;" vector-effect="non-scaling-stroke"  transform=" translate(-219.06, -223.31)" d="M 230.45 195.81 C 245.634 202.103 252.845 219.50900000000001 246.55499999999998 234.693 C 240.2659 249.881 222.85599999999997 257.091 207.67199999999997 250.798 C 192.48799999999997 244.5089 185.27699999999996 227.103 191.56699999999998 211.919 C 197.85609999999997 196.73100000000002 215.266 189.52100000000002 230.45 195.81" stroke-linecap="round" />
</g>
		<g transform="matrix(1.33 0 0 1.33 55.69 -84.54)"  >
<path style="stroke: none; stroke-width: 1; stroke-dasharray: none; stroke-linecap: butt; stroke-dashoffset: 0; stroke-linejoin: miter; stroke-miterlimit: 4; fill: rgb(0,0,0); fill-rule: nonzero; opacity: 1;" vector-effect="non-scaling-stroke"  transform=" translate(-391.77, -216.6)" d="M 415.58 216.6 C 415.58 229.748 404.91999999999996 240.409 391.77099999999996 240.409 C 378.61899999999997 240.409 367.95899999999995 229.749 367.95899999999995 216.6 C 367.95899999999995 203.452 378.61899999999997 192.791 391.77099999999996 192.791 C 404.919 192.791 415.58 203.451 415.58 216.6" stroke-linecap="round" />
</g>
		<g transform="matrix(1.33 0 0 1.33 -32.15 -231.44)"  >
<path style="stroke: none; stroke-width: 1; stroke-dasharray: none; stroke-linecap: butt; stroke-dashoffset: 0; stroke-linejoin: miter; stroke-miterlimit: 4; fill: rgb(0,0,0); fill-rule: nonzero; opacity: 1;" vector-effect="non-scaling-stroke"  transform=" translate(-325.89, -106.42)" d="M 346.89 106.42 C 346.89 94.842 337.472 85.424 325.894 85.424 C 314.31600000000003 85.424 304.898 94.84200000000001 304.898 106.42 C 304.898 117.99799999999999 314.31600000000003 127.416 325.894 127.416 C 337.472 127.416 346.89 117.99799999999999 346.89 106.42 z" stroke-linecap="round" />
</g>
		<g transform="matrix(1.33 0 0 1.33 0 0)"  >
<path style="stroke: none; stroke-width: 1; stroke-dasharray: none; stroke-linecap: butt; stroke-dashoffset: 0; stroke-linejoin: miter; stroke-miterlimit: 4; fill: rgb(0,0,0); fill-rule: nonzero; opacity: 1;" vector-effect="non-scaling-stroke"  transform=" translate(-350.01, -280)" d="M 601.71 352.66 C 600.3233 349.69120000000004 598.7373 346.7889 596.9053 343.4452 C 591.3662 333.3162 582.8823 318.0542 572.5263 295.5702 C 565.4793999999999 280.2732 560.3933 256.8982 562.5693 251.7502 C 565.1201 245.719 562.84664 226.7072 562.84664 226.7072 C 559.68644 105.0372 458.05663999999996 15.72720000000001 336.19664 14.027199999999993 C 274.30164 13.199079999999993 209.78664 30.578199999999992 165.70664 74.0472 C 121.60463999999999 117.5352 97.31563999999999 181.62720000000002 97.31563999999999 243.5672 C 97.31563999999999 290.4852 124.73763999999998 331.0322 145.41763999999998 370.2472 C 148.78874 376.6417 192.06964 444.4272 195.33963999999997 450.8172 C 211.07363999999998 481.6062 207.05463999999998 546.0082 207.05463999999998 546.0082 L 410.29463999999996 546.0082 C 410.29463999999996 546.0082 410.28682799999996 513.8052 419.75163999999995 507.01619999999997 C 432.84563999999995 497.6178 450.49763999999993 494.3132 472.22063999999995 498.856 C 472.2245459999999 498.856 472.22845199999995 498.85990599999997 472.2323579999999 498.85990599999997 L 472.2479839999999 498.85990599999997 C 476.7167839999999 499.809126 480.5057839999999 500.875506 484.1739839999999 501.902906 C 488.7130839999999 503.17630599999995 493.4083839999999 504.49670599999996 499.9629839999999 505.78570599999995 C 501.2598839999999 506.04351599999995 502.7246839999999 506.359926 504.3262839999999 506.70758599999994 C 515.4202839999999 509.1177859999999 533.9822839999998 507.10602599999993 544.2172839999998 499.23878599999995 C 549.6469839999999 495.06688599999995 552.6625839999998 487.36778599999997 553.1781839999999 476.35978599999993 C 553.7680239999999 463.6997859999999 556.2992839999998 439.75778599999995 559.6508839999999 424.35978599999993 C 560.0766639999999 422.4105859999999 560.7289839999999 420.56288599999993 561.6156839999999 419.02388599999995 C 562.1742739999999 418.05904599999997 560.2523839999999 414.54338599999994 557.0336839999999 415.1215859999999 L 547.5492839999998 414.41064599999993 C 546.2445839999998 414.3911139999999 546.2445839999998 412.47314599999993 547.5219399999999 412.42234599999995 L 558.0729399999999 411.21534599999995 C 561.63934 410.73096599999997 565.2877399999999 409.10984599999995 563.2799399999999 403.79344599999996 L 561.4635399999999 383.94544599999995 C 561.4635399999999 383.94544599999995 560.4557399999999 370.86344599999995 575.2565399999999 370.3164459999999 C 575.5026299999998 370.30863299999993 575.7409199999998 370.2344139999999 575.9830999999998 370.20706599999994 C 580.7799999999999 369.6953459999999 589.8890999999998 368.4609659999999 595.0340999999999 367.06256599999995 C 601.2567999999999 365.37116599999996 604.4402999999999 358.5078659999999 601.7137999999999 352.66756599999997 z M 301.37000000000006 248.95000000000005 L 287.11600000000004 250.92270000000005 C 283.15510000000006 257.78210000000007 281.48710000000005 260.66880000000003 277.53010000000006 267.52770000000004 L 282.94810000000007 280.85970000000003 C 273.9129000000001 288.43780000000004 274.2723000000001 288.14090000000004 265.23710000000005 295.7187 L 253.04910000000007 288.0664 C 245.60770000000008 290.77729999999997 242.47510000000005 291.91409999999996 235.02910000000006 294.625 L 230.61110000000005 308.32 L 207.49410000000006 308.32 L 203.07610000000005 294.625 C 195.63470000000007 291.918 192.50210000000004 290.7773 185.05610000000004 288.0664 L 172.86810000000006 295.7187 C 163.83290000000005 288.1406 164.19230000000005 288.4375 155.15710000000007 280.85970000000003 L 160.57510000000008 267.52770000000004 C 156.61420000000007 260.66830000000004 154.9462000000001 257.7816 150.98920000000007 250.92270000000005 L 136.73520000000008 248.95000000000005 C 134.68830000000008 237.33700000000005 134.77040000000008 237.79400000000004 132.71960000000007 226.18000000000004 L 145.43860000000006 219.44950000000003 C 146.81360000000006 211.64870000000002 147.39170000000007 208.36750000000004 148.76670000000007 200.56650000000002 L 139.11440000000007 189.89450000000002 C 145.00890000000007 179.67950000000002 144.77850000000007 180.0859 150.67340000000007 169.87150000000003 L 164.74340000000007 172.89490000000004 C 170.80980000000005 167.80510000000004 173.36450000000008 165.66050000000004 179.43140000000005 160.57090000000002 L 178.90015000000005 146.19190000000003 C 189.98215000000005 142.15670000000003 189.54515000000006 142.31690000000003 200.62715000000006 138.28570000000002 L 209.46305000000007 149.64470000000003 L 228.63905000000005 149.64470000000003 L 237.47495000000006 138.28570000000002 C 248.55695000000006 142.31690000000003 248.11995000000007 142.16070000000002 259.20195000000007 146.19190000000003 L 258.67070000000007 160.57090000000002 C 264.73710000000005 165.66070000000002 267.2918000000001 167.80530000000002 273.35870000000006 172.89490000000004 L 287.42870000000005 169.87150000000003 C 293.32320000000004 180.08250000000004 293.09280000000007 179.68010000000004 298.9877000000001 189.89450000000002 L 289.33540000000005 200.56650000000002 C 290.71040000000005 208.36730000000003 291.28850000000006 211.6485 292.66350000000006 219.44950000000003 L 305.38650000000007 226.18000000000004 C 303.3396000000001 237.79300000000003 303.42170000000004 237.33600000000004 301.37090000000006 248.95000000000005 z M 316.15100000000007 149.93000000000006 C 311.61190000000005 148.27770000000007 309.69790000000006 147.58230000000006 305.15900000000005 145.93000000000006 L 297.72540000000004 150.59800000000007 C 292.2137 145.97300000000007 292.43240000000003 146.15660000000008 286.92040000000003 141.53160000000008 L 290.22510000000005 133.39880000000008 C 287.81100000000004 129.21520000000007 286.79150000000004 127.45350000000008 284.3774000000001 123.26980000000007 L 275.6821000000001 122.06670000000007 C 274.4321000000001 114.98080000000007 274.4829000000001 115.26200000000007 273.2329000000001 108.17570000000006 L 280.9946000000001 104.07020000000006 C 281.8344400000001 99.31240000000005 282.1860000000001 97.30850000000005 283.0258000000001 92.55020000000006 L 277.1391000000001 86.03850000000006 C 280.7368000000001 79.80800000000005 280.5922000000001 80.05410000000006 284.1899000000001 73.82350000000005 L 292.7719000000001 75.66730000000005 C 296.4711000000001 72.56180000000005 298.02970000000005 71.25320000000005 301.73280000000005 68.14780000000006 L 301.40858000000003 59.37440000000006 C 308.17028000000005 56.913500000000056 307.90078000000005 57.011100000000056 314.66258000000005 54.55020000000006 L 320.05318000000005 61.47990000000006 L 331.75218000000007 61.47990000000006 L 337.1427800000001 54.55020000000006 C 343.9044800000001 57.01110000000006 343.6349800000001 56.91350000000006 350.3967800000001 59.37440000000006 L 350.07256000000007 68.14780000000006 C 353.7756600000001 71.25330000000007 355.33036000000004 72.56190000000007 359.03346000000005 75.66730000000005 L 367.61546000000004 73.82350000000005 C 371.21316 80.05400000000006 371.06856000000005 79.80790000000005 374.66626 86.03850000000006 L 368.77176000000003 92.55020000000006 C 369.6116 97.30800000000006 369.96316 99.31190000000007 370.80296000000004 104.07020000000006 L 378.56466000000006 108.17570000000006 C 377.31466000000006 115.26160000000006 377.36546000000004 114.98040000000006 376.11546000000004 122.06670000000007 L 367.42016000000007 123.26980000000007 C 365.00606000000005 127.45340000000007 363.98656000000005 129.21510000000006 361.5724600000001 133.39880000000008 L 364.8771600000001 141.53160000000008 C 359.3654600000001 146.15660000000008 359.5841600000001 145.97300000000007 354.0721600000001 150.59800000000007 L 346.6385600000001 145.93000000000006 C 342.0994600000001 147.58230000000006 340.1854600000001 148.27770000000007 335.6465600000001 149.93000000000006 L 332.9512600000001 158.28550000000007 L 318.8462600000001 158.28550000000007 z M 452.29100000000005 235.45700000000005 L 441.81100000000004 236.90620000000004 C 438.90080000000006 241.94920000000005 437.6743 244.07420000000005 434.76020000000005 249.11720000000005 L 438.74460000000005 258.91800000000006 C 432.10400000000004 264.4922000000001 432.36570000000006 264.2696000000001 425.7216 269.84400000000005 L 416.76070000000004 264.21900000000005 C 411.28800000000007 266.2112000000001 408.9834 267.05100000000004 403.51470000000006 269.0393 L 400.26470000000006 279.1093 L 383.26470000000006 279.1093 L 380.01470000000006 269.0393 C 374.5420000000001 267.0471 372.23740000000004 266.20730000000003 366.76470000000006 264.21900000000005 L 357.8038000000001 269.84400000000005 C 351.1632000000001 264.26980000000003 351.4249000000001 264.49240000000003 344.78080000000006 258.91800000000006 L 348.76520000000005 249.11720000000005 C 345.8550000000001 244.07420000000005 344.62850000000003 241.94920000000005 341.71440000000007 236.90620000000004 L 331.23440000000005 235.45700000000005 C 329.73050000000006 226.91790000000006 329.7891000000001 227.25390000000004 328.28130000000004 218.71500000000006 L 337.63290000000006 213.76580000000007 C 338.6446000000001 208.03140000000008 339.07040000000006 205.61740000000006 340.0821000000001 199.88280000000006 L 332.9844000000001 192.03510000000006 C 337.3203000000001 184.52730000000005 337.1485000000001 184.82420000000005 341.4844000000001 177.31210000000004 L 351.8284000000001 179.53480000000005 C 356.2893000000001 175.79260000000005 358.1682000000001 174.21450000000004 362.6294000000001 170.47230000000005 L 362.2387800000001 159.89830000000003 C 370.38718000000006 156.93350000000004 370.0629800000001 157.05060000000003 378.2117800000001 154.08580000000003 L 384.7078800000001 162.43740000000003 L 398.8058800000001 162.43740000000003 L 405.3019800000001 154.08580000000003 C 413.4503800000001 157.05060000000003 413.12618000000015 156.93350000000004 421.27498000000014 159.89830000000003 L 420.88436000000013 170.47230000000005 C 425.3452600000001 174.21450000000004 427.22416000000015 175.79260000000005 431.6853600000001 179.53480000000005 L 442.0293600000001 177.31210000000004 C 446.3652600000001 184.81990000000005 446.19346000000013 184.52300000000005 450.5293600000001 192.03510000000006 L 443.43166000000014 199.88280000000006 C 444.44336000000015 205.61720000000005 444.86916000000014 208.03120000000007 445.88086000000015 213.76580000000007 L 455.2324600000002 218.71500000000006 C 453.74026000000015 227.25410000000005 453.79886000000016 226.91810000000007 452.2949600000002 235.45700000000005 z" stroke-linecap="round" />
</g>
</g>
</g>
</svg>