<?xml version="1.0" encoding="UTF-8" standalone="no" ?>
<!DOCTYPE svg PUBLIC "-//W3C//DTD SVG 1.1//EN" "http://www.w3.org/Graphics/SVG/1.1/DTD/svg11.dtd">
<svg xmlns="http://www.w3.org/2000/svg" xmlns:xlink="http://www.w3.org/1999/xlink" version="1.1" width="1080" height="1080" viewBox="0 0 1080 1080" xml:space="preserve">
<g transform="matrix(1 0 0 1 540 540)" id="8a71fa76-99f8-4fe2-89e8-f0f50fd62f5e"  >
<rect style="stroke: none; stroke-width: 1; stroke-dasharray: none; stroke-linecap: butt; stroke-dashoffset: 0; stroke-linejoin: miter; stroke-miterlimit: 4; fill: rgb(255,255,255); fill-rule: nonzero; opacity: 1; visibility: hidden;" vector-effect="non-scaling-stroke"  x="-540" y="-540" rx="0" ry="0" width="1080" height="1080" />
</g>
<g transform="matrix(1 0 0 1 540 540)" id="73ead965-87d6-461e-aa23-c8df12641a31"  >
</g>
<g transform="matrix(9.7 0 0 9.7 586.52 544.49)"  >
<path style="stroke: none; stroke-width: 1; stroke-dasharray: none; stroke-linecap: butt; stroke-dashoffset: 0; stroke-linejoin: miter; stroke-miterlimit: 4; fill: rgb(0,0,0); fill-rule: nonzero; opacity: 1;" vector-effect="non-scaling-stroke"  transform=" translate(-50.3, -50)" d="M 90 71 C 90 72.657 88.657 74 87 74 L 69.636 74.004 C 70.905 75.896 72.11699999999999 77.902 73.222 80.004 L 84.97999999999999 80.004 C 86.63699999999999 80.004 87.91799999999999 81.343 87.91799999999999 83 C 87.91799999999999 84.657 86.65799999999999 86 85.00099999999999 86 L 76.00099999999999 86 C 76.62899999999999 87.652 77.11299999999999 89.351 77.55199999999999 91.086 C 78.05999999999999 93.094 76.844 95.133 74.83699999999999 95.64099999999999 C 74.52799999999999 95.719 74.219 95.75599999999999 73.91399999999999 95.75599999999999 C 72.23799999999999 95.75599999999999 70.71099999999998 94.62399999999998 70.28099999999999 92.92499999999998 C 67.83999999999999 83.27899999999998 61.42299999999999 74.76799999999999 56.08999999999999 69.02099999999999 L 56.08999999999999 73.25399999999999 L 55.99199999999999 73.25399999999999 L 44.09 73.25399999999999 L 43.992000000000004 73.25399999999999 L 43.992000000000004 68.83299999999998 C 38.61900000000001 74.59199999999998 32.074000000000005 83.19599999999998 29.611000000000004 92.92599999999999 C 29.181000000000004 94.62499999999999 27.654000000000003 95.75699999999999 25.978000000000005 95.75699999999999 C 25.673000000000005 95.75699999999999 25.364000000000004 95.71999999999998 25.055000000000007 95.642 C 23.047000000000008 95.134 21.831000000000007 93.094 22.340000000000007 91.08699999999999 C 22.78 89.351 23.372 87.652 24 86 L 15 86 C 13.343 86 12 84.657 12 83 C 12 81.343 13.343 80 15 80 L 26.67 80.004 C 27.775000000000002 77.902 29.106 75.89200000000001 30.375 74 L 13 74 C 11.343 74 10 72.657 10 71 C 10 69.343 11.343 68 13 68 L 34.721000000000004 68.004 C 36.301 66.075 37.871 64.331 39.341 62.79900000000001 C 39.499 62.53300000000001 39.679 62.26400000000001 39.827 62.00000000000001 L 12.606 62.00000000000001 C 10.949 62.00000000000001 9.59 60.66100000000001 9.59 59.004000000000005 C 9.59 57.347 10.933 56.004000000000005 12.59 56.004000000000005 L 42.445 56.004000000000005 C 43.160000000000004 53.82600000000001 43.482 51.795 43.722 50.00000000000001 L 14 50.00000000000001 C 12.343 50.00000000000001 11 48.65700000000001 11 47.00000000000001 C 11 45.343 12.343 44.00000000000001 14 44.00000000000001 L 44 44.00000000000001 L 44 38.00000000000001 L 17 38.00000000000001 C 15.343 38.00000000000001 14 36.65700000000001 14 35.00000000000001 C 14 33.343 15.343 32.00000000000001 17 32.00000000000001 L 44 32.00000000000001 L 44 26.000000000000007 L 23 26.000000000000007 C 21.343 26.000000000000007 20 24.657000000000007 20 23.000000000000007 C 20 21.343000000000007 21.343 20.000000000000007 23 20.000000000000007 L 44 20.000000000000007 L 44 14.000000000000007 L 29 14.000000000000007 C 27.343 14.000000000000007 26 12.657000000000007 26 11.000000000000007 C 26 9.343000000000007 27.343 8.000000000000007 29 8.000000000000007 L 43.992000000000004 8.004000000000007 L 43.992000000000004 8.004000000000007 C 43.992000000000004 4.690000000000007 46.678000000000004 2.0040000000000067 49.992000000000004 2.0040000000000067 C 53.306000000000004 2.0040000000000067 55.992000000000004 4.690000000000007 55.992000000000004 8.004000000000007 L 55.992000000000004 8.004000000000007 L 71 8 C 72.657 8 74 9.343 74 11 C 74 12.657 72.657 14 71 14 L 56 14 L 55.992 20.003999999999998 L 77 20 C 78.657 20 80 21.343 80 23 C 80 24.657 78.657 26 77 26 L 56 26 L 55.992 32.004 L 83 32 C 84.657 32 86 33.343 86 35 C 86 36.657 84.657 38 83 38 L 56 38 L 55.992 44.004 L 86 44 C 87.657 44 89 45.343 89 47 C 89 48.657 87.657 50 86 50 L 56 50 C 56.24 51.795 56.732 53.826 57.447 56.004 L 88 56.004 C 89.657 56.004 91 57.346999999999994 91 59.004 C 91 60.661 89.657 62 88 62 L 60 62 C 60.148 62.264 60.393 62.533 60.551 62.799 C 62.021 64.332 63.591 66.075 65.171 68.004 L 87 68 C 88.657 68 90 69.343 90 71 z M 44.09 81.504 L 56.09 81.504 L 56.09 76.254 L 44.09 76.254 L 44.09 81.504 z M 44.09 89.754 L 56.09 89.754 L 56.09 84.504 L 44.09 84.504 L 44.09 89.754 z M 44.09 98.004 L 56.09 98.004 L 56.09 92.754 L 44.09 92.754 L 44.09 98.004 z" stroke-linecap="round" />
</g>
</svg>
