<?xml version="1.0" encoding="UTF-8" standalone="no" ?>
<!DOCTYPE svg PUBLIC "-//W3C//DTD SVG 1.1//EN" "http://www.w3.org/Graphics/SVG/1.1/DTD/svg11.dtd">
<svg xmlns="http://www.w3.org/2000/svg" xmlns:xlink="http://www.w3.org/1999/xlink" version="1.1" width="1080" height="1080" viewBox="0 0 1080 1080" xml:space="preserve">
<desc>Created with Fabric.js 5.2.4</desc>
<defs>
</defs>
<g transform="matrix(1 0 0 1 540 540)" id="c126b99d-0855-4407-a9bd-7fb937ab2812"  >
</g>
<g transform="matrix(1 0 0 1 540 540)" id="2219b0cb-4ff5-4f6c-8957-ae26a0c53e55"  >
<rect style="stroke: none; stroke-width: 1; stroke-dasharray: none; stroke-linecap: butt; stroke-dashoffset: 0; stroke-linejoin: miter; stroke-miterlimit: 4; fill: rgb(255,255,255); fill-rule: nonzero; opacity: 1; visibility: hidden;" vector-effect="non-scaling-stroke"  x="-540" y="-540" rx="0" ry="0" width="1080" height="1080" />
</g>
<g transform="matrix(1 0 0 1 540 540)"  >
<rect style="stroke: none; stroke-width: 1; stroke-dasharray: none; stroke-linecap: butt; stroke-dashoffset: 0; stroke-linejoin: miter; stroke-miterlimit: 4; fill: rgb(255,255,255); fill-rule: nonzero; opacity: 1; visibility: hidden;" vector-effect="non-scaling-stroke"  x="-540" y="-540" rx="0" ry="0" width="1080" height="1080" />
</g>
<g transform="matrix(0.87 0 0 0.87 555.92 540)"  >
<path style="stroke: rgb(0,0,0); stroke-width: 0; stroke-dasharray: none; stroke-linecap: butt; stroke-dashoffset: 0; stroke-linejoin: miter; stroke-miterlimit: 4; fill: rgb(0,0,0); fill-rule: nonzero; opacity: 1;" vector-effect="non-scaling-stroke"  transform=" translate(-599.99, -600.01)" d="M 297.83 264.11 C 298.03702999999996 246.59400000000002 303.02139999999997 218.895 308.217 202.102 C 337.44 107.71900000000001 425.417 75.452 514.857 64.78200000000001 L 571.697 60.00080000000001 L 628.537 60.00080000000001 L 659.541 62.35240000000001 C 711.162 66.12580000000001 763.691 75.42640000000002 809.3910000000001 100.97740000000002 C 900.903 152.13340000000002 910.691 244.96740000000003 899.094 339.03740000000005 L 889.6878 403.6274000000001 L 884.9066 439.74840000000006 C 886.0433 452.35740000000004 898.7546 454.76040000000006 907.4616 461.24440000000004 C 921.4386 471.68240000000003 931.7736 489.01740000000007 929.9386 506.97440000000006 C 928.6456 519.5054 922.0831 528.0054 922.0831 535.3964000000001 C 922.0831 544.205 931.6416999999999 555.1114000000001 929.9386 571.5684000000001 C 928.6456 584.0994000000001 922.0831 592.5994000000001 922.0831 599.9904000000001 C 922.0831 608.7990000000001 931.6416999999999 619.7054000000002 929.9386 636.1624000000002 C 928.6456 648.6934000000001 922.0831 657.1934000000001 922.0831 664.5844000000002 C 922.0831 671.9754000000003 928.6456 680.4754000000001 929.9386 693.0064000000002 C 931.798 711.0414000000002 922.1378 723.1314000000002 912.7316 736.9284000000002 C 942.0046 751.2684000000003 995.7976 795.3974000000003 1009.8765999999999 824.7724000000003 C 1024.6816 855.6744000000003 1006.8296999999999 887.4524000000002 972.1536 889.2604000000003 C 939.1066 890.9674000000003 926.3956 874.5614000000004 899.8096 860.9444000000003 L 905.3916 902.2844000000003 C 911.7744 961.9404000000003 909.1104 1023.7644000000004 865.7826 1070.1244000000004 C 835.7596 1102.2374000000004 791.3996 1116.6554000000003 749.9626000000001 1126.7334000000003 C 692.7596000000001 1140.6314000000002 625.2726 1140.0924000000002 566.5226 1139.9874000000002 L 535.5186 1137.6358000000002 C 477.6436 1133.6553000000004 414.7086 1125.7258000000002 364.9986 1093.2218000000003 C 276.8696 1035.5808000000002 296.2216 926.0618000000003 308.4946 837.7018000000003 L 316.5805 757.8928000000003 C 315.1586 747.0918000000003 305.3655 748.1272000000004 292.7605 738.7478000000003 C 278.75649999999996 728.3338000000003 268.44849999999997 710.9238000000004 270.2835 693.0178000000003 C 271.5765 680.4868000000004 278.139 671.9868000000004 278.139 664.5958000000003 C 278.139 655.7872000000003 268.5804 644.8808000000002 270.2835 628.4238000000003 C 271.5765 615.8928000000003 278.139 607.3928000000003 278.139 600.0018000000002 C 278.139 591.1932000000003 268.5804 580.2868000000002 270.2835 563.8298000000002 C 271.5765 551.2988000000003 278.139 542.7988000000003 278.139 535.4078000000002 C 278.139 528.0172000000002 271.5765 519.5168000000002 270.2835 506.98580000000015 C 268.4241 488.95080000000013 278.0843 476.86080000000015 287.4905 463.0638000000001 C 258.2175 448.72380000000015 204.4245 404.59480000000013 190.34550000000002 375.21980000000013 C 173.2675 339.5908000000001 198.25170000000003 309.23180000000013 235.81850000000003 310.73180000000013 C 263.90450000000004 311.86850000000015 280.12750000000005 328.5088000000001 302.9945 341.6338000000001 C 297.3109 318.2788000000001 297.5414 288.28180000000015 297.8265 264.1218000000001 z M 833.6800000000001 444.91 C 838.0980000000001 441.42170000000004 838.1488 432.199 838.8988 426.875 L 844.9183 385.53499999999997 C 854.4535000000001 327.246 866.9803 249.09499999999997 839.4144 194.34499999999997 C 821.8714 159.43899999999996 788.3364 139.36499999999998 752.5514000000001 127.16899999999997 C 695.3484000000001 107.68899999999996 634.1714000000001 105.80199999999996 574.2814000000001 106.50099999999998 L 548.4454000000001 108.85259999999998 C 472.0194000000001 114.20029999999998 380.37540000000007 131.9776 353.01540000000006 215.01259999999996 C 347.95290000000006 230.36059999999998 344.40990000000005 255.62559999999996 344.33570000000003 271.85259999999994 C 344.12867000000006 317.0165999999999 352.1365 361.6105999999999 358.75370000000004 406.20259999999996 C 364.33570000000003 443.79659999999996 359.96850000000006 446.87059999999997 380.50770000000006 447.5426 C 379.93739000000005 421.9646 366.48070000000007 371.5816 360.9997000000001 344.19259999999997 L 352.9138000000001 282.1846 C 352.3434900000001 274.45799999999997 355.57400000000007 246.1686 357.6677000000001 238.2626 C 386.8627000000001 126.8526 530.8477 124.42259999999999 623.3677 124.58259999999999 C 642.2267 124.60994399999998 684.4727 129.20759999999999 703.4617000000001 132.53959999999998 C 733.9227000000001 137.88729999999998 768.9307000000001 149.33259999999999 793.8917000000001 167.88359999999997 C 803.1651000000002 174.78199999999998 816.4737000000001 187.6726 823.3217000000001 196.9226 C 877.7867000000001 270.2976 821.1772000000001 380.83259999999996 819.7319000000001 447.5326 C 824.0991000000001 447.37635 830.0409000000001 447.76698 833.6849000000001 444.8959 z M 778.907 403.62100000000004 C 789.423 350.785 799.1370000000001 327.894 799.0590000000001 271.851 C 799.035562 249.789 795.4692000000001 232.347 780.1210000000001 215.242 C 749.3240000000001 180.906 662.7210000000001 171.164 618.2010000000001 171.08599999999998 L 576.8610000000001 171.08599999999998 L 551.0250000000001 173.43759999999997 C 510.8490000000001 176.25399999999996 448.4050000000001 183.69559999999998 420.1150000000001 215.24259999999998 C 404.7670000000001 232.34759999999997 401.20100000000014 249.7856 401.17700000000013 271.85159999999996 C 401.09887400000014 327.89059999999995 410.81370000000015 350.78159999999997 421.3290000000001 403.62159999999994 C 429.49310000000014 444.72659999999996 423.7040000000001 446.79359999999997 445.0990000000001 447.54359999999997 C 443.5482000000001 376.52059999999994 378.1300000000001 281.70359999999994 447.6810000000001 223.61359999999996 C 467.7830000000001 206.82059999999996 494.72800000000007 199.37959999999995 520.0250000000001 194.98859999999996 C 536.4590000000001 192.12139999999997 562.916 189.19949999999997 579.4510000000001 189.17609999999996 C 644.4550000000002 189.07453999999996 759.6810000000002 187.44559999999996 781.1610000000002 266.68809999999996 C 783.4852000000002 275.23889999999994 784.5438000000001 288.8051 784.2352000000002 297.6921 C 782.3250000000002 349.1331 756.0752000000002 404.9121 755.1412000000001 447.5421 C 776.5362000000001 446.7921 770.7462000000002 444.7257 778.9112000000001 403.6201 z M 465.487 274.44100000000003 C 462.74870000000004 281.5738 463.10810000000004 292.55400000000003 463.18620000000004 300.27700000000004 C 463.49479 326.47600000000006 479.1272 375.437 485.35420000000005 403.62700000000007 C 486.8269 410.31840000000005 491.4245 439.92800000000005 494.24090000000007 443.41600000000005 C 498.37370000000004 448.5332000000001 508.8389000000001 447.5488 514.8579000000001 447.5488 L 685.3779000000001 447.5488 C 691.3974000000001 447.5488 701.8619000000001 448.52927000000005 705.9949 443.41600000000005 C 708.8113000000001 439.9277000000001 713.409 410.31800000000004 714.8816 403.62700000000007 C 721.1082 375.4390000000001 736.7406000000001 326.47900000000004 737.0496 300.27700000000004 C 737.15116 291.2848 737.67069 280.047 733.6668000000001 271.855 C 719.3548000000001 242.58200000000002 672.1748000000001 240.56600000000003 644.0378000000001 237.82800000000003 L 620.7838 236.04680000000002 L 566.5258 236.04680000000002 C 536.1428 240.7734 478.7598 239.6913 465.4758 274.4418 z M 253.907 380.261 C 268.762 394.57300000000004 295.04 414.882 313.333 424.288 C 311.86030000000005 406.1 303.82520000000005 402.507 290.079 391.784 C 269.87600000000003 376.05 260.419 369.796 238.407 357.11199999999997 C 238.53591 367.11199999999997 246.98510000000002 373.61999999999995 253.911 380.26 z M 832.647 494.05100000000004 L 755.135 494.05100000000004 L 447.675 494.05100000000004 L 349.495 494.05100000000004 C 335.077 494.12912400000005 326.526 493.55881000000005 315.909 504.38700000000006 C 333.815 514.6450000000001 347.741 512.1370000000001 367.581 512.1370000000001 L 445.093 512.1370000000001 L 752.553 512.1370000000001 L 850.733 512.1370000000001 C 865.151 512.0588750000001 873.702 512.6291900000001 884.319 501.80100000000004 C 866.413 491.54300000000006 852.487 494.05100000000004 832.6469999999999 494.05100000000004 z M 832.647 558.6410000000001 L 755.135 558.6410000000001 L 447.675 558.6410000000001 L 349.495 558.6410000000001 C 335.077 558.7191250000001 326.526 558.14881 315.909 568.9770000000001 C 333.815 579.2350000000001 347.741 576.7270000000001 367.581 576.7270000000001 L 445.093 576.7270000000001 L 752.553 576.7270000000001 L 850.733 576.7270000000001 C 865.151 576.6488750000001 873.702 577.2191900000001 884.319 566.3910000000001 C 866.413 556.133 852.487 558.6410000000001 832.6469999999999 558.6410000000001 z M 832.647 623.2310000000001 L 755.135 623.2310000000001 L 447.675 623.2310000000001 L 349.495 623.2310000000001 C 335.077 623.3091250000001 326.526 622.7388100000001 315.909 633.5670000000001 C 333.815 643.8250000000002 347.741 641.3170000000001 367.581 641.3170000000001 L 445.093 641.3170000000001 L 752.553 641.3170000000001 L 850.733 641.3170000000001 C 865.151 641.2388760000001 873.702 641.8091900000002 884.319 630.9810000000001 C 866.413 620.7230000000001 852.487 623.2310000000001 832.6469999999999 623.2310000000001 z M 832.647 687.8210000000001 L 755.135 687.8210000000001 L 447.675 687.8210000000001 L 349.495 687.8210000000001 C 335.077 687.8991250000001 326.526 687.3288100000001 315.909 698.1570000000002 C 333.815 708.4150000000002 347.741 705.9070000000002 367.581 705.9070000000002 L 445.093 705.9070000000002 L 752.553 705.9070000000002 L 850.733 705.9070000000002 C 865.151 705.8288750000002 873.702 706.3991900000002 884.319 695.5710000000001 C 866.413 685.3130000000001 852.487 687.8210000000001 832.6469999999999 687.8210000000001 z M 365.00700000000006 752.4110000000002 C 361.88200000000006 820.5950000000001 343.53800000000007 888.1310000000002 344.33900000000006 956.5210000000002 C 344.7257200000001 989.6420000000002 354.44100000000003 1024.1340000000002 380.5110000000001 1046.1230000000003 C 424.3550000000001 1083.0680000000002 491.22100000000006 1087.3570000000002 545.8710000000001 1091.1030000000003 L 576.8750000000001 1093.4546000000003 C 639.1910000000001 1093.5561600000003 702.5150000000001 1092.2905000000003 762.8950000000001 1075.0056000000002 C 798.9610000000001 1064.6696000000002 833.4030000000001 1046.2476000000001 849.9150000000001 1010.7756000000002 C 861.517 985.7916000000001 861.388 957.6036000000001 861.075 930.6816000000001 L 837.821 752.4116000000001 L 819.735 752.4116000000001 L 845.8050000000001 904.8516000000002 C 846.37531 912.8868000000002 847.9495000000001 917.1486000000002 847.3284000000001 925.5196000000002 C 845.8557000000001 945.0506000000001 843.1682000000001 964.3246000000001 835.1334 982.3596000000002 C 794.0784000000001 1074.4926000000003 659.7234000000001 1075.7576000000001 574.2834 1075.3716000000002 L 545.8614 1073.0200000000002 C 480.1344 1068.2153000000003 403.8614 1052.8400000000001 368.7214 990.1100000000002 C 328.0024 917.4070000000003 379.0804 817.8600000000002 380.5024 752.4100000000003 L 364.9984 752.4100000000003 z M 421.3310000000001 796.3330000000002 C 410.81500000000005 849.1690000000002 401.10100000000006 872.0600000000002 401.1790000000001 928.1030000000002 C 401.2024370000001 950.1650000000002 404.7688000000001 967.6070000000002 420.1170000000001 984.7120000000002 C 450.9140000000001 1019.0480000000002 537.517 1028.7900000000002 582.037 1028.8680000000002 L 623.3770000000001 1028.8680000000002 L 649.2130000000001 1026.5164000000002 C 689.3890000000001 1023.7000000000002 751.8330000000001 1016.2584000000002 780.123 984.7114000000003 C 795.471 967.6064000000002 799.037 950.1684000000002 799.061 928.1024000000002 C 799.139125 872.0634000000002 789.4243 849.1724000000002 778.909 796.3324000000002 C 770.7449 755.2274000000002 776.5301 753.1604000000002 755.139 752.4104000000002 C 756.0686900000001 795.0394000000002 782.319 850.8204000000002 784.2330000000001 902.2604000000002 C 784.54159 911.1471000000003 783.4830000000001 924.7134000000002 781.1588 933.2644000000003 C 759.6898 1012.5064000000002 644.4588000000001 1010.8774000000003 579.4488 1010.7764000000002 C 562.9138 1010.7529620000001 536.4568 1007.8311000000002 520.0228 1004.9639000000002 C 494.72979999999995 1000.5733000000002 467.78079999999994 993.1319000000002 447.67879999999997 976.3389000000002 C 378.1278 918.2569000000002 443.546 823.4389000000002 445.0968 752.4089000000001 C 423.7018 753.1589000000001 429.49179999999996 755.2253000000002 421.3268 796.3309000000002 z M 489.53800000000007 775.6650000000002 L 478.3500000000001 824.7550000000002 C 472.87340000000006 846.7430000000002 463.4440000000001 877.7980000000002 463.1820000000001 899.6810000000003 C 462.9476200000001 921.9510000000002 464.3968000000001 935.8760000000003 486.4360000000001 947.4000000000003 C 506.4590000000001 957.8650000000004 531.4670000000001 960.2910000000003 553.6120000000001 961.9200000000003 C 594.1740000000001 964.8653000000003 634.714 965.9512000000003 675.0420000000001 958.8966000000003 C 696.4370000000001 955.1232000000002 726.0970000000001 948.1236000000002 734.7490000000001 925.5136000000002 C 737.4873000000001 918.3808000000002 737.1279000000002 907.4006000000002 737.0498000000001 899.6776000000002 C 736.7412100000001 873.4786000000003 721.1088000000001 824.5176000000002 714.8818000000001 796.3276000000002 C 713.4091000000001 789.6362000000001 708.8115000000001 760.0266000000001 705.9951000000001 756.5386000000002 C 701.8623000000001 751.4214000000002 691.3971000000001 752.4058000000002 685.3781000000001 752.4058000000002 L 561.3581000000001 752.4058000000002 C 546.3741000000001 752.4058000000002 510.0731000000002 750.9331000000002 497.56910000000016 753.9566000000002 C 490.02610000000016 760.2847000000002 491.3152000000002 766.2296000000002 489.5339000000002 775.6596000000002 z M 886.9080000000001 778.2470000000002 C 888.5369000000002 784.4736000000001 889.2322000000001 788.0126000000001 893.3924000000002 793.3090000000002 C 904.9664000000001 808.0860000000002 946.4354000000002 835.0360000000002 964.4154000000002 842.8360000000002 C 954.8060000000002 822.5040000000002 908.9194000000002 784.2110000000002 886.9034000000001 778.2460000000002 z" stroke-linecap="round" />
</g>
</svg>