<?xml version="1.0" encoding="utf-8"?>
<!-- Generator: Adobe Illustrator 16.0.0, SVG Export Plug-In . SVG Version: 6.00 Build 0)  -->
<!DOCTYPE svg PUBLIC "-//W3C//DTD SVG 1.1//EN" "http://www.w3.org/Graphics/SVG/1.1/DTD/svg11.dtd">
<svg version="1.1" id="Layer_1" xmlns="http://www.w3.org/2000/svg" xmlns:xlink="http://www.w3.org/1999/xlink" x="0px" y="0px"
	 width="841.89px" height="595.28px" viewBox="0 0 841.89 595.28" enable-background="new 0 0 841.89 595.28" xml:space="preserve">
<path fill-rule="evenodd" clip-rule="evenodd" d="M671.115,290.043c0,0,0-0.006-0.002-0.006c-0.026-0.036-0.059-0.072-0.088-0.108
	l-0.252-0.325l-0.004,0.007c-1.986-2.509-4.11-4.927-6.264-7.463c-0.444,2.141-0.811,3.901-1.175,5.661
	c-0.286,0.018-0.571,0.033-0.856,0.054c-0.277-15.797-2.159-31.46-6.028-46.931c-4.956-19.81-12.143-38.665-22.183-56.283h0.007
	c-0.813-1.45-6.418-11.51-9.058-16.249c0.264-0.179,0.66-0.474,0.875-0.612c1.45,1.162,2.9,2.323,4.397,3.523
	c0.058-1.177,0.119-2.338,0.18-3.491v0.006l0.048-0.915c0.004-0.088,0.012-0.181,0.014-0.269l0.31-6.134l-0.876-0.199
	c-0.003-0.002-0.003-0.003-0.007-0.003c-0.043-0.011-0.089-0.021-0.133-0.029l-0.4-0.093v0.006
	c-3.124-0.693-6.297-1.235-9.567-1.844c1.002,1.941,1.829,3.537,2.654,5.134c-0.063,0.056-0.119,0.111-0.182,0.166
	c-0.796-1.286-1.287-1.91-1.287-1.91c-18.033-24.441-38.902-46.029-63.99-63.369c-3.539-2.492-9.738-5.529-9.738-5.529
	c-1.795-1.072-3.603-2.116-5.415-3.139c0.065-0.09,0.129-0.183,0.194-0.276c1.777,0.542,3.555,1.086,5.389,1.646
	c-0.379-1.112-0.752-2.212-1.123-3.307v0.003l-0.293-0.864c-0.027-0.083-0.057-0.169-0.086-0.254l-1.983-5.816l-0.886,0.137
	c-0.006,0-0.006-0.001-0.009,0c-0.046,0.008-0.09,0.019-0.137,0.022l-0.403,0.065v0.006c-3.159,0.513-6.309,1.181-9.567,1.828
	c1.647,1.43,3.007,2.608,4.364,3.788c-0.066,0.134-0.132,0.271-0.195,0.407c-34.637-18.613-72.072-28.377-112.192-28.854
	c0-0.008,0-0.019,0.003-0.025h-0.76c0.018-0.142,0.031-0.284,0.045-0.427c1.818-0.377,3.637-0.754,5.508-1.141
	c-0.879-0.744-1.742-1.485-2.6-2.217l0.004,0.002l-0.68-0.579c-0.067-0.055-0.137-0.115-0.2-0.169l-4.574-3.894l-0.706,0.529
	c-0.003,0.001-0.007,0.001-0.007,0.002c-0.037,0.028-0.072,0.057-0.108,0.083l-0.321,0.239l0.004,0.003
	c-2.506,1.892-4.923,3.908-7.451,5.958c2.139,0.417,3.898,0.761,5.662,1.106c0.01,0.194,0.025,0.387,0.04,0.579
	c-33.971,0.64-66.426,7.194-97.194,21.306l0.018-0.014c0,0-8.323,3.46-17.948,8.689c-0.058-0.121-0.114-0.241-0.174-0.361
	c1.356-1.178,2.716-2.358,4.364-3.788c-3.261-0.645-6.409-1.317-9.571-1.827l0.005-0.006l-0.405-0.063
	c-0.046-0.006-0.092-0.017-0.136-0.022c-0.005,0-0.005,0.001-0.007,0l-0.888-0.139l-1.982,5.813
	c-0.029,0.085-0.059,0.172-0.087,0.256l-0.291,0.866v-0.005c-0.373,1.093-0.743,2.196-1.125,3.31
	c1.834-0.56,3.613-1.104,5.391-1.648c0.06,0.088,0.125,0.178,0.188,0.267c-3.867,2.256-7.765,4.741-11.262,7.354
	c-8.565,5.893-16.618,12.321-24.228,19.227c0-0.002-0.004-0.002-0.004-0.002c-3.53,2.969-6.657,5.103-10.039,8.23
	c-11.179,10.339-20.51,22.345-29.503,34.602c-2.697,2.949-5.192,6.237-7.255,9.191c-0.194-0.139-0.39-0.276-0.581-0.41
	c0.606-1.694,1.212-3.386,1.952-5.442c-3.162,1.035-6.235,1.992-9.24,3.095v-0.008l-0.385,0.146
	c-0.043,0.016-0.088,0.029-0.13,0.046c-0.004,0-0.004,0.003-0.007,0.003l-0.84,0.314l1.119,6.041
	c0.017,0.088,0.036,0.176,0.049,0.265l0.167,0.897v-0.004c0.212,1.135,0.428,2.279,0.641,3.438c1.324-1.387,2.608-2.731,3.891-4.077
	c0.126,0.061,0.254,0.118,0.379,0.18c-1.688,2.649-2.687,4.435-2.687,4.435c-7.596,13.255-13.884,27.128-18.745,41.623
	c-5.124,15.268-9.322,30.805-11.204,46.815c-1.089,9.279-1.342,18.676-1.623,28.029c-0.109,3.653-0.134,7.308-0.083,10.945
	c-0.255-0.014-0.508-0.031-0.764-0.047c-0.363-1.761-0.732-3.521-1.175-5.656c-2.153,2.53-4.277,4.951-6.264,7.459l-0.004-0.005
	l-0.252,0.324c-0.029,0.036-0.063,0.069-0.087,0.108c-0.002,0.002-0.002,0.004-0.002,0.006l-0.555,0.706l4.109,4.567
	c0.059,0.065,0.12,0.133,0.181,0.2l0.61,0.681l-0.004-0.006c0.776,0.859,1.554,1.72,2.34,2.597c0.408-1.874,0.801-3.692,1.194-5.511
	c0.191-0.018,0.521-0.035,0.805-0.054c0.588,16.004,2.82,31.833,7.083,47.423c5.625,20.573,13.671,40.052,24.821,58.101l0.003,0.025
	c0,0,1.52,4.576,7.714,13.973c-0.246,0.167-0.49,0.33-0.735,0.493c-1.36-1.174-2.724-2.347-4.375-3.775
	c-0.169,3.322-0.378,6.535-0.433,9.733l-0.002-0.002l-0.008,0.41c0,0.048,0,0.096,0,0.14c0,0.006,0,0.006,0,0.007l-0.01,0.898
	l6.041,1.122c0.09,0.016,0.177,0.034,0.267,0.053l0.898,0.163h-0.003c1.135,0.211,2.278,0.42,3.437,0.638
	c-0.819-1.733-1.612-3.416-2.411-5.099c0.09-0.084,0.233-0.205,0.372-0.33c0.318,0.451,0.642,0.903,0.978,1.371
	c18.706,24.313,40.227,45.662,65.961,62.587c0,0,4.698,2.803,9.123,4.881c2.131,1.219,4.276,2.396,6.426,3.544
	c-0.094,0.125-0.187,0.25-0.281,0.37c-1.669-0.667-3.335-1.336-5.366-2.151c0.919,3.196,1.76,6.303,2.748,9.349h-0.007l0.129,0.391
	c0.016,0.044,0.025,0.09,0.044,0.132c0,0.002,0,0.002,0.003,0.006l0.282,0.854l6.076-0.893c0.089-0.015,0.176-0.027,0.267-0.04
	l0.905-0.132h-0.007c1.143-0.171,2.295-0.343,3.458-0.514c-1.334-1.376-2.632-2.708-3.928-4.043
	c0.105-0.199,0.318-0.557,0.473-0.828c34.911,17.7,72.406,26.567,112.359,26.171c-0.028,0.297-0.055,0.596-0.081,0.896
	c-1.807,0.414-3.613,0.834-5.478,1.259c2.377,1.929,4.652,3.834,7.002,5.63c0.499,0.384,1.577,0.754,1.899,0.503
	c2.613-2.04,5.107-4.232,7.733-6.455c-2.147-0.37-3.915-0.677-5.683-0.98c-0.029-0.335-0.063-0.671-0.09-1.004
	c24.489-0.926,43.803-3.435,66.508-11.068c9.201-2.764,18.205-6.163,26.961-10.296c5.708-2.688,11.247-5.742,16.774-8.812
	c0.167,0.271,0.42,0.652,0.538,0.865c-1.24,1.384-2.477,2.771-3.757,4.2c1.171,0.119,2.325,0.244,3.476,0.368h-0.008l0.908,0.096
	c0.091,0.011,0.182,0.019,0.271,0.027l6.109,0.644l0.244-0.863c0.004-0.002,0.004-0.004,0.004-0.006
	c0.016-0.046,0.025-0.09,0.039-0.136l0.113-0.394h-0.008c0.861-3.083,1.576-6.221,2.359-9.453c-1.991,0.896-3.628,1.635-5.27,2.373
	c-0.097-0.117-0.191-0.23-0.287-0.347c1.445-0.843,11.131-6.508,15.138-8.991c0.206-0.157,0.403-0.316,0.598-0.477
	c8.854-7.138,17.984-13.967,26.493-21.499c11.77-10.417,21.611-22.654,31.146-35.115c0.076-0.097,0.166-0.199,0.267-0.3
	c1.118-1.428,3.859-4.991,6.331-8.209c0.257,0.192,0.657,0.48,0.86,0.642c-0.653,1.739-1.307,3.483-1.98,5.28
	c1.14-0.315,2.262-0.618,3.375-0.921l-0.007,0.004l0.884-0.242c0.086-0.023,0.174-0.047,0.26-0.069l5.928-1.616l-0.086-0.895
	c0,0,0.004-0.004,0.004-0.006c-0.004-0.046-0.012-0.093-0.016-0.139l-0.039-0.409h-0.002c-0.315-3.184-0.791-6.366-1.23-9.662
	c-1.529,1.559-2.792,2.839-4.055,4.12c-0.205-0.115-0.414-0.23-0.622-0.347c0.879-1.146,1.444-1.884,1.444-1.884
	c0.308-0.619,0.656-1.248,1.047-1.893c7.908-13.119,14.521-26.89,19.711-41.31c5.455-15.153,9.993-30.594,12.225-46.562
	c1.292-9.25,1.749-18.641,2.236-27.985c0.198-3.863,0.309-7.729,0.328-11.58c0.267,0.016,0.555,0.031,0.728,0.049
	c0.394,1.819,0.786,3.635,1.195,5.51c0.785-0.877,1.563-1.738,2.341-2.598l-0.006,0.006l0.611-0.681
	c0.061-0.066,0.121-0.134,0.183-0.202l4.107-4.564L671.115,290.043z M656.564,285.944h-5.59
	c-0.157-15.828-2.979-31.195-6.711-46.745c1.577-0.671,3.156-1.34,5.061-2.149C653.467,253.16,655.931,269.269,656.564,285.944z
	 M503.5,484.105c-5.326,2.196-10.8,4.036-16.393,6.048c-0.121-0.266-0.228-0.531-0.351-0.789c-1.327-2.817-2.124-5.794-3.288-8.673
	c-0.609-1.503-1.295-2.994-1.73-4.558c-0.279-1.003-0.542-2.015-0.956-2.97c-0.005,0.002-0.009,0.002-0.011,0.004
	c-3.779-6.911-7.394-13.666-12.013-19.971v-0.004c0,0-9.546-14.08-20.894-30.95c2.719-3.963,5.369-7.903,8.152-11.746
	c0.506-0.696,1.184-1.296,2.016-1.279c1.252,0.023,2.514,0.046,3.779,0.065l0.063,0.045c6.642,0.203,13.295,0.429,19.914,0.062
	c15.494-0.864,30.06-5.546,44.51-11.854c-0.578-2.197-1.146-4.382-1.691-6.468c7.219-3.583,12.478-8.916,17.549-14.431
	c3.248-3.535,6.605-7.069,6.455-12.518c-0.023-0.805,1.1-1.95,2.102-2.542c0.174,0.052,0.347,0.106,0.525,0.152
	c0.646,0.172,1.303,0.312,1.96,0.439c0.347-0.121,0.731-0.197,1.179-0.226c1.825-0.104,3.451-0.546,4.559-1.649
	c1.326,0.217,2.64,0.625,3.923,1.23c6.026,2.835,8.987,6.728,4.647,13.622c-1.492,2.379-2.714,4.927-4.061,7.396
	c0.148,0.139,0.297,0.28,0.448,0.423c2.913-2.448,5.936-4.783,8.716-7.377c2.607-2.436,2.673-5.565,0.436-8.439
	c-0.725-0.937-1.623-1.741-2.581-2.753c0.974,0.125,1.806,0.228,2.705,0.342l3.978,2.723c1.717,2.88,3.443,5.777,5.246,8.809
	c-4.763,1.117-5.51,1.896-7.184,7.052c2.63-0.071,5.189-0.145,6.975-0.192c0.797,0.719,1.144,1.285,1.602,1.402
	c1.475,0.372,2.985,0.598,4.492,0.836c1.434,0.227,2.873,0.399,4.217,0.582c-0.033-0.076-0.181-0.402-0.592-1.332
	c4.876,1.413,9.416,2.73,14.031,4.068c-14.842,27.314-35.047,50.495-59.76,70.063C533.111,469.091,518.953,477.744,503.5,484.105z
	 M524.767,487.107c-3.239,1.708-6.408,3.545-9.716,5.086c-5.019,2.337-10.118,4.518-15.223,6.671
	c-2.945,1.241-2.984,1.162-4.074-1.748c-0.332-0.882-0.612-1.785-0.883-2.582c9.076-4.111,18.063-8.182,27.19-12.314
	C522.858,483.66,523.738,485.249,524.767,487.107z M284.985,134.974l-2.165,2.312c-7.987,8.154-15.87,16.203-23.906,24.404
	c-1.14-0.948-2.532-2.109-4.475-3.727c8.091-8.303,16.552-15.715,24.842-24.221c0.906-0.752,1.813-1.497,2.737-2.234
	C283.181,132.865,284.157,134.012,284.985,134.974z M283.462,129.426c8.737-6.253,17.274-12.36,26.034-18.627
	c1.241,2.017,2.195,3.566,3.118,5.065c-8.366,5.92-16.667,11.798-24.727,17.502C286.628,132.245,285.312,131.073,283.462,129.426z
	 M247.742,176.622c-0.944,0.555-1.792,1.323-2.109,2.126c-0.198,0.505-0.371,1.005-0.534,1.505
	c-1.246,1.716-2.502,3.444-3.765,5.182c-1.319-0.981-2.733-2.026-4.388-3.258c5.181-7.474,10.292-14.841,15.792-22.772
	c1.638,2.028,2.795,3.462,3.956,4.903C253.797,168.293,250.797,172.417,247.742,176.622z M277.757,131.447
	C277.754,131.444,277.754,131.442,277.757,131.447c-0.003,0.002-0.003,0.003-0.008,0.004c-0.565,0.557-1.131,1.117-1.699,1.677
	c0.004,0.002,0.008,0.007,0.012,0.012c-7.808,7.791-15.832,15.085-23.627,22.975c-1.125-0.956-2.468-2.096-4.018-3.416
	c7.425-9.273,15.763-17.523,24.861-25.277c0.98-0.775,1.979-1.547,2.784-2.356c1.572,1.66,2.823,2.976,3.945,4.165
	C279.258,129.969,278.507,130.707,277.757,131.447z M250.602,157.968c-5.29,7.562-10.393,14.858-15.571,22.262
	c-1.396-0.975-2.745-1.917-4.552-3.178c5.316-7.655,10.506-15.134,15.811-22.779C248.039,155.773,249.303,156.858,250.602,157.968z
	 M231.323,188.813c1.836,1.275,3.324,2.313,4.822,3.349c-3.971,7.671-7.875,15.217-11.89,22.974
	c-1.548-0.855-3.007-1.666-4.767-2.639C223.426,204.625,227.324,196.822,231.323,188.813z M209.16,355.767
	c-4.043-14.004-6.505-28.132-7.19-42.794l4.691-0.105c2.372,13.611,4.717,27.076,7.13,40.903
	C212.525,354.315,210.923,355.008,209.16,355.767z M215.085,356.429c3.765,9.064,7.471,18.008,11.284,27.185
	c-1.601,0.98-3.17,1.935-5.124,3.124c-1.639-3.749-3.361-7.4-4.844-11.146c-1.97-4.99-3.671-10.083-5.666-15.063
	c-0.685-1.716-0.347-2.483,1.349-2.953C213.155,357.275,214.172,356.784,215.085,356.429z M207.288,302.326l-5.563,0.121
	c-0.371-17.825,0.887-35.504,5.112-53.102c0.892,0.259,1.417,0.397,1.934,0.563c3.257,1.057,3.267,1.061,2.651,4.427
	C207.887,273.623,206.945,282.185,207.288,302.326z M207.235,246.659c3.472-10.672,6.866-21.118,10.364-31.871
	c1.897,0.923,3.329,1.355,4.37,2.243c0.479,0.41,0.479,1.812,0.216,2.602c-2.408,7.212-4.958,14.376-7.385,21.582
	c-0.736,2.185-1.204,4.461-1.882,7.018C211.05,247.716,209.459,247.276,207.235,246.659z M217.245,211.26
	c-1.522-0.773-2.921-1.482-4.947-2.511c4.104-8.364,8.161-16.625,12.243-24.938c1.921,1.361,3.284,2.327,4.702,3.329
	C225.266,195.138,221.271,203.173,217.245,211.26z M215.481,213.276c-3.522,10.79-7.029,21.511-10.634,32.55
	c-1.449-0.413-2.893-0.823-4.662-1.326c2.441-11.424,6.348-22.236,10.783-33.164C212.601,212.039,213.964,212.624,215.481,213.276z
	 M201.634,247.687c0.767,0.2,1.525,0.438,2.69,0.777c-0.522,2.513-1.1,5.039-1.569,7.59c-2.542,13.811-3.857,27.729-3.588,41.786
	c0.101,5.281,0.058,5.283-5.665,4.859c-0.408-18.779,1.154-37.204,5.766-55.545C200.137,247.346,200.891,247.496,201.634,247.687z
	 M199.376,313.366c0.263,3.149,0.292,6.375,0.833,9.511c1.778,10.283,3.578,20.568,5.75,30.771c0.591,2.8,0.05,4.026-2.511,4.704
	c-0.594,0.156-1.131,0.51-1.932,0.882c-4.23-15.012-7.013-30.109-7.775-45.746L199.376,313.366z M203.783,361.318
	c1.114-0.719,2.438-1.111,3.563-1.588c3.844,9.57,7.631,18.996,11.472,28.565c-1.732,0.964-3.241,1.805-5.262,2.93
	c-3.617-9.397-7.201-18.647-10.678-27.943C202.689,362.79,203.252,361.659,203.783,361.318z M220.051,390.544
	c4.929,8.152,9.852,16.287,14.774,24.425c-1.388,1.307-2.715,2.561-4.4,4.146c-5.117-8.542-10.136-16.929-15.278-25.51
	C216.917,392.5,218.402,391.572,220.051,390.544z M222.424,389.313c1.899-1.147,3.537-2.133,5.07-3.061
	c4.601,7.501,9.133,14.893,13.729,22.387c-1.415,1.342-2.854,2.705-4.573,4.338C231.883,405.045,227.177,397.219,222.424,389.313z
	 M239.477,423.272c7.015,8.55,13.993,17.056,21.025,25.629c-1.067,1.235-2.167,2.503-3.375,3.905
	c-8.168-7.716-15.063-16.503-21.619-25.951C236.815,425.674,238.161,424.458,239.477,423.272z M241.431,421.399
	c1.783-1.624,3.196-2.912,4.487-4.091c6.999,8.548,13.924,17.003,20.775,25.378c-1.104,1.279-2.366,2.738-4.111,4.758
	C255.414,438.62,248.446,430.039,241.431,421.399z M262.558,450.813c7.579,6.693,15.181,13.404,22.931,20.242
	c-1.014,1.245-2.152,2.652-3.484,4.291c-8.446-6.063-15.771-13.278-23.264-20.796C260.18,453.143,261.389,451.958,262.558,450.813z
	 M264.699,448.759c1.402-1.379,2.755-2.709,4.122-4.049c7.223,6.591,14.411,13.149,21.697,19.795
	c-1.031,1.336-2.011,2.606-3.147,4.08C279.177,462.736,271.695,456.086,264.699,448.759z M260.745,424.849
	c-16.666-20.79-29.688-43.639-38.614-68.767c-1.276-3.605-2.192-7.335-3.306-11.113c1.634-0.466,2.813-0.803,3.765-1.076
	c-1.553-1.534-3.548-2.764-4.402-4.54c-1.087-2.256-1.274-4.95-1.793-7.466c-0.234-1.116-0.451-2.238-0.663-3.361
	c0,0-4.677-19.222-1.063-55c0-0.002,0-0.002,0.002-0.005c0.115-1.501,0.285-3.003,0.522-4.486c0.701-4.345,0.74-9.121,5.865-11.177
	c0.057-0.024,0.083-0.127,0.173-0.28c-0.328-0.406-0.617-0.923-1.039-1.259c-2.134-1.7-2.416-3.798-1.604-6.275
	c2.553-7.783,4.542-15.793,7.653-23.343c5.217-12.674,11.498-24.571,18.761-35.735c0.646,1.84,1.656,3.658,3.074,5.466
	c1.398,1.792,2.758,3.795,3.443,5.926c3.09,9.585,9.271,16.32,18.304,20.671l1.404,4.557c0.208,0.49,0.26,0.745,0.403,0.922
	c0.35,0.437,0.704,0.893,1.129,1.252c7.53,6.325,15.625,11.827,24.674,15.707c8.63,3.698,14.49,10.229,18.525,18.25
	c4.331,8.611,5.43,18.135,5.305,27.704c-0.043,3.254,0.173,6.465,0.555,9.663c0.303,6.07,1.212,17.905,3.854,24.844
	c0.902,2.575,1.497,4.913,2.507,7.058c6.621,14.066,9.073,28.527,4.894,43.829c-0.924,3.387-1.696,6.813-2.44,10.271v0.002
	c0,0-17.058,46.007,0,79.182l0,0c2.504,6.451,6.396,13.98,10.097,19.393c-10.138-4.237-19.946-9.351-29.412-15.327
	C291.877,458.06,275.117,442.772,260.745,424.849z M354.381,231.734c-0.548-0.696-0.75-1.66-1.176-2.47
	c-0.328-0.625-0.761-1.191-1.576-2.445c1.706,0.584,2.726,0.919,3.735,1.279c2.7,0.961,3.371,0.541,3.684-2.394
	c0.619,0,1.244-0.026,1.867-0.019l4.202,7.807l-3.585,2.291c-0.022-0.01-0.044-0.018-0.068-0.027
	c-0.454,0.224-1.049,0.278-1.729,0.196c-0.785-0.093-1.54-0.336-2.315-0.471c0,0-2.732-0.977-6.191,0.192
	c-0.35-0.07-0.693-0.201-0.949-0.38c-3.493-2.426-7.847-3.678-10.219-7.666c-0.935-1.576-2.226-2.152-3.682-1.875
	c-5.38-2.312-20.289-8.246-20.289-8.246v0.002c-1.172-0.534-2.348-1.066-3.534-1.592c-5.113-2.271-10.197-4.609-15.38-6.714
	c-1.899-0.771-4.14-0.698-6.037-1.475c-2.066-0.843-3.912-2.224-5.664-3.789c4.279-0.142,8.02,1.536,11.921,3.011l1.317,0.304
	c0.003,0.033,0.01,0.067,0.013,0.099c0.119-0.004,0.234-0.01,0.35-0.017v0.002v-0.002c5.485-0.238,10.876-0.769,15.983,1.027
	c3.681,1.296,7.086,3.37,10.616,5.091c0.651,0.319,1.281,0.699,1.962,0.917c2.644,0.849,4.458,2.097,5.611,5.068
	c0.743,1.912,3.784,2.919,5.771,4.364c1.731,1.264,3.354,2.686,5.157,3.835c2.246,1.435,4.09,3.145,5.43,5.474
	c0.84,0.625,1.757,1.13,2.843,0.991c1.615-0.206,2.052-1.069,2.041-2.24C354.454,231.819,354.417,231.778,354.381,231.734z
	 M364.64,220.999h0.005l0.271-0.281l9.671,6.558c-0.195,0.15-0.599,0.468-1.064,0.845l-7.536,4.817l-3.893-7.211
	c1.559,0.008,2.763-0.651,3.092-2.25C365.381,222.516,365.159,221.711,364.64,220.999z M366.679,218.869
	c1.085,0.372,2.214,0.256,2.813-1.021c0.119-0.256,0.223-0.519,0.307-0.787l4.572-0.018c0.708,2.779,1.559,5.458,0.985,8.201
	l-8.943-6.097L366.679,218.869L366.679,218.869z M386.924,163.512c0.075,0.308,0.146,0.618,0.22,0.928
	c-2.741-0.252-5.936-1.042-4.551,3.44c-2.11-1.543-2.363-2.3-1.933-5.221c-4.605,6.023-1.429,13.991,7.039,17.641
	c-3.394,0.493-7.538-1.822-9.56-5.558c-2.5-4.618-2.975-9.331,0.173-13.865c1.259-1.807,2.903-3.256,5.661-2.246
	c-0.75,1.113-1.364,2.028-1.946,2.904C383.717,162.216,385.323,162.864,386.924,163.512z M369.379,166.656
	c-2.947-8.977,2.845-16.94,11.193-15.834C372.26,152.615,369.739,158.62,369.379,166.656z M368.917,174.169
	c2.939,2.377,5.842,4.797,8.317,6.848c-3.325-0.749-6.403-3.132-9.294-5.829c-0.101-0.462-0.205-0.924-0.306-1.389
	C368.067,173.917,368.6,173.911,368.917,174.169z M369.542,186.333c3.924,1.093,7.973,1.89,11.871,0.541
	c3.217-1.112,6.146-3.031,9.225-4.554c1.211-0.598,2.478-1.079,3.717-1.617c0.098,0.174,0.192,0.348,0.286,0.521
	c-0.797,0.715-1.6,1.439-2.419,2.172c-1,0.664-2.748,1.767-4.573,2.661c-1.728,0.621-3.455,1.238-5.182,1.856
	c-0.873,0.029-1.747,0.12-2.612,0.074c-3.628-0.189-7.252-0.365-10.865-0.696c-0.547-0.049-1.031-0.869-1.543-1.335
	C368.146,186.078,368.859,186.142,369.542,186.333z M438.275,257.742c0.541-0.01,1.086,0.044,1.602-0.047
	c1.096-0.188,1.926-0.614,1.904-1.984c-0.059-4.167-0.033-4.167,4.039-4.953c1.693-0.329,2.318-1.224,1.95-2.909
	c-0.311-1.438-0.711-2.857-1.024-4.297c-0.688-3.129-0.861-6.299,0.572-9.23c1.072-2.185,2.666-4.103,3.838-6.245
	c0.949-1.733,2.111-3.535,2.467-5.403c0.447-0.372,0.909-0.757,1.379-1.18c-1.613,4.745-3.157,9.292-4.837,14.232
	c3.794-6.289,8.382-12.065,8.03-19.019l105.666-0.42c0.184,0.014,0.367,0.03,0.486-0.002c-0.158,7.169,3.152,14.273-2.769,19.996
	c0.977,1.948,1.925,3.635,2.688,5.398c3.736,8.641,6.25,17.635,7.756,26.923c3.453,21.293-0.867,40.899-12.479,58.988
	c-0.474-0.255-1.2-0.592-2.748-1.229c-3.296-1.363-6.188-1.902-9.763,1.125c-0.677,0.575-1.844,2.346-2.072,3.188
	c-0.516,1.911-1.338,2.672,0.285,2.894c-1.204,1.03-3.059,1.948-3.865,3.437c-0.195,0.36-0.404,0.682-0.621,0.979
	c-5.266-3.585-10.526-7.172-15.788-10.755l-93.753-63.906c0.436-0.532,0.919-1.003,1.38-1.354c0.696-0.525,1.489-0.705,2.251-1.095
	c0.302-0.159,0.612-0.413,0.902-0.467C438.716,260.194,438.716,260.194,438.275,257.742z M508.596,318.124
	c9.527,6.563,19.057,13.127,28.584,19.689c0.725,0.5,1.455,1.001,2.203,1.516c-1.5,1.054-3.328,1.241-5.334,1.146
	c-1.27-0.061-2.561-0.322-3.779-0.694c-5.414-1.657-11.064-2.397-16.098-5.423c-4.311-2.585-8.98-4.67-13.684-6.476
	c-4.777-1.834-9.84-2.402-14.957-1.217c-2.939,0.678-5.641,1.03-8.365-1.217c-3.557-2.933-7.2-5.638-9.453-9.842
	c-1.725-3.22-4.407-5.226-8.255-5.495c-4.564-0.32-8.737-5.611-8.915-8.46c-0.189-3.101-0.893-5.801-3.072-8.081
	c-3.516-3.682-7.004-7.396-10.469-11.13c-0.166-0.178-0.324-0.318-0.482-0.428c-9.691-10.236-19.92-8.712-19.92-8.712
	c-4.595-0.923-8.5-3.048-10.844-7.366c-0.032-0.26-0.083-0.513-0.151-0.765c1.215-1.992,2.471-3.967,3.603-6.008
	c1.122-2.026,2.236-1.734,3.432-0.152c0.376,0.499,0.756,0.995,1.134,1.494c0.015,0.098,0.028,0.196,0.04,0.294
	c1.039,1.287,1.875,2.796,3.032,3.95c0.126,0.124,0.246,0.248,0.365,0.374c0.251,0.351,0.508,0.701,0.756,1.057
	c0.736,1.053,1.497,1.804,2.283,2.305c0.851,0.819,1.807,1.516,3.068,1.977c2.258,0.818,5.078-0.353,5.926-2.603
	c0.158-0.416,0.27-0.847,0.407-1.268c0.163-0.488,0.154-1.014,0.397-1.404c0.035-0.078,0.076-0.156,0.115-0.234L508.596,318.124z
	 M416.54,365.02l9.309,24.306c-2.37-3.577-4.58-6.928-6.538-9.92c-0.005-0.004-0.005-0.012-0.007-0.017
	c-0.004-0.002-0.006-0.002-0.011-0.004c-2.686-4.104-4.893-7.521-6.4-9.934C414.121,367.96,415.337,366.482,416.54,365.02z
	 M411.626,356.802c-1.366-2.022-2.513-4.209-3.614-6.394c-0.226-0.451-0.043-1.484,0.328-1.798c0.484-0.407,0.967-0.814,1.45-1.223
	l5.464,14.271C413.922,359.96,412.715,358.419,411.626,356.802z M411.017,346.361c2.054-1.725,4.143-3.416,6.349-4.929
	c2.536-1.737,4.609-3.728,5.894-6.506c0.734-1.598,1.417-3.22,2.221-5.055c0.62,0.543,1.198,0.951,1.658,1.467
	c3.729,4.14,8.541,4.847,13.729,4.349c2.168-0.209,4.328-0.475,6.496-0.7c0.482-0.051,1.014-0.167,1.449-0.025
	c3.242,1.058,6.57,1.948,9.65,3.372c1.363,0.632,2.604,2.214,3.22,3.656c1.605,3.768,4.454,5.496,8.296,5.494
	c6.003-0.005,11.373,1.679,16.354,5.011c4.219,2.822,9.23,3.497,14.074,3.675c7.476,0.27,14.979-0.334,22.472-0.315
	c3.771,0.01,7.558,0.472,11.307,0.953c0.146,0.019,0.296,0.077,0.452,0.146c0.709-0.02,1.424-0.004,2.143,0.035
	c-0.16,4.783-2.564,8.998-5.93,13.034c-8.783,10.549-19.307,18.811-31.8,24.532c-6.484,2.97-13.101,4.927-19.83,6.028
	c-7.028,1.104-15.491,0.973-22.779,0.688c-1.642-0.148-3.286-0.324-4.935-0.548c-0.727-0.097-1.323-0.095-1.842,0.017
	c-0.376-0.044-0.747-0.084-1.133-0.123c-2.037,4.782-5.906,6.325-10.15,7.496c-2.713-4.047-5.406-8.078-7.988-11.956
	L411.017,346.361z M434.211,282.252l0.47-0.047c-0.062,0.051-0.119,0.11-0.178,0.171
	C434.404,282.334,434.309,282.292,434.211,282.252z M320.991,493.592c9.817,3.937,19.463,7.808,29.315,11.755
	c-0.431,1.505-0.927,3.24-1.482,5.185c-10.648-3.097-20.746-7.092-30.57-12.127C319.272,496.618,320.176,495.021,320.991,493.592z
	 M322.434,490.843c0.914-1.633,1.803-3.224,2.687-4.811c5.615,2.432,11.043,4.848,16.531,7.125c2.888,1.202,5.846,2.27,8.839,3.189
	c1.966,0.606,2.639,1.528,1.749,3.468c-0.328,0.713-0.472,1.512-0.811,2.643C341.29,499.726,331.781,495.632,322.434,490.843z
	 M391.279,506.03c9.629,0.548,19.106,1.085,28.886,1.641l0.129,6.006c-9.959-0.623-19.802-1.233-29.888-1.86
	C390.753,509.513,391.02,507.738,391.279,506.03z M390.01,514.25c10.155,0.633,20.163,1.258,30.44,1.897l0.118,5.41
	c-10.399,0.531-20.623-0.357-31.157-1.553C389.623,517.975,389.818,516.102,390.01,514.25z M430.051,507.588
	c11.136-1.2,22.086-2.38,33.476-3.606c0.342,1.442,0.742,3.127,1.2,5.063c-11.489,2.602-22.863,3.817-34.545,4.103
	c-0.078-1.188-0.172-2.129-0.193-3.073C429.971,509.203,430.028,508.33,430.051,507.588z M486.381,497.45
	c0.005,0.011,0.005,0.023,0.009,0.032c0.208-0.073,0.41-0.146,0.616-0.218c0.039-0.015,0.079-0.023,0.115-0.036
	c0-0.004,0-0.006,0-0.006c1.883-0.675,3.621-1.3,5.455-1.957c0.639,2.102,1.213,3.987,1.783,5.858
	c-1.728,0.605-2.997,1.051-3.928,1.419c-7.27,2.166-15.712,4.523-23.064,6.711c-0.466-2.438-0.791-4.138-1.089-5.692
	C473.252,501.508,479.522,499.482,486.381,497.45z M583.572,371.399c1.99,0.271,3.599,0.474,5.203,0.713
	c0.3,0.046,0.711,0.152,0.837,0.367c1.11,1.878,2.171,3.788,3.394,5.954c-1.256-0.475-2.246-1.026-3.303-1.208
	c-1.02-0.172-2.105,0.039-3.387,0.087C585.545,375.653,584.65,373.726,583.572,371.399z M602.434,416.257
	c-5.346,7.358-10.613,14.614-16.282,22.424c-1.594-2.064-2.72-3.526-3.849-4.993c5.041-6.625,10.379-13.635,15.818-20.778
	C599.417,413.913,600.807,414.992,602.434,416.257z M580.024,436.261c1.117,0.976,2.484,2.163,4.392,3.823
	c-8.49,8.341-16.902,16.606-25.614,25.165c-1.619-2.153-2.728-3.629-3.573-4.756C563.516,452.393,571.689,444.404,580.024,436.261z
	 M586.381,441.976c1.104,0.979,2.42,2.151,3.939,3.502c-7.924,9.468-16.801,17.813-26.49,25.62
	c-1.264-1.527-2.419-2.929-3.334-4.038C569.144,458.677,577.709,450.379,586.381,441.976z M588.252,440.165
	c5.453-7.444,10.715-14.629,16.053-21.918c1.377,1.007,2.705,1.978,4.482,3.277c-5.482,7.536-10.834,14.901-16.305,22.429
	C590.766,442.417,589.525,441.303,588.252,440.165z M608.199,409.744c-1.807-1.311-3.275-2.381-4.746-3.451
	c4.137-7.582,8.207-15.041,12.391-22.708c1.527,0.888,2.969,1.73,4.707,2.74C616.442,394.112,612.375,401.828,608.199,409.744z
	 M618.17,381.74c-0.473-0.424-0.443-1.822-0.162-2.604c2.566-7.159,5.275-14.265,7.857-21.417c0.783-2.17,1.302-4.43,2.035-6.978
	c1.855,0.561,3.436,1.034,5.646,1.701c-3.704,10.595-7.328,20.96-11.06,31.636C620.616,383.114,619.191,382.652,618.17,381.74z
	 M582.7,147.126c-7.437-6.857-14.891-13.732-22.485-20.738c1.039-1.225,2.211-2.604,3.574-4.213
	c8.315,6.247,15.48,13.618,22.805,21.3C585.125,144.851,583.893,146.009,582.7,147.126z M588.174,145.251
	c7.994,7.894,14.694,16.831,21.045,26.419c-1.338,1.151-2.707,2.336-4.045,3.491c-6.827-8.7-13.617-17.353-20.463-26.078
	C585.808,147.871,586.934,146.626,588.174,145.251z M580.51,149.138c-1.43,1.347-2.813,2.643-4.207,3.955
	c-7.076-6.747-14.123-13.46-21.26-20.267c1.061-1.31,2.066-2.561,3.234-4.011C566.342,134.842,573.681,141.658,580.51,149.138z
	 M582.602,150.493c6.971,8.981,13.752,17.712,20.574,26.503c-1.814,1.584-3.256,2.843-4.577,3.993
	c-6.808-8.7-13.544-17.307-20.216-25.828C579.515,153.907,580.81,152.475,582.602,150.493z M607.77,185.523
	c4.594,8.031,9.127,15.958,13.711,23.968c-1.926,1.104-3.584,2.055-5.139,2.945c-4.436-7.6-8.808-15.088-13.235-22.679
	C604.549,188.449,606.021,187.113,607.77,185.523z M637.164,245.503c-0.535-2.811,0.033-4.024,2.611-4.645
	c0.595-0.144,1.142-0.486,1.949-0.843c3.902,15.103,6.355,30.259,6.773,45.906h-5.637c-0.193-3.153-0.152-6.376-0.627-9.526
	C640.68,266.077,639.111,255.755,637.164,245.503z M640.258,286.264h-4.692c-2.073-13.66-4.126-27.173-6.229-41.051
	c1.275-0.519,2.891-1.175,4.669-1.896C637.741,257.407,639.896,271.587,640.258,286.264z M639.505,237.885
	c-1.13,0.693-2.464,1.058-3.596,1.51c-3.636-9.653-7.218-19.159-10.847-28.81c1.751-0.926,3.281-1.734,5.326-2.815
	c3.406,9.475,6.789,18.803,10.064,28.169C640.625,236.44,640.041,237.553,639.505,237.885z M623.879,208.311
	c-4.753-8.259-9.496-16.5-14.236-24.743c1.412-1.275,2.769-2.498,4.484-4.049c4.931,8.654,9.77,17.15,14.722,25.841
	C627.052,206.425,625.548,207.32,623.879,208.311z M622.6,212.09c1.557,3.785,3.201,7.473,4.597,11.25
	c1.864,5.031,3.455,10.16,5.337,15.184c0.65,1.73,0.293,2.487-1.414,2.921c-1.074,0.277-2.102,0.747-3.024,1.082
	c-3.563-9.146-7.075-18.164-10.685-27.427C619.035,214.159,620.621,213.238,622.6,212.09z M629.529,344.675
	c3.956-19.205,5.082-27.742,5.18-47.887h5.564c-0.016,17.828-1.66,35.476-6.273,52.975c-0.882-0.276-1.406-0.427-1.918-0.604
	C628.853,348.031,628.842,348.027,629.529,344.675z M635.916,353.325c1.443,0.445,2.874,0.888,4.63,1.432
	c-2.687,11.366-6.829,22.09-11.499,32.917c-1.621-0.738-2.973-1.354-4.473-2.036C628.332,374.928,632.068,364.279,635.916,353.325z
	 M639.17,351.537c-0.767-0.215-1.519-0.473-2.674-0.836c0.578-2.5,1.208-5.015,1.735-7.553c2.843-13.755,4.46-27.641,4.501-41.699
	c0.014-5.282,0.057-5.282,5.77-4.733c-0.004,18.78-1.967,37.168-6.979,55.403C640.658,351.907,639.908,351.744,639.17,351.537z
	 M648.607,234.115c-1.999,0.913-3.558,1.625-4.913,2.247c-3.751-9.989-7.458-19.874-11.241-29.949
	c1.508-0.792,2.907-1.529,4.887-2.571C641.098,213.942,644.813,223.916,648.607,234.115z M620.524,174.389
	c5.175,9.09,10.231,17.968,15.385,27.01c-2.01,1.095-3.458,1.884-4.848,2.643c-4.958-8.659-9.847-17.203-14.853-25.946
	C617.362,177.106,618.674,175.977,620.524,174.389z M615.92,166.49c-1.756,1.466-3.037,2.535-4.166,3.48
	c-7.09-8.963-14.121-17.848-21.232-26.834c0.978-1.021,2.232-2.331,3.971-4.151C601.699,148.235,608.791,157.336,615.92,166.49z
	 M592.509,137.165c-1.721,1.714-2.969,2.957-4.112,4.096c-7.449-7.061-14.922-14.141-22.57-21.388
	c1.064-1.211,2.204-2.512,3.678-4.195C577.29,122.95,584.873,130.037,592.509,137.165z M541.238,96.098
	c8.934,6.053,17.672,11.976,26.459,17.93c-1.549,1.759-2.721,3.083-3.818,4.327c-8.459-5.792-16.916-11.583-25.677-17.585
	C538.996,99.548,539.93,98.112,541.238,96.098z M537.061,103.063c8.38,5.761,16.566,11.392,24.973,17.172
	c-1.537,1.862-2.736,3.318-3.788,4.592c-8.196-5.557-16.227-10.997-24.481-16.593C534.705,106.758,535.721,105.164,537.061,103.063z
	 M556.479,126.85c-1.563,1.828-2.604,3.052-3.578,4.191c-7.872-5.307-15.651-10.549-23.606-15.907
	c0.925-1.327,1.869-2.688,3.21-4.623C540.525,115.974,548.397,121.341,556.479,126.85z M500.5,78.248
	c10.978,3.442,21.32,7.887,31.273,13.25c-2.041,4.853-1.961,4.675-6.408,2.705c-7.852-3.476-15.807-6.715-23.723-10.041
	c-0.865-0.365-1.754-0.672-2.787-1.063C499.43,81.402,499.934,79.917,500.5,78.248z M496.162,90.686
	c0.461-1.492,0.994-3.216,1.594-5.149c10.58,3.326,20.583,7.543,30.299,12.793c-1.057,1.765-1.998,3.337-2.842,4.75
	C515.482,98.928,505.924,94.85,496.162,90.686z M523.709,105.799c-0.947,1.612-1.87,3.182-2.791,4.75
	c-5.56-2.552-10.934-5.087-16.368-7.486c-2.864-1.265-5.799-2.394-8.767-3.38c-1.955-0.649-2.607-1.587-1.672-3.504
	c0.342-0.707,0.5-1.5,0.864-2.628C505.055,96.504,514.471,100.806,523.709,105.799z M460.804,69.488
	c0.075-0.396,0.237-0.773,0.468-1.496c12.557,1.671,24.67,5.18,36.842,9.196c-0.373,1.206-0.676,2.271-1.031,3.316
	c-0.178,0.517-0.459,1-0.656,1.425c-7.679-2.086-15.229-4.199-22.813-6.171c-3.337-0.869-6.745-1.463-10.121-2.171
	C460.316,72.925,460.176,72.725,460.804,69.488z M459.249,80.199c0.22-1.418,0.479-2.83,0.768-4.511
	c12.262,1.441,23.823,5.181,35.405,8.68c0.03,0.262,0.098,0.434,0.059,0.571c-1.521,5.371-1.468,5.172-6.877,3.671
	c-9.629-2.671-19.334-5.074-29.361-7.681C459.242,80.99,459.191,80.585,459.249,80.199z M492.761,92.524
	c-0.728,1.921-1.315,3.479-1.843,4.862c-11.125-2.796-22.041-5.538-33.074-8.311c0.244-1.537,0.508-3.17,0.789-4.935
	C470.445,85.619,481.578,88.849,492.761,92.524z M426.306,64.471c10.676,0.853,21.212,1.695,32.146,2.568
	c-0.227,2.161-0.393,3.732-0.573,5.47c-10.63-0.858-21.034-1.694-31.572-2.541V64.471z M426.27,72.946
	c10.408-0.303,20.61,0.81,31.115,2.23c-0.256,2.028-0.491,3.897-0.726,5.743c-10.136-0.854-20.126-1.697-30.39-2.56V72.946z
	 M456.209,83.345c-0.396,2.295-0.699,4.064-0.995,5.764c-9.618-0.757-19.077-1.501-28.847-2.271V80.83
	C436.318,81.669,446.14,82.497,456.209,83.345z M460.529,96.892c26.613,4.761,51.283,14.703,73.851,29.656
	c19.16,12.695,35.587,28.345,49.56,46.577c16.211,21.153,28.732,44.276,37.104,69.596c1.196,3.629,2.03,7.382,3.062,11.182
	c-1.639,0.431-2.826,0.743-3.781,0.993c1.516,1.57,3.482,2.839,4.301,4.635c1.035,2.278,1.16,4.976,1.631,7.502
	c0.205,1.124,0.396,2.249,0.587,3.376c0,0,4.255,19.319-0.137,55.014c-0.005,0-0.005,0.002-0.005,0.002
	c-0.15,1.499-0.354,2.996-0.623,4.472c-0.793,4.327-0.938,9.104-6.105,11.049c-0.058,0.022-0.082,0.125-0.177,0.275
	c0.317,0.412,0.593,0.933,1.01,1.284c2.096,1.745,2.333,3.847,1.466,6.307c-2.721,7.727-4.885,15.689-8.158,23.169
	c-2.344,5.352-4.875,10.557-7.587,15.618c-3.091-3.97-6.087-7.818-9.229-11.854c1.028-0.002,1.525-0.004,1.821-0.004
	c-1.67-2.872-3.293-5.663-4.944-8.502c-0.242,0.46-0.419,0.786-0.542,1.024c-1.092-2.613-2.152-5.153-3.27-7.823
	c-2.453,2.041-3.099,4.202-2.254,6.654c-3.77,1.785-7.094,0.161-10.293-0.884l-4.631-3.412c-0.161-0.341-0.33-0.684-0.508-1.052
	c1.489,0.525,2.791,1.061,4.141,1.444c2.752,0.78,5.405-0.259,6.433-2.87c1.437-3.653,2.543-7.436,4.003-11.796
	c-1.016,0.854-1.514,1.16-1.868,1.588c-1.648,1.99-3.267,4.002-4.88,6.023c-2.329,2.931-4.932,3.891-7.78,2.498
	c-3.434-1.679-6.222-3.887-7.972-6.905c0.641-0.103,1.246-0.215,1.837-0.376c2.089-0.57,2.513-2.386,0.999-3.876
	c-0.596-0.583-1.14-1.219-1.705-1.831c0.104-0.184,0.205-0.365,0.309-0.548c0.877,0.178,1.771,0.293,2.629,0.537
	c1.594,0.452,2.583-0.094,3.271-1.586c0.688-1.503,0.148-2.364-1.133-3.153c-0.826-0.51-1.492-1.276-2.17-1.871
	c0.662-0.639,1.319-1.001,1.972-1.183c0.61-0.803,1.028-1.869,0.941-2.839c-0.038-0.497-0.169-0.782-0.356-1.074
	c3.264-6.663,6.213-13.413,6.959-20.678c2.342-0.652,4.509-1.257,6.73-1.88c1.268-22.644-3.008-46.861-11.911-68.848
	c-0.311-0.771-0.112-2.066,0.356-2.785c2.736-4.188,5.625-8.281,8.5-12.459c-0.697-0.699-1.256-1.282-1.834-1.836
	c-4.127-3.967-6.546-8.7-6.605-14.526c-0.061-6.135,3.445-11.843,8.486-13.727c4.341-1.625,8.99,0.399,10.014,4.356
	c0.762,2.954-1.106,4.878-4.05,4.195c-0.444-0.104-0.915-0.074-1.875-0.144c0.4,1.133,0.521,2.098,1.021,2.78
	c1.977,2.669,5.953,2.818,8.226,0.285c2.069-2.311,2.986-4.786,2.795-7.437l0,0c0,0,0-0.008-0.004-0.022
	c-0.067-0.905-0.263-1.83-0.592-2.777l-0.032-0.024c-1.29-4.05-5.102-10.744-16.014-8.077l0,0c-1.09,0.196-2.139,0.458-3.087,0.919
	c-5.899,2.863-11.61,6.117-16.586,8.79c0.526,4.881,1.038,9.579,1.554,14.365l-105.328,0.981c-0.178-1.275-0.52-2.589-1.071-3.957
	c1.846,1.109,3.818,2.291,5.558,3.333c-1.789-2.362-3.563-4.758-5.402-7.104l-1.717-3.095c0.612-5.735-6.992-15.359-12.099-15.479
	c0.568,0.99,1.104,1.921,1.64,2.853c-1.86-1.602-3.443-3.383-5.123-5.076c-0.459-0.46-1.197-0.849-1.828-0.883
	c-0.621-0.032-1.267,0.431-2.143,0.771c-0.015,0.072-0.111,0.606-0.242,1.345c-1.89-6.551-6.045-10.613-13.676-13.523
	c3.695,4.165,3.997,4.695,3.875,6.794c-6.989-8.389-13.094-10.708-16.25-6.39c1.545,0.181,3.188,0.375,4.832,0.565
	c-4.758,0.477-6.136,0.742-7.204,2.116c-0.007,0.004-3.151,1.73-4.306,4.292c-0.268-0.225-0.552-0.427-0.873-0.563
	c3.61-3.725,3.858-8.245,0.646-11.757c-2.354-2.573-6.997-2.921-9.692-0.729c-3.265,2.651-3.102,6.779,0.45,11.464
	c-3.627-1.159-5.402-4.807-4.46-8.789c0.646-2.73,1.035-5.518,1.417-7.632c0.138,1.024,0.376,2.849,0.613,4.681
	c2.81-1.599,3.058-3.839,2.214-6.64c-1.313-4.344-3.627-8.083-6.714-11.275c-3.737-3.862-8.07-4.295-12.689-1.457
	c-4.664,2.867-7.068,7.305-7.271,12.631c-0.137,3.711,0.587,7.453,0.926,11.182c-0.523-0.541-1.197-0.999-1.543-1.636
	c-1.828-3.346-1.562-7.016-1.41-10.628c0.144-3.44,1.406-6.47,3.501-9.266c1.922-2.565,4.335-4.354,6.957-5.826
	c-1.767,0.309-3.137,1.151-4.781,1.952c-0.83,0.403-1.635,0.875-2.438,1.355c-0.065,0.063-0.129,0.124-0.19,0.187
	c-0.404,0.397-0.784,0.835-1.245,1.153c-4.8,3.3-5.95,8.095-4.865,13.363c0.682,3.302,2.307,6.409,3.512,9.603
	c-4.381-4.522-6.434-9.831-5.489-16.169c0.191-1.282,0.685-2.72-1.341-3.483c-3.159,7.76-1.349,14.77,3.364,21.926
	c-1.088-0.38-1.518-0.471-1.886-0.672c-0.357-0.194-0.649-0.505-1.028-0.811c-1.048,2.854-1.039,2.847,0.422,5.394
	c0.173,0.304,0.112,0.747,0.161,1.127c-0.606-0.431-1.211-0.858-2.019-1.431c0.102,0.588,0.112,0.983,0.234,1.335
	c1.038,2.989,3.689,4.449,5.997,6.196c4.414,3.333,9.405,4.14,14.762,3.077c-0.369,0.178-0.741,0.356-1.109,0.534
	c2.063-0.176,4.094-0.551,6.084-1.107l-0.003,0.003c0,0,2.855-0.744,5.724-1.669c-3.336,4.17-6.229,8.169-10.654,11.26
	c2.446,0.569,2.116,1.412,0.92,2.09c-0.657-0.11-1.523-0.2-1.833,0.172c-0.688,0.832-1.315,1.838-1.58,2.874
	c-0.418,1.625,0.062,3.89-0.886,4.879c-1.522,1.582-1.086,2.263,0.295,3.087c-0.357,0.595-0.613,1.022-0.861,1.435
	c0.097,0.028,0.188,0.052,0.278,0.079l-0.613,1.592c0.072,0.378,0.155,0.752,0.24,1.125l-4.179,0.04
	c0.124-1.049-0.155-2.112-1.201-2.981c-1.405-1.176-2.805-2.351-4.207-3.528c1.139,0.365,2.495,0.551,3.451,0.15
	c0.75-0.321,1.411-2.215,1.172-3.173c-0.308-1.252-1.439-2.375-2.406-3.371c-1.078-1.117-2.352-2.042-3.548-3.043
	c-0.008-0.034-0.016-0.064-0.022-0.096c-0.02,0.01-0.033,0.018-0.051,0.026c-0.417-0.437-0.847-0.803-1.301-1.081l0,0
	c-0.376-0.233-0.768-0.407-1.19-0.509c-2.965-1.186-6.751-2.171-6.762-2.173c-1.728-0.73-3.458-1.453-5.035-2.426
	c-2.553-1.572-4.828-1.774-7.273,0.01c-0.49,0.358-1.316,0.785-1.746,0.607c-2.116-0.889-3.757,0.27-5.445,1.095
	c-2.248,1.098-4.53,1.402-6.732,0.22c-5.158-2.758-10.214-5.704-15.356-8.484c-3.731-2.021-7.371-4.511-11.376-5.643
	c-3.04-0.859-5.431-2.102-7.613-4.179c-1.222-1.161-2.542-2.224-3.88-3.255c-0.411-0.317-1.006-0.483-1.536-0.549
	c-1.604-0.203-3.224-0.272-4.827-0.485c-2.141-0.286-4.279-0.99-6.4-0.919c-4.995,0.164-9.997,0.499-14.952,1.108
	c-1.564,0.189-3.13,0.426-4.688,0.703c9.316-11.738,19.824-22.577,31.443-32.573c4.328-3.808,14.745-11.364,15.416-11.85
	c30.39-20.492,63.286-33.766,100.357-35.659C423.154,93.184,441.942,93.569,460.529,96.892z M316.883,104.528
	c-0.907-1.363-1.968-2.947-3.342-5.004c9.719-4.495,19.326-8.937,29.163-13.487c0.811,2.35,1.356,3.927,1.899,5.504
	C335.428,95.842,326.246,100.141,316.883,104.528z M345.665,93.721c0.747,2.274,1.287,3.923,1.785,5.434
	c-8.626,3.983-17.197,7.942-26.022,12.018c-0.931-1.403-1.899-2.863-3.136-4.729C327.461,102.181,336.444,98.007,345.665,93.721z
	 M348.074,92.756c10.476-2.868,20.667-5.662,31.14-8.532c0.415,2.447,0.699,4.155,0.964,5.715
	c-10.087,2.732-19.961,5.409-30.023,8.133C349.6,96.656,348.972,95.05,348.074,92.756z M381.849,84.49
	c11.545-2.349,22.939-3.314,34.624-3.346c0.055,1.188,0.126,2.132,0.126,3.078c0.004,0.869-0.076,1.74-0.116,2.483
	c-11.157,0.955-22.134,1.895-33.545,2.874C382.628,88.131,382.265,86.438,381.849,84.49z M416.804,78.507
	c-4.759,0.254-9.423,0.366-14.057,0.792c-6.09,0.561-12.193,1.191-18.225,2.167c-2.421,0.392-3.51,0.076-3.601-2.45
	c-0.031-0.933-0.279-1.861-0.449-2.911c12.098-2.312,24.071-3.518,36.332-3.653V78.507z M416.754,64.896v5.025
	c-3.365,0.212-6.646,0.319-9.911,0.647c-8.088,0.811-16.181,1.62-24.244,2.667c-2.063,0.266-3.105,0.176-3.047-2.157
	c0.018-0.696-0.285-1.401-0.51-2.407C391.485,65.911,404.013,65.143,416.754,64.896z M378.543,80.844
	c0.006,0.571-0.613,1.542-1.122,1.676c-10.015,2.632-20.058,5.168-30.364,7.793c-0.433-1.115-1.06-2.735-1.764-4.558
	c10.523-4.279,21.262-7.33,32.579-9.289C378.157,78.166,378.524,79.502,378.543,80.844z M376.437,68.992
	c0.208,0.984,0.421,1.823,0.559,2.675c0.125,0.771,0.168,1.558,0.205,1.921c-11.114,3.141-21.958,6.204-33.022,9.329
	c-0.516-1.221-1.131-2.679-1.846-4.373C353.379,74.034,364.698,71.035,376.437,68.992z M339.729,79.348
	c0.643,1.551,1.277,3.078,1.883,4.539c-9.748,4.519-19.438,9.009-29.492,13.67c-0.793-1.189-1.684-2.515-2.73-4.078
	C319.015,87.668,329.174,83.251,339.729,79.348z M304.902,103.451c1.337,2.102,2.382,3.749,3.273,5.149
	c-8.882,6.409-17.605,12.703-26.415,19.062c-0.95-1.231-2.006-2.603-3.447-4.47C287.172,116.613,295.889,110.141,304.902,103.451z
	 M300.591,97.763c0.948,1.452,1.814,2.778,2.56,3.926c-8.811,6.515-17.601,13.015-26.606,19.674c-0.883-1.005-1.832-2.084-2.989-3.4
	C281.933,110.26,290.898,103.578,300.591,97.763z M270.004,120.923c-0.007-0.003-0.015-0.009-0.019-0.015
	c0.544-0.443,1.079-0.876,1.576-1.289c1.128,1.312,2.073,2.409,2.56,2.977c-1.738,1.723-3.463,3.429-5.194,5.143c0,0,0,0,0,0.002
	c-8.419,8.426-14.225,14.069-22.938,22.785c-1.028-0.833-2.374-1.916-3.772-3.047C250.187,137.827,260.255,128.924,270.004,120.923z
	 M240.177,149.302c1.742,1.439,3.033,2.503,4.183,3.452c-5.244,7.418-10.479,14.826-15.918,22.519
	c-1.222-0.815-2.704-1.805-4.63-3.085C229.362,164.424,234.724,156.927,240.177,149.302z M217.756,179.194
	c1.764,1.186,3.126,2.1,4.541,3.05c-4.136,8.485-8.221,16.876-12.361,25.368c-1.46-0.797-2.993-1.63-5.006-2.722
	C209.209,196.313,213.434,187.854,217.756,179.194z M203.877,208.02c0.486-0.105,0.663-0.208,0.779-0.158
	c4.171,1.742,4.02,1.692,2.604,5.913c-3.033,9.02-5.95,18.082-8.782,27.17c-0.603,1.94-1.265,2.979-3.408,2.044
	c-0.725-0.316-1.51-0.481-2.542-0.797C195.218,230.319,199.106,218.935,203.877,208.02z M185.232,295.084
	c0.246-15.885,1.837-31.614,5.662-47.073c0.826-3.34,2.009-3.891,4.959-1.99c0.46,0.298,0.623,1.485,0.505,2.194
	c-1.151,6.79-2.817,13.523-3.501,20.354c-0.996,9.923-1.317,19.914-1.887,29.878c-0.079,1.428,0.046,2.867,0.08,4.338
	c-0.614,0.174-0.988,0.356-1.366,0.373c-1.36,0.064-2.72,0.072-4.285,0.107C185.338,300.516,185.19,297.799,185.232,295.084z
	 M185.676,313.643l5.588-0.119c0.504,15.821,3.659,31.119,7.731,46.587c-1.563,0.7-3.127,1.407-5.014,2.256
	C189.489,346.351,186.675,330.301,185.676,313.643z M194.764,365.286c1.976-0.957,3.52-1.703,4.861-2.354
	c3.966,9.905,7.891,19.703,11.89,29.697c-1.489,0.826-2.871,1.595-4.826,2.678C202.713,385.288,198.781,375.4,194.764,365.286z
	 M224.144,424.383c-5.373-8.973-10.62-17.738-15.968-26.665c1.983-1.143,3.415-1.961,4.784-2.749
	c5.146,8.549,10.221,16.979,15.418,25.615C227.245,421.602,225.958,422.754,224.144,424.383z M228.917,432.182
	c1.725-1.505,2.984-2.603,4.093-3.57c7.284,8.807,14.505,17.533,21.811,26.365c-0.952,1.041-2.178,2.381-3.876,4.233
	C243.538,450.12,236.25,441.177,228.917,432.182z M252.968,460.988c1.683-1.754,2.903-3.021,4.02-4.185
	c7.602,6.896,15.229,13.81,23.03,20.886c-1.036,1.235-2.145,2.561-3.581,4.275C268.488,474.863,260.753,467.947,252.968,460.988z
	 M305.12,500.923c-9.061-5.857-17.929-11.587-26.843-17.349c1.515-1.79,2.653-3.14,3.726-4.409
	c8.586,5.608,17.165,11.212,26.054,17.019C307.284,497.428,306.386,498.881,305.12,500.923z M309.149,493.869
	c-8.507-5.577-16.812-11.026-25.343-16.623c1.496-1.896,2.665-3.378,3.684-4.672c8.32,5.376,16.463,10.639,24.84,16.051
	C311.421,490.124,310.439,491.739,309.149,493.869z M289.214,470.511c1.522-1.862,2.536-3.104,3.483-4.267
	c7.989,5.132,15.878,10.205,23.95,15.386c-0.894,1.347-1.812,2.73-3.11,4.691C305.402,481.034,297.414,475.842,289.214,470.511z
	 M346.242,517.881c-11.053-3.203-21.49-7.421-31.559-12.568c1.934-4.894,1.86-4.714,6.352-2.839
	c7.923,3.302,15.946,6.366,23.931,9.517c0.876,0.347,1.774,0.633,2.813,1.005C347.241,514.701,346.773,516.2,346.242,517.881z
	 M386.119,525.771c-0.068,0.396-0.22,0.777-0.436,1.503c-12.59-1.395-24.778-4.641-37.032-8.387
	c0.342-1.213,0.624-2.285,0.959-3.339c0.165-0.521,0.432-1.01,0.624-1.438c7.72,1.919,15.314,3.865,22.941,5.672
	c3.354,0.796,6.773,1.316,10.167,1.946C386.531,522.325,386.677,522.52,386.119,525.771z M387.439,515.029
	c-0.191,1.42-0.418,2.837-0.67,4.524c-12.287-1.175-23.927-4.66-35.586-7.902c-0.038-0.26-0.109-0.433-0.073-0.57
	c1.407-5.402,1.357-5.201,6.797-3.821c9.686,2.46,19.439,4.648,29.525,7.038C387.432,514.237,387.489,514.641,387.439,515.029z
	 M353.663,503.438c0.689-1.938,1.245-3.51,1.739-4.902c11.183,2.553,22.157,5.055,33.249,7.585
	c-0.213,1.542-0.436,3.182-0.682,4.952C376.125,509.852,364.922,506.868,353.663,503.438z M388.524,528.168
	c0.176-2.168,0.31-3.742,0.455-5.483c10.645,0.625,21.064,1.235,31.619,1.853l0.12,5.494
	C410.028,529.412,399.473,528.802,388.524,528.168z M429.909,515.79c4.753-0.357,9.411-0.568,14.036-1.099
	c6.08-0.694,12.162-1.458,18.178-2.563c2.408-0.445,3.506-0.154,3.65,2.37c0.049,0.935,0.32,1.854,0.512,2.9
	c-12.041,2.577-23.984,4.043-36.242,4.444L429.909,515.79z M430.258,529.396l-0.107-5.023c3.356-0.286,6.636-0.464,9.889-0.863
	c8.07-0.987,16.145-1.972,24.184-3.194c2.056-0.31,3.1-0.243,3.094,2.09c-0.004,0.7,0.314,1.396,0.559,2.396
	C455.499,527.832,442.988,528.873,430.258,529.396z M468.109,512.619c-0.019-0.572,0.58-1.558,1.086-1.699
	c6.57-1.884,12.188-3.352,18.763-5.168c0,0.013,0.003,0.023,0.003,0.035c0.307-0.098,0.617-0.194,0.928-0.294
	c0,0,0-0.001,0.004-0.001c2.195-0.693,4.398-1.392,6.74-2.132c0.498,1.382,1.107,2.551,1.283,3.777
	c0.09,0.606-0.502,1.807-0.984,1.926c-2.441,0.604-17.751,5.519-20.249,6.43c-2.247,0.54-4.511,1.039-6.806,1.487
	C468.557,515.287,468.156,513.961,468.109,512.619z M492.065,518.55c-8.129,2.91-13.048,4.193-21.589,5.872
	c-0.233-0.982-0.459-1.813-0.618-2.659c-0.14-0.771-0.202-1.556-0.249-1.917c7.775-2.381,15.412-4.723,23.091-7.074
	c1.942-0.484,3.888-0.968,5.846-1.457c0.122,0.304,0.472,1.077,0.747,1.875c0.285,0.822,0.492,1.669,0.811,2.778
	C497.436,516.892,494.756,517.747,492.065,518.55z M497.998,502.562c9.326-4.204,18.629-8.399,28.128-12.683
	c0.802,1.52,1.688,3.205,2.907,5.521c-9.625,4.21-19.082,8.351-28.814,12.605C499.342,505.858,498.688,504.251,497.998,502.562z
	 M502.848,514.988c-0.664-1.748-1.24-3.285-1.777-4.706c9.711-4.235,19.265-8.404,29.072-12.684c0.65,1.295,1.379,2.756,2.196,4.395
	C522.973,507.366,513.195,511.38,502.848,514.988z M529.852,477.713c7.81-5.26,15.513-10.44,23.26-15.652
	c0.931,1.303,1.951,2.734,3.299,4.627c-7.718,5.304-15.422,10.603-23.48,16.138C531.626,480.66,530.724,479.159,529.852,477.713z
	 M538.527,488.946c-0.486,0.255-1.678-0.075-2.056-0.533c-0.851-1.036-1.399-2.322-2.026-3.43
	c8.012-5.559,15.81-10.965,23.804-16.509c1.032,1.307,2.163,2.734,3.43,4.331C554.406,478.888,546.914,484.559,538.527,488.946z
	 M541.654,496.68c-0.956-1.522-1.884-2.996-2.717-4.33c8.303-5.768,16.408-11.405,24.652-17.135c0.889,1.023,1.93,2.222,3.161,3.641
	C559.021,485.719,550.71,491.549,541.654,496.68z M568.776,477.403c-1.162-1.422-2.214-2.712-3.108-3.805
	c8.955-8.573,17.83-17.077,27.031-25.895c1.013,0.854,2.333,1.967,3.707,3.127C588.025,460.541,578.996,469.474,568.776,477.403z
	 M598.488,449.056c-1.715-1.476-2.98-2.568-4.108-3.543c5.405-7.304,10.802-14.592,16.403-22.165
	c1.207,0.842,2.667,1.862,4.566,3.188C609.627,434.174,604.105,441.552,598.488,449.056z M614.873,414.894
	c-1.893-1.4-3.233-2.396-4.629-3.431c4.15-7.906,8.323-15.852,12.52-23.85c1.507,0.803,2.889,1.547,4.894,2.619
	C623.369,398.502,619.137,406.674,614.873,414.894z M621.552,419.662c-1.733-1.226-3.078-2.172-4.47-3.152
	c4.319-8.392,8.589-16.69,12.908-25.09c1.446,0.827,2.962,1.693,4.949,2.83C630.471,402.729,626.064,411.098,621.552,419.662z
	 M636.061,391.146c-0.486,0.093-0.668,0.19-0.783,0.143c-4.133-1.834-3.98-1.781-2.473-5.971c3.23-8.951,6.343-17.946,9.373-26.97
	c0.644-1.931,1.329-2.953,3.449-1.971c0.719,0.332,1.5,0.514,2.525,0.854C645.202,369.041,641.069,380.338,636.061,391.146z
	 M656.602,304.509c-0.594,15.878-2.528,31.569-6.69,46.94c-0.897,3.318-2.091,3.845-4.998,1.88
	c-0.457-0.308-0.595-1.503-0.457-2.205c1.298-6.763,3.112-13.457,3.944-20.273c1.213-9.897,1.748-19.881,2.539-29.829
	c0.111-1.426,0.014-2.867,0.014-4.34c0.621-0.16,0.996-0.334,1.379-0.344c1.355-0.034,2.718-0.012,4.282-0.012
	C656.614,299.074,656.701,301.795,656.602,304.509z M396.17,156.567c0.248,0.086,0.494,0.172,0.743,0.256
	c-0.61,2.884-1.22,5.767-1.929,9.137c-1.087-3.529-1.757-6.392-2.856-9.08c-1.079-2.63-2.602-5.078-3.928-7.612
	c2.268,0.014,2.268,0.014,5.704,8.504C394.666,157.368,395.416,156.968,396.17,156.567z"/>
</svg>
