<?xml version="1.0" encoding="utf-8"?>
<svg viewBox="0 0 64 80" x="0px" y="0px" xmlns="http://www.w3.org/2000/svg">
  <path d="M 60.697 26.055 C 60.631 25.409 60.564 24.752 60.464 24.106 C 60.075 24.401 59.675 24.672 59.297 24.99 C 59.776 25.329 60.231 25.693 60.697 26.055 Z" style=""/>
  <path d="M 60.875 29.07 C 59.786 28.163 58.686 27.29 57.531 26.486 C 56.975 26.985 56.42 27.505 55.842 28.084 C 57.587 29.285 59.242 30.6 60.82 32.004 C 60.865 31.279 60.897 30.554 60.897 29.828 C 60.897 29.579 60.875 29.319 60.875 29.07 Z" style=""/>
  <path d="M 50.953 26.667 C 50.087 27.619 49.264 28.594 48.464 29.579 C 49.086 30.033 49.698 30.497 50.276 30.962 C 51.275 29.716 52.287 28.526 53.309 27.461 C 54.508 26.203 55.642 25.137 56.753 24.185 C 57.808 23.267 58.909 22.417 60.02 21.636 C 59.875 20.977 59.742 20.332 59.564 19.685 L 59.453 19.277 C 57.664 20.479 55.908 21.851 54.231 23.403 C 53.131 24.389 52.042 25.488 50.953 26.678 L 50.953 26.667 Z" style=""/>
  <path d="M 51.586 22.802 C 44.986 19.289 38.965 17.793 35.343 17.159 L 35.343 17.272 C 35.343 18.02 35.387 18.768 35.454 19.504 C 38.787 20.139 44.098 21.533 49.92 24.514 C 50.476 23.925 51.042 23.358 51.598 22.814 L 51.586 22.802 Z" style=""/>
  <path d="M 47.975 37.943 C 43.976 44.12 41.864 49.457 41.775 49.696 C 41.487 50.455 40.932 51.067 40.243 51.441 C 40.231 51.577 40.221 51.725 40.199 51.86 L 39.887 54.365 C 39.809 54.954 39.776 55.555 39.776 56.144 L 39.776 62.536 C 39.776 63.703 40.009 64.87 40.465 65.947 L 40.91 67.002 C 42.242 70.186 45.309 72.248 48.709 72.248 C 52.598 72.248 55.997 69.54 56.942 65.686 L 57.309 64.213 C 57.476 63.522 57.565 62.819 57.565 62.117 L 57.565 54.83 C 57.565 54.353 57.587 53.877 57.63 53.401 L 57.864 50.999 C 57.864 50.999 57.842 50.965 57.842 50.954 C 57.797 50.851 54.787 44.142 47.975 37.943 Z" style=""/>
  <path d="M 48.342 26.248 C 43.365 23.778 38.853 22.519 35.787 21.885 C 35.865 22.303 35.943 22.735 36.042 23.153 C 40.054 24.491 43.565 26.293 46.631 28.299 C 47.187 27.608 47.754 26.928 48.353 26.248 L 48.342 26.248 Z" style=""/>
  <path d="M 58.697 17.067 C 57.253 13.532 54.686 10.563 51.364 8.692 C 48.864 7.276 46.053 6.54 43.198 6.54 L 42.442 6.54 C 40.754 6.54 39.154 7.322 38.109 8.67 C 36.687 10.483 35.787 12.637 35.476 14.903 C 39.398 15.572 46.087 17.215 53.331 21.204 C 55.064 19.663 56.853 18.281 58.697 17.079 L 58.697 17.067 Z" style=""/>
  <path d="M 51.986 32.412 C 55.075 35.144 57.498 37.988 59.342 40.505 C 59.408 40.244 59.475 39.972 59.542 39.712 C 59.998 38.102 60.331 36.47 60.553 34.815 C 58.598 32.957 56.498 31.257 54.275 29.75 C 53.509 30.588 52.742 31.484 51.986 32.424 L 51.986 32.412 Z" style=""/>
  <path d="M 46.275 36.47 C 45.698 35.994 45.098 35.53 44.465 35.076 C 42.82 37.58 41.487 39.961 40.443 41.978 C 40.554 43.61 40.599 45.253 40.554 46.885 C 41.565 44.63 43.476 40.765 46.275 36.47 Z" style=""/>
  <path d="M 40.031 38.068 C 40.799 36.72 41.664 35.291 42.632 33.807 C 41.398 33.002 40.054 32.254 38.643 31.562 C 39.243 33.694 39.71 35.87 40.031 38.068 Z" style=""/>
  <path d="M 49.798 33.467 C 49.798 33.467 49.765 33.444 49.743 33.433 C 49.72 33.421 49.72 33.399 49.698 33.388 C 46.253 30.487 41.998 27.778 36.843 25.84 L 37.754 28.628 C 40.354 29.75 42.687 31.076 44.786 32.526 C 44.786 32.526 44.809 32.526 44.809 32.537 C 44.809 32.537 44.809 32.549 44.831 32.56 C 51.831 37.389 56.131 43.451 58.253 47.021 L 58.353 45.99 C 58.43 45.14 58.553 44.301 58.697 43.473 C 56.742 40.55 53.831 36.889 49.787 33.467 L 49.798 33.467 Z" style=""/>
  <path d="M 3.155 24.106 C 3.055 24.752 2.989 25.398 2.922 26.055 C 3.389 25.693 3.844 25.329 4.322 24.99 C 3.933 24.684 3.544 24.401 3.155 24.106 Z" style=""/>
  <path d="M 6.089 26.486 C 4.944 27.302 3.833 28.174 2.744 29.07 C 2.744 29.319 2.722 29.579 2.722 29.828 C 2.722 30.554 2.755 31.279 2.799 32.004 C 4.377 30.6 6.044 29.285 7.778 28.084 C 7.2 27.517 6.644 26.985 6.089 26.486 Z" style=""/>
  <path d="M 10.31 27.449 C 11.333 28.526 12.343 29.716 13.343 30.951 C 13.921 30.487 14.533 30.021 15.154 29.569 C 14.366 28.594 13.543 27.608 12.666 26.655 C 11.589 25.477 10.488 24.367 9.388 23.38 C 7.699 21.827 5.955 20.457 4.167 19.255 L 4.055 19.663 C 3.878 20.31 3.744 20.967 3.599 21.612 C 4.711 22.394 5.81 23.244 6.866 24.162 C 7.978 25.114 9.099 26.179 10.31 27.437 L 10.31 27.449 Z" style=""/>
  <path d="M 13.711 24.514 C 19.533 21.533 24.843 20.151 28.176 19.504 C 28.244 18.757 28.287 18.02 28.287 17.272 L 28.287 17.159 C 24.665 17.793 18.632 19.301 12.044 22.802 C 12.61 23.346 13.166 23.913 13.721 24.503 L 13.711 24.514 Z" style=""/>
  <path d="M 23.421 51.872 C 23.399 51.735 23.399 51.588 23.376 51.452 C 22.687 51.078 22.132 50.466 21.843 49.707 C 21.754 49.469 19.644 44.132 15.643 37.955 C 8.843 44.154 5.822 50.863 5.777 50.965 C 5.777 50.976 5.755 50.999 5.755 51.01 L 5.988 53.413 C 6.032 53.889 6.055 54.365 6.055 54.841 L 6.055 62.128 C 6.055 62.831 6.144 63.544 6.311 64.225 L 6.677 65.698 C 7.622 69.551 11.021 72.26 14.911 72.26 C 18.31 72.26 21.377 70.197 22.71 67.012 L 23.154 65.959 C 23.61 64.882 23.843 63.726 23.843 62.547 L 23.843 56.156 C 23.843 55.555 23.81 54.966 23.732 54.376 L 23.421 51.872 Z" style=""/>
  <path d="M 16.999 28.299 C 20.066 26.282 23.576 24.491 27.587 23.153 C 27.688 22.735 27.765 22.303 27.844 21.885 C 24.777 22.519 20.266 23.778 15.288 26.248 C 15.877 26.928 16.455 27.608 17.011 28.299 L 16.999 28.299 Z" style=""/>
  <path d="M 28.143 14.892 C 27.821 12.625 26.921 10.461 25.51 8.658 C 24.455 7.31 22.855 6.528 21.177 6.528 L 20.421 6.528 C 17.566 6.528 14.755 7.276 12.254 8.682 C 8.932 10.563 6.377 13.532 4.922 17.057 C 6.755 18.258 8.554 19.641 10.288 21.182 C 17.544 17.193 24.233 15.55 28.143 14.881 L 28.143 14.892 Z" style=""/>
  <path d="M 11.633 32.412 C 10.877 31.472 10.11 30.577 9.344 29.738 C 7.111 31.246 5.011 32.946 3.066 34.805 C 3.288 36.459 3.633 38.09 4.078 39.7 C 4.155 39.961 4.211 40.232 4.278 40.493 C 6.111 37.978 8.544 35.144 11.633 32.402 L 11.633 32.412 Z" style=""/>
  <path d="M 19.155 35.076 C 18.532 35.53 17.922 35.994 17.344 36.47 C 20.143 40.765 22.043 44.63 23.065 46.885 C 23.021 45.253 23.065 43.61 23.176 41.978 C 22.132 39.961 20.788 37.592 19.155 35.076 Z" style=""/>
  <path d="M 23.588 38.068 C 23.91 35.87 24.377 33.704 24.977 31.562 C 23.576 32.254 22.232 33.002 20.988 33.807 C 21.954 35.28 22.821 36.72 23.588 38.068 Z" style=""/>
  <path d="M 13.877 33.433 C 13.877 33.433 13.844 33.455 13.822 33.467 C 9.788 36.889 6.877 40.55 4.911 43.473 C 5.056 44.313 5.177 45.151 5.255 45.99 L 5.355 47.021 C 7.477 43.451 11.789 37.389 18.777 32.56 C 18.777 32.56 18.777 32.549 18.799 32.537 C 18.799 32.537 18.821 32.537 18.821 32.526 C 20.921 31.076 23.265 29.75 25.854 28.628 L 26.765 25.84 C 21.61 27.778 17.344 30.487 13.911 33.388 C 13.888 33.399 13.888 33.421 13.866 33.433 L 13.877 33.433 Z" style=""/>
</svg>