<?xml version="1.0" encoding="utf-8"?>
<!-- Generator: Adobe Illustrator 16.0.0, SVG Export Plug-In . SVG Version: 6.00 Build 0)  -->
<!DOCTYPE svg PUBLIC "-//W3C//DTD SVG 1.1//EN" "http://www.w3.org/Graphics/SVG/1.1/DTD/svg11.dtd">
<svg version="1.1" id="Layer_1" xmlns="http://www.w3.org/2000/svg" xmlns:xlink="http://www.w3.org/1999/xlink" x="0px" y="0px"
	 width="841.89px" height="595.28px" viewBox="0 0 841.89 595.28" enable-background="new 0 0 841.89 595.28" xml:space="preserve">
<path d="M444.43,536.84c-0.727,1.394-1.177,2.27-1.63,3.142c-0.612-0.828-1.237-1.646-1.827-2.489
	c-0.145-0.203-0.178-0.487-0.234-0.742c-1.219-5.342-2.416-10.691-3.664-16.03c-0.17-0.724-0.387-1.624-0.903-2.057
	c-4.286-3.568-8.646-7.048-13.06-10.614c-3.11,2.246-5.941,4.612-9.068,6.485c-5.045,3.019-8.126,7.099-8.332,13.109
	c-0.018,0.427-0.151,0.856-0.249,1.277c-0.922,3.932-1.84,7.864-2.732,11.665c-3.684,0.261-1.317-2.423-1.917-3.168
	c-71.072-8.369-128.37-40.258-171.545-97.411c-0.678,0.457-1.434,0.964-2.18,1.465c22.528,36.654,87.177,91.402,170.895,98.959
	c-0.518,3.355,0.016,4.484,2.456,4.896c14.422,2.439,28.851,2.203,43.262-0.075c3.036-0.479,3.713-1.805,2.881-5.143
	c0.676-0.135,1.347-0.293,2.021-0.402c7.644-1.267,15.353-2.245,22.925-3.825c34.081-7.109,65.223-20.942,93.486-41.276
	c1.333-0.96,2.443-1.896,2.086-3.763c-0.038-0.201,0.345-0.485,0.631-0.865c0.303,0.704,0.522,1.216,0.843,1.958
	c1.225-1.001,2.28-1.862,3.372-2.753c-0.732-0.562-1.338-1.022-1.94-1.484c0.126-0.273,0.253-0.547,0.376-0.817
	c0.938,0.355,1.874,0.709,3.146,1.194c15.95-13.039,30.369-27.86,42.763-44.841c-0.75-0.636-1.454-1.237-2.396-2.038
	C570.795,497.547,513.654,528.681,444.43,536.84z M414.07,539.591c4.363,0,8.27,0,12.497,0
	C424.264,542.104,415.815,542.141,414.07,539.591z M414.737,535.192c4.735-0.368,9.478-0.736,14.275-1.11
	C427.554,536.769,420.051,537.535,414.737,535.192z M426.667,529.469c-3.629,1.024-7.331,1.89-11.022,0.491
	c0.008-0.24,0.021-0.479,0.027-0.715c3.76-0.421,7.517-0.843,11.725-1.312c-1.659-2.688-4.135-2.603-6.271-3.152
	c-2.207-0.566-4.439-1.043-7.143-1.67c0.736-0.642,1.021-1.063,1.206-1.024c3.976,0.813,7.976,1.543,11.868,2.643
	c0.994,0.282,1.633,1.783,2.436,2.728C428.555,528.149,427.715,529.174,426.667,529.469z M422.543,515.94
	c3.834,0.964,7.67,1.93,11.905,2.994C431.655,520.734,424.357,519.096,422.543,515.94z M243.665,136.485
	c0.487-0.615,1.06-1.162,1.583-1.747c14.886-16.522,31.764-30.648,50.809-42.161c21.475-12.985,44.209-23.088,68.687-28.767
	c11.431-2.654,23.149-4.066,34.737-6.053c0.575-0.1,1.2-0.223,1.677-0.528c0.601-0.386,1.077-0.97,1.605-1.466
	c0.362,0.75,0.889,1.463,1.056,2.256c0.966,4.6,1.752,9.241,2.81,13.816c0.354,1.524,0.984,3.302,2.093,4.276
	c3.997,3.512,8.271,6.707,12.393,10.083c1.043,0.855,1.783,1.007,2.905,0.034c3.491-3.037,7.153-5.873,10.605-8.952
	c0.895-0.797,1.525-2.127,1.814-3.323c1.495-6.081,2.833-12.197,4.233-18.302c0.345-1.483,0.771-2.896,2.734-2.546
	c-0.285,1.457-0.544,2.788-0.861,4.41c63.139,6.859,115.59,33.893,158.422,80.339c0.669-0.661,1.49-1.477,2.613-2.59
	c-7.109-7-13.699-14.142-20.965-20.521c-24.983-21.959-53.285-38.33-84.786-49.083c-15.778-5.389-31.921-9.217-48.511-11.127
	c-0.901-0.103-2.482-1.72-2.34-2.25c0.665-2.451-0.94-2.686-2.457-2.957c-11.752-2.074-23.574-2.494-35.449-1.397
	c-2.776,0.256-5.549,0.593-8.313,0.995c-1.453,0.21-3.016,0.911-2.611,2.57c0.193,0.794,1.845,1.289,2.898,1.795
	c0.395,0.19,0.963,0.03,1.452,0.03c0.046,0.212,0.09,0.42,0.136,0.631c-1.003,0.242-2,0.678-3.004,0.691
	c-2.159,0.032-4.248,0.515-6.476,0.387c-2.987-0.171-6.038,0.645-9.054,1.099c-26.176,3.944-50.77,12.714-74.356,24.517
	c-0.922,0.465-1.583,1.457-2.175,2.021c-1.03,0.266-2.13,0.333-3.006,0.809c-21.967,11.934-41.573,26.95-58.74,45.134
	c-2.301,2.441-4.444,5.038-6.623,7.515C240.83,138.166,242.216,138.314,243.665,136.485z M418.744,76.864
	c0.075-0.223,0.15-0.446,0.225-0.671c1.983,0.7,3.971,1.396,6.498,2.286C421.975,80.146,420.576,77.913,418.744,76.864z
	 M426.34,59.962c0.792,2.124-0.149,4.767-2.11,5.941c-2.257,1.351-5.101,1.071-6.697-0.981c0.999-0.14,1.781-0.268,2.567-0.354
	c0.767-0.086,1.82,0.165,2.249-0.249c0.949-0.916,2.425-2.409,2.179-3.215c-0.59-1.977-2.424-1.469-3.901-0.687
	c-1.052,0.559-2.03,1.266-3.123,1.958c-0.188-2.082,1.411-3.926,3.708-4.512C423.308,57.327,425.727,58.316,426.34,59.962z
	 M425.223,53.938c-3.708,1.105-6.88,2.049-10.249,3.052C415.753,53.625,420.747,52.097,425.223,53.938z M602.339,145.279
	c0.013,0.019-0.176,0.163-0.274,0.251c-0.759-1.055-1.503-2.093-2.408-3.356c-2.159,1.479-4.189,2.812-6.154,4.233
	c-5.553,4.021-5.659,4.04-5.469,11.012c0.195,7.059,0.701,14.107,0.973,21.163c0.083,2.16,1.114,2.734,3.021,2.353
	c1.622-0.323,3.253-0.608,4.858-1.003c5.063-1.243,9.514-0.73,12.687,4.041c0.357,0.542,1.389,1.205,1.829,1.043
	c4.518-1.658,8.969-3.472,13.444-5.242c-0.022-0.348-0.046-0.696-0.069-1.041c-1.532-0.473-3.064-0.943-4.721-1.458
	c1.648-1.102,3.416-1.874,4.779-0.054c1.198,1.595,2.193,1.731,3.937,1.037c1.702-0.674,3.863-1.572,5.146,0.603
	c0.97,1.643,2.146,2.208,3.594,1.281c1.687-1.079,1.179-2.669,0.251-4.119c-0.7-1.095-1.635-2.126-2.003-3.329
	c-1.102-3.588-3.359-5.768-6.988-6.644c-0.918-0.221-1.789-0.698-2.634-1.144c-2.808-1.489-5.346-0.872-7.342,1.323
	c-2.045,2.244-3.857,4.715-5.588,7.213c-1.213,1.754-2.109,3.72-3.471,6.174c-0.056-1.099-0.186-1.529-0.074-1.886
	c1.738-5.63,4.665-10.509,9.354-14.182c2.103-1.648,4.478-1.807,6.884-0.602c2.082,1.039,4.141,2.127,6.942,3.569
	c-2.069-3.558-3.694-6.436-5.423-9.253c-0.367-0.593-1.039-1.27-1.672-1.391c-3.989-0.779-4.156-1.119-1.493-4.621
	c-3.706-5.628-7.442-11.399-11.29-17.096c-1.288-1.908-2.541-1.538-4.583-0.489c-2.034,1.049-2.801,3.062-4.409,4.296
	C601.293,140.011,600.512,142.305,602.339,145.279z M594.834,173.268c-2.23-4.369-1.449-9.153-1.673-13.797
	C595.111,163.876,595.037,168.563,594.834,173.268z M615.354,150.273c-3.73-2.243-6.838-8.563-6.965-15.15
	C610.941,140.673,613.176,145.539,615.354,150.273z M607.005,154.809c0.208,0.423,0.146,1.286-0.155,1.596
	c-1.212,1.255-1.417,2.351,0.117,3.444c1.405,0.997,2.81,1.966,4.171-0.082c0.182-0.278,0.508-0.463,0.856-0.766
	c1.679,0.711,2.348,1.62,0.964,3.285c-1.501,1.805-2.861,3.728-4.419,5.479c-0.167,0.183-0.396,0.309-0.661,0.407
	c-0.437,0.162-0.957,0.25-1.394,0.414l0,0c0,0,0,0-0.002,0c0.114-0.503,0.146-1.058,0.292-1.54c0.052-0.163,0.11-0.316,0.192-0.458
	c0.602-1.033,1.402-1.951,2.164-2.982c-1.633-1.348-2.965-2.446-4.409-3.637c-0.913,0.653-1.804,1.286-2.441,1.744
	c-0.982-1.827-1.902-3.543-2.901-5.401c-0.124,0.165-0.034-0.078,0.083-0.09c3.765-0.392,3.698-0.382,3.347-4.529
	c-0.096-1.139,0.33-2.321,0.559-3.753C604.687,150.4,605.905,152.573,607.005,154.809z M397.494,527.618
	c1.728,0.178,3.445,0.458,5.166,0.69c-1.175,7.386-0.489,6.637-7.318,5.887c-32.229-3.515-62.396-13.633-90.424-29.805
	c-27.191-15.688-51.016-35.399-69.728-60.881c-0.466-0.633-0.931-1.271-1.33-1.945c-0.568-0.962-1.072-1.961-1.62-2.974
	c0.225-0.301,0.26-0.401,0.332-0.437c1.6-0.768,3.443-2.402,4.738-2.047c1.402,0.387,2.299,2.632,3.413,4.064
	c15.36,19.753,33.751,36.217,54.486,50.115c14.903,9.988,30.801,18.072,47.563,24.467
	C360.441,521.493,378.699,525.672,397.494,527.618z M397.853,525.484c-12.361-1.117-24.444-3.759-36.383-7.077
	c-2.998-0.832-5.981-1.718-8.755-2.519c0.178-1.177,0.293-1.928,0.409-2.684c-0.593,0.315-1.149,0.735-1.776,0.915
	c-0.817,0.232-1.825,0.617-2.516,0.347c-7.684-3.046-15.488-5.854-22.938-9.404c-25.278-12.044-47.997-27.76-67.257-48.236
	c-5.015-5.332-9.944-10.742-14.799-16.218c-1.542-1.737-2.715-3.805-4.247-5.995c2.36-1.102,4.316-2.012,6.102-2.844
	c4.992,5.914,9.508,12.071,14.851,17.394c7.653,7.622,15.566,15.08,24.021,21.786c7.813,6.198,16.499,11.291,24.756,16.943
	c0.734,0.506,1.112,1.528,1.479,2.06c0.946,0.226,1.939,0.231,2.676,0.665c22.874,13.498,47.502,22.099,73.677,26.321
	c5.832,0.938,11.721,1.567,17.486,2.324c0.13,0.366,0.257,0.541,0.23,0.684C403.743,525.86,403.729,526.013,397.853,525.484z
	 M597.842,432.013c2.057,0.972,4.354,2.057,7.111,3.355c-24.32,31.424-53.944,55.312-90.038,71.406
	c-0.322-0.854-0.554-1.476-0.786-2.093c-0.316-0.297-0.632-0.594-0.949-0.893c-0.22,0.658-0.731,1.38-0.6,1.955
	c0.549,2.394-1.351,2.883-2.749,3.367c-9.779,3.396-19.452,7.285-29.466,9.792c-11.291,2.826-22.857,4.706-34.4,6.334
	c-5.945,0.838-5.016,1.879-6.867-6.127c15.521-1.706,30.883-4.066,45.875-8.475c14.958-4.395,29.105-10.585,42.857-17.876
	c13.747-7.289,26.131-16.485,38.036-26.354C577.873,456.452,588.152,444.829,597.842,432.013z M209.419,177.425
	c1.743,0.49,3.796,0.026,5.445,0.663c4.135,1.602,8.212,3.42,12.134,5.484c3.551,1.868,6.33,1.411,8.898-1.618
	c2.086-2.452,4.917-2.793,7.895-2.263c1.868,0.336,3.706,0.817,5.803,1.29c0.343-3.834,0.37-7.513,1.058-11.064
	c1.138-5.884,2.634-11.703,4.129-17.509c0.495-1.943-0.038-3.201-1.606-4.233c-2.959-1.944-5.761-4.193-8.888-5.811
	c-6.462-3.338-4.341-3.951-9.167,1.855c-0.612,0.735-1.104,1.574-1.704,2.317c-2.136,2.633-4.298,5.246-6.448,7.866
	c-0.268-0.205-0.533-0.411-0.797-0.617c3.844-5.444,7.688-10.886,11.498-16.278c-0.461-0.544-0.981-0.913-1.154-1.401
	c-1.292-3.638-4.014-3.431-5.947-0.469c-5.423,8.306-10.764,16.675-15.918,25.149c-1.643,2.689-2.617,5.781-3.896,8.692
	c1.475-0.22,2.52-0.677,3.33-1.395c3.324-2.952,6.571-5.999,9.874-8.979c3.013-2.721,7.607-3.388,10.929-1.591
	c3.414,1.844,6.803,4.089,10.316-0.255c-0.596,3.61-4.336,6.315-1.779,9.941c-1.162,0.506-2.146,0.936-3.89,1.693
	c0.15-1.31,0.182-2.349,0.405-3.346c0.634-2.834,0.477-3.027-2.295-3.093c-0.797-0.018-1.704-0.24-2.354-0.675
	c-4.525-3.028-8.211-2.722-12.245,0.983c-2.762,2.534-5.555,5.043-8.486,7.366c-1.443,1.14-2.953,2.138-5.229,1.701
	c-2.065-0.396-2.881,1.738-2.664,3.336C206.785,176.055,208.327,177.114,209.419,177.425z M225.795,169.491
	c1.814,0.554,3.623,1.104,5.543,1.69c0.323-2.392-2.959-3.479-1.253-5.758c2.875,1.413,4.551,4.149,3.684,6.097
	c-0.905,2.039-2.711,2.279-4.628,1.929C226.596,172.981,225.555,171.719,225.795,169.491z M580.59,465.433
	c9.214-9.138,17.871-18.837,26.943-28.477c1.16,0.881,2.653,2.009,4.505,3.412c-4.513,5.385-8.768,10.692-13.26,15.785
	c-21.02,23.831-46.003,42.447-74.69,56.019c-23.275,11.008-47.717,18.233-73.268,21.609c-0.863,0.115-1.747,0.092-2.613,0.196
	c-6.164,0.746-6.164,0.755-6.637-5.238c12.769-2.484,25.654-4.313,38.16-7.612c12.39-3.267,24.793-7.119,36.461-12.346
	c11.802-5.281,22.908-12.229,33.945-19.053C561.217,482.878,571.348,474.604,580.59,465.433z M524.564,90.707
	c-26.301-13.41-54.353-20.985-84.104-23.737c0.497-2.102,0.831-4.053,1.485-5.885c0.174-0.483,1.403-0.93,2.074-0.842
	c7.854,1.05,15.756,1.894,23.532,3.396c22.654,4.376,44.166,12.12,64.496,23.033c22.063,11.844,42.188,26.351,59.727,44.305
	c2.496,2.555,4.718,5.378,7.363,8.414c-1.863,1.312-3.58,2.517-5.305,3.73C574.215,120.749,550.649,104.002,524.564,90.707z
	 M446.284,69.791c21.919,2.624,43.219,7.67,63.544,16.452c5.52,2.385,11.093,4.723,16.369,7.585
	c21.525,11.687,41.782,25.157,58.893,42.924c2.35,2.441,4.686,4.895,7.152,7.467c-5.697,4.826-5.58,4.714-10.382-0.389
	c-12.653-13.431-27.243-24.471-42.79-34.315c-23.779-15.051-49.532-25.087-77.199-30.106c-7.199-1.305-14.531-1.861-21.8-2.767
	c-0.418-0.051-0.832-0.143-1.162-0.202c-0.132-0.308-0.266-0.472-0.251-0.618C439.379,69.058,439.391,68.968,446.284,69.791z
	 M319.033,90.221c-26.224,13.255-49.777,30.182-69.436,52.398c-1.743-0.992-3.451-1.959-5.139-2.918
	c3.163-7.204,33.965-34.537,36.619-33.486c1.791-1.646,3.059-3.116,4.605-4.187c11.13-7.709,22.822-14.454,35.053-20.268
	c20.198-9.602,41.324-16.221,63.41-19.713c5.739-0.908,11.536-1.446,17.467-2.171c0.514,2.577,0.947,4.76,1.47,7.384
	C373.414,69.459,345.364,76.911,319.033,90.221z M254.264,145.825c-0.822-0.601-1.693-1.133-3.096-2.063
	c4.089-4.113,7.864-8.068,11.813-11.852c12.783-12.264,26.994-22.702,42.251-31.604c9.006-5.256,18.58-9.545,27.945-14.185
	c0.855-0.424,2.028-0.216,3.397-0.332c0.865-0.588,2.08-1.815,3.541-2.339c6.541-2.338,13.151-4.478,20.027-6.788
	c0.182,1.451,0.29,2.328,0.4,3.204c-0.225-2.97,1.935-3.781,4.09-4.189c9.921-1.879,19.863-3.663,29.816-5.378
	c2.313-0.397,4.693-0.36,7.041-0.579c1.533-0.146,2.462,0.196,2.602,1.997c0.117,1.44,0.628,2.847,1.073,4.722
	c-59.075,4.01-107.716,29.277-148.251,71.461C256.016,147.192,255.162,146.479,254.264,145.825z M641.648,402.896
	c-2.486,0.886-4.407-0.141-6.439-1.171c-4.586-2.327-9.193-4.618-13.77-6.968c-1.193-0.61-2.425-1.026-3.075,0.42
	c-0.308,0.674-0.022,1.893,0.431,2.576c1.978,2.977,4.129,5.836,6.178,8.768c0.488,0.689,0.836,1.481,1.246,2.226
	c-0.241,0.155-0.479,0.31-0.72,0.463c-0.524-0.584-1.045-1.169-1.568-1.752c-3.019-3.337-6.019-6.694-9.089-9.99
	c-0.381-0.408-1.18-0.736-1.712-0.65c-3.253,0.531-6.37,1.261-6.887,5.412c-0.146,1.179-0.748,2.313-1.218,3.437
	c-2.932,7.012-5.316,14.17-6.32,21.756c-0.217,1.614-0.121,2.446,1.512,3.194c2.922,1.334,5.705,2.98,8.513,4.56
	c1.906,1.072,3.756,2.251,6.058,3.641c0.377-4.042,0.632-7.599,1.076-11.127c0.266-2.117-0.727-2.899-2.594-2.933
	c-2.771-0.049-5.548-0.015-8.291-0.015c3.456-3.383,7.56-1.994,12.236-0.757c1.001-2.283,1.989-4.53,2.979-6.779
	c-0.271-0.168-0.541-0.335-0.811-0.504c-1.715,1.327-3.427,2.652-5.285,4.095c-0.938-2.601,1.354-3.059,2.113-4.36
	c0.761-1.309,1.572-2.588,2.358-3.882c-0.331-0.222-0.667-0.443-1.001-0.663c-1.228,1.607-2.47,3.207-3.674,4.833
	c-1.549,2.084-3.054,2.502-5.036,1.459c2.735-2.949,5.461-5.964,8.296-8.871c0.568-0.586,1.545-0.77,2.341-1.14
	c0.393,0.946,1.16,1.915,1.095,2.826c-0.119,1.675-0.732,3.312-1.252,5.425c1.435-0.933,2.386-1.688,3.451-2.216
	c2.037-1.022,4.937,0.691,4.777,2.74c-0.188,2.461-5.76,9.783-8.178,10.346c-1.578,0.366-1.944,1.27-2.016,2.571
	c-0.112,2.095-0.125,4.191-0.284,6.282c-0.132,1.727,0.458,5.874,0.995,7.331c0.621,1.702,1.699,2.021,3.136,1.479
	c0.19-1.416,0.362-2.72,0.598-4.444c0.913,1.111,1.484,1.81,2.164,2.632c0.905-0.951,1.911-1.647,2.425-2.604
	c4.651-8.661,9.238-17.357,13.764-26.081c0.359-0.684,0.427-1.836,0.092-2.509c-1.309-2.67-0.83-3.564,2.028-4.646
	c0.926-0.351,1.411-1.86,2.097-2.839C643.461,403.902,642.296,402.669,641.648,402.896z M625.618,430.926
	c-0.439-0.22-0.88-0.439-1.317-0.663c1.422-2.764,2.84-5.527,4.263-8.293c0.416,0.211,0.83,0.416,1.248,0.627
	C628.413,425.375,627.013,428.149,625.618,430.926z M241.305,431.218c4.002-1.864,4.261-2.021,2.927-6.294
	c-2.199-7.051-5.23-13.854-7.124-20.972c-1.321-4.97-4.11-7.259-8.82-7.93c-0.173-0.028-0.349-0.008-0.671-0.008
	c-0.184,0.255-0.323,0.376-0.378,0.53c-1.951,5.461-3.945,10.911-5.78,16.417c-0.28,0.83-0.081,2.567,0.374,2.764
	c1.453,0.617,2.371-0.264,2.727-1.836c0.195-0.882,0.772-2.438,1.067-2.41c1.765,0.157,3.647,0.396,5.195,1.186
	c1.056,0.537,1.632,2.021,2.425,3.081c-0.343,0.28-0.686,0.563-1.028,0.847c-0.79-0.754-1.505-1.617-2.396-2.226
	c-0.638-0.434-1.524-0.755-2.258-0.684c-0.35,0.033-0.989,1.219-0.839,1.657c0.874,2.563,1.942,5.055,3.165,8.121
	c0.935-1.102,1.314-1.643,1.787-2.082c0.658-0.614,1.385-1.153,2.085-1.725c0.501,0.879,0.999,1.761,1.316,2.32
	c-1.012,0.878-1.853,1.29-2.199,1.955c-1.298,2.492-3.104,1.902-4.692,0.675c-0.77-0.591-0.979-1.939-1.398-2.958
	c-0.388-0.951-0.561-2.029-1.112-2.861c-1.132-1.699-2.756-1.435-4.072-0.35c-1.345,1.106-0.341,2.21,0.545,3.082
	c1.712,1.693,3.479,3.326,5.527,5.271c-0.646,0.289-1.472,0.852-1.628,0.705c-2.302-2.197-4.675-4.361-6.656-6.838
	c-0.652-0.815-0.236-2.487-0.308-3.77c-0.044-0.761,0-1.543-0.154-2.282c-0.324-1.562-0.753-3.097-1.196-4.858
	c1.102,0.652,1.936,1.149,2.21,1.313c1.453-4.467,2.648-8.891,4.36-13.104c0.943-2.322,0.527-3.923-1.043-5.763
	c-6.271,3.666-12.48,7.318-18.725,10.908c-0.414,0.238-1.17,0.158-1.653-0.04c-1.127-0.468-2.55-1.411-3.068,0.207
	c-0.316,0.997,0.547,2.443,1.051,3.614c0.379,0.874,1.178,1.567,1.537,2.441c0.693,1.683,0.918,3.606,1.835,5.128
	c5.274,8.714,10.609,17.396,16.104,25.977c1.85,2.892,3.158,2.712,5.577,0.324c2.082-2.053,4.169-4.223,6.635-5.718
	C235.246,433.396,238.418,432.566,241.305,431.218z M211.229,414.692c-2.512-1.787-2.59-9.139,0-10.837
	C211.229,407.502,211.229,410.984,211.229,414.692z M222.604,435.869c-3.234-5.013-6.473-10.03-9.708-15.049
	c2.519,0.409,9.873,11.665,10.308,14.658C223.007,435.608,222.805,435.74,222.604,435.869z M199.416,314.729
	c0.775-0.027,1.871-0.271,2.243-0.806c3.512-5.084,6.896-10.248,10.312-15.398c0.236-0.355,0.385-0.764,0.625-1.252
	c-0.317-0.575-0.609-1.201-0.986-1.771c-2.899-4.35-5.997-8.586-8.652-13.081c-1.404-2.379-3.011-3.136-5.65-2.98
	c-5.921,0.349-11.857,0.464-17.788,0.603c-0.79,0.018-1.591-0.394-2.388-0.61c-1.045-0.285-2.09-0.573-3.136-0.858
	c-0.221,1.198-0.671,2.407-0.61,3.59c0.099,1.964,0.786,3.912,0.78,5.865c-0.023,6.803-0.163,13.611-0.422,20.409
	c-0.074,2.009-0.894,3.984-1.004,5.999c-0.066,1.133,0.328,2.583,1.068,3.365c0.438,0.463,2.559,0.279,2.887-0.256
	c1.411-2.303,3.573-2.197,5.714-2.271C188.075,315.076,193.748,314.956,199.416,314.729z M203.135,298.854
	c0.397-0.92,1.173-1.677,1.792-2.502c0.288,0.152,0.574,0.307,0.862,0.461c-0.206,0.969-0.288,1.988-0.666,2.883
	c-0.187,0.436-0.926,0.629-1.418,0.936C203.494,300.027,202.953,299.284,203.135,298.854z M193.055,285.574
	c-0.23,4.288-0.447,8.236-0.671,12.309C189.617,295.865,189.912,288.209,193.055,285.574z M188.117,285.697
	c0,2.553-0.032,4.432,0.012,6.308c0.051,2.256,0.007,4.535,0.302,6.764c0.334,2.541,2.268,3.396,4.311,2.214
	c0.873-0.5,1.864-0.795,2.801-1.182c0.306,1.166,0.617,2.329,0.922,3.496c-2.611-1.173-4.327-0.584-5.61,1.391
	C185.556,301.629,183.838,291.466,188.117,285.697z M180.506,309.392c-3.109-7.3-3.54-14.886-1.924-22.731
	C180.563,294.08,180.554,301.732,180.506,309.392z M182.966,287.494c0.245-0.021,0.491-0.043,0.735-0.064
	c0.546,6.401,1.088,12.803,1.633,19.201C181.651,304.354,180.647,292.447,182.966,287.494z M669.38,313.425
	c-0.389-1.005-0.456-2.177-0.458-3.276c-0.026-6.098-0.05-12.199,0.055-18.296c0.059-3.445,0.441-6.89,0.517-10.337
	c0.022-0.917-0.308-2.151-0.942-2.671c-0.487-0.4-1.725,0.015-2.597,0.208c-1.116,0.253-2.204,0.941-3.301,0.925
	c-6.278-0.08-12.554-0.343-18.833-0.451c-0.847-0.014-2.131,0.235-2.486,0.813c-3.271,5.24-6.4,10.568-9.501,15.912
	c-0.263,0.455-0.259,1.369,0.031,1.8c0.529,0.791,1.063,1.575,1.605,2.356c0.161,0.236,0.326,0.467,0.487,0.699
	c0.383,0.553,0.766,1.104,1.152,1.655c0.077,0.108,0.156,0.218,0.231,0.326c1.006,1.428,2.015,2.851,3.022,4.276
	c0.011-0.031,0.025-0.059,0.04-0.088c-0.242-3.62,1.62-13.811,3.138-15.215c0.343,5.33-0.66,10.408-3.138,15.215
	c0.007,0.055,0.009,0.117,0.013,0.168c0,0-0.063-0.06-0.064-0.061c1.089,2.31,2.18,4.621,3.396,7.199
	c0.577,0.027,1.524,0.066,2.476,0.111c6.184,0.309,12.367,0.597,18.549,0.958c0.684,0.038,1.626,0.319,1.952,0.814
	c0.933,1.405,1.898,2.403,3.59,1.312C669.979,316.703,670.062,315.209,669.38,313.425z M649.781,294.328
	c-0.97-2.68-1.72-4.756-2.594-7.174C649.979,288.449,650.986,291.023,649.781,294.328z M652.519,305.921
	c-1.134-0.47-2.269-0.938-3.477-1.437c-0.808,0.521-1.727,1.107-3.059,1.959c0.644-4.255,1.191-7.854,1.737-11.453
	c0.22-0.078,0.437-0.156,0.654-0.234c0.391,0.967,1.061,1.92,1.116,2.902c0.111,2.051,0.308,3.857,2.302,5.097
	c0.711,0.438,1.021,1.527,1.514,2.323C653.043,305.357,652.783,305.643,652.519,305.921z M657.236,307.348
	c-1.147-5.685-3.902-11.131-2.429-17.169C657.337,295.645,658.119,301.379,657.236,307.348z M660.949,309.385
	c-2.58-6.76-1.649-13.96-2.258-21.029C662.866,294.91,662.016,302.135,660.949,309.385z M664.653,308.173
	c-1.981-2.419-2.178-16.268-0.296-20.694C666.602,290.485,666.807,305.088,664.653,308.173z M638.363,307.365
	c-0.006,0.007-0.01,0.013-0.012,0.02c0.002-0.007,0.006-0.013,0.012-0.018C638.363,307.365,638.363,307.365,638.363,307.365z
	 M231.072,187.771c-17.363,27.25-26.62,57.121-29.974,89.184c-2.016,0-4.06,0-6.464,0c2.306-33.121,12.886-63.538,29.168-92.544
	C226.113,185.479,228.43,186.551,231.072,187.771z M643.183,237.293c-4.886-17.51-11.348-34.393-20.326-50.255
	c-0.506-0.899-0.92-1.849-1.53-3.082c1.969-0.887,3.809-1.717,6.008-2.707c16.842,30.039,26.56,62.054,30.016,96.201
	c-6.491,1.038-7.1,0.425-7.514-5.343C648.985,260.25,646.366,248.705,643.183,237.293z M218.535,189.785
	C208.51,208.435,200.89,228,196.66,248.761c-1.769,8.682-2.709,17.534-4.021,26.305c-0.101,0.681-0.167,1.358-0.282,2.345
	c-1.819,0.086-3.383,0.162-4.948,0.228c-0.418,0.016-0.836,0.004-1.541,0.004c2.736-34.33,12.589-66.257,29.426-96.335
	c1.963,0.81,3.777,1.56,5.969,2.466C220.3,185.906,219.541,187.915,218.535,189.785z M640.597,317.283c2.348,0,4.577,0,7.348,0
	c-2.69,27.176-8.621,53.152-20.167,77.508c-0.693,0-0.792,0.03-0.854-0.004c-6.92-3.761-5.916-2.648-3.372-8.579
	c8.489-19.773,13.438-40.448,16.264-61.698c0.159-1.209,0.18-2.436,0.31-3.65C640.254,319.658,640.441,318.469,640.597,317.283z
	 M631.957,390.638c7.751-18.007,12.89-36.755,15.774-56.132c0.834-5.598,1.603-11.205,2.464-17.247
	c2.066,0.09,4.114,0.185,6.568,0.29c-2.845,28.407-9.107,55.556-20.683,81.317c-0.299,0.042-0.489,0.132-0.627,0.077
	C629.329,396.57,629.39,396.596,631.957,390.638z M215.65,393.949c-11.524-24.392-18.611-49.756-21.53-76.697
	c2.197,0,4.106-0.13,5.978,0.081c0.528,0.058,1.302,1.057,1.367,1.685c1.576,15.4,4.934,30.413,10.061,44.998
	c2.824,8.046,6.053,15.952,9.282,23.85c0.854,2.085,0.531,3.187-1.464,4.061C218.096,392.473,216.942,393.232,215.65,393.949z
	 M192.097,317.164c2.858,27.226,10.041,53.039,21.499,77.775c-2.009,1.121-3.662,2.052-5.573,3.126
	c-12.171-25.412-19.654-52.005-22.788-80.307C187.462,317.569,189.56,317.387,192.097,317.164z M183.695,277.888
	c-1.256,0.184-2.247,0.332-3.664,0.542c0.587-5.714,0.911-11.103,1.723-16.414c4.283-27.965,13.031-54.468,26.36-79.446
	c0.529-0.999,1.003-2.086,1.774-2.879c0.519-0.539,1.504-0.632,2.283-0.924c0.127,0.87,0.636,1.914,0.328,2.582
	c-3.602,7.845-7.521,15.543-10.973,23.451c-8.458,19.36-13.653,39.662-16.657,60.534
	C184.285,269.384,184.093,273.488,183.695,277.888z M658.984,317.737c1.147-0.066,2.093-0.12,3.549-0.204
	c-0.416,4.046-0.686,7.915-1.227,11.743c-2.49,17.595-6.301,34.9-12.06,51.727c-1.995,5.828-4.488,11.491-6.768,17.226
	c-0.257,0.64-0.468,1.463-0.97,1.814c-0.719,0.499-1.688,0.638-2.553,0.932c-0.146-0.811-0.642-1.756-0.389-2.414
	c2.172-5.688,4.629-11.27,6.717-16.983c6.055-16.568,9.629-33.755,12.361-51.137C658.297,326.322,658.533,322.141,658.984,317.737z
	 M202.955,400.659c-12.58-26.171-20.339-53.729-23.328-82.748c2.248-0.839,3.396-0.806,3.688,1.87
	c2.306,21.223,7.421,41.784,15.102,61.693c2.067,5.358,4.487,10.582,6.816,15.838C206.097,399.257,205.58,400.26,202.955,400.659z
	 M642.208,205.521l-0.002-0.003c0.79-0.122,1.597-0.244,2.828-0.438c9.44,23.271,15.757,47.492,17.737,73.024
	c-1.82,0.08-3.25,0.573-3.479-1.96c-1.96-21.72-7.18-42.679-14.84-63.07c-0.115-0.306-0.226-0.615-0.328-0.923
	c-0.172-0.5-0.33-1.005-0.48-1.512c-0.036-0.122-0.075-0.246-0.113-0.369c-0.01-0.036-0.022-0.078-0.029-0.113
	C643.053,208.617,642.658,207.057,642.208,205.521z M642.114,205.534l0.079-0.064c0.006,0.018,0.009,0.034,0.013,0.048
	C642.179,205.524,642.146,205.528,642.114,205.534z M604.485,399.217c-3.048,9.704-6.013,19.141-9.056,28.824
	c-4.303-7.18-5.843-15.48-7.496-24.413c2.313-0.614,4.584-1.221,6.848-1.823c1.081-6.523,1.562-13.097,0.075-19.843
	c2.272-0.116,4.347-0.222,6.631-0.338c-0.743,6.902-2.487,13.425-5.011,19.728C599.148,400.641,601.808,399.932,604.485,399.217z
	 M251.115,419.514c-1.271,2.905-0.934,6.315-2.964,8.675c-3.339-9.452-6.679-18.903-10.181-28.821
	c1.325,0.295,2.295,0.473,3.244,0.728c3.029,0.799,6.057,1.604,9.068,2.454c4.012,1.136,4.221,1.188,3.592,5.327
	C253.273,411.82,252.691,415.918,251.115,419.514z M643.575,202.905c-0.473,0.851-0.946,1.7-1.419,2.545h-0.002
	c-0.251-0.148-0.599-0.247-0.705-0.464c-3.977-8.202-7.929-16.414-11.893-24.647c2.337-1.768,2.771-1.671,4.032,0.879
	c3.571,7.232,7.151,14.464,10.723,21.696C644.066,202.911,643.822,202.909,643.575,202.905z M642.109,205.534
	c0.016-0.028,0.034-0.054,0.047-0.084c0.015,0.008,0.027,0.014,0.037,0.02C642.193,205.47,642.114,205.534,642.109,205.534z
	 M618.586,426.392c-0.152-4.516,3.627-10.014,7.467-10.446C624.37,420.258,622.658,424.042,618.586,426.392z M338.587,339.91
	c0.32-0.349,0.638-0.812,0.722-1.265c0.664-3.696,0.414-7.47-1.948-10.369c-3.315-4.06-7.223-7.632-10.829-11.46
	c-0.975-1.031-1.908-1.012-3.104-0.459c-5.614,2.577-11.275,5.055-16.87,7.668c-2.264,1.06-4.404,2.374-7.014,3.794
	c12.224,4.808,17.541,14.581,20.757,26.173C327.332,350.216,333.361,345.58,338.587,339.91z M318.121,328.087
	c-0.275-0.611,0.146-1.547,0.258-2.336c0.264-0.106,0.53-0.209,0.792-0.311c0.767,0.585,1.979,1.062,2.166,1.797
	c0.163,0.654-0.813,1.594-1.288,2.411C319.378,329.14,318.425,328.76,318.121,328.087z M322.892,336.195
	c0.358,0.111,0.469,1.016,0.696,1.554c-1.037,0.275-2.076,0.547-3.625,0.955C320.676,336.643,321.403,335.721,322.892,336.195z
	 M611.727,341.188c0.348-4.049,0.364-7.897-1.601-11.423c-1.794-3.217-3.903-6.257-5.824-9.411
	c-0.991-1.631-1.875-3.331-2.806-5.001c0.188-0.12,0.377-0.243,0.566-0.358c1.351,1.533,2.699,3.074,4.052,4.611
	c0.165-0.689,0.029-1.157-0.224-1.542c-2.99-4.507-4.836-9.427-5.768-14.767c-0.561-3.217-2.938-5.077-5.958-4.627
	c-1.679,0.251-3.374,1.219-4.794,2.234c-3.395,2.423-6.928,4.447-11.719,5.469c2.348-1.959,4.177-3.482,6.006-5.008
	c-7.127,2.646-14.228,5.189-20.924,8.547c-14.75,7.409-30.119,12.881-46.335,15.917c-8.293,1.551-14.09,6.853-20.29,12.643
	c1.818,0.768,3.171,1.677,4.623,1.871c3.005,0.403,6.067,0.606,9.099,0.571c18.697-0.197,37.018-2.578,54.538-9.548
	c7.883-3.138,15.398-6.677,19.381-14.874c0.188-0.389,0.636-0.649,1.371-1.365c-0.401,1.621-0.666,2.713-0.947,3.798
	c-0.296,1.122-0.609,2.24-0.915,3.358c0.192,0.125,0.38,0.253,0.57,0.379c1.431-1.171,3.253-2.104,4.186-3.594
	c0.891-1.423,0.861-3.427,1.235-5.18c0.172-0.012,0.347-0.023,0.521-0.034c0.005,4.835,0.011,9.675,0.011,14.924
	c1.605-1.1,2.559-1.75,3.508-2.402c0.189,0.103,0.374,0.203,0.561,0.308c-0.227,1.077-0.799,2.216-0.627,3.229
	c0.844,4.938,2.039,9.815,4.985,13.998c2.109,2.991,5.2,3.184,7.739,0.687c0.323-0.314,0.66-0.613,1.07-1
	c0.863,2.02-0.641,2.722-1.738,3.335c-1.703,0.955-3.609,1.544-5.367,2.414c-2.474,1.215-3.929,4.243-3.436,7.041
	c0.452,2.561,2.842,2.35,4.49,2.628c5.304,0.898,6.217,1.448,7.535-5.584c0.068,0.073,0.135,0.144,0.195,0.203
	c-0.146-1.633-0.046-3.241,0.429-5.072C609.789,346.033,610.876,343.65,611.727,341.188z M507.899,335.773
	c-0.021-0.243-0.048-0.481-0.071-0.722l6.347-0.324c0.024,0.13,0.052,0.26,0.077,0.387
	C512.137,335.332,510.02,335.554,507.899,335.773z M522.95,333.237c-0.103-0.234-0.208-0.464-0.312-0.696
	c2.84-1.305,5.681-2.613,8.525-3.92c0.113,0.26,0.234,0.521,0.355,0.782C529.018,331.467,526.487,333.465,522.95,333.237z
	 M541.42,332.499c1.836-2.823,3.882-4.412,7.256-4.994C546.803,330.246,544.88,332.01,541.42,332.499z M558.426,318.482
	c1.275-2.594,5.285-4.986,7.484-4.468C564.896,316.342,562.018,318.06,558.426,318.482z M588.823,307.913
	c-0.129-0.368-0.261-0.739-0.389-1.108c1.354-1.162,2.755-2.176,4.727-1.371c0.088,0.261,0.18,0.517,0.268,0.776L588.823,307.913z
	 M301.521,388.231c2.209-0.796,4.145-1.492,6.21-2.234c1.068,1.779,0.692,3.263-0.928,4.181
	C304.521,391.47,303.377,389.26,301.521,388.231z M313.322,207.324c1.925,2.139,3.565,3.954,5.376,5.961
	c-0.026,0.042-0.249,0.441-0.499,0.821c-3.663,5.542-3.617,5.494-8.252,0.854c-1.146-1.149-1.151-2.028-0.271-3.143
	C310.788,210.413,311.93,209.037,313.322,207.324z M317.563,203.946c1.743-0.529,3.627-0.593,6.048-0.953
	c-0.7,3.101-1.213,5.558-1.825,7.989c-0.359,1.414-1.36,1.566-2.436,0.823c-1.072-0.737-2.089-1.578-3.026-2.477
	C314.279,207.352,314.809,204.785,317.563,203.946z M466.033,129.589c-2.668,1.331-4.006,3.996-3.817,7.223
	c0.26,4.472,4.466,9.417,8.542,9.905c7.507,0.897,12.121-1.484,13.753-7.606c1.154-4.336,1.731-8.829,2.505-12.923
	c0.075,0.339,0.435,1.112,0.398,1.869c-0.189,4.421-0.353,8.85-0.781,13.252c-0.18,1.868,0.14,2.918,2.034,3.499
	c3.924,1.205,7.306,0.234,9.75-2.857c6.994-8.849,11.451-18.706,11.079-30.275c-0.169-5.278-2.42-9.379-6.785-12.451
	c-7.779-5.467-16.417-8.474-25.824-9.26c-3.182-0.265-6.407-0.042-9.268-0.042c1.907,2.685,3.993,5.128,5.536,7.878
	c3.18,5.671,2.906,11.811,1.827,17.985C473.958,121.659,471.857,126.682,466.033,129.589z M476.901,143.206
	c-2.439,0.863-5.159-0.076-6.981-2.724C472.629,141.539,474.704,142.347,476.901,143.206z M460.744,183.113
	c0-0.732-0.14-1.463-0.215-2.194c0.217-0.042,0.438-0.083,0.658-0.126c0.504,2.793,1.179,5.57,1.479,8.383
	c0.553,5.218-0.069,10.32-2.271,15.137c-0.455,0.989-1.007,2.234-2.462,1.009c0.874,2.981-1.415,5.164-4.871,4.819
	c-0.44-2.781-0.876-5.524-1.392-8.773c1.12,0.374,2.232,0.742,3.351,1.117c0.152-0.737,0.044-1.79,0.493-2.163
	C461.087,195.721,460.77,189.376,460.744,183.113z M340.732,333.986c-2.523-9.326-4.371-12.176-12.38-19.334
	c0.99-0.445,1.841-0.966,2.764-1.223c2.817-0.775,5.65-1.507,8.499-2.143c4.196-0.938,5.99,0.58,6.389,4.713
	c0.385,3.996-0.176,7.643-2.31,11.162C342.52,329.094,341.861,331.326,340.732,333.986z M318.631,363.622
	c0.806-7.918-1.713-15.146-5.884-21.685c-5.327-8.357-12.581-13.778-23.142-13.046c-5.149,0.357-9.514,2.234-11.941,7.084
	c-1.628,3.238-2.849,6.676-4.4,9.957c-2.887,6.092-4.668,12.499-5.671,19.135c-0.684,4.509-0.824,9.156-2.001,13.522
	c-0.211,0.774-0.433,1.545-0.665,2.313c-0.024,0.092-0.052,0.174-0.075,0.262c-0.209,0.684-0.422,1.364-0.64,2.046
	c-0.006,0.017-0.011,0.031-0.017,0.048c-1.476,4.548-3.207,9.027-4.768,13.553h-0.003c-0.024,0.002-0.046,0.005-0.068,0.005
	c-0.001,0.002-0.005,0-0.007,0.002c0.017,0.021,0.035,0.044,0.053,0.069c-0.002,0-0.002,0.002-0.002,0.006l0.002-0.006l0,0
	c-0.002,0,0.002-0.003,0.002-0.007c0,0,0.002-0.002,0.002-0.006c0.01-0.023,0.029-0.065,0.029-0.065
	c-0.48,3.27-1.052,6.524-1.42,9.805c-1.346,12.076,2.888,22.535,9.656,32.151c9.154,13.009,21.584,21.267,37.056,24.916
	c4.329,1.021,8.712,1.029,12.755,0.441c-4.65-2.661-9.632-5.101-14.17-8.198c-7.446-5.091-12.346-12.27-15.631-20.648
	c-3.708-9.461-5.469-19.24-5.374-29.373c0.022-2.425,0.575-2.905,3.022-2.729c1.49,0.103,2.973,0.362,4.468,0.555
	c0.229-2.283-1.077-3.608-3.044-4.081c-2.149-0.517-4.391-0.715-6.607-0.854c-1.508-0.095-2.508,0.564-2.774,2.339
	c-1.085,7.261-1.608,14.466,0.238,21.722c2.376,9.337,5.887,18.098,12.476,25.297c2.799,3.061,5.994,5.756,9.407,8.996
	c-1.093-0.571-1.808-0.845-2.408-1.277c-6.026-4.323-11.491-9.259-15.999-15.16c-7.295-9.55-10.96-20.142-7.931-32.142
	c1.378-5.462,3.424-10.808,5.687-15.981c0.946-2.157,2.907-4.45,4.994-5.408c4.531-2.082,9.503-2.646,14.369-0.796
	c2.885,1.102,5.419,0.205,7.951-0.94c0.411-0.187,0.921-0.952,0.831-1.319c-0.944-4.012-1.446-8.205-4.007-11.634
	c-4.777-6.409-16.147-8.236-24.426-3.31c-6.681,3.966-9.38,10.745-10.859,18.07c-0.146,0.728-0.717,1.369-1.088,2.053
	c-0.252-0.11-0.497-0.217-0.742-0.326c0.133-0.658,0.199-1.344,0.418-1.976c0.632-1.854,1.299-3.691,1.999-5.519
	c2.917-7.569,6.867-13.688,15.604-16.107c8.956-2.471,21.463,1.253,24.087,12.28c0.554,2.339,1.599,4.561,2.416,6.835
	c0.625-1.039,0.781-1.954,0.941-2.87c0.758-4.248,1.868-8.236,4.897-11.656C317.639,368.366,318.408,365.821,318.631,363.622z
	 M274.786,439.588c0.726-0.106,1.505,0.197,2.861,0.441c-0.803,0.987-1.198,1.863-1.599,1.869c-0.669,0-1.343-0.557-2.014-0.88
	C274.279,440.519,274.473,439.633,274.786,439.588z M291.765,371.152c0.851,0.526,1.687,0.759,1.869,1.237
	c0.196,0.517-0.22,1.265-0.366,1.909c-0.75-0.289-1.624-0.438-2.178-0.938C290.885,373.172,291.438,372.154,291.765,371.152z
	 M289.664,373.141c0.192,0.517,0.385,1.032,0.576,1.549c-0.693,0.251-1.377,0.498-2.068,0.748c-0.168-0.4-0.333-0.794-0.498-1.191
	C288.338,373.878,289.001,373.509,289.664,373.141z M267.525,405.624c0.855-4.814,2.446-9.511,3.87-14.209
	c1.659-5.493,3.482-10.933,4.956-15.54c0.614,3.558-0.57,7.902-2.331,11.995c-4.003,9.303-6.532,18.855-6.066,29.081
	c-0.255-0.011-0.506-0.02-0.759-0.029C267.267,413.148,266.878,409.295,267.525,405.624z M286.844,342.402
	c-0.585,0.146-1.708-0.362-1.981-0.891c-0.282-0.557,0.154-1.486,0.395-2.998c1.361,0.805,2.254,1.054,2.678,1.641
	C288.779,341.34,287.806,342.166,286.844,342.402z M297.4,354.096c-0.68-0.38-1.672-0.604-1.956-1.177
	c-0.258-0.517,0.257-1.419,0.585-2.805c1.091,0.803,2.047,1.168,2.086,1.607C298.176,352.488,297.67,353.302,297.4,354.096z
	 M307.002,350.279c-0.131-0.531-0.16-1.085-0.229-1.633c0.389-0.042,0.922-0.27,1.142-0.099c0.459,0.359,0.865,0.885,1.093,1.422
	c0.271,0.644,0.328,1.375,0.563,2.434c-0.891,0.042-1.948,0.092-3.552,0.167c0.719-0.68,1.064-1.004,1.465-1.38
	C307.313,350.885,307.078,350.601,307.002,350.279z M309.844,366.838c-0.518,0.242-1.968-0.276-2.107-0.734
	c-0.211-0.702,0.354-1.633,0.719-2.933c1.035,0.673,2.09,0.997,2.229,1.551C310.843,365.357,310.379,366.593,309.844,366.838z
	 M311.643,356.45c-0.581-0.163-1.212-0.511-1.563-0.984c-0.201-0.271,0.105-0.918,0.285-2.005c1.015,0.844,1.66,1.231,2.049,1.796
	C312.527,355.418,311.794,356.492,311.643,356.45z M291.273,272.746c0.017,0.005,0.031,0.008,0.048,0.015
	c0.015,0.022,0.032,0.052,0.048,0.075c-0.022-0.008-0.039-0.016-0.059-0.03c-0.016-0.018-0.024-0.038-0.035-0.06H291.273z
	 M291.321,272.761L291.321,272.761c0,0,0-0.001,0-0.003c-0.165-0.272-0.378-0.575-0.593-0.879c-0.439-0.623-0.889-1.251-0.934-1.632
	c-0.004-0.004-0.004-0.01-0.004-0.014c-0.006-0.041-0.006-0.079,0.004-0.111c0.003-0.034,0.016-0.063,0.031-0.094
	c1.27-2.031,2.939-3.812,4.558-5.603c0.141-0.154,1.056,0.19,1.458,0.503c1.427,1.091,2.79,2.27,4.533,3.716
	c-0.389,0.25-0.758,0.519-1.107,0.794c-0.046,0.035-0.082,0.069-0.126,0.101c-0.136,0.105-0.267,0.213-0.391,0.322
	C296.399,271.84,294.662,273.997,291.321,272.761z M332.103,204.775c-0.123,1.455-0.696,2.893-0.694,4.338
	c0.004,2.635-0.974,3.668-3.052,2.815c-5.564-0.412-5.612-0.419-4.609-5.348c0.266-1.288,0.691-3.403,1.411-3.576
	c2.002-0.47,4.204-0.188,6.307-0.014C331.741,203.013,332.156,204.174,332.103,204.775z M291.309,272.806c0,0,0,0,0.002,0
	c0.258,0.495,0.471,0.907,0.387,1.385c0,0.01-0.01,0.022-0.01,0.034c-0.015,0.084-0.042,0.17-0.077,0.261
	c-0.084,0.202-0.226,0.418-0.439,0.656c-6.378,7.21-9.629,15.694-9.915,25.332c-3.5-4.065,1.296-22.236,7.607-28.87
	C289.674,272.003,290.491,272.405,291.309,272.806z M305.895,223.007c0,0,0-0.001-0.004-0.004l0,0
	c-0.003-0.007-0.007-0.019-0.011-0.027l0.004,0.003l0.061,0.063c-0.021-0.022-0.057-0.061-0.061-0.064l-0.004-0.002
	c0.015,0,0.028,0.003,0.044,0.005l0,0l0,0c0.015,0.025,0.022,0.047,0.033,0.071C305.938,223.037,305.917,223.022,305.895,223.007z
	 M305.495,222.725c0.134,0.092,0.265,0.186,0.396,0.278c0.488,1.047,0.767,2,0.275,2.835c-0.01,0.018-0.019,0.038-0.025,0.054
	c-0.077,0.12-0.169,0.241-0.282,0.355c-0.002,0.006-0.006,0.01-0.011,0.014c-0.056,0.059-0.118,0.113-0.182,0.168
	c-0.019,0.016-0.029,0.03-0.048,0.046c-0.169,0.137-0.366,0.272-0.6,0.402c-7.296,4.129-22.663,3.222-27.975-2.533
	c4.19,0.673,8.872,1.76,13.603,2.09c4.939,0.341,9.688-0.664,12.829-5.166C304.24,221.817,304.881,222.276,305.495,222.725z
	 M306.183,223.043c-0.083-0.028-0.169-0.056-0.259-0.063c-0.412-0.88-0.715-1.639-0.895-2.322c-0.062-0.226-0.111-0.444-0.143-0.659
	c-0.035-0.21-0.059-0.412-0.064-0.608c0-0.041-0.005-0.081-0.005-0.118c-0.002-0.255,0.027-0.5,0.077-0.741
	c0.065-0.342,0.185-0.675,0.357-1.007c0.513-0.992,1.497-1.98,3.034-3.215c0.546,0.464,1.12,0.925,1.659,1.422
	c3.467,3.201,3.146,5.664-0.838,8.345c-0.182,0.125-0.346,0.204-0.502,0.264c-0.031,0.01-0.068,0.03-0.1,0.041
	c-0.051,0.016-0.097,0.02-0.146,0.03c-0.034,0.005-0.076,0.017-0.113,0.022c-0.029,0.001-0.055-0.005-0.088,0
	c-0.046,0-0.096,0-0.141-0.005c-0.012-0.001-0.021-0.005-0.033-0.01C307.22,224.29,306.85,223.305,306.183,223.043z
	 M335.035,202.833c-0.754,0.036-1.967,0.831-2.101,1.463c-0.44,2.073-0.55,4.231-0.625,6.359c-0.017,0.497,0.487,1.308,0.938,1.479
	c2.425,0.907,4.906,1.66,7.591,2.539c0.424-1.477,0.751-2.607,1.1-3.829c0.558,5.807,2.626,7.816,7.549,7.236
	c0.627-0.074,1.162-0.911,2.161-1.744c1.609,1.071,3.104-0.398,4.269-1.696c0,2.22-0.177,4.571,0.05,6.886
	c0.234,2.429,0.718,4.859,1.343,7.224c2.979,11.246,8.847,21.09,14.799,30.951c5.882,9.745,13.205,18.228,21.239,26.178
	c0.564,0.555,1.174,1.069,1.762,1.603c0.215-0.145,0.433-0.291,0.643-0.436c-1.374-2.41-2.75-4.82-4.125-7.228
	c0.156-0.154,0.315-0.31,0.473-0.465c1.62,2.127,3.112,4.377,4.918,6.333c1.16,1.262,2.717,2.215,4.244,3.023
	c0.383,0.205,1.82-0.555,1.953-1.08c0.893-3.488,1.866-7.031-0.234-10.486c-4.259-7.012-8.143-14.276-12.816-20.998
	c-5.584-8.033-11.663-15.679-12.533-25.947c-0.066-0.758-0.621-1.477-1.177-2.724c-0.354,2.452-0.608,4.234-0.865,6.014
	c-0.169,0.015-0.341,0.026-0.511,0.039c-1.065-5.561-2.132-11.121-3.198-16.681c-0.196,0.019-0.393,0.036-0.589,0.054
	c-0.245,2.086-0.49,4.175-0.736,6.262c-0.259,0.025-0.519,0.049-0.779,0.077c-0.314-1.774-0.899-3.548-0.897-5.322
	c0.005-4.635-0.259-9.214-2.159-13.499c-1.539-3.464-4.166-4.267-7.392-2.317c-1.284,0.779-2.325,1.964-3.7,3.16
	c-4.215-2.793-9.094-3.788-14.414-3.408c0.883,1.273,1.537,2.216,2.193,3.161c-0.174,0.172-0.344,0.345-0.517,0.514
	C340.757,203.113,337.936,202.684,335.035,202.833z M389.743,267.065c0.659,0.188,1.635,0.164,1.93,0.603
	c1.411,2.068,2.474,4.307,1.392,7.005c-1.247-2.34-2.487-4.682-3.729-7.024C389.47,267.458,389.605,267.26,389.743,267.065z
	 M376.617,251.772c0.266-0.076,0.529-0.154,0.793-0.232c0.719,2.373,1.439,4.747,2.159,7.117c-0.293,0.069-0.584,0.133-0.88,0.199
	C377.217,256.712,375.91,254.52,376.617,251.772z M368.645,242.014c-0.594-2.739-1.186-5.481-1.886-8.722
	C369.719,235.149,370.645,239.047,368.645,242.014z M363.019,207.018c0,1.343,0,2.36,0,3.51c-1.455-0.551-2.743-1.043-4.551-1.734
	C360.253,208.096,361.562,207.587,363.019,207.018z M585.893,248.405c0.125-0.979,0.274-1.957,0.374-2.935
	c0.594-6.044,0.601-12.053-1.063-18.08c-1.986,6.564-5.212,12.089-11.615,15.182c-4.688,2.264-12.543,3.242-19.395,2.036
	c3.388-0.813,6.818-1.357,10.253-1.89c8.977-1.394,15.966-5.168,18.514-14.744c2.021-7.586,0.581-14.81-1.658-22.748
	c-2.059,8.345-7.553,12.452-14.752,13.585c-6.761,1.069-13.751,1.157-20.623,0.963c-5.13-0.15-9.67-2.452-12.78-6.885
	c-0.582-0.833-1.169-1.666-1.755-2.496c0.021,3.968,0.469,7.778,1.169,11.546c1.166,6.257,4.714,10.565,10.971,12.253
	c9.104,2.457,18.301,2.888,27.561,0.83c0.951-0.213,1.953-0.181,3.525-0.313c-2.188,2.522-4.56,3.168-6.937,3.538
	c-8.337,1.301-16.503,0.242-24.601-1.902c-5.234-1.384-8.771-4.583-10.975-9.418c-0.272-0.598-0.609-1.164-0.969-1.85
	c-1.179,2.521-2.121,4.795-3.311,6.934c-0.337,0.606-1.457,1.252-2.083,1.139c-3.449-0.631-6.856-1.49-10.375-2.291
	c0.642-4.162,1.317-8.437,1.952-12.72c0.795-5.434,0.069-10.53-1.738-12.532c-0.421,2.627-0.847,5.264-1.297,8.083
	c-1.797-3.952-3.472-7.636-5.15-11.322c-0.216,0.094-0.433,0.19-0.648,0.282c0.264,0.849,0.462,1.724,0.797,2.539
	c1.831,4.418,1.766,8.883,0.849,13.522c-0.771,3.9-0.98,7.911-1.455,11.973h-2.5c1.03-4.567,1.932-8.702,2.891-12.818
	c1.222-5.214-0.433-9.216-5.013-11.971c-4.035-2.425-8.383-3.278-13.02-2.43c-2.33,0.428-4.635,0.999-6.953,1.505
	c0.046,0.208,0.09,0.415,0.139,0.623c11.307-0.046,12.243,0.135,14.668,2.884c-2.535,1.203-5.013,2.456-7.561,3.563
	c-2.584,1.124-4.229,2.833-4.93,5.684c-1.158,4.721,0.132,9.065,1.631,13.617c-0.64,0.092-1.164,0.17-1.683,0.244
	c-3.722-13.292-9.841-16.348-22.19-10.169c4.115-0.045,8.167-0.581,10.463,2.615c2.021,2.819,3.066,6.347,4.59,9.664
	c-2.454,0.753-4.208,1.288-5.947,1.823c-5.186-7.863-14.196-8.37-19.893-3.687c5.492-0.227,9.777,1.505,12.001,6.424
	c-3.675,2.271-7.251,4.484-10.822,6.695l-0.004,0.003c-2.561-3.936-6.679-5.666-10.979-5.071c-0.349,0.05-0.697,0.11-1.049,0.188
	c-0.312,0.071-0.623,0.152-0.935,0.247c-0.167,0.05-0.329,0.104-0.495,0.161c-0.264,0.091-0.521,0.189-0.782,0.297
	c-0.299,0.125-0.596,0.253-0.889,0.397c-1.048,0.515-2.076,1.173-3.073,1.972c7.51,0.461,10.946,2.281,12.68,6.797
	c-1.94,1.688-3.908,3.398-5.86,5.1c-6.068-5.35-13.011-5.12-19.832,1.034c5.7-1.104,10.975-1.35,14.357,3.95
	c-1.999,1.986-3.843,3.822-5.68,5.644c-2.026-2.351-4.516-3.767-7.181-4.133c-4.119-1.625-3.278-1.744-2.653-5.43
	c0.696-4.121,0.011-8.155-1.294-12.438c-0.793,1.922-1.434,3.474-2.07,5.029c-0.074-0.034-0.149-0.064-0.221-0.093
	c0.811-4.557,2.063-9.092,2.313-13.678c0.25-4.526-0.515-9.114-0.835-13.673c0.092-0.02,0.187-0.039,0.276-0.061
	c0.6,1.794,1.189,3.589,1.925,5.801c1.238-4.42,2.036-8.335-0.84-12.089c-0.698-0.918-0.997-2.145-1.479-3.228
	c3.061,3.139,4.34,3.588,8.667,2.83c2.342-0.412,4.704-0.715,7.056-1.065c0.036,0.106,0.075,0.216,0.106,0.326
	c-1.54,0.797-3.081,1.596-4.789,2.481c5.045,1.509,9.579-0.571,11.35-4.872c0.75-1.813,0.297-3.191-1.016-4.423
	c-1.138-1.067-2.285-2.136-3.506-3.105c-3.209-2.541-6.832-4.01-10.957-3.357c-1.084,0.174-2.025,1.33-3.006,2.07
	c-0.669,0.505-1.289,1.079-1.932,1.622c-0.234-0.201-0.468-0.4-0.702-0.6c0.282-0.979,0.508-1.983,0.869-2.938
	c0.617-1.639-0.01-2.136-1.587-1.904c-1.859,0.27-3.715,0.639-5.59,0.765c-3.816,0.26-4.83,1.649-3.42,5.26
	c0.603,1.54,0.454,2.677-0.432,4.092c-1.468,2.349-2.774,4.837-3.799,7.406c-0.759,1.908-0.968,4.035-1.422,6.064
	c0.178,0.03,0.352,0.064,0.531,0.096c1.085-1.389,2.17-2.773,3.255-4.159c0.167,0.106,0.334,0.213,0.502,0.316
	c-0.502,0.787-0.87,1.716-1.526,2.331c-2.234,2.08-2.659,4.858-2.975,7.604c-0.451,3.92-0.909,7.873-0.876,11.809
	c0.063,7.46-0.999,15.195,3.948,22.156c-0.066-0.026-0.131-0.05-0.195-0.078c0.578,0.899,1,1.908,1.287,2.957
	c0.125,0.236,0.248,0.475,0.367,0.716c1.103,0.338,2.267,0.549,3.469,0.689c1.662,0.194,3.33,0.674,3.815,3.013
	c-2.344-0.831-4.47-1.576-6.589-2.325c1.084,3.114,1.91,6.113,4.674,7.564h-0.013c0,0,2.626,1.708,7.193,2.183
	c-0.768,0.794-1.521,1.604-2.225,2.454c-1.659,2.005-2.949,4.313-4.402,6.486l0.876,1.02c4.607-2.173,9.319-4.148,13.789-6.569
	c4.146-2.243,4.498-5.519,1.402-8.935c3.397-0.59,3.807,0.315,3.055,7.561c2.35-1.888,4.304-3.587,6.389-5.106
	c2.494-1.815,4.883-4.248,7.701-5.054c6.961-1.987,13.306,0.487,18.936,4.56c6.633,4.801,10.703,11.622,14.376,18.788
	c2.419,4.714,5.222,9.261,8.211,13.638c2.505,3.666,4.435,7.424,4.99,11.871c0.837,6.738-1.774,12.182-6.209,16.978
	c0.269-1.587,0.636-3.242,1.566-4.462c3.039-4.005,3.512-8.535,2.481-13.111c-0.686-3.035-1.88-6.223-3.722-8.686
	c-5.063-6.758-8.454-14.406-12.585-21.669c-4.264-7.49-10.145-13.285-18.768-15.739c-5.521-1.574-10.327-0.968-14.815,3.109
	c-3.233,2.943-6.982,5.448-10.816,7.582c-4.63,2.582-9.522,4.739-14.437,6.755c-3.479,1.43-5.956,3.42-7.166,7.134
	c-1.438,4.426-3.334,8.701-4.917,13.083c-1.954,5.405-3.792,10.85-5.684,16.281c-0.222-0.062-0.445-0.124-0.669-0.181
	c1.131-4.329,1.854-8.814,3.474-12.949c3.554-9.082,5.4-18.927,11.634-26.852c0.249-0.316,0.541-0.729,0.539-1.093
	c-0.014-1.25,0.301-2.936-0.367-3.624c-0.682-0.708-2.392-0.627-3.619-0.523c-0.704,0.063-1.562,0.711-1.976,1.34
	c-2.017,3.063-4.362,6.021-5.768,9.36c-2.376,5.652-3.871,11.515-5.073,17.456c-0.841-0.485-2.088-0.779-3.771-0.92
	c-1.146-7.648-3.29-15.061-8-22.264v9.036c-1.297-2.995-2.304-5.937-3.781-8.617c-4.75-8.616-9.57-17.195-14.596-25.65
	c-1.429-2.402-3.254-5.216-5.601-6.271c-3.205-1.438-3.552-3.542-3.636-6.28c-0.023-0.82-0.002-1.658-0.134-2.464
	c-0.759-4.68-3.47-6.029-7.737-3.933c-1.682,0.826-3.356,1.99-5.136,2.215c-4.243,0.529-5.027,2.205-5.201,6.057
	c-0.205,4.488,0.682,5.598,4.9,6.34c-0.027,0.018-0.053,0.035-0.08,0.054c1.608,0.028,2.985,0.194,4.593,0.653
	c1.217,0.342,2.551,0.612,3.648,1.27c0.255,0.069,0.512,0.146,0.763,0.222c-0.031,0.172-0.052,0.354-0.071,0.537
	c0.064,0.275,0.009,0.569-0.131,0.807c-0.038,0.127-0.084,0.25-0.15,0.36c-1.928,3.339-1.823,6.777-0.311,10.145
	c2.419,5.382,4.871,10.766,7.58,16.008c3.646,7.056,7.207,14.197,11.443,20.9c4.684,7.416,10.386,9.496,18.014,7.692
	c0.557,1.678-0.228,2.163-1.789,2.289c-4.706,0.378-8.926-0.835-12.732-3.591c-1.278-0.927-2.578-1.83-3.872-2.747
	c-0.128,0.175-0.259,0.351-0.387,0.525c3.991,5.472,8.891,9.784,15.735,11.49c0.713,0.181,1.643-0.126,2.374-0.438
	c2.606-1.105,4.772-2.717,6.466-4.836c-0.74,4.204-1.479,8.406-2.42,12.56c-0.804-0.754-1.706-1.434-2.67-2.069
	c-5.643-3.721-11.33-7.365-17.002-11.035c-2.168-1.404-21.549-7.848-23.913-6.788c-4.11,1.837-0.389,4.36-2.337,10.128
	c-1.127,3.326-0.242,4-2.492,5.998c-0.389,0.874-1.73,1.942-2.611,3.341c-1.84,2.914-2.341,5.931-1.877,9.338
	c0.23,1.695,0.885,2.475,2.352,2.889c5.168,1.455,10.311,3.027,15.52,4.323c2.833,0.709,5.518,0.023,7.948-2.192
	c-6.219-3.394-13.011-5.408-17.846-10.605c1.335,0.429,2.479,1.208,3.727,1.754c3.937,1.723,7.884,3.437,11.883,4.994
	c3.242,1.265,6.129,2.816,8.013,5.95c0.995,1.651,2.289,3.191,3.711,4.502c0.807,0.742,2.154,1.326,3.221,1.271
	c2.936-0.163,5.776-0.631,6.642-4.347c0.178-0.756,1.961-1.776,2.784-1.611c0.063,0.015,0.115,0.029,0.172,0.052
	c0.255-0.024,0.527-0.024,0.803-0.022c-0.723,2.252-1.6,4.459-2.774,6.585c-0.693,1.246-0.462,3.493,0.222,4.833
	c0.372,0.729,2.593,0.519,3.98,0.72c0.205,0.031,0.418,0.008,0.788,0.008c-0.204,1.147-0.473,2.17-0.55,3.203
	c-0.215,2.847,1.018,3.992,3.759,3.455c2.471-0.48,4.915-1.087,7.394-1.646c1.431,2.562,4.092,3.59,7.554,2.923
	c1.366-0.262,0.017,0.033,1.366-0.262c2.296,4.213,6.96,7.893,7.748,12.061c0.315,1.666,0.349,3.629,0.92,5.101
	c1.618,4.16,3.827,8.092,5.684,11.867c5.951-2.533,11.496-4.771,16.921-7.266c2.11-0.968,2.524-3.071,1.274-5.23
	c-2.717-4.708-5.482-9.391-8.374-13.994c-1.624-2.584-3.263-5.165-4.963-7.699c13.797-4.663,26.787-11.231,38.941-19.738
	c1.569-1.098,2.888-3.255,3.295-5.141c0.56-2.619,0.14-5.443,0.14-8.335c3.77,5.507,2.883,11.889-2.682,15.31
	c-8.507,5.229-17.28,10.03-26.048,14.827c-2.54,1.389-5.433,2.139-8.202,3.196c0.526,2.139,1.795,2.921,3.598,3.033
	c4.069,0.253,7.492-1.436,10.813-3.506c2.147-1.342,4.241-3.255,6.587-3.699c4.748-0.899,8.423-3.368,12.068-6.216
	c5.049-3.94,10.246-7.643,13.67-13.316c2.859-4.736,3.393-9.451,1.213-14.518c-0.488-1.142-0.839-2.348-1.257-3.521
	c7.547,8.372,4.168,16.159-1.607,23.981c0.922-0.085,1.562,0.033,2.009-0.211c4.154-2.238,8.498-4.221,12.358-6.896
	c5.472-3.796,7.723-9.152,6.178-15.912c-0.692-3.033-0.991-6.152-1.472-9.234c3.428,5.537,2.967,11.899,4.354,18.052
	c1.081-2.346,2.31-4.769,2.392-7.231c0.176-5.414,0.061-10.88-0.454-16.274c-1.039-10.838-5.259-19.739-15.971-24.373
	c-1.708-0.737-3.14-2.115-4.697-3.196c1.886,0.317,3.411,1.294,5.081,1.83c11.063,3.555,15.675,12.009,17.107,22.702
	c0.699,5.21,0.754,10.503,1.248,15.745c0.104,1.098,1.007,3.08,1.287,3.039c1.514-0.238,3.282-0.645,4.319-1.654
	c1.083-1.057,1.622-2.807,2.057-4.351c0.564-1.991,0.79-4.08,1.221-6.444c2.162,8.107-1.01,13.438-9.091,15.049
	c0.746,0.677,1.264,1.553,1.783,1.553c1.975-0.002,4.172,0.207,5.878-0.564c6.011-2.711,7.444-8.336,7.567-14.146
	c0.172-8.048-0.033-16.123-0.484-24.164c-0.414-7.45-3.011-14.201-7.664-20.169c-2.053-2.637-3.961-5.497-5.359-8.516
	c-3.007-6.465-4.198-13.298-2.646-20.396c0.279-1.273,0.332-3.182,2.489-2.411c-0.374,1.108-0.911,2.147-1.07,3.246
	c-1.279,8.72,0.813,16.777,6.131,23.613c5.954,7.66,10.2,15.887,10.603,25.64c0.367,8.96,0.234,17.943,0.195,26.916
	c-0.009,1.941,0.695,2.311,2.361,1.888c3.281-0.833,5.129-3.035,5.939-6.203c0.399-1.556,0.682-3.142,1.014-4.716
	c0.654,3.121,1.284,6.442-1.113,8.749c-2.037,1.96-4.779,3.181-7.204,4.727c1.146,1.19,2.81,1.759,4.99,1.31
	c4.747-0.983,7.546-4.084,8.6-8.471c1.14-4.754,1.994-9.643,2.276-14.515c0.447-7.742-0.407-15.411-3.076-22.793
	c-2.045-5.654-5.928-9.976-10.035-14.163c-5.855-5.966-7.768-12.971-5.363-21.035c0.466-1.571,1.055-3.19,3.221-2.8
	c-0.606,1.301-1.432,2.497-1.725,3.813c-1.616,7.198-0.059,13.463,5.611,18.522c6.589,5.873,10.645,13.152,12.269,21.884
	c1.811,9.739,1.457,19.433,0.052,29.148c3.394,0.585,6.218-0.632,7.635-4.269c1.098-2.823,1.154-6.055,1.633-8.893
	c3.726,5.912-0.416,14.223-8.121,15.319c-2.329,0.331-2.342,1.433-2.133,3.222c0.557,0.064,1.041,0.198,1.514,0.162
	c7.423-0.591,13.87-5.677,15.024-13.055c0.988-6.293,0.989-12.776,1.012-19.175c0.022-8.046-2.967-15.011-8.394-21.003
	c-3.589-3.962-6.928-8.149-10.45-12.326c3.702,0.881,5.742,3.793,8.155,6.201c9.888,9.861,14.539,21.666,12.53,35.905
	c1.825-0.278,2.949-0.452,4.072-0.627c0.075,0.204,0.152,0.402,0.226,0.604c-0.882,0.49-1.813,0.913-2.634,1.496
	c-0.54,0.383-1.27,0.971-1.307,1.512c-0.15,2.173-0.061,4.361-0.061,7.025c5.566-5.903,9.699-12.375,13.505-19.505h-4.512
	c1.976-1.766,4.398-3.109,5.606-5.167c3.748-6.381,4.919-13.671,6.57-20.543c-1.956,0.607-3.805,1.183-5.657,1.756
	c-0.123-0.222-0.246-0.446-0.369-0.671C583.123,255.089,585.377,252.391,585.893,248.405z M552.92,226.469
	c4.772-1.074,8.926-2.013,13.119-2.96C564.369,227.375,558.501,228.911,552.92,226.469z M441.896,265.33
	c0.96-2.425,4.925-3.302,3.466-7.38c1.196-0.172,2.287-0.331,3.445-0.495C448.432,261.146,443.826,266.128,441.896,265.33z
	 M456.047,262.314c-1.869-3.339,0.31-8.452-4.793-10.301C455.191,251.276,457.79,257.024,456.047,262.314z M464.168,259.627
	c-0.746-2.438-1.859-4.834-2.154-7.325c-0.293-2.48-0.099-4.865-3.713-5.149c2.394-1.517,4.438-0.455,4.987,2.27
	c0.318,1.6,0.291,3.264,0.522,4.886c0.238,1.686,0.599,3.351,0.912,5.025L464.168,259.627z M353.262,253.633
	c-0.743-2.827-2.053-5.679-0.595-8.563c0.309-0.008,0.62-0.019,0.926-0.028c0.435,3.019,0.869,6.039,1.394,9.693
	C354.145,254.217,353.362,254.013,353.262,253.633z M366.957,273.833c-0.271,0.063-0.543,0.125-0.809,0.186
	c-0.694-2.971-1.382-5.942-2.072-8.912c0.341-0.08,0.684-0.156,1.022-0.238C367.749,267.378,366.727,270.754,366.957,273.833z
	 M374.662,285.211c-0.286,0.01-0.576,0.019-0.859,0.025c-0.173-2.06-0.346-4.12-0.514-6.178c0.454-0.01,0.914-0.018,1.373-0.028
	V285.211z M385.713,307.646c-1.321-3.114-2.504-5.909-3.9-9.192C385.592,299.958,387.77,305.178,385.713,307.646z M346.385,334.716
	c-0.962-0.584-2.155-1.05-2.113-1.332c0.112-0.777,0.627-1.946,1.202-2.087c0.642-0.158,1.523,0.636,2.299,1.015
	C347.386,332.984,346.997,333.658,346.385,334.716z M389.131,327.93c0.803,0.577,1.407,0.901,1.82,1.389
	c0.082,0.104-0.578,1.177-0.844,1.155c-0.58-0.044-1.238-0.409-1.637-0.847C388.32,329.456,388.807,328.72,389.131,327.93z
	 M356.958,328.49c0.408-1.802,1.06-2.479,2.35-1.842c0.327,0.169,0.405,0.842,0.597,1.285
	C359.005,328.102,358.105,328.274,356.958,328.49z M366.46,330.409c-0.801-0.364-1.784-0.561-2.319-1.167
	c-0.259-0.29,0.34-1.338,0.724-2.64c1.189,0.796,2.193,1.12,2.45,1.751C367.512,328.843,366.781,329.713,366.46,330.409z
	 M391.767,342.223c-0.071-0.02-0.136-0.047-0.175-0.092c-4.976-5.398-11.12-3.448-17.071-2.827
	c-1.767,0.183-3.751,0.674-4.419-1.574c1.831-0.196,3.553-0.365,5.271-0.568c5.059-0.598,10.118-0.728,14.986,1.016
	c0.762,0.272,1.422,0.876,2.043,1.526C392.203,340.546,391.99,341.388,391.767,342.223z M382.69,330.016
	c3.122-0.426,5.788,2.054,8.858,2.852c0.565,0.145,0.868,1.303,1.255,1.924C389.327,333.153,386.016,331.582,382.69,330.016z
	 M412.465,313.902c-0.345-0.264-0.688-0.528-1.031-0.79l10.629-16.089c0.286,0.186,0.572,0.373,0.861,0.558L412.465,313.902z
	 M428.386,376.242c-0.148,0.225-1.426,0.109-1.66-0.221c-0.393-0.555-0.357-1.411-0.562-2.423c1.158-0.036,1.904-0.062,3.118-0.103
	C428.923,374.71,428.818,375.584,428.386,376.242z M427.184,361.287c0.096-0.027,0.19-0.061,0.282-0.09
	c-0.019,0.065-0.04,0.132-0.056,0.197C427.338,361.36,427.261,361.323,427.184,361.287z M432.661,378.91
	c-1.407-5.509-2.813-11.021-4.351-17.048C431.84,367.394,433.739,372.765,432.661,378.91z M440.639,335.063l-0.366-1.01
	c3.695-1.305,7.394-2.609,11.086-3.916c0.101,0.268,0.198,0.536,0.296,0.808C447.98,332.315,444.311,333.688,440.639,335.063z
	 M427.048,314.283c-0.157-0.143-0.317-0.28-0.473-0.418c7.481-10.638,15.085-21.18,26.01-29.07
	C443.987,294.724,435.517,304.503,427.048,314.283z M500.998,295.398c-0.176,2.246-0.353,4.495-0.558,7.142
	C498.963,300.039,499.073,297.03,500.998,295.398z M502.944,212.219h-7.352C498.067,209.284,500.988,209.438,502.944,212.219z
	 M498.456,233.787c2.087-0.666,2.908,0.475,3.423,1.923c1.263,3.528-0.034,6.87-0.854,10.862
	C499.399,242.068,502.259,237.337,498.456,233.787z M495.041,217.56c1.463,0.176,2.966,0.171,4.386,0.518
	c0.566,0.14,1.369,1.017,1.354,1.538c-0.084,3.506-0.363,7.004-0.586,10.623c-1.615,0.164-3.204,0.326-5.255,0.532
	c-0.68-3.772-1.369-7.422-1.981-11.086C492.701,218.14,493.396,217.357,495.041,217.56z M472.895,254.029
	c-0.903-2.303-1.853-4.594-2.697-6.92c-0.717-1.972-0.559-4.564-3.768-4.549c1.863-1.85,3.423-1.525,4.174,0.911
	c1.057,3.402,1.908,6.863,2.849,10.303C473.266,253.859,473.08,253.943,472.895,254.029z M476.463,238.554
	c2.076-1.071,3.708-0.4,4.439,2.043c0.531,1.774,0.684,3.675,0.863,5.534c0.195,2.028,0.223,4.077,0.33,6.115l-0.787,0.052
	c-0.408-2.451-0.927-4.893-1.188-7.362C479.845,242.246,479.525,239.683,476.463,238.554z M479.678,262.554
	c2.715-1.483,9.094,0.826,10.705,4.375C486.854,265.489,483.33,264.048,479.678,262.554z M509.43,271.984
	c0.834,1.067,1.047,2.619,1.66,4.273c-4.355-4.289-8.45-7.935-12.05-12.019c-1.933-2.194-3.155-5.077-4.44-7.774
	c-1.121-2.345-2-4.825-2.758-7.314c-0.752-2.467-1.514-4.998-1.73-7.546c-0.22-2.585-0.232-5.074-2.674-7.084
	c2.609-0.176,3.726,1.202,3.997,3.06c0.374,2.577-0.081,5.328,0.585,7.796c2.078,7.737,4.182,15.475,11.582,20.347
	C505.924,267.25,507.678,269.735,509.43,271.984z M535.732,280.878c2.748,2.252,3.323,5.164,3.261,8.417
	C536.862,288.063,535.405,284.318,535.732,280.878z M516.495,245.556c0.794-3.254,1.587-6.505,2.377-9.759
	c0.253,0.032,0.499,0.066,0.748,0.101C519.83,240.438,519.075,243.347,516.495,245.556z M533.016,251.556
	c-0.382-2.715-0.765-5.432-1.147-8.149c0.356-0.044,0.72-0.093,1.079-0.142c0.303,2.727,0.602,5.452,0.903,8.181
	C533.572,251.482,533.297,251.519,533.016,251.556z M559.049,252.057c-0.604,0.158-1.455-0.601-2.193-0.945
	c0.053-0.269,0.105-0.536,0.161-0.803c1.675-0.318,3.358-0.637,5.038-0.955c0.145,0.314,0.287,0.629,0.432,0.947
	C561.349,250.914,560.264,251.737,559.049,252.057z M562.921,255.815c3.642-0.419,7.341-0.839,11.444-1.31
	C572.169,257.306,567.334,257.689,562.921,255.815z M573.295,273.366c-1.78-1.022-3.56-2.046-5.338-3.069
	c2.608-0.966,4.665,0.125,5.786,2.388C573.595,272.912,573.443,273.138,573.295,273.366z M566.303,263.199
	c2.003-1.848,6.999-0.475,8.803,2.787C571.824,264.947,569.14,264.098,566.303,263.199z M382.485,137.949
	c-6.224,10.702-9.834,22.161-8.799,34.73c0.173,2.123,0.649,4.221,0.98,6.331l0.779-0.112c0.625-2.873,1.044-5.811,1.928-8.602
	c0.901-2.863,2.011-5.715,3.445-8.343c5.821-10.65,15.555-16.655,26.21-21.377c8.176-3.622,16.877-5.543,25.553-7.598
	c7.458-1.765,14.73-4.299,22.123-6.359c1.56-0.433,3.781-0.989,4.844-0.254c1.177,0.809,2.306,1.691,3.418,2.611
	c5.161-2.779,7.567-8.109,9.721-13.46c0.158-2.542,0.266-5.082,0.286-7.622c0.025-2.887-0.445-5.719-1.244-8.479
	c-0.811-1.926-2.383-3.32-3.558-5.145c-1.265-1.968-2.404-3.663-4.662-4.274c-0.104,0.034-0.203,0.067-0.309,0.106
	c-1.299,0.471-2.835,0.57-4.229,0.454c-4.006-0.337-8.001-1.323-11.983-1.234c-9.135,0.205-17.396,3.529-25.309,7.933
	C404.452,106.837,392.217,121.214,382.485,137.949z M428.371,102.15c8.134-2.228,16.247-2.95,24.338,0.304
	c1.751,0.703,2.955,1.742,2.391,4.469c1.14-1.273,1.871-2.088,2.604-2.911c4.102,3.226,8.578,6.057,9.419,11.932
	c-1.516-2.041-2.894-4.008-4.398-5.875c-0.66-0.819-1.467-1.724-2.401-2.067c-1.194-0.44-2.69-0.698-3.834-0.337
	c-0.512,0.161-0.48,2.029-0.667,2.981c-0.642-1.501-1.994-2.033-3.991-1.217c0.575,1.456,1.098,2.775,1.618,4.096
	c-0.083,0.039-0.167,0.082-0.246,0.12c-0.561-0.619-1.013-1.473-1.712-1.793c-0.67-0.31-1.594-0.068-3.113-0.068
	c0.861,1.073,1.186,1.403,1.422,1.784c0.244,0.4,0.403,0.851,0.602,1.277c-1.408-0.374-2.755-0.729-4.272-1.133
	c0.397,2.07,0.667,3.453,0.937,4.845c-0.883-0.883-1.633-2.239-2.4-2.248c-0.887-0.013-1.789,1.16-2.368,2.209
	c-0.735-0.07-1.47-0.142-2.588-0.251c0.692,1.56,1.214,2.716,1.727,3.873c-1.257-1.686-1.97-2.717-4.714-1.446
	c-7.91,3.669-16.146,6.633-24.26,9.863c-0.124,0.048-0.304-0.055-1.231-0.243c5.868-2.716,11.119-5.282,16.477-7.59
	c7.144-3.075,14.341-6.04,20.205-11.337c2.21-1.996,4.157-4.283,6.461-6.682C445.743,100.624,437.043,101.557,428.371,102.15z
	 M451.758,209.382c-0.566,1.505-1.918,3.302-3.326,3.794c-3.186,1.115-4.361-0.275-4.893-3.63c-0.309-1.93-1.659-3.694-2.65-5.771
	c2.217-1.25,4.913-1.798,7.676-1.509C451.538,202.574,453.094,205.832,451.758,209.382z M603.649,372.871
	c0.075,0.756,0.13,1.16,0.159,1.567c0.313,5.289-1.576,7.144-6.955,6.574c-0.654-0.07-1.609-1.047-1.729-1.724
	c-0.318-1.84-0.267-3.747-0.379-5.965c1.687-0.084,3.117-0.158,4.553-0.229C600.683,373.023,602.066,372.952,603.649,372.871z
	 M508.125,99.886c-0.287-0.137-0.688-0.019-0.515-0.019c1.217,2.827,2.875,5.611,3.619,8.623c1.626,6.594,0.319,13.117-2.013,19.3
	c-2.844,7.532-6.188,14.886-13.99,19.465c3.487,3.354,6.863,6.605,11.449,8.053c5.736,1.81,10.748,0.878,14.861-3.981
	c5.366-6.348,8.571-13.688,10.474-21.653c1.243-5.209,0.594-10.111-3.075-14.323C523.122,108.68,516.092,103.652,508.125,99.886z
	 M520.881,135.481c-2.289-1.749-4.58-3.496-6.871-5.247c0.172-0.225,0.345-0.446,0.517-0.671c2.768,1.137,5.304,2.57,6.888,5.231
	C521.234,135.027,521.059,135.252,520.881,135.481z M562.676,200.881c-4.66,0.818-9.474,1.141-14.211,1.087
	c-5.598-0.06-10.919-1.494-14.966-5.796c-1.616-1.72-3.083-3.587-4.613-5.39c-0.19,0.066-0.377,0.128-0.566,0.189
	c1.218,5.245,2.255,10.538,3.706,15.716c1.609,5.762,5.895,8.874,11.504,10.283c5.939,1.494,11.971,0.943,17.911,0.162
	c3.521-0.46,7.081-1.409,10.348-2.789c4.006-1.69,7.024-4.768,7.635-9.305c0.759-5.694-0.042-11.246-2.601-16.7
	c-0.316,0.694-0.552,1.208-0.777,1.72C573.465,195.985,568.966,199.775,562.676,200.881z M550.037,207.406
	c4.36-0.683,8.548-1.336,13.016-2.034C560.029,209.172,552.744,210.203,550.037,207.406z M604.441,360.263
	c-0.303,3.657-0.558,7.156-0.924,10.647c-0.042,0.395-0.693,1.001-1.107,1.034c-2.331,0.212-4.677,0.285-7.668,0.438
	c0.735-4.53,1.314-8.3,2.019-12.048c0.06-0.313,0.968-0.689,1.458-0.665C600.261,359.788,602.289,360.044,604.441,360.263z
	 M569.625,167.296c-1.679-3.933-3.762-7.695-5.969-12.14c-4.124,22.574-23.595,31.048-40.129,18.24
	c-0.222,0.112-0.439,0.228-0.66,0.342c2.905,5.714,5.603,11.543,8.777,17.098c2.645,4.626,6.922,7.424,12.222,8.305
	c6.985,1.157,13.889,0.657,20.675-1.417c4.143-1.266,7.197-3.888,9.292-7.568c1.664-2.919,2.376-5.959,0.93-9.362
	C572.882,176.366,571.513,171.721,569.625,167.296z M551.078,189.796c3.134-0.949,5.896-1.784,9.098-2.75
	C557.344,190.375,554.628,191.202,551.078,189.796z M545.478,184.881c5.077-2.299,10.353-4.682,15.84-7.163
	C556.906,182.597,551.707,185.149,545.478,184.881z M437.335,468.128c9.445,1.958,18.452,0.759,26.938-3.776
	c0.284-0.15,0.528-0.238,0.746-0.275c0.094-0.019,0.182-0.019,0.268-0.015c0.015,0,0.025-0.004,0.037-0.004
	c0.483,0.033,0.838,0.337,1.255,0.702c0,0,0,0.002,0.002,0.002c0.2,0.887,0.405,1.775,0.603,2.653
	C459.269,472.02,440.481,472.476,437.335,468.128z M318.924,244.098c5.243-3.017,10.848-4.681,16.945-3.954
	c1.453,0.174,2.842,0.899,4.552,0.869c-1.173-0.891-2.346-1.784-3.519-2.675c0.068-0.207,0.136-0.416,0.201-0.627
	c3.198,0.969,6.393,1.935,9.586,2.899c0.119,0.338,0.24,0.677,0.36,1.015c-7.313,0.399-6.763,5.244-6.185,10.097
	c-1.111,0.252-2.04,0.601-2.986,0.656c-3.734,0.206-6.729,1.754-9.286,4.473c-0.984,1.049-2.439,1.661-3.68,2.472
	c-0.218-0.275-0.435-0.551-0.654-0.828c1.066-1.343,2.133-2.688,3.165-3.99c-1.791,0.583-3.477,1.129-5.403,1.752
	c0.336,1.585-1.002,2.086-2.873,2.747c-2.41,0.855-4.567,2.435-6.808,3.749c-1.052,0.619-2.043,1.345-3.011,1.988
	c-1.56-1.906-3.077-3.756-4.595-5.608c1.012,1.924,2.021,3.851,3.027,5.763c-7.842,4.272-6.672,4.517-12.341-1.853
	c1.825-1.693,3.751-3.339,5.502-5.153c1.422-1.482,2.446-0.182,3.625,0.247c-0.784-1.121-0.742-1.862,0.776-2.333
	c1.641-0.508,3.283-1.111,4.773-1.953c1.98-1.117,3.808-2.504,6.165-4.086c0.824,0.328,2.392,0.951,3.956,1.573
	c0.125-0.167,0.254-0.338,0.38-0.505c-0.815-0.594-1.554-1.379-2.458-1.741c-1.854-0.741-1.93-1.804-0.865-3.211
	C317.762,245.235,318.253,244.486,318.924,244.098z M450.605,451.397c0.002-0.019,0.004-0.04,0.008-0.063
	c0.011,0.025,0.023,0.054,0.038,0.081c-0.004,0.017-0.009,0.031-0.015,0.049v-0.003
	C450.626,451.439,450.615,451.421,450.605,451.397z M422.963,471.849c2.356-1.534,5.25-2.939,6.581-5.192
	c1.76-2.987,1.52-6.788,0.473-10.239c-0.673-2.225-3.468-2.782-5.251-1.221c-3.784,3.321-7.477,6.76-11.398,9.902
	c-7.003,5.614-14.629,10.155-23.186,13.078c-9.683,3.312-19.502,5.96-29.755,6.788c0.01,0.279,0.017,0.556,0.026,0.833
	c6.146-0.312,12.307-0.468,18.435-0.968c8.354-0.684,16.416-2.613,24.203-5.855c5.073-2.109,10.377-3.679,15.568-5.495
	C420.109,472.971,421.703,472.664,422.963,471.849z M418.78,468.203c0.38-0.355,1.333-0.095,2.032-0.106
	c-0.032,0.743,0.175,1.641-0.174,2.185c-0.255,0.398-1.236,0.33-2.49,0.6C418.42,469.558,418.346,468.604,418.78,468.203z
	 M550.244,134.877c4.053,5.676,9.858,10.306,11.071,17.68c0.393,2.381-0.08,5.078-0.793,7.437
	c-3.292,10.89-14.506,18.178-25.856,16.902c-4.886-0.546-8.408-3.764-12.043-6.684c-1.071-0.857-2.188-1.653-3.28-2.476
	c0.2-0.197,0.396-0.394,0.598-0.591C534.1,170.841,552.974,155.471,550.244,134.877z M534.607,126.995
	c0.2-3.207-0.709-6.484-1.077-9.464c5.394,4.232,11.073,9.08,14.603,15.767c0.942,1.791,0.482,4.487,0.219,6.716
	c-1.322,11.19-7.302,19.047-17.455,23.813c-5.652,2.653-10.814,2.049-15.449-2.253c-1.078-1-2.18-1.979-3.744-3.397
	c6.531,0.127,10.715-2.946,13.82-7.627C530.273,143.38,534.06,135.73,534.607,126.995z M439.986,427.048
	c7.359,3.612,12.529,8.984,14.984,17.396c2.705-3.474,5.044-6.602,7.515-9.624c2.133-2.622,2.021-5.394,0.864-8.3
	c-0.623-1.558-1.393-3.056-1.972-4.626c-0.546-1.494-1.305-3.046-1.319-4.576c-0.053-6.064-1.976-11.604-4.56-16.914
	c-1.856-3.813-4.089-7.452-6.325-11.059c-0.937-1.507-2.534-1.959-4.266-1.122c-3.301,1.599-6.593,3.209-10.207,4.969
	c4.116,2.044,5.953,5.573,7.307,9.479c0.266,0.771,0.629,1.651,1.23,2.143c2.237,1.839,4.535,3.612,6.912,5.266
	c3.846,2.67,5.238,6.662,6.223,10.91c-0.654-0.652-1.179-1.388-1.566-2.188c-1.804-3.726-4.632-6.462-8.171-8.496
	c-3.057-1.758-5.403-4.113-6.815-7.406c-0.746-1.725-1.597-3.451-2.684-4.972c-2.914-4.099-5.975-3.904-8.65,0.36
	c-1.326,2.117-2.758,4.16-4.137,6.233c-2.305-1.386-2.361-2.109-0.375-3.409c3.063-2.01,3.184-2.866,1.292-6.077
	c-1.413-2.397-2.564-4.94-3.926-7.367c-0.535-0.951-1.329-1.756-2.009-2.63c-2.502,1.924-3.357,4.135-3.207,6.742
	c0.104,1.754,0.422,3.493,0.524,5.245c0.304,5.099,2.764,10.06,0.64,15.89c3.394-3.092,6.282-5.72,8.72-7.942
	c-2.92,6.104-6.075,12.698-9.417,19.681C425.028,423.183,432.636,423.439,439.986,427.048z M451.643,406.896
	c-0.688-0.54-1.371-1.075-2.058-1.616c0.416-0.456,0.83-0.913,1.248-1.369c0.592,0.644,1.184,1.285,1.777,1.93
	C452.284,406.19,451.965,406.544,451.643,406.896z M427.367,417.398c-0.277,1.367-0.186,2.399-0.644,2.797
	c-0.438,0.385-1.558,0.334-2.163,0.039c-0.297-0.146-0.406-1.615-0.088-1.883C425.051,417.855,426.009,417.804,427.367,417.398z
	 M278.739,396.56c1.216,0.095,2.405,0.166,3.587,0.287c1.219,0.123,2.445,0.242,3.65,0.456c3.217,0.568,5.524,2.648,5.691,5.422
	c0.575,9.694,3.37,18.811,6.949,27.751c2.943,7.351,7.734,12.843,15.133,15.66c-1.467-2.227-3.236-4.436-4.486-6.907
	c-3.296-6.53-2.96-13.39-1.582-20.376c1.006-5.084,1.881-10.232,2.247-15.394c0.366-5.177-3.487-9.355-8.086-9.581
	c-1.281-0.064-2.546-0.378-3.819-0.577c-0.004-0.075-0.008-0.146-0.017-0.22c2.293-0.173,4.582-0.345,7.21-0.541
	c-0.498-0.744-0.61-0.922-0.736-1.093c-1.939-2.641-5.156-2.356-7.805-3.276C288.347,385.27,281.379,388.583,278.739,396.56z
	 M297.402,405.186c0.148,0.433-0.442,1.122-0.708,1.693c-0.594-0.308-1.415-0.481-1.715-0.977c-0.235-0.391,0.163-1.169,0.408-2.454
	C296.425,404.295,297.215,404.634,297.402,405.186z M541.792,345.734c-8.795-0.013-17.604-0.203-26.388,0.184
	c-9.982,0.439-19.678,2.782-29.281,5.502c-4.319,1.224-8.707,3.145-13.237,0.105c-0.899-0.599-2.732-0.111-4.028,0.259
	c-1.633,0.469-3.145,1.354-4.727,2.023c-3.13,1.313-4.894,3.634-4.73,7.039c0.142,2.925-0.788,6.151,2.017,8.508
	c1.7,1.432,3.23,3.066,4.921,4.505c3.837,3.257,7.895,6.123,13.25,6.647c-5.078-5.125-12.033-8.664-12.879-16.786
	c0.701,0.665,1.135,1.521,1.565,2.377c3.451,6.849,8.827,11.882,15.987,14.201c11.657,3.772,23.779,5.638,36.023,7.594
	c-2.667,0.3-5.335,0.601-8.512,0.956c5.315,5.973,10.878,3.228,16.487,2.139c-0.971,1.201-2.038,2.205-3.264,2.462
	c-7.348,1.562-12.911,5.742-17.66,11.354c-1.838,2.176-3.917,4.212-6.14,5.987c-3.876,3.096-4.382,6.735-2.461,10.707
	c-0.055-0.022-0.108-0.037-0.165-0.059c-0.504,1.022-1.06,1.844-1.331,2.751c-1.061,3.582-3.266,6.139-6.502,7.994
	c-1.252,0.717-2.182,1.99-3.259,3.009c0.216,0.277,0.437,0.552,0.652,0.825c1.558-0.725,3.114-1.45,4.62-2.15
	c-0.98,1.604-1.904,3.118-2.957,4.846c-1.467-0.696-2.264,0.493-3.34,2.161c-1.391,2.149-3.426,3.882-5.218,5.753
	c-0.851,0.885-1.785,1.683-2.636,2.471c1.492,1.959,2.939,3.865,4.392,5.771c-1.641-1.431-3.276-2.858-4.904-4.28
	c-5.975,6.638-5.938,5.444-1.062,12.431c2.075-1.382,4.118-2.877,6.292-4.154c1.772-1.041,0.742-2.341,0.601-3.587
	c0.911,1.024,1.637,1.152,2.449-0.217c0.872-1.473,1.844-2.936,3.002-4.189c1.549-1.664,3.322-3.123,5.402-5.053
	c-0.121-0.87-0.368-2.542-0.609-4.209c0.191-0.081,0.383-0.165,0.576-0.252c0.393,0.93,0.982,1.829,1.126,2.794
	c0.29,1.976,1.307,2.294,2.925,1.585c0.74-0.322,1.584-0.629,2.113-1.191c4.15-4.398,7.064-9.466,7.772-15.567
	c0.167-1.453-0.214-2.973,0.209-4.629c0.594,1.345,1.189,2.696,1.788,4.043c0.217-0.021,0.438-0.037,0.654-0.055
	c-0.166-2.805-0.335-5.614-0.504-8.422c2.891-1.693,5.775-3.396,8.666-5.097c0.128,0.228,0.256,0.453,0.385,0.678
	c-2.527,1.503-5.051,3.006-7.577,4.505c5.282-0.174,9.36-2.875,13.298-5.846c4.232-3.188,5.349-8.046,6.217-13.02
	c0.238,0.084,0.479,0.165,0.723,0.249c0.166,1.506,0.337,3.009,0.48,4.281c3.283-1.932,6.598-3.646,9.604-5.791
	c0.953-0.679,1.813-2.746,1.47-3.762c-1.438-4.251-0.643-8.197,0.561-12.288c1.084-3.688-1.222-5.952-4.98-4.972
	c-3.309,0.857-5.997,0.218-8.638-2.002c-3.458-2.9-6.902-6.029-10.86-8.08c-11.391-5.901-23.852-7.75-36.516-8.402
	c-3.581-0.186-7.175-0.127-10.762-0.18c0.639-0.594,1.279-0.854,1.95-1.032c0.781-0.209,1.58-0.471,2.377-0.499
	c10.12-0.377,20.1,0.595,29.996,2.784c16.355,3.616,32.688,5.075,48.97-1.484c-1.407,1.327-2.739,2.584-4.428,4.183
	c5.008-0.504,8.064-3.372,11.077-6.123c0.708,4.292,1.043,8.531,2.166,12.552c1.177,4.225,2.826,8.379,4.78,12.307
	c2.124,4.263,5.813,4.582,9.219,1.294c0.925-0.898,2.037-1.612,2.906-2.557c0.732-0.795,1.741-1.785,1.767-2.712
	c0.176-6.142-2.034-11.708-4.545-17.173c-0.948-2.057-1.808-4.153-2.705-6.231c0.111-0.053,0.22-0.106,0.331-0.159
	c1.446,1.512,2.891,3.023,4.337,4.539c-1.076-2.979-2.65-5.54-4.085-8.179c-3.405-6.281-8.086-8.245-15.137-6.224
	c1.384,1.264,2.751,2.518,4.212,3.852c-3.89-1.167-7.384-2.685-11.017-3.182C550.704,345.546,546.222,345.74,541.792,345.734z
	 M506.296,422.563c0.359-0.205,0.713-0.409,1.072-0.619C507.025,422.21,506.668,422.415,506.296,422.563z M532.654,384.364
	c-1.683-0.719-3.363-1.444-5.315-2.278C529.506,380.271,531.465,381.088,532.654,384.364z M517.381,374.248
	c-2.771-0.422-5.543-0.834-8.313-1.25C512.07,371.677,514.912,371.679,517.381,374.248z M499.048,377.602
	c-1.687,2.507-3.717,1.327-5.715,0.638C495.239,378.026,497.146,377.816,499.048,377.602z M508.292,353.591
	c2.815-2.252,6.228-1.088,9.386-1.38C514.86,354.443,511.644,354.412,508.292,353.591z M526.652,356.143
	c3.105-0.742,5.904-1.408,9.006-2.151C535.035,357.021,530.84,357.951,526.652,356.143z M543.641,352.906
	c3.129-0.353,6.254-0.704,9.384-1.056c0.035,0.258,0.073,0.519,0.108,0.778C550.102,354.14,546.973,354.625,543.641,352.906z
	 M567.4,351c1.811-0.416,3.558-0.612,4.507,2.049c-1.584-0.359-3.169-0.715-4.749-1.072C567.237,351.652,567.32,351.326,567.4,351z
	 M566.748,367.868c1.037,2.845,2.069,5.685,3.106,8.531c-0.173,0.075-0.347,0.148-0.519,0.224c-1.016-2.863-2.033-5.728-3.048-8.588
	C566.439,367.979,566.594,367.923,566.748,367.868z M432.66,466.462c6.535-5.892,13.033-11.83,19.595-17.696
	c1.39-1.246,1.396-2.443,0.813-4.102c-2.958-8.401-9.121-13.555-16.985-16.991c-7.599-3.322-15.468-1.455-23.554-1.351
	c1.4,1.361,2.412,2.45,3.537,3.407c1.477,1.255,1.763,2.709,1.252,4.518c-1.126,4.006-3.169,7.356-6.823,9.468
	c-2.167,1.248-3.409,3.006-4.047,5.357c-0.363,1.343-0.845,2.659-1.365,3.953c-3.482,8.683-8.893,15.638-17.704,19.454
	c-7.212,3.126-14.834,4.564-22.631,5.099c-2.584,0.176-5.193,0.057-7.79,0.073c2.814-0.579,5.628-0.646,8.408-0.976
	c9.838-1.167,19.61-2.58,27.87-8.813c6.24-4.712,10.062-10.871,10.778-18.664c0.343-3.724-0.026-7.513-0.079-11.515
	c0.869,2.271,1.691,4.435,2.744,7.189c2.653-2.663,5.356-4.998,7.572-7.732c1.4-1.737,2.053-4.261,0.352-6.231
	c-2.063-2.396-4.524-4.357-7.895-4.856c-7.274-1.081-14.321,0.115-21.26,2.082c-10.771,3.056-20.631,7.808-27.828,16.751
	c-2.17,2.694-3.715,5.897-5.546,8.868c0.198,0.158,0.391,0.312,0.587,0.468c6.217-3.889,12.38-8.051,19.569-9.75
	c7.083-1.679,14.339-2.626,21.523-3.891c0.142,0.201,0.29,0.401,0.433,0.603c-1.509,2.15-2.757,4.555-4.574,6.396
	c-4.549,4.595-9.149,9.18-14.108,13.314c-6.928,5.778-14.978,9.29-24.038,10.323c-5.074,0.583-10.076,0.489-15.138-1.11
	c0.159,0.508,0.185,0.811,0.333,1.022c0.28,0.399,0.629,0.754,0.959,1.118c3.663,4.016,8.447,5.92,13.599,7.005
	c8.153,1.715,16.364,1.444,24.582,0.563c9.271-0.989,18.153-3.332,26.083-8.362c5-3.173,9.779-6.689,14.577-10.164
	c2.298-1.666,4.419-3.587,6.664-5.427c-0.562-0.695-1.07-1.32-1.554-1.919c-0.972-1.624-1.521-3.957,1.554-5.7
	c0,0,2.645-1.415,5.573-1.453c3.266,6.378,5.031,13.06,2.498,20.46C431.799,466.934,432.304,466.785,432.66,466.462z
	 M445.452,437.492c0.312,0.614,0.214,1.443,0.288,2.18c-0.658,0.004-1.601,0.27-1.901-0.061c-0.419-0.449-0.354-1.347-0.606-2.584
	C444.391,437.243,445.294,437.178,445.452,437.492z M375.024,464.599c0.313-0.353,1.007-0.361,1.896-0.629
	c-0.077,0.926,0.073,1.685-0.234,1.994c-0.279,0.284-1.141,0.26-1.571,0.035C374.878,465.872,374.792,464.86,375.024,464.599z
	 M433.723,439.269c0.308-0.046,1.035,0.735,1.054,1.158c0.071,1.693-1.105,1.808-2.527,1.699
	C431.9,440.54,432.229,439.478,433.723,439.269z M425.647,428.857c0.167-0.07,0.964,0.684,0.957,1.044
	c-0.015,0.526-0.435,1.43-0.781,1.481c-0.729,0.107-1.519-0.242-2.279-0.405c-0.046-0.251-0.087-0.502-0.13-0.757
	C424.148,429.746,424.853,429.192,425.647,428.857z M582.634,394.102c-0.212,0.042-0.447,0.088-0.724,0.14
	c0.006,0.009,0.009,0.02,0.017,0.032c-1.688,0.445-3.24,1.149-4.667,2.333c-0.072-0.02-0.143-0.036-0.208-0.053l-0.019-0.004
	c-0.048-0.005-0.094-0.015-0.138-0.021c-0.017-0.001-0.034-0.005-0.053-0.007c-0.042-0.004-0.083-0.007-0.127-0.011
	c-0.017,0-0.038-0.004-0.059-0.004c-0.048,0-0.097,0-0.143,0.004c-0.013,0-0.024,0-0.033,0c-0.057,0.004-0.115,0.013-0.174,0.023
	c-0.474,2.92-0.788,5.674-1.4,8.363c-0.332,1.455-1.307,2.38-2.322,1.359c-1.123,2.011-2.251,4.024-3.577,6.403
	c-2.569-2.413-4.631-4.347-6.92-6.497c1.548-1.323,2.979-2.511,4.369-3.744c2.934-2.604,4.98-5.408,4.215-9.819
	c-0.781-4.509,0.721-5.104,3.997-5.33c1.994-0.137,3.999-1.317,5.839-2.321c2.529-1.38,3.441-1.32,5.197,0.979
	c0.252,0.326,0.477,0.673,0.691,1.022c2.527,4.12,1.739,6.035-2.894,6.979C583.209,393.98,582.92,394.037,582.634,394.102z
	 M557.682,414.195c-0.002-0.002-0.006-0.004-0.01-0.004c3.674,5.178,2.117,4.371-2.221,5.822c-7.938,2.65-12.314,8.854-15.51,16.111
	c-0.719,1.624-1.174,3.361-2.271,4.949c0.405-2.268,0.625-4.593,1.262-6.794c2.114-7.322,6.434-13.174,12.337-17.936
	c1.377-1.114,2.566-2.461,3.95-3.812c0.396,0.268,0.801,0.54,1.213,0.817c0.412,0.278,0.824,0.557,1.24,0.837
	c0,0-0.002-0.007-0.005-0.009l0.005,0.002c0,0-0.002,0-0.003-0.002l0.003,0.002c0,0.006,0.004,0.007,0.01,0.007
	c0.025,0.021,0.075,0.059,0.075,0.059c-0.257-0.463-0.506-0.933-0.773-1.391c-0.205-0.341-0.679-0.909-0.618-0.973
	c1.404-1.426,2.79-2.885,4.364-4.111c0.403-0.316,1.64-0.109,2.118,0.301c1.668,1.432,3.173,3.055,4.904,4.771
	c-1.152,1.012-2.089,1.896-3.092,2.694c-1.019,0.808-2.102,1.535-3.047,2.221c-1.383-1.255-2.648-2.404-3.912-3.55
	C557.692,414.203,557.689,414.199,557.682,414.195z M501.4,408.373c-0.209-0.266-0.418-0.535-0.628-0.805
	c2.099-1.672,4.198-3.347,6.299-5.02c0.234,0.308,0.473,0.617,0.709,0.923C505.652,405.105,503.53,406.741,501.4,408.373z
	 M472.729,456.903c1.004,2.034,1.834,3.628,2.567,5.271c0.209,0.467,0.335,1.434,0.148,1.534c-2.113,1.163-4.241,2.373-6.507,3.138
	c-0.029,0.009-0.063,0.015-0.097,0.009c-0.036-0.002-0.069-0.009-0.11-0.022c-0.001-0.001-0.007-0.003-0.011-0.005
	c-0.358-0.132-0.868-0.715-1.37-1.288c-0.244-0.279-0.492-0.558-0.719-0.779c-0.002,0-0.002,0-0.002,0
	c-0.429-3.539,2.072-4.73,4.539-6.558c0.135-0.099,0.27-0.199,0.407-0.304c0.038-0.035,0.083-0.068,0.125-0.102
	C472.052,457.522,472.396,457.226,472.729,456.903z"/>
</svg>
