<svg xmlns="http://www.w3.org/2000/svg" data-name="Layer 46 copy" viewBox="0 0 100 125" x="0px" y="0px"><path d="M27.65,62.65c.46,2.88,6.71,3.26,11.14,3.26,1.6,0,3,0,3.72,0,2,0,4.78-3,6.32-4.94a47.21,47.21,0,0,1-11.6-4.27C32.75,57.68,27.21,59.86,27.65,62.65Z"/><path d="M54.26,36.55,56,36.23l-1.19-5.38A8.86,8.86,0,0,1,53.05,32a.39.39,0,0,1,.06.11Z"/><path d="M59.63,35.71c.61-.06,1.22-.11,1.84-.15l-.42-8.85a4.19,4.19,0,0,1-2.49,1.6,0,0,0,0,0,0,0Z"/><path d="M72.4,33.6h-.06c-1,0-2.54-1.55-3.28-2.39l-.55,4.48q1.47.14,2.85.36Z"/><path d="M53.28,36.77l-1-3.68a4,4,0,0,1-1.87,1.08l1,3Q52.34,37,53.28,36.77Z"/><path d="M58.63,35.83l-1-6.62a3,3,0,0,1-2,1.13l1.27,5.72Z"/><path d="M64.27,35.46h.07V26.64a1.36,1.36,0,0,1-.36.06,4.63,4.63,0,0,1-2-.63l.45,9.43C63.07,35.48,63.67,35.46,64.27,35.46Z"/><path d="M39.83,41c3.2-1.17,6.76-2.47,10.62-3.52l-1-3a.52.52,0,0,1,0-.37,31.31,31.31,0,0,0-14.16-3.31c-4.77,0-8.66,1-10.34,2-3.26,1.93.08,5.36,4.13,7.83a15.81,15.81,0,0,0,6.77,1.76C37.16,42,38.46,41.49,39.83,41Z"/><path d="M68.13,30.63a.14.14,0,0,1,0-.06c-1.12-.44-2.2-2.12-2.81-3.22v8.13c.73,0,1.46.06,2.17.11Z"/><path d="M64.14,66.43C62,69.81,65.55,74,65.55,74c6-.65,7-8.46,7.15-12.52-1.86.3-3.71.53-5.53.68A51.71,51.71,0,0,0,64.14,66.43Z"/><path d="M24.81,43.84c-4.83-2.34-6-3.79-17.19-4.32,0,0-7.75,13.77,3.42,19.48a59.78,59.78,0,0,0,14.39-5.81C21.17,49.65,24.37,44.51,24.81,43.84Z"/><path d="M26.33,44.54l-.62-.28,0,.09c-.15.2-3.53,5,.52,8.19a.4.4,0,0,1,.14.18,5.48,5.48,0,0,1,2.18-.44c2.81,0,5.91,1.81,8.63,3.2,2.22,1.14,10.61,5.86,24.59,5.86A68.35,68.35,0,0,0,74,60.2C65.77,49.32,73.69,39.37,75,37.84a45,45,0,0,0-7.28-1.23c-1.16-.1-2.32-.15-3.47-.15C48.86,36.46,36,45,28.84,45A6.11,6.11,0,0,1,26.33,44.54Zm22.05,3.87c.56-1.51,2-3.13,3.69-3.29,2.33-.23,14.63,1.63,15.15,1.71a.5.5,0,0,1,.43.54c-.21,2.36-.14,4.64.17,5A.59.59,0,0,1,68,53c-.31,1.07-9,3.27-10.66,3.42h-.26c-2.94,0-7.37-4-8.43-5.14A2.67,2.67,0,0,1,48.38,48.41Z"/><path d="M57.27,55.37a48.28,48.28,0,0,0,9.6-2.7c-.45-1.06-.38-3.31-.26-4.92C62.4,47.12,55,46.1,52.6,46.1a2.69,2.69,0,0,0-.43,0,4.06,4.06,0,0,0-2.86,2.64,1.73,1.73,0,0,0,.08,1.79C51,52.27,55.14,55.55,57.27,55.37Z"/><path d="M74.9,59.8A.4.4,0,0,1,75,60a91.82,91.82,0,0,0,19.25-6.17l-3.81-1.08A13.61,13.61,0,0,1,95,50.41s-5.84-8.58-19-12.3a.51.51,0,0,1-.11.22C75.53,38.74,66.3,48.64,74.9,59.8Zm6.41-15.26a.51.51,0,0,1,.5-.5.5.5,0,0,1,.5.5v1.78a.5.5,0,0,1-.5.5.5.5,0,0,1-.5-.5Z"/></svg>