<svg xmlns="http://www.w3.org/2000/svg" version="1.1" viewBox="-5.0 -10.0 110.0 135.0">
 <path d="m88.23 48.82c0.42188-0.33594 0.18359-0.65625-0.13672-0.65625-0.64062 0-1.2773 0.046876-1.9219 0.074219 1.0703 0.52344 1.0703 0.52344 1.1641 1.0195 0.33984-0.16016 0.65234-0.24219 0.89453-0.4375z" fill-rule="evenodd"/>
 <path d="m97.469 45c-0.48828-0.32422-0.98828-0.64453-1.5234-0.88672-8.5117-3.8516-17.359-6.6289-26.566-8.2305-6.9258-1.2031-13.875-1.418-20.848-0.41016-0.39062 0.058594-0.53516-0.13281-0.74219-0.40625-1.6445-2.2188-3.2188-4.5-5-6.6016-2.2539-2.6523-4.8789-4.9336-7.9883-6.5664-0.83594-0.4375-1.7617-0.71484-2.6445-1.0625 0.027344 0.39453 0.13281 0.61328 0.23828 0.83984 1.3164 2.7188 2.3516 5.5273 2.9844 8.4883 0.76172 3.5352 0.45703 6.8359-1.8633 9.7812-0.57422 0.73047-0.99609 1.5742-1.5234 2.4297 1.8945-0.91016 5.5547-2.4883 5.5977-2.4141-8.8828 4.7031-16.117 11.336-22.305 19.234-0.14844-0.1875-0.20703-0.25391-0.25781-0.32031-2.3906-3.3242-5.4805-5.6875-9.4375-6.8516-1.1406-0.34375-2.3047-0.44922-3.5898-0.30078 0.19531 0.16406 7.2305 6.8555 8.3203 14.203 1.0273 6.9258-1.3242 13.039-1.4609 13.242 1.3633-0.03125 4.9805-3.9414 6.2227-8.2383 0.81641-2.8242 0.71094-6.1211 0.71094-6.1211 4.7773-1.6445 10.086-1.6445 21.074-0.21484 0.5625-0.62891 1.1953-1.5352 1.1953-1.5352-4.5234-0.66016-9.0742-0.93359-13.645-0.75781-3.8125 0.14453-7.5 0.85156-11.035 2.5547 0.32422-0.35938 0.60938-0.77344 0.98047-1.0742 2.5078-2.0312 5.3867-3.3516 8.5-4.0625 4.4102-1.0078 8.8672-1.7852 13.285-2.7578 2.9062-0.64063 5.7891-1.3633 8.6797-2.0781 0 0-0.80078 2.7539-3.8242 6.9375-3.9648 5.4805-12.555 9.7734-12.777 9.875 0.027344 0.09375 4.1016-0.39453 6.043-0.96094 8.1211-2.3516 15.441-6.3594 22.383-11.113 0.41406-0.28125 0.76172-0.35938 1.2461-0.25781 1.8047 0.37891 3.6211 0.69922 5.4375 1.043-2.9297-2.0625-4.8281-4.6875-4.9062-8.3555-0.074219-3.5586 1.4141-6.4922 3.7852-9.0352-0.058594 0.23438-0.17578 0.44141-0.29688 0.64844-1.207 2.1016-2.0078 4.2969-1.7227 6.7812 0.27734 2.4531 2.2148 4.1445 4.625 3.7656 1.1797-0.1875 2.3906-0.62891 3.4141-1.2461 3.457-2.0859 7.2617-2.8281 11.188-3.2148 2.1523-0.21094 4.3047-0.46094 6.5547-0.69922-0.31641-0.125-0.53906-0.21484-0.77734-0.30859 0.26953-0.82813 0.91016-1.1953 1.6445-1.2695 2.9883-0.30469 5.9805-0.55469 8.9727-0.8125 0.23047-0.019531 1.1094-0.097656 1.1758 0 0.066406 0.09375-0.13281 0.41797-0.17188 0.48047-0.89062 1.4805-1.9414 2.8281-3.3125 3.9062-0.42187 0.32812-1.6719 1.0625-2.9648 0.46875-0.25781 0.44141-0.85156 0.44141-1.4453 0.26562-2.5781-0.76562-5.1758-0.85156-7.7852-0.64453-2.3203 0.1875-4.5703 0.67578-6.5742 1.9414-1.5977 1.0117-2.7852 2.3906-3.6211 4.2266 0.26172-0.10938 0.91016-0.40234 1.5859-0.26953 1.3047 0.25391 2.4062 0.88672 3.6992 1.1445 2.0586 0.41016 4.1445 0.67969 6.2266 0.97266 0.71484 0.10156 1.4414 0.10547 2.1602 0.15234-1.3789 0.82812-2.7617 1.5508-4.1953 2.1484-4.7109 1.9805-9.6484 3.043-14.719 3.5742-5.1328 0.53906-10.273 0.70703-15.406 0.27344-1.668-0.14062-2.8984 0.48438-4.3398 1.3164 1.9336 0.1875 3.7148 0.35547 5.5625 0.53516-0.42188 3.2969-5.1562 9.6836-7.7656 11.406 5.125-1.4805 9.3125-2.1914 15.211-7.3555 1.1016-0.96484 4.4219-4.1836 4.4219-4.1836s9.8281-1.3594 15.215-3.5391c2.4375-0.98438 4.8125-2.0977 6.8672-3.7773 0.33594-0.27344 0.77344-0.66016 0.96875-0.97656 0.19531-0.3125 0.38281-0.67578-0.57812-1.0195-0.25391 0.17188-0.53516 0.23828-0.77344 0.14844-0.28125-0.10547-0.30859-0.71875-0.30859-0.71875s-0.60938 0.30078-0.91797 0.19922c-0.30859-0.10156-0.49219-0.33594-0.60938-0.66406-1.1562 0.76953-1.5117 0.44141-2.0938-0.44141-1.1055 0.37109-1.3594 0.46094-1.6523 0.25781 1.2422-0.69922 2.7031-1.2461 3.9688-1.4492 1.2656-0.19922 3.0547-0.51953 4.7109-0.77734 2.3945-0.37891 2.4258-1.1484 2.8281-1.7578 0.83594 0.23438 1.5586-0.10547 2.2188-0.54688 2.0898-1.3867 3.3945-3.418 4.4844-5.6055 0.25781-0.52344 0.074219-1.0234-0.41797-1.3516zm-49.566 2.7773c-0.18359 1.6055-0.20312 3.2266-0.28906 4.6758-1.2578-3.8281-0.64062-6.5586 1.6758-9.2656-0.71875 1.457-1.2031 2.9961-1.3867 4.5898zm3.3398 0.085937c-0.20313 1.7891-0.23047 3.6055-0.32422 5.2266-1.4062-4.2773-0.71484-7.3281 1.8711-10.355-0.80078 1.625-1.3438 3.3438-1.5469 5.1289zm4.1523 0.042969c-0.23438 2.0742-0.26562 4.1719-0.375 6.0508-1.6289-4.957-0.82812-8.4844 2.1641-11.992-0.91797 1.8867-1.5508 3.875-1.7891 5.9414zm25.789-1.6445c-1.6289 0.23047-4.0273-1.7812-4.0273-1.7812l6.1211 0.61719c-0.003906 0-0.46875 0.92969-2.0938 1.1641zm-1.3281 11.16c0.32031 0.125 0.87891-0.19141 1.2227-0.35156 0.1875 0.30469 0.49609 0.65234 0.85156 0.74219 0.38281 0.097656 0.8125-0.14453 1.2695-0.32422 0.066406 0.15234 0.25 0.43359 0.51953 0.48828 0.52344 0.10938 0.91406-0.14844 0.91406-0.14844s0.054688 0.46484 0.51563 0.55859c-2.3047 0.078125-8.6797-0.6875-11.277-2.4141 0.23047-0.11719 0.90625-0.46094 1.1367-0.57812 0.10938 0.49219 0.24609 0.96094 0.55469 1.0703 0.50391 0.18359 1.6641-0.52734 1.6641-0.52734s0.21875 0.99609 0.60938 1.0781c0.39062 0.078125 0.67578-0.10938 1.2031-0.52734-0.007812 0 0.16797 0.6875 0.81641 0.93359zm8.9648-3.832c-0.41406 0.12891-1.4336 0.35547-1.4336 0.35547 0-0.48047 0.007812-0.66016-0.14844-0.76562-0.26562-0.17578-1.0547 0.53125-1.5859 0.86719 0 0 0.003906-1.2734-0.33984-1.3438-0.52734-0.10156-1.5586 1.0234-1.5586 1.0234-0.19922-0.44141-0.41016-1.0508-0.6875-1.1836-0.4375-0.21094-1.0078 0.60938-1.5859 1-0.17969-0.47656-0.054688-1.3008-0.875-1.0312-0.49609 0.16406-0.89453 0.625-1.3281 0.94922-0.36328-0.88672-0.74219-0.94141-1.4258-0.17188-0.21875 0.24609-0.39844 0.52734-0.59766 0.80469-0.21094-0.31641-0.40625-0.61328-0.62109-0.94141 4.25-1.5312 8.4219-1.8828 12.98 0.10547 0 0.003907-0.26562 0.17188-0.79297 0.33203z" fill-rule="evenodd"/>
</svg>