<svg xmlns="http://www.w3.org/2000/svg" version="1.1" viewBox="-5.0 -10.0 110.0 135.0">
 <g>
  <path d="m17.777 18.492c0.875 0.89453 2.0898 1.3477 3.332 1.3594 1.5625 0.015626 2.9727-0.53906 4.082-1.6406 0.15234-0.15234 0.3125-0.30859 0.44141-0.48047 0.19141-0.25391 0.51172-0.99609 0.73438-1.1289 0.027343-0.015624 0.13281-0.019531 0.15234-0.015624 0.35156 0.011718 0.89062 0.45703 1.1914 0.62891 1.3633 0.78125 3.0703 0.73047 4.3906-0.10156 0.5-0.33594 1.0859-1.1602 1.5469-1.3047 0.29297 0.10938 0.77344 1.0664 1.0312 1.3594 1.3945 1.5898 3.6602 2.0312 5.5742 1.1484 1.1055-0.51172 2.0234-1.3867 2.4375-2.543 0.33984-0.94922 0.32031-1.9648-0.125-2.875-0.49219-1.0078-1.3125-1.5078-2.3164-1.9219-0.14062-0.058593-0.42578-0.14453-0.53125-0.25781-0.18359-0.20703 0.085938-1.2148 0.066406-1.5195-0.10938-1.6914-1.3672-3.1328-2.9453-3.6602-1.1797-0.39453-2.5273-0.25-3.6289 0.3125-0.36328 0.18359-0.98828 0.85938-1.3828 0.71875-0.3125-0.10937-0.64062-0.83203-0.86328-1.1016-0.875-1.0742-2.375-1.5977-3.7344-1.4414-1.1484 0.14453-2.2148 0.71094-2.9258 1.6406-0.21875 0.28516-0.39844 0.59766-0.53125 0.93359-0.16016 0.39844-0.21484 1.1602-0.53516 1.4297-0.47266 0.03125-0.95703-0.16406-1.418-0.24219-1.3555-0.22656-2.75 0.21484-3.6562 1.2617-0.65234 0.75781-1 1.7656-0.92187 2.7656 0.042968 0.5625 0.22266 1.0859 0.41016 1.6172-0.65625 0.64453-0.99219 1.3711-1.0078 2.2969-0.015625 1.0273 0.41016 2.0352 1.1289 2.7695z"/>
  <path d="m11.977 16.371c-0.73828 0.089844-2.7969 0.52344-3.2891 1.0859-0.10547 0.12109-0.14062 0.26562-0.12109 0.42578 0.074219 0.55078 0.88672 1.1133 1.3125 1.4102 1.5742 1.1016 3.4844 1.9531 5.3945 2.1836 0.98047 0.066407 1.8711 0.007813 2.8242-0.25 0.16016-0.35547 0.30859-0.71875 0.54297-1.0312-1.3555-0.86328-2.168-1.5586-2.6797-3.1445-1.293-0.53516-2.5781-0.83594-3.9883-0.67969z"/>
  <path d="m40.859 19.008c-1.582 0.68359-3.1836 0.83984-4.8164 0.19141-0.65625-0.26172-1.3008-0.66406-1.8008-1.1641-0.1875-0.18359-0.61719-0.84766-0.78516-0.91797-0.97656 0.98437-2.2461 1.5117-3.6367 1.5117-1.1133 0-2.1641-0.31641-3.0547-0.98828-1.0664 1.5508-2.5 2.6406-4.3789 2.9883-1 0.18359-1.957 0.09375-2.9453-0.11328-1.1133 2.1641-1.3242 4.5664-0.57422 6.8906 0.73828 2.2852 2.0391 3.4922 3.0078 5.4961 0.63281 1.3008 0.94141 2.7031 1.3789 4.0742 0.75781 2.3828 2.0898 4.8828 4.4023 6.0586l0.058594 0.027344c1.8438 0.78906 3.9141 0.82031 5.7812 0.066406 1.9023-0.76562 3.1875-2.3008 3.9609-4.168 0.74609-1.8047 1.0273-3.7578 1.7695-5.5703 0.44531-1.082 1.1133-2.0234 1.6641-3.043 1.7227-3.1758 2.3438-6.3438 0.89453-9.7852-0.23828-0.5625-0.54297-1.0859-0.92188-1.5625zm-16.781 9.2695c-0.55078 0-1.0273-0.11719-1.4688-0.46875-0.57422-0.45703-0.91016-1.1719-0.99609-1.8906-0.09375-0.8125 0.085938-1.6875 0.61719-2.3281 0.42969-0.51953 0.98047-0.75781 1.6367-0.82422 0.4375 0.003906 0.86328 0.13672 1.2305 0.38281 0.57812 0.38281 0.94922 0.99219 1.0859 1.668 0.16797 0.81641 0.011718 1.7266-0.46094 2.418-0.40234 0.59375-0.94531 0.91406-1.6445 1.0469zm9.7969 13.648c-0.45312 0.30078-0.98047 0.54297-1.5156 0.64453-0.60938 0.11719-1.2148 0.054688-1.7383-0.29687-0.51172 0.30469-1.0039 0.39844-1.5938 0.3125-1.1016-0.15625-2.1914-0.86328-2.8555-1.75-0.13672-0.18359-0.45312-0.64453-0.41797-0.87109 0.36719 0.019531 1.5977 2 3.6172 2.0312 0.23047 0.003906 0.48438-0.019532 0.65234-0.19531 0.37109-0.38281 0.20703-1.5312 0.21094-2.0625-0.94141-0.18359-1.8906-0.65234-2.4883-1.4258-0.13281-0.17188-0.24219-0.375-0.20312-0.59766 0.042969-0.24609 0.18359-0.35938 0.38281-0.49219 0.12109-0.003906 0.28516-0.007812 0.39453 0.054688 0.49609 0.27344 0.69922 1.1133 1.6953 1.5273 0.77734 0.32422 1.6914-0.11719 2.2188-0.71484 0.26172-0.29297 0.42969-0.67969 0.82031-0.82812 0.13281-0.050781 0.24609-0.0625 0.375 0.003906 0.085937 0.046875 0.15234 0.14844 0.17969 0.24219 0.070313 0.25-0.027344 0.51953-0.16406 0.72656-0.52734 0.81641-1.5859 1.3164-2.5078 1.4961 0.011719 0.51562-0.070312 1.1055 0.019531 1.6094 0.039063 0.21875 0.13672 0.42969 0.33203 0.55078 0.26172 0.16016 0.60156 0.12891 0.89063 0.082031 0.77344-0.13281 1.5469-0.54297 2.1328-1.0586 0.30078-0.26562 0.78125-0.96484 1.1484-1.0547l0.019531 0.074219c-0.20312 0.80859-0.94141 1.5273-1.6055 1.9883zm4.7383-14.715c-0.36719 0.58984-0.91016 0.89062-1.5742 1.0391-0.47656 0.035156-0.9375-0.058594-1.3516-0.30469-0.63281-0.37891-1.0195-1.0547-1.1914-1.7578-0.19141-0.78516-0.074219-1.625 0.35156-2.3125 0.39062-0.62891 0.92969-0.95703 1.6367-1.1211 0.4375-0.039062 0.86719 0.039063 1.2539 0.25391 0.625 0.34766 1.0664 0.98438 1.2422 1.668 0.21484 0.83203 0.085937 1.7969-0.37109 2.5273z"/>
  <path d="m37.055 23.379c-0.085938-0.003906-0.16797 0-0.25391 0-0.19141 0.058594-0.6875 0.26953-0.77734 0.46484-0.050782 0.11328-0.039063 0.19531 0.023437 0.30078 0.19141 0.31641 0.75 0.46875 1.0273 0.71484 0.25781 0.22656 0.42578 0.53906 0.69531 0.75781 0.14844 0.011718 0.26172 0.011718 0.38672-0.082032 0.16797-0.12891 0.23438-0.3125 0.25-0.51953 0.027344-0.42578-0.125-0.85547-0.41016-1.1719-0.24219-0.26953-0.57422-0.45312-0.94141-0.46484z"/>
  <path d="m45.293 14.004c1.5586-0.67969 3.3828-0.73047 5.0195-0.33984 0.50781 0.12109 2.0312 0.55078 2.2734 1.0234 0.14453 0.27734-0.027344 0.6875-0.14844 0.94922-0.97656 2.1602-2.5703 3.7891-4.8086 4.6211-0.85547 0.31641-1.7109 0.46875-2.6211 0.47656-0.81641-0.027344-1.5625-0.1875-2.3477-0.41406 0.089844 0.21484 0.19531 0.42969 0.26562 0.65234 2.8516 0.66797 5.2852 0.34766 7.7969-1.2148 0.60156-0.375 1.1602-0.80859 1.6797-1.2891 0.76172-0.70312 2.6328-2.7656 2.8477-3.7344 0.042969-0.19922 0.035156-0.41797-0.089844-0.58594-0.62891-0.85547-4.707-1.8438-5.7656-1.9609-0.42969-0.046875-0.875-0.074219-1.3047-0.070312-1.5742 0.074218-3.0703 0.39062-4.5312 0.99219 0.16016 0.58203 0.23047 1.1133 0.25781 1.7148 0.47656-0.29688 0.94922-0.59766 1.4688-0.82031z"/>
  <path d="m24.965 23.668c-0.36328-0.25-0.67578-0.26562-1.0977-0.23828-0.25 0.125-0.55469 0.30078-0.69531 0.55469-0.007813 0.11719-0.011719 0.16016 0.074219 0.25391 0.22266 0.24609 0.65234 0.28125 0.91406 0.48047 0.36328 0.27344 0.5625 0.70312 0.95312 0.95312 0.21094-0.027344 0.32422-0.070313 0.45312-0.24609 0.14062-0.18359 0.15625-0.41406 0.11719-0.63672-0.078125-0.44531-0.34375-0.86719-0.71875-1.125z"/>
  <path d="m17.711 22.199c-2.8438 0.41016-5.7656-0.52734-8.0508-2.2305-0.55469-0.41406-1.6641-1.2188-1.7695-1.957-0.039063-0.26562 0.042969-0.53125 0.20312-0.74609 0.6875-0.90234 2.9922-1.4688 4.0742-1.582 1.1953-0.125 2.5156 0.027344 3.6328 0.48828-0.011719-0.59766 0.023438-1.1484 0.14844-1.7344-0.84375-0.35547-1.8359-0.51562-2.7539-0.48828-2.0859 0.125-4.1641 0.60938-6.0234 1.5898-0.48828 0.25781-1.0117 0.55859-1.3828 0.97656-0.24609 0.28125-0.42578 0.64453-0.37891 1.0273 0.11719 0.99219 1.6211 2.2734 2.3789 2.832 2.0742 1.5273 5.3203 3.0938 7.9648 2.6719 0.45312-0.074219 1.7031-0.30859 2.0156-0.64453 0.007813-0.11719 0.015625-0.11328-0.054687-0.20312z"/>
  <path d="m41.676 18.543c0.49219 0.80469 1.125 1.0625 2.0234 1.2773 0.625 0.15234 1.3359 0.21484 1.9727 0.12891 1.9688-0.16406 3.8203-1.2305 5.082-2.7266 0.57422-0.67578 1.0547-1.4609 1.3008-2.3164-1.2617-0.60156-2.5703-0.92969-3.9766-0.85547-1.543 0.10156-3.3555 0.66797-4.4102 1.875-0.24609 0.28516-0.33594 0.64844-0.51562 0.97266-0.35547 0.63672-0.94531 1.1641-1.4805 1.6445z"/>
  <path d="m31.289 79.426c-0.19141-0.0625-0.38281-0.14844-0.55469-0.25-0.027344 2.332-0.17188 4.7852-0.64062 7.0742-0.089844 0.42969-0.80469 2.9922-0.73828 3.1562 0.019531 0.054688 0.046875 0.10547 0.085937 0.14844 0.011719 0.015624 0.023438 0.027343 0.039063 0.042968 0.36719 0.37109 1.207 0.50781 1.7188 0.49609 0.35938-0.007812 0.72656-0.070312 1.0391-0.25781 0.50391-0.36328 0.62891-0.74609 0.72266-1.3398 0.17187-1.0625 0.16016-2.1875 0.20312-3.2656 0.082032-2.0117 0.15625-4.0508 0.44531-6.043-0.71484 0.36328-1.5391 0.48828-2.3125 0.23828z"/>
  <path d="m93.055 43.336c-0.38281-0.58594-0.83984-1.1367-1.3594-1.6055-0.16797-0.14844-0.91797-0.69141-0.96875-0.85547l0.035157-0.074219c0.30859-0.039062 0.69531 0.12891 0.98828 0.22266-0.15234-2.1992-1.418-4.6133-3.0664-6.0625-1.7461-1.5352-3.9609-2.375-6.3008-2.207-0.51172 0.035156-1.0469 0.09375-1.5352 0.25391-0.33203 0.10938-0.67188 0.26563-1.0117 0.34766-0.097657 0.023437-0.16016 0.03125-0.25391-0.011719-0.019531-0.12109-0.015625-0.12109 0.058594-0.21094 0.50781-0.66406 1.5078-0.89453 2.2656-1.1016-1.0547-1.832-3.2461-3.0156-5.2266-3.5508-2.6719-0.71875-5.7852-0.48047-8.1992 0.92188-0.42188 0.24609-0.83203 0.52734-1.1914 0.85547-0.17969 0.16016-0.39844 0.46484-0.62109 0.52734-0.054688-0.039062-0.097657-0.042968-0.11328-0.11719-0.058594-0.28516 0.30469-0.75781 0.47656-0.98047 0.13672-0.17969 0.30469-0.33594 0.47656-0.48047-0.55469-0.31641-1.1055-0.63281-1.6953-0.875-1.9375-0.79688-4.2031-0.91016-6.2227-0.35547-1.2383 0.33984-2.9844 1.0664-3.6523 2.2461-0.023438 0.042969-0.046875 0.085938-0.070312 0.12891 0.16016 0.12891 0.38281 0.26953 0.41797 0.48438 0.011719 0.074218-0.019531 0.09375-0.0625 0.15234-0.20312 0.082031-0.36719 0.054688-0.5625-0.035156-0.19922-0.09375-0.37109-0.25391-0.43359-0.47266-0.078124-0.26172 0.019532-0.52734 0.14844-0.75391 0.28125-0.48828 0.75-0.95312 1.2109-1.2734-2.3906-1.5-5.4258-1.8984-8.1641-1.2812-0.31641 0.070313-0.625 0.15625-0.93359 0.25 0.21094 1.3164-0.007812 2.3945-0.57031 3.5977 1.3359 1.2969 2.1992 2.8086 2.2188 4.7188 0.015625 1.4648-0.45703 2.8359-1.5 3.8828-0.26953 0.27344-0.57422 0.5-0.875 0.73828 0.63672 1.7695 0.79688 3.5312-0.015625 5.2734-0.67578 1.4492-1.8867 2.6641-3.4062 3.2031-0.92969 0.32812-2.3438 0.5-3.2578 0.046874-0.13281-0.066406-0.23828-0.12891-0.33203-0.24219l0.019531-0.074219c0.39453-0.14453 1.0664-0.015625 1.5-0.046875 1.9922-0.13672 3.7617-1.293 4.6133-3.1172 0.62109-1.3281 0.69531-2.9805 0.17188-4.3555-0.03125-0.082031-0.066407-0.16406-0.10547-0.24219-0.73438 0.24609-2.1641 0.59766-2.8828 0.17578-0.066406-0.039063-0.066406-0.042969-0.11328-0.089844l-0.007813-0.09375c0.19531-0.22266 1.5117-0.32812 1.9062-0.44922 2.1719-0.67188 3.543-2.6055 3.3906-4.8867-0.10156-1.4805-0.78125-2.7539-1.8594-3.7578-0.79297 0.94922-1.8047 1.5273-3.0469 1.6367-0.37891 0.03125-0.90625 0.070312-1.2383-0.14062-0.058594-0.10156-0.054687-0.10938-0.039062-0.22656 0.20312-0.14844 0.96875-0.21484 1.25-0.28125 1.7734-0.42969 3.0547-1.7891 3.332-3.6016 0.20312-1.3047-0.17578-2.6484-0.95312-3.7031-0.55469-0.75391-1.3164-1.3789-2.1914-1.7148 0.023437 2.8867-0.66406 5.0391-2.082 7.5273-0.52734 0.92578-1.1016 1.793-1.4922 2.793-1.1055 2.8398-1.2266 5.8945-3.4883 8.207-1.4883 1.5234-3.5781 2.3398-5.6953 2.3555-2.1328 0.015624-3.9219-0.66406-5.4375-2.1797-1.4766-1.4727-2.4453-3.4609-3.0312-5.4453-0.30859-1.0391-0.55078-2.1016-0.96875-3.1055-0.42578-1.0195-1.0508-1.8945-1.6523-2.8086-0.28906-0.4375-0.55469-0.89844-0.85547-1.3281-0.98828 1.207-1.3867 2.7539-1.2383 4.293 0.10937 1.1406 0.55859 2.1172 1.1562 3.0781 0.10547 0.16797 0.45312 0.60938 0.34375 0.76953-0.28516 0.015625-0.62109-0.34766-0.82813-0.52734-0.046874-0.042969-0.09375-0.082031-0.13672-0.125-1.1289 1.293-1.7969 3.1133-1.6758 4.832 0.10938 1.5547 0.77344 3.1328 1.9727 4.1562 1.0898 0.92969 2.5352 1.3945 3.9648 1.2695 0.37891-0.035156 0.78906-0.19922 1.1641-0.16797l0.066406 0.066406c-0.074219 0.19922-0.25391 0.27734-0.44141 0.36719-1.1602 0.54297-2.4922 0.59766-3.6914 0.14844-0.33984-0.12891-0.66406-0.28516-0.98828-0.44531-0.73438 1.7266-0.80859 3.5625-0.10156 5.3164 0.69531 1.7266 2.1172 3.168 3.8359 3.8906 1.3242 0.55859 2.7227 0.66406 4.1172 0.31641 0.1875-0.046875 0.32812-0.125 0.44531 0.066407-0.046874 0.14062-0.14453 0.19922-0.27734 0.26562-1.2852 0.66016-2.9883 0.62109-4.3242 0.15234-0.42188-0.14844-0.83203-0.33984-1.2383-0.53125-0.13281 2.4023 0.46484 4.6914 2.0938 6.5117 1.4336 1.6016 3.332 2.5938 5.4922 2.7031 2.0469 0.10547 4.1406-0.59766 5.6602-1.9805 0.25391-0.23047 0.51953-0.48047 0.72266-0.75781 0.21484-0.29297 0.875-1.6055 1.0977-1.668 0.085937 0.09375 0.089844 0.15234 0.082031 0.28125-0.015625 0.22266-0.10938 0.45312-0.18359 0.66406-0.37109 1.0234-1.0352 1.8633-1.8789 2.543-1.7383 1.4062-4.0625 1.9453-6.2578 1.6953-0.10938-0.011719-0.21484-0.027344-0.32422-0.046875 1.1523 1.9688 3.1211 3.5391 5.3398 4.1211 2.082 0.55078 4.3516 0.21875 6.207-0.86719l0.074219-0.042969c-0.42188-0.48438-1.207-1.4453-1.1562-2.1328 0.007812-0.097656 0.035156-0.11719 0.085937-0.19922 0.085938-0.023437 0.074219-0.042969 0.13672 0 0.20312 0.13672 1.0352 1.3672 1.3242 1.6914 2.0781 2.3086 5.0469 3.7578 8.1914 3.3789 2.2188-0.26953 4.2305-1.5039 5.5859-3.2656 0.3125-0.40234 0.63281-0.85937 0.85156-1.3164 0.19531-0.40625 0.37891-0.83203 0.53125-1.2578 0.16797-0.46094 0.30469-1.3906 0.67188-1.7188l0.070313 0.011718c0.28125 0.58203-0.12891 1.9844-0.32813 2.5625-0.3125 0.89844-0.76172 1.7227-1.2812 2.5156 2.2891 1.3047 4.8867 1.8164 7.4648 1.1133 2.3086-0.62891 4.4062-2.1992 5.5977-4.2812 0.37891-0.66016 0.64453-1.3633 0.83984-2.0977 0.09375-0.34766 0.058594-1.0234 0.33594-1.25 0.10547 0.058594 0.10547 0.082032 0.13672 0.20313 0.31641 1.2773-0.38672 3.0859-1.0664 4.1484-0.18359 0.28516-0.38672 0.57031-0.60938 0.82812l0.41406 0.23828c2.0664 0.94531 4.5547 0.82031 6.6562 0.042969 1.9297-0.71484 3.6172-1.9297 4.4922-3.8398 0.20312-0.44531 0.42188-1 0.49219-1.4805 0.050781-0.36719-0.054688-1.7695 0.12109-1.957 0.1875 0.085938 0.28906 0.28906 0.36328 0.47656 0.38281 0.96875 0.066406 2.3164-0.28906 3.25 1.7383 0.63672 3.9258 0.39844 5.5859-0.36719 2.0547-0.94922 3.7227-2.7148 4.4883-4.8516 0.73047-2.0273 0.6875-4.4375-0.25-6.3906-0.16797-0.35156-0.4375-0.72656-0.50391-1.1133l0.035156-0.082031c0.12109-0.039062 0.17188-0.046875 0.28906 0.011719 0.82813 0.43359 1.4062 1.8125 1.6094 2.668 0.070312 0.28516 0.125 0.57031 0.18359 0.85938 2.0898-1.3594 3.7031-3.6406 4.2266-6.082 0.51562-2.418 0.058594-4.9609-1.293-7.0273zm-54.043 8.1914c-0.79297 1.5469-2.168 2.7539-3.7695 3.4102-1.8789 0.76953-4.0938 0.81641-5.9766 0.015625-1.5547-0.66406-3.3672-2.3008-3.9648-3.9102-0.070312-0.1875-0.10547-0.32812-0.015625-0.51562 0.32422 0.13672 1.2969 1.582 1.6523 1.9375 0.45312 0.45703 0.97266 0.86719 1.5195 1.207 2.9102 1.832 6.5781 1.1875 9.0547-1.0703 0.35938-0.32812 0.70703-0.6875 1.0078-1.0742 0.14844-0.1875 0.27734-0.40234 0.4375-0.57422 0.082031-0.085937 0.10938-0.10156 0.22266-0.125l0.046874 0.082031c-0.027343 0.21875-0.12891 0.41797-0.21875 0.62109z"/>
  <path d="m68.555 70.773c-0.8125-0.26172-1.9922-0.53906-2.6758-1.0195-0.79688 0.71484-1.6367 1.3555-2.5859 1.8633 0.84766 3.6367 0.45703 7.4688-0.96484 10.91-0.26562 0.63672-0.53516 1.3047-0.90625 1.8906-0.20703 0.32812-0.53516 0.65625-0.68359 1.0039 0.1875 0.25781 0.40234 0.33984 0.71094 0.39453 0.55469 0.097656 1.1289 0.03125 1.6562-0.15625 0.71875-0.33203 1.0391-0.66406 1.3125-1.4141 0.68359-1.8633 1.3008-3.75 2.0586-5.5898 0.375-0.91016 0.74609-1.8242 1.1367-2.7305 0.40625-0.94531 0.86328-1.9062 1.1367-2.9023 0.14844-0.53906 0.33594-1.3047 0.09375-1.8398-0.066406-0.14844-0.17969-0.29688-0.28906-0.41797z"/>
  <path d="m84.473 71.672c-0.99609-1.543-1.1875-3.2539-1-5.0508-1.793 0.42188-3.3672 0.42969-5.1523-0.046875-0.53125 0.89453-1.1328 1.5898-2 2.168 2.6758 2.2734 4.5117 6.4062 4.7891 9.8594 0.28516 3.5391-0.53516 7.0781-2.1602 10.215 0.65234 0.375 1.3438 0.44141 2.0664 0.23828 0.22266-0.0625 0.44141-0.15234 0.64453-0.26172 0.23828-0.17188 0.55078-0.375 0.6875-0.63672 0.34375-0.66016 0.53516-1.5039 0.76562-2.2109 1.0547-3.2344 1.9922-6.5625 2.543-9.9219 0.17969-1.0977 0.40625-2.2266-0.30469-3.1914-0.28516-0.39062-0.61328-0.75391-0.875-1.1602z"/>
  <path d="m28.164 69.168c0.16406 2.2812 1.0156 7.5859 2.7305 9.0586 0.40234 0.34375 0.88281 0.53125 1.4141 0.47656 0.67188-0.066406 1.2344-0.48438 1.6406-1 0.09375-0.11719 0.17188-0.24219 0.25-0.36719 0.97266-1.5898 1.1289-3.4922 1.3438-5.3008-2.1484 0.011719-4.2539-0.39062-6.0195-1.6992-0.48047-0.35547-0.88672-0.8125-1.3633-1.1719z"/>
  <path d="m46.574 80.32c-0.82031 0.38281-1.5977 0.58984-2.4922 0.26953-0.22656-0.082032-0.44141-0.19531-0.65234-0.3125 0.59766 2.543 0.56641 5.6523 0.37891 8.25-0.042969 0.57812-0.082032 1.1602-0.14453 1.7383-0.039062 0.37109-0.10937 0.75391-0.10937 1.125 0 0.24609 0.042968 0.45312 0.21484 0.64062 0.03125 0.03125 0.0625 0.0625 0.09375 0.089844 0.015625 0.015625 0.035157 0.027344 0.054688 0.039062 0.019531 0.011719 0.035156 0.027344 0.054687 0.039063 0.50781 0.31641 1.3125 0.27734 1.875 0.125 0.32031-0.085938 0.58203-0.22266 0.84375-0.42188 0.17578-0.24219 0.29688-0.42578 0.3125-0.73438 0.054688-1.3086-0.20703-2.6367-0.32422-3.9414-0.21094-2.2773-0.30859-4.6289-0.10156-6.9062z"/>
  <path d="m41.418 72.219c0.16016 2.0977 0.62891 5.7773 2.2773 7.1719 0.43359 0.36719 0.97656 0.5625 1.5508 0.49609 0.67969-0.078125 1.2812-0.52734 1.6914-1.0547 0.074219-0.097656 0.14453-0.20312 0.21094-0.30469 0.82812-1.4805 1.2109-3.2812 1.2305-4.9727-2.8125 0.32812-4.4688-0.027344-6.957-1.3359z"/>
 </g>
</svg>