<?xml version="1.0" encoding="UTF-8" standalone="no" ?>
<!DOCTYPE svg PUBLIC "-//W3C//DTD SVG 1.1//EN" "http://www.w3.org/Graphics/SVG/1.1/DTD/svg11.dtd">
<svg xmlns="http://www.w3.org/2000/svg" xmlns:xlink="http://www.w3.org/1999/xlink" version="1.1" width="1080" height="1080" viewBox="0 0 1080 1080" xml:space="preserve">
<g transform="matrix(1 0 0 1 540 540)" id="424c15f1-531d-4058-b09f-eec81716059f"  >
<rect style="stroke: none; stroke-width: 1; stroke-dasharray: none; stroke-linecap: butt; stroke-dashoffset: 0; stroke-linejoin: miter; stroke-miterlimit: 4; fill: rgb(255,255,255); fill-rule: nonzero; opacity: 1; visibility: hidden;" vector-effect="non-scaling-stroke"  x="-540" y="-540" rx="0" ry="0" width="1080" height="1080" />
</g>
<g transform="matrix(1 0 0 1 540 540)" id="b18b6d09-81fd-470f-8578-f6db1414c67d"  >
</g>
<g transform="matrix(9.48 0 0 9.48 547.41 547.07)"  >
<path style="stroke: none; stroke-width: 1; stroke-dasharray: none; stroke-linecap: butt; stroke-dashoffset: 0; stroke-linejoin: miter; stroke-miterlimit: 4; fill: rgb(0,0,0); fill-rule: nonzero; opacity: 1;" vector-effect="non-scaling-stroke"  transform=" translate(-50, -50)" d="M 50 51.562 C 57.457 51.562 63.504 54.2847 67.793 57.812 L 32.20700000000001 57.812 C 36.496100000000006 54.2847 42.543000000000006 51.562 50.00000000000001 51.562 z M 25 69.687 C 25 72.2495 26.5195 75.2651 37.832 76.1831 L 38.445280000000004 73.9331 C 39.01559 71.8042 40.968680000000006 70.312 43.18748000000001 70.312 L 56.81248000000001 70.312 C 59.03128000000001 70.312 60.98048000000001 71.8042 61.554680000000005 73.937 L 62.16796000000001 76.1831 C 73.47996 75.26513 74.99996000000002 72.2495 74.99996000000002 69.687 C 74.99996000000002 67.23389999999999 73.58976000000001 63.9995 70.99216000000001 60.937 L 29.00816000000001 60.937 C 26.41046000000001 63.9995 25.00036000000001 67.23389999999999 25.00036000000001 69.687 z M 79.656 95.312 C 78.70288000000001 97.0308 68.23400000000001 99.9995 50.00000000000001 99.9995 C 31.500000000000007 99.9995 20.98400000000001 96.9526 20.297000000000008 95.3901 C 20.750120000000006 94.2651 25.359500000000008 92.59320000000001 33.63700000000001 91.562 L 33.13309000000001 93.4175 C 32.90653000000001 94.24953000000001 33.39872000000001 95.1089 34.23079000000001 95.33550000000001 C 34.36751000000001 95.37456200000001 34.508130000000016 95.39018700000001 34.64095000000001 95.39018700000001 C 35.32845000000001 95.39018700000001 35.95735000000001 94.93315700000001 36.148750000000014 94.23788700000001 L 41.461250000000014 74.74988700000002 C 41.66828000000002 73.97644700000002 42.37922000000001 73.43738700000002 43.18785000000001 73.43738700000002 L 56.81285000000001 73.43738700000002 C 57.621440000000014 73.43738700000002 58.32845000000001 73.97644700000002 58.53945000000001 74.75378700000002 L 63.85195000000001 94.23778700000003 C 64.07851000000001 95.07372700000002 64.94965 95.56198700000003 65.76995000000001 95.33548700000003 C 66.60198000000001 95.10892700000002 67.09415000000001 94.24958700000003 66.86765000000001 93.41748700000002 L 66.36374 91.56198700000002 C 74.45754000000001 92.56198700000002 79.04774 94.20258700000002 79.65674000000001 95.31198700000002 z M 48.406000000000006 79.996 C 48.57397 79.14833999999999 48.02709000000001 78.32799999999999 47.17940000000001 78.1562 C 46.33174000000001 77.98823 45.50750000000001 78.53511 45.33960000000001 79.3828 L 43.13650000000001 90.3828 C 42.968530000000015 91.23046000000001 43.51541000000001 92.05080000000001 44.36310000000001 92.2226 C 44.46857000000001 92.242132 44.57013000000001 92.25385 44.67169000000001 92.25385 C 45.40216000000001 92.25385 46.054490000000015 91.74213 46.20289000000001 90.99995 L 48.40599000000001 79.99995 z M 56.859100000000005 90.383 L 54.656000000000006 79.383 C 54.48803000000001 78.53533999999999 53.65991 77.9885 52.81620000000001 78.15639999999999 C 51.96854000000001 78.32436999999999 51.42170000000001 79.14858999999998 51.58960000000001 79.99619999999999 L 53.79270000000001 90.99619999999999 C 53.94114000000001 91.73838999999998 54.593480000000014 92.25009999999999 55.32390000000001 92.25009999999999 C 55.42546000000001 92.25009999999999 55.52702000000001 92.23838099999999 55.63249000000001 92.21884999999999 C 56.48015000000001 92.05087999999999 57.02699000000001 91.22666 56.85909000000001 90.37904999999999 z M 65.7732 31.249999999999993 L 65.65601000000001 31.249999999999993 C 65.51539000000001 31.249999999999993 65.41382000000002 31.253905999999994 65.28101000000001 31.261718999999992 C 61.61691000000001 31.46483899999999 58.648210000000006 34.19921899999999 57.960710000000006 37.750018999999995 C 59.88261000000001 36.796898999999996 62.48021000000001 35.937518999999995 65.62481000000001 35.937518999999995 C 67.29281000000002 35.937518999999995 70.19511000000001 36.207049 73.28501000000001 37.74221899999999 C 72.57407000000002 34.09771899999999 69.47641000000002 31.308618999999993 65.77331000000001 31.253918999999993 z M 34.714200000000005 31.257811999999994 C 34.54623000000001 31.249999999999993 34.42904000000001 31.246093999999996 34.370450000000005 31.246093999999996 C 30.538450000000005 31.300780999999997 27.421250000000004 34.093793999999995 26.710250000000006 37.738293999999996 C 29.796150000000004 36.207094 32.702450000000006 35.933594 34.370450000000005 35.933594 C 37.511050000000004 35.933594 40.11265 36.789063999999996 42.03455 37.746094 C 41.34705 34.195294 38.378350000000005 31.460894 34.71425000000001 31.257794 z M 98.4332 48.437811999999994 C 98.4332 66.031812 88.9957 81.453812 74.9332 89.937812 C 72.0894 89.219062 68.7613 88.703412 65.4801 88.34401199999999 L 62.99569999999999 79.26591199999999 C 70.4176 78.60966199999999 78.1207 76.73471199999999 78.1207 69.68781199999998 C 78.1207 61.23471199999998 66.9017 48.43781199999998 49.9957 48.43781199999998 C 33.08969999999999 48.43781199999998 21.8707 61.23481199999998 21.8707 69.68781199999998 C 21.8707 76.73471199999997 29.5738 78.60971199999997 36.9957 79.26591199999999 L 34.5113 88.34401199999999 C 31.2301 88.703392 27.901899999999998 89.21901199999999 25.0582 89.937812 C 10.9992 81.45341199999999 1.5622000000000007 66.031812 1.5622000000000007 48.437811999999994 C 1.5622000000000007 21.734811999999994 23.296200000000002 -0.0001880000000085147 50.00020000000001 -0.0001880000000085147 C 76.70420000000001 -0.0001880000000085147 98.43820000000001 21.733811999999993 98.43820000000001 48.437811999999994 z M 29.124200000000002 23.074811999999994 C 29.78826 22.524031999999995 29.878110000000003 21.535711999999993 29.323420000000002 20.875611999999993 C 28.76873 20.211551999999994 27.78432 20.121701999999992 27.12422 20.676391999999993 L 17.74922 28.488891999999993 C 17.085160000000002 29.039671999999992 16.99531 30.027991999999994 17.55 30.688091999999994 C 17.85859 31.059181999999993 18.303910000000002 31.250591999999994 18.749200000000002 31.250591999999994 C 19.10076 31.250591999999994 19.45623 31.133401999999993 19.749200000000002 30.887311999999994 z M 45.312200000000004 39.316812 C 45.312200000000004 33.371511999999996 40.734100000000005 28.461812 34.89020000000001 28.136812 C 34.64020000000001 28.121187 34.464420000000004 28.121187 34.37458000000001 28.121187 L 34.17927000000001 28.121187 C 28.25737000000001 28.207124 23.43727000000001 33.234487 23.43727000000001 39.324186999999995 L 23.43727000000001 40.621086999999996 C 23.43727000000001 41.214836999999996 23.77321000000001 41.753887 24.30055000000001 42.019487 C 24.52321000000001 42.128867 24.76149000000001 42.183547 24.99977000000001 42.183547 C 25.33180000000001 42.183547 25.65993000000001 42.078077 25.93727000000001 41.871047 C 29.19897000000001 39.421847 32.62477000000001 39.058547 34.37477000000001 39.058547 C 38.45287000000001 39.058547 41.409970000000015 40.820246999999995 42.81227000000001 41.871047 C 43.28883000000001 42.226516999999994 43.91777000000001 42.285106999999996 44.44897000000001 42.019487 C 44.98017000000001 41.753867 45.31225000000001 41.214797 45.31225000000001 40.621086999999996 z M 76.5622 39.328531 C 76.5622 33.238731 71.7419 28.215531 65.8122 28.125531 L 65.6247 28.125531 C 65.534856 28.125531 65.35908 28.125531 65.10908 28.141156 C 59.265280000000004 28.465376 54.68708000000001 33.375555999999996 54.68708000000001 39.321156 L 54.68708000000001 40.625856 C 54.68708000000001 41.219606 55.02302000000001 41.758656 55.55036000000001 42.024256 C 56.08161000000001 42.289876 56.71446000000001 42.231286000000004 57.18706000000001 41.875816 C 58.589360000000006 40.825016 61.54646000000001 39.063316 65.62456 39.063316 C 67.37456 39.063316 70.80036 39.430506 74.06206 41.875816 C 74.3355 42.082846 74.66753 42.188316 74.99956 42.188316 C 75.23784 42.188316 75.47612000000001 42.133628 75.69878 42.024256 C 76.23003 41.758626 76.56206 41.219566 76.56206 40.625856 z M 82.2497 28.488531 L 72.8747 20.676031 C 72.21064 20.121340999999997 71.22630000000001 20.215090999999997 70.6716 20.875251 C 70.12082 21.539310999999998 70.21066 22.523650999999997 70.87082 23.074451 L 80.24582 30.886951 C 80.53878999999999 31.129141 80.89425999999999 31.250231 81.24582 31.250231 C 81.69503999999999 31.250231 82.14035 31.058821 82.44892 30.687731 C 82.9997 30.023671 82.90986 29.039331 82.2497 28.488531 z" stroke-linecap="round" />
</g>
</svg>
