<?xml version="1.0" encoding="utf-8"?>
<svg version="1.1" x="0px" y="0px" viewBox="0 0 100 125" style="enable-background:new 0 0 100 100;" xmlns="http://www.w3.org/2000/svg">
  <g style="" transform="matrix(1.329447, 0, 0, 1.397947, -17.195246, -18.175463)">
    <path d="M84.3,69.5l-9.9-41.1v-7.8c0-1.1-0.9-2-2-2H27.7c-1.1,0-2,0.9-2,2v7.8l-9.9,41.1c-0.2,0.8,0.2,1.7,0.9,2.2   c10.3,6.5,21.8,9.7,33.4,9.7c11.3,0,22.5-3.1,32.6-9.2l0.8-0.5C84.1,71.3,84.5,70.4,84.3,69.5z M29.7,22.7h40.7V28H29.7V22.7z    M68.6,74.3L64,43.7l-4,0.6l4.7,31.2c-4.2,1.1-8.4,1.7-12.7,1.9V46h-4v31.3c-4.3-0.1-8.5-0.8-12.7-1.9L40,44.3l-4-0.6l-4.6,30.6   c-3.9-1.3-7.8-3.1-11.5-5.3l9-37.1h42.2l9,37C76.4,71.2,72.5,73,68.6,74.3z"/>
  </g>
</svg>