<?xml version="1.0" encoding="utf-8"?>
<svg version="1.1" x="0px" y="0px" viewBox="0 0 100 125" enable-background="new 0 0 100 100" xmlns="http://www.w3.org/2000/svg">
  <path d="M 87.458 41.192 C 87.297 41.192 87.138 41.207 86.979 41.216 C 86.348 40.386 85.618 39.625 84.775 38.971 C 84.7 38.899 84.616 38.833 84.527 38.771 L 60.176 22.195 L 62.637 17.932 C 63.229 16.91 63.385 15.718 63.08 14.575 C 62.773 13.434 62.042 12.479 61.019 11.89 L 57.819 10.043 C 57.148 9.654 56.384 9.45 55.61 9.45 C 54.035 9.45 52.567 10.296 51.779 11.66 L 39.683 32.61 L 28.261 24.835 L 20.655 11.658 C 19.867 10.295 18.399 9.449 16.823 9.449 C 16.05 9.449 15.285 9.654 14.614 10.042 L 11.415 11.889 C 10.393 12.478 9.661 13.433 9.355 14.574 C 9.049 15.717 9.206 16.908 9.797 17.929 L 29.948 52.836 L 29.948 83.085 C 29.948 85.523 31.931 87.506 34.37 87.506 L 38.064 87.506 C 40.502 87.506 42.486 85.523 42.486 83.085 L 42.486 52.836 L 48.068 43.167 L 70.048 58.13 C 70.149 58.241 70.259 58.34 70.382 58.426 C 71.847 59.462 73.501 60.131 75.243 60.439 C 75.308 60.586 75.368 60.734 75.443 60.878 C 76.706 63.337 79.21 64.865 81.978 64.865 C 83.138 64.865 84.297 64.584 85.332 64.052 C 91.173 61.049 94.801 55.104 94.801 48.537 C 94.803 44.487 91.509 41.192 87.458 41.192 Z M 55.247 13.666 C 55.359 13.473 55.554 13.458 55.61 13.458 C 55.682 13.458 55.752 13.478 55.816 13.514 L 59.016 15.361 C 59.138 15.433 59.188 15.538 59.208 15.614 C 59.229 15.69 59.238 15.807 59.167 15.93 L 57.396 19 L 53.476 16.736 L 55.247 13.666 Z M 37.674 36.09 L 36.216 38.615 L 32.871 32.821 L 37.674 36.09 Z M 13.225 15.612 C 13.245 15.536 13.295 15.431 13.419 15.359 L 16.618 13.512 C 16.682 13.476 16.752 13.456 16.824 13.456 C 16.881 13.456 17.075 13.472 17.187 13.663 L 18.959 16.734 L 15.039 18.997 L 13.266 15.926 C 13.195 15.806 13.205 15.688 13.225 15.612 Z M 38.749 51.296 C 38.573 51.601 38.48 51.945 38.48 52.297 L 38.48 83.084 C 38.48 83.313 38.294 83.499 38.064 83.499 L 34.37 83.499 C 34.141 83.499 33.954 83.312 33.954 83.084 L 33.954 52.297 C 33.954 51.945 33.861 51.6 33.685 51.296 L 18.377 24.78 L 22.297 22.517 L 34.482 43.622 C 34.839 44.241 35.501 44.623 36.216 44.623 C 36.932 44.623 37.593 44.241 37.95 43.622 L 50.138 22.516 L 54.058 24.78 L 38.749 51.296 Z M 74.762 56.192 C 74.11 55.97 73.482 55.68 72.9 55.295 C 72.792 55.175 72.67 55.066 72.535 54.976 L 50.078 39.687 L 58.166 25.676 L 81.804 41.764 C 81.827 41.782 81.854 41.801 81.88 41.817 L 81.888 41.824 C 82.285 42.093 82.643 42.402 82.981 42.729 C 81.241 44.074 80.115 46.173 80.115 48.536 C 80.115 49.573 79.541 50.512 78.617 50.986 C 76.516 52.068 75.163 54.031 74.762 56.192 Z M 83.502 60.489 C 81.894 61.314 79.824 60.636 79.007 59.047 C 78.165 57.409 78.813 55.393 80.447 54.551 C 82.714 53.387 84.12 51.083 84.12 48.537 C 84.12 46.696 85.618 45.199 87.458 45.199 C 89.3 45.199 90.797 46.696 90.797 48.537 C 90.797 53.595 88.002 58.174 83.502 60.489 Z"/>
</svg>