<?xml version="1.0" encoding="UTF-8" standalone="no" ?>
<!DOCTYPE svg PUBLIC "-//W3C//DTD SVG 1.1//EN" "http://www.w3.org/Graphics/SVG/1.1/DTD/svg11.dtd">
<svg xmlns="http://www.w3.org/2000/svg" xmlns:xlink="http://www.w3.org/1999/xlink" version="1.1" width="1080" height="1080" viewBox="0 0 1080 1080" xml:space="preserve">
<g transform="matrix(1 0 0 1 540 540)" id="bd0ab62d-aee4-4b56-9162-e86d3cbf5d21"  >
<rect style="stroke: none; stroke-width: 1; stroke-dasharray: none; stroke-linecap: butt; stroke-dashoffset: 0; stroke-linejoin: miter; stroke-miterlimit: 4; fill: rgb(255,255,255); fill-rule: nonzero; opacity: 1; visibility: hidden;" vector-effect="non-scaling-stroke"  x="-540" y="-540" rx="0" ry="0" width="1080" height="1080" />
</g>
<g transform="matrix(1 0 0 1 540 540)" id="5550983f-8832-4f04-ad52-e4afa13917d0"  >
</g>
<g transform="matrix(12.1 0 0 12.1 459.15 669.09)"  >
<path style="stroke: none; stroke-width: 1; stroke-dasharray: none; stroke-linecap: butt; stroke-dashoffset: 0; stroke-linejoin: miter; stroke-miterlimit: 4; fill: rgb(0,0,0); fill-rule: nonzero; opacity: 1;" vector-effect="non-scaling-stroke"  transform=" translate(-43.18, -60.61)" d="M 42.941 89.109 C 42.51131 89.105094 42.14022 88.81603 42.03866 88.39806 L 37.718360000000004 71.34306000000001 C 37.054300000000005 68.74926 35.050360000000005 66.71026 32.468360000000004 65.99926 L 15.378360000000004 61.27266000000001 C 14.968200000000005 61.159380000000006 14.683050000000005 60.78828000000001 14.683050000000005 60.36250000000001 C 14.683050000000005 59.936720000000015 14.968210000000004 59.56562000000001 15.378360000000004 59.45625000000001 L 32.42936 55.14375000000001 L 32.433266 55.14375000000001 C 35.034866 54.483590000000014 37.085566 52.479650000000014 37.800466 49.88985000000001 L 42.527066 32.799850000000006 C 42.636446 32.38969000000001 43.007535999999995 32.10844000000001 43.433316 32.112350000000006 C 43.859096 32.112350000000006 44.230196 32.40532 44.327846 32.81938000000001 L 48.640346 49.87038000000001 C 49.300506 52.47588000000001 51.308346 54.52268000000001 53.894246 55.23758000000001 L 70.980246 59.94458000000001 L 70.980246 59.94848700000001 C 71.390406 60.05786700000001 71.675556 60.428957000000004 71.675556 60.85473700000001 C 71.675556 61.28051700000001 71.390396 61.65161700000001 70.980246 61.764897000000005 L 53.921246 66.073497 C 51.315746 66.73755700000001 49.268946 68.74149700000001 48.550146 71.331297 L 43.843146 88.42129700000001 C 43.733765999999996 88.82754700000001 43.362676 89.11270700000001 42.940805999999995 89.10879700000001 z" stroke-linecap="round" />
</g>
<g transform="matrix(12.1 0 0 12.1 650.32 236.51)"  >
<path style="stroke: none; stroke-width: 1; stroke-dasharray: none; stroke-linecap: butt; stroke-dashoffset: 0; stroke-linejoin: miter; stroke-miterlimit: 4; fill: rgb(0,0,0); fill-rule: nonzero; opacity: 1;" vector-effect="non-scaling-stroke"  transform=" translate(-58.98, -24.86)" d="M 58.871 38.801 C 58.44522 38.797094 58.07412 38.508030000000005 57.97256 38.09397 L 55.99986 30.33617 C 55.68345 29.09397 54.726459999999996 28.11347 53.492059999999995 27.77367 L 45.722559999999994 25.63307 C 45.3124 25.51588 45.03115 25.14088 45.035059999999994 24.7151 C 45.04287299999999 24.28932 45.331939999999996 23.92213 45.74209 23.81666 L 53.488189999999996 21.859659999999998 L 53.492096999999994 21.859659999999998 C 54.73429699999999 21.543249999999997 55.710896999999996 20.58626 56.05069699999999 19.347959999999997 L 58.199096999999995 11.601859999999997 C 58.308476999999996 11.191699999999997 58.67956699999999 10.910449999999997 59.101437 10.910449999999997 C 59.519406999999994 10.910449999999997 59.890496999999996 11.191699999999997 59.999877 11.601859999999997 L 61.960777 19.347959999999997 C 62.273277 20.590159999999997 63.230277 21.570659999999997 64.468577 21.910459999999997 L 72.23807699999999 24.051059999999996 L 72.23417099999999 24.051059999999996 C 72.648231 24.164339999999996 72.929481 24.543249999999997 72.925581 24.969029999999997 C 72.925581 25.394809999999996 72.632611 25.765909999999998 72.214641 25.863559999999996 L 64.468541 27.824459999999995 C 63.226341000000005 28.140869999999996 62.245841 29.097859999999994 61.902141 30.332259999999994 L 59.761541 38.10175999999999 L 59.765447 38.10175999999999 C 59.659977000000005 38.51191999999999 59.292787000000004 38.79706999999999 58.870917 38.80097999999999 z" stroke-linecap="round" />
</g>
<g transform="matrix(12.1 0 0 12.1 874.26 469.66)"  >
<path style="stroke: none; stroke-width: 1; stroke-dasharray: none; stroke-linecap: butt; stroke-dashoffset: 0; stroke-linejoin: miter; stroke-miterlimit: 4; fill: rgb(0,0,0); fill-rule: nonzero; opacity: 1;" vector-effect="non-scaling-stroke"  transform=" translate(-77.49, -44.13)" d="M 77.43 51.949 C 77.00031000000001 51.949 76.62922 51.65603 76.52766000000001 51.23806 L 75.69954000000001 47.95686 L 75.69954000000001 47.960767 C 75.44563000000001 46.949067 74.66434000000001 46.152167 73.66044000000001 45.874866999999995 L 70.36354000000001 44.968616999999995 C 69.95338000000001 44.85533699999999 69.66823000000001 44.48033699999999 69.67213000000001 44.054556999999996 C 69.67603600000001 43.62877699999999 69.96901000000001 43.257676999999994 70.38307 43.156116999999995 L 73.66037 42.327996999999996 C 74.67207 42.070187 75.46507 41.29279699999999 75.74237 40.288897 L 76.64862 36.991997 L 76.652526 36.991997 C 76.761906 36.581837 77.13299599999999 36.300587 77.55486599999999 36.304497 C 77.98455599999998 36.304497 78.355646 36.597466999999995 78.45720599999999 37.011527 L 79.28532599999998 40.288827 C 79.53923599999999 41.296627 80.32052599999999 42.093526999999995 81.32442599999999 42.370827 L 84.62132599999998 43.277077 L 84.62132599999998 43.280983 C 85.03148599999999 43.390363 85.31663599999999 43.769263 85.30882599999998 44.195043 C 85.30882599999998 44.620823 85.01585599999999 44.991923 84.60179599999998 45.093483 L 81.32449599999998 45.925513 C 80.31279599999998 46.179423 79.51589599999998 46.956713 79.23859599999999 47.964613 L 78.33234599999999 51.261513 C 78.22296599999999 51.667763 77.85187599999999 51.952923 77.43000599999999 51.949013 z" stroke-linecap="round" />
</g>
</svg>
