<?xml version="1.0" encoding="UTF-8" standalone="no" ?>
<!DOCTYPE svg PUBLIC "-//W3C//DTD SVG 1.1//EN" "http://www.w3.org/Graphics/SVG/1.1/DTD/svg11.dtd">
<svg xmlns="http://www.w3.org/2000/svg" xmlns:xlink="http://www.w3.org/1999/xlink" version="1.1" width="1080" height="1080" viewBox="0 0 1080 1080" xml:space="preserve">
<g transform="matrix(1 0 0 1 540 540)" id="aef54bff-48e1-49e8-a83b-8c13918469ad"  >
<rect style="stroke: none; stroke-width: 1; stroke-dasharray: none; stroke-linecap: butt; stroke-dashoffset: 0; stroke-linejoin: miter; stroke-miterlimit: 4; fill: rgb(255,255,255); fill-rule: nonzero; opacity: 1; visibility: hidden;" vector-effect="non-scaling-stroke"  x="-540" y="-540" rx="0" ry="0" width="1080" height="1080" />
</g>
<g transform="matrix(1 0 0 1 540 540)" id="59da0fd8-2d12-4a1d-bc0f-dd0d96b93384"  >
</g>
<g transform="matrix(13.28 0 0 13.28 538.71 544.43)"  >
<path style="stroke: none; stroke-width: 1; stroke-dasharray: none; stroke-linecap: butt; stroke-dashoffset: 0; stroke-linejoin: miter; stroke-miterlimit: 4; fill: rgb(0,0,0); fill-rule: nonzero; opacity: 1;" vector-effect="non-scaling-stroke"  transform=" translate(-49.99, -50)" d="M 50.305 84.957 C 49.87922 84.96090699999999 49.50812 84.67575 49.39875 84.2695 L 43.281549999999996 62.07449999999999 L 43.285455999999996 62.070592999999995 C 42.574515999999996 59.476792999999994 40.523756 57.465092999999996 37.914356 56.801092999999995 L 15.754355999999998 51.199493 C 15.340295999999999 51.097933 15.047325999999998 50.726833 15.039515999999997 50.301052999999996 C 15.035609999999997 49.87527299999999 15.320765999999997 49.50027299999999 15.730925999999997 49.386993 L 37.925926 43.26979299999999 L 37.929832999999995 43.27369999999999 C 40.51963299999999 42.56275999999999 42.53143299999999 40.51979999999999 43.199332999999996 37.91429999999999 L 48.80093299999999 15.750299999999989 L 48.80093299999999 15.75420599999999 C 48.90249299999999 15.34014599999999 49.27359299999999 15.04717599999999 49.699372999999994 15.039365999999989 C 50.125153 15.035459999999988 50.500153 15.320615999999989 50.61343299999999 15.730775999999988 L 56.730633 37.925775999999985 L 56.726726 37.92968299999998 C 57.437666 40.51948299999998 59.480626 42.53128299999998 62.086126 43.199182999999984 L 84.250126 48.80078299999998 L 84.24622 48.80078299999998 C 84.66028 48.90625299999998 84.94933999999999 49.28125299999998 84.94933999999999 49.70703299999998 C 84.94933999999999 50.132812999999985 84.66027999999999 50.50391299999998 84.24622 50.61328299999998 L 62.051219999999994 56.73048299999998 L 62.051219999999994 56.72657599999998 C 59.46921999999999 57.44141599999998 57.46531999999999 59.48437599999998 56.801219999999994 62.08597599999998 L 51.199619999999996 84.24997599999998 L 51.199619999999996 84.24606999999997 C 51.101963 84.66403999999997 50.72696 84.95700999999997 50.301179999999995 84.95700999999997 z M 83.953 49.952999999999996" stroke-linecap="round" />
</g>
</svg>
