<?xml version="1.0" encoding="utf-8"?>
<svg width="700pt" height="700pt" version="1.1" viewBox="0 0 700 700" xmlns="http://www.w3.org/2000/svg">
  <defs>
    <symbol id="m" overflow="visible">
      <path d="m29.312-1.75c-1.5117 0.78125-3.0898 1.3711-4.7344 1.7656-1.6367 0.40625-3.3398 0.60938-5.1094 0.60938-5.3125 0-9.5273-1.4844-12.641-4.4531-3.1055-2.9688-4.6562-7-4.6562-12.094s1.5508-9.125 4.6562-12.094c3.1133-2.9688 7.3281-4.4531 12.641-4.4531 1.7695 0 3.4727 0.19922 5.1094 0.59375 1.6445 0.39844 3.2227 0.99219 4.7344 1.7812v6.5938c-1.5312-1.0391-3.0391-1.8008-4.5156-2.2812-1.4805-0.48828-3.0391-0.73438-4.6719-0.73438-2.9375 0-5.2461 0.94531-6.9219 2.8281-1.6797 1.875-2.5156 4.4648-2.5156 7.7656 0 3.293 0.83594 5.8828 2.5156 7.7656 1.6758 1.875 3.9844 2.8125 6.9219 2.8125 1.6328 0 3.1914-0.23828 4.6719-0.71875 1.4766-0.48828 2.9844-1.2539 4.5156-2.2969z"/>
    </symbol>
    <symbol id="k" overflow="visible">
      <path d="m21.453-17.406c-0.67969-0.3125-1.3516-0.53906-2.0156-0.6875-0.65625-0.15625-1.3203-0.23438-1.9844-0.23438-1.9688 0-3.4844 0.63281-4.5469 1.8906-1.0547 1.2617-1.5781 3.0703-1.5781 5.4219v11.016h-7.6562v-23.922h7.6562v3.9219c0.97656-1.5625 2.1016-2.7031 3.375-3.4219 1.2812-0.71875 2.8125-1.0781 4.5938-1.0781 0.25 0 0.52344 0.011719 0.82812 0.03125 0.30078 0.023438 0.73438 0.070312 1.2969 0.14062z"/>
    </symbol>
    <symbol id="c" overflow="visible">
      <path d="m27.562-12.031v2.1875h-17.891c0.1875 1.793 0.83203 3.1367 1.9375 4.0312 1.1133 0.89844 2.6719 1.3438 4.6719 1.3438 1.6016 0 3.25-0.23438 4.9375-0.70312 1.6875-0.47656 3.4219-1.2031 5.2031-2.1719v5.8906c-1.8047 0.6875-3.6094 1.2031-5.4219 1.5469-1.8125 0.35156-3.6211 0.53125-5.4219 0.53125-4.3359 0-7.7031-1.0977-10.109-3.2969-2.3984-2.207-3.5938-5.2969-3.5938-9.2656 0-3.9062 1.1758-6.9727 3.5312-9.2031 2.3633-2.2383 5.6094-3.3594 9.7344-3.3594 3.7578 0 6.7695 1.1367 9.0312 3.4062 2.2578 2.2617 3.3906 5.2812 3.3906 9.0625zm-7.8594-2.5312c0-1.457-0.42969-2.6289-1.2812-3.5156-0.84375-0.89453-1.9492-1.3438-3.3125-1.3438-1.4922 0-2.6992 0.41797-3.625 1.25-0.91797 0.83594-1.4922 2.0391-1.7188 3.6094z"/>
    </symbol>
    <symbol id="a" overflow="visible">
      <path d="m14.391-10.766c-1.5938 0-2.793 0.27344-3.5938 0.8125-0.80469 0.54297-1.2031 1.3398-1.2031 2.3906 0 0.96875 0.32031 1.7305 0.96875 2.2812 0.64453 0.54297 1.5469 0.8125 2.7031 0.8125 1.4375 0 2.6445-0.51562 3.625-1.5469 0.98828-1.0312 1.4844-2.3203 1.4844-3.875v-0.875zm11.688-2.8906v13.656h-7.7031v-3.5469c-1.0312 1.4492-2.1875 2.5078-3.4688 3.1719s-2.8398 1-4.6719 1c-2.4805 0-4.4961-0.72266-6.0469-2.1719-1.543-1.4453-2.3125-3.3203-2.3125-5.625 0-2.8125 0.96094-4.8672 2.8906-6.1719 1.9375-1.3125 4.9688-1.9688 9.0938-1.9688h4.5156v-0.60938c0-1.207-0.48047-2.0938-1.4375-2.6562-0.94922-0.5625-2.4375-0.84375-4.4688-0.84375-1.6367 0-3.1562 0.16797-4.5625 0.5-1.4062 0.32422-2.7188 0.8125-3.9375 1.4688v-5.8281c1.6445-0.40625 3.2891-0.70703 4.9375-0.90625 1.6562-0.20703 3.3047-0.3125 4.9531-0.3125 4.3203 0 7.4375 0.85547 9.3438 2.5625 1.9141 1.6992 2.875 4.4609 2.875 8.2812z"/>
    </symbol>
    <symbol id="b" overflow="visible">
      <path d="m12.031-30.719v6.7969h7.875v5.4688h-7.875v10.141c0 1.1172 0.21875 1.8711 0.65625 2.2656 0.4375 0.38672 1.3125 0.57812 2.625 0.57812h3.9375v5.4688h-6.5625c-3.0234 0-5.1641-0.62891-6.4219-1.8906-1.2617-1.2578-1.8906-3.3984-1.8906-6.4219v-10.141h-3.7969v-5.4688h3.7969v-6.7969z"/>
    </symbol>
    <symbol id="j" overflow="visible">
      <path d="m19.953-20.422v-12.812h7.6875v33.234h-7.6875v-3.4531c-1.0547 1.4062-2.2148 2.4375-3.4844 3.0938-1.2734 0.65625-2.7422 0.98438-4.4062 0.98438-2.9492 0-5.3711-1.1719-7.2656-3.5156-1.8867-2.3438-2.8281-5.3594-2.8281-9.0469s0.94141-6.7031 2.8281-9.0469c1.8945-2.3438 4.3164-3.5156 7.2656-3.5156 1.6562 0 3.1172 0.33594 4.3906 1 1.2812 0.65625 2.4453 1.6836 3.5 3.0781zm-5.0469 15.484c1.6445 0 2.8945-0.59766 3.75-1.7969 0.86328-1.1953 1.2969-2.9297 1.2969-5.2031 0-2.2812-0.43359-4.0195-1.2969-5.2188-0.85547-1.1953-2.1055-1.7969-3.75-1.7969-1.625 0-2.8711 0.60156-3.7344 1.7969-0.85547 1.1992-1.2812 2.9375-1.2812 5.2188 0 2.2734 0.42578 4.0078 1.2812 5.2031 0.86328 1.1992 2.1094 1.7969 3.7344 1.7969z"/>
    </symbol>
    <symbol id="i" overflow="visible">
      <path d="m16.406-4.9375c1.6328 0 2.8828-0.59766 3.75-1.7969 0.86328-1.1953 1.2969-2.9297 1.2969-5.2031 0-2.2812-0.43359-4.0195-1.2969-5.2188-0.86719-1.1953-2.1172-1.7969-3.75-1.7969-1.6367 0-2.8906 0.60547-3.7656 1.8125-0.875 1.1992-1.3125 2.9336-1.3125 5.2031 0 2.2617 0.4375 3.9961 1.3125 5.2031 0.875 1.1992 2.1289 1.7969 3.7656 1.7969zm-5.0781-15.484c1.0508-1.3945 2.2188-2.4219 3.5-3.0781 1.2812-0.66406 2.7539-1 4.4219-1 2.9453 0 5.3672 1.1719 7.2656 3.5156 1.8945 2.3438 2.8438 5.3594 2.8438 9.0469s-0.94922 6.7031-2.8438 9.0469c-1.8984 2.3438-4.3203 3.5156-7.2656 3.5156-1.668 0-3.1406-0.33594-4.4219-1s-2.4492-1.6914-3.5-3.0781v3.4531h-7.6562v-33.234h7.6562z"/>
    </symbol>
    <symbol id="h" overflow="visible">
      <path d="m0.53125-23.922h7.6562l6.4219 16.234 5.4688-16.234h7.6562l-10.062 26.188c-1.0117 2.6641-2.1953 4.5234-3.5469 5.5781-1.3438 1.0625-3.1211 1.5938-5.3281 1.5938h-4.4219v-5.0156h2.3906c1.3008 0 2.2422-0.21094 2.8281-0.625 0.59375-0.40625 1.0547-1.1484 1.3906-2.2188l0.20312-0.65625z"/>
    </symbol>
    <symbol id="g" overflow="visible">
      <path d="m4.0156-31.891h9.1875l11.594 21.875v-21.875h7.7969v31.891h-9.1875l-11.594-21.875v21.875h-7.7969z"/>
    </symbol>
    <symbol id="f" overflow="visible">
      <path d="m3.6719-23.922h7.6562v23.922h-7.6562zm0-9.3125h7.6562v6.2344h-7.6562z"/>
    </symbol>
    <symbol id="e" overflow="visible">
      <path d="m27.734-14.562v14.562h-7.7031v-11.109c0-2.0938-0.046875-3.5312-0.14062-4.3125-0.085937-0.78125-0.24219-1.3594-0.46875-1.7344-0.30469-0.5-0.71094-0.88281-1.2188-1.1562-0.51172-0.28125-1.0938-0.42188-1.75-0.42188-1.5938 0-2.8516 0.61719-3.7656 1.8438-0.90625 1.2305-1.3594 2.9375-1.3594 5.125v11.766h-7.6562v-33.234h7.6562v12.812c1.1445-1.3945 2.3633-2.4219 3.6562-3.0781 1.3008-0.66406 2.7383-1 4.3125-1 2.7578 0 4.8516 0.85156 6.2812 2.5469 1.4375 1.6875 2.1562 4.1523 2.1562 7.3906z"/>
    </symbol>
    <symbol id="d" overflow="visible">
      <path d="m27.734-14.562v14.562h-7.7031v-11.156c0-2.0625-0.046875-3.4844-0.14062-4.2656-0.085937-0.78125-0.24219-1.3594-0.46875-1.7344-0.30469-0.5-0.71094-0.88281-1.2188-1.1562-0.51172-0.28125-1.0938-0.42188-1.75-0.42188-1.5938 0-2.8516 0.61719-3.7656 1.8438-0.90625 1.2305-1.3594 2.9375-1.3594 5.125v11.766h-7.6562v-23.922h7.6562v3.5c1.1445-1.3945 2.3633-2.4219 3.6562-3.0781 1.3008-0.66406 2.7383-1 4.3125-1 2.7578 0 4.8516 0.85156 6.2812 2.5469 1.4375 1.6875 2.1562 4.1523 2.1562 7.3906z"/>
    </symbol>
    <symbol id="l" overflow="visible">
      <path d="m0.21875-31.891h29.391v6.2188h-10.578v25.672h-8.2188v-25.672h-10.594z"/>
    </symbol>
  </defs>
  <g>
    <path d="M 586.24 501.25 L 550.084 501.25 C 545.256 501.25 541.334 505.16 541.334 510 L 541.334 536.25 C 541.334 541.09 545.256 545 550.084 545 L 571.041 545 C 582.775 545 593.658 539.172 600.15 529.434 L 600.798 528.461 C 604.384 523.09 604.72 516.203 601.666 510.496 C 598.611 504.793 592.697 501.25 586.24 501.25 Z M 585.592 519.703 C 582.345 524.586 576.904 527.5 571.033 527.5 L 558.826 527.5 L 558.826 518.75 L 586.232 518.75 L 585.592 519.703 Z"/>
    <path d="M 148.75 501.25 L 112.605 501.25 C 106.14 501.25 100.222 504.793 97.171 510.5 C 94.116 516.203 94.448 523.082 98.038 528.453 L 98.679 529.414 C 105.183 539.172 116.07 545 127.792 545 L 148.749 545 C 153.577 545 157.499 541.09 157.499 536.25 L 157.499 510 C 157.499 505.16 153.577 501.25 148.749 501.25 L 148.75 501.25 Z M 140 527.5 L 127.793 527.5 C 121.93 527.5 116.488 524.586 113.234 519.711 L 112.543 518.75 L 140 518.75 L 140 527.5 Z"/>
    <path d="M 461.99 384.02 C 480.31 359.637 489.998 330.586 489.998 300.004 C 489.998 222.813 427.189 160.004 349.998 160.004 C 272.807 160.004 209.998 222.813 209.998 300.004 C 209.998 330.586 219.674 359.625 237.998 384.012 L 251.99 373.504 C 235.967 352.172 227.498 326.762 227.498 300.004 C 227.498 232.453 282.447 177.504 349.998 177.504 C 417.549 177.504 472.498 232.453 472.498 300.004 C 472.498 326.77 464.029 352.18 448.006 373.504 L 461.99 384.02 Z"/>
    <path d="M 350 72.5 C 224.56 72.5 122.5 174.55 122.5 300 C 122.5 372.23 155.664 438.57 213.473 482 L 223.981 468 C 170.618 427.906 140.001 366.68 140.001 300 C 140.001 184.21 234.212 90 350.001 90 C 465.79 90 560.001 184.211 560.001 300 C 560.001 366.676 529.376 427.92 475.993 468.02 L 486.501 482.02 C 544.329 438.579 577.501 372.23 577.501 300 C 577.501 174.55 475.441 72.5 350.001 72.5 L 350 72.5 Z"/>
    <path d="M 350 300 L 358.758 289.047 C 374.098 269.875 374.098 242.629 358.758 223.457 L 350 212.5 L 341.242 223.453 C 325.902 242.625 325.902 269.871 341.242 289.043 L 350 300 Z"/>
    <path d="M 409.68 252.05 L 411.254 238.136 L 397.34 239.71 C 390.446 240.472 384.012 242.659 378.188 245.835 C 381.118 262.636 376.938 280.335 365.598 294.511 L 362.387 298.519 L 363.305 298.414 C 387.715 295.71 406.965 276.461 409.68 252.051 L 409.68 252.05 Z"/>
    <path d="M 302.66 239.71 L 288.746 238.136 L 290.32 252.05 C 293.031 276.464 312.281 295.714 336.695 298.425 L 337.613 298.53 L 334.402 294.522 C 323.062 280.346 318.886 262.635 321.812 245.846 C 315.984 242.659 309.554 240.471 302.66 239.71 Z"/>
    <path d="M 577.5 466.25 L 595 466.25 L 595 483.75 L 577.5 483.75 L 577.5 466.25 Z"/>
    <path d="M 105 466.25 L 122.5 466.25 L 122.5 483.75 L 105 483.75 L 105 466.25 Z"/>
    <path d="M 315 409.38 C 307.766 409.38 301.875 403.489 301.875 396.255 L 293.125 396.255 C 293.125 408.321 302.941 418.13 315 418.13 C 327.059 418.13 336.875 408.321 336.875 396.255 L 328.125 396.255 C 328.125 403.489 322.234 409.38 315 409.38 Z"/>
    <path d="M 385 418.12 C 397.059 418.12 406.875 408.311 406.875 396.245 L 398.125 396.245 C 398.125 403.479 392.234 409.37 385 409.37 C 377.766 409.37 371.875 403.479 371.875 396.245 L 363.125 396.245 C 363.125 408.311 372.941 418.12 385 418.12 Z"/>
    <path d="M 433.27 489.05 L 432.528 488.753 C 424.247 485.448 415.426 483.749 406.52 483.749 L 387.891 483.749 C 417.196 469.593 437.504 439.659 437.504 404.999 C 437.504 356.753 398.25 317.499 350.004 317.499 C 301.758 317.499 262.504 356.753 262.504 404.999 C 262.504 439.659 282.813 469.593 312.117 483.749 L 293.488 483.749 C 284.582 483.749 275.761 485.448 267.492 488.753 L 266.75 489.05 C 246.605 497.109 225.105 501.249 203.414 501.249 L 166.254 501.249 L 166.254 544.999 L 208.586 544.999 C 226.91 544.999 245.117 542.042 262.504 536.249 L 262.504 597.499 L 437.504 597.499 L 437.504 536.249 C 454.891 542.042 473.098 544.999 491.422 544.999 L 533.754 544.999 L 533.754 501.249 L 496.594 501.249 C 474.903 501.249 453.403 497.108 433.27 489.05 Z M 280 404.999 C 280 395.601 281.891 386.632 285.266 378.444 C 304.344 367.542 326.426 361.249 350 361.249 C 373.574 361.249 395.656 367.542 414.734 378.444 C 418.109 386.632 419.999 395.6 419.999 404.999 C 419.999 443.597 388.597 474.999 349.999 474.999 C 311.401 474.999 279.999 443.597 279.999 404.999 L 280 404.999 Z M 350 579.999 L 323.75 527.499 L 350 483.749 L 376.25 527.499 L 350 579.999 Z"/>
  </g>
</svg>