<svg xmlns="http://www.w3.org/2000/svg" xmlns:xlink="http://www.w3.org/1999/xlink" version="1.1" x="0px" y="0px" viewBox="0 0 1000 1250" style="enable-background:new 0 0 1000 1000;" xml:space="preserve"><g><path d="M707.1660767,249.0930023c31.8727417-68.5728149,21.6711426-154.5222168-5.2208862-223.0166168   c18.8825073,20.9623184,29.6152954,52.4830627,38.0940552,78.927597   c8.975708,27.9946442,14.2002563,57.2232513,14.3422241,86.6601105   c0.1312866,27.2028656-3.9194946,54.2754364-13.6984863,79.7364502   c-4.8415527,12.6056213-10.9743042,24.7033081-18.1872559,36.1161499   c-3.3921509,5.3673706-7.0263062,10.58078-10.8596191,15.6420898   c-2.1241455,2.8046875-10.9545288,10.8728333-10.6239624,14.2700195   c8.104126-0.9160767,17.3508911-7.8157349,24.2234497-12.0307922c6.4753418-3.9713745,12.7832642-8.2200928,18.6802979-13.0082703   c17.555542-14.2544861,32.0339966-32.0091248,37.5037231-54.1609497   c4.6531372-18.8447418,3.2042236-38.8032684-0.133728-57.7379303c-1.9549561-11.0897217-4.7683105-22.0102081-8.1950073-32.7335968   c-2.6810913-8.3901215-10.4135742-20.485199-8.7962036-29.4459686   c32.9424438,37.902359,47.5428467,81.358078,51.4494019,129.9641876   c32.2524414-39.1038818,39.4320068-88.8130341,33.8652954-137.7801208   c-2.6424561-23.2430038-5.9641724-45.9602127-17.0462036-66.8964539   c-5.0365601-9.5151482-11.2115479-18.3840027-18.1911011-26.5740929   c-3.3731689-3.9583054-6.9356689-7.7568798-10.6350098-11.4116364c-3.286499-3.2468452-8.8827515-6.6387825-10.3886719-11.1962261   c39.5609131,13.0447006,65.5159302,53.8164825,75.9254761,92.1625366   c10.1220703,37.2870712,11.8354492,78.018898,3.0496216,115.7270737   c-18.5524902,79.6257782-84.114563,138.7118073-156.3487549,171.3013153   c-22.968689,10.3626709-47.6613159,16.6992188-70.2546997,27.7903137   c-9.0991821,4.4667358-21.7924194,10.2146606-27.9324951,18.6747742   c-5.5926514,7.7059021,0.6578369,15.221344,5.5891724,21.5702515c20.71521-20.4711914,46.2393188-34.8693542,72.692627-46.5778809   c12.6968994-5.619812,25.625-10.691925,38.5352173-15.795105c6.9574585-2.7501831,13.9098511-5.5115051,20.829834-8.355072   c4.9859619-2.0488892,10.7926025-5.7183838,16.1730347-5.7183838   c-0.4862671,21.8909302-7.2718506,44.6650696-14.6256714,65.1462097   c-7.0410767,19.610321-15.836731,39.6375427-27.5039062,56.9757385   c-9.1677246,13.6237183-21.5006714,24.8831177-36.3702393,31.9758911   c-18.5281372,8.8377686-39.4215698,9.994812-59.4666138,12.6959839   c5.6956177,35.3873291,11.4276123,70.7648315,17.3483887,106.1152344   c5.4298096,32.4188843,12.8930664,66.1314697,11.3557739,99.1589966   c-1.3074951,28.0872803-10.078125,55.3203735-26.4437866,78.2785034   c-18.8308105,26.4161987-45.7073975,46.9702148-68.3942261,69.9344482   c-12.9738159,13.1325073-25.3855591,26.8348999-36.9815674,41.2022095   c-5.4384766,6.7382202-10.6952515,13.6230469-15.7472534,20.6555786   c-2.3406372,3.2582397-6.5812378,12.1813354-10.8691711,16.871582c-1.9249268,2.1055298-5.2718811,1.9407349-7.0919189-0.2561035   c-3.7026978-4.4691772-6.5090027-9.8867188-9.7985229-14.5587769   c-5.0610046-7.1881714-10.3489075-14.2156372-15.8336182-21.0858765   c-9.836731-12.3215942-20.3023682-24.1333008-31.1952515-35.5289307   c-22.7409973-23.7907104-48.988739-44.4249878-69.8510132-69.9588013   c-41.9576416-51.3530273-31.9250793-115.239624-21.6146851-175.8499756   c3.1784668-18.6849976,6.3634033-37.3626099,9.3802185-56.074707c3.1311035-19.4205933,7.8007812-39.1638184,9.0108948-58.7944336   c-19.5150757-2.7651367-39.9888916-3.9440308-58.0915222-12.3919067   c-16.1046448-7.5154419-29.1838074-19.8701782-38.7941895-34.713562   c-11.5063782-17.7716675-20.1950989-37.9106445-26.9744873-57.9130249   c-6.7094421-19.7961426-12.9495392-41.5674744-12.9495392-62.5780945   c51.2726593,22.4086914,105.828537,36.8734741,147.6296844,77.1538696   c3.9853821-3.8378296,5.7227783-9.4978638,8.7831116-14.2893372c-4.7182922-17.6828918-33.8435974-27.3363037-48.8215942-33.181366   c-18.957428-7.3979797-38.169342-13.8553162-56.6446533-22.4620056   c-35.7759857-16.6662598-69.041687-38.8684082-96.1917114-67.6813965   c-53.1564636-56.4124756-76.110878-137.3897095-55.1742249-212.7921143   c11.3819885-40.9917145,35.4585266-81.0663071,76.7674561-96.9469452c0.7048035,3.7509317-7.0216064,8.337079-9.139679,10.3701468   c-3.6389771,3.492897-7.1222382,7.1533852-10.411087,10.9781227c-7.0155334,8.1586266-13.1563263,17.0728264-18.1922302,26.5845451   c-11.0377502,20.8478928-15.0310974,42.9099503-17.5117035,66.10466   c-2.7772522,25.968811-3.7534027,50.7685394,2.5455627,76.3440399   c5.7710876,23.4319916,16.5350342,45.2762299,31.6692963,64.0823975   c1.7541809-45.4791718,18.168457-96.1835632,50.5231628-129.2542572c2.6836853,6.8220062-5.3384705,19.820282-7.4445038,26.4166412   c-3.2446136,10.1625824-5.9945984,20.5005646-7.9621582,30.9892426   c-3.8712463,20.6366425-5.8552551,44.0230865-0.0046997,64.4715118   c10.4544983,36.5396729,45.3638,62.1737366,79.3230591,75.1296997   c-16.6664124-21.23349-31.6006165-42.5778198-40.8848572-68.1689453   c-9.0015106-24.8117828-12.7782745-51.2469635-12.3532715-77.5887451   c0.4619293-28.634964,5.6072693-57.0018921,14.2891846-84.2602081   c8.690155-27.2839966,19.6509705-57.3559265,37.3688049-80.1412888   c-25.5484314,69.5948486-36.6694031,154.2106476-4.7253723,223.6381989   c17.9656982-67.9733124,34.0841675-106.108963,51.1677246-118.9595642   c-14.7953796,38.4180603-21.2520752,76.7010345-20.6425476,117.4961395   c13.9095764-17.5901031,28.1773071-33.0943756,48.8080139-40.8663025   c-15.5656128,23.0501862-31.5307007,44.5261841-36.1862183,72.7187653   c-2.0565796,12.4539185-3.9597778,26.9159546,5.0899353,36.7819824   c9.4803162,10.3355103,20.7663269,19.1312866,31.3405457,28.2917786   c4.5642395-30.620636,6.1516113-61.2289734,25.9769592-86.5067749   c-8.8899841,40.9151001-10.1479797,81.0586548,11.0719299,119.2875977   c4.2644958-23.3033447,8.8945312-46.3474731,23.367218-66.2131348   c-7.2531433,35.4682922-0.4631042,68.8544922,14.061676,101.2384644   c16.4267273,3.6717529,18.5565186,4.7951355,29.9984741,16.1075745c14.7779541-1.6764832,30.0179443-1.5828552,45.4240112,0.171936   c7.6370239-10.23526,17.7790527-15.4512634,29.8346558-15.6659546   c14.8927612-32.7825928,21.7296753-66.0382385,14.0705566-101.515564   c15.0477295,17.5161133,19.5446167,44.287323,23.1271973,66.3418884   c21.538269-38.2426453,21.4683228-78.465271,11.5430908-119.7769775   c20.1819458,24.8534851,21.7451172,55.5214233,26.6603394,86.0918884   c10.5561523-9.2119141,21.6490479-18.2515869,31.0889282-28.641571c8.8294067-9.7180176,6.5128784-25.027832,4.3530273-37.1582642   c-4.8843994-27.4314117-20.5759888-49.0481262-36.7515259-70.9080048   c9.0791016-0.0313721,16.199646,5.652832,49.0857544,39.2708588c1.0969238-39.9959106-5.6256714-77.9425049-20.4056396-115.2136536   c14.9524536,6.8769226,24.2542114,32.5885162,29.9463501,46.4406738   C694.8568115,201.4049072,701.9927368,225.2361298,707.1660767,249.0930023z M499.8528442,956.3179321   c21.479126-29.8649902,43.9065552-57.4864502,70.2912598-83.196228   c23.1616211-22.5692749,49.6021118-43.2908325,62.2229614-74.0483398   c14.2020874-34.6107788,8.4605103-73.4440918,3.6566772-109.3573608   c-5.1702881-38.6530151-10.5308838-77.2804565-16.00354-115.8916016   c-10.5084839,13.2925415-8.5841675,26.4693604-8.7007446,42.6134033   c-0.0638428,8.8549805-0.1835938,17.7093506-0.2990112,26.5636597c-0.0914307,7.0134277,0.1830444,15.0639038-1.8151245,22.8914795   c0,0-6.5709229-2.2695923-10.0281372-3.4636841c-7.987915,21.039978-17.1837769,41.6984253-31.6170044,59.201416   c-6.6677856,8.0858154-14.3289795,15.8841553-23.7254639,20.7640991c-4.680603,2.4307861-9.7054443,4.0545044-14.9403687,4.7123413   c-4.0186157,0.5050049-12.8656616-1.8222046-15.8217163,1.3494873   c-4.4985962,14.991394-6.4688416,31.1880493-13.0010071,47.8954468   c-6.4770813-16.8729858-8.200531-33.5184326-13.7567749-49.5318604   c-45.6535645,8.1152344-71.1173401-49.168396-84.3892822-83.1236572l-11.0236816,1.3068237   c-1.062439-16.2131348-1.5136108-32.3740845-1.4718323-48.6226807c0.0390015-15.1625977,2.8956604-29.8643799-8.208252-41.7173462   c-4.8866577,39.463501-10.6229248,78.8136597-16.2928772,118.1702881   c-5.1620789,35.8313599-10.3051147,74.4299927,4.5450745,108.7595215   c13.0239563,30.1080322,39.3399658,50.2005615,62.1067505,72.6334229   C456.9768066,899.2501221,480.9812012,925.9417114,499.8528442,956.3179321z M398.5241699,472.3482361   c13.0150757-6.1177979,35.0370178-19.6015625,50.0359497-12.8637085   c-13.0578003,4.1533203-25.1340942,10.846344-35.8989563,19.2886658   c-10.5697021,8.2892761-21.1245728,16.2597961-18.8747864,30.8991394   c23.0975037-1.3199158,49.335907,2.4492493,62.3434448,24.8495789c6.7112427,11.557312,6.2789612,28.395813,7.9448242,41.3857422   c1.9324036,15.0682983,3.3988342,45.7709961,2.7259521,46.0105591   c-6.1216736-20.3848877-12.7878418-40.4397583-32.1543884-53.6030273   c-18.0515747,5.4342651-32.6366577,0.3970337-40.1223145-19.3047485c-7.2855225,5.0033569,0.9802856,23.25354,5.2311707,28.6616211   c8.8654785,11.2788086,22.5112,20.4035034,33.2847595,29.8669434c-11.2882996-1.3693237-20.9015808-5.9705811-30.5678711-11.232666   c0,17.1365967,0,50.0516968,0,50.0516968l7.4698486-3.6925659c0,0,11.8058472,41.0203247,25.4806519,58.2620239   c-1.3847961-25.5704956,5.7349243-48.2623291,12.8315735-72.4922485   c0.4927063,0.1417847-1.7461853,32.0585938-3.4677734,48.9487915   c10.0312805-11.4946899,19.3447266-22.1668701,29.350708-33.6326294   c-1.2688904,9.3215332-6.9306335,15.6660767-9.7687683,22.4749756   c24.023407,11.1750488,47.7879944,11.1048584,71.7377625-0.1643066c-3.1033936-6.982666-8.0088501-13.4995117-8.8456421-21.7484131   c9.3132935,10.8677368,18.6264648,21.7352905,28.8706665,33.6893311   c-1.9631348-17.8296509-3.7574463-34.1260986-5.5518188-50.4224854c8.7967529,23.8318481,18.2890625,47.4846802,14.77771,73.855957   c13.7908936-17.5856323,20.5012207-37.9425659,25.8815308-59.0214844l7.6339722,4.0616455c0,0,0-32.7651367,0-49.829895   c-10.0566406,4.9187622-19.1189575,10.2622681-29.6213379,11.9293823   c9.7443237-10.0540161,22.9520264-18.9420166,31.3101196-30.0302124   c3.4872437-4.6264038,15.3133545-26.7981567,6.1316528-29.5484009   c-2.9387817,7.3139648-7.3009644,14.2513428-14.4282227,18.0704346c-8.4230957,4.5136108-16.9727783,2.6933594-25.9776001,1.994751   c-22.8120117,12.8962402-26.7470703,35.0137329-34.7252197,54.8225708   c1.454834-16.4625244,2.8742065-32.9326782,4.8119507-49.347168c1.4839478-12.5708008,1.6314697-27.8720703,7.6362915-39.3362427   c5.2993164-10.1171875,17.2175293-17.8278198,27.4673462-22.1721191   c11.7836914-4.9943848,23.1019287-3.9477234,35.5406494-3.365509c1.6782837-4.2026672,0.9686279-7.9511719,0.9724121-11.6908264   c-15.3909912-17.8912659-33.8276367-31.3642883-56.1484985-39.5513   c17.8117065-0.8781433,33.6171265,5.3265076,50.4095459,14.4634705   c-7.1094971-16.6019592-17.6572876-31.3726196-34.7084351-38.6531982   c-6.7630615-2.8876953-14.9038696-5.6903381-22.2576904-3.4330139c-7.2918091,2.2383118-10.6394653,8.610321-16.4088745,12.828125   c-18.9998779-1.8462219-38.7089233-2.1220703-58.1679688,0.0670166c-5.2454834-6.711731-9.3251953-13.021637-18.5693359-13.5871887   c-7.7348022-0.4732361-16.2229004,2.5175476-23.0297241,5.9815979   C414.363739,443.5931702,404.7914429,457.417572,398.5241699,472.3482361z M623.2559204,533.4362183   c33.880188,0,66.4867554,2.5551147,90.1425171-26.0384521c11.4129028-13.7951965,19.6148071-30.9157104,26.4053955-47.3726196   c6.7878418-16.4499207,14.4042969-35.5527039,15.2713623-53.4904785   c-17.699646,2.0104065-37.1293945,12.6844482-53.1864624,20.0796204   c-16.9133911,7.7896118-33.9718628,16.4541626-49.2426758,27.1767273   C625.9691162,472.5224915,620.3903809,502.7374268,623.2559204,533.4362183z M376.9379578,535.0792236   c0-10.0733643-0.109375-18.7501221,0.021698-27.4232788c0.3190613-21.1117249-8.7618713-37.6405945-24.960083-50.4299927   c-24.2385559-19.1375122-52.393158-30.9620361-80.7392883-42.3215027   c-7.8982544-3.1651917-15.8389435-6.3357544-24.7447205-8.2870178c0.0949097,1.9270325,0.0043945,3.0988464,0.2287292,4.2070312   c7.0657349,34.9046021,19.5538635,67.5562134,40.6450806,96.531311   c7.3845825,10.1448975,17.2730103,17.3522339,29.0931702,21.4151611   C336.1721191,535.5387573,356.7679138,533.3855591,376.9379578,535.0792236z M655.2199097,365.1960449   c57.3877563-53.6091614,89.8963013-116.9736328,81.6755371-196.9639893   c-1.9941406,25.7021484-4.0255737,51.1274872-11.8554077,75.8572388   c-7.6489868,24.1584473-20.0286865,46.188324-35.8181763,65.9527893   c-15.5107422,19.4154968-33.8294067,36.3789978-53.1193848,51.9700317   c-19.6699219,15.8981018-45.3257446,31.3419495-58.7428589,53.3665161   c1.9923706,1.4684753,2.7293091,2.0282288,5.8319702,2.5766296c11.1177368-12.9984741,23.1075439-22.5040283,39.6162109-27.5209351   c18.1061401-5.5023193,36.5325317-8.8138733,54.3389893-15.5365601   c18.2060547-6.8735046,35.7050781-15.7052917,51.5979004-26.9749146   c15.4274292-10.9396057,32.1224365-24.5240479,40.3573608-41.9772949   C738.5438232,339.9441528,700.2053833,358.7183228,655.2199097,365.1960449z M232.8820801,307.2598572   c5.0972443,9.7627258,12.1082458,17.9025574,20.1502686,25.1226196   c31.7420044,28.4978638,69.3754272,45.2701111,110.5834045,54.3917236   c21.1813965,4.6885986,40.6529236,11.6487122,53.4900513,30.6032715c0.2037659,0.3008423,4.5222473-1.7772217,6.1958313-3.09375   c-7.3831177-9.3110352-15.4465332-17.1749878-23.9653015-24.6010742   c-19.1455994-16.690155-39.9016113-31.443512-58.6177368-48.6452942   c-41.5715942-38.2081909-69.1824036-83.8165588-74.5084839-141.1596985   c-0.9840088-10.594223-1.805603-21.2035217-2.7762756-32.6821747   c-7.4623871,81.1557922,24.6495361,144.9176483,82.8670959,198.023056   C301.5176697,358.8644104,263.5995789,340.1609497,232.8820801,307.2598572z M446.4065247,716.2938232   c10.6351929,10.4296875,19.9919128,19.2907104,35.4819641,17.7178345   c11.3936157-1.1570435,23.1248779-1.1405029,34.4980469,0.1640625   c16.3989868,1.8807983,26.8631592-6.6681519,37.1055908-17.8775635   C517.9380493,717.6865234,482.9067078,717.640564,446.4065247,716.2938232z M549.4121704,574.4152832   c8.8602295-9.4869995,12.4361572-22.3768921,22.6190186-29.7036743c10.315979-7.4224854,23.133728-7.6187744,35.0747681-10.2301636   c-3.2190552-11.3258057-5.3050537-12.8905029-16.1620483-12.362793   C562.4881592,523.501709,545.96521,543.8528442,549.4121704,574.4152832z M393.5773315,534.798584   c12.4689636,1.267395,25.3197632,3.1990967,35.6624451,10.8586426c4.8432922,3.586853,8.7641907,8.2296753,11.6624146,13.4997559   c2.026062,3.684021,5.5406189,15.670166,11.3990173,14.4865723c-1.8184204-10.1096191-1.9099426-23.7911377-6.8457642-32.9158325   c-3.8408203-7.1002808-12.852356-12.4863892-20.1001892-15.5637817   c-6.4371948-2.7330322-16.1698914-5.1516113-23.1066895-2.8130493   C396.6510925,524.237915,395.1187744,529.5328369,393.5773315,534.798584z M483.8451538,700.7124023   c-10.4950256-3.0321655-11.1802368-18.8746338-20.9096375-22.5946045   c-8.3926697-3.2088013-15.4020081,9.1282349-16.8366089,15.8759766   C441.4237061,715.9841309,474.6489258,712.5808716,483.8451538,700.7124023z M516.6621094,700.7452393   c9.0554199,15.0386353,45.9765015,12.2364502,36.5414429-9.8933105   c-3.8808594-9.102417-11.6370239-18.2785645-20.4417114-8.8004761   C527.307373,687.9229126,525.0877686,698.1654053,516.6621094,700.7452393z"/><path d="M386.7134705,684.0021973c3.5204163,13.6831055,7.0041199,27.0263672,11.2920532,40.1596069   c7.7242432,23.6582642,18.6816406,45.6729126,34.2208862,65.1624146   c23.5780945,29.5720215,47.4685364,58.8945923,67.2800293,92.4696655   c3.3237915-5.0848389,6.1712646-9.4990234,9.0760498-13.8751221   c15.2277527-22.9417725,31.4441833-45.1744995,49.6315613-65.8495483   c29.0551147-33.02948,45.5541382-71.8683472,54.3147583-114.4541016c0.1291504-0.6274414,0.4026489-1.2252197,1.0772705-1.7533569   c0.3204346,14.9827881-2.8126831,29.4921875-6.2373047,43.9316406   c-6.9542236,29.3204346-20.7921143,55.2092896-39.3216553,78.8099365   c-25.4555054,32.4222412-48.371521,66.4840698-65.9539795,103.918396c-0.0039062,0.0083008-0.007843,0.0166626-0.0118103,0.0249634   c-0.9011536,1.8903809-3.6683655,1.7055664-4.4792786-0.2251587c-0.290741-0.6921997-0.512085-1.4194946-0.8227539-2.0450439   c-18.150177-36.5432129-39.879303-70.8629761-65.2643738-102.7492065   c-27.2584534-34.2391968-41.1356506-73.3548584-44.7762451-116.5273438   C386.5433044,688.6831055,386.7134705,686.3355103,386.7134705,684.0021973z"/><path d="M427.1729431,855.2952271c-15.1166382-14.256897-30.8394165-28.0387573-41.1744385-46.3417969   c-8.5355225-15.1161499-13.265686-32.008728-14.7066345-49.2659912   c-1.5532532-18.6021729-1.3291321-41.5159302,5.3251038-59.124939c0,38.0341187,0.1328125,75.8334351,21.9335327,108.7600098   c22.2918396,33.668396,54.4054565,60.71698,79.8424377,91.9987793   C478.0150452,901.7522583,443.883606,871.055603,427.1729431,855.2952271z"/><path d="M521.4560547,903.6013794c22.5881348-34.6817627,57.7282715-59.4721069,80.5335083-93.8598022   c21.6295166-32.6148071,23.0999756-71.7985229,22.2744751-109.6984863   c6.9711914,16.3724365,5.9241333,39.3062134,5.0944824,56.7755737   c-0.913147,19.2263794-5.4555054,38.1623535-15.9949341,54.4715576   c-10.8398438,16.7739258-25.8755493,30.3285522-40.3233032,43.8946533   C555.848877,871.3272095,538.6506958,887.4624634,521.4560547,903.6013794z"/><path d="M727.0183716,432.4510803c-15.7960815,16.2030334-35.9898071,28.8269653-42.9752808,54.0410156   c14.5134277-1.9223938,25.0894165-9.9041443,36.5637817-15.8273315   c-3.4378662,22.9125977-69.7069702,62.8926697-91.7119751,55.3002625c1.4423828-3.5313721,5.0775146-4.7155762,7.5600586-7.0801392   c9.9910889-9.51651,18.1810303-20.4178467,23.7463379-32.9655762c4.8356323-10.9024658,12.098877-19.3523254,21.5324707-26.3757019   C695.8522949,449.0322571,710.7376099,439.8480835,727.0183716,432.4510803z"/><path d="M373.0687866,525.9008179c-27.0506287,5.2620239-82.8198853-28.5999146-92.5405884-55.6509399   c11.443634,6.6667786,21.9138794,13.833252,36.0662231,16.1906738   c-6.4222717-24.8317261-25.6657715-37.3729553-41.8742371-52.7167053   c3.1329956-1.0197754,27.0692444,13.7976685,36.894989,20.6858826   c13.1124268,9.1924133,24.0665894,19.6628723,30.7773132,34.8094788   C348.7991638,503.6795654,358.6204529,516.1043701,373.0687866,525.9008179z"/></g></svg>