<?xml version="1.0" encoding="UTF-8"?>
<svg viewBox="100 100 490.006 489.997" width="490.006" height="489.997" xmlns="http://www.w3.org/2000/svg" xmlns:xlink="http://www.w3.org/1999/xlink">
  <path d="M 218.228 148.76 C 215.009 143.174 216.919 136.045 222.497 132.822 C 228.076 129.603 235.212 131.506 238.435 137.091 L 267.603 187.607 C 270.822 193.197 268.912 200.322 263.334 203.545 C 257.756 206.764 250.619 204.862 247.396 199.276 L 218.228 148.76 Z M 426.678 203.549 C 432.256 206.768 439.393 204.865 442.616 199.28 L 471.784 148.764 C 475.003 143.174 473.093 136.049 467.514 132.826 C 461.936 129.607 454.8 131.509 451.576 137.095 L 422.408 187.611 C 419.174 193.197 421.088 200.326 426.678 203.549 Z M 181.668 345.009 C 181.668 338.568 176.453 333.341 170 333.341 L 111.668 333.341 C 105.215 333.341 100 338.568 100 345.009 C 100 351.45 105.215 356.677 111.668 356.677 L 170 356.677 C 176.453 356.677 181.668 351.45 181.668 345.009 Z M 442.618 490.719 C 439.399 485.129 432.259 483.231 426.68 486.45 C 421.101 489.668 419.192 496.798 422.41 502.388 L 451.579 552.904 C 454.797 558.493 461.937 560.392 467.516 557.173 C 473.095 553.954 475.005 546.825 471.786 541.235 L 442.618 490.719 Z M 263.338 486.45 C 257.76 483.231 250.623 485.133 247.4 490.719 L 218.232 541.235 C 215.013 546.825 216.923 553.95 222.501 557.173 C 228.08 560.392 235.216 558.489 238.439 552.904 L 267.607 502.388 C 270.83 496.813 268.916 489.673 263.338 486.45 Z M 454.288 345 L 555.608 236.29 C 559.096 232.543 559.737 226.969 557.194 222.536 C 554.651 218.102 549.542 215.829 544.51 216.957 L 399.65 249.578 L 356.158 108.238 C 354.654 103.336 350.138 100 345.006 100 C 339.873 100 335.357 103.336 333.854 108.238 L 290.362 249.578 L 145.502 216.945 C 140.463 215.813 135.365 218.09 132.818 222.524 C 130.263 226.957 130.916 232.536 134.404 236.278 L 235.724 344.998 L 134.404 453.708 C 130.915 457.454 130.275 463.028 132.818 467.462 C 135.361 471.895 140.458 474.157 145.502 473.04 L 290.362 440.419 L 333.854 581.759 C 335.358 586.661 339.885 589.997 345.006 589.997 C 350.127 589.997 354.654 586.661 356.158 581.759 L 399.65 440.419 L 544.51 473.04 C 549.537 474.161 554.647 471.895 557.194 467.462 C 559.749 463.028 559.096 457.45 555.608 453.708 L 454.288 345 Z M 578.338 333.332 L 520.006 333.332 C 513.553 333.332 508.338 338.558 508.338 345 C 508.338 351.441 513.553 356.668 520.006 356.668 L 578.338 356.668 C 584.791 356.668 590.006 351.441 590.006 345 C 590.006 338.558 584.791 333.332 578.338 333.332 Z"></path>
</svg>
