<?xml version="1.0" encoding="UTF-8"?>
<svg width="1200pt" height="1200pt" version="1.1" viewBox="0 0 1200 1200" xmlns="http://www.w3.org/2000/svg">
 <path d="m213.28 752.34c-9.9883 0.011719-19.496 4.2734-26.156 11.719-18.609 20.695-79.312 92.109-79.312 140.62 0 37.68 20.102 72.5 52.734 91.34s72.836 18.84 105.47 0 52.734-53.66 52.734-91.34c0-48.516-60.703-119.93-79.312-140.62-6.6602-7.4453-16.168-11.707-26.156-11.719zm0 187.5c-9.3242 0-18.266-3.7031-24.859-10.297s-10.297-15.535-10.297-24.859c0.375-9.8203 15.258-35.156 35.156-61.805 19.898 26.648 34.758 51.961 35.156 61.805 0 9.3242-3.7031 18.266-10.297 24.859s-15.535 10.297-24.859 10.297z"/>
 <path d="m986.72 752.34c-9.9883 0.011719-19.496 4.2734-26.156 11.719-18.609 20.695-79.312 92.109-79.312 140.62 0 37.68 20.102 72.5 52.734 91.34s72.836 18.84 105.47 0 52.734-53.66 52.734-91.34c0-48.516-60.703-119.93-79.312-140.62-6.6602-7.4453-16.168-11.707-26.156-11.719zm0 187.5c-9.3242 0-18.266-3.7031-24.859-10.297s-10.297-15.535-10.297-24.859c0.375-9.8203 15.258-35.156 35.156-61.805 19.898 26.648 34.758 51.961 35.156 61.805 0 9.3242-3.7031 18.266-10.297 24.859s-15.535 10.297-24.859 10.297z"/>
 <path d="m1091.6 440.11c-3.25-46.773-19.785-91.645-47.66-129.34-27.875-37.699-65.934-66.656-109.7-83.469-43.766-16.812-91.422-20.781-137.37-11.441-26.539-67.844-74.18-125.37-135.89-164.08-61.715-38.715-134.23-56.57-206.87-50.938-72.633 5.6289-141.54 34.457-196.54 82.219-55.008 47.766-93.207 111.95-108.97 183.07-52.051 22.398-94.781 62.074-120.97 112.32-26.188 50.254-34.23 108-22.77 163.5 11.461 55.496 41.719 105.34 85.672 141.11 43.949 35.766 98.898 55.273 155.57 55.219h170.55l-38.203 148.27c-2.7109 10.527-0.39844 21.715 6.2617 30.309 6.6602 8.5898 16.922 13.617 27.793 13.613h88.641l12.375 236.2c0.51562 9.9805 5.25 19.266 13.027 25.543 7.7734 6.2773 17.852 8.9492 27.715 7.3477 9.8633-1.5977 18.578-7.3203 23.969-15.734l238.88-372.42c4.5664-7.1172 6.4141-15.641 5.207-24.008-1.2109-8.3711-5.3945-16.023-11.785-21.559-6.3945-5.5312-14.566-8.5781-23.023-8.5742h-72.656l5.5312-18.984h327.28c49.121-0.042969 95.207-23.766 123.78-63.719s36.133-91.234 20.301-137.73c-15.836-46.5-53.117-82.512-100.14-96.723zm-368.41 387.47-145.17 226.31-8.4844-160.41c-0.46875-9.0039-4.3789-17.484-10.922-23.688-6.543-6.1992-15.219-9.6523-24.234-9.6406h-76.641l73.078-283.59h163.48l-60.094 206.02c-3.0977 10.629-1.0117 22.094 5.6328 30.945 6.6445 8.8555 17.07 14.062 28.141 14.055zm324.47-159.61h-306.68l34.031-116.72c3.0977-10.625 1.0156-22.086-5.625-30.938-6.6406-8.8516-17.059-14.062-28.125-14.062h-237.59c-7.7969 0.003906-15.367 2.5977-21.531 7.375-6.1602 4.7773-10.555 11.465-12.5 19.016l-34.875 135.33h-188.67c-36.941 0.027344-72.953-11.582-102.92-33.184-29.965-21.602-52.367-52.098-64.02-87.152-11.652-35.055-11.965-72.891-0.89062-108.13 11.07-35.242 32.965-66.102 62.574-88.195 1.0469 32.305 6.7031 64.289 16.805 94.992 3.9453 11.93 13.953 20.848 26.254 23.395s25.027-1.6602 33.387-11.039 11.078-22.504 7.1328-34.434c-8.9492-27.23-13.496-55.711-13.477-84.375 0.003906-14.191 1.1172-28.359 3.3281-42.375 9.6328-60.828 39.809-116.52 85.5-157.82 45.695-41.289 104.15-65.688 165.64-69.133 61.492-3.4453 122.31 14.273 172.32 50.207 50.02 35.93 86.227 87.91 102.59 147.28 2.6055 9.4531 9.0352 17.387 17.746 21.891 8.707 4.5039 18.902 5.168 28.121 1.8281 33.059-11.973 68.945-13.754 103.03-5.1172 34.082 8.6367 64.793 27.293 88.16 53.562s38.32 58.941 42.93 93.797h-78.117c-12.559 0-24.168 6.6992-30.445 17.578-6.2812 10.879-6.2812 24.277 0 35.156 6.2773 10.879 17.887 17.578 30.445 17.578h112.83c28.191 2.6992 52.996 19.754 65.617 45.105 12.617 25.355 11.266 55.426-3.5781 79.547-14.844 24.117-41.078 38.875-69.398 39.035z"/>
</svg>
