<?xml version="1.0" encoding="UTF-8" standalone="no" ?>
<!DOCTYPE svg PUBLIC "-//W3C//DTD SVG 1.1//EN" "http://www.w3.org/Graphics/SVG/1.1/DTD/svg11.dtd">
<svg xmlns="http://www.w3.org/2000/svg" xmlns:xlink="http://www.w3.org/1999/xlink" version="1.1" width="1080" height="1080" viewBox="0 0 1080 1080" xml:space="preserve">
<desc>Created with Fabric.js 5.2.4</desc>
<defs>
</defs>
<g transform="matrix(1 0 0 1 540 540)" id="7908147d-5065-4f02-8c53-c15d7cc8ff94"  >
<rect style="stroke: none; stroke-width: 1; stroke-dasharray: none; stroke-linecap: butt; stroke-dashoffset: 0; stroke-linejoin: miter; stroke-miterlimit: 4; fill: rgb(255,255,255); fill-rule: nonzero; opacity: 1; visibility: hidden;" vector-effect="non-scaling-stroke"  x="-540" y="-540" rx="0" ry="0" width="1080" height="1080" />
</g>
<g transform="matrix(1 0 0 1 540 540)" id="ff9fa1da-6593-49e6-9947-7a6ddc291096"  >
</g>
<g transform="matrix(1 0 0 1 540 540)"  >
<rect style="stroke: none; stroke-width: 1; stroke-dasharray: none; stroke-linecap: butt; stroke-dashoffset: 0; stroke-linejoin: miter; stroke-miterlimit: 4; fill: rgb(255,255,255); fill-rule: nonzero; opacity: 1; visibility: hidden;" vector-effect="non-scaling-stroke"  x="-540" y="-540" rx="0" ry="0" width="1080" height="1080" />
</g>
<g transform="matrix(1.64 0 0 1.64 726.97 623.37)"  >
<path style="stroke: none; stroke-width: 1; stroke-dasharray: none; stroke-linecap: butt; stroke-dashoffset: 0; stroke-linejoin: miter; stroke-miterlimit: 4; fill: rgb(0,0,0); fill-rule: nonzero; opacity: 1;" vector-effect="non-scaling-stroke"  transform=" translate(-466.95, -327)" d="M 350.16 310.98 L 350.16 333.48 C 367.699 338.6245 401.449 343.01120000000003 467.04 343.01120000000003 C 532.442 343.01120000000003 566.188 338.6245 583.73 333.48 L 583.73 310.98 C 561.609 325.47200000000004 504.22200000000004 328.14000000000004 466.85 328.14000000000004 C 429.66600000000005 328.14000000000004 372.659 325.46810000000005 350.16 310.98 z" stroke-linecap="round" />
</g>
<g transform="matrix(1.64 0 0 1.64 726.98 151.72)"  >
<path style="stroke: none; stroke-width: 1; stroke-dasharray: none; stroke-linecap: butt; stroke-dashoffset: 0; stroke-linejoin: miter; stroke-miterlimit: 4; fill: rgb(0,0,0); fill-rule: nonzero; opacity: 1;" vector-effect="non-scaling-stroke"  transform=" translate(-466.94, -40.13)" d="M 583.73 41.57 L 583.73 21.543 C 566.191 26.878899999999998 532.437 31.2657 467.03000000000003 31.2657 C 401.43600000000004 31.2657 367.69000000000005 26.878999999999998 350.15000000000003 21.543 L 350.15000000000003 41.754 C 372.271 56.245999999999995 429.47 58.723 466.84000000000003 58.723 C 504.21500000000003 58.723 561.797 56.2464 583.73 41.571 z" stroke-linecap="round" />
</g>
<g transform="matrix(1.64 0 0 1.64 726.99 94.35)"  >
<path style="stroke: none; stroke-width: 1; stroke-dasharray: none; stroke-linecap: butt; stroke-dashoffset: 0; stroke-linejoin: miter; stroke-miterlimit: 4; fill: rgb(0,0,0); fill-rule: nonzero; opacity: 1;" vector-effect="non-scaling-stroke"  transform=" translate(-466.95, -5.24)" d="M 560.47 5.1445 C 539.501 2.4804 507.279 0 467.048 0 C 426.626 0 394.403 2.4805 373.427 5.1445 C 394.40000000000003 8.1953 426.62600000000003 10.4804 467.048 10.4804 C 507.278 10.488211999999999 539.501 8.1992 560.47 5.1445 z" stroke-linecap="round" />
</g>
<g transform="matrix(1.64 0 0 1.64 726.74 421.99)"  >
<path style="stroke: none; stroke-width: 1; stroke-dasharray: none; stroke-linecap: butt; stroke-dashoffset: 0; stroke-linejoin: miter; stroke-miterlimit: 4; fill: rgb(0,0,0); fill-rule: nonzero; opacity: 1;" vector-effect="non-scaling-stroke"  transform=" translate(-466.79, -204.51)" d="M 466.79 205.7 C 425.923 205.7 361.11 202.64919999999998 344.62 184.25099999999998 C 342.1005 187.06349999999998 340.6317 190.20799999999997 340.6317 193.7822 C 340.6317 220.7472 419.6707 224.7662 466.7917 224.7662 C 513.9087 224.7662 592.9517 220.7467 592.9517 193.7822 C 592.9517 190.208 591.4829 187.0634 588.9634 184.25099999999998 C 572.4793999999999 202.65299999999996 507.6624 205.7 466.79339999999996 205.7 z" stroke-linecap="round" />
</g>
<g transform="matrix(1.64 0 0 1.64 726.74 351.45)"  >
<path style="stroke: none; stroke-width: 1; stroke-dasharray: none; stroke-linecap: butt; stroke-dashoffset: 0; stroke-linejoin: miter; stroke-miterlimit: 4; fill: rgb(0,0,0); fill-rule: nonzero; opacity: 1;" vector-effect="non-scaling-stroke"  transform=" translate(-466.79, -161.61)" d="M 466.79 162.8 C 425.923 162.8 361.11 159.7492 344.62 141.351 C 342.1005 144.1635 340.6317 147.308 340.6317 150.8822 C 340.6317 177.84720000000002 419.6707 181.86620000000002 466.7917 181.86620000000002 C 513.9087 181.86620000000002 592.9517 177.84670000000003 592.9517 150.8822 C 592.9517 147.30800000000002 591.4829 144.16340000000002 588.9634 141.351 C 572.4793999999999 159.746 507.6624 162.8 466.79339999999996 162.8 z" stroke-linecap="round" />
</g>
<g transform="matrix(1.64 0 0 1.64 726.74 488.6)"  >
<path style="stroke: none; stroke-width: 1; stroke-dasharray: none; stroke-linecap: butt; stroke-dashoffset: 0; stroke-linejoin: miter; stroke-miterlimit: 4; fill: rgb(0,0,0); fill-rule: nonzero; opacity: 1;" vector-effect="non-scaling-stroke"  transform=" translate(-466.79, -245.03)" d="M 466.79 246.22 C 425.923 246.22 361.11 243.1692 344.62 224.771 C 342.1005 227.5835 340.6317 230.72799999999998 340.6317 234.3022 C 340.6317 261.2672 419.6707 265.2862 466.7917 265.2862 C 513.9087 265.2862 592.9517 261.2667 592.9517 234.3022 C 592.9517 230.728 591.4829 227.5834 588.9634 224.771 C 572.4793999999999 243.166 507.6624 246.22 466.79339999999996 246.22 z" stroke-linecap="round" />
</g>
<g transform="matrix(1.64 0 0 1.64 726.74 284.82)"  >
<path style="stroke: none; stroke-width: 1; stroke-dasharray: none; stroke-linecap: butt; stroke-dashoffset: 0; stroke-linejoin: miter; stroke-miterlimit: 4; fill: rgb(0,0,0); fill-rule: nonzero; opacity: 1;" vector-effect="non-scaling-stroke"  transform=" translate(-466.79, -121.09)" d="M 466.79 122.28 C 425.923 122.28 361.11 119.2292 344.62 100.831 C 342.1005 103.6435 340.6317 106.788 340.6317 110.3622 C 340.6317 137.3272 419.6707 141.3462 466.7917 141.3462 C 513.9087 141.3462 592.9517 137.32670000000002 592.9517 110.3622 C 592.9517 106.788 591.4829 103.6434 588.9634 100.831 C 572.4793999999999 119.229 507.6624 122.28 466.79339999999996 122.28 z" stroke-linecap="round" />
</g>
<g transform="matrix(1.64 0 0 1.64 726.74 214.29)"  >
<path style="stroke: none; stroke-width: 1; stroke-dasharray: none; stroke-linecap: butt; stroke-dashoffset: 0; stroke-linejoin: miter; stroke-miterlimit: 4; fill: rgb(0,0,0); fill-rule: nonzero; opacity: 1;" vector-effect="non-scaling-stroke"  transform=" translate(-466.79, -78.19)" d="M 466.79 98.449 C 513.907 98.449 592.95 94.4295 592.95 67.465 C 592.95 63.890800000000006 591.4812000000001 60.7462 588.9617000000001 57.933800000000005 C 572.4737 76.3358 507.6607000000001 79.3828 466.79170000000005 79.3828 C 425.92470000000003 79.3828 361.11170000000004 76.33200000000001 344.62170000000003 57.933800000000005 C 342.10220000000004 60.746300000000005 340.63340000000005 63.890800000000006 340.63340000000005 67.465 C 340.63340000000005 94.426 419.6684 98.44900000000001 466.7934 98.44900000000001 z" stroke-linecap="round" />
</g>
<g transform="matrix(1.64 0 0 1.64 534.71 766.15)"  >
<path style="stroke: none; stroke-width: 1; stroke-dasharray: none; stroke-linecap: butt; stroke-dashoffset: 0; stroke-linejoin: miter; stroke-miterlimit: 4; fill: rgb(0,0,0); fill-rule: nonzero; opacity: 1;" vector-effect="non-scaling-stroke"  transform=" translate(-350, -413.83)" d="M 466.79 289.12 C 429.51300000000003 289.12 372.442 286.538 350.16 272.136 C 350.16 272.136 344.1327 268.4798 343.8358 268.86650000000003 C 338.0389 268.67509 332.2538 268.46806000000004 326.3238 268.46806000000004 C 203.37380000000002 268.46415400000006 107.0538 359.41306000000003 107.0538 423.75806 C 107.0538 435.81706 112.4093 447.22306 121.85079999999999 457.70306 C 111.31179999999999 471.86706 106.5028 486.37106 109.1518 500.37906 C 116.0893 537.14906 170.1908 559.9960599999999 250.3318 559.9960599999999 C 279.5938 559.9960599999999 310.37879999999996 556.97656 341.85179999999997 551.04296 C 398.05879999999996 540.43796 449.3918 521.67196 486.3918 498.20696 C 525.9118 473.13696 544.9778 445.01896 540.0717999999999 419.02296 C 533.1342999999999 382.25696 479.03679999999997 359.40996 398.89179999999993 359.40996 C 369.62179999999995 359.40996 338.82179999999994 362.42946 307.35279999999995 368.36306 C 230.73179999999996 382.83606000000003 167.79279999999994 411.45706 134.39279999999994 443.51506 C 134.40451799999994 443.503341 134.41623699999994 443.491623 134.42795599999994 443.47990400000003 C 128.99435599999993 436.95650400000005 126.11935599999994 430.28490400000004 126.11935599999994 423.76090400000004 C 126.11935599999994 373.70590400000003 208.33835599999992 287.52090400000003 326.32935599999996 287.52090400000003 C 333.044156 287.52090400000003 339.540356 287.74356400000005 346.001356 287.99746400000004 C 364.32935599999996 305.23546400000004 426.91135599999996 308.173464 466.791356 308.173464 C 513.908356 308.173464 592.951356 304.15396400000003 592.951356 277.18946400000004 C 592.951356 273.615264 591.482556 270.47066400000006 588.963056 267.65826400000003 C 572.4710560000001 286.06426400000004 507.6540560000001 289.115264 466.78305600000004 289.115264 z M 310.90000000000003 387.1 C 341.201 381.38120000000004 370.81000000000006 378.4828 398.90000000000003 378.4828 C 467.16600000000005 378.4828 516.36 396.2018 521.35 422.5648 C 522.768 430.0804 520.3461 438.3738 514.8422 446.9788 C 488.35020000000003 473.9708 418.31520000000006 497.6468 326.33220000000006 497.6468 C 245.10520000000005 497.6468 180.84220000000005 479.1898 148.67220000000006 456.2838 C 177.75020000000006 429.1708 235.19520000000006 401.3968 310.90220000000005 387.09979999999996 z M 136.01000000000005 470.43600000000004 C 173.47500000000005 498.28000000000003 243.81000000000006 516.7130000000001 326.32000000000005 516.7130000000001 C 363.16400000000004 516.7130000000001 397.523 512.9825000000001 427.71000000000004 506.4430000000001 C 400.95200000000006 517.3300000000002 370.57300000000004 526.2160000000001 338.312 532.3100000000001 C 308.011 538.0288 278.41 540.9272000000001 250.332 540.9272000000001 C 182.062 540.9272000000001 132.85199999999998 523.2082 127.872 496.8452000000001 C 126.3681 488.8725000000001 129.3525 479.8452000000001 136.0048 470.43520000000007 z" stroke-linecap="round" />
</g>
</svg>