<?xml version="1.0" encoding="UTF-8" standalone="no" ?>
<!DOCTYPE svg PUBLIC "-//W3C//DTD SVG 1.1//EN" "http://www.w3.org/Graphics/SVG/1.1/DTD/svg11.dtd">
<svg xmlns="http://www.w3.org/2000/svg" xmlns:xlink="http://www.w3.org/1999/xlink" version="1.1" width="1080" height="1080" viewBox="0 0 1080 1080" xml:space="preserve">
<desc>Created with Fabric.js 5.2.4</desc>
<defs>
</defs>
<g transform="matrix(1 0 0 1 540 540)" id="d05340ab-d400-4ced-8aa2-31bb7ab0c479"  >
<rect style="stroke: none; stroke-width: 1; stroke-dasharray: none; stroke-linecap: butt; stroke-dashoffset: 0; stroke-linejoin: miter; stroke-miterlimit: 4; fill: rgb(255,255,255); fill-rule: nonzero; opacity: 1; visibility: hidden;" vector-effect="non-scaling-stroke"  x="-540" y="-540" rx="0" ry="0" width="1080" height="1080" />
</g>
<g transform="matrix(1 0 0 1 540 540)" id="270b54ae-de87-4b81-8a6f-f36795823822"  >
</g>
<g transform="matrix(1 0 0 1 540 540)"  >
<rect style="stroke: none; stroke-width: 1; stroke-dasharray: none; stroke-linecap: butt; stroke-dashoffset: 0; stroke-linejoin: miter; stroke-miterlimit: 4; fill: rgb(255,255,255); fill-rule: nonzero; opacity: 1; visibility: hidden;" vector-effect="non-scaling-stroke"  x="-540" y="-540" rx="0" ry="0" width="1080" height="1080" />
</g>
<g transform="matrix(1 0 0 1 540 540)"  >
<rect style="stroke: none; stroke-width: 1; stroke-dasharray: none; stroke-linecap: butt; stroke-dashoffset: 0; stroke-linejoin: miter; stroke-miterlimit: 4; fill: rgb(255,255,255); fill-rule: nonzero; opacity: 1; visibility: hidden;" vector-effect="non-scaling-stroke"  x="-540" y="-540" rx="0" ry="0" width="1080" height="1080" />
</g>
<g transform="matrix(2.01 0 0 2.01 251.89 539.26)"  >
<path style="stroke: none; stroke-width: 10; stroke-dasharray: none; stroke-linecap: butt; stroke-dashoffset: 0; stroke-linejoin: miter; stroke-miterlimit: 4; fill: rgb(0,0,0); fill-rule: nonzero; opacity: 1;" vector-effect="non-scaling-stroke"  transform=" translate(-206.77, -279.99)" d="M 181.08 257.1 L 178.84560000000002 257.5375 C 176.34170000000003 258.02578 174.52140000000003 260.20160000000004 174.50180000000003 262.7563 L 173.99789000000004 310.24830000000003 C 173.93148400000004 316.3967 174.45101000000005 322.58430000000004 175.53309000000004 328.63930000000005 L 205.32609000000005 494.93930000000006 C 206.61909000000006 502.16980000000007 212.89249000000004 507.41630000000004 220.23209000000006 507.4193000000001 C 222.34149000000005 507.4193000000001 224.40399000000005 506.9818000000001 226.35319000000007 506.1185000000001 L 258.12619000000007 492.0635000000001 C 264.27069000000006 489.34870000000006 267.91919000000007 482.7940000000001 267.00119000000007 476.14150000000006 L 245.13419000000007 317.8715000000001 C 244.25528000000008 311.5277000000001 242.7552900000001 305.2505000000001 240.66149000000007 299.1955000000001 L 224.79049000000006 253.2935000000001 C 224.02877000000007 251.08650000000011 221.95849000000007 249.6685000000001 219.69279000000006 249.6763000000001 L 216.06779000000006 228.92230000000012 L 245.65379000000007 212.15630000000013 C 247.63039000000006 211.03520000000012 248.68899000000008 208.79690000000014 248.30219000000008 206.56250000000014 L 238.21619000000007 148.32450000000014 C 230.30209000000008 102.61750000000015 197.76719000000008 66.01550000000015 153.31019000000006 52.79350000000014 C 151.52499000000006 52.26225000000014 149.59139000000008 52.69194000000014 148.20469000000006 53.930200000000134 C 146.81409000000005 55.16850000000014 146.16169000000005 57.039600000000135 146.48589000000007 58.867700000000134 z M 230.49800000000002 302.71700000000004 C 232.36130000000003 308.10370000000006 233.70110000000003 313.69700000000006 234.47850000000003 319.35 L 256.3455 477.62 C 256.61503 479.5536 255.55644 481.452 253.7752 482.2333 L 222.00220000000002 496.2883 C 221.43189 496.54221 220.83030000000002 496.66721 220.2288 496.66721 C 218.40460000000002 496.66721 216.3304 495.42501 215.90460000000002 493.04221 L 209.0765 454.92921 L 239.95950000000002 431.30421 C 241.67430000000002 430.08941 242.58450000000002 427.92921 242.10010000000003 425.74951 C 241.45557000000002 422.85501 238.58450000000002 421.02290999999997 235.68210000000002 421.66751 C 234.92038000000002 421.83548 234.20550000000003 422.17142 233.58050000000003 422.64798 L 206.94750000000002 443.02698000000004 L 204.94750000000002 431.87098000000003 L 235.75250000000003 408.30498000000006 C 238.11190000000002 406.50028000000003 238.55720000000002 403.12528000000003 236.7564 400.76588000000004 C 234.95170000000002 398.40648000000004 231.57670000000002 397.96118 229.21730000000002 399.76198000000005 L 202.80730000000003 419.96098000000006 L 200.91280000000003 409.40598000000006 L 231.49480000000003 386.01498000000004 C 233.85420000000002 384.21028 234.29950000000002 380.83528 232.4987 378.47588 C 230.69400000000002 376.11648 227.31900000000002 375.67118 224.95960000000002 377.47198000000003 L 198.77960000000002 397.49898 L 196.88510000000002 386.93698 L 227.23710000000003 363.72998 C 229.59650000000002 361.92528 230.04960000000003 358.55028 228.24490000000003 356.19088 C 226.44020000000003 353.83148 223.06910000000002 353.38617999999997 220.70580000000004 355.18308 L 194.74880000000005 375.03108000000003 L 192.86210000000005 364.48808 L 222.98310000000006 341.44508 C 225.34250000000006 339.64038 225.78780000000006 336.26538 223.98700000000005 333.90598 C 222.18230000000005 331.54658 218.81120000000004 331.10128 216.44790000000006 332.90208 L 190.72490000000005 352.58208 L 186.09210000000004 326.72708 C 185.12335000000004 321.34038 184.66240000000005 315.82908 184.72490000000005 310.34808 L 185.18584000000004 267.23508 L 214.55284000000003 261.51238 C 215.09971000000004 261.598317 215.66614000000004 261.61785000000003 216.24814000000003 261.516286 z M 227.62300000000002 150.15700000000004 L 237.0644 204.66900000000004 L 207.4744 221.44200000000004 C 205.4978 222.56310000000005 204.4392 224.80140000000003 204.8299 227.04360000000003 L 209.1268 251.63760000000002 L 191.6428 255.04380000000003 L 158.63479999999998 65.95380000000003 C 194.82279999999997 79.87980000000003 220.91979999999998 111.43780000000004 227.62279999999998 150.15680000000003 z" stroke-linecap="round" />
</g>
<g transform="matrix(2.01 0 0 2.01 481.47 539.46)"  >
<path style="stroke: none; stroke-width: 10; stroke-dasharray: none; stroke-linecap: butt; stroke-dashoffset: 0; stroke-linejoin: miter; stroke-miterlimit: 4; fill: rgb(0,0,0); fill-rule: nonzero; opacity: 1;" vector-effect="non-scaling-stroke"  transform=" translate(-320.96, -280.11)" d="M 314.62 185.98 C 315.47156 186.019062 316.3153 186.0425 317.163 186.0425 C 335.034 186.0425 350.89300000000003 177.3003 360.601 163.76549999999997 L 363.3783 263.2575 C 363.00721000000004 263.51141 362.66736000000003 263.80438 362.35880000000003 264.15202999999997 C 360.3197 266.46452999999997 342.45680000000004 287.19102999999996 342.8978 302.53902999999997 L 346.74940000000004 435.92902999999995 C 347.12049 448.81602999999996 344.30410000000006 461.77302999999995 338.6127 473.39402999999993 C 337.5307 475.6010299999999 338.08536000000004 478.26122999999995 339.9565 479.8510299999999 C 340.9604 480.70258999999993 342.1948 481.13222999999994 343.4409 481.13222999999994 C 344.5229 481.13222999999994 345.6128 480.8080099999999 346.5425 480.14784999999995 C 347.57370000000003 479.42128999999994 352.81980000000004 475.69084999999995 354.7456 473.92124999999993 C 370.4096 459.5302499999999 378.97560000000004 436.41324999999995 378.2416 410.49924999999996 L 370.54630000000003 134.87924999999996 C 371.16349 120.67624999999995 366.2416 107.08224999999996 356.66330000000005 96.56324999999995 C 347.05000000000007 86.00124999999996 333.89330000000007 79.81324999999995 319.62430000000006 79.14924999999995 C 289.87030000000004 77.75474999999996 265.0733000000001 100.63724999999995 263.6983000000001 130.06324999999995 C 263.03033000000005 144.33324999999996 267.9600000000001 158.00824999999995 277.5733000000001 168.56724999999994 C 287.1983000000001 179.13724999999994 300.35030000000006 185.32524999999995 314.62030000000004 185.98924999999994 z M 355.679 456.39 C 357.07739999999995 449.5619 357.70239999999995 442.585 357.49929999999995 435.62 L 353.64769999999993 302.23 C 353.49144999999993 296.74170000000004 358.10079999999994 287.75 363.8356999999999 279.632 L 367.49979999999994 410.79200000000003 C 367.9958899999999 428.36600000000004 363.76539999999994 444.35400000000004 355.67979999999994 456.386 z M 274.441 130.56 C 275.51129999999995 107.724 294.24199999999996 89.83000000000001 317.08599999999996 89.83000000000001 C 317.76177999999993 89.83000000000001 318.44149999999996 89.84562500000001 319.1251 89.88078100000001 C 330.52709999999996 90.41984100000002 341.03909999999996 95.35738100000002 348.7231 103.79478100000001 C 356.4067 112.23228100000001 360.34409999999997 123.15778100000001 359.81309999999996 134.56078100000002 C 358.71149999999994 158.076781 338.8481 176.35778100000002 315.1291 175.24078100000003 C 303.7271 174.70172100000002 293.2151 169.76418100000004 285.5311 161.32678100000004 C 277.8436 152.88928100000004 273.9101 141.96378100000004 274.4411 130.56078100000005 z" stroke-linecap="round" />
</g>
<g transform="matrix(2.01 0 0 2.01 775.25 430.73)"  >
<path style="stroke: none; stroke-width: 10; stroke-dasharray: none; stroke-linecap: butt; stroke-dashoffset: 0; stroke-linejoin: miter; stroke-miterlimit: 4; fill: rgb(0,0,0); fill-rule: nonzero; opacity: 1;" vector-effect="non-scaling-stroke"  transform=" translate(-467.09, -226.02)" d="M 383.67 295.42 C 384.40828 295.76766000000003 385.18170000000003 295.92781 385.9434 295.92781 C 386.83793 295.92781 387.7168 295.69343000000003 388.4981 295.26765 C 389.25591000000003 304.04105 389.05669 312.60365 385.80280000000005 320.06065 C 384.61530000000005 322.78335 385.853581 325.95125 388.57620000000003 327.13875 C 389.27542000000005 327.44734 390.00980000000004 327.59187000000003 390.72850000000005 327.59187000000003 C 392.7988 327.59187000000003 394.77150000000006 326.38877 395.6582000000001 324.36527 C 401.6348000000001 310.70127 399.5449000000001 295.23227 397.70900000000006 281.58827 L 397.3769700000001 279.11167 C 405.82227000000006 261.72867 414.6309700000001 244.65867 423.21697000000006 228.04567 C 429.39277000000004 216.09667 435.6899700000001 203.89367 441.8649700000001 191.55767 C 443.7985700000001 201.63167 448.4547700000001 211.00667 455.5329700000001 218.78467 C 465.6699700000001 229.92167 479.5409700000001 236.44067 494.5799700000001 237.14767 C 495.4745000000001 237.186732 496.3729700000001 237.21017 497.26357000000013 237.21017 C 527.4085700000002 237.21017 552.1265700000001 213.60517000000002 553.5365700000001 183.47217 C 554.2436000000001 168.42917 549.0443700000001 154.01117 538.9075700000001 142.87817 C 528.7705700000001 131.74117 514.89957 125.22217 499.86057000000005 124.51517000000001 C 473.6265700000001 123.28857 451.02857000000006 139.99917000000002 443.5085700000001 163.67117000000002 C 433.97737000000006 183.78017000000003 423.6565700000001 203.76917000000003 413.6645700000001 223.10917 C 402.78557000000006 244.16417 391.5315700000001 265.94517 381.0825700000001 288.26917000000003 C 379.82087000000007 290.96057 380.9810100000001 294.16367 383.66847000000007 295.42147000000006 z M 497.18 135.20000000000002 C 497.90266 135.20000000000002 498.6292 135.21562500000002 499.35970000000003 135.25078100000002 C 524.4927 136.42658100000003 543.9727 157.83678100000003 542.7977000000001 182.96178100000003 C 541.6219000000001 208.07078100000004 520.3997 227.57478100000003 495.08670000000006 226.39978100000002 C 482.9107000000001 225.829471 471.68870000000004 220.55208100000002 463.4847000000001 211.53678100000002 C 455.2816000000001 202.52508100000003 451.07470000000006 190.856781 451.6447000000001 178.68178100000003 C 451.8243900000001 174.84588100000002 452.4728200000001 171.14268100000004 453.5275000000001 167.62678100000002 C 453.71109000000007 167.24006100000003 453.89859000000007 166.85334100000003 454.0821900000001 166.46268100000003 C 454.3673500000001 165.86502100000004 454.50797000000006 165.23608100000004 454.5626600000001 164.60718100000003 C 461.0978600000001 147.34118100000003 477.73466000000013 135.20118100000002 497.1796600000001 135.20118100000002 z" stroke-linecap="round" />
</g>
<g transform="matrix(2.01 0 0 2.01 463.44 828.39)"  >
<path style="stroke: none; stroke-width: 10; stroke-dasharray: none; stroke-linecap: butt; stroke-dashoffset: 0; stroke-linejoin: miter; stroke-miterlimit: 4; fill: rgb(0,0,0); fill-rule: nonzero; opacity: 1;" vector-effect="non-scaling-stroke"  transform=" translate(-312, -423.82)" d="M 335.45 393.41 C 332.7742 392.1327 329.56329999999997 393.26938 328.282 395.9452 C 320.9031 411.4142 308.716 433.28520000000003 288.24699999999996 444.6752 C 285.86029999999994 446.0033 284.8486 448.9096 285.89539999999994 451.433 C 286.74695999999994 453.4838 288.73519999999996 454.7494 290.8562999999999 454.7494 C 291.3484899999999 454.7494 291.8484899999999 454.682994 292.3406999999999 454.54237 C 311.0516999999999 449.17907 325.4306999999999 441.87037 336.3016999999999 432.21037 C 338.5204999999999 430.23767000000004 338.71969999999993 426.83927 336.75091999999995 424.62057 C 334.77822 422.40177 331.37981999999994 422.20257 329.1611199999999 424.17134999999996 C 326.2080199999999 426.79634999999996 322.9345199999999 429.23384999999996 319.32911999999993 431.49164999999994 C 327.6299199999999 421.0426499999999 333.60211999999996 409.75764999999996 337.98911999999996 400.57364999999993 C 339.26642 397.89784999999995 338.12973999999997 394.6869499999999 335.45001999999994 393.4095499999999 z" stroke-linecap="round" />
</g>
</svg>
