<?xml version="1.0" encoding="UTF-8"?>
<svg viewBox="146.691 100 353.309 482.5" width="353.309" height="482.5" xmlns="http://www.w3.org/2000/svg" xmlns:xlink="http://www.w3.org/1999/xlink">
  <path d="M 500 143.75 C 500 141.098 498.797 138.586 496.727 136.926 C 494.656 135.262 491.941 134.633 489.352 135.207 L 463.102 141.039 C 429.805 148.391 395.29 148.25 362.052 140.629 C 326.861 132.523 290.314 132.246 255.002 139.812 L 255.002 108.75 C 255.002 106.43 254.08 104.204 252.439 102.563 C 250.798 100.922 248.572 100 246.252 100 L 211.252 100 C 206.42 100 202.502 103.918 202.502 108.75 L 202.502 140.652 C 190.967 131.297 176.557 126.211 161.705 126.25 C 158.064 126.25 154.548 127.575 151.81 129.973 C 149.072 132.372 147.302 135.684 146.822 139.293 C 146.345 142.903 147.197 146.563 149.212 149.59 L 156.986 161.25 L 149.212 172.91 C 147.193 175.942 146.341 179.598 146.822 183.207 C 147.298 186.817 149.072 190.129 151.81 192.528 C 154.548 194.926 158.064 196.25 161.705 196.25 C 176.557 196.289 190.967 191.204 202.502 181.848 L 202.502 333.148 C 190.967 323.793 176.557 318.707 161.705 318.746 C 158.064 318.746 154.548 320.071 151.81 322.469 C 149.072 324.868 147.302 328.18 146.822 331.789 C 146.345 335.399 147.197 339.059 149.212 342.086 L 156.986 353.746 L 149.212 365.406 C 147.193 368.438 146.341 372.094 146.822 375.703 C 147.298 379.313 149.072 382.625 151.81 385.024 C 154.548 387.422 158.064 388.746 161.705 388.746 C 176.557 388.785 190.967 383.7 202.502 374.344 L 204.708 582.5 L 255 582.5 L 255 350.246 C 288.922 342.39 324.191 342.367 358.12 350.179 C 393.897 358.382 431.054 358.535 466.9 350.621 C 476.31 348.578 484.732 343.363 490.759 335.851 C 496.782 328.343 500.044 318.988 499.997 309.363 L 499.997 231.246 C 499.997 228.925 499.075 226.699 497.435 225.058 C 495.794 223.418 493.567 222.496 491.247 222.496 L 479.153 222.496 L 483.419 213.964 C 494.294 192.152 499.97 168.116 499.997 143.745 L 500 143.75 Z M 195.29 164.84 C 187.571 172.598 177.399 177.43 166.509 178.512 L 174.782 166.106 L 174.782 166.102 C 176.739 163.165 176.739 159.336 174.782 156.395 L 166.509 143.989 C 177.4 145.067 187.571 149.899 195.29 157.661 L 198.876 161.251 L 195.29 164.84 Z M 195.29 357.34 C 187.571 365.098 177.399 369.93 166.509 371.012 L 174.782 358.606 L 174.782 358.602 C 176.739 355.665 176.739 351.836 174.782 348.895 L 166.509 336.489 C 177.4 337.567 187.571 342.399 195.29 350.161 L 198.876 353.751 L 195.29 357.34 Z M 237.501 117.5 L 237.501 144.254 C 236.981 144.406 236.458 144.551 235.939 144.707 L 220.001 149.488 L 220.001 117.5 L 237.501 117.5 Z M 220.001 320.8 L 220.001 190.64 C 243.192 230.644 243.345 279.964 220.399 320.11 L 220.001 320.8 Z M 220.001 560.257 L 220.001 360.262 L 237.501 355.012 L 237.501 559.498 L 220.001 560.257 Z" fill="#fff" fill-opacity="1"></path>
</svg>
