<?xml version="1.0" encoding="utf-8"?>
<!-- Generator: Adobe Illustrator 28.0.0, SVG Export Plug-In . SVG Version: 6.00 Build 0)  -->
<svg version="1.1" id="Sif4" xmlns="http://www.w3.org/2000/svg" xmlns:xlink="http://www.w3.org/1999/xlink" x="0px" y="0px"
	 viewBox="0 0 1024 1024" style="enable-background:new 0 0 1024 1024;" xml:space="preserve">
<path d="M442.988,770.98c20.678-11.278,36.712,0.038,52.842,10.886c0.376-0.279,0.751-0.557,1.127-0.835
	c-4.288-5.661-8.576-11.323-12.98-17.137c11.525,2.81,22.011,7.91,31.511,15.081c0.808,0.61,1.404,1.903,1.532,2.948
	c1.66,13.516,3.218,27.044,4.87,41.152c-72.514,19.578-144.902,19.8-217.846,0.325c0.769-7.294,1.513-14.358,2.257-21.421
	c0.627-5.96,0.916-11.984,2.033-17.85c0.497-2.611,2.069-6.039,4.176-7.143c8.78-4.601,17.939-8.48,26.992-12.55
	c0.794-0.357,1.832-0.17,2.176-0.194c-4.234,5.972-8.563,12.078-12.893,18.185c0.351,0.276,0.702,0.553,1.054,0.829
	c15.67-11.971,31.282-24.195,52.483-12.256c6.515-5.805,6.625-6.292,3.102-13.805c-6.337-13.515-6.297-13.325-20.746-10.227
	c-17.551,3.763-35.07,7.987-52.824,10.356c-8.054,1.075-16.9-0.891-24.94-3.102c-34.186-9.402-64.388-26.849-92.271-48.274
	c-74.903-57.554-119.452-133.618-136.67-226.112c-4.405-23.662-6.411-47.505-5.114-71.58c0.061-1.128,0.008-2.263,0.008-3.265
	C35.476,406.95,18.341,408.882,0,410.95C6.018,271.249,63.305,157.747,177.657,75.669C310.258-19.508,486.816-25.542,624.79,61.211
	c128.135,80.566,192.764,199.017,199.407,349.69c-18.274-1.999-35.362-3.869-53.009-5.8c0,1.707-0.04,3.444,0.006,5.179
	c1.951,73.216-18.111,140.447-56.458,202.253c-33.728,54.361-78.97,96.792-136.27,125.816c-16.631,8.424-33.733,16.459-52.35,18.668
	c-9.948,1.18-20.479-0.888-30.535-2.677c-14.71-2.617-29.256-6.189-43.81-9.62c-2.967-0.7-4.774-0.204-6.224,2.326
	c-1.817,3.172-3.872,6.223-5.501,9.487C436.466,763.706,436.811,765.021,442.988,770.98z M220.925,559.271
	c0.142-0.387,0.284-0.774,0.426-1.16c-3.596-2.659-7.338-5.145-10.747-8.024c-3.428-2.895-6.669-6.045-9.739-9.322
	c-9.083-9.693-8.688-14.338-1.511-26.676c1.555-2.674,4.108-4.771,6.22-7.117c3.936-4.373,8.846-5.272,14.085-3.215
	c5.544,2.177,10.932,4.781,16.282,7.414c3.621,1.782,7.057,3.939,10.576,5.928c0.344-0.484,0.689-0.968,1.033-1.451
	c-6.854-5.734-13.339-12-20.655-17.068c-9.026-6.253-15.951-5.533-24.778,1.014c-2.55,1.892-5.022,3.889-8.618,6.684
	c0.692-7.995,1.257-14.516,1.878-21.689c2.243,1.15,3.652,1.496,4.517,2.377c5.29,5.39,10.652,4.243,16.91,1.412
	c13.35-6.039,24.543-14.835,34.598-25.453c-9.749,5.363-19.497,10.727-29.246,16.09c26.285-22.666,48.946-48.064,64.819-79.258
	c7.653,4.024,14.549,7.651,21.445,11.277c0.195-0.334,0.389-0.668,0.584-1.002c-7-5.181-14-10.363-21.223-15.71
	c-4.149,6.321-7.813,11.852-11.427,17.417c-16.097,24.788-36.101,45.751-61.272,61.399c-12.909,8.025-9.106,8.629-22.756-1.017
	c-0.136-0.096-0.335-0.165-0.395-0.297c-0.634-1.38-1.902-2.839-1.765-4.147c1.575-15.003,5.607-29.271,12.752-41.831
	c5.42,4.277,10.705,8.448,15.989,12.618c-3.479-5.465-7.353-10.2-10.743-15.259c-0.863-1.288-0.95-4.134-0.098-5.367
	c5.665-8.194,11.671-16.152,17.605-24.158c0.586-0.79,1.472-1.352,2.159-2.076c0.683-0.72,1.29-1.511,1.931-2.27
	c-11.365,4.152-20.135,11.196-26.469,21.327c1.613-3.674,3.354-7.23,5.557-10.472c7.705-11.34,16.608-21.352,30.52-25.144
	c8.022-2.186,14.217,2.438,14.682,10.82c0.148,2.673,0.023,5.361,0.023,8.043c1.728-1.709,2.47-3.51,2.998-5.372
	c3.671-12.952,0.381-18.787-12.505-22.85c-1.527-0.481-2.935-2.038-3.916-3.435c-4.813-6.858-10.768-10.995-19.686-10.373
	c-5.041,0.351-10.165-0.495-15.252-0.802c8.149-7.518,16.697-14.013,25.403-20.288c0.787-0.567,2.892-0.139,3.889,0.546
	c9.184,6.315,18.746,12.213,27.234,19.374c9.177,7.742,17.323,16.707,25.647,24.873c-5.993-13.54-17.086-23.722-28.641-34.778
	c15.042-6.941,29.455-13.592,43.868-20.244c-0.086-0.317-0.172-0.633-0.257-0.95c-6.016,1.381-12.033,2.763-18.482,4.243
	c9.373-9.33,21.132-11.784,32.885-14.219c0.23,0.504,0.371,0.659,0.342,0.771c-0.372,1.444-0.732,2.893-1.165,4.32
	c-4.942,16.277-7.89,32.878-4.251,49.715c2.657,12.296,6.494,24.374,10.419,36.347c3.451,10.525,3.159,20.409-1.576,30.494
	c-3.948,8.409-7.593,17.033-10.48,25.854c-6.537,19.973-4.807,38.556,11.379,53.775c6.474,6.087,7.641,12.462,3.767,20.554
	c-3.595,7.507-1.763,15.029,1.62,21.786c1.031-6.794,0.416-14.607,3.486-20.502c6.363-12.218,3.675-21.545-5.46-30.343
	c-0.356-0.343-0.606-0.793-0.915-1.186c-9.652-12.283-11.776-25.887-4.784-39.746c5.891-11.677,13.047-22.773,20.301-33.69
	c9.206-13.856,19.476-27.01,28.529-40.959c6.875-10.594,8.585-24.79,5.596-36.768c-5.042,27.753-26.773,44.174-39.397,66.229
	c-0.404-9.549-0.269-18.845-0.435-28.135c-0.248-13.781,2.861-26.387,12.025-37.104c2.271-2.655,4.385-5.457,6.415-8.302
	c8.155-11.433,11.929-24.147,11.465-37.242c-6.185,8.555-12.656,17.486-19.106,26.433c-7.142,9.906-13.34,20.328-16.531,32.231
	c-1.179,4.4-1.749,8.964-2.596,13.454c-2.09-12.715,0.763-24.475,6.445-35.671c6.395-12.602,12.901-25.149,19.229-37.784
	c1.227-2.45,1.855-5.2,2.76-7.811c-14.997,19.411-32.477,37.153-36.745,62.532c-1.004-20.284,4.53-38.542,15.95-55.12
	c3.769-5.472,7.548-10.996,10.639-16.856c2.039-3.866,2.858-8.374,4.223-12.595c-0.396-0.133-0.792-0.265-1.188-0.398
	c-5.343,7.46-10.686,14.92-16.029,22.379c3.625-8.979,8.336-17.338,12.214-26.068c4.889-11.004,5.672-21.334,3.483-26.455
	c-2.292,6.32-4.309,13.746-7.605,20.553c-5.505,11.367-11.712,22.402-17.909,33.416c-1.158,2.058-3.396,4.034-5.587,4.887
	c-6.956,2.709-14.135,4.841-21.209,7.25c-7.97,2.714-15.921,5.487-23.88,8.234c4.803-7.882,10.178-14.997,15.78-21.928
	c12.768-15.797,25.75-31.378,35.821-49.193c9.99-17.671,12.562-37.361,16.72-56.655c0.22-1.02,0.092-2.551-0.535-3.25
	c-5.208-5.808-9.907-12.348-16.021-17.013c-15.038-11.476-34.507-3.554-37.498,15.118c-1.032,6.445,0.173,13.223,0.036,19.842
	c-0.22,10.629-8.823,16.178-18.706,12.188c5.034-3.721,6.898-9.051,6.606-14.888c-0.265-5.279-1.43-10.525-2.375-15.754
	c-3.267-18.077,6.445-34.132,23.976-39.687c11.949-3.786,22.971-1.174,33.627,4.51c2.025,1.08,4.145,1.985,6.221,2.97
	c0.318-0.487,0.636-0.973,0.954-1.46c-9.036-10.82-20.753-18.803-29.77-27.438c-5.407,0.7-9.688,2.122-13.699,1.571
	c-6.054-0.83-10.291-6.376-10.797-12.166c-0.633-7.243,2.341-12.885,8.262-15.678c5.59-2.636,11.765-1.504,16.558,3.088
	c10.468,10.029,20.679,20.344,31.499,29.975c4.055,3.61,5.758,6.317,1.797,10.684c-0.094,0.103,0.204,0.562,0.332,0.85
	c4.564-1.97,7.236-0.456,12.447,7.165c-5.804,6.248-11.644,12.533-17.88,19.245c7.668,6.518,14.787,12.569,22.179,18.853
	c9.236-11.589,17.698-22.205,26.046-32.68c-5.365-6.842-5.473-6.893-10.784-1.297c-6.296,6.634-12.496,13.361-19.021,20.351
	c-1.633-1.439-3.066-2.701-4.732-4.169c9.393-10.78,18.517-21.251,27.629-31.707c-9.263-5.283-12.559,3.821-18.324,7.381
	c-3.688-3.494-7.278-6.893-11.258-10.664c13.873-9.471,27.539-18.164,43.267-23.122c8.018,14.012,15.888,27.766,24.114,42.142
	c8.4-14.51,16.298-28.154,24.263-41.913c15.4,5.718,29.384,13.365,42.052,23.048c-3.745,3.855-7.062,7.27-10.385,10.69
	c-5.449-3.454-8.363-12.314-17.668-7.759c9.322,10.702,18.447,21.178,27.648,31.741c-1.648,1.781-2.992,3.233-4.592,4.963
	c-8.109-8.67-16.025-17.133-24.296-25.977c-2.198,2.394-3.964,4.317-6.218,6.771c9.037,10.842,18.121,21.742,27.395,32.869
	c7.73-6.823,14.521-12.817,21.509-18.985c-6.383-6.934-12.305-13.366-17.913-19.459c3.085-3.412,5.746-6.356,8.298-9.18
	c1.992,0.906,3.568,1.623,6.294,2.863c-2.212-3.479-3.744-5.889-5.276-8.299c0.443,0.271,0.886,0.541,1.328,0.812
	c2.678-3.206,5.124-6.646,8.079-9.573c8.996-8.913,18.1-17.722,27.337-26.385c5.52-5.177,13.704-5.28,19.176-0.659
	c5.066,4.278,6.49,12.394,3.19,18.192c-3.744,6.579-10.398,8.575-18.119,5.85c-1.484-0.524-4.015-0.196-5.165,0.789
	c-8.479,7.255-16.81,14.689-24.967,22.304c-1.265,1.181-1.402,3.57-2.061,5.401c4.84-1.286,8.291-3.279,11.939-4.8
	c13.497-5.627,26.494-4.67,38.16,4.383c12.778,9.916,14.818,23.412,11.181,38.27c-2.347,9.588-4.139,18.992,4.138,27.118
	c-7.63,1.566-11.987,0.164-14.493-6.042c-1.788-4.428-1.947-9.577-2.43-14.444c-0.276-2.776,0.607-5.664,0.36-8.448
	c-0.903-10.215-4.561-18.949-14.953-22.799c-10.332-3.828-19.379-0.737-26.94,6.731c-4.017,3.967-7.602,8.403-11.083,12.86
	c-0.947,1.212-1.288,3.332-1.09,4.934c1.268,10.235,2.844,20.431,4.172,30.659c3.6,27.738,12.363,53.41,30.152,75.452
	c3.372,4.179,7.118,8.056,10.691,12.073c-0.156,0.212-0.311,0.424-0.467,0.635c-3.368-1.787-6.735-3.574-10.103-5.361
	c9.749,12.962,23.405,19.514,38.416,23.84c-7.459,6.835-14.785,13.117-21.608,19.903c-9.89,9.837-15.054,18.141-15.336,23.748
	c1.016-1.307,1.814-2.339,2.618-3.367c14.132-18.074,31.876-31.492,52.637-41.103c2.606-1.207,4.551-1.064,6.829,0.553
	c8.822,6.262,17.738,12.392,26.595,18.605c0.992,0.696,1.833,1.608,3.296,2.911c-2.297,0.183-3.753,0.288-5.206,0.416
	c-10.974,0.966-21.888,2.212-31.793,7.615c-10.384,5.665-15.5,14.411-14.58,26.243c0.74,9.512,4.879,17.547,11.953,23.998
	c0.703,0.641,1.646,1.019,2.477,1.519c-5.024-7.756-8.219-15.807-9.062-24.826c-1.113-11.909,3.78-20.397,15.342-23.545
	c7.269-1.98,15.033-2.544,22.606-2.79c2.604-0.085,6.34,2.065,7.755,4.324c3.673,5.867,6.907,12.154,9.287,18.651
	c3.862,10.544,5.468,21.552,4.238,34.096c-2.967-10.059-8.062-17.14-15.36-22.82c10.101,22.828,21.927,44.972,25.895,69.919
	c-0.536,0.244-0.697,0.389-0.818,0.362c-4.362-0.984-8.704-2.059-13.081-2.969c-27.989-5.818-53.067-17.317-73.299-37.998
	c-9.085-9.287-17.74-18.994-26.683-28.421c-0.995-1.048-3.174-2.482-3.835-2.093c-4.379,2.578-8.493,5.605-12.693,8.486
	c3.305,0.051,6.078-0.628,8.516-1.932c4.095-2.192,6.783-1.167,9.707,2.319c7.703,9.186,15.617,18.21,23.756,27.014
	c16.71,18.075,37.532,28.845,61.48,33.889c3.06,0.645,6.06,1.576,9.087,2.374c-0.035,0.419-0.069,0.838-0.104,1.257
	c-3.885,0.978-7.769,1.955-11.318,2.848c11.974,18.039,12.678,38.006,11.811,59.491c-10.385-9.312-21.295-13.802-34.421-10.915
	c19.576,7.145,33.872,19.065,38.572,40.286c-9.706-4.255-19.017-8.337-28.328-12.419c-0.242,0.515-0.484,1.03-0.726,1.544
	c1.07,0.679,2.182,1.302,3.205,2.046c8.585,6.242,17.159,12.5,25.726,18.766c3.781,2.766,3.718,6.466,2.783,10.81
	c-3.64-1.35-6.846-2.699-10.151-3.738c-14.77-4.643-29.508-5.073-43.835,1.456c-7.549,3.441-12.752,9.147-14.173,18.019
	c0.754-0.225,1.157-0.221,1.346-0.42c17.335-18.213,38.319-20.137,60.63-12.366c12.511,4.357,21.162,13.308,22.9,27.519
	c-5.046-1.359-9.743-2.625-14.838-3.997c1.686,5.668,4.686,8.731,9.926,9.466c1.607,0.225,3.102,1.162,4.685,1.656
	c4.09,1.276,5.876,4.026,5.619,8.273c-0.502,8.292-0.937,16.587-1.429,25.404c-7.221-3.115-13.515-6.827-21.21-6.487
	c1.817,5.731,4.567,9.583,10.388,10.743c2.172,0.433,4.363,1.825,6.036,3.341c1.131,1.024,2.115,3.152,1.88,4.574
	c-0.893,5.398-2.243,10.726-3.55,16.049c-0.913,3.716-2.819,5.2-6.896,3.517c-10.796-4.456-22.179-5.866-33.765-5.242
	c-16.372,0.882-13.12,0.971-12.959,14.133c0.005,0.439,0.318,0.874,0.589,1.571c14.653-5.109,29.492-3.995,44.403-1.863
	c1.543,0.221,3.697-0.392,4.846-1.422c6.688-6,15.402-10.54,15.318-22.188c8.069,4.407,10.422-1.232,13.855-5.952
	c-4.51-1.112-8.609-2.123-12.592-3.106c0.8-9.671,1.56-18.852,2.401-29.011c9.683,2.14,18.719,4.192,27.789,6.087
	c1.424,0.298,3.65,0.484,4.382-0.312c2.379-2.586,4.237-5.652,7.077-9.627c-14.163-2.644-26.987-5.038-39.095-7.298
	c-2.997-8.315-5.949-16.505-8.944-24.813c18.107,4.882,36.667,9.94,55.279,14.799c1.495,0.39,4.146-0.015,4.89-1.043
	c2.589-3.573,4.576-7.584,7.017-11.82c-2.528-0.878-4.538-1.556-6.535-2.272c-25.601-9.184-49.313-21.617-69.666-39.993
	c-7.32-6.608-12.821-13.627-9.314-24.277c0.251-0.762,0.233-1.674,0.119-2.485c-0.413-2.931,1.153-4.165,3.73-4.835
	c21.08-5.48,39.637-16.155,57.6-28.049c1.466-0.971,3.006-1.828,4.602-2.792c13.563,17.299,27.345,33.669,45.83,46.457
	c2.374-7.759,4.664-14.84,6.601-22.015c0.292-1.08-0.7-3.093-1.714-3.852c-15.762-11.806-28.865-26.117-40.213-42.124
	c-4.073-5.745-8.412-6.616-14.234-2.583c-2.585,1.79-4.808,4.103-7.191,6.184c-13.047,11.394-25.906,23.07-42.173,29.894
	c-3.077,1.291-6.375,2.056-9.79,3.132c-0.668-3.53-1.147-6.063-1.756-9.282c10.843,6.314,16.384-3.246,24.696-6.456
	c-4.048-4.37-7.49-8.085-11.074-11.955c10.716-8.374,21.912-14.013,35.541-13.306c1.185,0.062,2.694-0.476,3.584-1.264
	c9.802-8.681,21.619-10.333,34.057-10.166c2.025,0.027,4.523-0.199,6.017-1.339c9.724-7.417,20.729-11.93,32.464-14.772
	c3.675-0.89,5.283-2.548,5.077-6.388c-1.028-19.112-0.743-38.378-3.101-57.318c-6.873-55.205-25.891-106.206-57.557-151.995
	c-60.4-87.338-142.88-139.453-248.656-153.443c-41.923-5.545-83.445-2.69-124.384,7.645
	c-70.507,17.801-129.869,54.285-177.75,108.817c-59.894,68.214-89.588,148.119-89.831,238.927
	c-0.015,5.621-0.002,11.242-0.002,17.184c12.839,0.924,23.472,5.155,32.772,12.724c0.777,0.633,2.172,0.671,3.287,0.697
	c5.16,0.123,10.324,0.096,15.485,0.212c7.336,0.165,14.315,1.528,19.377,7.438c6.501,7.589,14.864,9.908,24.547,10.81
	c7.858,0.732,15.499,3.795,24.43,6.137c-6.058,5.41-10.749,9.6-16.429,14.672c5.688,2.963,10.719,5.686,15.849,8.209
	c2.337,1.149,4.187,2.196,2.056,5.301c-1.383-0.475-2.789-0.908-4.156-1.439c-2.012-0.782-4.031-1.559-5.988-2.467
	c-16.975-7.877-30.031-20.743-42.981-33.759c-8.651-8.695-10.589-8.721-18.519,0.646c-11.036,13.036-23.297,24.715-36.984,34.926
	c-0.886,0.661-1.937,2.237-1.717,3.072c2.165,8.211,4.582,16.355,7.252,25.645c8.37-7.873,15.977-14.611,23.088-21.836
	c7.107-7.221,13.718-14.931,20.699-22.594c1.394,1.301,2.619,2.404,3.8,3.552c13.586,13.208,29.334,23.061,47.304,28.895
	c5.873,1.907,7.17,4.612,8.182,10.481c1.969,11.421-2.553,18.287-11.214,24.675c-18.87,13.917-39.921,23.116-61.927,30.518
	c-1.806,0.607-3.607,1.227-5.721,1.947c2.276,4.053,4.405,7.44,6.122,11.024c1.569,3.275,3.63,3.963,7.08,2.999
	c10.72-2.994,21.515-5.724,32.294-8.506c6.336-1.636,12.695-3.177,19.328-4.831c-0.492,5.613-0.909,10.362-1.339,15.263
	c-8.656,0.723-16.976,1.163-25.225,2.178c-8.257,1.016-16.444,2.608-25.689,4.115c3.63,4.718,5.735,9.242,9.281,11.411
	c2.216,1.356,6.601-0.857,10.019-1.429c1.641-0.275,3.291-0.558,4.947-0.666c8.559-0.558,17.123-1.06,26.163-1.611
	c0,8.3,0,15.532,0,22.707c-8.01,1.809-15.753,3.557-23.675,5.346c5.806,9.062,5.799,9.022,15.444,7.388
	c2.918-0.495,5.885-0.702,9.216-1.086c0.389,2.501,0.788,4.752,1.083,7.017c1.437,11.035,3.238,21.851,14.449,27.839
	c1.143,0.61,1.889,1.965,3.032,2.573c1.938,1.031,3.985,2.224,6.096,2.495c6.265,0.804,12.596,1.083,18.878,1.776
	c5.147,0.567,10.26,1.434,15.389,2.167c0.227-0.549,0.453-1.098,0.68-1.647c-9.032-5.144-17.873-10.673-27.16-15.306
	c-6.807-3.395-14.267-4.549-22.258-1.037c-1.939-12.73,2.223-23.23,9.378-32.866c6.988-9.41,16.17-16.101,27.153-20.494
	c-0.299-0.619-0.597-1.239-0.896-1.858c-10.152,3.313-20.305,6.626-30.907,10.086c0.313,0.43-0.133-0.069-0.452-0.638
	c-6.677-11.91-4.523-25.794,5.681-38.37c3.073-3.787,6.975-5.78,11.383-4.341c7.661,2.501,15.436,5.158,22.429,9.063
	c6.986,3.901,13.073,9.414,19.555,14.22c-2.777-4.25-5.839-8.294-9.242-12.027c-8.222-9.02-16.925-17.511-28.315-22.554
	c-6.044-2.676-11.684-2.33-16.396,2.877c-2.953,3.264-5.881,6.55-9.194,10.242c-0.859-14.581,1.903-27.572,10.271-39.146
	c2.085-2.883,3.901-3.405,7.456-1.786C204.115,553.18,212.595,556.06,220.925,559.271z M446.507,731.658
	c0.482,0.071,0.965,0.142,1.447,0.213c3.017-7.342,6.076-14.667,9.041-22.031c5.289-13.136,10.318-26.331,10.609-40.798
	c0.033-1.623,1.079-3.485,2.182-4.789c15.389-18.184,30.857-36.301,46.336-54.409c3.503-4.098,7.117-8.102,10.68-12.149
	c-0.352-0.332-0.705-0.664-1.057-0.996c-19.847,20.389-39.695,40.777-59.489,61.112c-1.186-3.935-1.983-8.274-3.792-12.138
	c-2.132-4.553-0.883-7.889,1.495-11.901c15.344-25.895,30.418-51.951,45.556-77.967c0.914-1.571,1.625-3.259,2.644-5.328
	c-18.154,26.963-35.97,53.423-54.038,80.257c-7.069-9.52-7.949-18.721-3.537-28.195c2.87-6.162,6.386-12.034,9.784-17.937
	c5.233-9.092,4.943-18.079-0.294-26.979c-1.853-3.149-3.921-6.191-6.098-9.128c-5.786-7.808-7.37-16.211-3.971-25.422
	c0.747-2.026,1.467-4.064,2.285-6.061c0.793-1.938,1.695-3.83,2.55-5.743c-9.716,10.827-13.649,22.796-7.357,36.673
	c1.509,3.328,2.798,6.757,4.173,10.145c3.89,9.578,3.786,19.022-0.359,28.586c-3.047,7.031-5.53,14.306-8.34,21.671
	c-2.935-8.009-1.914-16.196-1.583-24.465c0.288-7.185,0.322-14.692-1.431-21.573c-2.571-10.096-7.158-19.66-10.27-29.643
	c-2.359-7.566-4.648-15.346-5.407-23.181c-1.756-18.109,4.501-34.32,13.543-49.694c4.462-7.586,8.964-15.219,12.554-23.232
	c6.641-14.82,7.723-30.356,4.263-47.553c-0.856,6.272-1.269,11.243-2.247,16.1c-3.034,15.062-10.379,28.329-17.776,41.542
	c-7.727,13.802-15.679,27.539-18.823,43.276c-2.688,13.451-9.018,25.027-17.666,35.335c-11.171,13.315-17.878,27.833-14.452,45.776
	c-8.197-13.45-8.511-28.601-10.337-43.533c-0.94,2.839-1.737,5.691-1.836,8.567c-0.328,9.58-1.679,19.377-0.156,28.685
	c1.119,6.84,5.58,13.398,9.51,19.459c8.965,13.824,12.541,28.232,8.456,44.594c-3.459,13.851-6.755,27.847-8.582,41.977
	c-2.788,21.564-1.066,42.475,12.944,60.829c7.17,9.394,10.326,20.433,9.264,32.407c-1.126,12.69-5.14,23.672-17.334,30.102
	c-4.324,2.28-8.141,2.461-11.991-0.651c-4.747-3.838-9.508-7.659-14.681-11.824c-2.054,2.237-4.133,4.501-6.442,7.015
	c10.966,11.316,22.928,20.562,37.586,25.322c7.137,2.318,15.039,4.099,22.404,3.553c21.631-1.604,37.865-13.937,52.789-29.013
	c-2.455-2.841-4.661-5.393-6.646-7.691c-5.553,4.803-10.201,9.39-15.472,13.092c-2.021,1.419-5.781,1.772-8.203,0.967
	c-11.292-3.751-17.403-12.219-19.819-23.618c-3.599-16.981,0.139-32.371,10.138-46.357c22.022-30.803,16.73-82.528-5.296-108.152
	c-5.796-6.743-7.138-14.782-6.235-23.417c1.281-12.264,8.829-21.703,14.579-32.24c1.064,6.822,1.342,13.564,1.621,20.307
	c0.247,5.973-0.65,12.282,0.98,17.85c3.529,12.056,7.368,24.213,12.859,35.461c10.564,21.639,12.193,43.46,5.58,66.408
	C450.459,711.131,448.749,721.471,446.507,731.658z M780.13,399.292c-11.498-131.605-70.607-234.085-183.801-302.367
	c-122.49-73.891-276.123-66.837-392.671,15.415c-60.235,42.51-104.11,98.177-131.982,166.361
	c-15.718,38.45-25.101,78.383-26.917,120.071c3.072,0.522,5.451,0.927,8.148,1.386c6.709-94.034,41.916-175.074,108.661-241.12
	c66.96-66.26,148.024-101.643,242.601-104.001c86.277-2.151,163.501,24.146,230.358,78.412
	c84.385,68.493,128.918,158.212,136.851,266.703C774.078,399.887,776.483,399.651,780.13,399.292z M397.496,247.05
	c5.444,1.296,9.713,2.348,14.003,3.306c0.917,0.205,1.946,0.241,2.864,0.058c4.707-0.938,9.394-1.973,14.99-3.166
	c-0.881-2.588-2.038-5.989-3.107-9.131c4.756,1.327,6.591,5.851,4.639,12.44c19.988,9.032,20.642,9.606,32.263,28.613
	c-0.216-2.137-0.253-3.599-0.526-5.015c-1.981-10.264-4.081-20.506-5.96-30.788c-0.347-1.897,0.142-3.946,0.245-5.925
	c1.756,1.436,4.022,2.562,5.133,4.39c1.232,2.029,1.44,4.691,2.036,7.092c0.357,1.44,0.605,2.907,0.897,4.341
	c2.567-5.642,5.118-10.839,7.304-16.186c1.678-4.104,3.977-8.369,4.082-12.61c0.197-7.944-0.957-15.925-1.629-23.884
	c-0.326-3.859-2.653-5.58-6.413-5.292c-4.644,0.356-9.273,1.163-13.916,1.228c-24.112,0.341-48.227,0.725-72.34,0.616
	c-8.45-0.038-16.892-1.446-25.34-2.215c-3.269-0.298-4.689,1.001-4.984,4.497c-0.571,6.788-1.94,13.508-2.496,20.296
	c-0.261,3.185-0.108,6.753,1.085,9.641c3.273,7.925,7.197,15.581,10.398,22.359c1.291-3.466,2.859-8.142,4.847-12.632
	c0.418-0.943,2.379-1.203,3.629-1.778c0.2,1.192,0.794,2.477,0.535,3.559c-1.619,6.779-3.535,13.487-5.14,20.268
	c-1.174,4.958-2.022,9.992-2.935,14.586c4.976-5.517,9.174-11.701,14.812-15.993c5.743-4.371,12.904-6.879,19.536-10.249
	c-2.021-5.945,0.649-11.825,4.751-11.235C399.682,241.151,398.546,244.217,397.496,247.05z M271.856,729.318
	c12.297,12.547,16.435,15.451,23.23,16.005c-20.992-21.425-19.644-44.198-4.677-68.371c2.444,7.874,4.815,15.508,7.246,23.341
	c2.126-9.35,0.353-18.247-1.895-27.535c6.739,4.714,13.195,9.464,18.571,15.222c5.416,5.801,10.194,12.33,14.449,19.048
	c4.135,6.528,7.253,13.701,10.818,20.591c-1.774-7.819-4.125-15.427-7.228-22.716c-6.171-14.497-16.804-25.899-27.134-37.422
	c-15.352-17.125-17.424-34.074-6.082-58.711c19.573,22.825,39.262,45.405,49.848,74.28c-0.931-6-2.174-11.837-4.196-17.39
	c-6.227-17.104-16.691-31.781-27.714-45.975c-11.987-15.437-18.484-32.732-21.199-51.989c-2.62-18.576-6.268-37.02-9.94-55.427
	c-1.157-5.799-3.847-11.291-5.835-16.924c-0.471,0.145-0.941,0.291-1.412,0.436c0.761,5.411,1.662,10.807,2.257,16.237
	c2.358,21.509,4.539,43.037,6.948,64.54c1.536,13.715,1.296,27.216-3.027,40.499c-4.122,12.665-5.368,25.68-4.267,38.965
	c0.286,3.456,0.57,7.168-0.348,10.422c-3.373,11.957-7.004,23.857-11.022,35.613c-3.088,9.034-6.484,17.999-5.09,27.688
	c0.711,4.943,2.712,9.7,4.13,14.542c0.342-0.179,0.684-0.357,1.025-0.536C270.107,739.244,270.901,734.737,271.856,729.318z
	 M496.089,367.336c-0.494,0.12-0.987,0.239-1.481,0.359c-4.874-6.597-9.749-13.194-14.623-19.791
	c-0.441,0.294-0.882,0.589-1.322,0.883c0.981,2.245,2.093,4.443,2.921,6.743c3.48,9.669,7.623,19.181,10.107,29.105
	c2.889,11.544-1.996,22.233-6.14,32.802c-8.161,20.817-5.848,33.683,15.186,44.846c7.976,4.233,14.145,10.459,17.895,18.849
	c0.498,1.114,1.111,2.177,2.307,4.499c-0.317-12.341-4.696-21.032-13.584-27.359c-3.522-2.508-7.276-4.71-10.662-7.383
	c-6.003-4.738-8.543-11.212-6.976-18.597c1.122-5.287,2.895-10.654,5.49-15.373c10.864-19.753,12.179-40.026,4.776-61.16
	c-0.808-2.306-0.989-5.419-0.121-7.632c7.959-20.291,6.133-39.967-2.53-59.581c-6.697-15.162-14.242-30.141-14.34-48.321
	c-0.78,1.447-1.246,1.956-1.325,2.52c-0.32,2.3-0.581,4.613-0.757,6.929c-1.217,15.98,3.948,30.746,8.462,45.78
	c-4.168-5.661-8.336-11.322-12.503-16.983c-0.49,0.235-0.98,0.469-1.471,0.704c2.013,5.357,3.782,10.824,6.104,16.044
	c2.696,6.062,6.097,11.81,8.791,17.873c3.152,7.095,3.918,14.586,2.499,23.606c-8.372-11.694-16.065-22.438-23.758-33.182
	c-0.391,0.128-0.782,0.256-1.173,0.384c2.199,6.165,3.839,12.608,6.736,18.425c3.844,7.718,9.17,14.704,12.926,22.456
	C491.014,351.992,493.282,359.795,496.089,367.336z M442.55,324.23c-7.397,13.455-5.651,30.382,4.315,41.896
	c4.01,4.633,8.703,8.702,13.283,12.807c8.969,8.039,13.687,17.881,10.971,29.818c-2.454,10.785-5.833,21.408-9.518,31.85
	c-4.494,12.739-3.941,24.77,2.956,36.423c2.455,4.149,5.057,8.211,7.505,12.365c3.607,6.122,5.151,12.708,3.113,19.632
	c-1.822,6.192-4.345,12.175-6.263,18.342c-1.333,4.288-2.166,8.732-3.222,13.107c3.84-5.717,6.879-11.37,9.919-17.021
	c1.023-1.903,2.064-3.798,3.071-5.71c5.245-9.961,5.57-20.01,0.455-30.121c-1.8-3.558-3.499-7.188-5.57-10.586
	c-7.898-12.961-8.547-25.729-1.682-39.71c11.716-23.859,11.697-48.777,1.512-72.981c-6.999-16.634-16.278-32.309-24.459-48.26
	c-4.932,20.283,8.775,34.956,16.957,51.383C451.609,356.536,441.065,343.676,442.55,324.23z M410.603,306.965
	c-0.545-0.367-1.09-0.734-1.636-1.1c-4.626,6.533-9.252,13.065-13.976,19.736c1.628-7.575,3.248-15.117,4.982-23.187
	c-16.163,13.676-23.375,50.236-14.247,68.92c1.148-7.373,2.341-15.037,3.534-22.701c2.129,8.509,3.194,16.732,4.549,24.908
	c1.644,9.918,1.656,19.512-3.746,28.514c-3.251,5.416-6.237,10.991-9.299,16.519c-5.446,9.833-8.221,20.375-7.531,31.609
	c0.354,5.772,1.521,11.494,2.321,17.239c0.448-0.066,0.896-0.133,1.344-0.2c0.114-1.317,0.279-2.631,0.335-3.951
	c0.765-17.91,6.921-33.685,18.409-47.476c3.398-4.079,6.449-8.493,9.27-12.997c5.283-8.434,6.778-17.774,6.83-27.671
	c0.045-8.574,0.606-17.281,2.231-25.679c2.534-13.101,4.344-26.129,2.574-39.562c-3.804,20.734-14.462,39.713-15.089,61.675
	C394.061,348.339,399.43,327.268,410.603,306.965z M666.144,513.653c19.688,19.04,40.127,36.865,64.443,51.227
	c3.233-7.718,6.263-14.951,9.4-22.438c-2.735-1.583-5.089-2.771-7.26-4.231c-15.838-10.645-31.604-21.399-47.509-31.943
	c-1.587-1.052-4.459-1.912-5.857-1.181C674.834,507.455,670.716,510.606,666.144,513.653z M157.463,519.755
	c-5.939-3.84-10.519-6.486-14.721-9.635c-2.607-1.954-4.308-1.597-6.934,0.04c-11.969,7.459-24.044,14.757-36.26,21.803
	c-5.232,3.018-10.898,5.282-16.698,8.047c3.138,7.636,6.13,14.916,9.689,23.575C114.411,548.819,135.431,534.629,157.463,519.755z
	 M361.084,527.446c-3.353-6.886,0.21-11.834,3.987-16.978c2.42-3.297,4.688-6.959,5.936-10.81c2.563-7.907-1.645-14.17-6.234-20.062
	c-5.056-6.491-9.457-13.233-10.832-21.604c-1.835-11.166,0.906-21.487,5.528-31.449c4.196-9.045,8.84-17.887,12.889-26.996
	c2.091-4.704,3.318-9.792,4.936-14.707c-0.446-0.192-0.892-0.384-1.337-0.576c-9.628,15.238-22.502,28.466-28.967,45.63
	c-7.649,20.306-5.456,39.114,10.153,55.493c9.367,9.829,9.397,12.963,2.259,24.533C354.794,517.384,354.965,520.006,361.084,527.446
	z M383.616,593.943c-1.209,11.713-6.279,21.954-11.511,32.132c-3.496,6.802-7.03,13.584-10.583,20.356
	c-4.537,8.647-6.332,17.77-5.195,27.512c1.965,16.847,7.109,32.735,14.263,48.024c2.1,4.488,4.425,8.871,6.646,13.303
	c-1.545-9.182-3.938-17.96-6.495-26.689c-7.024-23.981-6.687-47.173,6.246-69.46c3.033-5.227,4.876-11.289,6.446-17.186
	C385.884,612.726,386.089,603.332,383.616,593.943z M428.214,398.697c-5.726,9.769-11.75,20.202-17.929,30.543
	c-6.475,10.837-13.639,21.301-19.52,32.446c-7.194,13.633-7.074,27.753,0.002,41.678c3.972,7.816,7.267,15.813,2.793,25.371
	c1.173-0.717,1.481-0.82,1.656-1.032c0.315-0.38,0.557-0.821,0.817-1.244c5.106-8.302,3.451-16.664-0.088-24.861
	c-5.89-13.643-3.853-26.281,4.301-38.278c2.993-4.403,6.214-8.66,9.042-13.165c4.323-6.89,8.857-13.709,12.461-20.975
	C426.682,419.234,429.105,408.571,428.214,398.697z M390.411,449.529c0.504,0.075,1.009,0.151,1.513,0.226
	c7.144-12.146,14.61-24.117,21.311-36.502c3.996-7.386,8.737-15.18,9.738-23.215c2.398-19.253,3.065-38.746,3.787-58.166
	c0.183-4.931-2.045-9.952-3.165-14.931c-1.524,5.29-1.612,10.289-2.199,15.229c-1.569,13.2-4.429,26.348-4.767,39.567
	c-0.391,15.339-4.277,29.1-12.241,41.993c-2.265,3.667-4.471,7.478-5.954,11.5C395.484,433.228,393.055,441.418,390.411,449.529z
	 M436.095,358.051c-0.297,0.01-0.593,0.02-0.89,0.03c0.424,5.559,0.115,11.294,1.403,16.645c4.867,20.212,3.152,39.182-8.601,56.852
	c-2.362,3.551-3.963,7.679-5.485,11.703c-3.007,7.948-3.134,16.175-1.82,24.486c1.576-3.373,2.328-7.03,4.013-10.189
	c5.692-10.676,11.534-21.282,17.654-31.718c9.674-16.494,10.763-33.125,1.896-50.293
	C441.312,369.848,438.806,363.897,436.095,358.051z M761.713,445.774c-17.034,5.518-32.881,11.864-47.802,22.147
	c4.299,5.436,8.262,10.447,11.722,14.822c10.492-4.95,20.258-9.464,29.915-14.2c1.749-0.858,4.115-2.454,4.371-4.01
	C760.901,458.541,761.144,452.428,761.713,445.774z M428.333,149.123c-5.424,8.233-10.311,15.653-15.47,23.483
	c-5.629-8.345-10.8-16.01-16.218-24.042c-5.338,7.18-10.304,13.861-15.563,20.935c6.688,1.23,13.182,5.246,15.636-5.412
	c5.682,8.319,10.646,15.587,15.931,23.325c5.516-7.545,10.582-14.475,16.19-22.146c1.361,2.662,2.289,4.476,3.405,6.659
	c3.493-0.632,7.094-1.283,11.303-2.044C438.262,162.67,433.483,156.149,428.333,149.123z M62.83,450.483
	c0.302,3.573,0.401,6.548,0.88,9.461c0.176,1.074,1.087,2.693,1.933,2.889c10.281,2.373,18.829,7.977,27.018,14.234
	c2.173,1.66,3.636,1.605,5.354-0.577c1.826-2.319,3.969-4.389,6.364-6.991C92.114,459.701,81.458,447.593,62.83,450.483z
	 M444.856,301.691c0.892-16.945-12.262-29.631-30.608-30.221c-17.815-0.573-33.519,12.186-33.676,28.093
	c1.332-1.4,2.241-2.498,3.293-3.437c5.066-4.524,9.738-9.659,15.35-13.366c11.761-7.77,21.381-6.527,31.38,3.383
	C435.406,290.91,439.777,296.122,444.856,301.691z M369.854,519.437c-3.852,7.908-8.002,16.651-12.368,25.285
	c-1.796,3.551-4.141,6.82-6.091,10.299c-4.102,7.321-4.375,14.829-0.886,22.484c5.25,11.519,14.785,19.2,24.002,27.185
	c-4.077-6.607-8.616-12.87-12.702-19.415c-4.998-8.006-7.748-16.689-4.742-26.111c1.657-5.196,4.009-10.182,6.221-15.186
	C366.933,535.735,369.692,527.3,369.854,519.437z M361.61,373.22c0.328-0.435,0.754-0.781,0.881-1.213
	c0.278-0.948,0.305-1.973,0.609-2.91c3.302-10.198,6.343-20.494,10.078-30.532c2.184-5.869,5.673-11.24,8.225-16.99
	c1.391-3.134,2.052-6.593,3.042-9.905C363.664,329.858,354.597,349.727,361.61,373.22z M246.667,546.288
	c-14.434-10.392-28.384-20.435-42.334-30.479C211.371,537.238,224.095,546.009,246.667,546.288z M493.21,715.995
	c0.469,0.221,0.939,0.442,1.408,0.664c17.277-28.158,34.554-56.316,51.831-84.474c-0.43-0.263-0.859-0.526-1.289-0.788
	C526.639,658.858,505.999,685.019,493.21,715.995z M734.71,484.831c2.394,1.458,3.905,2.444,5.476,3.322
	c7.047,3.938,6.704,3.44,13.068-1.129c5.844-4.196,4.365-10.152,6.071-16.436C750.81,475.515,743.115,479.968,734.71,484.831z
	 M457.536,181.712c-2.482-5.183-5.226-8.067-11.288-6.118c-5.152,1.656-10.63,2.637-16.032,3.08
	c-5.14,0.421-6.582,3.299-7.269,7.971C434.514,184.995,445.741,183.394,457.536,181.712z M65.575,466.698
	c-0.33,0.276-0.66,0.552-0.989,0.827c0.585,4.225,0.987,8.486,1.808,12.665c0.746,3.8,9.357,8.643,12.018,6.863
	c2.311-1.545,4.37-3.466,7.027-5.614C78.621,476.38,72.098,471.539,65.575,466.698z M402.377,186.854
	c0.352-0.343,0.704-0.686,1.055-1.029c-1.837-2.212-3.293-5.707-5.586-6.389c-6.122-1.821-12.605-2.425-18.941-3.529
	c-5.573-0.971-7.28,0.122-9.25,5.926C380.557,183.506,391.467,185.18,402.377,186.854z M597.005,603.995
	c2.691,5.195,5.35,6.578,9.378,5.971c3.6-0.542,7.302-0.565,10.957-0.537c3.844,0.029,7.685,0.391,11.528,0.607
	c0.254-0.571,0.509-1.141,0.763-1.712c-2.187-1.689-4.314-4.726-6.571-4.825C614.697,603.131,606.291,603.732,597.005,603.995z
	 M358.777,632.4c0.662-0.496,1.324-0.993,1.986-1.489c-13.156-20.347-26.313-40.693-39.469-61.04
	c-0.629,0.406-1.258,0.812-1.888,1.218C332.53,591.526,345.654,611.963,358.777,632.4z M625.596,649.041
	c0.406-0.417,0.813-0.834,1.219-1.251c-1.901-2.251-3.589-6.162-5.743-6.438c-6.162-0.789-12.513-0.103-18.79,0.003
	c-0.173,0.676-0.346,1.352-0.519,2.027c2.478,1.886,4.763,4.967,7.475,5.405C614.566,649.649,620.13,649.041,625.596,649.041z
	 M580.531,654.592c6.735-1.831,13.443-3.654,20.149-5.468c-4.559-7.166-5.128-7.095-17.117-3.109
	C578.349,647.749,579.012,650.982,580.531,654.592z M609.795,428.194c2.296-12.623-2.45-22.966-11.475-32.354
	C602.266,406.965,606.036,417.594,609.795,428.194z M594.378,708.548c7.534-0.81,14.589-1.568,21.644-2.327
	c-0.01-0.457-0.021-0.914-0.031-1.371c-5.19-2.713-10.853-2.134-16.514-2.002C595.637,702.937,594.213,704.732,594.378,708.548z
	 M573.266,613.641c7.442-1.126,14.884-2.252,23.639-3.577c-2.492-1.864-4.115-4.073-5.457-3.914
	C584.814,606.933,578.518,608.992,573.266,613.641z"/>
<path d="M230.914,757.117c1.979-3.289,3.403-6.131,5.305-8.605c0.873-1.135,2.683-1.55,4.069-2.291
	c0.597,1.402,1.589,2.771,1.71,4.213c0.263,3.122,0.081,6.281,0.081,9.453c0.065,0.007,0.503,0.17,0.608,0.047
	c6.89-8.025,7.327-8.485,16.658-3.652c10.903,5.647,21.449,11.997,31.996,18.301c1.597,0.955,3.124,3.207,3.379,5.041
	c1.902,13.672,3.478,27.39,5.135,41.095c0.035,0.292-0.187,0.615-0.294,0.922C117.731,771.07-4.022,595.34,0.953,415.779
	c12.142,1.509,24.313,2.938,36.444,4.65c1.296,0.183,3.268,1.912,3.396,3.09c1.685,15.544,3.107,31.117,4.553,46.686
	c0.104,1.122-0.112,2.274-0.262,4.815c-8.59-7.248-8.62-17.108-11.436-25.635c-0.498,0.048-0.996,0.096-1.494,0.144
	c0.32,7.044,0.237,14.134,1.023,21.126c5.293,47.071,18.034,91.931,40.803,133.651c32.586,59.708,76.49,108.668,136.32,142.295
	C217.065,750.404,224.132,753.674,230.914,757.117z"/>
<path d="M526.243,822.082c1.74-14.768,3.185-28.318,5.071-41.806c0.319-2.283,2.033-5.116,3.96-6.303
	c10.037-6.181,20.162-12.277,30.625-17.691c9.231-4.777,10.091-4.227,18.339,4.579c-0.341-3.974-0.83-6.937-0.755-9.885
	c0.041-1.595,1.044-3.165,1.613-4.747c1.383,0.713,3.177,1.097,4.066,2.205c1.947,2.426,3.435,5.22,5.525,8.517
	c60.372-28.729,106.496-73.273,141.881-129.549c34.152-54.315,52.189-113.619,54.339-177.765
	c-3.839,8.138-3.375,18.268-12.565,25.161c1.863-18.751,3.604-36.282,5.348-53.834c12.999-1.777,26.123-3.571,39.902-5.454
	c-0.061,84.361-21.364,162.758-67.559,233.625C700.577,734.206,623.494,791.089,526.243,822.082z"/>
<path d="M600.437,739.755c42.029-25.906,78.462-57.888,107.832-97.637c29.247-39.583,49.056-83.731,62.371-131.071
	c0.88,0.242,1.76,0.485,2.64,0.727c-0.479,5.105-0.092,10.478-1.572,15.274c-14.44,46.812-35.571,90.221-66.336,128.652
	c-24.557,30.675-52.801,57.258-86.461,77.766c-5.43,3.308-11.47,5.614-17.228,8.383
	C601.268,741.151,600.853,740.453,600.437,739.755z"/>
<path d="M52.983,510.976c27.306,98.937,83.677,175.978,172.034,228.923c-0.437,0.604-0.873,1.208-1.31,1.812
	c-5.742-2.569-11.864-4.523-17.168-7.801c-58.421-36.096-101.444-86.139-131.187-147.588c-9.078-18.756-15.789-38.688-22.995-58.298
	c-1.805-4.912-1.329-10.662-1.901-16.026C51.298,511.657,52.141,511.317,52.983,510.976z"/>
<path d="M196.284,401.143c-1.714-16.133,9.045-33.233,25.204-38.685c2.313-0.781,5.219,0.194,7.635,0.344
	C217.832,375.984,206.981,388.654,196.284,401.143z"/>
<path d="M396.616,111.491c11.657-3.104,12.428,6.847,16.806,12.18c9.422-14.017,9.422-14.017,16.641-12.014
	c-5.52,8.95-10.976,17.796-16.874,27.358C407.472,129.52,402.143,120.67,396.616,111.491z"/>
<path d="M631.613,469.569c4.172,2.55,7.717,4.716,11.517,7.039c-4.734,6.736-10.68,9.697-18.219,11.556
	C627.188,481.848,629.222,476.204,631.613,469.569z"/>
<path d="M400.717,700.211c1.592-13.232,10.477-19.94,21.418-24.92c8.851-4.03,11.695-12.047,13.766-20.642
	c3.607,27.997-5.445,51.703-24.209,72.445c-16.204-14.712-21.255-32.787-18-53.311c1.477-9.316,4.108-18.476,6.618-27.596
	c3.682-13.38,4.651-26.827,2.691-37.209c5.342,4.603,13.832,10.104,19.913,17.567c10.059,12.346,7.735,29.26-3.973,40.061
	c-2.932,2.705-6.294,4.947-9.208,7.67C402.279,681.241,398.042,689.47,400.717,700.211z"/>
<path d="M409.021,598.431c-7.959-7.987-12.642-16.559-13.898-26.729c-1.476-11.947,0.892-23.266,7.467-33.396
	c5.204-8.018,10.938-15.692,16.559-23.693c1.929,10.655,4.173,21,5.579,31.458c1.134,8.44-2.304,15.997-6.618,23.068
	C412.786,577.865,408.252,586.828,409.021,598.431z"/>
<path d="M435.114,801.588c-14.584,5.193-27.782,4.286-40.47,0.379c6.08-5.985,12.169-11.978,18.479-18.188
	C417.758,791.426,424.806,797.637,435.114,801.588z"/>
<path d="M420.801,223.87c-0.74-5.71-1.493-11.518-2.212-17.065c0.455,0.313,1.668,1.149,2.983,2.054
	c2.816-5.357,6.714-6.293,12.542-5.242c5.043,0.909,10.512-0.616,15.799-0.962c4.478-0.293,8.992-0.814,13.439-0.499
	c2.37,0.168,4.629,1.894,6.939,2.917c-0.228,0.357-0.456,0.714-0.683,1.07c-6.345,1.703-12.69,3.407-19.035,5.11
	c-0.045,0.277-0.089,0.555-0.134,0.832c3.584,0.979,7.168,1.958,10.753,2.936c0.11,0.434,0.22,0.867,0.33,1.301
	c-2.587,0.92-5.11,2.259-7.775,2.664c-4.264,0.648-8.635,0.559-12.932,1.034c-1.395,0.154-2.702,1.1-4.987,2.09
	c-3.085-1.922-7.389-4.603-12.316-7.673C422.488,217.997,421.611,221.05,420.801,223.87z"/>
<path d="M405.045,208.972c1.476-1.148,2.5-1.943,3.129-2.432c-0.804,5.095-1.645,10.423-2.511,15.908
	c-0.638-2.445-1.252-4.797-2.051-7.857c-4.968,2.879-9.615,5.572-13.692,7.935c-7.597-5.724-17.924-0.07-25.25-6.847
	c4.233-1.426,7.919-2.668,11.605-3.91c0.038-0.323,0.077-0.646,0.115-0.969c-6.388-1.731-12.777-3.463-19.165-5.194
	c-0.112-0.53-0.225-1.059-0.337-1.589c3.123-0.804,6.252-2.291,9.368-2.265c5.802,0.049,11.587,1.108,17.396,1.491
	c3.239,0.214,6.535,0.132,9.765-0.207C398.471,202.505,402.626,203.484,405.045,208.972z"/>
</svg>
