<?xml version="1.0" encoding="UTF-8"?>
<svg viewBox="68.823 68.298 559.998 560.009" width="559.998" height="560.009" xmlns="http://www.w3.org/2000/svg" xmlns:xlink="http://www.w3.org/1999/xlink">
  <defs>
    <symbol id="q" overflow="visible"></symbol>
  </defs>
  <path d="M 240.431 519.912 L 457.201 519.912 C 472.142 519.912 484.299 507.756 484.299 492.814 L 484.299 131.524 C 484.299 116.583 472.143 104.426 457.201 104.426 L 240.431 104.426 C 225.49 104.426 213.333 116.582 213.333 131.524 L 213.333 492.814 C 213.333 507.755 225.489 519.912 240.431 519.912 Z M 466.231 419.978 L 420.243 332.181 L 438.47 309.396 L 466.232 351.033 L 466.231 419.978 Z M 439.801 278.818 L 411.09 314.705 L 392.098 278.447 C 418.121 270.267 441.536 254.756 459.453 233.256 L 466.23 225.123 L 466.23 318.475 L 439.801 278.818 Z M 392.168 234.466 L 353.84 176.974 C 376.383 179.478 393.973 198.642 393.973 221.845 C 393.973 226.228 393.336 230.458 392.168 234.466 Z M 303.652 221.845 C 303.652 198.642 321.242 179.478 343.789 176.97 L 305.461 234.462 C 304.289 230.458 303.652 226.228 303.652 221.845 Z M 348.812 202.001 L 368.066 230.88 L 329.562 230.88 L 348.812 202.001 Z M 312.707 248.942 L 384.914 248.942 C 376.668 259.903 363.555 267.008 348.809 267.008 C 334.071 267.008 320.957 259.903 312.707 248.942 Z M 402.648 254.954 C 408.597 245.317 412.039 233.977 412.039 221.845 C 412.039 209.713 408.597 198.372 402.648 188.736 C 418.929 196.431 433.562 207.634 445.441 221.845 C 433.562 236.056 418.929 247.259 402.648 254.954 Z M 294.978 254.954 C 278.697 247.258 264.064 236.056 252.185 221.845 C 264.064 207.634 278.697 196.431 294.978 188.736 C 289.029 198.372 285.587 209.713 285.587 221.845 C 285.587 233.977 289.029 245.318 294.978 254.954 Z M 305.529 278.442 L 286.537 314.7 L 257.826 278.813 L 231.396 318.465 L 231.396 225.113 L 238.173 233.246 C 256.091 254.754 279.505 270.262 305.528 278.441 L 305.529 278.442 Z M 231.396 351.032 L 259.158 309.391 L 277.385 332.176 L 231.397 419.977 L 231.396 351.032 Z M 457.196 501.842 L 240.426 501.842 C 235.445 501.842 231.395 497.791 231.395 492.811 L 231.395 458.905 L 268.489 388.085 C 273.864 391.577 280.134 393.456 286.692 393.456 C 300.579 393.456 313.188 384.717 318.063 371.714 L 335.145 326.163 C 336.258 323.194 339.137 321.198 342.309 321.198 C 346.305 321.198 349.657 324.319 349.942 328.303 L 356.625 421.885 C 357.66 436.334 369.816 447.651 384.297 447.651 C 399.594 447.651 412.039 435.206 412.039 419.909 L 412.039 393.456 L 393.973 393.456 L 393.973 419.909 C 393.973 425.245 389.634 429.585 384.298 429.585 C 379.247 429.585 375.005 425.636 374.645 420.597 L 367.962 327.015 C 367.005 313.624 355.739 303.136 342.31 303.136 C 331.654 303.136 321.974 309.843 318.232 319.824 L 301.15 365.379 C 298.904 371.371 293.091 375.399 286.693 375.399 C 283.099 375.399 279.697 374.18 276.954 371.938 L 323.614 282.86 C 331.86 284.313 340.286 285.071 348.813 285.071 C 357.345 285.071 365.766 284.309 374.012 282.852 L 466.231 458.902 L 466.231 492.808 C 466.231 497.789 462.181 501.839 457.2 501.839 L 457.196 501.842 Z M 240.426 122.492 L 457.196 122.492 C 462.177 122.492 466.227 126.543 466.227 131.523 L 466.227 218.578 L 459.45 210.445 C 432.005 177.507 391.68 158.621 348.81 158.621 C 305.94 158.621 265.615 177.508 238.17 210.441 L 231.393 218.574 L 231.393 131.523 C 231.393 126.542 235.443 122.492 240.424 122.492 L 240.426 122.492 Z"></path>
  <path d="M 628.821 492.822 L 628.821 348.302 C 628.821 313.439 600.458 285.075 565.594 285.075 L 520.434 285.075 L 520.434 131.525 C 520.434 96.662 492.071 68.298 457.207 68.298 L 240.437 68.298 C 205.574 68.298 177.21 96.661 177.21 131.525 L 177.21 285.075 L 132.05 285.075 C 97.187 285.075 68.823 313.438 68.823 348.302 L 68.823 492.822 C 68.823 510.99 76.538 527.381 88.85 538.924 C 77.327 542.045 68.823 552.584 68.823 565.08 L 68.823 601.209 C 68.823 616.15 80.979 628.307 95.921 628.307 L 601.721 628.307 C 616.662 628.307 628.819 616.151 628.819 601.209 L 628.819 565.08 C 628.819 552.584 620.315 542.045 608.792 538.924 C 621.104 527.381 628.819 510.99 628.819 492.822 L 628.821 492.822 Z M 565.594 303.142 C 590.496 303.142 610.754 323.4 610.754 348.302 L 610.754 492.822 C 610.754 517.724 590.496 537.982 565.594 537.982 L 501.395 537.982 C 506.696 532.794 511.094 526.689 514.321 519.916 L 565.594 519.92 C 580.535 519.92 592.692 507.764 592.692 492.822 L 592.692 348.302 C 592.692 333.361 580.536 321.204 565.594 321.204 L 520.434 321.204 L 520.434 303.138 L 565.594 303.142 Z M 547.532 469.462 L 574.048 495.978 C 572.759 499.404 569.462 501.849 565.595 501.849 L 519.779 501.849 C 520.021 500.15 520.201 498.431 520.302 496.689 L 547.532 469.462 Z M 574.626 471.013 L 560.306 456.689 L 574.626 442.365 L 574.626 471.013 Z M 547.532 443.915 L 524.177 420.56 L 547.532 397.205 L 570.887 420.56 L 547.532 443.915 Z M 574.626 398.755 L 560.306 384.431 L 574.626 370.107 L 574.626 398.755 Z M 547.532 371.657 L 520.434 344.559 L 520.434 339.27 L 565.594 339.27 C 569.461 339.27 572.758 341.719 574.043 345.141 L 547.532 371.657 Z M 534.759 384.43 L 520.435 398.754 L 520.435 370.109 L 534.759 384.43 Z M 534.759 456.688 L 520.435 471.012 L 520.435 442.367 L 534.759 456.688 Z M 195.279 131.528 C 195.279 106.626 215.537 86.368 240.439 86.368 L 457.209 86.368 C 482.111 86.368 502.369 106.626 502.369 131.528 L 502.369 492.818 C 502.369 517.72 482.111 537.978 457.209 537.978 L 240.439 537.978 C 215.537 537.978 195.279 517.72 195.279 492.818 L 195.279 131.528 Z M 177.213 344.558 L 150.115 371.656 L 123.599 345.14 C 124.884 341.714 128.185 339.269 132.052 339.269 L 177.212 339.269 L 177.213 344.558 Z M 123.022 370.105 L 137.342 384.429 L 123.022 398.753 L 123.022 370.105 Z M 150.116 397.203 L 173.471 420.558 L 150.116 443.913 L 126.761 420.558 L 150.116 397.203 Z M 123.022 442.363 L 137.342 456.687 L 123.022 471.011 L 123.022 442.363 Z M 150.116 469.461 L 177.343 496.688 C 177.448 498.426 177.624 500.149 177.866 501.848 L 132.054 501.848 C 128.187 501.848 124.89 499.399 123.605 495.977 L 150.116 469.461 Z M 177.214 471.012 L 162.89 456.688 L 177.214 442.364 L 177.214 471.012 Z M 177.214 398.754 L 162.89 384.43 L 177.214 370.106 L 177.214 398.754 Z M 86.894 492.816 L 86.894 348.296 C 86.894 323.394 107.152 303.136 132.054 303.136 L 177.214 303.136 L 177.214 321.202 L 132.054 321.198 C 117.113 321.198 104.956 333.354 104.956 348.296 L 104.956 492.816 C 104.956 507.757 117.112 519.914 132.054 519.914 L 183.327 519.914 C 186.554 526.683 190.952 532.789 196.253 537.98 L 132.054 537.976 C 107.152 537.976 86.894 517.718 86.894 492.816 Z M 601.734 610.236 L 95.934 610.236 C 90.953 610.236 86.903 606.185 86.903 601.204 L 86.903 592.173 L 610.773 592.173 L 610.773 601.204 C 610.769 606.185 606.718 610.236 601.738 610.236 L 601.734 610.236 Z M 601.734 556.045 C 606.715 556.045 610.765 560.095 610.765 565.076 L 610.765 574.107 L 86.895 574.107 L 86.895 565.076 C 86.895 560.095 90.946 556.045 95.926 556.045 L 601.734 556.045 Z"></path>
  <use transform="matrix(1, 0, 0, 1, 79.117188, 582.582031)" xlink:href="#q"></use>
</svg>
