<?xml version="1.0" encoding="utf-8"?>
<!-- Generator: Adobe Illustrator 16.0.0, SVG Export Plug-In . SVG Version: 6.00 Build 0)  -->
<!DOCTYPE svg PUBLIC "-//W3C//DTD SVG 1.1//EN" "http://www.w3.org/Graphics/SVG/1.1/DTD/svg11.dtd">
<svg version="1.1" id="Layer_1" xmlns="http://www.w3.org/2000/svg" xmlns:xlink="http://www.w3.org/1999/xlink" x="0px" y="0px"
	 width="841.89px" height="595.28px" viewBox="0 0 841.89 595.28" enable-background="new 0 0 841.89 595.28" xml:space="preserve">
<path d="M667.098,387.113c-5.442,10.085-17.768,14.6-27.988,10.26c-3.166-1.342-5.564-3.507-6.773-6.77
	c-0.505-1.36-0.821-2.872,1.121-3.621c1.887,6.067,6.409,9.743,12.285,10.063c5.205,0.281,9.459-1.766,10.804-4.976
	c-2.386,0.605-4.933,1.502-7.544,1.786c-1.205,0.132-2.541-0.942-3.818-1.468c0.861-0.828,1.605-1.846,2.604-2.441
	c2.215-1.328,4.379-2.613,5.441-5.608c-0.896,0.313-1.458,0.444-1.962,0.692c-3.382,1.652-6.724,1.623-9.829-0.529
	c-3.895-2.697-8.123-3.3-12.614-2.293c-4.963,1.113-9.573,0.256-14.065-1.963c-2.053-1.016-3.169-2.538-3.494-4.775
	c-1.653-11.399-5.459-22.109-10.503-32.416c-3.565-7.284-5.944-14.957-6.653-23.028c-0.597-6.789-0.496-13.644-1.109-20.433
	c-0.824-9.135-3.074-15.834-14.506-19.41c-3.249-1.018-6.373-2.701-9.282-4.514c-7.844-4.894-15.601-9.944-23.287-15.091
	c-5.179-3.466-10.714-5.116-16.925-4.375c-2.917,0.348-5.824,0.79-8.75,0.99c-12.88,0.887-25.471-1.049-38.066-3.565
	c-17.465-3.489-33.752-9.466-47.96-20.479c-1.729-1.343-3.654-2.441-5.491-3.65c11.634,12.347,24.941,22.133,41.008,27.929
	c4.027,1.451,7.763,3.728,11.59,5.707c0.869,0.451,1.563,1.243,2.844,2.292c-5.655-2.234-10.472-4.356-15.432-6.052
	c-16.075-5.496-29.682-14.68-41.156-27.112c-9.971-10.806-19.943-21.612-29.798-32.523c-0.231-0.254-0.456-0.477-0.679-0.676
	c-3.305-3.471-12.687-13.476-14.617-17.276c0.165-0.265,0.273-0.629,0.351-1.066c0.107-0.58,0.584-1.085,0.838-1.65
	c0.43-0.957,0.926-1.906,1.193-2.912c0.366-1.364,1.889-2.335,3.166-1.69c0.971,0.489,1.958,1.121,2.668,1.928
	c4.14,4.714,9.362,7.16,15.564,7.384c4.689,0.171,9.128-0.768,13.255-3.259c4.362-2.632,8.69-5.227,11.749-9.452
	c0.133-0.184,0.398-0.278,0.635-0.435c0.141,0.727,0.217,1.253,0.203,1.662c0.248-0.085,0.534-0.052,0.779,0.189
	c0.369,0.361,0.758,0.698,1.158,1.018c0.846-0.486,1.768-0.859,2.795-1.104c7.07-1.693,11.69-6.239,14.541-12.792
	c1.804-4.151,2.508-8.521,2.615-12.988c0.065-2.864-0.168-5.735-0.27-8.604c-0.506,3.055-0.769,6.118-1.387,9.105
	c-1.541,7.425-5.168,13.451-12.316,16.73c-5.635,2.583-11.574,4.116-17.827,3.869c-3.875-0.153-7.579-1.111-10.772-3.442
	c-1.021-0.744-1.862-1.733-2.785-2.607c0.321-0.212,0.426-0.233,0.49-0.192c0.331,0.222,0.658,0.454,0.975,0.694
	c4.283,3.25,9.166,4.759,14.48,4.5c4.73-0.23,9.305-1.401,13.693-3.242c6.354-2.671,10.394-7.428,12.577-13.875
	c0.092-0.27,0.119-0.562,0.178-0.843c-0.447,0.382-0.656,0.846-0.857,1.314c-2.457,5.707-6.557,9.568-12.657,11.067
	c-8.261,2.031-16.154,0.513-23.79-2.774c-4.502-1.94-8.127-5.232-11.966-8.182c-0.105-0.079-0.126-0.27-0.337-0.758
	c0.905,0.32,1.562,0.439,2.092,0.764c0.83,0.507,1.595,1.129,2.354,1.744c8.173,6.625,17.417,9.841,27.99,8.701
	c4.864-0.525,9.167-2.411,12.321-6.215c3.748-4.522,5.924-9.878,6.453-15.687c0.396-4.313,0.096-8.694,0.016-13.042
	c-0.035-1.861-0.279-3.721-0.498-5.575c-0.033-0.3-0.42-0.56-0.641-0.839c-0.242,0.301-0.625,0.57-0.699,0.908
	c-0.119,0.552-0.041,1.149-0.041,1.726c-0.01,5.236-0.745,10.382-2.178,15.402c-2.008,7.055-5.32,13.285-11.781,17.347
	c-0.143,0.09-0.215,0.29-0.318,0.438c0.049,0.077,0.1,0.154,0.148,0.23c1.1-0.366,2.198-0.731,3.298-1.098l0.162,0.413
	c-1.113,0.459-2.188,1.091-3.345,1.351c-5.215,1.175-10.475,1.266-15.758,0.451c-5.881-0.905-11.359-2.826-16.25-6.281
	c-2.263-1.6-4.743-1.705-7.263-0.897c-3.814,1.221-6.79,3.729-9.711,6.547c0.272,0.026,0.393,0.063,0.508,0.045
	c0.351-0.048,0.703-0.106,1.048-0.183c4.333-0.963,8.258-0.184,11.504,2.94c2.591,2.495,5.056,5.122,7.544,7.723
	c2.855,2.987,6.009,5.545,9.858,7.16c2.098,0.879,4.229,1.324,6.503,0.805c0.742-0.169,1.521-0.188,2.285-0.277l0.068,0.383
	c-1.484,1.015-3.207,1.296-4.969,1.161c-5.291-0.405-9.724-2.771-13.459-6.39c-2.808-2.719-5.304-5.757-8.084-8.508
	c-5.086-5.035-10.397-5.45-15.769-1.392c-1.921,1.453-2.664,4.124-1.864,6.894c1.402-1.121,2.71-2.315,4.163-3.298
	c2.587-1.758,4.726-1.453,6.672,0.964c1.729,2.145,3.315,4.401,4.954,6.618c0.099,0.134,0.099,0.342,0.146,0.517
	c-0.634-0.231-1.092-0.566-1.476-0.973c-1.789-1.908-3.55-3.842-5.337-5.753c-1.28-1.371-3.083-1.31-4.325,0.292
	c0.582,0.039,1.046,0.116,1.504,0.091c1.211-0.073,2.177,0.393,2.921,1.309c0.555,0.688,1.145,1.38,1.547,2.157
	c1.867,3.592,4.798,5.853,8.563,7.191c6.009,2.134,12.226,2.036,18.46,1.847c0.479-0.013,0.962,0.031,1.442,0.049
	c0.465-0.194,0.928-0.388,1.658-0.694c-5.762,6.788-25.82,7.705-30.081,1.685c9.286,4.04,18.544,4.079,27.719-0.553
	c-3.898,0.107-7.796,0.314-11.695,0.297c-5.437-0.021-10.405-1.462-14.669-5.062c-1.919-1.623-4.235-2.398-6.832-1.793
	c-0.311,0.073-0.65,0.01-1.299,0.01c1.913-1.927,3.935-1.236,5.992-0.874c-0.361-1.289-1.259-1.579-2.105-1.553
	c-1.173,0.037-2.337,0.374-3.511,0.536c-0.51,0.07-1.04,0.021-1.562,0.027c0.365-0.344,0.676-0.854,1.108-0.998
	c1.404-0.472,2.854-0.809,4.344-1.212c-0.236-1.011-1.06-1.185-1.893-1.325c-2.776-0.464-6.041,2.522-5.252,5.581
	c0.154,0.601,0.357,1.201,0.422,1.812c0.051,0.468-0.08,0.955-0.13,1.434c-0.45-0.269-1.131-0.438-1.307-0.83
	c-0.733-1.646-1.424-3.329-1.913-5.058c-0.327-1.156-0.289-2.414-0.412-3.627c-0.125-0.05-0.249-0.103-0.375-0.154
	c-0.49,0.798-1.057,1.562-1.459,2.401c-1.224,2.561-2.884,4.713-5.033,6.623c-2.674,2.378-5.471,4.757-6.952,8.152
	c-0.586,1.344-0.795,2.851-1.176,4.285c0.472-0.645,1.155-1.225,1.383-1.946c1.472-4.691,5.756-8.032,10.588-8.089
	c0.966-0.01,1.922,0.148,2.485,1.076c-1.499,0.11-2.966,0.088-4.385,0.344c-3.762,0.676-6.284,3-7.788,6.408
	c-0.965,2.191-1.746,4.469-2.537,6.732c-1.083,3.09,0.452,6.257,3.524,7.451c0.663,0.258,1.663,0.384,1.344,1.372
	c-0.07,0.218-1.61,0.345-2.049-0.01c-1.41-1.141-2.622-2.529-3.901-3.813c-0.056,0.285-0.164,0.854-0.28,1.445
	c-0.907-1.415-0.834-4.158,0.042-6.167c0.526-1.204,0.904-2.47,1.35-3.708c-0.037,0.043-0.079,0.086-0.119,0.129
	c-0.081,0.084-0.165,0.167-0.249,0.25c-0.125,0.125-0.249,0.252-0.354,0.389c-0.069,0.09-0.131,0.184-0.18,0.283
	c-0.679,1.398-1.277,2.837-1.933,4.249c-0.206,0.447-0.49,0.857-0.74,1.284c-0.167-1.208-0.795-1.144-1.62-0.979
	c-0.979,0.196-1.988,0.244-2.983,0.354c0.934-0.6,1.937-0.899,2.914-1.266c3.818-1.436,5.501-6.285,3.388-9.712
	c-0.873-1.417-0.428-2.703,1.036-3.329c0.26,0.809,0.525,1.629,0.859,2.672c0.367-0.411,0.512-0.521,0.586-0.668
	c1.367-2.707,3.208-5.081,5.65-6.83c3.676-2.628,5.706-6.386,7.632-10.262c0.142-0.286,0.173-0.628,0.313-1.17
	c-1.037,0.218-1.838,0.432-2.652,0.544c-0.764,0.107-1.542,0.109-2.314,0.158c-0.016-0.114-0.033-0.227-0.048-0.337
	c2.319-0.288,4.448-1.113,6.132-2.69c2.748-2.573,5.663-5.055,7.973-7.995c4.463-5.683,7.203-12.142,6.989-19.569
	c-0.058-2.044-0.712-3.866-1.825-5.62c-1.499-2.357-4.884-2.888-7.729-1.61c0.499,1.508,1.125,2.983,1.469,4.52
	c0.881,3.913,0.585,7.876,0.25,11.822c-0.421,4.98-1.457,9.624-5.004,13.592c-4.186,4.686-9.156,6.507-15.251,5.686
	c-0.137-0.018-0.26-0.152-0.387-0.231c-0.017-0.12-0.031-0.239-0.047-0.359c4.872,0.078,9.277-1.013,12.859-4.486
	c3.796-3.683,6.538-8.766,6.268-12.002c-3.178,1.986-6.721,1.697-10.125,1.269c-8.715-1.103-15.934-5.226-21.913-11.595
	c-2.875-3.063-5.37-6.404-7.365-10.106c-0.223-0.413-0.373-0.863-0.557-1.297c0.426,0.096,0.591,0.294,0.727,0.512
	c3.713,5.986,8.612,10.817,14.384,14.806c4.773,3.3,9.798,6.068,15.729,6.409c2.268,0.131,4.596-0.201,6.849-0.598
	c1.436-0.252,2.8-1.224,2.79-2.845c-0.021-3.719-0.152-7.453-0.506-11.156c-0.289-3.026-2.106-4.706-5.191-5.407
	c-5.009-1.137-10.189-1.748-14.839-4.187c-0.134-0.07-0.328-0.025-0.804-0.051c2.329,2.587,5.316,3.86,7.782,5.825
	c-0.981-0.091-1.869-0.389-2.78-0.516c-3.946-0.554-7.499-2.06-10.9-4.103c-1.574-0.946-3.391-1.532-5.162-2.081
	c-0.835-0.259-1.816-0.044-2.731-0.044c-0.01,0.132-0.021,0.263-0.033,0.395c1.202,0.639,2.461,1.189,3.598,1.927
	c7.339,4.764,15.249,7.982,23.959,9.211c1.868,0.262,3.666,1.024,5.497,1.555c-0.038,0.136-0.077,0.273-0.114,0.41
	c-1.859-0.355-3.708-0.808-5.582-1.045c-8.349-1.059-16.108-3.562-22.888-8.763c-1.416-1.086-3.155-1.835-4.849-2.455
	c-2.497-0.912-4.739,0.22-6.951,1.281c-2.084-1.779-4.465-2.106-6.944-1.009c-1.738,0.77-3.418,1.717-5.014,2.752
	c-3.332,2.166-6.703,4.334-10.55,5.353c-5.617,1.486-11.328,2.616-17,3.89c-0.038,0.008-0.1-0.109-0.409-0.465
	c1.911-0.557,3.641-1.219,5.434-1.558c6.319-1.188,12.517-2.722,18.241-5.765c3.141-1.671,6.266-3.364,9.393-5.06
	c0.159-0.086,0.251-0.297,0.513-0.621c-0.587-0.056-0.966-0.116-1.346-0.123c-2.88-0.052-5.394,1.097-7.736,2.581
	c-3.896,2.471-8.31,3.281-12.699,4.209c-0.031,0.005-0.09-0.116-0.149-0.197c2.402-1.746,4.81-3.493,7.215-5.242
	c-0.083-0.131-0.164-0.262-0.248-0.393c-0.234,0.067-0.473,0.121-0.705,0.198c-2.688,0.899-5.346,1.901-8.072,2.67
	c-2.347,0.664-4.761,1.103-7.159,1.57c-2.487,0.484-4.066,1.938-4.315,4.42c-0.387,3.835-0.628,7.693-0.698,11.544
	c-0.016,0.829,0.786,1.901,1.517,2.458c0.88,0.669,2.055,1.064,3.16,1.299c3.453,0.729,6.854,0.117,10.104-1.002
	c9.976-3.442,18.053-9.442,23.959-18.257c0.402-0.603,0.843-1.176,1.267-1.764c0.216,0.348,0.186,0.528,0.104,0.679
	c-5.919,11.002-14.742,18.387-27.002,21.253c-4.334,1.011-8.814,1.6-13.192-1.367c2.718,10.299,8.488,16.671,19.446,17.355
	c-0.264,0.228-0.457,0.361-0.641,0.351c-2.124-0.105-4.27-0.073-6.362-0.396c-2.978-0.456-5.187-2.351-7.259-4.407
	c-2.566-2.544-4.812-5.308-5.41-8.982c-0.442-2.71-0.739-5.459-0.875-8.203c-0.219-4.439-0.396-8.902,1.701-13.067
	c0.117-0.232-0.193-0.977-0.429-1.048c-2.4-0.693-4.676-0.557-6.55,1.355c-1.313,1.34-2.329,2.922-2.422,4.79
	c-0.127,2.511-0.244,5.089,0.167,7.547c1.027,6.144,4.461,11.074,8.639,15.497c1.79,1.891,3.864,3.51,5.726,5.336
	c1.638,1.605,3.476,2.731,5.766,3.062c0.227,0.032,0.436,0.167,0.926,0.365c-1.974,0.684-3.404-0.339-5.149-0.769
	c1.269,2.26,2.294,4.387,3.6,6.327c1.129,1.678,2.547,3.167,3.896,4.688c0.824,0.927,1.835,1.692,2.633,2.639
	c1.497,1.781,2.899,3.643,4.492,5.662c0.254-1.004,0.49-1.936,0.726-2.869c1.422,0.845,1.742,2.206,1.089,3.542
	c-0.474,0.968-0.984,2.089-0.93,3.111c0.18,3.378,2.748,6.264,6.038,7.136c0.311,0.083,0.61,0.203,1.012,0.338
	c-1.367,0.857-3.221-1.412-4.141,1.239c-0.82-1.639-1.519-3.051-2.229-4.457c-0.437-0.86-1.096-1.668-1.294-2.579
	c-0.604-2.818-1.499-5.493-3.383-7.717c-1.549-1.83-3.087-3.706-4.866-5.298c-2.068-1.851-3.685-3.94-4.865-6.434
	c-0.535-1.129-1.25-2.174-1.883-3.259c-0.39,0.985-0.511,1.861-0.522,2.741c-0.027,2.335-0.745,4.462-1.921,6.438
	c-0.229,0.384-0.698,0.623-1.057,0.929c-0.104-1.689,0.185-3.104,0.11-4.498c-0.161-2.982-2.469-5.151-6.109-4.259
	c-0.495,0.122-0.896,0.64-1.341,0.973c0.038,0.163,0.079,0.327,0.116,0.491c2.174-0.128,4.122,0.439,5.893,1.786
	c-0.372,0.251-0.775,0.409-1.125,0.33c-0.602-0.135-1.158-0.453-1.753-0.632c-2.302-0.694-4.66,0.157-5.68,2.022
	c3.723-1.514,6.074-1.397,7.104,0.412c-0.243,0.025-0.475,0.107-0.668,0.057c-3.531-0.935-6.422,0.34-9.139,2.483
	c-2.225,1.758-4.768,2.898-7.56,3.506c-6.082,1.324-12.2,0.882-18.32,0.424c-0.285-0.02-0.548-0.304-0.905-0.512
	c0.237-0.138,0.307-0.215,0.38-0.215c4.434-0.009,8.906,0.357,13.293-0.099c6.863-0.714,13.206-2.778,16.616-9.648
	c0.061-0.118,0.147-0.221,0.215-0.337c0.921-1.541,2.213-2.391,4.075-2.231c0.263,0.022,0.543-0.127,1.225-0.302
	c-0.808-0.454-1.254-0.838-1.766-0.966c-1.75-0.433-2.843,0.696-3.865,1.831c-1.33,1.473-2.569,3.025-3.902,4.493
	c-0.53,0.585-1.206,1.038-2.099,1.788c0.145-0.557,0.145-0.701,0.214-0.795c1.58-2.203,3.085-4.465,4.777-6.576
	c1.2-1.495,2.772-2.623,4.864-2.085c0.96,0.245,1.916,0.726,2.733,1.297c1.245,0.869,2.372,1.908,3.745,3.037
	c0.415-2.282,0.268-4.266-1.047-5.817c-3.009-3.548-8.687-5.091-12.844-2.927c-2.744,1.429-4.916,3.493-6.882,5.815
	c-2.912,3.438-5.903,6.828-9.854,9.094c-0.178,0.101-0.356,0.202-0.534,0.302c-0.209,0.116-0.417,0.23-0.629,0.343
	c-0.196,0.106-0.394,0.211-0.591,0.313c-0.223,0.113-0.443,0.223-0.667,0.332c-0.108,0.053-0.219,0.104-0.329,0.157
	c-0.184,0.087-0.371,0.171-0.557,0.253c-0.087,0.039-0.174,0.078-0.262,0.114c-0.529,0.226-1.059,0.429-1.592,0.605
	c-0.026,0.009-0.05,0.017-0.074,0.024c-0.403,0.132-0.81,0.247-1.217,0.344c-0.045,0.01-0.085,0.021-0.127,0.03
	c-0.267,0.063-0.536,0.114-0.803,0.161c-0.037,0.004-0.07,0.012-0.104,0.017c-0.071,0.012-0.142,0.021-0.213,0.031
	c-0.081,0.012-0.162,0.023-0.244,0.034c-0.04,0.005-0.081,0.008-0.119,0.013c-0.113,0.013-0.227,0.026-0.341,0.036
	c-0.03,0.002-0.063,0.004-0.094,0.006c-0.123,0.01-0.245,0.019-0.366,0.025c-0.041,0.002-0.082,0-0.12,0.002
	c-0.114,0.004-0.229,0.009-0.344,0.01c-0.033,0-0.066-0.002-0.099-0.002c-1.673-0.004-3.393-0.376-5.172-1.268
	c0.972,0.806,1.887,1.694,2.931,2.393c2.564,1.719,5.047,3.646,7.816,4.958c7.771,3.687,20.575,3.197,27.38-5.257
	c0.498-0.618,1.099-1.177,1.74-1.646c1.244-0.91,3.437-0.568,3.65,0.676c0.333,1.949,1.384,3.509,2.138,5.242
	c0.523,1.206,0.883,2.02,2.367,1.45v2.624c0.125,0.011,0.249,0.022,0.375,0.032c-0.238,0.371-0.546,0.715-0.692,1.118
	c-0.115,0.317-0.026,0.706-0.029,1.062c0.285-0.137,0.601-0.234,0.844-0.422c0.25-0.193,0.43-0.479,0.732-0.829
	c-0.212,1.389-0.68,2.635-0.529,3.798c0.505,3.905,1.703,7.608,4.814,10.262c1.537,1.31,3.348,2.316,5.104,3.34
	c4.148,2.419,6.511,5.867,6.28,10.778c-0.097,2.067-0.443,4.122-0.71,6.465c2.24-3.492,3.138-7.016,2.595-10.864
	c-0.562-3.967-2.912-6.757-6.19-8.939c0.478-0.047,0.828-0.002,1.141,0.132c4.293,1.844,7.112,6.985,6.557,11.672
	c-0.36,3.042-1.586,5.72-3.08,8.312c-1.568,2.719-1.611,5.403-0.264,8.265c0.804,1.705,1.243,3.592,1.771,5.417
	c0.187,0.649,0.156,1.361,0.224,2.042c0.945-1.505,2.293-1.889,3.831-1.956c0.484-0.021,0.968-0.145,1.443-0.257
	c2.831-0.667,5.16-2.965,5.458-5.722c0.308-2.85-1.171-4.9-3.462-6.435c-0.333-0.223-0.687-0.414-1.276-0.767
	c3.33-0.246,6.777,4.987,6.011,7.451c-0.961,3.099-2.904,5.223-5.771,6.607c-1.117,0.537-2.289,1.013-3.295,1.719
	c-0.251,0.175-0.474,0.338-0.669,0.492c-0.196,0.154-0.365,0.302-0.508,0.444c-0.144,0.142-0.264,0.28-0.363,0.419
	c-0.484,0.691-0.409,1.385-0.033,2.614c0.484,0.991,0.89,2.036,1.374,3.028c0.291,0.594,0.611,1.167,0.992,1.696
	c3.162,4.369,5.525,9.059,7.066,14.253c1.408,4.751,3.927,8.974,7.719,12.272c2.042,1.776,4.269,3.344,6.417,4.999
	c4.173,3.214,7.556,7.103,9.289,12.114c1.232,3.556,2.238,7.233,2.877,10.937c0.118,0.687,0.212,1.381,0.28,2.084
	c-0.346,0.946-0.677,1.896-0.988,2.855c-0.006-0.384-0.024-0.763-0.059-1.142c-0.873-9.067-4.789-16.86-11.129-23.39
	c-2.2-2.264-4.596-4.331-6.895-6.499c-4.661-4.396-7.572-9.852-9.342-15.92c-1.472-5.042-4.598-9.128-7.324-13.464
	c0.452,3.995,2.778,7.294,4.015,10.993c-4.434-6.756-6.621-14.281-7.565-22.274c-0.334,0.739-0.607,1.458-0.62,2.183
	c-0.056,3.727-0.325,7.479,0,11.177c0.946,10.815,6.897,18.993,14.641,25.964c2.776,2.499,5.049,5.224,6.732,8.471
	c0.582,1.119,0.88,2.425,1.08,3.685c0.127,0.798-0.163,1.663-0.265,2.5c-0.133-0.008-0.266-0.018-0.398-0.025
	c-0.53-3.128-2.145-5.773-4.022-8.178c-2.867-3.676-5.924-7.21-9.029-10.691c-9.154-10.269-11.627-22.202-8.936-35.424
	c0.26-1.273,0.25-2.345-0.455-3.414c-2.069-3.134-3.547-6.546-4.831-10.067c-0.386-1.061-1.069-2.042-1.74-2.969
	c-1.911-2.635-3.656-5.34-4.768-8.439c-0.71-1.992-1.661-3.898-2.504-5.842c-0.235,0.476-0.226,0.901-0.235,1.325
	c-0.05,2.266,0.063,4.551-0.196,6.792c-0.486,4.189-1.307,8.342-1.762,12.535c-0.262,2.412-0.301,4.804,0.03,7.143l-0.001-0.002
	c0,0,0.301,19.011,0,22.086l0.001,0.01c-0.686,6.961-1.306,13.972-2.116,20.964c-0.774,6.683-1.953,13.323-2.63,20.016
	c-0.887,8.753,1.423,17.063,4.862,24.932c8.375,19.171,22.572,33.301,39.839,44.592c1.221,0.799,2.754,1.119,4.141,1.66
	c-0.067-1.074-0.381-1.674-0.839-2.13c-4.033-4.024-8.005-8.114-12.163-12.009c-7.911-7.408-14.801-15.465-18.355-25.973
	c-2.534-7.49-3.731-15.172-4.31-22.418c2.78,8.863,5.234,18.389,8.773,27.492c3.666,9.425,11.026,16.232,18.75,22.598
	c-1.94-4.547-4.15-8.916-6.434-13.249c-3.824-7.255-7.965-14.369-11.722-21.65l4.09,4.196c0.301,0.691,0.564,1.405,0.912,2.074
	c4.698,9.054,9.242,18.19,14.166,27.119c3.663,6.638,8.355,12.58,14.992,16.529c3.996,2.377,8.301,4.238,12.465,6.328l0.471-0.708
	c-1.56-1.945-3.058-3.942-4.692-5.826c-4.53-5.222-9.224-10.268-11.952-16.827c-5.559-13.365-5.241-27.146-3.308-41.078
	c0.318-2.293,0.721-4.555,1.203-6.785c0.574,0.956,1.088,1.947,1.559,2.963c-1.698,8.93-2.193,18.07-1.526,27.371
	c0.743,10.351,4.093,19.906,10.729,28.15c3.299,4.095,6.321,8.414,9.521,12.59c0.376,0.492,1.098,0.724,2.119,1.365
	c-0.136-1.168-0.137-1.666-0.257-2.133c-1.43-5.563-4.529-10.241-7.91-14.753c-3.649-4.874-6.76-10.017-8.499-15.915
	c-2.597-8.807-2.646-17.593-1.103-26.346c0.582,1.303,0.977,2.672,0.985,4.08c0.323-0.699,0.627-1.405,0.923-2.116
	c-0.387,2.532-0.658,5.102-0.785,7.717c-0.555,11.45,2.841,21.812,9.716,31.036c3.796,5.097,6.998,10.484,7.975,16.959
	c0.125,0.836,1.502,1.481,2.299,2.215c0.254-0.91,0.721-1.829,0.703-2.738c-0.018-0.907-0.39-1.877-0.83-2.703
	c-2.397-4.475-4.505-9.161-7.371-13.319c-10.094-14.645-12.318-29.939-4.656-46.296c3.588-7.659,8.428-14.471,14.175-20.655
	c1.722-1.856,3.44-3.712,5.16-5.568c0.179,0.145,0.36,0.29,0.542,0.433c-0.498,0.741-0.974,1.494-1.495,2.217
	c-4.286,5.966-8.97,11.687-12.793,17.933c-9.041,14.782-11.187,30.172-2.368,45.942c3.933,7.033,9.742,13.059,11.248,21.486
	c1.48-3.842,3.14-7.561,3.602-11.418c0.445-3.727-0.346-7.597-0.591-11.371c0.709,1.133,1.535,2.453,2.438,3.9
	c1.22-3.076,0.641-5.628-1.071-8.041c-0.85-1.198-1.58-2.479-2.377-3.712c-5.291-8.194-7.84-17.069-6.6-26.855
	c0.866-6.829,4.13-12.476,8.918-17.404c-4.05,7.757-7.833,15.544-7.017,24.651c0.812,9.042,4.78,16.719,9.489,23.551
	c5.418-7.452,10.805-14.855,16.188-22.26c0.351,0.24,0.701,0.484,1.051,0.729c-2.625,3.917-5.051,7.986-7.923,11.717
	c-4.137,5.377-7.208,11.149-8.295,17.9c-0.466,2.896-0.757,5.854-1.595,8.646c-2.562,8.516-5.37,16.954-8.04,25.437
	c-0.734,2.327-1.323,4.701-1.979,7.049c0.995-0.09,1.59-0.362,1.838-0.821c1.921-3.54,4.302-6.942,5.538-10.716
	c2.308-7.045,4.001-14.295,5.837-21.488c2.24-8.781,5.135-17.328,11.059-24.334c6.114-7.229,11.499-14.716,13.09-24.321
	c0.007-0.047,0.142-0.071,0.37-0.183c0.044,0.465,0.167,0.884,0.113,1.28c-0.843,6.146-2.401,12.048-6.161,17.129
	c-2.363,3.196-4.952,6.231-7.236,9.482c-6.822,9.698-9.777,20.794-12.006,32.275c-1.902,9.813-4.044,19.63-12.861,26.36
	c-3.942,3.012-2.655,9.947,1.781,12.02c2.482,1.161,5.137,2.111,7.815,2.647c2.792,0.561,5.867,0.751,7.966-1.786
	c2.838-3.434,4.898-7.103,2.637-11.817c-1.605-3.347-2.081-6.833-0.878-10.56c2.015-6.238,6.256-11.104,9.732-16.44
	c0.257-0.397,1.11-0.406,1.686-0.596c0.041,0.556,0.277,1.196,0.079,1.646c-0.485,1.098-1.174,2.104-1.781,3.151
	c1.91-0.813,3.566-1.762,5.015-2.959c4.513-3.73,9.464-7.098,13.294-11.443c6.039-6.848,7.574-15.576,7.789-24.468
	c0.17-6.81,0.973-13.397,4.139-19.588c5.791-11.333,5.737-23.297,3.451-35.445c-0.348-1.859-0.766-3.703-1.152-5.554
	c0.632,0.163,0.893,0.415,1,0.724c4.453,12.904,5.669,25.886-0.175,38.653c-3.159,6.9-4.813,13.904-4.874,21.507
	c-0.077,9.8-2.701,18.946-8.8,26.863c-0.825,1.071-1.638,2.153-2.62,3.448c1.001,0.295,1.633,0.574,2.289,0.658
	c6.172,0.771,12.33,1.686,18.521,2.232c16.474,1.448,32.334-0.366,47.381-8.039c10.619-5.417,16.636-13.99,18.664-25.26
	c1.416-7.868,1.554-15.968,2.275-23.963c0.111-1.251,0.287-2.493,0.432-3.742c0.681,0.672,0.82,1.266,0.793,1.85
	c-0.453,9.224-0.602,18.477-1.485,27.656c-0.919,9.595,2.725,17.553,8.209,24.717c6.065,7.933,13.675,14.426,21.642,20.444
	c16.844,12.722,30.098,28.005,35.313,49.106c0.597,2.41,1.687,4.698,2.55,7.043c0.385-2.395,0.41-4.679-0.084-6.842
	c-0.845-3.695-1.748-7.418-3.102-10.949c-4.576-11.955-10.688-22.816-21.621-30.346c-4.185-2.882-8.019-6.32-11.816-9.718
	c-19.687-17.604-26.789-39.114-25.672-62.159c0.219,0.41,0.445,0.689,0.527,1.006c0.146,0.582,0.246,1.182,0.305,1.781
	c0.939,9.656,2.444,19.195,6.012,28.292c6.424,16.386,17.241,29.329,31.67,39.134c9.746,6.626,15.951,15.615,19.995,26.402
	c1.128,3,2.259,6.002,3.393,9.006l0.402-0.108l-0.987-9.586c0.846,0.68,1.244,1.452,1.325,2.255c0.65,6.266,1.448,12.527,1.8,18.813
	c0.494,8.893,0.89,17.813-1.283,26.592c-0.5,2.01-1.018,4.021-1.407,6.058c-0.567,2.969,0.519,4.013,3.481,3.483
	c0.337-0.059,0.675-0.081,1.165-0.141c0.849,3.667,4.03,4.145,6.907,4.943c5.926,1.646,5.935,1.604,7.209-4.25
	c0.146-0.676,0.274-1.357,0.477-2.018c0.74-2.418,0.26-4.705-1.133-6.666c-3.999-5.609-5.57-12.219-7.922-18.515
	c-0.61-1.626-0.36-2.772,0.695-4.228c5.432-7.485,10.896-14.96,15.934-22.705c3.52-5.41,6.37-11.252,9.618-17.076
	c6.459,1.597,12.616,1.279,17.454-4.17c6.676,4.533,13.434,4.409,20.191,0.701c6.775-3.719,12.946-11.99,12.895-17.014
	C668.075,385.104,667.629,386.129,667.098,387.113z M360.278,134.28c8.299,3.069,16.658,5.786,25.718,4.187
	c0.049,0.132,0.099,0.264,0.147,0.398c-0.556,0.276-1.104,0.778-1.668,0.791c-3.008,0.077-6.041,0.255-9.025-0.022
	c-5.143-0.48-9.956-2.219-14.55-4.558c-0.264-0.135-0.5-0.325-0.749-0.49C360.194,134.486,360.236,134.384,360.278,134.28z
	 M327.902,134.971c-5.082,2.598-10.472,4.193-16.146,4.712c-2.103,0.193-4.243,0.096-6.358-0.006
	c-0.65-0.032-1.276-0.529-1.914-0.812c0.081-0.119,0.162-0.238,0.241-0.358c8.818,1.275,16.911-1.586,25.152-4.197
	C328.553,134.532,328.249,134.793,327.902,134.971z M268.247,178.298c9.74,3.439,19.477,4.334,29.052-0.685
	C292.592,183.742,274.491,183.669,268.247,178.298z M313.64,194.788c1.377,0.989,2.462,1.769,3.606,2.589
	C315.977,198.108,314.475,197.058,313.64,194.788z M311.315,183.57c-0.218-1.332-0.341-2.68-0.556-4.412
	c0.396,0.495,0.709,0.747,0.841,1.072c0.643,1.583,1.984,2.071,3.477,2.57c1.477,0.494,2.979,1.167,4.191,2.119
	c1.378,1.081,0.909,2.552-0.771,3.111C315.622,188.988,311.818,186.641,311.315,183.57z M322.196,192.234
	c-1.053,0.65-1.858,1.147-2.713,1.676C319.486,192.555,320.232,192.061,322.196,192.234z M325.697,197.381
	c-0.117-0.665-0.232-1.328-0.323-1.844c-0.869,1.131-1.688,2.455-2.77,3.502c-0.601,0.581-1.632,0.741-2.497,1.001
	c-0.199,0.06-0.719-0.248-0.72-0.387c0-0.291,0.189-0.645,0.41-0.859c0.208-0.2,0.553-0.263,0.841-0.375
	c3.163-1.221,4.705-4.38,3.582-7.568c-0.811-2.3-1.676-4.592-2.685-6.812c-1.851-4.071-6.51-7.729-11.31-6.449
	c-0.11,0.029-0.247-0.048-0.569-0.119c1.355-1.397,2.872-1.288,4.358-0.985c3.089,0.627,5.502,2.308,6.965,5.103
	c1.111,2.119,1.969,4.368,2.957,6.549c0.348,0.769,0.73,1.521,1.127,2.265C326.241,192.613,326.272,194.951,325.697,197.381z
	 M326.111,271.169l-0.58-1.426c0.559,0.667,1.118,1.337,1.678,2.005L326.111,271.169z M317.175,234.697
	c-0.277-3.492-0.53-6.708-0.81-10.235C317.94,227.923,317.719,231.16,317.175,234.697z M312.422,214.296
	c0.245-1.127,0.433-2.267,0.671-3.396c0.083-0.393,0.248-0.771,0.372-1.154c0.11,0.027,0.217,0.055,0.326,0.082
	c-0.197,1.161-0.378,2.324-0.593,3.481c-1.218,6.563-1.256,12.979,1.315,19.356c1.584,3.931,2.4,8.156,2.473,12.491
	c-0.11-0.297-0.239-0.592-0.327-0.896c-0.853-2.982-1.434-6.075-2.601-8.931C311.248,228.453,310.866,221.472,312.422,214.296z
	 M370.508,242.818c-0.108-2.928-0.304-5.852-0.463-8.778c-0.041-0.742-0.088-1.484,0.043-2.241c1.253,4.85,1.962,9.76,1.299,14.764
	c-0.674,5.106-3.4,9.235-6.445,13.177c-0.125-0.078-0.249-0.156-0.375-0.234c0.512-0.763,1.019-1.53,1.538-2.287
	C369.076,252.878,370.703,248.117,370.508,242.818z M382.745,195.04l0.737-0.446c0.307,0.706,0.584,1.417,0.764,2.154
	c0.704,2.885,1.06,5.855,1.774,8.738c1.078,4.347,2.348,8.645,3.522,12.969c0.339,1.247,0.642,2.502,0.873,3.778
	c-0.018,0.075-0.039,0.154-0.051,0.218c0.043,0.052,0.083,0.112,0.118,0.171c0.024,0.146,0.052,0.29,0.075,0.436
	c-2.221-3.353-3.369-7.129-4.274-10.941c-1.072-4.53-1.79-9.142-2.713-13.708c-0.228-1.135-0.527-2.256-0.827-3.377L382.745,195.04z
	 M380.271,257.413c6.743-4.347,9.044-10.756,9.446-18.252c0.357-6.686-0.565-13.21-2.555-19.593
	c-0.116-0.375-0.184-0.768-0.119-1.254c0.135,0.171,0.329,0.322,0.396,0.517c2.332,6.628,4.002,13.378,3.499,20.482
	c-0.154,2.167-0.424,4.33-0.744,6.479c-0.787,5.302-3.648,9.246-8.068,12.162c-2.796,1.845-5.611,3.657-8.112,5.894
	c-0.003,0-0.004,0-0.006-0.001c-0.001,0.003-0.002,0.006-0.004,0.011c-0.677,0.607-1.338,1.238-1.963,1.917
	c-3.479,3.784-5.568,8.091-5.653,13.289c-0.01,0.636-0.081,1.27-0.125,1.902c-0.117-0.005-0.233-0.013-0.35-0.02
	c-0.437-2.112-0.47-4.259-0.086-6.382c0.661-3.647,2.354-6.883,4.994-9.395C373.766,262.363,376.866,259.61,380.271,257.413z
	 M370.441,184.783c0.934-0.76,2.101-1.41,3.262-1.673c2.145-0.489,4-1.177,4.839-3.43c0.063-0.166,0.301-0.269,0.453-0.396
	c-0.107,1.4-0.171,2.684-0.313,3.959c-0.372,3.333-4.483,5.853-7.606,4.689C369.424,187.313,369.063,185.9,370.441,184.783z
	 M375.704,195.114c-0.053,1.597-1.423,2.723-3.26,2.466C373.684,196.641,374.647,195.914,375.704,195.114z M367.414,192.205
	c1.734-0.386,2.536,0.054,3.195,1.725C369.506,193.335,368.583,192.837,367.414,192.205z M357.712,196.116
	c0.045,0.145,0.09,0.288,0.136,0.431c-0.198,0.225-0.368,0.486-0.598,0.667c-1.329,1.035-2.125,2.384-2.81,3.923
	c-0.946,2.131-2.195,4.126-3.324,6.174c-0.231,0.419-0.495,0.82-0.744,1.227c-0.133-0.112-0.265-0.224-0.396-0.336
	c0-0.12-0.05-0.272,0.006-0.352c1.902-2.711,3.13-5.732,4.236-8.836c0.343-0.968,1.209-1.794,1.976-2.545
	C356.511,196.16,357.196,196.222,357.712,196.116z M337.061,194.906c-0.785,0.24-1.658,0.199-2.491,0.292
	c-0.038-0.15-0.076-0.298-0.113-0.448c0.322-0.173,0.634-0.374,0.969-0.513c5.099-2.094,7.73-6.162,8.583-11.355
	c0.499-3.042,0.37-6.189,0.667-9.305c0.224,2.468,0.427,4.941,0.67,7.409c0.45,4.521,2.284,8.374,5.739,11.36
	c0.854,0.741,1.946,1.21,2.942,1.783c0.396,0.228,0.825,0.397,1.511,0.718c-1.57,0.668-2.738,0.265-3.842-0.255
	c-2.348-1.104-3.851-3.087-5.183-5.218c-0.537-0.855-1.026-1.738-1.698-2.884C342.727,190.057,341.113,193.662,337.061,194.906z
	 M339.705,214.854c0.645-1.114,1.384-2.187,1.906-3.355c0.537-1.198,0.857-2.489,1.272-3.741
	C342.938,210.623,342.341,213.204,339.705,214.854z M343.555,151.759c-0.783,0.347-1.564,0.69-2.344,1.034
	c-0.098-0.069-0.198-0.138-0.297-0.208c0.293-0.588,0.508-1.236,0.898-1.756c0.82-1.093,0.529-1.857-0.536-2.522
	c-0.51-0.321-0.988-0.693-1.48-1.042c0.021-0.138,0.041-0.277,0.062-0.416c0.835-0.044,1.676-0.163,2.505-0.113
	c0.906,0.057,1.294-0.321,1.429-1.168c0.188-1.176,0.432-2.34,0.948-3.562c0.2,0.939,0.405,1.876,0.598,2.818
	c0.384,1.89,0.38,1.88,2.275,1.89c0.679,0.004,1.36,0.073,2.039,0.11c0.044,0.142,0.089,0.285,0.133,0.427
	c-0.621,0.433-1.235,0.876-1.865,1.296c-0.568,0.379-0.932,0.679-0.412,1.476c0.516,0.786,0.744,1.759,1.253,3.038
	c-1.237-0.546-2.121-0.937-3.186-1.408c-0.223,1.354-0.602,2.75-0.635,4.155c-0.027,1.176,0.368,2.358,0.544,3.542
	c0.144,0.995,0.681,1.438,1.688,1.521c0.844,0.068,1.673,0.326,2.509,0.498c0.02,0.143,0.041,0.286,0.061,0.428
	c-0.587,0.35-1.146,0.766-1.77,1.032c-0.715,0.303-0.808,0.681-0.464,1.338c0.373,0.714,0.664,1.471,0.992,2.208
	c-0.096,0.06-0.192,0.118-0.289,0.178c-0.799-0.508-1.597-1.015-2.472-1.571c-0.271,1.201-0.525,2.34-0.778,3.477
	c-0.167,0.004-0.332,0.007-0.498,0.009c-0.253-1.046-0.504-2.098-0.799-3.32c-0.839,0.48-1.644,0.94-2.533,1.449
	c0.375-1.132,1.123-2.226,0.906-3.072c-0.194-0.751-1.46-1.228-2.595-2.084c1.167-0.236,2.056-0.321,2.871-0.615
	c0.538-0.194,1.268-0.608,1.393-1.066C344.413,157.154,344.484,154.521,343.555,151.759z M346.893,208.857
	c1.007,1.916,2.099,3.992,3.178,6.044C348.003,214.035,346.385,210.83,346.893,208.857z M367.774,164.645
	c-0.944,0.694-1.809,1.428-2.767,2.004c-0.793,0.477-1.669,0.859-2.557,1.122c-2.721,0.808-4.428,2.374-5.175,5.277
	c-0.392,1.532-1.725,2.835-2.675,4.212c-0.427,0.617-1.02,1.12-1.433,1.745c-1.026,1.541-0.738,3.094,0.719,4.218
	c0.344,0.264,0.707,0.502,1.103,0.783c-2.123,0.687-4.366-1.346-3.88-3.595c0.241-1.115,0.902-2.2,1.584-3.146
	c0.854-1.181,1.999-2.149,2.876-3.317c0.563-0.749,0.87-1.687,1.422-2.802h-2.257c1.19-1.55,2.308-2.914,3.946-3.521
	C361.627,166.534,364.651,165.656,367.774,164.645z M318.468,150.55c0.012-0.131,0.023-0.262,0.035-0.393
	c2.026-0.349,4.057-0.673,6.079-1.051c5.188-0.97,9.996-2.809,13.313-7.129c2.308-3.007,3.237-6.691,4.028-10.361
	c0.344-1.59,0.672-3.182,1.006-4.771c0.132,0.019,0.26,0.038,0.389,0.056c-0.331,2.912-0.66,5.826-0.992,8.738
	c0.19,0.028,0.377,0.056,0.566,0.083c1.098-2.038,1.167-4.375,1.658-6.973c0.078,0.337,0.151,0.651,0.22,0.948
	c0.203,0.888,0.373,1.617,0.541,2.344c0.412,0.879,0.824,1.757,1.235,2.637c0.108-0.04,0.212-0.076,0.321-0.112l-0.768-7.584
	c0.119-0.024,0.24-0.049,0.36-0.074c0.161,0.721,0.289,1.45,0.486,2.16c0.822,2.992,1.477,6.046,2.536,8.952
	c2.368,6.488,7.661,9.407,14,10.824c2.25,0.502,4.552,0.765,6.831,1.153c0.367,0.063,0.724,0.204,1.111,0.435
	c-7.737,0.593-13.151,3.945-14.621,12.111c-0.671-3.906-0.004-5.958,2.523-8.52c2.24-2.267,5.123-3.235,8.058-4.146
	c-2.126,0-4.274-0.195-6.375,0.044c-3.503,0.4-6.203,2.078-7.382,5.638c-0.28,0.84-0.675,1.703-1.749,1.418
	c-1.135-0.3-1.324-1.35-1.051-2.271c0.223-0.762,0.708-1.589,1.327-2.063c1.752-1.345,3.631-2.521,5.546-3.825
	c-7.976-1.858-10.647-8.227-12.545-15.224c-0.388,0.51-0.946,0.962-1.138,1.537c-2.031,6.039-4.771,11.439-11.496,13.464
	c-0.157,0.047-0.288,0.181-0.51,0.328c1.833,1.203,3.646,2.287,5.327,3.548c0.699,0.522,1.248,1.36,1.631,2.167
	c0.454,0.953,0.172,1.915-0.883,2.315c-1.005,0.377-1.551-0.344-1.952-1.158c-2.421-4.916-5.852-6.785-11.304-6.146
	c-0.924,0.107-1.844,0.244-2.78,0.429c3.044,0.565,5.933,1.648,8.137,3.753c2.208,2.113,3.687,4.766,2.818,8.221
	C331.039,154.557,325.703,151.352,318.468,150.55z M330.986,171.022c-0.239-0.83-1.005-1.681-1.76-2.156
	c-1.07-0.677-2.385-0.955-3.538-1.523c-1.153-0.572-2.24-1.292-3.354-1.947c0.06-0.119,0.117-0.237,0.176-0.356
	c0.109-0.021,0.232-0.089,0.325-0.06c1.798,0.594,3.555,1.386,5.396,1.759c2.844,0.575,4.757,2.346,6.789,4.491
	c-0.459,0-0.66,0-0.861,0c-0.463,0-0.927,0-1.39,0.002c0.094,0.537,0.025,1.195,0.312,1.592c1.167,1.611,2.508,3.094,3.651,4.72
	c0.598,0.848,1.109,1.854,1.314,2.86c0.452,2.205-1.465,4.087-3.587,3.646c0.096-0.109,0.159-0.242,0.264-0.292
	c2.182-1.061,2.748-3.368,0.481-5.754C333.284,175.984,331.768,173.76,330.986,171.022z M334.751,197.538
	c0.394,0.635,0.607,1.378,0.946,2.05c1.332,2.646,2.679,5.281,4.022,7.921c0.097,0.188,0.189,0.38,0.066,0.787
	c-0.496-0.49-1.101-0.909-1.467-1.483c-0.954-1.49-1.952-2.981-2.658-4.592c-0.968-2.206-1.941-4.347-4.034-5.821
	C333.067,195.915,334.063,196.436,334.751,197.538z M338.748,221.546c-1.438-1.373-3.299-1.742-5.126-2
	c-0.556-0.079-1.527,0.583-1.805,1.151c-0.771,1.583-0.521,3.202,0.539,4.647c0.511,0.695,1.041,1.376,1.637,2.165
	c-2.103,0.1-3.749-1.362-4.006-3.485c-0.215-1.768,0.092-3.441,1.27-4.893c1.146-1.411,2.216-2.885,3.349-4.31
	c0.25-0.317,0.617-0.543,1.139-0.625c-0.282,0.476-0.581,0.944-0.846,1.433c-0.67,1.24-0.379,2.261,0.899,2.851
	c0.677,0.314,1.458,0.396,2.154,0.674c0.856,0.34,1.752,0.671,2.489,1.202c0.95,0.685,1.679,0.559,2.238-0.35
	c0.854-1.385,1.607-2.832,2.361-4.171c0.684,1.262,1.385,2.656,2.185,3.992c0.545,0.912,1.13,1.267,2.227,0.383
	c0.888-0.711,2.142-1.063,3.29-1.346c2.613-0.646,3.042-1.384,1.981-3.824c-0.082-0.191-0.13-0.395-0.294-0.899
	c0.512,0.369,0.836,0.51,1.026,0.757c1.687,2.197,3.909,4.093,4.438,6.989c0.36,1.969,0.037,3.857-1.732,5.136
	c-0.525,0.38-1.223,0.526-1.84,0.78c-0.074-0.113-0.148-0.225-0.223-0.337c0.492-0.656,1.12-1.25,1.442-1.981
	c0.451-1.025,0.914-2.143,0.946-3.234c0.071-2.247-1.322-3.139-3.472-2.576c-2.636,0.692-4.775,2.042-6.278,4.712
	c-1.389-2.207-2.626-4.172-3.794-6.027c-1.055,1.842-2.213,3.861-3.316,5.793C340.612,223.238,339.658,222.415,338.748,221.546z
	 M335.079,245.937c7.062,4.023,13.899,4.255,20.514-1.125c-0.492,1.931-4.504,4.176-8.054,4.6
	C342.895,249.968,338.67,249.086,335.079,245.937z M353.304,267.14c-3.35-3.283-3.728-11.925-0.479-15.617
	c-0.043,0.663,0.01,1.083-0.107,1.452c-1.472,4.668-1.35,9.255,0.604,13.768C353.364,266.841,353.313,266.979,353.304,267.14z
	 M360.498,248.577c-0.449,1.988-1.466,3.846-2.228,5.765c-0.141-0.051-0.282-0.101-0.421-0.151c0.895-2.928,2.606-5.66,2.296-8.866
	c-5.019,7.479-8.078,15.267-3.635,24.234c-1.831-2.585-2.882-5.362-3.097-8.437c-0.302-4.365,0.916-8.335,3.026-12.112
	c1.169-2.091,2.184-4.268,3.208-6.433c0.257-0.54,0.278-1.192,0.464-2.045c-2.911,2.316-7.392,2.469-9.029,0.517
	c4.976,0.729,5.885,0.659,7.427-0.814c-4.016,0.757-7.181-1.043-10.484-2.307c-2.654-1.017-5.286-0.766-7.767,0.452
	c-2.682,1.313-5.392,2.298-8.434,2.021c-0.033-0.004-0.078,0.121-0.096,0.151c2.134,1.658,4.521,1.119,6.899,0.653
	c-2.782,1.899-5.887,1.626-8.423-0.615c-0.192-1.098,0.584-1.006,1.244-0.972c2.468,0.13,4.9,0.105,7.124-1.199
	c3.983-2.333,7.996-2.423,12.045-0.159c2.691,1.504,5.628,1.488,8.576,1.319c0.313-0.02,0.61-0.271,0.916-0.416
	c-0.143-0.295-0.207-0.711-0.441-0.867c-1.506-0.985-2.976-2.079-4.601-2.821c-2.329-1.064-4.166-2.559-5.272-4.86
	c-1.759-3.662,1.188-9,5.498-9.46c-0.613,0.435-0.987,0.705-1.362,0.971c-3.305,2.347-4.393,6.086-2.612,8.903
	c1.318,2.084,3.332,3.015,5.646,3.394c1.454,0.238,2.889,0.428,3.693,1.706c0.729-1.97,1.245-3.966,2.173-5.748
	c1.762-3.378,1.899-6.593,0.196-10.066c-1.104-2.251-1.952-4.691-2.498-7.137c-1.059-4.726,1.087-9.524,5.076-12.004
	c0.529-0.329,1.135-0.531,1.705-0.794c0.102,0.09,0.205,0.178,0.305,0.267c-7.285,5.289-7.1,11.926-3.726,19.128
	c0.009-0.805-0.096-1.625-0.228-2.44c-0.607-3.746-0.53-7.339,1.888-10.57c1.401-1.873,3.153-3.26,5.227-4.238
	c4.958-2.337,7.729-6.276,8.538-11.617c0.239-1.59,0.182-3.224,0.262-4.859c0.327,0.163,0.684,0.34,1.451,0.721l1.1,6.283
	l0.184,0.588c-0.256,0.975-0.482,1.962-0.755,2.933c-0.096,0.338-0.197,0.675-0.306,1.009c-1.405,4.245-1.208,8.466-0.083,12.735
	c1.244,4.721,2.572,9.434,3.514,14.22c1.237,6.283,1.289,12.665,0.075,18.956c-1.515,7.842-6.156,13.755-12.257,18.645
	c-0.057,0.046-0.203-0.02-0.23-0.022c2.238-2.762,4.593-5.425,6.666-8.293c2.746-3.797,4.269-7.958,3.874-9.803
	c-0.207,0.352-0.405,0.644-0.563,0.958c-2.338,4.644-5.348,8.791-9.017,12.488c-2.635,2.659-5.109,5.471-6.194,9.197
	c-0.035,0.12-0.122,0.222-0.185,0.334c0.135-2.365,1.181-4.285,2.536-6.049c2.22-2.889,4.521-5.717,6.714-8.629
	c2.712-3.598,5.038-7.435,6.662-11.658c2.354-6.12,1.588-12.32,0.41-18.53c-1.19-6.268-4.104-12.115-4.553-18.61
	c-0.938,1.828-1.721,3.699-2.604,5.523c-0.641,1.333-0.646,2.577-0.114,3.967c2.447,6.415,3.888,13.026,3.606,19.937
	c-0.288,7.109-2.768,13.429-6.957,19.122c-0.154,0.205-0.412,0.332-0.619,0.496c7.924-12.73,8.377-25.81,2.43-39.563
	c-2.305,3.108-4.641,5.844-5.705,9.395c-0.38,1.267-0.986,2.475-1.569,3.67c-0.023,0.05-0.05,0.097-0.082,0.143
	c-0.216,0.318-0.591,0.561-0.877,0.845c0.527-1.818,0.999-3.654,1.578-5.454c0.082-0.258,0.167-0.514,0.255-0.769
	c0.455-1.335,0.96-2.727,1.778-3.849c2.906-3.98,5.001-8.385,7.07-12.815c1.052-2.253,2.217-4.456,3.176-6.748
	c0.782-1.871,0.886-3.872,0.53-5.87c-0.501,1.211-0.836,2.452-1.279,3.654c-1.38,3.755-3.838,6.501-7.478,8.282
	c-4.514,2.208-7.599,5.658-7.325,10.938c0.22,4.235,1.071,8.437,1.644,12.654c-0.094,0.288-0.123,0.622-0.292,0.855
	c-2.321,3.182-3.418,6.724-3.703,10.666C361.838,241.948,361.238,245.294,360.498,248.577z M373.214,207.724
	c-2.106,2.629-4.086,5.102-6.025,7.525C366.168,213.456,368.793,209.501,373.214,207.724z M376.516,282.222
	c-2.855,4.238-5.367,8.611-7.493,13.119c-0.015-0.091-0.023-0.186-0.038-0.279c-0.17-1.198-0.29-2.406-0.399-3.649
	c0.446-0.869,0.904-1.732,1.372-2.59c0.021,0.009,0.037,0.019,0.057,0.029c0-0.052,0.003-0.096,0.004-0.142
	c2.373-4.347,5.015-8.567,7.788-12.732c1.027-1.54,1.948-3.111,2.772-4.706c1.229-0.829,2.362-1.721,3.415-2.666
	C382.025,273.367,379.455,277.856,376.516,282.222z M395.783,226.488c-0.483,0.033-0.948,0.307-1.428,0.693
	c-0.43-2.16-0.947-4.309-1.515-6.444c1.251-0.746,2.482-1.478,3.77-2.249c0.593,1.645,1.872,3.358,4.968,3.223
	c-3.271,1.713-2.545,4.084-1.222,6.852C398.414,227.612,397.054,226.399,395.783,226.488z M405.586,296.195
	c-0.149,1.084-1.279,2.034-1.97,3.043c-0.411,0.002-0.82,0.004-1.23,0.006c-0.645-1.095-1.789-2.195-1.772-3.279
	c0.011-0.832,1.375-2.147,2.33-2.354C404.634,293.245,405.814,294.573,405.586,296.195z M408.45,365.113
	c-2.763,4.939-5.662,9.802-8.579,14.654c-0.347,0.58-1.065,0.941-1.611,1.4c-0.413-0.572-0.827-1.142-1.086-1.504
	c0.108-0.725,0.07-1.113,0.225-1.395c2.785-5.118,5.531-10.264,8.484-15.283c0.368-0.629,1.864-0.596,2.835-0.867
	C408.646,363.127,408.896,364.314,408.45,365.113z M414.644,241.321c-0.152,0.624-0.962,1.088-1.488,1.621
	c-0.421-0.569-1.139-1.119-1.179-1.714c-0.037-0.528,0.68-1.106,1.388-2.131C414.025,240.179,414.758,240.853,414.644,241.321z
	 M413.583,362.325c-0.769-0.985-1.613-1.599-1.605-2.202c0.006-0.547,0.941-1.084,1.464-1.625c0.534,0.574,1.34,1.078,1.504,1.744
	C415.055,360.686,414.253,361.355,413.583,362.325z M418.417,352.018c-0.812-2.871,0.917-6.454-3.81-6.656
	c1.941-1.443,4.355-1.875,3.195-4.855c2.566,2.271,4.992,2.773,7.611,0.229c-0.887,3.121-2.253,5.938,0.185,9.115
	C422.326,347.461,420.348,348.993,418.417,352.018z M427.651,265.527c-2.705-3.024-5.237-4.83-8.287-0.527
	c0.061-2.913,2.219-6.212-2.707-7.194c3.279-0.7,4.945-2.127,3.739-5.668c2.501,2.901,4.829,5.111,8.545,1.624
	c-1.39,2.947-1.372,5.048,2.25,6.285C427.532,260.274,426.367,261.946,427.651,265.527z M566.003,316.793
	c-2.529,1.848-2.511,4.016-1.513,6.813c-2.687-2.767-4.929-2.206-7.105,0.557c0.131-2.846,1.59-5.741-1.907-6.896
	c1.997-1.198,3.802-2.279,5.608-3.36C561.492,315.959,563.173,317.061,566.003,316.793z M561.531,349.57
	c-0.012,0.083-0.039,0.164-0.077,0.246c-0.273,0.563-1.122,1.041-1.666,1.564l0,0l0,0c-0.517-0.556-1.323-1.07-1.581-1.66
	c-0.037-0.085-0.063-0.172-0.074-0.258c-0.083-0.592,0.854-1.322,1.725-2.521C560.709,348.194,561.621,348.955,561.531,349.57z
	 M556.17,275.892c1.487,0.55,2.961,1.096,4.26,1.575c-0.143,1.523-0.297,3.186-0.434,4.613c-1.64,0.105-3.607,0.232-5.361,0.344
	c-0.297-1.374-0.67-3.094-1.09-5.044C554.281,276.96,555.295,276.388,556.17,275.892z M556.088,360.734
	c2.1,0.098,4.121,2.07,4.052,3.958c-0.067,1.819-2.132,3.609-4.106,3.56c-2.201-0.059-4.176-2.076-4.09-4.176
	C552.023,362.158,553.915,360.633,556.088,360.734z M549.986,303.768c0.56,0.489,1.122,0.981,2.002,1.754
	c-0.836,0.715-1.469,1.572-1.799,1.467c-0.652-0.204-1.586-0.933-1.59-1.455C548.591,304.949,549.484,304.355,549.986,303.768z
	 M546.877,322.484c-0.614-0.164-1.358-0.897-1.469-1.5c-0.087-0.435,0.813-1.514,1.19-1.476c0.64,0.063,1.214,0.782,2.181,1.495
	C547.891,321.732,547.256,322.587,546.877,322.484z M548.689,351.3c-1.379,1.119-2.216,2.296-2.875,2.202
	c-0.795-0.111-1.889-1.23-2.009-2.038c-0.088-0.616,1.073-1.909,1.801-2.011C546.331,349.348,547.216,350.355,548.689,351.3z
	 M542.89,300.219c0.284-0.702,0.979-1.429,1.681-1.695c0.367-0.141,1.094,0.674,2.111,1.365c-1.08,0.828-1.698,1.566-2.455,1.754
	C543.891,301.729,542.777,300.502,542.89,300.219z M538.705,298.314c-0.436,1.931-1.078,3.831-1.324,5.782
	c-0.454,3.606-0.688,7.239-1.001,10.744c-0.229-0.612-0.919-1.595-0.893-2.559c0.086-3.247,0.062-6.571,0.749-9.717
	c1.377-6.295,2.883-12.479-0.779-18.59C539.443,288.118,539.896,293.044,538.705,298.314z M527.713,270.386
	c1.119,0.788,2.574,1.813,3.8,2.675c-0.376,1.627-0.817,3.524-1.282,5.539c-1.373-0.764-3.261-1.357-4.535,0.51
	c-0.864-1.916-1.717-3.804-2.496-5.526C524.633,272.566,526.215,271.449,527.713,270.386z M527.361,290.093
	c-0.682-1.119-1.272-1.68-1.295-2.262c-0.018-0.439,0.865-1.354,1.054-1.282c0.618,0.239,1.415,0.75,1.55,1.3
	C528.781,288.31,528.055,288.972,527.361,290.093z M507.879,263.33c0.645,0.055,1.232,0.809,2.158,1.497
	c-0.889,0.728-1.566,1.625-1.938,1.514c-0.649-0.192-1.369-0.944-1.547-1.6C506.457,264.382,507.443,263.296,507.879,263.33z
	 M497.072,259.713c-5.115,5.514-3.449,8.947,0.875,13.009c2.287,2.147,5.053,3.783,7.732,5.749
	c-5.359-0.764-11.939-6.655-13.102-11.592C491.76,263.405,493.687,260.131,497.072,259.713z M466.644,303.131
	c2.42,0.012,3.425-0.766,3.45-3.279c0.033-3.074,0.455-6.145,0.708-9.215l0.729,0.036c0.229,3.163,0.542,6.324,0.659,9.492
	c0.082,2.248,1.131,2.936,3.274,2.943c2.983,0.01,5.97,0.33,8.953,0.516c0.003,0.24,0.005,0.479,0.009,0.719
	c-2.878,0.219-5.749,0.543-8.633,0.623c-2.162,0.061-3.579,0.4-3.612,3.111c-0.048,3.955-0.495,7.904-1.294,11.912
	c-0.097-0.586-0.247-1.168-0.282-1.758c-0.22-3.534-0.489-7.068-0.587-10.609c-0.053-1.902-0.91-2.568-2.71-2.641
	c-3.778-0.158-7.548-0.441-11.323-0.676c-0.003-0.23-0.008-0.461-0.014-0.693C459.529,303.436,463.086,303.109,466.644,303.131z
	 M438.238,356.856c-0.367-0.021-0.723-0.261-1.046-0.961c0.786-0.065,1.585-0.259,2.356-0.184
	c25.674,2.499,48.984-20.386,55.826-37.678c1.547-3.911,2.691-8.006,3.755-12.083c1.317-5.051-0.238-9.365-3.974-12.947
	c-0.584-0.559-1.097-1.191-1.963-2.141c4.647,1.24,7.799,5.957,7.733,11.445c-0.102,8.597-2.893,16.496-7.257,23.76
	c-8.485,14.118-20.262,24.366-36.156,29.428C451.224,357.499,444.721,357.207,438.238,356.856z M446.621,370.279
	c1.483-0.307,2.967-0.635,4.455-0.922c1.61-0.307,3.23-0.56,4.842-0.867c16.886-3.217,30.848-11.072,40.207-25.883
	c5.254-8.314,7.81-17.643,9.159-27.318c0.331-2.367,0.532-4.75,0.792-7.127c0.945,14.735-2.098,28.449-11.145,40.329
	C482.841,364.365,465.711,369.623,446.621,370.279z M505.637,342.43c-7.001,15.195-19.255,24.023-35.116,28.293
	c-0.125,0.034-0.297-0.112-0.815-0.328c1.227-0.551,2.196-1.012,3.18-1.428c12.781-5.404,23.396-13.309,29.971-25.903
	c3.899-7.474,5.726-15.541,6.535-23.831c0.458-4.715,0.748-9.512,0.408-14.223c-0.541-7.426-5.145-12.271-11.163-16.227
	c-4.443-2.923-8.501-6.438-12.691-9.743c-0.642-0.507-1.072-1.287-1.601-1.941l0.249-0.225c6.433,4.289,12.979,8.417,19.261,12.918
	c4.984,3.568,7.747,8.801,7.861,14.864C511.957,317.575,511.154,330.441,505.637,342.43z M501.015,267.212
	c6.127,4.303,11.964,8.403,17.975,12.625C510.638,278.611,500.332,271.69,501.015,267.212z M566.143,381.615
	c-1.449,0.625-3.881,0.859-4.957,0.033c-1.727-1.316-2.947-3.519-3.877-5.575c-0.69-1.526-1.432-2.463-2.98-3.198
	c-6.55-3.116-10.979-8.594-15.081-14.301c-4.211-5.866-7.492-12.307-9.383-19.264c-4.072-14.97-7.818-30.029-11.694-45.052
	c0.42-0.111,0.845-0.222,1.268-0.335c0.775,2.716,1.527,5.436,2.324,8.146c4.287,14.568,8.131,29.284,13.038,43.64
	c3.134,9.162,9.165,16.82,16.885,22.891c1.396,1.096,3.073,1.961,4.755,2.527c1.835,0.613,2.696,1.563,2.726,3.508
	c0.038,2.48,1.341,4.271,3.632,5.16c0.557,0.215,1.39-0.282,2.094-0.453c-0.416-0.506-0.846-1.01-1.257-1.529
	c-0.514-0.649-1.017-1.313-1.524-1.967c0.899-0.333,2.1-1.197,2.631-0.893c1.238,0.708,2.723,1.842,3.018,3.067
	C568.017,379.084,567.088,381.211,566.143,381.615z M578.621,403.337c-0.576-0.069-1.037-1.041-1.546-1.614
	c0.573-0.495,1.122-1.345,1.726-1.385c0.564-0.039,1.186,0.783,2.186,1.526C579.893,402.59,579.203,403.404,578.621,403.337z
	 M588.381,415.361c-0.582-1.068-0.879-1.5-1.061-1.975c-2.188-5.711-4.326-11.441-6.551-17.14c-0.602-1.538-1.288-3.094-3.604-2.145
	c-0.4,0.163-1.695-0.813-1.923-1.483c-0.625-1.84-1.476-3.028-3.49-3.7c-2.3-0.769-2.97-4.954-1.214-6.627
	c0.529-0.503,1.516-0.519,2.291-0.759c0.099,0.206,0.195,0.411,0.288,0.617c-0.485,0.656-1.282,1.272-1.386,1.983
	c-0.154,1.124,0.16,2.31,0.275,3.474c0.854-0.568,1.739-1.1,2.545-1.732c0.271-0.217,0.33-0.699,0.518-1.125
	c0.943,1.913,1.805,3.656,2.664,5.4c-0.764,0.043-2.207-0.883-1.705,1.023c0.156,0.58,0.953,0.988,1.456,1.476
	c0.173-0.746,0.344-1.495,0.517-2.241c0.761,0.89,1.678,1.688,2.256,2.682c3.743,6.425,7.204,12.977,8.117,20.525
	C588.413,413.939,588.381,414.274,588.381,415.361z M632.481,398.748c-0.378,2.143-2.246,3.157-4.419,3.337
	c-4.236,0.351-8.268-0.385-12.063-2.329c-0.907-0.465-1.818-0.921-3.258-1.648c0,1.394-0.37,2.601,0.068,3.271
	c1.333,2.035,0.182,3.53-0.659,5.176c-5.694,11.12-12.685,21.416-20.06,31.468c-0.139,0.19-0.391,0.296-1.378,1.007
	c0.448-3.15,0.487-5.711,1.205-8.064c1.513-4.953,3.528-9.756,5.042-14.71c0.902-2.944,1.367-6.04,1.801-9.1
	c0.445-3.146-0.778-5.866-3.135-7.88c-6.479-5.535-10.233-12.621-12.783-20.643c-1.291-4.07-3.236-8.08-5.602-11.637
	c-6.643-9.977-7.994-20.522-4.848-31.951c2.367-8.604,2.197-17.477,1.911-26.301c-0.134-4.191-1.952-7.838-4.735-10.981
	c-1.131-1.279-2.225-2.595-2.965-4.414c0.65,0.374,1.373,0.667,1.95,1.131c6.451,5.194,8.599,12.277,7.996,20.121
	c-0.663,8.677-1.83,17.321-3.047,25.942c-1.136,8.061-0.444,15.676,4.461,23.057c0-1.405,0.074-2.447-0.014-3.475
	c-0.924-10.629-0.571-21.165,0.923-31.775c2.174-15.43-0.536-30.134-8.631-43.654c-0.259-0.433-0.457-0.906-1.061-2.121
	c4.928,2.555,9.533,4.333,13.422,7.116c4.797,3.435,5.58,9.165,6.113,14.627c0.832,8.493,0.018,17.163,2.624,25.46
	c1.138,3.617,2.188,7.332,3.911,10.678c6.147,11.959,9.956,24.65,12.526,37.768c0.142,0.725,0.097,1.58-0.155,2.27
	c-1.984,5.492-0.351,10.215,3.619,13.938c2.486,2.33,5.77,3.809,8.697,5.672l0.912-0.949c-0.678-1.079-1.188-2.329-2.07-3.2
	c-1.781-1.753-3.753-3.316-5.672-4.925c-3.084-2.59-4.042-5.392-2.91-9.029c0.419,0.375,0.845,0.639,1.117,1.017
	c2.201,3.058,5.412,4.216,8.936,4.652c6.139,0.765,6.141,0.713,6.395,6.79c0.019,0.404,0.113,0.803,0.228,1.586
	c1.059-0.789,1.848-1.412,2.673-1.983c0.209-0.142,0.414-0.272,0.605-0.368c0.58-0.273,1.032-0.189,1.014,1.02
	c-1.15,1.15-2.386,2.229-3.408,3.482c-0.434,0.532-0.422,1.428-0.614,2.159c0.821-0.206,2.116-0.165,2.37-0.663
	c0.785-1.531,1.178-3.27,1.723-4.929C631.695,396.097,632.701,397.531,632.481,398.748z M280.561,488.371
	c-3.967,0.111-7.124,0.137-10.143-2.306c-23.148-18.733-43.083-40.282-58.249-66.026c-15.751-26.735-26.446-55.34-30.961-86.101
	c-1.291-8.794-1.944-17.692-2.572-26.565c-0.192-2.721-0.991-4.182-3.678-4.545c-0.364-0.049-0.69-0.377-1.319-0.746
	c3.35-1.502,6.431-2.12,9.801-1.804c4.305,0.405,4.352,0.267,4.341-3.948c-0.065-22.121,3.097-43.761,9.842-64.834
	c8.7-27.177,21.462-52.12,38.756-74.506c0.424,1.663,1.019,3.261,1.67,4.84c-13.024,17.19-23.153,36.15-31.265,56.311
	c-7.105,17.661-11.726,35.979-13.614,54.923c-0.831,8.334-1.048,16.731-1.506,25.103c-0.054,0.989,0.131,1.992,0.242,3.474
	c4.143-1.996,5.539-5.846,8.297-8.92v19.793c-2.977-2.736-3.979-7.133-8.562-9.035c0.393,23.846,4.721,46.367,12.523,68.315
	c7.788,21.913,18.313,42.339,32.099,61.093c13.827,18.811,31.03,34.262,49.031,49.605c-1.453-5.859-3.472-11.024-7.05-15.465
	c2.078,2.455,4.154,4.914,6.231,7.371c0.162-0.07,0.322-0.138,0.482-0.209c-1.482-3.374-2.962-6.749-4.446-10.124
	c0.159-0.114,0.318-0.226,0.478-0.34c1.093,1.317,2.187,2.636,3.281,3.954c0.211-0.123,0.421-0.244,0.635-0.367
	c-1.677-3.85-3.351-7.705-5.028-11.556c0.162-0.074,0.322-0.148,0.483-0.22c2.446,4.812,4.893,9.625,7.339,14.438
	c0.119-0.01,0.238-0.02,0.357-0.031c-1.133-7.158-2.267-14.316-3.4-21.479c0.22-0.043,0.439-0.088,0.658-0.131
	c1.453,7.614,2.905,15.23,4.241,22.23c1.2-5.826,2.571-12.469,3.941-19.113l0.844,0.133c-1.703,7.318-3.196,14.654-1.58,22.396
	c0.771-2.604,1.542-5.206,2.52-8.509c0.18,1.693,0.287,2.695,0.447,4.2c0.862-1.556,1.469-2.653,2.076-3.753l3.591-7.992
	c0.124,0.055,0.247,0.111,0.37,0.167c-1.226,2.715-2.451,5.431-3.678,8.147c0,1.254,0.192,2.156,2.193-0.07
	c-1.46,3.023-2.438,5.057-3.417,7.086c0.185,0.156,0.368,0.308,0.552,0.463c1.243-0.889,2.485-1.777,3.726-2.665
	c0.153,0.13,0.302,0.259,0.455,0.389c-0.434,0.651-0.776,1.388-1.311,1.94c-4.269,4.41-5.846,10.078-7.293,15.77
	c-0.373,1.467-1.078,1.721-2.163,1.313c-1.516-0.57-3.157-1.114-4.377-2.119c-13.364-10.988-26.715-21.971-38.451-34.8
	c-22.979-25.12-39.24-54.026-49.81-86.292c-4.947-15.102-8.107-30.545-9.752-46.316c-0.467-4.465-0.563-8.973-0.963-13.449
	c-0.301-3.369-0.687-3.569-4.759-3.1c0.981,36.548,10.404,70.808,27.348,103.151C227.036,439.939,250.95,466.253,280.561,488.371z
	 M345.827,76.133c-3.155,1.039-6.282,2.304-9.399,3.581c-2.733,1.019-5.438,2.088-8.112,3.204c-0.073,0.026-0.143,0.054-0.216,0.081
	c0.003,0.003,0.003,0.005,0.004,0.007c-19.235,8.048-36.984,18.588-53.098,31.841c0.771,1.227,1.71,2.31,2.81,3.248
	c15.207-12.714,32.462-22.366,50.645-30.451c2.934-1.306,5.89-2.533,8.87-3.691c6.583-2.281,13.159-4.588,19.848-6.501
	c11.294-3.226,22.758-5.329,34.353-6.48c0.072,0.029,0.14,0.063,0.212,0.094c9.43,4.066,17.163,10.316,23.625,18.234
	c4.3,5.266,5.806,11.226,4.407,17.848c-0.406,1.921-1.291,3.742-1.959,5.609c-0.006-0.001,0.084,0.055,0.155,0.036
	c0.168-0.044,0.338-0.108,0.492-0.19c2.891-1.554,5.455-3.52,7.457-6.136c1.785-2.336,2.455-4.982,1.968-7.91
	c-0.624-3.761-2.345-6.983-4.876-9.766c-3.917-4.303-8.27-7.871-13.005-10.79c5.482,0,10.753,0,16.25,0
	c-1.835-2.94-5.873-3.864-6.214-7.977c1.178-0.065,2.105-0.181,3.028-0.156c5.79,0.146,11.586,0.239,17.37,0.507
	c19.795,0.917,38.848,5.396,57.17,12.758c51.289,20.604,90.434,55.269,117.527,103.295c13.129,23.272,22.287,48.199,25.871,74.82
	c1.577,11.704,1.917,23.577,2.696,35.381c0.086,1.32-0.636,2.695-0.982,4.045c-1.095-0.846-2.379-1.529-3.238-2.566
	c-1.64-1.974-3.035-4.148-4.835-6.671c0,7.191,0,13.851,0,21.05c1.898-2.388,3.412-4.463,5.119-6.359
	c0.741-0.824,1.885-1.283,2.848-1.906c0.286,1.084,0.887,2.191,0.811,3.249c-0.469,6.458-0.987,12.915-1.684,19.353
	c-1.946,17.993-6.567,35.287-13.854,51.863c-0.348,0.794-0.5,1.676-0.772,2.613c4.149,0.061,4.757-0.148,5.903-3.371
	c2.378-6.671,4.794-13.342,6.766-20.136c4.768-16.424,7.034-33.269,7.827-50.324c0.084-1.858,0.216-3.364,2.786-3.368
	c2.734,0,2.355,1.787,2.218,3.342c-0.736,8.254-1.16,16.566-2.465,24.732c-1.497,9.36-3.827,18.589-5.721,27.889
	c-0.162,0.797,0.063,2.348,0.419,2.445c0.875,0.244,2.046,0.069,2.865-0.371c0.525-0.283,0.736-1.308,0.93-2.045
	c4.25-16.262,7.079-32.748,7.812-49.564c0.282-6.49,0.24-6.494,6.331-8.247c0.064-0.018,0.106-0.121,0.28-0.34
	c-3.688-1.095-7.264-2.103-11.138-1.431c-3.48,0.606-4.072-0.016-4.223-3.559c-0.345-8.112-0.521-16.24-1.158-24.332
	c-1.281-16.255-4.744-32.083-9.876-47.566c-14.386-43.415-39.366-79.597-74.384-108.889c-20.505-17.152-43.564-29.931-68.584-39.213
	c-17.043-6.323-34.658-10.006-52.826-10.901c-6.041-0.296-12.095-0.409-18.145-0.432c-2.041-0.007-2.509-0.7-2.718-2.67
	c-0.414-3.897-1.307-7.744-2.001-11.61c-0.242,0.023-0.482,0.046-0.723,0.07c-0.371,3.76-0.886,7.51-1.057,11.278
	c-0.1,2.229-0.856,2.882-3.093,2.942c-7.69,0.211-15.409,0.333-23.051,1.125C375.028,68.317,360.23,71.386,345.827,76.133z
	 M416.713,70.207c-1.76,3.546-5.102,4.832-7.486,7.32c-4.872-2.902-10.145-5.124-15.777-6.734
	c6.484-0.585,13.006-0.884,19.562-0.912C414.069,69.878,415.127,70.061,416.713,70.207z M400.22,483.137
	c-6.015,2.162-11.914,4.647-17.948,6.754c-1.465,0.511-3.44,0.44-4.911-0.102c-5.754-2.109-11.37-4.603-17.113-6.752
	c-1.224-0.455-2.903-0.445-4.134,0.004c-4.382,1.596-8.583,3.701-13.006,5.145c-2.087,0.682-4.612,0.738-6.782,0.297
	c-4.56-0.918-9.004-2.398-13.521-3.549c-1.412-0.361-1.859-0.965-1.425-2.383c0.426-1.39,0.535-2.887,1.041-4.238
	c0.293-0.781,0.961-1.662,1.692-2.004c13.769-6.431,27.603-12.718,41.338-19.217c2.704-1.283,5.011-1.701,7.821-0.408
	c8.071,3.719,16.21,7.291,24.378,10.79c3.501,1.5,7.139,2.683,10.715,4.006c0.124-0.307,0.248-0.61,0.371-0.918
	c-3.924-1.808-7.847-3.612-11.769-5.417c3.967-1.208,7.531-1.746,11.32,0.689c3.825,2.459,7.325,5.055,10.327,8.494
	c3.802,4.362,7.997,8.377,11.866,12.682c1.262,1.401,2.033,3.243,3.027,4.887c-0.189,0.217-0.381,0.437-0.57,0.656
	c-0.863-0.216-1.747-0.369-2.588-0.656c-8.666-2.946-17.308-5.966-26.002-8.816C403.099,482.673,401.458,482.692,400.22,483.137z
	 M422.758,58.074c-0.061-0.54,1.135-1.669,1.866-1.763c1.957-0.25,3.97-0.085,5.958-0.085c34.623,0.298,66.947,9.372,97.177,25.942
	c59.285,32.499,99.253,80.93,119.257,145.633c4.762,15.402,7.752,31.164,8.876,47.252c0.481,6.892,0.718,13.801,1.021,20.705
	c0.059,1.345,0.313,3.03-1.779,3.08c-2.23,0.052-2.007-1.702-2.031-3.159c-0.514-31.725-6.625-62.269-19.063-91.529
	c-13.152-30.95-32.101-57.807-56.554-80.833c-30.285-28.519-65.429-48.164-105.982-57.82c-14.608-3.477-29.52-4.534-44.491-4.908
	c-0.863-0.02-1.915,0.251-2.547-0.146C423.672,59.945,422.852,58.94,422.758,58.074z M457.542,462.919
	c4.544,1.769,9.079,3.489,11.776,7.96c0.089,0.146,0.206,0.307,0.348,0.383c6.548,3.502,10.221,9.924,15.25,14.971
	c0.364,0.366,0.768,0.694,1.177,1.009c0.094,0.072,0.292,0.012,1.196,0.012c-3.009-4.017-5.752-7.677-8.912-11.896
	c6.863,2.593,13.338,4.689,19.471,7.528c2.427,1.122,4.068,3.915,6.107,5.903c1.174,1.145,2.358,2.305,3.68,3.262
	c0.598,0.435,1.543,0.392,2.33,0.565c0.093-0.228,0.186-0.459,0.28-0.685c-1.999-1.83-4.001-3.66-6.521-5.96
	c5.417,2.745,18.853,13.45,20.667,18.763c-3.157,0.453-6.267,1.021-9.4,1.317c-3.954,0.373-7.935,0.508-11.9,0.784
	c-2.043,0.143-3.654-0.439-4.973-2.132c-2.063-2.65-4.729-4.444-8-5.481c-1.305-0.412-2.48-1.521-3.488-2.539
	c-2.306-2.334-4.596-4.706-6.669-7.246c-3.123-3.826-7.173-5.637-11.896-6.736c-3.82-0.892-7.429-2.675-11.163-3.967
	c-2.837-0.979-5.734-1.791-8.594-2.709c-2.457-0.791-5.172-1.188-7.294-2.523c-6.432-4.045-13.539-5.45-20.884-6.365
	c-2.751-0.344-5.442-1.176-8.121-2.406c6.944-3.02,13.89-6.044,20.839-9.055c0.313-0.135,0.693-0.295,0.998-0.234
	c3.694,0.73,7.48,1.183,11.038,2.34C449.201,459.188,453.297,461.268,457.542,462.919z M489.443,437.219
	c-2.519,6.427-7.891,9.852-15.018,10.112c-0.767,0.028-1.948,0.38-2.2,0.925c-1.358,2.934-2.481,5.975-3.717,9.053
	c2.979,1.394,5.878,2.685,9.386,1.663c1.765-0.519,3.782-0.56,5.631-0.339c3.447,0.409,5.67-0.989,6.208-4.459
	c2.162-13.967,8.816-25.992,16.911-37.158c3.756-5.182,8.979-9.313,13.632-13.82c2.354-2.28,3.813-4.987,4.097-8.165
	c0.256-2.918,0.288-5.9-0.004-8.81c-0.469-4.635-1.262-9.24-1.971-13.846c-0.699-4.512-3.1-6.303-7.353-5.553
	c-1.467,0.254-2.187,0.75-1.244,2.445c0.536,0.966,0.835,2.389,0.56,3.43c-1.506,5.701,1.754,10.54,2.233,15.861
	c0.324-0.018,0.646-0.039,0.969-0.056c0-5.808,0-11.611,0-17.416c0.354-0.026,0.702-0.05,1.053-0.071
	c0.997,6.729,1.997,13.46,3.038,20.491c-0.427-0.813-0.754-1.397-1.046-1.999c-0.284-0.587-0.534-1.191-0.587-1.313
	c-7.254,11.751-18.241,11.262-30.23,8.803c0.232,1.03,0.281,1.626,0.498,2.15c2.149,5.248,2.142,10.584,0.875,16.029
	c-2.037,8.779-6.269,16.422-11.887,23.368c-1.643,2.026-3.322,4.022-5.307,6.424c3.898,0.07,6.71-0.987,9.176-3.08
	c3.402-2.888,5.755-6.575,7.008-10.733c2.17-7.184,3.89-14.501,5.799-21.76c0.24-0.914,0.483-1.828,0.726-2.742
	c0.216,0.057,0.43,0.112,0.647,0.168c-0.521,3.035-0.81,6.135-1.607,9.096C493.801,423.072,492.139,430.354,489.443,437.219z
	 M512.788,402.785c-6.757,5.859-11.963,12.646-13.509,21.75C497.342,418.025,504.516,406.43,512.788,402.785z M439.238,526.422
	c-5.599,0.427-11.209,0.73-16.817,0.913c-1.957,0.065-2.681,0.624-2.821,2.662c-0.314,4.532-0.943,9.04-1.442,13.56
	c-0.34-0.008-0.679-0.018-1.017-0.025c-0.275-4.349-0.719-8.698-0.752-13.049c-0.018-2.379-0.732-3.078-3.096-3.112
	c-17.938-0.245-35.689-2.122-53.088-6.679c-20.38-5.338-39.5-13.645-57.503-24.559c-0.797-0.482-1.557-1.025-2.478-1.635
	c3.805-2.006,6.744-0.984,9.964,0.887c20.35,11.828,42.063,20.244,65.284,24.201c10.096,1.723,20.428,2.078,30.655,3.015
	c2.324,0.214,4.662,0.329,6.994,0.358c1.039,0.013,2.081-0.305,3.122-0.473c0.117-0.297,0.235-0.598,0.352-0.896
	c-2.626-2.245-5.251-4.489-8.308-7.104c6.547,0,12.586,0,18.837,0c-2.261,2.863-6.324,3.901-7.894,7.927
	c1.375,0.166,2.444,0.409,3.509,0.402c16.398-0.109,32.586-2.063,48.49-6.012c7.115-1.764,14.164-3.891,21.084-6.301
	c5.084-1.771,10.164-1.463,15.456-0.92c-5.136,1.932-10.228,3.984-15.409,5.777C475.129,521.313,457.423,525.041,439.238,526.422z
	 M573.896,201.228c0.008-11.455-8.081-19.841-19.131-19.841c-10.728,0-19.003,8.483-18.993,19.474
	c0.01,11.414,7.973,19.682,18.942,19.669C566.087,220.521,573.885,212.67,573.896,201.228z M565.258,210.045
	c-0.178,0.205-0.356,0.408-0.536,0.612c-2.301-1.482-4.605-2.967-7.233-4.658c-0.547,2.569-0.979,4.601-1.408,6.632
	c-0.219,0-0.434,0-0.652,0c-0.689-2.244-1.385-4.487-2.217-7.191c-2.775,1.894-5.254,3.585-7.734,5.275
	c-0.188-0.188-0.373-0.378-0.557-0.569c1.39-1.986,2.803-3.959,4.168-5.962c1.441-2.12,1.174-2.669-1.401-3.087
	c-1.59-0.258-3.176-0.536-4.763-0.803c-0.034-0.288-0.064-0.577-0.097-0.862c2.156-0.36,4.311-0.719,6.71-1.121
	c-1.326-2.043-2.533-3.902-3.742-5.764c0.203-0.195,0.406-0.39,0.611-0.585c1.446,0.952,2.935,1.85,4.336,2.867
	c1.79,1.302,2.766,0.976,3.159-1.258c0.234-1.313,0.702-2.586,1.659-3.876c0.497,1.958,0.992,3.917,1.592,6.295
	c2.303-1.504,4.141-2.706,5.982-3.907c0.201,0.144,0.408,0.29,0.609,0.433c-1.073,1.775-2.146,3.55-3.441,5.695
	c2.387,0.44,4.494,0.825,6.601,1.214c0.019,0.241,0.038,0.482,0.058,0.722c-2.392,0.48-4.785,0.963-7.803,1.57
	C561.407,204.791,563.334,207.418,565.258,210.045z M178.469,296.473c0.015-3.029-0.114-6.065,0.059-9.082
	c2.981-52.294,21.281-98.736,53.608-139.765c0.716-0.909,1.453-1.8,2.183-2.696c-0.024,0.964-0.072,1.925-0.164,2.888
	c-0.125,1.318,0.157,2.622,0.303,3.931c-9.541,11.886-17.73,24.776-24.801,38.492c-9.779,18.972-17.525,38.707-21.944,59.648
	c-3.093,14.654-4.818,29.482-5.301,44.451c-0.023,0.693-0.053,1.385-0.048,2.076c0.014,1.326-0.18,2.443-1.901,2.45
	C178.788,298.874,178.461,297.835,178.469,296.473z M477.849,499.65c-6.428-0.688-12.878-2.045-19.284-0.246
	c-2.563,0.72-4.404,0.447-6.623-1.146c-2.411-1.73-5.364-2.741-8.139-3.918c-5.106-2.165-9.313-5.203-12.73-9.789
	c-3.379-4.535-7.723-8.356-11.689-12.446c-0.655-0.673-1.555-1.109-2.341-1.655c0.252-0.482,0.503-0.963,0.757-1.445
	c4.7,1.266,9.668,1.945,14.032,3.945c5.871,2.688,11.951,4.344,18.099,6.078c6.011,1.698,11.885,3.961,15.809,9.469
	c1.603,2.246,3.764,4.09,5.673,6.114c0.241-0.214,0.479-0.429,0.722-0.641c-2.522-3.04-5.047-6.08-7.791-9.39
	c10.373,0.724,14.625,8.828,20.518,14.773c-0.086,0.271-0.17,0.543-0.256,0.813C482.35,500,480.091,499.889,477.849,499.65z
	 M576.702,474.549c-32.724,31.99-72.073,50.77-116.842,58.523c-11.28,1.954-22.813,2.469-34.233,3.605
	c-1.39,0.137-2.874,0.206-3.054-1.845c-0.175-1.981,0.991-2.593,2.663-2.702c6.117-0.403,12.25-0.642,18.353-1.215
	c17.261-1.628,34.126-5.186,50.483-10.957c21.893-7.722,42.702-17.652,60.83-32.335c8.838-7.163,16.835-15.365,25.216-23.097
	c0.537-0.494,1.065-0.996,1.918-1.793C581.396,467.553,580.064,471.262,576.702,474.549z M244.057,138.713
	c-0.194-0.864-0.501-1.67-0.734-2.478c0.677-1.996,1.706-3.826,3.247-5.592c2.357-2.699,4.763-5.312,7.211-7.858
	c0.447,1.659,1.306,3.209,2.229,4.665c0.015,0.02,0.029,0.034,0.044,0.053c-3.899,4.288-7.724,8.65-11.647,12.913
	C244.293,139.852,244.187,139.284,244.057,138.713z M358.405,63.044c0.378-0.097,0.759-0.185,1.137-0.277
	c2.58-0.701,5.167-1.331,7.762-1.868c13.397-2.78,26.958-4.041,40.598-4.674c0.863,0,1.73,0.02,2.594-0.004
	c1.409-0.039,2.339,0.412,2.392,2.019c0.055,1.673-0.774,2.272-2.358,2.362c-4.655,0.261-9.305,0.62-13.956,0.922
	c-17.846,1.159-35.243,4.635-52.208,10.24c-5.572,1.84-11.024,4.044-16.558,6.012c-0.503,0.181-1.102,0.556-1.665,0.701
	c-0.267,0.118-0.536,0.231-0.803,0.349c-18.796,8.357-36.595,18.395-52.169,31.754c-0.808-1.267-1.458-2.626-1.861-4.072
	C296.509,85.629,325.725,71.418,358.405,63.044z M258.099,130.355c0.77,1.462,1.82,2.722,2.922,3.944
	c-4.335,4.703-8.551,9.534-12.874,14.25c-0.595-1.165-1.082-2.388-1.687-3.548c0.678-1.975,1.702-3.791,3.23-5.542
	C252.428,136.32,255.234,133.287,258.099,130.355z M376.261,443.822c-0.157,0.592,0.282,1.732,0.797,2.047
	c5.035,3.084,10.351,4.434,16.199,2.401c1.1-0.382,2.401-0.17,3.605-0.28c0.635-0.055,1.26-0.209,2.212-0.379
	c-0.868-1.775-1.696-3.192-2.261-4.703c-0.501-1.345-1.072-2.818-0.989-4.196c0.299-5.011,0.795-10.007,4.004-14.247
	c0.768-1.018,1.316-2.246,1.772-3.447c1.792-4.744,1.598-9.509,0.095-14.898c-0.41,1.256-0.641,1.891-0.824,2.535
	c-1.809,6.355-4.967,8.498-11.524,7.25c-4.008-0.762-7.906-2.096-11.835-3.168c-0.82,4.212-0.106,13.018,1.295,17.179
	c0.423,1.256,0.659,2.784,0.355,4.037C378.358,437.281,377.144,440.509,376.261,443.822z M386.469,426.851
	c0.665,0,1.334,0.972,2.404,1.849c-1.074,0.832-1.93,1.906-2.384,1.76c-0.759-0.253-1.58-1.216-1.745-2.01
	C384.654,428.013,385.851,426.853,386.469,426.851z M352.169,371.773c-0.307-1.84-0.577-3.465-0.876-5.267
	c2.038,0.101,3.096,1.032,2.792,2.761c-0.385,2.175-0.86,4.435-1.844,6.379c-1.239,2.443-1.365,4.6-0.358,7.137
	c1.009,2.551,1.423,5.326,2.323,7.924c0.834,2.403,2,4.69,2.947,7.057c0.338,0.85,0.462,1.785,0.685,2.677
	c2.227-1.61,2.813-1.507,4.947,0.89c-2.063,1.586-3.654,1.418-5.277-0.552c-0.586-0.934-1.359-1.798-1.734-2.81
	c-2.97-7.991-8.782-13.258-16.126-17.113c-2.138-1.125-4.286-2.246-6.333-3.52c-6.495-4.042-8.164-7.855-6.918-15.473
	c0.136-0.845,0.254-1.693,0.423-2.822c-0.507,0.312-0.85,0.522-1.322,0.813c-0.777-1.918-1.542-3.813-2.308-5.707l-0.024,0.018
	c0-0.002,0-0.002,0-0.002c-0.003-0.027-0.005-0.059-0.009-0.086c0.006,0.01,0.011,0.021,0.017,0.034
	c0.42-2.628,0.837-5.263,1.319-8.278c0.083-0.525,0.167-1.061,0.255-1.613c1.791,1.925,3.154,3.704,4.823,5.127
	c4.787,4.086,9.632,8.109,14.585,11.992c3.125,2.448,5.858,5.076,6.906,9.058c0.086,0.323,0.264,0.63,0.441,0.919
	C351.581,371.445,351.77,371.506,352.169,371.773z M412.872,534.631c0.334,1.491-0.784,2.179-2.223,2.096
	c-5.867-0.335-11.75-0.513-17.594-1.096c-16.299-1.63-32.266-4.936-47.849-10.023c-19.853-6.48-38.366-15.719-55.791-27.195
	c-3.596-2.371-7.271-4.621-10.91-6.924c4.885-0.826,9.066,0.119,13.101,2.891c22.194,15.223,46.431,25.944,72.664,32.014
	c14.671,3.396,29.509,5.678,44.628,5.594c0.691-0.006,1.59-0.205,2.029,0.143C411.746,532.778,412.661,533.684,412.872,534.631z
	 M497.879,370.379c3.281,1.295,6.643,0.36,9.813-1.029c0.787-0.345,1.61-0.646,2.446-0.816c0.314-0.061,0.886,0.231,1.023,0.516
	c0.121,0.248-0.104,0.957-0.339,1.045c-1.779,0.681-1.388,2.165-1.391,3.502c-0.004,5.191-1.136,9.901-5.248,13.547
	c-4.288,3.803-9.811,4.244-14.51,0.994c-0.961-0.664-1.977-1.253-2.966-1.877c1.564,4.469,7.201,7.287,11.834,6.307
	c1.833-0.383,3.678-1.035,5.313-1.932c1.771-0.972,3.28-2.267,5.163-0.244c0.184,0.195,1.45-0.145,1.601-0.495
	c0.24-0.567,0.18-1.479-0.146-2.007c-0.306-0.5-1.113-0.695-1.261-0.775c0.975-4.857,1.889-9.422,2.49-12.398
	c0.592,2.992,1.565,7.551,2.385,12.139c0.481,2.692-1.172,4.444-3.198,5.766c-6.703,4.377-13.806,4.503-21.032,1.555
	c-1.162-0.472-2.354-1.625-2.883-2.764c-2.544-5.48-4.854-11.069-7.281-16.605c-0.647-1.475-0.158-2.299,1.289-2.719
	c0.578-0.171,1.202-0.234,1.74-0.486C487.622,369.273,492.527,368.264,497.879,370.379z M252.487,396.072
	c-0.021,8.873,7.181,16.49,15.593,16.486c8.086,0,15.298-7.449,15.403-15.908c0.096-7.72-7.822-15.296-16-15.309
	C259.275,381.33,252.507,387.975,252.487,396.072z M263.065,392.955c0.74-0.656,0.466-2.45,0.643-3.744
	c0.002,0,0.062-0.004,0.171-0.013c0.074-0.005,0.167-0.013,0.279-0.021c0.056-0.004,0.116-0.008,0.182-0.012
	c0.188-0.018,0.413-0.033,0.663-0.052c0.013-0.002,0.028-0.002,0.041-0.002c1.973-0.152,5.435-0.425,5.436-0.425
	c0.253,1.354,0.13,3.152,0.721,4.114c0.083,0.14,0.184,0.259,0.3,0.36c0.964,0.823,3.034,0.357,4.62,0.456
	c0.083,0.236,0.165,0.468,0.248,0.702c-1.443,0.87-2.886,1.742-4.496,2.71c1.269,1.533,2.441,2.943,3.613,4.36
	c-0.142,0.251-0.285,0.505-0.427,0.758c-0.995-0.379-2.052-0.65-2.973-1.164c-1.785-1-2.717-0.812-2.782,1.472
	c-0.024,0.86-0.471,1.71-0.725,2.563c-0.31,0.027-0.623,0.057-0.934,0.083c-0.414-0.971-0.987-1.906-1.208-2.92
	c-0.405-1.846-1.218-2.009-2.724-1.088c-0.872,0.533-1.917,0.777-2.979,1.19c-0.1-0.663-0.201-0.868-0.137-0.979
	c0.772-1.328,2.291-2.732,2.137-3.932c-0.132-1.018-2.191-1.775-3.374-2.68c-0.169-0.128-0.211-0.428-0.418-0.885
	C260.434,393.554,262.182,393.742,263.065,392.955z M306.841,471.023c1.336-1.35,3.234-2.202,4.979-3.074
	c3.709-1.859,7.493-3.564,11.233-5.359c2.115-1.018,4.136-0.947,6.485-0.485c3.147,0.614,6.536,0.774,9.701,0.314
	c5.616-0.816,11.142-2.248,16.706-3.42c0.115,0.263,0.229,0.526,0.344,0.792c-8.9,4.135-17.767,8.35-26.728,12.355
	c-2.171,0.973-4.636,1.314-6.991,1.84c-1.7,0.381-2.976,1.088-2.792,3.049c0.493,5.234-2.586,7.418-7.016,8.918
	c-3.666,1.244-7.057,3.299-10.718,4.564c-1.888,0.652-4.783,1.246-6.007,0.297c-1.91-1.477-0.051-3.879,0.658-5.884
	C298.697,479.271,302.783,475.131,306.841,471.023z M522.648,497.598c23.334-12.142,42.888-28.911,60.013-49.785
	c0.153,3.49,0.683,5.959-1.426,8.459c-14.996,17.775-32.88,32.004-52.978,43.557C525.357,501.495,525.174,501.398,522.648,497.598z
	 M599.399,484.979c-0.347-1.654-0.941-2.238-2.591-2.533c-4.295-0.76-8.791-1.214-11.676-5.258
	c-0.253-0.359-1.271-0.402-1.828-0.233c-0.388,0.116-0.866,0.862-0.836,1.293c0.475,6.425-0.471,12.547-4.02,18.464
	c3.661,1.699,6.919,2.619,10.607,1.882c3.19-0.638,6.451-1.089,9.695-1.236c3.763-0.172,4.729-1.833,3.047-5.349
	C600.734,489.785,599.908,487.388,599.399,484.979z M585.885,489.268c-0.766-0.168-1.754-1.03-1.904-1.748
	c-0.116-0.562,1.043-1.998,1.396-1.924c0.896,0.193,1.658,1.012,3.045,1.977C587.194,488.439,586.423,489.383,585.885,489.268z
	 M637.438,410.85c0.927,3.375,1.836,6.757,2.807,10.355c-6.006-3.068-8.061-9.953-13.463-13.941
	c-8.52,16.758-18.846,32.177-30.508,46.812c-2.538-3.45-2.476-3.774-0.09-6.827c9.27-11.861,17.558-24.382,24.604-37.691
	c1.233-2.33,2.758-2.936,5.3-3.513c5.039-1.145,7.534,2.546,11.006,4.433C637.237,410.553,637.401,410.703,637.438,410.85z
	 M314.696,461.627c-1.295,1.711-2.476,3.507-3.7,5.27c3.632-1.916,7.207-3.825,10.802-5.693c2.371-1.232,4.89-1.988,7.472-0.904
	c4.041,1.701,8.085,1.363,12.21,0.496c4.302-0.902,8.631-1.686,12.947-2.524c2.282-0.443,4.562-0.901,6.841-1.353
	c-0.012-0.294-0.025-0.588-0.037-0.887c-2.911-0.809-5.823-1.617-8.735-2.422c0.231-0.574,0.528-1.158,0.493-1.705
	c-0.09-1.479-0.423-2.934-0.657-4.4c0.306-0.14,0.612-0.279,0.919-0.418c0.582,1.068,1.214,2.111,1.734,3.217
	c0.417,0.889,0.533,1.992,1.087,2.742c0.484,0.652,1.508,1.435,2.084,1.264c0.626-0.183,1.314-1.361,1.434-2.176
	c0.218-1.479,0.036-3.005,0.019-4.512c0.379,0,0.758,0.002,1.137,0.005c0.29,1.106,0.798,2.202,0.824,3.325
	c0.049,2.458,1.332,2.615,3.113,2.145c0.337-0.088,0.675-0.184,1.017-0.26c3.867-0.855,5.167-3.502,3.419-7.176
	c-0.247-0.518-0.993-0.92-1.58-1.048c-2.315-0.509-4.674-0.81-6.986-1.329c-1.224-0.274-2.434-0.651-3.645-0.99
	c0.229-0.035,0.419-0.071,0.554-0.109c0.906-0.264,7.814-0.132,11.226-0.051c0.393,0.053,0.761,0.063,1.111,0.028
	c0.495,0.015,0.783,0.022,0.783,0.022v-0.188c0.865-0.288,1.596-0.908,2.212-1.894c2.053-3.27,1.822-5.906-1.046-9.757
	c-1.14-1.53-1.946-2.868-0.895-4.924c0.496-0.966,0.114-2.489-0.143-3.702c-0.411-1.93-1.12-3.799-1.583-5.721
	c-0.784-3.271-1.331-6.605-2.26-9.834c-0.496-1.717-1.457-3.658-3.849-2.881c-4.466,1.451-7.301-0.824-8.953-4.716
	c-1.104-2.6-2.468-5.159-4.12-7.445c-2.739-3.788-6.528-6.347-10.86-8.101c0.423,0.8,1.033,1.397,1.557,2.063
	c2.416,3.058,4.918,6.089,5.046,10.266c0.192,6.222,0.333,12.444,0.552,18.665c0.061,1.721,0.261,3.447,0.512,5.151
	c0.348,2.374,1.59,3.71,4.202,3.56c2.137-0.123,4.29-0.022,6.436-0.022c0.028,0.251,0.055,0.503,0.084,0.754
	c-0.58,0.093-1.158,0.19-1.736,0.284l0,0l-3.437,0.563l-4.711,2.033l0.952,7.359c0,0,4.243,4.412,4.069,4.759
	c-0.174,0.346-0.086,1.038-2.251,4.24c0,0,0.064,0,0.173-0.005c-0.306,0.296-0.512,0.592-0.525,0.826
	c-0.156,3.121,0.188,6.269,0.544,9.374c0.009,0.077,0.059,0.149,0.123,0.218c-0.6-0.164-1.199-0.332-1.8-0.498
	c-0.313-0.086-0.687-0.01-1.021,0.044c-10.671,1.698-21.226,3.866-31.401,7.604C315.787,460.506,315.131,461.049,314.696,461.627z
	 M359.322,418.164c0.288-0.846,1.162-1.9,1.944-2.044c0.585-0.107,1.41,1.075,2.664,2.138c-1.431,0.824-2.265,1.609-3.167,1.695
	C360.306,419.996,359.18,418.588,359.322,418.164z M507.153,124.333c1.698-2.441,3.399-4.885,5.218-7.501
	c-1.481-1.954-3.023-3.984-4.566-6.017c0.084-0.189,0.168-0.378,0.25-0.568c1.35,0.298,2.709,0.557,4.045,0.904
	c1.709,0.444,2.971,0.209,3.72-1.663c0.528-1.32,1.386-2.506,2.511-4.479c0.608,2.86,1.226,4.902,1.43,6.984
	c0.178,1.818,1.055,2.303,2.673,2.394c1.763,0.103,3.51,0.423,5.266,0.653c0.015,0.284,0.03,0.568,0.044,0.852
	c-1.937,0.909-3.82,1.991-5.834,2.675c-1.927,0.655-2.221,1.756-1.914,3.556c0.313,1.833,0.305,3.72,0.437,5.583
	c-0.255,0.112-0.511,0.224-0.765,0.335c-1.376-1.988-2.756-3.975-4.207-6.071c-2.66,0.968-5.281,1.92-7.903,2.874
	C507.422,124.674,507.288,124.504,507.153,124.333z M397.575,459.389c0.231-1.375,0.699-2.711,1.07-4.064
	c-0.291-0.152-0.582-0.305-0.871-0.453c-0.683,0.957-1.409,1.891-2.031,2.887c-0.499,0.803-0.718,1.824-1.342,2.49
	c-0.542,0.575-1.633,1.238-2.19,1.04c-0.605-0.216-1.177-1.362-1.219-2.136c-0.076-1.392,0.25-2.809,0.412-4.214
	c-0.377-0.024-0.753-0.048-1.131-0.073c-0.392,1.015-1.003,2.004-1.133,3.053c-0.285,2.291-1.572,2.352-3.299,1.794
	c-0.328-0.107-0.653-0.221-0.985-0.314c-3.763-1.062-4.801-3.621-2.715-6.935c0.292-0.468,1.073-0.793,1.669-0.873
	c2.348-0.317,4.721-0.439,7.065-0.767c2.555-0.357,5.082-1.111,7.635-1.179c0.97-0.029,2.852,1.412,2.819,2.112
	c-0.14,2.929-0.782,5.844-1.431,8.72c-0.095,0.418-1.238,0.596-1.897,0.884C397.844,460.701,397.472,460.006,397.575,459.389z
	 M476.95,158.806c-1.845,1.762-3.687,3.526-5.589,5.344c1.725,2.422,3.404,4.78,5.084,7.138c-0.164,0.222-0.332,0.446-0.498,0.67
	c-2.242-1.024-4.482-2.046-6.903-3.151c-1.429,1.861-2.919,3.802-4.907,6.394c0-2.981,0.112-5.18-0.066-7.357
	c-0.055-0.684-0.766-1.632-1.406-1.89c-2.134-0.854-4.371-1.45-6.568-2.144c-0.023-0.24-0.045-0.479-0.066-0.719
	c1.67-0.489,3.313-1.121,5.018-1.433c2.225-0.405,3.346-1.409,3.039-3.814c-0.171-1.35-0.03-2.736-0.03-4.106
	c0.229-0.115,0.461-0.227,0.69-0.343c0.9,1.257,1.97,2.425,2.658,3.789c0.914,1.802,2.246,2.169,4.04,1.82
	c1.667-0.326,3.347-0.59,5.019-0.88C476.626,158.35,476.787,158.578,476.95,158.806z M220.027,264.662
	c0.551,1.674,0.693,3.481,0.554,5.501c-1.675-1.889-3.351-3.779-5.496-6.197c-1.617,1.979-3.081,3.773-4.544,5.568
	c-0.248-0.156-0.494-0.313-0.74-0.468c0.385-1.475,0.717-2.965,1.168-4.421c0.443-1.421,0.159-2.274-1.4-2.704
	c-1.471-0.407-2.872-1.057-4.343-2.136c1.093-0.317,2.18-0.656,3.281-0.944c1.152-0.302,2.316-0.555,3.526-0.842
	c-0.678-2.207-1.297-4.212-1.914-6.218c0.198-0.141,0.397-0.281,0.596-0.422c1.506,1.288,3.013,2.576,4.6,3.932
	c1.612-1.515,3.14-2.95,4.668-4.385c0.205,0.105,0.41,0.21,0.614,0.317c-0.326,2.316-0.653,4.632-0.992,7.033
	c2.256,0.611,4.362,1.185,6.466,1.757c0.005,0.208,0.008,0.414,0.013,0.621c-1.426,0.425-2.827,0.996-4.283,1.242
	C220.056,262.193,219.409,262.791,220.027,264.662z M602.12,501.727c0.183,3.783-0.929,6.078-4.03,7.433
	c0.242-2.09,0.449-3.864,0.648-5.634c-0.254-0.08-0.51-0.158-0.767-0.233c-0.604,1.158-1.145,2.356-1.828,3.463
	c-0.53,0.854-1.085,1.856-1.899,2.337c-1.835,1.078-2.947,0.313-2.886-1.824c0.044-1.443,0.185-2.883,0.284-4.324
	c-0.316-0.065-0.637-0.13-0.953-0.193c-0.36,0.846-0.778,1.67-1.053,2.541c-0.309,0.98-0.2,2.251-0.799,2.945
	c-0.651,0.759-1.9,0.999-2.892,1.467c-0.333-0.814-0.839-1.604-0.98-2.451c-0.785-4.664,1.522-6.562,5.97-6.842
	c2.898-0.185,5.762-0.906,8.658-1.227C601.305,498.995,602.038,500.062,602.12,501.727z M383.081,517.587
	c-1.084-1.173-2.171-2.345-3.464-3.74c-1.684,1.608-3.121,2.984-4.557,4.356c-0.178-0.109-0.358-0.221-0.538-0.329
	c0.34-1.625,0.682-3.246,1.073-5.102c-1.875-0.553-3.613-1.063-5.353-1.575c0-0.21,0-0.42,0.001-0.629
	c1.743-0.623,3.484-1.248,5.326-1.91c-0.289-2.259-0.568-4.434-0.847-6.604c0.219-0.148,0.439-0.296,0.656-0.442
	c1.343,1.201,2.685,2.398,4.145,3.702c1.501-0.931,3.039-1.882,4.578-2.837c0.203,0.164,0.405,0.33,0.608,0.494
	c-0.724,1.878-1.448,3.756-2.233,5.799c1.58,0.863,3.203,1.745,5.725,3.121C384.388,512.566,380.924,513.058,383.081,517.587z
	 M554.778,177.174c-0.741-0.14-1.778-1.634-1.752-2.482c0.433-13.208,1.015-26.411,1.577-39.615
	c0.009-0.235,0.175-0.462,0.508-1.298c0.382,3.455,0.902,6.316,0.98,9.191c0.288,10.54,0.43,21.083,0.633,31.625
	C556.748,176,556.535,177.508,554.778,177.174z M642.688,375.658c-0.209,0.997,0.432,2.651,1.243,3.221
	c0.593,0.416,2.306-0.166,3.14-0.803c1.713-1.32,1.868-3.193,0.54-5.779c-0.987,1.586-1.747,2.807-2.511,4.027
	c-0.334-0.15-0.669-0.297-1.004-0.447c0.494-1.275,0.712-2.814,1.574-3.746c0.651-0.701,2.543-1.199,3.156-0.767
	c1.015,0.726,1.986,2.255,2.02,3.47c0.097,3.393-2.122,5.471-4.943,6.988c-2.7,1.455-5.22,0.309-7.694-0.63
	c-0.356-0.136-0.627-1.382-0.431-1.937c1.646-4.627,3.436-9.205,5.135-13.814c0.598-1.627,1.787-2.133,3.275-1.67
	c1.846,0.572,0.912,1.961,0.523,2.986c-0.486,1.281-1.23,2.457-1.815,3.704C644.096,372.174,643.062,373.852,642.688,375.658z
	 M467.341,459.709c4.367,2.601,8.901,1.962,13.499,0.801c0.807-0.204,1.855-0.326,2.517,0.029c0.595,0.322,1.324,1.662,1.112,2.012
	c-1.287,2.108-2.741,4.134-4.347,6.012c-0.389,0.457-1.675,0.537-2.313,0.256c-0.432-0.193-0.576-1.307-0.632-2.027
	c-0.1-1.227-0.029-2.471-0.029-3.709c-0.229-0.031-0.461-0.061-0.694-0.092c-0.383,1.243-0.621,2.559-1.208,3.696
	c-0.319,0.616-1.23,0.929-1.872,1.375c-0.281-0.733-0.757-1.455-0.795-2.202c-0.053-0.979,0.236-1.977,0.375-2.966
	c-0.205-0.058-0.413-0.116-0.617-0.175c-0.612,1.824-1.225,3.65-1.977,5.899c-2.917-2.253-0.768-4.446-0.806-7.144
	c-0.893,0.886-1.588,1.311-1.887,1.928c-0.513,1.07-0.763,2.206-2.363,1.354c-1.061-0.563-2.621-0.908-1.73-2.505
	c0.626-1.118,1.808-1.94,2.806-2.825C466.514,459.307,467.052,459.537,467.341,459.709z M418.3,374.221
	c0.188-0.139,0.465-0.156,1.214-0.386c-6.402,8.241-12.524,16.118-18.597,23.931c-1.443-5.348,0.441-11.186,5.019-14.614
	C410.005,380.104,414.168,377.184,418.3,374.221z M493.621,205c9.967-0.435,19.934-0.871,29.901-1.31
	c2.071-0.091,4.144-0.163,6.216-0.282c1.277-0.072,2.389-0.156,2.611,1.638c0.234,1.891-0.889,2.209-2.276,2.343
	c-0.856,0.084-1.731,0.125-2.591,0.084c-11.289-0.544-22.581-1.104-33.87-1.663C493.616,205.542,493.619,205.271,493.621,205z
	 M600.248,206.856c-5.95,0.324-11.909,0.45-17.865,0.586c-1.193,0.029-2.482-0.071-3.563-0.518c-0.65-0.269-1.41-1.37-1.335-2.005
	c0.071-0.615,1.159-1.588,1.792-1.583c5.178,0.048,10.357,0.194,15.527,0.492c6.541,0.375,13.072,0.921,19.609,1.396
	c-0.002,0.139-0.002,0.279-0.002,0.419C609.689,206.058,604.977,206.597,600.248,206.856z M555.111,224.867
	c1.98,0.015,1.629,1.447,1.595,2.57c-0.329,10.597-0.698,21.192-1.071,31.787c-0.018,0.496-0.184,0.987-0.28,1.479
	c-0.172,0.004-0.345,0.008-0.521,0.011c-0.431-5.436-0.953-10.869-1.263-16.313c-0.322-5.595-0.433-11.203-0.648-16.805
	C552.864,226.04,553.141,224.85,555.111,224.867z M489.465,473.094c4.439,0.965,6.686,4.676,9.438,7.893
	c-8.535-4.313-18.207-5.658-26.578-10.215c0.114-0.396,0.231-0.788,0.348-1.184C478.27,470.754,483.877,471.881,489.465,473.094z
	 M583.774,503.031c0.016,2.221-0.057,4.545-2.365,6.236c0-2.328,0-4.651,0-6.976c-0.34-0.074-0.677-0.146-1.017-0.22
	c-0.305,1.094-0.684,2.173-0.902,3.282c-0.646,3.265-3.154,4.679-6.164,3.306c-0.458-0.21-0.851-1.013-0.893-1.566
	c-0.044-0.643,0.314-1.324,0.524-1.976c2.472-7.582,2.691-6.344,9.308-4.296C582.957,501.037,583.77,502.266,583.774,503.031z
	 M561.742,176.805c3.24-6.912,6.602-13.765,9.933-20.632c-1.151,7.396-2.229,14.738-6.042,21.262
	c-0.744,1.27-1.566,2.224-3.027,1.322C562.086,178.436,561.533,177.249,561.742,176.805z M516.793,360.957
	c-4.388,0-8.711,0-12.709,0c2.59-3.667,5.33-7.546,8.033-11.379C513.637,353.281,515.217,357.123,516.793,360.957z M539.926,167.675
	c-1.234-3.644-2.088-7.421-3.107-11.141c0.217-0.095,0.435-0.191,0.652-0.289c3.387,6.761,6.8,13.503,10.09,20.308
	c0.26,0.543-0.133,1.799-0.641,2.235c-0.949,0.816-2.141,0.776-2.726-0.617C542.726,174.691,541.139,171.244,539.926,167.675z
	 M578.156,194.267c6.668-2.322,13.437-4.22,20.537-4.532c0.075,0.314,0.149,0.629,0.226,0.944
	c-5.966,2.198-11.927,4.412-17.903,6.575c-0.709,0.258-1.586,0.477-2.261,0.283c-0.585-0.168-1.281-0.894-1.394-1.478
	C577.258,195.512,577.707,194.424,578.156,194.267z M530.447,194.207c0.814,0.299,1.746,1.715,1.712,2.579
	c-0.071,1.703-1.582,1.257-2.585,0.865c-6.337-2.489-12.648-5.05-18.969-7.588c0.113-0.343,0.227-0.687,0.341-1.031
	c2.419,0.403,4.892,0.607,7.243,1.253C522.326,191.421,526.424,192.725,530.447,194.207z M585.674,234.851
	c-5.098-4.213-10.209-8.408-15.278-12.657c-0.917-0.769-1.858-1.661-0.545-3c1.239-1.27,2.127-0.591,3.048,0.337
	c4.646,4.692,9.295,9.387,13.943,14.08C586.453,234.024,586.063,234.437,585.674,234.851z M585.49,167.728
	c0.246,0.239,0.492,0.477,0.738,0.715c-4.772,4.665-9.512,9.366-14.377,13.933c-0.467,0.439-1.73,0.031-2.623,0.016
	c0.067-0.813-0.171-1.866,0.25-2.403C573.759,174.528,579.428,170.855,585.49,167.728z M562.475,225.91
	c-0.584-1.104-1.09-2.231,0.568-3.009c1.479-0.695,1.955,0.282,2.609,1.266c4.057,6.113,5.719,13.042,6.705,20.224
	C569.058,238.232,565.752,232.079,562.475,225.91z M537.539,244.077c-0.438-0.202-0.877-0.404-1.314-0.606
	c2.668-6.511,5.295-13.04,8.086-19.499c0.24-0.557,1.576-0.64,2.402-0.943c0.217,0.866,0.89,1.962,0.585,2.562
	C544.137,231.798,540.816,237.928,537.539,244.077z M538.016,177.699c0.811,0.892,1.646,1.823,2.171,2.883
	c0.286,0.572,0.2,1.768-0.204,2.121c-0.438,0.381-1.787,0.445-2.154,0.072c-4.512-4.58-8.918-9.267-13.352-13.923
	c0.213-0.227,0.425-0.453,0.635-0.68C529.949,170.595,534.332,173.662,538.016,177.699z M525.16,233.468
	c-0.143-0.192-0.287-0.383-0.43-0.575c4.203-4.45,8.367-8.936,12.662-13.294c0.475-0.479,1.877-0.555,2.549-0.217
	c1.326,0.664,0.994,1.761,0.135,2.777C535.939,227.048,530.651,230.393,525.16,233.468z M592.868,222.426
	c-6.387-1.262-12.024-4.13-17.461-7.428c-0.396-0.24-0.577-1.754-0.259-2.058c0.564-0.551,1.842-1.112,2.377-0.829
	c3.113,1.646,6.17,3.429,9.1,5.388C588.822,218.968,590.794,220.771,592.868,222.426z M578.645,183.357
	c3.588-2.166,7.2-4.291,11.451-6.818c-3.601,6.092-8.182,9.978-13.613,12.902c-0.433,0.232-1.764-0.269-1.945-0.718
	c-0.308-0.78-0.41-2.168,0.063-2.627C575.746,184.974,577.242,184.2,578.645,183.357z M532.94,189.71
	c-5.274-3.075-9.389-7.367-12.456-12.827c1.01,0.562,2.068,1.052,3.023,1.697c3.721,2.504,7.46,4.991,11.052,7.67
	c0.591,0.441,0.741,1.876,0.571,2.75C535.053,189.39,533.414,189.987,532.94,189.71z M517.363,222.717
	c-0.223-0.4-0.447-0.803-0.667-1.205c4.922-2.991,9.831-6.005,14.782-8.955c1.113-0.664,2.329-1.3,3.264,0.451
	c0.963,1.805-0.326,2.351-1.508,2.869C527.957,218.189,522.657,220.441,517.363,222.717z M325.354,489.43
	c1.712,1.65,3.238,3.494,4.834,5.264c-0.073,0.26-0.144,0.523-0.216,0.785c-4.689-0.319-9.378-0.641-14.069-0.961
	c-0.092-0.406-0.188-0.813-0.283-1.219c2.476-1.481,4.908-3.047,7.463-4.375C323.628,488.639,324.861,488.953,325.354,489.43z
	 M493.888,366.957c7.151-3.376,14.205-3.432,21.319-3.133C508.317,364.883,502.179,370.979,493.888,366.957z M376.176,448.464
	c0.567,0.203,1.121,0.444,1.667,0.692c2.896,1.316,3.815,4.476,2.021,7.133c-0.209,0.309-1.111,0.578-1.205,0.461
	c-0.336-0.406-0.661-0.996-0.632-1.497c0.089-1.495,0.346-2.978,0.538-4.464c-0.34-0.085-0.681-0.171-1.022-0.258
	c-0.347,1.07-0.512,2.262-1.103,3.174c-0.43,0.666-1.474,1.429-2.15,1.348c-2.729-0.328-3.538-1.484-2.983-3.677
	C372.127,448.141,373.297,447.436,376.176,448.464z M338.639,495.639c1.669,0.951,3.325,1.652,4.656,2.748
	c0.746,0.615,0.952,1.888,1.47,3.01c-1.686,2.017-3.179,3.377-5.248,0.473c-0.527-0.74-1.986-0.813-3.324-1.309
	C337.097,498.74,337.97,496.984,338.639,495.639z M230.839,386.641c5.508,1.89,11.032,3.731,16.497,5.745
	c0.607,0.223,0.862,1.404,1.279,2.144c-0.679,0.115-1.505,0.546-2.014,0.304c-5.345-2.527-10.64-5.161-15.947-7.765
	C230.718,386.928,230.777,386.783,230.839,386.641z M266.99,377.237c-0.27-0.551-0.791-1.112-0.772-1.653
	c0.15-4.561,0.386-9.122,0.626-13.682c0.176-3.354,0.399-6.705,0.518-8.67c0.313,5.771,0.705,12.994,1.085,20.219
	c0.042,0.773,0.194,1.619-0.051,2.307C268.187,376.343,267.478,376.75,266.99,377.237z M268.397,418.099
	c0.127,1.454,0.103,2.935,0.023,4.397c-0.387,7.127-0.81,14.255-1.031,18.063c-0.24-4.086-0.686-11.488-1.103-18.889
	c-0.069-1.207-0.112-2.432,0.036-3.62c0.056-0.45,0.686-0.832,1.054-1.243C267.734,417.236,268.358,417.641,268.397,418.099z
	 M463.762,505.588c0.623,1.122,1.631,2.932,2.857,5.139c-1.808,0.627-3.937,1.367-5.797,2.014c-0.614-1.858-1.202-3.636-1.745-5.277
	C460.396,506.936,462.021,506.283,463.762,505.588z M225.28,400.854c0.004-0.094,0.007-0.19,0.011-0.287
	c7.105-0.652,14.209-1.331,21.32-1.909c0.56-0.045,1.177,0.606,1.767,0.934c-0.721,0.422-1.439,1.2-2.165,1.207
	C239.238,400.893,232.258,400.854,225.28,400.854z M255.208,431.843c-0.058-0.022-0.114-0.047-0.174-0.069
	c1.653-4.854,3.255-9.726,5.018-14.537c0.231-0.637,1.288-0.971,1.963-1.443c0.102,0.807,0.548,1.784,0.247,2.392
	C259.994,422.777,257.578,427.299,255.208,431.843z M275.028,417.499c1.648,4.24,3.104,8.558,4.623,12.846
	c-0.084,0.036-0.167,0.075-0.251,0.11c-2.248-3.961-4.553-7.888-6.682-11.912c-0.342-0.648,0.109-1.715,0.194-2.588
	C273.639,416.461,274.761,416.814,275.028,417.499z M302.132,387.695c0.049,0.102,0.095,0.203,0.143,0.306
	c-4.309,2.285-8.597,4.612-12.951,6.805c-0.551,0.28-1.453-0.138-2.193-0.231c0.536-0.75,0.915-1.907,1.632-2.182
	C293.177,390.716,297.667,389.242,302.132,387.695z M278.987,363.175c0.055,0.017,0.11,0.038,0.165,0.056
	c-1.507,4.537-2.965,9.092-4.578,13.593c-0.196,0.542-1.222,0.786-1.865,1.17c-0.105-0.769-0.551-1.708-0.265-2.284
	C274.542,371.49,276.789,367.344,278.987,363.175z M319.451,339.618c4.106,4.065,3.163,9.456,3.705,14.458
	C321.004,349.498,319.151,344.842,319.451,339.618z M297.593,412.268c-4.451-1.758-8.904-3.518-13.603-5.371
	c0.667-2.027,1.551-2.845,3.688-1.314C290.905,407.891,294.313,409.946,297.593,412.268z M298.309,399.701
	c3.553,0.287,7.102,0.596,10.654,0.893c-0.002,0.121-0.003,0.246-0.003,0.371c-6.208,0-12.414,0.036-18.619-0.039
	c-1.045-0.014-2.085-0.515-3.127-0.791c0.083-0.422,0.166-0.844,0.25-1.261C291.078,399.147,294.695,399.415,298.309,399.701z
	 M255.107,362.277c2.578,4.994,5.155,9.991,7.732,14.986c-0.228,0.273-0.456,0.545-0.683,0.816
	c-0.739-0.553-1.875-0.953-2.155-1.686C258.213,371.742,256.612,367.021,255.107,362.277z M251.712,406.729
	c-4.345,1.805-8.674,3.605-13.447,5.59c3.592-2.499,6.92-4.775,10.205-7.117C250.411,403.815,251.209,404.75,251.712,406.729z
	 M244.84,371.087c3.648,2.625,7.484,5.33,11.224,8.157c0.44,0.33,0.369,1.337,0.535,2.032c-0.734-0.13-1.721,0.006-2.16-0.423
	C251.137,377.615,247.939,374.268,244.84,371.087z M279.173,379.146c3.38-2.608,6.873-5.072,10.264-7.535
	c-2.881,3.065-5.77,6.234-8.792,9.27c-0.473,0.474-1.551,0.348-2.35,0.496C278.576,380.619,278.629,379.564,279.173,379.146z
	 M240.332,380.563c3.548,1.703,6.755,3.193,9.903,4.804c0.573,0.292,1.101,1.026,1.25,1.649c0.09,0.37-0.565,1.273-0.958,1.319
	c-0.565,0.066-1.296-0.307-1.783-0.706C246.01,385.393,243.323,383.088,240.332,380.563z M279.711,414.541
	c-0.536-0.354-0.606-1.408-0.894-2.14c0.796,0.107,1.837-0.075,2.347,0.361c3.051,2.62,5.979,5.386,8.949,8.104
	c-0.059,0.023-0.117,0.045-0.172,0.066C286.519,418.822,283.063,416.759,279.711,414.541z M285.508,385.301
	c2.646-1.238,5.331-2.391,8.738-3.899c-2.861,2.374-5.136,4.331-7.5,6.175c-0.519,0.403-1.385,0.617-2.025,0.516
	c-0.362-0.059-0.951-1.127-0.805-1.414C284.215,386.095,284.881,385.596,285.508,385.301z M246.337,420.485
	c-0.03-0.071-0.061-0.146-0.09-0.22c2.748-2.621,5.445-5.301,8.29-7.811c0.498-0.436,1.62-0.166,2.453-0.225
	c0.062,0.326,0.123,0.654,0.183,0.979C253.563,415.635,249.949,418.061,246.337,420.485z M555.664,365.788
	c-0.477-0.003-0.951-0.662-1.428-1.028c0.504-0.355,0.97-0.908,1.521-1.007c0.503-0.091,1.097,0.308,1.644,0.489
	c0.019,0.234,0.034,0.464,0.051,0.698C556.856,365.248,556.26,365.788,555.664,365.788z M261.71,174.343l0.001,0.001
	c-0.015-0.007-0.029-0.014-0.045-0.022l0,0l0.013-0.005c-0.322-0.363-0.647-0.729-0.973-1.097c0.116-0.531-0.247-1.141-0.854-0.967
	c-0.381-0.43-0.771-0.869-1.181-1.33c-0.227,0.643-0.391,1.259-0.302,1.766c-0.823,0.19-1.651,0.344-2.406,0.674
	c-0.425-0.195-0.869-0.355-1.33-0.478c-3.009-0.81-6.03-1.537-8.635-3.392c-5.531-3.936-8.521-9.449-9.813-15.956
	c-1.03-5.197-0.664-10.448-0.278-15.603c0.437,3.267,0.71,6.65,1.364,9.957c1.687,8.506,6.65,14.269,14.878,17.163
	c4.213,1.482,8.494,2.767,12.982,2.782c5.517,0.017,10.695-1.181,14.754-5.325c0.323-0.33,0.577-0.727,1.023-1.294
	c-0.409,0.08-0.552,0.066-0.632,0.13c-6.039,4.887-12.878,6.387-20.421,4.759c-5.253-1.134-10.315-2.727-14.57-6.233
	c-3.341-2.752-5.383-6.338-6.826-10.326c-0.083-0.229-0.054-0.496,0.179-0.838c0.177,0.418,0.366,0.831,0.529,1.254
	c2.932,7.569,8.756,11.247,16.562,11.868c10.896,0.869,20.494-2.562,28.947-9.387c1.055-0.852,2.148-1.659,3.223-2.485l-0.157-0.376
	c-0.586,0.172-1.247,0.227-1.744,0.542c-1.159,0.74-2.253,1.583-3.349,2.418c-7.405,5.642-15.721,8.59-25.068,8.295
	c-4.682-0.146-9.035-1.42-12.671-4.567c-3.24-2.803-4.901-6.568-6.39-10.453c-2.233-5.831-2.064-11.842-1.473-17.903
	c0.203-2.076,0.307-4.164,0.451-6.247c0.021-0.266-0.068-0.579,0.042-0.791c0.26-0.491,0.613-0.935,0.928-1.396
	c0.226,0.468,0.655,0.941,0.648,1.404c-0.104,5.996,0.484,11.895,2.159,17.671c1.664,5.739,4.714,10.625,9.047,14.697
	c0.834,0.784,1.942,1.276,2.923,1.903c-0.062,0.134-0.125,0.27-0.188,0.401c-1.371-0.524-2.742-1.049-4.327-1.656
	c0.287,0.331,0.42,0.626,0.632,0.706c1.731,0.647,3.432,1.534,5.226,1.824c6.919,1.125,13.766,0.474,20.383-1.758
	c3.007-1.014,5.986-2.342,8.672-4.017c3.969-2.475,7.707-2.44,11.478,0.066c2.15,1.432,4.159,3.077,6.23,4.626l-0.195,0.363
	c-0.323-0.039-0.652-0.053-0.97-0.121c-5.048-1.069-9.335,0.363-12.884,4.018c-2.505,2.583-4.765,5.428-7.425,7.836
	c-2.217,2.007-4.773,3.686-7.336,5.254c-2.915,1.785-6.155,2.19-9.524,1.433c-0.052-0.011-0.104-0.018-0.158-0.021
	c-0.013,0-0.028,0-0.039,0c-0.042,0-0.083-0.002-0.125,0.001c-0.01,0-0.02,0.003-0.031,0.003c-0.045,0.005-0.091,0.01-0.138,0.017
	c-0.001,0.001-0.002,0.001-0.005,0.001c-0.277,0.045-0.564,0.14-0.84,0.184C261.691,174.329,261.703,174.334,261.71,174.343z
	 M262.278,133.377c2.646,3.032,5.774,5.499,9.5,7.317c-0.127-0.271-0.261-0.54-0.377-0.815c-2.444-5.818-2.379-11.402,1.548-16.631
	c0.933-1.243,1.879-2.48,2.745-3.77c0.78-1.162,0.563-1.433-0.812-1.685c-2.571-0.467-5.198-0.807-7.667-1.612
	c-3.557-1.163-6.379-3.374-7.563-7.129c-0.351-1.117-0.384-2.335-0.563-3.509c0.163-0.078,0.325-0.157,0.488-0.238
	c1.843,8.21,7.938,10.553,15.502,11.483c-1.146-1.317-1.504-2.831-3.146-3.291c-3.51-0.978-6.238-3.169-8.583-5.856
	c-2.747-3.149-3.423-6.742-2.033-10.698c0.25-0.71,0.538-1.404,0.811-2.106c-0.125-0.062-0.248-0.125-0.372-0.188
	c-1.751,3.033-3.74,5.957-5.205,9.123c-3.837,8.304-3.535,16.479,1.553,24.244C259.341,129.905,260.79,131.673,262.278,133.377z
	 M261.646,124.533c2.126,3.259,4.315,6.477,6.477,9.712c-0.164,0.107-0.329,0.217-0.494,0.325
	c-5.934-5.727-10.062-12.325-9.848-20.99C258.775,117.33,259.473,121.203,261.646,124.533z M417.605,140.569
	c6.146-3.985,11.432-8.803,14.981-15.363c2.883-5.331,3.575-10.906,2.22-16.775c-1.125-4.891-3.504-9.151-6.475-13.167
	c-0.1,0.121-0.155,0.163-0.147,0.185c0.127,0.421,0.261,0.84,0.394,1.259c1.243,3.94,0.715,7.548-2.022,10.734
	c-2.331,2.708-5.087,4.853-8.465,6.071c-1.583,0.571-2.096,1.949-2.902,3.151c6.816-0.954,12.75-3.123,15.037-10.586
	c0.163,2.543-0.67,4.605-2.268,6.386c-1.934,2.155-4.38,3.5-7.124,4.232c-2.182,0.582-4.425,0.947-6.653,1.345
	c-1.133,0.201-1.344,0.772-0.806,1.67c0.567,0.952,1.127,1.936,1.859,2.755c3.443,3.85,4.292,8.379,3.546,13.307
	C418.538,137.384,418.011,138.948,417.605,140.569z M424.613,128.582c3.203-3.889,5.571-8.122,6.305-13.169
	c0.063-0.436,0.196-0.865,0.318-1.289c0.033-0.117,0.15-0.208,0.236-0.322c1.713,4.424-4.133,15.901-10.624,20.893
	c-0.092-0.073-0.185-0.146-0.276-0.219C421.909,132.504,423.105,130.413,424.613,128.582z M290.268,124.601
	c-0.116-0.096-0.175-0.169-0.251-0.206c-0.121-0.053-0.25-0.104-0.379-0.117c-4.33-0.421-8.379-1.554-11.682-4.592
	c-0.536-0.493-0.917-0.315-1.255,0.291c-0.475,0.852-0.931,1.735-1.539,2.489c-3.385,4.186-3.96,9.011-3.179,14.101
	c0.372,2.429,1.011,4.83,3.314,6.271c3.466,2.168,7.211,3.658,11.251,4.305c1.593,0.254,3.229,0.242,4.845,0.349
	C284.341,140.051,283.689,132.555,290.268,124.601z M277.948,135.214c2.101,2.731,4.276,5.56,6.401,8.322
	C282.493,143.354,278.219,137.814,277.948,135.214z M399.075,147.353c5.107,0.103,9.647-1.668,14.033-4.097
	c1.959-1.087,3.266-2.626,3.471-4.75c0.278-2.854,0.341-5.756,0.185-8.623c-0.218-3.964-2.9-6.875-4.919-10.335
	c-3.751,3.325-8.317,4.313-13.279,4.915c0.57,0.598,0.946,0.872,1.157,1.238c1.005,1.749,2.441,3.418,2.852,5.307
	c1.178,5.415,0.032,10.417-3.781,14.639c-0.425,0.47-0.8,0.988-1.375,1.707C398.204,147.351,398.641,147.342,399.075,147.353z
	 M410.672,136.184c-0.083,2.096-3.697,6.722-5.896,7.513C406.765,141.162,408.708,138.687,410.672,136.184z M262.206,97.703
	c0.92-3.504,2.665-6.593,5.087-9.262c8.213-9.056,18.12-15.349,30.074-18.257c0.449-0.109,0.91-0.175,1.367-0.261
	c0.017,0.064,0.037,0.13,0.055,0.196c-1.266,0.61-2.544,1.196-3.795,1.837c-8.649,4.426-16.041,10.385-21.614,18.383
	c-4.836,6.937-5.135,14.265-1.172,21.749c0.116,0.221,0.211,0.454,0.451,0.966c-2.34-0.856-4.089-2.09-5.69-3.545
	c-0.818-0.744-1.584-1.545-2.353-2.339C262.013,104.474,261.264,101.286,262.206,97.703z M317.396,211.956
	c0.369,0.75,0.88,1.451,1.419,2.093c2.111,2.509,3.342,5.426,4.153,8.56c0.318,1.227,0.714,2.433,1.062,3.605
	c0.507-3.13,1.101-6.215,1.485-9.33c0.546-4.43-0.278-8.458-4.109-11.311c-1.203-0.895-2.497-1.705-3.833-2.386
	c-2.3-1.176-4.143-2.816-5.278-5.108c-1.061-2.135-1.895-4.38-2.818-6.551c-0.485,1.793-0.147,3.684,0.665,5.425
	C312.494,201.984,314.946,206.971,317.396,211.956z M322.964,215.704c-0.864-3.674-3.73-5.386-5.836-7.73
	C321.335,209.241,324.254,212.69,322.964,215.704z M397.042,134.2c0.213-3.723-0.718-6.944-4.046-9.315
	c1.181-0.133,2.209-0.446,3.169-0.298c0.823,0.127,1.76,0.606,2.314,1.228c4.907,5.518,3.584,13.635,0.02,18.377
	c-1.731,2.305-3.954,3.993-6.595,5.311c0.305-0.563,0.595-1.134,0.917-1.69C395.26,143.595,396.764,139.091,397.042,134.2z
	 M292.435,139.199c0.599,3.308,2.015,6.33,3.923,9.109c0.27,0.394,0.521,0.805,0.78,1.208c-0.072,0.086-0.145,0.171-0.217,0.258
	c-1.018-0.72-2.11-1.357-3.042-2.177c-3.862-3.406-6.908-7.252-6.733-12.813c0.111-3.547,1.451-6.554,3.805-9.127
	c0.41-0.448,1.096-0.804,1.696-0.881c1.079-0.141,2.188-0.04,3.601-0.04C290.88,128.709,291.487,133.953,292.435,139.199z
	 M347.512,137.126c-0.026-0.051-0.06-0.098-0.08-0.15c-0.003-0.013,0.037-0.042,0.057-0.062c0.011,0.035,0.021,0.069,0.032,0.103
	C347.518,137.052,347.516,137.09,347.512,137.126z M370.924,185.884c0.292-0.442,0.489-1.094,0.899-1.282
	c0.956-0.437,2.01-0.65,3.009-0.949c0.445,0.179,0.799,0.321,1.153,0.463c-0.176,0.363-0.258,0.887-0.547,1.059
	c-0.992,0.583-2.028,1.147-3.119,1.486C371.969,186.77,371.396,186.164,370.924,185.884z M318.47,184.973
	c0.641,0.709,0.446,1.286-0.51,1.521c-1.721,0.424-3.363-0.552-4.008-2.382C315.368,183.474,317.484,183.879,318.47,184.973z"/>
</svg>
