<?xml version="1.0" encoding="utf-8"?>
<!-- Generator: Adobe Illustrator 28.0.0, SVG Export Plug-In . SVG Version: 6.00 Build 0)  -->
<svg version="1.1" id="Thor7" xmlns="http://www.w3.org/2000/svg" xmlns:xlink="http://www.w3.org/1999/xlink" x="0px" y="0px"
	 viewBox="0 0 1024 1024" style="enable-background:new 0 0 1024 1024;" xml:space="preserve">
<path d="M572.34,277.63c-6.553,2.004-13.106,4.008-19.659,6.011c-0.032,0.22-0.063,0.44-0.095,0.66
	c4.643-0.444,9.586-0.028,13.863-1.52c7.922-2.763,15.447-6.66,23.155-10.042c1.557-0.683,3.198-1.177,5.283-1.932
	c-2.445,8.991-4.295,16.91-6.767,24.631c-4.033,12.599-11.091,23.275-21.504,31.61c-1.384,1.108-2.637,2.38-3.951,3.576
	c0.373,0.393,0.746,0.786,1.119,1.179c5.989-5.759,12.637-10.99,17.782-17.424c5.221-6.53,8.958-14.246,13.029-20.926
	c0,11.549,0,23.816,0,36.91c0.644-2.028,1.083-3.409,1.826-5.747c1.326,10.01,2.52,19.028,3.714,28.047
	c0.381,0.106,0.761,0.211,1.142,0.317c1.288-1.992,2.576-3.984,3.865-5.976l-0.111-0.152c0.081,1.311,0.746,3.057,0.147,3.862
	c-3.694,4.96,0.432,7.419,2.687,10.977c3.458,5.456,5.955,11.52,8.781,17.169c0.061-0.092,0.626-0.941,1.19-1.79
	c0.337,0.071,0.674,0.142,1.01,0.212c-0.6,8.291-1.199,16.583-1.799,24.874c-0.435-0.143-0.87-0.287-1.306-0.43
	c2.522-2.554,4.636-6.033,7.691-7.384c2.66-1.177,6.383,0.048,10.261,0.243c-1.495,2.939-2.667,5.243-3.839,7.548
	c0.139,0.108,0.278,0.217,0.417,0.325c1.232-1.585,2.464-3.169,3.695-4.754c0.359,0.063,0.717,0.126,1.076,0.19
	c-0.32,1.852-0.351,3.815-1.008,5.539c-4.38,11.489-8.904,22.922-13.35,34.386c-0.522,1.346-0.849,2.767-1.618,5.323
	c6.069-4.714,11.223-8.717,16.703-12.973c-0.154,1.266-0.239,1.969-0.425,3.498c3.553-3.397,6.493-6.209,10.1-9.659
	c-4.161,8.926-8.038,17.246-11.26,24.157c9.668-7.667,19.324-17.928,31.138-23.962c11.819-6.037,25.797-7.849,38.871-11.526
	c-2.617-7.174-5.39-14.773-8.187-22.441c-11.3,8.82-23.508,18.347-35.716,27.875c13.025-18.213,33.584-27.497,48.67-43.235
	c0.389,0.369,0.777,0.739,1.166,1.108c-1.124,1.489-2.301,2.941-3.361,4.474c-2.995,4.331-2.036,8.174,2.959,9.871
	c3.412,1.159,7.28,0.963,10.713,2.081c4.293,1.399,8.602,3.108,12.453,5.43c6.925,4.176,13.533,8.881,20.23,13.428
	c1.575,1.069,2.979,2.39,4.858,3.917c6.696-3.471,1.464-10.283,3.775-15.944c0.872,4.795,1.943,8.786,2.153,12.823
	c0.078,1.494-1.53,3.577-2.946,4.565c-7.924,5.531-16.848,7.685-27.347,6.77c6.631,10.975,10.336,22.162,9.257,34.769
	c-0.937-0.43-1.998-0.918-2.857-1.312c-1.003,8.47-1.992,16.831-2.982,25.193c-0.428-0.036-0.856-0.071-1.284-0.107
	c-0.201-2.159-0.403-4.317-0.604-6.476c-0.227-0.036-0.454-0.071-0.682-0.107c-1.75,5.792-3.5,11.585-5.529,18.303
	c-0.722-2.61-1.187-4.287-1.849-6.679c-1.23,2.342-1.729,4.704-3.182,5.775c-3.338,2.462-3.053,5.765-2.588,8.902
	c1.778,11.994,3.814,23.95,5.822,35.909c0.976,5.811,3.995,10.392,8.373,14.338c4.503,4.06,8.639,8.528,12.935,12.818
	c-0.276,0.307-0.553,0.614-0.829,0.921c-3.705-3.307-7.41-6.614-11.115-9.922c5.48,14.135,12.343,27.669,14.891,42.727l0.094-0.076
	c-2.261-4.656-4.522-9.312-7.073-14.564c-1.144,1.663-1.921,2.793-2.512,3.651c-1.527-2.853-3.161-5.908-4.796-8.962
	c-0.396,0.217-0.792,0.433-1.188,0.65c0.687,10.104,1.374,20.208,2.061,30.311c0.411-0.024,0.823-0.048,1.234-0.072
	c0-5.091,0-10.183,0-15.274c0.562-0.006,1.125-0.012,1.687-0.017c0,10.539,0.217,21.083-0.055,31.615
	c-0.334,12.93-3.003,25.888,0.52,38.738c0.96,3.501,2.291,6.929,3.749,10.26c5.954,13.608,15.228,22.06,31.288,19.807
	c1.768-0.248,3.6-0.033,5.428,0.899c-6.578,0-13.156,0-19.734,0c0,0.327,0.001,0.654,0.001,0.981c5.179,0,10.358,0,15.537,0
	c0.002,0.333,0.004,0.665,0.007,0.998c-5.18,0-10.36,0-15.845,0c8.632,13.153,25.712,11.046,38.808-4.83
	c-0.526,2.364-0.888,3.989-1.249,5.614c0.491,0.143,0.983,0.285,1.474,0.428c1.599-4.964,3.199-9.927,4.69-14.555
	c3.54,3.093,3.212,7.67,2.085,12.538c-3.688,15.923-18.208,25.609-37.28,24.376c0.811,3.767,1.819,7.383,2.319,11.067
	c0.503,3.709,0.376,7.5,0.775,11.228c0.199,1.863,0.831,3.713,1.484,5.489c1.617,4.397,3.419,8.695,0.548,13.333
	c-0.559,0.904-0.368,2.349-0.322,3.536c0.122,3.127,0.141,6.281,0.595,9.367c0.603,4.098-2.188,5.571-4.939,7.243
	c-0.589,0.358-1.033,0.955-1.543,1.442c0.306,0.688,0.612,1.375,0.919,2.063c-2.582,0-5.165-0.026-7.747,0.015
	c-0.803,0.013-1.879-0.089-2.362,0.362c-4.612,4.311-6.462,0.084-8.902-2.694c-1.334-1.519-2.706-3.524-4.45-4.072
	c-7.318-2.299-12-7.373-15.974-13.538c-0.787-1.222-2.619-1.771-3.969-2.63c-0.086,1.611-0.483,3.288-0.157,4.812
	c0.254,1.188,1.192,2.824,2.194,3.159c5.49,1.833,4.57,6.072,4.372,10.249c-0.209,4.42-0.116,8.854-0.165,13.282
	c-0.044,3.998-1.358,7.065-5.674,8.152c-6.347,1.599-12.681,4.531-18.996,4.469c-3.426-0.034-6.974-4.916-10.114-7.974
	c-1.174-1.144-1.013-3.582-2.086-4.932c-0.726-0.913-2.546-0.955-3.877-1.387c-0.109,1.175-0.764,2.796-0.231,3.449
	c2.337,2.866,1.56,5.353-0.098,8.117c-0.814,1.358-1.263,3.021-1.529,4.605c-0.765,4.562-2.718,5.833-7.074,4.05
	c-6.071-2.484-12.957-3.756-16.398-10.409c-7.301,0.654-5.64-6.654-8.486-9.933c-3.508-4.042-5.662-9.259-8.263-13.73
	c1.535,6.609,3.2,13.782,5.073,21.85c-0.202,0.294-1.225,1.778-2.327,3.377c-1.397-0.579-2.853-1.183-4.037-1.673
	c-1.768,1.899-3.51,3.77-5.252,5.642c-0.577-0.045-1.154-0.089-1.731-0.134c-0.809-4.18-1.894-8.332-2.331-12.55
	c-0.308-2.97-1.192-4.013-4.053-2.873c-0.459,0.183-0.956,0.317-1.446,0.372c-7.929,0.898-7.555,0.774-5.155,8.216
	c0.948,2.938-0.185,6.548-0.401,10.387c1.093-0.736,1.746-1.175,2.576-1.734c-0.175,0.549-0.36,1.336-0.432,1.326
	c-2.141-0.306-5.292,0.058-6.216-1.2c-3.135-4.271-5.509-9.106-8.118-13.758c-0.952-1.698-1.746-3.485-3.046-6.104
	c-1.886,1.058-5.464,1.984-5.66,3.385c-0.516,3.684-0.286,7.842,1,11.31c1.435,3.868,4.362,7.183,5.937,10.909
	c2.401,1.855,4.802,3.71,7.204,5.565c-0.183,0.137-0.367,0.275-0.551,0.412c1.543,0.442,4.059,0.463,4.463,1.398
	c1.921,4.446-2.485,4.848-3.932,6.031c-3.805-1.529-7.414-2.319-10.218-4.268c-3.803-2.642-6.191,0.053-8.754,1.528
	c-5.165,2.974-9.745,5.299-15.946,1.45c-2.699-1.675-7.303-0.281-10.355-0.281c1.302,4.127,3.06,8.907,4.212,13.829
	c0.352,1.503-0.498,3.829-1.609,5.021c-2.482,2.663-5.426,4.909-8.274,7.211c-2.329,1.882-4.249,3.799-8.132,2.367
	c-3.816-1.407-5.909,1.998-4.78,6.836c-0.428,0.056-0.856,0.112-1.284,0.168c-0.263-2.008-0.426-4.036-0.822-6.017
	c-0.313-1.565-0.646-4.244-1.426-4.421c-6.347-1.44-7.557-7.507-10.777-11.615c-3.851-4.914-7.023-10.359-10.709-15.904
	c2.436-0.311,4.861-0.62,6.517-0.832c3.065,4.429,5.779,8.351,8.494,12.274c0.526-8.294-5.525-13.158-9.134-19.255
	c-2.435-4.113-4.994-8.154-7.494-12.221c3.715,3.809,7.913,2.31,12.655,1.881c-3.064-4.097-8.733-5.958-11.835-4.257
	c-0.539,0.296-0.501,1.643-0.729,2.505c-2.868-4.792-5.737-9.584-8.602-14.378c-1.415-2.368-2.82-4.741-4.875-8.196
	c-3.346,14.647-6.391,27.977-9.441,41.327c6.967,0.595,13.727,1.172,20.487,1.75c-0.026,0.491-0.052,0.982-0.077,1.472
	c-3.559,0.372-7.12,1.062-10.678,1.052c-7.735-0.02-14.643,0.775-14.516,11.034c-3.652-1.598-4.544-3.32-3.503-6.877
	c4.702-16.076,9.044-32.258,13.357-48.445c0.517-1.941,0.07-4.14-0.393-6.245c-8.469,15.656-18.075,30.058-31.145,41.752
	c-0.469-0.364-0.939-0.728-1.408-1.092c4.684-5.67,9.367-11.34,14.075-17.039c-6.486-3.114-12.497-5.999-18.974-9.108
	c-6.174,1.876-7.419,8.237-9.712,15.315c-0.936-3.128-1.447-4.836-2.055-6.868c-1.273,1.116-2.453,2.151-3.854,3.379
	c-1.162-0.794-2.37-1.57-3.525-2.419c-4.215-3.102-8.232-4.937-13.294-1.022c-2.46,1.903-4.817,0.995-7.732-1.82
	c-4.332-4.184-10.528-6.438-15.937-9.506c-0.751-0.268-1.918-0.987-2.171-0.746c-1.799,1.712-3.506,3.543-5.063,5.481
	c-3.702,4.605-7.305,9.29-10.948,13.943c0.417,0.32,0.834,0.641,1.251,0.962c2.854-3.425,5.663-6.888,8.575-10.263
	c2.78-3.221,5.666-6.35,8.506-9.52c-1.152,5.711,3.949,8.007,6.527,11.609c1.437,2.008,3.826,3.309,5.63,5.088
	c1.005,0.991,2.607,2.617,2.338,3.418c-0.691,2.055-1.907,4.302-3.592,5.569c-2.515,1.891-5.613,3.007-9.01,4.731
	c-7.477-4.446-16.083-1.757-24.742,0.544c-2.041,0.542-4.262,0.406-6.401,0.581c-0.19-0.449-0.38-0.899-0.57-1.348
	c-1.202,1.478-2.403,2.957-3.408,4.193c-11.937-4.792-23.292-1.026-35.019,1.468c-0.099-1.243-0.182-2.279-0.253-3.164
	c-2.469-0.443-5.328-0.205-7.134-1.471c-2.213-1.551-3.753-2.883-6.324-0.4c0.365,0.806,0.798,1.762,0.861,1.901
	c-3.115,1.754-5.985,3.371-8.472,4.772c-0.835-6.633-1.651-13.118-2.682-21.303c6.37,2.962,11.63,5.402,16.883,7.858
	c0.554,0.259,1.25,1.001,1.574,0.853c5.657-2.598,9.039,0.373,11.609,5.521c0.761-2.487,1.274-4.163,1.97-6.44
	c-0.009-0.004-0.839-0.23-1.57-0.635c-3.27-1.81-6.961-2.437-9.631-5.914c-1.705-2.221-5.965-2.419-9.01-3.691
	c-3.687-1.541-7.586-2.838-10.847-5.046c-2.184-1.479-0.336-5.562,2.598-6.34c1.11-0.294,2.262-0.435,3.361-0.759
	c0.947-0.28,1.846-0.721,2.631-1.037c0.909,1.006,1.792,1.984,3.625,4.013c0-2.65,0-3.78,0-4.732c2.867-1.045,5.7-2.078,8.534-3.11
	c-0.081-0.511-0.163-1.022-0.244-1.533c-1.096-0.069-2.21-0.298-3.285-0.18c-4.271,0.468-8.52,1.364-12.796,1.496
	c-4.635,0.143-9.212-0.467-13.038-3.727c-2.43-2.07-4.877-2.436-8.077-0.559c-5.715,3.353-13.911-0.038-19.139-7.329
	c1.018-0.159,2.008-0.314,2.999-0.469c0.095-0.323,0.191-0.646,0.286-0.968c-1.439-0.578-2.901-1.105-4.313-1.744
	c-3.462-1.568-6.87-3.26-10.358-4.766c-3.005-1.297-3.676-3.061-1.496-5.684c2.789,0.651,5.615,1.311,8.441,1.971
	c0.167-0.321,0.335-0.641,0.502-0.962c-2.714-1.895-5.428-3.789-8.446-5.896c0.887-1.047,1.879-2.217,3.636-4.29
	c-2.603-0.983-4.769-1.683-6.832-2.613c-1.997-0.9-4.864-1.552-5.654-3.151c-3.03-6.134-8.017-5.307-13.142-4.555
	c-1.609,0.236-3.184,0.708-5.577,1.256c0.948-6.902-5.082-7.701-8.871-10.363c-1.866-1.311-4.695-1.251-8.563-2.157
	c2.336,3.175,3.895,5.716,5.871,7.877c2.688,2.939,6.668,5.153,8.175,8.533c0.821,1.841-2.322,5.45-3.677,8.261
	c-5.023-2.664-6.134,1.816-8.218,4.508c-0.399,0.516-0.759,1.062-1.365,1.914c-5.109-6.362-10.718-11.185-18.964-13.702
	c0.375,1.682,0.354,2.669,0.794,3.365c1.582,2.507,2.904,6.437,5.087,7.032c3.98,1.084,6.05,8.109,12.521,2.342
	c-0.39,4.709-1.208,7.875-0.749,10.843c0.502,3.248,2.284,6.281,3.303,9.474c0.426,1.336,0.41,2.841,0.42,4.271
	c0.004,0.621-0.531,1.226-0.654,1.871c-2.264,11.814-10.235,18.913-19.744,25.242c-3.699,2.462-6.909,5.026-11.429,6.113
	c-4.124,0.992-7.614,1.133-11.977-2.416c11.567-13.937,23.142-27.884,34.717-41.831c-0.282-0.241-0.565-0.482-0.847-0.723
	c-7.324,8.259-14.632,16.532-21.977,24.772c-4.313,4.838-8.566,9.741-13.108,14.356c-1.237,1.257-3.425,1.576-5.177,2.326
	c-0.145-0.388-0.289-0.776-0.434-1.164c6.335-7.117,12.67-14.234,19.006-21.35c-0.337-0.319-0.673-0.638-1.01-0.957
	c-3.795,3.533-7.516,7.149-11.409,10.57c-2.744,2.411-5.674,4.621-8.606,6.807c-5.65,4.214-11.435,7.151-18.895,4.104
	c-2.849-1.164-6.37-0.903-9.569-0.799c-0.643,0.021-2.009,2.578-1.676,3.433c1.267,3.248,3.408,6.163,4.591,9.432
	c0.672,1.857,0.121,4.158,0.121,6.852c4.524,2.719,2.175,8.615,3.405,13.214c0.465,1.739-2.386,4.364-4.226,7.415
	c-1.545-2.645-2.343-4.013-3.621-6.201c-1.223,1.759-2.194,3.155-2.429,3.493c-8.793,0.919-16.923,2.349-25.05,2.332
	c-3.266-0.007-6.525-3.189-9.788-4.926c0.57-0.12,1.141-0.241,1.711-0.362c5.701-1.364,8.634-0.735,12.87,2.703
	c0.167,0.135,0.61-0.07,0.922-0.116c-0.002-8.38-1.984-10.035-9.786-8.189l0.099,0.093c0.495-0.799,0.991-1.598,2.199-3.548
	c-3.167-1.585-6.204-3.607-9.546-4.675c-7.899-2.523-9.698-3.964-9.667-9.194c2.386-1.012,4.796-2.033,7.205-3.055
	c0.076-0.343,0.152-0.686,0.227-1.03c-3.643-0.875-7.461-1.321-10.893-2.716c-6.534-2.656-15.074-0.988-19.51-9.658
	c-1.082,1.91-1.814,3.202-2.651,4.679c-2.293-0.836-4.931-1.798-7.57-2.761c0.047-0.237,0.094-0.474,0.142-0.711
	c1.747,0.082,3.495,0.164,6.171,0.289c-2.338-4.557-4.911-8.279-6.187-12.403c-1.455-4.701-4.137-9.488-1.448-14.781
	c1.697-3.339,3.856-3.984,7.61-2.463c1.553,0.629,3.573,0.104,5.819,0.104c-0.479-1.358-1.51-2.983-1.536-4.624
	c-0.054-3.34,0.105-6.759,0.793-10.015c0.673-3.184,1.995-6.257,3.284-9.27c0.438-1.023,1.495-2.115,2.524-2.504
	c34.046-12.868,68.145-25.933,104.688-29.542c30.113-2.974,59.295,2.445,87.42,13.519c32.066,12.625,58.78,32.202,78.413,60.812
	c3.072,4.476,5.329,9.511,9.29,14.618c1.194-5.788,2.388-11.576,3.593-17.386c0.01-0.022-0.007,0.029-0.007,0.029
	c0.981-9.672,3.427-19.471,2.596-28.985c-1.223-13.99-4.21-27.913-7.472-41.62c-6.634-27.874-5.56-54.158,13.564-77.563
	c-58.619-41.539-121.947-61.685-193.82-44.659c5.391-0.442,10.777-0.933,16.172-1.318c36.767-2.622,72.766,0.53,107.336,14.355
	c18.657,7.462,35.836,17.474,51.862,29.586c4.19,3.166,4.917,5.884,2.421,10.794c-10.627,20.908-10.514,42.981-5.607,65.265
	c2.914,13.236,6.452,26.334,9.348,39.805c-1.041-1.901-2.255-3.728-3.097-5.713c-11.021-25.961-16.535-52.967-14.851-81.227
	c0.324-5.44,1.483-10.857,2.579-16.218c1.708-8.359,1.049-10.62-7.031-13.173c-8.83-2.79-18.028-4.396-26.995-6.785
	c-6.076-1.619-12.475-2.854-17.945-5.745c-11.395-6.023-23.8-8.191-36.007-11.343c-21.787-5.625-43.849-5.37-66.017-3.763
	c-3.316,0.24-6.632,0.495-11.308,0.845c9.359,2.83,17.526,5.183,25.616,7.779c7.75,2.486,15.447,5.147,23.106,7.9
	c2.157,0.776,4.237,1.956,6.107,3.294c2.534,1.812,2.809,4.005,0.177,6.118c-2.466,1.98-4.907,3.993-7.417,5.917
	c-16.652,12.766-33.292,25.547-50.001,38.238c-3.823,2.904-7.9,5.474-11.921,8.239c2.421,1.432,6.792,1.484,5.947,5.134
	c-5.43,0.628-10.356,0.732-15.057,1.817c-28.394,6.549-55.802,16.249-83.057,26.415c-8.173,3.048-16.404,5.939-24.608,8.902
	c-0.187-0.362-0.374-0.723-0.561-1.085c6.074-3.748,12.038-7.692,18.244-11.207c17.89-10.133,37.209-16.838,56.626-23.308
	c7.717-2.571,15.32-5.485,22.96-8.283c1.076-0.394,2.215-0.843,3.077-1.563c20.049-16.781,40.065-33.603,60.079-50.425
	c0.11-0.092,0.12-0.303,0.307-0.812c-0.921-0.68-1.832-1.656-2.954-2.136c-18.835-8.049-38.309-13.991-58.341-18.322
	c-8.996-1.945-15.778,1.836-23.325,6.907c2.33,0.478,4.105,0.882,5.894,1.204c11.411,2.053,21.344,7.1,30.157,14.576
	c3.455,2.931,4.086,5.722,0.686,9.072c-2.221,2.188-4.302,4.517-6.312,6.643c-4.174-7.414-8.159-14.49-12.143-21.567
	c-0.412,0.219-0.823,0.439-1.235,0.658c3.437,7.513,6.874,15.026,10.31,22.538c-0.481,0.274-0.962,0.548-1.444,0.823
	c-3.698-12.59-11.988-20.474-24.131-24.442c9.176,6.594,19.178,12.536,19.128,25.645c-0.469,0.462-0.939,0.923-1.408,1.385
	c-6.47-5.675-12.94-11.349-20.315-17.819c-8.643,12.609-16.847,24.576-25.051,36.543c0.329,0.389,0.657,0.777,0.986,1.166
	c12.572-3.335,25.144-6.671,37.716-10.006c0.121,0.248,0.242,0.496,0.364,0.745c-4.722,2.634-9.444,5.268-14.165,7.903
	c0.139,0.338,0.278,0.676,0.416,1.014c8.398-1.988,16.797-3.976,25.195-5.965c0.11,0.249,0.221,0.498,0.331,0.746
	c-7.792,3.547-15.583,7.093-24.356,11.087c2.444,0.186,3.814,0.29,5.185,0.394c0.105,0.308,0.211,0.616,0.316,0.925
	c-6.19,3.118-12.319,6.362-18.581,9.329c-16.517,7.825-33.053,15.612-49.686,23.184c-2.247,1.023-5.14,1.184-7.652,0.93
	c-3.308-0.335-6.534-1.476-10.904-2.541c1.214,1.352,1.742,1.941,3.165,3.525c-3.145-0.156-5.373-0.266-7.601-0.377
	c6.84-4.325,12.246-11.205,21.47-10.286c1.304,0.13,2.877-2.434,4.924-4.296c-5.07-2.154-8.389-2.756-11.55,1.383
	c-1.686,2.208-4.428,3.775-6.96,5.137c-5.942,3.197-12.051,6.084-18.08,9.122c-6.544,3.298-9.184,1.888-9.332-5.547
	c1.126,0.306,2.111,0.573,3.325,0.902c-0.257-0.99-0.516-1.985-0.974-3.75c1.347,1.046,2.128,1.653,3.613,2.806
	c-0.177-1.905-0.644-3.172-0.281-4.122c0.337-0.884,1.559-1.43,2.043-1.834c-1.712-1.375-3.75-3.01-5.787-4.646
	c0.678-0.4,1.355-0.8,2.326-1.373c-1.264-2.01,0.207-5.618-3.946-7.33c-2.252-0.929,0.913-7.13,4.306-8.083
	c0.195-2.74,0.416-5.478,0.572-8.22c0.296-5.204,3.755-7.25,8.748-5.552c3.171,1.079,6.642,2.101,10.293-1.944
	c-8.399-2.799-16.101-5.366-24.654-8.217c-0.944-1.352-2.767-3.961-4.623-6.617c2.086-1.647,0.391-5.315-3.195-6.847
	c-0.271-1.529-0.31-2.567-0.643-3.5c-2.178-6.096-1.713-7.325,4.039-10.24c3.673-1.861,5.393-6.699,2.701-10.619
	c5.96-1.352,11.49-2.607,17.601-3.993c-0.995-1.508-1.287-2.344-1.875-2.776c-3.77-2.776-2.248-5.232,0.738-6.936
	c8.433-4.813,17.024-9.347,25.38-13.898c-3.188-3.207-3.639-3.259-13.984-2.095c5.336-2.805,10.458-6.199,16.069-8.25
	c5.667-2.072,11.827-3.871,17.76-3.837c5.923,0.034,11.832,2.487,17.916,3.203c-5.24-5.623-10.642-9.04-19.051-7.924
	c-15.479,2.054-27.953,9.955-40.393,18.198c-2.39,1.584-3.727,4.675-5.951,6.607c-5.556,4.826-9.949,11.618-18.341,12.017
	c-4.787,0.227-9.593,0.041-14.808,0.041c-0.468-5.324-0.929-10.65-1.414-15.973c-0.052-0.573-0.058-1.455-0.399-1.652
	c-5.012-2.898-2.711-6.295-1.189-10.138c3.587-9.062,10.582-15.592,16.219-23.145c7.355-9.855,14.456-19.899,22.008-30.332
	c-14.94,4.384-29.002,8.51-43.064,12.638c-1.932-7.981-1.932-7.978,5.887-10.518c7.747-2.516,15.475-5.091,23.24-7.549
	c21.093-6.677,35.735-20.613,45.301-40.231c2.182-4.475,3.748-9.276,6.175-13.602c5.103-9.095,10.379-18.109,15.971-26.911
	c7.114-11.198,14.612-22.152,22.693-34.34c-11.739,2.733-19.031,8.966-23.904,17.854c-3.742,6.826-6.886,14.017-9.83,21.236
	c-14.711,36.063-39.76,61.753-76.042,76.239c-3.357,1.34-6.915,2.176-10.532,3.292c-1.765-4.115-1.025-6.115,3.184-7.696
	c18.535-6.96,34.444-17.997,48.123-32.274c13.449-14.037,18.352-31.969,23.239-50.042c2.061-7.622,5.041-15.139,8.655-22.163
	c5.612-10.908,14.351-18.644,26.483-22.012c0.877-0.244,1.701-0.682,2.549-1.029c-0.128-0.5-0.257-1.001-0.385-1.501
	c-8.835,2.046-17.79,3.706-26.43,6.382c-2.451,0.759-4.798,4.179-5.796,6.893c-3.719,10.118-6.714,20.5-10.271,30.682
	c-2.007,5.746-4.581,11.295-7.772,16.591c4.633-17.546,9.266-35.092,13.967-52.894c-2.259,1.201-4.771,2.535-7.282,3.87
	c-0.293-0.295-0.586-0.589-0.879-0.884c3.461-2.951,6.95-5.87,10.375-8.862c2.608-2.279,5.444-4.393,7.647-7.025
	c10.711-12.794,25.18-18.679,40.769-22.532c4.957-1.225,10.006-2.076,15.097-2.839c-17.967,6.539-37.934,8.915-51.024,24.728
	c13.484-3.154,27.14-6.348,40.795-9.542c-0.023-0.195-0.047-0.39-0.07-0.585c-3.704,0.38-7.408,0.76-11.113,1.139
	c24.729-6.085,49.359-12.028,65.801-34.278c-19.049,8.677-39.238,12.766-59.02,18.13c-17.29,4.689-35.279,7.496-51.129,16.272
	c-21.478,11.892-35.708,29.551-39.47,54.489c-1.477,9.79,0.413,19.194,3.802,28.363c0.55,1.488,1.155,2.955,1.249,4.55
	c-12.253-16.752-14.817-35.118-8.444-55.332c-4.103,4.965-4.614,7.163-6.586,27.962c-4.79-18.343-0.729-33.178,10.765-46.323
	c-7.689,6.415-12.362,14.797-16.176,23.813c-0.269-7.719,3.067-14.164,7.419-20.072c8.545-11.6,20.215-19.043,33.339-24.557
	c13.779-5.789,27.399-11.959,41.188-17.723c6.102-2.55,12.299-5.271,18.724-6.545c7.811-1.549,12.079-7.134,16.716-13.214
	c-6.205,2.173-12.571,3.979-18.567,6.626c-5.604,2.474-10.998,5.554-16.165,8.866c-17.581,11.267-37.566,16.712-56.836,23.907
	c-16.644,6.215-32.759,13.316-45.01,27.213c1.132-1.713,2.15-3.517,3.416-5.126c7.933-10.082,18.529-16.619,29.897-22.013
	c15.615-7.409,31.481-14.31,46.916-22.073c9.186-4.62,17.596-10.76,26.639-15.696c9.032-4.93,18.972-6.874,29.241-7.404
	c7.767-0.401,15.709-0.262,22.678-4.664c0.791-0.5,1.552-1.048,3.136-2.124c-22.22,2.264-41.536-5.207-61.145-11.507
	c-6.897-2.216-14.124-4.095-21.305-4.583c-13.055-0.887-21.735,5.273-25.317,17.883c-2.052,7.224-2.4,14.932-3.368,21.44
	c-4.022-11.019-2.037-22.603,4.285-33.821c-0.403-0.133-0.807-0.267-1.21-0.4c-2.185,4.651-4.369,9.302-6.332,13.481
	c-1.556-11.525,8.914-25.754,22.021-27.746c9.026-1.372,17.501,0.431,26.031,2.814c14.059,3.928,27.957,8.777,42.258,11.422
	c27.334,5.056,52.623-0.569,73.196-20.016c10.207-9.648,19.3-20.697,27.642-32.036c8.73-11.866,15.955-24.84,24.554-38.465
	c-5.836,1.748-11.285,2.549-15.91,4.942c-8.979,4.645-17.792,9.748-26.148,15.433c-28.847,19.623-60.501,26.623-94.904,22.137
	c-1.137-0.148-2.283-0.229-3.456-0.345c9.921-0.909,19.883-1.238,29.625-2.877c9.78-1.645,19.57-3.928,28.933-7.159
	c9.45-3.262,18.38-8.031,27.539-12.14c-0.182-0.407-0.365-0.814-0.547-1.221c-4.392,0-8.891-0.579-13.14,0.2
	c-2.924,0.536-5.502,2.957-8.234,4.535c-0.804,0.021-1.682-0.163-2.402,0.095c-8.332,2.986-16.639,6.039-24.141,8.778
	c0.897-0.084,2.911,0.051,4.714-0.502c6.75-2.07,13.431-4.365,20.138-6.576c-7.878,3.111-15.528,7.171-23.683,9.133
	c-15.991,3.847-32.345,5.547-48.784,2.86c-5.162-0.844-10.184-2.548-15.172-3.834c3.447-0.513,6.784-1.01,10.122-1.507l-0.009-0.004
	c3.497,1.07,6.994,2.14,10.491,3.21c0.119-0.391,0.238-0.782,0.356-1.173c-9.574-3.644-19.147-7.287-28.72-10.931
	c0.094-0.309,0.189-0.618,0.283-0.927c7.628,2.056,15.156,4.667,22.902,6.074c34.598,6.281,64.835-1.09,87.654-29.62
	c9.965-12.458,22.185-21.746,36.852-28.023c-1.339,1.068-2.677,2.135-4.016,3.203c0.131,0.262,0.262,0.525,0.394,0.787
	c1.972-0.931,3.891-2.005,5.926-2.769c9.442-3.549,18.928-6.983,28.375-10.518c4.501-1.684,8.823-4.1,13.46-5.107
	c5.605-1.218,11.466-1.225,17.198-1.909c1.821-0.217,3.583-0.925,5.395-1.391c8.143,0.017,16.263,0.017,24.382,0.017
	c0,0.006,0,0.013,0,0.019c-8.11,0-16.22,0-24.329,0c-2.251,0.198-4.501,0.397-6.752,0.595c-0.014-0.512-0.027-1.024-0.041-1.537
	c10.832,0,21.665,0,32.497,0c-31.571-4.354-61.709,0.304-89.873,16.115c-0.124-0.476-0.249-0.952-0.373-1.428
	c0.488-0.32,0.977-0.639,1.444-0.951c4.68-2.481,9.38-4.969,14.081-7.458c19.82-8.102,40.184-14.661,61.819-12.577
	c16.281,1.568,32.349,5.335,48.512,8.123c2.448,0.422,4.896,0.847,7.322,1.265c-0.022-0.006-0.107-0.014-0.107-0.014
	c5.676,2.313,11.11,0.757,16.519-1.052c3.552-1.188,7.087-2.425,10.892-2.904c-4.62,1.866-9.24,3.731-14.008,5.656
	c14.456,2.612,27.817-0.767,42.117-6.11c-1.384,1.656-1.914,2.29-2.905,3.476c6.631-1.197,12.688-2.291,18.854-3.404
	c-1.162,0.981-2.231,1.883-3.301,2.784c-8.141,2.133-16.293,4.222-24.42,6.407c-17.891,4.81-35.921,5.337-55.137,1.766
	c4.321-0.363,7.622-0.641,10.922-0.919c-10.043-0.453-19.984-0.686-29.909-0.401c-17.429,0.501-34.952,0.369-52.251,2.222
	c-27.572,2.953-52.671,13.254-74.975,29.809c-5.484,4.07-10.086,9.329-15.094,14.041c8.174-3.661,15.443-8.362,23.108-12.293
	c7.766-3.984,15.923-7.207,23.909-10.763c-6.328,4.047-12.656,8.095-18.984,12.142c0.32,0.599,0.64,1.199,0.961,1.798
	c17.519-7.892,35.039-15.783,52.558-23.675c-0.165-0.411-0.33-0.822-0.494-1.234c-4.94,1.253-9.881,2.506-14.821,3.759
	c1.667-0.922,3.235-2.151,5.015-2.72c26.516-8.479,53.826-7.853,81.071-6.262c17.564,1.026,34.992,3.445,52.51-0.663
	c12.548-2.942,25.045-5.774,35.944-13.122c1.567-0.249,3.134-0.498,5.842-0.927c-17.548,11.614-36.228,16.002-55.856,17.503
	c0.143,0.774,0.285,1.548,0.428,2.322c15.151-1.635,30.301-3.27,45.408-4.9c-4.217,0.992-8.583,2.082-12.979,3.036
	c-4.651,1.009-9.329,1.888-14.547,2.934c21.483,3.941,41.126-1.247,60.709-7.502c11.649-3.721,23.513-6.77,35.28-10.121
	c0.219,0.542,0.437,1.083,0.656,1.625c-4.329,2.442-8.659,4.883-11.929,6.728c7.832,0,16.54,0.029,25.248-0.006
	c16.716-0.068,31.249,6.418,45.65,14.163c10.451,5.621,21.721,9.723,32.652,14.442c1.04,0.449,2.256,0.545,3.404,0.675
	c0.946,0.107,1.914,0.022,3.027-0.338c-19.896-5.713-30.723-25.304-49.873-32.055c0.169-0.391,0.338-0.782,0.507-1.172
	c6.367,2.973,13.045,5.427,19.044,9.015c18.739,11.21,38.934,17.304,60.82,18.68c-13.341-8.523-23.766-19.496-31.201-34.654
	c1.703,1.548,2.857,2.31,3.641,3.352c12.003,15.961,29.629,22.468,47.663,28.123c2.784,0.873,6.112,0.164,9.173-0.049
	c2.421-0.168,4.816-0.697,7.5-0.156c-3.86,1.884-7.72,3.767-11.58,5.651c0.088,0.214,0.176,0.427,0.264,0.641
	c9.176-3,18.353-5.999,27.529-8.999c0.151,0.46,0.303,0.921,0.454,1.381c-2.294,0.789-4.644,1.447-6.867,2.403
	c-2.266,0.974-4.406,2.241-7.434,3.812c2.718,0.763,4.642,1.302,6.566,1.842c0.019,0.184,0.039,0.369,0.058,0.553
	c-4.351,0-8.702,0-13.054,0c-0.326,0.59-0.651,1.181-0.977,1.771c0.93,0.144,1.861,0.287,1.526,0.236
	c-8.568,2.103-17.577,4.315-26.586,6.526c-0.011,0.147-0.023,0.295-0.034,0.442c2.79,0,5.58,0,8.37,0
	c0.007,0.225,0.014,0.45,0.022,0.675c-3.435,0.442-6.913,1.463-10.298,1.217c-9.509-0.691-16.826,2.78-23.461,9.522
	c-6.98,7.093-14.842,13.317-22.538,20.114c0.475,0.805,1.124,1.908,2.527,4.288c-8.688,4.876-17.295,9.708-25.9,14.534
	c0.37-0.671,0.737-1.336,1.05-1.903c-7.234,1.331-14.597,2.686-21.96,4.041c0.039,0.244,0.078,0.489,0.118,0.733
	C558.381,279.657,565.36,278.643,572.34,277.63z M560.274,546.108c3.041,4.444,6.081,8.888,9.779,14.292
	c-5.079-15.169-9.744-29.1-14.213-42.446c-0.084,8.614,0.345,17.886,3.918,26.75c-0.374,0.249-1.104,0.651-1.073,0.725
	c2.757,6.406,5.573,12.786,8.385,19.168c2.052,3.145,4.104,6.29,6.432,9.858c-3.85-2.825-7.465-5.477-11.079-8.129
	c-0.312,0.432-0.625,0.865-0.938,1.297c4.872,3.532,9.479,7.526,14.673,10.493c8.931,5.103,18.463,9.173,27.276,14.456
	c4.719,2.828,8.463,7.282,13.23,11.52c-2.107-6.368,0.741-13.23-4.519-18.447c-9.864-9.783-19.673-19.621-29.505-29.436
	c-0.512,0.453-1.024,0.906-1.536,1.359c8.778,10.518,17.556,21.035,26.432,31.672c-6.98-3.995-13.653-7.516-20.011-11.536
	c-6.551-4.143-12.793-8.772-19.171-13.189C565.663,558.38,562.968,552.244,560.274,546.108z M547.052,761.889
	c-1.719-1.146-3.319-2.555-5.176-3.394c-8.08-3.65-16.235-7.133-24.363-10.677c-0.197,0.472-0.394,0.944-0.591,1.415
	c10.081,4.173,20.163,8.346,30.244,12.518c-1.224,1.243-2.449,2.486-3.684,3.739c-2.874-1.392-5.749-2.783-8.623-4.174
	c-0.263,0.409-0.526,0.817-0.789,1.226c1.56,1.974,3.12,3.948,4.454,5.636c2.036-1.133,3.583-1.994,5.131-2.855
	c-0.745,1.042-1.732,1.993-2.17,3.151c-0.486,1.283-0.47,2.755-0.672,4.145c0.766,0.342,1.532,0.685,2.298,1.027
	c1.294-1.72,2.347-3.712,3.924-5.114c7.776-6.912,15.691-13.668,23.557-20.48c-4.793,5.426-9.586,10.851-14.733,16.677
	c1.504,0.099,2.187,0.144,3.078,0.203c-1.817,3.435-3.762,6.567-5.115,9.936c-0.558,1.39-0.475,3.802,0.396,4.873
	c4.583,5.637,9.511,10.994,14.189,16.3c6.738-3.548,10.378-11.454,9.634-19.536c-0.427-4.639-0.84-9.289-0.993-13.943
	c-0.222-6.759,1.482-8.098,8.3-7.671c18.293,1.147,36.496,2.655,53.743,10.472c-2.891-3.755-5.854-7.377-9.599-9.776
	c-11.196-7.172-22.653-13.947-34.148-20.634c-1.29-0.75-3.777-0.514-5.199,0.234c-4.319,2.272-8.389,5.02-12.555,7.582
	c4.898-4.229,9.795-8.459,14.203-12.265c-0.941-1.16-2.497-3.08-4.382-5.405c-4.36,3.29-9.054,6.22-13.006,9.937
	C565.093,743.794,556.136,752.927,547.052,761.889z M96.424,490.4c1.613-3.535,3.226-7.069,4.839-10.604
	c-0.23-0.134-0.46-0.269-0.69-0.403c-11.773,16.438-23.547,32.875-35.32,49.313c3.48-2.496,6.239-5.547,8.74-8.796
	c7.591-9.858,15.083-19.792,22.614-29.696c0.048,0.607,0.096,1.213,0.26,3.271c1.777-2.331,2.885-3.785,4.393-5.762
	c-0.366,2.529-0.613,4.24-1.007,6.964c4.91-5.812,9.134-10.811,13.358-15.81c-2.29,4.077-4.579,8.155-6.869,12.232
	c0.315,0.268,0.63,0.537,0.945,0.805c16.927-28.4,43.726-46.324,68.678-66.466c-3.444,1.408-6.889,2.816-10.333,4.224
	c5.322-3.663,10.644-7.326,15.965-10.989c-6.434,1.578-12.518,3.751-18.598,5.933c-27.352,9.815-47.499,27.461-59.488,54.213
	C102.056,482.966,98.957,486.548,96.424,490.4z M683.299,606.475c-1.432-5.337-2.865-10.673-4.297-16.01
	c-1.111-1.845-2.452-3.591-3.294-5.551c-4.289-9.979-10.382-18.511-18.742-25.579c-9.27-7.838-18.155-16.132-27.219-24.215
	c-0.754-0.672-1.592-1.25-2.72-2.128c0.182,2.88,0.325,5.149,0.496,7.847c-7.667-9.423-12.27-32.978-8.823-43.74
	c0.224-0.699,0.279-1.452,0.628-3.347c-0.955,1.597-1.274,2.161-1.624,2.705c-0.265,0.411-0.569,0.797-0.856,1.194
	c-0.243-0.118-0.486-0.235-0.729-0.353c1.573-4.99,3.146-9.981,4.718-14.971c-6.562,10.202-8.539,21.479-7.932,33.292
	c0.627,12.187,6.392,22.165,13.798,31.436c1.625,2.033,2.771,4.46,4.05,6.753c0.564,1.011,0.617,2.477,1.403,3.167
	c5.352,4.698,10.833,9.248,16.289,13.827c0.335,0.281,0.809,0.394,1.385,0.663c-0.408-1.142-0.733-2.052-1.058-2.964
	c0.361-0.309,0.722-0.618,1.084-0.927c7.197,6.376,14.822,12.34,21.472,19.242c6.937,7.2,8.795,16.987,10.723,27.586
	C682.588,610.994,682.943,608.734,683.299,606.475z M411.545,284.818c0.543-0.557,1.085-1.114,1.628-1.671
	c1.658-1.838,3.315-3.676,5.031-5.579c-11.683,1.446-22.916,2.661-34.093,4.266c-13.207,1.897-26.377,3.983-36.299,14.402
	c-4.706,4.942-9.479,9.906-14.773,14.176c-4.441,3.582-9.672,6.189-14.576,9.19c-1.524,0.933-3.384,1.468-4.64,2.661
	c-4.687,4.451-9.163,9.124-13.768,13.663c-2.505,2.469-5.11,4.837-7.669,7.251c18.895-11.8,37.489-23.773,56.033-35.822
	c8.825-5.734,18.498-8.774,28.883-10.194C389.542,295.488,402.408,295.228,411.545,284.818z M229.393,536.035
	c-0.748-0.306-1.495-0.612-3.013-1.233c4.71-3.261,8.703-6.882,13.373-9.028c5.068-2.328,10.766-3.289,16.192-4.837
	c5.864-1.673,11.731-3.335,17.596-5.002c-10.607-0.3-20.488,5.797-31.245,3.032c-0.124-1.871-0.216-3.265-0.416-6.282
	c-25.484,11.828-50.139,23.272-74.795,34.716c47.377-4.512,93.573-1.33,138.605,14.137c-6.315-3.602-12.669-6.858-18.951-10.249
	c-1.682-0.908-2.987-2.809-4.726-3.27c-17.773-4.71-35.831-7.276-54.275-6.708c-2.704,0.083-5.422-0.306-8.133-0.476
	c-0.023-0.37-0.047-0.74-0.07-1.11c3.295-1.271,6.589-2.541,9.884-3.812c3.22,0.157,6.482,0.715,9.649,0.378
	c4.895-0.521,9.725-1.654,14.582-2.527c-0.081-0.386-0.161-0.771-0.242-1.157C245.403,533.75,237.398,534.893,229.393,536.035z
	 M537.518,445.086c0.197-0.447,0.504-0.876,0.577-1.342c3.499-22.329,11.388-42.125,28.486-58.191
	c15.565-14.625,20.157-33.312,14.347-54.01c-8.895,4.419-13.098,11.243-12.639,21.327c0.161,3.549-1.561,7.611-3.534,10.738
	c-3.619,5.735-7.963,11.029-12.196,16.355c-2.919,3.674-6.16,7.092-9.257,10.625c0.18,0.148,0.359,0.296,0.539,0.445
	c1.219-0.727,2.439-1.455,2.822-1.683c-5.306,11.391-10.802,23.188-16.801,36.068c2.17-1.326,3.146-1.922,4.75-2.902
	c-1.412,3.553-2.546,6.291-3.595,9.062c-5.713,15.085-5.325,29.555,4.017,43.309c2.413,3.552,4.256,7.521,6.079,11.43
	c0.807,1.729,1.057,3.766,1.31,5.696c0.662,5.057,1.186,10.132,1.765,15.2c6.87-15.587,9.61-31.413,4.481-47.906
	c0,1.468,0,2.936,0,4.404c-0.238,0.02-0.476,0.04-0.714,0.06c-0.659-3.159-1.319-6.317-1.978-9.476
	c-0.38,0.058-0.759,0.115-1.139,0.173c0.797,8.317,1.594,16.633,2.531,26.424c-1.962-3.552-3.212-5.814-4.461-8.075
	c-0.473,0.786-1.001,1.664-1.763,2.93c-4.392-10.291-4.314-20.517-3.537-30.824L537.518,445.086z M486.284,630.607
	c6.36-7.985,5.587-19.62-1.935-29.14c-1.662-2.989-3.324-5.978-4.986-8.967c8.199,7.696,13.065,17.239,15.786,29.003
	c0.093-12.166-3.933-21.817-11.924-29.495c-7.908-7.597-16.351-14.643-24.685-21.784c-0.904-0.775-2.651-0.824-3.995-0.787
	c-9.977,0.276-19.958,1.085-29.923,0.915c-18.424-0.313-29.012,12.714-24.676,30.657c1.241,5.135,3.651,8.704,8.14,11.806
	c6.519,4.505,12.922,9.558,18.164,15.455c10.931,12.297,25.103,15.758,40.371,15.908c9.763,0.096,17.762-6.285,19.807-13.773
	L486.284,630.607z M644.893,469.024c-0.754,1.396-2.046,2.743-2.178,4.195c-1.107,12.149-1.776,24.431,3.183,35.898
	c3.684,8.518,8.854,16.384,12.767,24.816c2.315,4.991,3.472,10.519,5.15,15.806c-0.455,0.144-0.91,0.287-1.365,0.431
	c-15.371-21.925-26.631-45.11-21.508-73.854c-12.498,14.381-12.527,29.955-8.388,46.364c-1.406-2.837-2.812-5.673-4.62-9.321
	c-1.253,6.568-0.313,11.549,3.867,15.569c9.598,9.23,19.179,18.482,28.944,27.534c2.945,2.73,6.921,4.416,9.617,7.328
	c3.235,3.495,5.643,7.764,8.344,11.742c3.525,5.192,6.985,10.429,10.746,16.055c0.135-13.576-3.993-25.737-7.5-38.251
	c1.533,2.426,3.065,4.851,4.806,7.605c0-4.048,0-7.412,0-10.775c1.484,7.361,4.27,14.203,6.371,21.249
	c3.64,12.206,7.468,24.411,10.046,36.859c1.878,9.067,1.871,18.524,2.704,27.807c1.809-4.823,3.197-9.734,4.331-14.703
	c2.588-11.342-0.182-22.315-2.636-33.288c9.743,18.513,8.081,37.271,1.077,56.16c10.256-18.572,10.625-37.938,4.64-58.079
	c2.695,3.678,5.105,6.966,7.604,10.376c0.654-1.518,1.218-2.829,1.794-4.167c0.74,0.654,1.411,1.246,2.617,2.31
	c-0.891-2.688-1.519-4.581-2.147-6.475c0.428-0.133,0.857-0.266,1.285-0.399c1.907,5.636,3.813,11.273,5.989,17.705
	c0.49-14.291-3.21-26.363-11.571-36.993c-4.418-5.617-8.937-11.167-13.062-16.994c-1.939-2.739-3.055-6.061-4.544-9.119
	c0.169-0.03,0.339-0.061,0.508-0.091c7.459,9.094,14.918,18.188,22.376,27.282c0.364-0.214,0.728-0.429,1.092-0.643
	c-5.212-10.385-10.424-20.77-15.636-31.155c0.138-0.077,0.276-0.154,0.415-0.231c2.57,3.234,5.14,6.469,7.709,9.703
	c-4.765-10.914-10.034-21.411-15.092-32.008c-1.413-2.96-3.779-6.721-2.973-9.24c2.159-6.75-2.821-9.273-5.607-13.16
	c4.332,11.572-2.711,21.934-2.799,34.024c-0.906-1.658-1.186-2.17-1.779-3.256c-0.602,3.154-1.087,5.701-1.573,8.248
	c-0.193-0.011-0.387-0.021-0.58-0.032c0-4.536,0-9.071,0-13.607c-0.257-0.013-0.513-0.026-0.77-0.038
	c-0.774,6.452-1.549,12.904-2.323,19.356c-0.318-0.037-0.635-0.075-0.953-0.112c0.76-9.681,1.52-19.362,2.28-29.043
	c-0.332-0.027-0.665-0.055-0.997-0.082c-1.545,12.479-3.09,24.957-4.707,38.021c0-7.898,0-15.195,0-21.018
	c-1.114,8.756-2.412,18.96-3.794,29.83c0-7.281,0-13.857,0-21.255c-0.646,2.366-1.072,3.93-1.499,5.493
	c-0.379-0.053-0.759-0.106-1.138-0.16c0-14.409,0-28.817,0-43.226c-0.338-0.001-0.676-0.003-1.015-0.004c0,5.136,0,10.271,0,15.407
	c-0.185,0.006-0.37,0.012-0.555,0.019c-0.579-4.861-1.158-9.723-1.736-14.584c-0.322,0.029-0.644,0.059-0.967,0.088
	c0.835,13.847,1.67,27.693,2.505,41.54c-2.061-15.062-1.904-30.418-8.356-44.476c0,10.695,0,21.454,0,32.079
	c-2.167-5.321-4.47-10.974-6.773-16.628c-0.495,0.183-0.991,0.367-1.486,0.55c3.26,10.697,6.521,21.394,9.781,32.091
	c-0.546,0.155-1.092,0.31-1.638,0.465c-3.827-12.867-7.612-25.746-11.52-38.588c-0.717-2.355-1.677-4.718-2.966-6.804
	c-5.482-8.869-6.663-18.257-3.918-28.262c2.075-3.855,4.15-7.71,6.225-11.565c0.541,0.192,1.082,0.384,1.622,0.576
	c-4.352,10.157-6.908,20.431-2.683,31.641c-0.185-17.494,7.84-35.554,17.457-39.406c-2.569,3.698-5.33,7.077-7.408,10.833
	c-1.997,3.608-3.288,7.607-4.889,11.434c0.175,0.034,0.349,0.068,0.524,0.103c2.234-2.794,4.468-5.589,6.702-8.383
	c0.384,0.241,0.768,0.483,1.151,0.724c-0.288,1.945-0.575,3.889-0.959,6.486c12.134-18.086,12.237-18.2,16.815-19.061
	c-3.353,4.568-6.914,9.418-10.474,14.268c0.732,0.663,1.463,1.326,2.195,1.989c4.758-5.523,9.515-11.047,14.273-16.57
	c0.306,0.311,0.611,0.622,0.917,0.933c-0.6,0.873-1.2,1.747-2.391,3.481c2.348-1.124,3.787-1.813,5.225-2.502
	c-0.249,0.982-0.779,1.374-1.22,1.849c-0.332,0.357-0.549,0.819-1.25,1.904c11.598-4.875,22.915-8.548,29.659-19.527
	c-6.25,3.351-12.148,6.513-18.045,9.674c-0.323-0.335-0.646-0.67-0.969-1.005c3.165-4.429,6.33-8.857,10.182-14.247
	c-4.832,0.555-8.418,0.966-12.044,1.382c0.314-1.191,0.551-2.091,0.97-3.678c-4.116,2.754-7.489,5.011-11.137,7.451
	c-0.21-1.394-0.32-2.131-0.495-3.292c-4.274,2.074-8.377,4.064-12.479,6.055c-0.111-0.236-0.221-0.472-0.332-0.707
	c2.768-2.637,5.535-5.274,8.302-7.911c-5.974,2.202-11.254,5.302-16.757,7.934c-9.737,4.657-14.857,13.064-18.598,22.517
	C644.094,464.225,644.843,466.763,644.893,469.024z M390.41,407.65c0.24-1.865,0.479-3.729,0.634-4.932
	c-1-0.686-1.735-1.191-2.583-1.773c-5.029,8.346-10.082,16.732-15.135,25.118c0.388,0.259,0.776,0.517,1.164,0.776
	c4.018-5.624,7.952-11.311,12.12-16.821c0.886-1.171,2.621-1.699,3.965-2.523c-0.698,1.91-1.127,3.979-2.141,5.703
	c-3.623,6.159-7.444,12.202-11.751,19.2c2.512-2.301,4.278-3.919,6.043-5.537c-4.247,6.623-9.121,12.541-14.007,18.449
	c-0.422,0.511-1.13,0.874-1.357,1.444c-3.308,8.31-10.355,13.176-16.912,18.504c-6.691,5.437-13.358,10.903-20.035,16.357
	c0.233,0.299,0.465,0.599,0.698,0.898c6.193-4.344,12.385-8.688,18.578-13.032c-5.604,6.098-11.374,11.817-17.216,17.461
	c-3.298,3.186-2.942,4.717,1.027,6.768c10.758,5.559,21.463,11.229,32.047,17.11c3.264,1.814,6.07,4.451,9.228,6.817
	c4.89-22.314,20.577-52.878,32.698-63.574c-4.43,7.72-9.081,14.824-12.729,22.409c-5.958,12.386-11.412,25.025-16.681,37.722
	c-0.798,1.924-0.319,5.532,1.039,7.016c13.037,14.25,26.416,28.186,39.635,42.27c3.492,3.72,6.693,7.664,12.673,4.496
	c0.923-0.489,2.446,0.152,4.874,0.384c-1.506-8.996-1.961-17.769-4.521-25.877c-7.772-24.615-13.606-49.408-11.1-75.452
	c0.686-7.125,2.044-14.185,3.094-21.275c0.535,0.092,1.07,0.184,1.605,0.276c-0.621,2.786-1.242,5.572-1.863,8.358
	c0.327,0.086,0.654,0.172,0.981,0.258c1.735-5.352,3.47-10.704,5.204-16.056c0.125,0.043,0.249,0.087,0.374,0.13
	c-0.964,7.424-1.928,14.847-2.893,22.271c0.617,0.143,1.235,0.286,1.852,0.429c2.448-7.347,4.896-14.694,7.344-22.041
	c0.254,0.079,0.508,0.158,0.762,0.236c-1.873,7.337-3.745,14.674-5.618,22.011c0.271,0.074,0.542,0.148,0.813,0.221
	c1.415-3.205,2.829-6.41,4.244-9.616c0.293,0.101,0.587,0.202,0.88,0.303c-0.255,2.421-0.509,4.842-0.764,7.263
	c0.265,0.049,0.531,0.098,0.796,0.148c1.43-3.108,2.86-6.216,4.321-9.391c-0.082,22.776-0.599,45.361,6.082,68.772
	c1.524-3.432,2.552-5.492,3.372-7.632c8.575-22.373,13.112-45.682,15.018-69.445c1.609-20.059,5.443-39.167,17.646-55.793
	c3.795-5.171,2.754-10.779,0.616-16.34c-0.146,2.293-0.292,4.586-0.438,6.878c-0.2,0.012-0.399,0.024-0.599,0.036
	c-0.838-6.677-1.676-13.354-2.514-20.031c-0.256,0.01-0.512,0.019-0.768,0.029c0,3.682,0,7.364,0,11.046
	c-0.166,0.001-0.333,0.003-0.499,0.005c-0.599-4.229-1.197-8.458-1.796-12.687c-0.205,0.016-0.41,0.033-0.615,0.049
	c0,6.152,0,12.304,0,18.455c-0.35,0.037-0.701,0.075-1.051,0.112c-1.524-11.072-3.049-22.143-4.717-34.261
	c-8.3,9.397-8.153,20.743-12.217,30.607c1.029-6.45,2.058-12.9,3.087-19.35c-0.244-0.053-0.488-0.106-0.731-0.159
	c-0.932,3.041-1.865,6.082-2.935,9.574c-0.275-1.487-0.471-2.547-0.79-4.274c-0.522,1.479-0.779,2.206-1.036,2.933
	c-0.176-0.069-0.353-0.138-0.529-0.207c0.304-2.912,0.609-5.824,0.913-8.736c-0.134-0.013-0.268-0.026-0.402-0.039
	c-2.317,9.692-4.634,19.384-6.951,29.077c-0.296-0.052-0.593-0.105-0.889-0.157c1.635-10.168,3.271-20.336,4.962-30.85
	c-2.549,6.457-4.962,12.568-7.565,19.161c0-14.593,0-28.719,0-41.783c-5.04,5.457-10.339,11.045-15.416,16.827
	c-0.929,1.058-1.402,2.926-1.331,4.383c0.325,6.709,0.918,13.404,1.414,20.104c-0.1,0.009-0.2,0.018-0.299,0.027
	c-0.897-4.096-1.795-8.191-2.692-12.287c-0.117,0.027-0.235,0.054-0.352,0.081c0.815,13.344,1.631,26.687,2.447,40.031
	c-0.101,0.007-0.203,0.014-0.304,0.021c-0.942-4.979-1.885-9.959-2.827-14.938c-0.497,1.191-0.56,2.336-0.487,3.473
	c0.594,9.284,1.343,18.561,1.73,27.853c0.091,2.177-1.018,4.404-1.575,6.608c0-9.364,0-18.727,0-28.091
	c-1.136,8.911-1.153,17.804-1.08,26.696c0.003,0.373,0.833,0.74,1.278,1.11c-0.896,6.283-1.793,12.567-2.852,19.992
	c0-18.483,0-35.738,0-52.993c-0.159-0.004-0.319-0.008-0.478-0.012c-0.151,1.735-0.301,3.469-0.568,6.539
	c-2.232-11.416-1.966-21.974-7.554-31.296c-1.163,5.682-1.401,11.203-4.616,16.424c-2.99,4.855-3.939,10.966-5.787,16.524
	c-0.223-0.054-0.446-0.108-0.668-0.162c0.341-2.013,0.682-4.026,1.023-6.04c-0.355-0.226-0.71-0.451-1.065-0.677
	c-3.538,4.448-7.321,8.729-10.515,13.412C392.191,401.629,391.535,404.799,390.41,407.65z M460.829,256.467
	c-0.236-0.146-0.472-0.292-0.707-0.438c-13.76,14.011-27.419,28.123-41.34,41.971c-4.223,4.201-8.886,8.098-13.836,11.403
	c-16.717,11.161-35.512,17.257-55.042,21.041c-17.903,3.469-35.583,7.383-50.633,18.417c-11.14,8.167-22.177,16.495-32.94,25.15
	c-8.281,6.66-17.302,11.611-27.267,15.257c-16.84,6.162-33.509,12.794-50.24,19.253c-0.851,0.329-1.613,0.888-2.416,1.34
	c0.107,0.235,0.214,0.469,0.321,0.704c14.495-5.028,28.99-10.056,43.485-15.084c0.114,0.306,0.228,0.613,0.342,0.919
	c-10.012,4.154-20.025,8.307-30.037,12.461c21.299-6.346,42.772-12.118,62.708-22.34c-3.642,3.046-8.305,4.831-11.459,8.081
	c-8.583,8.844-18.901,14.798-30.034,19.416c-6.572,2.725-13.533,4.54-20.375,6.577c-13.864,4.128-27.471,11.822-33.744,18.985
	c6.289-2.559,13.028-5.829,20.1-8.034c7.266-2.266,14.805-3.779,22.314-5.122c28.138-5.03,54.137-14.746,76.243-33.514
	c18.75-15.919,40.735-25.634,64.164-32.144c14.224-3.953,28.729-6.89,43.07-10.434c3.534-0.873,6.963-2.227,10.366-3.552
	c3.355-1.307,6.615-2.858,9.646-4.184c-15.32,3.424-30.778,6.879-46.236,10.333c-0.143-0.567-0.285-1.134-0.428-1.701
	c5.223-1.344,10.445-2.687,17.086-4.395c-11.834,1.399-22.161,2.619-32.488,3.84c-0.014-0.237-0.029-0.475-0.043-0.712
	c12.253-3.661,24.507-7.322,36.76-10.983c-0.118-0.395-0.235-0.789-0.353-1.184c-7.613,2.001-15.225,4.003-22.838,6.004
	c1.02-1.53,2.326-2.1,3.663-2.587c10.389-3.78,20.293-7.785,29.3-15.027c16.011-12.874,32.127-25.224,43.397-42.889
	C447.273,273.993,454.297,265.387,460.829,256.467z M212.694,496.504c0.117,0.519,0.235,1.038,0.352,1.557
	c-25.842,5.564-51.093,12.942-75.751,22.602c-17.307,6.781-60.035,36.977-66.355,42.728c16.981-6.054,33.622-11.987,50.263-17.919
	c-15.175,7.066-30.767,13.211-44.543,25.059c13.743-4.542,26.168-9.199,38.91-12.702c12.315-3.386,25.412-4.321,37.338-8.627
	c14.291-5.16,27.792-12.571,41.477-19.328c22.288-11.006,44.647-22.163,69.749-24.605c15.148-1.473,30.518-0.708,45.789-0.812
	c2.465-0.017,4.934,0.682,7.402,1.045c2.283,0.336,4.567,0.666,8.149,1.188c-1.507-0.929-1.756-1.171-2.05-1.252
	c-28.932-7.972-58.195-13.905-88.362-14.143c-24.924-0.196-49.398,2.977-73.285,10.186c-9.988,3.014-19.756,6.611-28.946,13.063
	C159.912,508.426,186.303,502.465,212.694,496.504z M603.611,529.214c0.549-0.173,1.098-0.345,1.647-0.518
	c-0.957-4.507-2.435-8.977-2.755-13.528c-0.53-7.566-0.877-15.231-0.238-22.764c0.508-5.984,0.639-11.714-2.438-16.876
	c-5.006-8.4-10.107-16.784-15.784-24.734c-5.507-7.712-10.19-15.652-12.457-24.811c5.259,7.642,10.505,15.265,16.537,24.03
	c-4.405-10.738-8.361-20.013-12.005-29.409c-1.993-5.139-1.936-10.42,0.56-15.509c2.041-4.162,4.066-8.331,6.099-12.497
	c-0.132,2.153-0.681,4.185-1.467,6.122c-2.977,7.339-2.838,14.591,0.762,21.628c4.315,8.435,8.832,16.767,13.276,25.137
	c0.104,0.195,0.374,0.301,0.58,0.459c0.239-0.738,0.462-1.429,0.792-2.451c0.562,1.01,0.873,1.569,1.184,2.128
	c0.182-0.093,0.364-0.185,0.546-0.278c-3.65-9.723-7.301-19.446-10.951-29.168c-0.176,0.036-0.353,0.071-0.529,0.107
	c0.677,3.156,1.355,6.313,2.032,9.469c-0.682-0.462-0.99-1.025-1.26-1.605c-4.512-9.694-2.112-19.64-0.905-29.485
	c1.26-10.272,2.907-20.496,4.384-30.742c-0.569-0.117-1.138-0.235-1.708-0.352c-6.284,18.659-17.54,34.522-27.864,50.958
	c-3.683,5.864-5.735,12.817-8.055,19.439c-0.881,2.516-0.849,5.561-0.486,8.264c0.863,6.414,2.196,12.764,3.297,19.147
	c2.953,17.133-1.552,33.309-6.201,49.513c-1.821,6.346-2.965,12.887-4.417,19.339c0.483,0.099,0.966,0.198,1.449,0.297
	c0.197-0.949,0.393-1.897,0.792-3.819c0,4.705-0.426,8.411,0.124,11.967c0.515,3.332,1.93,6.557,3.196,9.731
	c1.266,3.173,2.837,6.223,4.274,9.327c0.506-0.144,1.012-0.288,1.518-0.432c-6.595-15.113-6.097-30.196-0.922-46.024
	c2.889,5.171,5.366,9.604,7.843,14.037c0.946-14.257,7.533-28.602-2.924-41.395c2.237,2.45,4.474,4.901,6.968,7.633
	c1.231-8.66-1.463-15.788-4.172-22.998c-2.593-6.904-5.321-13.888-3.898-21.556c2.177,4.389,3.66,8.986,5.647,13.354
	c2.057,4.524,4.476,8.899,6.972,13.203c2.319,3.998,4.948,7.816,7.441,11.713c0.215-0.141,0.431-0.282,0.646-0.424
	c-1.295-4.29-2.591-8.581-3.886-12.871c2.34,1.801,3.643,4.038,4.974,6.258c2.505,4.18,7.945,6.161,8.462,11.951
	c0.223,2.493,1.717,4.872,2.633,7.302c0.323-0.129,0.647-0.258,0.971-0.387c-1.854-7.269-3.708-14.537-5.561-21.806
	c1.584,0.834,2.303,1.926,2.958,3.056c5.484,9.47,7.266,19.84,8.194,30.611C600.073,515.776,602.184,522.465,603.611,529.214z
	 M426.288,651.07c0.281-0.385,0.561-0.771,0.842-1.156c-31.205-33.253-67.933-58.905-109.803-77.167
	c-42.535-18.552-87.347-24.209-133.266-20.688c-72.681,5.573-112.052,26.56-128.99,38.816c1.902-0.815,2.804-1.115,3.624-1.566
	c23.476-12.917,48.456-21.755,74.613-27.306c9.739-2.067,19.623-4.679,29.516-1.41c3.014,0.996,6.588,3.35,7.79,6.031
	c1.658,3.697-2.088,6.093-5.004,8.107c-0.139,0.096-0.018,0.568-0.018,0.869c7.256,0.892,11.498-2.961,12.124-11.755
	c0.573,1.407,0.946,2.324,1.319,3.24c0.721-8.562,4.41-12.178,11.117-10.92c-5.384,5.419-6.928,9.702-4.649,12.891
	c2.07,2.895,7.514,3.824,11.666,1.99c-4.145-3.719-3.886-7.046,1.031-9.534c5.032-2.547,10.29-3.552,15.897-1.542
	c1.515,0.543,3.821,0.83,4.992,0.061c6.65-4.371,13.601-3.921,20.798-2.367c-2.733,2.016-5.281,3.895-7.829,5.775
	c6.45-0.51,12.384-2.285,19.177,1.435c-4.002,3.814-7.666,7.306-11.33,10.798c0.255,0.564,0.51,1.128,0.765,1.693
	c12.597-6.6,25.139-13.481,39.231-9.277c-2.812,0-6.341-0.323-9.756,0.158c-1.382,0.194-3.392,2.02-3.573,3.318
	c-0.319,2.283-1.489,5.71,2.676,6.3c3.569,0.506,7.162,0.847,10.744,1.261c0.033-0.181,0.066-0.362,0.099-0.544
	c-2.98-1.138-5.96-2.276-9.187-3.509c7.006-6.064,30.636-5.14,40.97,0.916c-9.336-0.743-19.181-1.526-29.247-2.328
	c3.623,3.519,6.602,6.412,9.634,9.357c7.895-5.344,15.977-0.993,24.988-0.251c-2.231,1.814-3.529,2.87-4.827,3.925
	c0.047,0.495,0.093,0.99,0.14,1.485c17.166-3.017,31.918,2.207,45.354,11.164c-1.84,2.136-3.135,3.64-4.43,5.143
	c1.763,1.342,3.344,3.418,5.319,3.91c17.061,4.247,31.304,13.685,44.95,24.156C411.465,638.463,418.79,644.88,426.288,651.07z
	 M479.888,280.664c-1.76,9.698,1.44,17.138,8.886,22.533c7.364,5.335,11.984,12.019,13.943,21.025c0.874,4.02,3.44,7.88,5.967,11.27
	c2.311,3.1,5.756,3.103,7.675-0.592c2.036-3.92,3.732-8.131,4.814-12.407c1.646-6.507,4.683-11.413,10.013-15.963
	c6.245-5.331,10.816-12.621,16.314-19.306c-3.712-1.738-6.15-2.88-8.587-4.021c0.082-0.235,0.164-0.469,0.246-0.704
	c1.48,0.295,2.96,0.59,3.117,0.621c-4.982-5.619-10.536-11.882-16.47-18.574c-0.128,2.296-0.223,4.798-0.415,7.293
	c-0.312,4.052-0.833,8.094-0.985,12.151c-0.111,2.977,0.078,5.988,0.411,8.953c0.308,2.741,1.847,5.656,1.237,8.091
	c-0.526,2.099-3.064,4.207-5.22,5.149c-0.956,0.418-3.613-1.702-4.723-3.232c-4.583-6.318-8.796-12.902-13.285-19.29
	c-4.271-6.078-4.545-10.743-0.663-17.088c0.944-1.543,1.959-3.042,3.067-4.755c-4.503-0.05-5.393-3.126-5.854-6.352
	c-0.567-3.975-0.305-7.899,3.98-9.801c3.015-1.338,6.272-2.131,9.428-3.146c6.074-1.954,6.497-3.203,3.125-8.318
	c-3.249,0.487-6.37,1.559-9.353,1.258c-4.371-0.442-7.049,1.328-8.81,4.866c-1.842,3.701-4.249,7.421-4.868,11.373
	c-1.836,11.726-4.728,23.484-2.46,35.72c-1.895-3.344-3.862-6.875-4.049-10.498c-0.428-8.3-0.184-16.654,0.159-24.97
	c0.298-7.215,2.434-13.571,8.943-18.002c3.531-2.403,6.359-5.838,9.504-8.808c-0.352-0.353-0.703-0.707-1.055-1.06
	c-14.415,7.659-20.695,15.577-20.549,28.82c0.166,15.039-1.599,30.22,2.731,45.051c-0.494,0.109-0.989,0.218-1.483,0.327
	C483.077,292.53,481.533,286.784,479.888,280.664z M386.159,559.736c0.156-0.61,0.311-1.22,0.467-1.829
	c-0.652-0.691-1.211-1.514-1.97-2.055c-17.501-12.453-35.102-24.768-52.504-37.359c-6.414-4.641-12.945-5.126-20.142-2.411
	c0.614,0.338,1.129,0.622,1.082,0.596c-14.774,4.56-29.875,9.249-44.996,13.875c-7.78,2.38-15.594,4.646-22.002,6.55
	c22.582,3.021,46.136,6.173,67.684,9.056c-2.385-1.02-6.676-2.856-10.022-4.287c11.475,0.711,23.715,2.213,35.92,1.967
	c8.356-0.168,15.767,1.096,22.867,5.312c5.582,3.313,11.242,6.519,17.044,9.421C381.495,559.527,383.953,559.38,386.159,559.736z
	 M265.592,434.182c3.58-3.813,7.725-7.243,10.631-11.515c7.416-10.902,17.214-18.839,28.601-25.123
	c8.156-4.501,16.252-9.115,24.305-13.797c2.672-1.553,5.129-3.476,8-5.447c-0.935-0.419-1.23-0.682-1.46-0.634
	c-2.111,0.438-4.251,0.798-6.307,1.427c-21.94,6.711-39.152,20.881-55.879,35.724c-8.701,7.722-17.148,15.736-25.573,23.762
	c-7.894,7.521-15.608,15.232-22.834,22.305c3.276-0.434,7.617-1.867,11.692-1.32c4.525,0.607,7.275-1.586,10.394-3.711
	c12.666-8.631,25.465-17.065,40.086-22.093c12.452-4.282,23.44-11.038,33.641-19.181c5.33-4.255,10.469-8.749,15.694-13.134
	c-0.174-0.215-0.348-0.429-0.522-0.644c-1.659,0.512-3.319,1.025-4.185,1.292c3.296-4.217,6.872-8.791,10.447-13.366
	c-0.478-0.536-0.957-1.073-1.435-1.609c-2.034,0.842-4.334,1.322-6.056,2.587c-9.659,7.097-19.098,14.494-28.782,21.557
	c-4.74,3.457-9.846,6.413-14.786,9.596c-0.255-0.337-0.509-0.674-0.764-1.011c2.5-2.767,5-5.533,7.501-8.3
	c-0.189-0.177-0.377-0.355-0.566-0.532c-2.046,1.072-4.092,2.144-6.137,3.215c-0.161-0.279-0.322-0.557-0.483-0.836
	c3.913-3.323,7.827-6.646,12.13-10.3C285.992,408.723,279.255,425.52,265.592,434.182z M449.205,229.108
	c-0.11-0.342-0.22-0.684-0.33-1.026c-7.953,2.128-15.803,4.874-23.887,6.208c-7.941,1.31-16.119,1.186-24.193,1.691
	c-0.018-0.425-0.036-0.85-0.054-1.276c1.403-0.809,2.807-1.619,5.03-2.901c-7.846,0-14.748,0.147-21.641-0.029
	c-18.064-0.462-36.056-0.208-52.599,8.362c-19.081,9.886-32.803,25.16-43.114,43.817c-3.847,6.961-8.248,13.624-12.599,20.292
	c-1.406,2.154-3.456,3.887-5.212,5.812c3.244-1.132,5.96-2.765,8.222-4.883c11.662-10.921,23.458-21.717,34.723-33.038
	c11.654-11.712,24.479-20.75,41.225-23.628c15.768-2.71,32.173-1.435,47.374-8.04c3.739-1.625,8.512-0.749,12.757-1.375
	c2.821-0.416,5.991,0.525,8.299-2.659c0.842-1.162,3.806-0.648,5.713-1.202C435.703,233.262,442.447,231.16,449.205,229.108z
	 M476.705,678.596c0.224-1.305,0.368-2.149,0.513-2.992c1.017,0.366,2.492,0.428,2.971,1.151c1.829,2.76,3.307,5.751,4.973,8.621
	c1.709,2.943,3.622,3.293,5.635,0.273c0.525-0.787,0.944-1.645,1.922-3.374c0.333,2.146,0.508,3.277,0.741,4.782
	c6.988-3.922,13.652-7.459,14.59-16.275c0.191-1.793,0.87-3.541,1.386-5.292c1.133-3.845,3.862-4.973,7.365-3.671
	c15.163,5.634,30.271,11.413,45.438,17.153c-0.835-1.128-1.81-2.755-3.078-4.108c-7.626-8.138-15.227-16.304-23.018-24.283
	c-7.435-7.614-7.669-7.756-16.859-2.437c-4.034,2.335-6.803,1.574-9.372-1.599c-3.977-4.91-7.791-9.952-11.657-14.951
	c-1.309-1.693-2.566-3.426-3.55-4.743c-0.066,0.523,0.009,1.761-0.394,2.816c-2.059,5.386,0.017,8.658,4.766,11.447
	c4.93,2.896,9.397,6.581,14.067,9.92c-0.073,0.496-0.147,0.992-0.22,1.488c-3.288-0.432-6.577-0.864-10.018-1.317
	c-4.892,13.446-19.672,14.352-29.936,21.659C474.273,674.865,475.339,676.501,476.705,678.596z M593.839,546.926
	c-8.822-3.785-13.14-10.994-18.782-17.428c1.735,9.082,5.301,14.57,14.598,21.201c12.729,9.078,25.781,17.702,38.528,26.755
	c11.433,8.12,20.533,18.441,23.548,32.369c1.96,9.056,1.688,18.595,2.353,27.106c5.726-8.685,7.163-19.407,4.66-30.665
	c-3.677-16.541-14.519-28.061-27.516-37.914c-5.264-3.991-10.624-7.856-15.94-11.779c1.859,2.566,3.905,4.75,5.953,6.933
	c2.031,2.164,4.064,4.326,6.096,6.489c-20.306-12.302-35.352-29.81-49.569-48.212C579.303,532.213,587.923,538.077,593.839,546.926z
	 M722.669,712.88c-3.456-3.294-7.314-6.261-10.294-9.94c-10.799-13.331-20.223-27.353-17.962-45.819
	c1.08-8.826,3.007-17.588,3.5-26.438c0.615-11.048,0.148-22.155,0.148-33.237c-2.613,10.908-4.728,21.64-6.467,32.433
	c-0.92,5.71-1.679,11.529-1.63,17.291c0.071,8.461,0.42,16.99,1.624,25.35c0.901,6.255,2.417,12.78,5.353,18.281
	c2.892,5.419,8.648,9.268,11.805,14.6C712.081,711.038,717.422,711.406,722.669,712.88z M631.743,769.859
	c-15.39-7.647-32.294-6.582-49.855-8.589c1.508,8.529,2.86,16.176,4.359,24.654c4.627-2.497,8.586-3.727,8.696-8.318
	c0.134-5.607,0.852-6.596,6.478-7.273c7.759-0.935,14.348,2.295,20.763,5.848c5.205,2.883,10.142,6.248,15.905,9.839
	c-3.12-6.478-10.775-9.306-11.02-17.247C628.921,769.203,630.332,769.531,631.743,769.859z M567.76,342.295
	c-7.909,6.257-32.129,34.397-32.475,37.767c2.777-2.211,5.434-4.325,8.091-6.44c-12.268,17.932-13.241,23.066-12.433,28.725
	C543.23,383.012,562.8,367.478,567.76,342.295z M359.972,272.369c16.624-8.218,34.212-5.719,51.842-4.603
	c-2.205,0.782-4.41,1.563-6.501,2.304c14.258,2.778,21.692-0.719,31.061-15.135c-14.678,9.924-32.612,9.376-50.746,8.996
	c0.571-0.221,1.141-0.443,1.822-0.707c-17.188-2.831-44.062,10.911-51.906,25.335c9.024-5.188,19.349-11.123,29.023-16.684
	C363.673,271.971,361.823,272.17,359.972,272.369z M133.23,580.664c6.052,1.547,11.497,0.356,16.218-3.346
	c2.159-1.693,2.077-3.938-0.32-5.269c-2.709-1.503-5.63-3.119-8.62-3.537c-12.715-1.781-24.618,2.195-36.491,5.943
	c-2.423,0.765-4.683,2.042-6.795,2.984c7.017,0.314,13.949,0.764,20.884,0.825c1.512,0.013,3.017-1.405,4.562-2.082
	c1.766-0.774,3.573-1.457,5.596-2.274c0.185,2.091,0.283,3.193,0.433,4.888c4.416-0.717,8.601-1.396,12.786-2.075
	c0.06,0.175,0.12,0.35,0.181,0.525C138.852,578.385,136.041,579.525,133.23,580.664z M477.381,789.198
	c0.269,0.693,0.538,1.386,0.807,2.079c4.574,1.857,9.074,3.946,13.764,5.437c1.513,0.481,4.464-0.009,5.159-1.087
	c4.188-6.489,8.069-13.197,11.627-20.052c0.556-1.072-0.681-3.635-1.811-4.818c-0.723-0.756-3.219-0.869-4.16-0.2
	C494.209,776.636,485.819,782.951,477.381,789.198z M115.954,649.817c-12.987-4.444-25.029-8.564-37.071-12.684
	c-0.115,0.33-0.229,0.66-0.344,0.99c9.676,4.475,19.352,8.951,29.585,13.684c-7.696,9.375-14.78,18.005-21.865,26.635
	c-0.632-0.338-1.263-0.675-1.895-1.013c2.124-6.263,4.249-12.525,6.256-18.444c-8.835,8.237-7.109,20.025-8.402,31.251
	C93.219,677.056,104.22,663.876,115.954,649.817z M748.899,707.822c-13.77-7.088-28.501-13.094-29.793-29.952
	c2.697,1.827,6.046,4.501,9.763,6.484c3.027,1.615,6.552,2.267,9.75,3.6c2.455,1.024,4.743,2.445,7.106,3.689
	c-0.263-1.264-0.873-1.844-1.592-2.213c-5.754-2.953-11.62-5.701-17.273-8.835c-6.727-3.731-7.901-7.12-5.619-14.358
	c1.4-4.44,2.757-8.894,4.134-13.342c-7.923,12.408-13.412,25.006-4.466,39.361C727.395,702.662,736.973,706.958,748.899,707.822z
	 M526.019,677.461c9.192,1.214,16.787,2.216,25.43,3.357c-12.894-4.313-24.859-8.315-37.859-12.664
	c-1.42,6.341-2.682,11.98-4.163,18.596c7.605-2.689,13.695-4.841,20.103-7.107C528.498,679.003,527.86,678.606,526.019,677.461z
	 M149.378,413.555c0.28,0.36,0.56,0.72,0.84,1.081c25.518-11.587,49.537-25.642,71.96-42.32c-0.325-0.541-0.651-1.082-0.976-1.622
	C197.26,384.98,173.319,399.268,149.378,413.555z M727.02,634.33c-0.286-0.035-0.572-0.07-0.858-0.106
	c-2.95,6.892-5.901,13.784-9.149,21.371c-0.541-1.629-0.779-2.343-1.258-3.787c-4.741,15.163-8.177,29.558,0.17,43.899
	c-3.077-14.948-0.918-29.234,4.912-43.227C723.289,646.593,724.982,640.389,727.02,634.33z M141.278,359.062
	c7.728,4.103,15.59,1.014,23.415-1.349c10.019-3.025,20.039-8.769,22.51-12.067C172.299,350.001,156.554,354.6,141.278,359.062z
	 M167.562,391.242c17.981-6.001,39.852-18.864,44.856-29.938C197.466,371.284,182.514,381.263,167.562,391.242z M591.794,524.291
	c-4.596-15.954-12-30.554-21.092-39.714c1.529,6.165,2.864,12.58,5.972,17.972C581.205,510.408,587.013,517.533,591.794,524.291z
	 M557.85,236.993c5.849,3.28,11.545,6.475,17.73,9.944c-4.061-1.099-7.772-2.104-11.916-3.226c8.411,6.243,22.425,6.51,27.757,0.33
	c-11.502-0.785-22.444-2.458-30.95-10.697C559.543,234.636,558.968,235.436,557.85,236.993z M596.091,731.44
	c17.745,10.925,34.955,21.521,52.165,32.117c0.12-0.165,0.239-0.331,0.359-0.496c-16.561-11.752-33.122-23.504-49.894-35.405
	C597.85,728.91,597.024,730.098,596.091,731.44z M80.156,448.414c7.271-8.298,15.553-17.75,23.399-26.704
	c-3.457,1.979-7.785,4.457-12.112,6.935c-0.17-0.173-0.34-0.347-0.509-0.52c3.654-3.105,7.308-6.211,10.752-9.137
	C92.365,421.656,82.803,435.143,80.156,448.414z M568.62,734.694c6.346-4.756,10.541-10.296,8.186-18.694
	c-0.658-2.348-0.126-5.003-0.529-7.453c-1.033-6.271-1.318-12.869-7.129-18.747c1.083,5.901,2.39,10.552,2.71,15.271
	C572.534,715.028,579.049,725.7,568.62,734.694z M697.616,486.877c2.766,2.016,5.654,1.044,8.376-2.71
	c5.869-8.092,5.959-10.071,0.638-15.721C703.78,474.274,700.761,480.445,697.616,486.877z M705.676,459.056
	c9.595,6.119,9.739,6.247,11.338,4.451c4.161-4.674,2.083-9.471,0.216-14.258C713.352,452.54,709.605,455.72,705.676,459.056z
	 M554.402,348.855c10.781-3.874,34.656-32.04,35.422-41.138C581.693,324.396,567.029,334.805,554.402,348.855z M531.465,774.823
	c0.399,5.888,24.325,35.082,30.766,38.857C551.929,800.669,541.697,787.746,531.465,774.823z M600.083,394.722
	c-8.566,7.881-10.851,19.329-6.667,27.152C595.447,413.6,597.638,404.677,600.083,394.722z M679.842,657.188
	c-1.677,16.183,8.931,38.437,20.389,42.758C688.038,688.089,682.118,673.507,679.842,657.188z M603.545,362.248
	c5.732,10.775,2.774,21.598-0.355,33.299C612.648,383.87,612.719,373.67,603.545,362.248z M561.008,316.956
	c-6.932,7.24-15.986,12.589-20.336,22.154C548.043,332.266,557.934,327.75,561.008,316.956z M437.157,647.846
	c18.201,11.619,44.894,4.936,51.716-7.823C473.792,653.825,458.547,655.717,437.157,647.846z M544.108,340.563
	c11.743-4.297,19.841-12.602,27.272-22.65C561.933,325.759,553.021,333.161,544.108,340.563z M646.238,782.767
	c-2.778,6.376-0.435,16.161,5.169,17.213c-0.237-2.746-0.01-5.395-0.775-7.718C649.545,788.961,647.729,785.9,646.238,782.767z
	 M466.724,680.552c-0.48,0.145-0.96,0.29-1.44,0.434c3.102,10.04,6.203,20.08,9.305,30.12
	C473.387,700.497,471.534,690.088,466.724,680.552z M770.736,778.453c-2.769-4.897-5.136-9.083-7.667-13.559
	C759.804,771.214,762.951,777.47,770.736,778.453z M363.47,590.713c0.319-0.448,0.637-0.896,0.956-1.344
	c-10.128-6.186-20.257-12.373-30.385-18.559c-0.249,0.405-0.498,0.809-0.746,1.214C343.353,578.254,353.412,584.484,363.47,590.713z
	 M156.394,578.876c2.574-2.415,6.304-4.64,6-5.865c-0.97-3.909-4.482-5.155-8.362-4.289
	C154.71,571.634,155.355,574.411,156.394,578.876z M578.694,285.271c-0.471-0.507-0.942-1.015-1.413-1.522
	c-6.828,6.039-13.657,12.079-20.485,18.118c0.329,0.382,0.657,0.763,0.986,1.145C564.752,297.098,571.723,291.184,578.694,285.271z
	 M732.604,759.857c0.857-0.521,1.715-1.042,2.572-1.563c-3.2-4.533-6.4-9.065-9.601-13.598c-0.699,0.473-1.397,0.945-2.096,1.418
	C726.521,750.695,729.562,755.276,732.604,759.857z M590.525,399.619c1.51-7.568,6.663-14.677,4.092-22.753
	c-0.532-0.063-1.064-0.126-1.597-0.189C592.188,384.324,591.356,391.971,590.525,399.619z M43.518,601.42
	c-5.44-5.784-9.567-0.906-14.928-0.757C33.789,605.321,37.975,602.943,43.518,601.42z M210.048,470.23
	c-0.136-0.313-0.272-0.625-0.407-0.938c-8.349,3.314-16.697,6.628-25.046,9.942c0.169,0.445,0.338,0.89,0.508,1.335
	C193.418,477.123,201.733,473.676,210.048,470.23z M525.142,713.412c0.702,0.076,1.403,0.152,2.105,0.227
	c2.99-4.141,1.44-8.727,0.863-13.217c-0.421-0.046-0.843-0.093-1.264-0.139C526.278,704.66,525.71,709.036,525.142,713.412z
	 M558.276,844.568c-2.272-3.307-4.545-6.615-7.003-10.191C548.975,841.287,553.137,843.316,558.276,844.568z M89.705,783.567
	c-0.714,0.533-1.833,1.369-2.404,1.794c0.999,2.059,1.811,3.733,2.866,5.907c1.873-0.931,4.167-2.071,6.663-3.311
	C94.173,786.32,92.299,785.166,89.705,783.567z M429.709,251.224c8.998-1.663,18.722-6.992,21.009-11.242
	C443.927,243.616,437.008,247.318,429.709,251.224z M607.947,532.996c-0.464,0.419-0.927,0.838-1.391,1.257
	c3.604,4.036,7.209,8.073,10.813,12.11c0.451-0.411,0.902-0.822,1.353-1.232C615.13,541.086,611.538,537.041,607.947,532.996z
	 M598.401,379.794c-1.674,5.24-3.348,10.48-5.022,15.721C596.004,390.562,601.073,386.347,598.401,379.794z M720.574,601.872
	c-0.205,0.038-0.41,0.077-0.615,0.115c0,9.324,0,18.648,0,27.972c0.205,0,0.41,0.001,0.615,0.001
	C720.574,620.597,720.574,611.234,720.574,601.872z M69.088,627.607c-0.359-0.399-0.717-0.798-1.076-1.196
	c-3.614,3.086-7.228,6.171-11.401,9.735c2.245,0.502,3.539,0.792,4.833,1.081c-0.323-0.388-0.646-0.776-0.969-1.164
	C63.346,633.244,66.217,630.425,69.088,627.607z M398.366,577.609c1.286-4.109,0.536-7.498-2.31-10.009
	c-0.452,0.183-0.904,0.366-1.355,0.549C395.922,571.302,397.144,574.455,398.366,577.609z M603.713,780.863
	c4.479-1.625,8.422-1.798,12.123,1.426c0.249-3.216-3.464-4.512-12.82-4.38C603.279,779.021,603.533,780.098,603.713,780.863z
	 M634.428,635.541c0.36,0.278,0.719,0.556,1.079,0.833c2.516-4.867,5.032-9.733,7.548-14.6c-0.405-0.206-0.81-0.412-1.216-0.618
	C639.369,625.951,636.898,630.746,634.428,635.541z M307.55,251.707c-0.035-0.037-0.069-0.074-0.104-0.112
	c-4.204,4.359-8.408,8.717-12.612,13.076c0.022,0.024,0.043,0.048,0.065,0.072C299.115,260.398,303.332,256.052,307.55,251.707z
	 M144.986,817.551c0.46,0.397,0.92,0.794,1.381,1.192c2.384-2.794,4.767-5.588,7.151-8.382c-0.541-0.45-1.082-0.9-1.622-1.35
	C149.592,811.857,147.289,814.704,144.986,817.551z M292.062,762.611c-0.318,0.652-0.635,1.303-0.953,1.955
	c2.594,1.33,5.188,2.66,7.783,3.991c0.265-0.539,0.53-1.077,0.795-1.616C296.298,767.294,296.019,761.051,292.062,762.611z
	 M127.433,775.628c-0.405-0.421-0.811-0.843-1.216-1.264c-2.76,2.458-5.52,4.915-8.28,7.372c0.344,0.386,0.689,0.772,1.034,1.158
	C121.791,780.472,124.612,778.05,127.433,775.628z"/>
<path d="M805.595,140.992c1.478,1.666,2.956,3.331,4.434,4.997c0.332-0.077,0.664-0.155,0.997-0.232
	c-1.398-5.411-2.796-10.821-4.193-16.232c0.433-0.114,0.865-0.227,1.298-0.341c2.409,9.127,4.928,18.226,7.2,27.387
	c2.881,11.618,0.529,22.279-5.756,32.418c-3.739,6.032-6.659,12.572-9.948,18.883c10.089-5.438,21.098-20.712,20.201-41.918
	c3.132,11.328,2.473,22.556-4.599,32.037c-7.411,9.935-16.153,18.891-24.523,28.084c-1.402,1.54-3.867,2.112-7.128,2.677
	c-1.423,26.067-3.063,52.126-4.135,78.207c-0.313,7.624-1.753,13.753-8.789,18.019c-4.517,2.738-8.549,6.391-12.402,10.051
	c-1.363,1.295-2.32,3.894-2.155,5.783c1.402,16.058,3.107,32.089,4.72,48.129c-0.464,0.061-0.927,0.121-1.391,0.182
	c-2.014-12.215-4.069-24.423-6.021-36.648c-0.787-4.925-1.708-9.875-1.841-14.834c-0.055-2.049,1.309-4.693,2.885-6.118
	c4.061-3.675,8.397-7.138,13.002-10.095c5.449-3.499,7.767-8.222,7.746-14.51c-0.036-10.807,0.285-21.621-0.018-32.419
	c-0.078-2.764-1.627-5.647-3.037-8.176c-2.261-4.055-5.076-7.799-7.428-11.808c-0.772-1.315-0.832-3.048-0.161-4.965
	c3.589,4.428,7.177,8.855,11.634,14.354c0.786-6.043,1.519-10.964,2.044-15.908c0.616-5.793,1.228-11.597,1.482-17.413
	c0.104-2.395-0.179-5.107-1.23-7.201c-5.98-11.921-12.538-23.506-22.28-32.89c-1.42-1.368-2.978-2.666-4.665-3.671
	c-8.545-5.091-16.931-10.517-25.794-14.992c-12.853-6.49-25.699-13.301-39.216-18.095c-18.653-6.615-36.825-13.934-54.07-23.705
	c-14.428-8.175-30.661-10.419-46.806-12.518c-5.267-0.685-10.618-0.729-15.893-1.331c23.028-1.285,45.788-1.352,65.993,12.607
	c5.987,4.136,12.891,6.027,20.53,5.663c-12.128-6.109-23.976-12.24-35.97-18.072c-11.64-5.66-23.345-11.2-35.173-16.451
	c-13.786-6.121-27.731-11.882-41.624-17.759c-1.037-0.438-2.212-0.548-3.995-0.969c0.684,1.348,1.097,2.161,2.214,4.363
	c-9.829-8.537-20.537-7.655-31.648-8.114c16.798,6.894,32.954,13.524,49.109,20.154c-0.182,0.441-0.363,0.882-0.545,1.324
	c-8.128-3.358-16.078-7.276-24.429-9.934c-10.869-3.459-21.991-6.212-33.138-8.658c-4.219-0.926-8.811-0.15-13.159,0.336
	c9.994,3.197,19.987,6.395,29.981,9.592c-0.097,0.458-0.195,0.916-0.292,1.375c-18.377-4.137-36.752-8.296-54.17-4.266
	c11.818,2.038,24.912,4.296,38.006,6.554c-0.071,0.502-0.143,1.003-0.214,1.505c-2.714-0.221-5.429-0.442-8.729-0.711
	c6.085,4.304,11.927,7.967,17.213,12.306c5.388,4.422,11.272,7.262,17.935,9.264c9.209,2.767,18.3,6.076,27.164,9.809
	c16.701,7.033,33.619,13.311,51.264,17.561c2.841,0.684,5.534,1.989,8.295,3.007c-0.118,0.446-0.236,0.892-0.354,1.339
	c-7.273-1.671-14.627-3.055-21.806-5.063c-31.964-8.94-63.785-18.415-95.866-26.908c-10.321-2.732-21.267-3.197-31.965-4.335
	c-2.114-0.225-4.405,1.216-6.614,1.889c0.052,0.578,0.105,1.156,0.158,1.734c26.495,4.535,52.991,9.07,79.486,13.605
	c-0.045,0.468-0.089,0.936-0.134,1.403c-1.399,0.179-2.799,0.358-4.225,0.541c9.922,2.894,20.516,4.301,29.415,8.952
	c15.308,8.001,31.637,8.472,47.905,9.265c14.111,0.688,27.176,4.198,39.8,10.002c7.836,3.603,15.561,7.454,23.264,11.335
	c1.816,0.915,3.344,2.399,5.005,3.621c-0.292,0.581-0.585,1.162-0.877,1.744c-9.966-4.222-19.931-8.443-29.897-12.665
	c16.949,12.022,35.139,20.643,56.364,21.118c-3.508,0.427-7.016,0.854-10.524,1.28c-0.005,0.196-0.011,0.391-0.016,0.587
	c3.27,0.204,6.541,0.408,9.811,0.613c-8.997,1.652-17.862,0.46-26.177-2.66c-15.823-5.937-31.37-12.609-47.033-18.973
	c-5.768-2.343-11.54-4.675-17.562-6.408c22.79,10.298,42.816,26.658,68.186,31.159c8.089,1.435,16.283,2.277,25.484,3.534
	c-10.665,1.76-20.357,1.913-29.955-0.437c-19.424-4.756-36.771-14.264-53.782-24.338c-13.577-8.041-27.694-13.932-43.502-16.27
	c-13.131-1.942-26-5.629-39.009-8.429c-7.677-1.652-15.401-3.083-23.104-4.613c-0.243,0.38-0.486,0.759-0.729,1.139
	c1.812,1.372,3.428,3.36,5.47,4.013c10.079,3.224,20.109,6.926,30.453,8.928c28.086,5.436,47.349,21.653,60.439,47.402
	c-2.333-2.255-4.02-3.971-5.802-5.584c-1.708-1.546-3.514-2.984-5.007-4.241c0,0.048,0,0.844,0,2.281
	c-2.804-3.187-5.186-5.893-8.295-9.427c1.285,4.414,2.279,7.831,3.516,12.078c-1.189-0.888-1.855-1.22-2.299-1.741
	c-5.618-6.594-11.34-13.105-16.757-19.861c-4.928-6.147-11.419-10.113-18.536-12.627c-8.538-3.015-17.471-4.91-26.233-7.29
	c-0.189,0.583-0.378,1.166-0.567,1.749c4.274,1.464,8.46,3.322,12.841,4.314c10.22,2.314,19.169,6.626,25.606,15.131
	c1.925,2.543,3.247,5.541,4.413,8.625c-6.692-6.466-12.876-13.353-23.157-13.21c3.06,1.897,6.121,3.795,9.182,5.692
	c-33.125-9.554-64.195-0.664-95.037,10.586c-0.166-0.748-0.333-1.496-0.499-2.244c16.906-5.66,33.813-11.321,47.432-15.881
	c-17.669,0.65-38.628,2.98-57.91,13.319c17.715-11.076,38.022-14.886,58.063-21.651c-4.479,0.235-8.225,0.432-11.971,0.629
	c-0.032-0.309-0.065-0.619-0.097-0.928c8.424-1.058,16.849-2.116,25.668-3.223c-5.002-5.436-11.044-7.023-17.617-7.798
	c-24.746-2.92-48.196,1.835-71.337,10.481c-20.193,7.545-40.859,13.824-61.3,20.711c-0.619,0.208-1.058,0.95-1.552,1.457
	c0.029,0.014,0.114,0.023,0.136,0.028c-8.6-2.854-17.101-6.185-25.878-8.443c-9.301-2.393-18.838-3.924-28.328-5.496
	c-3.295-0.546-6.757-0.087-10.653-0.087c2.334-13.937,8.384-25.291,15.327-36.225c11.587-18.248,23.301-36.416,34.98-54.605
	c11.732-18.271,27.189-32.227,47.372-40.63c2.521-1.05,5.225-1.659,8.096-1.694c-5.725,3.888-11.377,7.89-17.19,11.643
	c-14.364,9.272-25.91,21.273-34.897,35.756c-6.634,10.691-13.141,21.459-18.777,32.86c4.009-5.315,8.209-10.498,11.993-15.969
	c18.262-26.399,42.112-45.966,71.235-59.387c12.969-5.977,25.228-13.632,38.471-18.846c25.26-9.944,51.745-13.171,78.542-11.134
	c-7.898,0.888-16.076,1.807-24.254,2.726c0.025,0.094,0.051,0.188,0.076,0.283c8.311,0.413,16.656,1.465,24.919,1.009
	c5.234-0.289,10.684-2.129,15.455-4.464c32.393-15.857,63.282-10.66,92.473,7.533c13.179,8.214,24.672,19.141,36.896,28.879
	c8.948,7.129,17.701,14.585,30.482,16.488c-2.667-2.051-4.687-3.605-6.708-5.158c0.143-0.266,0.286-0.532,0.429-0.798
	c4.845,2.418,10.014,4.352,14.477,7.341c16.616,11.128,33.035,22.563,45.484,38.622c0.79,1.019,1.36,2.208,2.032,3.317
	c-0.568-0.351-1.135-0.702-1.702-1.053c-0.153,0.178-0.305,0.355-0.458,0.533c1.83,2.868,3.661,5.737,5.491,8.605
	c-1.434-0.912-2.868-1.823-5.035-3.201c1.848,10.044,10.192,13.791,15.61,21.527c-1.4-4.498-2.364-7.595-3.329-10.693
	c-1.189-9.128-6.362-16.421-12.281-22.694c-9.485-10.053-19.972-19.16-28.56-27.273c7.193,3.494,15.415,9.474,23.029,16.303
	c15.495,13.899,25.553,31.65,34.946,49.844c0.28,0.542,0.162,1.29,0.229,1.942c-0.28,0.509-0.865,1.066-0.794,1.52
	c1.044,6.683,2.222,13.346,3.267,20.029c0.512,3.273,0.818,6.578,1.218,9.869c1.523-2.478,1.905-4.91,2.398-7.318
	C813.195,155.104,808.482,148.287,805.595,140.992z M684.459,57.569c-8.235-4.599-16.471-9.199-24.706-13.798
	c17.498,15.183,37.911,25.306,58.998,34.263c0.168-0.525,0.336-1.049,0.505-1.574c7.076,2.692,14.152,5.384,21.228,8.076
	c-2.425-2.591-5.134-4.681-8.124-6.228c-13.966-7.225-26.365-16.45-38.071-27.006c-15.152-13.663-32.367-24.821-51.805-31.155
	c-14.705-4.791-30.239-7.036-45.404-10.414c-0.085,0.255-0.171,0.51-0.256,0.765c5.635,0,11.269,0,16.904,0
	c-17.556-3.624-34.269,0.038-50.756,5.647c3.013,0.183,5.984-0.147,8.961-0.229c10.115-0.279,20.517-2.04,30.272-0.271
	c10.562,1.916,21.114,6.058,30.617,11.182C650.439,36.324,667.29,47.242,684.459,57.569z M491.298,36.924
	c-1.47,0.167-3.031,0.069-4.397,0.539c-20.783,7.157-41.375,14.714-58.734,28.859c-3.029,2.468-6.198,4.763-9.302,7.138
	c9.261-3.694,17.535-9.419,26.698-12.481c9.566-3.196,19.988-3.828,30.036-5.581c0.106,0.563,0.212,1.125,0.317,1.688
	c-15.542,2.713-31.27,4.832-44.934,13.553c23.049-6.59,46.612-6.447,70.154-5.002c8.025,0.492,15.857,3.556,23.878,4.8
	c15.247,2.364,29.78,6.689,43.472,13.874c2.524,1.324,5.451,1.881,8.191,2.791c0.576-0.743,1.153-1.486,1.729-2.229
	c-6.495-5.85-12.99-11.699-19.485-17.549c0.78,0.224,1.697,0.255,2.318,0.7c8.794,6.295,17.863,12.264,26.186,19.135
	c4.605,3.802,7.939,9.143,11.857,13.781c0.732,0.866,1.352,2.097,2.296,2.468c6.255,2.463,12.584,4.737,18.889,7.072
	c0.243-0.449,0.486-0.898,0.729-1.347c-7.725-8.172-15.451-16.343-23.513-24.871c1.579,0.931,2.863,1.589,4.042,2.399
	c28.762,19.762,59.478,35.847,91.642,49.324c9.479,3.972,18.736,8.628,27.657,13.735c11.615,6.649,21.66,15.226,28.628,27.173
	c-1.514-6.224-3.028-12.448-4.542-18.672c0.346-0.105,0.693-0.211,1.039-0.316c1.203,1.84,2.406,3.681,3.609,5.521
	c-0.27-2.209-1.088-4.134-2.088-5.96c-5.141-9.393-14.224-14.328-22.854-19.562c-15.638-9.484-31.651-18.349-47.314-27.795
	c-32.47-19.582-64.719-39.533-97.255-59.004c-12.803-7.661-24.609-9.202-39.182-6.676c7.23,3.251,14.497,6.518,21.763,9.785
	c-8.399-0.504-16.394-1.908-24.413-3.164c-0.81-0.127-1.76,0.634-2.645,0.983c-2.045-0.606-4.056-1.561-6.14-1.763
	c-19.05-1.847-38.103-3.835-57.279-1.75c-1.119,0.122-2.281-0.153-2.616-0.179c6.942-3.702,14.185-7.564,21.372-11.449
	c13.065-5.708,26.13-11.417,36.571-15.979c-27.237-0.223-57.358,0.72-84.772,18.235c1.203,0,1.722,0.113,2.172-0.016
	c13.112-3.765,26.513-4.524,40.037-3.722C487.2,35.533,489.239,36.4,491.298,36.924z M789.441,135.191
	c0.314-0.316,0.628-0.632,0.942-0.947c-4.584-4.489-8.535-10.02-13.876-13.264c-13.865-8.422-27.906-16.806-42.667-23.448
	c-28.149-12.666-55.243-26.954-80.07-45.378c-11.405-8.464-23.652-15.383-37.044-20.253c-11.562-4.204-23.442-6.184-36.365-6.287
	c0.831,0.768,1.027,1.072,1.3,1.18c1.385,0.547,2.763,1.141,4.193,1.542c24.108,6.751,44.604,20.177,62.937,36.466
	c15.977,14.196,32.374,27.641,49.986,39.708c12.328,8.447,24.34,17.356,36.87,26.328c-4.642-5.823-9.052-11.354-13.462-16.884
	c20.256,11.526,33.118,30.254,47.944,47.061c-4.982-15.431-15.652-26.585-27.017-37.242c16.166,12.081,30.716,25.432,36.176,46.074
	c0-1.383,0-2.766,0-4.149c0.245-0.087,0.49-0.174,0.735-0.261c1.381,2.582,2.761,5.164,4.291,8.025
	c2.567-7.821,1.035-14.915-3.592-20.947c-11.893-15.502-25.953-28.388-44.501-35.838c-8.593-3.452-16.99-7.531-25.116-11.982
	c-19.775-10.834-36.568-25.656-53.086-40.816c6.666,4.227,12.987,8.944,19.511,13.361c18.66,12.632,37.655,24.804,58.812,32.835
	c10.73,4.073,21.131,8.567,30.62,14.961c15.887,10.706,26.817,25.175,31.999,43.74c0.843,3.02,1.296,6.189,1.562,9.32
	c0.262,3.078,0.057,6.195,0.057,9.295c1.649-35.372-15.97-58.937-46.515-74.483C768.249,116.775,780.263,123.734,789.441,135.191z
	 M361.857,112.486c16.323-24.701,37.35-43.879,58.897-62.678c-1.533,0.457-2.951,1.113-4.306,1.882
	c-19.817,11.25-35.807,26.753-50.248,44.202C362.041,100.917,361.53,105.902,361.857,112.486z M448.391,75.937
	c-22.935,2.57-43.875,9.067-58.351,28.693c6.738-3.41,13.176-7.368,19.831-10.92c2.782-1.485,5.959-2.475,9.075-3.028
	c3.781-0.671,8.408,0.588,11.388-1.166C436.806,85.707,442.464,80.515,448.391,75.937z M498.073,35.692
	c10.861,1.79,21.507,3.459,32.119,5.32c8.372,1.469,16.567,1.23,24.697-2.146c-4.058-1.262-8.207-2.405-12.311-2.261
	c-4.348,0.153-8.653,1.529-12.977,2.372c-0.111-0.457-0.222-0.914-0.334-1.371c3.575-1.068,7.151-2.135,11.462-3.423
	C525.685,28.047,511.915,30.5,498.073,35.692z M691.868,107.253c-23.259-15.797-45.961-31.216-68.662-46.635
	C644.169,78.625,661.698,101.738,691.868,107.253z M709.669,150.051c0.229-0.484,0.458-0.968,0.687-1.452
	c-14-12.358-31.626-17-48.56-23.116c-0.23,0.487-0.461,0.975-0.691,1.462C677.294,134.647,693.481,142.349,709.669,150.051z
	 M567.6,11.467c15.434-2.005,30.966-4.022,44.983-5.843C598.068,3.62,582.441,4.957,567.6,11.467z M750.56,185.11
	c0.486-0.789,0.972-1.578,1.458-2.367c-9.145-5.884-18.289-11.767-27.434-17.651c-0.44,0.678-0.881,1.356-1.322,2.034
	C732.362,173.12,741.461,179.115,750.56,185.11z M368.939,129.733c0.315,0.356,0.63,0.712,0.946,1.068
	c7.214-5.367,14.427-10.734,21.641-16.1c-0.326-0.431-0.653-0.862-0.979-1.293C381.712,116.676,374.903,122.643,368.939,129.733z
	 M470.157,74.039c10.752-0.966,23.716-2.131,36.407-3.271C493.456,68.067,480.632,70.589,470.157,74.039z M479.839,98.046
	c8.344,2.375,15.628,4.449,22.911,6.523C496.078,100.25,489.692,94.867,479.839,98.046z M482.797,103.208
	c8.796,2.483,17.591,4.965,26.387,7.448C501.296,104.895,492.341,102.986,482.797,103.208z"/>
<path d="M740.136,331.237c0.248,4.517,0.461,8.407,0.675,12.298c-0.36,0.067-0.72,0.134-1.08,0.202
	c-0.535-1.413-1.07-2.826-1.941-5.126c-0.868,5.858,3.695,11.914-3.205,16.15c-0.86-1.17-1.911-2.507-2.861-3.912
	c-3.152-4.666-5.958-9.605-9.474-13.975c-4.39-5.457-7.965-5.469-13.775-1.427c-6.487,4.513-13.142,8.785-19.725,13.162
	c-0.307-0.449-0.615-0.899-0.922-1.348c3.649-2.664,7.383-5.22,10.922-8.023c3.775-2.99,7.411-6.023,8.211-11.403
	c0.26-1.748,2.334-3.324,3.788-4.767c1.265-1.255,2.827-2.212,4.216-3.269c-4.961-8.763-11.414-13.694-23.258-17.335
	c2.454,3.451,4.271,6.005,6.088,8.559c-6.896-4.886-12.01-13.716-23.121-10.194c0.092-0.597,0.183-1.194,0.275-1.791
	c2.424-0.625,4.848-1.251,8-2.064c-10.198-5.745-19.926-11.225-29.015-16.345c2.874-1.369,5.799-2.741,8.706-4.151
	c10.351-5.02,20.94-8.617,32.771-8.318c8.942,0.226,17.915-0.805,26.876-1.249c7.75-0.384,13.529,1.859,16.422,10.07
	c2.34,6.641,5.868,12.88,9.095,19.182c1.003,1.958,2.73,3.549,4.147,5.291c2.765,3.4,5.545,6.788,8.621,10.551
	c2.216-2.327,5.254-5.517,8.684-9.118c0.158,7.252-2.138,13.174-7.649,16.729c-5.188,3.347-11.276,5.299-17.2,7.969
	c1.611,0.893,3.438,1.906,6.588,3.653C746.448,331.237,743.398,331.237,740.136,331.237z M699.383,293.874
	c0.086,0.355,0.173,0.709,0.259,1.064c8.057,4.427,16.113,8.854,24.519,13.473c0.143-2.023,0.396-3.818,0.375-5.61
	c-0.083-6.829-2.288-9.592-8.973-9.839C710.189,292.762,704.778,293.533,699.383,293.874z"/>
<path d="M75.523,752.562c-1.383-2.642-2.765-5.283-4.499-8.595c2.484-1.699,5.158-3.542,7.848-5.362
	c1.077-0.729,2.183-1.414,3.282-2.11c1.058-0.67,2.123-1.329,3.184-1.992c0.51,1.457,1.035,2.908,1.524,4.372
	c0.346,1.036,0.643,2.089,1.075,3.505c4.245-2.69,3.903-5.92,1.509-10.231c13.23-4.128,25.953-8.358,38.828-12.061
	c28.08-8.079,56.702-13.285,85.983-13.168c42.933,0.171,82.674,11.645,118.704,35.343c15.761,10.366,29.742,22.49,38.968,39.279
	c2.123,3.863,4.716,7.831,2.868,12.704c-0.008,0.017,0.009-0.034-0.001-0.012c-1.547-9.235-6.693-16.654-12.818-23.244
	c-20.527-22.085-45.909-36.748-74.327-45.878c-13.985-4.493-28.644-6.915-43.039-10.083c-2.55-0.561-5.309-0.281-7.967-0.216
	c-5.648,0.138-11.323,0.859-16.933,0.498c-12.148-0.781-24.031-0.677-35.977,2.668c-9.971,2.791-20.569,3.318-30.573,6.021
	c-12.797,3.457-25.276,8.09-37.547,13.31c7.176-2.192,14.322-4.489,21.534-6.555c26.942-7.719,54.246-13.661,82.447-12.263
	c11.293,0.56,22.473,3.388,33.705,5.184c-0.103,0.628-0.206,1.257-0.309,1.885c-1.84-0.307-3.708-0.498-5.516-0.937
	c-28.741-6.988-57.294-4.406-85.467,2.723c-23.796,6.021-47.267,13.322-71.187,20.144c-0.599-0.669-2.016-2.25-3.432-3.831
	c-1.69,1.754-3.225,3.703-5.115,5.205c-1.85,1.47-4.062,2.485-6.116,3.7C75.946,752.562,75.735,752.562,75.523,752.562z"/>
<path d="M605.143,347.005c-0.543-6.571-1.085-13.142-1.623-19.65c1.149-0.336,2.606-0.413,2.724-0.852
	c1.164-4.312,2.105-8.684,3.266-13.717c2.408,1.579,4.26,2.793,6.956,4.56c-1.563-2.728-2.659-4.642-4.52-7.89
	c2.023,1.486,2.846,2.091,4.262,3.132c-0.605-1.736-1.02-2.926-1.435-4.116c0.171-0.15,0.343-0.3,0.514-0.45
	c2.4,2.978,4.8,5.957,7.2,8.935c0.272-0.17,0.544-0.341,0.816-0.511c-1.529-2.305-3.057-4.61-4.586-6.916
	c0.126-0.135,0.252-0.269,0.378-0.404c0.92,0.682,1.84,1.364,2.76,2.046c0.141-0.106,0.281-0.211,0.422-0.317
	c-1.316-1.934-2.631-3.868-3.947-5.803c0.225-0.21,0.451-0.42,0.676-0.63c1.263,1.338,2.512,2.69,3.791,4.011
	c9.92,10.25,19.811,20.528,29.789,30.721c3.752,3.833,7.461,12.289,7.44,17.718c-7.273,1.451-11.387-4.734-18.029-6.419
	c1.87,2.768,3.739,5.536,5.352,7.923c-1.79-0.904-4.116-2.08-6.443-3.256c-0.149,0.121-0.298,0.243-0.447,0.364
	c3.888,3.553,7.777,7.106,11.665,10.659c-0.29,0.337-0.58,0.673-0.87,1.01c-0.913-0.318-1.826-0.636-4.08-1.421
	c2.453,2.127,3.807,3.301,5.161,4.475c-0.177,0.287-0.354,0.574-0.532,0.862c-2.297-1.445-4.594-2.889-6.891-4.334
	c0.033,0.392,0.065,0.783,0.098,1.175c-2.407-0.229-4.814-0.459-6.844-0.652c-0.277,2.565-0.549,5.073-0.895,8.276
	c-6.536-2.06-13.153-4.152-17.7-9.295c-5.328-6.025-9.725-12.874-14.533-19.377C605.032,346.853,605.143,347.005,605.143,347.005z"
	/>
<path d="M324.481,703.816c0.457,5.966-1.797,6.908-5.696,5.077c-7.005-3.289-13.981-6.64-21.676-10.302
	c5.155-7.175,9.957-13.859,15.072-20.979c-2.346-4.946-6.237-10.783-7.911-17.199c-2.983-11.433-11.23-17.242-20.537-22.484
	c-0.833-0.469-1.677-1.232-2.083-2.069c-0.497-1.024-0.537-2.27-0.774-3.421c1.186,0.177,2.373,0.354,3.612,0.539
	c1.096-4.866,3.332-6.435,8.672-4.641c3.403,1.143,6.743,2.916,9.637,5.05c12.235,9.019,22.177,20.06,28.1,34.242
	c0.855,2.046,3.593,5.029-0.778,7.155c-0.686,0.333-0.096,3.29-0.096,5.52c-4.931-2.457-5.85,0.364-5.287,4.358
	c1.193,8.468,2.586,16.907,3.941,25.638C327.561,708.576,326.422,706.815,324.481,703.816z M302.968,698.33
	c5.892,1.946,11.436,3.777,17.076,5.639c0.553-3.236-0.663-5.227-3.996-5.27c-4.923-0.064-8.01-1.432-6.477-7.518
	C307.3,693.64,305.029,696.098,302.968,698.33z"/>
<path d="M361.654,756.506c-4.608-2.876-8.618-5.024-12.236-7.701c-11.9-8.807-23.733-17.71-35.452-26.757
	c-15.102-11.658-32.986-16.99-50.779-22.42c-12.214-3.727-24.662-6.685-36.967-10.124c-1.763-0.493-3.31-1.759-4.958-2.667
	c0.888-1.526,1.467-3.399,2.719-4.517c5.375-4.801,10.949-9.38,16.45-14.04c0.348,0.344,0.697,0.688,1.045,1.033
	c-3.428,4.294-6.855,8.589-10.437,13.077c13.157,3.799,25.887,7.306,38.511,11.158c21.184,6.463,41.719,14.65,61.225,25.132
	c4.335,2.33,7.765,6.681,11.036,10.583c6.716,8.011,13.048,16.344,19.505,24.571C361.556,754.141,361.446,754.723,361.654,756.506z"
	/>
<path d="M169.165,242.66c-18.865,7.638-38.25,9.684-58.2,6.377c-5.405-0.896-10.824-1.829-16.275-2.296
	c-18.955-1.624-37.399,16.943-32.804,38.851c-0.468-0.237-0.928-0.314-1.09-0.575c-8.692-14.041-2.497-33.035,11.609-40.957
	c10.697-6.008,21.323-5.581,32.136-3.435C126.016,244.887,147.375,248.479,169.165,242.66z"/>
<path d="M248.443,776.572c-1.389,3.2-2.778,6.401-4.166,9.601c0.242,0.123,0.483,0.245,0.725,0.368
	c5.663-9.256,11.325-18.513,17.006-27.799c4.797,1.044,7.799,3.261,9.662,8.508c1.439,4.052,5.997,6.974,9.08,10.475
	c1.264,1.436,2.297,3.076,3.436,4.623c-0.423,0.315-0.847,0.629-1.27,0.944c-1.84-1.61-3.68-3.219-6.602-5.775
	c0.077,7.932-5.145,6.694-8.877,6.653c-3.617-0.039-7.219-1.526-11.041-2.427c1.896,2.727,4.063,5.845,6.475,9.313
	c-3.637,2.752-7.044,5.329-10.836,8.199c-4.904-4.986-11.008-2.037-16.999-0.712c-0.315-0.37-0.629-0.74-0.944-1.11
	c4.723-6.997,9.446-13.993,14.17-20.99L248.443,776.572z"/>
<path d="M751.392,598.454c1.657,7.863,3.712,15.669,4.861,23.606c1.162,8.027,0.497,16.396,2.282,24.24
	c3.691,16.218,20.515,27.846,35.129,25.301c6.513-1.134,11.45-4.893,15.977-9.498c3.831-3.897,7.797-7.714,12.064-11.114
	c5.705-4.546,12.38-6.251,19.791-4.983c-12.013,1.039-20.497,7.918-28.504,16.142c-4.947,5.082-10.47,10.021-16.625,13.405
	c-7.907,4.348-16.491,3.19-24.185-1.649c-11.675-7.343-16.659-18.723-17.749-31.864c-0.823-9.932-0.531-19.952-1.053-29.916
	c-0.241-4.601-1.242-9.162-1.896-13.744C751.486,598.378,751.392,598.454,751.392,598.454z"/>
<path d="M302.565,670.746c-6.767,4.253-13.716,8.747-20.83,12.965c-1.178,0.698-3.402,0.789-4.581,0.141
	c-7.994-4.399-15.837-9.073-24.483-14.096c8.826-6.786,17.242-13.263,25.666-19.729c2.48-1.903,4.538-1.214,6.481,0.97
	C290.565,657.454,296.368,663.859,302.565,670.746z M259.653,669.521c6.762,2.807,13.299,5.587,19.908,8.185
	c0.895,0.352,2.299,0.07,3.214-0.406c3.816-1.983,7.536-4.152,11.111-6.153c-4.864-5.833-9.664-11.589-14.521-17.414
	C272.783,659.004,266.445,664.081,259.653,669.521z"/>
<path d="M615.095,174.362c8.549,4.237,17.14,8.392,25.633,12.739c6.488,3.32,12.553,7.722,19.342,10.14
	c10.257,3.653,20.98,5.998,30.302,8.567c-7.523,3.38-16.746,1.898-25.984-0.191c-18.509-4.186-34.082-13.55-47.368-26.917
	c-1.021-1.028-1.816-2.281-2.716-3.429C614.567,174.967,614.831,174.664,615.095,174.362z"/>
<path d="M758.826,589.412c1.506,10.466,3.134,20.917,4.489,31.402c1.938,14.993,7.613,27.748,20.547,36.584
	c9.072,6.197,13.776,5.759,20.936-2.509c2.065-2.384,3.998-4.887,6.15-7.187c0.491-0.525,1.637-0.437,2.482-0.632
	c0.027,0.839,0.399,1.896,0.028,2.482c-3.164,5.001-6.019,10.298-9.844,14.753c-4.062,4.731-12.685,4.466-19.858,0.176
	c-11.278-6.746-17.833-17.077-20.172-29.62c-2.128-11.414-2.764-23.103-4.174-34.656c-0.419-3.435-1.231-6.821-1.863-10.23
	C757.973,589.787,758.399,589.599,758.826,589.412z"/>
<path d="M357.233,740.011c-16.567-28.245-16.154-57.23-5.69-86.818c-0.366-0.342-0.731-0.684-1.097-1.026
	c-1.41,1.134-3.208,2.011-4.162,3.447c-4.348,6.549-6.114,13.927-6.274,21.724c-0.041,1.968-0.006,3.937-0.67,5.902
	c0-5.971-0.714-12.055,0.205-17.881c0.88-5.574,3.459-10.88,5.299-16.327c7.353,0.803,8.92,2.543,8.012,9.616
	c-0.972,7.57-2.32,15.092-3.234,22.668c-2.005,16.632,0.721,32.786,5.239,48.741C355.754,733.213,356.39,736.44,357.233,740.011z"/>
<path d="M651.166,147.858c-11.96-6.735-23.915-13.479-35.887-20.192c-1.583-0.888-3.254-1.618-4.619-3.248
	c1.626,0.663,3.287,1.252,4.872,2c9.881,4.665,19.627,9.639,29.646,13.984c11.515,4.994,23.23,9.536,34.927,14.099
	c10.422,4.066,20.179,9.104,27.691,17.844c-7.506-3.668-14.852-7.726-22.569-10.875c-5.72-2.335-11.922-3.489-17.91-5.169
	C661.933,153.486,656.55,150.672,651.166,147.858z"/>
<path d="M135.771,647.45c4.317,4.823,8.154,9.11,12.307,13.751c-9.41,4.456-19.271,9.125-30.164,14.282
	C124.083,665.799,129.702,656.978,135.771,647.45z"/>
<path d="M361.094,849.076c-2.862,1.491-4.702,2.45-6.792,3.539c-3.919-7.12-9.506-4.97-14.861-2.837
	c-3.114-7.7-3.114-7.7-10.388-3.834c1.512-2.73,3.075-4.547,3.482-6.594c0.349-1.753-0.627-3.769-1.265-6.878
	c1.01,0.045,3.193-0.507,4.516,0.318c4.914,3.068,9.473,6.698,14.308,9.903C353.283,844.808,356.715,846.556,361.094,849.076z"/>
<path d="M703.396,180.118c-26.198-12.058-52.396-24.116-78.594-36.174c0.272-0.592,0.543-1.184,0.815-1.775
	c25.77,12.956,54.195,20.1,78.379,36.528C703.796,179.17,703.596,179.644,703.396,180.118z"/>
<path d="M492.527,156.973c-24.69,1.762-48.828,6.478-72.35,14.355C443.444,162.316,466.937,154.442,492.527,156.973z"/>
<path d="M736.963,395.456c-3.149-11.165-9.86-18.962-20.652-23.329c-1.522-0.616-2.371-2.894-4.285-5.384
	C727.728,369.713,737.875,381.827,736.963,395.456z"/>
<path d="M153.631,667.678c-8.807,2.273-17.615,4.545-26.422,6.818c-0.126-0.295-0.251-0.59-0.377-0.885
	c7.129-3.692,14.16-7.603,21.478-10.872c1.307-0.584,3.804,1.494,5.751,2.343C153.918,665.947,153.775,666.812,153.631,667.678z"/>
<path d="M257.716,185.334c-4.701,2.489-9.401,4.977-14.081,7.458c-5.398,2.749-10.816,5.506-16.234,8.263
	c-0.266-0.482-0.533-0.965-0.799-1.447c5.333-3.598,10.432-7.633,16.066-10.673c5.642-3.043,11.82-5.093,18.87-8.041
	C259.673,183.06,258.694,184.197,257.716,185.334z"/>
<path d="M651.166,147.858c5.383,2.814,10.767,5.628,16.15,8.443c-4.2-1.258-8.59-2.087-12.565-3.853
	c-12.924-5.741-25.697-11.824-38.528-17.775l0.279-0.329c9.652,3.942,19.294,7.912,28.967,11.8
	C647.303,146.88,649.264,147.295,651.166,147.858z"/>
<path d="M451.553,820.295c3.922,2.032,8.451,2.464,9.287,8.341c0.284,1.996,4.047,3.498,6.22,5.226
	c-0.454,0.721-0.909,1.442-1.363,2.162c-1.508-0.555-3.173-0.868-4.491-1.718c-2.49-1.605-4.565-3.993-7.205-5.195
	C449.791,827.195,448.278,824.911,451.553,820.295z"/>
<path d="M583.043,847.599c0.594,3.315,1.206,5.41,1.274,7.523c0.056,1.737-0.082,4.706-0.92,5.018
	c-2.596,0.968-5.566,0.995-8.402,1.102c-0.155,0.006-1.083-3.085-0.495-3.876C576.832,854.222,579.624,851.419,583.043,847.599z"/>
<path d="M196.725,640.897c-14.801-6.081-28.813-14.692-45.538-14.61C162.119,624.138,190.602,633.03,196.725,640.897z"/>
<path d="M120.32,846.055c-0.571,0.121-1.141,0.242-1.711,0.362c-3.51,0.391-7.092,1.196-11.446-1.884
	c2.747-0.636,4.213-0.976,7.061-1.636c-2.517-1.957-4.329-3.366-7.439-5.784c3.478,0.61,5.622,0.946,7.749,1.369
	c3.304,0.657,6.596,1.373,9.893,2.063c0,0-0.098-0.093-0.098-0.093C122.992,842.32,121.656,844.188,120.32,846.055z"/>
<path d="M40.165,728.739c3.036,7.33,6.714,5.36,10.716,3.06c-0.351-0.921-0.721-1.891-1.208-3.169
	c3.003,0.448,5.818,0.868,9.302,1.387c-7.669,4.524-14.539,9.627-24.257,6.249c1.677-0.42,2.989-0.748,4.351-1.089
	C39.32,733.701,39.593,732.094,40.165,728.739z"/>
<path d="M489.011,175.044c-14.852,5.966-29.703,11.933-44.555,17.899c-0.196-0.501-0.393-1.002-0.589-1.504
	c14.871-5.917,29.742-11.835,44.614-17.752C488.657,174.14,488.834,174.592,489.011,175.044z"/>
<path d="M369.471,841.833c3.366-3.564,6.7-5.072,10.024-1.343c1.187,1.332,1.121,3.779,1.626,5.718
	c-1.949-0.031-4.102,0.451-5.795-0.222C373.247,845.159,371.552,843.369,369.471,841.833z"/>
<path d="M176.354,665.718c5.801-9.391,13.586-16.447,23.703-20.742C192.156,651.89,184.255,658.804,176.354,665.718z"/>
<path d="M248.259,776.444c-1.911,0.596-3.823,1.192-6.07,1.893c-3.21-2.807-2.095-6.411,0.552-8.431
	c1.932-1.474,5.457-0.857,8.266-1.172c-1.108,3.385-1.837,5.611-2.565,7.837C248.443,776.572,248.259,776.444,248.259,776.444z"/>
<path d="M216.592,832.333c-2.442-1.276-4.729-2.47-8.367-4.371c2.131,0.309,2.84,0.412,2.393,0.347
	c1.211-3.027,2.323-5.804,3.781-9.448c1.663,4.514,2.943,7.988,4.404,11.952C218.244,831.198,216.975,832.07,216.592,832.333z"/>
<path d="M467.987,835.493c5.133,4.207,9.563,7.839,14.992,12.289C475.951,848.182,467.181,840.832,467.987,835.493z"/>
<path d="M340.32,173.37c-10.891-0.848-21.781-1.696-32.672-2.544c0.056-0.601,0.113-1.202,0.169-1.802
	c10.875,1.024,21.749,2.047,32.624,3.071C340.401,172.519,340.36,172.945,340.32,173.37z"/>
<path d="M454.894,811.52c-3.842-1.961-6.905-3.525-11.128-5.681c1.869-0.965,3.879-2.803,4.871-2.36
	c2.566,1.144,4.831,3.144,6.866,5.156C455.969,809.095,455.024,810.981,454.894,811.52z"/>
<path d="M110.559,868.236c0.633-2.326,1.313-4.823,2.08-7.638c1.92,1.383,4.079,2.732,5.945,4.408
	c0.565,0.508,0.763,2.475,0.35,2.81c-1.003,0.811-2.468,1.442-3.741,1.432C113.51,869.235,111.833,868.541,110.559,868.236z"/>
<path d="M258.66,747.088c0.974-1.326,2.407-3.42,2.488-3.369c3.455,2.178,6.789,4.547,10.139,6.893
	c-0.391,0.677-0.782,1.354-1.173,2.031C266.633,750.955,263.151,749.266,258.66,747.088z"/>
<path d="M52.874,758.458c3.236-3.055,6.042-5.705,9.243-8.727C63.352,757.522,61.604,759.076,52.874,758.458z"/>
<path d="M57.905,748.762c-2.151,1.262-4.227,2.697-6.5,3.675c-0.652,0.28-2.565-0.633-2.679-1.232
	c-0.196-1.032,0.325-3.049,0.966-3.24c2.434-0.723,5.036-0.881,7.576-1.25C57.48,747.398,57.693,748.08,57.905,748.762z"/>
<path d="M110.136,259.06c-6.658,0.377-12.754-1.561-18.749-3.913c0.09-0.552,0.18-1.103,0.27-1.655
	c2.333,0.379,4.756,0.479,6.98,1.197c3.894,1.256,7.666,2.891,11.489,4.367C110.127,259.056,110.136,259.06,110.136,259.06z"/>
<path d="M275.297,174.117c-8.089,3.138-16.178,6.276-24.266,9.414c-0.159-0.423-0.318-0.846-0.477-1.268
	c8.141-3.11,16.282-6.221,24.422-9.331C275.083,173.327,275.19,173.722,275.297,174.117z"/>
<path d="M75.523,752.562c0.212-0.001,0.424,0,0.636,0.002c1.36,0.288,2.72,0.576,4.08,0.864c-7.931,4.068-8.038,4.041-9.722-1.793
	C72.378,751.979,73.95,752.271,75.523,752.562z"/>
<path d="M518.637,847.18c-3.681,1.028-7.378,5.508-11.037,0C511.279,847.18,514.958,847.18,518.637,847.18z"/>
<path d="M662.581,814.969c-1.795-3.014-3.45-5.793-5.105-8.571C663.504,808.753,664.987,811.499,662.581,814.969z"/>
<path d="M139.918,867.536c5.353-1.163,7.314,0.72,6.463,5.866C144.225,871.445,142.348,869.741,139.918,867.536z"/>
<path d="M796.229,654.695c3.481-1.698,6.962-3.396,10.443-5.094c-2.426,3.65-5.138,6.772-9.711,6.568
	C796.717,655.678,796.473,655.187,796.229,654.695z"/>
<path d="M758.271,207.957c3.622,3.888,7.243,7.776,10.865,11.664c-0.16,0.151-0.319,0.302-0.479,0.453
	c-3.803-3.742-7.607-7.483-11.41-11.225C757.588,208.552,757.93,208.254,758.271,207.957z"/>
<path d="M616.224,134.673c-5.995-1.74-11.989-3.48-17.984-5.22c0.15-0.477,0.3-0.953,0.45-1.43
	c5.938,2.107,11.875,4.214,17.813,6.32C616.503,134.344,616.224,134.673,616.224,134.673z"/>
<path d="M660.138,209.286c-6.137-1.851-12.273-3.701-18.41-5.552c0.105-0.368,0.211-0.735,0.316-1.103
	c6.13,1.876,12.26,3.751,18.39,5.627C660.335,208.601,660.237,208.943,660.138,209.286z"/>
<path d="M386.413,829.937c-1.847,4.028-3.095,6.749-4.372,9.533C378.639,837.233,379.567,834.964,386.413,829.937z"/>
<path d="M479.364,592.5c1.662,2.989,3.324,5.978,4.986,8.967c1.459,9.659,5.598,19.141,1.935,29.14c0,0,0.142-0.201,0.142-0.201
	c-1.367,1.398-2.722,2.808-4.105,4.19c-4.761,4.759-10.363,8.377-17.215,7.634c-21.501-2.331-38.794-12.008-50.523-30.609
	c-0.83-1.316-1.019-3.035-1.506-4.566c0.513-0.225,1.025-0.45,1.538-0.675c1.006,1.744,2.133,3.43,2.996,5.242
	c3.401,7.147,8.747,12.445,15.366,16.615c8.764,5.522,18.554,7.812,28.62,9.357c11.117,1.706,20.28-4.472,22.516-14.206
	c-3.329-1.315-6.309-2.921-9.487-3.611c-2.499-0.542-5.251-0.028-7.862,0.268c-0.216,0.025-0.215,1.969-0.249,2.322
	c-2.485,0.155-5.27-0.151-7.762,0.565c-10.945,3.147-20.598-0.717-30.059-5.317c-2.72-1.323-5.182-3.634-2.422-6.446
	c3.254,0,5.923-0.017,8.593,0.005c2.271,0.019,4.77-0.514,6.766,0.249c4.254,1.627,7.105,0.252,9.55-3.065
	c0.709-0.634,1.417-1.269,2.125-1.903c0.8,1.315,1.6,2.63,3.149,5.177c2.176-4.596,3.888-8.214,5.818-12.29
	c-3.467,2.791-6.236,5.02-9.004,7.249c0-1.635,0-3.27,0-5.627c-2.264,1.592-3.768,2.649-5.273,3.706
	c1.119,1.271,2.239,2.541,3.358,3.812c-4.954-0.846-9.908-1.692-13.856-2.366c0.481-2.182,1.495-4.219,0.958-4.786
	c-2.434-2.567-5.306-4.719-8.018-7.02c-2.595,3.127-1.686,5.347,0.469,7.698c1.241,1.354,1.919,3.223,3.017,5.152
	c-6.955,2.401-8.636-2.869-11.078-5.999c-3.979-5.101-3.932-15.396-0.519-19.666c1.167,6.098,1.167,6.098,4.554,7.312
	c0.868-4.073,2.55-5.278,5.571-1.535c-1.194,1.626-2.389,3.252-4.328,5.892c2.209-0.314,3.947-0.039,4.568-0.745
	c2.059-2.342,3.717-5.038,5.888-8.107c-1.846,0.387-3.25,0.682-4.653,0.976c0.508-1.501,1.016-3.001,1.949-5.759
	c8.891,3.543,17.362,6.919,25.422,10.131c-3.952-8.266-13.664-8.806-21.071-11.413c-8.032-2.827-17.436-1.756-26.242-2.386
	c1.622-1.413,3.429-2.311,5.252-2.346c8.961-0.172,17.95,0.295,26.884-0.231C461.601,572.373,470.933,581.522,479.364,592.5z
	 M450.387,596.903c-2.691-1.805-4.754-3.188-6.89-4.621c-1.84,0.865-3.793,1.784-6.377,2.999
	C441.579,596.942,445.035,601.067,450.387,596.903z M453.909,615.732c-0.125-0.696-0.25-1.392-0.374-2.088
	c-3.082,0.418-6.164,0.835-9.246,1.253c0.086,0.652,0.172,1.304,0.258,1.956C447.667,616.48,450.788,616.106,453.909,615.732z"/>
<path d="M411.545,284.818c-8.048,1.682-16.053,3.612-24.153,4.984c-11.012,1.864-22.382,2.037-32.626,7.266
	c17.84-11.401,38.963-9.186,58.407-13.922C412.63,283.704,412.088,284.261,411.545,284.818z"/>
<path d="M683.299,606.475c-0.259,0.162-0.518,0.324-0.778,0.486c-1.591-5.469-3.181-10.937-4.772-16.406
	c0.414-0.045,0.829-0.09,1.248-0.112C680.434,595.801,681.867,601.138,683.299,606.475z"/>
<path d="M394.606,452.435c3.499-5.307,6.998-10.613,10.497-15.92c0.469,0.283,0.939,0.566,1.408,0.848
	c-3.387,5.312-6.774,10.624-10.161,15.935C395.769,453.011,395.187,452.723,394.606,452.435z"/>
<path d="M550.023,534.222c0-6.714,0-13.428,0-20.142c0.234-0.001,0.468-0.002,0.701-0.003c-0.321,6.71-0.642,13.421-0.963,20.131
	C549.849,534.213,549.936,534.218,550.023,534.222z"/>
<path d="M502.83,308.206c-1.965-7.309-2.308-14.625-10.343-17.521c3.518-2.264,8.473-0.28,13.295,3.486
	C513.82,300.449,505.343,303.127,502.83,308.206z"/>
<path d="M537.606,444.923c-0.62,5.888-1.24,11.775-1.828,17.361c-7.438-7.267-4.569-31.29,5.344-47.439
	c-1.085,9.077-2.352,19.672-3.611,30.254C537.518,445.086,537.606,444.923,537.606,444.923z"/>
<path d="M152.41,438.947c-3.066,2.887-6.044,5.875-9.218,8.639c-5.058,4.404-10.246,8.658-15.379,12.976
	C136.011,453.357,144.21,446.152,152.41,438.947z"/>
<path d="M486.354,789.042c2.265-2.219,4.1-4.664,4.618-4.411c1.942,0.949,3.454,2.779,5.127,4.278
	c-1.2,1.333-2.44,3.778-3.592,3.738C490.78,792.587,489.115,790.78,486.354,789.042z"/>
<path d="M702.933,67.542c-6.221-3.371-12.443-6.741-18.664-10.112C690.491,60.8,696.712,64.171,702.933,67.542z"/>
</svg>
