<?xml version="1.0" encoding="UTF-8" standalone="no" ?>
<!DOCTYPE svg PUBLIC "-//W3C//DTD SVG 1.1//EN" "http://www.w3.org/Graphics/SVG/1.1/DTD/svg11.dtd">
<svg xmlns="http://www.w3.org/2000/svg" xmlns:xlink="http://www.w3.org/1999/xlink" version="1.1" width="1080" height="1080" viewBox="0 0 1080 1080" xml:space="preserve">
<desc>Created with Fabric.js 5.2.4</desc>
<defs>
</defs>
<g transform="matrix(1 0 0 1 540 540)" id="47696718-c57e-46ef-933b-ef8a19b51fdf"  >
</g>
<g transform="matrix(1 0 0 1 540 540)" id="70de5406-3607-461b-a3c6-a7a069afb040"  >
<rect style="stroke: none; stroke-width: 1; stroke-dasharray: none; stroke-linecap: butt; stroke-dashoffset: 0; stroke-linejoin: miter; stroke-miterlimit: 4; fill: rgb(255,255,255); fill-rule: nonzero; opacity: 1; visibility: hidden;" vector-effect="non-scaling-stroke"  x="-540" y="-540" rx="0" ry="0" width="1080" height="1080" />
</g>
<g transform="matrix(1.4 0 0 1.4 543.25 543.3)"  >
<g style="" vector-effect="non-scaling-stroke"   >
		<g transform="matrix(1.33 0 0 1.33 104.86 -285.98)"  >
<path style="stroke: none; stroke-width: 1; stroke-dasharray: none; stroke-linecap: butt; stroke-dashoffset: 0; stroke-linejoin: miter; stroke-miterlimit: 4; fill: rgb(0,0,0); fill-rule: nonzero; opacity: 1;" vector-effect="non-scaling-stroke"  transform=" translate(-428.75, -70)" d="M 472.5 70 C 472.5 94.164 452.914 113.75 428.75 113.75 C 404.586 113.75 385 94.164 385 70 C 385 45.836 404.586 26.25 428.75 26.25 C 452.914 26.25 472.5 45.836 472.5 70" stroke-linecap="round" />
</g>
		<g transform="matrix(1.33 0 0 1.33 -70.29 40.1)"  >
<path style="stroke: none; stroke-width: 1; stroke-dasharray: none; stroke-linecap: butt; stroke-dashoffset: 0; stroke-linejoin: miter; stroke-miterlimit: 4; fill: rgb(0,0,0); fill-rule: nonzero; opacity: 1;" vector-effect="non-scaling-stroke"  transform=" translate(-297.5, -315)" d="M 320.89 304.72 C 324.1322 308.04420000000005 328.58529999999996 309.9075 333.226 309.88410000000005 C 336.9604 309.86066300000005 340.5893 308.64970000000005 343.585 306.4193 C 346.5811 304.1888 348.7842 301.0599 349.8741 297.4896 L 349.9991 297.501319 C 354.6358 297.4896 359.0811 295.63801900000004 362.3581 292.360719 C 365.63509999999997 289.083419 367.48699999999997 284.63801900000004 367.4987 280.00171900000004 L 367.4987 188.11071900000002 L 368.22526 187.384159 C 376.97526 178.520859 382.49826 166.978159 383.90926 154.603159 C 385.32336000000004 142.228159 382.54206 129.740159 376.01476 119.13415900000001 C 374.86246 117.13025900000001 373.54596000000004 115.22795900000001 372.07726 113.44665900000001 C 362.15536000000003 101.11065900000001 347.46426 93.57165900000001 331.65926 92.704659 C 315.85426 91.83746900000001 300.42526000000004 97.72025900000001 289.21426 108.89565900000001 C 238.95626000000001 159.16165900000001 210.72226 227.33565900000002 210.72626000000002 298.415659 L 210.72626000000002 510.25565900000004 C 210.72235400000002 519.724459 215.65986000000004 528.5136590000001 223.75326 533.4316590000001 C 231.84306 538.3535590000001 241.91726 538.697259 250.32326 534.3339990000001 C 258.72946 529.974599 264.25326 521.540999 264.88926 512.0919990000001 L 274.33846 370.3419990000001 L 279.13536 298.6229990000001 L 279.13536 298.61909300000013 L 274.33846 370.34209300000015 L 340.75246 469.91609300000016 C 344.51416 475.6152930000002 350.89745999999997 479.0371930000002 357.72546 479.0176930000002 C 360.88956 479.0216000000002 364.01066 478.2716030000002 366.82706 476.8301930000002 C 371.78406 474.36539300000015 375.52236 469.9824930000002 377.17506000000003 464.6971930000002 C 378.82736000000006 459.4119930000002 378.24926000000005 453.6771930000002 375.57736000000006 448.8301930000002 L 283.4053600000001 279.79019300000016 C 286.5694600000001 271.64569300000016 291.3897600000001 264.23919300000017 297.5533600000001 258.04819300000014 L 315.72536000000014 239.87619300000014 L 315.72536000000014 292.37619300000017 C 315.70192300000014 297.0167930000002 317.56516000000016 301.46999300000016 320.88946000000016 304.7121930000002 z" stroke-linecap="round" />
</g>
		<g transform="matrix(1.33 0 0 1.33 -326.69 -309.28)"  >
<path style="stroke: none; stroke-width: 1; stroke-dasharray: none; stroke-linecap: butt; stroke-dashoffset: 0; stroke-linejoin: miter; stroke-miterlimit: 4; fill: rgb(0,0,0); fill-rule: nonzero; opacity: 1;" vector-effect="non-scaling-stroke"  transform=" translate(-105, -52.5)" d="M 96.25 17.5 L 113.75 17.5 L 113.75 87.5 L 96.25 87.5 z" stroke-linecap="round" />
</g>
		<g transform="matrix(1.33 0 0 1.33 -326.69 -215.89)"  >
<path style="stroke: none; stroke-width: 1; stroke-dasharray: none; stroke-linecap: butt; stroke-dashoffset: 0; stroke-linejoin: miter; stroke-miterlimit: 4; fill: rgb(0,0,0); fill-rule: nonzero; opacity: 1;" vector-effect="non-scaling-stroke"  transform=" translate(-105, -122.5)" d="M 96.25 105 L 113.75 105 L 113.75 140 L 96.25 140 z" stroke-linecap="round" />
</g>
		<g transform="matrix(1.33 0 0 1.33 -280.03 -332.56)"  >
<path style="stroke: none; stroke-width: 1; stroke-dasharray: none; stroke-linecap: butt; stroke-dashoffset: 0; stroke-linejoin: miter; stroke-miterlimit: 4; fill: rgb(0,0,0); fill-rule: nonzero; opacity: 1;" vector-effect="non-scaling-stroke"  transform=" translate(-140, -35)" d="M 131.25 17.5 L 148.75 17.5 L 148.75 52.5 L 131.25 52.5 z" stroke-linecap="round" />
</g>
		<g transform="matrix(1.33 0 0 1.33 -280.03 -239.28)"  >
<path style="stroke: none; stroke-width: 1; stroke-dasharray: none; stroke-linecap: butt; stroke-dashoffset: 0; stroke-linejoin: miter; stroke-miterlimit: 4; fill: rgb(0,0,0); fill-rule: nonzero; opacity: 1;" vector-effect="non-scaling-stroke"  transform=" translate(-140, -105)" d="M 131.25 70 L 148.75 70 L 148.75 140 L 131.25 140 z" stroke-linecap="round" />
</g>
		<g transform="matrix(1.33 0 0 1.33 -233.36 -297.64)"  >
<path style="stroke: none; stroke-width: 1; stroke-dasharray: none; stroke-linecap: butt; stroke-dashoffset: 0; stroke-linejoin: miter; stroke-miterlimit: 4; fill: rgb(0,0,0); fill-rule: nonzero; opacity: 1;" vector-effect="non-scaling-stroke"  transform=" translate(-175, -61.25)" d="M 166.25 17.5 L 183.75 17.5 L 183.75 105 L 166.25 105 z" stroke-linecap="round" />
</g>
		<g transform="matrix(1.33 0 0 1.33 -233.36 -204.19)"  >
<path style="stroke: none; stroke-width: 1; stroke-dasharray: none; stroke-linecap: butt; stroke-dashoffset: 0; stroke-linejoin: miter; stroke-miterlimit: 4; fill: rgb(0,0,0); fill-rule: nonzero; opacity: 1;" vector-effect="non-scaling-stroke"  transform=" translate(-175, -131.25)" d="M 166.25 122.5 L 183.75 122.5 L 183.75 140 L 166.25 140 z" stroke-linecap="round" />
</g>
		<g transform="matrix(1.33 0 0 1.33 -186.69 -320.92)"  >
<path style="stroke: none; stroke-width: 1; stroke-dasharray: none; stroke-linecap: butt; stroke-dashoffset: 0; stroke-linejoin: miter; stroke-miterlimit: 4; fill: rgb(0,0,0); fill-rule: nonzero; opacity: 1;" vector-effect="non-scaling-stroke"  transform=" translate(-210, -43.75)" d="M 201.25 17.5 L 218.75 17.5 L 218.75 70 L 201.25 70 z" stroke-linecap="round" />
</g>
		<g transform="matrix(1.33 0 0 1.33 -186.69 -227.59)"  >
<path style="stroke: none; stroke-width: 1; stroke-dasharray: none; stroke-linecap: butt; stroke-dashoffset: 0; stroke-linejoin: miter; stroke-miterlimit: 4; fill: rgb(0,0,0); fill-rule: nonzero; opacity: 1;" vector-effect="non-scaling-stroke"  transform=" translate(-210, -113.75)" d="M 201.25 87.5 L 218.75 87.5 L 218.75 140 L 201.25 140 z" stroke-linecap="round" />
</g>
		<g transform="matrix(1.33 0 0 1.33 -326.69 -134.26)"  >
<path style="stroke: none; stroke-width: 1; stroke-dasharray: none; stroke-linecap: butt; stroke-dashoffset: 0; stroke-linejoin: miter; stroke-miterlimit: 4; fill: rgb(0,0,0); fill-rule: nonzero; opacity: 1;" vector-effect="non-scaling-stroke"  transform=" translate(-105, -183.75)" d="M 96.25 157.5 L 113.75 157.5 L 113.75 210 L 96.25 210 z" stroke-linecap="round" />
</g>
		<g transform="matrix(1.33 0 0 1.33 -280.03 -157.53)"  >
<path style="stroke: none; stroke-width: 1; stroke-dasharray: none; stroke-linecap: butt; stroke-dashoffset: 0; stroke-linejoin: miter; stroke-miterlimit: 4; fill: rgb(0,0,0); fill-rule: nonzero; opacity: 1;" vector-effect="non-scaling-stroke"  transform=" translate(-140, -166.25)" d="M 131.25 157.5 L 148.75 157.5 L 148.75 175 L 131.25 175 z" stroke-linecap="round" />
</g>
		<g transform="matrix(1.33 0 0 1.33 -140.03 -309.28)"  >
<path style="stroke: none; stroke-width: 1; stroke-dasharray: none; stroke-linecap: butt; stroke-dashoffset: 0; stroke-linejoin: miter; stroke-miterlimit: 4; fill: rgb(0,0,0); fill-rule: nonzero; opacity: 1;" vector-effect="non-scaling-stroke"  transform=" translate(-245, -52.5)" d="M 236.25 17.5 L 253.75 17.5 L 253.75 87.5 L 236.25 87.5 z" stroke-linecap="round" />
</g>
		<g transform="matrix(1.33 0 0 1.33 -93.36 -332.56)"  >
<path style="stroke: none; stroke-width: 1; stroke-dasharray: none; stroke-linecap: butt; stroke-dashoffset: 0; stroke-linejoin: miter; stroke-miterlimit: 4; fill: rgb(0,0,0); fill-rule: nonzero; opacity: 1;" vector-effect="non-scaling-stroke"  transform=" translate(-280, -35)" d="M 271.25 17.5 L 288.75 17.5 L 288.75 52.5 L 271.25 52.5 z" stroke-linecap="round" />
</g>
		<g transform="matrix(1.33 0 0 1.33 233.31 -320.92)"  >
<path style="stroke: none; stroke-width: 1; stroke-dasharray: none; stroke-linecap: butt; stroke-dashoffset: 0; stroke-linejoin: miter; stroke-miterlimit: 4; fill: rgb(0,0,0); fill-rule: nonzero; opacity: 1;" vector-effect="non-scaling-stroke"  transform=" translate(-525, -43.75)" d="M 516.25 17.5 L 533.75 17.5 L 533.75 70 L 516.25 70 z" stroke-linecap="round" />
</g>
		<g transform="matrix(1.33 0 0 1.33 233.31 -227.59)"  >
<path style="stroke: none; stroke-width: 1; stroke-dasharray: none; stroke-linecap: butt; stroke-dashoffset: 0; stroke-linejoin: miter; stroke-miterlimit: 4; fill: rgb(0,0,0); fill-rule: nonzero; opacity: 1;" vector-effect="non-scaling-stroke"  transform=" translate(-525, -113.75)" d="M 516.25 87.5 L 533.75 87.5 L 533.75 140 L 516.25 140 z" stroke-linecap="round" />
</g>
		<g transform="matrix(1.33 0 0 1.33 279.97 -297.64)"  >
<path style="stroke: none; stroke-width: 1; stroke-dasharray: none; stroke-linecap: butt; stroke-dashoffset: 0; stroke-linejoin: miter; stroke-miterlimit: 4; fill: rgb(0,0,0); fill-rule: nonzero; opacity: 1;" vector-effect="non-scaling-stroke"  transform=" translate(-560, -61.25)" d="M 551.25 17.5 L 568.75 17.5 L 568.75 105 L 551.25 105 z" stroke-linecap="round" />
</g>
		<g transform="matrix(1.33 0 0 1.33 279.97 -180.92)"  >
<path style="stroke: none; stroke-width: 1; stroke-dasharray: none; stroke-linecap: butt; stroke-dashoffset: 0; stroke-linejoin: miter; stroke-miterlimit: 4; fill: rgb(0,0,0); fill-rule: nonzero; opacity: 1;" vector-effect="non-scaling-stroke"  transform=" translate(-560, -148.75)" d="M 551.25 122.5 L 568.75 122.5 L 568.75 175 L 551.25 175 z" stroke-linecap="round" />
</g>
		<g transform="matrix(1.33 0 0 1.33 326.64 -332.56)"  >
<path style="stroke: none; stroke-width: 1; stroke-dasharray: none; stroke-linecap: butt; stroke-dashoffset: 0; stroke-linejoin: miter; stroke-miterlimit: 4; fill: rgb(0,0,0); fill-rule: nonzero; opacity: 1;" vector-effect="non-scaling-stroke"  transform=" translate(-595, -35)" d="M 586.25 17.5 L 603.75 17.5 L 603.75 52.5 L 586.25 52.5 z" stroke-linecap="round" />
</g>
		<g transform="matrix(1.33 0 0 1.33 326.64 -239.28)"  >
<path style="stroke: none; stroke-width: 1; stroke-dasharray: none; stroke-linecap: butt; stroke-dashoffset: 0; stroke-linejoin: miter; stroke-miterlimit: 4; fill: rgb(0,0,0); fill-rule: nonzero; opacity: 1;" vector-effect="non-scaling-stroke"  transform=" translate(-595, -105)" d="M 586.25 70 L 603.75 70 L 603.75 140 L 586.25 140 z" stroke-linecap="round" />
</g>
		<g transform="matrix(1.33 0 0 1.33 326.64 -134.26)"  >
<path style="stroke: none; stroke-width: 1; stroke-dasharray: none; stroke-linecap: butt; stroke-dashoffset: 0; stroke-linejoin: miter; stroke-miterlimit: 4; fill: rgb(0,0,0); fill-rule: nonzero; opacity: 1;" vector-effect="non-scaling-stroke"  transform=" translate(-595, -183.75)" d="M 586.25 157.5 L 603.75 157.5 L 603.75 210 L 586.25 210 z" stroke-linecap="round" />
</g>
		<g transform="matrix(1.33 0 0 1.33 -23.45 344.14)"  >
<path style="stroke: none; stroke-width: 1; stroke-dasharray: none; stroke-linecap: butt; stroke-dashoffset: 0; stroke-linejoin: miter; stroke-miterlimit: 4; fill: rgb(0,0,0); fill-rule: nonzero; opacity: 1;" vector-effect="non-scaling-stroke"  transform=" translate(-332.5, -542.5)" d="M 297.5 533.75 L 367.5 533.75 L 367.5 551.25 L 297.5 551.25 z" stroke-linecap="round" />
</g>
		<g transform="matrix(1.33 0 0 1.33 58.31 344.14)"  >
<path style="stroke: none; stroke-width: 1; stroke-dasharray: none; stroke-linecap: butt; stroke-dashoffset: 0; stroke-linejoin: miter; stroke-miterlimit: 4; fill: rgb(0,0,0); fill-rule: nonzero; opacity: 1;" vector-effect="non-scaling-stroke"  transform=" translate(-393.75, -542.5)" d="M 385 533.75 L 402.5 533.75 L 402.5 551.25 L 385 551.25 z" stroke-linecap="round" />
</g>
		<g transform="matrix(1.33 0 0 1.33 116.61 344.14)"  >
<path style="stroke: none; stroke-width: 1; stroke-dasharray: none; stroke-linecap: butt; stroke-dashoffset: 0; stroke-linejoin: miter; stroke-miterlimit: 4; fill: rgb(0,0,0); fill-rule: nonzero; opacity: 1;" vector-effect="non-scaling-stroke"  transform=" translate(-437.5, -542.5)" d="M 420 533.75 L 455 533.75 L 455 551.25 L 420 551.25 z" stroke-linecap="round" />
</g>
		<g transform="matrix(1.33 0 0 1.33 198.24 344.14)"  >
<path style="stroke: none; stroke-width: 1; stroke-dasharray: none; stroke-linecap: butt; stroke-dashoffset: 0; stroke-linejoin: miter; stroke-miterlimit: 4; fill: rgb(0,0,0); fill-rule: nonzero; opacity: 1;" vector-effect="non-scaling-stroke"  transform=" translate(-498.75, -542.5)" d="M 472.5 533.75 L 525 533.75 L 525 551.25 L 472.5 551.25 z" stroke-linecap="round" />
</g>
		<g transform="matrix(1.33 0 0 1.33 268.31 344.14)"  >
<path style="stroke: none; stroke-width: 1; stroke-dasharray: none; stroke-linecap: butt; stroke-dashoffset: 0; stroke-linejoin: miter; stroke-miterlimit: 4; fill: rgb(0,0,0); fill-rule: nonzero; opacity: 1;" vector-effect="non-scaling-stroke"  transform=" translate(-551.25, -542.5)" d="M 542.5 533.75 L 560 533.75 L 560 551.25 L 542.5 551.25 z" stroke-linecap="round" />
</g>
		<g transform="matrix(1.33 0 0 1.33 326.6 344.14)"  >
<path style="stroke: none; stroke-width: 1; stroke-dasharray: none; stroke-linecap: butt; stroke-dashoffset: 0; stroke-linejoin: miter; stroke-miterlimit: 4; fill: rgb(0,0,0); fill-rule: nonzero; opacity: 1;" vector-effect="non-scaling-stroke"  transform=" translate(-595, -542.5)" d="M 577.5 533.75 L 612.5 533.75 L 612.5 551.25 L 577.5 551.25 z" stroke-linecap="round" />
</g>
		<g transform="matrix(1.33 0 0 1.33 -245.09 344.14)"  >
<path style="stroke: none; stroke-width: 1; stroke-dasharray: none; stroke-linecap: butt; stroke-dashoffset: 0; stroke-linejoin: miter; stroke-miterlimit: 4; fill: rgb(0,0,0); fill-rule: nonzero; opacity: 1;" vector-effect="non-scaling-stroke"  transform=" translate(-166.25, -542.5)" d="M 140 533.75 L 192.5 533.75 L 192.5 551.25 L 140 551.25 z" stroke-linecap="round" />
</g>
		<g transform="matrix(1.33 0 0 1.33 -326.73 344.14)"  >
<path style="stroke: none; stroke-width: 1; stroke-dasharray: none; stroke-linecap: butt; stroke-dashoffset: 0; stroke-linejoin: miter; stroke-miterlimit: 4; fill: rgb(0,0,0); fill-rule: nonzero; opacity: 1;" vector-effect="non-scaling-stroke"  transform=" translate(-105, -542.5)" d="M 87.5 533.75 L 122.5 533.75 L 122.5 551.25 L 87.5 551.25 z" stroke-linecap="round" />
</g>
</g>
</g>
</svg>