<?xml version="1.0" encoding="utf-8"?>
<svg version="1.1" x="0px" y="0px" viewBox="0 0 55 68.75" style="enable-background:new 0 0 55 55;" xmlns="http://www.w3.org/2000/svg">
  <path d="M 52.5 13.964 C 51.894 13.105 50.996 12.523 49.965 12.342 C 47.836 11.97 45.803 13.41 45.434 15.558 C 45.264 16.569 45.5 17.562 46.011 18.363 C 45.32 18.211 44.583 18.268 43.902 18.564 C 43.57 18.707 43.277 18.898 43.012 19.117 L 42.993 19.088 L 32.409 26.608 L 30.508 27.963 L 20.624 27.505 L 20.283 34.93 L 32.05 35.483 L 26.583 42.812 L 32.475 47.287 L 39.967 37.248 L 39.872 30.96 L 40.648 30.406 L 40.421 32.181 L 47.401 37.477 L 48.943 35.416 L 43.154 31.017 L 44.327 21.703 C 44.393 21.207 44.753 20.997 44.904 20.93 C 45.056 20.863 45.453 20.749 45.859 21.045 C 46.134 21.255 46.276 21.598 46.238 21.942 L 45.245 29.815 L 50.248 33.613 L 51.79 31.551 L 47.978 28.65 L 48.782 22.266 C 48.886 21.474 48.716 20.692 48.328 20.024 C 48.432 20.052 48.536 20.09 48.65 20.119 C 48.877 20.157 49.104 20.176 49.321 20.176 C 51.185 20.176 52.85 18.821 53.181 16.903 C 53.332 15.873 53.105 14.823 52.5 13.964 Z M 22.96 32.467 L 23.064 30.196 L 31.265 30.578 L 32.456 29.729 L 32.494 32.506 L 31.965 32.887 L 22.96 32.467 Z M 37.29 29.633 L 37.384 36.399 L 31.965 43.661 L 30.167 42.297 L 35.105 35.683 L 34.991 27.935 L 41.546 23.278 L 41.083 26.952 L 37.29 29.633 Z M 50.636 16.464 C 50.504 17.209 49.804 17.705 49.066 17.581 C 48.328 17.447 47.836 16.741 47.959 15.997 C 48.073 15.329 48.65 14.861 49.293 14.861 C 49.369 14.861 49.444 14.871 49.529 14.88 C 49.889 14.947 50.201 15.138 50.409 15.443 C 50.617 15.748 50.702 16.111 50.636 16.464 Z" style=""/>
  <path d="M 10.285 16.197 C 10.361 16.197 10.446 16.197 10.522 16.187 C 12.678 16.054 14.324 14.183 14.201 12.008 C 14.069 9.832 12.215 8.171 10.058 8.296 C 9.018 8.362 8.053 8.83 7.362 9.612 C 6.672 10.404 6.322 11.416 6.379 12.466 C 6.445 13.515 6.908 14.489 7.693 15.185 C 8.422 15.853 9.33 16.197 10.285 16.197 Z M 9.282 11.34 C 9.528 11.063 9.859 10.901 10.219 10.882 C 10.247 10.882 10.276 10.882 10.304 10.882 C 11.013 10.882 11.619 11.445 11.657 12.17 C 11.704 12.924 11.127 13.573 10.38 13.62 C 10.02 13.639 9.67 13.525 9.396 13.277 C 9.122 13.038 8.961 12.704 8.942 12.332 C 8.914 11.97 9.037 11.616 9.282 11.34 Z" style=""/>
  <path d="M 14.324 19.852 C 14.182 17.867 12.517 16.311 10.55 16.311 C 9.15 16.311 7.901 17.075 7.239 18.296 L 1.479 26.875 L 5.329 34.786 L 6.984 33.966 L 3.503 48.633 L 10.985 48.633 L 10.985 46.047 L 6.748 46.047 L 9.273 35.397 L 17.531 48.623 L 26.356 48.623 L 15.1 30.435 L 14.324 19.852 Z M 7.079 33.918 L 7.088 33.928 L 7.069 33.928 L 7.079 33.918 Z M 18.959 46.056 L 10.209 32.038 L 11.212 31.532 L 9.188 27.477 L 10.758 24.728 L 8.545 23.44 L 6.284 27.391 L 8.923 32.677 L 8.308 33.069 L 7.589 33.508 L 4.459 27.076 L 9.68 19.308 L 9.67 19.298 C 9.897 19.041 10.228 18.888 10.578 18.888 C 11.222 18.888 11.751 19.394 11.799 20.033 L 12.621 31.265 L 21.768 46.047 L 18.959 46.047 L 18.959 46.056 Z" style=""/>
</svg>