<svg xmlns="http://www.w3.org/2000/svg" version="1.1" viewBox="-5.0 -10.0 110.0 135.0">
 <path d="m54.277 74.332c-1.375-0.67578-4.293-4.4258-5.8672-7.5508l-0.41016-0.81641-0.85156 0.078125c-3.0312 0.27734-5.4453 0.36328-8.6953 0.32031l-3.6836-0.050781-0.078125 0.66797c-0.25 2.1289-2.2617 6.4023-3.3203 7.0586-0.49219 0.30469-1.5039 0.34766-1.9766 0.085938-0.57812-0.32031-1.8281-1.6797-2.5898-2.8164-0.9375-1.3945-1.7734-3.0312-2.4141-4.7305l-0.48438-1.2773-2.4023-0.34375c-7.6133-1.0938-14.582-3.125-18.34-5.3477-1.8711-1.1055-3.1602-2.707-3.1602-3.9219 0-0.45312 0.074219-0.63281 0.39453-0.95312l0.39453-0.39453 2.1836 0.078125c1.2148 0.042969 2.1289 0.03125 2.0664-0.03125-0.0625-0.058594-0.69141-0.55469-1.3945-1.0977-1.7148-1.3281-3.1172-2.5859-3.4023-3.0586-0.47266-0.77344-0.14844-1.9336 0.875-3.1289 1.6484-1.9258 6.1992-4.9141 10.449-6.8633 7.7695-3.5625 18.93-6.293 28.129-6.8906l1.3125-0.085937 0.41016-0.71484c0.76562-1.3398 2.6328-3.6719 3.9141-4.8867 1.2812-1.2188 2.5469-2.0273 3.4258-2.1914 1.7773-0.33203 5.8906 3.082 9.4375 7.8359l1.1953 1.5977 1.6953 0.49609c0.93359 0.27344 2.3945 0.74219 3.2461 1.043 0.85156 0.30078 1.5977 0.49609 1.6602 0.4375 0.20703-0.19531 3.4453-1.7812 4.2734-2.0898 1.6016-0.60156 2.3516-0.55859 3.4727 0.18359 0.99219 0.65625 2.3906 2.6094 2.3906 3.3398 0 0.40625-0.40625 1.0312-1.1562 1.7812l-0.63672 0.63672 1.375 0.64453c2.8711 1.3438 4.9336 1.793 6.9805 1.5195 2.0391-0.26953 3.8125-0.97266 5.7617-2.2773 1.1719-0.78516 1.5703-1.1094 3.9062-3.2031 1.875-1.6836 3.7188-3.0469 4.3438-3.2148 1.5742-0.42188 3.3086 0.95703 3.3086 2.6289 0 1.9883-1.6719 8.0977-3.2461 11.855-0.52734 1.2617-0.54297 1.3359-0.36719 1.75 0.46094 1.0977 1.8516 5.4883 2.3164 7.332 0.70312 2.7656 0.94531 4.1367 0.96484 5.4375 0.015625 1.0078-0.015625 1.1445-0.36719 1.7188-0.51953 0.83984-1.5156 1.3867-2.3789 1.3047-1.2227-0.11328-3.3633-1.5625-6.8086-4.6055-1.543-1.3633-2.6289-2.1016-4.0898-2.7773-2.5078-1.1602-5.3984-1.5273-7.8594-1l-0.57813 0.125 0.80078 1.6016c1.043 2.082 1.0508 2.332 0.12891 3.5625-0.9375 1.25-3.0742 3.4414-4.0078 4.1055-0.83594 0.59375-1.6484 0.94141-2.2148 0.94141-0.62891 0-1.3711-0.55469-2.6406-1.9805-1.8711-2.0938-3.4922-3.75-3.7578-3.8359-0.12891-0.039062-0.96875 0.16016-1.8672 0.44922-1.3594 0.43359-3.75 1.0898-5.3008 1.4531l-0.34375 0.082031 0.1875 0.52734c0.41797 1.1797 0.16797 3.7891-0.59766 6.3047-0.55469 1.8164-1.0469 2.8008-1.5664 3.1211-0.53125 0.32812-1.4961 0.34766-2.1211 0.039063zm1.4062-3.3359c0.47656-1.4297 0.89062-3.4688 0.89062-4.3906 0-1.2188-0.625-1.8398-2.2266-2.2031-1.1133-0.25391-4.3945-0.72266-4.7109-0.67188-0.20312 0.03125-0.12109 0.26172 0.59766 1.7188 0.91406 1.8555 1.5625 2.9375 2.6172 4.3828 0.86328 1.1836 2.1992 2.5938 2.3281 2.4609 0.054687-0.054688 0.27734-0.63672 0.5-1.2969zm-24.879 0.082031c1.1641-2.0977 1.9023-4.4688 1.7109-5.4922-0.11328-0.60938-0.8125-1.2266-2.0625-1.8203-0.88672-0.42188-4.7305-1.9805-4.8828-1.9805-0.10156 0 0.10547 1.1523 0.43359 2.4219 0.66406 2.5664 1.8984 5.1406 3.3672 7.0195 0.38672 0.49609 0.73438 0.90234 0.77344 0.90234 0.039063 0 0.33594-0.47266 0.65625-1.0508zm42.457-5.6953c0.68359-0.54297 2.5625-2.4727 3.1953-3.2812l0.40625-0.51953-0.23828-0.53125c-0.19141-0.42969-1.207-2.2656-1.3516-2.4375-0.066407-0.082031-1.3477 0.37109-4.2031 1.4883-1.5469 0.60547-2.832 1.1133-2.8555 1.1289-0.027344 0.019531 0.57812 0.71094 1.3438 1.5391s1.7031 1.8672 2.0859 2.3047c0.38281 0.4375 0.76562 0.79688 0.84766 0.79688 0.082031 0 0.42969-0.22266 0.76953-0.49219zm-29.41-1.4297c1.2031-0.070313 2.3789-0.16016 2.6094-0.19922 0.39453-0.0625 0.41406-0.089844 0.33984-0.48828-0.10938-0.58203 0.21484-1.293 0.73438-1.6055 0.52344-0.32031 1.4961-0.33594 3.5586-0.066406 1.5195 0.19922 3.9375 0.65625 4.3984 0.82812 0.48437 0.18359 5.1719-0.92969 8.293-1.9727 0.91797-0.30859 3.2539-1.1875 5.1875-1.957 5.9297-2.3633 8.0117-2.9414 10.977-3.0508 1.2031-0.046875 2.1875-0.015625 2.8086 0.089844 1.3086 0.21875 1.3594 0.20703 2.0273-0.35547 1.2539-1.0586 2.0586-2.7109 2.0586-4.2383v-0.74219l-0.48047-0.078124c-0.26172-0.042969-1.7422-0.078126-3.2891-0.082032h-2.8086l-0.87891 1.207c-0.48438 0.66406-0.96094 1.2383-1.0625 1.2773-0.28125 0.10938-0.67578-0.16016-0.67578-0.46094 0-0.14844 0.28906-0.65625 0.63672-1.1289 0.35156-0.47266 0.63672-0.89063 0.63672-0.92578s-2.168-0.10156-4.8203-0.14453c-2.6523-0.046875-5.7695-0.11328-6.9297-0.14844l-2.1055-0.066407-0.89453 1.2734c-0.49219 0.69922-0.97266 1.3086-1.0703 1.3477-0.21484 0.089844-0.78125-0.25781-0.77734-0.47656 0-0.085937 0.32031-0.57812 0.71094-1.0977 0.38672-0.51562 0.6875-0.96094 0.66406-0.98438-0.039063-0.039062-9.5391-0.3125-10.699-0.30859-0.41797 0-0.50391 0.078124-1.2773 1.1602-0.45703 0.63672-0.92188 1.207-1.0352 1.2695-0.23438 0.125-0.75391-0.17969-0.75391-0.44531 0-0.09375 0.28516-0.55859 0.63672-1.0391 0.34766-0.48047 0.61328-0.89453 0.58594-0.92188s-2.1367-0.097656-4.6914-0.16016c-2.5508-0.0625-6.082-0.14844-7.8438-0.19531l-3.2031-0.085937-0.87891 1.2266c-0.48437 0.67578-0.98828 1.2617-1.1211 1.3047-0.15234 0.046875-0.33594-0.015625-0.49609-0.17578-0.30078-0.30078-0.23828-0.46094 0.62109-1.5547l0.55859-0.70703-0.54297-0.085938c-0.30078-0.046875-1.5-0.089843-2.6641-0.097656l-2.1211-0.007813 0.20312 0.79688c0.28906 1.1445 0.28125 4.7031-0.015624 5.875-0.30469 1.2148-0.91016 2.7266-1.4375 3.6055-0.24609 0.41016-0.43359 0.75391-0.41406 0.76562s0.78125 0.32812 1.6953 0.70312c2.8828 1.1875 4.3672 2.0078 5.168 2.8555 0.42188 0.44922 0.47266 0.46484 1.4648 0.50391 2.457 0.10156 6.3945 0.085938 8.418-0.035156zm-1.3906-4.0156c-0.40234-0.40234-0.43359-1.2266-0.0625-1.5977 0.55859-0.55859 1.4023-0.48438 1.793 0.16016 0.34766 0.57031 0.31641 0.94141-0.12109 1.3789-0.48828 0.48828-1.1602 0.51172-1.6133 0.058594zm-9.8281-2.0469c-1.3477-0.48828-1.7188-2.2227-0.69141-3.25 0.98438-0.98438 2.625-0.70312 3.1953 0.55078 0.30078 0.66016 0.30078 1.0273 0 1.6875-0.41406 0.91406-1.5273 1.3672-2.5039 1.0117zm1.2812-1.2734c0.17188-0.17188 0.3125-0.43359 0.3125-0.58203 0-0.30469-0.53516-0.89453-0.8125-0.89453-0.53516 0-1.0547 0.64844-0.89062 1.1094 0.25391 0.71875 0.875 0.87891 1.3906 0.36328zm24.953 0.066406c-0.76563-0.76562-0.3125-1.9258 0.75391-1.9258 1.0938 0 1.6016 1.2773 0.78125 1.9688-0.53125 0.44922-1.0586 0.43359-1.5312-0.042968zm-6.0039-0.63672c-0.25391-0.25391-0.375-0.5-0.375-0.77734 0-0.27344 0.11719-0.51953 0.375-0.77734 0.47656-0.47656 1-0.49219 1.5312-0.042969 0.31641 0.26562 0.39453 0.42969 0.39453 0.83594 0 1.0703-1.1562 1.5273-1.9258 0.75781zm-6.9492-0.49609c-0.49609-0.097656-0.83203-0.54297-0.83203-1.1094 0-1.2656 1.6875-1.6172 2.168-0.45703 0.36328 0.87891-0.38281 1.75-1.3359 1.5664zm-7.8086-0.28516c-0.52734-0.16016-1.1602-0.89062-1.2656-1.4648-0.25-1.332 0.62891-2.3633 2.0156-2.3594 1.9062 0 2.582 2.4414 0.99219 3.5938-0.39453 0.28516-1.207 0.39453-1.7422 0.23438zm1.2031-1.2148c0.34375-0.24219 0.38281-0.88672 0.074218-1.2266-0.30469-0.33594-1-0.30859-1.25 0.050781-0.27344 0.39062-0.25 0.73047 0.078126 1.082 0.32422 0.34375 0.69922 0.37891 1.0977 0.097657zm31.191 0.36328c-0.48047-0.17578-0.76562-0.59375-0.76562-1.125 0-0.84766 0.78516-1.3945 1.5469-1.0781 0.37891 0.15625 0.75 0.69141 0.75 1.0781 0 0.40625-0.38281 0.93359-0.78125 1.0703-0.44141 0.15234-0.46484 0.15625-0.75 0.050781zm26.793 9.5156c0.085937-0.085938 0.15234-0.41797 0.15234-0.74219 0-0.66406-0.35937-2.9023-0.50781-3.1758-0.097656-0.17578-2.4219-1.4883-5.6992-3.2188-1.832-0.96875-2.2266-1.2812-2.0156-1.6133 0.34375-0.54297 0.42578-0.51563 3.875 1.3633 1.8398 1.0039 3.3711 1.7969 3.4023 1.7656 0.12891-0.12891-1.707-5.8984-2.3477-7.3906-0.24609-0.57031-0.26953-0.58984-0.9375-0.66797-0.375-0.046875-1.4453-0.082031-2.375-0.082031h-1.6914v0.5c0 0.72266-0.31641 2.2656-0.62891 3.0547-0.32031 0.80859-0.96484 1.8398-1.5273 2.4375-0.22266 0.23828-0.39063 0.44922-0.37109 0.46875 0.019531 0.019532 0.4375 0.24609 0.92969 0.50781 1.4375 0.76172 2.5391 1.5508 4.3047 3.0938 2.0586 1.8008 4.7852 3.8398 5.1523 3.8555 0.074219 0.003906 0.20313-0.0625 0.28906-0.14844zm-76.066-2.0508c1.4141-0.73047 2.3789-1.4688 2.5977-1.9805 0.11328-0.27344 0.33203-0.48438 0.61719-0.60156 0.55469-0.23047 0.85938-0.62109 1.4922-1.9062 0.80469-1.6367 1.0547-2.7734 1.0547-4.7969 0-2.0195-0.24219-3.1172-1.0664-4.8438-1.7695-3.6992-5.1445-6.1562-9.1523-6.6523l-1.0742-0.13281-1.9883 0.83203c-4.5078 1.8828-9.3711 4.9648-11.023 6.9883l-0.38281 0.46875 0.92578 0.82031c0.96094 0.85156 3.2305 2.5859 5.0352 3.8477 1.2227 0.85156 1.4609 1.2812 1.1445 2.0391-0.34375 0.82422-0.64453 0.91797-2.8203 0.88281-1.0547-0.015625-2.3164-0.066406-2.8008-0.10938-0.60547-0.054687-0.85156-0.039063-0.79297 0.054687 0.15234 0.25 2.2422 1.4414 3.4336 1.9648 2.4102 1.0508 6.6523 2.3984 7.5469 2.3984 0.65234 0 2.3281-0.625 3.1562-1.1797 2.5586-1.707 3.5586-5.2305 2.4141-8.4883-0.51953-1.4727-0.55469-1.6367-0.46094-2.0156 0.089844-0.35938 0.66406-0.70703 1.1641-0.70703 1.3633 0 2.4258 4.4883 1.7852 7.5352-0.44141 2.1055-1.6953 4.1133-3.293 5.2734l-0.74219 0.53906 0.74219 0.14453c1.1836 0.23438 1.375 0.20312 2.4922-0.37109zm-10.754-8.6406c-0.87891-0.26562-1.8008-1.0586-2.2305-1.9062-0.33203-0.66016-0.38672-1.6445-0.13672-2.5039 0.28906-0.98828 1.2422-1.9727 2.2305-2.3008 0.84766-0.28125 2.0312-0.21484 2.7656 0.16016 1.1133 0.56641 1.9688 1.9414 1.9688 3.1562 0 1.8828-1.7109 3.5352-3.6289 3.5-0.35547-0.007812-0.79297-0.054688-0.96875-0.10938zm1.6758-1.0469c1.4219-0.47656 2.1328-1.9492 1.5781-3.2695-0.39062-0.93359-1.1719-1.4375-2.2305-1.4375-1.7891 0-2.9414 1.793-2.1719 3.3789 0.55469 1.1445 1.7266 1.6953 2.8242 1.3281zm-1.4102-1.7227c-0.35156-0.44922-0.33594-0.95703 0.046875-1.3672 0.64062-0.69141 1.7305-0.22266 1.7305 0.74219 0 0.61719-0.36719 0.96484-1.0117 0.96484-0.39062 0-0.5625-0.074219-0.76562-0.33594zm83.703-2.0586c1.0859-2.6016 2.457-6.7188 2.3477-7.0508-0.023437-0.074219-1.625 0.93359-3.5547 2.2344s-3.5898 2.3516-3.6875 2.332-0.26172-0.16016-0.35938-0.30859c-0.16406-0.24609-0.15234-0.30469 0.11328-0.59375 0.16016-0.17578 2.0273-1.4766 4.1445-2.8867l3.8516-2.5625 0.12891-0.60938c0.42188-1.9883 0.4375-2.2305 0.16797-2.5-0.25391-0.25391-0.25391-0.25391-1.3438 0.59766-0.60156 0.46875-1.9883 1.6562-3.0898 2.6367-1.0977 0.98438-2.457 2.1094-3.0156 2.5039-1.0273 0.72266-3.3242 1.9648-3.6367 1.9648-0.24219 0-0.23828 0.007812 0.41797 0.71094 0.80469 0.86328 1.5078 2.1016 1.8633 3.2773l0.29688 0.98438 1.8516 0.039063c1.0195 0.023437 2.1445 0.050781 2.5 0.066406l0.64844 0.027344zm-7.7227 0.52734c0-0.33984-0.76172-1.7852-1.2305-2.332-0.23828-0.27734-0.72266-0.71875-1.0742-0.97656l-0.63672-0.46875-2.0742-0.03125c-3.1484-0.050781-3.9297-0.29297-9.9297-3.1055-7.9336-3.7188-12.77-5.2266-19.859-6.1836-1.9492-0.26172-2.6641-0.29297-7.0234-0.28906-3.6797 0.003907-5.3477 0.058594-6.8984 0.22266-4.6836 0.50391-8.8906 1.2344-12.965 2.2578-1.918 0.48047-4.9688 1.3516-5.0625 1.4414-0.023438 0.023438 0.28516 0.17969 0.6875 0.34375 3.1758 1.2891 6.0273 4.0977 7.457 7.3359l0.29688 0.67578 2.7969 0.085937c1.5391 0.046876 2.8203 0.066407 2.8438 0.039063 0.027344-0.027344-0.23828-0.44531-0.59375-0.92578-0.67578-0.92578-0.76172-1.1992-0.44922-1.457 0.37109-0.30859 0.75391-0.015624 1.5938 1.2031l0.82422 1.1992 1.9219 0.074219c2.9375 0.11328 13.754 0.35547 13.801 0.30859 0.023438-0.023438-0.21094-0.37891-0.51953-0.79297-0.66016-0.87891-0.77344-1.168-0.5625-1.4219 0.36719-0.44141 0.71484-0.22266 1.5977 1.0117l0.85938 1.1992 1.8047 0.078126c0.99219 0.042968 3.5195 0.11328 5.6172 0.16016l3.8164 0.082031-0.66016-0.87109c-0.67188-0.88672-0.76562-1.2578-0.37891-1.4961 0.33594-0.21094 0.57812-0.027344 1.3984 1.0859 0.42969 0.58203 0.83594 1.1172 0.90234 1.1836 0.10156 0.10547 13.734 0.45703 13.895 0.35547 0.027344-0.019532-0.20703-0.36328-0.52344-0.76953-0.73438-0.9375-0.82031-1.1992-0.48828-1.5 0.38672-0.34766 0.65234-0.15234 1.5664 1.1484l0.80859 1.1484 2.7383 0.066407c1.5078 0.039062 2.957 0.082031 3.2188 0.097656 0.36719 0.023437 0.48047-0.019532 0.48047-0.17969zm-16.102-3.1055c-0.25391-0.25391-0.375-0.5-0.375-0.77734 0-0.56641 0.59766-1.1484 1.1836-1.1484 0.64844 0 1.1133 0.48047 1.1133 1.1484 0 1.0898-1.1484 1.5508-1.9258 0.77734zm-17.941-0.44922c-0.21094-0.21094-0.3125-0.45703-0.3125-0.75391 0-0.61719 0.10547-0.82812 0.51953-1.043 0.52734-0.27344 0.83203-0.23047 1.293 0.17969 0.32422 0.28906 0.41016 0.46875 0.41016 0.84766 0 0.96484-1.2227 1.457-1.9102 0.77344zm12.332-0.61719c-0.69531-0.35156-0.82422-1.2031-0.26953-1.7617 0.76953-0.76953 1.9258-0.3125 1.9258 0.75781 0 0.40625-0.074218 0.57031-0.39453 0.83594-0.43359 0.36328-0.78516 0.41016-1.2656 0.16797zm-21.523-0.39844c-0.70312-0.3125-1.2148-1.082-1.2148-1.832 0-0.60547 0.49609-1.4258 1.0312-1.6953 0.89453-0.45703 1.8555-0.28906 2.5391 0.44141 0.23828 0.25391 0.32422 0.51172 0.36719 1.0898 0.070313 0.95312-0.24219 1.5273-1.043 1.9102-0.625 0.30469-1.1289 0.32812-1.6797 0.085938zm1.3633-1.1797c0.28906-0.26172 0.30469-0.90625 0.023438-1.2148-0.27734-0.30859-0.875-0.29688-1.1953 0.023438-0.32812 0.32812-0.32422 0.64453 0.007813 1.0664 0.30469 0.39062 0.80859 0.44531 1.1602 0.125zm-6.6211 1.1055c-0.65234-0.26172-0.79687-1.3984-0.23828-1.8789 0.71484-0.61719 1.7891-0.19922 1.9414 0.75781 0.066406 0.41016 0.023437 0.52734-0.3125 0.86328-0.40234 0.40234-0.83594 0.48438-1.3906 0.26172zm-9.3008-0.50391c-0.14062-0.058593-0.42578-0.28516-0.62891-0.50391-0.49609-0.52344-0.60156-1.625-0.22656-2.3086 0.34375-0.625 1.1992-1.0625 1.9258-0.98437 1.8438 0.19922 2.457 2.6055 0.92578 3.6289-0.45312 0.30469-1.4609 0.38672-1.9922 0.16797zm1.3867-1.1641c0.45312-0.35547 0.45312-0.90234 0-1.2578-0.42188-0.33203-0.74219-0.33594-1.0664-0.007813-0.33984 0.33984-0.32812 0.94531 0.023437 1.2734 0.35547 0.32813 0.62109 0.32813 1.043-0.003906zm26.262 0.03125c-0.48828-0.25391-1.0195-1.1328-1.0195-1.6836 0-0.63281 0.53125-1.4453 1.1445-1.7578 0.3125-0.15625 0.71875-0.28906 0.89844-0.28906 0.17969 0 0.58594 0.12891 0.89844 0.28906 1.1172 0.5625 1.4453 1.9961 0.67188 2.9141-0.64844 0.76953-1.7109 0.98438-2.5938 0.52344zm1.543-1.0234c0.58594-0.47266 0.21094-1.5508-0.53906-1.5508-0.13672 0-0.39453 0.14844-0.57422 0.32422-0.37891 0.37891-0.33594 0.86719 0.10156 1.2383 0.33984 0.28516 0.64453 0.28125 1.0078-0.011719zm-10.277-2.1992c-0.37891-0.45312-0.41016-0.74219-0.13281-1.2773 0.35156-0.67578 1.1016-0.80859 1.707-0.29688 0.82813 0.69531 0.34766 1.9688-0.73828 1.9688-0.40625 0-0.57031-0.074219-0.83594-0.39453zm-10.117-0.23828c-0.70703-0.29687-0.91016-1.3242-0.37109-1.8633 0.3125-0.3125 0.93359-0.41406 1.4062-0.23438 0.26563 0.10156 0.58203 0.71094 0.58203 1.1211 0 0.69141-0.94141 1.2617-1.6133 0.97656zm35.293-0.24219 0.65625-0.74609-0.54688-0.69531c-0.30078-0.38281-0.70703-0.80078-0.90625-0.92969-0.34766-0.22656-0.38672-0.22656-1.0742-0.011719-0.92188 0.28906-2.9453 1.1289-2.9453 1.2266 0 0.082031 3.8164 1.8789 4.0234 1.8945 0.070313 0.003906 0.42578-0.32422 0.78906-0.73828zm-17.531-5.4805c-2.0664-2.4648-4.3828-4.668-5.7656-5.4805-0.67188-0.39453-0.80859-0.35547-1.9883 0.58203-1.0273 0.81641-2.2461 2.1406-3.3203 3.6016l-0.71094 0.97266 2.8984 0.078124c2.9219 0.078126 5.2227 0.29297 7.6875 0.71875 1.9766 0.34375 1.9062 0.37109 1.2031-0.47266z"/>
</svg>