<svg xmlns="http://www.w3.org/2000/svg" version="1.1" viewBox="-5.0 -10.0 110.0 135.0">
 <path d="m97.234 52.516s-0.99219-0.99219-5.1953-1.0273c0.97266-1.5156 3.5391-3.5781 3.5391-3.5781l-0.375-0.39453c-0.28906-0.30859-6.1172-6.2227-22.578-8.4453l-3.3828-9.6875s-5.6484 6.5078-16.781 9.8828c-1.2461-1.3516-6.5938-6.9414-9.3906-6.5703l-0.46094 0.0625s0.19141 2.7305 2.4375 4.8398c1.6172 1.5195-0.023437 3.9219-0.38281 4.3984-0.46875 0.21094-19.031 7.9844-24.32 7.9844-1.1328 0-2.582-0.17969-3.0586-1.0312-6.5-11.633-14.238-11.906-14.238-11.906s7.793 8.5078 7.8203 14.422l-0.40234 2.668c-0.15625 4.2773-7.6992 13.281-7.6992 13.281s10.387-3.3672 14.867-14.203c2.5781-0.66797 20.688 5.0391 25.469 6.6914h0.003907c-0.09375 0.67188-0.12109 1.0312-0.12109 1.2227-0.41016 0.64062-2.875 3.8047-4.4141 5.7461l-0.97656 1.2305 1.5078-0.44141c0.33984-0.10156 8.1172-2.4219 10.547-6.3281 3.4062 0.44531 8.1719 0.85547 13.398 0.85547 1.5117 0 2.9844-0.039062 4.4258-0.10547l-1.0195 1.1055 0.1875 0.32422c0.011719 0.019531 1.125 1.9922 0.17578 5.7266l-0.35156 1.3789 1.1367-0.85547c0.25781-0.19531 6.1797-4.6992 7.7344-8.5 11.141-2.0898 21.898-8.7461 21.898-8.7461zm-10.703-3.6133c0 0.63281-0.51562 1.1445-1.1484 1.1445-0.63281 0-1.1445-0.51562-1.1445-1.1445 0-0.63281 0.51562-1.1445 1.1445-1.1445 0.63281 0 1.1484 0.51172 1.1484 1.1445zm-46.125 17.273c3.6836-4.6719 3.6562-4.7812 3.5859-5.0195-0.007813-0.10547 0.03125-0.50781 0.085937-0.91406 0.29297 0.10156 0.51562 0.17578 0.65625 0.21875 0.55469 0.17578 1.9102 0.44922 3.8281 0.72656-1.7695 2.3828-5.8828 4.1523-8.1562 4.9883zm27.656 1.9336c0.375-2.4883-0.11328-4.0938-0.39453-4.7578l1.2656-1.3438c1.1094-0.070312 2.2031-0.15625 3.2539-0.27344 0.65234-0.070313 1.3047-0.16406 1.9531-0.26562-1.2969 2.4805-4.4219 5.2695-6.0781 6.6406zm4.0156-7.3711c-2.8125 0.30469-5.8477 0.45703-9.0234 0.45703-8.9531 0-16.516-1.207-18.02-1.6875-0.25781-0.082031-16.055-5.5469-22.598-6.8594 2.5703-0.44922 4.5625-1.0625 6.7422-1.7344 3.7266-1.1484 8.3633-2.5781 17.934-3.7461 11.168-1.3633 20.062-1.2227 26.617-0.76562-0.55859 1.8047-1.9141 7.0742 0.23828 10 0.95703 1.3047 4.7578 1.9609 4.8984 1.957 0 0-3.2812-1.4414-4.0938-2.5469-1.9453-2.6484-0.46875-7.9219-0.019532-9.3359 2.8281 0.21875 8.9375 0.91406 9.0938 0.92969-0.375 0.38672-0.60938 0.91406-0.60938 1.4922 0 1.1836 0.96094 2.1445 2.1445 2.1445 1.1836 0 2.1484-0.96094 2.1484-2.1445 0-0.42578-0.12891-0.82422-0.34375-1.1562 2.9219 0.27344 5.2656 0.44531 6.4219 0.52344-0.95703 0.86719-3.4922 4.1172-3.4922 4.1172 3.5156 0.050782 3.8516 0.12891 5.0078 0.23828-3.1797 1.8086-13.047 7.0391-23.047 8.1172z"/>
 <path d="m48.469 53.109s5.8047 1.8906 13.949 0.66016c1.1445-0.16797 2.082 0.23828 3.082 0.67188 0.53906 0.23438 1.0859 0.66406 1.75 0.625 2.0469-0.125 3.2539-2.2422 3.2539-2.2422-1.3359 0.92578-3.0938 1.2539-3.0938 1.2578-0.5-0.11719-0.99219-0.33203-1.5156-0.55859-1.0312-0.44531-2.207-0.95703-3.6289-0.74219-5.2266 0.78906-8.7031 0.39062-10.461 0.03125 13.484-5.5938 20.094-2.418 20.16-2.3828 0.003906 0-5.3398-5.5078-23.496 2.6797z"/>
 <path d="m85.773 46.531c0 0.015625 0.007812 0.03125 0.007812 0.046875 0 0.23438-0.1875 0.42188-0.42188 0.42188s-0.42188-0.1875-0.42188-0.42188 0.1875-0.42188 0.42188-0.42188c0.042969 0 0.078125 0.011719 0.11719 0.023438-0.16016-0.12109-0.34766-0.20313-0.5625-0.20313-0.51953 0-0.94141 0.42188-0.94141 0.94141s0.42188 0.94141 0.94141 0.94141c0.51953 0 0.94141-0.42188 0.94141-0.94141 0.003906-0.14062-0.027344-0.26953-0.082031-0.38672z"/>
</svg>