<svg xmlns="http://www.w3.org/2000/svg" version="1.1" viewBox="-5.0 -10.0 110.0 135.0">
 <g>
  <path d="m78.324 55.242c5.3203 0.40625 10.648 0.73047 15.973 1.1211h-0.003906c0.77734 0.14453 1.5781-0.046875 2.207-0.52344 1.5664-1.4531 1.6758-3.8984 0.24609-5.4844-0.53516-0.53516-1.2969-0.77344-2.0391-0.63281-6.7266 0.92188-13.461 1.7773-20.195 2.6367 0.042969-0.66406 0.03125-1.3281 0.015625-1.9961 6.9023-0.40625 13.809-0.74219 20.707-1.1953 0.86328-0.058594 1.668-0.47656 2.2109-1.1484 1.4062-1.8359 1.1289-4.4492-0.62891-5.9492-0.57031-0.51562-1.3672-0.70312-2.1055-0.49609-6.8672 1.9141-13.754 3.7422-20.629 5.6133-0.089843-0.4375-0.1875-0.875-0.30078-1.3086 6.7461-1.6445 13.504-3.2656 20.238-4.9648 1.0391-0.11328 2.0195-0.52344 2.8359-1.1758 1.2227-1.4648 1.3477-3.5547 0.3125-5.1562-0.51953-0.91016-1.4102-1.5508-2.4414-1.7539-0.62891-0.015625-1.25 0.16406-1.7773 0.51172-2.0859 0.98438-4.1758 1.9609-6.2656 2.9375-4.6992 2.2148-9.4375 4.3516-14.098 6.6484-0.21094-0.41797-0.42578-0.83203-0.64453-1.2461 7.2344-3.2539 14.512-6.4102 21.762-9.6289v0.003907c0.68359-0.40234 1.1484-1.0859 1.2734-1.8711 0.42578-2.1289-0.65234-4.2812-2.6172-5.2109-0.75391-0.40625-1.6641-0.375-2.3906 0.078125-4.6289 3.2305-9.2773 6.4336-13.895 9.6797-1.9883 1.4297-4.0273 2.7891-5.9922 4.2578-0.22266-0.25781-0.45703-0.51172-0.69141-0.75781 2-1.5781 4.0352-3.1133 6.0664-4.6562 4.125-3.1367 8.2188-6.3125 12.348-9.4453 0.47266-0.30469 0.87109-0.71875 1.1523-1.2031 0.35938-0.77734 0.44141-1.6523 0.23828-2.4844-0.54297-2.1172-2.4453-3.6055-4.6328-3.6289-0.83594-0.082031-1.6641 0.25-2.2148 0.88672-5.2383 6.0898-10.363 12.277-15.57 18.395-0.26953-0.21875-0.5625-0.40625-0.85156-0.60156 4.9531-6.1836 9.9492-12.328 14.895-18.516h0.003907c0.25391-0.29687 0.42578-0.66016 0.49219-1.0508 0.13281-1.3047-0.42578-2.5859-1.4727-3.375-1.457-1.0977-3.3398-1.4414-5.0898-0.92969-0.77734 0.11719-1.457 0.60156-1.8242 1.2969-3.3125 7.1133-6.5859 14.25-9.8945 21.367h0.003906c-0.37891-0.12109-0.76172-0.21875-1.1484-0.28906 0.65234-1.5742 1.4258-3.0977 2.1211-4.6523 2.3789-5.1602 4.7539-10.32 7.125-15.484 0.42969-1.1875 0.074219-2.5195-0.89453-3.332-1.0391-0.91016-2.3906-1.3789-3.7695-1.3047-1.2891 0.007813-2.5391 0.44922-3.5469 1.25-0.47656 0.39453-0.45312 1.0664-0.57422 1.6172-1.2656 6.9844-2.5508 13.969-3.7031 20.977-0.078126 0.26172-0.011719 0.66406-0.35156 0.73438v0.003907c0.007813-3.332 0.36719-6.6484 1.0664-9.9023 0.66797-3.4453 1.4023-6.875 2.3164-10.266h0.003906c0.37109-1.3672-0.31641-2.7969-1.6172-3.3555-1.5547-0.38281-3.1953-0.03125-4.4492 0.96094-1.0156 0.64453-1.6992 1.7031-1.8633 2.8945-0.11328 3.3906 0.019532 6.7812 0.39453 10.152 0.33594 3.2891 0.76562 6.5703 1.3984 9.8164-0.52734 0.10156-1.0273 0.30469-1.5508 0.41406h0.003906c-1.5938-1.1055-3.3477-1.957-5.2031-2.5234-4.2148-1.0547-8.6211-1.1055-12.859-0.14062-3.2109 0.84375-6.1758 2.3867-9.2969 3.4883-1.0625 0.42578-2.2461 0.43359-3.3125 0.023438-1.6445-0.79297-2.8242-2.3086-3.1953-4.0977-0.35547-1.5312-0.19531-3.1445 0.45703-4.5781 1.2344-2.7539 2.0234-5.6914 2.332-8.6953 0.42188-3.9453-0.51953-7.9141-2.6641-11.246-0.85547-1.375-2.0938-2.4688-3.5664-3.1445-1.6445-0.65625-3.4922-0.55859-5.0586 0.25781-1.5977 0.86328-2.6758 2.4453-2.9023 4.2422-2.1172-0.25-4.2383 0.42188-5.8203 1.8555-1.0664 0.94531-1.4844 2.4297-1.0703 3.7969 0.65625-1.0898 1.5664-2 2.6523-2.6562 1.6797-0.64453 3.5156-0.76562 5.2695-0.35547 0.023437 0.21094 0.035156 0.42188 0.046875 0.63672-1.5-0.3125-3.0469-0.32031-4.5508-0.023437-1.1367 0.3125-2.0742 1.1133-2.5625 2.1875 0.67188-0.30859 1.3672-0.55469 2.082-0.73828 1.8711-0.37109 3.8047-0.23828 5.6016 0.38672 0.48828 0.11719 0.95703 0.28906 1.3984 0.51953 1.7891 1.7734 2.7578 4.2109 2.668 6.7305-0.20312 2.0039-0.89453 3.9297-2.0156 5.6055-1.8633 2.7148-3.5859 5.5273-5.1562 8.4219-1.1289 2.543-1.8086 5.2578-2.0117 8.0312-0.28125 3.3281 0 6.6797 0.83203 9.9141 1.293 5 3.6875 9.6484 7.0078 13.602 1.5312 1.8711 3.3867 3.4453 5.4844 4.6484 2.5664 1.5391 5.332 2.7188 8.2188 3.5117 0.22266 0.94141 0.89844 1.75 0.85547 2.75 0.19922 1.3281 0.69141 2.5938 1.4336 3.7148-0.32812 2.6289-0.85938 5.2383-1.4141 7.8281-1.0352 0.45703-2.168 0.66016-3.2969 0.59375-1.9648-0.0625-3.9219-0.33594-5.8906-0.28516h-0.003907c-1.1367-0.003906-2.2578 0.26562-3.2734 0.78125-0.72266 0.35547-1.2734 0.98828-1.5234 1.7539-0.22656 1.0352-0.074218 2.1172 0.42188 3.0547-0.011719-0.91016 0.33594-1.7891 0.96484-2.4492 0.70312 0.054687 1.4023-0.15234 1.9609-0.57812 0.40625 0.34766 0.91797 0.54688 1.4492 0.57031 0.82422-0.015624 1.6328-0.23437 2.3477-0.64453 0.23828 0.29688 0.53906 0.53516 0.875 0.69922-0.69922 0.32422-1.2461 0.91406-1.5117 1.6367-0.26172 1.1094-0.050781 2.2734 0.57812 3.2188-0.15234-0.83203 0.19922-1.6797 0.89844-2.1562 0.89062-0.17188 1.75-0.46094 2.5625-0.86328 0.28906 0.18359 0.62891 0.27344 0.96875 0.25781 1.2461-0.30469 2.4414-0.78125 3.5547-1.418 0.48438-0.23828 1.043-0.28125 1.5586-0.12109 0.53125 0.16797 0.69922 0.75781 1.0781 1.1094 0.41406 0.37109 1.1758 0.0625 1.4727 0.60156h-0.003906c0.25 0.58984 0.20312 1.2617-0.13281 1.8086 0.66016-0.21875 1.1875-0.73047 1.4258-1.3867 0.21875-0.91406-0.015625-1.875-0.63281-2.582-0.69531-0.80078-1.2227-1.7383-1.5469-2.7461-0.20312-1.1016-0.21484-2.2266-0.035157-3.332 0.24219-2.0703 0.85156-4.082 1.0234-6.1641 0.042969-0.17969 0.23047-0.27734 0.34375-0.41016v0.003906c1.168-1.082 1.8203-2.6094 1.7969-4.1992 2.0469 0.10938 4.0977 0.19141 6.1484 0.21484 0.22266-0.03125 0.35938 0.17188 0.51563 0.28906l0.003906 0.003906c0.58594 0.53516 1.2578 0.96484 1.9844 1.2812 0.375 0.16406 0.55078 0.5625 0.79688 0.86719 0.58984 0.78516 1.3242 1.4531 2.1641 1.9648-0.86328 1.6602-0.52734 3.5977-1.0039 5.3633-0.20312 0.78125-0.5625 1.5117-1.0625 2.1445-0.26172 0.49609-0.46875 1.0195-0.61719 1.5586-0.42969 0.35156-1 0.47656-1.5352 0.33594-1.1406-0.25-2.2344-0.69141-3.2344-1.2969-1.3008-0.77344-2.9102-0.80859-4.2383-0.089844-0.82422 0.63672-1.3203 1.6055-1.3594 2.6484 0.75391-0.56641 1.6758-0.83984 2.4375-1.3945h-0.003906c0.24609 0.33594 0.56641 0.60156 0.94141 0.78125 0.36328 0.10937 0.74219 0.13281 1.1172 0.078124 0.30469 0.29297 0.65234 0.53125 1.0352 0.71094-1.0195 0.46875-1.8398 1.2812-2.3164 2.293-0.20703 1.0352 0.03125 2.1094 0.65625 2.9609 0.03125-0.75781 0.34375-1.4727 0.875-2.0117 0.83984 0.23047 1.7305-0.11719 2.1953-0.85156 0.23828 0.33594 0.65625 0.5 1.0625 0.41797 0.78906-0.25 1.4492-0.85547 2.3086-0.91406 1.7422-0.25 3.2695 0.80859 4.9258 1.1172 0.35938 0.078125 0.83203 0.34375 0.69531 0.78516-0.042968 0.33594-0.17187 0.87891 0.27734 0.99219h-0.003906c0.39844-0.15234 0.71875-0.45703 0.89062-0.84766 0.16797-0.39062 0.17188-0.83594 0.007813-1.2266-0.50391-1.4883-1.7266-2.6719-1.9688-4.2617l0.003906-0.003906c-0.13672-2.457 0.17578-4.9219 0.92188-7.2656 0.10156-0.88281 0.88672-1.4297 1.2617-2.1875v-0.003906c1.0742-1.6328 1.4961-3.6094 1.1914-5.543 2.9102-0.76953 5.6641-2.0391 8.1367-3.7578 1.8242-1.2539 3.3984-2.8438 4.6367-4.6797-1.5117 1.1875-3.2969 1.9766-5.1953 2.2852-1.1914 0.16016-2.3867-0.26953-3.207-1.1484-0.63281 0.71484-1.4922 1.1953-2.4336 1.3555-1.9414 0.078125-3.8359-0.64062-5.2305-1.9961-2.4102 1.2188-5.1445 1.6406-7.8086 1.207-3.168-0.32422-6.2539-1.1914-9.1289-2.5586-1.9297-0.85547-3.7461-1.9414-5.418-3.2305-1.5078-1.4492-2.8008-3.1055-3.8398-4.9141-1.6484-2.7227-2.6289-5.7969-2.8633-8.9688 0.125-3.0273 1.5312-5.8594 3.8711-7.7891l0.09375 0.35938v0.003907c-1.5234 1.6172-2.5273 3.6562-2.8867 5.8516-0.10547 1.0781-0.039062 2.1719 0.19531 3.2305 0.53516 2.8047 1.6562 5.4609 3.2891 7.8008 1.0352 1.5781 2.293 3 3.7344 4.2227 2.2227 1.5938 4.6445 2.8984 7.1992 3.8828 2.9688 1.2188 6.1523 1.8125 9.3594 1.7461 2.2109-0.17578 4.2812-1.1445 5.8359-2.7305 0.050781 0.41406 0.003906 0.92969 0.37109 1.2148 0.42578 0.27344 0.88672 0.48047 1.3711 0.625 0.9375 0.40234 1.9688 0.53125 2.9766 0.375 1.0586-0.36719 1.9805-1.0469 2.6445-1.9453 0.21484 1.1211 1.2852 1.8711 2.4141 1.6914 2.0469-0.31641 3.957-1.2305 5.4922-2.625 1.3711 0.19141 2.7695 0.035157 4.0703-0.45312 1.082-0.62891 1.8594-1.6758 2.1484-2.8945 0.46875-1.6367 0.046875-3.3945-1.1133-4.6406-0.76563-0.78125-1.8242-1.207-2.918-1.1758-0.39062-1.8477-1.418-3.4961-2.9023-4.6641-0.19141-0.21094-0.48438-0.38672-0.50391-0.69531v0.003906c-0.039063-0.94922-0.22656-1.8906-0.55469-2.7812-0.37891-1.1641-1.3281-2.0547-2.5156-2.3516 0.26953-1.5234-0.039062-3.0898-0.87109-4.3945-0.44531-0.55469-1.1016-0.90234-1.8086-0.96094 0.14844-0.5625 0.16797-1.1484 0.050781-1.7188 0.94922 0.44531 1.1406 1.6133 2.0039 2.1484 1.1367 1.1445 1.9297 2.5859 2.293 4.1562 0.21875 0.63672 0.86328 0.95703 1.2305 1.4922 0.80078 1.2422 1.2188 2.6914 1.207 4.168 1.7852 0.97656 3.0508 2.6914 3.457 4.6836 0.875 0.14453 1.6953 0.53516 2.3633 1.125 0.96875 0.85938 1.5938 2.0469 1.7578 3.332 6.9648 1.2617 13.906 2.668 20.855 4.0078 0.65625 0.13672 1.3359-0.070312 1.8086-0.54688 0.58203-0.66406 0.92969-1.5039 0.98047-2.3867 0.13281-0.70703-0.085937-1.4297-0.58984-1.9414-0.50781-0.27734-1.0898-0.39062-1.6641-0.31641-6.8828-0.30469-13.766-0.60547-20.652-0.90234 0.085938-0.32031 0.16797-0.64453 0.24609-0.96484 1.3867 0.046875 2.7656 0.19922 4.1523 0.26953zm-62.637-45.934c-0.94141 0.51562-2.0508 0.625-3.0703 0.30078-0.5625-0.14453-1.0195-0.55078-1.2344-1.0859-0.18359-0.58203-0.046874-1.2188 0.36328-1.6719 0.43359-0.37891 0.98047-0.60547 1.5586-0.63281 0.82422-0.13672 1.668 0.015625 2.3906 0.43359 0.41797 0.31641 0.66016 0.80859 0.66016 1.3281-0.003907 0.52344-0.25 1.0156-0.66797 1.3281z"/>
  <path d="m13.199 7.3477c0.625-0.26953 1.6016-0.10547 1.7891 0.64453 0.12891 0.43359-0.29297 0.76172-0.66016 0.875-0.58594 0.23828-1.2578 0.03125-1.6094-0.49219-0.23047-0.40625 0.10938-0.85938 0.48047-1.0273z"/>
 </g>
</svg>