<?xml version="1.0" encoding="utf-8"?>
<!-- Generator: Adobe Illustrator 28.0.0, SVG Export Plug-In . SVG Version: 6.00 Build 0)  -->
<svg version="1.1" id="Tyr3" xmlns="http://www.w3.org/2000/svg" xmlns:xlink="http://www.w3.org/1999/xlink" x="0px" y="0px"
	 viewBox="0 0 1024 1024" style="enable-background:new 0 0 1024 1024;" xml:space="preserve">
<path d="M303.213,416.983c-3.611,0.27-5.415-1.784-6.291-5.018c-0.434-1.601-0.598-3.333-1.331-4.779
	c-1.01-1.994-2.522-5.365-3.678-5.308c-2.279,0.112-5.013,1.7-6.59,3.517c-6.69,7.71-8.585,17.466-10.496,27.095
	c-0.277,1.395,0.925,3.083,1.116,3.656c3.167-1.129,5.576-2.892,7.622-2.541c5.33,0.915,10.877,1.997,15.667,4.367
	c16.974,8.398,33.669,8.807,50.933,0.801c5.287-2.452,11.432-3.183,17.269-4.233c1.422-0.256,3.177,1.343,5.968,2.643
	c0.224-0.593,1.898-2.725,1.477-4.294c-2.275-8.464-4.675-16.946-7.923-25.065c-0.985-2.462-4.811-3.787-7.336-5.633
	c-1.629,2.311-3.712,4.432-4.776,6.979c-1.463,3.502-1.784,7.642-6.925,7.91c0-7.764,0.623-15.542-0.136-23.183
	c-1.365-13.735-4.541-27.349-5.076-41.087c-0.384-9.863-5.67-15.454-12.155-20.893c-2.839-2.381-3.945-4.881-3.869-8.565
	c0.224-10.81,0.08-21.627,0.08-32.866c3.848-0.53,7.284-0.826,10.643-1.501c8.58-1.724,15.797-6.142,22.067-12.049
	c6.181-5.824,12.262-11.777,18.059-17.979c3.713-3.973,7.627-5.575,12.899-3.757c5.181,1.787,6.635,5.609,5.952,11.498
	c10.99-6.733,16.059-16.758,20.3-26.38c-5.085-0.377-10.306-0.086-15.101-1.377c-2.845-0.766-5.742-3.591-7.346-6.254
	c-3.568-5.925-0.619-11.988,6.39-12.982c10.09-1.431,20-0.26,28.951,5.078c7.162,4.271,7.939,8.976,3.46,16.057
	c-0.683,1.08-0.73,3.623,0.026,4.349c2.143,2.059,4.711,4.675,7.37,5.008c7.557,0.946,12.828-8.526,9.444-16.739
	c-1.231-2.988-3.409-5.586-5.245-8.505c13.838-3.509,27.876-6.669,41.655-10.713c8.251-2.422,16.064-6.311,24.13-9.395
	c18.273-6.987,32.712-39.127,28.322-57.227c-2.915-12.019-10.139-20.402-21.799-24.678c-1.959-0.719-4.981-2.499-6.167,1.977
	c-0.118-1.457-0.802-3.845-0.241-4.186c1.331-0.81,3.446-1.246,4.9-0.773c5.007,1.628,9.866,3.71,15.242,5.798
	c-0.807-14.282-6.491-25.954-17.109-34.899c-1.916-1.614-6.098-0.537-8.386-0.657c5.774-4.235,9.265-4.191,14.359,1.558
	c15.396,17.376,25.208,37.544,28.224,60.578c2.126,16.235-4.088,30.736-11.645,44.671c-1.268,2.338-2.663,4.606-4.208,7.266
	c13.97,7.029,15.097,18.377,10.3,31.54c21.169,8.126,24.09,14.695,14.382,33.733c6.214-1.313,11.931-2.566,17.667-3.723
	c8.301-1.674,13.408,1.676,14.246,10.097c1.319,13.251,3.045,26.564,2.878,39.829c-0.156,12.403-1.744,24.944-4.266,37.101
	c-1.504,7.249-5.363,14.282-9.347,20.675c-5.18,8.313-11.596,15.85-17.366,23.803c-6.501,8.962-2.932,17.323,8.199,18.191
	c10.446,0.815,20.971,0.59,31.459,0.918c28.967,0.906,52.27,25.078,51.575,53.524c-0.243,9.957-3.711,18.826-9.95,27.516
	c-0.368-7.304-0.663-13.965-1.047-20.621c-0.649-11.247-3.539-21.625-11.526-30.101c-7.596-8.062-16.826-12.313-27.926-12.334
	c-11.651-0.022-23.308,0.23-34.951-0.06c-4.575-0.114-9.121-1.376-14.156-1.127c9.533,4.039,18.902,8.538,28.64,11.998
	c11.816,4.198,22.564,9.792,31.157,19.083c13.907,15.036,18.097,32.837,13.331,52.347c-2.22,9.087-5.812,18.151-10.449,26.275
	c-11.151,19.539-29.224,24.275-48.892,13.488c-10.312-5.655-8.978-2.911-7.384-14.758c0.839-6.232,1.82-12.446,2.735-18.656
	c-9.498-1.669-15.148,1.013-19.74,9.17c-4.541,8.065-4.559,13.946,2.209,20.302c5.207,4.889,11.721,8.641,18.153,11.918
	c14.359,7.314,29.236,13.625,43.509,21.094c10.686,5.592,19.637,13.62,27.395,22.983c9.415,11.362,13.374,24.686,15.006,38.984
	c0.788,6.903-1.5,12.987-5.751,18.068c-6.275,7.5-13.108,14.533-20.708,22.865c0.303-6.045,0.434-10.55,0.769-15.039
	c2.146-28.761-9.586-50.149-34.73-63.859c-10.926-5.957-22.353-11.093-33.859-15.864c-14.767-6.123-25.687-16.081-33.903-29.682
	c-9.204-15.237-18.881-30.198-28.673-45.067c-8.005-12.154-18.679-21.488-31.203-29.01c-4.018-2.413-7.948-6.568-9.707-10.837
	c-4.407-10.697-8.182-21.758-10.979-32.979c-1.904-7.637-5.061-13.547-11.862-17.495c-4.892-2.84-9.722-5.791-14.518-8.791
	c-1.626-1.017-3.063-2.334-4.587-3.514c0.015-0.617,0.03-1.235,0.045-1.852c2.665-0.503,5.343-1.48,7.991-1.404
	c4.644,0.134,9.271,0.899,13.902,1.425c7.721,0.877,14.688-1.177,20.384-6.308c11.256-10.141,22.303-20.52,33.238-31.006
	c1.342-1.287,2.085-3.843,2.057-5.797c-0.1-7.154-0.386-14.327-1.105-21.442c-0.518-5.123-3.335-8.946-8.455-10.744
	c-5.875-2.063-8.305-1.161-11.28,4.302c-9.758,17.917-23.684,30.485-44.54,33.344c-6.471,0.887-13.167,0.138-20.529,0.138
	c9.801,3.91,19.32,7.707,30.137,12.022c-2.625,0.136-3.979,0.289-5.33,0.262c-12.163-0.24-24.326-0.702-36.489-0.688
	c-5.334,0.006-9.679-1.584-13.661-5.001c-5.643-4.842-11.466-9.474-18.328-13.602c3.292,9.853,6.504,19.733,9.985,29.519
	c0.4,1.123,2.235,1.828,3.512,2.53c4.513,2.479,9.136,4.765,13.603,7.323c8.365,4.788,14.194,11.407,17.482,20.853
	c6.449,18.523,19.362,32.376,34.486,44.334c1.794,1.418,3.672,2.73,5.511,4.092c-0.27,0.491-0.54,0.983-0.81,1.474
	c-9.344-4.637-18.687-9.275-28.518-14.154c3.365,6.261,7.267,11.968,12.992,15.819c9.095,6.117,18.325,12.161,28.027,17.223
	c22.089,11.526,38.669,28.446,51.648,49.452c9.586,15.514,19.806,30.637,28.816,44.507c-2.997-2.949-7.789-6.96-11.729-11.681
	c-9.493-11.376-19.2-22.655-27.698-34.762c-12.638-18.005-27.708-33.5-46.157-45.153c-19.295-12.187-35.177-27.822-50.16-44.64
	c-8.117-9.11-17.59-11.978-27.887-7.18c13.166,17.85,26.597,35.901,39.851,54.081c9.108,12.492,13.304,26.662,13.624,42.058
	c0.065,3.115,0.368,6.225,0.562,9.337c0.499,0.065,0.998,0.131,1.497,0.196c2.007-7.98,4.014-15.961,6.289-25.006
	c3.866,11.992,7.595,23.56,11.727,36.377c1.717-18.031,0.126-34.471-5.041-50.641c15.706,16.928,26.128,36.425,31.056,58.86
	c3.433,15.628,3.512,31.438,2.596,47.242c-0.442,7.616,1.222,14.295,5.806,20.1c13.921,17.629,29.512,33.131,52.551,38.205
	c5.599,1.233,8.931,4.578,11.305,9.528c12.629,26.322,11.542,52.583-0.881,78.475c-12.325,25.688-27.646,49.285-48.919,68.772
	c-9.553,8.751-18.593,18.234-26.716,28.312c-5.503,6.828-9.001,15.272-12.94,22.191c-3.382-22.661-2.023-45.363,15.826-64.438
	c13.625-14.561,25.242-30.536,32.062-49.556c0.49-1.368,1.01-2.725,0.637-4.611c-1.773,2.591-3.643,5.122-5.301,7.784
	c-5.622,9.024-12.566,16.76-21.463,22.69c-14.032,9.353-23.571,21.868-26.985,38.656c-0.157,0.77-0.622,1.478-1.333,3.109
	c-0.586-15.169,2.323-28.524,9.169-41.033c3.112-5.687,6.186-11.409,8.967-17.262c3.996-8.409,4.791-17.233,2.532-26.29
	c-0.174-0.7-0.6-1.336-1.327-2.903c-0.373,5.291-0.425,9.558-1.02,13.747c-1.305,9.196-5.527,17.076-11.924,23.7
	c-11.689,12.103-23.711,23.888-35.267,36.114c-14.223,15.049-26.821,31.366-37.2,50.72c-0.777-5.173-1.411-9.39-2.266-15.08
	c-6.657,17.711-12.8,34.056-19.374,51.545c-5.131-13.893-9.891-26.782-14.895-40.331c-5.604,13.876-10.908,27.007-16.732,41.428
	c-5.802-14.367-11.058-27.384-16.714-41.391c-4.986,13.561-9.692,26.362-14.734,40.074c-6.495-17.109-12.687-33.422-19.412-51.138
	c-0.615,5.439-1.068,9.44-1.639,14.486c-2.659-4.258-4.788-7.704-6.952-11.128c-16.262-25.738-37.692-46.935-59.44-67.881
	c-8.163-7.861-16.346-15.921-18.525-27.776c-0.957-5.209-1.334-10.525-1.936-15.475c-2.882,4.165-3.79,13.551-0.98,21.787
	c2.025,5.938,4.821,11.674,7.813,17.208c7.03,13.001,13.161,26.201,12.653,41.47c-0.033,0.999-0.032,2-0.093,2.997
	c-0.018,0.294-0.198,0.579-0.612,1.715c-3.916-20.047-16.121-33.094-31.49-44.421c-6.913-5.095-11.918-12.816-17.633-19.478
	c-2.087-2.432-3.724-5.251-5.984-7.639c3.754,11.783,8.55,23.062,15.872,33.017c5.818,7.911,11.697,15.873,18.395,23.019
	c15.262,16.282,17.717,35.854,15.946,56.753c-0.196,2.309-0.529,4.607-0.926,8c-1.27-3.526-2.149-6.134-3.145-8.698
	c-4.007-10.321-11.025-18.596-18.551-26.397c-8.212-8.511-16.884-16.576-25.244-24.947c-21.302-21.332-36.427-46.662-46.874-74.715
	c-8.247-22.143-6.158-44.131,3.427-65.573c2.774-6.204,6.984-9.675,14.069-9.974c8.511-0.358,15.933-3.424,22.659-9.1
	c10.343-8.728,20.651-17.335,28.401-28.623c4.211-6.133,6.283-12.568,5.847-20.128c-1.405-24.355,0.772-48.202,10.878-70.853
	c5.52-12.371,12.57-23.708,21.763-33.973c-4.603,15.758-6.079,31.662-3.94,49.318c4.286-13.853,8.133-26.289,11.984-38.739
	c1.815,9.356,3.554,18.317,5.293,27.278c0.505-0.058,1.011-0.115,1.516-0.173c0.893-6.781,1.624-13.589,2.712-20.338
	c2.335-14.485,8.922-26.92,17.919-38.438c6.945-8.89,12.939-18.525,19.316-27.856c3.648-5.337,7.218-10.726,11.031-16.401
	c-8.545-2.193-16.577-2.486-23.294,4.207c-6.369,6.346-12.472,12.959-18.85,19.296c-4.595,4.566-8.865,9.83-14.286,13.133
	c-29.698,18.094-53.408,41.978-73.031,70.626c-9.047,13.208-20.806,24.557-32.004,36.075c7.872-11.682,15.622-23.449,23.649-35.023
	c8.055-11.613,16.203-23.172,24.653-34.498c7.077-9.486,16.408-16.448,26.679-22.249c9.561-5.4,19.052-10.934,28.445-16.62
	c7.83-4.74,13.682-11.458,18.257-19.168c-11.934,5.998-23.902,12.013-35.871,18.028c-0.26-0.484-0.521-0.969-0.781-1.453
	c3.269-2.161,6.577-4.266,9.799-6.493c16.448-11.369,29.201-25.886,36.043-44.814c4.464-12.349,13.276-20.695,24.237-26.035
	c11.142-5.429,16.129-13.396,16.707-25.142c0.12-2.445,0.846-4.861,1.565-8.775c-5.636,4.111-10.14,7.626-14.889,10.772
	c-2.702,1.79-5.727,4.036-8.738,4.253c-14.548,1.045-29.14,1.471-43.716,2.117c-0.105-0.48-0.21-0.959-0.315-1.439
	c9.276-3.635,18.552-7.27,27.829-10.905c-0.063-0.204-0.126-0.408-0.189-0.613c-4.999,0-10.019,0.302-14.992-0.056
	c-15.647-1.127-28.248-8.088-37.843-20.486c-3.465-4.477-6.702-9.153-10.454-13.373c-1.044-1.174-3.816-1.862-5.359-1.379
	c-14.494,4.541-14.949,6.129-16.124,21.03c-0.742,9.415,1.71,16.118,9.256,21.847c12.311,9.347,23.897,19.647,36.221,28.975
	c8.597,6.507,17.976,7.562,27.197,0.54c0.472-0.36,1.246-0.323,3.044,0.468c-1.657,2.101-2.931,4.772-5.046,6.189
	c-4.97,3.33-8.027,7.66-9.852,13.309c-1.055,3.266-3.212,6.172-4.848,9.254c-3.191,6.009-6.271,12.078-9.565,18.03
	c-6.899,12.465-15.081,23.965-27.312,31.743c-13.708,8.718-23.839,20.742-32.364,34.194c-6.765,10.673-13.275,21.557-19.112,32.758
	c-9.13,17.522-22.687,29.484-41.059,36.706c-10.644,4.184-20.982,9.319-31.03,14.807c-17.566,9.594-28.274,24.637-31.58,44.342
	c-1.167,6.954-0.31,14.262-0.219,21.407c0.04,3.136,0.476,6.266,0.854,10.894c-9.64-10.004-19.401-18.049-24.743-29.832
	c-3.741-8.251-1.033-16.415,0.879-24.447c4.185-17.586,15.317-30.348,29.302-40.994c15.679-11.935,34.067-18.662,51.591-27.101
	c7.228-3.481,14.465-7.736,20.278-13.16c7.071-6.597,6.916-11.933,2.318-19.717c-5.219-8.835-10.04-11.116-20.309-9.249
	c1.194,8.156,2.181,16.378,3.692,24.503c0.62,3.334-0.465,4.985-3.22,6.258c-2.263,1.046-4.415,2.33-6.674,3.384
	c-18.428,8.598-33.499,5.176-44.738-11.874c-11.402-17.296-17.4-36.379-11.98-57.381c4.9-18.99,17.497-31.324,35.119-38.941
	c10.675-4.614,21.427-9.048,32.118-13.625c1.58-0.676,3.013-1.694,4.367-2.965c-13.086,3.021-26.202,2.9-39.331,1.676
	c-26.107-2.434-46.769,14.405-48.022,44.042c-0.257,6.089-0.612,12.175-0.933,18.474c-11.001-12.899-13.011-34.34-4.388-50.835
	c9.776-18.7,25.776-28.249,46.59-29.636c10.125-0.675,20.356,0.025,30.447-0.9c11.196-1.027,14.711-9.462,8.376-18.849
	c-3.631-5.381-7.125-10.961-11.467-15.735c-11.843-13.021-15.719-28.789-17.749-45.653c-2.439-20.269-0.046-40.244,2.179-60.264
	c0.866-7.792,5.813-10.995,13.828-9.439c5.655,1.098,11.266,2.422,17.161,3.703c-7.36-23.044-5.902-26.318,14.626-33.317
	c-5.077-13.044-4.134-24.424,9.763-31.793c-2.988-5.912-5.925-11.476-8.644-17.146c-8.877-18.511-9.994-37.263-2.144-56.511
	c5.945-14.576,12.592-28.595,23.815-40.038c3.514-3.583,6.869-3.851,10.006-2.206c-2.75,1.941-6.127,3.638-8.609,6.202
	c-8.411,8.689-12.432,19.427-13.787,31.89c5.318-2.281,10.143-4.618,15.159-6.427c5.105-1.842,6.203-0.76,5.673,3.304
	c-1.813-0.349-3.761-1.388-5.187-0.899c-18.334,6.286-27.103,23.251-22.219,43.362c4.968,20.454,15.762,36.438,36.686,43.145
	c15.636,5.012,31.604,8.987,47.423,13.429c2.983,0.837,5.958,1.7,9.181,2.62c-1.728,2.452-3.869,4.394-4.581,6.765
	c-1.002,3.338-2.086,7.405-1.011,10.397c1.041,2.895,4.559,6.36,7.378,6.748c2.863,0.394,6.341-2.457,9.221-4.379
	c0.623-0.416,0.4-3.329-0.379-4.409c-3.66-5.071-3.259-11.011,2.072-14.3c10.369-6.396,21.678-8.284,33.52-4.917
	c3.566,1.014,6.593,3.056,7.12,7.46c0.573,4.786-1.441,8.055-5.346,10.38c-6.414,3.819-13.097,4.097-20.664,0.886
	c4.157,11.38,9.919,20.652,20.134,27.175c0.875-2.664,1.257-5.144,2.433-7.162c3.299-5.661,11.284-6.43,16.322-1.607
	c5.415,5.185,10.629,10.579,15.954,15.859c9.902,9.817,21.767,15.724,36.524,17.743c0,11.812,0.054,23.595-0.088,35.375
	c-0.013,1.112-1.013,2.556-1.981,3.259c-9.491,6.894-14.395,15.307-14.488,27.853c-0.095,12.827-3.789,25.591-5.258,38.457
	C302.582,403.239,303.213,410.112,303.213,416.983z M433.35,726.28c0.253-0.124,0.506-0.248,0.759-0.372
	c-0.451-1.15-0.847-2.326-1.363-3.447c-9.3-20.242-18.481-40.539-27.984-60.686c-4.657-9.873-8.533-19.96-9.134-30.892
	c-0.931-16.956-1.189-33.949-2.075-50.908c-0.292-5.59-1.645-11.125-2.513-16.686c-0.499,0.044-0.998,0.088-1.498,0.132
	c-2.602,10.578-5.205,21.156-7.807,31.734c-0.399-15.004,2.37-30.271-10.666-43.334c-0.605,8.252-1.135,15.471-1.749,23.843
	c-4.433-12.449-8.412-23.792-20.711-30.299c4.336,10.805,6.737,21.188,5.613,31.9c-1.161,11.063-3.47,22.001-4.987,33.033
	c-1.845,13.417-7.977,25.272-12.934,37.597c-3.078,7.654-6.093,15.538-7.525,23.605c-2.532,14.257,2.193,27.48,7.388,40.662
	c3.68,9.339,6.868,19.143,8.325,29.027c2.281,15.48-3.049,29.88-9.411,43.811c-1.325,2.901-2.41,5.91-3.605,8.87
	c13.115-7.88,23.4-18.041,30.633-31.159c6.906-12.524,8.125-25.551,3.489-39.029c-1.944-5.651-4.125-11.257-6.686-16.652
	c-6.335-13.342-7.789-27.197-4.083-41.35c2.192-8.372,5.583-16.43,8.434-24.629c0.45,0.148,0.899,0.295,1.348,0.443
	c-0.105,0.643-0.158,1.299-0.324,1.926c-4.739,17.899-1.281,33.917,10.854,48.023c4.996,5.807,9.857,11.732,14.727,17.647
	c7.644,9.284,15.114,18.723,17.675,30.871c1.42,6.737,2.363,13.575,3.521,20.367c9.007-16.816,7.455-37.442-4.202-52.007
	c-5.826-7.279-12.038-14.251-18.111-21.331c-6.342-7.394-12.098-15.167-13.866-25.017c-1.526-8.507-2.979-17.059-3.773-25.656
	c-0.792-8.577-0.023-17.14,3.434-26.775c1.003,26.254,9.609,47.971,25.195,67.358c9.571,11.905,17.815,24.883,26.51,37.48
	C428.868,718.171,430.997,722.303,433.35,726.28z M277.463,607.996c0.397,1.215,0.852,2.414,1.183,3.646
	c3.662,13.616,0.977,27.054-0.761,40.612c-1.645,12.831-6.28,23.994-14.917,33.62c-5.672,6.321-11.025,12.927-16.569,19.364
	c-8.896,10.329-13.757,22.05-11.631,35.838c0.997,6.467,2.905,12.793,4.401,19.183c0.468-0.096,0.936-0.192,1.403-0.287
	c0.46-18.375,6.796-34.412,18.782-48.304c5.439-6.303,10.659-12.801,15.826-19.332c6.699-8.467,12.214-17.7,13.008-28.67
	c0.509-7.032-0.529-14.175-0.888-21.582c7.673,15.371,12.976,31.257,9.538,48.384c-1.941,9.67-6.403,18.822-9.569,28.261
	c-9.795,29.205,4.384,63.12,32.035,75.194c-1.775-4.198-3.135-7.895-4.858-11.414c-11.614-23.713-11.725-47.291,0.1-71.039
	c10.622-21.333,10.72-42.658,0.033-64.298c-6.459-13.078-12.414-26.516-13.629-41.462c-0.525-6.453-1.224-12.971-2.732-19.246
	c-1.963-8.169-1.833-16.162-0.029-24.222c1.304-5.826,2.8-11.608,4.294-17.756c-13.115,7.522-16.539,20.863-21.495,33.874
	c-0.498-9.272-0.962-17.906-1.498-27.881c-12.458,12.46-9.256,27.112-10.162,41.56c-2.458-10.373-4.71-19.874-6.961-29.375
	c-0.458,0.002-0.916,0.003-1.374,0.005c-0.807,3.317-2.181,6.611-2.323,9.956c-0.591,13.974-0.732,27.966-1.19,41.947
	c-0.499,15.231-2.511,30.111-9.295,44.096c-9.216,18.996-18.073,38.167-27.057,57.275c-1.451,3.086-2.763,6.238-4.14,9.359
	c1.188-0.446,1.779-1.187,2.309-1.97c10.629-15.705,20.541-31.958,32.049-46.991C266.858,656.075,275.236,633.585,277.463,607.996z
	 M578.548,539.302c6.383,2.089,14.755-0.915,17.7-7.142c3.169-6.697,5.314-13.899,7.661-20.961
	c5.53-16.638-3.755-34.529-19.276-40.614c-9.489-3.72-19.575-6.483-29.646-8.034c-22.408-3.45-40.544-12.542-50.641-33.961
	c-1.982-4.204-3.697-8.532-5.557-12.794c-0.38-0.87-0.857-1.698-1.622-3.197c-4.046,20.502-3.859,40.283-3.623,60.112
	c0.212,17.816,8.578,31.253,21.277,43.165c2.993-2.711,5.721-5.341,8.612-7.776c15.901-13.394,37.957-15.151,53.726-4.337
	c6.34,4.348,7.543,7.535,5.883,14.776C581.456,525.46,580.031,532.418,578.548,539.302z M136.584,515.848
	c8.98-8.658,16.88-17.702,19.046-30.033c3.398-19.342,2.277-38.832,0.552-58.271c-0.426-4.796-1.27-9.554-1.923-14.33
	c-1.814,2.506-2.636,4.989-3.498,7.46c-8.057,23.099-23.229,37.756-48.086,41.805c-11.619,1.893-23.164,4.642-34.472,7.933
	c-11.061,3.219-18.15,11.219-20.464,22.487c-3.113,15.157,1.561,29.068,9.525,41.647c1.969,3.11,7.446,4.335,11.561,5.634
	c2.799,0.883,4.196-0.786,3.29-4.071c-1.632-5.921-3.013-11.916-4.347-17.913c-1.595-7.167-0.422-10.278,5.821-14.296
	c10.568-6.801,22.019-9.124,34.352-5.976C119.227,500.805,128.384,507.226,136.584,515.848z M494.306,290.393
	c-1.742-11.391-4.634-14.391-14.986-15.986c-1.145-0.176-2.291-0.41-3.4-0.738c-24.362-7.22-47.602-4.582-68.953,9.206
	c-14.451,9.332-30.129,14.57-46.813,17.596c-6.784,1.23-13.51,2.784-20.184,4.174c1.882,15,9.032,22.131,22.956,24.025
	c14.194,1.931,27.76-0.832,40.311-6.862c15.714-7.55,30.867-16.294,46.091-24.827c5.643-3.163,10.892-4.672,16.641-0.671
	c2.687,1.87,4.926,1.296,6.693-1.472c2.868-4.495,7.232-5.516,12.182-5.129C487.963,289.953,491.085,290.162,494.306,290.393z
	 M311.74,304.708c-0.877-0.347-1.465-0.655-2.09-0.81c-0.965-0.239-1.953-0.387-2.936-0.549c-22.9-3.754-44.995-9.042-64.932-22.314
	c-14.81-9.859-32.186-12.252-49.925-8.739c-7.648,1.515-15.159,3.771-22.836,5.072c-8.299,1.406-11.506,4.633-11.992,14.023
	c3.178-0.19,6.363-0.073,9.426-0.629c5.721-1.039,10.427-0.074,14.21,4.802c0.773,0.997,3.821,1.495,4.88,0.797
	c6.44-4.246,11.992-2.422,18.032,1.133c13.033,7.671,26.098,15.362,39.616,22.113c14.781,7.383,30.493,11.297,47.31,8.837
	C302.601,326.675,311.069,317.559,311.74,304.708z M580.054,282.558c-21.86,6.474-43.244,12.807-64.842,19.203
	c0.807,3.871,1.473,7.071,2.411,11.574c16.787-5.381,33.068-10.599,49.348-15.818c-2.282,0.861-4.441,2.105-6.708,3.108
	c-12.363,5.47-20.268,14.614-23.239,27.898c-0.253,1.132-0.692,2.222-1.019,3.338c-7.028,23.969-6.799,47.708,2.089,70.891
	c3.921-9.842,7.919-19.88,11.917-29.917c0.443,0.182,0.885,0.363,1.327,0.545c-2.353,5.884-4.706,11.769-7.059,17.653
	c0.453,0.223,0.905,0.446,1.358,0.669c15.384-17.891,32.311-34.754,39.443-59.069c-7.555,2.636-13.511,1.672-18.412-3.384
	c-3.274-3.377-5.211-7.451-3.343-12.272c3.444-8.888,10.651-10.366,19.081-8.831C581.598,299.343,580.839,291.092,580.054,282.558z
	 M133.111,313.015c0.755-2.544,1.292-3.925,1.568-5.355c1.272-6.576,1.202-6.433-5.117-8.288
	c-17.517-5.143-34.993-10.424-52.489-15.637c-1.649-0.491-3.327-0.885-5.204-1.381c-0.704,8.986-1.357,17.334-2.013,25.703
	c12.673,0.351,18.576,4.494,17.816,12.867c-0.274,3.015-2.015,6.364-4.087,8.656c-4.718,5.219-11.165,4.392-17.463,3.224
	c2.709,15.556,30.924,50.577,41.005,58.303c-2.608-6.195-4.883-11.598-7.158-17.002c0.42-0.168,0.84-0.336,1.26-0.504
	c3.988,9.717,7.977,19.435,12.099,29.478c0.856-3.489,1.5-6.581,2.376-9.606c7.295-25.184,4.145-49.689-4.903-73.755
	c-2.62-6.969-6.547-12.891-13.969-15.971c-4.316-1.791-8.234-4.54-10.971-6.088C100.551,302.432,116.662,307.669,133.111,313.015z
	 M319.413,573.019c-0.497-0.051-0.995-0.101-1.492-0.152c0-9.857,0-19.714,0-30.955c-1.569,1.993-2.22,2.692-2.721,3.486
	c-0.886,1.404-1.749,2.832-2.503,4.309c-6.263,12.268-6.838,25.208-6.377,38.82c0.709,20.958,5.301,40.447,15.905,58.516
	c0.874,1.49,1.7,3.008,2.549,4.513c0.629,0.087,1.259,0.175,1.888,0.262c5.197-12.87,11.28-25.472,15.27-38.705
	c2.542-8.432,1.364-17.91,2.948-26.723c2.694-14.989-1.551-28.285-8.302-41.207c-0.536-1.026-1.41-1.874-3.035-3.983
	c0,11.43,0,21.332,0,31.233c-0.369,0.049-0.737,0.097-1.106,0.146c-1.959-9.524-3.917-19.049-5.876-28.573
	c-0.393,0.001-0.786,0.002-1.179,0.002C323.393,553.677,321.403,563.348,319.413,573.019z M416.911,555.04
	c-1.557-8.343-2.768-15.872-4.392-23.311c-3.096-14.178-6.748-28.017-16.559-39.581c-7.396-8.718-13.684-18.372-20.544-27.551
	c-2.684-3.592-5.349-7.248-8.438-10.478c-4.406-4.607-9.696-6.507-15.687-2.903c-5.243,3.154-10.493,6.344-15.389,9.988
	c-1.161,0.864-1.89,4.184-1.171,5.402c5.355,9.075,11.124,17.905,16.763,26.812c0.483-0.234,0.966-0.467,1.449-0.701
	c-1.812-8.541-3.623-17.083-5.435-25.624c0.244-0.059,0.488-0.118,0.732-0.177c6.409,11.334,12.818,22.667,19.227,34.001
	c0.494-0.219,0.989-0.438,1.483-0.657c-1.964-5.641-3.927-11.283-5.891-16.924c0.362-0.209,0.725-0.418,1.088-0.627
	c10.833,15.193,21.667,30.385,32.72,45.886c-0.28-3.04-0.538-5.827-0.795-8.614c0.369-0.203,0.737-0.406,1.106-0.608
	C403.564,530.916,409.95,542.459,416.911,555.04z M298.003,493.488c0.296,0.161,0.591,0.323,0.887,0.484
	c5.389-7.933,11.044-15.705,15.983-23.908c1.278-2.123,1.411-6.253,0.175-8.339c-4.845-8.18-19.336-17.05-30.74-7.029
	c-4.056,3.565-7.439,7.982-10.728,12.314c-5.607,7.387-10.915,15.002-16.315,22.545c-3.855,5.386-9.304,10.303-11.157,16.318
	c-4.78,15.511-7.959,31.516-11.778,47.324c0.365,0.082,0.731,0.165,1.096,0.247c5.997-11.324,11.994-22.648,17.991-33.972
	c0.511,0.206,1.022,0.411,1.533,0.617c-0.331,2.844-0.661,5.688-0.926,7.958c10.79-14.772,21.826-29.879,32.861-44.986
	c0.392,0.29,0.784,0.581,1.176,0.871c-1.79,5.272-3.579,10.545-5.369,15.817c0.49,0.2,0.98,0.4,1.47,0.601
	c6.335-11.412,12.67-22.823,19.005-34.235c0.255,0.101,0.51,0.201,0.764,0.302C301.955,475.443,299.979,484.466,298.003,493.488z
	 M118.413,417.736c0.387,0.252,0.773,0.504,1.16,0.756c4.941-4.432,10.068-8.675,14.784-13.334
	c9.592-9.476,15.426-20.759,15.527-34.557c0.131-17.982,0.217-35.965,0.424-53.947c0.053-4.65,0.098-9.355,0.806-13.932
	c3.383-21.865,16.596-36.824,34.528-48.361c1.359-0.874,2.715-1.752,4.073-2.628c-2.791-0.469-5.099-0.24-7.327,0.311
	c-20.934,5.179-38.524,25.686-41.663,48.857c-1.026,7.577-1.41,15.241-2.104,22.864c-0.58,6.368-1.742,7.54-7.759,7.929
	c-2.929,0.189-5.857,0.389-9.509,0.633C138.349,361.76,141.238,390.244,118.413,417.736z M459.254,250.441
	c2.688,1.75,4.125,2.746,5.619,3.65c24.283,14.678,37.675,35.041,36.166,64.58c-0.949,18.59,0.283,37.29,0.496,55.941
	c0.106,9.237,3.566,17.184,9.307,24.208c5.838,7.142,12.473,13.419,19.654,18.202c-3.844-7.78-8.725-15.444-11.53-23.804
	c-5.669-16.898-2.373-33.505,3.992-49.675c1.492-3.79,2.793-7.655,4.394-12.071c-3.658-0.408-6.428-0.883-9.211-0.986
	c-3.831-0.141-5.821-1.744-5.862-5.765c-0.055-5.495-0.076-11.014-0.589-16.477c-1.883-20.044-10.231-36.714-26.637-48.795
	C477.899,254.18,469.778,251.066,459.254,250.441z M204.261,585.021c-1.005,1.312-1.32,1.533-1.321,1.755
	c-0.022,3.496,0.001,6.992,0.005,10.488c0.028,23.365-2.182,46.342-14.375,66.977c-5.572,9.431-12.032,18.371-18.516,27.221
	c-9.72,13.267-14.889,27.731-13.35,44.333c1.107,11.937,3.504,23.531,8.836,35.953c-0.759-5.91-1.59-10.312-1.849-14.748
	c-1.338-22.884,4.582-43.64,17.512-62.706c7.165-10.564,13.735-21.665,19.335-33.128
	C212.432,636.815,206.621,611.335,204.261,585.021z M486.706,770.054c1.164-3.773,2.541-7.494,3.454-11.327
	c3.401-14.283,6.372-28.596,2.628-43.35c-2.861-11.273-9.275-20.599-16.32-29.445c-17.447-21.91-27.721-46.403-28.036-74.677
	c-0.091-8.145-0.014-16.292-0.014-24.437c-0.61-0.012-1.22-0.023-1.83-0.035c-0.84,8.396-1.68,16.792-2.52,25.187
	c-2.283,22.813,0.767,44.475,13.703,64.043c3.577,5.41,7.334,10.741,10.418,16.429c5.439,10.032,11.593,19.903,15.318,30.584
	C488.767,738.107,489.06,754.002,486.706,770.054z M359.101,521.074c-4.377-9.253-9.773-16.871-20.781-17.172
	c-9.912-0.272-19.881-0.212-29.76,0.552c-7.869,0.609-15.684,9.265-16.846,17.253C314.058,526.604,336.356,528.104,359.101,521.074z
	 M544.813,266.012c0.056-9.593-7.731-17.581-17.23-17.676c-9.813-0.097-17.874,7.8-17.922,17.558
	c-0.046,9.314,8.062,17.881,17.128,18.097C536.779,284.23,544.753,276.276,544.813,266.012z M141.694,266.154
	c0.11-9.923-7.606-17.838-17.431-17.882c-9.663-0.044-17.539,7.545-17.703,17.059c-0.179,10.335,7.435,18.439,17.344,18.46
	C133.662,283.81,141.585,275.956,141.694,266.154z M393.223,341.29c-5.32,2.724-10.405,5.328-15.725,8.053
	c18.021,15.781,52.302,19.074,70.039-12.488c-6.709,0-13.067,0-19.619,0c-2.044,8.406-7.68,13.066-16.168,14.634
	C403.074,353.093,397.467,348.89,393.223,341.29z M205.55,336.683c14.058,28.357,46.305,30.399,68.365,13.404
	c-5.286-2.816-10.299-5.486-15.349-8.176c-1.141,1.575-1.935,2.624-2.68,3.707c-7.305,10.629-26.077,5.958-28.966-2.973
	c-2.201-6.805-6.266-7.308-11.927-6.532C212.066,336.514,209.079,336.485,205.55,336.683z M492.703,225.501
	c-7.374-0.014-13.099,5.583-13.057,12.764c0.044,7.52,5.783,13.549,12.979,13.633c6.779,0.079,12.843-6.101,12.933-13.183
	C505.646,231.755,499.576,225.514,492.703,225.501z M171.862,238.43c-0.029-7.103-5.558-12.844-12.448-12.925
	c-7.435-0.087-13.07,5.722-12.989,13.39c0.078,7.419,5.249,12.863,12.319,12.971C165.959,251.976,171.892,245.9,171.862,238.43z"/>
<path d="M465.963,114.857c-4.066-4.994-8.132-9.989-13.025-16c-1.333,12.867-3.793,24.202-17.656,28.006
	c0.202,0.421,0.404,0.842,0.606,1.263c3.464-0.729,7.015-1.179,10.376-2.236c16.088-5.058,16.07-5.116,30.067,2.223
	c2.595-14.369,7.774-28.322,4.18-43.269c0.405-0.285,0.81-0.57,1.216-0.856c4.934,4.656,9.869,9.313,14.5,13.684
	c-3.959,8.258-7.758,16.181-11.88,24.778c2.157-0.295,3.432-0.479,4.71-0.643c9.313-1.196,18.097,4.725,19.376,13.989
	c0.808,5.849,0.889,12.034-0.08,17.838c-1.566,9.378-6.477,16.769-15.153,21.717c-20.914,11.928-43.448,17.869-67.141,14.588
	c-24.804-3.435-43.865,5.804-60.853,22.088c-14.972,14.351-24.792,31.987-31.906,51.261c-0.99,2.681-1.513,5.458-5.574,4.794
	c-3.814-0.624-7.656,0.945-9.78-4.871c-9.393-25.724-24.059-47.631-47.253-63.302c-13.104-8.854-27.109-12.016-42.638-10.173
	c-24.224,2.874-47.035-1.886-68.342-13.654c-14.789-8.168-21.491-25.389-16.467-41.561c2.953-9.504,9.903-13.851,19.872-12.443
	c0.965,0.136,1.942,0.192,3.638,0.355c-3.995-8.402-7.743-16.285-11.682-24.569c4.587-4.291,9.366-8.762,15.32-14.332
	c-3.213,16.31,1.4,30.132,4.715,44.116c0.393,0.039,0.851,0.225,1.012,0.081c8.012-7.189,16.73-6.702,26.059-2.879
	c3.863,1.583,8.146,2.142,12.617,2.552c-11.887-5.096-15.083-15.307-16.54-27.985c-4.84,5.564-8.887,10.215-12.934,14.866
	c-0.324-0.288-0.649-0.577-0.974-0.865c8.518-17.275,17.509-34.391,37.391-41.362c4.778-1.675,11.016-1.16,16.057,0.239
	c18.706,5.191,31.914,17.975,42.95,33.279c2.815,3.904,5.491,7.968,7.704,12.232c3.715,7.159,0.454,13.975-7.412,15.596
	c-4.012,0.827-8.172,0.931-12.769,1.415c3.599,4.49,7.91,8.603,5.972,14.978c-1.814,5.967-6.333,9.045-12.579,10.841
	c8.439,2.327,12.445,1.175,19.785-5.543c1.211,1.521,2.435,2.998,3.591,4.527c1.182,1.564,2.297,3.178,3.762,5.216
	c3.075-3.533,5.898-6.735,8.674-9.976c8.128-9.488,16.2-19.023,24.383-28.463c1.778-2.051,2.12-3.525,0.327-5.983
	c-5.885-8.065-11.639-16.245-17.051-24.634c-13.475-20.887-31.558-36.792-52.643-49.553c-2.135-1.292-4.276-2.596-6.278-4.079
	c-4.752-3.519-7.396-8.013-5.753-14.843c-5.708,3.304-10.896,6.306-16.379,9.48c2.445-14.13,21.939-16.431,35.251-11.936
	c-4.462,6.563-3.423,9.25,3.887,12.694c5.297,2.496,9.475,2.179,14.01-1.798c12.505-10.966,25.311-21.589,37.996-32.349
	c0.991-0.841,1.967-1.699,3.928-3.395c1.997,2.828,3.907,5.533,6.254,8.856c2.754-3.44,4.705-5.877,6.505-8.124
	c10.536,9.262,20.26,18.042,30.258,26.497c4.817,4.074,10.056,7.678,15.286,11.226c3.862,2.619,15.493-2.152,16.159-6.696
	c0.313-2.134-0.74-4.469-1.256-7.135c9.95-6.277,28.78-0.335,33.972,12.441c-5.702-3.532-10.67-6.61-16.381-10.147
	c2.425,8.831-2.051,13.499-8.092,17.565c-8.416,5.664-16.924,11.24-24.938,17.441c-13.971,10.81-25.107,24.248-34.686,39.047
	c-4.879,7.538-10.082,14.867-15.349,22.599c11.635,13.709,23.332,27.491,35.212,41.489c2.504-3.308,4.795-6.335,7.527-9.946
	c4.802,6.403,11.277,7.549,17.302,6.252c-3.148-3.481-7.626-6.861-9.912-11.357c-2.839-5.583,0.863-10.506,6.037-15.645
	c-3.928,0-6.598,0.077-9.262-0.013c-12.137-0.409-16.75-8.519-10.38-18.821c10.466-16.927,23.021-31.712,41.495-40.669
	c13.539-6.564,25.571-5.23,36.976,4.539c11.216,9.606,19.118,21.459,25.241,34.62C466.736,114.298,466.349,114.578,465.963,114.857z
	 M325.626,258.816c16.164-21.157,31.893-41.744,47.849-62.629c-15.272-21.65-29.517-44.285-48.81-64.973
	c-16.066,22.06-31.793,43.654-47.278,64.917C293.717,217.352,309.503,237.865,325.626,258.816z M162.372,132.119
	c-0.49,0.064-0.979,0.127-1.469,0.191c1.771,5.557,2.618,11.649,5.471,16.581c14.201,24.558,50.224,25.704,66.255,2.204
	c1.996-2.925,2.634-7.021,3.097-10.676c0.438-3.461-0.182-7.055-0.384-11.658c2.03,2.194,3.124,3.418,4.264,4.599
	c2.598,2.692,5.473,4.465,9.287,2.419c3.997-2.144,3.496-5.795,2.675-9.226c-1.633-6.82-6.326-11.092-12.74-13.794
	c3.768-11.518,11.883-18.962,21.983-24.919c-9.53-4.975-25.112-7.819-34.517-5.065c-5.352,1.568-10.641,4.725-14.861,8.42
	c-4.709,4.125-4.28,11.316,0.348,15.603c3.357,3.109,7.338,5.772,11.454,7.79c9.47,4.643,9.573,4.434,5.548,14.301
	c-9.787,23.994-35.255,30.812-55.514,14.625C169.2,140.263,165.982,135.945,162.372,132.119z M414.539,129.933
	c0.411,0.217,0.822,0.434,1.233,0.651c-0.159,3.309-0.631,6.641-0.385,9.92c0.23,3.064,0.428,6.59,2.012,9.016
	c8.658,13.259,21.477,19.164,36.995,18.396c15.6-0.772,26.347-9.411,32.636-23.366c1.695-3.761,1.663-8.301,2.424-12.483
	c-12.909,16.846-26.629,23.303-42.812,19.383c-14.555-3.525-25.683-16.787-27.651-32.753c5.611-2.962,11.565-5.302,16.593-8.926
	c10.324-7.441,9.526-17.249-1.486-23.817c-1.833-1.093-3.879-1.927-5.928-2.54c-8.905-2.664-17.795-1.71-26.572,0.623
	c-4.012,1.066-7.879,2.678-12.8,4.385c9.928,5.12,16.746,11.419,20.922,20.411c1.307,2.815,1.451,4.659-1.654,6.547
	c-5.08,3.088-8.298,7.859-8.505,13.879c-0.078,2.258,1.104,5.777,2.746,6.565c1.987,0.953,5.329,0.169,7.599-0.897
	C411.812,134.032,413.021,131.654,414.539,129.933z M361.437,59.804c-12.045-14.651-23.912-29.085-36.025-43.819
	c-12.479,15.051-24.46,29.5-36.454,43.966c12.117,14.659,24.162,29.232,36.306,43.923C337.328,89.176,349.327,74.557,361.437,59.804
	z"/>
<path d="M222.915,501.491c-8.128,9.136-16.798,18.012-24.456,27.689c-11.98,15.138-21.757,31.764-24.909,51.061
	c-1.418,8.681-1.006,18.08,0.65,26.757c3.605,18.887-2.238,33.609-16.522,45.764c-16.176,13.765-34.501,23.036-55.347,27.25
	c-0.163,0.033-0.323,0.093-0.488,0.108c-6.362,0.58-13.044,1.502-17.436-4.502c-4.184-5.718-2.005-11.998,1.426-16.81
	c6.338-8.891,13.635-17.11,20.704-25.463c2.458-2.904,5.423-5.379,7.827-8.704c-0.903,0.309-1.897,0.468-2.695,0.951
	c-7.824,4.736-15.876,9.153-23.346,14.397c-8.697,6.106-13.885,14.153-13.764,25.621c0.126,11.924-1.964,23.874-1.799,35.795
	c0.221,15.967,5.493,30.573,14.374,43.982c6.044,9.125,11.389,18.717,16.944,28.16c0.874,1.486,1.202,3.292,1.366,5.202
	c-8.311-15.107-22.537-23.627-36.188-32.388c-23.774-15.258-33.808-38.096-37.477-64.654c-1.041-7.532-1.481-15.352-0.698-22.885
	c1.452-13.968,8.79-25.135,21.221-31.383c11.342-5.701,23.573-9.749,35.639-13.862c10.37-3.535,21.118-5.944,31.595-9.187
	c18.021-5.578,32.095-16.344,42.332-32.321c8.97-14.001,17.436-28.497,27.931-41.293c8.342-10.172,19.392-18.13,29.301-27.002
	C220.251,502.741,221.797,502.145,222.915,501.491z M111.138,657.382c20.687-5.841,38.959-29.838,41.351-53.965
	C138.585,621.562,125.129,639.123,111.138,657.382z"/>
<path d="M427.87,501.063c6.409,5.095,12.926,10.062,19.206,15.312c13.842,11.57,24.354,25.888,33.685,41.185
	c4.764,7.809,9.688,15.53,14.794,23.119c7.53,11.191,17.974,18.773,30.808,22.592c16.878,5.021,33.974,9.305,50.883,14.231
	c5.392,1.571,10.651,3.84,15.683,6.363c22.067,11.064,31.276,28.508,27.233,52.844c-1.818,10.946-4.679,21.775-7.839,32.428
	c-4.506,15.196-15.082,25.996-27.451,35.224c-2.934,2.189-5.973,4.239-9.005,6.291c-12.038,8.147-24.015,16.35-30.43,30.269
	c-0.425-0.25-0.851-0.5-1.276-0.75c2.671-5.785,5.038-11.737,8.103-17.305c2.718-4.938,6.065-9.554,9.387-14.129
	c14.014-19.303,17.908-41.196,16.516-64.4c-0.508-8.465-0.917-17.016-2.527-25.304c-0.901-4.638-3.381-9.511-6.522-13.068
	c-8.831-10.002-20.666-15.846-32.974-21.127c0.547,0.615,1.067,1.258,1.648,1.839c0.588,0.588,1.284,1.07,1.854,1.673
	c7.652,8.098,15.682,15.885,22.751,24.464c3.125,3.792,5.198,9.018,6.148,13.904c1.554,7.996-3.617,13.848-11.777,13.593
	c-5.905-0.185-12.012-1.017-17.604-2.854c-21.51-7.066-40.795-17.852-55.526-35.594c-6.66-8.021-8.942-17.113-7.418-27.5
	c1.372-9.353,2.995-18.859,2.661-28.232c-0.598-16.781-8.418-31.273-17.235-45.141c-9.423-14.82-21.665-27.189-34.536-38.988
	C427.365,501.69,427.618,501.377,427.87,501.063z M498.334,602.85c3.714,25.38,24.964,52.358,42.101,54.083
	C526.571,639.122,512.828,621.468,498.334,602.85z"/>
<path d="M318.5,287.788c-7.081-1.072-12.123-5.386-15.64-11.13c-4.157-6.787-7.548-14.048-11.183-21.149
	c-3.561-6.957-6.806-14.084-10.552-20.938c-8.903-16.289-21.707-23.061-40.071-20.592c-8.682,1.168-17.279,3.315-25.748,5.629
	c-8.126,2.22-14.11,0.541-18.303-6.685c-3.457-5.957-6.477-12.168-9.691-18.267c0.369-0.235,0.739-0.471,1.108-0.706
	c1.203,1.052,2.556,1.975,3.587,3.175c9.246,10.752,21.043,13.093,34.393,10.71c10.568-1.887,21.175-2.442,31.752-0.025
	c16.885,3.857,29.421,13.797,38.131,28.428c4.319,7.256,7.866,15.026,11.176,22.813C311.411,268.34,314.734,277.896,318.5,287.788z"
	/>
<path d="M463.755,195.34c-3.344,6.253-6.417,12.672-10.107,18.713c-3.955,6.476-9.393,7.853-16.797,5.92
	c-8.806-2.299-17.682-4.538-26.666-5.868c-5.155-0.763-10.675-0.195-15.872,0.696c-9.524,1.634-16.978,6.725-21.445,15.504
	c-5.504,10.817-10.414,21.957-16.358,32.52c-3.534,6.281-8.183,12.07-13.081,17.391c-2.482,2.697-6.627,3.863-9.86,5.634
	c5.18-12.716,9.982-25.015,15.182-37.143c7.135-16.642,16.913-30.994,34.692-38.011c13.135-5.184,26.672-5.646,40.294-2.985
	c13.568,2.65,25.484,0.689,34.95-10.237c0.75-0.866,1.789-1.488,2.723-2.184c0.384-0.285,0.848-0.463,1.275-0.69
	C463.044,194.847,463.4,195.094,463.755,195.34z"/>
<path d="M138.43,157.746c3.362,12.634,13.073,19.391,23.505,25.13c9.045,4.975,13.457,12.895,16.767,23.046
	c-13.296-1.701-25.877-3.251-35.895-12.468c-1.042-0.958-2.079-2.394-2.27-3.729c-1.499-10.482-2.791-20.994-4.146-31.496
	C137.07,158.068,137.75,157.907,138.43,157.746z"/>
<path d="M514.744,158.953c-1.4,10.476-2.652,20.975-4.34,31.404c-0.299,1.846-2.13,3.76-3.74,5.024
	c-9.817,7.707-21.746,8.925-34.045,11.342c2.747-10.102,6.714-18.162,15.678-22.905c10.884-5.759,20.756-12.587,24.366-25.553
	C513.357,158.494,514.051,158.724,514.744,158.953z"/>
<path d="M235.311,47.35c-11.898,9.062-23.797,18.124-35.695,27.186c-0.432-0.294-0.865-0.588-1.297-0.883
	c0.807-5.5,1.392-11.048,2.573-16.466c0.304-1.393,2.322-2.675,3.83-3.498c9.178-5.012,19.011-7.688,29.507-7.78
	C234.591,46.389,234.951,46.869,235.311,47.35z"/>
<path d="M451.311,74.6c-11.678-9.153-23.356-18.306-36.026-28.236c10.247-1.04,27.066,3.693,33.784,9.04
	c1.049,0.835,1.935,2.376,2.125,3.701c0.699,4.875,1.074,9.797,1.571,14.701C452.28,74.069,451.796,74.335,451.311,74.6z"/>
<path d="M290.732,144.893c2.976-4.754,5.919-9.53,8.938-14.257c2.988-4.679,2.686-8.806-1.128-13.083
	c-5.034-5.646-9.634-11.679-14.941-18.185c12.658,3.304,22.433,9.183,28.696,20.142c1.213,2.122,1.392,3.671-0.435,5.67
	c-5.273,5.767-10.236,11.816-15.489,17.601c-1.286,1.417-3.218,2.247-4.853,3.348C291.258,145.717,290.995,145.305,290.732,144.893z
	"/>
<path d="M367.63,99.985c-5.175,5.911-9.415,10.762-13.664,15.605c-5.996,6.834-6.215,8.668-1.729,16.744
	c1.209,2.177,2.577,4.271,3.957,6.346c1.371,2.062,2.85,4.052,3.817,6.914c-1.42-0.689-3.192-1.047-4.201-2.121
	c-5.689-6.054-11.277-12.21-16.68-18.519c-0.842-0.984-1.253-3.279-0.696-4.374C344.262,109.117,354.171,103.26,367.63,99.985z"/>
<path d="M127.593,138.19c0.731,15.154,1.424,29.515,2.114,43.804c-4.638-7.988-10.493-15.797-12.297-25.576
	c-0.325-1.764,0.201-4.081,1.172-5.611C121.306,146.513,124.469,142.499,127.593,138.19z"/>
<path d="M179.732,101.725c-5.084-11.539-1.323-30.096,8.292-38.534C190.113,77.278,189.496,90.717,179.732,101.725z"/>
<path d="M471.164,101.658c-9.783-15.449-10.082-16.771-9.132-39.392C473.252,70.593,475.127,84.891,471.164,101.658z"/>
<path d="M521.438,181.293c0.645-13.802,1.29-27.605,1.924-41.163c7.064,3.654,11.436,13.499,8.337,21.156
	c-2.825,6.982-6.443,13.642-9.712,20.445C521.804,181.584,521.621,181.439,521.438,181.293z"/>
<path d="M268.754,229.766c4.106,6.051,8.298,12.228,12.472,18.378c-9.724,0-19.87,0-31.266,0
	C257.175,241.68,268.66,240.7,268.754,229.766z"/>
<path d="M368.928,248.154c4.805-5.809,12.608-8.865,11.858-15.975c5.678,4.993,11.978,10.532,18.168,15.975
	C389.592,248.154,379.76,248.154,368.928,248.154z"/>
<path d="M495.808,111.052c2.75-4.237,5.154-8.76,8.349-12.63c3.01-3.648,6.913-3.784,9.869-0.139
	c3.65,4.499,6.397,9.731,9.534,14.647c-0.546,0.464-1.091,0.928-1.637,1.393c-2.56-1.873-5.17-3.683-7.671-5.632
	c-5.955-4.64-7.009-4.667-12.896,0.025c-1.412,1.125-2.813,2.263-4.218,3.395C496.694,111.757,496.251,111.405,495.808,111.052z"/>
<path d="M153.792,111.818c-1.785-1.338-3.723-2.517-5.324-4.048c-3.347-3.201-6.643-3.177-10.217-0.462
	c-2.985,2.268-6.062,4.416-9.491,6.306c1.855-6.249,4.459-12.016,9.475-16.343c2.439-2.103,5.598-2.393,7.632,0.006
	c3.502,4.132,6.364,8.807,9.494,13.254C154.838,110.961,154.315,111.39,153.792,111.818z"/>
<path d="M216.22,40.741c-17.219,4.915-32.15,11.468-40.142,28.183C175.943,53.492,192.893,41.447,216.22,40.741z"/>
<path d="M475.227,69.648c-6.682-15.736-20.423-22.432-35.687-27.676C456.648,40.126,472.504,52.381,475.227,69.648z"/>
<path d="M536.657,480.932c0.068,9.214-7.131,16.465-16.356,16.478c-8.69,0.012-15.656-6.993-15.771-15.86
	c-0.117-9.039,6.86-16.37,15.729-16.528C529.147,464.864,536.592,472.086,536.657,480.932z"/>
<path d="M130.595,464.38c8.949-0.058,16.654,7.866,16.614,17.086c-0.038,8.686-7.115,15.74-15.942,15.889
	c-9.295,0.156-16.647-6.95-16.685-16.126C114.545,471.777,121.519,464.439,130.595,464.38z"/>
<path d="M547.071,327.48c6.071,3.33,11.795,6.47,18.709,10.263c-8.262,11.162-16.302,22.023-24.966,33.728
	C539.505,355.665,543.115,341.495,547.071,327.48z"/>
<path d="M110.741,369.888c-7.774-11.44-15.374-22.624-23.565-34.677c6.628-2.411,12.615-4.589,18.956-6.895
	C111.422,341.93,111.339,355.92,110.741,369.888z"/>
<path d="M492.412,244.537c-3.813-0.067-5.82-1.885-5.749-5.521c0.074-3.803,2.25-5.743,6.015-5.732
	c3.809,0.011,5.292,2.473,5.298,5.833C497.982,242.767,495.717,244.397,492.412,244.537z"/>
<path d="M159.805,233.183c2.832,0.198,4.911,2.007,4.907,5.563c-0.005,3.836-2.387,5.655-6.007,5.762
	c-3.703,0.11-5.562-2.319-5.586-5.593C153.093,235.293,155.291,233.174,159.805,233.183z"/>
<path d="M325.692,147.779c4.79,8.645,9.421,17.041,14.091,25.416c3.564,6.391,6.783,13.026,10.924,19.021
	c2.307,3.34,6.187,5.594,9.579,8.528c-11.822,15.536-22.961,30.175-34.626,45.506c-11.601-14.929-22.681-29.188-33.97-43.714
	C307.308,187.372,313.326,166.092,325.692,147.779z M325.632,230.374c6.649-8.819,13.103-17.203,19.265-25.798
	c0.684-0.953,0.194-3.427-0.599-4.642c-3.445-5.277-7.192-10.357-10.854-15.491c-2.613-3.664-5.265-7.299-8.087-11.207
	c-6.834,9.616-13.251,18.486-19.415,27.529c-0.717,1.052-0.665,3.534,0.099,4.547C312.227,213.521,318.669,221.538,325.632,230.374z
	"/>
<path d="M325.04,78.957c6.432-7.121,12.638-13.992,19.12-21.169c2.04,2.207,3.708,4.011,5.926,6.41
	c-8.073,9.577-16.048,19.037-24.793,29.412c-8.724-10.155-16.887-19.658-25.346-29.505c2.052-2.267,3.674-4.058,5.797-6.403
	C312.254,64.873,318.553,71.812,325.04,78.957z"/>
<path d="M312.403,52.241c4.38-4.896,8.428-9.421,12.625-14.112c3.67,4.175,7.207,7.911,10.336,11.961
	c0.776,1.004,0.908,3.564,0.175,4.489c-3.062,3.867-6.567,7.383-10.282,11.435C320.949,61.398,316.929,57.09,312.403,52.241z"/>
<path d="M325.576,219.342c-4.496-5.495-8.437-10.31-12.502-15.277c4.184-5.256,8.065-10.131,12.28-15.428
	c4.255,5.364,8.144,10.265,12.217,15.399C333.766,208.893,330.006,213.69,325.576,219.342z"/>
</svg>
