<?xml version="1.0" encoding="UTF-8" standalone="no" ?>
<!DOCTYPE svg PUBLIC "-//W3C//DTD SVG 1.1//EN" "http://www.w3.org/Graphics/SVG/1.1/DTD/svg11.dtd">
<svg xmlns="http://www.w3.org/2000/svg" xmlns:xlink="http://www.w3.org/1999/xlink" version="1.1" width="1080" height="1080" viewBox="0 0 1080 1080" xml:space="preserve">
<g transform="matrix(1 0 0 1 540 540)" id="9f99ed2a-8327-4042-8a4a-908ecec7fe12"  >
<rect style="stroke: none; stroke-width: 1; stroke-dasharray: none; stroke-linecap: butt; stroke-dashoffset: 0; stroke-linejoin: miter; stroke-miterlimit: 4; fill: rgb(255,255,255); fill-rule: nonzero; opacity: 1; visibility: hidden;" vector-effect="non-scaling-stroke"  x="-540" y="-540" rx="0" ry="0" width="1080" height="1080" />
</g>
<g transform="matrix(1 0 0 1 540 540)" id="0a1d3d1d-7e6b-4eea-9472-a9aa1e420314"  >
</g>
<g transform="matrix(6.67 0 0 6.67 548.33 308.32)"  >
<path style="stroke: none; stroke-width: 1; stroke-dasharray: none; stroke-linecap: butt; stroke-dashoffset: 0; stroke-linejoin: miter; stroke-miterlimit: 4; fill: rgb(0,0,0); fill-rule: nonzero; opacity: 1;" vector-effect="non-scaling-stroke"  transform=" translate(-63.99, -36.64)" d="M 80 69 C 74.11238741009697 71.9075444747171 67.54370878853396 73.15559341281408 61 72.61000000000001 C 56.34187805970878 72.23828339173042 51.8023690697276 70.95390135713994 47.64 68.83 C 32.71978496584814 61.25084443240592 24.96458509287442 44.411158105740725 28.904005939974066 28.14655300224804 C 32.84342678707371 11.881947898755357 47.44451936119327 0.45713909106680717 64.17917462930072 0.5450529166409268 C 80.91382989740816 0.6329667422150465 95.39408171442533 12.210551462959621 99.16240091296872 28.51564840229159 C 102.93072011151212 44.82074534162356 94.99902197742759 61.57802212993277 80 69 Z" stroke-linecap="round" />
</g>
<g transform="matrix(6.67 0 0 6.67 548.2 308.26)"  >
<path style="stroke: none; stroke-width: 1; stroke-dasharray: none; stroke-linecap: butt; stroke-dashoffset: 0; stroke-linejoin: miter; stroke-miterlimit: 4; fill: rgb(0,0,0); fill-rule: nonzero; opacity: 1;" vector-effect="non-scaling-stroke"  transform=" translate(-63.97, -36.63)" d="M 63.91 73.23 C 62.91 73.23 61.959999999999994 73.23 60.98 73.11 C 56.25590601598967 72.7340851208324 51.65186728146695 71.43272214273483 47.42999999999998 69.28 C 32.29014050553538 61.61033837354206 24.40903446854473 44.53872272163326 28.39202917821249 28.041001420821743 C 32.375023887880246 11.543280120010223 47.17709278017311 -0.05200555308142896 64.14860374413013 0.030883389355480517 C 81.12011470808716 0.11377233179238999 95.80821729274774 11.853088146407629 99.6298759312717 28.388927412289682 C 103.45153456979565 44.924766678171736 95.40405277699028 61.91858702932451 80.19 69.44 L 80.19 69.44 C 75.127838426971 71.94082794404291 69.5561985096336 73.23791119261224 63.91 73.23 Z M 64 1 C 47.505921596211806 0.9794119117160978 33.156393679516526 12.288396662180144 29.32143574802766 28.330470839897995 C 25.486477816538795 44.37254501761585 33.16990234272785 60.948644530728146 47.89 68.39 C 51.99287073807508 70.48508064952883 56.467850006028 71.75248176338337 61.06 72.12 C 71.48206751042996 72.97474199427002 81.75286807257656 69.20406666916011 89.1461621550134 61.80884674820219 C 96.53945623745022 54.41362682724427 100.30745639875619 44.141844538898106 99.45 33.71999999999999 C 97.96149722418299 16.36387387471848 84.19612612528154 2.5985027758170247 66.84 1.1099999999999994 C 65.89 1 65 1 64 1 Z" stroke-linecap="round" />
</g>
<g transform="matrix(6.67 0 0 6.67 520.16 781.38)"  >
<path style="stroke: none; stroke-width: 1; stroke-dasharray: none; stroke-linecap: butt; stroke-dashoffset: 0; stroke-linejoin: miter; stroke-miterlimit: 4; fill: rgb(0,0,0); fill-rule: nonzero; opacity: 1;" vector-effect="non-scaling-stroke"  transform=" translate(-59.77, -107.57)" d="M 119.53 92.58 C 119.17 92.42 118.81 92.25 118.44 92.1 C 118.07 91.94999999999999 117.77 91.83 117.44 91.71 C 114.55965841962559 90.64334612057203 111.5114890532802 90.10144934433285 108.44 90.11 C 97.67274406210917 90.12075583823332 88.02612658031877 96.76711706682906 84.18067725106849 106.82427549136776 C 80.33522792181819 116.88143391590644 83.08666746045627 128.2683091187961 91.1 135.46 L 91.49 135.81 L 91.94 136.19 C 57.43580361330202 151.21991870790825 17.19492216003458 136.77930616287273 0.12000000000000455 103.24 L 0 103 L 0.14 102.77 C 7.814871938027304 89.71895839586664 19.342848996825623 79.36473900123687 33.13999999999997 73.13000000000001 L 33.43 73.00999999999999 L 33.67 73.19999999999999 C 41.144169694513295 79.45817508060479 50.38199243621283 83.23299481614603 60.10000000000002 84 C 72.29832876012826 84.99719234038436 84.40969323110137 81.2383694616711 93.89999999999999 73.51 L 94.15 73.31 L 94.43 73.45 C 104.08709051815659 77.9274449291049 112.65247076957331 84.45556143147945 119.53 92.57999999999996 Z" stroke-linecap="round" />
</g>
<g transform="matrix(6.67 0 0 6.67 922.17 784.14)"  >
<path style="stroke: none; stroke-width: 1; stroke-dasharray: none; stroke-linecap: butt; stroke-dashoffset: 0; stroke-linejoin: miter; stroke-miterlimit: 4; fill: rgb(0,0,0); fill-rule: nonzero; opacity: 1;" vector-effect="non-scaling-stroke"  transform=" translate(-120.04, -107.98)" d="M 119.81 107.65 C 119.96000000000001 107.86 120.12 108.08000000000001 120.27 108.31 L 120.27 108.31 C 120.12 108.08 120 107.86 119.81 107.65 Z" stroke-linecap="round" />
</g>
<g transform="matrix(6.67 0 0 6.67 844.97 838.56)"  >
<path style="stroke: none; stroke-width: 1; stroke-dasharray: none; stroke-linecap: butt; stroke-dashoffset: 0; stroke-linejoin: miter; stroke-miterlimit: 4; fill: rgb(0,0,0); fill-rule: nonzero; opacity: 1;" vector-effect="non-scaling-stroke"  transform=" translate(-108.46, -116.14)" d="M 125.21 113.28 L 122.33 113.28 C 121.97236453312861 111.49603286045435 121.27283474914412 109.79814503524928 120.27 108.28 L 120.27 108.28 C 120.11999999999999 108.05 119.96 107.83 119.81 107.62 C 119.97 107.83 120.12 108.05000000000001 120.27 108.27000000000001 L 122.27 106.27000000000001 C 121.16727173953826 104.72444550683018 119.81555449316983 103.37272826046173 118.26999999999998 102.27000000000001 L 116.27 104.27000000000001 C 114.6156332692786 103.1724937429474 112.74828353061916 102.43645807953418 110.78999999999999 102.11000000000001 L 111.28999999999999 102.20000000000002 L 111.28999999999999 99.36 C 109.41689439144164 99.04009253651914 107.50310560855834 99.04009253651914 105.63 99.36 L 105.63 102.23 L 106.13 102.14 C 104.17171646938083 102.46645807953416 102.30436673072137 103.20249374294738 100.64999999999999 104.3 L 98.64999999999999 102.3 C 97.10444550683016 103.40272826046173 95.75272826046172 104.75444550683017 94.64999999999999 106.3 L 96.64999999999999 108.3 C 95.64491089095178 109.81694942156258 94.94519315341273 111.51529344471561 94.58999999999999 113.3 L 91.69 113.3 C 91.36991877241431 115.17644814917291 91.36991877241431 117.09355185082708 91.69 118.97 L 94.57 118.97 C 94.92811957880777 120.753820352581 95.6276122625941 122.45161812876142 96.63 123.97 L 94.63 125.97 C 95.73215979691795 127.51603569942151 97.08396430057849 128.86784020308204 98.63 129.97 L 100.63 127.97 C 102.28436673072139 129.06750625705263 104.15171646938083 129.80354192046582 106.11 130.13 C 105.94 130.13 105.77 130.07 105.61 130.04 L 105.61 132.92 C 107.48310560855835 133.23990746348085 109.39689439144165 133.23990746348085 111.27 132.92 L 111.27 130 C 111.11 130 110.94 130.07 110.77 130.09 C 112.72828353061917 129.76354192046583 114.59563326927861 129.0275062570526 116.25 127.93 L 118.25 129.93 C 119.79603569942151 128.82784020308205 121.14784020308204 127.47603569942153 122.25 125.93 L 120.25 123.93 C 121.29766840188616 122.33888258450439 122.0151832443524 120.55359683903151 122.36 118.68 C 122.36474939796597 118.7699373422749 122.36474939796597 118.86006265772511 122.36 118.95 L 125.24 118.95 C 125.40012031708359 118.01518097515694 125.480409906884 117.0684328954269 125.47999999999999 116.12 C 125.47010939840591 115.16742053889261 125.37978844384017 114.2173779056826 125.21 113.28 Z M 115 118.7 C 114.97275013167504 118.7856397763347 114.93932925144378 118.86919197691283 114.9 118.95 C 114.18650304478906 120.58878242918054 112.87878242918055 121.89650304478906 111.24000000000001 122.61 L 111.00000000000001 122.71 C 109.33457720124301 123.36037756805514 107.48542279875703 123.36037756805514 105.82000000000002 122.71 L 105.58000000000003 122.61 C 103.98031472325043 121.89221213743004 102.70441385157238 120.6056193590061 102 119 C 101.96067074855623 118.91919197691283 101.92724986832496 118.8356397763347 101.9 118.75 C 101.25026401621083 117.08790798900185 101.25026401621083 115.24209201099816 101.9 113.58 C 101.92899302771765 113.4949954274134 101.96237110794272 113.41155022685074 102 113.33 C 102.71682042303394 111.69348429683474 104.02348429683474 110.38682042303394 105.66 109.67 L 105.89999999999999 109.57000000000001 C 107.565422798757 108.91962243194486 109.41457720124296 108.91962243194486 111.07999999999998 109.57000000000001 L 111.31999999999998 109.67 C 112.95651570316524 110.38682042303394 114.26317957696602 111.69348429683474 114.97999999999998 113.33 C 115.01762889205726 113.41155022685074 115.05100697228232 113.4949954274134 115.07999999999997 113.58 C 115.69112302425259 115.2372046767754 115.66259970293913 117.06269724083695 115 118.7 Z" stroke-linecap="round" />
</g>
<g transform="matrix(6.67 0 0 6.67 922.17 784.07)"  >
<path style="stroke: none; stroke-width: 1; stroke-dasharray: none; stroke-linecap: butt; stroke-dashoffset: 0; stroke-linejoin: miter; stroke-miterlimit: 4; fill: rgb(0,0,0); fill-rule: nonzero; opacity: 1;" vector-effect="non-scaling-stroke"  transform=" translate(-120.04, -107.97)" d="M 120.27 108.3 L 120.27 108.3 C 120.11999999999999 108.07 119.96 107.85 119.81 107.64 C 120 107.86 120.12 108.08 120.27 108.3 Z" stroke-linecap="round" />
</g>
</svg>
