<?xml version="1.0" encoding="utf-8"?>
<!-- Generator: Adobe Illustrator 16.0.0, SVG Export Plug-In . SVG Version: 6.00 Build 0)  -->
<!DOCTYPE svg PUBLIC "-//W3C//DTD SVG 1.1//EN" "http://www.w3.org/Graphics/SVG/1.1/DTD/svg11.dtd">
<svg version="1.1" id="Layer_1" xmlns="http://www.w3.org/2000/svg" xmlns:xlink="http://www.w3.org/1999/xlink" x="0px" y="0px"
	 width="841.89px" height="595.28px" viewBox="0 0 841.89 595.28" enable-background="new 0 0 841.89 595.28" xml:space="preserve">
<path d="M656.102,226.134c-18.043-55.786-51.518-100.246-99.918-133.145c-39.906-27.128-84.451-39.803-132.673-40.428
	c-10.824,0.914-21.705,1.44-32.47,2.814c-32.304,4.132-62.369,14.869-90.178,31.789c-32.413,19.724-58.754,45.803-79.521,77.436
	c-34.567,52.649-46.354,110.215-35.356,172.149c9.101,51.25,33.218,94.979,70.035,131.391
	c50.982,50.426,112.42,74.324,184.389,69.964c23.98-1.449,47.15-6.631,69.463-15.476c36.211-14.354,67.135-36.394,93.149-65.259
	c38.155-42.334,59.75-91.843,63.058-148.909C667.701,280.484,664.758,252.882,656.102,226.134z M653.286,295.073
	c-3.218-9.438-9.598-15.446-19.078-18.26c0.007-0.289,0.015-0.577,0.022-0.863c2.829-1.551,5.628-3.163,8.521-4.585
	c0.529-0.263,1.543,0.08,2.163,0.439c4.934,2.889,8.705,6.949,10.311,12.434C656.281,287.837,654.933,291.462,653.286,295.073z
	 M624.508,325.342l-0.059,0.378c-0.56-0.138-1.153-0.192-1.674-0.42c-5.991-2.617-10.567-6.802-13.573-12.602
	c-2.118-4.089-1.696-8.209,1.454-12.261c2.622,10.451,9.063,16.976,18.512,20.592c-2.272,3.614-2.912,3.815-7.346,2.849
	C622.717,324.365,623.611,324.854,624.508,325.342z M606.598,299.477c0.008-0.163,1.218-0.272,2.422-0.521
	c-0.744,2.264-1.214,3.706-1.689,5.15c-0.191-0.004-0.382-0.008-0.574-0.012C606.672,302.556,606.534,301.009,606.598,299.477z
	 M606.532,295.139c0.104-1.867,0.483-3.721,0.761-5.575c0.15-0.005,0.301-0.011,0.451-0.013c0.396,1.825,0.927,3.636,1.11,5.481
	c0.061,0.587-0.811,1.267-1.254,1.902C607.225,296.336,606.499,295.716,606.532,295.139z M629.877,276.088
	c0.088,0.274,0.173,0.55,0.263,0.824c-9.563,2.734-16.143,8.552-19.213,18.137c-1.651-4.516-3.498-8.962-0.236-13.095
	c2.636-3.337,5.795-6.28,8.856-9.257c1.37-1.334,3.013-1.317,4.691-0.117C626.038,273.868,627.991,274.926,629.877,276.088z
	 M624.582,271.514c0.016-0.307,0.033-0.607,0.05-0.909c1.816-0.108,3.794-0.684,5.381-0.136c0.878,0.301,1.109,2.485,1.63,3.823
	c-0.231,0.183-0.462,0.366-0.697,0.552C628.827,273.73,626.705,272.622,624.582,271.514z M636.813,326.282
	c-1.417,0.272-2.588,0.502-3.194,0.619c-0.368-1.024-0.401-1.804-0.788-2.067c-1.419-0.966-2.255-0.462-3.235,1.846
	c-0.872-0.157-1.769-0.319-2.749-0.498C630.94,321.395,631.824,321.389,636.813,326.282z M631.924,313.884
	c-0.241,0.013-0.485,0.019-0.725,0.027c-0.116,1.107-0.315,2.214-0.325,3.321c-0.021,1.637-0.626,2.124-2.256,1.647
	c-8.048-2.354-15.259-10.846-15.818-19.061c-0.295-4.375,1.254-8.333,3.702-11.931c2.777-4.07,6.545-6.838,11.232-8.286
	c7.318-2.261,16.273,2.063,20.789,9.526c7.898,13.044-3.631,28.213-15.191,29.89C632.845,317.243,632.387,315.564,631.924,313.884z
	 M636.884,270.038c1.395,0.088,2.772,0.418,4.186,1.189c-2.688,1.193-5.373,2.386-8.145,3.617
	C632.529,270.676,633.253,269.809,636.884,270.038z M465.397,67.218c36.889,6.775,70.004,21.956,99.538,44.983
	c5.377,4.191,10.527,8.676,15.668,13.157c1.614,1.409,3.045,1.9,5.109,1.089c1.886-0.739,3.931-1.078,6.006-1.272
	c-3.681,3.614-8.242,5.044-13.193,5.301c-3.098,0.157-6.21,0.017-9.314-0.086c-2.397-0.077-3.111,1.178-2.636,3.253
	c0.447,1.924,1.16,3.784,1.663,5.697c0.394,1.486,0.645,3.014,0.603,4.582c-2.918-3.706-3.92-7.806-2.611-12.568
	c-0.775-0.039-1.384-0.233-1.862-0.061c-5.425,1.944-10.936,3.698-16.209,6.006c-4.146,1.817-4.288,6.071-0.37,8.668
	c1.875,1.237,4.235,1.866,6.462,2.414c2.688,0.665,5.473,0.951,8.162,1.704c-4.694,2.213-8.627,0.008-12.588-2.095
	c-1.27,9.361,9.093,26.16,17.382,27.914c-2.06-6.662,0.83-12.8,1.426-19.313c0.899,6.623,1.244,13.367,10.639,13.395
	c-0.45,1.235-0.763,2.095-1.073,2.955c-1.421,3.852-1.887,7.182,1.242,10.954c3.885,4.673,6.926,10.105,9.944,15.431
	c10.079,17.792,17.071,36.744,20.689,56.906c0.119,0.659,0.343,1.299,0.538,2.026c3.047-0.555,2.596-2.593,2.209-4.56
	c-3.558-18.076-9.488-35.342-18.316-51.521c-3.84-7.035-8.25-13.767-12.583-20.515c-1.185-1.848-1.305-3.188,0.134-4.791
	c0.746-0.826,1.354-1.79,1.938-2.749c1.315-2.146,1.616-4.208-0.781-5.896c1.484-2.132,2.938-4.227,4.532-6.52
	c2.021,3.164,4.745,2.819,7.81,1.544c0.843-0.349,2.375-0.083,3.101,0.509c2.852,2.32,6.06,4.486,8.152,7.412
	c18.292,25.581,30.649,53.731,35.965,84.834c0.35,2.023,1.11,3.405,3.905,3.262c-6.742-42.185-25.227-78.465-53.312-110.532
	c-1.563,2.623-0.504,4.331,0.839,5.985c2.615,3.217,5.229,6.43,7.835,9.649c0.09,0.114,0.101,0.297,0.28,0.873
	c-2.056-1.681-3.807-3.107-5.553-4.534c0.163-0.233,0.326-0.464,0.487-0.695c-0.941,0-1.888,0.088-2.816-0.019
	c-2.511-0.283-4.407-1.702-4.643-4.163c-0.577-5.991-1.46-12.034,0.389-17.988c0.119-0.381,0.37-0.724,0.78-1.507
	c35.387,38.35,57.835,82.4,63.784,135.285c-9.451-8.053-19.522-10.925-30.935-7.317c-11.122,3.513-18.42,11.029-22.513,22.504
	c-1.499-44.094-16.621-82.135-45.681-114.235c-29.035-32.072-65.543-50.496-109.077-56.581c9.336-5.72,15.567-13.181,16.985-23.683
	c1.425-10.514-2.277-19.322-9.961-26.853C457.511,66.037,461.479,66.497,465.397,67.218z M585.433,155.902
	c-3.177-2.023-6.585-4.197-9.932-6.326C579.971,147.545,584.879,150.678,585.433,155.902z M441.913,520.908
	c-2.28,1.646-4.677,2.951-7.188,3.946c-2.9,0.716-5.868-0.154-8.694-1.963c9.649-3.209,16.205-9.505,19.916-19.557
	c1.978,2.186,3.501,3.771,4.862,5.481c0.226,0.28-0.157,1.144-0.389,1.681c-0.722,1.669-1.56,3.212-2.518,4.635
	C446.278,517.246,444.281,519.198,441.913,520.908z M428.21,526.734c-1.413,0.132-2.824,0.271-4.231,0.409
	c-0.323-3.01-0.252-3.031,4.713-0.503C428.532,526.674,428.369,526.701,428.21,526.734z M420.243,480.633
	c-9.63,2.741-15.225,9.457-18.511,18.499c-0.271-0.04-0.539-0.082-0.811-0.122c-1.422-2.343-2.886-4.655-4.229-7.038
	c-0.229-0.407-0.124-1.21,0.134-1.647c3.174-5.377,7.639-9.464,13.473-11.554C413.495,477.627,416.878,478.961,420.243,480.633z
	 M415.654,477.15c1.652-0.224,3.306-0.554,4.965-0.596c0.416-0.009,0.855,0.913,1.284,1.409c-0.528,0.275-1.106,0.851-1.574,0.773
	c-1.576-0.26-3.116-0.753-4.67-1.154L415.654,477.15z M395.754,493.473c5.182,7.248,5.247,8.124-0.878,15.371
	c-1.589-3.755-0.797-6.255,2.527-7.381C394.361,497.225,394.361,497.225,395.754,493.473z M396.492,509.009
	c1.302-1.351,2.209-3.077,3.354-4.591c0.944-1.248,1.818-1.185,2.452,0.32c0.337,0.792,0.676,1.585,0.98,2.388
	c2.52,6.683,7.133,11.284,13.766,13.893c0.928,0.362,1.816,0.824,2.722,1.239c-0.033,0.252-0.064,0.504-0.096,0.758
	c-3.088,1.565-6.297,2.625-9.813,1.367c-5.717-2.039-10.194-5.69-13.51-10.767C395.32,512.045,394.926,510.631,396.492,509.009z
	 M421.434,524.071c0.798,3.257,0.798,3.257-6.678,2.322C417.358,525.488,419.38,524.788,421.434,524.071z M404.174,503.908
	c-1.351-7.109,3.871-15.547,11.368-19.538c10.124-5.389,21.69,1.395,25.854,9.154c0.65,1.213,1.275,2.452,1.788,3.731
	c1.007,2.505,0.704,2.95-2.023,3.282c-0.665,0.082-1.327,0.18-1.992,0.271c-0.034,0.248-0.065,0.497-0.103,0.748
	c1.618,0.24,3.231,0.482,5.182,0.777c-1.417,5.588-4.248,9.966-8.489,13.426C422.371,526.699,406.604,516.697,404.174,503.908z
	 M450.299,502.919c1.908,0.755,1.172,1.874,0.888,3.436c-4.843-4.963-5.517-4.785-0.2-9.77c0.234,1.204,0.437,2.235,0.59,3.021
	c-0.943,0.312-1.658,0.548-2.373,0.783C449.557,501.264,449.694,502.681,450.299,502.919z M449.826,493.795
	c0.173,0.188,0.282,0.422,0.257,0.681c-0.069,0.687-0.416,1.112-0.909,1.566c-0.328,0.303-0.663,0.646-0.893,1.026
	c-0.107,0.188-0.251,0.31-0.403,0.393c-0.483,0.515-1.167,1.008-2.107,1.474c-3.604-9.197-9.677-15.96-20.263-18.443
	c3.583-2.659,6.915-3.08,10.282-1.917C443.146,481.122,447.526,486.572,449.826,493.795z M425.91,478.147
	c-0.539,0.079-1.166-0.491-1.76-0.77c0.491-0.322,0.984-0.92,1.47-0.913c1.36,0.015,2.716,0.28,4.518,0.501
	C428.384,477.482,427.17,477.97,425.91,478.147z M487.699,143.847c-1.096,0.176-2.469,0.896-3.006,1.814
	c-1.275,2.174-0.103,5.344,2.364,6.942c3.367,2.179,6.981,2.569,10.565,0.682c3.881-2.042,4.981-5.483,4.049-10.012
	c0.893,0.344,1.518,0.5,2.061,0.805c24.34,13.536,44.463,31.707,60.213,54.702c1.551,2.269,1.856,4.501,1.076,7.093
	c-2.784,9.259-10.697,15.235-19.069,14.308c-5.945-0.659-10.808-9.077-8.229-14.374c3.116,1.72,6.221,3.435,9.293,5.132
	c-1.001,3.984-0.359,5.648,2.438,6.598c2.921,0.99,6.705-0.896,8.54-4.743c-1.466,0.873-2.383,1.605-3.428,1.99
	c-1.416,0.524-2.931,1.025-4.405,1.034c-0.638,0.002-1.283-1.25-1.925-1.932c0.807-0.587,1.542-1.478,2.435-1.674
	c0.938-0.208,2.02,0.267,3.044,0.403c2.517,0.338,4.325-0.705,5.609-2.85c3.391-5.648,2.599-12.334-2.02-16.952
	c-7.309-7.31-16.517-10.776-26.317-13.046c-3.53-0.813-7.1-1.462-10.601-2.381c-1.536-0.404-2.947-1.284-4.49-1.99
	c-1.261,1.436-1.008,2.738,1.198,3.453c1.87,0.604,3.871,0.813,5.821,1.162c9.731,1.735,19.327,3.874,27.645,9.618
	c2.181,1.503,4.147,3.312,6.099,5.174c-4.813-2.531-9.738-4.438-15.266-3.813c-5.678,0.64-9.941,3.202-11.759,9.169
	c-1.624-1.014-1.899-2.298-1.185-3.899c1.569-3.528,4.488-5.343,8.07-6.292c0.697-0.187,1.407-0.33,2.113-0.813
	c-5.112-1.479-10.132-3.384-15.531-2.571c-3.271,0.493-5.045,2.723-5.425,6.064c-4.123-3.99-4.062-4.183,3.169-9.688
	c-7.769-1.758-15.774-2.345-22.057-7.698c1.727-1.896,3.468-3.812,5.209-5.729c-0.146-0.2-0.295-0.399-0.44-0.6
	c-0.801,0.282-1.602,0.564-3.19,1.124c1.684-1.605,2.835-2.7,3.98-3.794c-0.08-0.134-0.161-0.27-0.24-0.401
	c-0.559,0.205-1.116,0.414-1.693,0.63c-0.777-5.478-5.314-8.193-11.433-6.958c-0.812,0.166-1.844-0.012-2.591-0.393
	c-1.921-0.975-3.765-2.109-5.579-3.278c-0.61-0.393-1.294-0.994-1.509-1.641c-1.433-4.344-4.737-5.87-8.923-6.19
	c-0.326-0.026-0.646-0.125-1.219-0.237c3.675-6.05,12.438-8.599,18.426-5.707c2.236,1.08,2.688,2.715,2.136,4.885
	c-0.357,1.407-0.402,2.727,1.458,2.879c1.672,0.138,2.896-0.98,2.561-2.49c-0.378-1.705-1.149-3.715-2.431-4.764
	c-6.539-5.339-17.394-3.991-22.908,2.592c-2.941,3.517-3.889,3.993-8.87,4.484c1.817-9.893,13.67-16.892,23.811-13.8
	c3.938,1.2,7.747,2.932,11.454,4.748c3.94,1.926,4.436,7.365,1.152,10.239c-2.653,2.32-7.344,2.46-10.114,0.288
	c-0.069-0.052-0.172-0.094-0.196-0.163c-0.48-1.384-1.15-2.753-1.271-4.172c-0.025-0.308,1.908-0.786,3.441-1.38
	C489.158,144.911,488.328,143.746,487.699,143.847z M588.912,302.472c-3.87-0.491-3.901-0.435-4.591-4.367
	c-1.028-5.863-2.007-11.733-3.019-17.598c-0.143-0.813-0.368-1.609-1.131-2.381c-0.569,5.084-1.136,10.166-1.711,15.248
	c-0.244,2.146-0.585,4.277-0.737,6.429c-0.143,1.956-1.18,2.569-3.009,2.746c-5.222,0.498-10.434,1.152-15.646,1.746
	c-0.045,0.257-0.093,0.515-0.139,0.773c5.095,1.058,10.188,2.111,15.704,3.255c-2.994,4.572-5.889,8.995-8.778,13.414
	c0.157,0.179,0.313,0.358,0.473,0.54c3.963-2.743,7.927-5.487,12.169-8.421c1.03,3.65,1.998,7.079,2.966,10.509l0.729,0.017
	c0.899-3.578,1.8-7.159,2.699-10.757c4.675,1.897,5.104,2.537,4.411,7.03c-3.176,20.616-10.087,39.93-20.297,58.09
	c-0.251,0.451-0.543,0.882-0.842,1.303c-0.09,0.129-0.256,0.2-0.816,0.614c-1.485-4.237-3.066-8.291-4.329-12.442
	c-1.818-5.975-2.954-12.052-1.925-18.365c1.001-6.15,4.976-11.092,9.875-12.066c3.139-0.625,5.74,0.789,6.307,3.436
	c0.625,2.901-1.67,6.309-4.59,6.821c-2.605,0.455-4.614-0.85-5.203-3.445c-0.22-0.98-0.318-1.986-0.492-3.111
	c-2.424,0.348-2.869,2.018-3.045,3.729c-0.335,3.324,1.023,5.941,3.863,7.631c3.317,1.973,6.773,1.948,10.071-0.063
	c4.45-2.716,6.366-9.192,4.503-14.776c-1.607-4.816-6.127-7.678-11.587-7.172c-7.708,0.723-12.771,5.139-16.067,11.863
	c-0.68,1.382-1.156,2.868-1.875,4.69c-0.778-0.622-1.414-1.105-2.03-1.619c-8.907-7.435-14.859-16.716-17.315-28.113
	c-0.203-0.933-0.069-2.513,0.529-2.947c5.438-3.986,6.486-9.807,6.67-15.862c0.249-8.289-1.802-16.051-6.029-23.246
	c-0.627-1.059-0.984-2.649-0.712-3.813c4.011-17.021,2.764-33.782-2.461-50.303c-0.893-2.816-0.583-5.314-0.064-7.976l-0.023,0.031
	v0.002c0-0.004,0-0.004,0-0.004l0,0c-0.416,0.506-0.838,1.02-1.536,1.873c-0.878-1.725-1.652-3.248-2.441-4.791
	c1.162-0.46,1.956-0.7,2.512-0.615c0.927,0.136,1.203,1.165,1.466,3.533l0,0c0-0.002,0.002-0.004,0.002-0.006h0.001
	c0.006-0.023,0.014-0.049,0.021-0.075c0.257-0.954,0.474-1.932,0.715-2.892c0.011-0.04,0.019-0.079,0.029-0.121
	c0.031-0.128,0.066-0.253,0.099-0.381c0.035-0.127,0.066-0.257,0.102-0.387c0.021-0.081,0.047-0.161,0.071-0.24
	c0.05-0.176,0.099-0.347,0.15-0.519c0.023-0.073,0.048-0.14,0.067-0.207c0.061-0.182,0.119-0.365,0.182-0.543
	c0.088-0.247,0.184-0.493,0.282-0.732c1.154-2.726,2.354-5.519,4.076-7.887c1.501-2.072,4.07-2.523,6.608-1.86
	c2.92,0.767,3.783,3.758,1.852,6.189c-4.797-2.446-7.996-2.025-9.981,1.482c-1.43,2.525-1.37,5.355,0.077,7.687
	c1.936,3.119,4.38,5.929,6.684,8.815c3.809,4.771,8.198,9.173,11.405,14.315c5.414,8.678,6.521,18.407,4.879,28.453
	c-0.066,0.414-0.249,0.806-0.616,1.946c-0.22-3.395-0.37-6.056-0.572-8.709c-0.195-2.646-0.439-5.286-1-7.947
	c-0.731,2.372-3.048,4.375-1.151,7.264c0.558,0.847,0.522,2.181,0.51,3.287c-0.053,5.053-0.196,10.105-0.324,15.858
	c-1.181-0.935-1.668-1.315-2.374-1.875c-0.852,1.139-1.696,2.268-2.674,3.574c1.057,0.397,1.824,0.691,3.114,1.175
	c1.479-2.155,2.925-4.457,4.574-6.598c1.555-2.023,3.327-3.874,5.403-6.263c-1.415,0.495-2.264,0.792-3.326,1.162
	c1.836-9.353,0.793-18.307-2.139-27.283c3.68-0.349,7.072-0.671,10.607-1.007c-0.717,2.619-1.589,5.044-2.021,7.544
	c-1.386,8.055,4.564,14.895,12.021,13.977c3.556-0.437,6.071-2.788,6.265-5.843c0.193-3.129-1.68-5.722-4.787-6.49
	c-0.748-0.187-1.562-0.095-2.702-0.146c0.44,0.648,0.579,0.842,0.704,1.043c0.768,1.231,1.848,2.399,2.135,3.733
	c0.112,0.517-1.62,2.07-2.432,2.016c-1.66-0.123-3.757-0.564-4.789-1.689c-2.02-2.19-1.673-5.159-0.896-7.881
	c1.109-3.884,5.407-8.284,9.57-9.895c0.294,0.665,0.653,1.319,0.888,2.021c6.823,20.361,9.524,41.294,8.722,62.727
	C591.374,302.237,590.664,302.695,588.912,302.472z M590.725,310.248c-0.243,0.062-0.487,0.128-0.729,0.193
	c-0.543-0.694-1.084-1.387-1.973-2.52c1.113-0.092,2.28-0.339,2.346-0.165C590.664,308.521,590.637,309.408,590.725,310.248z
	 M391.222,405.286c-2.137-3-5.109-5.505-8.036-7.816c-2.133-1.683-4.869-2.575-7.217-4.012c-5.621-3.437-8.937-8.268-8.664-15.108
	c0.167-4.302,2.603-7.439,6.076-8.644c-1.07,2.155-2.973,4.71-3.596,7.542c-0.913,4.123,0.822,7.902,3.984,10.659
	c2.516,2.193,5.43,3.933,8.143,5.904c2.637,1.919,5.536,3.593,7.809,5.883c4.65,4.676,5.777,13.836-2.648,18.31
	c-5.846,3.104-7.189,4.979-8.408,9.524c-0.157-3.767,1.795-6.213,4.434-8.185c1.932-1.442,4.074-2.596,6.029-4.007
	C392.976,412.553,393.973,409.145,391.222,405.286z M332.306,434.793c5.326-5.346,12.395-8.423,12.511-17.188
	c4.616,4.778,8.685,9.139,8.902,15.646c0.142,4.094-2.557,6.735-6.905,7.235c-1.488,0.17-2.973,0.35-4.461,0.526c0,0,0,0-0.002,0
	c0.037,0.013,0.069,0.025,0.106,0.04c0,0.002,0,0.002,0,0.002l0,0c0.545,0.084,1.087,0.163,1.629,0.243
	c0.758,0.116,1.509,0.236,2.247,0.411c9.662,2.263,14.508-6.44,13.92-13.09c-0.482-5.423-2.999-9.94-6.303-13.95
	c-3.723-4.52-7.854-8.717-11.92-12.942c-7.542-7.843-14.222-16.23-17.869-26.681c-2.195-6.284-2.769-12.649-0.773-19.059
	c0.669-2.162,1.9-4.149,3.235-6.119c-3.523,8.678-2.594,17.203,1.134,25.313c2.278,4.963,5.302,9.726,8.722,13.987
	c4.419,5.505,9.602,10.386,14.385,15.602c2.854,3.11,5.783,6.189,8.305,9.566c3.738,5.013,5.326,10.757,4.771,17.066
	c-0.775,8.792-7.578,13.808-16.122,11.684c-0.229-0.059-0.459-0.121-0.686-0.19c-1.02-0.31-2.011-0.728-3.002-1.149
	c-0.56-0.238-1.111-0.475-1.672-0.692c-0.066-0.012-0.132-0.022-0.199-0.031l0.055-0.029
	C339.147,439.036,335.984,437.073,332.306,434.793z M324.614,427.059c10.219-4.831,11.372-5.802,14.951-12.473
	c2.647,0.849,3.931,3.153,2.822,6.019c-0.786,2.032-2.19,3.851-3.468,5.653c-0.634,0.893-1.574,1.586-2.439,2.287
	C330.786,433.186,329.601,433.041,324.614,427.059z M327.305,200.578c0.542-0.159,1.108-0.249,2.008-0.449
	c-14.188,8.933-20.692,22.264-23.612,37.708c-1.307,6.921,0.299,13.736,1.85,20.48c2.179,9.47,5.582,18.487,10.038,27.115
	c0.387,0.75,0.83,1.476,1.752,2c-0.325-0.759-0.642-1.52-0.976-2.274c-5.931-13.354-9.397-27.224-8.569-41.942
	c0.82-14.623,8.854-24.3,21.551-30.634c-1.4,1.08-2.78,2.188-4.206,3.235c-12.673,9.319-17.161,22.104-15.369,37.282
	c1.666,14.096,5.906,27.464,12.683,39.974c1.145,2.119,2.547,4.1,3.885,6.112c3.767,5.667,6.347,11.801,7.318,18.604
	c-0.142-0.268-0.315-0.525-0.407-0.81c-2.4-7.262-6.596-13.429-11.527-19.182c-10.058-11.74-16.623-25.167-18.856-40.52
	c-2.393-16.454,0.069-32.006,9.533-46.03C317.631,206.459,321.502,202.317,327.305,200.578z M315.529,202.827
	c2.448-5.682,9.592-11.301,13.604-10.681c-2.455,1.623-4.984,3.075-7.253,4.859C319.596,198.805,317.572,200.934,315.529,202.827z
	 M343.592,266.123c1.147,0.794,2.248,1.549,3.35,2.312c-0.111,0.264-0.222,0.529-0.337,0.793c-2.223,0.549-4.43,1.227-6.689,1.545
	c-0.39,0.056-0.847-0.329-1.349-0.774C339.402,268.603,341.203,266.162,343.592,266.123z M337.219,270.947
	c-0.057,0.216-0.113,0.447-0.183,0.718c-2.557-5.206-4.81-9.786-7.173-14.596c6.109-0.293,13.116,3.528,14.938,7.876
	C344.801,264.945,337.485,264.588,337.219,270.947z M334.145,280.8c1.526,2.67,2.177,5.846,3.22,8.795
	c-0.259,0.108-0.517,0.215-0.777,0.324c-0.174-0.258-0.36-0.504-0.517-0.771c-5.214-8.822-10.396-17.663-15.645-26.47
	c-5.076-8.521-5.979-17.614-4.014-27.229c0.184,4.068,0.175,8.119,0.589,12.125c0.661,6.413,3.511,12.006,7.012,17.321
	C327.471,270.146,331.021,275.351,334.145,280.8z M324.529,338.303c-4.831,1.685-9.665,3.37-14.496,5.053
	C313.508,340.262,318.801,338.369,324.529,338.303z M310.308,350.597c4.386-2.344,9.25-3.788,13.771-5.909
	c3.575-1.682,7.094-3.573,10.376-5.768c6.329-4.217,11.104-9.604,11.288-17.912c0.29,0.065,0.581,0.134,0.872,0.197
	c0,1.722,0.317,3.512-0.055,5.146c-1.344,5.958-4.613,10.967-9.56,14.317c-4.877,3.304-10.34,5.766-15.635,8.412
	c-2.69,1.343-5.626,2.177-8.37,3.429c-7.9,3.602-10.351,5.979-14.847,14.255c-1.522-3.537-0.966-6.548,1.468-8.63
	C302.922,355.305,306.484,352.642,310.308,350.597z M341.686,380.114c1.984,3.721,4.439,7.186,6.656,10.778
	c1.066,1.725,2.073,3.481,3.106,5.227c-0.183,0.134-0.366,0.268-0.554,0.403c-4.979-5.775-9.972-11.541-14.931-17.33
	c-0.497-0.581-0.854-1.298-1.2-1.99c-1.57-3.131-1.026-5.498,2.212-6.771c4.602-1.814,9.409-3.115,14.13-4.633l0.215,0.579
	c-2.262,1.215-4.591,2.324-6.773,3.667C340.271,372.681,339.317,375.672,341.686,380.114z M357.661,389.979
	c-1.388-10.377,1.311-19.931,6.624-29.472c-1.283,5.479-2.729,10.32-3.512,15.271c-1.672,10.585,0.658,20.196,7.921,28.364
	c0.274,0.305,0.495,0.66,0.74,0.99C362.569,402.301,358.616,397.142,357.661,389.979z M389.281,387.564
	c-6.15-4.54-5.35-12.455-0.504-14.012C386.186,378.34,387.227,382.867,389.281,387.564z M403.049,421.42
	c2.565-1.363,5.074-2.834,7.611-4.256c0.153,0.117,0.309,0.238,0.463,0.354c-3.109,2.209-6.186,4.465-9.341,6.607
	c-2.982,2.03-6.259,3.68-9.028,5.958c-5.582,4.591-6.088,7.571-3.002,13.681c-4.51-1.336-6.564-5.603-4.039-9.654
	c1.723-2.762,4.197-5.287,6.863-7.168C395.774,424.688,399.555,423.271,403.049,421.42z M394.162,377.965
	c0.178,1.273,0.337,2.555,0.533,3.828c0.953,6.134,3.867,11.139,8.502,15.261c2.377,2.109,4.627,4.394,6.726,6.781
	c2.188,2.49,3.261,5.461,2.563,9.51c-0.082-4.407-2.105-7.179-4.821-9.524c-1.961-1.687-3.959-3.339-6.03-4.883
	C394.471,393.583,392.563,386.325,394.162,377.965z M390.529,455.992c1.955,0.055,3.345-0.519,4.225-2.264
	c0.078-0.154,0.185-0.293,0.289-0.431c4.739-6.229,3.268-6.631,12.267-3.742c0.548,0.176,1.083,0.389,1.626,0.583
	c0.104-0.24,0.21-0.484,0.318-0.725c-2.565-1.112-5.13-2.221-8.109-3.513c1.719-1.695,3.37-3.374,5.07-4.994
	c2.438-2.326,4.855-4.67,7.371-6.902c8.238-7.311,10.391-16.697,8.867-27.071c-0.859-5.866-2.481-11.626-3.907-17.399
	c-1.509-6.112-3.313-12.149-4.756-18.273c-1.38-5.861-4.04-10.98-8.044-15.438c-0.799-0.891-1.57-1.809-2.555-2.943
	c5.625-3.259,11.088-6.427,16.551-9.587c-0.119-0.232-0.232-0.465-0.35-0.7c-0.884,0.405-1.767,0.817-2.654,1.212
	c-10.079,4.492-20.075,9.184-30.274,13.377c-4.629,1.904-9.686,2.408-14.768,1.396c-5.896-1.175-9.53-4.674-11.587-10.267
	c-1.654-4.511-3.705-8.876-5.668-13.27c-4.296-9.606-8.824-19.116-12.906-28.815c-2.494-5.923-3.425-12.286-3.439-18.739
	c0-0.945,0.04-1.906,0.19-2.837c0.557-3.422,1.131-3.827,4.628-3.445c1.529,0.164,3.063,0.313,4.851,0.494
	c0.238,5.092-2.126,9.279-4.438,13.903c6.487-5.705,8.59-19.777,4.625-28.813c-3.399-7.741-13.279-15.99-18.811-15.396
	c0.922-15.219,3.094-29.928,12.8-42.849c13.86,14.259,31.313,21.383,48.895,28.957c-4.875,0.984-9.539,1.631-14.009,2.936
	c-2.801,0.817-5.471,2.394-7.901,4.065c-2.325,1.597-4.488,3.573-6.306,5.732c-1.602,1.898-2.632,4.279-3.915,6.444l0.65,0.517
	c0.572-0.276,1.157-0.531,1.712-0.838c7.628-4.217,15.219-8.494,22.889-12.642c6.305-3.411,12.883-4.166,19.736-1.666
	c2.674,0.977,5.387,1.869,8.14,2.588c1.798,0.465,2.235,1.325,2.06,3.125c-1.144,11.799,1.912,22.281,10.285,30.881
	c6.482,6.66,14.248,11.163,23.497,12.758c1.952,0.337,2.509,1.066,1.91,2.928c-0.495,1.532-0.79,3.127-1.813,4.985
	c-0.363-0.757-0.725-1.512-1.085-2.269c-0.305,0.17-0.609,0.339-0.909,0.508c0.209,1.182,0.521,2.358,0.599,3.548
	c0.129,1.919,0.644,4.041,0.035,5.738c-1.938,5.421-4.109,10.785-6.577,15.988c-2.652,5.586-5.293,11.15-4.901,17.486
	c0.2,3.232,0.963,6.454,1.741,9.614c0.759,3.08,1.856,6.079,3.079,9.18v-6.351c3.112,2.293,7.384,9.752,7.721,13.324
	c0.418,4.465-0.875,7.032-4.955,8.997c-2.298,1.106-4.8,1.8-7.122,2.647c5.257,3.437,14.182-3.341,16.163-12.46
	c7.402,9.605,6.315,18.781-1.745,25.592c-2.674,2.262-5.908,3.853-8.866,5.788c-1.977,1.293-3.913,2.646-5.867,3.973
	c0.14,0.229,0.277,0.458,0.414,0.684c2.793-1.356,5.59-2.709,8.387-4.06c0.081,0.146,0.163,0.297,0.248,0.447
	c-2.174,1.269-4.381,2.481-6.512,3.819c-3.455,2.163-6.028,4.85-5.583,9.419c0.077,0.801-0.644,1.728-1.121,2.521
	c-3.64,5.979-6.134,12.317-6.635,19.397c-0.54,7.611,3.612,13.978,11.405,16.452c-0.617-0.583-0.84-0.851-1.12-1.045
	c-6.106-4.182-7.944-9.233-5.78-16.381c2.13-7.018,6.255-12.849,11.234-18.102c2.373-2.501,4.885-4.89,7.459-7.183
	c6.936-6.161,13.83-12.334,17.178-21.871c2.876,10.177,9.975,15.314,19.654,17.443c-8.538-4.995-13.857-12.755-18.225-21.311
	c-0.387-0.755-0.771-1.633-0.747-2.441c0.194-7.175-2.771-13.272-6.505-19.063c-1.773-2.753-2.496-5.513-2.175-8.79
	c1.563-15.966,2.973-31.943,4.48-47.914c0.087-0.916,0.399-1.884,0.867-2.674c3.142-5.295,3.861-11.139,4.279-17.138
	c0.297-4.254,1.179-8.465,2.013-12.658c0.692,8.015-1.354,15.71-2.414,23.53c-1.572,11.611-3.048,23.261-3.895,34.944
	c-0.619,8.576-0.554,17.253-0.108,25.85c0.946,18.243,10.134,32.256,23.639,43.824c1.963,1.679,4.091,3.161,6.698,5.164
	c-0.764-0.13-1.492-0.251-2.188-0.37c-2.094-0.355-3.926-0.665-5.755-0.975c1.136,0.542,2.272,1.083,3.657,1.743
	c0.198,0.093,0.4,0.192,0.609,0.291c-2.694,0.535-5.061,0.869-7.355,1.492c-11.385,3.084-22.527,6.771-31.703,14.617
	c-5.711,4.883-9.193,10.936-8.867,18.723c0.363,8.633,9.461,15.68,17.512,13.517c1.252-0.337,2.388-1.083,3.577-1.641
	c-0.075-0.192-0.153-0.387-0.232-0.58c-0.886,0.161-1.772,0.302-2.652,0.487c-4.626,0.966-8.397-0.451-11.146-4.239
	c-2.943-4.058-4.921-8.335-2.442-13.465c2.938-6.083,7.662-10.41,13.422-13.617c10.824-6.035,22.475-9.779,34.745-11.306
	c11.935-1.49,30.28,6.614,37.505,16.377c-15.297,12.649-32.27,22.289-51.091,28.588c-36.121,12.089-72.188,11.202-100.867,2.822
	C381.593,455.951,386.064,455.867,390.529,455.992z M463.92,213.683c-2.131-0.906-4.142-2.097-6.94-3.541
	c3.247-0.202,5.738-0.472,8.228-0.472c2.053,0,2.701-0.912,2.685-2.839c-0.015-1.608,0.27-3.227,0.498-5.646
	c1.783,2.938,3.184,5.249,4.622,7.617c0.9-0.224,1.701-0.425,3.127-0.786c-0.755,4.743-1.442,9.081-2.133,13.444
	c-0.639-0.124-0.86-0.099-0.959-0.194c-2.672-2.681-2.666-2.676-6.211-0.755c-1.516,0.819-3.055,1.6-4.589,2.392
	c-0.148,0.073-0.327,0.09-1.171,0.313c1.449-2.269,2.494-4.149,3.778-5.847C466.184,215.612,466.031,214.576,463.92,213.683z
	 M441.83,211.363c-4.974,0.208-9.963,0.037-14.989-0.439c3.491-0.452,6.989-0.865,10.472-1.373c2.555-0.37,5.107-0.786,7.628-1.324
	c6.572-1.402,11.319-5.585,15.612-10.425c0.625-0.702,1.219-1.43,1.828-2.143C458.968,206.151,452.704,210.911,441.83,211.363z
	 M468.571,239.582c6.938-11.738,10.517-24.544,10.908-38.143c0.117-3.916-0.722-7.869-1.271-11.786
	c-0.163-1.16-0.726-2.308-1.294-3.357c-2.436-4.52-6.292-5.857-11.517-3.94c0.067-0.907,0.249-1.743,0.172-2.555
	c-0.376-3.928,0.583-3.558,3.94-2.724c8.822,2.187,14.581,9.235,15.002,19.721c0.746,18.497-4.842,35.184-15.988,49.948
	c-1.533,2.027-3.629,3.629-5.747,5.711c-0.771-1.318-1.237-2.115-1.589-2.717C463.748,246.255,466.486,243.111,468.571,239.582z
	 M495.818,165.059c-2.111-1.045-4.866-0.439-6.313,1.952c-1.308,2.164-2.641,1.953-4.391,0.927
	c1.432-4.371,6.059-7.277,10.274-6.471c2.398,0.458,4.217,1.798,4.673,4.246c0.461,2.469-1.827,2.973-3.912,4.514
	C497.277,167.952,498.177,166.223,495.818,165.059z M495.133,244.848c0.541,0.857,1.078,1.715,1.616,2.576
	c-4.578-4-7.083-9.171-7.035-15.094c0.042-5.39,1.002-10.784,1.731-16.153c1.186-8.691,0.966-17.229-2.39-25.468
	c-0.737-1.8-1.739-3.491-2.619-5.234c0.18-0.187,0.359-0.373,0.539-0.559c2.111,1.904,4.597,3.524,6.261,5.758
	c6.41,8.605,7.875,18.015,3.643,28.063c-1.004,2.385-2.241,4.672-3.24,7.059C490.885,232.385,491.297,238.759,495.133,244.848z
	 M490.607,168.974c0.946-1.841,1.804-3.464,4.07-2.759c0.248,0.077,0.436,1.349,0.189,1.835
	C493.964,169.822,492.639,170.551,490.607,168.974z M477.606,164.699c-1.942-0.603-3.915-1.108-5.494-1.554
	c2.996-1.668,6.148-3.422,9.9-5.508c1.424,0.731,3.678,1.884,5.857,3C485.627,165.063,482.101,166.096,477.606,164.699z
	 M463.134,264.139c-0.889,0.573-1.521,1.169-1.699,1.056c-0.696-0.447-1.275-1.093-1.804-1.747c-0.045-0.055,0.825-1.075,0.969-1.01
	C461.357,262.797,462.025,263.357,463.134,264.139z M464.406,269.089c0.181,2.308,0.416,4.616,0.316,7.001
	c-0.979-2.713-1.957-5.423-2.971-8.234C463.264,267.283,464.261,267.254,464.406,269.089z M460.035,273.762
	c0.672,2.559,1.222,4.643,1.796,6.827C458.646,279.717,458.106,277.94,460.035,273.762z M459.607,283.428
	c1.116,0.381,1.116,0.381-0.104,4.917c1.589-1.261,2.74-2.177,3.886-3.086c2.36,5.965-2.81,17.706-7.622,18.442
	C457.027,297.035,458.324,290.196,459.607,283.428z M455.721,353.091c-7.308-7.787-9.818-19.069-6.689-28.819
	c1.635-5.086,3.009-10.256,4.51-15.386c0.207-0.722,0.445-1.435,0.671-2.153c0.282,0.002,0.563,0.006,0.843,0.006
	C458.409,322.07,455.134,337.535,455.721,353.091z M432.262,267.247c5.764,5.69,5.764,5.69,7.158,12.129
	c2.09-1.69,2.418-3.856,1.258-8.28c9.075,2.137,12.888,10.058,8.082,16.789C440.623,285.781,431.639,274.547,432.262,267.247z
	 M432.78,276.427c-3.77-4.479-5.478-10.432-4.814-16.187C429.479,265.332,431.246,271.271,432.78,276.427z M449.031,302.851
	c1.47-3.106,2.774-5.862,4.235-8.952C453.221,299.121,451.703,302.644,449.031,302.851z M445.646,255.48
	c6.218,3.644,11.225,8.261,12.313,15.879C455.473,264.81,450.526,260.196,445.646,255.48z M423.406,246.075
	c-18.291-5.172-36.213-11.278-53.108-20.11c-0.763-0.397-1.499-0.847-2.243-1.281c-0.057-0.038-0.11-0.15-0.098-0.218
	c0.008-0.055,0.114-0.094,0.294-0.222c20.255,8.172,41.665,12.468,62.903,17.389c6.925,1.602,13.588,3.988,19.592,7.862
	c2.115,1.361,3.908,3.224,5.673,5.086C445.82,249.919,434.311,249.156,423.406,246.075z M503.584,395.969
	c-14.578-1.702-32.648-23.792-33.475-40.604C476.105,372.963,487.628,386.043,503.584,395.969z M483.42,275.781
	c0.103-0.815,0.359-1.608,0.545-2.413c0.304,0.025,0.607,0.053,0.912,0.077c0.433,4.959,1.144,9.915,1.242,14.887
	c0.233,11.733,0.154,23.472,0.244,35.206c0.134,18.619,4.014,36.31,13.456,52.524c2.339,4.013,5.179,7.737,7.802,11.584
	c0.561,0.825,1.182,1.605,1.453,2.722c-0.31-0.215-0.66-0.393-0.931-0.646c-14.497-13.466-22.949-30.044-25.265-49.667
	C480.352,318.621,480.686,297.186,483.42,275.781z M522.07,392.26c-14.363-12.846-22.777-28.982-26.291-47.859
	c-3.182-17.077-3.27-34.315-3.137-51.576c0.015-1.987-0.144-3.997,0.113-5.953c1.169-8.883-3.823-14.063-10.977-17.416
	c-4.627-2.166-9.809-3.125-14.641-4.896c-1.402-0.512-2.46-1.969-4.072-3.327c13.888-5.59,27.534-2.465,30.283,14.238
	c1.129,6.865,1.204,13.907,1.675,20.875c1.058,15.657,1.835,31.343,5.029,46.772c3.98,19.19,13.36,35.333,27.241,49.032
	c5.891,5.813,11.579,11.828,17.334,17.781c1.068,1.104,1.719,2.308-0.557,3.213C538.242,404.642,529.63,399.022,522.07,392.26z
	 M525.351,376.271c-13.905-16.398-21.298-35.2-22.475-56.676c-0.573-10.445,0.891-20.655,2.009-30.933
	c2.576-23.668,5.715-47.284,6.286-71.181c0.213,2.354,0.485,4.701,0.623,7.062c0.138,2.41,0.333,4.84,0.169,7.241
	c-1.214,17.726-2.705,35.438-3.735,53.18c-1.035,17.865-1.127,35.729,3.187,53.293c3.305,13.454,9.833,25.387,17.756,36.587
	c6.531,9.228,13.304,18.284,19.951,27.432c0.577,0.797,1.016,1.697,1.514,2.551c-0.23,0.119-0.46,0.24-0.693,0.357
	C543.803,393.777,533.535,385.918,525.351,376.271z M517.543,329.615c-3.025-15.646-3.117-31.355-2.235-47.179
	c0.808-14.554,1.719-29.135,1.57-43.694c-0.088-8.628-1.629-17.345-3.433-25.828c-2.72-12.783-9.166-23.205-21.444-29.453
	c1.558,0.374,3.169,0.606,4.664,1.147c10.157,3.682,16.232,11.379,20.147,21.008c3.555,8.748,4.922,18.058,5.021,27.364
	c0.164,16.21-0.106,32.44-0.767,48.642c-1.228,30.159,4.78,58.537,20.021,84.712c5.207,8.943,10.949,17.579,16.566,26.277
	c1.134,1.76,1.129,2.929-0.516,4.02C536.064,378.789,522.769,356.609,517.543,329.615z M509.201,182.086
	c1.813,0.405,3.956,0.882,6.645,1.476c-1.18,1.239-2.012,2.109-2.963,3.106C511.541,184.998,510.368,183.538,509.201,182.086z
	 M527.966,203.897c0.692,1.021,1.175,2.187,1.844,3.454c-2.431,0.777-4.001,0.618-5.029-1.62c-0.925-2.021-2.118-3.92-3.106-5.707
	c1.329-0.446,3.123-0.521,3.562-1.33c0.517-0.962-0.138-2.555-0.277-3.874c-0.145-1.318-0.28-2.638-0.46-4.358
	c-1.99,0.933-2.484,1.875-1.47,3.533c0.608,0.989,1.021,2.097,1.647,3.414c-3.125-0.111-4.873-1.834-5.043-4.323
	c-0.169-2.483,1.221-4.566,3.751-4.693c2.764-0.141,5.559,0.334,8.817,0.573c-1.689,1.787-2.963,2.927-3.99,4.26
	C525.382,196.895,525.386,200.095,527.966,203.897z M525.838,264.087c0.19-0.979,0.186-2.055,0.606-2.921
	c2.493-5.115,5.084-10.187,7.481-14.947C533.578,252.783,531.444,259.065,525.838,264.087z M533.081,276.479
	c2.638,4.405,4.39,8.899,5.093,13.778c0.803,5.571,1.237,11.149-0.682,16.609c-1.012,2.87-2.223,4.215-4.681,5.475
	C530.234,306.802,530.305,281.818,533.081,276.479z M544.842,196.255c-4.069-1.618-8.947,0.427-11.594,4.908
	c-0.602,1.014-1.072,2.104-1.631,3.218c-1.181-1.878-0.959-3.504,0.135-5.32c2.803-4.629,7.754-7.054,13.17-6.396
	c4.413,0.533,8.354,1.978,11.627,5.087c2.832,2.688,3.491,5.83,2.122,9.434c-1.401,3.688-4.263,4.66-7.672,2.628
	c-1.683-1.001-3.349-2.029-5.249-3.182c0.374-0.445,0.838-1.005,1.309-1.555C549.748,201.956,548.699,197.787,544.842,196.255z
	 M544.27,205.653c-0.209,0.416-0.414,0.832-0.623,1.246c-1.246-0.654-2.487-1.307-3.731-1.961c0.161-0.347,0.326-0.696,0.489-1.047
	C541.693,204.482,542.979,205.066,544.27,205.653z M556.36,235.863c-3.393-4.393-6.956-9.006-10.529-13.632
	c11.72,0.251,18.276-6.324,22.157-17.378c3.928,7.808,7.857,15.615,11.847,23.553C571.64,231.011,564.033,233.426,556.36,235.863z
	 M458.62,150.768c-5.399-1.687-10.617-3.319-16.264-5.081c0.414,0.47,0.513,0.671,0.671,0.744
	c13.76,6.516,19.743,18.219,21.3,32.601c0.813,7.494-2.987,13.116-8.874,17.354c-6.435,4.632-13.879,6.43-21.623,7.145
	c-3.404,0.313-6.828,0.387-10.268,0.209c4.918-1.007,9.869-1.894,14.756-3.054c5.754-1.367,11.116-3.684,15.983-7.127
	c7.776-5.5,9.666-12.292,5.245-20.691c-8.324-15.835-21.305-25.019-39.264-26.791c-10.722-1.058-21.188,0.308-31.411,3.598
	c-1.631,0.526-3.24,1.223-4.729,2.071c-3.317,1.886-3.924,4.167-1.611,7.248c1.794,2.394,3.895,4.631,6.165,6.591
	c6.319,5.454,13.954,8.476,21.685,11.304c5.997,2.19,12.01,4.36,17.867,6.886c2.979,1.283,5.788,3.125,8.379,5.103
	c2.32,1.767,3.98,1.442,5.786-0.713c-1.761-3.175-3.533-6.376-5.313-9.58c0.173-0.17,0.344-0.339,0.518-0.512
	c2.467,1.71,4.938,3.422,7.758,5.376c1.061-3.198,2.038-6.123,3.009-9.05c0.165,0.02,0.33,0.042,0.497,0.063
	c0.374,2.789,0.847,5.571,1.096,8.373c0.22,2.418,0.817,4.21,3.799,3.823c0.464-0.059,0.974,0.17,2.201,0.414
	c-3.375,3.173-6.346,5.962-9.317,8.746c-1.101-0.95-1.811-1.559-2.516-2.167l-0.427,0.341c0.236,0.675,0.476,1.35,0.713,2.019
	c-3.633,2.177-5.257,1.86-7.596-1.369c-3.304-4.557-7.869-7.532-12.937-9.618c-6.46-2.657-13.151-4.743-19.601-7.421
	c-10.082-4.179-18.725-10.377-24.984-19.478c-2.569-3.735-5.808-5.188-10.189-4.02c-2.162,0.572-4.465,0.874-6.438,1.842
	c-1.976,0.962-3.625,2.599-5.857,4.271c-1.356-0.859-2.734-1.465-4.127-1.846c-0.403-0.11-0.801-0.201-1.202-0.271
	c-0.997-0.18-2.003-0.247-3.015-0.216c-0.01,0.002-0.024,0.002-0.035,0.004c-2.175,0.076-4.367,0.624-6.556,1.546
	c-0.359,0.154-0.719,0.317-1.083,0.491c-0.088,0.043-0.182,0.085-0.268,0.129c-1.017,0.504-2.036,1.079-3.042,1.729
	c-0.315,0.586-0.51,1.288-0.955,1.746c-7.23,7.425-7.523,21.308-1.277,30.313c5.954,8.586,14.271,13.796,24.078,16.478
	c8.135,2.223,16.496,3.61,24.766,5.337c0.639,0.134,1.33,0.017,2.442,0.017c-0.471-2.435-0.78-4.615-1.376-6.721
	c-0.127-0.447-1.296-0.886-1.955-0.843c-2.115,0.137-4.212,0.502-6.549,0.274c1.802-1.534,3.604-3.064,5.956-5.069
	c-2.459-2.074-4.781-4.035-7.106-5.994c0.187-0.25,0.369-0.499,0.555-0.748c2.922,0.881,5.847,1.765,9.002,2.712
	c0.813-2.177,1.549-4.162,2.557-6.865c0.88,2.196,1.633,3.765,2.143,5.405c0.514,1.66,1.39,1.902,2.907,1.319
	c2.639-1.018,5.329-1.904,8.358-2.37c-1.924,1.998-3.791,4.056-5.801,5.964c-1.262,1.196-1.367,2.117-0.146,3.437
	c1.683,1.823,3.169,3.83,4.486,6.236c-2.215-0.761-4.468-1.42-6.621-2.316c-1.825-0.757-2.902-0.451-3.527,1.505
	c-0.442,1.369-1.117,2.663-1.901,4.49c4.402,0.612,8.453,1.169,12.497,1.737c14.95,2.093,30.027,3.608,44.317,8.881
	c4.184,1.545,8.284,3.497,12.121,5.77c5.441,3.219,5.738,4.998,2.776,10.481c-0.432,0.809-0.931,1.583-1.526,2.592
	c-4.673-5.74-10.112-10.053-16.19-13.601c-9.658-5.631-20.345-7.87-31.19-9.764c-15.028-2.618-30.099-5.091-44.979-8.413
	c-11.143-2.491-21.396-7.346-29.334-16.04c-1.919-2.101-3.605-4.426-5.632-6.407c-3.545-3.466-5.029-3.393-8.773-0.079
	c-1.465,1.303-2.943,2.597-4.38,3.859c0.086-0.711,0.196-1.614,0.308-2.516c-3.604,6.278-7.281,12.514-10.791,18.844
	c-3.695,6.66-5.764,13.892-6.295,21.448c-0.257,3.627,0.436,7.318,0.703,11.029c-2.889-2.655-3.242-6.52-4.58-10.161
	c0,1.4-0.135,2.817,0.024,4.197c0.702,6.073,1.388,12.154,2.269,18.204c1.643,11.238,6.809,20.917,13.58,29.837
	c3.572,4.704,3.611,4.672,0.633,9.677c-4.898,8.236-8.24,16.971-7.651,26.715c0.229,3.744,1.186,7.475,2.069,11.146
	c0.421,1.769,0.289,3.054-0.893,4.5c-2.65,3.249-5.104,6.66-7.848,10.279c-3.273-2.135-6.488-4.904-8.015-9.15
	c-1.083-3.01,0.084-7.028,2.818-8.795c2.577-1.663,3.75-3.909,4.261-6.741c0.211-1.186,0.533-2.355,0.854-3.521
	c0.489-1.806,0.559-4.051,3.986-3.026c-0.069-0.285-0.138-0.575-0.206-0.862c-1.029-0.717-2.056-1.434-3.229-2.251
	c-5.092,2.76-8.989,7.269-12.221,12.463c-0.224-0.087-0.443-0.177-0.667-0.263c0.274-0.931,0.392-1.948,0.863-2.77
	c0.55-0.956,1.419-1.729,2.126-2.599c0.69-0.849,1.359-1.717,2.496-3.157c-2.436,0.416-4.195,0.717-6.048,1.035
	c-0.433-2.104-0.811-3.953-1.187-5.799c-0.241,0.011-0.481,0.024-0.72,0.039c-0.481,1.14-0.962,2.281-1.6,3.788
	c-1.269-1.139-2.362-2.119-4.021-3.605c0.323,2.357,0.548,4.001,0.794,5.81c-1.104,0.238-2.153,0.464-3.552,0.767
	c1.51,3.073,6.148,4.246,4.151,9.2c1.844-1.063,2.856-1.647,4.303-2.478c0.703,1.849,1.353,3.546,1.913,5.016
	c2.212-2.839,4.454-5.707,6.697-8.582c0.509-0.654,1.019-1.306,1.526-1.958c-0.002-0.027,0-0.053-0.002-0.08v0.002l0.037,0.034
	l-0.037-0.036c0.021,0.003,0.04,0.009,0.055,0.011c1.111-1.288,2.22-2.577,3.328-3.865c0.221,0.15,0.443,0.295,0.664,0.443
	c-0.407,1.348-0.815,2.694-1.213,4.007c-1.041-0.221-1.91-0.401-2.779-0.585c-0.004,0.009-0.013,0.019-0.018,0.025
	c-0.012,0.015-0.022,0.029-0.033,0.042l-0.002,0.002c0.088,1.69-0.156,3.267-0.627,4.769c-0.606,1.934-1.596,3.743-2.764,5.522
	c-2.83,4.305-2.771,8.088,0.391,12.204c1.979,2.571,4.42,4.789,6.7,7.215c-0.999,1.34-0.982,1.309-2.617,0.309
	c-7.781-4.785-13.54-11.176-16.095-20.14c-0.104-0.363-0.397-0.673-0.817-0.911c-0.079,5.243,1.257,10.181,4.708,14.029
	c3.303,3.68,7.327,6.71,11.188,10.16c0.038-0.124,0.018,0.147-0.116,0.345c-4.279,6.284-3.765,9.162,2.239,13.969
	c0.762,0.612,0.988,1.985,1.295,3.054c0.692,2.434,0.956,5.047,2.034,7.283c0.624,1.301,2.479,2.013,4.096,2.705
	c-2.639-3.27-4.175-6.589-2.379-11.035c5.69,3.098,11.694,5.381,15.846,10.582c-2.417-7.2-9.354-9.165-15.452-13.105
	c2.403-2.892,4.627-5.697,7.04-8.335c0.368-0.403,1.831-0.357,2.383,0.042c3.073,2.227,5.12,5.185,5.126,9.118
	c0.011,6.913,1.731,13.313,5.322,19.216c2.219,3.646,2.912,7.595,3.029,11.865c0.078,2.883,1.405,5.722,2.091,8.601
	c0.224,0.953,0.44,2.026,0.228,2.941c-0.945,4.114-3.508,7.036-7.147,9.072c-0.717,0.399-1.452,0.778-2.454,1.317
	c5.218,0.282,8.736-3.127,12.048-11.41c2.009,0.672,4.024,1.378,6.062,2.014c1.493,0.47,2.098,1.536,1.217,2.728
	c-1.551,2.102-3.092,4.462-5.209,5.837c-2.776,1.804-6.061,2.887-9.226,3.993c-0.915,0.323-2.352-0.053-3.231-0.61
	c-2.03-1.29-3.751-3.08-5.814-4.305c-2.662-1.578-3.488-3.623-2.602-6.504c0.117-0.391,0.07-0.832,0.096-1.201
	c-0.242-0.145-0.424-0.331-0.525-0.295c-3.767,1.311-6.231-0.475-8.756-3.123c-22.561-23.647-36.687-51.587-42.905-83.601
	c-1.99-10.256-3.297-20.583-3.142-30.046c0.66,2.13,1.641,5.14,2.5,8.186c0.202,0.717,0.215,1.644-0.061,2.318
	c-1.125,2.753-0.918,5.269,0.759,7.003c1.706,1.763,5.203,2.214,7.766,1.188c1.136-0.457,2.411-0.693,3.644-0.773
	c7.514-0.508,13.21-3.637,16.162-10.899c0.807-1.983,1.498-3.997,3.8-4.967c1.593-0.671,2.534-0.645,3.222,1.098
	c0.61,1.551,1.424,3.024,2.439,5.138c0.678-2.5,0.966-4.39,1.735-6.054c0.394-0.857,1.585-1.737,2.521-1.873
	c1.984-0.282,4.039-0.086,6.059-0.086c0.038-0.28,0.078-0.561,0.113-0.842c-1.56-1-3.111-2.014-4.681-3.003
	c-1.127-0.712-1.372-1.513-0.757-2.803c1.144-2.39,2.09-4.877,3.439-8.092c-2.024,0.944-3.439,1.459-4.7,2.226
	c-1.75,1.063-3.251,1.386-4.772-0.395c-0.556-0.648-1.465-0.991-2.787-1.854c0.889,2.513,3.747,4.609-0.355,6.211
	c-0.512-1.019-1.009-1.992-1.498-2.977c-1.713-3.465-4.026-6.405-7.26-8.617c-0.569-0.391-0.889-1.282-1.121-2.011
	c-0.646-2.045-1.186-4.121-1.948-6.824c1.474-1.016,3.572-2.627,5.854-3.915c0.587-0.328,1.873,0.176,2.632,0.634
	c3.629,2.176,7.724,1.038,9.327-2.697c1.401-3.266-0.249-7.472-3.309-8.431c-3.579-1.125-7.338,0.99-8.444,4.452
	c-0.432,1.345-1.333,2.798-2.447,3.615c-3.596,2.63-7.422,4.941-11.084,7.483c-0.799,0.554-1.342,1.516-1.921,2.344
	c-2.047,2.925-4.058,5.881-6.363,8.684c0.684-8.859,3.31-16.991,8.132-24.354c0.264,0.024,0.527,0.052,0.794,0.075
	c0.673,3.466,1.347,6.936,2.104,10.837c1.402-4.915,2.726-9.541,4.102-14.368c0.633,0.435,1.087,0.748,2.167,1.486
	c0.16-1.774,0.533-3.152,0.354-4.459c-0.574-4.125-0.238-4.481,3.728-3.246c0.475,0.15,0.92,0.378,1.497,0.616
	c-0.18,0.765-0.361,1.413-0.485,2.072c-0.112,0.564-0.165,1.141-0.357,2.537c1.466-1.294,2.476-2.023,3.276-2.933
	c1.168-1.321,2.236-1.204,3.193,0.075c1.057,1.419,1.966,2.949,3.59,4.589c0.069-0.849,0.489-1.907,0.138-2.501
	c-0.788-1.306-1.782-2.659-3.03-3.47c-1.577-1.028-1.811-2.111-1.563-3.83c0.205-1.453-0.154-2.993-0.288-4.835
	c-2.425,1.963-0.552,6.717-4.959,6.273c-1.294-0.128-3.251-0.949-3.577-1.906c-0.664-1.946,0.148-3.991,2.199-6.138
	c0.471,0.993,0.83,1.754,1.192,2.517c0.308-0.198,0.62-0.399,0.928-0.602c-0.763-1.631-1.39-3.35-2.339-4.873
	c-0.809-1.292-1.982-2.358-3.345-3.926c-5.876,9.179-12.356,18.43-17.913,28.211c-5.736,10.105-6.966,21.565-7.84,31.865
	c0.646-110.904,114.199-193.05,222.822-154.94C467.908,134.954,461.75,140.92,458.62,150.768z M386.805,183.791
	c-5.77-0.698-11.551-1.981-17.096-3.725c-5.697-1.794-9.374-5.91-10.248-12.189c0.248,0.061,0.462,0.054,0.493,0.129
	c3.984,9.244,11.993,12.039,21.047,13.008c8.907,0.953,17.856,1.531,26.735,2.669c5.707,0.729,11.253,2.364,16.109,5.657
	C411.737,185.566,399.186,185.295,386.805,183.791z M438.163,174.574c-2.774-1.455-5.003-2.627-7.532-3.955
	c-1.54,3.127-2.933,5.962-4.685,9.526c-0.263-3.159-0.568-5.575-0.627-7.996c-0.057-2.399-0.736-3.665-3.499-3.361
	c-2.472,0.275-4.995,0.059-7.719-0.35c2.009-1.179,4.016-2.355,6.322-3.714c-1.886-2.472-3.619-4.741-5.35-7.008
	c0.125-0.163,0.246-0.32,0.373-0.484c3.297,1.525,6.594,3.047,9.989,4.619c1.223-2.496,2.306-4.695,3.389-6.898
	c0.209,0.021,0.42,0.044,0.627,0.065c0.405,1.785,0.966,3.551,1.175,5.355c0.248,2.111,1.235,3.024,3.347,3.071
	c1.349,0.029,2.69,0.415,4.778,0.763c-2.115,1.124-3.633,1.932-5.441,2.891C434.89,169.53,436.355,171.792,438.163,174.574z
	 M280.184,242.952c0.139,0.075,0.275,0.15,0.412,0.226c-1.827,3.382-3.652,6.765-5.443,10.08c0.072-0.911,0.15-1.963,0.263-3.438
	c-0.962,0.625-1.555,1.005-2.143,1.388l-0.489-0.48C275.25,248.134,277.717,245.542,280.184,242.952z M281.281,234.344
	c-0.812,2.705-1.625,5.41-2.515,8.361C276.36,238.807,278.426,236.417,281.281,234.344z M271.791,249.817
	c-6.18,9.864-9.554,20.607-10.415,32.159c-0.3,4.01-0.857,8.103-0.368,12.042c0.608,4.916,4.681,8.057,9.277,8.226
	c4.71,0.172,8.836-2.73,10.229-7.199c0.966-3.104,0.025-6.26-2.264-7.597c-2.187-1.277-5.441-0.778-7.422,1.139
	c-1.793,1.737-2.123,4.227-0.731,5.525c1.308,1.217,3.621,0.77,5.159-1.242c0.854-1.116,1.341-2.517,2.36-4.509
	c0.563,1.463,1.307,2.569,1.359,3.708c0.186,4.058-3.088,7.552-7.261,8.013c-4.622,0.515-8.119-2.021-9.054-6.567
	c-1.189-5.782,2.287-13.365,7.536-16.135c0.686-0.361,1.735-0.042,2.613-0.004c1.836,0.083,3.675,0.167,5.509,0.286
	c1.028,0.067,2.212-0.098,3.044,0.357c3.004,1.646,4.584,4.466,6.1,7.467c1.818,3.604,1.674,6.74-0.744,9.943
	c-0.854,1.133-1.351,2.322-1.294,4.08c0.146,4.2-6.033,8.509-10.126,7.364c-2.229-0.624-4.282-1.899-6.523-2.438
	c-2.535-0.612-5.19-0.997-7.784-0.961c-1.595,0.024-1.907-0.663-2.289-1.772c-1.953-5.705-1.671-11.582-1.156-17.433
	c1.351-15.451,6.98-29.25,16.374-41.547c0.146-0.191,0.355-0.332,0.536-0.497c0.198,0.125,0.395,0.246,0.591,0.368
	C273.979,245.014,273.181,247.601,271.791,249.817z M275.175,289.307c-0.128,1.844-1.846,3.961-3.13,3.708
	c-0.371-0.073-0.938-0.869-0.858-1.202c0.472-1.969,1.76-2.956,3.748-2.859C275.085,289.17,275.18,289.241,275.175,289.307z
	 M263.557,311.307c0.402,0.453,1.445,0.339,2.504,0.539c-2.043,1.369-4.033,1.281-5.459-0.143c-0.913-0.913-1.555-2.771-1.318-4.016
	c0.396-2.119,2.412-2.943,4.436-2.687c1.938,0.243,3.843,0.897,5.713,1.539c2.426,0.834,4.794,1.838,7.779,2.996
	c-2.452,0.662-4.329,1.313-6.261,1.641c-1.737,0.293-3.68,0.638-4.193-2.016c-0.104-0.537-0.896-1.018-1.468-1.375
	c-1.215-0.759-2.751-1.048-3.238,0.508C261.8,309.088,262.813,310.462,263.557,311.307z M429.686,112.452
	c-1.597,0.152-3.193,0.309-4.786,0.464C424.577,109.891,424.644,109.883,429.686,112.452z M426.954,108.666
	c9.647-3.211,16.201-9.504,19.914-19.563c1.978,2.19,3.499,3.777,4.862,5.487c0.226,0.28-0.157,1.144-0.391,1.679
	c-2.952,6.844-7.917,11.696-14.924,14.132C433.273,111.498,430.029,110.633,426.954,108.666z M451.221,88.691
	c1.91,0.753,1.174,1.877,0.888,3.437c-4.841-4.967-5.515-4.787-0.2-9.769c0.232,1.202,0.437,2.237,0.59,3.021
	c-0.943,0.312-1.66,0.546-2.373,0.78C450.479,87.038,450.618,88.453,451.221,88.691z M450.098,81.813
	c-0.33,0.306-0.663,0.644-0.895,1.029c-0.109,0.186-0.249,0.307-0.401,0.389c-0.485,0.518-1.169,1.012-2.109,1.476
	c-3.606-9.198-9.675-15.959-20.261-18.442c3.583-2.657,6.913-3.083,10.28-1.917c7.354,2.546,11.736,7.998,14.036,15.223
	c0.174,0.182,0.284,0.419,0.257,0.676C450.938,80.938,450.589,81.362,450.098,81.813z M426.83,63.922
	c-0.537,0.074-1.168-0.496-1.756-0.773c0.49-0.318,0.982-0.916,1.47-0.91c1.359,0.017,2.712,0.28,4.516,0.5
	C429.308,63.255,428.091,63.743,426.83,63.922z M442.319,79.295c0.653,1.214,1.276,2.456,1.787,3.733
	c1.007,2.504,0.702,2.949-2.021,3.28c-0.667,0.085-1.33,0.182-1.992,0.275c-0.034,0.245-0.067,0.494-0.103,0.742
	c1.615,0.242,3.231,0.483,5.18,0.777c-1.415,5.591-4.248,9.97-8.489,13.43c-13.392,10.941-29.155,0.937-31.587-11.853
	c-1.349-7.106,3.873-15.547,11.368-19.534C426.586,64.754,438.156,71.541,442.319,79.295z M396.676,79.244
	c5.178,7.246,5.249,8.122-0.878,15.372c-1.589-3.759-0.795-6.255,2.526-7.382C395.283,82.997,395.283,82.997,396.676,79.244z
	 M397.413,94.781c1.301-1.353,2.21-3.079,3.355-4.593c0.945-1.248,1.819-1.182,2.452,0.321c0.336,0.795,0.676,1.583,0.98,2.392
	c2.518,6.68,7.131,11.282,13.768,13.888c0.926,0.363,1.813,0.825,2.718,1.243c-0.031,0.251-0.063,0.504-0.092,0.759
	c-3.09,1.563-6.297,2.62-9.815,1.365c-5.721-2.044-10.192-5.692-13.51-10.768C396.243,97.818,395.85,96.405,397.413,94.781z
	 M422.353,109.843c0.801,3.257,0.801,3.257-6.673,2.325C418.278,111.263,420.302,110.558,422.353,109.843z M421.249,64.511
	c-1.574-0.261-3.114-0.753-4.668-1.153l-0.007-0.432c1.656-0.224,3.308-0.558,4.967-0.598c0.416-0.01,0.855,0.916,1.284,1.407
	C422.299,64.011,421.72,64.588,421.249,64.511z M421.163,66.407c-9.629,2.742-15.225,9.455-18.509,18.498
	c-0.27-0.042-0.541-0.085-0.811-0.123c-1.424-2.342-2.886-4.655-4.228-7.036c-0.231-0.406-0.124-1.211,0.134-1.65
	c3.171-5.376,7.637-9.463,13.471-11.55C414.417,63.402,417.802,64.736,421.163,66.407z M404.276,117.65
	c-0.022,0.285-0.044,0.571-0.064,0.857c-23.845,2.58-46.375,9.449-67.038,21.607c-47.667,28.041-77.59,69.232-86.282,123.851
	c-9.972,62.646,9.083,116.407,55.749,159.635c27.83,25.779,61.049,40.941,98.877,44.447c60.373,5.595,111.542-13.571,151.324-59.926
	c22.838-26.607,35.785-57.91,40.105-92.785c3.42-27.624,1.167-54.673-8.157-80.914c-15.331-43.133-43.351-75.546-83.722-97.095
	c-19.152-10.227-39.664-16.387-61.27-18.804c-0.234-0.027-0.455-0.169-0.728-0.83c1.085-0.054,2.188-0.271,3.251-0.136
	c35.592,4.512,67.113,18.316,94.059,42.035c29.998,26.401,49.6,59.278,56.297,98.647c10.729,63.114-5.17,118.758-51.158,164.335
	c-26.465,26.225-58.836,41.159-95.737,46.419c-36.298,5.172-71.093,0.077-103.682-16.542
	c-53.085-27.075-86.54-69.926-96.513-128.872c-10.57-62.494,7.808-116.596,53.708-160.469
	c27.128-25.933,59.964-40.862,97.341-45.444C401.835,117.521,403.063,117.65,404.276,117.65z M257.038,136.331
	c0.319,0.042,0.638,0.082,0.955,0.121c0.407,3.55,0.989,7.092,1.162,10.657c0.128,2.647-0.266,5.327-0.455,7.99
	c-0.172,2.385-2.478,4.741-4.89,4.944c-1.024,0.085-2.063,0.015-2.516,0.015c-1.651,1.691-3.006,3.081-4.358,4.471l-0.669-0.549
	c1.551-1.918,3.075-3.855,4.66-5.743c1.219-1.457,2.496-2.864,3.779-4.263c1.396-1.525,1.461-3.178,0.427-5.671
	c-10.481,11.359-19.084,23.532-26.633,36.46c-13.474,23.081-22.803,47.669-26.809,74.267c3.079,0.369,3.529-1.514,3.887-3.559
	c3.735-21.175,10.729-41.255,20.928-60.146c4.421-8.188,9.513-16.029,14.545-23.869c1.501-2.341,3.729-4.266,5.812-6.177
	c2.176-1.996,4.494-3.218,7.67-1.474c2.417,1.331,4.633,0.092,6.158-2.076c1.479,2.17,2.871,4.21,4.281,6.275
	c-2.242,2.771-2.42,4.196,0.247,7.367c2.024,2.406,1.706,4.114-0.002,6.508c-15.452,21.661-25.874,45.539-31.196,71.624
	c-0.693,3.391-0.675,3.396,2.193,5.048c0.369-1.666,0.729-3.191,1.039-4.732c5.009-24.804,14.926-47.506,29.283-68.296
	c0.588-0.853,1.181-1.735,1.932-2.425c0.475-0.435,1.26-0.539,2.139-0.882c0.086-1.605,0.471-3.755,0.232-5.833
	c-0.227-2.013-1.094-3.955-1.788-6.297c9.242-0.144,9.616-6.921,10.323-13.658c1.551,6.361,3.047,12.557,1.768,19.048
	c7.884-1.244,17.629-16.929,17.082-27.473c-3.993,2.216-7.998,4.235-12.652,2.65c-0.048-0.245-0.096-0.493-0.147-0.742
	c3.048-0.515,6.104-1.005,9.147-1.543c3.65-0.649,6.775-1.979,8.119-5.891c0.667-1.95,0.326-3.306-1.536-4.321
	c-8.524-4.632-17.405-7.73-27.3-7.758c-4.239-0.015-8.519-0.887-12.689-1.791c-1.782-0.385-3.327-1.851-4.977-2.826
	c0.114-0.264,0.229-0.525,0.343-0.789c1.787,0.439,3.691,0.626,5.343,1.376c2.635,1.193,4.416,0.332,6.495-1.376
	c8.663-7.119,17.155-14.521,26.307-20.969c27.743-19.548,58.54-31.874,92.017-37.491c2.195-0.367,4.396-0.684,7.367-1.146
	c-8.207,7.712-12.18,16.469-10.657,27.111c1.518,10.595,7.818,17.96,17.336,23.568c-43.298,5.895-79.54,24.406-108.569,56.152
	c-29.012,31.731-44.554,69.385-46.943,112.508c-4.309-10.032-10.975-17.68-21.452-21.158c-10.695-3.552-20.405-1.001-29.388,5.795
	C199.959,217.688,222.178,174.021,257.038,136.331z M262.833,156.174c0.069-4.797,4.339-7.89,9.642-6.635
	C269.221,151.777,265.889,154.069,262.833,156.174z M278.766,144.062c0.941-3.516,1.885-7.028,3.005-11.19
	c1.758,4.805-0.665,8.003-2.034,11.432C279.412,144.221,279.088,144.14,278.766,144.062z M218.744,320.665
	c9.196-3.607,15.963-9.677,18.444-20.263c2.659,3.589,3.082,6.917,1.917,10.279c-2.61,7.538-8.264,11.957-15.754,14.211
	c1.466-0.771,2.934-1.543,4.398-2.313C224.475,323.429,221.205,325.643,218.744,320.665z M237.045,295.137
	c-2.743-9.629-9.457-15.224-18.499-18.509c0.042-0.271,0.084-0.54,0.124-0.81c2.339-1.424,4.656-2.891,7.038-4.231
	c0.407-0.228,1.212-0.125,1.647,0.136c5.379,3.17,9.465,7.635,11.554,13.47C240.053,288.389,238.717,291.773,237.045,295.137z
	 M240.099,290.552l0.431-0.004c0.222,1.653,0.554,3.305,0.594,4.963c0.011,0.418-0.912,0.857-1.407,1.288
	c-0.277-0.529-0.851-1.104-0.772-1.577C239.202,293.646,239.695,292.105,240.099,290.552z M208.838,269.769
	c3.756-1.587,6.254-0.792,7.381,2.529c4.233-3.042,4.233-3.042,7.992-1.649C216.959,275.827,216.084,275.896,208.838,269.769z
	 M233.309,290.435c5.39,10.123-1.396,21.693-9.15,25.857c-1.216,0.65-2.456,1.273-3.735,1.789c-2.506,1.004-2.947,0.698-3.28-2.027
	c-0.081-0.665-0.182-1.327-0.273-1.99c-0.25-0.033-0.495-0.069-0.742-0.101c-0.242,1.612-0.486,3.229-0.777,5.179
	c-5.592-1.415-9.972-4.248-13.434-8.489c-10.936-13.39-0.933-29.156,11.855-31.585C220.879,277.719,229.318,282.94,233.309,290.435z
	 M221.096,325.879c-1.205,0.238-2.238,0.438-3.024,0.59c-0.308-0.941-0.544-1.656-0.78-2.373c-0.877,0.352-2.289,0.493-2.531,1.096
	c-0.754,1.912-1.871,1.175-3.435,0.887C216.29,321.24,216.11,320.565,221.096,325.879z M239.53,300.802
	c-0.077-0.535,0.495-1.167,0.771-1.754c0.323,0.487,0.919,0.98,0.913,1.466c-0.017,1.358-0.282,2.713-0.502,4.518
	C240.197,303.277,239.706,302.064,239.53,300.802z M193.295,284.749c2.042-5.718,5.692-10.188,10.767-13.509
	c1.573-1.028,2.987-1.419,4.611,0.145c1.353,1.304,3.075,2.211,4.587,3.355c1.252,0.946,1.187,1.82-0.318,2.452
	c-0.792,0.334-1.585,0.675-2.39,0.981c-6.684,2.52-11.284,7.131-13.891,13.765c-0.362,0.928-0.822,1.814-1.242,2.722
	c-0.251-0.031-0.5-0.063-0.757-0.093C193.099,291.477,192.041,288.271,193.295,284.749z M191.286,289.651
	c0.903,2.599,1.607,4.622,2.322,6.675C190.352,297.125,190.352,297.125,191.286,289.651z M190.538,298.868
	c3.024-0.32,3.033-0.253,0.462,4.789C190.847,302.059,190.692,300.465,190.538,298.868z M194.787,300.929
	c3.212,9.644,9.506,16.199,19.559,19.912c-2.188,1.979-3.773,3.497-5.484,4.864c-0.281,0.222-1.144-0.163-1.68-0.393
	c-6.842-2.952-11.695-7.917-14.133-14.924C191.951,307.244,192.82,303.998,194.787,300.929z M377.702,523.084
	c-43.038-9.338-80.212-29.601-111.735-60.289c-1.473-1.435-2.781-1.743-4.596-0.986c-1.703,0.713-3.479,1.256-5.297,1.659
	c3.198-3.869,7.476-5.396,12.256-5.722c3.615-0.244,7.24-0.33,10.865-0.482c2.968-0.128,3.512-0.843,2.541-3.702
	c-0.522-1.549-1.4-2.976-1.904-4.526c-0.432-1.325-0.552-2.751-0.484-4.202c2.822,3.513,3.255,7.699,3.313,12.502
	c7.08-1.396,13.786-2.723,21.436-4.228c-2.368-4.147-4.347-7.613-6.328-11.079l-0.033,0.035l0,0l0,0
	c-0.019-0.021-0.038-0.039-0.059-0.061c-4.085-1.118-8.178-2.236-12.309-3.368c3.194-2.255,8.317-0.825,12.309,3.368
	c0.021,0.007,0.04,0.015,0.061,0.017h0.002c0.002-0.094,0.011-0.182,0.015-0.273c0.004-0.067,0.006-0.134,0.015-0.203
	c0.002-0.05,0.005-0.101,0.007-0.148c0.059-0.753,0.138-1.505,0.14-2.249c0-0.015,0-0.031,0-0.046c0-0.146-0.002-0.293-0.009-0.436
	c0-0.019,0-0.035,0-0.054c-0.012-0.159-0.026-0.322-0.045-0.481c-0.828-6.662-3.15-12.781-7.671-17.789
	c-2-2.206-4.677-3.793-7.354-5.41c-0.077,6.114-0.863,11.719-3.244,17.158c-1.17-4.754-0.68-10.542-7.648-11.104
	c1.569-5.475-1.34-8.641-8.778-9.77c1.279,2.53,2.64,5.053,3.817,7.666c0.286,0.636,0.229,2.074-0.125,2.256
	c-3.594,1.848-3.955,5.416-4.889,8.694c-0.138,0.487-0.334,0.962-0.418,1.204c-1.354-1.047-2.579-2.667-4.065-2.958
	c-1.495-0.297-3.443,0.403-4.85,1.244c-2.329,1.39-3.418,0.382-4.775-1.395c-20.068-26.271-33.817-55.458-40.69-87.832
	c-0.434-2.05-0.893-3.919-3.554-3.84c-3.218,17.673,34.958,95.152,51.886,105.247c1.892-4.54-2.215-6.543-4.066-9.47
	c2.859-1.237,6.796,0.401,7.067,3.41c0.513,5.715,1.522,11.514-0.356,17.2c-0.101,0.307-0.342,0.563-0.793,1.269
	c-33.669-36.134-54.633-78.148-62.403-127.111c20.648,16.615,44.358,4.344,50.866-18.114c4.73,44.404,22.013,82.131,53.748,112.771
	c31.711,30.623,69.656,47.487,114.401,50.596c-0.728,0.277-1.131,0.442-1.451,0.562h-3.032c-2.391,1.046-4.644,2.231-6.73,3.571
	c-4.238,2.107-8.054,4.915-11.328,8.598c-10.27,11.54-8.564,28.515,3.943,39.711c0.561,0.502,1.137,0.984,1.52,2.065
	C390.487,525.413,384.049,524.462,377.702,523.084z M263.295,433.908c3.236,1.046,6.583,2.127,10.057,3.255
	C269.915,439.175,265.121,437.478,263.295,433.908z M591.308,454.207c-0.329-0.021-0.657-0.039-0.985-0.059
	c-0.422-2.203-1.158-4.395-1.199-6.605c-0.069-3.7,0.213-7.419,0.512-11.115c0.287-3.627,4.081-5.701,8.094-4.422
	c-1.743,3.063-6.599,4.725-4.389,10.206c27.273-30.813,44.742-65.779,52.318-106.004c-2.242,0.057-3.544,0.575-3.967,2.722
	c-6.507,33.151-20.604,62.816-41.176,89.5c-0.528,0.682-1.049,1.369-1.578,2.049c-0.048,0.063-0.145,0.09-0.26,0.16
	c-2.092-0.884-4.148-1.992-6.344-2.619c-2.605-0.744-4.127,1.031-5.513,3.616c-0.437-1.546-0.832-2.573-1.006-3.637
	c-0.47-2.814-1.259-5.346-4.052-6.834c-0.415-0.218-0.639-1.576-0.38-2.155c1.153-2.579,2.509-5.067,3.761-7.528
	c-6.209-0.48-10.605,4.035-8.7,9.451c-6.568,0.632-6.913,5.826-7.788,10.796c-2.372-5.368-2.667-10.919-2.324-16.557
	c-7.657,0.564-17.317,16.122-16.463,26.675c3.894-2.996,7.877-5.432,13.146-3.312c-8.805,1.239-16.663,3.566-17.896,14.708
	c6.653,1.34,13.356,2.687,20.499,4.125c-0.271-4.844,0.27-9.044,2.797-12.712c0.268,0.066,0.54,0.127,0.81,0.191
	c-0.468,1.677-0.878,3.37-1.417,5.023c-0.504,1.552-1.328,3.02-1.671,4.6c-0.38,1.741,0.112,2.813,2.402,2.87
	c4.989,0.128,9.994,0.439,14.944,1.062c3.365,0.427,6.355,2.01,8.262,5.099c-0.326-0.1-0.689-0.131-0.97-0.299
	c-4.524-2.726-7.585-1.07-11.297,2.371c-33.503,31.059-72.657,51.06-117.751,59.1c-4.979,0.891-10.023,1.448-15.298,1.938
	c0.891-0.601,1.788-1.198,2.678-1.836c1.466-1.052,2.469-2.648,3.949-3.66c0.05-0.029,0.099-0.061,0.146-0.09
	c2.017-2.791,3.524-5.623,4.563-8.452c2.157-5.003,2.857-10.561,1.825-16.784c-1.103-6.231-5.122-10.917-8.967-14.094
	c-3.869-3.914-8.813-7.066-14.508-9.082h-2.515c-0.324-0.142-0.65-0.277-0.973-0.424c44.49-2.504,83.415-18.36,115.345-49.933
	c31.812-31.458,48.898-69.848,52.764-114.67c3.092,11.795,9.746,20.41,20.865,25.02c11.46,4.749,21.948,2.272,31.721-5.133
	C646.256,376.517,624.795,418.32,591.308,454.207z M584.856,433.921c-1.893,3.508-6.159,5.137-10.269,3.445
	C578.307,436.118,581.576,435.021,584.856,433.921z M654.682,313.125c-3.121,6.815-8.491,10.888-15.414,12.978
	c-0.12-0.242-0.238-0.485-0.357-0.728c0.882-0.486,1.76-0.974,2.64-1.457c-3.144,1.184-5.454,0.316-7.344-2.896
	c9.607-3.313,15.925-9.778,18.601-19.675C655.063,303.509,656.076,310.081,654.682,313.125z M657.348,305.829
	c-0.113-0.006-0.227-0.015-0.341-0.021c-0.537-1.702-1.146-3.391-1.563-5.122c-0.119-0.484,0.324-1.107,0.508-1.664
	c0.627,0.403,1.777,0.795,1.789,1.217C657.787,302.1,657.508,303.965,657.348,305.829z M656.798,296.763
	c-0.291,0.293-1.056,0.109-1.607,0.143c0.013-0.732-0.111-1.497,0.059-2.193c0.424-1.73,0.988-3.426,1.494-5.138
	c0.161,0.019,0.326,0.037,0.491,0.056c0.23,1.698,0.59,3.396,0.634,5.097C657.885,295.414,657.324,296.232,656.798,296.763z
	 M383.152,257.054c-4.534,0.247-8.592,2.11-10.902,6.359c-1.557,2.856-2.766,5.901-4.191,8.996c1.928-0.431,4.041-0.901,6.152-1.37
	c0.061,0.119,0.123,0.236,0.184,0.355c-1.053,0.782-2.104,1.558-3.14,2.323c2.762,0.944,5.339,2.153,8.044,2.654
	c2.622,0.489,5.501,0.766,8.036,0.163c1.831-0.44,3.403-1.925,5.681-0.882c-0.19-0.656-0.331-1.149-0.744-2.563
	c2.766,2.434,4.812,1.354,6.56-0.096c4.076-3.376,8.009-6.93,11.935-10.353c-5.518-1.622-10.877-3.486-16.381-4.705
	C390.745,257.13,386.88,256.846,383.152,257.054z M385.375,273.013c-1.213-0.189-2.655-0.046-3.561-0.677
	c-0.732-0.511-0.813-1.953-1.184-2.985c0.274-0.117,0.548-0.24,0.82-0.361c-0.072,2.861,1.657,3.501,4.105,3.254
	C385.496,272.499,385.436,272.756,385.375,273.013z M390.191,271.905c0.107-1.618-0.042-3.284,0.265-3.372
	c1.708-0.489,3.526-0.598,5.308-0.839c0.063,0.322,0.132,0.641,0.197,0.958C394.238,269.626,392.514,270.599,390.191,271.905z
	 M392.107,262.676c-5.543,0.482-11.207,0.01-16.715,2.822c0.324-3.805,2.119-6.011,5.458-6.812
	c5.987-1.432,11.726-0.537,17.33,2.703C396.155,261.833,394.154,262.496,392.107,262.676z M373.563,323.151
	c-3.356-1.334-6.492-3.234-9.871-4.464c-1.428-0.521-3.263,0.077-4.912,0.172c-1.474,0.084-3.057,0.545-4.395,0.158
	c-1.857-0.535-2.631-0.104-3.321,1.608c-2.124,5.236,3.574,14.796,9.873,13.241c5.225,0.169,9.667-1.783,13.636-5.168
	c1.257-1.07,2.91-1.67,4.264-2.648c0.654-0.471,1.036-1.323,1.538-2.001c-0.828-0.213-1.646-0.529-2.487-0.614
	C376.443,323.291,374.836,323.657,373.563,323.151z M359.879,328.826c-0.053-0.292-0.108-0.585-0.159-0.875
	c2.438-0.515,4.88-1.026,7.925-1.662C365.879,328.873,362.396,329.748,359.879,328.826z M353.217,304.161
	c-0.304-0.067-0.555-0.37-0.838-0.568c1.69-1.9,6.496-2.325,8.769-0.837c2.934,1.922,4.361,1.443,5.655-1.904
	c0.205-0.524,0.378-1.063,0.689-1.948c1.167,2.252,0.523,4.074-0.765,5.225c-1.16,1.034-3.013,1.948-4.482,1.84
	C359.208,305.75,356.217,304.828,353.217,304.161z M342.618,297.725c2.134,5.097,5.949,8.188,11.2,9.805
	C349.412,309.509,342.074,303.069,342.618,297.725z M423.274,143.077c0.318-0.013,0.606-0.033,0.854-0.063
	c1.753-0.2,1.866-0.812,1.028-2.866c2.174-1.154,4.351-2.31,6.635-3.519c1.779,2.52,3.623,5.128,5.841,8.267
	c-7.151-0.991-14.116-1.31-20.979-1.182c0.002-0.634-0.002-1.257-0.065-1.888c0.109-0.477,0.122-1.047,0.034-1.727
	c-0.551-4.298-0.755-8.64-1.125-13.241c4.316,2.076,5.859,8.876,3.93,16.23C420.785,143.09,422.031,143.138,423.274,143.077z
	 M437.516,136.835c-0.896-2.584-0.518-5.159,1.652-7.093c1.801-1.609,3.916-2.225,6.157-0.905c2.335,1.376,4.593,2.874,7.52,4.723
	c-2.344,0.665-4.147,1.388-6.013,1.645c-1.653,0.227-2.456,0.927-3.207,2.404c-0.807,1.576-2.224,2.846-3.373,4.248
	C439.321,140.19,438.13,138.612,437.516,136.835z M313.682,390.368c-3.781,0.27-7.565,0.5-11.266,0.74
	c0.975-3.354,3.817-4.622,9.413-3.993c6.769,0.764,10.917,4.666,11.241,11.136c-1.2-1.839-2.129-3.265-3.063-4.687
	C318.511,391.286,316.443,390.17,313.682,390.368z M303.472,399.71c-1.597,1.713-2.866,3.076-4.599,4.938
	c0.779-3.579,2.568-5.609,5.041-7.063c0.45-0.266,1.526-0.187,1.854,0.163c4.13,4.35,8.175,8.771,12.221,13.192
	c0.188,0.209,0.198,0.577,0.198,0.585C313.393,407.676,308.486,403.732,303.472,399.71z M304.4,304.159
	c0.85,2.057-0.45,4.749-2.497,4.681c-4.672-0.155-7.835,1.99-10.197,6.315C290.846,308.658,297.198,305.781,304.4,304.159z
	 M300.393,220.392c-0.559,0.652-1.048,1.39-1.695,1.94c-1.178,1.003-2.5,1.841-3.672,2.851c-2.111,1.816-5.002,3.368-2.75,6.951
	c0.138,0.222-0.045,0.647-0.071,0.893c-1.198,0.407-2.281,0.771-3.368,1.137c-1.838-3.48-1.578-5.083,1.361-7.352
	c2.658-2.047,5.359-4.041,8.071-6.019C298.776,220.423,299.414,220.225,300.393,220.392z M295.738,270.429
	c-3.152-0.422-6.045-0.811-8.938-1.195c-0.104-0.249-0.207-0.497-0.312-0.744c1.33-0.648,2.643-1.792,3.997-1.844
	C293.057,266.541,294.457,268.579,295.738,270.429z M316.907,386.769c-2.606-1.744-4.688-3.138-6.812-4.562
	C312.496,380.64,315.674,382.548,316.907,386.769z M538.213,463.695c2.646-1.45,5.448-2.623,8.099-4.067
	c2.011-1.09,3.742-0.688,5.791,0.56c-7.455,13.202-16.513,24.545-30.747,30.772c-11.867,5.196-24.128,5.449-36.583,3.29
	c-0.079-0.226-0.163-0.453-0.245-0.679c0.876-0.617,1.7-1.323,2.633-1.836C504.166,482.37,521.18,473.011,538.213,463.695z
	 M626.529,351.306c0.979,15.142-0.275,29.781-8.219,43.141c-7.019,11.801-17.32,19.804-29.759,25.515
	C599.504,396.106,610.734,372.49,626.529,351.306z M566.516,464.426c-1.939-1.131-3.725-2.172-5.799-3.383
	c2.287-0.629,5.52,2.531,5.591-2.254c0.959,1.652,1.618,4.121,2.718,4.338c1.364,0.266,3.089-1.34,5.064-1.831
	c-0.566,0.702-1.068,1.472-1.712,2.103c-11.092,10.896-23.706,19.782-37.03,27.677c-23.491,13.914-48.678,23.225-75.69,27.469
	c-0.403,0.063-0.821,0.079-1.474,0.144c0.648-2.389,1.902-3.679,4.191-4.07c20.396-3.499,39.748-10.185,58.218-19.427
	c16.126-8.07,30.945-18.157,44.841-29.615C565.756,465.312,566.01,464.969,566.516,464.426z M612.109,335.627
	c-5.447,25.282-15.53,48.551-30.165,69.854c-3.04,4.426-6.526,7.72-10.435,9.582c18.728-24.984,32.096-52.403,38.121-83.277
	C611.79,332.587,612.563,333.526,612.109,335.627z M468.45,479.555c25.729-5.892,49.227-16.633,70.64-32.138
	c1.866,2.337,0.829,3.456-0.78,4.589c-18.864,13.306-39.372,23.1-61.713,28.995c-1.501,0.395-3.05,0.64-4.511,1.146
	C469.849,482.924,468.931,481.923,468.45,479.555z M296.033,460.28c2.256-1.238,4.106-1.721,6.42-0.445
	c19.012,10.498,38.084,20.89,57.118,31.343c1.307,0.719,2.459,1.712,3.686,2.581c-13.247,2.655-25.991,2.162-38.247-3.464
	C311.479,484.082,302.977,473.078,296.033,460.28z M222.024,351.761c16.584,20.749,27.392,44.695,38.511,68.596
	c-10.067-4.303-18.591-10.543-25.422-19.023C223.41,386.814,221,369.781,222.024,351.761z M385.477,518.315
	c-28.811-5.376-55.188-15.797-79.503-31.382c-11.443-7.333-22.447-15.281-31.875-25.148c0.152-0.234,0.301-0.471,0.449-0.704
	c0.834,0.475,1.69,0.917,2.493,1.432c2.014,1.296,3.258,0.811,3.874-1.572c0.183-0.708,0.318-1.424,1.033-2.159
	c0.202,0.922,0.405,1.844,0.667,3.035c1.507-0.308,2.987-0.612,4.467-0.918c0.082,0.146,0.165,0.291,0.245,0.438
	c-1.856,0.993-3.716,1.987-5.771,3.083c0.425,0.489,0.688,0.901,1.048,1.2c25.038,20.763,52.864,36.31,84.349,44.967
	c4.653,1.279,9.38,2.31,14.082,3.402C383.891,514.648,384.095,514.779,385.477,518.315z M308.646,446.688
	c24.085,17.119,50.493,28.891,79.572,34.431c-1.161,3.303-3.288,2.797-5.467,2.324c-22.502-4.854-43.486-13.454-63.065-25.521
	c-3.524-2.172-6.949-4.509-10.4-6.803C307.225,449.755,307.245,449.728,308.646,446.688z M251.925,375.569
	c6.587,14.071,15.097,26.974,24.034,39.676c-3.77-2.085-6.92-4.767-9.365-8.227c-10.771-15.235-19.306-31.651-25.366-49.287
	c-2.485-7.237-4.212-14.737-6.325-22.11c-0.546-1.902-0.137-3.197,2.436-3.927C240.375,346.937,245.354,361.525,251.925,375.569z
	 M551.77,128.859c0.49,0.843,0.427,2.012,0.615,3.032c-1.054-0.103-2.243,0.079-3.141-0.35c-5.77-2.743-11.543-5.494-17.182-8.481
	c-15.254-8.083-30.443-16.278-45.653-24.441c-0.801-0.431-1.534-0.979-2.868-1.842c23.15-3.917,46.57,0.531,62.074,22.199
	C547.865,122.129,549.819,125.501,551.77,128.859z M592.129,176.403c11.819,6.216,22.029,13.646,28.803,25.036
	c8.073,13.575,8.721,28.297,6.739,43.712C623.091,241.497,592.906,183.193,592.129,176.403z M466.266,76.585
	c-2.404-0.179-3.435-1.599-4.327-4.278c42.769,7.379,79.454,25.902,110.947,54.356c-2.958,0.48-5.665,0.922-8.203,1.334
	c-0.021,0.03,0.163-0.421,0.485-0.724c1.369-1.279,1.035-2.21-0.324-3.334c-27.487-22.69-58.229-38.806-93.248-46.311
	C469.821,77.25,468.059,76.717,466.266,76.585z M539.27,141.125c-23.484-17.579-49.512-29.296-78.555-34.581
	c0.773-2.099,1.686-3.121,4.021-2.645c27.304,5.553,52.126,16.651,74.555,33.159C540.962,138.288,541.103,139.394,539.27,141.125z
	 M294.311,131.894c6.077-12.558,14.537-22.659,26.698-29.417c13.32-7.405,27.554-8.369,42.558-6.055
	C358.65,102.376,299.577,132.742,294.311,131.894z M220.659,245.272c-2.17-16.43-1.223-31.794,7.78-45.786
	c6.021-9.369,21.365-21.908,27.649-22.688C255.393,182.579,225.743,240.234,220.659,245.272z M283.445,128.555
	c-2.668-1.605-5.244-2.762-8.239-1.006c31.161-29.07,67.483-47.471,109.788-55.084c-0.924,2.352-1.697,3.883-4.021,4.328
	c-30.776,5.878-58.708,18.316-83.979,36.761c-4.463,3.257-8.667,6.856-13.095,10.163
	C281.956,125.17,281.582,126.524,283.445,128.555z M381.235,104.264c2.082-0.427,4.187-1,5.088,2.354
	c-29.026,5.23-54.95,17.56-78.53,35.16c-1.609-2.4-0.548-3.724,1.126-4.777c8.235-5.207,16.274-10.78,24.794-15.484
	C348.605,113.288,364.545,107.682,381.235,104.264z M542.482,245.181c1.806-2.415,3.593-4.699,5.22-7.091
	c0.271-0.397,0.061-1.442-0.295-1.898c-2.276-2.903-4.607-5.764-7.056-8.517c-0.33-0.37-1.439-0.05-2.874-0.05
	c-0.176-0.274-0.748-1.167-1.317-2.058c-0.145,0.035-0.286,0.071-0.431,0.106c0.192,1.092,0.381,2.183,0.567,3.274l0,0l0,0
	c-2.748-0.764-2.559-4.286-2.369-9.096c0.013-0.32,0.027-0.646,0.038-0.98c3.085,2.654,6.476,5.431,9.71,8.378
	c6.477,5.906,11.163,12.79,10.603,22.029c-0.171,2.785-1.067,5.542-1.816,8.26c-0.238,0.861-1.074,1.563-1.956,2.218
	c2.33-6.112,1.848-12.005-0.459-18.269c-5.205,2.707-7.847,6.652-8.275,12.161c-0.264-0.045-0.527-0.093-0.791-0.143
	c-0.1-1.004-0.15-2.016-0.311-3.011c-0.274-1.707-0.373-3.491-0.986-5.073c-0.804-2.073-2.261-3.903-3.005-5.991
	c-0.522-1.47-0.321-3.196-0.037-4.89C540.523,237.134,542.793,240.416,542.482,245.181z M560.422,293.469
	c-0.102,7.993-7.073,11.499-14.754,7.787c0,1.483,0,2.893,0,4.459c0.805-0.137,1.413-0.239,2.178-0.368c0,3.773,0,7.358,0,10.939
	c-2.194-4.229-4.98-8.245-3.558-13.53c0.401-1.492-0.238-3.269-0.462-5.513c2.69,2.428,4.732,5.676,8.789,3.067
	c-4.7-1.777-6.359-5.632-7.384-9.963c-1.325-5.624-3.872-10.672-7.271-15.321c-0.544-0.742-1.044-1.521-1.564-2.285
	c5.439,3.976,8.445,9.457,10.147,15.75c0.537,1.992,0.937,4.076,1.839,5.903c2.313,4.69,5.976,5.245,9.707,1.602
	C558.909,295.197,559.484,294.144,560.422,293.469z M552.717,265.169c0.582,0.223,1.121,0.561,1.684,0.847
	c-0.485,0.525-0.874,1.231-1.47,1.543c-1.182,0.621-2.474,1.021-4.064,1.647c0.895,1.14,1.558,1.982,2.575,3.28
	c-1.54-0.692-2.59-1.374-3.73-1.614c-1.167-0.244-2.426-0.054-3.639-0.054c-2.104-2.298-4.274-4.671-6.981-7.631
	c1.633,0,2.533-0.11,3.396,0.021c2.453,0.376,2.999-0.757,2.7-2.958c-0.2-1.462-0.038-2.975-0.038-4.461
	c0.302-0.093,0.604-0.188,0.908-0.28c0.607,1.133,1.388,2.203,1.783,3.401c0.761,2.308,1.771,3.51,4.214,1.787
	c0.59-0.412,1.417-0.491,2.815-0.947c-1.109,1.729-1.892,2.943-2.898,4.514C551.038,264.609,551.896,264.85,552.717,265.169z
	 M549.159,326.414c0.007,3.366-2.76,6.071-6.106,5.973c-3.207-0.099-5.551-2.613-5.525-5.929c0.031-3.411,2.511-5.834,5.925-5.79
	C546.744,320.714,549.154,323.135,549.159,326.414z"/>
</svg>
