<?xml version="1.0" encoding="UTF-8" standalone="no" ?>
<!DOCTYPE svg PUBLIC "-//W3C//DTD SVG 1.1//EN" "http://www.w3.org/Graphics/SVG/1.1/DTD/svg11.dtd">
<svg xmlns="http://www.w3.org/2000/svg" xmlns:xlink="http://www.w3.org/1999/xlink" version="1.1" width="1080" height="1080" viewBox="0 0 1080 1080" xml:space="preserve">
<desc>Created with Fabric.js 5.2.4</desc>
<defs>
</defs>
<g transform="matrix(1 0 0 1 540 540)" id="ff2ea233-2981-4004-ac65-0367208832cf"  >
<rect style="stroke: none; stroke-width: 1; stroke-dasharray: none; stroke-linecap: butt; stroke-dashoffset: 0; stroke-linejoin: miter; stroke-miterlimit: 4; fill: rgb(255,255,255); fill-rule: nonzero; opacity: 1; visibility: hidden;" vector-effect="non-scaling-stroke"  x="-540" y="-540" rx="0" ry="0" width="1080" height="1080" />
</g>
<g transform="matrix(1 0 0 1 540 540)" id="265ae286-3373-441a-8e98-e0e7e324877e"  >
</g>
<g transform="matrix(1.78 0 0 1.78 539.55 539.23)" id="c0880b5e-e15b-4777-971c-b9f7e34eeb4f"  >
<path style="stroke: rgb(0,0,0); stroke-width: 0; stroke-dasharray: none; stroke-linecap: butt; stroke-dashoffset: 0; stroke-linejoin: miter; stroke-miterlimit: 4; fill: rgb(0,0,0); fill-rule: nonzero; opacity: 1;" vector-effect="non-scaling-stroke"  transform=" translate(-350.07, -280)" d="M 396.73 319.54 L 443.398 335.079 L 443.398 514.069 C 443.398 528.721 448.60110000000003 541.5999999999999 456.07000000000005 549.674 C 462.30050000000006 556.3732 470.1170000000001 560.01 478.398 560.01 C 486.6832 560.01 494.5 556.3733 500.73 549.674 C 508.19480000000004 541.5998 513.398 528.721 513.398 514.069 L 513.398 305.9789999999999 C 513.398 282.2289999999999 504.25350000000003 257.02599999999995 490.25300000000004 239.29499999999993 C 480.10100000000006 226.43599999999992 467.40900000000005 217.49799999999993 453.9440000000001 214.67799999999994 C 454.15494000000007 214.72487399999994 360.12000000000006 190.80699999999993 360.12000000000006 190.80699999999993 C 359.1864100000001 190.54918999999992 358.20590000000004 190.43199999999993 357.24890000000005 190.43199999999993 C 341.24490000000003 190.43199999999993 326.72890000000007 205.71699999999993 326.72890000000007 226.08799999999994 L 326.72890000000007 392.49799999999993 C 326.72890000000007 407.2439999999999 331.9086000000001 420.23999999999995 339.35390000000007 428.36099999999993 C 345.5844000000001 435.15009999999995 353.42390000000006 438.8139999999999 361.72890000000007 438.8139999999999 C 370.0375000000001 438.8139999999999 377.8769000000001 435.1498999999999 384.1079000000001 428.36099999999993 C 391.5493000000001 420.2398999999999 396.72890000000007 407.2439999999999 396.72890000000007 392.49799999999993 z M 245.07000000000002 163.34000000000003 C 212.86700000000002 163.34000000000003 186.73400000000004 189.47300000000004 186.73400000000004 221.67600000000004 C 186.73400000000004 253.87500000000006 212.86700000000005 280.00800000000004 245.07000000000005 280.00800000000004 C 277.26900000000006 280.00800000000004 303.40200000000004 253.87500000000003 303.40200000000004 221.67600000000004 C 303.40200000000004 189.47300000000004 277.26900000000006 163.34000000000003 245.07000000000005 163.34000000000003 z M 348.71000000000004 139.12100000000004 C 348.71000000000004 139.12100000000004 373.398 129.36710000000005 373.398 99.17200000000004 C 373.398 85.96900000000004 366.9332 74.71900000000004 359.886 63.707000000000036 C 355.2688 56.496100000000034 350.06570000000005 49.519000000000034 350.06570000000005 40.84000000000003 C 350.06570000000005 27.285000000000032 360.37770000000006 22.45300000000003 360.37770000000006 22.45300000000003 C 366.3269000000001 19.956900000000033 369.15110000000004 13.12100000000003 366.67850000000004 7.191000000000031 C 364.18240000000003 1.2418000000000307 357.34260000000006 -1.5823999999999696 351.41650000000004 0.894100000000031 C 351.41650000000004 0.894100000000031 326.72850000000005 10.648000000000032 326.72850000000005 40.83910000000003 C 326.72850000000005 54.04610000000003 333.1933000000001 65.29210000000003 340.24050000000005 76.30810000000002 C 344.86160000000007 83.51510000000002 350.0647000000001 90.49210000000002 350.0647000000001 99.17110000000002 C 350.0647000000001 112.73010000000002 339.7487000000001 117.55810000000002 339.7487000000001 117.55810000000002 C 333.7995000000001 120.05810000000002 330.9753000000001 126.89400000000002 333.4518000000001 132.82010000000002 C 335.9479000000001 138.76930000000002 342.7838000000001 141.59350000000003 348.7098000000001 139.12090000000003 z M 407.04600000000005 139.12100000000004 C 407.04600000000005 139.12100000000004 431.7300000000001 129.36710000000005 431.7300000000001 99.17200000000004 C 431.7300000000001 85.96900000000004 425.2691000000001 74.71900000000004 418.2220000000001 63.707000000000036 C 413.6009000000001 56.496100000000034 408.3978000000001 49.519000000000034 408.3978000000001 40.84000000000003 C 408.3978000000001 27.285000000000032 418.7098000000001 22.45300000000003 418.7098000000001 22.45300000000003 C 424.6629000000001 19.956900000000033 427.48320000000007 13.12100000000003 425.01060000000007 7.191000000000031 C 422.51450000000006 1.2418000000000307 415.6786000000001 -1.5823999999999696 409.7526000000001 0.894100000000031 C 409.7526000000001 0.894100000000031 385.0646000000001 10.648000000000032 385.0646000000001 40.83910000000003 C 385.0646000000001 54.04610000000003 391.5255000000001 65.29210000000003 398.5726000000001 76.30810000000002 C 403.1937000000001 83.51510000000002 408.3968000000001 90.49210000000002 408.3968000000001 99.17110000000002 C 408.3968000000001 112.73010000000002 398.0848000000001 117.55810000000002 398.0848000000001 117.55810000000002 C 392.13560000000007 120.05810000000002 389.3114000000001 126.89400000000002 391.7840000000001 132.82010000000002 C 394.2801000000001 138.76930000000002 401.1160000000001 141.59350000000003 407.0460000000001 139.12090000000003 z M 290.37600000000003 139.12100000000004 C 290.37600000000003 139.12100000000004 315.064 129.36710000000005 315.064 99.17200000000004 C 315.064 85.96900000000004 308.5992 74.71900000000004 301.552 63.707000000000036 C 296.9309 56.496100000000034 291.7278 49.519000000000034 291.7278 40.84000000000003 C 291.7278 27.285000000000032 302.0398 22.45300000000003 302.0398 22.45300000000003 C 307.9929 19.956900000000033 310.8132 13.12100000000003 308.3406 7.191000000000031 C 305.8445 1.2418000000000307 299.0086 -1.5823999999999696 293.0826 0.894100000000031 C 293.0826 0.894100000000031 268.3946 10.648000000000032 268.3946 40.83910000000003 C 268.3946 54.04610000000003 274.85940000000005 65.29210000000003 281.9026 76.30810000000002 C 286.5237 83.51510000000002 291.7268 90.49210000000002 291.7268 99.17110000000002 C 291.7268 112.73010000000002 281.4148 117.55810000000002 281.4148 117.55810000000002 C 275.4656 120.05810000000002 272.64140000000003 126.89400000000002 275.11400000000003 132.82010000000002 C 277.61010000000005 138.76930000000002 284.4499 141.59350000000003 290.37600000000003 139.12090000000003 z" stroke-linecap="round" />
</g>
</svg>