<svg xmlns="http://www.w3.org/2000/svg" version="1.1" viewBox="-5.0 -10.0 110.0 135.0">
 <path d="m96.922 22.672c-0.17578 3.3242-0.61328 5.875-1.3125 7.4609-1.6641 3.7305-5.4844 2.6797-7.6758 6.7227-0.60156 0.95312-0.8125 1.875-0.79297 3.0156 3.6719 9.1719-0.97266 17.992-7.5625 21.754-8.5977 3.418-15.277 2.8477-24.312 3.0273-1.793-2.9883-3.6211-7.1172-6.5312-8.457-2.5156-0.92187-5.4609 0.38672-7.1875 1.4688-0.39844 0.25391-0.56641 0.81641-0.375 1.25 0.94531 2.0742 1.5898 4.0625 2.1875 5.9922-10.941-0.015625-23.734 0.35547-33.406 0.20312-1.6992-0.39844-2.9688-0.95312-3.0312-2.5469 5.8516 0.57031 12.457 1.2695 18.219 1.25 4.5781-0.22266 10.777-0.15234 13.719-3.6836 0.29297-0.33594 0.24219-0.84375-0.003906-1.2109-0.60156-0.64453-0.97656-0.38281-1.5586-0.039063-3.3789 2.8633-8.2422 2.9102-12.156 2.9336-5.6797 0.019531-12.355-0.67578-18.281-1.25-1.918-5.0664-3.7539-10.453-3.7812-15.043 0-8.6758 3.9883-14.031 9.375-17.262 5.1914-2.832 9.6367-3.9648 17.625-3.7148 15.738 0 23.883 6.0391 29.656 12.172 4.8516 5.1602 9.0312 12.66 15.344 12.797 6.0156-0.51953 8.0391-3.668 8-8.9883 0-0.875-0.39844-1.7148-1-2.2148-2.2305-1.4609-5.2266-1.5078-7.4688-2.1211-4.7422-1.3633-7.293-4.7812-8.0625-8.9883 2.4531 0.36719 5.0078-0.38281 7.2188-0.8125 2.8047-0.56641 5.9688-0.49609 7.4688 1.6836 0.39453 0.59375 1.4648 0.5 1.75-0.15625 1.2031-2.7461 3.5547-3.1367 6-3.2461 3.0938-0.41797 5.8477-0.70703 7.9375-1.9961zm-59 24.223c-2.1133-0.17578-4.0859 1.4258-5.6875 4.0898-0.19922 0.31641-0.19922 0.74609 0 1.0625 1.1406 1.7109 2.8672 2.8789 4.6875 3.1836 1.8203 0.30469 3.8008-0.38672 5-2.1836 0.14062-0.20703 0.19531-0.46875 0.15625-0.71875-0.28125-2.7266-1.6523-5.1758-4.1562-5.4297zm-0.1875 1.9648c1.5234 0.47656 1.8906 2.0469 2.1875 3.3711-0.75391 0.87891-1.6445 1.2031-2.6875 1.0312-0.98828-0.16406-1.9883-0.85938-2.8125-1.8086 1.2539-1.7695 2.5273-2.6562 3.3125-2.5898zm-0.3125 0.3125c-0.55078 0-1 0.89453-1 1.9961 0 1.1016 0.44922 1.9961 1 1.9961s1-0.89453 1-1.9961c0-1.1016-0.44922-1.9961-1-1.9961zm-0.34375 1.3438c0.18359 0 0.34375 0.28906 0.34375 0.65625s-0.16016 0.65625-0.34375 0.65625-0.34375-0.28906-0.34375-0.65625 0.16016-0.65625 0.34375-0.65625zm10.875 7.5234c3.2109 2.3984 4.5703 5.9805 6.4414 9.125 1.9141 3.1992 4.3867 6.8164 7.9961 10.168-5.1484-0.25781-10.863-0.69141-14-5.3047-2.1562-3.1211-2.8555-7.7773-5.0625-13.016 1.7109-1.0742 3.3398-1.3164 4.625-0.96875zm-40.688 13.234c1.5508-1.1797 3.0234-2.4023 4.1875-3.7773 3.0625 0.097656 6.2031-0.015625 8.9492-0.03125-3.4336 2.4375-9.7344 3.582-13.137 3.8086z"/>
</svg>