<?xml version="1.0" encoding="UTF-8" standalone="no" ?>
<!DOCTYPE svg PUBLIC "-//W3C//DTD SVG 1.1//EN" "http://www.w3.org/Graphics/SVG/1.1/DTD/svg11.dtd">
<svg xmlns="http://www.w3.org/2000/svg" xmlns:xlink="http://www.w3.org/1999/xlink" version="1.1" width="1080" height="1080" viewBox="0 0 1080 1080" xml:space="preserve">
<desc>Created with Fabric.js 5.2.4</desc>
<defs>
</defs>
<g transform="matrix(1 0 0 1 540 540)" id="215822ce-9727-4d59-8262-fbe898edf3d0"  >
<rect style="stroke: none; stroke-width: 1; stroke-dasharray: none; stroke-linecap: butt; stroke-dashoffset: 0; stroke-linejoin: miter; stroke-miterlimit: 4; fill: rgb(255,255,255); fill-rule: nonzero; opacity: 1; visibility: hidden;" vector-effect="non-scaling-stroke"  x="-540" y="-540" rx="0" ry="0" width="1080" height="1080" />
</g>
<g transform="matrix(1 0 0 1 540 540)" id="a3d6bf3d-6aed-4a73-90a0-993295f23410"  >
</g>
<g transform="matrix(1.37 0 0 1.37 538.39 541.62)"  >
<g style="" vector-effect="non-scaling-stroke"   >
		<g transform="matrix(1.33 0 0 1.33 26.09 -275.81)"  >
<path style="stroke: none; stroke-width: 1; stroke-dasharray: none; stroke-linecap: butt; stroke-dashoffset: 0; stroke-linejoin: miter; stroke-miterlimit: 4; fill: rgb(0,0,0); fill-rule: nonzero; opacity: 1;" vector-effect="non-scaling-stroke"  transform=" translate(-369.56, -73.12)" d="M 371.45 134.96 L 426.388 80.022 C 434.73179999999996 71.7329 434.78639999999996 59.245000000000005 426.55597 51.069 L 393.68097 18.143 C 385.00127 9.4633 371.39197 8.9594 363.38397 17.021900000000002 L 306.43496999999996 73.91990000000001 C 307.05215999999996 74.31052000000001 307.61076999999995 74.64646000000002 308.22796999999997 75.04100000000001 C 324.80197 86.18200000000002 347.93097 109.143 371.45097 134.959 z" stroke-linecap="round" />
</g>
		<g transform="matrix(1.33 0 0 1.33 129.28 -185.14)"  >
<path style="stroke: none; stroke-width: 1; stroke-dasharray: none; stroke-linecap: butt; stroke-dashoffset: 0; stroke-linejoin: miter; stroke-miterlimit: 4; fill: rgb(0,0,0); fill-rule: nonzero; opacity: 1;" vector-effect="non-scaling-stroke"  transform=" translate(-446.95, -141.13)" d="M 378.95 143.3 C 399.895 166.65200000000002 420.55899999999997 191.405 436.852 211.39800000000002 L 508.7 139.60500000000002 C 516.9891 131.31590000000003 517.0438 118.82800000000002 508.86797 110.65200000000002 L 475.93797 77.72200000000001 C 471.84817 73.63220000000001 466.25047 71.17120000000001 460.59397 70.89000000000001 C 454.76977 70.60875000000001 449.56297 72.68300000000002 445.64097000000004 76.60090000000001 L 432.25797000000006 89.9839 z" stroke-linecap="round" />
</g>
		<g transform="matrix(1.33 0 0 1.33 194.63 -60.63)"  >
<path style="stroke: none; stroke-width: 1; stroke-dasharray: none; stroke-linecap: butt; stroke-dashoffset: 0; stroke-linejoin: miter; stroke-miterlimit: 4; fill: rgb(0,0,0); fill-rule: nonzero; opacity: 1;" vector-effect="non-scaling-stroke"  transform=" translate(-495.97, -234.51)" d="M 509.04 155.12 L 443.97 220.19 C 458.083 237.663 467.658 249.983 468.89200000000005 251.60399999999998 C 470.7397 254.0102 470.4037000000001 257.4282 468.0521600000001 259.3306 C 452.4271600000001 272.37760000000003 436.29816000000005 279.1006 420.22816000000006 281.3926 L 448.6771600000001 309.8416 C 452.54046000000005 313.7049 457.5794600000001 315.7791 463.40416000000005 315.49780000000004 C 469.06036000000006 315.27514 474.43516000000005 312.86500000000007 478.58016000000003 308.7205 L 565.43516 221.8655 C 573.72426 213.5764 573.83356 201.1465 565.60313 192.9125 L 532.67313 159.9825 C 526.45833 153.7677 516.9931300000001 151.80669999999998 509.09913 155.0528 C 509.09913 155.119206 509.040536 155.060612 509.040536 155.119206 z" stroke-linecap="round" />
</g>
		<g transform="matrix(1.33 0 0 1.33 262.14 53.55)"  >
<path style="stroke: none; stroke-width: 1; stroke-dasharray: none; stroke-linecap: butt; stroke-dashoffset: 0; stroke-linejoin: miter; stroke-miterlimit: 4; fill: rgb(0,0,0); fill-rule: nonzero; opacity: 1;" vector-effect="non-scaling-stroke"  transform=" translate(-546.6, -320.15)" d="M 610.79 289.18 L 577.524 255.91400000000002 C 573.3795 251.76950000000002 568.2271 249.69920000000002 563.02 249.69920000000002 C 557.8677 249.69920000000002 552.661 251.76950000000002 548.516 255.91400000000002 L 482.54699999999997 321.88300000000004 C 474.03529999999995 330.39470000000006 473.75399999999996 343.44200000000006 481.87512 351.56300000000005 L 515.14112 384.82900000000006 C 523.20362 392.89150000000006 536.70012 392.4462000000001 545.27012 383.87588000000005 L 611.12512 318.07488000000006 C 619.4103200000001 309.7896800000001 619.2423200000001 297.6368800000001 610.78918 289.1798800000001 z" stroke-linecap="round" />
</g>
		<g transform="matrix(1.33 0 0 1.33 -69.38 42.72)"  >
<path style="stroke: none; stroke-width: 1; stroke-dasharray: none; stroke-linecap: butt; stroke-dashoffset: 0; stroke-linejoin: miter; stroke-miterlimit: 4; fill: rgb(0,0,0); fill-rule: nonzero; opacity: 1;" vector-effect="non-scaling-stroke"  transform=" translate(-297.96, -312.02)" d="M 473.98 359.46 C 464.90970000000004 350.4444 462.668 337.62 466.812 326.308 C 465.85888 326.42127999999997 464.85110000000003 326.64394 463.8432 326.69862 C 463.39398 326.69862 462.94867000000005 326.753307 462.49940000000004 326.753307 C 454.26890000000003 326.753307 446.59740000000005 323.561907 440.77240000000006 317.737707 L 407.3384000000001 284.30370700000003 C 406.7212100000001 283.74511700000005 406.3306000000001 283.014607 406.0493000000001 282.288107 C 363.3773000000001 281.897487 323.17030000000005 253.28010700000002 298.86930000000007 231.72210700000002 C 316.11530000000005 296.738107 266.83830000000006 381.86210700000004 264.3733000000001 386.062107 C 262.8069000000001 388.749607 259.3889000000001 389.648007 256.7014000000001 388.07770700000003 C 254.0686000000001 386.51130700000004 253.1741000000001 383.038607 254.74050000000008 380.40580700000004 C 255.4123700000001 379.23000700000006 320.5955000000001 266.5558070000001 275.0685000000001 207.92580700000005 C 273.16620000000006 205.51960700000004 273.55680000000007 202.04690700000006 275.96303000000006 200.14060700000005 C 278.3146300000001 198.17970700000004 281.7872300000001 198.57420700000006 283.74823000000004 200.86716700000005 C 284.70135000000005 202.04296700000006 378.67023000000006 312.19716700000004 456.61823000000004 254.12516700000006 C 437.68823000000003 229.93416700000006 345.00823 113.23516700000008 301.9482300000001 84.33516700000007 C 260.90123000000006 56.78416700000007 224.72523000000007 92.96016700000007 128.00823000000008 189.72516700000006 L 117.93023000000008 199.86216700000006 C 106.11423000000008 211.62416700000006 111.48883000000008 242.25316700000005 116.75443000000008 271.8781670000001 C 121.45753000000009 298.5891670000001 125.88333000000009 323.84716700000007 119.10603000000009 340.03016700000006 C 116.02793000000008 347.42076700000007 107.57103000000009 357.44416700000005 93.17603000000008 370.66316700000004 C 86.62523000000009 376.76866700000005 82.87103000000008 385.05416700000006 82.76203000000008 394.06916700000005 C 82.59406000000008 403.08476700000006 86.06673000000008 411.59616700000004 92.44953000000008 417.9791670000001 L 214.80953000000008 539.159167 C 221.02433000000008 545.319367 229.20053000000007 548.678667 237.87953000000007 548.678667 L 238.10219000000006 548.678667 C 246.83659000000006 548.623979 255.07119000000006 545.151367 261.2311900000001 538.936467 C 266.2155900000001 533.897367 271.9261900000001 528.014467 278.42219000000006 521.350467 C 299.87119000000007 499.229467 333.36019000000005 502.924467 362.87119000000007 506.229467 C 378.77319000000006 507.963867 393.7811900000001 509.643567 403.5821900000001 506.678687 C 436.2301900000001 496.87788700000004 498.55919000000006 416.573687 513.1721900000001 397.248687 C 511.0432900000001 396.018187 509.0276900000001 394.561187 507.2346900000001 392.71348700000004 z M 409.132 401.347 C 408.29216 403.5306 406.1632 404.8743 403.925 404.8743 C 403.25312 404.8743 402.52660000000003 404.76102000000003 401.85470000000004 404.48368 C 401.29611000000006 404.26102 342.7767 381.46768 311.07770000000005 403.19458 C 308.50350000000003 404.92897999999997 305.03080000000006 404.31568 303.2925000000001 401.73758 C 301.5581000000001 399.21808 302.17140000000006 395.69068 304.74950000000007 393.95238 C 341.31550000000004 368.86238000000003 403.3665000000001 393.05785000000003 405.99950000000007 394.06566 C 408.8550000000001 395.24145999999996 410.31200000000007 398.49145999999996 409.1362000000001 401.34686 z" stroke-linecap="round" />
</g>
</g>
</g>
</svg>