<?xml version="1.0" encoding="UTF-8" standalone="no" ?>
<!DOCTYPE svg PUBLIC "-//W3C//DTD SVG 1.1//EN" "http://www.w3.org/Graphics/SVG/1.1/DTD/svg11.dtd">
<svg xmlns="http://www.w3.org/2000/svg" xmlns:xlink="http://www.w3.org/1999/xlink" version="1.1" width="1080" height="1080" viewBox="0 0 1080 1080" xml:space="preserve">
<g transform="matrix(1 0 0 1 540 540)" id="79c33914-0196-426e-9fda-1b0d6bd144af"  >
</g>
<g transform="matrix(1 0 0 1 540 540)" id="08c60af7-f305-4c97-998a-ff36bcadb774"  >
<rect style="stroke: none; stroke-width: 1; stroke-dasharray: none; stroke-linecap: butt; stroke-dashoffset: 0; stroke-linejoin: miter; stroke-miterlimit: 4; fill: rgb(255,255,255); fill-rule: nonzero; opacity: 1; visibility: hidden;" vector-effect="non-scaling-stroke"  x="-540" y="-540" rx="0" ry="0" width="1080" height="1080" />
</g>
<g transform="matrix(0.18 0 0 -0.18 540 540)"  >
<path style="stroke: none; stroke-width: 1; stroke-dasharray: none; stroke-linecap: butt; stroke-dashoffset: 0; stroke-linejoin: miter; stroke-miterlimit: 4; fill: rgb(0,0,0); fill-rule: nonzero; opacity: 1;" vector-effect="non-scaling-stroke"  transform=" translate(-3514.76, -3520)" d="M 2007 6194 C 1865 5974 1713 5571 1641 5224 C 1588 4966 1567 4710 1582 4493 L 1591 4358 L 1527 4262 C 1441 4134 1381 4011 1311 3821 C 1209 3547 1144 3441 996 3313 C 969 3289 952 3270 957 3270 C 986 3270 1145 3302 1198 3319 C 1232 3329 1260 3337 1260 3335 C 1260 3333 1240 3301 1215 3263 C 1150 3166 1077 3020 1041 2916 C 1024 2867 1011 2826 1013 2824 C 1015 2822 1031 2842 1049 2870 C 1084 2923 1181 3043 1185 3038 C 1187 3036 1178 3004 1165 2965 C 1101 2775 1122 2457 1211 2265 L 1235 2215 L 1241 2295 C 1253 2436 1307 2544 1429 2672 C 1475 2720 1516 2760 1520 2760 C 1524 2760 1523 2734 1518 2703 C 1506 2629 1514 2457 1534 2362 C 1569 2201 1656 2001 1757 1853 C 1810 1775 1949 1606 1955 1612 C 1957 1614 1952 1636 1943 1660 C 1922 1722 1922 1850 1944 1925 C 1954 1958 1976 2018 1992 2059 L 2023 2133 L 2044 2059 C 2071 1967 2111 1892 2158 1848 C 2183 1825 2191 1821 2185 1835 C 2167 1879 2167 2067 2185 2140 C 2194 2179 2206 2212 2210 2215 C 2214 2217 2220 2182 2223 2137 C 2239 1930 2351 1706 2525 1535 C 2599 1463 2738 1354 2729 1376 C 2727 1381 2713 1408 2699 1435 C 2684 1463 2665 1509 2656 1539 C 2640 1595 2634 1740 2648 1740 C 2652 1740 2663 1728 2672 1713 C 2691 1680 2809 1566 2938 1455 C 3127 1293 3238 1125 3325 871 L 3357 778 L 3374 866 C 3397 980 3428 1063 3476 1135 L 3514 1191 L 3532 1168 C 3572 1117 3622 998 3647 894 L 3674 784 L 3703 870 C 3793 1137 3900 1287 4161 1511 C 4232 1571 4311 1647 4337 1680 C 4395 1752 4405 1744 4397 1631 C 4392 1549 4366 1470 4325 1409 C 4311 1388 4300 1368 4300 1365 C 4300 1352 4447 1469 4513 1534 C 4685 1706 4807 1958 4812 2151 C 4813 2189 4817 2220 4820 2220 C 4833 2220 4862 2097 4867 2020 C 4870 1971 4867 1922 4857 1880 C 4848 1844 4843 1814 4845 1812 C 4847 1810 4867 1832 4891 1862 C 4942 1926 4987 2019 4996 2077 C 4999 2101 5006 2120 5010 2120 C 5023 2120 5079 1976 5095 1900 C 5118 1793 5113 1728 5076 1625 C 5065 1596 5165 1703 5231 1793 C 5350 1952 5438 2132 5488 2319 C 5511 2404 5514 2435 5514 2586 L 5515 2757 L 5553 2726 C 5681 2624 5788 2423 5793 2276 C 5794 2246 5799 2225 5803 2229 C 5823 2249 5880 2437 5895 2535 C 5921 2699 5907 2868 5855 3015 C 5845 3043 5925 2957 5972 2888 C 5993 2856 6013 2830 6015 2830 C 6021 2830 5990 2930 5963 2995 C 5936 3059 5854 3210 5810 3275 C 5766 3341 5766 3339 5818 3323 C 5864 3309 6050 3270 6072 3270 C 6078 3270 6064 3287 6039 3307 C 5896 3427 5822 3548 5730 3805 C 5649 4033 5574 4183 5480 4308 C 5444 4354 5443 4358 5451 4411 C 5462 4489 5461 4779 5450 4890 C 5415 5224 5322 5580 5186 5894 C 5127 6030 5045 6186 5007 6234 L 4984 6262 L 4926 6185 C 4808 6028 4448 5630 4233 5418 C 4166 5351 4164 5350 4130 5360 C 4056 5381 3909 5365 3837 5328 C 3816 5318 3795 5311 3792 5315 C 3782 5324 3844 5441 3889 5497 C 3912 5526 3959 5570 3993 5596 C 4045 5635 4050 5642 4025 5636 C 3928 5612 3689 5469 3576 5368 L 3517 5314 L 3461 5368 C 3361 5464 3186 5570 3030 5629 L 2975 5650 L 3005 5628 C 3103 5557 3218 5411 3245 5322 L 3252 5299 L 3210 5320 C 3129 5361 2976 5382 2903 5361 C 2872 5352 2869 5354 2758 5469 C 2482 5755 2275 5983 2150 6141 C 2105 6198 2064 6249 2060 6254 C 2055 6259 2031 6232 2007 6194 z M 2390 5540 C 2443 5455 2521 5323 2564 5248 C 2642 5110 2825 4741 2818 4736 C 2817 4734 2776 4726 2728 4717 C 2680 4707 2608 4688 2568 4672 L 2495 4645 L 2625 4638 C 2773 4630 2874 4607 2982 4557 C 3168 4470 3275 4345 3441 4016 L 3512 3877 L 3562 3976 C 3622 4093 3718 4254 3771 4326 C 3910 4515 4131 4624 4405 4638 L 4535 4645 L 4463 4673 C 4423 4689 4353 4709 4308 4717 C 4262 4726 4224 4734 4222 4736 C 4217 4739 4385 5071 4466 5218 C 4611 5479 4940 6000 4960 6000 C 4971 6000 5054 5802 5112 5635 C 5289 5133 5344 4613 5255 4305 L 5230 4220 L 5314 4120 C 5397 4020 5520 3850 5520 3833 C 5520 3829 5500 3826 5475 3828 C 5450 3830 5418 3829 5404 3826 L 5378 3819 L 5403 3799 C 5460 3755 5649 3505 5636 3492 C 5634 3490 5606 3502 5574 3518 C 5488 3561 5388 3597 5276 3625 C 5138 3660 5125 3658 5198 3610 C 5379 3494 5594 3223 5691 2991 C 5723 2915 5765 2781 5758 2775 C 5756 2774 5729 2801 5698 2836 C 5563 2986 5381 3122 5222 3190 C 5132 3229 5065 3248 5072 3234 C 5074 3229 5097 3182 5122 3130 C 5286 2796 5322 2466 5228 2181 L 5207 2117 L 5183 2201 C 5100 2491 4925 2640 4668 2640 C 4591 2640 4501 2626 4467 2608 C 4450 2599 4450 2597 4470 2570 C 4503 2523 4539 2434 4560 2346 C 4594 2207 4583 2066 4528 1916 L 4507 1858 L 4474 1950 C 4456 2001 4423 2073 4401 2110 C 4359 2180 4250 2323 4243 2317 C 4241 2315 4246 2289 4254 2259 C 4304 2064 4261 1887 4133 1770 C 4034 1680 3929 1645 3771 1652 C 3694 1655 3664 1661 3617 1682 C 3541 1718 3537 1732 3589 1780 C 3634 1821 3669 1888 3670 1935 L 3671 1965 L 3686 1938 C 3699 1913 3707 1910 3748 1910 C 3819 1910 3868 1950 3910 2042 C 3933 2093 3936 2148 3915 2177 C 3875 2234 3723 2270 3520 2270 C 3320 2270 3176 2238 3126 2182 C 3085 2135 3122 2005 3196 1941 C 3225 1915 3239 1910 3280 1910 C 3324 1910 3331 1913 3344 1938 L 3359 1965 L 3360 1937 C 3360 1891 3388 1838 3438 1787 C 3493 1731 3490 1718 3414 1680 C 3373 1659 3347 1655 3259 1652 C 3099 1646 2983 1686 2889 1780 C 2772 1897 2733 2079 2783 2267 C 2791 2296 2795 2320 2793 2320 C 2786 2320 2724 2246 2682 2186 C 2626 2108 2577 2011 2554 1935 C 2544 1902 2533 1871 2530 1867 C 2521 1856 2474 1999 2459 2084 C 2436 2218 2464 2373 2536 2518 C 2560 2565 2578 2605 2577 2607 C 2564 2619 2440 2640 2378 2640 C 2093 2640 1912 2475 1835 2145 C 1828 2116 1827 2116 1808 2170 C 1766 2292 1755 2361 1755 2505 C 1756 2582 1761 2672 1768 2705 C 1801 2856 1887 3095 1947 3198 C 1961 3222 1971 3242 1969 3244 C 1961 3252 1821 3199 1741 3158 C 1614 3095 1498 3007 1378 2887 C 1318 2828 1270 2781 1270 2784 C 1270 2807 1338 2986 1373 3056 C 1490 3288 1651 3480 1834 3609 C 1867 3631 1887 3650 1879 3650 C 1816 3650 1545 3564 1441 3510 C 1417 3498 1397 3490 1395 3492 C 1386 3501 1509 3668 1577 3740 L 1652 3820 L 1609 3822 C 1585 3823 1553 3823 1538 3822 C 1522 3821 1510 3823 1510 3826 C 1510 3840 1643 4022 1724 4118 L 1810 4220 L 1785 4311 C 1690 4666 1765 5217 1985 5785 C 2008 5846 2040 5922 2054 5954 L 2081 6014 L 2187 5855 C 2245 5767 2337 5626 2390 5540 z M 3592 1605 C 3673 1578 3765 1560 3828 1560 C 3901 1560 3906 1549 3858 1495 C 3788 1415 3656 1375 3485 1383 C 3367 1388 3291 1410 3217 1458 C 3186 1479 3140 1535 3140 1552 C 3140 1555 3182 1560 3233 1563 C 3290 1567 3354 1579 3400 1594 C 3487 1623 3532 1626 3592 1605 z" stroke-linecap="round" />
</g>
<g transform="matrix(0.18 0 0 -0.18 296.33 265.11)"  >
<path style="stroke: none; stroke-width: 1; stroke-dasharray: none; stroke-linecap: butt; stroke-dashoffset: 0; stroke-linejoin: miter; stroke-miterlimit: 4; fill: rgb(0,0,0); fill-rule: nonzero; opacity: 1;" vector-effect="non-scaling-stroke"  transform=" translate(-2185, -5033.69)" d="M 2101 5727 C 2100 5723 2080 5640 2055 5542 C 2007 5352 1970 5173 1970 5135 C 1970 5094 1953 5099 1935 5146 C 1926 5171 1916 5189 1913 5186 C 1900 5174 1964 4864 1992 4805 C 1997 4794 1981 4806 1956 4832 C 1931 4858 1910 4873 1910 4865 C 1910 4816 1970 4618 2009 4540 C 2035 4489 2132 4340 2140 4340 C 2143 4340 2161 4361 2180 4387 C 2199 4412 2246 4460 2285 4493 C 2323 4526 2361 4558 2369 4565 C 2380 4576 2375 4588 2337 4637 C 2291 4696 2209 4832 2216 4839 C 2218 4841 2241 4823 2267 4800 C 2311 4761 2381 4722 2438 4705 C 2455 4700 2460 4703 2460 4717 C 2460 4743 2367 5017 2267 5285 C 2220 5412 2163 5565 2141 5625 C 2119 5686 2101 5732 2101 5727 z" stroke-linecap="round" />
</g>
<g transform="matrix(0.18 0 0 -0.18 765.24 264.37)"  >
<path style="stroke: none; stroke-width: 1; stroke-dasharray: none; stroke-linecap: butt; stroke-dashoffset: 0; stroke-linejoin: miter; stroke-miterlimit: 4; fill: rgb(0,0,0); fill-rule: nonzero; opacity: 1;" vector-effect="non-scaling-stroke"  transform=" translate(-4857.27, -5038)" d="M 4923 5705 C 4917 5688 4860 5531 4797 5355 C 4629 4886 4568 4700 4584 4700 C 4611 4700 4714 4752 4767 4792 L 4833 4843 L 4794 4770 C 4773 4731 4734 4671 4708 4639 C 4681 4606 4660 4578 4660 4576 C 4660 4575 4687 4552 4720 4526 C 4753 4499 4807 4447 4840 4409 L 4899 4341 L 4928 4376 C 5006 4471 5108 4706 5126 4835 L 5133 4885 L 5086 4835 C 5060 4808 5042 4794 5046 4805 C 5086 4915 5137 5154 5127 5183 C 5125 5190 5115 5173 5105 5147 C 5085 5094 5070 5086 5070 5129 C 5070 5181 4999 5502 4942 5705 L 4934 5735 L 4923 5705 z" stroke-linecap="round" />
</g>
<g transform="matrix(0.18 0 0 -0.18 341.7 579.84)"  >
<path style="stroke: none; stroke-width: 1; stroke-dasharray: none; stroke-linecap: butt; stroke-dashoffset: 0; stroke-linejoin: miter; stroke-miterlimit: 4; fill: rgb(0,0,0); fill-rule: nonzero; opacity: 1;" vector-effect="non-scaling-stroke"  transform=" translate(-2431.41, -3238.71)" d="M 1730 3859 C 2035 3767 2243 3610 2369 3380 C 2391 3339 2410 3300 2410 3293 C 2410 3287 2397 3273 2380 3263 C 2364 3254 2350 3243 2350 3239 C 2350 3235 2410 3194 2483 3149 C 2645 3048 2758 2940 2807 2840 C 2840 2773 2865 2653 2855 2619 C 2841 2577 2862 2604 2899 2678 C 2956 2792 2974 2859 2967 2944 C 2964 2983 2958 3026 2954 3039 L 2947 3063 L 2989 3039 C 3077 2990 3135 2898 3164 2765 L 3178 2695 L 3179 2790 C 3181 2968 3130 3177 3056 3298 C 3017 3361 2949 3431 2880 3477 C 2677 3613 2163 3799 1821 3860 C 1680 3885 1644 3884 1730 3859 z M 2690 3425 C 2695 3375 2700 3364 2733 3334 C 2775 3296 2829 3288 2868 3316 C 2888 3330 2892 3330 2921 3310 C 2956 3284 2955 3272 2911 3246 C 2791 3176 2637 3242 2595 3381 C 2580 3433 2575 3502 2586 3512 C 2589 3515 2612 3510 2638 3500 L 2685 3482 L 2690 3425 z" stroke-linecap="round" />
</g>
<g transform="matrix(0.18 0 0 -0.18 723.08 580.75)"  >
<path style="stroke: none; stroke-width: 1; stroke-dasharray: none; stroke-linecap: butt; stroke-dashoffset: 0; stroke-linejoin: miter; stroke-miterlimit: 4; fill: rgb(0,0,0); fill-rule: nonzero; opacity: 1;" vector-effect="non-scaling-stroke"  transform=" translate(-4604.74, -3233.67)" d="M 5228 3864 C 4979 3826 4554 3687 4310 3565 C 4113 3467 4024 3391 3958 3263 C 3892 3137 3849 2945 3851 2781 L 3852 2685 L 3865 2750 C 3894 2889 3939 2969 4023 3025 C 4051 3044 4076 3058 4078 3055 C 4080 3053 4077 3037 4071 3019 C 4041 2932 4074 2767 4147 2640 L 4177 2588 L 4182 2678 C 4185 2756 4191 2777 4220 2837 C 4271 2937 4383 3045 4547 3150 C 4620 3197 4680 3237 4680 3240 C 4680 3243 4664 3255 4645 3268 L 4610 3290 L 4636 3343 C 4761 3589 5010 3784 5290 3856 C 5401 3884 5375 3887 5228 3864 z M 4447 3444 C 4436 3325 4367 3242 4258 3216 C 4219 3207 4139 3227 4105 3255 L 4075 3279 L 4102 3307 C 4129 3334 4130 3334 4159 3317 C 4195 3296 4242 3295 4279 3315 C 4315 3333 4353 3408 4348 3451 C 4345 3479 4349 3483 4383 3495 C 4404 3502 4424 3511 4427 3514 C 4444 3531 4452 3501 4447 3444 z" stroke-linecap="round" />
</g>
</svg>
