<svg xmlns="http://www.w3.org/2000/svg" xmlns:xlink="http://www.w3.org/1999/xlink" version="1.1" x="0px" y="0px" viewBox="0 0 100 125" enable-background="new 0 0 100 100" xml:space="preserve"><g><path d="M90.699,52.821c-1.648-4.892-5.23-8.426-8.477-12.256c2.232,1.112,4.463,2.225,6.695,3.338   c-1.389-2.614-3.213-4.881-5.188-7.029c-1.975-2.145-4.107-4.103-6.832-5.575c3.023,0.487,5.721,1.394,8.191,2.96   c-1.256-1.611-2.715-2.979-4.471-4.117c2.064-1.283,3.355-3.075,4.205-5.352c-1.15,0.232-2.207,0.447-3.262,0.662   c2.576-2.747,2.844-5.889,1.85-9.324c-0.41,0.68-0.795,1.314-1.182,1.955c-0.15-1.711-0.236-3.371-0.453-5.016   c-0.408-3.108-1.359-6.068-2.559-8.96c-1.17-2.819-3.379-2.472-4.938-0.925c-2.262,2.244-4.508,4.503-6.777,6.738   c-1.547,1.523-3.125,3.018-4.785,4.479c0.621-1.541,1.244-3.081,1.875-4.644c-2.037-0.212-5.84,1.384-9.746,4.06   c-0.624-2.525,0.252-4.648,1.654-6.848C52.334,9.046,50,12.26,50,12.26s-2.334-3.214-6.502-5.292   c1.401,2.199,2.278,4.322,1.654,6.848c-3.907-2.676-7.709-4.271-9.746-4.06c0.631,1.563,1.253,3.103,1.875,4.644   c-1.66-1.461-3.237-2.955-4.785-4.479c-2.27-2.235-4.516-4.494-6.777-6.738c-1.558-1.547-3.768-1.895-4.938,0.925   c-1.199,2.892-2.15,5.852-2.559,8.96c-0.216,1.645-0.303,3.305-0.453,5.016c-0.387-0.641-0.771-1.275-1.181-1.955   c-0.994,3.436-0.728,6.577,1.85,9.324c-1.056-0.215-2.112-0.43-3.264-0.662c0.851,2.276,2.142,4.068,4.207,5.352   c-1.758,1.139-3.215,2.506-4.472,4.117c2.471-1.566,5.169-2.473,8.191-2.96c-2.725,1.473-4.857,3.431-6.831,5.575   c-1.976,2.148-3.799,4.415-5.188,7.029c2.231-1.113,4.463-2.226,6.694-3.338c-3.246,3.83-6.828,7.364-8.477,12.256   c0.736-0.59,1.398-1.252,2.119-1.842c0.719-0.586,1.496-1.1,2.248-1.645c-0.851,4.047-1.307,8.02-0.904,12.077   c1.313-2.014,2.731-3.901,4.632-5.398c-1.497,3.706-2.259,7.54-2.302,11.515c0.424-0.615,0.761-1.264,1.161-1.869   c0.403-0.607,0.836-1.203,1.315-1.752c0.463-0.529,1.003-0.993,1.51-1.485c-1.113,4.022-0.686,7.72,1.763,11.111   c1.59,2.202,3.522,4.058,5.69,5.679c0.136,0.102,0.299,0.166,0.449,0.248c-1.298-1.674-2.27-3.436-2.538-5.537   c-0.261-2.047-0.038-4.031,0.679-5.959c-0.01,2.406,0.382,4.184,1.482,6.408c1.865,3.77,4.532,6.939,7.445,9.922   c0.033,0.033,0.102,0.031,0.189,0.054c-2.506-3.763-2.362-7.613-1.624-9.253c0.935,2.604,2.519,4.747,4.408,6.701   c1.099,1.136,1.796,2.475,1.604,4.125c-0.043,0.378-0.188,0.744-0.287,1.117c0.067,0.029,1.087-1.662,1.523-2.523   c1.015,3.027,0.839,9.465,0.928,9.488c1.114-1.818,2.229-3.635,3.373-5.502c2.299,2.965,5.808,9.555,5.834,9.498   c0.026,0.057,3.535-6.533,5.834-9.498c1.145,1.867,2.258,3.684,3.373,5.502c0.088-0.023-0.088-6.461,0.928-9.488   c0.436,0.861,1.455,2.553,1.523,2.523c-0.1-0.373-0.244-0.739-0.287-1.117c-0.191-1.65,0.506-2.989,1.604-4.125   c1.891-1.954,3.475-4.098,4.408-6.701c0.74,1.64,0.883,5.49-1.623,9.253c0.088-0.022,0.156-0.021,0.189-0.054   c2.914-2.982,5.58-6.152,7.445-9.922c1.102-2.225,1.492-4.002,1.482-6.408c0.717,1.928,0.939,3.912,0.678,5.959   c-0.268,2.102-1.238,3.863-2.537,5.537c0.15-0.082,0.314-0.146,0.449-0.248c2.168-1.621,4.102-3.477,5.691-5.679   c2.447-3.392,2.875-7.089,1.762-11.111c0.508,0.492,1.047,0.956,1.51,1.485c0.48,0.549,0.912,1.145,1.316,1.752   c0.4,0.605,0.736,1.254,1.16,1.869c-0.043-3.975-0.805-7.809-2.301-11.515c1.9,1.497,3.318,3.385,4.631,5.398   c0.402-4.058-0.053-8.03-0.904-12.077c0.752,0.545,1.529,1.059,2.248,1.645C89.301,51.569,89.963,52.231,90.699,52.821z    M66.563,16.97c0.021,0.014-1.932,2.86-2.932,4.27c0.24-0.095,0.422-0.24,0.594-0.396c2.273-2.061,3.955-4.587,5.621-7.124   c2.006-3.055,4.002-6.118,6.021-9.164c0.227-0.34,0.582-0.594,0.877-0.888c0.246,0.361,0.572,0.691,0.729,1.088   c1.02,2.561,1.83,5.189,2.277,7.912c0.334,2.035,0.652,4.09,0.285,6.155c-0.152,0.86-0.465,1.692-0.744,2.679   c0.93-0.565,1.799-1.094,2.668-1.623c-0.506,0.791-1.057,1.568-1.75,2.185c-0.697,0.618-1.537,1.077-2.313,1.605   c0.021,0.053,1.963-0.62,2.891-1.001c-1.336,1.791-3.021,3.177-5.299,4.007c1.766,0.86,3.477,1.04,5.264,0.79   c-2.094,1.195-4.32,1.43-6.656,0.982c-2.277-0.437-4.309-1.42-6.246-2.672c2.328,0.326,4.395-0.137,6.072-1.844   c1.619-1.647,2.393-3.645,2.326-5.975c0.055,0.004,0.418,1.693,0.543,2.533c0.057,0.004,0.389-1.684,0.492-2.479   c0.861,1.965,0.113,3.797-0.756,5.623c1.293-1.486,2.094-3.188,2.277-5.139c0.371-3.945-0.469-7.691-1.961-11.314   c-0.162-0.394-0.498-0.715-0.754-1.07c-0.232,0.365-0.527,0.705-0.688,1.1c-1.064,2.627-2.1,5.267-3.145,7.902   c-0.053,0.133-0.094,0.271-0.141,0.406c0.037,0.035,1.641-1.145,2.461-1.816c-1.777,2.992-7.363,6.471-7.318,6.55   c2.168-0.862,4.334-1.726,6.41-2.552c-1.799,2.221-3.939,4.205-6.822,5.272c1.703,0.373,3.375,0.46,5.217-0.122   c-2.971,2.369-8.645,1.725-10.828-1.047C63.012,20.191,64.787,18.581,66.563,16.97z M54.438,48.889   c0.326-4.05,1.92-7.558,4.631-10.549c1.146-1.265,2.598-2.01,4.449-2.044c-0.672,0.34-1.281,0.598-1.836,0.945   c-0.537,0.336-1.438,1.256-1.398,1.307c0.279-0.15,0.551-0.317,0.838-0.447c0.313-0.141,0.637-0.258,0.963-0.365   c0.281-0.092,0.572-0.157,0.857-0.234c-2.072,1.574-3.689,3.67-3.682,4.93c2.451-3.916,6.078-5.298,10.49-5.184   c-0.18,2.369-3.219,5.814-5.588,6.454c0.842-1.825,0.908-2.087,0.779-3.107c-0.506,0.804-0.906,1.651-1.498,2.336   c-0.996,1.153-2.082,2.235-3.188,3.289c-1.393,1.329-2.871,2.526-5.047,2.138c0.371,0.227,0.742,0.453,1.193,0.728   c-0.68,0.103-1.283,0.192-1.926,0.288C54.457,49.137,54.428,49.011,54.438,48.889z M61.988,46.067l1.176-0.913   c0.523,0.963,0.268,2.239-0.576,3.021c-1.047,0.969-2.713,1.106-4.029,0.262l1.25-0.787c0.469,0.284,1.162,0.323,1.676-0.004   C61.951,47.35,62.043,46.766,61.988,46.067z M40.932,38.34c2.711,2.991,4.305,6.499,4.631,10.549   c0.01,0.122-0.02,0.248-0.039,0.483c-0.644-0.096-1.246-0.186-1.926-0.288c0.45-0.274,0.822-0.501,1.193-0.728   c-2.177,0.389-3.655-0.809-5.048-2.138c-1.104-1.054-2.19-2.136-3.187-3.289c-0.592-0.685-0.992-1.532-1.498-2.336   c-0.129,1.021-0.063,1.282,0.779,3.107c-2.369-0.64-5.408-4.085-5.588-6.454c4.411-0.114,8.039,1.268,10.489,5.184   c0.009-1.26-1.609-3.355-3.681-4.93c0.285,0.077,0.576,0.143,0.857,0.234c0.325,0.107,0.649,0.225,0.962,0.365   c0.288,0.13,0.56,0.297,0.837,0.447c0.041-0.051-0.86-0.971-1.396-1.307c-0.555-0.348-1.164-0.605-1.836-0.945   C38.333,36.33,39.784,37.075,40.932,38.34z M38.516,47.646c0.513,0.327,1.207,0.288,1.675,0.004l1.251,0.787   c-1.316,0.845-2.982,0.707-4.029-0.262c-0.844-0.782-1.1-2.059-0.576-3.021l1.175,0.913C37.957,46.766,38.049,47.35,38.516,47.646z    M19.248,27.464c1.788,0.25,3.498,0.07,5.264-0.79c-2.277-0.83-3.962-2.216-5.299-4.007c0.928,0.381,2.869,1.054,2.892,1.001   c-0.776-0.528-1.616-0.987-2.313-1.605c-0.693-0.616-1.244-1.394-1.75-2.185c0.869,0.529,1.739,1.058,2.668,1.623   c-0.279-0.986-0.591-1.818-0.744-2.679c-0.366-2.065-0.049-4.12,0.286-6.155c0.447-2.723,1.257-5.352,2.276-7.912   c0.157-0.396,0.482-0.727,0.729-1.088c0.295,0.294,0.649,0.548,0.876,0.888c2.02,3.046,4.016,6.109,6.021,9.164   c1.667,2.537,3.349,5.063,5.621,7.124c0.172,0.156,0.354,0.302,0.594,0.396c-1-1.409-2.954-4.256-2.931-4.27   c1.774,1.611,3.549,3.222,5.325,4.834c-2.184,2.771-7.857,3.416-10.828,1.047c1.842,0.582,3.515,0.495,5.218,0.122   c-2.884-1.067-5.023-3.052-6.823-5.272c2.076,0.826,4.243,1.689,6.41,2.552c0.045-0.079-5.541-3.558-7.317-6.55   c0.82,0.672,2.423,1.852,2.46,1.816c-0.047-0.136-0.087-0.273-0.14-0.406c-1.045-2.636-2.081-5.275-3.146-7.902   c-0.16-0.395-0.455-0.734-0.687-1.1c-0.256,0.355-0.593,0.677-0.755,1.07c-1.492,3.623-2.332,7.369-1.961,11.314   c0.184,1.951,0.984,3.652,2.277,5.139c-0.869-1.826-1.617-3.658-0.755-5.623c0.103,0.795,0.435,2.482,0.491,2.479   c0.125-0.84,0.488-2.529,0.544-2.533c-0.067,2.33,0.706,4.327,2.325,5.975c1.679,1.707,3.744,2.17,6.072,1.844   c-1.938,1.252-3.969,2.235-6.245,2.672C23.568,28.894,21.342,28.659,19.248,27.464z M57.213,84.824   c-0.066-0.636-0.125-1.203-0.193-1.86c-1.398,1.163-2.58,2.431-3.576,3.85c-0.99,1.411-1.879,2.894-2.786,4.306   C50.5,89.491,50.014,85.786,50,85.932c-0.014-0.146-0.5,3.56-0.657,5.188c-0.907-1.412-1.796-2.895-2.786-4.306   c-0.996-1.419-2.178-2.687-3.576-3.85c-0.068,0.657-0.127,1.225-0.193,1.86c-1.152-1.915-2.432-6.386-2.246-7.694   c1.113,0.338,2.233,0.672,3.347,1.025c0.115,0.037,0.257,0.187,0.274,0.301c0.375,2.322,2.135,3.033,4.083,3.416   c0.586,0.115,1.172,0.175,1.755,0.177c0.583-0.002,1.169-0.062,1.755-0.177c1.948-0.383,3.708-1.094,4.083-3.416   c0.018-0.114,0.158-0.264,0.273-0.301c1.113-0.354,2.234-0.688,3.348-1.025C59.645,78.438,58.365,82.909,57.213,84.824z    M45.053,78.27c0.781-0.212,0.897-0.146,1.213,0.548c0.074,0.162,0.264,0.332,0.434,0.381c0.994,0.283,1.007,0.287,0.76,1.32   C46.163,80.413,45.293,79.599,45.053,78.27z M48.096,79.666c1.037-0.12,1.25,0.099,1.053,1.077   C48.098,80.727,48.096,80.724,48.096,79.666z M45.217,68.864c0.29-0.475,0.732-0.679,1.33-0.553   c0.816,0.171,1.621,0.406,2.44,0.561c0.341,0.064,0.679,0.087,1.013,0.08c0.334,0.007,0.672-0.016,1.013-0.08   c0.819-0.154,1.624-0.39,2.44-0.561c0.598-0.126,1.04,0.078,1.33,0.553c-1.592,0.412-3.184,0.602-4.783,0.59   C48.4,69.466,46.809,69.276,45.217,68.864z M46.601,72.854c0.096-0.432,0.295-1.489,0.401-1.971   C47.859,71.433,47.859,72.24,46.601,72.854z M53.399,72.854c-1.259-0.614-1.259-1.422-0.401-1.971   C53.104,71.365,53.304,72.423,53.399,72.854z M50.381,79.786c-0.021,0.322-0.005,0.563-0.066,0.779   c-0.029,0.102-0.203,0.162-0.314,0.24c-0.111-0.078-0.285-0.139-0.314-0.24c-0.062-0.217-0.045-0.457-0.066-0.779   c0.131-0.006,0.246-0.012,0.381-0.018C50.135,79.774,50.25,79.78,50.381,79.786z M51.904,79.666c0,1.058-0.002,1.061-1.053,1.077   C50.654,79.765,50.867,79.546,51.904,79.666z M53.301,79.198c0.17-0.049,0.359-0.219,0.434-0.381   c0.315-0.693,0.432-0.76,1.213-0.548c-0.24,1.329-1.11,2.144-2.406,2.249C52.294,79.485,52.307,79.481,53.301,79.198z    M76.137,56.679c1.504,1.939,2.389,4.117,2.709,6.521c0.326,2.434-0.021,4.764-1.113,6.978c-0.021-3.283-1.033-6.214-3.051-8.785   c-1.996-2.547-4.484-4.43-7.545-5.521c3.113,1.766,5.535,4.157,6.906,7.53c-1.148-1.241-2.438-2.289-3.963-3.038   c1.338,1.223,2.189,2.732,2.76,4.424c-1.131-1.521-2.35-2.936-4.088-3.775c-0.051,0.037,0.525,1.198,0.904,1.805   c-1.605-0.492-3.154-0.967-4.705-1.441c-0.012,0.033,0.682,0.641,1.152,0.992c-1.072-0.213-1.99-0.395-2.908-0.576   c3.221,2.442,3.738,5.611,3.488,7.834c-1.225-2.393-2.203-3.598-3.107-3.871c0.318,0.497,0.66,1.029,1.002,1.563   c-0.018,0.008-2.008-1.842-2.068-1.798c0.061,0.265,0.154,0.526,0.17,0.794c0.016,0.254-0.051,0.512-0.105,0.957   c-0.648-1.959-1.918-2.994-3.637-3.56c1.232,1.626,2.068,3.334,1.416,5.447c0.74-0.709,0.795-1.615,0.781-2.684   c0.988,1.499,0.664,2.772-0.223,4.02c0.055,0.022,1.143-0.852,1.645-1.321c-0.129,3.697-2.084,6.057-5.416,7.346   c-2.396,0.927-5.68,0.541-6.845-0.701c0.331-0.1,0.671-0.165,0.98-0.299c2.39-1.03,4.284-2.688,5.88-4.707   c0.465-0.588,0.502-1.299,0.291-1.971c-0.314-1.001-0.715-1.975-1.092-2.955c-0.586-1.521-1.186-3.035-1.768-4.556   c-0.084-0.218-0.112-0.458-0.166-0.688c-0.075,0.014-0.063,1.952,0.143,2.88c0.205,0.922,0.57,1.807,0.811,2.535   c-1.653-0.146-3.463-0.436-5.271-0.431c-0.035,0-0.069,0.001-0.104,0.002c-0.034-0.001-0.068-0.002-0.104-0.002   c-1.809-0.005-3.618,0.284-5.271,0.431c0.239-0.729,0.605-1.613,0.811-2.535c0.206-0.928,0.218-2.866,0.143-2.88   c-0.054,0.229-0.082,0.47-0.166,0.688c-0.583,1.521-1.183,3.035-1.768,4.556c-0.377,0.98-0.778,1.954-1.092,2.955   c-0.211,0.672-0.174,1.383,0.291,1.971c1.596,2.02,3.49,3.677,5.879,4.707c0.311,0.134,0.65,0.199,0.981,0.299   c-1.165,1.242-4.449,1.628-6.845,0.701c-3.332-1.289-5.287-3.648-5.416-7.346c0.502,0.47,1.59,1.344,1.643,1.321   c-0.886-1.247-1.21-2.521-0.221-4.02c-0.014,1.068,0.041,1.975,0.78,2.684c-0.651-2.113,0.185-3.821,1.417-5.447   c-1.719,0.565-2.988,1.601-3.637,3.56c-0.055-0.445-0.121-0.703-0.106-0.957c0.017-0.268,0.11-0.529,0.171-0.794   c-0.061-0.044-2.052,1.806-2.068,1.798c0.342-0.533,0.683-1.065,1.002-1.563c-0.904,0.273-1.884,1.479-3.107,3.871   c-0.249-2.223,0.268-5.392,3.488-7.834c-0.918,0.182-1.837,0.363-2.908,0.576c0.471-0.352,1.164-0.959,1.151-0.992   c-1.55,0.475-3.099,0.949-4.703,1.441c0.378-0.606,0.954-1.768,0.903-1.805c-1.738,0.84-2.957,2.254-4.088,3.775   c0.571-1.691,1.422-3.201,2.76-4.424c-1.525,0.749-2.814,1.797-3.963,3.038c1.371-3.373,3.793-5.765,6.906-7.53   c-3.061,1.092-5.549,2.975-7.545,5.521c-2.018,2.571-3.028,5.502-3.051,8.785c-1.092-2.214-1.439-4.544-1.113-6.978   c0.321-2.403,1.205-4.581,2.709-6.521c-2.09,0.69-3.855,1.873-5.533,3.228c1.842-4.075,4.673-7.274,8.491-9.626   c-2.726,0.68-5.202,1.868-7.623,3.336c0.282-0.541,0.503-1.128,0.86-1.613c0.902-1.225,1.817-2.445,2.818-3.588   c1.318-1.506,3.134-1.962,5.042-2.131c0.573-0.051,1.149-0.066,1.755-0.1c0.082,0.633,0.121,1.23,0.243,1.812   c0.45,2.14,1.776,3.695,3.455,4.978c0.784,0.599,1.646,1.094,2.467,1.646c1.812,1.218,2.901,3.81,1.97,6.159   c-0.035,0.09-0.036,0.193-0.061,0.328c0.641-0.389,0.816-0.672,1.418-2.09c0.028,0.57,0.057,1.141,0.085,1.709   c1.644-1.512,0.983-4.287-1.542-6.266c0.551-0.104,1.053-0.199,1.557-0.295c-1.803-0.465-3.621-0.732-5.193-1.739   c0.65,0,1.286,0,1.922,0c-3.278-0.755-5.207-2.778-5.867-6.282c1.055,0.217,1.984,0.408,2.946,0.605   c-0.703-0.699-1.644-0.957-2.534-1.293c0.191-0.543,0.68-0.721,1.355-0.466c1.516,0.573,2.703,1.586,3.645,2.88   c0.821,1.126,1.865,1.916,3.232,2.189c2.591,0.521,3.738,2.593,3.864,4.896c0.086,1.554-0.256,3.03-0.804,4.471   c-0.081,0.214-0.164,0.427-0.183,0.675c0.825-0.896,1.477-1.902,1.97-3.01c0.506-1.135,0.909-2.326,0.616-3.561   c-0.274-1.156-0.755-2.263-1.182-3.501c0.676,0.418,1.245,0.77,1.845,1.14c0.041-0.113,0.096-0.262,0.207-0.563   c0.725,0.775,2.112,2.18,2.144,2.173c-0.239-0.764-0.478-1.528-0.753-2.412c0.389,0.283,0.74,0.539,1.114,0.813   c0.096-0.241,0.19-0.48,0.313-0.79C48.973,51.736,50,54.445,50,54.445s1.026-2.709,2.076-4.057c0.123,0.31,0.218,0.549,0.313,0.79   c0.374-0.273,0.726-0.529,1.114-0.813c-0.275,0.884-0.514,1.648-0.753,2.412c0.031,0.007,1.419-1.397,2.144-2.173   c0.111,0.302,0.166,0.45,0.207,0.563c0.6-0.37,1.168-0.722,1.844-1.14c-0.426,1.238-0.906,2.345-1.182,3.501   c-0.293,1.234,0.111,2.426,0.617,3.561c0.492,1.107,1.145,2.113,1.969,3.01c-0.018-0.248-0.102-0.461-0.182-0.675   c-0.549-1.44-0.891-2.917-0.805-4.471c0.127-2.303,1.273-4.374,3.865-4.896c1.367-0.273,2.41-1.063,3.232-2.189   c0.941-1.294,2.129-2.307,3.645-2.88c0.676-0.255,1.164-0.077,1.355,0.466c-0.891,0.336-1.83,0.594-2.533,1.293   c0.961-0.197,1.891-0.389,2.945-0.605c-0.66,3.504-2.588,5.527-5.867,6.282c0.635,0,1.271,0,1.922,0   c-1.572,1.007-3.391,1.274-5.193,1.739c0.504,0.096,1.006,0.191,1.557,0.295c-2.525,1.979-3.186,4.754-1.543,6.266   c0.029-0.568,0.057-1.139,0.086-1.709c0.602,1.418,0.777,1.701,1.418,2.09c-0.025-0.135-0.025-0.238-0.061-0.328   c-0.932-2.35,0.158-4.941,1.969-6.159c0.82-0.552,1.684-1.047,2.469-1.646c1.678-1.282,3.004-2.838,3.455-4.978   c0.121-0.581,0.16-1.179,0.242-1.812c0.605,0.033,1.182,0.049,1.756,0.1c1.908,0.169,3.723,0.625,5.041,2.131   c1.002,1.143,1.916,2.363,2.818,3.588c0.357,0.485,0.578,1.072,0.861,1.613c-2.422-1.468-4.898-2.656-7.623-3.336   c3.818,2.352,6.648,5.551,8.49,9.626C79.992,58.552,78.227,57.369,76.137,56.679z"/><path d="M50,64.103c-1.816-0.019-3.639,0.361-4.28,1.137c1.432-0.271,2.854-0.396,4.28-0.391c1.426-0.006,2.849,0.119,4.28,0.391   C53.639,64.464,51.816,64.084,50,64.103z"/><path d="M50,83.089c-2.211,0.034-4.498-0.787-5.996-2.68c0.423,1.922,3.342,3.699,5.996,3.713c2.654-0.014,5.572-1.791,5.996-3.713   C54.498,82.302,52.211,83.123,50,83.089z"/></g></svg>