<?xml version="1.0" encoding="UTF-8" standalone="no" ?>
<!DOCTYPE svg PUBLIC "-//W3C//DTD SVG 1.1//EN" "http://www.w3.org/Graphics/SVG/1.1/DTD/svg11.dtd">
<svg xmlns="http://www.w3.org/2000/svg" xmlns:xlink="http://www.w3.org/1999/xlink" version="1.1" width="1080" height="1080" viewBox="0 0 1080 1080" xml:space="preserve">
<desc>Created with Fabric.js 5.2.4</desc>
<defs>
</defs>
<g transform="matrix(1 0 0 1 540 540)" id="b4243fd9-873c-4068-b23b-e674b366d44b"  >
<rect style="stroke: none; stroke-width: 1; stroke-dasharray: none; stroke-linecap: butt; stroke-dashoffset: 0; stroke-linejoin: miter; stroke-miterlimit: 4; fill: rgb(255,255,255); fill-rule: nonzero; opacity: 1; visibility: hidden;" vector-effect="non-scaling-stroke"  x="-540" y="-540" rx="0" ry="0" width="1080" height="1080" />
</g>
<g transform="matrix(1 0 0 1 540 540)" id="0c0265fd-1430-48cb-a882-6f12583ca988"  >
</g>
<g transform="matrix(1 0 0 1 540 540)"  >
<rect style="stroke: none; stroke-width: 1; stroke-dasharray: none; stroke-linecap: butt; stroke-dashoffset: 0; stroke-linejoin: miter; stroke-miterlimit: 4; fill: rgb(255,255,255); fill-rule: nonzero; opacity: 1; visibility: hidden;" vector-effect="non-scaling-stroke"  x="-540" y="-540" rx="0" ry="0" width="1080" height="1080" />
</g>
<g transform="matrix(1.83 0 0 1.83 538.21 538.21)"  >
<path style="stroke: rgb(0,0,0); stroke-width: 0; stroke-dasharray: none; stroke-linecap: butt; stroke-dashoffset: 0; stroke-linejoin: miter; stroke-miterlimit: 4; fill: rgb(0,0,0); fill-rule: nonzero; opacity: 1;" vector-effect="non-scaling-stroke"  transform=" translate(-369.42, -284.19)" d="M 248.6 171.52 L 558.76 481.70000000000005 C 573.307 496.24700000000007 595.127 474.41880000000003 580.576 459.88400000000007 L 266.206 145.51400000000007 C 265.57709 144.88119000000006 264.9013 144.32650000000007 264.21770000000004 143.85780000000005 C 246.78370000000004 132.32680000000005 227.25270000000003 124.09580000000005 208.40170000000003 115.25280000000005 C 207.72982000000005 114.94421000000006 207.31580000000002 114.82311000000006 206.89000000000004 114.74499000000004 C 205.12440000000004 114.41296000000004 203.23380000000003 114.93640000000005 201.87050000000005 116.30749000000004 C 200.74550000000005 117.42079000000004 200.19470000000004 118.89339000000004 200.21430000000004 120.36219000000004 C 200.21820600000004 121.01844000000004 200.34321000000003 121.66299000000004 200.57368000000002 122.28799000000004 C 209.96428000000003 141.90499000000003 218.46468000000002 162.32299000000003 230.63568000000004 180.18299000000005 L 239.44818000000004 171.37049000000005 C 241.96378000000004 169.00719000000004 246.07708000000002 169.00329000000005 248.59658000000005 171.52283000000006 z M 522.85 517.65 L 212.15000000000003 206.95 L 210.98980000000003 205.64919999999998 C 210.98980000000003 205.64919999999998 197.15380000000002 188.42219999999998 183.53280000000004 158.11019999999996 C 165.68080000000003 118.35619999999997 144.38780000000003 81.39119999999997 125.46280000000004 62.45819999999996 C 110.29880000000004 47.286199999999965 132.12300000000005 25.478199999999966 147.28680000000006 40.634199999999964 C 187.55280000000005 80.89219999999997 248.03680000000006 90.55219999999997 291.31680000000006 125.32919999999996 L 292.61760000000004 126.48939999999996 L 603.3176000000001 437.1894 C 609.9699 443.8417 609.0168000000001 452.02939999999995 604.6184000000001 457.5564 L 613.1965 466.1423 C 620.2903 473.22819999999996 620.2903 484.72429999999997 613.1965 491.8143 L 577.4585 527.5483 C 570.3687 534.6499 558.8765 534.6499 551.7864999999999 527.5483 L 543.2005999999999 518.9624 C 537.7005999999999 523.353 529.5206 524.3062 522.8485999999999 517.6577 z" stroke-linecap="round" />
</g>
</svg>