<?xml version="1.0" encoding="UTF-8"?>
<svg width="1200pt" height="1200pt" version="1.1" viewBox="0 0 1200 1200" xmlns="http://www.w3.org/2000/svg">
 <path d="m600 225c-165.68 0-300 134.32-300 300 0 76.129 30.344 140.57 75 200l-37.5 100h-337.51l0.015625-150 175.63 0.023438c-16.602-46.949-25.637-97.461-25.637-150.02 0-248.53 201.47-450 450-450s450 201.47 450 450c0 52.562-9.0391 103.07-25.637 150.02l175.63-0.023438 0.015624 150h-337.51l-37.5-100c44.656-59.434 75-123.87 75-200 0-165.68-134.32-300-300-300z"/>
 <path d="m0 975v150h1200v-150z"/>
</svg>
