<?xml version="1.0" encoding="UTF-8"?>
<svg width="1200pt" height="1200pt" version="1.1" viewBox="0 0 1200 1200" xmlns="http://www.w3.org/2000/svg">
 <path d="m600 150c-74.504 0-142.11 13.281-203.04 37.004 76.691 45.824 128.04 129.66 128.04 225.5 0 144.98-117.52 262.5-262.5 262.5s-262.5-117.52-262.5-262.5c0-269.77 382.06-412.5 600-412.5 209.48 0 378.02 84.445 503.03 209.46l-106.06 106.07c-99.984-99.98-231.45-165.54-396.97-165.54zm-450 262.5c0-62.133 50.367-112.5 112.5-112.5s112.5 50.367 112.5 112.5-50.367 112.5-112.5 112.5-112.5-50.367-112.5-112.5z" fill-rule="evenodd"/>
 <path d="m937.5 525c-144.98 0-262.5 117.52-262.5 262.5 0 95.836 51.355 179.67 128.05 225.5-60.941 23.723-128.54 37.004-203.05 37.004-165.53 0-296.99-65.551-396.96-165.53l-106.07 106.06c125.02 125.03 293.56 209.47 503.04 209.47 217.94 0 600-142.73 600-412.5 0-144.98-117.52-262.5-262.5-262.5zm-112.5 262.5c0-62.133 50.371-112.5 112.5-112.5s112.5 50.367 112.5 112.5c0 62.129-50.371 112.5-112.5 112.5s-112.5-50.371-112.5-112.5z" fill-rule="evenodd"/>
</svg>
