<?xml version="1.0" encoding="UTF-8"?>
<svg width="1200pt" height="1200pt" version="1.1" viewBox="0 0 1200 1200" xmlns="http://www.w3.org/2000/svg">
 <path d="m150 675h206.85c-17.973 163.3-93.922 308.98-206.85 415.91l102.19 109.09c141.66-134.14 235.91-318.62 254.46-525h186.7c18.512 206.36 112.72 390.85 254.33 525l102.21-109.07c-112.9-106.95-188.8-252.63-206.75-415.93h206.86v-150h-206.85c17.98-163.3 93.926-308.98 206.85-415.91l-102.19-109.09c-141.65 134.14-235.91 318.62-254.45 525h-186.7c-18.512-206.36-112.72-390.85-254.33-525l-102.21 109.06c112.89 106.95 188.81 252.63 206.75 415.94h-206.86z"/>
</svg>
