<?xml version="1.0" encoding="UTF-8"?>
<svg width="1200pt" height="1200pt" version="1.1" viewBox="0 0 1200 1200" xmlns="http://www.w3.org/2000/svg">
 <path d="m0 150c41.422 0 75 33.578 75 75v750h150v-637.5c0-62.133 50.367-112.5 112.5-112.5s112.5 50.367 112.5 112.5v637.5h150v-637.5c0-62.133 50.367-112.5 112.5-112.5 62.129 0 112.5 50.367 112.5 112.5v438.24c0 98.438 38.707 192.89 107.69 263l-107.69 107.68 53.574 53.574h321.43v-321.43l-53.574-53.574-107.66 107.67c-40.859-41.98-63.766-98.273-63.766-156.93v-438.24c0-144.98-117.52-262.5-262.5-262.5-73.449 0-139.86 30.168-187.5 78.789-47.645-48.621-114.05-78.789-187.5-78.789-51.766 0-100.04 14.984-140.7 40.852-38.406-69.098-112.14-115.85-196.8-115.85z"/>
</svg>
