<?xml version="1.0" encoding="UTF-8"?>
<svg width="1200pt" height="1200pt" version="1.1" viewBox="0 0 1200 1200" xmlns="http://www.w3.org/2000/svg">
 <path d="m593.48 19.594c-100.97 1.125-195.74 28.031-278.11 74.438l123.98 214.64c45.844-25.312 98.297-40.125 154.13-41.203zm-289.36 80.953c-83.719 49.688-153.89 119.86-203.58 203.58l214.69 123.94c27.891-46.125 66.703-84.938 112.83-112.83zm-210.1 214.82c-46.406 82.359-73.312 177.14-74.438 278.11h247.87c1.0781-55.828 15.891-108.28 41.203-154.13zm-74.438 291.14c1.125 100.97 28.031 195.74 74.438 278.11l214.64-123.98c-25.312-45.844-40.125-98.297-41.203-154.13zm80.953 289.36c49.688 83.719 119.86 153.89 203.58 203.58l123.94-214.69c-46.125-27.891-84.938-66.703-112.83-112.83zm214.82 210.1c82.359 46.406 177.14 73.312 278.11 74.438v-247.87c-55.828-1.0781-108.28-15.891-154.13-41.203zm291.14 74.438c100.97-1.125 195.74-28.031 278.11-74.438l-123.98-214.64c-45.844 25.312-98.297 40.125-154.13 41.203zm289.36-80.953c83.719-49.688 153.89-119.86 203.58-203.58l-214.69-123.94c-27.891 46.125-66.703 84.938-112.83 112.83zm210.1-214.82c46.406-82.359 73.312-177.14 74.438-278.11h-247.87c-1.0781 55.828-15.891 108.28-41.203 154.13zm74.438-291.14c-1.125-100.97-28.031-195.74-74.438-278.11l-214.64 123.98c25.312 45.844 40.125 98.297 41.203 154.13zm-80.953-289.36c-49.688-83.719-119.86-153.89-203.58-203.58l-123.94 214.69c46.125 27.891 84.938 66.703 112.83 112.83zm-214.82-210.1c-82.359-46.406-177.14-73.312-278.11-74.438v247.87c55.828 1.0781 108.28 15.891 154.13 41.203zm-284.63-87.516c-327.74 0-593.48 265.74-593.48 593.48 0 327.74 265.74 593.48 593.48 593.48 327.74 0 593.48-265.74 593.48-593.48 0-327.74-265.74-593.48-593.48-593.48zm-208.69 84.797c0-7.2188 5.8125-13.031 13.031-13.031 8.3906 0 16.594 2.7656 23.109 7.9688 6.5625-5.2031 14.766-7.9688 23.109-7.9688 9.3281 0 18.422 3.4219 25.266 9.8438s10.922 15.328 10.922 24.797v36.422c8.7188-5.4844 19.078-8.6719 30.188-8.6719 31.453 0 56.953 25.5 56.953 56.953s-25.5 56.953-56.953 56.953c-26.109 0-48.094-17.578-54.844-41.531-3.5625 6.5156-6.375 13.312-8.1562 20.109-1.8281 6.9844-9 11.109-15.938 9.2812-6.9844-1.8281-11.109-8.9531-9.2812-15.938 5.3906-20.438 17.203-39.656 31.922-55.219v-58.359c0-1.9688-0.84375-4.0781-2.625-5.7656-1.8281-1.6875-4.5-2.8125-7.4531-2.8125s-5.5781 1.125-7.4062 2.8125-2.6719 3.7969-2.6719 5.7656v59.297c0 7.1719-5.8125 13.031-13.031 13.031s-13.031-5.8594-13.031-13.031v-59.297c0-1.9688-0.84375-4.0781-2.625-5.7656-1.8281-1.6875-4.5-2.8125-7.4531-2.8125-7.2188 0-13.031-5.8125-13.031-13.031zm106.12 82.406c-6.9375 5.625-11.344 14.25-11.344 23.906 0 17.062 13.828 30.891 30.844 30.891 17.062 0 30.891-13.828 30.891-30.891s-13.828-30.891-30.891-30.891c-7.3594 0-14.109 2.625-19.453 6.9375zm150.94-19.969c-5.1094-5.1094-13.359-5.1094-18.469 0s-5.1094 13.359 0 18.422l26.672 26.719-26.672 26.672c-5.1094 5.0625-5.1094 13.359 0 18.422 5.1094 5.1094 13.359 5.1094 18.469 0l26.672-26.672 26.672 26.719c5.1094 5.0625 13.359 5.0625 18.469 0 5.1094-5.1094 5.1094-13.359 0-18.469l-26.719-26.672 76.078-76.078v44.672c0 7.2188 5.8594 13.031 13.078 13.031 7.1719 0 13.031-5.8125 13.031-13.031v-89.203h-89.25c-7.1719 0-13.031 5.8125-13.031 13.031s5.8594 13.031 13.031 13.031h44.719l-76.078 76.078zm212.48 28.875c-7.1719 0-13.031 5.8125-13.031 13.031s5.8594 13.031 13.031 13.031c3.0469 0 5.7188 1.125 7.5 2.6719 1.6875 1.5 2.2969 3.2344 2.2969 4.6406v60.984c0 7.2188 5.8594 13.078 13.078 13.078 7.1719 0 13.031-5.8594 13.031-13.078v-60.984c0-1.4062 0.60938-3.1406 2.2969-4.6406 1.7812-1.5469 4.4531-2.6719 7.5-2.6719s5.7188 1.125 7.5 2.6719c1.6875 1.5 2.2969 3.2344 2.2969 4.6406v60.984c0 7.2188 5.8594 13.078 13.078 13.078 7.1719 0 13.031-5.8594 13.031-13.078v-60.984c0-1.4062 0.60938-3.1406 2.2969-4.6406 1.7812-1.5469 4.4531-2.6719 7.5-2.6719s5.7188 1.125 7.5 2.6719c1.6875 1.5 2.2969 3.2344 2.2969 4.6406v84c0 5.25 1.0781 10.406 3.1875 15.188 2.0625 4.7812 5.1094 9.0938 8.9062 12.703s8.25 6.4219 13.125 8.3438c4.8281 1.9219 10.031 2.9062 15.234 2.9062h14.859c7.2188 0 13.078-5.8594 13.078-13.031 0-7.2188-5.8594-13.078-13.078-13.078h-14.859c-1.9688 0-3.8906-0.375-5.6719-1.0781-1.8281-0.70312-3.375-1.7344-4.6875-2.9531-1.3125-1.2656-2.3438-2.6719-3-4.2188s-0.98438-3.1406-0.98438-4.7812v-84c0-9.375-4.2188-18.047-11.062-24.141-6.8438-6.0469-15.797-9.2344-24.844-9.2344-8.2031 0-16.312 2.5781-22.828 7.5938-6.5625-5.0156-14.672-7.5938-22.875-7.5938s-16.312 2.5781-22.828 7.5938c-6.5156-5.0156-14.672-7.5938-22.875-7.5938zm91.312 357.32c0-7.2188 5.8594-13.078 13.031-13.078h164.34c7.2188 0 13.078 5.8594 13.078 13.078 0 7.1719-5.8594 13.031-13.078 13.031h-164.34c-7.1719 0-13.031-5.8594-13.031-13.031zm136.36-132.32c-11.203-10.5-25.922-16.359-41.25-16.312-15.328 0-30 5.9531-41.156 16.5s-17.906 24.938-18.984 40.266c-0.98437 13.828 2.6719 27.516 10.406 38.906-0.046874 0.1875-0.09375 0.375-0.14062 0.51562h-32.203c-7.1719 0-13.031 5.8594-13.031 13.078 0 7.1719 5.8594 13.031 13.031 13.031h39.422c5.5312 0 9.0938-3.0938 10.406-4.4062 1.5938-1.5938 2.7188-3.3281 3.4688-4.5469 1.5-2.625 2.6719-5.5781 3.4688-8.25 0.84375-2.6719 1.5469-5.6719 1.875-8.5312 0.14062-1.3594 0.23437-3.1406 0.046874-4.9688-0.09375-1.4062-0.5625-5.0625-3.1875-8.3906-5.4844-6.9375-8.2031-15.703-7.5469-24.609 0.60937-8.8594 4.5469-17.156 10.875-23.156 6.375-6 14.672-9.3281 23.297-9.375 8.625 0 16.922 3.2812 23.297 9.2812s10.359 14.25 11.016 23.156c0.65625 8.8594-2.0156 17.672-7.4531 24.562-2.625 3.3281-3.0938 6.9375-3.2344 8.3438-0.1875 1.875-0.046874 3.6562 0.09375 5.0625 0.28125 2.8594 0.98438 5.9062 1.8281 8.625 0.84375 2.625 2.0156 5.625 3.5625 8.25 0.75 1.3125 1.875 3.0469 3.5156 4.5938 1.3594 1.3594 4.9219 4.3594 10.359 4.3594h39.234c7.2188 0 13.078-5.8594 13.078-13.031 0-7.2188-5.8594-13.078-13.078-13.078h-32.062c-0.046874-0.1875-0.09375-0.42188-0.1875-0.60938 7.7344-11.438 11.391-25.172 10.359-39-1.1719-15.375-7.9688-29.719-19.125-40.266zm14.578 280.5v-1.875c0-9.2812-3.9375-18.047-10.641-24.375-6.7031-6.2812-15.609-9.7031-24.75-9.7031-8.1094 0-16.031 2.6719-22.359 7.6406-6.375-4.9688-14.297-7.6406-22.359-7.6406-8.1094 0-16.031 2.6719-22.359 7.6406-6.375-4.9688-14.297-7.6406-22.359-7.6406-7.2188 0-13.078 5.8594-13.078 13.031 0 7.2188 5.8594 13.078 13.078 13.078 2.7188 0 5.1562 0.98438 6.8438 2.5781s2.4375 3.5625 2.4375 5.3906v63.141c0 7.1719 5.8594 13.031 13.078 13.031 7.1719 0 13.031-5.8594 13.031-13.031v-63.141c0-1.8281 0.75-3.7969 2.4375-5.3906s4.1719-2.5781 6.8906-2.5781 5.1562 0.98438 6.8438 2.5781 2.4375 3.5625 2.4375 5.3906v63.141c0 7.1719 5.8594 13.031 13.078 13.031 7.1719 0 13.031-5.8594 13.031-13.031v-63.141c0-1.8281 0.75-3.7969 2.4375-5.3906s4.1719-2.5781 6.8906-2.5781 5.1562 0.98438 6.8438 2.5781 2.4375 3.5625 2.4375 5.3906v73.219h-8.1562c-7.2188 0-13.078 5.8594-13.078 13.031 0 7.2188 5.8594 13.031 13.078 13.031h8.1562v10.125c0 7.2188 5.8594 13.031 13.078 13.031 7.1719 0 13.031-5.8125 13.031-13.031v-10.266c25.031-2.0625 44.719-23.062 44.719-48.656 0-25.547-19.688-46.547-44.719-48.609zm0 70.969c10.594-1.9219 18.609-11.203 18.609-22.359s-8.0156-20.438-18.609-22.359zm-176.9 77.578c7.2188-2.0156 14.766-2.4375 22.125-1.2188 7.4062 1.2188 14.391 3.9844 20.578 8.2031 6.1875 4.1719 11.438 9.6562 15.281 16.078 3.8906 6.375 6.3281 13.547 7.125 20.953 0.84375 7.4531 0.09375 14.953-2.25 22.031l-22.781 68.859c-0.375 1.6875-0.46875 3.4219-0.1875 5.1094 0.28125 1.7812 0.98438 3.5156 1.9688 5.0156 0.98438 1.5469 2.2969 2.8125 3.8438 3.75 1.5469 0.98438 3.2344 1.5938 5.0625 1.8281 1.7812 0.23438 3.5625 0.09375 5.2969-0.42188s3.3281-1.4062 4.6875-2.625c1.3594-1.1719 2.4844-2.6719 3.2344-4.3125s1.125-3.4688 1.125-5.2969c0-7.1719 5.8125-13.031 13.031-13.031s13.031 5.8594 13.031 13.031c0 5.5312-1.1719 11.016-3.4219 16.031-2.2969 5.0625-5.625 9.5625-9.7969 13.172-4.125 3.6562-9 6.375-14.297 7.9688-5.2969 1.6406-10.875 2.0625-16.359 1.3594-5.4844-0.75-10.734-2.625-15.422-5.5781s-8.7188-6.8438-11.766-11.438-5.0625-9.7969-5.9531-15.281c-0.89062-5.4375-0.60938-11.016 0.84375-16.359l0.09375-0.375 22.969-69.562c1.1719-3.5156 1.5469-7.2656 1.125-10.922-0.375-3.7031-1.5938-7.2656-3.5156-10.453-1.9219-3.1406-4.5-5.8594-7.5469-7.9219-3.0938-2.1094-6.5625-3.4688-10.219-4.0781-3.6094-0.5625-7.3594-0.375-10.922 0.60938-3.5156 0.98438-6.8438 2.7188-9.6562 5.1094-2.8125 2.4375-5.1094 5.3906-6.6562 8.7656-1.2188 2.625-2.0156 5.4375-2.2969 8.3438 14.156 9.2344 23.484 25.219 23.484 43.359 0 28.5-23.109 51.703-51.656 51.703s-51.609-23.203-51.609-51.703c0-28.547 23.062-51.75 51.609-51.75 1.0781 0 2.1094 0.046875 3.1406 0.09375 0.79688-3.7969 2.0156-7.5 3.6562-11.062 3.1875-6.75 7.7344-12.797 13.453-17.625 5.6719-4.8281 12.375-8.3906 19.547-10.359zm-65.344 90.703c0-14.203 11.484-25.688 25.547-25.688 14.109 0 25.547 11.484 25.547 25.688 0 14.156-11.438 25.641-25.547 25.641-14.062 0-25.547-11.484-25.547-25.641zm-174 40.172c14.578-2.7656 29.766-3.0938 44.438-0.89062 14.719 2.2031 28.734 6.7969 40.922 13.688 12.234 6.8906 22.5 15.938 29.719 26.766 4.0312 5.9531 2.4375 14.062-3.5625 18.094-6 3.9844-14.109 2.3906-18.094-3.6094-4.6406-6.8906-11.672-13.312-20.859-18.516-9.1875-5.1562-20.109-8.8594-31.922-10.594-4.875-0.75-9.8438-1.125-14.812-1.1719 7.5469 8.6719 12.094 19.969 12.094 32.297 0 27.281-22.125 49.359-49.359 49.359s-49.312-22.078-49.312-49.359c0-16.312 7.875-30.75 20.109-39.75 11.25-8.3906 26.625-13.641 40.641-16.312zm-11.438 32.812c-12.844 0-23.25 10.406-23.25 23.25s10.406 23.25 23.25 23.25 23.25-10.406 23.25-23.25-10.406-23.25-23.25-23.25zm28.031 146.02c14.719 2.2031 29.906 1.875 44.438-0.89062 14.062-2.6719 29.438-7.9219 40.688-16.312 12.188-9 20.109-23.438 20.109-39.75 0-27.234-22.078-49.359-49.312-49.359-27.281 0-49.359 22.125-49.359 49.359 0 12.375 4.5469 23.672 12.047 32.297-4.9219-0.046875-9.8906-0.42188-14.766-1.125-11.812-1.7812-22.734-5.4375-31.922-10.641-9.2344-5.1562-16.219-11.625-20.859-18.516-4.0312-6-12.141-7.5938-18.094-3.5625-6 3.9844-7.5938 12.094-3.6094 18.094 7.2656 10.781 17.531 19.828 29.719 26.719 12.234 6.8906 26.25 11.531 40.922 13.688zm79.172-56.953c0 12.844-10.406 23.25-23.25 23.25s-23.25-10.406-23.25-23.25 10.406-23.25 23.25-23.25 23.25 10.406 23.25 23.25zm-281.11 4.2188v-100.31c-4.0781 0.375-8.25 0.5625-12.375 0.5625h-0.046874c-4.125 0-8.25-0.1875-12.375-0.5625v100.31c4.125-0.375 8.25-0.60938 12.375-0.60938h0.046874c4.125 0 8.2969 0.23438 12.375 0.60938zm26.109 5.1562v-110.62c9.375-2.8594 18.375-6.7969 26.766-11.672 6.2344-3.6562 8.3438-11.625 4.6875-17.859-3.6094-6.2344-11.625-8.2969-17.812-4.6875-15.375 9-33.562 13.828-52.125 13.875-18.562-0.046875-36.75-4.875-52.125-13.875-6.2344-3.6094-14.203-1.5469-17.859 4.6875-3.6094 6.2344-1.5 14.203 4.6875 17.859 8.4375 4.875 17.438 8.8125 26.812 11.672v110.62c-9.375 2.8594-18.375 6.75-26.812 11.672-6.1875 3.6562-8.2969 11.625-4.6875 17.859 3.6562 6.2344 11.625 8.2969 17.859 4.6875 15.375-9 33.562-13.875 52.125-13.875s36.75 4.875 52.125 13.875c6.1875 3.6094 14.203 1.5469 17.812-4.6875 3.6562-6.2344 1.5469-14.203-4.6875-17.859-8.3906-4.9219-17.391-8.8125-26.766-11.672zm-201.52-250.97c7.1719 0 13.031 5.8594 13.031 13.031 0 17.297-6.8906 33.891-19.125 46.125-2.2031 2.2031-4.5 4.2188-6.9844 6.0469 15.844 11.906 26.109 30.844 26.109 52.172 0 36.047-29.203 65.25-65.25 65.25-36 0-65.203-29.203-65.203-65.25 0-21.328 10.266-40.266 26.109-52.172-2.4844-1.8281-4.8281-3.8438-6.9844-6.0469-12.234-12.234-19.125-28.828-19.125-46.125 0-7.1719 5.8594-13.031 13.031-13.031 7.2188 0 13.078 5.8594 13.078 13.031 0 10.406 4.125 20.344 11.438 27.656 7.3594 7.3594 17.297 11.484 27.656 11.484 10.406 0 20.344-4.125 27.703-11.484 7.3125-7.3125 11.438-17.25 11.438-27.656 0-7.1719 5.8594-13.031 13.078-13.031zm-52.219 78.281c-21.609 0-39.094 17.484-39.094 39.094s17.484 39.141 39.094 39.141c21.656 0 39.141-17.531 39.141-39.141s-17.484-39.094-39.141-39.094zm-196.36-284.53c22.125-8.7188 43.219 6.4219 48.984 27.609l0.046875 0.1875 16.922 70.406 16.875-70.406 0.046875-0.1875c5.7656-21.188 26.906-36.328 49.031-27.609 21.75 8.5312 30.188 35.016 22.547 56.109l-1.1719 3.1406c-0.60938 1.6406-1.3125 3.2812-2.1562 4.8281l-6.4219 11.953c-3.4219 6.3281-11.344 8.7188-17.672 5.2969-6.375-3.4219-8.7188-11.344-5.2969-17.672l6.4219-11.953c0.23438-0.42188 0.42188-0.89062 0.60938-1.3594l1.1719-3.1406c3.8438-10.594-1.6406-20.625-7.5938-22.969-4.1719-1.6406-11.484 0.1875-14.25 10.078l-26.906 112.22c-3.8438 16.031-26.625 16.031-30.469 0l-26.953-112.22c-2.7656-9.8906-10.031-11.719-14.25-10.078-5.9531 2.3438-11.391 12.375-7.5469 22.969l1.125 3.1406c0.1875 0.46875 0.42188 0.9375 0.65625 1.3594l6.4219 11.953c3.4219 6.3281 1.0312 14.25-5.2969 17.672s-14.25 1.0312-17.672-5.2969l-6.4219-11.953c-0.84375-1.5469-1.5938-3.1875-2.2031-4.8281l-1.125-3.1406c-7.6406-21.094 0.79688-47.578 22.547-56.109zm0.75-172.03c-7.2188 0-13.078 5.8594-13.078 13.078 0 7.1719 5.8594 13.031 13.078 13.031h23.016c-3.1406 19.406-13.219 38.672-30.375 56.062-5.0625 5.1094-5.0156 13.359 0.14062 18.422 5.1094 5.0625 13.406 5.0156 18.422-0.09375 21.469-21.797 34.875-47.438 38.203-74.391h18.562c3.3281 26.953 16.688 52.594 38.156 74.391 5.0625 5.1094 13.312 5.1562 18.469 0.09375 5.1094-5.0625 5.1562-13.312 0.09375-18.422-17.109-17.391-27.234-36.656-30.375-56.062h23.062c7.2188 0 13.031-5.8594 13.031-13.031 0-7.2188-5.8125-13.078-13.031-13.078h-23.062c3.1406-19.406 13.266-38.672 30.375-56.062 5.0625-5.1094 5.0156-13.359-0.09375-18.422-5.1562-5.0625-13.406-5.0156-18.469 0.14062-21.469 21.75-34.828 47.391-38.156 74.344h-18.562c-3.3281-26.953-16.734-52.594-38.203-74.344-5.0156-5.1562-13.312-5.2031-18.422-0.14062-5.1562 5.0625-5.2031 13.312-0.14062 18.422 17.156 17.391 27.234 36.656 30.375 56.062zm135.79-268.36c10.453-13.594 30.938-13.594 41.391 0l18.422 24 18.469-24c10.453-13.594 30.938-13.594 41.391 0l28.781 37.453c4.3594 5.7188 3.2812 13.922-2.3906 18.328-5.7188 4.3594-13.922 3.2812-18.328-2.4375l-28.781-37.453-18.422 24c-10.453 13.594-30.938 13.594-41.391 0l-18.422-24-28.781 37.453c-4.4062 5.7188-12.609 6.7969-18.328 2.4375-5.6719-4.4062-6.75-12.609-2.3906-18.328zm59.812 103.5-18.422-24.047c-10.453-13.594-30.938-13.594-41.391 0l-28.781 37.5c-4.3594 5.7188-3.2812 13.922 2.3906 18.281 5.7188 4.4062 13.922 3.3281 18.328-2.3906l28.781-37.5 18.422 24.047c10.453 13.594 30.938 13.594 41.391 0l18.422-24.047 28.781 37.5c4.4062 5.7188 12.609 6.7969 18.328 2.3906 5.6719-4.3594 6.75-12.562 2.3906-18.281l-28.781-37.5c-10.453-13.594-30.938-13.594-41.391 0zm326.11-24.234c-176.48 0-319.55 143.06-319.55 319.55s143.06 319.55 319.55 319.55 319.55-143.06 319.55-319.55-143.06-319.55-319.55-319.55z" fill-rule="evenodd"/>
</svg>
