<?xml version="1.0" encoding="UTF-8"?>
<svg width="1200pt" height="1200pt" version="1.1" viewBox="0 0 1200 1200" xmlns="http://www.w3.org/2000/svg">
 <path d="m0 225h158.05c27.398 0 60.012 17.875 90.125 55.594 29.16 36.523 63.926 68.426 103 94.398-121.26 80.617-201.18 218.48-201.18 375.01 0 248.53 201.47 450 450 450s450-201.47 450-450c0-156.53-79.922-294.39-201.18-375.01 39.074-25.973 73.844-57.875 103-94.398 30.113-37.719 62.723-55.594 90.129-55.594h158.05v-150h-158.05c-91.844 0-163.07 56.535-207.35 112-55.09 69-139.68 113-234.6 113s-179.51-43.996-234.6-113c-44.289-55.469-115.51-112-207.35-112h-158.05zm600 225c-165.68 0-300 134.32-300 300s134.32 300 300 300 300-134.32 300-300-134.32-300-300-300z" fill-rule="evenodd"/>
</svg>
