<?xml version="1.0" encoding="UTF-8"?>
<svg width="1200pt" height="1200pt" version="1.1" viewBox="0 0 1200 1200" xmlns="http://www.w3.org/2000/svg">
 <path d="m75 225c0-41.422-33.578-75-75-75v-150c84.66 0 158.39 46.754 196.8 115.85 40.664-25.867 88.934-40.852 140.7-40.852 95.996 0 136.62 36.891 187.5 90.375 40.512-53.484 119.72-90.375 225-90.375 165.68 0 300 134.32 300 300v300c0 143.08-57.234 272.79-150.06 367.48 24.246 4.9297 49.348 7.5156 75.059 7.5156h150v150h-150c-80.52 0-156.8-18.129-225-50.52-68.195 32.391-144.48 50.52-225 50.52h-150v-150h150c25.707 0 50.809-2.5859 75.062-7.5156-92.828-94.695-150.06-224.41-150.06-367.48v-337.5c0-62.133-50.367-112.5-112.5-112.5s-112.5 50.367-112.5 112.5v637.5h-150zm825 450v-300c0-82.844-67.156-150-150-150s-150 67.156-150 150v300c0 122.68 58.918 231.61 150 300.03 91.078-68.418 150-177.35 150-300.03z" fill-rule="evenodd"/>
</svg>
