<?xml version="1.0" encoding="UTF-8"?>
<svg width="1200pt" height="1200pt" version="1.1" viewBox="0 0 1200 1200" xmlns="http://www.w3.org/2000/svg">
 <path d="m150 225c0-41.422-33.578-75-75-75v-150c100.89 0 186.27 66.406 214.82 157.89 64.32-51.855 146.12-82.895 235.18-82.895 207.11 0 375 167.89 375 375v162.8c23.461-8.293 48.703-12.805 75-12.805 124.27 0 225 100.73 225 225s-100.73 225-225 225c-46.238 0-89.211-13.949-124.96-37.859-64.793 112.28-186.09 187.86-325.04 187.86v-150c124.27 0 225-100.73 225-225v-375c0-124.27-100.73-225-225-225s-225 100.73-225 225v525h-150zm750 600c0 41.422 33.578 75 75 75s75-33.578 75-75-33.578-75-75-75-75 33.578-75 75z" fill-rule="evenodd"/>
</svg>
