<?xml version="1.0" encoding="UTF-8"?>
<svg width="1200pt" height="1200pt" version="1.1" viewBox="0 0 1200 1200" xmlns="http://www.w3.org/2000/svg">
 <path d="m262.5 225c-62.133 0-112.5 50.367-112.5 112.5s50.367 112.5 112.5 112.5h37.5v150h-37.5c-144.98 0-262.5-117.52-262.5-262.5s117.52-262.5 262.5-262.5c85.93 0 162.24 41.41 210 105 51.68 68.902 94.641 152.22 127.5 265.95 32.859-113.73 75.84-197.09 127.52-265.99 47.762-63.59 124.05-104.96 209.98-104.96 144.98 0 262.5 117.52 262.5 262.5s-117.52 262.5-262.5 262.5h-37.5v-150h37.5c62.129 0 112.5-50.367 112.5-112.5s-50.371-112.5-112.5-112.5c-36.734 0-69.344 17.535-90 45-96.887 129.18-172.27 344.87-172.5 927.38v2.625h-150v-2.5352c-0.21875-582.57-75.605-798.29-172.49-927.47-20.652-27.465-53.273-44.992-90.008-44.992z"/>
</svg>
