<?xml version="1.0" encoding="UTF-8"?>
<svg width="1200pt" height="1200pt" version="1.1" viewBox="0 0 1200 1200" xmlns="http://www.w3.org/2000/svg">
 <path d="m375 412.5c0-144.98 117.52-262.5 262.5-262.5s262.5 117.52 262.5 262.5c0 77.637-28.117 144.44-74.078 183.18-60.219 50.75-99.09 102.77-122.28 156.34-23.184 53.559-28.641 103.99-28.641 147.98 0 124.27 100.73 225 225 225s225-100.73 225-225h-150c0 41.422-33.578 75-75 75s-75-33.578-75-75c0-31.012 3.7969-59.496 16.297-88.395 12.504-28.875 35.754-62.844 81.293-101.23 87.488-73.738 127.41-187.2 127.41-297.88 0-227.82-184.68-412.5-412.5-412.5-227.82 0-412.5 184.68-412.5 412.5 0 60.934 6.1953 127.23 29.711 192.06-102.56 20.961-179.71 111.69-179.71 220.44 0 124.27 100.73 225 225 225s225-100.73 225-225c0-64.734-22.961-115.04-45.348-148.52-59.023-88.242-104.65-147.87-104.65-263.98zm0 412.5c0-41.422-33.578-75-75-75s-75 33.578-75 75 33.578 75 75 75 75-33.578 75-75z" fill-rule="evenodd"/>
</svg>
