<?xml version="1.0" encoding="UTF-8"?>
<svg width="1200pt" height="1200pt" version="1.1" viewBox="0 0 1200 1200" xmlns="http://www.w3.org/2000/svg">
 <path d="m656.25 487.5c0 24.414-15.73 45.039-37.5 52.801v62.176l133.45-88.969c28.613-19.07 47.305-49.031 52.461-82.406-19.93-0.86328-35.906-17.215-35.906-37.352h-39.395c-7.4805 36.676-36.43 65.625-73.105 73.105z"/>
 <path d="m581.25 206.25v37.5h-150v131.25c0 10.352 8.418 18.75 18.75 18.75s18.75-8.3984 18.75-18.75v-37.5c0-31.012 25.238-56.25 56.25-56.25s56.25 25.238 56.25 56.25v150c0 10.352 8.418 18.75 18.75 18.75s18.75-8.3984 18.75-18.75v-281.25h150c0-17.156 11.645-31.5 27.395-35.945-28.801-54.691-80.008-95.156-139.89-110.06v63.824l-39-19.48c-56.043-28.012-117.99-44.324-180.56-47.699l21.656 86.645-34.051-13.633c-52.574-21.039-107.59-32.98-163.88-35.605l30.805 46.219-49.238 18.449c-51.281 19.219-89.551 62.082-104.2 113.29 57.887-42.844 127.69-66 201.04-66z"/>
 <path d="m137.49 468.75h68.758v112.5h187.5v18.75c0 24.414-15.73 45.039-37.5 52.801v40.949h112.5v18.75c0 29.586-14.062 55.707-35.551 72.898 6.2422 28.312 27.918 51.148 56.605 58.352l9.3008 2.3438 25.895 38.852 25.895-38.852 9.2617-2.3438c28.727-7.1797 50.398-30.039 56.645-58.352-21.488-17.191-35.551-43.312-35.551-72.898v-172.2c-21.77-7.7617-37.5-28.387-37.5-52.801v-150c0-10.352-8.418-18.75-18.75-18.75s-18.75 8.3984-18.75 18.75v37.5c0 31.012-25.238 56.25-56.25 56.25-14.645 0-27.863-5.7578-37.875-14.945-2.0234 39.621-34.5 71.195-74.625 71.195-41.418 0-75-33.582-75-75s33.582-75 75-75c22.539 0 42.508 10.145 56.25 25.875v-119.62h-54.918c-46.781 0-91.801 10.895-132.58 30.938v37.82c0 56.738-27.094 110.95-72.508 144.98-1.5547 1.1797-2.4922 3.0703-2.4922 5.0234 0 3.4492 2.793 6.2422 6.2422 6.2422z"/>
 <path d="m656.25 427.8c15.883-5.6641 28.387-18.168 34.051-34.051h-34.051z"/>
 <path d="m806.25 206.25h37.52v187.5h-37.52z"/>
 <path d="m656.25 356.25h112.5v-56.738c-15.711 11.906-35.062 19.238-56.25 19.238h-56.25z"/>
 <path d="m765.3 243.75h-109.05v37.5h56.25c24.414 0 45.039-15.73 52.801-37.5z"/>
 <path d="m176.83 990.84 59.68-39.789-40.707-61.07 52.668-17.57c-6.1875-7.9297-11.719-16.352-16.895-24.992-57.992 14.086-100.33 66.867-100.33 127.58v168.75h112.5v-31.633c0-35.062-13.648-68.008-38.438-92.793z"/>
 <path d="m761.49 961.45 34.293-51.43-61.742-20.57 21.449-21.469c17.738-17.738 32.195-38.812 42.449-61.742l-122.94-0.003906c-8.418 0-16.426-1.4805-24.188-3.5625-11.23 36.133-39.562 65.082-76.633 76.086l-49.18 73.801-49.18-73.762c-37.051-10.988-65.418-39.957-76.633-76.105-7.7617 2.082-15.77 3.5625-24.188 3.5625h-122.95c10.258 22.93 24.695 44.008 42.449 61.742l21.449 21.469-61.742 20.57 34.293 51.43-52.895 35.27c29.477 31.371 45.641 72.133 45.641 115.39v31.633h487.5v-31.633c0-43.273 16.164-84.02 45.656-115.41z"/>
 <path d="m818.44 847.45c-5.1758 8.625-10.688 17.062-16.895 24.992l52.668 17.57-40.707 61.07 59.68 39.789-28.48 28.5c-24.805 24.766-38.453 57.688-38.453 92.75v31.633h112.5v-168.75c0-60.711-42.336-113.49-100.31-127.55z"/>
 <path d="m206.25 675c0 10.352 8.418 18.75 18.75 18.75h18.75v-37.5h-37.5z"/>
 <path d="m281.25 656.25h37.5v112.5h-37.5z"/>
 <path d="m1031.2 246.96v106.09c21.824-7.7422 37.5-28.594 37.5-53.043s-15.676-45.301-37.5-53.043z"/>
 <path d="m881.25 281.25h112.5v37.5h-112.5z"/>
 <path d="m356.25 412.5c0 10.355-8.3945 18.75-18.75 18.75s-18.75-8.3945-18.75-18.75 8.3945-18.75 18.75-18.75 18.75 8.3945 18.75 18.75"/>
</svg>
